<svg id="Capa_1" data-name="Capa 1" xmlns="http://www.w3.org/2000/svg" width="68.92" height="95.42" viewBox="0 0 68.92 95.42"><path d="M714.46,366.54c.6.21,1.07-.07,1.48-.85,0,0,.09-.05,0,0a23,23,0,0,0,2.4,1,19.37,19.37,0,0,0,11.48.2,11.43,11.43,0,0,0,4.92-2.77,1.08,1.08,0,0,0,.12-1.59c-.38-.46-1-.46-1.58,0a12,12,0,0,1-6.27,2.74l-.21,0a17.1,17.1,0,0,1-9.87-1.57l.78-.56a1.13,1.13,0,0,0,.4-1.61,1,1,0,0,0-1.63-.19,7.62,7.62,0,0,0-2.64,3.44A1.24,1.24,0,0,0,714.46,366.54Z" transform="translate(-685.97 -305)" fill="#e94444"/><path d="M724.25,354.84c.77,0,1.55,0,2.32,0,1.09.08,2.19.2,3.28.38a1.07,1.07,0,0,1,.76.61c0,.25-.22.64-.45.87a3.05,3.05,0,0,1-1,.59c-1,.43-2.06.82-3.08,1.23a1,1,0,0,0-.67,1.29.92.92,0,0,0,1.19.72,13.84,13.84,0,0,0,5-2.2,3.12,3.12,0,0,0,1.15-3.12,2.49,2.49,0,0,0-2.43-2.11c-2.05-.23-4.13-.24-6.2-.29-.66,0-1,.48-.9,1.1A.92.92,0,0,0,724.25,354.84Z" transform="translate(-685.97 -305)" fill="#e94444"/><path d="M725.75,373.49c1,.22,2,.32,3,.46a7.93,7.93,0,0,0,4.32-2.39,1.17,1.17,0,0,0,.42-.78c0-.37-.23-.91-.49-1a1.68,1.68,0,0,0-1.25.17,27.66,27.66,0,0,1-2.46,1.52,4.32,4.32,0,0,1-3.51-.23.81.81,0,0,0-1.18.36,1.6,1.6,0,0,0,.08,1.25A1.74,1.74,0,0,0,725.75,373.49Z" transform="translate(-685.97 -305)" fill="#e94444"/><path d="M704.25,354.49a1.29,1.29,0,0,0,1.3,1l.26,0,30.64-7.64,1.89-.47.16-.05h0a.47.47,0,0,0,.12-.07h0l.13-.09,0,0L739,347v0a1.05,1.05,0,0,0,.2-.27h0a.93.93,0,0,0,.12-.33h0l0-.13h0v-.3a.78.78,0,0,0,0-.14l-1.8-7.19a1.26,1.26,0,0,0-.92-.93,1,1,0,0,0-.25,0h-.25l-.13,0-32.54,8.11a1.3,1.3,0,0,0-.46.22,1.6,1.6,0,0,0-.26.26,1.26,1.26,0,0,0-.21,1.07Z" transform="translate(-685.97 -305)" fill="#149980"/><path d="M692.66,340.13l11.45,45.95a6.45,6.45,0,0,0,7.8,4.69l33.19-8.27h0l3-.75h0l.92-.23a6.44,6.44,0,0,0,4.69-7.8l-9.24-37.08-.4.11a6.3,6.3,0,0,1-2.6.1l-.14,0,9.38,37.64a3.35,3.35,0,0,1-2.43,4l-.92.23-3,.75-33.18,8.26a3.33,3.33,0,0,1-4-2.43l-11.65-46.76-.7-2.79-.36-1.43a3.35,3.35,0,0,1,2.44-4.05l21.9-5.46,0-3.18-22.61,5.63a6.45,6.45,0,0,0-4.69,7.81l.19.74h0Z" transform="translate(-685.97 -305)" fill="#e94444"/><path d="M690.85,336.76a6.43,6.43,0,0,0-4.69,7.8l12.7,51a6.45,6.45,0,0,0,7.8,4.69L743.77,391a6.43,6.43,0,0,0,4.69-7.8l-.36-1.43-3,.75.36,1.43A3.35,3.35,0,0,1,743,388l-37.11,9.25a3.36,3.36,0,0,1-4-2.44l-12.7-51a3.35,3.35,0,0,1,2.44-4.05l.92-.23.14.6-1.06-4.29h0l.17.69Z" transform="translate(-685.97 -305)" fill="#149980"/><path d="M752.77,311.67a2.54,2.54,0,0,0-2.93,2.08,2.6,2.6,0,0,0,.25,1.59l-6.33,3.52a2,2,0,0,1-2.94-1.18l-2.37-7.79a2.54,2.54,0,1,0-2.63-.44L731,316a2,2,0,0,1-3.16.16L723,310.77a2.57,2.57,0,0,0,.76-1.42,2.54,2.54,0,1,0-2.93,2.08h0l.12,9.64,0,3.18.05,3.41a4.06,4.06,0,0,0,3.38,4l16.23,2.74,1.14.19a4.06,4.06,0,0,0,4.5-2.63l5.52-15.26h0a2.54,2.54,0,0,0,.84-5Z" transform="translate(-685.97 -305)" fill="#ffa73e"/></svg>