<svg width="130" height="130" viewBox="0 0 130 130" fill="none" xmlns="http://www.w3.org/2000/svg">
<path d="M129.558 0.753601H0.872803V129.367H129.558V0.753601Z" fill="#BC582A"/>
<path d="M73.07 128.884L72.9494 129.336H69.8504C70.1017 124.8 70.3279 120.263 70.6044 115.729C70.6723 114.614 70.25 114.247 69.1642 114.295C67.5381 114.368 65.8968 114.325 64.2757 114.332C63.9837 114.343 63.6912 114.332 63.401 114.297C62.2549 114.081 61.7296 114.508 61.6417 115.701C61.3375 120.288 60.297 124.78 59.8647 129.354L57.4745 129.336C57.482 129.271 57.482 129.204 57.4745 129.138C58.148 125.272 58.5879 121.376 59.0805 117.482C59.3319 115.445 59.6033 113.426 59.5379 111.376C59.46 109.015 58.3265 107.62 56.1122 107.105C42.9697 104.091 33.077 96.6155 26.1099 85.1609C22.6855 79.5354 20.5403 73.2263 19.8264 66.6803C17.8383 48.9809 24.2525 34.7079 37.7142 23.3287C40.2488 21.1435 43.1069 19.364 46.1868 18.0536C47.6044 17.4632 48.6851 16.4007 49.7056 15.2904C52.4351 12.3413 55.5944 10.1257 59.6586 9.41736C62.2402 8.96079 64.8926 9.10867 67.4074 9.84941C70.3706 10.716 73.2158 9.86198 76.0987 9.48267C81.2737 8.80444 85.637 10.1986 88.7335 14.5719C89.8193 16.1093 91.3217 17.305 93.064 18.0184C95.5347 19.0859 97.6661 20.5831 98.7845 23.1905C98.9753 23.5152 99.2407 23.7899 99.5587 23.9918C107.968 30.4778 112.88 39.1868 115.499 49.2975C116.634 53.547 117.081 57.9512 116.821 62.3421C115.609 80.9483 106.943 94.7768 90.1963 103.328C86.2301 105.325 81.9682 106.671 77.574 107.314C75.9504 107.565 75.312 108.929 74.6359 110.163C73.8819 111.554 73.8366 113.137 73.6933 114.684C73.442 117.339 73.3365 120.01 73.1681 122.665C73.015 124.734 72.9823 126.811 73.07 128.884ZM63.2678 112.531C64.8538 112.549 66.4397 112.572 68.0257 112.579C70.6974 112.594 70.6974 112.579 70.8633 109.899C70.8588 109.73 70.874 109.562 70.9085 109.396C71.2403 108.316 70.7904 108.007 69.7348 108.01C67.6084 108.01 65.462 108.176 63.3558 107.902C61.5562 107.671 61.3224 107.902 61.6944 109.786C61.7515 110.235 61.775 110.687 61.7648 111.14C61.6592 112.298 62.1619 112.73 63.2728 112.536L63.2678 112.531ZM21.7969 62.101C21.6586 65.3113 22.1739 68.4513 22.9631 71.5309C26.3662 84.8017 34.0874 94.6788 46.3376 100.921C51.9079 103.789 58.0568 105.355 64.3209 105.503L68.3222 105.515L68.5962 105.503H69.3075C76.1766 105.252 82.6812 103.468 88.5349 99.9765C102.509 91.6242 110.037 78.9739 111.452 62.9551C112.488 51.2493 109.469 40.385 102.203 30.9148C101.353 29.8071 100.514 28.6541 99.1867 27.8778C98.9353 28.4581 98.7946 29.0082 98.4829 29.4227C97.5253 30.7038 97.8621 31.6835 98.8675 32.8064C106.551 41.435 109.627 51.6763 108.722 63.0329C107.818 74.3895 103.251 84.1511 94.7857 91.9382C90.5007 95.8936 85.4214 98.8908 79.8863 100.73C79.6885 100.681 79.4839 100.664 79.2806 100.68C76.6768 101.283 74.0296 101.681 71.3634 101.871C66.0123 102.312 60.627 101.671 55.5291 99.9866C50.5408 98.3593 45.9616 95.6777 42.1026 92.1241C38.0459 88.4491 34.6026 84.337 32.5894 79.2176C30.4279 73.7189 29.4099 68.0167 29.8096 62.0482C30.1137 57.5041 30.8551 53.0906 32.4034 48.8127C33.8558 44.6995 36.0511 40.8876 38.8804 37.5665C39.3026 37.0642 39.9109 36.5266 39.3454 35.8082C38.1591 34.3211 37.5433 32.525 36.6083 30.9048C37.302 29.7417 36.8345 28.5486 36.9124 27.1569C36.5178 27.4634 36.3419 27.5764 36.1936 27.7196C31.9409 31.8066 28.4574 36.4412 25.954 41.8092C23.6423 46.6836 22.2533 51.9435 21.8572 57.3232C21.7383 58.9131 21.7223 60.509 21.8095 62.101H21.7969ZM99.5209 37.3606C98.8423 36.195 97.8797 35.2731 96.9648 34.3035C96.2108 33.5122 95.5749 33.6931 94.7757 34.2357C92.7976 35.5871 92.7348 37.5012 93.0163 39.5786C93.5617 43.53 92.5915 46.8634 88.9949 49.0563C88.5173 49.207 88.0448 49.3804 87.5572 49.506C84.5613 50.2721 81.6884 50.2721 79.0745 48.2751C76.3953 46.2253 75.0531 46.2655 72.399 48.4635C70.4159 50.1214 68.189 50.5283 65.7008 50.0837C63.8836 49.7571 62.5012 48.7021 61.1164 47.6069C59.2162 46.0997 57.198 45.4667 54.8128 46.5217C53.7623 46.9447 52.6656 47.2424 51.5454 47.4084C46.8126 48.2625 42.7485 45.5521 41.6376 40.8773C41.4717 40.1714 41.2731 39.4731 41.0419 38.5939C38.1468 41.7263 35.9154 45.4116 34.482 49.4281C32.4424 55.0275 31.6199 60.997 32.0691 66.939C32.8005 76.9543 36.9551 85.1609 44.7416 91.5112C50.7009 96.3719 57.5599 98.9165 65.2006 99.5796C75.0732 100.434 84.222 98.188 91.6917 91.7222C104.681 80.4786 109.326 66.2055 105.329 49.3527C104.308 44.9763 102.329 40.8806 99.5335 37.3606H99.5209ZM96.7311 26.338C96.9095 25.2554 96.3918 24.2355 95.7433 23.2307C94.8639 21.8941 93.5759 20.8773 92.0713 20.3319C89.7715 19.4351 88.0272 17.9154 86.5418 15.9761C85.1242 14.1173 83.3674 12.7407 80.9822 12.1805C78.597 11.6204 76.2671 11.9495 73.9447 12.3916C71.6802 12.855 69.3451 12.855 67.0806 12.3916C64.7583 11.8892 62.4108 11.5374 60.008 11.967C55.9237 12.6955 52.9981 15.1598 50.4043 18.1766C49.9738 18.6678 49.4545 19.0734 48.8736 19.3723C46.7699 20.5078 44.4501 21.1734 42.5072 22.6831C39.4082 25.0921 38.2043 28.7118 39.8707 31.6835C40.5397 32.8356 41.2959 33.9348 42.1327 34.9717C42.8836 35.8727 43.3954 36.9482 43.6207 38.0991C43.9145 39.8241 44.4839 41.4907 45.3071 43.0351C45.5996 43.5693 46.0585 43.9934 46.6141 44.2433C48.8083 45.3662 50.9472 45.1426 53.1489 44.3212C54.6368 43.7636 56.1499 43.2813 57.7761 43.3742C60.013 43.5023 61.7975 44.5774 63.3709 46.0746C65.4092 48.0013 68.8123 48.6318 71.3659 46.1826C74.0653 43.5953 76.9784 43.4521 80.0673 45.8058C82.832 47.9134 85.5063 47.9762 88.4444 46.4162C88.8309 46.2165 89.1623 45.9249 89.4096 45.5672C90.4376 43.9067 90.9629 42.1433 90.5833 40.1112C89.9701 36.823 90.5029 33.8664 93.612 31.897C93.9595 31.6629 94.2799 31.3908 94.5671 31.0856C95.8313 29.8246 96.8291 28.4154 96.7437 26.338H96.7311Z" fill="#1D2831"/>
<path d="M64.2778 114.335C65.909 114.335 67.5452 114.37 69.1663 114.297C70.2521 114.25 70.6744 114.616 70.6065 115.732C70.3275 120.266 70.1038 124.802 69.8525 129.339L61.7518 129.357C61.9089 128.882 62.0184 128.393 62.0786 127.897C62.2545 126.696 61.8901 125.342 62.2068 124.34C62.9809 121.891 62.5511 119.374 63.104 116.958C63.3152 116.026 62.8879 114.754 64.2778 114.335Z" fill="#2B404C"/>
<path d="M63.4033 114.295C62.2572 114.079 61.7319 114.506 61.6439 115.699C61.3398 120.286 60.2992 124.777 59.8669 129.352H60.2766H61.282L61.7419 129.364C61.899 128.89 62.0085 128.401 62.0687 127.905C62.2446 126.704 61.8802 125.35 62.1969 124.348C62.971 121.899 62.5412 119.382 63.0941 116.965C63.3078 116.033 62.8805 114.762 64.2729 114.343C63.9822 114.349 63.6915 114.333 63.4033 114.295Z" fill="#49636A"/>
<path d="M99.5331 37.3606C102.333 40.8785 104.318 44.9734 105.344 49.3502C109.34 66.203 104.696 80.4761 91.7064 91.7196C84.2366 98.1855 75.0879 100.431 65.2153 99.5771C57.5872 98.9139 50.7156 96.3693 44.7563 91.5087C36.9648 85.1584 32.8152 76.9518 32.0838 66.9365C31.6345 60.9945 32.4571 55.025 34.4967 49.4256C35.9301 45.4091 38.1615 41.7238 41.0566 38.5914C41.2878 39.4706 41.4864 40.1689 41.6523 40.8748C42.7531 45.5521 46.8273 48.2625 51.5601 47.4059C52.6803 47.2399 53.777 46.9422 54.8275 46.5192C57.2127 45.4642 59.2309 46.1022 61.131 47.6044C62.5159 48.6996 63.8958 49.7547 65.7155 50.0812C68.2037 50.5259 70.4306 50.1189 72.4137 48.461C75.0552 46.2554 76.4099 46.2228 79.0892 48.2726C81.7031 50.2821 84.576 50.2822 87.5719 49.5035C88.0595 49.3779 88.532 49.2045 89.0096 49.0538C89.1403 49.6542 88.625 50.1088 88.5923 50.6087C88.6761 50.75 88.8102 50.8545 88.9678 50.9011C89.1253 50.9476 89.2947 50.9329 89.4419 50.8599C91.8598 49.8853 93.506 48.1972 94.2173 45.6526C94.7681 43.6913 95.0314 41.6606 94.999 39.6239C94.9738 37.6143 96.228 36.7527 98.1809 37.2601C98.618 37.3969 99.0806 37.4312 99.5331 37.3606ZM62.6516 69.0416C60.8118 69.0667 58.962 69.0215 57.1448 69.3731C52.02 70.3654 47.7121 72.6035 45.357 77.5446C44.0023 80.3907 43.8289 83.3673 45.7466 86.0175C47.5939 88.5696 50.3712 88.9113 53.3144 88.5119C55.1944 88.2607 56.8332 87.4242 58.3839 86.432C62.0007 84.1285 65.6124 83.7266 69.282 86.2838C69.659 86.535 70.0486 86.7861 70.4482 87.0223C71.7526 87.7759 72.939 88.7179 74.3439 89.3006C79.333 91.363 84.7494 87.4393 84.1135 82.1239C83.5605 77.5245 81.1326 74.0856 77.0132 71.9705C72.5167 69.6495 67.6483 69.0014 62.6516 69.0416ZM66.384 66.0951C69.1488 66.1604 70.2019 64.716 69.2066 62.2593C68.1359 59.6217 65.7833 58.9937 63.2976 58.8128C62.1002 58.7148 60.902 58.9922 59.8696 59.6062C58.8371 60.2203 58.0218 61.1406 57.5369 62.2392C56.5994 64.299 57.5545 65.8137 59.8266 65.8589C60.4521 65.8911 61.079 65.8413 61.6915 65.7107C62.629 65.4821 63.5615 65.4143 64.5065 65.8011C65.1049 66.0292 65.7445 66.1294 66.384 66.0951ZM82.2661 59.3127C82.9045 59.27 83.832 59.4785 84.7268 59.1343C85.2797 58.9208 85.6617 58.5792 85.6592 57.9411C85.6567 57.3031 85.2923 56.954 84.7418 56.7304C84.1914 56.5069 83.5907 56.542 83.0101 56.5395C80.4941 56.5072 78.0141 55.9376 75.7364 54.869C74.5821 54.3507 73.6483 53.4414 73.0998 52.3018C72.8158 51.7391 72.7806 50.6589 71.818 50.9001C70.8126 51.1513 71.0992 52.1787 71.064 52.9348C71.0695 53.2691 71.1502 53.598 71.3002 53.8969C72.014 55.4744 73.1953 56.6249 74.6606 57.5091C76.9202 58.8605 79.3959 59.3328 82.2661 59.3077V59.3127ZM46.1889 58.112C49.6247 58.112 51.5626 57.6096 53.5607 56.1677C54.3876 55.5774 55.1366 54.9117 55.4332 53.8843C55.6142 53.2689 55.6845 52.6108 55.0135 52.2064C54.3424 51.8019 53.9302 52.3068 53.523 52.7313C52.0854 54.2385 50.3913 55.2107 48.2675 55.3463C46.5609 55.4568 44.8543 55.5975 43.1477 55.7281C42.5822 55.7734 42.0192 55.9265 41.9941 56.6274C41.974 57.2529 42.3988 57.5895 42.9618 57.7854C44.0149 58.1421 45.1082 58.0969 46.1889 58.107V58.112ZM52.4724 63.4298C53.0656 63.5429 53.4124 63.2113 53.5758 62.6762C53.8699 61.7418 53.3596 61.1691 52.6207 60.7269C49.7655 59.0062 44.6055 60.9179 43.4217 64.1307C43.335 64.3219 43.306 64.5342 43.3381 64.7416C43.3703 64.9491 43.4622 65.1427 43.6027 65.2987C43.8967 65.6328 44.2938 65.55 44.6508 65.4043C44.9622 65.2813 45.2576 65.121 45.5304 64.927C47.6216 63.3695 49.8434 62.518 52.4825 63.4248L52.4724 63.4298ZM76.8247 60.7496C75.676 60.6792 74.6581 60.9379 73.8865 61.8498C73.5723 62.2216 73.3838 62.6436 73.6678 63.1058C73.9519 63.568 74.3942 63.5504 74.8843 63.4147C78.0185 62.5556 80.6073 63.7564 82.995 65.6253C83.5832 66.085 84.209 66.8813 84.9027 66.2784C85.6567 65.6178 84.9831 64.8164 84.5081 64.1885C84.2297 63.8227 83.8995 63.4994 83.5279 63.2289C81.5523 61.7644 79.333 60.8526 76.8347 60.7445L76.8247 60.7496ZM87.582 82.4932C87.2426 87.9442 84.679 91.4107 78.946 92.5411C82.716 93.5886 85.8351 92.634 87.3884 90.1673C89.0297 87.5674 89.2282 84.0079 87.5845 82.4881L87.582 82.4932Z" fill="#49636A"/>
<path d="M96.7434 26.3381C96.8288 28.4155 95.831 29.8247 94.5643 31.0957C94.2792 31.3987 93.9614 31.6691 93.6167 31.9021C90.5076 33.8714 89.9748 36.828 90.5881 40.1162C90.9676 42.1484 90.4423 43.9118 89.4143 45.5722C89.167 45.9299 88.8356 46.2215 88.4492 46.4213C85.511 47.9812 82.8368 47.9285 80.072 45.8109C76.9831 43.4572 74.0701 43.6004 71.3707 46.1877C68.8171 48.6369 65.414 48.0063 63.3756 46.0796C61.7897 44.5724 60.0177 43.5074 57.7808 43.3793C56.1546 43.2863 54.6416 43.7686 53.1537 44.3263C50.9645 45.1477 48.8256 45.3712 46.6188 44.2484C46.0633 43.9985 45.6044 43.5743 45.3119 43.0402C44.4887 41.4958 43.9193 39.8291 43.6254 38.1041C43.4001 36.9533 42.8884 35.8777 42.1375 34.9767C41.3007 33.9399 40.5444 32.8406 39.8754 31.6885C38.209 28.7169 39.4129 25.0971 42.512 22.6882C44.4548 21.181 46.7847 20.5127 48.8784 19.3773C49.4592 19.0784 49.9785 18.6728 50.409 18.1816C53.0029 15.1673 55.9385 12.7005 60.0127 11.972C62.4155 11.5425 64.763 11.9043 67.0854 12.3966C69.3499 12.86 71.6849 12.86 73.9494 12.3966C76.2819 11.9545 78.5992 11.6204 80.9869 12.1856C83.3746 12.7508 85.129 14.1223 86.5465 15.9812C88.0219 17.9204 89.7662 19.4402 92.076 20.3369C93.5807 20.8824 94.8687 21.8992 95.7481 23.2358C96.404 24.2355 96.9218 25.2554 96.7434 26.3381ZM66.5701 14.999C64.1586 15.0652 61.783 15.5993 59.5754 16.5715C56.1019 18.1163 53.2919 20.4475 51.6004 23.8085C48.896 29.2243 51.2711 35.665 56.6875 38.5035C60.709 40.6635 65.3344 41.4278 69.8375 40.6764C74.5325 39.9228 78.5489 37.8957 81.1151 33.7509C83.9075 29.2444 83.4174 24.6249 80.1801 20.5228C77.2545 16.8151 73.0949 15.4989 68.5808 15.0266L68.3295 15.004L66.8215 14.9789L66.5701 14.999Z" fill="#CECCB5"/>
<path d="M79.886 100.73C77.6239 101.921 75.1709 102.441 72.6801 102.725C65.8261 103.506 59.0651 103.001 52.4951 100.798C45.8622 98.5724 40.2121 94.8094 35.4467 89.6925C32.0532 86.0954 29.3091 81.9376 27.336 77.4039C25.362 72.8231 24.2599 67.9146 24.0862 62.93C23.86 56.7405 24.7573 50.7419 27.0822 45.0095C29.2563 39.654 32.3729 34.8888 36.6155 30.9099C37.5505 32.5301 38.1662 34.3261 39.3525 35.8132C39.9181 36.5266 39.3098 37.0692 38.8876 37.5716C36.0583 40.8927 33.863 44.7045 32.4106 48.8177C30.8623 53.0881 30.1209 57.5091 29.8167 62.0533C29.4171 68.0217 30.435 73.7239 32.5966 79.2226C34.6073 84.337 38.0531 88.4541 42.1097 92.1291C45.9687 95.6827 50.548 98.3643 55.5363 99.9916C60.6342 101.676 66.0195 102.317 71.3706 101.876C74.0368 101.686 76.6839 101.288 79.2878 100.685C79.4883 100.668 79.6903 100.683 79.886 100.73Z" fill="#2B404C"/>
<path d="M99.5334 37.3606C99.0791 37.4276 98.6155 37.3889 98.1787 37.2475C96.2258 36.7451 94.9716 37.5942 94.9967 39.6113C95.0292 41.6481 94.7659 43.6788 94.2151 45.64C93.5013 48.1846 91.855 49.8727 89.4396 50.8473C89.2924 50.9203 89.1231 50.9351 88.9655 50.8885C88.8079 50.8419 88.6738 50.7374 88.5901 50.5961C88.6228 50.0937 89.138 49.6416 89.0073 49.0412C92.614 46.8433 93.5842 43.5149 93.0287 39.5636C92.7397 37.4837 92.8025 35.572 94.7881 34.2206C95.5874 33.678 96.2283 33.4971 96.9773 34.2884C97.8896 35.2731 98.8548 36.195 99.5334 37.3606Z" fill="#2B404C"/>
<path d="M61.6967 109.791C61.3248 107.909 61.5585 107.676 63.3581 107.907C65.4769 108.181 67.6108 108.017 69.7371 108.015C70.7927 108.015 71.2451 108.321 70.9108 109.402C70.8763 109.567 70.8611 109.735 70.8656 109.904C70.6997 112.597 70.6997 112.599 68.028 112.584C66.442 112.584 64.8561 112.554 63.2701 112.539C63.5793 111.142 62.501 110.547 61.6967 109.791Z" fill="#2B404C"/>
<path d="M61.6968 109.791C62.4985 110.544 63.5768 111.142 63.2702 112.534C62.1592 112.73 61.6566 112.298 61.7621 111.145C61.774 110.692 61.7522 110.24 61.6968 109.791Z" fill="#49636A"/>
<path d="M21.8647 57.3232C22.1965 58.9183 22.2668 60.5134 21.8094 62.096C21.725 60.5055 21.7434 58.9113 21.8647 57.3232Z" fill="#49636A"/>
<path d="M102.202 30.8973C101.353 29.7895 100.513 28.6365 99.1863 27.8603C98.935 28.4405 98.7942 28.9907 98.4826 29.4052C97.525 30.6863 97.8618 31.6659 98.8671 32.7888C106.551 41.4174 109.627 51.6588 108.722 63.0154C107.817 74.372 103.25 84.1511 94.7854 91.9382C90.5004 95.8936 85.4211 98.8908 79.886 100.73C77.624 101.921 75.1709 102.441 72.6801 102.725C65.8261 103.506 59.0651 103.001 52.4951 100.798C45.8623 98.5723 40.2122 94.8094 35.4468 89.6925C32.0533 86.0953 29.3091 81.9376 27.3361 77.4039C25.3621 72.8231 24.2599 67.9146 24.0863 62.93C23.8601 56.7404 24.7573 50.7418 27.0822 45.0095C29.2563 39.654 32.3729 34.8888 36.6155 30.9098C37.3092 29.7468 36.8417 28.5536 36.9196 27.1619C36.525 27.4684 36.3491 27.5815 36.2008 27.7247C31.9481 31.8116 28.4646 36.4462 25.9612 41.8143C23.6495 46.6886 22.2605 51.9486 21.8644 57.3282C22.1962 58.9233 22.2666 60.5184 21.8091 62.101C21.6709 65.3113 22.1861 68.4513 22.9753 71.5309C26.3785 84.8017 34.0996 94.6788 46.3499 100.921C51.9163 103.787 58.0607 105.354 64.3206 105.503L68.3219 105.515L68.5959 105.503H69.3072C76.1763 105.252 82.6809 103.468 88.5346 99.9765C102.509 91.6242 110.037 78.974 111.452 62.9551C112.487 51.2443 109.469 40.3749 102.202 30.8973Z" fill="#49636A"/>
<path d="M62.6518 69.0417C67.6485 69.0015 72.5169 69.6495 77.0133 71.9706C81.1328 74.0957 83.5482 77.5245 84.1137 82.124C84.7496 87.4393 79.3382 91.363 74.3441 89.3007C72.9391 88.7179 71.7528 87.7709 70.4484 87.0223C70.0487 86.7937 69.6592 86.5451 69.2822 86.2838C65.6126 83.7266 61.9933 84.1286 58.3841 86.432C56.8283 87.4368 55.1946 88.2557 53.3146 88.512C50.3714 88.9114 47.5941 88.5697 45.7468 86.0175C43.8291 83.3674 44.0025 80.3907 45.3572 77.5446C47.7123 72.6036 52.0202 70.3654 57.145 69.3732C58.9622 69.0215 60.812 69.0793 62.6518 69.0417ZM61.2946 77.6276C58.7033 77.5597 56.7328 78.557 55.0589 80.1948C54.0938 81.1368 53.6514 82.3601 53.5509 83.6864C53.4629 84.857 54.0812 85.3117 55.1896 84.9198C55.8912 84.6521 56.5585 84.3021 57.1777 83.8773C60.0505 82.0159 63.1595 81.4206 66.5149 82.1993C68.9428 82.7645 70.8958 84.2215 72.8788 85.6056C73.5586 86.0934 74.3351 86.43 75.1559 86.5928C76.9455 86.9445 78.2349 85.7462 77.976 83.9477C77.7498 82.3777 77.1491 80.9835 75.9175 79.9134C73.281 77.625 70.3076 77.0749 67.0427 78.2505C66.1304 78.5796 65.3261 78.6776 64.4062 78.2505C63.4306 77.8062 62.3663 77.5906 61.2946 77.62V77.6276Z" fill="#1D2831"/>
<path d="M66.3844 66.0951C65.7449 66.1294 65.1053 66.0293 64.5069 65.8012C63.5618 65.4143 62.6294 65.4822 61.6919 65.7108C61.0794 65.8414 60.4524 65.8912 59.8269 65.8589C57.5649 65.8137 56.5997 64.299 57.5372 62.2392C58.0222 61.1406 58.8375 60.2204 59.8699 59.6063C60.9023 58.9922 62.1005 58.7149 63.2979 58.8128C65.7837 58.9887 68.1362 59.6218 69.2069 62.2593C70.2022 64.716 69.1466 66.1604 66.3844 66.0951Z" fill="#1D2831"/>
<path d="M82.2665 59.3077C79.3962 59.3329 76.9205 58.8606 74.666 57.5041C73.2007 56.6199 72.0194 55.4694 71.3056 53.8919C71.1556 53.593 71.0749 53.2642 71.0693 52.9298C71.0995 52.1762 70.818 51.1463 71.8233 50.8951C72.786 50.6439 72.8287 51.7341 73.1052 52.2968C73.6537 53.4364 74.5875 54.3457 75.7417 54.864C78.0195 55.9326 80.4995 56.5022 83.0155 56.5345C83.5961 56.5345 84.1842 56.4993 84.7472 56.7254C85.3102 56.9515 85.6621 57.3082 85.6646 57.9362C85.6671 58.5641 85.2851 58.9158 84.7321 59.1293C83.8323 59.4735 82.9049 59.265 82.2665 59.3077Z" fill="#1D2831"/>
<path d="M46.1893 58.107C45.1035 58.107 44.0152 58.1421 42.9621 57.7804C42.3991 57.5845 41.9744 57.2479 41.9945 56.6224C42.0196 55.9215 42.5826 55.7683 43.1481 55.7231C44.8547 55.585 46.5613 55.4518 48.2679 55.3413C50.3917 55.2057 52.0857 54.2285 53.5234 52.7263C53.9305 52.3018 54.3352 51.7944 55.0138 52.2013C55.6924 52.6083 55.6145 53.2639 55.4336 53.8793C55.137 54.8841 54.388 55.5724 53.5611 56.1627C51.5629 57.5945 49.6327 58.0995 46.1893 58.107Z" fill="#1D2831"/>
<path d="M52.4826 63.4248C49.8435 62.518 47.6167 63.3695 45.5406 64.932C45.2678 65.1261 44.9724 65.2863 44.6609 65.4092C44.304 65.5599 43.9069 65.6378 43.6128 65.3037C43.4724 65.1477 43.3804 64.9541 43.3483 64.7466C43.3162 64.5392 43.3452 64.3269 43.4319 64.1357C44.6157 60.9229 49.7757 59.0113 52.6309 60.732C53.3698 61.1791 53.8876 61.7368 53.586 62.6813C53.4226 63.2063 53.0757 63.5378 52.4826 63.4248Z" fill="#1D2831"/>
<path d="M76.8347 60.7445C79.333 60.8526 81.5398 61.7644 83.5379 63.2263C83.9096 63.4969 84.2398 63.8202 84.5181 64.1859C84.9932 64.8139 85.6667 65.6153 84.9127 66.2759C84.219 66.8838 83.5932 66.0825 83.0051 65.6228C80.6174 63.7539 78.0286 62.5531 74.8944 63.4122C74.3917 63.5479 73.9719 63.5755 73.6779 63.1033C73.3838 62.631 73.5824 62.2165 73.8965 61.8473C74.6681 60.9329 75.6861 60.6742 76.8347 60.7445Z" fill="#1D2831"/>
<path d="M87.5847 82.4882C89.2209 83.9953 89.0224 87.5674 87.3912 90.1648C85.8379 92.6315 82.7062 93.5861 78.9487 92.5386C84.6893 91.4057 87.253 87.9391 87.5847 82.4882Z" fill="#2B404C"/>
<path d="M68.5809 15.0267C73.105 15.4939 77.2546 16.8152 80.1802 20.5228C83.4174 24.6249 83.9075 29.2444 81.1152 33.7509C78.549 37.8957 74.5326 39.9278 69.8376 40.6764C65.3344 41.4278 60.7091 40.6635 56.6875 38.5036C51.2712 35.665 48.896 29.2243 51.6004 23.8085C53.2794 20.4475 56.1019 18.1164 59.5754 16.5715C61.783 15.5993 64.1587 15.0653 66.5702 14.999L66.8215 14.9789L68.3296 15.004L68.5809 15.0267ZM58.4595 36.7301C58.5126 36.831 58.5986 36.9109 58.7032 36.9566C58.8078 37.0022 58.9248 37.0109 59.035 36.9813H58.9747C59.0727 37.0945 59.2004 37.1781 59.3435 37.2225C59.4865 37.2669 59.6391 37.2703 59.784 37.2325H59.7388C59.8393 37.5013 60.0856 37.4661 60.2993 37.4962L60.239 37.4761C63.617 38.7095 67.0653 38.8351 70.569 38.1619C73.4784 37.6785 76.1371 36.2215 78.1091 34.0297C81.0925 30.7641 81.4243 26.6269 79.019 22.8665C78.8189 22.422 78.5228 22.0274 78.1519 21.711L78.172 21.6482L78.1016 21.6231C77.8122 21.1796 77.4119 20.8194 76.9404 20.5781C76.4515 20.0141 75.8232 19.588 75.1182 19.3422L75.1408 19.3598L74.6155 19.0734L74.6507 19.096C72.8738 18.0058 70.9007 17.5889 68.8699 17.4155C67.6132 17.8476 66.3314 17.3326 65.0998 17.4607C62.5147 17.7106 60.0408 18.6359 57.9266 20.1435C55.3454 21.9873 53.302 24.2406 52.9501 27.5966C52.8658 27.8268 52.8051 28.0649 52.7692 28.3074C52.5957 31.5454 54.7623 34.9616 57.9342 36.4638C57.9996 36.559 58.091 36.6333 58.1975 36.6778C58.3041 36.7224 58.4212 36.7353 58.5349 36.715L58.4595 36.7301Z" fill="#1D2831"/>
<path d="M61.2946 77.62C62.3675 77.5918 63.4327 77.8091 64.4086 78.2556C65.3285 78.67 66.1328 78.5721 67.0452 78.2556C70.3126 77.08 73.2834 77.63 75.92 79.9185C77.1515 80.9886 77.7522 82.3827 77.9784 83.9527C78.2298 85.7513 76.9479 86.9495 75.1584 86.5978C74.3376 86.435 73.5611 86.0984 72.8813 85.6106C70.8982 84.2265 68.9453 82.7696 66.5174 82.2044C63.162 81.4257 60.053 82.021 57.1801 83.8824C56.561 84.3072 55.8936 84.6571 55.192 84.9249C54.0836 85.3167 53.4653 84.862 53.5533 83.6914C53.6513 82.3651 54.0937 81.1418 55.0613 80.1998C56.7328 78.557 58.7033 77.5597 61.2946 77.62Z" fill="#D4643A"/>
<path d="M52.9478 27.5966C53.2996 24.2406 55.343 21.9873 57.9243 20.1435C60.0339 18.6374 62.5022 17.7114 65.0824 17.4582C66.319 17.3301 67.5958 17.8451 68.8525 17.413L74.6333 19.0935L74.5981 19.0709L75.1234 19.3573L75.1008 19.3397C75.3056 19.6577 75.5726 19.9311 75.8857 20.1434C76.1988 20.3558 76.5516 20.5028 76.923 20.5756C77.3945 20.8169 77.7948 21.1771 78.0842 21.6206C77.3578 21.5301 77.2849 21.9873 77.4684 22.4771C77.8781 23.5849 77.4056 24.6927 77.1291 25.6096C75.8724 29.7091 73.1076 32.515 68.9379 33.6605C65.5222 34.5974 62.1518 34.4768 58.7864 33.0073C56.1674 31.8493 53.9355 30.4477 52.9478 27.5966ZM61.9633 20.862C59.3619 21.1358 57.3814 22.462 56.1624 24.9012C55.6949 25.8356 55.5491 26.7299 56.552 27.4509C57.4668 28.1065 58.6506 27.9985 59.5127 27.1369C60.4477 26.1999 61.3374 25.2629 62.5891 24.66C63.5794 24.1853 64.253 23.188 63.9715 21.9622C63.7553 21.0051 62.8807 20.9398 61.9633 20.862Z" fill="#F2C12C"/>
<path d="M52.9478 27.5966C53.9356 30.4477 56.1549 31.8493 58.8015 33.0073C62.1644 34.4768 65.5374 34.5974 68.9531 33.6605C73.1278 32.515 75.8976 29.7091 77.1442 25.6096C77.4207 24.6927 77.8982 23.5849 77.4835 22.4771C77.3001 21.9873 77.3729 21.5301 78.0993 21.6206L78.1697 21.6457L78.1496 21.7085C78.1487 21.9691 78.2329 22.223 78.3894 22.4315C78.5458 22.64 78.7661 22.7919 79.0167 22.864C81.422 26.632 81.0902 30.7641 78.1068 34.0272C76.1348 36.219 73.4761 37.676 70.5667 38.1594C69.7473 37.6997 68.938 38.177 68.1362 38.2297C65.4519 38.4056 62.8581 37.8328 60.2366 37.4761L60.297 37.4962L59.7365 37.2325H59.7817L58.9724 36.9813H59.0327L58.4572 36.7301H58.5301L57.9294 36.4789C54.7575 34.9717 52.5909 31.5604 52.7643 28.3225C52.8001 28.0748 52.8616 27.8315 52.9478 27.5966Z" fill="#E3982C"/>
<path d="M60.2389 37.4736C62.8604 37.8328 65.4542 38.4056 68.1385 38.2272C68.9402 38.1745 69.7496 37.6972 70.5689 38.1569C67.0653 38.8326 63.6169 38.707 60.2389 37.4736Z" fill="#F2C12C"/>
<path d="M74.6483 19.091L68.8676 17.4105C70.8984 17.5838 72.8714 18.0033 74.6483 19.091Z" fill="#EFDF42"/>
<path d="M76.9381 20.5755C76.5667 20.5028 76.2139 20.3558 75.9008 20.1434C75.5876 19.931 75.3207 19.6577 75.1158 19.3397C75.8209 19.5854 76.4491 20.0115 76.9381 20.5755Z" fill="#EFDF42"/>
<path d="M79.0167 22.859C78.766 22.7868 78.5458 22.635 78.3893 22.4265C78.2328 22.218 78.1487 21.9641 78.1495 21.7034C78.5205 22.0198 78.8166 22.4145 79.0167 22.859Z" fill="#F2C12C"/>
<path d="M58.9746 36.9813L59.7839 37.2325C59.639 37.2703 59.4864 37.2669 59.3433 37.2225C59.2003 37.1781 59.0726 37.0945 58.9746 36.9813Z" fill="#F2C12C"/>
<path d="M57.9268 36.4638L58.5275 36.715C58.4138 36.7353 58.2966 36.7224 58.1901 36.6778C58.0836 36.6333 57.9921 36.559 57.9268 36.4638Z" fill="#F2C12C"/>
<path d="M58.4596 36.7301L59.0352 36.9813C58.9249 37.011 58.8079 37.0022 58.7033 36.9566C58.5987 36.9109 58.5127 36.8311 58.4596 36.7301Z" fill="#F2C12C"/>
<path d="M59.7386 37.23L60.2991 37.4937C60.0855 37.4636 59.8392 37.4988 59.7386 37.23Z" fill="#F2C12C"/>
<path d="M61.9633 20.8619C62.8807 20.9398 63.7553 21.0051 63.974 21.9622C64.2555 23.188 63.5819 24.1852 62.5916 24.66C61.3349 25.2629 60.4502 26.1999 59.5152 27.1368C58.6531 27.9985 57.4693 28.1065 56.5545 27.4508C55.5491 26.7299 55.6974 25.8356 56.1649 24.9012C57.3814 22.462 59.3619 21.1357 61.9633 20.8619Z" fill="#F6D66B"/>
</svg>
