<svg width="129" height="130" viewBox="0 0 129 130" fill="none" xmlns="http://www.w3.org/2000/svg">
<path d="M128.812 0.670532H0.125977V129.284H128.812V0.670532Z" fill="#BC582A"/>
<path opacity="0.3" d="M65.3484 121.999C90.959 121.999 111.72 117.95 111.72 112.956C111.72 107.961 90.959 103.913 65.3484 103.913C39.7378 103.913 18.9764 107.961 18.9764 112.956C18.9764 117.95 39.7378 121.999 65.3484 121.999Z" fill="#1D2831"/>
<path d="M24.1765 58.6971C23.5356 59.7898 22.9022 59.4507 22.2337 58.8302C19.6449 56.4413 19.3307 51.9298 21.5777 48.7095C22.2463 47.7524 23.0531 46.8908 23.7543 45.9463C25.0788 44.1703 24.9481 42.8214 23.3597 41.3092C22.5101 40.5004 21.6581 39.699 20.8463 38.86C18.6772 36.6319 18.4334 33.5246 20.2154 30.9574C21.3666 29.3611 22.6936 27.8991 24.1715 26.5991C24.8576 25.9736 24.8451 25.426 24.3198 24.7678C23.7448 24.102 23.2706 23.3556 22.9123 22.5523C21.5902 19.2315 22.2639 17.5761 25.1417 15.2676C27.8838 13.0772 32.4506 13.6725 34.5317 16.1317C37.1959 19.2842 37.1255 23.4014 34.3633 26.3755C33.4241 27.3273 32.3937 28.1846 31.2869 28.9352C29.5426 30.2038 28.0069 31.6783 27.3233 33.8084C26.7703 35.5266 27.2379 37.0966 28.115 38.6013C29.6708 41.2665 29.9398 43.8564 27.9869 46.5442C26.5618 48.5035 24.9431 50.3121 23.6437 52.3694C22.4825 54.2082 22.4222 55.949 23.6638 57.7375C23.8534 58.047 24.0246 58.3675 24.1765 58.6971Z" fill="#EFE5DF"/>
<path d="M21.5877 83.6033C20.1305 82.2707 19.0173 80.6057 18.343 78.7502C16.9129 74.6959 19.1975 70.8149 23.2843 69.9583C23.8071 69.8478 24.2896 69.8126 24.541 70.4205C24.7923 71.0284 24.2897 71.2118 23.9579 71.4981C23.0782 72.2367 21.8441 72.4853 21.2384 73.6258C19.6022 76.7105 20.7961 80.0464 24.2545 81.8676C24.255 81.948 24.2294 82.0264 24.1816 82.0911C23.2164 82.4252 22.294 82.8347 21.5877 83.6033Z" fill="#EFE5DF"/>
<path d="M23.1285 85.1507L21.5275 83.7892C21.5429 83.7261 21.5622 83.6641 21.5853 83.6033C22.294 82.8347 23.2165 82.4253 24.1766 82.0811L24.4857 82.4202C24.6717 82.7367 24.8602 83.0507 25.0462 83.3647L24.5134 83.6812C24.071 83.9173 23.3723 83.7767 23.2718 84.5177C23.1822 84.5932 23.1197 84.6959 23.0938 84.8102C23.0679 84.9245 23.0801 85.044 23.1285 85.1507Z" fill="#857A5C"/>
<path d="M108.056 91.7396C108.041 91.4457 108.028 91.1518 108.013 90.8554C108.08 90.9923 108.118 91.1412 108.125 91.2932C108.132 91.4451 108.109 91.597 108.056 91.7396Z" fill="#995F30"/>
<path d="M32.5991 47.1898C32.5769 47.0536 32.5843 46.9143 32.6207 46.7813C32.6571 46.6482 32.7218 46.5245 32.8102 46.4186C33.2727 46.4337 33.519 46.7879 33.8583 47.0265C36.422 48.8125 38.9127 50.7292 42.072 51.4376C44.3567 51.94 46.6892 52.1912 48.9739 52.6307C51.7195 53.1467 54.496 53.4824 57.2856 53.6355C63.5691 54.0174 69.8827 54.3715 76.1989 54.1932C79.458 54.0899 82.7002 53.6812 85.8829 52.9723C86.8581 54.1103 86.7752 55.532 86.833 56.8734C86.9956 60.8103 86.9117 64.7534 86.5817 68.6797C84.9329 69.2952 83.4148 70.2572 81.6379 70.536C80.4591 70.6943 79.2476 70.7647 78.3126 71.6514C77.81 72.4678 76.8046 72.2241 76.1888 72.2618C74.2761 72.3773 72.4188 72.8471 70.5287 72.9928C70.7071 72.2392 71.446 72.081 71.9362 71.6589C72.5947 71.0887 72.8209 70.5687 71.8155 70.207C72.748 68.529 73.3235 66.6903 74.814 64.9947C73.796 65.1755 73.7961 65.1755 72.6424 66.5019C72.8184 65.6227 72.9918 64.7435 73.1777 63.8065C73.9066 63.6809 74.8542 63.8065 75.0251 62.769C75.1206 62.1812 74.9221 61.6336 74.2711 61.4025C74.0751 60.9303 73.6428 60.9001 73.2281 60.8725C70.966 60.7243 68.704 60.9554 66.4419 60.7393C65.6427 60.664 64.7755 60.4882 63.9988 60.9529H63.7174C63.6917 60.914 63.6568 60.8821 63.6158 60.86C63.5748 60.838 63.5289 60.8264 63.4824 60.8264C63.4358 60.8264 63.3899 60.838 63.3489 60.86C63.3079 60.8821 63.273 60.914 63.2473 60.9529C62.9432 60.9278 62.5864 61.1388 62.3577 60.7595C60.7587 60.3244 59.0749 60.3054 57.4666 60.7042C57.0619 60.7218 56.6221 60.8725 56.3004 60.3625C56.803 59.5286 56.9086 58.4685 57.8461 57.8054C57.9506 57.7331 58.0396 57.6405 58.1076 57.5331C58.1756 57.4257 58.2213 57.3057 58.2419 57.1803C58.2626 57.0549 58.2578 56.9267 58.2277 56.8032C58.1977 56.6797 58.1432 56.5635 58.0673 56.4615C58.0293 56.3984 57.9789 56.3436 57.9192 56.3005C57.8595 56.2573 57.7917 56.2268 57.7198 56.2106C57.6479 56.1944 57.5735 56.1929 57.501 56.2062C57.4286 56.2195 57.3596 56.2474 57.2982 56.2881C55.9183 57.1372 55.2875 58.5238 54.7169 59.9431C54.3047 60.9479 54.5209 61.8044 55.2598 62.5806C55.3835 62.7473 55.4391 62.9548 55.4156 63.1609C55.202 65.4619 56.2375 67.3308 57.449 69.1419L56.3306 69.2901C55.6494 68.8254 54.7496 69.1017 54.0685 68.6194C54.125 68.5642 54.1771 68.5045 54.2243 68.4411C54.2275 68.4233 54.2267 68.4051 54.2219 68.3877C54.2171 68.3703 54.2085 68.3542 54.1966 68.3406C53.2968 68.2049 52.4851 67.587 51.4898 67.9261C51.0549 68.0768 50.5849 68.009 50.3613 67.4765V67.5292C50.3613 67.4137 50.3386 67.3007 50.326 67.1851C50.3864 66.5973 50.9845 66.4315 51.2535 66.0145C51.3849 65.9319 51.4913 65.815 51.5613 65.6765C51.6312 65.538 51.6621 65.383 51.6506 65.2283L51.633 65.2459C52.6383 64.5224 51.907 63.3166 52.4046 62.4525H52.3669C52.8696 62.4525 53.4376 62.4977 53.121 61.6989C53.2366 59.4959 52.4524 57.6069 51.2158 55.8159C50.7282 55.11 50.1577 55.3135 49.7329 55.4919C49.1473 55.7431 49.4187 56.3283 49.6399 56.7956C50.1426 57.8405 51.3414 58.6092 50.8086 60.1315C48.2097 60.1717 45.5305 59.9079 42.8713 59.6291C42.3888 59.0739 41.6976 59.1016 41.0567 58.9559C39.4456 58.5866 37.6837 58.7398 36.2812 57.6119C35.8112 57.9335 35.8163 58.3882 35.8389 58.8504C36.0123 59.9707 36.2938 61.086 35.9922 62.229C35.5448 62.2616 35.1527 62.3822 35.1049 62.9173C35.0094 63.9522 34.8234 64.9871 35.306 65.9919C35.8288 67.0821 36.3114 68.1899 36.814 69.2876C36.3114 69.3655 35.7358 68.8028 35.3287 69.4961C33.6849 69.2223 33.1898 67.7126 32.3126 66.6375C32.021 66.2783 31.9883 65.7081 31.8375 65.2358C31.9338 65.0539 32.004 64.8594 32.0462 64.658C32.1567 62.7314 32.207 60.8022 32.3578 58.8805C32.4684 57.4864 32.4081 56.0696 32.8102 54.7082C32.8329 55.1151 32.8102 55.5421 33.3129 55.7129C33.7729 56.1827 34.0795 57.0618 34.9793 56.4238C35.6001 55.9842 35.7107 55.3587 35.4116 54.6654C35.1879 54.1454 34.7606 53.947 34.2328 53.8967C34.2008 53.8718 34.164 53.8539 34.1246 53.844C34.0853 53.8341 34.0443 53.8326 34.0043 53.8394C33.9644 53.8463 33.9262 53.8614 33.8924 53.8839C33.8586 53.9063 33.8299 53.9354 33.808 53.9696H33.8257C33.6045 54.0324 33.3757 54.0876 33.524 54.4042L33.2953 54.7232H32.7926C32.6117 53.3441 32.7926 51.96 32.8781 50.5935C32.9761 49.433 33.0515 48.29 32.5991 47.1898ZM80.7154 59.0689C80.5093 58.466 80.6752 57.514 79.6397 57.5617C78.7801 57.6019 78.3076 58.1746 78.3101 59.0689C78.3101 59.8074 78.5288 60.4379 79.3884 60.4555C80.248 60.4731 80.6249 59.8953 80.7154 59.0689Z" fill="#968C6D"/>
<path d="M65.474 79.5465C68.7892 79.1547 72.0993 78.7452 75.3818 78.1273C74.4368 79.009 73.1851 78.798 72.0666 79.0642C70.7295 79.3858 69.2717 79.1722 68.0301 79.9937C70.9406 80.4961 73.7431 79.6018 76.5581 79.2023C79.4485 78.7904 82.3891 78.4488 85.2443 77.1501C85.091 81.1391 84.6059 84.8719 82.8642 88.3912C83.1934 88.7378 83.6911 88.5318 84.1208 88.6273C82.3087 89.3809 80.3759 89.5844 78.4682 89.931C75.9071 90.3983 73.2806 90.2324 70.737 90.8202C69.983 90.4208 69.1611 90.5314 68.3996 90.6394C66.1878 90.9509 63.971 90.7474 61.7617 90.8504C59.643 90.9509 57.6498 89.9737 55.4657 90.3731C53.8596 90.6671 52.2209 89.6698 50.537 90.0516C47.5033 89.9637 44.5877 89.2578 41.7074 88.3686C41.8733 88.3686 42.0392 88.3409 42.2101 88.3485C44.3766 88.4414 44.3867 88.4464 45.1458 86.4896C45.3368 85.9872 45.6961 85.7084 46.1083 85.3994C47.2042 84.5805 48.4106 84.6458 49.6497 84.8267H49.9011C51.4091 84.8267 52.902 84.8016 54.4 84.8468C55.8075 84.887 57.1221 84.4399 58.4014 84.0153C59.9471 83.5129 60.6131 82.1238 60.8444 80.5589C63.1064 80.5965 65.2453 80.9457 67.5224 80.2474C66.7684 79.4712 66.0395 80.0866 65.4589 79.7826C65.474 79.7123 65.474 79.6344 65.474 79.5465ZM69.4954 83.8169C68.8973 84.2816 68.098 84.5705 68.3493 85.5275C68.4025 85.7935 68.5405 86.0352 68.7426 86.2163C68.9447 86.3974 69.1999 86.5083 69.4703 86.5323C69.722 86.5697 69.9784 86.5078 70.1852 86.3596C70.3921 86.2115 70.5332 85.9887 70.5787 85.7385C70.8175 84.784 70.1665 84.3193 69.4954 83.8169ZM55.3325 89.6974L55.2898 89.7702H55.3576L55.3325 89.6974Z" fill="#968C6D"/>
<path d="M75.4772 49.3776L75.3667 49.3927H75.256C74.8733 49.2266 74.4556 49.1567 74.0396 49.1892H65.8183C65.3609 49.1892 64.8984 49.1717 64.4887 49.4404C60.9348 49.6791 57.4512 48.8552 53.9048 48.8552C53.826 48.7336 53.7186 48.6332 53.592 48.5627C53.4654 48.4922 53.3234 48.4537 53.1785 48.4507C50.836 48.1794 48.4709 48.0438 46.1963 47.363C45.8167 47.25 45.5553 47.2274 45.4045 47.6419C43.5044 47.2751 41.6345 46.8204 40.227 45.3585C40.03 45.1381 39.7718 44.9813 39.4854 44.9079C39.199 44.8345 38.8971 44.848 38.6183 44.9465C38.6589 44.6568 38.7993 44.3903 39.0155 44.193C39.7871 43.4394 40.8729 43.5072 41.7802 43.1052C45.0753 41.6408 48.6493 41.4976 52.1328 41.1133C53.6789 40.906 55.2356 40.7869 56.7952 40.7566C58.0519 40.7566 59.3488 40.4149 60.6457 40.3998C64.2406 40.3903 67.8337 40.5655 71.4106 40.9249C74.1175 41.1761 76.6887 41.9573 79.3755 42.2487C79.2775 43.1128 78.6843 43.7333 78.2897 44.4517C77.3748 46.097 76.1207 47.5665 75.4772 49.3776Z" fill="#857A5C"/>
<path d="M79.3706 42.2337C76.6938 41.9423 74.1126 41.1636 71.4057 40.9098C67.8288 40.5505 64.2357 40.3753 60.6408 40.3849C59.3439 40.4 58.047 40.7466 56.7903 40.7416C55.2306 40.7719 53.674 40.891 52.1279 41.0982C48.6444 41.4826 45.0703 41.6258 41.7753 43.0903C40.873 43.4922 39.7872 43.4294 39.0105 44.1779C38.7944 44.3752 38.6539 44.6418 38.6134 44.9315C38.2565 46.2804 39.0081 47.4636 40.6669 48.486C41.999 49.3074 43.5372 49.2044 44.9573 49.6189C46.8835 50.1808 48.8559 50.5709 50.8511 50.7844C51.7258 50.8749 52.6382 50.8548 53.543 50.9352C58.3461 51.3597 63.1642 51.5907 67.9874 51.5807C71.7072 51.5807 75.4447 51.6485 79.1343 51.1411C80.7077 50.9251 82.2811 51.0004 83.8444 50.7618C85.3525 50.5307 86.677 50.8774 87.3632 52.4449L85.8702 52.9774C82.6875 53.6862 79.4453 54.095 76.1861 54.1982C69.87 54.3766 63.5664 54.0224 57.2729 53.6406C54.4833 53.4874 51.7067 53.1518 48.9611 52.6358C46.6764 52.1937 44.344 51.955 42.0593 51.4426C38.9 50.7342 36.4092 48.8176 33.8455 47.0316C33.5062 46.7929 33.2599 46.4387 32.7975 46.4236C32.6316 44.1804 35.0117 42.1332 37.133 41.6509C37.8092 41.4976 38.2766 41.1485 38.8371 40.8822C39.8425 40.405 40.966 40.5481 41.999 40.2818C43.5548 39.8824 45.0955 39.3248 46.6965 39.2771C49.5618 39.1866 52.3743 38.6441 55.242 38.5536C58.9443 38.4356 62.649 38.1618 66.3562 38.2346C69.6965 38.3024 73.0469 38.3753 76.3671 38.7018C77.9204 38.855 79.4887 39.1188 81.0043 39.2042C81.2556 39.7518 80.7202 39.9578 80.7881 40.3421C80.1195 40.8043 80.0039 41.7162 79.3706 42.2337Z" fill="#B0A184"/>
<path d="M84.3246 99.5318C84.503 92.8625 86.2096 86.6956 90.3718 81.3326C91.7587 79.5909 93.5604 78.2246 95.6122 77.3586C96.9719 76.7532 98.3769 77.1074 99.5833 77.8007C103.798 80.2097 105.615 84.048 105.982 88.7554C106.274 92.4003 106.234 96.0401 105.437 99.587C104.278 104.684 101.984 109.168 97.6304 112.345C95.3081 114.043 91.3469 113.898 89.007 112.215C86.8404 110.645 85.6994 108.472 85.0836 105.998C84.5457 103.895 84.1788 101.742 84.3246 99.5318ZM104.205 92.0687C104.359 90.4485 104.012 88.5896 103.899 86.7132C103.763 84.47 102.79 82.6111 101.257 81.0562C99.9227 79.7048 97.6707 78.8833 95.4589 80.4784C93.723 81.7236 92.2774 83.3295 91.2213 85.1859C88.2479 90.353 87.1597 95.9396 87.6498 101.825C87.8408 104.114 88.4767 106.347 89.8465 108.278C91.3746 110.441 92.9983 110.976 95.4991 110.228C97.7159 109.562 99.2465 108.035 100.526 106.256C103.504 102.102 104.311 97.3338 104.193 92.0687H104.205Z" fill="#4E5141"/>
<path d="M85.8827 52.9824L87.3756 52.4498C87.6179 53.0583 87.8178 53.6828 87.9738 54.3188C88.1272 55.0724 88.4765 56.0772 89.2984 56.0772C90.1756 56.0772 91.0251 55.4491 91.5605 54.6755C92.3145 53.6028 92.6337 52.264 93.5712 51.2994C93.6611 51.2207 93.7578 51.15 93.8602 51.0883L94.1115 50.6814L94.0889 50.6965L94.3553 50.4227H94.3277C96.8562 49.747 99.2187 48.7497 101.164 46.9335C101.22 48.1975 101.168 49.464 101.008 50.7191C100.802 50.7844 100.584 50.8749 100.591 51.121C100.649 53.3366 99.9853 55.5069 100.164 57.73C100.074 57.8329 100.006 57.9525 99.9631 58.0818C99.9199 58.2111 99.9028 58.3476 99.9124 58.4836C99.8295 58.6795 99.744 58.8755 99.6611 59.0714C99.6473 59.2056 99.6046 59.3352 99.5361 59.4514C99.4676 59.5676 99.3747 59.6676 99.264 59.7446L98.8995 59.9958H98.9121L98.6482 60.4982V60.4832L98.3969 60.7846C98.0571 61.2622 97.6309 61.6721 97.1402 61.9929L96.6375 62.2591L96.6526 62.2465C96.6526 62.3244 96.6249 62.4023 96.6123 62.4827C94.4961 64.2411 92.4602 66.1024 89.9016 67.3006C88.8007 67.803 87.8657 68.6697 86.5613 68.6923C86.8913 64.7659 86.9752 60.8228 86.8126 56.886C86.7749 55.5421 86.8579 54.1203 85.8827 52.9824Z" fill="#857A5C"/>
<path d="M99.1537 27.845C100.913 29.4728 101.009 31.3945 99.1009 33.4342C98.1533 34.4515 97.6733 35.6949 96.879 36.76C95.2051 39.0208 93.7072 41.3996 92.1338 43.7282C92.0536 43.8243 91.9605 43.9088 91.8573 43.9794C91.4124 42.9746 90.9248 42.0176 90.0853 41.2841C90.0492 41.2231 89.992 41.1775 89.9245 41.156L89.5676 40.847L89.3163 40.6636C89.2552 40.6303 89.1913 40.6026 89.1253 40.5807L88.8538 40.4326C88.8074 40.4 88.7521 40.3825 88.6954 40.3823L88.6125 40.3421C88.4488 40.2015 88.247 40.1126 88.0326 40.0867C87.8183 40.0607 87.6012 40.0989 87.4086 40.1965C86.7853 39.8799 86.1745 39.571 85.4255 39.6765C84.7695 39.7694 84.1035 39.777 83.4399 39.8197C84.7218 37.5237 86.0639 35.2755 87.5619 33.1001C88.5949 31.5929 89.3766 29.8948 90.3392 28.3148C90.681 27.7546 90.9324 27.1467 91.4149 26.682C93.5563 25.73 95.6098 26.2474 97.6456 27.0513C97.6727 27.0772 97.7053 27.0968 97.741 27.1086C97.7766 27.1203 97.8145 27.1239 97.8517 27.1191L98.4273 27.3703H98.3946L99.1537 27.845Z" fill="#CA7525"/>
<path d="M84.1309 88.6373C83.7011 88.5419 83.2034 88.7479 82.8742 88.4012C84.616 84.8845 85.101 81.1491 85.2544 77.1601C82.3992 78.4488 79.4585 78.8004 76.5681 79.2124C73.7531 79.6118 70.9507 80.4961 68.0402 80.0037C69.2818 79.1823 70.7396 79.3958 72.0767 79.0743C73.1951 78.808 74.4468 79.019 75.3918 78.1373C77.3623 77.8861 79.2424 77.2531 81.1375 76.6954C82.8968 76.1804 84.6336 75.6379 86.3804 75.1079C86.6015 75.2234 86.7348 75.1078 86.8428 74.932L87.3455 74.7914C87.72 75.0426 87.9236 74.8114 88.0995 74.515L88.0819 74.5376L88.5846 74.3241C88.6672 74.304 88.7512 74.2906 88.8359 74.2839C89.2682 74.299 89.678 74.2638 89.8639 73.7815C90.1431 73.7942 90.4174 73.7049 90.6356 73.5303H90.6154L91.1382 73.2791H91.1181L91.6434 73.028L91.6183 73.043L92.1335 72.6989C93.34 72.5431 93.9608 71.473 94.8983 70.8978C95.9036 70.2773 96.826 69.4936 97.7836 68.7802L98.1606 68.4662L98.3768 68.2653H98.9071L98.9423 68.2979C98.9095 68.6456 98.9926 68.9944 99.1786 69.2901C98.9976 70.8098 98.8468 72.3321 98.6281 73.8443C98.5251 74.5427 98.1757 74.9798 97.3362 75.1129C96.2655 75.2837 95.0742 74.9998 94.1317 75.7861L93.9005 75.8539L93.4279 76.1051C93.1414 75.9393 93.0082 76.1202 92.8901 76.3387L92.9127 76.3261C92.5432 76.3261 92.2542 76.4593 92.1436 76.8461L92.1586 76.826C92.0154 76.8461 91.8772 76.8713 91.8772 77.0622C88.7882 79.6244 86.5035 82.7342 85.3424 86.6077C84.5356 86.5449 84.6662 87.1477 84.621 87.625C84.5224 87.7217 84.4481 87.8405 84.4044 87.9716C84.3607 88.1026 84.3488 88.2421 84.3696 88.3786L84.1183 88.6298L84.1309 88.6373Z" fill="#857A5C"/>
<path d="M47.7672 92.1064C47.1565 93.1388 46.596 94.0607 46.0606 94.9952C44.6933 97.369 44.7034 99.9488 45.005 102.549C45.1138 103.255 45.4116 103.919 45.8671 104.47C46.606 105.44 46.3849 106.354 45.3242 106.957C44.6492 107.299 43.8986 107.464 43.1426 107.437C39.8752 107.507 36.6329 107.186 33.3856 106.917C32.1038 106.817 31.7896 106.199 32.33 105.048C33.5414 102.461 34.2075 102.104 37.1054 102.37C38.6386 102.511 40.1768 102.581 41.715 102.672C41.8974 102.654 42.0771 102.616 42.2504 102.556C41.999 101.074 41.7476 99.6474 41.5164 98.2206C41.1193 95.8242 42.0015 93.7593 43.3512 91.9004C44.0424 90.9484 45.196 91.3503 46.1637 91.4935C46.6739 91.5613 47.159 91.8552 47.7672 92.1064Z" fill="#4E5141"/>
<path d="M57.2352 111.853C56.2298 111.768 55.0812 111.75 53.9678 111.559C52.8544 111.368 52.3668 110.579 52.7714 109.532C53.1761 108.484 53.6989 107.449 54.8073 106.94C55.7171 106.523 56.6421 106.128 57.5871 105.797C58.3411 105.53 59.0951 105.452 59.8366 106.025C60.2437 106.344 60.8419 106.59 61.3446 106.201C61.8473 105.812 61.3773 105.354 61.2818 104.945C60.48 101.428 60.3392 97.9918 62.3751 94.779C62.9607 93.8596 63.6443 93.297 64.8483 93.523C65.9667 93.7265 66.1402 94.2616 65.6928 95.191C64.9111 96.8213 64.1847 98.5169 64.147 100.32C64.0842 103.023 63.9585 105.631 62.0735 107.836C61.6732 108.384 61.4776 109.054 61.5205 109.73C61.6035 111.207 60.8143 111.609 59.5727 111.675C58.8387 111.7 58.0897 111.783 57.2352 111.853Z" fill="#4E5141"/>
<path d="M72.8132 110.906C72.8463 111.976 72.6107 113.038 72.1277 113.994C71.6448 114.95 70.9299 115.77 70.0484 116.38C68.7239 117.344 67.2711 117.527 65.7757 116.882C64.2802 116.236 63.476 115.013 63.2422 113.408C62.9609 111.666 63.2324 109.88 64.0188 108.301C65.0418 106.244 66.6654 105.244 68.5906 105.538C70.9759 105.895 72.3809 107.296 72.7277 109.678C72.7931 110.072 72.788 110.491 72.8132 110.906ZM65.7757 111.911C65.7229 113.471 66.4141 114.448 67.6205 114.513C69.1562 114.599 70.5285 113.162 70.5712 111.426C70.6089 109.889 69.7242 108.944 68.2916 108.856C67.1304 108.786 65.9918 109.615 65.7807 111.913L65.7757 111.911Z" fill="#857A5C"/>
<path d="M46.3724 81.32C45.367 81.9304 44.1355 81.9354 43.0899 82.4554C42.1423 82.0183 41.6472 83.0658 40.853 83.1411C40.853 81.006 40.2397 79.2124 38.1209 78.2654L41.3657 76.8662L42.8738 76.3111H42.8461C43.3211 76.2659 43.7836 76.193 44.1305 75.8087H44.1129L45.8546 75.7333L48.6521 74.7009C49.675 74.4648 50.6753 74.4497 51.6304 74.9672C51.6514 74.9929 51.6785 75.013 51.7092 75.0257C51.7399 75.0385 51.7733 75.0434 51.8064 75.04C51.9446 75.4419 52.0577 75.8614 52.6232 75.8212V75.7961C52.7212 76.1227 52.8167 76.4517 52.9147 76.7783C52.9147 77.1149 52.9147 77.449 52.9147 77.7831C52.8182 77.8221 52.7383 77.8938 52.6892 77.9856C52.64 78.0774 52.6247 78.1835 52.6458 78.2855L52.6659 78.2603C52.6293 78.2569 52.5924 78.2616 52.5577 78.274C52.5231 78.2863 52.4916 78.3062 52.4655 78.332C52.4394 78.3579 52.4193 78.3892 52.4065 78.4237C52.3938 78.4582 52.3888 78.495 52.3919 78.5317L52.4171 78.5115C52.3135 78.4999 52.2087 78.519 52.1158 78.5663C52.0228 78.6136 51.9458 78.6872 51.8943 78.7778H51.9119L51.643 79.0491L51.6631 79.0265C51.5123 79.0516 51.3514 79.0692 51.3841 79.2903L51.4117 79.2702C51.0875 79.1747 50.8537 79.3405 50.6301 79.539L50.6602 79.5239C50.5195 79.5641 50.3511 79.5766 50.3812 79.7927L50.4064 79.7726C50.2666 79.7206 50.1128 79.7198 49.9724 79.7704C49.8321 79.821 49.7142 79.9197 49.6398 80.0489H49.665C49.4488 80.0489 49.2175 80.0313 49.1346 80.3001H49.1572C48.9059 80.2373 48.7073 80.2674 48.6294 80.5513L48.6571 80.5362C48.2373 80.3453 47.9382 80.6015 47.6266 80.8125L47.6568 80.7975C47.4456 80.8176 47.2144 80.7975 47.1264 81.0612H47.149C46.86 81.0537 46.5483 80.9834 46.3724 81.32Z" fill="#CA7525"/>
<path d="M83.4323 39.802C84.0958 39.7593 84.7619 39.7518 85.4179 39.6588C86.1719 39.5533 86.7776 39.8623 87.4009 40.1788L88.6048 40.3245L88.6878 40.3647C88.7087 40.3845 88.7338 40.3992 88.7612 40.4079C88.7886 40.4166 88.8176 40.419 88.8461 40.4149L89.1151 40.5632L89.1905 40.6485H89.3086C89.3916 40.7088 89.4745 40.7691 89.5599 40.8319L89.7485 41.2414C87.7528 43.7282 85.7572 46.2151 83.8042 48.6442C84.7568 48.9129 86.0663 48.2297 87.0868 49.2244C85.5913 49.3827 84.048 49.2621 82.6028 49.1742C80.7781 49.0662 78.9736 49.9554 77.184 49.2068C79.2425 46.7401 80.5368 43.7835 82.3591 41.1685L83.4323 39.802Z" fill="#E6C193"/>
<path d="M91.5755 70.8174C89.0797 72.4552 86.2974 73.2791 83.3869 73.8167C82.2407 74.0277 81.1927 74.8215 79.9862 74.9471C78.2721 75.1129 76.7967 76.1126 75.153 76.3462C70.7219 76.9742 66.2682 77.4088 61.7793 77.2882C61.5279 77.2882 61.2766 77.238 61.0252 77.2104C60.5226 77.1526 60.1782 76.9742 60.1933 76.3538C60.2084 75.7333 60.6256 75.5701 61.0981 75.5575C62.3548 75.5249 63.6115 75.5048 64.8682 75.5575C67.5827 75.6605 70.272 75.2762 72.9487 74.9898C74.9896 74.7738 76.9425 73.7614 78.9809 73.5178C82.4318 73.1033 85.2267 71.0912 88.4111 70.0663C89.1199 69.8377 89.8438 69.6594 90.5601 69.4584C90.178 70.4456 91.5629 70.1216 91.5755 70.8174Z" fill="#69968D"/>
<path d="M38.1309 78.2654C40.2497 79.2124 40.8605 81.006 40.863 83.1412L39.0232 84.0028L39.0835 84.0429L39.0232 84.0002L38.3973 84.1334L38.3722 84.1107C38.6235 83.4627 39.3776 83.5682 39.7873 83.1738C40.0662 82.91 40.6317 82.7869 40.3753 82.2343C40.119 81.6817 39.6892 81.9253 39.2871 82.0359C36.0197 82.9301 33.0036 84.4273 29.8895 85.7159C29.1355 86.0249 29.2536 86.6705 29.4647 87.3537C30.0478 87.2985 30.5606 87.0322 31.106 87.1528C30.4877 87.9742 29.6156 88.1023 28.6605 88.1324C29.1631 85.9068 28.8063 84.0027 27.0318 82.4051L31.3975 80.5965H31.3046C31.4481 80.628 31.5974 80.6214 31.7377 80.5773C31.8779 80.5332 32.0041 80.4533 32.1038 80.3453H32.051C32.3024 80.3453 32.5537 80.3328 32.712 80.0715C33.8003 79.9334 34.8384 79.6822 35.5899 78.7904C36.5199 79.0215 37.2713 78.386 38.1309 78.2654Z" fill="#E6C193"/>
<path d="M49.6547 84.8368C48.4156 84.6534 47.2091 84.5856 46.1133 85.4095C45.7011 85.7185 45.3417 86.0023 45.1507 86.4997C44.3966 88.4565 44.3816 88.4515 42.215 88.3586C42.0492 88.3586 41.8833 88.3711 41.7124 88.3786H41.735C41.4585 88.2003 41.1745 88.0923 40.8729 88.3284L39.0834 87.8361C38.9627 87.2658 38.264 87.2759 37.9272 86.8313C38.5153 86.5449 39.0809 86.467 39.473 86.0601L39.4252 85.9948L39.4881 85.9445C39.566 86.0601 39.6087 86.2786 39.7922 86.1807C39.9756 86.0827 39.8676 85.9295 39.7922 85.7838C42.1346 84.8343 44.4595 83.8471 46.8297 82.9528C48.2095 82.4303 49.3883 83.3748 50.6525 83.6812C51.2775 83.9877 51.9634 84.1497 52.6595 84.1554C53.3556 84.161 54.0441 84.0102 54.6739 83.7139C56.936 83.2969 58.5068 81.9555 59.673 80.059C61.5757 79.4838 63.5311 79.9786 65.4538 79.7827C66.0344 80.0866 66.7683 79.4712 67.5173 80.2474C65.2402 80.9457 63.0888 80.5966 60.8393 80.5589C60.608 82.1238 59.942 83.5054 58.3963 84.0154C57.117 84.4399 55.8024 84.887 54.3949 84.8468C52.8869 84.8016 51.3965 84.8317 49.896 84.8267H49.6446L49.6547 84.8368Z" fill="#857A5C"/>
<path d="M51.1251 107.932C50.7758 109.532 50.6401 111.016 51.2936 112.634C49.5845 112.732 48.0663 112.26 46.5382 112.006C43.4442 111.489 40.3854 110.702 37.2739 110.376C35.4743 110.185 33.7903 109.675 32.0561 109.308C31.4981 109.19 30.7516 109.112 30.9376 108.193C35.1124 108.826 39.272 109.012 43.4266 109.198C45.0352 109.273 46.6387 109.082 47.6642 107.542C47.7437 107.417 47.8624 107.321 48.0019 107.27C48.1413 107.218 48.2939 107.215 48.4358 107.259C49.318 107.472 50.1952 107.701 51.1251 107.932Z" fill="#857A5C"/>
<path d="M48.4208 70.7822C48.466 70.7144 48.4962 70.6114 48.559 70.5812C50.2153 69.8 55.0159 70.7596 56.4285 71.8774C58.6327 73.6207 58.4743 75.8538 57.8535 78.0845C57.2729 80.1769 55.6192 81.5133 53.5557 81.978C52.8293 82.1438 51.6681 82.3976 50.9367 81.5134C50.9417 81.47 50.9417 81.4261 50.9367 81.3827C51.6254 80.5663 52.5805 80.2323 53.5632 79.9509L53.6813 80.074C53.3772 80.7095 52.4246 80.6492 52.1004 81.4731C53.3772 81.649 54.0709 81.0184 54.7922 80.084C54.6743 80.0133 54.5497 79.9545 54.4203 79.9082C54.2596 79.8712 54.0967 79.8444 53.9327 79.8278L53.8195 79.7122C54.9129 78.4361 54.9581 76.9818 54.4303 75.4947C53.7266 73.5152 52.1884 72.7315 50.1576 72.7315C49.9867 72.0909 50.6402 71.6388 50.6125 70.9731C49.8912 70.6842 49.1371 70.8124 48.4208 70.7822Z" fill="#69968D"/>
<path d="M38.8749 61.4126C40.3201 61.611 41.7628 61.822 43.2105 62.0004C43.7358 62.0657 43.8841 62.3345 43.9168 62.8293C44.0022 64.1531 44.7034 65.0148 45.8068 65.2358C46.4236 65.3578 47.0635 65.2697 47.6244 64.9855C48.1852 64.7014 48.6346 64.2377 48.9008 63.6683C49.1974 62.975 49.5543 62.6032 50.3284 62.8243C50.3787 65.3739 48.1543 66.954 45.6912 67.6423C43.1778 68.3482 41.0088 67.7377 39.2369 65.7834C39.1427 65.7039 39.0702 65.6018 39.0263 65.4867C38.9823 65.3716 38.9683 65.2473 38.9855 65.1253C39.9456 63.4322 41.6798 62.553 43.296 62.9499C43.2733 62.1812 42.6852 62.3043 42.2102 62.2516C41.0716 62.1209 39.8928 62.0858 38.8749 61.4126Z" fill="#E6C193"/>
<path d="M66.7307 97.5021C67.256 94.9776 70.1288 93.0961 72.6372 92.9027C73.0921 92.8675 73.5546 92.9027 74.0145 92.9027C74.4154 93.5653 75.023 94.0781 75.7438 94.3621C74.2701 94.5711 72.8384 95.0102 71.5012 95.6633C69.312 96.6681 68.4046 98.5345 68.2714 100.843C68.2362 101.463 68.2489 102.099 68.2564 102.712C68.2564 103.265 67.9774 103.448 67.4672 103.378L66.3512 103.051C65.9189 101.122 66.6051 99.3308 66.7307 97.5021Z" fill="#857A5C"/>
<path d="M101.189 46.931C99.2441 48.7471 96.8815 49.7444 94.353 50.4201C94.5057 49.5051 94.9755 48.6728 95.6801 48.0689C97.3616 46.4939 97.3012 45.5921 95.2955 44.5396C95.1146 44.4466 94.9261 44.3612 94.7527 44.2884C95.0467 42.2788 95.9315 41.7915 97.6456 42.7184C98.8369 43.364 100.332 43.5901 100.9 45.14C101.122 45.7303 101.313 46.2929 101.189 46.931Z" fill="#B0A184"/>
<path d="M87.0893 49.2219C86.0839 48.2172 84.7593 48.9104 83.8068 48.6417L89.751 41.2414C89.814 41.2182 89.872 41.1833 89.9219 41.1384C89.9894 41.16 90.0466 41.2056 90.0827 41.2665L90.0601 41.3293L90.0953 41.2765C90.9347 42.01 91.4223 42.9771 91.8672 43.9719C90.8066 45.7303 89.7032 47.4686 88.7054 49.2621C88.0569 50.4076 87.6095 49.4983 87.0893 49.2219Z" fill="#D6B182"/>
<path d="M72.6398 66.5069C73.7935 65.1856 73.7935 65.1856 74.8114 64.9997C73.3285 66.6877 72.7454 68.534 71.8129 70.212C72.8183 70.5738 72.5921 71.0938 71.9336 71.664C71.4435 72.086 70.7046 72.2492 70.5261 72.9978C68.2414 73.4273 65.9517 73.8242 63.6118 73.7514C63.1568 73.7363 62.6994 73.6986 62.2419 73.6986C60.5957 73.6986 59.6532 72.8094 59.1982 71.2997L59.9925 71.0309C60.6937 71.4504 61.3924 71.885 62.2545 71.8473L62.4858 72.0382L62.4581 72.0206C63.929 72.5121 65.5293 72.4459 66.9545 71.8348C69.6363 70.8928 71.5993 69.1897 72.6398 66.5069Z" fill="#857A5C"/>
<path d="M91.5757 70.8174C91.5757 70.1215 90.1782 70.4456 90.5703 69.4534V69.486C90.8292 69.4733 91.0814 69.3995 91.3064 69.2707C91.5314 69.1419 91.7227 68.9618 91.8647 68.745V68.7626L92.116 68.4737C93.8754 67.1524 95.6499 65.8763 97.4218 64.5877C99.1083 63.3593 100.274 61.5883 101.232 59.737C101.71 58.8151 102.313 58.3153 103.426 58.4133C103.713 59.2372 104.401 60.036 102.692 60.2897C102.046 60.3852 101.325 61.1764 100.993 61.9953C100.116 64.1782 98.4322 65.6201 96.7055 67.1574C95.107 68.5917 93.3551 69.6945 91.5757 70.8174Z" fill="#648A7E"/>
<path d="M28.9596 66.3385C28.5348 65.1981 28.9596 64.1883 29.4019 63.0428C29.5908 63.1878 29.7439 63.3742 29.8493 63.5876C29.9548 63.801 30.0098 64.0357 30.0101 64.2737C29.5904 65.6 29.9674 66.738 30.8295 67.7603C32.2262 69.5491 34.0605 70.948 36.1554 71.8222C36.406 71.9612 36.6389 72.1298 36.8491 72.3246C37.8268 73.2892 39.1112 73.3294 40.3679 73.5354L42.7757 73.9322C42.7706 74.0471 42.7425 74.1598 42.6931 74.2636C42.6436 74.3675 42.5738 74.4604 42.4878 74.5367C42.4018 74.6131 42.3013 74.6714 42.1923 74.7083C42.0833 74.7451 41.968 74.7596 41.8533 74.7511C40.7373 74.2487 39.5384 74.1709 38.3471 74.0628C38.2085 73.9489 38.047 73.8659 37.8736 73.8196C37.7001 73.7732 37.5188 73.7645 37.3417 73.7941C34.2327 73.362 31.7469 71.9402 30.0679 69.2348L29.7965 69.0163V69.0414C29.7086 68.7902 29.6231 68.5391 29.5452 68.2678C29.5628 67.8658 29.5452 67.474 29.1154 67.263C29.0846 67.1907 29.0634 67.1147 29.0526 67.0369L29.0375 66.7304V66.7505C29.1154 66.5998 29.4446 66.4038 28.9596 66.3385Z" fill="#648A7E"/>
<path d="M34.7202 100.883C32.1767 101.481 30.6611 102.815 29.9071 104.993C29.2159 106.987 28.5046 108.957 30.1082 110.979C28.7761 111.253 28.3614 110.502 28.0397 109.755C27.4641 108.437 27.1398 107.055 27.5721 105.623C28.2784 103.275 29.0802 100.996 31.7545 100.117C32.7598 99.7879 33.5917 99.9612 34.7202 100.883Z" fill="#4E5141"/>
<path d="M36.8215 69.2825C36.3188 68.1848 35.8337 67.0771 35.3135 65.9869C34.8309 64.9821 35.0169 63.9471 35.1124 62.9122C35.1601 62.3772 35.5522 62.2566 35.9996 62.2239C36.0814 62.3362 36.1287 62.4699 36.1359 62.6086C36.143 62.7473 36.1096 62.885 36.0398 63.0051C35.8438 63.0503 35.6126 63.088 35.5874 63.3242C35.5548 63.6407 35.8387 63.6784 36.0599 63.7487C36.7385 65.7809 37.8193 67.5041 39.6038 68.7877C40.3307 69.3346 41.1924 69.6741 42.0971 69.7699C42.7904 69.836 43.4567 70.0715 44.0374 70.4557C43.4543 71.6464 42.6928 72.1688 41.3607 71.5032C40.9359 71.2896 40.3025 71.6639 39.835 71.252C39.5837 70.5461 38.88 70.5586 38.3471 70.3627C37.7238 70.1366 37.1281 69.9407 36.8215 69.2825Z" fill="#857A5C"/>
<path d="M40.1391 90.9081C39.5962 91.6617 38.7542 91.7923 38.1284 92.2043C36.2886 93.4025 35.5773 95.1534 35.3159 97.2057C35.248 97.7407 35.6225 98.5822 34.5367 98.5521C33.549 98.5269 33.3027 97.9517 33.3454 97.07C33.4409 95.0604 33.6294 93.1664 35.2531 91.6416C37.3618 89.6546 37.9022 89.617 40.1391 90.9081Z" fill="#857A5C"/>
<path d="M31.1061 87.1527C30.5607 87.0322 30.0479 87.2984 29.4648 87.3537C29.2537 86.6704 29.1431 86.0249 29.8896 85.7159C32.9986 84.4272 36.0248 82.9301 39.2872 82.0358C39.6893 81.9253 40.1342 81.7093 40.3754 82.2343C40.6167 82.7593 40.0663 82.91 39.7873 83.1737C39.3676 83.5681 38.6211 83.4626 38.3723 84.1107C37.6811 84.1333 36.9673 84.1107 36.6129 84.8844L36.6355 84.8593C36.3456 84.834 36.0574 84.9243 35.8338 85.1105L35.8539 85.098C35.3663 85.098 34.8636 85.0552 34.5796 85.6003C33.7778 86.4971 32.5689 86.4343 31.5635 86.8563L31.0483 87.1603L31.1061 87.1527Z" fill="#D6B182"/>
<path d="M75.7487 94.3671C75.0279 94.0831 74.4204 93.5703 74.0195 92.9077C77.012 92.247 80.0447 91.7838 83.0979 91.5211C83.2286 92.6791 83.0577 93.2794 81.9191 93.4704C79.8786 93.8721 77.8192 94.1714 75.7487 94.3671Z" fill="#4E5141"/>
<path d="M89.6026 53.5752C89.0999 52.3016 89.0999 51.2817 89.9143 50.2016C90.8166 49.0034 91.5329 47.6645 92.2819 46.3583C92.7142 45.6047 93.1465 45.3108 93.9708 45.8785C94.7952 46.4462 94.4484 46.8958 94.0237 47.4284C92.87 48.8727 92.0833 50.5507 91.0579 52.0755C90.6783 52.6231 90.3566 53.211 89.6026 53.5752Z" fill="#4E5141"/>
<path d="M47.8804 103.016C48.9837 103.579 50.0997 103.591 51.0874 104.252C52.1582 104.965 53.4375 104.538 54.5886 104.094C55.3124 103.812 56.0162 103.476 56.8506 103.352C54.9354 104.428 52.9449 105.362 51.6681 107.452C50.7808 106.158 49.2577 106.374 48.3755 105.294C47.7949 104.588 47.526 104.023 47.8804 103.016Z" fill="#4E5141"/>
<path d="M108.632 60.0284C108.081 60.0083 107.4 60.2017 106.676 60.1239C105.545 60.0033 105.354 59.2749 105.334 58.3982C105.314 57.3557 106.158 57.5215 106.777 57.4888C107.732 57.4126 108.692 57.4548 109.637 57.6144C110.315 57.7501 110.911 57.9611 110.826 58.7599C110.74 59.5587 110.21 60.0159 109.406 60.0887C109.146 60.0881 108.888 60.0679 108.632 60.0284Z" fill="#4E5141"/>
<path d="M48.4206 70.7822C49.1394 70.8124 49.8784 70.6843 50.6249 70.9555C50.6525 71.6338 49.9991 72.0859 50.17 72.7139C48.8379 72.3899 47.7244 73.254 46.4727 73.3896C45.9148 73.4524 45.387 73.7639 44.7963 73.7212C44.731 71.8498 46.7769 70.2346 48.4206 70.7822Z" fill="#648A7E"/>
<path d="M30.8547 74.0527C30.8547 73.8769 30.8547 73.7011 30.8547 73.5253L31.2845 73.3218C31.8802 74.0754 33.0665 73.8971 33.5466 74.7988C33.0967 75.8865 33.6396 76.9767 33.5466 78.0644C33.4966 78.0794 33.4433 78.0794 33.3933 78.0644L32.8177 78.2829C32.7439 78.2987 32.6692 78.3097 32.594 78.3156C32.0486 78.195 31.1764 78.5417 31.1664 77.5946C31.1563 76.6476 30.812 75.6378 31.1815 74.6707C31.3423 74.3115 31.2066 74.1281 30.8547 74.0527Z" fill="#857A5C"/>
<path d="M33.5691 78.0645C33.6621 76.9768 33.1192 75.8866 33.5691 74.7989C34.9464 75.3942 36.5851 75.1329 37.9675 76.0172C37.1632 77.7052 35.2807 76.5497 34.3382 77.5846L33.5691 78.0645Z" fill="#968C6D"/>
<path d="M32.8226 54.7031C32.4204 56.0646 32.4807 57.4813 32.3701 58.8755C32.2193 60.7971 32.1691 62.7263 32.0585 64.653C32.0164 64.8544 31.9461 65.0489 31.8499 65.2308C31.5005 63.5251 31.7945 61.8195 31.8951 60.1214C32.0157 58.0013 32.0685 55.8837 32.0936 53.7586C32.1213 51.5682 32.4204 49.3802 32.5963 47.1898C33.0462 48.29 32.9733 49.433 32.8954 50.5809C32.8024 51.955 32.629 53.3315 32.81 54.7106L32.8226 54.7031Z" fill="#B0A184"/>
<path d="M50.547 90.0616C52.231 89.6798 53.8697 90.677 55.4757 90.3831C57.6599 89.9837 59.653 90.9609 61.7718 90.8604C63.981 90.7574 66.1978 90.9609 68.4096 90.6494C69.1636 90.5414 69.9956 90.4308 70.7471 90.8302C65.9716 91.2975 61.1962 91.1694 56.4082 90.893C54.4151 90.7775 52.4547 90.6695 50.547 90.0616Z" fill="#B0A184"/>
<path d="M33.5693 78.0644L34.3384 77.5846C34.65 78.2327 35.1728 77.7127 35.5951 77.8107C35.5951 78.1423 35.5951 78.4713 35.5951 78.8004C34.8411 79.6922 33.8055 79.9433 32.7172 80.0815L32.0562 80.3553H32.109C31.8203 80.3345 31.5345 80.4243 31.3097 80.6065H31.4027C30.7266 80.506 30.3395 80.2574 30.9 79.5716C31.1162 79.3788 31.2606 79.1184 31.3097 78.833C31.7928 78.8301 32.2583 78.6515 32.6192 78.3306C32.6944 78.3247 32.7691 78.3138 32.8429 78.298L33.4184 78.0794C33.4691 78.0891 33.5215 78.0839 33.5693 78.0644Z" fill="#4E5141"/>
<path d="M38.8749 61.4126C39.8802 62.0858 41.0716 62.1209 42.2227 62.2516C42.6977 62.3043 43.2859 62.1812 43.3085 62.9499C41.6924 62.553 39.9581 63.4322 38.998 65.1253C39.0058 65.1047 39.0126 65.0838 39.0181 65.0625C38.993 64.6907 38.8749 64.3842 38.4728 64.2737C38.2574 63.3575 38.2308 62.4072 38.3948 61.4804L38.8975 61.4252L38.8749 61.4126Z" fill="#D6B182"/>
<path d="M25.5941 88.979C25.5775 89.0266 25.5433 89.0661 25.4985 89.0895C25.0461 88.9136 25.3679 88.1751 24.7747 88.1023C25.4558 86.5951 25.0788 85.1256 24.5234 83.6812L25.0562 83.3647C25.6544 83.5003 26.2199 83.6812 26.436 84.3494L26.5567 84.8317C26.2148 84.9673 26.1143 85.2487 26.0213 85.5853C25.7047 86.7006 25.6921 87.836 25.5941 88.979Z" fill="#CD7533"/>
<path d="M35.8514 58.8453C35.8287 58.3831 35.8237 57.9284 36.2937 57.6069C37.6861 58.7347 39.448 58.5815 41.0692 58.9508C41.7101 59.0965 42.4013 59.0688 42.8839 59.624L35.8514 58.8453Z" fill="#B0A184"/>
<path d="M45.4047 47.6444C45.5555 47.23 45.8169 47.2525 46.1964 47.3656C48.4585 48.0463 50.8361 48.182 53.1786 48.4533C53.3235 48.4563 53.4655 48.4947 53.5921 48.5652C53.7188 48.6357 53.8262 48.7361 53.905 48.8577C50.9618 49.1968 48.2297 48.0991 45.4047 47.6444Z" fill="#968C6D"/>
<path d="M64.4888 49.4305C64.8985 49.1793 65.3609 49.1944 65.8184 49.1793H74.0396C74.4557 49.1468 74.8733 49.2166 75.2561 49.3827L68.7515 49.5033C68.6732 49.4649 68.583 49.4586 68.5001 49.4857L64.4888 49.4305Z" fill="#968C6D"/>
<path d="M36.8215 69.2825C37.1206 69.9407 37.7163 70.1366 38.3446 70.3677C38.8775 70.5636 39.5862 70.5511 39.8325 71.257C38.3672 70.5888 36.5224 70.8802 35.3361 69.4986C35.7508 68.7977 36.3339 69.3604 36.8215 69.2825Z" fill="#B0A184"/>
<path d="M32.6166 78.3182C32.2557 78.6391 31.7902 78.8177 31.3071 78.8206C30.7316 79.0969 30.5531 78.8407 30.5958 78.2905C30.6863 76.8788 30.7692 75.4646 30.8472 74.0504C31.199 74.1257 31.3348 74.3015 31.1966 74.6708C30.8271 75.6379 31.1714 76.6226 31.1815 77.5947C31.1915 78.5668 32.0712 78.1976 32.6166 78.3182Z" fill="#968C6D"/>
<path d="M100.189 57.7274C100.011 55.5044 100.674 53.3341 100.616 51.1185C100.616 50.8673 100.828 50.7819 101.034 50.7166C100.846 52.8015 100.657 54.8864 100.468 56.9713C100.443 57.2451 100.513 57.5617 100.189 57.7274Z" fill="#968C6D"/>
<path d="M59.9924 71.0284L59.1982 71.2972C58.409 70.3828 57.0417 70.2924 56.3254 69.2876L57.4438 69.1394L59.9924 71.0284Z" fill="#B0A184"/>
<path d="M39.4807 86.0776C39.0886 86.4846 38.523 86.5625 37.9349 86.8488C38.2717 87.2834 38.9704 87.2734 39.0911 87.8536C38.1561 88.0345 37.4649 87.4165 36.4294 87.1402C37.5051 86.462 38.425 86.0776 39.4807 86.0776Z" fill="#968C6D"/>
<path d="M50.3635 67.4739C50.5872 68.0065 51.0573 68.0743 51.4921 67.9236C52.4975 67.5795 53.2992 68.2024 54.199 68.338C54.2108 68.3517 54.2195 68.3678 54.2243 68.3851C54.229 68.4025 54.2299 68.4208 54.2267 68.4386C54.1795 68.502 54.1273 68.5616 54.0708 68.6169C52.5225 68.3305 50.9517 68.323 49.3859 68.2476L49.4135 68.2652C49.6146 67.8633 49.9991 67.6824 50.3635 67.4739Z" fill="#B0A184"/>
<path d="M66.7307 97.5021C66.6 99.3308 65.9139 101.122 66.3512 103.049L67.4671 103.375C67.0172 103.375 66.6126 103.727 66.0069 103.516C65.9767 101.499 65.7857 99.4438 66.7307 97.5021Z" fill="#968C6D"/>
<path d="M78.3101 71.6614C79.245 70.7747 80.4565 70.7043 81.6353 70.5461C80.733 71.5283 79.5014 71.5358 78.3101 71.6614Z" fill="#B0A184"/>
<path d="M65.4742 79.7977C63.5514 79.9936 61.596 79.4988 59.6934 80.074C59.726 79.5339 60.0955 79.5716 60.4951 79.5716C62.1615 79.5716 63.8279 79.5716 65.4943 79.5716C65.4742 79.6344 65.4742 79.7123 65.4742 79.7977Z" fill="#B0A184"/>
<path d="M40.3602 73.5379C39.1211 73.3319 37.8267 73.2867 36.8415 72.3271C38.0726 72.5365 39.2611 72.9455 40.3602 73.5379Z" fill="#69968D"/>
<path d="M30.8296 67.7603C29.9675 66.738 29.5905 65.6 30.0102 64.2737C29.9574 65.5121 30.7039 66.5646 30.8296 67.7603Z" fill="#69968D"/>
<path d="M99.1686 69.2726C98.9826 68.9769 98.8996 68.628 98.9323 68.2803L98.9549 68.2225L98.8971 68.2476H98.3668L99.5129 66.9615C99.4174 67.9286 99.4501 68.6194 99.1686 69.2726Z" fill="#968C6D"/>
<path d="M38.3295 74.0654C39.5208 74.1734 40.7197 74.2588 41.8356 74.7536C40.6242 74.7737 39.4178 74.7562 38.3295 74.0654Z" fill="#69968D"/>
<path d="M54.6842 83.7214C54.0543 84.0177 53.3659 84.1685 52.6697 84.1628C51.9736 84.1572 51.2877 83.9952 50.6628 83.6887C51.9955 83.8822 53.3485 83.8933 54.6842 83.7214Z" fill="#968C6D"/>
<path d="M52.4043 62.4651C51.9016 63.3292 52.638 64.535 51.6327 65.2585C51.7383 64.4898 52.0273 63.7512 51.8966 62.9474C51.8363 62.5455 52.0751 62.4475 52.4043 62.4651Z" fill="#B0A184"/>
<path d="M36.6103 84.8844C36.9672 84.1032 37.681 84.1308 38.3697 84.1107L38.3948 84.1333L38.332 84.5729C37.7263 84.4875 37.1758 84.7337 36.6103 84.8844Z" fill="#E6C193"/>
<path d="M91.8646 68.745C91.7216 68.9623 91.529 69.1426 91.3026 69.271C91.0763 69.3994 90.8227 69.4722 90.5627 69.4835C90.6984 68.7048 91.3041 68.7601 91.8646 68.745Z" fill="#69968D"/>
<path d="M53.1233 61.6964C53.445 62.5078 52.8719 62.45 52.3693 62.45C52.4271 62.0129 52.8292 61.9074 53.1233 61.6964Z" fill="#B0A184"/>
<path d="M84.606 87.6125C84.6512 87.1352 84.5205 86.5323 85.3273 86.5951C85.1262 86.9619 84.9704 87.3613 84.606 87.6125Z" fill="#968C6D"/>
<path d="M34.5769 85.5878C34.8609 85.0553 35.3636 85.0854 35.8511 85.0854C35.6949 85.2655 35.4976 85.4053 35.2757 85.4927C35.0538 85.5802 34.8141 85.6128 34.5769 85.5878Z" fill="#E6C193"/>
<path d="M36.0675 63.7487C35.8438 63.6784 35.5649 63.6407 35.595 63.3242C35.6202 63.088 35.8463 63.0503 36.0474 63.0051C36.0524 63.2538 36.0675 63.5 36.0675 63.7487Z" fill="#968C6D"/>
<path d="M89.8539 73.7689C89.6679 74.2562 89.2582 74.2914 88.8259 74.2713C89.0999 73.9699 89.5096 73.9272 89.8539 73.7689Z" fill="#968C6D"/>
<path d="M29.1028 67.2704C29.5351 67.484 29.5502 67.8758 29.5326 68.2752C29.1706 68.0366 29.2159 67.6196 29.1028 67.2704Z" fill="#69968D"/>
<path d="M38.4727 64.2737C38.8749 64.3842 38.993 64.6907 39.0181 65.0625C38.6059 64.9595 38.5808 64.5801 38.4727 64.2737Z" fill="#E6C193"/>
<path d="M88.0947 74.5226C87.9187 74.819 87.7151 75.0426 87.3406 74.7989C87.5485 74.6156 87.8176 74.517 88.0947 74.5226Z" fill="#968C6D"/>
<path d="M92.1337 76.831C92.2443 76.4442 92.5332 76.3287 92.9027 76.3111C92.71 76.5637 92.44 76.7463 92.1337 76.831Z" fill="#968C6D"/>
<path d="M37.3241 73.7941C37.5012 73.7645 37.6825 73.7732 37.8559 73.8195C38.0293 73.8659 38.1908 73.9489 38.3295 74.0628C37.96 74.1307 37.5905 74.1558 37.3241 73.7941Z" fill="#69968D"/>
<path d="M39.8024 85.7913C39.8753 85.9269 39.9658 86.1027 39.8024 86.1881C39.639 86.2735 39.5761 86.0675 39.4982 85.952C39.5862 85.8967 39.6994 85.844 39.8024 85.7913Z" fill="#968C6D"/>
<path d="M92.8701 76.3236C92.9882 76.1051 93.1214 75.9242 93.408 76.09L92.8701 76.3236Z" fill="#968C6D"/>
<path d="M29.5327 68.2678C29.6181 68.519 29.7036 68.7827 29.784 69.0414C29.6656 68.9556 29.5775 68.8345 29.5323 68.6955C29.4871 68.5564 29.4873 68.4067 29.5327 68.2678Z" fill="#69968D"/>
<path d="M35.8312 85.1105C36.0548 84.9243 36.343 84.834 36.6329 84.8593C36.4218 85.128 36.1051 85.0527 35.8312 85.1105Z" fill="#E6C193"/>
<path d="M50.939 81.3828C50.9441 81.4261 50.9441 81.47 50.939 81.5134H50.7103L50.939 81.3828Z" fill="#648A7E"/>
<path d="M84.3573 88.361C84.3364 88.2245 84.3484 88.0849 84.3921 87.9539C84.4358 87.8229 84.51 87.7042 84.6086 87.6074C84.668 87.7418 84.6753 87.8934 84.6288 88.0328C84.5823 88.1721 84.4855 88.2892 84.3573 88.361Z" fill="#968C6D"/>
<path d="M51.6504 65.2283C51.6608 65.3806 51.6302 65.533 51.5617 65.6695C51.4931 65.806 51.3892 65.9217 51.2608 66.0045L51.6504 65.2283Z" fill="#B0A184"/>
<path d="M28.9595 66.3385C29.4446 66.4038 29.1154 66.5897 29.0249 66.758C29.0048 66.6174 28.9822 66.4842 28.9595 66.3385Z" fill="#69968D"/>
<path d="M40.8781 88.3183C41.1797 88.0822 41.4637 88.1902 41.7402 88.3686L40.8781 88.3183Z" fill="#968C6D"/>
<path d="M99.9302 58.4861C99.9205 58.3501 99.9377 58.2136 99.9808 58.0843C100.024 57.955 100.092 57.8354 100.182 57.7325C100.239 57.8671 100.245 58.018 100.198 58.1568C100.152 58.2956 100.057 58.4126 99.9302 58.4861Z" fill="#968C6D"/>
<path d="M90.6232 73.5178C90.405 73.6923 90.1307 73.7816 89.8516 73.769C89.9557 73.6758 90.078 73.6054 90.2109 73.5621C90.3438 73.5189 90.4842 73.5038 90.6232 73.5178Z" fill="#968C6D"/>
<path d="M31.292 73.3218L30.8622 73.5253C30.7893 72.9701 31.0557 73.1912 31.292 73.3218Z" fill="#968C6D"/>
<path d="M91.8647 77.0471C91.8647 76.8562 92.003 76.8311 92.1462 76.811L91.8647 77.0471Z" fill="#968C6D"/>
<path d="M91.631 73.0153L91.1057 73.2665C91.1656 73.1844 91.2449 73.1185 91.3366 73.0746C91.4283 73.0308 91.5295 73.0104 91.631 73.0153Z" fill="#968C6D"/>
<path d="M31.0407 87.1553L31.556 86.8513C31.4931 87.1201 31.2594 87.1176 31.0407 87.1553Z" fill="#E6C193"/>
<path d="M86.8379 74.9319C86.7298 75.1128 86.5866 75.2234 86.3754 75.1078L86.8379 74.9319Z" fill="#968C6D"/>
<path d="M91.1256 73.2665L90.6028 73.5177C90.6603 73.4337 90.7389 73.3663 90.8306 73.3222C90.9224 73.2781 91.0241 73.2589 91.1256 73.2665Z" fill="#968C6D"/>
<path d="M96.6552 62.2566L97.1579 61.9904C97.0347 62.1687 96.8915 62.3068 96.6552 62.2566Z" fill="#968C6D"/>
<path d="M38.9051 61.4251L38.4024 61.4804C38.5256 61.081 38.7166 61.2644 38.9051 61.4251Z" fill="#E6C193"/>
<path d="M99.6788 59.0613C99.7643 58.8654 99.8497 58.6695 99.9302 58.4736C99.944 58.585 99.9279 58.6981 99.8838 58.8013C99.8396 58.9046 99.7689 58.9943 99.6788 59.0613Z" fill="#968C6D"/>
<path d="M98.6658 60.4957L98.9298 59.9933C98.98 60.2269 98.8242 60.3625 98.6658 60.4957Z" fill="#968C6D"/>
<path d="M53.5657 79.951L53.817 79.6998L53.9301 79.8153C53.8446 79.8957 53.7617 79.9786 53.6788 80.0665L53.5657 79.951Z" fill="#69968D"/>
<path d="M94.1268 50.6714L93.8755 51.0783C93.8755 50.8924 93.9132 50.7191 94.1268 50.6714Z" fill="#B0A184"/>
<path d="M94.3781 50.4076L94.1117 50.6814C94.0815 50.4779 94.1268 50.3523 94.3781 50.4076Z" fill="#B0A184"/>
<path d="M68.5052 49.4932C68.5881 49.4661 68.6783 49.4724 68.7566 49.5108L68.5052 49.4932Z" fill="#4E5141"/>
<path d="M84.0984 88.6222L84.3497 88.371C84.3723 88.5544 84.2919 88.6448 84.0984 88.6222Z" fill="#968C6D"/>
<path d="M96.6402 62.4801C96.6528 62.3997 96.6678 62.3219 96.6804 62.244C96.6578 62.3219 96.6402 62.3997 96.6402 62.4801Z" fill="#968C6D"/>
<path d="M92.116 68.4762L91.8647 68.7651C91.8496 68.5817 91.9828 68.5289 92.116 68.4762Z" fill="#69968D"/>
<path d="M49.3859 68.2477L49.3934 68.2976L49.4134 68.2652L49.3859 68.2477Z" fill="#B0A184"/>
<path d="M50.3409 67.1826C50.3535 67.2981 50.3635 67.4111 50.3761 67.5267C50.3635 67.4136 50.3535 67.2981 50.3409 67.1826Z" fill="#B0A184"/>
<path d="M29.0298 66.7354L29.0449 67.0419C28.9142 66.9489 28.7408 66.8535 29.0298 66.7354Z" fill="#69968D"/>
<path d="M93.8905 75.8363L94.1217 75.7685C94.048 75.8013 93.9703 75.8241 93.8905 75.8363Z" fill="#968C6D"/>
<path d="M23.1284 85.1507C23.08 85.044 23.0679 84.9244 23.0937 84.8102C23.1196 84.6959 23.1821 84.5932 23.2717 84.5177C24.5284 85.4346 24.634 86.7207 24.448 88.1048L23.5331 88.356C23.2181 88.058 23.0091 87.6654 22.9379 87.2378C22.8666 86.8102 22.9371 86.3711 23.1385 85.9872V85.9747L23.1284 85.1507Z" fill="#87432C"/>
<path d="M23.5332 88.3535L24.4481 88.1023H24.5662L24.6693 88.1576L24.7774 88.1073C25.3705 88.1802 25.0488 88.9187 25.5012 89.0945C24.8452 89.5969 24.3124 89.2477 23.7845 88.8433L23.5332 88.3535Z" fill="#AF592D"/>
<path d="M23.1407 85.9721L23.1382 85.9846L23.0732 85.9746L23.1407 85.9721Z" fill="#857A5C"/>
<path d="M24.448 88.1048C24.634 86.7207 24.5235 85.4346 23.2718 84.5177C23.3723 83.7767 24.071 83.9173 24.5134 83.6812C25.0789 85.1256 25.4559 86.5826 24.7647 88.1023H24.5536L24.448 88.1048Z" fill="#C67F4E"/>
<path d="M26.5468 84.8217C26.6046 84.8493 26.6599 84.8719 26.7177 84.8945C26.768 85.8516 26.8484 86.8086 26.6875 87.7632L26.2452 88.5594L25.5942 88.9689C25.6923 87.8335 25.7048 86.6906 26.0114 85.5778C26.1044 85.2487 26.205 84.9673 26.5468 84.8217Z" fill="#AF592D"/>
<path d="M80.7153 59.0688C80.6248 59.8953 80.2529 60.468 79.3883 60.4504C78.5237 60.4328 78.3126 59.8023 78.3101 59.0638C78.3101 58.1721 78.7801 57.5993 79.6397 57.5566C80.6752 57.5139 80.5092 58.466 80.7153 59.0688Z" fill="#857A5C"/>
<path d="M74.271 61.4075C71.255 61.3497 68.2163 61.302 65.1902 61.2216C64.7861 61.1734 64.3878 61.0851 64.0013 60.9579C64.7779 60.5032 65.6451 60.669 66.4444 60.7443C68.7064 60.9603 70.9685 60.7293 73.2305 60.8775C73.6352 60.9051 74.0674 60.9353 74.271 61.4075Z" fill="#B0A184"/>
<path d="M33.3027 54.7081C33.3781 54.6026 33.4535 54.4946 33.5314 54.3891L33.8331 53.9545H33.8155L34.2402 53.8792C34.768 53.9294 35.1953 54.1303 35.419 54.6478C35.7181 55.3461 35.6075 55.9716 34.9867 56.4061C34.0869 57.0442 33.7803 56.155 33.3203 55.6953C33.3178 55.3763 33.3027 55.0422 33.3027 54.7081Z" fill="#857A5C"/>
<path d="M62.3526 60.7569C60.7164 61.3196 59.0852 60.6439 57.4615 60.7017C59.0699 60.3028 60.7536 60.3218 62.3526 60.7569Z" fill="#B0A184"/>
<path d="M33.3026 54.7081C33.3026 55.0422 33.3027 55.3763 33.3202 55.7129C32.8176 55.5396 32.8427 55.1126 32.8176 54.7081H33.3026Z" fill="#B0A184"/>
<path d="M33.8355 53.9545L33.5339 54.3891C33.3856 54.0726 33.6143 54.0173 33.8355 53.9545Z" fill="#B0A184"/>
<path d="M34.2426 53.8892L33.8179 53.9645C33.8393 53.9299 33.8677 53.9002 33.9014 53.8773C33.9351 53.8544 33.9733 53.8389 34.0134 53.8318C34.0535 53.8247 34.0946 53.8261 34.1341 53.836C34.1736 53.8459 34.2106 53.8641 34.2426 53.8892Z" fill="#B0A184"/>
<path d="M63.7148 60.9579H63.2448C63.2704 60.919 63.3053 60.8871 63.3463 60.865C63.3873 60.843 63.4332 60.8314 63.4798 60.8314C63.5263 60.8314 63.5722 60.843 63.6132 60.865C63.6542 60.8871 63.6891 60.919 63.7148 60.9579Z" fill="#B0A184"/>
<path d="M69.4955 83.8168C70.1791 84.3192 70.8301 84.7965 70.5788 85.7485C70.5333 85.9987 70.3921 86.2215 70.1853 86.3696C69.9784 86.5177 69.722 86.5797 69.4703 86.5423C69.2 86.5183 68.9447 86.4075 68.7426 86.2263C68.5406 86.0452 68.4026 85.8036 68.3494 85.5376C68.0855 84.5453 68.8847 84.269 69.4955 83.8168Z" fill="#857A5C"/>
<path d="M55.3198 89.6873L55.3448 89.7672L55.2773 89.7573L55.3198 89.6873Z" fill="#B0A184"/>
<path d="M88.5972 40.3246L87.3933 40.1788C87.5859 40.0813 87.8031 40.0431 88.0174 40.0691C88.2317 40.095 88.4335 40.1839 88.5972 40.3246Z" fill="#B0A184"/>
<path d="M89.9143 41.1384C89.8644 41.1833 89.8064 41.2182 89.7434 41.2414C89.6806 41.1007 89.6178 40.9651 89.5549 40.8295L89.9143 41.1384Z" fill="#B0A184"/>
<path d="M89.3085 40.646H89.1904L89.115 40.5607C89.1821 40.5828 89.2469 40.6114 89.3085 40.646Z" fill="#B0A184"/>
<path d="M90.0875 41.2765L90.0526 41.329L90.075 41.2665L90.0875 41.2765Z" fill="#B0A184"/>
<path d="M88.8476 40.4147C88.8193 40.4187 88.7905 40.4164 88.7632 40.4077C88.736 40.3991 88.711 40.3844 88.6902 40.3647C88.7466 40.3649 88.8015 40.3823 88.8476 40.4147Z" fill="#B0A184"/>
<path d="M53.6838 80.0741C53.7667 79.9912 53.8497 79.9083 53.9351 79.8229C54.0992 79.8395 54.262 79.8663 54.4227 79.9032C54.5522 79.9495 54.6767 80.0085 54.7947 80.0791C54.0733 81.0136 53.3796 81.644 52.1028 81.4682C52.4271 80.6493 53.3797 80.7096 53.6838 80.0741Z" fill="#648A7E"/>
<path d="M62.4581 72.0106C63.9661 72.1462 65.454 71.8473 66.9545 71.8247C65.5292 72.4359 63.929 72.502 62.4581 72.0106Z" fill="#B0A184"/>
<path d="M62.2595 71.8448C62.3801 71.8448 62.5108 71.8624 62.4907 72.0357L62.2595 71.8448Z" fill="#B0A184"/>
<path d="M98.897 68.2475L98.9545 68.2225L98.9321 68.28L98.897 68.2475Z" fill="#857A5C"/>
<path d="M24.5662 88.0872H24.7774L24.6693 88.1374L24.5662 88.0872Z" fill="#CD7533"/>
<path d="M60.4699 63.5377H63.8479C64.0138 64.0627 64.1897 64.5625 64.333 65.0724C64.5517 65.8562 64.7728 66.6199 65.7631 66.748C66.869 66.8912 67.9095 66.6299 68.5454 65.7432C68.9777 65.1453 69.5508 64.5851 69.6413 63.7562L71.4434 64.0602C71.1543 66.5043 69.6714 68.22 67.716 69.2926C66.0798 70.1893 64.2476 70.6239 62.174 69.8653C60.0075 69.069 58.6954 67.6774 57.7253 65.7532C58.3134 65.4292 58.3738 64.349 59.3138 64.5726C60.3417 64.8238 61.4426 64.6781 62.4203 65.1704C62.83 65.3789 63.2346 65.6176 63.7574 65.2534C63.8504 64.3013 63.6167 63.6758 62.4329 63.7462C61.7794 63.7889 61.0933 63.8818 60.4699 63.5377Z" fill="#E6C193"/>
<path d="M60.4701 63.5377C61.0934 63.8818 61.7795 63.7889 62.433 63.7512C63.6168 63.6809 63.8505 64.3064 63.7576 65.2584C63.2348 65.6226 62.8302 65.384 62.4205 65.1755C61.4428 64.6731 60.3419 64.8238 59.3139 64.5776C58.3739 64.354 58.3085 65.4342 57.7254 65.7583C57.8611 65.0826 57.0116 64.6831 57.2227 63.9848C58.1225 63.2036 59.2335 63.6382 60.2388 63.4824C60.3167 63.5 60.3922 63.5176 60.4701 63.5377Z" fill="#D6B182"/>
<path d="M60.2386 63.4875C59.2333 63.6382 58.1324 63.2036 57.2225 63.9899C57.2225 63.6558 57.019 63.1383 57.6272 63.2011C58.5044 63.289 59.4218 62.9675 60.2386 63.4875Z" fill="#E6C193"/>
<path d="M98.6509 95.2438C98.6509 97.2107 97.9798 98.3737 96.6528 98.7606C95.7278 99.0319 95.0467 98.7279 94.72 97.8713C94.0841 96.1883 94.3781 94.553 95.3734 93.1112C96.0973 92.0637 97.3565 92.1717 98.1005 93.2242C98.4909 93.8232 98.6834 94.5296 98.6509 95.2438Z" fill="#4E5141"/>
<path d="M95.6347 84.8443C95.6347 84.887 95.6171 84.9297 95.6096 84.9724L95.3583 85.0302L95.1421 85.1558L94.8908 85.3416L94.3705 85.5928L94.4132 85.6179C94.2413 85.5559 94.0944 85.4393 93.995 85.286C93.8956 85.1327 93.8492 84.9511 93.8628 84.7689C94.5389 84.0555 94.4333 82.6664 95.7931 82.5458C96.4591 82.7593 96.3762 83.3245 96.3988 83.837V83.8219C96.2038 83.9252 96.034 84.0705 95.9019 84.2473C95.7698 84.4241 95.6785 84.628 95.6347 84.8443Z" fill="#857A5C"/>
<path d="M94.4259 85.6305L94.0313 85.9595L94.0916 86.0223C93.6967 86.067 93.3354 86.2655 93.0863 86.575L93.1038 86.5548L92.6011 86.6076C93.0309 86.0048 93.1365 85.1758 93.8578 84.7814C93.8454 84.9658 93.8944 85.1491 93.9971 85.3027C94.0999 85.4563 94.2506 85.5715 94.4259 85.6305Z" fill="#968C6D"/>
<path d="M96.4114 83.8495C96.3887 83.3471 96.4717 82.7719 95.8056 82.5583C96.0796 82.3549 96.4063 82.1213 96.6476 82.5157C96.9341 82.9854 96.7733 83.4551 96.4114 83.8495Z" fill="#968C6D"/>
<path d="M95.6348 84.8443C95.6821 84.6302 95.776 84.4292 95.9098 84.2556C96.0436 84.0819 96.214 83.9399 96.409 83.8395C96.4115 84.3645 96.3335 84.8367 95.6348 84.8443Z" fill="#968C6D"/>
<path d="M68.9576 111.496C68.8219 112.041 68.8822 112.77 68.0754 112.772C67.4697 112.772 67.256 112.27 67.2811 111.715C67.3088 111.084 67.5501 110.527 68.2589 110.499C68.8897 110.474 68.8445 111.067 68.9576 111.496Z" fill="#857A5C"/>
<path d="M72.9537 116.133H72.9212C72.92 116.146 72.92 116.158 72.9212 116.171L72.9537 116.133Z" fill="#1D2831"/>
<path d="M96.6552 62.2558H96.6672V62.2415L96.6552 62.2558Z" fill="#1D2831"/>
<path d="M33.084 114.224L29.4975 113.973C30.0203 114.42 30.6712 114.45 31.3096 114.531C31.8927 114.38 32.5462 114.644 33.084 114.229L33.7376 114.134C33.7444 114.073 33.766 114.014 33.8004 113.963L33.084 114.214V114.224Z" fill="#1D2831"/>
<path d="M100.189 57.727H100.191L100.189 57.725V57.727Z" fill="#1D2831"/>
<path d="M112.009 56.9588C112.095 56.7076 111.949 56.5594 111.758 56.4413C111.57 56.0921 111.291 56.1575 111.004 56.2755C110.695 56.0631 110.326 55.9532 109.951 55.9615C109.509 55.5446 108.973 55.7857 108.478 55.753H107.933L105.721 55.7731C104.66 55.8611 103.605 56.0796 102.476 55.9389C102.459 55.6073 102.444 55.2883 102.426 54.9693C102.929 54.0022 102.71 52.922 102.788 51.9147C102.941 49.885 103.439 47.8127 102.695 45.7855C102.592 44.5295 101.953 43.5775 101.046 42.7712C100.041 41.8794 98.784 41.4197 97.56 40.8897C96.904 40.6033 96.6652 40.224 97.1956 39.5859C97.7375 38.9959 98.2246 38.3577 98.6508 37.6794C99.7944 35.6372 100.988 33.6275 102.26 31.6632C102.788 30.7036 102.886 29.7516 102.195 28.8197H102.283V28.7317C102.17 28.5031 102.054 28.272 101.938 28.0434C101.94 28.0501 101.94 28.0569 101.938 28.0635C101.903 27.9254 101.855 27.7973 101.672 27.8124H101.725L101.654 27.5812C100.797 26.589 99.7869 25.7475 98.5478 25.3506C97.932 25.1547 97.2634 25.0643 96.6477 24.8131C95.1019 23.9263 93.4507 23.9464 91.7692 24.2479C91.2665 24.3383 90.6432 24.278 90.5426 25.024L90.608 25.0467C90.5369 25.0473 90.4688 25.0758 90.4186 25.1261C90.3683 25.1763 90.3397 25.2444 90.339 25.3155L90.3164 25.2627C90.2071 25.3134 90.1132 25.3923 90.0443 25.4911C89.9754 25.59 89.934 25.7053 89.9243 25.8253C89.6792 26.0927 89.4525 26.3764 89.2457 26.6744C87.9187 28.8548 86.5463 31.0151 85.3097 33.2457C84.6286 34.4766 83.5856 35.5266 83.3217 36.9811C83.0904 37.0263 82.8366 37.0388 82.7989 37.3503C80.5544 37.4106 78.3728 36.8203 76.1233 36.7725C74.0096 36.7298 71.8958 36.5716 69.7795 36.6696L69.5031 36.6143C69.3447 36.348 69.0733 36.3932 68.8345 36.3932C65.1197 36.3932 61.4058 36.3999 57.6926 36.4133C56.0036 36.4887 54.2971 36.3757 52.6659 36.9157C51.1578 36.7098 49.6498 36.9157 48.1744 37.1468C46.0104 37.4709 43.8062 37.599 41.7226 38.3601C40.6669 38.1592 39.7847 38.7344 38.8347 39.0082C38.5833 39.1389 38.2491 39.0584 38.0807 39.3574C37.8466 39.3386 37.6114 39.3742 37.3934 39.4614C37.1754 39.5485 36.9805 39.6849 36.824 39.8598C36.6873 39.8318 36.5456 39.8402 36.4133 39.8843C36.2809 39.9284 36.1625 40.0066 36.0699 40.111C35.8689 40.1361 35.6703 40.1612 35.5673 40.3622C35.4687 40.3556 35.3702 40.3753 35.2818 40.4195C35.1935 40.4637 35.1185 40.5306 35.0646 40.6134H35.1073L34.6046 40.8646L34.3533 41.1158C34.2489 41.0957 34.1409 41.1092 34.0448 41.1543C33.9486 41.1995 33.8692 41.2739 33.818 41.367H33.8556C33.6923 41.4021 33.5641 41.4699 33.5666 41.6659C31.008 43.3464 31.0181 46.102 30.631 48.6994C30.6788 50.0358 30.2213 51.3445 30.4048 52.6884C30.3042 55.2004 30.2791 57.7124 29.985 60.2244C29.9297 60.2997 29.8769 60.3776 29.8241 60.4529C29.3592 60.7468 28.849 60.9855 28.5373 61.4753H28.58L28.3136 61.7265V61.7114C28.0762 61.8863 27.8818 62.1129 27.7451 62.3741C27.6083 62.6352 27.5329 62.924 27.5244 63.2186H27.5571C26.7377 65.6402 26.7251 67.9738 28.3111 70.1366C28.6216 70.4707 28.855 70.8687 28.9948 71.3027C29.1347 71.7368 29.1776 72.1962 29.1204 72.6486C28.9646 74.7285 28.8691 76.8109 28.8138 78.8958C28.7987 79.5941 28.3915 79.9006 27.9567 80.2799C27.5546 80.2799 27.1449 80.2272 26.8005 80.5111L26.3155 80.7623C26.1219 80.8024 25.9158 80.8225 25.8128 81.0285C25.7103 81.0146 25.6059 81.0309 25.5125 81.0756C25.4192 81.1202 25.341 81.1912 25.2875 81.2797H25.3252C25.1794 81.3073 25.0537 81.3575 25.0512 81.5309C24.9029 81.5309 24.7773 81.551 24.7798 81.7093L24.7371 81.6967L24.2922 81.8374C24.2927 81.9178 24.2672 81.9962 24.2193 82.0609L24.5285 82.4001C24.7145 82.7166 24.903 83.0306 25.089 83.3446C25.6871 83.4802 26.2527 83.6611 26.4688 84.3292L26.5894 84.8115C26.6473 84.8392 26.7025 84.8618 26.7603 84.8844C26.8106 85.8414 26.8911 86.7985 26.7302 87.753L26.2879 88.5494L25.6369 88.9588C25.6202 89.0064 25.5861 89.0459 25.5414 89.0693C24.8854 89.5717 24.3525 89.2225 23.8247 88.8181L23.5734 88.3157C23.2584 88.0177 23.0494 87.6251 22.9782 87.1975C22.9069 86.77 22.9774 86.3308 23.1788 85.9469H23.1159H23.1813C23.1813 85.6731 23.1813 85.3993 23.1687 85.1255L21.5677 83.764C21.1848 84.3056 20.9375 84.931 20.8463 85.5877C20.8916 86.688 20.404 87.8485 21.2711 88.8533C21.251 89.4486 21.623 89.7928 22.0628 90.1093C22.2463 90.3605 22.5253 90.3781 22.7942 90.4258C24.0685 91.001 25.3227 90.8227 26.5643 90.3253L26.8408 90.2751C29.0124 90.3153 30.9276 89.421 32.8729 88.6247C33.9537 88.2479 34.866 88.386 35.5145 89.5717C34.6474 90.059 33.5842 90.3379 33.1368 91.3703C33.1134 91.4507 33.0933 91.5344 33.0765 91.6215L33.1117 91.6064L32.8603 91.8702V91.8551C32.6593 92.0686 32.4934 92.2947 32.5889 92.6087C32.5339 92.616 32.4816 92.6366 32.4364 92.6687C32.3912 92.7009 32.3547 92.7437 32.3299 92.7932C32.3051 92.8428 32.2927 92.8977 32.2941 92.9531C32.2954 93.0085 32.3104 93.0628 32.3375 93.1111C31.5835 93.8044 31.6087 94.7112 31.6539 95.6231C31.6033 95.9099 31.5798 96.2009 31.5835 96.4922C31.7042 97.6452 31.4755 98.5721 30.2841 99.0997C28.7987 99.7553 27.8059 101.046 27.1474 102.39C26.034 104.666 25.5062 107.14 26.1421 109.715C26.2501 110.265 26.2199 110.881 26.8031 111.222C26.6221 111.526 26.8031 111.647 27.0544 111.725C26.9513 111.994 27.0896 112.134 27.3233 112.227C27.3233 112.383 27.3987 112.478 27.5621 112.478C27.5576 112.499 27.5576 112.521 27.5621 112.541C27.5785 112.596 27.5986 112.65 27.6224 112.702C27.9944 113.543 28.9646 113.476 29.5628 113.976L33.1494 114.227L33.8657 113.976L34.1597 113.933C34.2322 113.95 34.3067 113.956 34.381 113.953L34.4262 113.729C34.9062 113.327 35.512 113.039 35.6578 112.34L36.2257 111.984C36.2689 112.013 36.3194 112.029 36.3715 112.031C36.5701 112.355 37.0024 111.735 37.1583 112.225C38.787 112.102 40.4219 112.36 41.9337 112.978C43.6931 113.212 45.4122 113.702 47.2118 113.714C48.5188 114.121 49.876 114.159 51.2332 114.254C52.4422 114.757 53.6788 115.139 55.0033 115.051C56.4234 115.242 57.8435 115.086 59.2761 115.051L60.0301 114.727C61.0204 114.877 61.8121 115.119 62.3977 116.179C62.9004 117.105 63.4935 118.238 64.7703 118.512C65.2428 118.909 65.7078 119.243 66.3889 119.311C67.9372 119.464 69.405 119.346 70.7522 118.502C70.7931 118.384 70.8593 118.276 70.9461 118.186C71.0329 118.095 71.1382 118.025 71.2549 117.98C71.275 117.909 71.2951 117.839 71.3202 117.769H71.27L71.5213 117.733C71.5213 117.656 71.5213 117.575 71.5389 117.497C71.6055 117.497 71.6695 117.471 71.7166 117.424C71.7638 117.377 71.7902 117.313 71.7902 117.246C71.8242 117.248 71.8581 117.242 71.8894 117.229C71.9207 117.215 71.9486 117.195 71.9709 117.169C71.9932 117.144 72.0093 117.113 72.0181 117.081C72.0269 117.048 72.028 117.013 72.0215 116.98C72.2502 116.623 72.4839 116.271 72.9237 116.146C72.9212 116.079 72.9288 116.012 72.9464 115.947C73.2379 115.066 74.1126 114.465 74.1428 113.461C74.7309 111.893 74.4745 110.29 74.3464 108.688L73.7582 107.432L73.5295 107.181L73.5672 107.208C73.4365 106.05 72.9841 105.121 71.7827 104.734C71.7794 104.723 71.7738 104.713 71.7663 104.704C71.7587 104.695 71.7493 104.688 71.7388 104.684C71.7284 104.679 71.717 104.676 71.7055 104.676C71.6939 104.676 71.6826 104.679 71.6721 104.684C71.4502 104.398 71.124 104.211 70.7648 104.164V104.179L70.2621 103.807C70.247 102.601 70.2311 101.396 70.2144 100.192C70.358 99.7694 70.5258 99.3551 70.717 98.9514C71.3454 97.806 72.0868 96.776 73.532 96.5977C73.6703 96.6128 73.7658 96.5701 73.7834 96.4219C76.6411 96.0024 79.5315 95.7587 82.3037 94.8695L82.5928 94.8921C82.3817 98.5671 82.0524 102.247 83.0577 105.867C83.4825 107.392 83.5604 109.06 84.8171 110.255C86.0286 113.142 88.2781 114.689 91.2866 115.249C92.7318 115.563 94.1795 115.983 95.6096 115.199C98.7212 114.327 101.139 112.418 102.898 109.823C105.691 105.714 107.674 101.26 107.694 96.1456C108.184 95.6432 107.815 94.9724 107.991 94.4047V94.136L108.036 91.7572C108.021 91.4633 108.008 91.1694 107.993 90.8729C107.82 89.0015 108.058 87.0472 106.935 85.3466C106.829 82.9828 105.734 81.0762 104.208 79.348C104.219 79.2404 104.198 79.1319 104.146 79.0369C104.095 78.9418 104.015 78.8646 103.919 78.8155L103.698 78.5643C103.554 77.8785 103.147 77.5193 102.441 77.5369C102.461 77.3434 102.358 77.2857 102.172 77.2857V77.3033L101.901 76.9139C101.416 76.5245 100.941 76.1151 100.279 76.0573C100.096 74.1784 100.755 72.3873 100.853 70.531C100.933 69.9357 101.011 69.3403 101.104 68.7449C101.179 67.3357 101.564 65.9516 101.436 64.5248C101.629 64.5449 101.662 64.4118 101.687 64.2736C101.848 64.2586 101.911 64.1456 101.938 64.0024L102.19 63.5V63.5301C102.416 63.4271 102.441 63.2261 102.441 63.0277C102.528 62.9785 102.599 62.9044 102.643 62.8149C102.688 62.7254 102.705 62.6245 102.692 62.5253C103.149 62.2337 103.681 62.0826 104.223 62.0907C105.854 62.038 107.49 62.0154 109.114 61.9802C109.695 61.9677 110.293 62.0053 110.75 61.5356H110.73C110.816 61.5447 110.902 61.5248 110.975 61.4793C111.047 61.4338 111.103 61.3652 111.132 61.2844L111.733 60.7443L111.984 60.5258C111.983 60.5324 111.983 60.5393 111.984 60.5459C112.201 60.3299 112.422 60.1163 112.261 59.7672C112.743 58.7548 112.746 57.8229 112.009 56.9588ZM106.777 57.4888C107.732 57.4125 108.692 57.4547 109.637 57.6144C110.315 57.75 110.911 57.961 110.826 58.7599C110.74 59.5587 110.21 60.0159 109.406 60.0887C109.146 60.088 108.888 60.0679 108.631 60.0284C108.081 60.0083 107.4 60.2017 106.676 60.1238C105.545 60.0033 105.354 59.2748 105.334 58.3981C105.314 57.3557 106.158 57.5214 106.777 57.4888ZM56.8355 36.8906C56.6998 36.9107 56.5641 36.9208 56.4284 36.9283C56.5641 36.9158 56.6998 36.9057 56.8355 36.8856V36.8906ZM31.8952 60.1264C32.0158 58.0062 32.0686 55.8887 32.0937 53.7636C32.1214 51.5731 32.4205 49.3852 32.5964 47.1947C32.5742 47.0586 32.5816 46.9192 32.618 46.7862C32.6545 46.6531 32.7191 46.5294 32.8076 46.4235C32.6417 44.1803 35.0219 42.1331 37.1432 41.6508C37.8193 41.4975 38.2868 41.1484 38.8473 40.8822C39.8526 40.4049 40.9761 40.548 42.0091 40.2818C43.5648 39.8824 45.1056 39.3247 46.7066 39.277C49.5719 39.1865 52.3844 38.644 55.2522 38.5536C58.9544 38.4355 62.6591 38.1617 66.3664 38.2345C69.7066 38.3024 73.0569 38.3752 76.3771 38.7017C77.9304 38.855 79.4988 39.1187 81.0144 39.2041C81.2657 39.7517 80.7304 39.9577 80.7982 40.342C80.1045 40.8168 79.9889 41.7287 79.3555 42.2461C79.2575 43.1103 78.6643 43.7307 78.2697 44.4491C77.3599 46.1096 76.1057 47.579 75.4623 49.3902L77.1639 49.2169C79.2223 46.7501 80.5167 43.7935 82.339 41.1786L83.4171 39.8171C84.699 37.5211 86.0412 35.2729 87.5391 33.0976C88.5721 31.5904 89.3538 29.8923 90.3164 28.3122C90.6583 27.7521 90.9096 27.1442 91.3922 26.6794C93.5336 25.7274 95.587 26.2449 97.6228 27.0487C97.6499 27.0747 97.6825 27.0942 97.7182 27.106C97.7538 27.1177 97.7917 27.1213 97.8289 27.1165L98.3995 27.3677C98.5527 27.3907 98.7045 27.4217 98.8544 27.4606C98.7046 27.4214 98.5527 27.3904 98.3995 27.3677H98.3718L99.1409 27.8701C100.9 29.4979 100.996 31.4195 99.0882 33.4593C98.1406 34.4766 97.6605 35.72 96.8663 36.7851C95.1924 39.0459 93.6944 41.4247 92.121 43.7533C92.0409 43.8494 91.9478 43.9339 91.8445 44.0045C90.7839 45.7629 89.6806 47.5012 88.6827 49.2948C88.0418 50.4452 87.5944 49.5308 87.0666 49.2545C85.5711 49.4128 84.0279 49.2922 82.5827 49.2043C80.758 49.0963 78.9534 49.9856 77.1639 49.237L75.4623 49.4103L75.3517 49.4254H75.2411L68.7365 49.546L68.4851 49.5284L64.4637 49.4656C60.9098 49.7042 57.4262 48.8802 53.8798 48.8802C50.9367 49.2319 48.2046 48.1267 45.3796 47.667C43.4794 47.3003 41.6094 46.8456 40.2019 45.3836C40.005 45.1632 39.7468 45.0063 39.4604 44.933C39.1739 44.8596 38.8722 44.8731 38.5934 44.9717C38.2365 46.3206 38.988 47.5037 40.6468 48.5261C41.9789 49.3475 43.5171 49.2445 44.9372 49.659C46.8635 50.2209 48.8358 50.6109 50.8311 50.8245C51.7057 50.9149 52.6181 50.8949 53.5229 50.9753C58.326 51.3998 63.1442 51.6309 67.9673 51.6208C71.6872 51.6208 75.4246 51.6887 79.1143 51.1812C80.6876 50.9652 82.261 51.0406 83.8243 50.8019C85.3324 50.5708 86.6569 50.9175 87.3431 52.4849C87.5853 53.0934 87.7852 53.7178 87.9412 54.3538C88.0946 55.1074 88.4439 56.1122 89.2658 56.1122C90.143 56.1122 90.9925 55.4842 91.5279 54.7105C92.2819 53.6379 92.6011 52.299 93.5386 51.3344C93.6285 51.2557 93.7253 51.1852 93.8276 51.1235C93.8276 50.9451 93.8653 50.7793 94.0664 50.7241C94.0362 50.5281 94.0865 50.41 94.3177 50.4553C94.4734 49.5447 94.9418 48.7168 95.6423 48.1141C97.3238 46.5391 97.2634 45.6373 95.2578 44.5848C95.0768 44.4919 94.8883 44.4065 94.7149 44.3336C95.0089 42.324 95.8937 41.8367 97.6078 42.7636C98.7991 43.4092 100.295 43.6353 100.863 45.1851C101.084 45.788 101.275 46.3507 101.152 46.9887C101.208 48.2527 101.156 49.5192 100.996 50.7743C100.808 52.8592 100.62 54.9442 100.43 57.0291C100.405 57.3029 100.476 57.6194 100.151 57.7827C100.208 57.9174 100.214 58.0681 100.167 58.2067C100.121 58.3454 100.026 58.4625 99.9 58.5363C99.9119 58.6461 99.8951 58.7572 99.851 58.8585C99.8069 58.9598 99.7372 59.0479 99.6486 59.114C99.6348 59.2482 99.5922 59.3778 99.5236 59.494C99.4551 59.6102 99.3623 59.7102 99.2515 59.7873L98.8997 60.0385C98.9499 60.2897 98.7916 60.4153 98.6357 60.5409V60.5258L98.3844 60.8272C98.0447 61.3049 97.6184 61.7147 97.1277 62.0355C97.0865 62.1264 97.0171 62.2017 96.9297 62.2501C96.8423 62.2985 96.7416 62.3175 96.6426 62.3043L96.6049 62.5253C94.4887 64.2837 92.4528 66.145 89.8942 67.3433C88.7933 67.8456 87.8584 68.7123 86.5539 68.7349C84.9051 69.3503 83.387 70.3124 81.61 70.5913C80.7077 71.5735 79.4762 71.581 78.2848 71.7066C77.7821 72.523 76.7768 72.2793 76.161 72.317C74.2483 72.4325 72.3909 72.9022 70.5009 73.0479C68.2162 73.4775 65.9265 73.8744 63.5865 73.8015C63.1316 73.7865 62.6742 73.7488 62.2167 73.7488C60.5705 73.7488 59.6279 72.8596 59.173 71.3499C58.3838 70.4355 57.0165 70.3451 56.3002 69.3403C55.6191 68.8756 54.7193 69.1519 54.0382 68.6696C52.5025 68.3857 50.9442 68.3757 49.3909 68.3028C49.5945 67.9135 49.974 67.7301 50.3309 67.5266V67.5819C50.3309 67.4664 50.3083 67.3508 50.2958 67.2353C50.3561 66.6474 50.9542 66.4817 51.2232 66.0647L51.6128 65.2885L51.5952 65.3061C51.7007 64.5374 51.9898 63.7989 51.8591 62.9951C51.7937 62.6133 52.0149 62.5077 52.3316 62.5127C52.3843 62.0656 52.784 61.9601 53.0856 61.7591C53.2012 59.5561 52.417 57.6671 51.1804 55.8761C50.6928 55.1702 50.1223 55.3737 49.6975 55.5521C49.1119 55.8033 49.3834 56.3885 49.6046 56.8558C50.1073 57.9007 51.3061 58.6694 50.7733 60.1917C48.1744 60.2319 45.4951 59.9681 42.836 59.6893L35.8136 58.9106C35.987 60.0309 36.2685 61.1462 35.9669 62.2892C36.0487 62.4015 36.0961 62.5351 36.1032 62.6738C36.1103 62.8125 36.077 62.9503 36.0071 63.0704L36.0272 63.824C36.7059 65.8562 37.7866 67.5794 39.5711 68.863C40.2979 69.4099 41.1597 69.7493 42.0644 69.8452C42.7577 69.9112 43.424 70.1468 44.0047 70.531C43.4216 71.7217 42.66 72.2441 41.3279 71.5785C40.9032 71.3649 40.2698 71.7392 39.8024 71.3273C38.337 70.6591 36.4922 70.9505 35.3059 69.5689C33.6621 69.2951 33.167 67.7854 32.2898 66.7102C31.9982 66.351 31.9656 65.7808 31.8148 65.3086C31.5006 63.5251 31.7946 61.8194 31.8952 60.1213V60.1264ZM94.0136 47.4333C92.86 48.8777 92.0733 50.5557 91.0478 52.0805C90.6784 52.6281 90.3466 53.2159 89.5926 53.5877C89.0899 52.3141 89.0899 51.2943 89.9042 50.2141C90.8065 49.0159 91.5229 47.677 92.2719 46.3708C92.7042 45.6172 93.1365 45.3233 93.9609 45.891C94.7853 46.4587 94.4384 46.8908 94.0136 47.4283V47.4333ZM88.5973 74.324C88.6798 74.304 88.7639 74.2905 88.8486 74.2839C89.1175 73.9699 89.5222 73.9272 89.8741 73.7815C89.9761 73.6906 90.0956 73.6214 90.2252 73.5782C90.3548 73.535 90.4919 73.5187 90.6281 73.5303C90.6839 73.4495 90.7593 73.3841 90.8472 73.3402C90.9351 73.2962 91.0326 73.2752 91.1308 73.2791C91.1885 73.2002 91.2642 73.1362 91.3516 73.0925C91.4391 73.0488 91.5357 73.0267 91.6335 73.0279L92.1361 72.6963C93.3426 72.5405 93.9634 71.4705 94.9009 70.8952C95.9062 70.2748 96.8286 69.491 97.7837 68.7776L98.1632 68.4636L98.3794 68.2627L99.5255 66.9765C99.43 67.9361 99.4627 68.6269 99.1812 69.28C99.0002 70.7997 98.8494 72.322 98.6307 73.8342C98.5276 74.5325 98.1783 74.9696 97.3388 75.1028C96.2681 75.2736 95.0768 74.9897 94.1343 75.776C94.0606 75.8087 93.9828 75.8316 93.9031 75.8438L93.4305 76.095L92.9077 76.3236C92.7163 76.567 92.4521 76.743 92.1537 76.826L92.1688 76.8059L91.8873 77.042C88.7984 79.6042 86.5137 82.714 85.3525 86.5875C85.1514 86.9517 84.9956 87.3411 84.6336 87.5923C84.6949 87.7264 84.703 87.8787 84.6563 88.0185C84.6097 88.1584 84.5118 88.2753 84.3823 88.3459C84.3999 88.5318 84.3195 88.6222 84.131 88.5971L84.1637 88.6122C82.3515 89.3658 80.4187 89.5692 78.5111 89.9159C75.9499 90.3831 73.3234 90.2173 70.7799 90.8051C66.0044 91.2723 61.229 91.1442 56.441 90.8679C54.4579 90.7524 52.4874 90.6443 50.5797 90.0364C47.5461 89.9485 44.6306 89.2427 41.7502 88.3534H41.7728L40.9107 88.3032L39.0835 87.8359C38.1485 88.0168 37.4573 87.3988 36.4218 87.1225C37.4975 86.4644 38.4175 86.0826 39.4731 86.07L39.4253 86.0047L39.4857 85.952L39.7948 85.7937C42.1373 84.8442 44.4622 83.857 46.8323 82.9627C48.2121 82.4403 49.3909 83.3847 50.6552 83.6912C51.9879 83.8847 53.3408 83.8957 54.6766 83.7238C56.9386 83.3068 58.5095 81.9655 59.6757 80.0689C59.7084 79.5289 60.0779 79.5666 60.4775 79.5666C62.1439 79.5666 63.8102 79.5666 65.4766 79.5666C68.7918 79.1747 72.1019 78.7652 75.3844 78.1473C77.3549 77.8961 79.2349 77.263 81.13 76.7054C82.8894 76.1904 84.6261 75.6479 86.3729 75.1179L86.8354 74.942L87.3381 74.8013C87.5459 74.6181 87.815 74.5194 88.0921 74.525L88.0745 74.5476L88.5973 74.324ZM45.0126 102.539C45.1213 103.245 45.4192 103.909 45.8747 104.46C46.6136 105.43 46.3925 106.344 45.3318 106.947C44.6568 107.289 43.9062 107.454 43.1501 107.427C39.8827 107.497 36.6405 107.176 33.3932 106.907C32.1114 106.806 31.7972 106.188 32.3375 105.038C33.549 102.451 34.215 102.094 37.113 102.36C38.6461 102.501 40.1844 102.571 41.7226 102.662C41.9049 102.644 42.0846 102.606 42.2579 102.546C42.0065 101.064 41.7552 99.6372 41.524 98.2104C41.1269 95.814 42.0091 93.7491 43.3588 91.8902C44.05 90.9382 45.2036 91.3402 46.1712 91.4833C46.689 91.5612 47.1766 91.8576 47.7824 92.0962C47.1716 93.1287 46.6111 94.0506 46.0758 94.985C44.6934 97.3588 44.7035 99.9386 45.0051 102.539H45.0126ZM36.8969 99.0594C36.9102 99.2424 36.9345 99.4245 36.9698 99.6046C37.0037 99.7911 37.0482 99.9756 37.103 100.157C37.2488 98.7354 37.3954 97.312 37.5428 95.8868C37.5428 95.078 38.0606 94.5756 38.611 94.0933C39.1539 94.0531 39.7898 93.9426 39.5912 94.8293C39.1438 96.8389 39.4806 98.8083 39.8425 100.78C38.8598 100.866 38.0003 100.421 37.1005 100.15C37.0457 99.9681 37.0012 99.7836 36.9672 99.597C36.932 99.417 36.9077 99.2349 36.8943 99.0519C36.8793 98.871 36.8742 98.6902 36.8767 98.5118C36.8692 98.6977 36.8742 98.8886 36.8893 99.0594H36.8969ZM48.3906 94.7363C48.7827 94.3771 48.569 93.503 49.421 93.5658L51.1603 93.9199C51.1641 93.986 51.1641 94.0523 51.1603 94.1184C50.5788 96.1024 50.0982 98.1146 49.7202 100.147C49.6322 100.838 49.4387 101.152 48.7022 100.632C46.4251 99.0243 46.2718 96.6731 48.383 94.7363H48.3906ZM51.6982 99.6699C51.7205 99.051 51.8047 98.4358 51.9495 97.8336C51.8022 98.4355 51.7155 99.0507 51.6906 99.6699H51.6982ZM51.7259 99.9411C51.7435 99.906 51.7811 99.8683 51.7761 99.8382C51.7599 99.7765 51.7371 99.7167 51.7082 99.6598C52.2637 99.0544 52.1506 98.223 52.4246 97.5221C52.8292 96.4922 52.7111 95.2613 53.6285 94.4274C53.9288 95.7266 54.3986 96.9808 55.0259 98.1577C55.011 98.311 55.0383 98.4654 55.1047 98.6044C55.1711 98.7434 55.2742 98.8616 55.4029 98.9464L55.4256 98.8962C55.4256 99.1775 55.3853 99.4765 55.6769 99.6649C55.6769 99.9462 55.6543 100.233 55.9282 100.418L55.8955 100.401C55.9182 100.567 55.9408 100.732 55.9659 100.903C55.9659 100.996 55.981 101.087 55.9911 101.177C55.5789 101.368 55.1943 101.589 55.0812 102.081L55.0988 102.162L55.1516 102.149C53.9125 102.425 52.6734 102.903 51.4317 102.149C51.4142 101.988 51.3941 101.828 51.3765 101.667L51.7259 99.9411ZM56.7401 97.9316C56.7278 97.8626 56.7194 97.793 56.7149 97.7231C56.7168 97.7937 56.7227 97.8641 56.7325 97.9341L56.7401 97.9316ZM56.7074 97.6276C56.5352 97.5102 56.3976 97.3487 56.3092 97.1601C56.2207 96.9714 56.1847 96.7624 56.2047 96.555C56.1832 96.7625 56.2178 96.9719 56.3049 97.1615C56.392 97.351 56.5284 97.5137 56.6999 97.6326L56.7074 97.6276ZM56.2047 96.3716C56.1268 96.2058 56.0463 96.0426 55.9684 95.8692C56.0463 96.035 56.1268 96.1983 56.2047 96.3716ZM55.9659 95.8818C55.8422 95.7246 55.7624 95.5374 55.7347 95.3392C55.7608 95.5389 55.8397 95.7279 55.9634 95.8868L55.9659 95.8818ZM55.9157 100.205C55.8901 99.9987 55.8025 99.8051 55.6643 99.6498C55.8061 99.8055 55.8965 100.001 55.9232 100.21L55.9157 100.205ZM55.413 98.8911C55.5065 98.995 55.5752 99.1186 55.6141 99.2529C55.5778 99.1184 55.5117 98.9939 55.4205 98.8886L55.413 98.8911ZM56.0363 101.677C56.0526 101.608 56.0568 101.536 56.0489 101.466C56.0591 101.538 56.0565 101.611 56.0413 101.682L56.0363 101.677ZM55.8955 101.878C55.8499 101.911 55.7989 101.937 55.7448 101.953C55.8003 101.939 55.853 101.915 55.9006 101.883L55.8955 101.878ZM53.1459 102.948C52.977 102.95 52.8084 102.933 52.6432 102.898C52.8123 102.936 52.9852 102.954 53.1585 102.953L53.1459 102.948ZM47.8678 103.011C48.9712 103.573 50.0871 103.586 51.0749 104.247C52.1456 104.96 53.4249 104.533 54.576 104.088C55.2999 103.807 56.0036 103.47 56.8381 103.347C54.9229 104.423 52.9323 105.357 51.6555 107.447C50.7682 106.153 49.2451 106.369 48.3629 105.289C47.7949 104.588 47.526 104.023 47.8804 103.016L47.8678 103.011ZM56.9588 98.3913C57.0367 98.5571 57.1171 98.7203 57.1975 98.8937C57.1171 98.7304 57.0367 98.5671 56.9588 98.3913ZM57.4614 99.2755C57.4647 99.1929 57.4423 99.1114 57.3972 99.0421C57.3522 98.9729 57.2869 98.9192 57.2101 98.8886C57.1925 98.6877 57.2101 98.4666 56.9588 98.3862C56.9783 98.252 56.9658 98.1151 56.9221 97.9867C56.8784 97.8584 56.8048 97.7422 56.7074 97.6477C56.622 97.1931 56.5742 96.7208 56.2047 96.3917C56.2299 96.1682 56.255 95.9471 55.9534 95.8768C55.993 95.7196 55.9884 95.5545 55.94 95.3998C55.8917 95.2451 55.8015 95.1068 55.6794 95.0001C56.4083 94.7489 56.8406 95.1307 57.2402 95.6758C57.6725 96.2611 57.9088 96.9544 58.4969 97.4669C59.085 97.9793 58.5547 98.8485 57.4338 99.2931L57.1799 98.8886L57.4614 99.2755ZM48.6495 80.5336C48.474 80.6787 48.2582 80.7664 48.0312 80.7848C48.2562 80.7715 48.4719 80.69 48.6495 80.5512V80.5336ZM51.4142 79.2776C51.2561 79.4192 51.0573 79.5071 50.8462 79.5288C51.0555 79.5133 51.2545 79.4315 51.4142 79.2952V79.2776ZM53.5657 79.9383L53.817 79.6871C54.9103 78.411 54.9556 76.9566 54.4278 75.4695C53.724 73.4901 52.1858 72.7063 50.155 72.7063C48.8229 72.3823 47.7095 73.2464 46.4578 73.382C45.8998 73.4448 45.372 73.7563 44.7813 73.7136C44.716 71.8297 46.7619 70.2145 48.4057 70.7621C48.4509 70.6942 48.481 70.5912 48.5439 70.5611C50.2002 69.7799 55.0008 70.7394 56.4133 71.8573C58.6175 73.6006 58.4592 75.8338 57.8384 78.0644C57.2578 80.1569 55.604 81.4932 53.5405 81.958C52.8141 82.1237 51.653 82.3774 50.9216 81.4932H50.6928L50.9241 81.3726C51.6279 80.5663 52.5829 80.2322 53.5657 79.9509V79.9383ZM52.6357 75.8087C52.7473 75.8541 52.8457 75.9269 52.9217 76.0204C52.9978 76.1139 53.0489 76.2251 53.0705 76.3437C53.047 76.2274 52.995 76.1188 52.9191 76.0276C52.8432 75.9364 52.7458 75.8654 52.6357 75.8212V75.8087ZM42.8762 76.2985C43.1123 76.038 43.4344 75.8712 43.7835 75.8287C43.4327 75.8745 43.1103 76.0459 42.8762 76.311V76.2985ZM44.1329 75.8136C44.4496 75.6353 44.7613 75.3791 45.083 75.3313C44.7688 75.3916 44.4572 75.6478 44.1405 75.8262L44.1329 75.8136ZM38.4652 64.2585C38.2498 63.3424 38.2233 62.392 38.3873 61.4653C38.513 61.0759 38.6989 61.2417 38.89 61.3999C40.3276 61.5984 41.7653 61.8094 43.2079 61.9853C43.7332 62.0506 43.8815 62.3193 43.9142 62.8142C43.9997 64.138 44.7009 64.9996 45.8043 65.2206C46.4211 65.3426 47.061 65.2546 47.6218 64.9704C48.1827 64.6863 48.6321 64.2225 48.8983 63.6532C49.1949 62.9599 49.5518 62.5881 50.3259 62.8092C50.3762 65.3588 48.1518 66.9389 45.6887 67.6271C43.1753 68.333 41.0063 67.7226 39.2343 65.7682C39.1402 65.6887 39.0677 65.5867 39.0237 65.4716C38.9798 65.3565 38.9658 65.2321 38.983 65.1101L39.0056 65.0473C38.6059 64.9594 38.5808 64.5801 38.4728 64.2736L38.4652 64.2585ZM47.1515 81.041C47.0288 81.1676 46.8714 81.255 46.6991 81.2922C46.8682 81.2576 47.0236 81.1747 47.1465 81.0536L47.1515 81.041ZM29.0551 67.0343C28.9294 66.9388 28.756 66.8434 29.0375 66.7278C29.0174 66.5947 28.9948 66.4615 28.9747 66.3284C28.5499 65.188 28.9747 64.1782 29.417 63.0327C29.6059 63.1777 29.7589 63.364 29.8644 63.5774C29.9699 63.7908 30.0249 64.0256 30.0252 64.2636C29.9725 65.502 30.7189 66.5545 30.8446 67.7502C32.2413 69.539 34.0755 70.9379 36.1705 71.8121C36.4211 71.951 36.654 72.1197 36.8642 72.3145C38.0952 72.5238 39.2838 72.9328 40.3829 73.5252L42.7907 73.9222C42.7857 74.037 42.7576 74.1497 42.7082 74.2535C42.6587 74.3573 42.5889 74.4502 42.5028 74.5266C42.4168 74.603 42.3164 74.6613 42.2074 74.6981C42.0984 74.735 41.9831 74.7496 41.8684 74.7411C40.6468 74.7712 39.4404 74.741 38.3621 74.0527C37.9851 74.1205 37.6081 74.1457 37.3568 73.784C34.2477 73.3519 31.762 71.9301 30.083 69.2247L29.8116 69.0062V69.0313C29.6978 68.9463 29.6127 68.8286 29.5678 68.6939C29.5229 68.5592 29.5202 68.4139 29.5603 68.2777C29.2009 68.0265 29.2461 67.6221 29.133 67.2729C29.088 67.202 29.0533 67.125 29.0299 67.0443L29.0551 67.0343ZM26.7754 84.8518C27.2354 85.5275 27.5018 86.2006 27.3334 86.8764C27.4867 86.2107 27.2203 85.5375 26.7679 84.8618L26.7754 84.8518ZM26.2728 88.5745C26.2878 88.9412 26.0365 89.3507 26.0641 89.7174C26.0264 89.3607 26.2778 88.9513 26.2652 88.5895L26.2728 88.5745ZM26.0817 89.8304C26.1003 89.9053 26.1327 89.976 26.1772 90.039C26.1308 89.9813 26.095 89.9158 26.0717 89.8455L26.0817 89.8304ZM34.5871 85.5827C33.7853 86.4795 32.5764 86.4167 31.571 86.8387C31.4981 87.1075 31.2644 87.105 31.0557 87.1426H31.111C30.4927 87.9641 29.6206 88.0921 28.6655 88.1223C29.1682 85.8967 28.8113 83.9927 27.0368 82.395L31.3975 80.5889C31.5265 80.6084 31.6582 80.5957 31.781 80.5518C31.9039 80.508 32.0139 80.4344 32.1013 80.3377C32.2191 80.3549 32.3393 80.3386 32.4482 80.2906C32.5571 80.2426 32.6503 80.1649 32.7171 80.0664L32.0737 80.3327C31.8 80.3213 31.5318 80.4107 31.3197 80.5839C30.6963 80.4758 30.3595 80.2197 30.8999 79.5615C31.116 79.3687 31.2605 79.1084 31.3096 78.823C30.734 79.0993 30.5556 78.8431 30.5983 78.293C30.6888 76.8812 30.7717 75.467 30.8496 74.0527V73.5252C30.7617 72.9701 31.0406 73.1911 31.2794 73.3218C31.8751 74.0754 33.0614 73.897 33.5415 74.7988C34.9188 75.3942 36.5575 75.1329 37.9399 76.0171C37.1356 77.7051 35.2531 76.5496 34.3106 77.5846C34.6197 78.2276 35.14 77.7177 35.5497 77.8107C35.5497 78.1372 35.5497 78.4663 35.5497 78.7928C36.4796 79.0214 37.2311 78.3859 38.0907 78.2653L41.3355 76.8662L42.8259 76.321C43.2984 76.2758 43.7584 76.2055 44.1027 75.8312L45.8345 75.7558L48.6319 74.7235C49.6548 74.4873 50.6552 74.4723 51.6103 74.9747C51.6307 75.0012 51.6576 75.0221 51.6884 75.0352C51.7192 75.0484 51.7529 75.0535 51.7862 75.05C51.9244 75.4494 52.0375 75.8689 52.6005 75.8312C52.696 76.1502 52.789 76.4693 52.8845 76.7883C52.8845 77.1249 52.8845 77.459 52.8845 77.7931C52.7957 77.8379 52.7248 77.9115 52.6832 78.0018C52.6417 78.0922 52.632 78.1939 52.6558 78.2905C52.6219 78.2869 52.5876 78.291 52.5555 78.3023C52.5234 78.3137 52.4943 78.3321 52.4702 78.3561C52.4461 78.3802 52.4277 78.4093 52.4164 78.4414C52.405 78.4735 52.4009 78.5078 52.4045 78.5416C52.3041 78.5363 52.2042 78.5585 52.1156 78.6059C52.027 78.6533 51.953 78.7241 51.9018 78.8104H51.9169L51.6504 79.0792L51.6706 79.0566C51.5273 79.0817 51.3765 79.0993 51.3916 79.2952C51.2572 79.269 51.1182 79.2783 50.9886 79.3224C50.859 79.3665 50.7431 79.4437 50.6526 79.5464C50.5245 79.5841 50.3761 79.6042 50.3862 79.7976C50.2518 79.7482 50.1045 79.7461 49.9687 79.7918C49.8329 79.8375 49.7169 79.9282 49.6397 80.0488C49.4361 80.0488 49.2225 80.0488 49.1371 80.3C48.9033 80.2473 48.7123 80.2774 48.6344 80.5387C48.2347 80.3704 47.9432 80.604 47.6441 80.81C47.438 80.8276 47.2194 80.81 47.1414 81.0612C46.8574 81.0612 46.5583 81.0034 46.3874 81.3325C45.3821 81.9429 44.1505 81.9479 43.1049 82.4678C42.1574 82.0308 41.6623 83.0783 40.868 83.1537L39.0307 84.0127L38.4049 84.1459C38.3823 84.2916 38.3622 84.4373 38.3421 84.5855C37.7338 84.5001 37.1834 84.7462 36.6178 84.897L36.6405 84.8718C36.4319 85.1381 36.1202 85.0677 35.8487 85.123C35.6886 85.2955 35.4899 85.4275 35.2689 85.5083C35.0478 85.5891 34.8107 85.6164 34.577 85.5877L34.5871 85.5827ZM41.9663 83.2717C42.231 83.1251 42.4832 82.9571 42.7204 82.7693C42.4802 82.9593 42.2246 83.129 41.9563 83.2767L41.9663 83.2717ZM33.3479 97.0649C33.4434 95.0554 33.632 93.1613 35.2556 91.6365C37.3719 89.6496 37.9123 89.6119 40.1492 90.9031C39.6063 91.6566 38.7643 91.7873 38.1385 92.1993C36.2987 93.3975 35.5874 95.1483 35.326 97.2006C35.2581 97.7356 35.6326 98.5771 34.5468 98.547C33.554 98.5269 33.3027 97.9517 33.3379 97.07L33.3479 97.0649ZM28.0497 109.75C27.4742 108.432 27.1499 107.05 27.5822 105.618C28.2885 103.27 29.0902 100.991 31.7645 100.112C32.7698 99.7829 33.6018 99.9562 34.7303 100.878C32.1867 101.476 30.6712 102.81 29.9172 104.988C29.226 106.982 28.5147 108.952 30.1183 110.974C28.7786 111.253 28.3614 110.501 28.0397 109.755L28.0497 109.75ZM46.5483 112.011C43.4543 111.494 40.3955 110.707 37.2839 110.381C35.4843 110.19 33.8004 109.68 32.0661 109.313C31.5082 109.195 30.7616 109.117 30.9476 108.198C35.1224 108.831 39.2821 109.017 43.4367 109.203C45.0453 109.278 46.6488 109.087 47.6742 107.547C47.7538 107.422 47.8724 107.326 48.0119 107.275C48.1514 107.223 48.3039 107.22 48.4459 107.264C49.3281 107.467 50.2052 107.696 51.1352 107.929C50.7858 109.529 50.6501 111.014 51.3036 112.632C49.5845 112.735 48.0663 112.262 46.5382 112.009L46.5483 112.011ZM62.1011 107.826C61.7009 108.374 61.5052 109.044 61.5481 109.72C61.6311 111.197 60.8419 111.599 59.6003 111.665C58.8462 111.702 58.0923 111.785 57.2453 111.855C56.2399 111.77 55.0913 111.752 53.9778 111.562C52.8644 111.371 52.3768 110.582 52.7815 109.534C53.1861 108.487 53.7089 107.452 54.8173 106.942C55.7272 106.525 56.6521 106.131 57.5971 105.799C58.3511 105.533 59.1052 105.455 59.8466 106.028C60.2538 106.347 60.852 106.593 61.3547 106.204C61.8573 105.814 61.3873 105.357 61.2918 104.948C60.4901 101.431 60.3493 97.9943 62.3851 94.7815C62.9707 93.8621 63.6544 93.2995 64.8583 93.5255C65.9768 93.729 66.1502 94.2641 65.7028 95.1935C64.9211 96.8238 64.1948 98.5194 64.1571 100.323C64.1018 103.011 63.9661 105.618 62.0911 107.824L62.1011 107.826ZM72.7428 109.662C72.8031 110.074 72.7981 110.494 72.8232 110.918C72.8564 111.989 72.6208 113.051 72.1378 114.007C71.6549 114.963 70.94 115.783 70.0585 116.392C68.7339 117.357 67.2812 117.54 65.7857 116.894C64.2903 116.249 63.486 115.026 63.2522 113.42C62.9709 111.679 63.2425 109.893 64.0289 108.314C65.0518 106.256 66.6755 105.256 68.6007 105.55C70.9809 105.877 72.3859 107.274 72.7327 109.66L72.7428 109.662ZM81.9292 93.4653C79.8887 93.867 77.8293 94.1663 75.7589 94.3621C74.2852 94.571 72.8536 95.0101 71.5163 95.6632C69.3271 96.668 68.4198 98.5344 68.2866 100.843C68.2514 101.463 68.2639 102.099 68.2715 102.712C68.2715 103.264 67.9925 103.448 67.4823 103.378C67.0324 103.378 66.6277 103.729 66.022 103.518C65.9843 101.509 65.7958 99.4463 66.7459 97.5045C67.2712 94.98 70.144 93.0985 72.6523 92.9051C73.1073 92.8699 73.5697 92.9051 74.0297 92.9051C77.0221 92.2444 80.0547 91.7812 83.108 91.5185C83.2286 92.6715 83.0678 93.2593 81.9192 93.4627L81.9292 93.4653ZM105.98 88.7578C106.271 92.4027 106.231 96.0426 105.434 99.5895C104.276 104.686 101.981 109.17 97.6279 112.348C95.3055 114.046 91.3444 113.9 89.0045 112.217C86.8379 110.647 85.6968 108.474 85.081 106C84.5557 103.898 84.1888 101.745 84.327 99.5342C84.5055 92.8649 86.2121 86.6981 90.3743 81.335C91.7612 79.5933 93.5629 78.227 95.6146 77.361C96.9744 76.7556 98.3794 77.1098 99.5858 77.8031C103.786 80.2096 105.59 84.0479 105.97 88.7553L105.98 88.7578ZM101.008 62.0003C100.131 64.1832 98.4473 65.6251 96.7206 67.1624C95.117 68.5942 93.3651 69.697 91.5857 70.8198C89.0899 72.4576 86.3076 73.2816 83.3971 73.8191C82.251 74.0301 81.2029 74.8239 79.9965 74.9495C78.2823 75.1153 76.807 76.1151 75.1632 76.3487C70.7321 76.9767 66.2784 77.4113 61.7895 77.2907C61.5381 77.2907 61.2868 77.2404 61.0355 77.2128C60.5328 77.155 60.1884 76.9767 60.2035 76.3562C60.2186 75.7358 60.6358 75.5725 61.1083 75.5599C62.365 75.5273 63.6217 75.5072 64.8784 75.5599C67.5928 75.6629 70.2822 75.2786 72.959 74.9923C74.9998 74.7762 76.9527 73.7639 78.9911 73.5202C82.442 73.1057 85.2369 71.0937 88.4213 70.0688C89.1301 69.8402 89.854 69.6618 90.5703 69.4609V69.4935C90.6985 68.7148 91.2992 68.7676 91.8647 68.755C91.8647 68.5867 91.9903 68.5339 92.116 68.4837C93.8754 67.1624 95.6499 65.8863 97.4218 64.5977C99.1083 63.3693 100.274 61.5984 101.232 59.747C101.71 58.8251 102.313 58.3253 103.426 58.4232C103.713 59.2472 104.401 60.046 102.692 60.2997C102.051 60.3876 101.33 61.1789 100.998 61.9978L101.008 62.0003Z" fill="#1D2831"/>
<path d="M62.4898 72.0348V72.0106H62.4631L62.4898 72.0348Z" fill="#1D2831"/>
<path d="M55.4206 63.1584C55.207 65.4594 56.2425 67.3283 57.454 69.1394L60.0025 71.0284C60.7038 71.4479 61.4025 71.8825 62.2646 71.8448C62.3827 71.8448 62.4983 71.8649 62.4958 72.0181C63.9913 72.1488 65.4716 71.8549 66.9646 71.8322C69.6414 70.8928 71.6043 69.1897 72.6449 66.5069C72.8208 65.6277 72.9942 64.7485 73.1802 63.8115C73.9091 63.6859 74.8567 63.8115 75.0276 62.7741C75.1231 62.1863 74.9245 61.6387 74.2736 61.4076C71.2575 61.3498 68.2188 61.3021 65.1927 61.2217C64.7886 61.1735 64.3903 61.0851 64.0038 60.9579H63.7224H63.2523C62.9482 60.9328 62.5914 61.1438 62.3626 60.7645C60.7264 61.3272 59.0952 60.6514 57.4715 60.7092C57.0669 60.7268 56.6271 60.8775 56.3053 60.3676C56.808 59.5336 56.9136 58.4736 57.851 57.8104C57.9556 57.7381 58.0446 57.6455 58.1126 57.5381C58.1806 57.4307 58.2263 57.3107 58.2469 57.1853C58.2675 57.0599 58.2627 56.9317 58.2327 56.8082C58.2027 56.6847 58.1481 56.5685 58.0723 56.4665C58.0343 56.4034 57.9839 56.3486 57.9242 56.3055C57.8645 56.2624 57.7966 56.2318 57.7248 56.2156C57.6529 56.1994 57.5785 56.1979 57.506 56.2112C57.4335 56.2246 57.3645 56.2524 57.3031 56.2932C55.9233 57.1422 55.2924 58.5288 54.7219 59.9481C54.3097 60.9529 54.5258 61.8095 55.2648 62.5857C55.3865 62.7504 55.4422 62.9547 55.4206 63.1584ZM57.6475 63.196C58.5146 63.289 59.432 62.9675 60.2488 63.4875C60.3267 63.4875 60.4021 63.5176 60.48 63.5377H63.8581C64.024 64.0627 64.1999 64.5626 64.3432 65.0725C64.5618 65.8562 64.783 66.6199 65.7733 66.748C66.8792 66.8912 67.9197 66.63 68.5556 65.7432C68.9879 65.1454 69.561 64.5852 69.6515 63.7562L71.4535 64.0602C71.1645 66.5044 69.6816 68.22 67.7262 69.2926C66.09 70.1894 64.2577 70.624 62.1841 69.8653C60.0176 69.0691 58.7056 67.6775 57.7354 65.7533C57.8712 65.0776 57.0216 64.6781 57.2328 63.9798C57.2378 63.6507 57.0292 63.1332 57.6374 63.196H57.6475Z" fill="#1D2831"/>
<path d="M95.4462 80.4784C93.7103 81.7235 92.2646 83.3295 91.2086 85.1859C88.2352 90.353 87.147 95.9396 87.6371 101.825C87.8281 104.114 88.464 106.347 89.8338 108.278C91.3619 110.441 92.9856 110.976 95.4864 110.228C97.7032 109.562 99.2338 108.035 100.513 106.256C103.504 102.102 104.311 97.3338 104.193 92.0687C104.346 90.4485 103.999 88.5896 103.886 86.7132C103.75 84.47 102.778 82.6111 101.245 81.0562C99.9075 79.7047 97.658 78.8833 95.4462 80.4784ZM95.3808 90.3681C95.1446 89.6472 94.8781 88.9362 94.6771 88.2027C94.5238 87.6124 94.6972 87.1477 95.401 87.0548C95.8509 87.007 96.1374 86.5072 96.64 86.6052C96.4725 87.9298 96.3049 89.2544 96.1374 90.5791C96.0569 90.6042 95.979 90.6293 95.8986 90.6494L95.3808 90.3681ZM93.8753 84.7815C94.5514 84.0681 94.4458 82.6789 95.8031 82.5583C96.0795 82.3549 96.4063 82.1213 96.6476 82.5157C96.9341 82.9829 96.7758 83.4476 96.4189 83.842C96.4189 84.367 96.3309 84.8468 95.6448 84.8468C95.6448 84.8895 95.6271 84.9322 95.6196 84.9749L95.3683 85.0327C95.301 85.0822 95.2285 85.1243 95.1521 85.1583L94.9008 85.3441L94.3805 85.5953L94.4232 85.6204L94.0287 85.9495C94.471 86.0977 94.9711 86.1756 95.23 86.5524C94.9787 86.1756 94.476 86.0977 94.0287 85.9495L94.089 86.0123C93.7067 86.0593 93.3568 86.2508 93.1112 86.5474L92.6086 86.6001C93.0383 86.0048 93.1439 85.1758 93.8753 84.7815ZM91.3745 88.8534L92.1461 88.3761C92.2165 88.3761 92.2868 88.3761 92.3572 88.3761C92.9226 89.56 93.3445 90.8073 93.6139 92.0913C92.5407 92.8022 91.4549 92.1968 90.3767 92.1139C90.4119 91.1895 90.7889 90.3555 91.0427 89.4839L91.3745 88.8534ZM93.7898 99.4564C93.765 99.4329 93.7333 99.418 93.6994 99.4137C93.7313 99.4183 93.761 99.4322 93.7848 99.4539L93.7898 99.4564ZM93.1213 86.58C93.1213 86.5926 93.1213 86.6051 93.1213 86.6177C93.1213 86.6302 93.1062 86.58 93.1213 86.58ZM93.4556 86.58C93.3953 86.5838 93.3349 86.5838 93.2746 86.58C93.331 86.5783 93.3872 86.5732 93.443 86.5649L93.4556 86.58ZM93.0308 86.8312C93.015 86.8596 92.9956 86.8858 92.973 86.9091C92.993 86.8781 93.0083 86.8442 93.0183 86.8086L93.0308 86.8312ZM92.3723 88.3886C93.0962 88.9488 93.6818 90.2902 93.7522 91.29C93.6818 90.2852 93.0962 88.9488 92.3723 88.3886C92.3537 88.3665 92.329 88.3504 92.3013 88.3424C92.2735 88.3343 92.244 88.3347 92.2165 88.3434C92.2412 88.3329 92.2684 88.3294 92.2951 88.3334C92.3217 88.3374 92.3467 88.3487 92.3673 88.3661L92.3723 88.3886ZM91.7816 88.4414C91.6322 88.4965 91.5068 88.6023 91.4273 88.7403C91.4995 88.5961 91.6207 88.4821 91.7691 88.4188L91.7816 88.4414ZM92.6186 96.3918C92.6186 96.7234 92.596 97.0524 92.5835 97.384L91.8646 98.1351L91.1106 98.9088L90.8844 99.1399C90.339 99.4036 90.3214 100.434 89.4065 100.145C89.2938 98.8055 89.325 97.4581 89.4995 96.1255C90.5652 95.9547 91.5756 96.3215 92.6186 96.3893V96.3918ZM89.0999 97.379C89.0571 97.6279 89.0369 97.8801 89.0396 98.1326C89.0371 97.8809 89.0572 97.6295 89.0999 97.3815V97.379ZM89.2155 99.4539C89.2708 99.685 89.3412 99.9161 89.4216 100.147C89.3361 99.9136 89.2657 99.6825 89.2104 99.4514L89.2155 99.4539ZM89.1049 98.9238C89.1284 99.0645 89.156 99.2052 89.1879 99.3459C89.1502 99.2027 89.1225 99.0595 89.0999 98.9213L89.1049 98.9238ZM93.3953 107.796C93.3752 108.158 93.4631 108.592 92.9529 108.703C92.5156 108.801 92.234 108.52 92.0254 108.201C91.5228 107.447 91.0578 106.676 90.5777 105.912L90.3691 105.661L90.3993 105.689C90.2207 105.48 90.1306 105.209 90.1479 104.935C90.0022 104.347 89.2758 103.757 89.6 103.177C89.2758 103.762 89.9996 104.35 90.1454 104.935C90.128 105.209 90.2182 105.48 90.3968 105.689C90.3741 105.405 90.4345 105.096 90.1454 104.897C90.2259 104.159 89.8111 103.418 90.1454 102.679L90.3717 102.428C90.623 102.225 90.9346 102.066 90.8944 101.674L90.9271 101.755C90.9648 101.764 91.0046 101.76 91.0392 101.742C91.0739 101.725 91.101 101.695 91.1156 101.659C92.0581 101.029 92.5432 99.886 93.629 99.4112L93.8653 99.6624C93.8966 100.068 93.9067 100.474 93.8954 100.881C93.7497 102.81 93.5838 104.734 93.4254 106.658C93.4154 107.043 93.4104 107.429 93.3902 107.794L93.3953 107.796ZM97.5951 106.708C96.8989 107.211 96.2705 107.814 95.6095 108.371C95.5216 108.14 95.3406 107.902 95.3582 107.683C95.5668 105.422 95.8107 103.162 96.0419 100.916C96.816 100.348 97.3438 100.602 97.6806 101.418C97.9822 102.149 98.2763 102.883 98.5528 103.624C99.1132 105.141 98.9021 105.754 97.5901 106.706L97.5951 106.708ZM100.109 102.034C100.131 102.072 100.165 102.102 100.206 102.119C100.247 102.136 100.292 102.14 100.335 102.129C100.292 102.137 100.248 102.132 100.209 102.115C100.169 102.097 100.136 102.068 100.114 102.031L100.109 102.034ZM100.36 102.117C100.473 102.072 100.574 102.002 100.656 101.913C100.577 102 100.48 102.068 100.372 102.114L100.36 102.117ZM100.656 101.913L99.9251 101.576C99.1308 100.18 99.3394 98.8887 100.053 97.472C100.629 96.3315 100.646 94.9248 100.332 93.704C99.9552 92.2471 100.282 91.2146 101.418 90.3253C101.759 90.026 102.082 89.7055 102.383 89.3658C102.501 92.3048 102.604 95.2438 101.953 98.1452L100.656 101.913ZM102.918 92.2822C102.918 91.9506 102.901 91.6216 102.866 91.295C102.903 91.619 102.924 91.9481 102.924 92.2797L102.918 92.2822ZM102.697 90.3203C102.62 89.9941 102.519 89.6742 102.393 89.3633C102.519 89.6733 102.622 89.9923 102.7 90.3178L102.697 90.3203ZM99.6435 82.2695C100.325 83.1763 101.049 84.0429 101.433 85.1532C101.818 86.2635 101.911 87.2256 100.905 88.037L100.377 88.5971L100.161 88.8207L99.8974 89.1171L99.9251 89.092L99.631 89.3432C99.5581 89.4236 99.4827 89.5039 99.4073 89.5818L98.6156 90.0516L98.5175 90.0943C98.2788 89.3105 98.5175 88.5117 98.4497 87.723C98.4673 87.6074 98.4823 87.4944 98.4974 87.3788C98.515 87.203 98.5352 87.0247 98.5553 86.8488C98.5905 86.3941 98.593 85.9319 98.6684 85.4823C98.8594 84.3343 98.8292 83.1361 99.4224 82.0736L99.6435 82.2695ZM98.3868 84.7815C98.3114 85.5501 98.2386 86.3188 98.1632 87.0874C98.2461 86.3288 98.319 85.5526 98.3994 84.784L98.3868 84.7815ZM98.1832 87.4668C98.1832 87.6577 98.1682 87.8511 98.1556 88.042C98.1757 87.8536 98.1908 87.6602 98.1908 87.4693L98.1832 87.4668ZM98.6432 95.2413C98.6432 97.2082 97.9696 98.3712 96.6325 98.7581C95.7076 99.0294 95.0265 98.7254 94.6997 97.8688C94.0638 96.1858 94.3579 94.5505 95.3532 93.1086C96.077 92.0611 97.3362 92.1691 98.0802 93.2217C98.477 93.8196 98.6765 94.5268 98.6508 95.2438L98.6432 95.2413Z" fill="#1D2831"/>
<path d="M68.2965 108.859C67.1303 108.786 65.9918 109.612 65.7832 111.913C65.7304 113.473 66.4216 114.45 67.628 114.516C69.1637 114.601 70.536 113.164 70.5787 111.428C70.6139 109.891 69.7292 108.937 68.2965 108.859ZM68.0754 112.772C67.4697 112.772 67.256 112.27 67.2811 111.715C67.3088 111.084 67.5501 110.527 68.2589 110.499C68.8897 110.474 68.8445 111.067 68.9576 111.504C68.8219 112.041 68.8822 112.77 68.0754 112.772Z" fill="#1D2831"/>
<path d="M95.3683 85.0302C95.301 85.0797 95.2286 85.1218 95.1522 85.1558L95.3683 85.0302Z" fill="#968C6D"/>
</svg>
