<svg width="130" height="130" viewBox="0 0 130 130" fill="none" xmlns="http://www.w3.org/2000/svg">
<path d="M129.068 0.513947H0.382324V129.127H129.068V0.513947Z" fill="#B5E8CF"/>
<path opacity="0.3" d="M70.6316 124.605C93.3272 124.605 111.726 121.794 111.726 118.326C111.726 114.857 93.3272 112.046 70.6316 112.046C47.9361 112.046 29.5377 114.857 29.5377 118.326C29.5377 121.794 47.9361 124.605 70.6316 124.605Z" fill="#1D2831"/>
<path d="M31.7444 87.2624C34.6951 88.5561 37.6961 87.8753 40.6343 88.016C42.1976 88.0913 43.306 88.6038 43.9017 90.131C44.6557 92.0653 46.0783 93.0827 48.1267 93.6328C50.6803 94.3186 52.5905 93.2887 54.5308 91.9799C56.4711 90.6712 58.3763 89.6941 60.8018 90.9375C62.5611 91.8443 64.4588 92.5501 66.7334 92.2738C66.012 94.5522 65.8159 96.8733 63.4332 97.9936C63.3148 98.0421 63.2082 98.1156 63.1206 98.209C63.0331 98.3023 62.9666 98.4135 62.9259 98.5347C62.8851 98.656 62.871 98.7847 62.8844 98.9119C62.8978 99.0392 62.9383 99.162 63.0034 99.2722C63.2548 99.8298 63.8229 99.6691 64.2099 99.4756C65.0764 99.0428 65.8383 98.4267 66.4429 97.6703C67.0475 96.9138 67.4801 96.035 67.711 95.0948C68.2564 93.0199 68.8622 91.1459 70.7095 89.8196C71.2424 89.4403 71.4912 88.6615 71.9134 88.0009C73.4642 88.6264 74.5726 89.6388 75.0024 91.3168C76.3069 96.4186 75.8066 101.402 74.1779 106.358C73.1927 109.373 71.3152 111.664 69.1512 113.894C68.0484 114.983 66.7918 115.904 65.4213 116.627C63.637 117.567 61.6572 118.077 59.6405 118.115C53.7039 118.313 48.466 116.534 43.7458 112.809C40.0511 109.893 37.6735 106.163 35.7935 102.008C35.4115 101.161 35.3335 100.161 35.2103 99.222C35.1098 98.4684 35.6251 98.4683 36.0574 98.7899C38.1611 100.347 40.6896 100.722 43.12 101.357C43.4168 101.425 43.6943 101.559 43.9316 101.75C44.1689 101.94 44.3598 102.182 44.4899 102.457C45.729 104.718 47.7749 105.635 50.0042 105.143C53.1334 104.449 54.2593 101.005 52.3642 98.28C51.2282 96.6447 49.6423 95.4289 47.2873 95.7052C46.0708 95.8484 45.3971 96.401 44.8341 97.3078C44.3945 98.0306 44.0873 98.826 43.9268 99.6566C40.8705 98.9758 37.8268 98.177 35.419 96.288C32.6467 94.1251 31.7544 90.8671 31.7444 87.2624Z" fill="#C85022"/>
<path d="M66.1276 73.5194C66.8188 74.6875 65.9743 75.6446 65.5721 76.564C64.2903 79.5055 61.518 79.6914 58.8438 79.8497C55.6423 80.0544 52.428 79.8134 49.2929 79.1337C46.41 78.4856 43.6377 77.2623 40.8856 76.1193C39.2016 75.426 37.3115 75.009 36.1101 73.4265C35.7758 72.9869 35.1374 73.2356 34.7278 72.7081C33.9562 71.7033 33.5214 70.7337 33.5415 69.4425C33.6144 64.627 34.5468 59.9297 35.3209 55.2072C35.6929 52.9313 36.4118 50.6982 36.2911 48.352C36.2761 48.033 36.2559 47.7265 36.6907 47.5507C37.8645 47.0709 38.6059 46.0183 39.4555 45.1718C41.2827 43.3807 41.5792 41.0924 41.0489 38.5603C42.5871 38.5729 43.7559 37.6962 45.0276 37.0531C45.9023 36.6135 46.1813 35.6942 46.7318 35.0059C47.1163 34.5261 47.4305 34.4708 47.9633 34.5035C49.2979 34.5563 50.6376 34.5035 51.9847 34.5337C53.0831 34.5487 53.7868 33.7348 54.5106 33.1596C55.4808 32.3909 56.2901 32.725 57.112 33.1344C59.3288 34.2447 61.523 34.7748 63.9107 33.5716C64.7828 33.132 65.7908 33.6293 66.2231 34.3025C66.9142 35.3851 68.0051 35.8273 68.9878 36.2468C70.2043 36.7693 70.6165 37.7263 71.0388 38.7135C72.7049 42.5677 73.1953 46.8277 72.4487 50.9594C72.2426 52.1475 71.3202 52.3133 70.521 52.5972C69.5935 52.9263 68.5906 53.0418 67.5752 53.2604C67.0499 52.9112 66.8916 52.2205 66.4492 51.7357C66.1426 51.3991 66.3311 51.0875 66.59 50.7032C67.0192 50.0765 67.318 49.3699 67.4682 48.6255C67.6185 47.8811 67.6172 47.114 67.4647 46.37C67.2887 45.4029 66.9846 44.8176 66.0245 44.6116C64.9638 44.3931 64.2651 44.9005 63.5941 45.6742C62.7194 46.7016 63.0035 47.935 62.8904 49.0955C61.4678 48.9473 60.0929 48.651 58.7357 48.7213C57.8094 48.7624 56.9078 49.0326 56.1117 49.5075C52.784 51.5347 51.4468 54.4862 51.8716 58.2994C51.0497 58.0759 50.6426 57.4278 50.1827 56.7771C48.8857 54.9459 46.8146 54.1647 45.0075 53.0092C42.5519 51.4292 39.5258 52.4013 38.8372 55.1896C38.3532 57.2131 38.3783 59.3249 38.9101 61.3364C39.9632 65.5188 41.7251 69.2969 44.6909 72.5649C46.4955 74.5494 48.3127 76.2927 50.8261 77.29C52.9952 78.1491 55.3075 78.7971 57.5293 78.4329C60.6333 77.9305 63.6368 76.8252 65.5721 73.9942C65.7367 73.8134 65.9233 73.6538 66.1276 73.5194ZM56.7124 45.8426C57.6826 45.6919 57.866 45.1191 57.8409 44.456C57.7974 42.4515 57.1549 40.5058 55.9961 38.8693C54.1286 36.179 50.4918 35.1466 47.8779 36.9476C46.3573 37.9976 44.9346 39.1079 44.2208 40.9467C43.8162 41.9942 43.8539 43.0543 43.7182 44.1118C43.6252 44.8654 43.3135 45.9204 44.442 46.0284C45.5705 46.1364 45.2965 45.0537 45.3895 44.3554C45.7263 41.7907 46.6236 39.4571 49.2174 38.5251C51.9294 37.553 53.9326 38.5704 55.3728 40.9291C56.2952 42.4338 56.3932 44.1043 56.7124 45.8426ZM70.2495 45.8275C71.7048 45.8275 71.9536 45.4933 71.8129 44.2399C71.6038 42.5849 71.1007 40.9806 70.3274 39.5023C69.7137 38.284 68.7253 37.2945 67.5074 36.6789C65.9641 35.9253 64.4913 36.0609 62.9833 36.7818C61.4752 37.5028 60.4548 38.6708 59.7159 39.9997C58.8885 41.4537 58.5067 43.1185 58.6176 44.7875C58.6578 45.3728 58.5271 46.0435 59.3716 46.0988C60.2161 46.1541 60.2739 45.423 60.3041 44.893C60.4128 42.7384 61.3545 40.7102 62.9305 39.236C64.0816 38.1006 65.5998 37.7615 66.9243 38.7336C68.1494 39.6207 69.0358 40.8982 69.4377 42.3559C69.7519 43.4812 69.968 44.6243 70.2545 45.8275H70.2495ZM48.8404 47.9426C48.8137 48.277 48.8137 48.6129 48.8404 48.9473C49.0465 50.2234 50.1097 51.5523 50.919 51.595C52.1254 51.6553 53.3168 50.6228 53.7139 49.1633C54.1412 47.5908 53.6536 46.1892 52.7664 44.9407C52.0274 43.9007 50.8236 43.8756 49.8735 44.7422C48.9235 45.6089 48.9334 46.7971 48.8404 47.9426Z" fill="#CBB588"/>
<path d="M38.2868 36.5356C38.1919 36.7922 38.1539 37.0664 38.1751 37.3391C38.1964 37.6119 38.2764 37.8768 38.4099 38.1157C40.5413 41.7203 37.2613 45.3477 34.1975 46.0787C33.9462 46.1364 33.6949 46.1616 33.4636 46.2193C32.8328 46.3726 32.1692 46.561 32.3451 47.4075C32.506 48.1611 33.0992 48.3319 33.8054 48.1837C33.9189 48.17 34.0337 48.17 34.1472 48.1837C34.2427 52.9087 30.3444 54.8379 26.607 54.0039C25.8165 53.8256 25.0769 53.47 24.4441 52.9639C23.8114 52.4578 23.3021 51.8145 22.9549 51.0826C22.6076 50.3508 22.4315 49.5496 22.4398 48.7397C22.4481 47.9297 22.6407 47.1323 23.0029 46.4077C23.3648 45.6542 23.0958 45.2296 22.47 44.8804C19.3333 43.1221 18.4109 41.3234 18.9513 37.8192C19.1197 36.7315 19.7481 35.8374 20.5499 35.0988C21.4597 34.2623 21.6256 33.3404 21.1958 32.1749C20.1225 29.2308 20.7609 26.759 23.018 24.458C24.3878 23.0589 26.0089 22.5238 27.6954 21.9134C28.0347 22.4158 28.5902 22.4912 29.1129 22.6294C31.1714 23.1694 31.6991 23.9356 31.4302 26.0531C31.2995 27.0881 31.0507 28.113 30.9954 29.148C30.9099 30.8059 31.3322 31.2656 33.0061 31.2781C34.4966 31.2781 35.5975 31.8633 36.6205 32.9359C37.6434 34.0085 37.5805 35.4303 38.2868 36.5356Z" fill="#AE342C"/>
<path d="M95.3131 50.5725C92.204 44.9934 90.7085 39.118 91.0654 32.8607C91.279 29.1203 92.5508 25.7945 95.8408 23.5664C96.2857 23.2649 96.6226 22.7977 97.0825 22.5289C97.8592 22.0793 98.6332 21.6497 99.6511 21.9436C100.304 22.1077 100.989 22.0982 101.637 21.916C103.416 21.4388 104.761 23.172 105.135 24.4707C105.681 26.3773 104.602 27.8342 103.879 29.3514C102.389 32.4722 101.445 35.8246 101.086 39.2636C100.993 40.0926 100.9 40.9216 100.835 41.753C100.76 42.6498 101.338 42.9463 102.092 42.9287C102.8 42.9111 102.898 42.381 102.846 41.7857C102.622 38.7286 103.778 35.9252 104.492 33.0465C104.743 32.0643 105.424 31.3912 106.591 31.4791C107.686 31.5595 108.184 32.2327 108.425 33.2173C109.004 35.5836 108.38 37.7866 107.405 39.8841C106.44 41.9912 105.353 44.0403 104.15 46.0209C103.353 47.3121 102.217 48.3947 101.245 49.5804C100.935 49.9597 100.609 49.6657 100.335 49.5979C98.4875 49.1382 96.7055 48.9071 95.3131 50.5725Z" fill="#C85022"/>
<path d="M76.621 90.0131C79.8884 90.2643 82.6858 91.4273 84.7267 94.2257C86.7072 96.9411 87.5994 99.953 87.7854 103.269C87.9186 105.673 87.881 108.011 87.2551 110.363C86.5338 113.075 84.9327 115.04 82.5852 116.459C81.0721 117.407 79.4298 118.131 77.7093 118.609C76.3847 118.959 75.0049 119.265 73.7255 119.83C73.4938 119.927 73.2411 119.962 72.9916 119.933C70.5838 119.604 68.1307 119.506 65.7957 118.677C76.9501 111.965 78.8453 101.834 76.621 90.0131Z" fill="#C85022"/>
<path d="M66.1277 73.5194C65.9241 73.6547 65.7383 73.815 65.5747 73.9966C63.6419 76.8276 60.6384 77.9405 57.5318 78.4354C55.31 78.7896 53.0077 78.1515 50.8286 77.2924C48.3152 76.2876 46.498 74.5518 44.6934 72.5673C41.7175 69.3018 39.9557 65.5213 38.9126 61.3389C38.3808 59.3274 38.3558 57.2156 38.8397 55.192C39.5284 52.4038 42.5546 51.4242 45.0101 53.0117C46.8173 54.1748 48.8883 54.956 50.1852 56.7797C50.6451 57.4303 51.0524 58.0783 51.8742 58.3018C52.5302 59.8341 53.3144 61.256 54.5459 62.4441C55.6669 63.5243 57.0291 64.0241 58.4542 64.4085C61.7467 65.2977 64.1621 63.5242 66.5323 61.6453L66.9193 61.1203H66.9068C67.0583 61.0622 67.188 60.9585 67.2781 60.8235C67.3681 60.6885 67.4141 60.5289 67.4095 60.3667V60.3442L67.6608 60.093H67.6482C68.1006 59.9649 68.1132 59.2966 68.5857 59.2489C69.7217 60.9168 68.8195 62.733 68.8672 64.5944C69.7595 64.2854 70.1515 63.4816 70.9583 63.6574C68.5228 65.8931 67.407 68.7794 66.8766 71.947C66.7736 72.59 66.3639 73.007 66.1277 73.5194ZM61.2441 66.2071C58.321 66.3703 55.6895 65.2852 53.2012 64.1297C51.1428 63.1676 49.2829 61.6629 47.5588 60.1105C47.0561 59.6458 46.5534 59.0856 47.1189 58.2642C47.1905 58.1716 47.242 58.0653 47.2702 57.9518C47.2985 57.8383 47.3027 57.7202 47.2829 57.6049C47.263 57.4897 47.2195 57.3797 47.1549 57.2822C47.0903 57.1847 47.0061 57.1017 46.9077 57.0384C46.6941 56.8976 46.4337 56.8463 46.1827 56.8956C45.9316 56.9449 45.71 57.0909 45.5656 57.3021C44.6708 58.4174 43.9344 59.6558 42.821 60.6028C42.3058 61.0399 42.3812 61.6805 42.8562 62.1527C43.3312 62.625 43.776 62.3738 44.1907 62.0171C44.525 61.7282 44.8267 61.2233 45.3344 61.4645C45.92 61.7408 46.0884 62.3512 46.0632 62.9717C45.9803 64.5065 46.3749 65.971 46.8499 67.3827C48.0639 70.9949 50.0922 73.9138 54.086 74.8206C55.5462 75.1522 57.1271 75.2903 58.5321 74.8533C60.8997 74.1173 62.3198 72.2257 63.2447 69.9976C63.7273 68.8371 64.0466 67.6514 65.635 67.5283C65.7635 67.5159 65.8873 67.474 65.997 67.4059C66.1066 67.3378 66.1991 67.2454 66.2672 67.1358C66.3353 67.0262 66.3771 66.9024 66.3895 66.774C66.402 66.6456 66.3846 66.5161 66.3387 66.3955C66.1251 65.77 65.6677 65.5967 65.0369 65.8127C63.8129 66.2021 62.522 66.3362 61.2441 66.2071Z" fill="#AE342C"/>
<path d="M55.1239 28.0025C54.7143 30.3512 53.1635 31.7452 51.1025 32.6068C49.8006 33.1494 48.6269 32.3983 47.4707 31.8884C47.1459 31.71 46.8379 31.5024 46.5508 31.268C46.5835 29.8864 45.7968 29.0625 44.6883 28.3918C43.1351 27.4573 42.9466 26.7816 43.6177 25.0835C43.7409 24.7745 43.8867 24.4731 44.0148 24.1667C44.2098 23.7287 44.3072 23.2535 44.3003 22.7742C44.2934 22.2948 44.1824 21.8228 43.975 21.3906C43.7675 20.9584 43.4684 20.5764 43.0986 20.2712C42.7288 19.9659 42.297 19.7445 41.8332 19.6224C40.0738 19.0949 39.2721 18.1153 39.2696 16.2841C39.2696 15.2491 39.4454 14.2117 39.5409 13.1767C39.9305 13.0059 39.9883 12.594 40.1793 12.2825C40.7906 11.2479 41.6282 10.365 42.6293 9.69983C43.6304 9.03467 44.7691 8.60455 45.9601 8.44169C48.7776 8.00712 51.2383 8.85868 53.0203 11.2049C53.1058 11.6897 53.6511 11.9409 53.6612 12.4609L53.8572 12.6995L53.8346 12.6743C53.9 14.0207 53.9376 15.3697 53.543 16.6935C53.063 17.5827 53.3369 18.0826 54.2644 18.487C55.9886 19.2406 57.0291 21.9661 56.348 23.6466L56.0967 23.9934L55.8302 24.5157L55.8503 24.4882L55.5789 24.7645L55.6016 24.7419L55.3251 25.0207L55.3452 24.9881C55.2556 25.0432 55.1828 25.1216 55.1345 25.215C55.0862 25.3084 55.0643 25.4132 55.0712 25.5181V25.4929C54.9187 25.674 54.8352 25.9032 54.8352 26.1398C54.8352 26.3765 54.9187 26.6055 55.0712 26.7866V26.759C55.0963 27.1609 55.1089 27.583 55.1239 28.0025Z" fill="#E39F1E"/>
<path d="M53.6661 12.4634C53.6661 11.9409 53.1107 11.6897 53.0252 11.2074C55.986 7.26114 59.643 6.3518 63.5815 8.56987C64.2858 8.94054 64.8738 9.49866 65.2805 10.1825C65.567 10.6849 65.8837 11.1873 66.4693 11.4209C67.5903 14.3574 67.8039 17.1533 65.3131 19.5999C64.7023 20.2003 65.1498 20.6198 65.7404 20.9513C68.3041 22.3832 69.0908 25.1438 67.6557 27.7337C67.1706 28.6078 66.6076 29.4393 66.0798 30.2883C65.6148 30.5621 65.1422 30.8234 64.6873 31.1123C61.5833 33.1043 56.7199 31.9111 55.3878 28.005C55.4157 27.5628 55.3143 27.1222 55.0962 26.7365V26.7641V25.4704V25.4956C55.1892 25.3197 55.2796 25.1413 55.3701 24.9655L55.3501 24.9982L55.6265 24.7193L55.6039 24.742L55.8754 24.4657L55.8552 24.4932C55.9432 24.3199 56.0312 24.1441 56.1217 23.9707L56.373 23.6241C57.0592 21.9436 56.0136 19.2206 54.2894 18.4645C53.362 18.0601 53.088 17.5602 53.568 16.671C54.322 15.3823 54.4855 14.051 53.8596 12.6518L53.8822 12.6769L53.6661 12.4634Z" fill="#5A7336"/>
<path d="M39.5384 13.1768C39.4429 14.2117 39.2644 15.2492 39.2669 16.2842C39.2669 18.1129 40.0763 19.095 41.8307 19.6225C42.2945 19.7445 42.7263 19.9659 43.0961 20.2712C43.4659 20.5765 43.7648 20.9585 43.9723 21.3907C44.1798 21.8229 44.2909 22.2949 44.2978 22.7743C44.3047 23.2536 44.2072 23.7288 44.0122 24.1668C43.884 24.4732 43.7382 24.7746 43.6151 25.0836C42.944 26.7817 43.1326 27.4574 44.6858 28.3919C45.7993 29.0625 46.581 29.8991 46.5483 31.2681C46.2245 31.7451 45.925 32.238 45.6509 32.7451C44.1429 35.8725 41.5768 36.8924 38.2868 36.5357C37.5679 35.4178 37.6157 33.981 36.6154 32.936C35.615 31.891 34.4915 31.2882 33.001 31.2782C31.3321 31.2656 30.9099 30.8059 30.9903 29.148C31.0456 28.1131 31.2944 27.0881 31.4251 26.0532C31.6941 23.9356 31.1739 23.1695 29.1078 22.6294C28.5851 22.4912 28.0296 22.4159 27.6903 21.9135C28.1552 21.5543 28.1101 21.0694 28.0849 20.5494C27.9542 18.0148 28.9695 15.9802 30.9903 14.5031C33.5942 12.6016 36.4017 11.7525 39.5384 13.1768Z" fill="#C85022"/>
<path d="M66.0648 30.2909C66.5926 29.4418 67.1556 28.6104 67.6407 27.7362C69.0758 25.1414 68.2891 22.3807 65.7255 20.9539C65.1348 20.6223 64.6874 20.2003 65.2981 19.6025C67.7889 17.1558 67.5753 14.3599 66.4543 11.4234C68.7164 10.5015 70.8226 10.5443 73.1525 11.6319C76.1886 13.0462 77.742 15.1487 77.83 18.4394C77.83 18.6906 78.0813 18.9418 78.217 19.1929C77.8752 19.6552 77.8501 20.1601 77.8626 20.7279C77.9053 22.5968 78.0562 24.5184 76.4049 25.9251C76.0706 26.209 76.0982 26.5405 76.2867 26.9299C77.8676 30.2457 77.6288 31.3207 74.854 33.5539C73.5446 34.1065 72.2175 34.4256 70.7647 34.2247C68.7264 33.9408 67.3164 32.9084 66.5071 31.0269C66.3757 30.7723 66.228 30.5264 66.0648 30.2909Z" fill="#2C5F74"/>
<path d="M89.3136 85.9939C89.6102 82.884 91.0126 80.5403 93.0384 78.586C94.0086 77.649 95.4689 77.8978 96.713 77.7571C99.4451 77.4506 101.675 78.8271 103.675 80.4122C106.872 82.9468 107.591 86.9082 105.995 91.5227C105.276 93.6001 104.045 95.3811 102.866 97.1947C102.689 97.4295 102.478 97.6362 102.24 97.8076C101.272 98.5888 100.669 98.4005 100.36 97.1947C99.6059 94.218 98.0074 91.7035 95.9063 89.5282C94.1471 87.671 91.8348 86.4314 89.3136 85.9939Z" fill="#C85022"/>
<path d="M88.6675 112.166C89.4943 109.727 89.879 107.159 89.8036 104.585C89.7872 101.766 89.2097 98.9793 88.1046 96.386C87.0789 93.9383 85.3237 91.8656 83.0778 90.4501C84.5858 89.2067 85.8149 88.1768 87.906 88.1893C91.5781 88.222 94.094 90.0332 96.0745 92.7587C98.0551 95.4842 99.0127 98.4508 98.4346 101.935C97.9822 104.64 96.5546 106.647 94.8756 108.627C93.2947 110.496 91.1834 111.34 88.6675 112.166Z" fill="#C85022"/>
<path d="M74.854 33.564C77.6187 31.3308 77.8701 30.2558 76.2867 26.94C76.0982 26.5431 76.0706 26.2115 76.4049 25.9352C78.0562 24.5285 77.9129 22.6067 77.8626 20.7378C77.85 20.1701 77.8626 19.6652 78.217 19.203C80.9499 19.3621 82.6783 20.5478 83.4021 22.76C84.2039 25.2092 83.5354 28.0352 81.7936 29.5198C80.8938 30.291 81.5196 31.0471 81.8891 31.7178C83.1935 34.0715 83.0025 36.3095 81.3864 38.3844C79.9311 40.2433 77.938 40.8135 75.6709 40.2785C73.7004 39.8163 72.9413 38.2689 72.4764 36.5105C75.4799 35.2369 75.4799 35.2369 74.854 33.564Z" fill="#5C4C74"/>
<path d="M106.06 79.6412C102.542 77.0287 98.8319 75.3306 94.2475 76.2098C93.775 73.3009 93.7749 70.4699 95.0593 67.752C95.1915 67.4636 95.3876 67.2091 95.6328 67.0076C95.8779 66.8061 96.1657 66.663 96.4743 66.589C98.5956 66.2021 100.679 65.2877 102.919 66.0463C103.864 66.3679 104.653 66.8 105.181 67.6767C107.453 71.5175 108.111 75.4738 106.06 79.6412Z" fill="#C85022"/>
<path d="M53.8822 56.3551C53.9174 53.0644 56.6018 50.3264 59.8767 50.5525C64.2249 50.8464 66.3135 52.8283 66.3813 57.0961C66.4241 59.8593 63.0034 62.6526 59.8064 62.6853C57.2503 62.7104 53.4499 59.8492 53.8822 56.3551Z" fill="#AE342C"/>
<path d="M70.9558 63.7077C70.149 63.5318 69.757 64.3356 68.8647 64.6446C68.8169 62.7832 69.7192 60.9671 68.5832 59.2992C68.1107 59.3469 68.0981 60.0151 67.6457 60.1432C68.1283 58.6234 68.4449 57.0836 68.176 55.4785C68.1031 55.0389 68.2639 54.7525 68.7314 54.6746C71.6017 54.1948 74.3917 53.3559 77.4153 53.7402C78.7172 53.906 80.1371 53.7276 81.5044 53.921C82.9214 54.0772 84.2664 54.6263 85.3877 55.5061C86.2749 56.2346 86.1844 56.9782 85.1891 57.5961C83.8243 58.4452 82.2259 58.6763 80.7304 59.1661C77.5158 60.2161 74.2735 61.1756 71.5062 63.2254L71.2096 63.459L71.2247 63.4464L70.9733 63.6976L70.9558 63.7077Z" fill="#C85022"/>
<path d="M103.987 64.6899C101.184 63.6851 98.505 64.1875 95.7779 64.9411C93.5812 60.8843 93.9205 56.9279 95.8986 52.9816C96.0268 52.7304 96.2128 52.4918 96.346 52.228C97.0523 50.8766 98.4748 50.5575 99.636 51.5598C101.536 53.2077 102.423 55.476 103.275 57.7443C103.949 59.5429 103.992 61.4721 104.303 63.3435C104.364 63.7078 104.127 64.1272 103.987 64.6899Z" fill="#C85022"/>
<path d="M65.8511 79.7466C67.265 78.3075 68.1705 76.4465 68.4299 74.4463C68.5329 73.7228 68.9324 73.5771 69.5708 73.6927C72.1069 74.1247 74.5248 74.8206 76.538 76.5413C77.2712 77.1722 77.7705 78.0314 77.9556 78.9805C78.2698 80.4399 77.2317 81.6733 75.4773 81.9572C73.723 82.241 71.9586 82.3138 70.7019 83.7983C70.3073 83.8184 69.9479 83.7683 69.7845 83.3337C69.2466 81.8718 67.4646 81.5326 66.8689 80.0958C66.7357 79.7667 66.2331 79.7415 65.8511 79.7466Z" fill="#336665"/>
<path d="M53.8622 89.8523C53.689 90.077 53.4397 90.2307 53.1611 90.2844L52.8971 90.5004C52.2964 90.7818 51.7208 91.1786 51.09 91.3293C48.9435 91.8317 47.0309 91.7765 46.0305 89.4731C45.6309 88.5537 44.9347 87.8101 44.2913 87.0465C44.8292 86.7048 44.9297 86.1422 45.1182 85.5845C45.6812 83.9116 46.1235 82.1783 47.1741 80.7138C48.9485 80.857 50.6501 81.3443 52.3592 81.7914C52.8618 82.0426 53.274 82.3892 53.3017 83.0021C53.3796 84.7731 53.8044 86.5189 53.5681 88.3099C53.4666 88.8427 53.5717 89.3942 53.8622 89.8523Z" fill="#2D4C47"/>
<path d="M65.8511 79.7466C66.2357 79.7466 66.7384 79.7667 66.8716 80.0882C67.4673 81.5251 69.2493 81.8642 69.7872 83.3262C69.9455 83.7608 70.3099 83.811 70.7045 83.7909C70.5034 84.6375 70.2823 85.479 70.1064 86.3305C69.3926 89.787 66.4795 91.2716 63.2473 89.8096C62.9482 89.674 62.6767 89.478 62.3902 89.3072C61.9705 87.5288 61.5608 85.7453 61.1335 83.9719C60.9255 83.2463 61.0038 82.4685 61.3522 81.7989C62.903 81.2387 64.4587 80.671 65.8511 79.7466Z" fill="#2D4C47"/>
<path d="M47.1741 80.7138C46.1159 82.1782 45.6812 83.9115 45.1182 85.5845C44.9297 86.1422 44.8292 86.7048 44.2913 87.0464C42.9718 85.9161 41.3707 85.9135 39.7672 85.9587C38.2592 86.0014 36.7686 86.1647 35.2681 86.1848C34.7479 86.1848 34.2251 85.9337 33.7049 85.788C34.6826 85.3911 35.7356 85.0996 35.8689 83.7658C35.894 83.5272 36.2207 83.3186 36.4142 83.1026C36.9898 82.447 37.764 81.8793 38.1033 81.1182C38.5658 80.0757 39.9909 79.2292 39.0458 77.7773C41.2827 78.7142 43.5951 79.4377 45.8998 80.1913C46.3422 80.3319 46.7518 80.5379 47.1741 80.7138Z" fill="#336665"/>
<path d="M29.985 78.7519C28.5524 77.7144 26.8258 77.5161 25.1845 77.0639C23.4553 76.5866 22.9374 76.0088 22.754 74.6196C22.6765 74.1856 22.731 73.7382 22.9102 73.3353C23.0894 72.9324 23.385 72.5923 23.7593 72.3589C26.0063 70.8165 28.5172 70.0228 31.2995 69.7716C31.6564 71.4144 32.0385 72.992 33.3329 74.1299C33.8356 74.567 34.4513 74.8834 34.7957 75.4763C32.9559 76.2123 31.018 76.8177 29.985 78.7519Z" fill="#336665"/>
<path d="M29.985 78.7519C31.018 76.8177 32.956 76.2123 34.8033 75.4863C35.8212 76.0264 36.9371 76.4007 37.7715 77.2447C37.828 77.3361 37.9118 77.4075 38.0109 77.4489C38.1101 77.4904 38.2197 77.4997 38.3245 77.4758L39.0559 77.7848C40.001 79.2367 38.5759 80.0833 38.1134 81.1258C37.7741 81.8794 36.9999 82.4546 36.4244 83.1102C36.2308 83.3262 35.9041 83.5348 35.879 83.7734C35.7458 85.1072 34.6927 85.3986 33.715 85.7955L33.255 85.5568L32.8981 85.2679C31.2443 84.4013 30.7391 82.9067 30.7467 81.1886C30.7492 80.2692 30.6561 79.4326 29.985 78.7519Z" fill="#2D4C47"/>
<path d="M61.342 81.8039C60.9936 82.4736 60.9153 83.2512 61.1233 83.9768C61.5607 85.7502 61.9704 87.5338 62.38 89.3122C59.4419 87.9734 56.5993 88.001 53.8522 89.8523C53.5617 89.3942 53.4565 88.8427 53.558 88.3099C53.8094 86.5264 53.3695 84.7731 53.2916 83.0021C53.2639 82.3892 52.8492 82.0501 52.3491 81.7914C54.8025 82.007 57.2669 82.0732 59.7285 81.9899C60.2739 81.9748 60.8092 81.8692 61.342 81.8039Z" fill="#336665"/>
<path d="M45.8344 100.207C45.8344 98.6292 46.8398 97.4812 48.2549 97.4435C49.6699 97.4058 51.2708 98.8552 51.3161 100.207C51.394 102.081 50.2002 103.859 48.858 103.819C47.9105 103.799 45.5202 101.681 45.8344 100.207Z" fill="#E39F1E"/>
<path d="M67.3893 60.402C67.3939 60.5641 67.3479 60.7236 67.2579 60.8586C67.1679 60.9936 67.0382 61.0974 66.8867 61.1556L67.3893 60.402Z" fill="#C85022"/>
<path d="M38.3346 77.4683C38.2298 77.4922 38.1202 77.4827 38.021 77.4413C37.9219 77.3998 37.8381 77.3285 37.7816 77.2372L38.3346 77.4683Z" fill="#336665"/>
<path d="M107.169 67.5611C106.362 66.187 105.837 64.8707 106.101 63.2529C106.211 62.5697 106.065 61.8363 105.985 61.1304C105.596 58.0056 104.525 55.0043 102.848 52.3385C102.554 51.8537 102.149 51.3965 102.735 50.7836C105.02 48.4073 106.689 45.5988 108.214 42.7101C109.511 40.2509 110.451 37.6861 110.456 34.825C110.456 31.6724 109.318 29.9919 106.581 29.2358C106.787 28.231 106.98 27.2263 107.206 26.2089C107.709 24.0009 106.503 21.3232 104.427 20.5193C102.227 19.6678 99.9226 19.3387 97.6052 20.1852C93.2671 21.7728 90.8191 25.0936 89.5825 29.3338C88.5998 32.6873 89.0095 36.1539 89.4393 39.5526C89.9671 43.7024 91.4978 47.5582 93.3652 51.2784C93.5438 51.5998 93.6429 51.9593 93.6542 52.3268C93.6656 52.6943 93.5889 53.0592 93.4305 53.391C91.8571 57.3423 91.7842 61.2987 93.6667 65.1848C93.7924 65.3971 93.8467 65.644 93.8219 65.8894C93.797 66.1348 93.6943 66.3658 93.5286 66.5487C92.493 67.9453 92.101 69.5631 92.0557 71.2637C92.0155 72.8537 91.9778 74.4413 92.292 76.0163C92.3749 76.4408 92.5433 76.8981 92.0054 77.2473C89.1477 79.1162 88.1147 82.0475 87.4813 85.185C87.4439 85.515 87.2959 85.8227 87.0614 86.0581C86.8268 86.2934 86.5195 86.4425 86.1894 86.4812C84.6962 86.7816 83.3392 87.554 82.3188 88.6842C81.8438 89.2117 81.4316 89.3348 80.8108 89.056C79.4215 88.4579 77.9165 88.1765 76.4049 88.2321C75.9399 88.2321 75.505 88.207 75.1305 87.8453C74.4809 87.2509 73.7357 86.7702 72.9263 86.4234C72.5945 86.2727 72.1722 86.1722 72.225 85.6699C72.2423 85.4593 72.3174 85.2576 72.442 85.087C72.5666 84.9164 72.7359 84.7834 72.9313 84.7027C73.7733 84.3033 74.6907 84.1753 75.5905 84.0044C79.1821 83.3262 80.748 80.8343 79.637 77.5335C79.152 76.0891 78.129 75.0518 76.8723 74.2128C74.9058 72.9171 72.672 72.0816 70.3375 71.7686C69.2668 71.6104 69.0808 71.1607 69.3573 70.1484C70.144 67.3375 71.7424 65.2425 74.3036 63.8056C76.925 62.3361 79.7752 61.5248 82.5978 60.6381C83.9927 60.1985 85.4253 59.8568 86.6192 58.9248C88.3057 57.601 88.3786 55.5162 86.7122 54.112C86.2375 53.7008 85.7005 53.3675 85.1212 53.1247C82.8849 52.1838 80.471 51.739 78.0461 51.821C76.8974 51.8738 75.7263 52.0296 74.462 51.7507C74.7882 48.5986 74.8151 45.4226 74.5424 42.2655L75.8745 42.4814C81.5396 43.4335 86.393 37.6108 84.2943 32.2578C83.8394 31.0973 83.9023 30.321 84.5633 29.3187C86.8254 25.8874 86.1894 19.6828 80.959 17.5125C80.6407 17.408 80.3554 17.222 80.1314 16.973C79.9074 16.7239 79.7524 16.4206 79.6822 16.0932C79.3455 14.7004 78.6617 13.4154 77.6942 12.3579C75.7187 10.0971 73.3561 8.64017 70.1716 8.8562C68.2865 8.9818 66.2607 9.35862 65.0468 7.18576C64.8381 6.80646 64.2374 6.61301 63.7901 6.40703C59.7812 4.58082 56.1494 5.15106 52.9347 8.1805C48.0311 4.91493 43.399 6.07295 40.2346 8.93409C39.1187 9.93888 38.2013 10.3835 36.5449 10.4186C31.7444 10.5191 26.8609 13.4682 26.0038 19.0347C25.8756 19.8637 25.5011 20.2153 24.7622 20.5168C20.3135 22.3631 17.7674 27.4046 18.9814 32.0517C19.2026 32.9083 18.9814 33.4485 18.5039 34.089C15.7869 37.6786 16.2267 42.8809 19.5268 45.5159C20.3235 46.1489 20.5321 46.7393 20.4643 47.7189C20.1426 53.2453 24.2922 56.9681 29.7161 56.1417C31.0582 55.9357 32.1768 55.2172 33.3631 54.554C33.5365 55.2548 33.3052 55.7723 33.1921 56.2923C32.4924 59.436 32.0203 62.6261 31.7796 65.8378C31.6916 67.0285 31.3146 67.5359 30.1408 67.7117C27.8174 68.0662 25.5822 68.8572 23.5532 70.0429C21.6104 71.1708 20.3311 72.683 20.6779 75.1347C21.0122 77.4783 22.553 78.5458 24.6617 79.0884C25.667 79.3396 26.6723 79.6637 27.6651 79.9777C28.389 80.2063 28.7409 80.6986 28.7158 81.4849C28.6822 82.4108 28.8782 83.3307 29.2863 84.1627C29.7937 85.1699 30.062 86.2805 30.0705 87.4081C30.1007 89.8799 30.4198 92.3216 31.7393 94.4718C32.6969 96.0242 33.3907 97.5691 33.3857 99.4656C33.3857 100.558 33.7752 101.694 34.1673 102.744C38.239 113.613 49.5367 121.543 61.3924 119.667C62.3781 119.484 63.3963 119.616 64.3028 120.044C67.1831 121.415 70.2319 121.749 73.3661 121.438C77.6062 121.013 81.698 119.956 84.9001 117.044C86.6264 115.431 88.6528 114.171 90.8643 113.337C96.1425 111.327 99.3219 107.243 100.453 101.659C100.574 101.058 100.752 100.624 101.328 100.262C106.691 96.9034 110.577 88.757 107.556 81.6733C107.473 81.4847 107.437 81.279 107.45 81.0735C107.464 80.868 107.527 80.6688 107.634 80.4927C109.825 76.1018 109.637 71.7586 107.169 67.5611ZM103.275 57.7392C103.949 59.5378 103.992 61.467 104.303 63.3384C104.364 63.7077 104.127 64.1272 103.987 64.6898C101.184 63.6851 98.505 64.1875 95.778 64.941C93.5813 60.8842 93.9206 56.9279 95.8986 52.9816C96.0268 52.7304 96.2128 52.4917 96.3461 52.228C97.0523 50.8765 98.4749 50.5575 99.636 51.5598C101.536 53.2026 102.426 55.4709 103.275 57.7392ZM91.0654 32.8707C91.279 29.1304 92.5508 25.8045 95.8408 23.5764C96.2857 23.275 96.6226 22.8078 97.0825 22.539C97.8592 22.0893 98.6332 21.6598 99.6511 21.9537C100.304 22.1178 100.989 22.1083 101.637 21.9261C103.416 21.4488 104.761 23.182 105.135 24.4807C105.681 26.3873 104.602 27.8442 103.879 29.3614C102.389 32.4822 101.445 35.8346 101.086 39.2737C100.993 40.1026 100.9 40.9316 100.835 41.7631C100.76 42.6598 101.338 42.9563 102.092 42.9387C102.8 42.9211 102.898 42.391 102.846 41.7957C102.622 38.7386 103.778 35.9352 104.492 33.0565C104.743 32.0743 105.424 31.4012 106.591 31.4891C107.686 31.5695 108.184 32.2427 108.425 33.2274C109.003 35.5937 108.38 37.7967 107.405 39.8942C106.44 42.0012 105.353 44.0503 104.15 46.031C103.353 47.3221 102.217 48.4048 101.245 49.5904C100.935 49.9697 100.609 49.6758 100.335 49.6079C98.495 49.1508 96.713 48.9197 95.3206 50.5851C92.204 44.9935 90.7085 39.118 91.0654 32.8606V32.8707ZM77.4153 53.7502C78.7172 53.916 80.1371 53.7376 81.5044 53.931C82.9214 54.0873 84.2664 54.6363 85.3877 55.5161C86.2749 56.2446 86.1844 56.9881 85.1891 57.606C83.8243 58.4551 82.2259 58.6862 80.7304 59.176C77.5158 60.226 74.2735 61.1856 71.5062 63.2354L71.2196 63.4615L70.9683 63.7127C68.5328 65.9483 67.417 68.8346 66.8866 72.0022C66.7861 72.5925 66.384 73.007 66.1326 73.522C66.8238 74.6901 65.9793 75.647 65.5772 76.5664C64.2953 79.5079 61.5231 79.6938 58.8488 79.8521C55.6474 80.0568 52.433 79.816 49.2979 79.1363C46.4151 78.4882 43.6428 77.2648 40.8906 76.1219C39.2066 75.4286 37.3166 75.0116 36.1152 73.429C35.7809 72.9894 35.1425 73.2381 34.7328 72.7106C33.9612 71.7058 33.5264 70.7362 33.5465 69.4451C33.6194 64.6296 34.5518 59.9322 35.3259 55.2097C35.6979 52.9339 36.4168 50.7007 36.2962 48.3545C36.2811 48.0355 36.261 47.7289 36.6958 47.5531C37.8695 47.0733 38.611 46.0209 39.4605 45.1743C41.2877 43.3833 41.5843 41.0949 41.0539 38.5629C42.5921 38.5754 43.7609 37.6987 45.0327 37.0557C45.9073 36.6161 46.1864 35.6966 46.7368 35.0083C47.1214 34.5285 47.4355 34.4733 47.9683 34.5059C49.303 34.5587 50.6426 34.506 51.9898 34.5361C53.0881 34.5512 53.7918 33.7374 54.5157 33.1621C55.4858 32.3935 56.2952 32.7275 57.1171 33.137C59.3339 34.2473 61.528 34.7772 63.9157 33.574C64.7879 33.1344 65.7958 33.6318 66.2281 34.305C66.9193 35.3877 68.0101 35.8297 68.9928 36.2492C70.2093 36.7717 70.6215 37.7289 71.0438 38.7161C72.7099 42.5702 73.2004 46.8303 72.4538 50.9619C72.2477 52.1501 71.3253 52.3159 70.526 52.5997C69.5986 52.9288 68.5957 53.0444 67.5803 53.2629C67.055 52.9138 66.8966 52.2229 66.4543 51.7381C66.1476 51.4015 66.3362 51.09 66.595 50.7057C67.0243 50.079 67.3229 49.3724 67.4731 48.6279C67.6234 47.8835 67.6223 47.1165 67.4697 46.3726C67.2938 45.4054 66.9896 44.8202 66.0295 44.6142C64.9689 44.3956 64.2702 44.903 63.5991 45.6767C62.7244 46.7041 63.0085 47.9375 62.8954 49.0981C61.4728 48.9499 60.0979 48.6534 58.7407 48.7237C57.8144 48.7649 56.9129 49.035 56.1167 49.5099C52.789 51.5371 51.4519 54.4887 51.8766 58.3019C52.5326 59.8342 53.3168 61.256 54.5483 62.4442C55.6693 63.5243 57.0316 64.0241 58.4567 64.4085C61.7493 65.2977 64.1647 63.5243 66.5348 61.6453L66.9219 61.1203H66.9092L67.4119 60.3667V60.3442L67.6632 60.093H67.6507C68.1333 58.5732 68.4499 57.0333 68.181 55.4282C68.1081 54.9886 68.269 54.7023 68.7365 54.6244C71.6017 54.1949 74.3916 53.3559 77.4153 53.7402V53.7502ZM66.3814 57.1062C66.4241 59.8694 63.0035 62.6627 59.8064 62.6954C57.2503 62.7205 53.45 59.8593 53.8823 56.3651C53.9175 53.0744 56.6018 50.3365 59.8768 50.5626C64.2224 50.8464 66.3135 52.8283 66.3814 57.0962V57.1062ZM26.612 54.019C25.819 53.842 25.0768 53.4866 24.4419 52.9797C23.807 52.4729 23.2961 51.8279 22.9481 51.094C22.6001 50.3601 22.4241 49.5567 22.4336 48.7446C22.4431 47.9325 22.6378 47.1333 23.0028 46.4078C23.3648 45.6542 23.0958 45.2296 22.47 44.8805C19.3333 43.1221 18.4108 41.3234 18.9512 37.8192C19.1196 36.7315 19.748 35.8374 20.5498 35.0988C21.4597 34.2624 21.6255 33.3404 21.1957 32.1749C20.1225 29.2308 20.7609 26.759 23.0179 24.458C24.3877 23.0589 26.0088 22.5238 27.6953 21.9134C28.1603 21.5542 28.1151 21.0694 28.09 20.5494C27.9593 18.0148 28.9746 15.9802 30.9954 14.5031C33.5942 12.6016 36.4017 11.7399 39.5409 13.1768C39.9305 13.006 39.9883 12.5941 40.1793 12.2826C40.7905 11.248 41.6281 10.365 42.6292 9.69988C43.6304 9.03473 44.769 8.60461 45.9601 8.44175C48.7776 8.00718 51.2383 8.85874 53.0203 11.2049C55.9811 7.25861 59.638 6.34928 63.5765 8.56735C64.2808 8.93801 64.8688 9.49613 65.2755 10.18C65.562 10.6824 65.8787 11.1848 66.4643 11.4184C68.7264 10.4965 70.8326 10.5392 73.1625 11.6269C76.1987 13.0412 77.752 15.1436 77.84 18.4343C77.84 18.6855 78.0913 18.9367 78.2271 19.1879C80.96 19.347 82.6883 20.5327 83.4122 22.7449C84.2139 25.1941 83.5454 28.0201 81.8036 29.5047C80.9038 30.2759 81.5296 31.032 81.8991 31.7027C83.2036 34.0564 83.0125 36.2945 81.3964 38.3694C79.9412 40.2283 77.948 40.7985 75.6809 40.2635C73.7104 39.8013 72.9514 38.2539 72.4864 36.4955C75.5025 35.227 75.5025 35.2269 74.8691 33.5539C73.5596 34.1065 72.2325 34.4256 70.7798 34.2247C68.7414 33.9408 67.3314 32.9084 66.5221 31.0269C66.3915 30.7663 66.2438 30.5145 66.0798 30.2734C65.6149 30.5472 65.1423 30.8083 64.6874 31.0972C61.5834 33.0892 56.72 31.896 55.3879 27.9899H55.1365C54.7269 30.3386 53.1761 31.7327 51.1151 32.5944C49.8132 33.1369 48.6394 32.3859 47.4832 31.876C47.1583 31.6976 46.8505 31.4898 46.5634 31.2555C46.2396 31.7324 45.9401 32.2253 45.666 32.7325C44.158 35.8599 41.5919 36.8798 38.3019 36.5231C38.207 36.7797 38.1688 37.0539 38.1901 37.3266C38.2113 37.5994 38.2915 37.8643 38.425 38.1032C40.5563 41.7078 37.2764 45.3351 34.2126 46.066C33.9612 46.1238 33.7099 46.1489 33.4787 46.2067C32.8478 46.36 32.1842 46.5483 32.3602 47.3949C32.521 48.1485 33.1142 48.3194 33.8205 48.1712C33.934 48.1575 34.0487 48.1575 34.1623 48.1712C34.2427 52.9213 30.3444 54.8504 26.612 54.019ZM30.7466 81.1835C30.7466 80.2717 30.6561 79.4251 29.9926 78.7544C28.5599 77.717 26.8332 77.5185 25.192 77.0663C23.4628 76.5891 22.945 76.0113 22.7616 74.6222C22.6841 74.1881 22.7385 73.7408 22.9177 73.3379C23.0968 72.935 23.3926 72.5949 23.7669 72.3614C26.0139 70.8191 28.5248 70.0253 31.3071 69.7741C31.664 71.417 32.046 72.9944 33.3404 74.1323C33.843 74.5694 34.4588 74.886 34.8057 75.4788C35.8111 76.0189 36.937 76.3932 37.7714 77.2372L38.3244 77.4683L39.0559 77.7773C41.2928 78.7142 43.6051 79.4376 45.9099 80.1912C46.3422 80.3319 46.7519 80.5379 47.1666 80.7137C48.941 80.8569 50.6426 81.3443 52.3517 81.7914C54.8052 82.0069 57.2694 82.0732 59.731 81.9898C60.2663 81.9748 60.8016 81.8667 61.3345 81.8039C62.8953 81.2387 64.4512 80.671 65.8436 79.7466C67.2576 78.3075 68.1629 76.4465 68.4223 74.4463C68.5253 73.7229 68.925 73.5772 69.5634 73.6927C72.0994 74.1248 74.5173 74.8207 76.5305 76.5414C77.2637 77.1723 77.7629 78.0314 77.948 78.9805C78.2622 80.44 77.2242 81.6734 75.4698 81.9572C73.7155 82.2411 71.9511 82.3138 70.6944 83.7984C70.4933 84.6449 70.2722 85.4865 70.0962 86.3381C69.3824 89.7946 66.4694 91.279 63.2372 89.8171C62.9381 89.6814 62.6666 89.4855 62.3801 89.3147C59.4419 87.9758 56.5994 88.0035 53.8522 89.8548C53.679 90.0795 53.4296 90.2331 53.151 90.2868L52.887 90.503C52.2863 90.7843 51.7108 91.1811 51.0799 91.3319C48.9335 91.8343 47.0208 91.779 46.0205 89.4755C45.6208 88.5561 44.9246 87.8126 44.2812 87.049C42.9617 85.9186 41.3607 85.9161 39.7571 85.9613C38.2491 86.004 36.7585 86.1672 35.2581 86.1873C34.7378 86.1873 34.2151 85.9361 33.6948 85.7904L33.2348 85.5517L32.8779 85.2629C31.2442 84.3937 30.7391 82.9067 30.7466 81.1809V81.1835ZM59.6379 118.127C53.7013 118.326 48.4635 116.547 43.7433 112.822C40.0486 109.905 37.6709 106.175 35.7909 102.02C35.4089 101.174 35.331 100.174 35.2079 99.2345C35.1073 98.4809 35.6226 98.4809 36.0549 98.8024C38.1586 100.36 40.687 100.734 43.1174 101.37C43.4142 101.437 43.6917 101.572 43.929 101.762C44.1663 101.953 44.3572 102.195 44.4873 102.47C45.7264 104.731 47.7723 105.648 50.0016 105.155C53.1308 104.462 54.2568 101.018 52.3617 98.2925C51.2257 96.6572 49.6397 95.4414 47.2846 95.7178C46.0682 95.8609 45.3946 96.4135 44.8316 97.3204C44.392 98.0432 44.0848 98.8385 43.9243 99.6691C40.8681 98.9883 37.8243 98.1895 35.4165 96.3005C32.6518 94.1276 31.7544 90.8696 31.7443 87.2574C34.6951 88.551 37.6961 87.8703 40.6342 88.011C42.1976 88.0863 43.306 88.5964 43.9016 90.1262C44.6557 92.0604 46.0782 93.0777 48.1267 93.6278C50.6803 94.3136 52.5904 93.2837 54.5308 91.9749C56.4711 90.6662 58.3763 89.6891 60.8017 90.9325C62.5611 91.8393 64.4587 92.5451 66.7333 92.2688C66.012 94.5472 65.8159 96.8682 63.4332 97.9886C63.3147 98.0371 63.2081 98.1106 63.1206 98.204C63.0331 98.2973 62.9666 98.4084 62.9258 98.5297C62.8851 98.651 62.871 98.7796 62.8844 98.9069C62.8977 99.0341 62.9383 99.157 63.0034 99.2671C63.2547 99.8248 63.8228 99.664 64.2099 99.4706C65.0764 99.0378 65.8383 98.4217 66.4429 97.6653C67.0474 96.9088 67.4801 96.03 67.711 95.0898C68.2564 93.0149 68.8621 91.1409 70.7095 89.8146C71.2423 89.4353 71.4912 88.6565 71.9134 87.9959C73.4642 88.6214 74.5726 89.6337 75.0024 91.3117C76.3068 96.4136 75.8066 101.397 74.1779 106.353C73.1927 109.368 71.3152 111.659 69.1511 113.889C68.0484 114.978 66.7917 115.899 65.4213 116.622C63.6375 117.568 61.6567 118.082 59.6379 118.125V118.127ZM45.8344 100.209C45.8344 98.6316 46.8399 97.4836 48.2549 97.446C49.6699 97.4083 51.2709 98.8577 51.3161 100.209C51.394 102.083 50.2002 103.862 48.8581 103.821C47.9105 103.799 45.5202 101.681 45.8344 100.207V100.209ZM87.2551 110.373C86.5338 113.085 84.9328 115.05 82.5852 116.467C81.0727 117.416 79.4303 118.141 77.7093 118.619C76.3847 118.969 75.0049 119.275 73.7256 119.84C73.4939 119.937 73.2409 119.972 72.9917 119.941C70.5838 119.614 68.1307 119.516 65.7957 118.685C76.9502 111.965 78.8453 101.834 76.621 90.0131C79.8884 90.2643 82.6858 91.4273 84.7267 94.2257C86.7072 96.9411 87.5994 99.9529 87.7854 103.269C87.9186 105.68 87.881 108.026 87.2551 110.37V110.373ZM98.4347 101.942C97.9823 104.648 96.5546 106.655 94.8757 108.634C93.2948 110.498 91.1835 111.342 88.6676 112.169C89.4943 109.729 89.879 107.162 89.8036 104.588C89.7873 101.769 89.2098 98.9817 88.1046 96.3884C87.0789 93.9407 85.3238 91.8682 83.0779 90.4527C84.5859 89.2092 85.8149 88.1793 87.9061 88.1919C91.5781 88.2245 94.094 90.0357 96.0746 92.7612C98.0551 95.4866 99.0128 98.4558 98.4347 101.94V101.942ZM105.995 91.5253C105.276 93.6027 104.045 95.3837 102.866 97.1973C102.689 97.4321 102.478 97.6388 102.24 97.8102C101.272 98.5915 100.669 98.4031 100.36 97.1973C99.6059 94.2206 98.0074 91.7062 95.9062 89.5308C94.147 87.6736 91.8347 86.4339 89.3136 85.9964C89.6102 82.8865 91.0126 80.5429 93.0384 78.5886C94.0086 77.6516 95.4689 77.9003 96.713 77.7596C99.4451 77.4531 101.674 78.8298 103.675 80.4148C106.872 82.9469 107.591 86.9082 105.995 91.5227V91.5253ZM106.06 79.6361C102.542 77.0236 98.8318 75.3255 94.2474 76.2047C93.7748 73.2958 93.7748 70.4649 95.0592 67.7469C95.1914 67.4585 95.3875 67.204 95.6327 67.0025C95.8778 66.801 96.1655 66.6579 96.4742 66.5839C98.5955 66.197 100.679 65.2826 102.919 66.0413C103.864 66.3628 104.653 66.7949 105.181 67.6716C107.453 71.5174 108.111 75.4738 106.06 79.6411V79.6361Z" fill="#1D2831"/>
<path d="M44.4471 46.0284C45.5555 46.1364 45.3016 45.0537 45.3946 44.3554C45.7314 41.7907 46.6287 39.4571 49.2225 38.5251C51.9345 37.553 53.9377 38.5704 55.3779 40.9292C56.2952 42.4363 56.3832 44.1043 56.7125 45.8426C57.6826 45.6919 57.8661 45.1191 57.8409 44.456C57.7974 42.4515 57.155 40.5058 55.9961 38.8693C54.1287 36.179 50.4919 35.1466 47.8779 36.9477C46.3573 37.9977 44.9347 39.1079 44.2209 40.9467C43.8162 41.9942 43.8539 43.0543 43.7182 44.1118C43.6302 44.878 43.3186 45.9204 44.4471 46.0284Z" fill="#1D2831"/>
<path d="M59.3615 46.0988C60.2361 46.1641 60.2638 45.423 60.2939 44.893C60.4027 42.7384 61.3443 40.7102 62.9203 39.236C64.0715 38.1006 65.5896 37.7615 66.9142 38.7336C68.1392 39.6207 69.0257 40.8982 69.4275 42.3559C69.7367 43.4762 69.9604 44.6167 70.2419 45.8225C71.6972 45.8225 71.9459 45.4883 71.8052 44.2348C71.5961 42.5799 71.093 40.9756 70.3197 39.4973C69.706 38.279 68.7177 37.2894 67.4998 36.6739C65.9566 35.9203 64.4837 36.0559 62.9757 36.7768C61.4677 37.4977 60.4472 38.6658 59.7083 39.9946C58.881 41.4487 58.499 43.1135 58.6099 44.7825C58.6376 45.3728 58.5069 46.0335 59.3615 46.0988Z" fill="#1D2831"/>
<path d="M49.881 44.7372C48.9259 45.6063 48.9334 46.7971 48.8404 47.9425C48.8138 48.2769 48.8138 48.6129 48.8404 48.9473C49.0465 50.2234 50.1097 51.5522 50.919 51.5949C52.1254 51.6552 53.3168 50.6228 53.7139 49.1633C54.1412 47.5908 53.6536 46.1891 52.7664 44.9407C52.035 43.8957 50.8311 43.8706 49.881 44.7372Z" fill="#1D2831"/>
<path d="M65.0442 65.7951C63.8191 66.1914 62.5256 66.3317 61.244 66.2071C58.3209 66.3704 55.6894 65.2852 53.2011 64.1297C51.1426 63.1676 49.2828 61.663 47.5586 60.1106C47.0559 59.6459 46.5533 59.0857 47.1188 58.2642C47.1903 58.1717 47.2419 58.0653 47.2701 57.9518C47.2983 57.8383 47.3026 57.7202 47.2827 57.605C47.2629 57.4897 47.2193 57.3798 47.1547 57.2823C47.0902 57.1847 47.006 57.1017 46.9076 57.0384C46.694 56.8976 46.4336 56.8463 46.1825 56.8957C45.9314 56.945 45.7098 57.091 45.5655 57.3021C44.6707 58.4175 43.9343 59.6559 42.8209 60.6029C42.3056 61.04 42.3811 61.6805 42.8561 62.1528C43.3311 62.625 43.7759 62.3738 44.1906 62.0171C44.5249 61.7282 44.8265 61.2234 45.3343 61.4646C45.9199 61.7409 46.0882 62.3513 46.0631 62.9717C45.9802 64.5066 46.3747 65.9711 46.8498 67.3828C48.0637 70.995 50.0921 73.9139 54.0858 74.8207C55.5461 75.1523 57.127 75.2904 58.532 74.8533C60.8996 74.1173 62.3197 72.2258 63.2446 69.9977C63.7272 68.8371 64.0464 67.6515 65.6349 67.5284C65.7634 67.5159 65.8872 67.474 65.9968 67.406C66.1065 67.3379 66.199 67.2455 66.2671 67.1359C66.3351 67.0263 66.377 66.9025 66.3894 66.774C66.4018 66.6456 66.3844 66.5161 66.3386 66.3955C66.1325 65.7525 65.6751 65.5741 65.0442 65.7951ZM58.6979 72.384C57.9112 72.5875 57.2377 73.2532 56.5188 73.012C54.3699 72.9467 52.6406 72.2962 51.1904 70.9573C50.6877 70.4876 50.6401 70.0078 51.1503 69.4501C52.0752 68.4453 53.161 68.3549 54.3448 68.8071C54.9568 69.0562 55.6072 69.1981 56.2675 69.2265C57.4538 69.2642 58.6576 70.3016 59.0146 71.4471C59.1352 71.854 59.1378 72.271 58.6929 72.384H58.6979Z" fill="#1D2831"/>
<path d="M56.5189 73.0119C54.37 72.9466 52.6407 72.2961 51.1905 70.9572C50.6878 70.4874 50.6401 70.0076 51.1503 69.45C52.0753 68.4452 53.161 68.3548 54.3448 68.8069C54.9569 69.056 55.6073 69.1979 56.2676 69.2264C57.4539 69.2641 58.6577 70.3015 59.0146 71.4469C59.1353 71.8388 59.1378 72.2684 58.698 72.3814C57.9113 72.5874 57.2377 73.253 56.5189 73.0119Z" fill="#C85022"/>
</svg>
