<svg width="130" height="129" viewBox="0 0 130 129" fill="none" xmlns="http://www.w3.org/2000/svg">
<path d="M129.563 0.267578H0.877686V128.881H129.563V0.267578Z" fill="#FEBA9D"/>
<path d="M109.645 120.061C108.767 121.87 107.254 122.653 105.314 122.779C100.224 123.108 95.1399 123.492 90.0503 123.784C81.3288 124.271 72.6174 124.964 63.8808 125.138C60.1937 125.077 56.504 125.665 52.8219 125.052L52.7264 125.075L52.3595 124.864C50.007 124.042 49.7958 122.038 49.6324 119.988C49.5998 119.571 49.8838 118.936 49.3233 118.772C48.7126 118.594 48.3858 119.111 48.1143 119.624C47.7248 120.36 47.2975 121.081 46.8376 121.774C46.2821 122.608 45.611 122.912 44.8093 122.043C45.6852 119.981 46.6926 117.977 47.8253 116.044H47.8052L48.0716 115.778L48.0515 115.796L48.3154 115.545L48.5668 115.293C50.1251 114.598 51.706 113.947 53.2291 113.183C54.0234 112.786 54.5034 112.038 54.2621 111.111C54.0208 110.184 53.2568 109.807 52.362 109.769C51.1958 109.719 50.022 109.694 48.8835 109.998C47.9962 110.234 47.4533 109.998 47.3452 109.034C48.5617 108.298 49.7832 107.544 51.2511 107.456C52.0579 107.408 52.6586 107.132 52.8044 106.305C52.9501 105.479 52.3746 104.994 51.7236 104.648C51.1983 104.386 50.6032 104.298 50.0245 104.396C47.9259 104.675 46.2821 105.763 44.8746 107.255C43.251 108.976 42.1451 111.043 41.0819 113.125C39.6618 115.911 38.2971 118.725 36.9072 121.528C36.2688 121.721 35.7208 121.613 35.3137 121.043C35.2768 120.666 35.3594 120.286 35.5499 119.958C37.1761 116.627 38.7193 113.249 40.4686 109.983C42.3135 106.539 44.6333 103.502 48.7276 102.49C49.2906 102.349 49.3158 101.987 49.263 101.543C48.9739 99.0936 49.1373 96.6294 49.0116 94.1727C49.0569 93.296 49.0644 92.4143 49.1574 91.5452C49.4088 89.0859 50.487 88.0837 52.9526 87.933C53.4955 87.9003 54.0409 87.9128 54.5838 87.8902C62.3602 87.5686 70.1518 87.8726 77.9232 87.3878C79.6825 87.2873 81.4419 87.2169 83.1761 87.0687C83.5783 87.0336 84.3499 87.222 84.3298 86.7447C84.3097 86.2674 83.704 85.8102 83.0932 85.6771C82.9263 85.6568 82.7575 85.6568 82.5906 85.6771C81.3565 85.7148 80.3285 85.2375 79.3734 84.4839C77.9546 83.3496 76.9573 81.7727 76.5408 80.0052C76.2216 78.7341 75.8622 77.7443 74.4974 77.1867C73.4543 76.7621 72.7807 75.7574 72.2353 74.7451C71.3732 73.15 71.1948 71.4142 71.1446 69.6483C71.0641 66.7419 70.6419 66.0536 67.8621 65.2548C64.9164 64.4083 62.2471 63.1322 59.9977 61.0322C59.6759 60.5951 59.3366 60.168 59.035 59.7184C58.8616 59.4672 58.5148 59.0904 58.746 58.8718C59.0426 58.5955 59.4673 58.8593 59.7514 59.123C62.1617 61.4265 65.2004 62.4289 68.2969 63.3633C71.7704 64.4083 72.8511 65.923 72.9341 69.5603C72.9693 71.1203 73.1854 72.6401 73.9243 74.0392C74.4421 75.0038 75.1961 75.7448 76.2945 75.9106C77.2069 76.0487 77.5839 76.5437 77.7498 77.3626C77.8692 77.9768 78.0193 78.5846 78.1996 79.1837C78.6746 80.7135 79.2427 82.1981 80.6678 83.13C81.0322 83.3662 81.462 83.8233 81.8767 83.5469C82.1633 83.3585 81.829 82.8536 81.7913 82.4894C81.7524 82.1155 81.7322 81.7399 81.7309 81.3641C81.7309 80.7536 81.824 80.0277 82.5227 80.0076C83.2214 79.9875 83.1284 80.7788 83.2013 81.2787C83.3514 82.4009 83.8328 83.4529 84.584 84.3003C85.3352 85.1477 86.3222 85.7522 87.4188 86.0363C87.738 86.1142 88.125 86.3177 88.3763 86.0991C88.7357 85.7826 88.3437 85.4109 88.2457 85.0944C87.8285 83.6952 87.3082 82.3313 87.2981 80.8366C87.2981 80.2413 87.3861 79.5806 88.1049 79.4525C88.8841 79.2992 88.9142 80.0026 89.0801 80.4925C89.4521 81.6103 90.2212 82.2935 91.3195 82.6728C93.0789 83.2832 93.1719 83.2707 93.0789 81.4419C92.9382 78.8019 92.8275 76.207 93.9837 73.6951C94.6724 72.1879 94.2351 71.6277 92.5511 71.3539C92.2998 71.3137 92.0484 71.2936 91.7971 71.2634L91.4603 71.1982C90.1684 71.1052 88.8765 70.9946 87.5821 70.9192C85.0989 70.7736 82.7464 71.1529 80.6904 72.6927C80.1525 73.0921 79.5368 73.371 79.0592 72.6576C78.632 72.0196 78.9386 71.4418 79.4764 71.0198C79.9037 70.6854 80.3615 70.3919 80.8437 70.1431C83.1912 68.9424 85.6971 68.6585 88.2884 68.9248C90.2388 69.1257 90.4624 68.9876 91.0154 67.1061C91.1436 66.6691 91.1813 66.2043 91.2894 65.7572C91.5407 64.7172 91.214 64.0415 90.1961 63.5793C89.122 63.1084 88.1221 62.4839 87.2277 61.7255C86.7904 61.3437 86.5466 60.8489 86.9915 60.2962C87.3786 59.8164 87.8787 59.6505 88.4392 59.9444C88.8815 60.1755 89.2761 60.4921 89.6958 60.7584C93.1015 62.876 92.2947 63.3156 95.635 60.3615C95.9115 60.1103 96.1377 59.5527 96.6404 59.8993C97.1431 60.246 97.1104 60.7684 96.9244 61.2608C96.5301 62.1979 95.8182 62.9663 94.9137 63.4312C93.7927 64.0642 93.1794 64.8454 93.2171 66.1943C93.2139 66.9058 93.0111 67.602 92.6315 68.2039C92.056 69.1032 92.5033 69.2087 93.2322 69.3343C94.0517 69.5052 94.8237 69.8532 95.4943 70.354C95.8939 70.6279 95.9417 71.4719 96.7082 71.1529C97.2461 70.9293 97.8166 70.7636 98.2615 70.3566C98.8866 69.7934 99.3353 69.0614 99.5534 68.249C100.589 64.5188 99.7444 60.9643 98.4952 57.4626C97.613 54.9833 96.6178 52.5442 95.8185 50.0423C95.4038 48.7461 95.0193 47.7815 93.3981 48.4045C93.1472 48.4522 92.8885 48.4385 92.6441 48.3643C88.12 47.7062 85.202 43.9256 85.6544 39.3664C85.7247 38.6454 86.0188 38.2762 86.7276 38.2686C87.7329 38.2686 88.7383 38.2686 89.7437 38.2837C92.1691 38.3088 94.597 38.3742 97.0325 38.3491C98.2389 38.3491 98.4073 37.9924 97.9172 36.8721C97.4849 35.8924 96.7359 35.1538 95.9769 34.4304C95.0569 33.5758 94.3486 32.5188 93.9083 31.3432C91.2768 24.2443 85.9007 20.7351 78.6068 19.7881L78.2072 19.6701C74.6293 19.2502 71.0153 19.2383 67.4348 19.6349C66.7411 19.7077 66.3138 19.8358 66.251 20.7025C66.1731 21.7675 65.5774 22.6945 64.7882 23.4079C61.8827 26.0429 58.6027 27.8591 54.5361 27.6782C53.6313 27.6355 53.3296 27.9294 53.3397 28.7432C53.3397 29.8485 52.7641 30.268 51.701 30.3283C49.6093 30.447 47.5586 30.9583 45.6562 31.8355C42.6018 33.2266 39.8117 35.1364 37.4099 37.4799C34.3083 40.5169 30.9705 43.162 27.1552 45.2168H27.1879C27.0295 45.2168 26.9039 45.2771 26.919 45.468V45.4504C26.6098 45.36 26.5796 45.5183 26.64 45.7594C27.3663 47.5303 29.0026 48.0428 30.6036 48.4874C37.8773 50.4969 46.438 47.3545 50.7308 41.1123C51.7915 39.5674 52.7868 37.9748 53.8122 36.4023C54.79 36.4375 54.4054 37.1307 54.3149 37.5703C53.9706 39.2483 53.0834 40.7002 52.3042 42.1873C51.422 43.3504 50.5599 44.5335 49.4113 45.4529C49.2009 45.6204 49.034 45.8362 48.9251 46.082C48.8161 46.3278 48.7682 46.5963 48.7855 46.8646C48.7352 50.5799 48.5341 54.2976 48.5919 58.0103C48.6874 64.5213 46.5083 70.108 42.1174 74.8707C41.6324 75.3957 41.1648 75.9533 40.3203 75.7423C39.3954 74.9887 39.7699 74.3154 40.3983 73.6196C42.8061 70.9594 44.8068 68.0656 45.8825 64.5765C46.5762 62.3383 46.6088 60.055 46.7345 57.7541C46.8979 54.7397 46.9431 51.7379 47.0211 48.7285C47.0211 48.3392 47.2573 47.8142 46.8351 47.5856C46.4958 47.4022 46.1514 47.7941 45.8297 47.9799C42.1052 50.211 37.7895 51.2563 33.4563 50.9768C31.1449 50.8866 28.8972 50.1938 26.9365 48.9672C25.9979 48.3998 25.2451 47.5714 24.77 46.5833C24.109 45.1439 24.4056 44.1543 25.8281 43.466C28.0223 42.4034 30.0305 41.057 32.0488 39.698C33.881 38.4747 35.2584 36.7716 36.9072 35.3599C40.7778 32.0441 44.9777 29.4014 50.105 28.5122C51.6834 28.2383 52.367 26.8291 51.5326 25.3873C49.4364 21.7148 46.4354 19.3586 42.1375 18.5623C36.3014 17.4922 31.252 21.4234 29.0981 24.9929C28.7211 25.6209 28.4772 26.4699 27.5146 26.3719C26.552 26.274 26.1624 25.435 25.9136 24.6437C25.0666 21.9735 25.6371 19.4189 26.7531 16.9697C29.3243 11.3303 33.8886 8.0647 39.6769 6.29627C40.1168 6.16314 40.5641 6.04509 41.0065 5.93456L45.0053 5.50754H45.5482H45.6562H45.7644H46.3022L50.9244 6.06519C52.2816 6.56758 53.6564 7.05488 54.996 7.61254C59.6408 9.54676 63.2475 12.6566 65.6 17.1354C65.874 17.6554 66.1555 17.8639 66.7587 17.8036C68.5055 17.6328 70.2598 17.5022 72.0117 17.4067C72.7531 17.3665 72.8511 17.1228 72.5495 16.4823C71.4135 14.0683 69.3073 12.8375 66.9773 11.8904C66.1278 11.5438 65.218 11.3278 64.3559 11.0314C63.7577 10.8279 63.1444 10.6294 63.0816 9.83566C63.0446 9.50143 63.1017 9.1635 63.2464 8.85994C63.3912 8.55638 63.6179 8.29922 63.901 8.11745C65.3763 7.05489 67.1031 6.70067 68.8323 6.39672C74.5301 5.39194 79.8459 6.11794 84.4353 9.95623C88.2054 13.1113 89.9472 17.3314 90.6761 22.0514C90.7721 22.7522 91.0962 23.4019 91.5985 23.9002C92.7599 25.0525 93.7079 26.4013 94.3985 27.8842C94.54 28.2329 94.7617 28.5435 95.0455 28.7909C95.3292 29.0384 95.6672 29.2156 96.0322 29.3084C100.503 30.6046 104.13 33.2046 107.302 36.538C108.727 38.0762 110.404 39.3605 112.261 40.336C114.596 41.5266 114.714 43.6845 112.543 45.2218C111.035 46.2919 109.275 46.729 107.478 46.9174C104.862 47.1837 102.258 46.9702 99.8324 45.9428C98.5983 45.4203 98.2263 46.3422 97.5201 46.8069C96.766 47.3093 97.1003 47.897 97.3064 48.4673C98.3294 51.2982 99.3976 54.1142 100.395 56.9528C101.589 60.3464 102.233 63.8305 101.629 67.4302C101.177 70.1306 99.6514 72.1074 97.1757 73.268C96.7964 73.4271 96.4563 73.6668 96.1789 73.9704C95.9016 74.2741 95.6937 74.6344 95.5697 75.0263C94.9557 76.7233 94.7642 78.5442 95.0117 80.3317C95.0843 81.0393 95.1103 81.7508 95.0896 82.4618C95.0896 84.5116 94.7176 84.9085 92.6215 85.0742C92.3073 84.7527 91.8674 84.7201 91.4753 84.6548C91.0129 84.5794 90.3293 84.0192 90.1835 84.3583C89.912 84.9963 90.2966 85.7651 90.7591 86.2875C91.317 86.9181 92.061 86.486 92.7295 86.3855C96.1553 86.3629 99.5685 86.0615 102.972 85.7173C107.244 85.2878 108.114 85.8455 108.921 90.0706C109.069 90.8468 109.172 91.6355 109.29 92.4167L109.313 92.6679C109.527 95.8707 109.888 99.071 109.765 102.286C109.735 103.04 110.268 103.04 110.708 103.223C113.686 104.464 115.973 106.371 116.529 109.717C117.052 112.864 116.383 115.796 114.342 118.308C113.274 119.621 111.854 120.234 110.125 119.978C110.019 119.634 110.311 119.576 110.507 119.433C113.362 117.315 115.141 114.66 114.89 110.925C114.684 107.87 111.371 104.645 108.388 104.685C107.76 104.685 107.041 104.67 106.88 105.484C106.719 106.298 107.383 106.544 107.981 106.758C108.338 106.881 108.697 106.994 109.059 107.099C109.949 107.345 110.797 107.726 111.572 108.227C111.919 108.453 112.387 108.674 112.254 109.169C112.12 109.664 111.628 109.486 111.273 109.503C110.647 109.533 110.017 109.433 109.393 109.538C108.561 109.684 107.398 109.353 106.993 110.234C106.528 111.252 107.594 111.854 108.217 112.495C109.899 114.188 110.522 116.14 109.821 118.456C109.665 118.976 109.606 119.52 109.645 120.061ZM106.377 103.231L106.925 102.997L106.905 103.022C107.659 103.1 107.626 102.605 107.631 102.08C107.672 98.4631 107.601 94.8509 107.292 91.2487C107.202 90.1736 107.292 88.9879 106.39 88.1238L106.407 88.1413C106.04 87.6214 105.487 87.7545 104.977 87.7319C104.598 87.6468 104.201 87.6965 103.854 87.8726L102.378 87.9656C102.011 87.8892 101.629 87.9415 101.295 88.1138L98.7064 88.2444C98.1585 88.1304 97.5893 88.1775 97.0676 88.38L94.6623 88.473C94.1214 88.3484 93.5552 88.3941 93.0412 88.6036L92.3098 88.6212C92.231 88.5749 92.1405 88.5522 92.0492 88.5558C91.9579 88.5594 91.8695 88.589 91.7946 88.6413L88.3839 88.7343C87.9275 88.6152 87.4444 88.6524 87.0116 88.8398L86.529 88.8573C86.4522 88.806 86.3613 88.78 86.269 88.7827C86.1766 88.7854 86.0874 88.8167 86.0138 88.8724L84.5309 88.9704L83.5557 88.9527C82.9474 88.8501 82.323 88.9073 81.7435 89.1185L80.2355 89.2341L74.0676 89.4853C73.2751 89.3699 72.4671 89.4248 71.6975 89.6461C65.4811 89.832 59.2655 90.017 53.0507 90.2012C51.412 90.2489 51.1254 90.5253 51.0978 92.2108C51.0475 95.298 51.2687 98.3776 51.4069 101.46C51.2385 102.342 51.9096 102.465 52.4952 102.696C54.8628 103.645 55.6168 105.743 54.3878 107.971C54.2495 108.222 54.0309 108.305 54.5109 108.549C56.773 109.694 57.0445 112.588 55.1343 114.263C54.3803 114.937 53.405 115.251 52.5832 115.813C51.985 115.761 51.9171 116.132 51.9197 116.605C51.9197 117.268 51.8493 117.936 51.892 118.597C51.9799 120.026 51.8593 121.513 52.8421 122.741L52.8546 122.809L52.9225 122.832C53.395 123.359 54.0334 123.334 54.6567 123.334C56.4513 123.334 58.2433 123.304 60.0379 123.286C60.8315 123.401 61.6404 123.35 62.4131 123.136C68.1939 123.018 73.9595 122.962 79.7202 122.535C80.0875 122.606 80.468 122.555 80.8035 122.39L83.2415 122.297H83.538L83.988 122.277L84.5484 122.246L88.2607 122.023C88.6261 122.08 89.0001 122.028 89.3365 121.875L96.8037 121.505C97.1598 121.56 97.5241 121.509 97.8518 121.36L100.327 121.287C100.776 121.366 101.237 121.316 101.657 121.141L105.877 120.815C106.825 120.739 107.556 120.383 107.787 119.365C108.29 117.079 108.388 114.901 106.257 113.266C106.016 113.035 105.815 112.766 105.661 112.47C104.671 110.963 104.693 109.958 105.832 108.526C106.083 108.215 106.023 108.137 105.802 107.865C104.52 106.288 104.565 105.152 105.905 103.562L106.382 103.263L106.377 103.231ZM84.2594 12.5485H84.272C82.7062 10.7575 80.889 9.36085 78.5063 8.8459L77.9358 8.5947C73.9143 7.28848 69.9607 7.84112 66.0248 8.98658C65.879 9.02929 65.6302 9.12225 65.6277 9.19258C65.6277 9.44378 65.879 9.48646 66.0675 9.54675C68.2643 10.2085 70.3346 11.2334 72.1926 12.5787C72.444 12.8299 72.6752 13.0987 72.919 13.3575C73.8741 14.3246 74.3743 15.5555 74.8945 16.7712L74.9147 17.0676C74.9568 17.1636 75.0279 17.2441 75.118 17.2977C75.2081 17.3513 75.3128 17.3753 75.4173 17.3665C77.8754 17.5021 80.2883 17.967 82.7062 18.4141C84.5108 19.1677 86.3531 19.8333 87.9843 20.9537C88.115 21.0441 88.3236 21.1822 88.4141 21.137C88.6403 21.024 88.5297 20.7778 88.4844 20.5894C87.9189 18.2281 87.2277 15.9221 85.5287 14.0784C85.2522 13.6312 85.026 13.1464 84.5862 12.8224L84.2594 12.5485ZM46.8099 17.8513L47.0814 18.1025L47.1844 18.09L47.574 18.3763L47.8253 18.5874C49.3334 19.4842 50.5121 20.7652 51.8241 21.8931V21.863C51.8241 22.0263 51.8769 22.1444 52.0755 22.1142L52.0504 22.1443C53.0381 25.6359 54.4104 26.4373 57.811 25.5028C58.09 25.4275 58.3539 25.3094 58.6254 25.2089C60.3445 24.6462 61.8425 23.6842 63.255 22.5864C63.9613 22.0363 64.5419 21.3178 64.4438 20.3708C64.2729 18.6978 63.7301 17.153 62.4734 15.9447C62.4629 15.778 62.4185 15.6152 62.3429 15.4661C62.2672 15.3171 62.162 15.1851 62.0335 15.0781C59.9826 12.6716 57.6075 10.6998 54.6291 9.5267C54.0722 9.18357 53.4598 8.93961 52.8194 8.80573C49.4087 7.53467 45.9227 7.04736 42.316 7.81603L41.3106 7.94414C36.8318 8.72536 33.2854 11.069 30.4704 14.5431C28.5929 16.8591 27.4367 19.4991 27.5121 22.5638C27.5121 22.9305 27.4518 23.3827 27.8615 23.5057C27.9821 23.5434 28.2888 23.0586 28.4722 22.7874C29.4927 21.2802 30.6639 19.9564 32.2272 18.9868C34.2884 17.6952 36.6023 16.8592 39.0134 16.535H39.8001C42.2381 16.4345 44.5453 17.0374 46.7999 17.884L46.8099 17.8513ZM96.4267 31.4687L96.1553 31.5341L96.2785 31.6974C96.6102 32.1144 96.9093 32.5615 97.2838 32.9534C98.4626 34.1692 99.6539 35.3648 100.094 37.0805C99.8072 39.1126 100.008 41.1675 99.8273 43.1997C99.7645 43.898 100.149 44.0638 100.644 44.2321C102.904 45.0326 105.323 45.2816 107.699 44.9581C109.225 44.7421 110.761 44.4556 111.851 43.177C111.965 42.8404 111.995 42.5717 111.585 42.3582C109.232 41.1248 107.335 39.3238 105.503 37.4373C102.906 34.767 100.028 32.5515 96.4142 31.4663L96.4267 31.4687ZM89.4747 40.2255V40.2079C89.2636 40.2079 89.055 40.2079 88.8464 40.2079C87.3584 40.1853 87.3383 40.2406 87.6651 41.7553C88.1979 44.1618 89.8391 45.5936 92.0258 46.3246C95.2102 47.3897 98.4274 44.5461 98.0579 41.1876C97.9649 40.3486 97.4949 40.3912 96.947 40.4666C96.3991 40.542 96.6278 41.067 96.5248 41.381C96.0673 42.7776 95.1424 43.5337 93.9133 43.4534C92.7672 43.378 91.6161 42.4285 91.5734 41.2403C91.5357 40.2757 91.131 40.1325 90.3544 40.2204C90.0573 40.2383 89.7593 40.2392 89.4621 40.223L89.4747 40.2255Z" fill="#1D2831"/>
<path d="M40.3379 75.7322C41.1824 75.9432 41.6499 75.3857 42.135 74.8607C46.5259 70.0879 48.705 64.5113 48.6095 58.0003C48.5567 54.2876 48.7528 50.5698 48.803 46.8546C48.7858 46.5863 48.8337 46.3179 48.9427 46.0721C49.0517 45.8263 49.2184 45.6103 49.4289 45.4428C50.5775 44.5159 51.4396 43.3328 52.3218 42.1773C52.1358 42.8982 51.8392 43.574 51.8191 44.3577C51.7621 49.7735 51.6783 55.1868 51.5678 60.5976C51.4901 63.3986 50.9456 66.1671 49.9567 68.7891C48.9111 71.6377 47.3553 74.195 45.7568 76.7446C44.7138 78.405 43.638 80.0705 43.6833 82.1554C43.7059 83.1728 44.294 83.5973 45.2441 83.2758C45.9353 83.0422 46.453 82.5447 46.9833 82.0699L47.109 82.1754C46.5033 86.3704 46.717 90.4349 49.0293 94.1626C49.1449 96.6193 48.9815 99.0835 49.2806 101.533C49.3334 101.967 49.3082 102.339 48.7452 102.48C44.6509 103.485 42.3311 106.529 40.4863 109.973C38.7269 113.239 37.1937 116.617 35.5675 119.948C35.377 120.276 35.2944 120.656 35.3313 121.033C32.1519 120.307 28.9096 119.973 25.6849 119.539C24.6167 119.395 23.5008 119.3 22.9579 118.122C24.0688 117.464 23.8803 116.286 23.9255 115.316C24.1442 110.772 25.0892 106.358 26.3685 102.03C28.2784 95.6432 31.3453 89.661 35.4167 84.381C37.1635 82.0876 38.8425 79.7439 40.5239 77.4002C40.8306 76.9757 41.5846 76.3376 40.3003 76.1316L40.3379 75.7322ZM30.4679 105.748L30.5483 105.803L30.493 105.723C30.4553 104.658 30.855 103.685 31.1214 102.683C31.4632 101.397 32.1544 100.224 32.3228 98.8826C32.363 98.5485 32.4961 98.1592 32.1392 97.9809C31.6743 97.7473 31.4732 98.2119 31.2822 98.4958C30.0619 100.31 29.5224 102.497 29.7591 104.67C29.7968 105.112 29.9225 105.592 30.4653 105.748H30.4679ZM35.0473 97.8C35.1805 98.2144 35.0297 98.752 35.4946 99.0133C35.7058 99.1338 35.8918 98.8776 35.9345 98.6842C36.402 96.5942 37.5933 94.7856 38.1965 92.7534C38.277 92.4897 38.4001 92.1354 38.0684 91.9772C37.8044 91.8516 37.6336 92.1505 37.4576 92.3113C35.8465 93.7808 35.4544 95.7879 35.0447 97.8H35.0473ZM37.0077 101.945C37.0077 102.163 36.9876 102.497 37.0077 102.826C37.0126 102.904 37.0342 102.98 37.0711 103.048C37.108 103.117 37.1593 103.176 37.2214 103.223C37.4727 103.331 37.5783 103.078 37.6537 102.899C38.3775 101.224 39.1064 99.5483 39.7951 97.8553C39.9207 97.5463 40.1896 97.074 39.7473 96.8505C39.2647 96.5993 38.8551 96.961 38.5886 97.3529C37.6587 98.6842 36.8971 100.108 37.0052 101.945H37.0077Z" fill="#946E44"/>
<path d="M47.833 116.037C46.7002 117.97 45.6928 119.973 44.8169 122.035C43.7939 122.525 42.7584 122.101 41.743 122.035C40.1344 121.917 38.5057 121.922 36.9248 121.521C38.3147 118.717 39.6896 115.904 41.0996 113.118C42.1627 111.036 43.2686 108.968 44.8923 107.247C46.2998 105.755 47.9436 104.668 50.0422 104.389C50.6209 104.29 51.216 104.378 51.7413 104.64C52.3923 104.987 52.9678 105.459 52.822 106.298C52.6762 107.137 52.068 107.401 51.2687 107.448C49.8009 107.536 48.5794 108.29 47.3629 109.026C45.9705 110.006 44.9224 111.37 43.5451 112.39C42.7182 113.002 42.8212 113.972 43.6808 114.763C44.8621 115.869 46.2872 116.132 47.833 116.037Z" fill="#946E44"/>
<path d="M40.2853 76.1292C41.5696 76.3351 40.8156 76.9731 40.5089 77.3976C38.8275 79.7413 37.1486 82.085 35.4018 84.3784C31.3304 89.6585 28.2635 95.6407 26.3536 102.028C25.0742 106.356 24.1292 110.769 23.9105 115.313C23.8652 116.283 24.0538 117.461 22.9429 118.119C21.9576 118.019 21.9048 117.318 21.9375 116.562C22.1185 111.905 22.9831 107.358 24.1769 102.869C26.625 93.6552 31.5512 85.8254 37.7492 78.714C38.556 77.7971 39.2246 76.7722 40.2853 76.1292Z" fill="#5D563B"/>
<path d="M109.645 120.061C109.612 119.517 109.678 118.971 109.841 118.451C110.542 116.135 109.919 114.181 108.237 112.49C107.614 111.859 106.548 111.257 107.013 110.229C107.418 109.347 108.581 109.679 109.413 109.533C110.024 109.428 110.67 109.533 111.293 109.498C111.648 109.481 112.145 109.631 112.274 109.164C112.402 108.697 111.939 108.448 111.592 108.222C110.817 107.721 109.969 107.34 109.079 107.094C108.717 106.989 108.358 106.876 108.001 106.753C107.39 106.539 106.744 106.3 106.9 105.479C107.056 104.658 107.777 104.688 108.408 104.68C111.396 104.648 114.691 107.865 114.91 110.92C115.161 114.655 113.382 117.31 110.527 119.428C110.331 119.571 110.039 119.629 110.145 119.973C110.007 120.189 109.823 120.104 109.645 120.061Z" fill="#5D563B"/>
<path d="M92.7523 86.3956C92.0837 86.4961 91.3397 86.9281 90.7818 86.2976C90.3193 85.7751 89.9347 85.0064 90.2062 84.3684C90.352 84.0293 91.0356 84.5895 91.4981 84.6649C91.8952 84.7302 92.3301 84.7628 92.6442 85.0843C92.5736 85.299 92.5468 85.5257 92.5654 85.751C92.5839 85.9762 92.6475 86.1954 92.7523 86.3956Z" fill="#C18C5A"/>
<path d="M109.335 92.673L109.313 92.4218C109.339 92.5029 109.346 92.5886 109.335 92.673Z" fill="#61452D"/>
<path d="M46.9859 82.0624C46.4556 82.5372 45.9379 83.0345 45.2467 83.2681C44.2966 83.5897 43.7085 83.1652 43.6859 82.1478C43.6406 80.0629 44.7164 78.3974 45.7594 76.737C47.3579 74.1874 48.9137 71.6302 49.9593 68.7816C50.9482 66.1596 51.4927 63.3911 51.5704 60.5901C51.6876 55.1793 51.7714 49.766 51.8217 44.3502C51.8217 43.5665 52.1258 42.8907 52.3244 42.1698C53.1161 40.6827 54.0033 39.2308 54.3351 37.5528C54.4256 37.1132 54.8101 36.4198 53.8324 36.3846C52.9125 36.0405 52.3244 36.6359 51.7513 37.1684C48.4839 40.1526 44.8948 42.6647 40.8432 44.3929C36.4297 46.2744 31.8855 47.7212 27.1654 45.1967C30.9807 43.1419 34.3184 40.4968 37.42 37.4598C39.8218 35.1163 42.6119 33.2065 45.6664 31.8154C47.5688 30.9382 49.6194 30.4269 51.7111 30.3082C52.7743 30.2479 53.3624 29.8284 53.3498 28.7231C53.3498 27.9067 53.6414 27.6154 54.5462 27.6581C58.6129 27.8415 61.8929 26.0253 64.7984 23.3877C65.5876 22.6743 66.1832 21.7474 66.2611 20.6823C66.3239 19.8157 66.7513 19.6776 67.445 19.6148C71.0255 19.2182 74.6395 19.23 78.2173 19.65L78.617 19.768C85.9058 20.725 91.2869 24.2342 93.9184 31.323C94.3588 32.4987 95.067 33.5557 95.987 34.4103C96.741 35.1337 97.495 35.8723 97.9273 36.8519C98.43 37.9723 98.2491 38.3189 97.0426 38.329C94.6172 38.3541 92.1893 38.2887 89.7538 38.2636C88.7485 38.251 87.7431 38.2386 86.7377 38.2486C86.029 38.2486 85.7324 38.6253 85.6645 39.3463C85.2121 43.9055 88.1301 47.6861 92.6542 48.3442C92.8986 48.4184 93.1573 48.4321 93.4082 48.3843C95.0294 47.7589 95.419 48.726 95.8287 50.0221C96.6279 52.5341 97.6232 54.9632 98.5054 57.4425C99.7621 60.9467 100.599 64.4986 99.5635 68.2289C99.3454 69.0413 98.8968 69.7733 98.2717 70.3365C97.8268 70.7434 97.2663 70.9092 96.7184 71.1328C95.9644 71.4518 95.904 70.6079 95.5044 70.334C94.8339 69.8332 94.0618 69.4851 93.2424 69.3142C92.5135 69.1911 92.0661 69.0831 92.6417 68.1838C93.0212 67.5819 93.2241 66.8856 93.2273 66.1742C93.1896 64.8152 93.8028 64.034 94.9238 63.411C95.8284 62.9462 96.5403 62.1778 96.9345 61.2407C97.1205 60.7383 97.1507 60.2158 96.6505 59.8792C96.1504 59.5426 95.9166 60.0977 95.6452 60.3414C92.3049 63.2954 93.1116 62.8533 89.706 60.7383C89.2812 60.472 88.8866 60.1555 88.4493 59.9244C87.8888 59.6305 87.3887 59.7963 87.0016 60.2761C86.5567 60.8287 86.8006 61.3236 87.2379 61.7054C88.1322 62.4638 89.1321 63.0883 90.2062 63.5592C91.2115 64.0214 91.5534 64.6971 91.2995 65.7371C91.1914 66.1842 91.1537 66.6489 91.0255 67.086C90.4726 68.9675 90.2489 69.0957 88.2985 68.9048C85.7072 68.6385 83.2014 68.9222 80.8539 70.123C80.3716 70.3717 79.9139 70.6653 79.4866 70.9997C78.9487 71.4217 78.6421 72.0045 79.0694 72.6375C79.5469 73.3509 80.1627 73.0721 80.7006 72.6727C82.7565 71.1329 85.109 70.7536 87.5923 70.8992C88.8867 70.9746 90.1785 71.0851 91.4704 71.178L91.8072 71.2433C92.0586 71.2734 92.3099 71.2936 92.5612 71.3338C94.2528 71.6076 94.6825 72.1652 93.9939 73.6749C92.8478 76.1869 92.9483 78.7817 93.089 81.4218C93.187 83.2505 93.089 83.2632 91.3296 82.6528C90.2313 82.2735 89.4622 81.5902 89.0902 80.4723C88.9244 79.9825 88.8942 79.2791 88.1151 79.4324C87.3962 79.573 87.3032 80.2212 87.3082 80.8165C87.3082 82.3011 87.8386 83.6751 88.2558 85.0742C88.3538 85.4008 88.7585 85.7726 88.3865 86.079C88.1351 86.2976 87.7481 86.0941 87.4289 86.0162C86.3324 85.732 85.3454 85.1277 84.5942 84.2803C83.843 83.4328 83.3616 82.3808 83.2114 81.2586C83.1386 80.7562 83.239 79.9699 82.5328 79.9875C81.8265 80.0051 81.7386 80.7411 81.7411 81.3439C81.7424 81.7198 81.7625 82.0955 81.8014 82.4694C81.8391 82.8336 82.1734 83.3385 81.8869 83.5269C81.4722 83.8033 81.0424 83.346 80.6779 83.1099C79.2528 82.183 78.6848 80.6934 78.2098 79.1636C78.0294 78.5645 77.8793 77.9566 77.7599 77.3424C77.594 76.5235 77.217 76.0286 76.3047 75.8904C75.2063 75.7247 74.4522 74.9837 73.9345 74.0191C73.1805 72.6199 72.9794 71.1002 72.9442 69.5402C72.8613 65.9029 71.7805 64.3882 68.307 63.3432C65.208 62.4088 62.1693 61.4065 59.7615 59.103C59.4875 58.8393 59.0628 58.5755 58.7562 58.8518C58.5249 59.0704 58.8717 59.4395 59.0452 59.6983C59.3468 60.1479 59.6861 60.5749 60.0078 61.012C59.5051 61.3863 59.8872 61.7657 60.0078 62.1299C60.8699 64.5766 62.1568 66.8248 63.235 69.1634C65.6708 74.375 68.6569 79.3114 72.1425 83.8886C72.8592 84.915 73.7201 85.833 74.6986 86.6142C75.719 87.3828 76.9305 86.8126 77.9258 87.3678C70.1544 87.8551 62.3628 87.5511 54.5864 87.8702C54.0435 87.8928 53.4981 87.8701 52.9552 87.9128C50.4896 88.0636 49.424 89.0658 49.16 91.525C49.0671 92.3967 49.0595 93.2834 49.0143 94.1525C46.7019 90.4248 46.4883 86.3654 47.094 82.1653C47.1417 82.0724 47.275 81.982 47.1141 81.8815C47.0674 81.9389 47.0246 81.9994 46.9859 82.0624ZM69.6064 49.8891C74.2663 49.9293 78.6069 46.4401 78.0414 41.16C78.0112 40.8786 77.9408 40.4592 78.0866 40.326C78.5667 39.899 78.9588 39.5171 78.5214 38.8515C78.1143 38.2335 77.4683 38.1984 76.8425 38.2486C72.3812 38.6003 67.9099 38.6655 63.4386 38.6856C62.6007 38.6519 61.7639 38.7738 60.9705 39.0449C60.043 39.4066 59.8771 40.0345 60.5658 40.7228C60.6831 40.8322 60.7722 40.9686 60.8252 41.12C60.8781 41.2714 60.8935 41.4333 60.8699 41.5919C60.6512 46.0683 64.0518 49.7333 69.5964 49.8891H69.6064ZM70.1469 54.0388C72.6829 54.2172 74.5428 52.9914 76.1187 51.1803C76.3549 50.9115 76.7797 50.5573 76.4982 50.2383C76.2167 49.9192 75.8095 50.3186 75.5154 50.4895C73.9445 51.444 72.4038 52.4487 70.4886 52.607C69.8251 52.6597 69.1591 52.7024 68.5031 52.8155C68.1889 52.8708 67.8245 53.0416 67.8596 53.4561C67.8873 53.8078 68.2342 53.8981 68.5157 53.9308C69.051 54.0036 69.5939 54.0087 70.1368 54.0388H70.1469ZM78.2324 36.5881C77.8856 35.405 77.4407 34.0209 76.4957 32.8628C76.2946 32.6116 76.0106 32.2424 75.6763 32.4208C75.2968 32.6218 75.5808 33.0187 75.6763 33.3151C76.0583 34.5133 76.4303 35.7165 76.4831 36.98C76.5133 37.6783 76.8149 37.9622 77.4885 37.9119C78.162 37.8617 78.2148 37.3543 78.2223 36.5881H78.2324ZM55.8507 78.2116C55.8752 77.888 55.8752 77.563 55.8507 77.2394C55.7753 76.7998 56.1397 76.0788 55.4058 76.016C54.8001 75.9633 54.5638 76.5612 54.4004 77.1063C53.9983 78.3925 54.2145 79.6609 54.4758 80.9244C54.5412 81.246 54.6493 81.6604 55.0363 81.663C55.5189 81.663 55.5516 81.2033 55.627 80.8391C55.8228 79.9778 55.8947 79.0931 55.8406 78.2116H55.8507ZM60.1234 84.7954C59.8997 83.7002 59.7565 82.5748 59.2563 81.5474C59.1852 81.3713 59.0639 81.2199 58.9076 81.1119C58.7513 81.0038 58.5667 80.9439 58.3766 80.9395C58.0072 80.9571 58.0826 81.3992 58.0072 81.6504C57.7558 82.492 58.7612 84.9285 59.5001 85.3204C60.1159 85.657 60.0757 85.1848 60.1159 84.7954H60.1234Z" fill="#C18C5A"/>
<path d="M77.9432 87.3678C76.9379 86.8151 75.7365 87.3853 74.716 86.6142C73.7376 85.833 72.8767 84.915 72.1599 83.8886C68.6743 79.3114 65.6882 74.375 63.2524 69.1634C62.1742 66.8172 60.8874 64.569 60.0253 62.1299C59.8971 61.7682 59.5226 61.3763 60.0253 61.012C62.2748 63.112 64.944 64.3881 67.8897 65.2347C70.6745 66.0335 71.0917 66.7218 71.1721 69.6282C71.2224 71.3865 71.4009 73.1299 72.263 74.725C72.8109 75.7298 73.4845 76.7345 74.525 77.1665C75.8898 77.7192 76.2492 78.714 76.5684 79.985C76.9848 81.7526 77.9822 83.3296 79.401 84.4639C80.3435 85.2175 81.384 85.6948 82.6181 85.6571C82.7851 85.6368 82.9538 85.6368 83.1208 85.6571C83.7315 85.7902 84.3373 86.2298 84.3574 86.7247C84.3775 87.2195 83.6034 87.0136 83.2038 87.0487C81.4494 87.1969 79.6951 87.2673 77.9432 87.3678Z" fill="#946E44"/>
<path d="M27.1728 45.1967C31.8929 47.7212 36.4371 46.2744 40.8506 44.3929C44.9022 42.6647 48.5013 40.1527 51.7587 37.1684C52.3242 36.6459 52.9199 36.0405 53.8398 36.3847C52.8143 37.9572 51.8291 39.5498 50.7584 41.0946C46.473 47.3369 37.9049 50.487 30.6311 48.4699C29.0301 48.0252 27.3939 47.5127 26.6676 45.7418L26.9465 45.4328V45.4505L27.2155 45.1993L27.1728 45.1967Z" fill="#946E44"/>
<path d="M54.6267 9.53168C57.6025 10.7048 59.9777 12.6767 62.0286 15.0832C59.2335 15.4323 56.5772 16.5014 54.32 18.1855C52.9301 16.1885 50.8741 15.1008 48.7528 14.0985C49.5069 11.7925 51.0978 10.4661 53.468 10.0391C53.8927 9.96123 54.413 10.0893 54.6267 9.53168Z" fill="#C18C5A"/>
<path d="M111.834 43.162C110.743 44.4381 109.207 44.7271 107.682 44.9431C105.306 45.2666 102.887 45.0176 100.627 44.2171C100.124 44.0488 99.747 43.883 99.8098 43.1847C99.9908 41.1525 99.7897 39.0978 100.076 37.0656C100.076 36.3823 100.227 36.3998 100.752 36.8017C103.902 39.2183 107.036 41.68 111.057 42.5793C111.336 42.6446 111.572 42.9711 111.834 43.162Z" fill="#946E44"/>
<path d="M62.4683 15.9498C63.725 17.1581 64.2679 18.713 64.4388 20.3759C64.5368 21.3229 63.9562 22.0414 63.2499 22.5915C61.8374 23.6893 60.3395 24.6513 58.6203 25.214C57.9392 23.109 56.974 21.1647 55.3655 19.5947C55.5314 18.61 56.4311 18.3764 57.1047 17.9494C58.746 16.9095 60.6537 16.5477 62.4683 15.9498Z" fill="#C18C5A"/>
<path d="M47.8329 116.037C46.2872 116.132 44.8696 115.869 43.6732 114.761C42.8136 113.97 42.7106 113.002 43.5375 112.387C44.9148 111.367 45.9629 110.003 47.3553 109.023C47.4634 109.991 48.0063 110.224 48.8935 109.988C50.0321 109.684 51.2058 109.709 52.372 109.759C53.2743 109.797 54.0334 110.182 54.2722 111.101C54.5109 112.02 54.0209 112.776 53.2392 113.173C51.7161 113.927 50.1351 114.588 48.5768 115.283L48.3255 115.535L48.0616 115.786L48.0817 115.768L47.8153 116.034L47.8329 116.037Z" fill="#5D563B"/>
<path d="M42.3109 7.82109C45.9176 7.04992 49.4036 7.53974 52.8143 8.81079C51.3766 9.34585 50.0094 10.009 49.0242 11.2323C48.431 11.9683 47.9233 12.7747 47.3779 13.5509C44.9223 12.526 42.3511 12.2421 39.7296 12.428C39.6216 11.5689 39.9508 10.8405 40.3781 10.122C40.7274 9.53675 41.2729 9.03936 41.2854 8.28828V8.30086C41.7052 8.32346 42.0018 8.05471 42.3109 7.82109Z" fill="#C18C5A"/>
<path d="M39.0007 16.54C36.5896 16.8642 34.2757 17.7002 32.2145 18.9918C30.6512 19.9614 29.48 21.2952 28.4595 22.7924C28.2761 23.0637 27.9695 23.5459 27.8488 23.5108C27.4391 23.3877 27.4969 22.9355 27.4994 22.5688C27.8287 22.0212 27.894 21.3983 28.0222 20.7904C28.2082 19.8961 28.3766 18.9918 28.9874 18.2557C31.5008 15.2414 34.6123 13.2494 38.5207 12.5812C38.493 13.9251 38.5407 15.2564 39.0007 16.54Z" fill="#946E44"/>
<path d="M111.834 43.162C111.583 42.9635 111.331 42.6446 111.047 42.5793C107.026 41.68 103.902 39.2182 100.742 36.8017C100.217 36.3998 100.061 36.3823 100.066 37.0655C99.6263 35.3499 98.435 34.1541 97.2562 32.9383C96.8867 32.559 96.5876 32.1119 96.2509 31.6823L96.3992 31.4513C100.013 32.5389 102.891 34.7544 105.47 37.4096C107.302 39.2961 109.2 41.0973 111.552 42.3306C111.97 42.5567 111.947 42.8254 111.834 43.162Z" fill="#C18C5A"/>
<path d="M39.7297 12.4305C42.3612 12.2421 44.9223 12.526 47.3779 13.5484C47.1785 14.9936 46.9816 16.438 46.7872 17.8816C44.5252 17.025 42.2255 16.4321 39.7875 16.5326C39.7674 15.1644 39.7481 13.7971 39.7297 12.4305Z" fill="#946E44"/>
<path d="M38.5232 12.5762C34.6149 13.2444 31.4857 15.2313 28.9899 18.2507C28.3792 18.9867 28.2107 19.8911 28.0248 20.7854C27.8966 21.3933 27.8312 22.0162 27.502 22.5638C27.4265 19.4992 28.5827 16.8592 30.4602 14.5431C33.2752 11.0691 36.8216 8.72538 41.3005 7.94415C41.3005 8.06222 41.2829 8.17774 41.2753 8.2958V8.28323C40.5062 8.17019 40.0186 8.57212 39.624 9.16997C38.9381 10.1765 38.556 11.3588 38.5232 12.5762Z" fill="#C18C5A"/>
<path d="M85.5161 14.0834C87.2227 15.9272 87.9063 18.2332 88.4718 20.5945C88.5171 20.7829 88.6277 21.0291 88.4015 21.1421C88.311 21.1873 88.1024 21.0492 87.9717 20.9587C86.343 19.8384 84.5007 19.1676 82.6936 18.419C82.5051 16.6607 81.9395 15.1209 80.4089 14.0809C80.9442 13.6891 81.5927 13.6539 82.1934 13.689C83.3169 13.7443 84.4102 13.9352 85.5161 14.0834Z" fill="#C18C5A"/>
<path d="M48.7527 14.0985C50.874 15.1033 52.93 16.1885 54.3199 18.1855C53.5809 19.4867 52.005 20.2201 51.8065 21.8931C50.4945 20.7652 49.3107 19.4842 47.8077 18.5874C48.147 17.0978 48.1043 15.5253 48.7527 14.0985Z" fill="#946E44"/>
<path d="M74.887 16.7687C74.3692 15.5504 73.8691 14.3196 72.914 13.3525C73.6529 11.1721 75.0704 9.73771 77.3903 9.30063C78.5188 10.1798 79.489 11.1871 79.9791 12.5662C79.7127 12.6717 79.4463 12.7722 79.1849 12.8877C77.3225 13.7091 75.7767 14.8621 74.887 16.7687Z" fill="#946E44"/>
<path d="M55.3654 19.5946C56.974 21.1646 57.9391 23.1114 58.6202 25.2139C58.3488 25.3144 58.0849 25.4325 57.8059 25.5078C54.4053 26.4423 53.0305 25.6409 52.0452 22.1493C53.2642 21.4434 54.0308 20.1498 55.3654 19.5946Z" fill="#946E44"/>
<path d="M72.1876 12.5762C70.3296 11.2308 68.2593 10.206 66.0625 9.54422C65.8665 9.48394 65.6202 9.44125 65.6227 9.19006C65.6227 9.11972 65.874 9.02676 66.0198 8.98406C69.9557 7.83609 73.9118 7.28595 77.9308 8.59217C77.6593 8.77052 77.3853 8.68265 77.0938 8.63995C74.696 8.28827 72.434 10.1094 72.1876 12.5762Z" fill="#946E44"/>
<path d="M80.4114 14.0834C81.9445 15.1234 82.5075 16.6733 82.696 18.4216C80.2807 17.9745 77.8678 17.5098 75.4072 17.3741C75.3027 17.3829 75.198 17.3588 75.1079 17.3052C75.0178 17.2516 74.9467 17.1712 74.9045 17.0752C75.5857 17.1305 76.0331 16.8239 76.4981 16.3216C77.5512 15.151 78.7927 14.2643 80.4114 14.0834Z" fill="#946E44"/>
<path d="M55.3655 19.5947C54.0309 20.1498 53.2644 21.4435 52.0454 22.1494L52.0705 22.1193L51.8191 21.8681V21.8982C52.0101 20.2252 53.5785 19.4917 54.3325 18.1905C56.5861 16.5085 59.2379 15.4395 62.0285 15.0882C62.157 15.1952 62.2622 15.3272 62.3379 15.4762C62.4135 15.6253 62.4579 15.7881 62.4684 15.9548C60.6537 16.5527 58.746 16.9145 57.1048 17.9645C56.4237 18.3764 55.5314 18.605 55.3655 19.5947Z" fill="#82502E"/>
<path d="M48.7527 14.0985C48.1042 15.5253 48.147 17.0953 47.8152 18.5875L47.5639 18.3764L47.1743 18.0901L47.0712 18.1026L46.7998 17.8514V17.884C46.9958 16.4405 47.1927 14.9961 47.3904 13.5509C47.9359 12.7772 48.4436 11.9708 49.0367 11.2348C50.022 10.0115 51.3892 9.34837 52.8269 8.81332C53.4673 8.9472 54.0796 9.1911 54.6365 9.53423C54.4204 10.0919 53.9051 9.96378 53.4804 10.0366C51.0977 10.4662 49.5017 11.7925 48.7527 14.0985Z" fill="#82502E"/>
<path d="M80.4114 14.0835C78.7953 14.2769 77.5512 15.1636 76.5031 16.3141C76.0381 16.8165 75.5908 17.1304 74.9097 17.0676C74.9097 16.9672 74.8971 16.8692 74.8895 16.7738C75.7667 14.8672 77.3225 13.7142 79.1849 12.9003C79.4363 12.7848 79.7127 12.6843 79.9791 12.5788L84.267 12.5562H84.2544L84.5736 12.825C85.011 13.1515 85.2397 13.6363 85.5161 14.0809C84.4103 13.9428 83.3069 13.7519 82.196 13.6865C81.5953 13.6438 80.9468 13.679 80.4114 14.0835Z" fill="#82502E"/>
<path d="M84.267 12.5511L79.9791 12.5737C79.489 11.1871 78.5188 10.1798 77.3903 9.30814L78.5013 8.85849C80.884 9.3634 82.7011 10.76 84.267 12.5511Z" fill="#C18C5A"/>
<path d="M38.5232 12.5762C38.5591 11.3578 38.9447 10.1754 39.6341 9.16997C40.0388 8.57212 40.5164 8.16517 41.2855 8.28323C41.2729 9.03682 40.7275 9.53923 40.3781 10.117C39.9508 10.8354 39.6241 11.5639 39.7297 12.423C39.7481 13.7928 39.7674 15.161 39.7875 16.5275H39.0008C38.5408 15.2565 38.4931 13.9251 38.5232 12.5762Z" fill="#82502E"/>
<path d="M78.5012 8.84843L77.3903 9.29808C75.0704 9.73768 73.6529 11.1721 72.914 13.3524C72.6626 13.1012 72.4288 12.8324 72.1876 12.5737C72.4389 10.1095 74.701 8.2883 77.0937 8.63747C77.3853 8.68017 77.6592 8.76804 77.9307 8.58969L78.5012 8.84843Z" fill="#82502E"/>
<path d="M74.0499 89.4702C73.2759 89.6653 72.4731 89.7198 71.6798 89.631C72.4494 89.4097 73.2574 89.3549 74.0499 89.4702Z" fill="#5D563B"/>
<path d="M60.0203 123.256C60.7967 123.065 61.6011 123.013 62.3955 123.106C61.6228 123.32 60.8139 123.371 60.0203 123.256Z" fill="#5D563B"/>
<path d="M83.5482 88.9402C82.9584 89.1005 82.3451 89.1567 81.736 89.106C82.3155 88.8947 82.9399 88.8376 83.5482 88.9402Z" fill="#5D563B"/>
<path d="M41.2754 8.30588C41.2754 8.18781 41.2905 8.07229 41.3005 7.95422L42.3059 7.82611C42.0018 8.0547 41.7052 8.32346 41.2754 8.30588Z" fill="#82502E"/>
<path d="M98.6989 88.2394C98.1703 88.4097 97.6096 88.4561 97.0602 88.3751C97.5818 88.1725 98.151 88.1254 98.6989 88.2394Z" fill="#5D563B"/>
<path d="M94.6548 88.468C94.1283 88.6178 93.5773 88.6622 93.0336 88.5986C93.5475 88.389 94.1138 88.3434 94.6548 88.468Z" fill="#5D563B"/>
<path d="M100.31 121.252C100.721 121.045 101.193 120.994 101.639 121.106C101.219 121.28 100.758 121.331 100.31 121.252Z" fill="#BD9F6F"/>
<path d="M88.3762 88.7294C87.9357 88.8832 87.4627 88.9196 87.0039 88.8348C87.4367 88.6475 87.9198 88.6103 88.3762 88.7294Z" fill="#5D563B"/>
<path d="M96.7861 121.47C96.9405 121.373 97.1137 121.31 97.2945 121.285C97.4752 121.259 97.6592 121.273 97.8342 121.325C97.5064 121.474 97.1422 121.524 96.7861 121.47Z" fill="#BD9F6F"/>
<path d="M102.371 87.9606C102.042 88.1452 101.654 88.1981 101.288 88.1088C101.621 87.9365 102.003 87.8842 102.371 87.9606Z" fill="#BD9F6F"/>
<path d="M79.7026 122.505C79.8641 122.409 80.0432 122.347 80.2294 122.322C80.4155 122.297 80.6048 122.31 80.7859 122.359C80.4504 122.525 80.07 122.576 79.7026 122.505Z" fill="#BD9F6F"/>
<path d="M104.97 87.7269C104.621 87.8963 104.226 87.9457 103.846 87.8676C104.193 87.6915 104.59 87.6418 104.97 87.7269Z" fill="#5D563B"/>
<path d="M88.2432 121.988C88.4017 121.888 88.5795 121.823 88.765 121.798C88.9505 121.772 89.1394 121.787 89.3189 121.84C88.9825 121.993 88.6086 122.045 88.2432 121.988Z" fill="#BD9F6F"/>
<path d="M26.9466 45.4328L26.6677 45.7418C26.6073 45.5006 26.6375 45.3424 26.9466 45.4328Z" fill="#C18C5A"/>
<path d="M86.5214 88.8522L86.0062 88.8673C86.0799 88.8116 86.169 88.7803 86.2614 88.7776C86.3537 88.7749 86.4446 88.8009 86.5214 88.8522Z" fill="#5D563B"/>
<path d="M92.3023 88.6162L91.787 88.6363C91.862 88.584 91.9504 88.5544 92.0418 88.5508C92.1331 88.5472 92.2235 88.5699 92.3023 88.6162Z" fill="#5D563B"/>
<path d="M83.9704 122.241C84.1488 122.093 84.3323 122.023 84.5309 122.211L83.9704 122.241Z" fill="#BD9F6F"/>
<path d="M51.8217 21.8705L52.073 22.1217C51.8744 22.1443 51.8242 22.0263 51.8217 21.8705Z" fill="#946E44"/>
<path d="M27.2054 45.1942L26.9364 45.4454C26.9214 45.2545 27.047 45.2068 27.2054 45.1942Z" fill="#C18C5A"/>
<path d="M96.2659 31.6948L96.1427 31.5316L96.4142 31.4663L96.2659 31.6948Z" fill="#C18C5A"/>
<path d="M30.4655 105.748C29.9226 105.592 29.7969 105.112 29.7567 104.67C29.5205 102.492 30.0637 100.301 31.2899 98.4857C31.4809 98.2018 31.6819 97.7321 32.1469 97.9708C32.5038 98.1491 32.3706 98.5385 32.3304 98.8725C32.162 100.214 31.4708 101.384 31.129 102.673C30.8626 103.678 30.463 104.648 30.5007 105.713L30.4655 105.748Z" fill="#5D563B"/>
<path d="M35.0448 97.7999C35.4545 95.7903 35.8466 93.7807 37.4652 92.3112C37.6412 92.1505 37.8121 91.8515 38.076 91.9771C38.4077 92.1354 38.2846 92.4796 38.2041 92.7534C37.5909 94.7856 36.3995 96.5942 35.9421 98.6841C35.8994 98.8775 35.7134 99.1338 35.5023 99.0132C35.0272 98.752 35.178 98.2144 35.0448 97.7999Z" fill="#5D563B"/>
<path d="M37.0052 101.945C36.8972 100.108 37.6587 98.6792 38.5962 97.3378C38.8627 96.956 39.2723 96.5993 39.7549 96.8354C40.1972 97.064 39.9283 97.5362 39.8027 97.8402C39.114 99.5333 38.3851 101.209 37.6613 102.884C37.5859 103.062 37.4878 103.316 37.2289 103.208C37.1668 103.161 37.1156 103.102 37.0787 103.033C37.0418 102.965 37.0202 102.889 37.0153 102.811C36.9851 102.505 37.0052 102.163 37.0052 101.945Z" fill="#5D563B"/>
<path d="M30.4903 105.723L30.5453 105.803L30.4654 105.748L30.4903 105.723Z" fill="#5D563B"/>
<path d="M69.5964 49.8891C64.0518 49.7334 60.6512 46.0684 60.8598 41.5996C60.8834 41.441 60.8681 41.2789 60.8151 41.1275C60.7621 40.9761 60.6731 40.8399 60.5557 40.7305C59.8671 40.0422 60.033 39.4142 60.9604 39.0525C61.7539 38.7813 62.5907 38.6596 63.4286 38.6933C67.8999 38.6732 72.3712 38.6079 76.8324 38.2562C77.4583 38.2059 78.1042 38.2411 78.5114 38.859C78.9487 39.5247 78.5566 39.9066 78.0766 40.3336C77.9308 40.4667 78.0012 40.8862 78.0313 41.1675C78.5968 46.4402 74.2688 49.9293 69.5964 49.8891ZM68.6664 43.4233L68.6992 43.456L68.4176 43.1797L68.4428 43.1972L67.925 42.6723V42.7075C67.8898 42.5567 67.8571 42.4059 67.6737 42.3859L67.729 42.4487C67.7063 41.3132 67.5556 40.3084 65.9897 40.743C65.2032 40.6297 64.4015 40.688 63.6397 40.9139C63.3883 41.1073 62.7625 40.635 62.8027 41.2881C62.8605 42.2024 62.6519 43.1897 63.3381 43.986H63.2325V44.0915L63.6296 44.7647L63.5995 44.7295C63.63 44.8903 63.6927 45.0432 63.7839 45.1792C63.875 45.3152 63.9926 45.4314 64.1298 45.5208L64.1122 45.4706L64.4113 45.7695L64.3761 45.7218C64.3786 45.7976 64.4098 45.8696 64.4635 45.9232C64.5172 45.9769 64.5893 46.0082 64.6651 46.0107L64.6149 45.9755L64.9165 46.2593L64.8762 46.2418C64.9633 46.3791 65.0777 46.4972 65.2121 46.5887C65.3465 46.6803 65.4982 46.7435 65.6579 46.7743L65.6302 46.7516C65.9821 47.1159 66.4572 47.2013 66.9171 47.3219L66.8568 47.2817C68.7419 47.9951 70.6269 48.0805 72.4968 47.2591L72.4466 47.2868C72.6577 47.239 72.894 47.2515 73.0197 47.0229L72.9518 47.0406C73.0613 47.0455 73.1702 47.0215 73.2677 46.9713C73.3651 46.9211 73.4477 46.8462 73.5072 46.7542L73.467 46.7894C73.7857 46.7098 74.064 46.5157 74.2487 46.2442H74.206L74.5277 45.9805C76.2494 44.6014 76.0659 42.622 76.1614 40.7355C76.1614 40.6501 76.0407 40.4843 75.9754 40.4843C75.2214 40.4843 74.4673 40.3939 73.7384 40.5421C73.1277 40.6677 73.5701 41.3233 73.4343 41.7227C73.1679 42.519 72.8789 43.2827 72.1953 43.8278C71.0667 44.5688 70.0136 44.104 68.963 43.6217L68.9379 43.6845L69.0007 43.7072L68.6664 43.4233Z" fill="#1D2831"/>
<path d="M70.1367 54.0388C69.5938 54.0087 69.0509 54.0037 68.5156 53.9384C68.2341 53.9057 67.8872 53.8153 67.8596 53.4636C67.8244 53.0491 68.1888 52.8783 68.503 52.8231C69.159 52.71 69.825 52.6673 70.4886 52.6146C72.3937 52.4563 73.9344 51.4515 75.5153 50.4969C75.8094 50.3186 76.2091 49.9091 76.4981 50.2457C76.7872 50.5823 76.3549 50.9189 76.1186 51.1877C74.5326 52.9913 72.6727 54.2172 70.1367 54.0388Z" fill="#946E44"/>
<path d="M78.2222 36.5881C78.2222 37.3543 78.2046 37.8617 77.4858 37.9119C76.7669 37.9622 76.503 37.6783 76.4804 36.98C76.4276 35.724 76.0557 34.5133 75.6736 33.3151C75.5781 33.0186 75.2941 32.6217 75.6736 32.4208C76.0079 32.2424 76.2919 32.6167 76.493 32.8628C77.4305 34.0208 77.8753 35.405 78.2222 36.5881Z" fill="#946E44"/>
<path d="M55.8405 78.2115C55.8823 79.0949 55.7976 79.9796 55.5892 80.8391C55.5138 81.2033 55.4812 81.6679 54.9986 81.6629C54.6115 81.6629 54.4959 81.246 54.4381 80.9244C54.1868 79.6684 53.9606 78.3924 54.3627 77.1063C54.5336 76.5612 54.7699 75.9633 55.368 76.016C56.102 76.0788 55.7375 76.7998 55.8129 77.2394C55.8467 77.5623 55.8559 77.8873 55.8405 78.2115Z" fill="#946E44"/>
<path d="M60.1157 84.7955C60.0755 85.1848 60.1157 85.657 59.4924 85.3204C58.761 84.9286 57.7507 82.492 57.9995 81.6505C58.0749 81.3993 57.9995 80.9572 58.3689 80.9396C58.559 80.9439 58.7436 81.0039 58.8999 81.1119C59.0562 81.2199 59.1775 81.3713 59.2486 81.5475C59.7488 82.5749 59.892 83.7003 60.1157 84.7955Z" fill="#946E44"/>
<path d="M46.9859 82.0625C47.0303 81.9998 47.0791 81.9402 47.1317 81.8842C47.2926 81.9846 47.1593 82.075 47.1116 82.168L46.9859 82.0625Z" fill="#946E44"/>
<path d="M80.7432 102.909L79.871 101.709C78.9938 99.2117 78.4761 96.7122 79.7881 94.1902L79.7277 94.2329C79.8207 94.1324 79.9112 94.0295 80.0042 93.9265L79.9866 93.9591L80.532 93.4567L80.4742 93.4819L80.8236 93.2031L80.7457 93.2331L80.7758 93.3086C81.1019 93.1119 81.4675 92.9896 81.8464 92.9505C82.2253 92.9115 82.6081 92.9566 82.9675 93.0825L82.8946 93.0447L83.4777 93.2583C83.4717 93.236 83.4641 93.2143 83.4551 93.193C83.3873 93.4442 83.5405 93.502 83.7265 93.5396L83.6989 93.4642L83.6235 93.4944C85.5462 96.2576 85.6342 99.1614 84.3775 102.193V102.113L84.0734 102.558L84.0432 102.595L83.5858 103.085L83.6336 103.073L83.1586 103.442L83.2238 103.397C82.6606 103.597 82.0453 103.597 81.4821 103.397L81.5349 103.434L80.7432 102.909ZM82.5478 95.607L82.5628 95.6245C82.4447 95.2151 82.2562 94.7253 81.8088 94.7856C81.4067 94.8383 81.2207 95.3532 81.1 95.7451C80.604 97.4337 80.7089 99.242 81.3967 100.862C81.5424 101.231 81.756 101.721 82.2311 101.673C82.7061 101.626 82.9323 101.143 83.0353 100.681C83.4249 98.9379 83.4073 97.2297 82.5478 95.607Z" fill="#1D2831"/>
<path d="M70.0211 102.962C69.8477 103.138 69.6818 103.326 69.4983 103.492C67.8219 104.977 66.1882 104.655 65.4191 102.54C64.5168 100.063 64.4137 97.5161 65.4191 95.0041L65.6704 94.6674L65.6427 94.6976L65.9243 94.4188L65.8941 94.4464L66.1982 94.1727L66.1706 94.2556C66.6146 93.9836 67.1161 93.8192 67.635 93.7756C68.1539 93.732 68.6758 93.8104 69.159 94.0044L69.0786 93.9792L69.6189 94.2631C69.6189 94.2631 69.5938 94.2053 69.5888 94.2129C69.5836 94.2535 69.5874 94.2948 69.5999 94.3338C69.6123 94.3729 69.6331 94.4087 69.6609 94.4388C69.6887 94.469 69.7227 94.4927 69.7606 94.5084C69.7985 94.524 69.8394 94.5311 69.8803 94.5293L69.8376 94.4716L69.7823 94.5168C69.9909 94.7479 70.1995 94.9765 70.4056 95.2076L70.3805 95.1749C70.5539 95.524 70.7249 95.8758 70.8958 96.2249L70.8656 96.1746C71.3015 97.904 71.2842 99.7165 70.8153 101.437L70.8605 101.372L70.0211 102.962ZM67.3795 102.254C67.656 102.598 67.9224 102.56 68.1838 102.236C69.6114 100.875 69.9055 97.5563 68.6865 96.0993C68.2617 95.5969 67.7591 95.0192 67.1357 95.926C66.9196 95.9989 66.8843 96.1923 66.8265 96.3757C66.4786 97.2785 66.3271 98.2449 66.3821 99.2108C66.4371 100.177 66.6975 101.12 67.1457 101.977L67.3795 102.254Z" fill="#1D2831"/>
<path d="M76.458 94.3359L76.4781 94.4238H76.566C76.654 94.5821 76.7344 94.7504 76.9632 94.7102L76.9154 94.6525L76.8576 94.7026C76.9104 94.8709 76.943 95.0744 77.2069 94.9739L77.0587 95.102L77.3929 95.5291L77.4131 95.4689L77.3502 95.4562C78.1721 97.506 78.4385 99.5808 77.6392 101.706L77.6795 101.646C77.584 101.834 77.4859 102.022 77.3904 102.213H77.4583V102.143L77.2069 102.47L77.222 102.444L76.8375 102.912L76.9179 102.939C76.9261 102.911 76.9328 102.883 76.9381 102.854C76.8546 102.866 76.7775 102.905 76.7195 102.967C76.6615 103.028 76.626 103.107 76.6189 103.191H76.7018C76.7018 103.191 76.6892 103.11 76.6867 103.108C76.5158 103.168 76.3449 103.228 76.4354 103.469L76.4781 103.379L76.3876 103.331L75.3973 103.889V103.819C74.5453 104.123 73.746 103.884 72.9543 103.58C72.9547 103.561 72.9509 103.543 72.9432 103.526C72.9355 103.509 72.9241 103.494 72.9099 103.483C72.8956 103.471 72.8789 103.462 72.8609 103.458C72.8429 103.453 72.8241 103.453 72.806 103.457C72.7038 100.372 72.6016 97.2875 72.4994 94.2028L72.4743 94.2329L73.0096 93.7129L72.9442 93.7405C74.211 93.3361 75.3948 93.4868 76.458 94.3359ZM75.7216 101.477C76.7596 100.036 76.6641 97.9481 75.4702 96.1722C75.2616 95.8004 74.9826 95.386 74.5352 95.5266C74.0879 95.6673 74.3216 96.1672 74.3216 96.5163C74.3216 98.0109 74.3216 99.5055 74.3216 100.998C74.3216 101.392 74.0979 101.972 74.5101 102.136C75.0228 102.331 75.4476 101.93 75.7216 101.477Z" fill="#1D2831"/>
<path d="M84.7646 117.84L83.8447 117.76C83.5431 116.449 83.8723 115.115 83.6989 113.799C83.7619 113.433 83.7037 113.058 83.533 112.729L83.4375 110.784C83.4526 110.252 83.533 109.712 83.2892 109.204L83.5405 108.257L83.7642 108.139C84.9179 107.742 86.0765 107.491 87.2528 108.061L87.2076 108.021C87.2562 108.116 87.3305 108.195 87.422 108.25C87.5136 108.305 87.6187 108.332 87.7254 108.33L87.6348 108.313L87.6173 108.401L88.2155 109.076L88.2004 108.996C88.3285 109.812 88.6754 110.614 88.3562 111.458L88.4341 111.445L88.0948 112.158L88.1526 112.209C87.9993 112.475 87.846 112.741 87.6952 113.007L87.7304 112.97C87.3383 113.254 87.3961 113.537 87.7304 113.821L87.6977 113.771L87.9817 114.336L87.9515 114.271L88.2155 114.856L88.1753 114.788C88.2657 114.982 88.3587 115.175 88.4517 115.369C88.4517 115.369 88.4341 115.286 88.4316 115.286C88.4869 115.57 88.497 115.874 88.7483 116.077L88.7232 116.042C88.7382 116.544 89.1756 117.125 88.5347 117.496C87.9591 117.825 87.6525 117.293 87.2905 116.994V117.052C87.2554 116.841 87.2403 116.62 87.0191 116.497L87.0493 116.532C86.9316 115.958 86.6625 115.427 86.2701 114.992L86.2877 115.042C86.2525 114.886 86.2173 114.731 86.0213 114.703L86.0715 114.638C85.7297 114.218 85.4281 113.98 85.3753 114.798C85.315 115.713 85.2622 116.625 85.2069 117.539L85.2271 117.519L84.7646 117.84ZM85.506 109.3C85.2723 109.32 85.0486 109.425 85.0561 109.729C85.0762 110.428 85.1164 111.129 85.1767 111.824C85.1767 111.947 85.2069 112.201 85.4507 112.128C86.1218 111.927 86.6697 111.568 86.7326 110.802C86.8055 109.955 86.3128 109.513 85.506 109.287V109.3Z" fill="#1D2831"/>
<path d="M98.93 116.024C97.324 117.823 96.4568 117.692 95.1121 115.447L94.7729 114.281C94.815 114.002 94.7454 113.718 94.5793 113.49C94.5366 111.905 94.3581 110.312 94.8759 108.762L94.8382 108.807C95.0619 108.682 95.0619 108.451 95.1071 108.24L95.087 108.303L95.8411 107.504L95.8184 107.519L96.1376 107.25L96.0748 107.27L96.0974 107.333C96.5598 107.165 97.052 107.096 97.5426 107.129V107.067H97.4773L98.0779 107.3L98.0201 107.278L98.7189 107.901L98.749 107.838C98.7277 107.828 98.7058 107.82 98.6836 107.813L99.0481 108.315L99.0205 108.26C99.0758 108.403 99.0531 108.619 99.3145 108.559L99.1939 108.524L99.1587 108.642C99.9963 110.658 100.085 112.908 99.4101 114.984L99.4804 114.962C99.395 115.155 99.312 115.349 99.2291 115.545L99.2718 115.467L98.93 116.024ZM97.623 109.471C96.6629 108.325 96.693 109.508 96.4216 109.973C96.4015 110.066 96.3839 110.156 96.3638 110.249C96.2535 111.251 96.2535 112.262 96.3638 113.264C96.3379 113.345 96.3252 113.43 96.3261 113.515C96.3261 113.542 96.2984 113.575 96.3035 113.6C96.3085 113.625 96.3437 113.713 96.3638 113.769C96.5146 114.228 96.6554 114.69 96.8212 115.145C97.0022 115.647 97.2535 115.718 97.5602 115.231C97.8542 115.004 97.8316 114.638 97.9548 114.336H97.8668C98.2513 112.688 98.4097 111.053 97.6004 109.468L97.623 109.471Z" fill="#1D2831"/>
<path d="M97.3291 95.818C96.5147 94.1098 96.5876 93.7883 98.0831 92.5675L98.6713 92.2359L98.6285 92.1857C98.6285 92.1857 98.5807 92.2284 98.5807 92.2309C99.6012 92.1078 100.614 92.0752 101.597 92.4972L101.549 92.457L101.969 92.8313L102.079 92.8112C102.079 92.8112 102.059 92.7006 102.052 92.7082C102.052 93.2106 102.067 93.7004 102.077 94.1928L102.11 94.1173L101.821 94.4414L101.868 94.3786H100.848H100.928C100.663 94.1865 100.387 94.0096 100.101 93.8486C99.6992 93.6451 99.2166 93.62 98.9452 93.9792C98.626 94.4063 99.0407 94.7328 99.3247 95.0217C99.5911 95.5869 100.189 95.7753 100.632 96.1295C101.763 97.0589 102.595 98.1391 102.642 99.6839C102.68 100.822 102.28 101.694 101.333 102.327C100.076 102.914 98.8522 102.902 97.6935 102.063L97.7338 102.088C97.5528 101.837 97.3693 101.598 97.1858 101.354V101.317C97.0338 100.976 97.0011 100.593 97.0928 100.232C97.6156 99.7141 98.1409 99.4226 98.6838 100.204C99.0583 100.99 99.5936 101.256 100.378 100.729L100.36 100.746C101.24 99.8598 100.612 99.1312 100.109 98.3927L100.124 98.4455L99.8274 98.1516L99.8727 98.1943L99.5735 97.913H99.6213L98.8673 97.3201L98.8245 97.3855L98.8924 97.4256C98.8648 97.2347 98.724 97.1745 98.5606 97.1494L98.6209 97.182L98.3294 96.8855L97.6156 96.1696L97.3291 95.818Z" fill="#1D2831"/>
<path d="M93.3076 94.4841C93.0261 94.4841 92.7169 94.356 92.5108 94.6725C92.5988 95.5818 91.9604 96.9334 93.8027 96.7776L93.7298 96.7374L94.2903 97.0488L94.3305 96.981C94.3073 96.9665 94.2829 96.9539 94.2576 96.9433C94.2576 97.3553 94.2425 97.7673 94.2375 98.1818C94.1169 98.335 93.8329 98.3878 93.9284 98.6842C93.486 98.8474 92.7295 98.3224 92.6113 99.0584C92.5108 99.6788 92.3449 100.41 92.8124 101.018C93.0869 101.131 93.3816 101.187 93.6784 101.182C93.9752 101.178 94.268 101.113 94.5391 100.993C96.3965 100.905 96.4619 100.952 96.2156 102.211L96.0446 102.397L95.5244 102.716L95.5671 102.691L91.5306 103.193L91.5683 103.213L91.043 102.696L91.0581 102.716C90.7188 100.392 90.8696 98.0461 90.7339 95.7125C90.7968 95.4234 90.7435 95.1212 90.5855 94.8709C90.5855 94.3861 90.573 93.9013 90.568 93.4165V93.4869C90.7051 93.2853 90.8883 93.1192 91.1025 93.0025C91.3167 92.8859 91.5557 92.822 91.7995 92.8162C92.6616 92.7986 93.5237 92.7558 94.3808 92.6579C95.5068 92.5273 95.6928 92.992 95.2731 93.9139L95.0468 94.1199C94.4937 94.3448 93.9045 94.4681 93.3076 94.4841Z" fill="#1D2831"/>
<path d="M62.7071 108.976C62.5161 109.355 62.3276 109.729 62.1365 110.116C61.5509 110.433 60.905 110.367 60.2967 110.307C59.6885 110.247 59.6206 110.458 59.6055 110.985C59.5804 112.005 59.5377 112.95 61.0206 112.729C61.2291 112.735 61.4348 112.778 61.6288 112.854L61.5962 112.776L61.5208 112.811C62.0536 113.553 61.5911 114.03 61.0759 114.492C61.0993 114.493 61.1228 114.493 61.1463 114.492L60.3923 114.51C60.2214 114.412 60.063 114.218 59.8493 114.439L59.7865 114.492C59.5754 115.185 59.6659 115.884 59.7488 116.582L59.8594 116.863C60.6029 117.131 61.4193 117.115 62.1516 116.818L62.6543 116.743C63.0263 116.768 63.157 117.039 63.255 117.336C63.2399 117.647 63.2248 117.959 63.2123 118.27C61.7746 118.742 60.2641 118.642 58.7912 118.825C58.3187 118.886 58.1578 118.511 57.909 118.25C57.9291 115.09 57.9484 111.932 57.9668 108.775L57.8965 108.81C57.8965 108.81 57.9316 108.88 57.9342 108.88C59.3794 108.197 60.9151 108.589 62.4105 108.496L62.7071 108.976Z" fill="#1D2831"/>
<path d="M64.1196 117.285C64.0668 117.197 64.0165 117.107 63.9663 117.017C63.843 116.606 63.8761 116.164 64.0592 115.776C65.0269 115.037 65.135 116.22 65.6528 116.489C66.0222 116.921 66.3892 116.773 66.7562 116.489H66.8215L66.8416 116.426C67.4423 115.725 67.3569 115.08 66.6858 114.482L66.7058 114.502C66.5148 114.21 66.2383 113.985 65.9142 113.856C65.4668 113.487 64.9967 113.141 64.572 112.744C63.637 111.877 63.5666 110.802 63.8934 109.649L64.1648 109.242L64.1422 109.282L64.4288 108.996L64.3935 109.031L64.6901 108.747L64.6575 108.807L65.7282 108.305L65.6653 108.348C66.2441 108.219 66.8435 108.213 67.4247 108.33L67.3694 108.282L67.3242 108.34L67.8269 108.642L67.7766 108.679C68.1586 109.064 68.4099 109.496 68.2792 110.066C68.2792 110.066 68.2994 110.119 68.2968 110.116C67.9651 110.518 67.578 110.443 67.1784 110.249H67.191L66.6732 109.925L66.7335 109.945C65.6528 109.787 65.4517 110.109 65.889 111.304L65.8714 111.259C65.9142 111.41 65.9896 111.53 66.168 111.535L66.1454 111.51L66.4168 111.895L67.7816 113.023C67.8771 113.171 67.9601 113.334 68.1812 113.299L68.1134 113.249L68.0656 113.316C68.4442 113.802 68.7106 114.364 68.8458 114.965C68.9809 115.565 68.9814 116.188 68.8473 116.788L68.9076 116.753L68.8699 116.695C68.7618 116.891 68.6537 117.087 68.5482 117.283C67.6358 118.481 66.3616 118.438 65.0596 118.288C65.0301 118.205 64.9748 118.134 64.902 118.085C64.8291 118.036 64.7426 118.012 64.6549 118.016L64.7027 118.039L64.4061 117.765L64.4313 117.79L64.1799 117.459L64.2503 117.489C64.2265 117.41 64.1813 117.34 64.1196 117.285Z" fill="#1D2831"/>
<path d="M62.2044 96.4335C62.1782 96.5152 62.1782 96.603 62.2044 96.6847C62.1314 97.3901 62.1669 98.1026 62.3099 98.7973L62.3401 103.866L62.3954 103.829C62.1742 103.871 62.1717 104.08 62.1139 104.226L61.8927 104.427C61.4227 104.62 61.0784 104.341 60.7215 104.115H60.8044C60.357 102.153 60.7341 100.146 60.4752 98.1667C60.1887 95.9562 60.254 95.9486 58.002 95.9059C57.7331 95.494 57.4616 95.0846 57.6401 94.5545C57.7783 94.4591 57.9567 94.3912 57.9115 94.1701L57.8512 94.2279L57.909 94.2907C60.0554 93.7883 62.1993 93.5371 64.3382 94.3158L64.4061 94.2506C64.3839 94.2275 64.3604 94.2057 64.3357 94.1852C64.3357 94.5193 64.3357 94.8484 64.3357 95.19L64.3759 95.1171C63.9386 95.5492 63.358 95.6196 62.8001 95.6698C62.2421 95.7201 62.046 95.9085 62.2044 96.4335Z" fill="#1D2831"/>
<path d="M91.0858 113.515C91.0602 114.243 91.2787 114.958 91.7066 115.547C92.1715 116.25 92.5637 115.924 92.9457 115.459L92.9683 115.379C93.1291 115.14 93.29 114.907 93.4509 114.67L93.4257 114.57C93.3934 114.576 93.3616 114.585 93.3303 114.595C94.0843 114.399 94.7026 114.394 94.5241 115.472C94.4764 115.577 94.4261 115.685 94.3758 115.791L93.946 116.984C93.946 116.984 94.0013 116.936 93.9963 116.934C93.8404 117.047 93.6871 117.165 93.5338 117.283C93.3956 117.321 93.2272 117.318 93.2121 117.521L93.2925 117.469L93.2397 117.391C92.7462 117.583 92.2096 117.638 91.6873 117.55C91.1649 117.461 90.6764 117.233 90.2739 116.888C89.7914 116.077 89.5928 115.175 89.4295 114.263C89.1429 112.206 89.0927 110.176 90.0679 108.252L90.015 108.267L90.3368 108.016C91.41 107.363 92.438 107.308 93.3855 108.255C93.4509 109.059 93.3 109.659 92.2771 109.443H92.355C92.0534 109.179 91.7568 109.149 91.4678 109.463L91.4879 109.445C90.6962 110.734 91.1084 112.146 91.0858 113.515Z" fill="#1D2831"/>
<path d="M72.2379 112.51C72.3083 114.005 72.3661 115.499 72.4516 116.994C72.4842 117.542 72.3586 117.999 71.8484 118.25C71.3382 118.501 71.0014 118.129 70.6947 117.778C70.6746 116.866 70.652 115.951 70.6319 115.04V114.537C70.6545 114.088 70.7047 113.633 70.4785 113.211C70.4534 112.422 70.4182 111.633 70.4107 110.845C70.4107 110.375 70.3529 110.051 69.7245 110.109C68.7192 110.202 68.5231 109.606 68.7418 108.76L68.9353 108.589C70.2649 108.2 71.6322 108.237 72.997 108.225C73.4318 108.225 73.8339 108.237 74.0023 108.74C74.0139 108.979 73.965 109.218 73.86 109.434C73.755 109.65 73.5974 109.836 73.4016 109.976C72.4114 109.86 71.969 110.227 72.1776 111.272C72.2295 111.682 72.2496 112.096 72.2379 112.51Z" fill="#1D2831"/>
<path d="M101.109 116.71L100.873 116.529C100.4 113.688 100.596 110.822 100.576 107.966C100.574 107.736 100.647 107.512 100.782 107.326C100.918 107.14 101.11 107.004 101.33 106.936C101.521 106.926 101.71 106.978 101.869 107.085C102.027 107.192 102.146 107.348 102.207 107.529C102.248 109.237 102.293 110.945 102.328 112.656C102.373 114.665 102.371 114.665 104.339 114.861C104.761 115.306 104.59 115.851 104.59 116.368C103.469 116.841 102.288 116.753 101.109 116.71Z" fill="#1D2831"/>
<path d="M75.1634 111.505V111.003C75.1835 110.249 75.2061 109.496 75.2262 108.742V108.757L75.7943 108.272L75.7214 108.318C76.1914 108.137 76.5659 108.345 76.9278 108.606L76.9856 108.546L76.9228 108.488C76.9697 111.267 77.0216 114.044 77.0786 116.821C77.0977 117.027 77.0652 117.236 76.9841 117.427C76.9029 117.618 76.7757 117.786 76.6136 117.916L76.6312 117.871L75.9752 118.006L75.9978 118.021L75.5178 117.652L75.5404 117.732L75.6183 117.702C74.9749 115.678 75.3569 113.57 75.1634 111.505Z" fill="#1D2831"/>
<path d="M81.0675 106.858C80.5648 107.182 80.0948 107.637 79.4036 107.438H79.3584L79.014 107.145L78.9713 107.195C78.9713 107.195 79.0216 107.237 79.0266 107.235C78.9817 107.027 78.9861 106.812 79.0394 106.607C79.0926 106.401 79.1932 106.211 79.3332 106.052L79.3886 106.105C79.4124 106.094 79.4332 106.078 79.4491 106.057C79.4649 106.037 79.4752 106.012 79.479 105.986C79.8033 105.735 80.1175 105.469 80.4568 105.233C80.7961 104.997 81.1731 104.821 81.5853 105.16C81.9975 105.499 82.0452 105.816 81.7662 106.233C81.7325 106.251 81.703 106.277 81.6797 106.308C81.6563 106.338 81.6395 106.373 81.6305 106.411L81.6933 106.371L81.1027 106.858H81.0675Z" fill="#1D2831"/>
<path d="M62.3124 96.7098C62.3602 97.4056 62.4708 98.0989 62.2924 98.7922C62.1494 98.0976 62.1137 97.3851 62.1868 96.6796L62.3124 96.7098Z" fill="#BD9F6F"/>
<path d="M70.5238 114.51L70.481 113.213C70.7073 113.635 70.657 114.09 70.6344 114.54L70.5238 114.51Z" fill="#BD9F6F"/>
<path d="M65.9922 40.743C65.223 40.9252 64.4296 40.9829 63.6421 40.9138C64.4039 40.6879 65.2057 40.6296 65.9922 40.743Z" fill="#5D563B"/>
<path d="M83.4375 110.794C83.1736 110.292 83.2088 109.752 83.2892 109.214C83.533 109.712 83.4526 110.252 83.4375 110.794Z" fill="#BD9F6F"/>
<path d="M83.6989 113.809C83.5098 113.486 83.4505 113.104 83.533 112.739C83.7037 113.068 83.7619 113.444 83.6989 113.809Z" fill="#BD9F6F"/>
<path d="M94.773 114.281C94.6844 114.171 94.6212 114.044 94.5878 113.907C94.5543 113.77 94.5514 113.628 94.5794 113.49C94.7455 113.718 94.8151 114.002 94.773 114.281Z" fill="#BD9F6F"/>
<path d="M96.3286 113.502C96.3512 113.556 96.3705 113.612 96.3864 113.668C96.3864 113.696 96.3738 113.726 96.3663 113.756C96.3462 113.701 96.3211 113.645 96.306 113.588C96.2909 113.53 96.3211 113.53 96.3286 113.502Z" fill="#5D563B"/>
<path d="M92.8125 101.013L94.5392 100.988C94.2681 101.108 93.9753 101.173 93.6784 101.177C93.3816 101.182 93.087 101.126 92.8125 101.013Z" fill="#61452D"/>
<path d="M90.734 95.7225C90.649 95.6018 90.5915 95.4637 90.5659 95.3183C90.5403 95.1728 90.547 95.0235 90.5857 94.881C90.7437 95.1312 90.7969 95.4335 90.734 95.7225Z" fill="#BD9F6F"/>
<path d="M59.8494 116.858L62.1416 116.813C61.4093 117.11 60.5929 117.126 59.8494 116.858Z" fill="#A37E53"/>
<path d="M59.7765 114.487C59.8645 115.185 59.96 115.884 59.7388 116.577C59.6559 115.879 59.5654 115.18 59.7765 114.487Z" fill="#A37E53"/>
<path d="M60.3821 114.505L59.8393 114.434C60.0529 114.213 60.2112 114.407 60.3821 114.505Z" fill="#A37E53"/>
<path d="M83.1058 117.416C83.0455 117.516 82.9852 117.617 82.9274 117.717L80.4944 117.851H79.2151C79.0842 117.824 78.9652 117.757 78.8749 117.658C78.7846 117.56 78.7277 117.436 78.7124 117.303C78.6395 117.052 78.5692 116.801 78.4963 116.534C78.4963 113.783 78.5046 111.032 78.5214 108.282C79.7052 107.715 80.9644 108.004 82.1909 107.991C82.6811 107.991 82.8821 108.343 82.6056 108.868C82.5016 109.068 82.3463 109.237 82.1555 109.357C81.9648 109.478 81.7454 109.546 81.5199 109.554C80.2808 109.722 79.8686 110.395 80.1777 111.613C80.3662 112.367 81.0423 111.847 81.4042 112.116L81.3816 112.091C81.9547 112.616 81.9974 113.166 81.4545 113.739L81.4771 113.718C80.331 113.646 80.1777 114.291 80.2204 115.261C80.2757 116.532 81.1454 115.796 81.6506 115.921C82.0939 116.004 82.5423 116.058 82.9927 116.082H82.9701C83.2215 116.509 83.3948 116.939 83.1058 117.416Z" fill="#1D2831"/>
<path d="M78.4912 116.542C78.5641 116.793 78.6344 117.044 78.7073 117.31C78.6626 117.267 78.6118 117.231 78.5566 117.202C78.5415 116.981 78.5138 116.76 78.4912 116.542Z" fill="#61452D"/>
<path d="M106.239 113.231C105.998 113 105.797 112.731 105.643 112.435C104.653 110.927 104.676 109.923 105.814 108.491C106.066 108.179 106.005 108.102 105.784 107.83C104.502 106.253 104.547 105.117 105.887 103.527L106.365 103.228L106.903 103C106.903 103 106.903 103.012 106.903 103.02C107.657 103.098 107.624 102.603 107.629 102.078C107.669 98.4606 107.599 94.8484 107.29 91.2463C107.199 90.1762 107.29 89.003 106.402 88.1389C106.035 87.6189 105.482 87.7521 104.972 87.7295C104.623 87.8988 104.229 87.9483 103.849 87.8702L102.373 87.963C102.044 88.1476 101.657 88.2006 101.29 88.1113L98.7013 88.2419C98.1727 88.4122 97.612 88.4585 97.0626 88.3775L94.6573 88.4705C94.1308 88.6203 93.5798 88.6647 93.0361 88.6011L92.3047 88.6187L91.7895 88.6387L88.3788 88.7317C87.9383 88.8856 87.4653 88.9219 87.0065 88.8372L86.524 88.8549L86.0087 88.8699L84.5258 88.9678L83.5506 88.9503C82.9608 89.1106 82.3476 89.1668 81.7384 89.1161L80.2304 89.2316L74.0625 89.4828C73.2885 89.6779 72.4857 89.7323 71.6924 89.6435C65.476 89.8294 59.2604 90.0144 53.0456 90.1987C51.4069 90.2464 51.1204 90.5227 51.0927 92.2082C51.0424 95.2955 51.2636 98.3752 51.4019 101.457C51.2335 102.339 51.9046 102.462 52.4902 102.693C54.8578 103.643 55.6117 105.74 54.3827 107.968C54.2445 108.22 54.0259 108.302 54.5059 108.546C56.768 109.692 57.0394 112.585 55.1292 114.261C54.3752 114.934 53.4 115.248 52.5781 115.811C51.9799 115.758 51.9096 116.13 51.9146 116.602C51.9146 117.265 51.8442 117.933 51.8869 118.594C51.9749 120.023 51.8543 121.51 52.837 122.739L52.8496 122.807L52.9174 122.829C53.39 123.357 54.0283 123.332 54.6516 123.332C56.4462 123.332 58.2383 123.302 60.0329 123.284C60.8092 123.092 61.6136 123.041 62.408 123.133C68.1888 123.015 73.9545 122.96 79.7152 122.533C79.8767 122.437 80.0558 122.375 80.242 122.35C80.4281 122.325 80.6173 122.337 80.7984 122.387L83.2364 122.294H83.533L83.9829 122.274C84.1613 122.126 84.3448 122.056 84.5434 122.244L88.2556 122.02C88.4141 121.921 88.592 121.856 88.7775 121.83C88.963 121.805 89.1518 121.819 89.3314 121.872L96.7987 121.503C96.953 121.406 97.1263 121.342 97.307 121.317C97.4878 121.292 97.6718 121.306 97.8468 121.357L100.322 121.284C100.734 121.078 101.206 121.026 101.652 121.139L105.872 120.812C106.82 120.737 107.551 120.38 107.782 119.363C108.275 117.044 108.37 114.866 106.239 113.231ZM79.3885 106.105C79.4123 106.094 79.4331 106.078 79.449 106.057C79.4648 106.037 79.4751 106.012 79.4789 105.986C79.8031 105.735 80.1173 105.469 80.4567 105.233C80.796 104.997 81.173 104.821 81.5852 105.16C81.9974 105.499 82.0451 105.816 81.7661 106.233C81.7324 106.251 81.7029 106.277 81.6795 106.308C81.6562 106.338 81.6394 106.373 81.6304 106.411L81.6932 106.371L81.1026 106.858H81.0674C80.5647 107.182 80.0947 107.637 79.4035 107.438H79.3558L79.0139 107.142C78.9844 106.948 78.9977 106.749 79.0528 106.56C79.1079 106.372 79.2036 106.197 79.3331 106.049L79.3885 106.105ZM83.2088 103.429C83.3071 103.418 83.4 103.378 83.4769 103.316C83.5538 103.254 83.6116 103.171 83.6436 103.078C83.6107 103.171 83.5523 103.253 83.4751 103.316C83.3978 103.378 83.3047 103.417 83.2063 103.429C83.029 103.673 82.7719 103.846 82.4799 103.919C82.7728 103.846 83.0308 103.673 83.2088 103.429ZM84.3976 102.173C84.3987 102.228 84.3901 102.282 84.3725 102.334C84.3896 102.284 84.3981 102.231 84.3976 102.178V102.173ZM85.9886 107.464C85.4336 107.376 84.8651 107.464 84.3624 107.715C84.8656 107.466 85.4341 107.379 85.9886 107.468V107.464ZM99.2744 115.484C99.3523 115.418 99.4126 115.334 99.4499 115.239C99.4871 115.143 99.5003 115.041 99.488 114.939C99.501 115.041 99.4882 115.144 99.4508 115.239C99.4135 115.334 99.3528 115.419 99.2744 115.484C99.27 115.589 99.2379 115.69 99.1814 115.778C99.2371 115.692 99.2691 115.592 99.2744 115.489V115.484ZM99.488 114.939C99.4076 115.123 99.3272 115.308 99.2367 115.494L98.9175 116.019C97.3114 117.818 96.4443 117.687 95.0996 115.442L94.7603 114.276C94.6718 114.166 94.6086 114.039 94.5751 113.902C94.5417 113.765 94.5388 113.623 94.5668 113.485C94.5241 111.907 94.3481 110.322 94.8583 108.78C94.9278 108.718 94.9838 108.643 95.0227 108.559C95.0616 108.474 95.0827 108.383 95.0846 108.29L95.821 107.499L96.0723 107.29L96.0849 107.328C96.5472 107.16 97.0394 107.091 97.5301 107.124V107.077L98.0126 107.263L98.7114 107.886V107.86C98.8094 107.999 98.9099 108.134 99.0105 108.27C99.0431 108.378 99.0532 108.508 99.1638 108.539L99.1386 108.619C99.9763 110.636 100.065 112.885 99.39 114.962L99.488 114.939ZM93.5514 117.27C93.4483 117.298 93.3277 117.305 93.2699 117.393V117.378C92.7764 117.571 92.2398 117.626 91.7174 117.537C91.1951 117.449 90.7066 117.22 90.3041 116.876C89.8215 116.065 89.6229 115.163 89.4596 114.251C89.173 112.194 89.1228 110.164 90.098 108.24L90.0427 108.255L90.3669 108.004C91.4402 107.351 92.4681 107.295 93.4156 108.242C93.5083 108.292 93.587 108.364 93.6446 108.451C93.7021 108.539 93.7366 108.64 93.7449 108.745C93.7362 108.64 93.7015 108.539 93.644 108.452C93.5865 108.364 93.508 108.292 93.4156 108.242C93.481 109.033 93.3327 109.629 92.3449 109.438H92.3852C92.0886 109.187 91.7995 109.147 91.518 109.438L91.498 109.455C90.7088 110.739 91.1109 112.143 91.0933 113.507C91.0678 114.235 91.2863 114.95 91.7141 115.54L92.9532 115.452L92.9758 115.371C93.1367 115.133 93.2976 114.899 93.4584 114.663L93.4358 114.565C94.1496 114.391 94.6925 114.434 94.5316 115.464C94.4839 115.57 94.4336 115.678 94.3833 115.783L93.9561 116.966L93.5514 117.27ZM86.0489 114.695C86.1294 114.801 86.2123 114.904 86.3003 115.007C86.2199 114.904 86.1369 114.801 86.0489 114.695ZM87.0543 116.509C87.1372 116.68 87.2202 116.851 87.3056 117.012C87.2227 116.838 87.1372 116.667 87.0543 116.494C86.9186 116.421 86.7948 116.328 86.6873 116.218C86.791 116.335 86.9123 116.435 87.0468 116.514L87.0543 116.509ZM88.4592 115.296C88.5565 115.376 88.6343 115.478 88.687 115.593C88.7396 115.708 88.7657 115.833 88.7634 115.959C88.7642 115.833 88.7367 115.708 88.6827 115.594C88.6288 115.48 88.5498 115.38 88.4517 115.301L88.4592 115.296ZM88.2255 109.016C88.6578 109.651 89.0021 110.292 88.6955 110.973C88.9946 110.292 88.6503 109.651 88.218 109.018L88.2255 109.016ZM97.7035 102.085C97.5697 102.08 97.4403 102.035 97.3315 101.957C97.4374 102.037 97.5639 102.084 97.696 102.093L97.7035 102.085ZM99.0532 108.255C99.0375 108.167 99.0024 108.085 98.9507 108.013C98.899 107.94 98.8318 107.881 98.7541 107.838C98.8309 107.882 98.8973 107.943 98.9485 108.015C98.9997 108.087 99.0346 108.17 99.0507 108.257C99.1412 108.35 99.2316 108.446 99.3246 108.539L99.0532 108.255ZM98.6008 107.501C98.6517 107.571 98.6877 107.65 98.7063 107.735C98.6841 107.653 98.6457 107.577 98.5933 107.511L98.6008 107.501ZM96.0522 102.382L95.5722 102.676L91.5507 103.178L91.0606 102.698C90.7238 100.375 90.8746 98.0311 90.7389 95.7C90.6538 95.5792 90.5964 95.4412 90.5708 95.2957C90.5451 95.1503 90.5519 95.001 90.5906 94.8584L90.5755 93.4693C90.7124 93.2689 90.895 93.1041 91.1083 92.9883C91.3216 92.8726 91.5594 92.8092 91.8021 92.8036C92.6642 92.786 93.5263 92.7433 94.3833 92.6454C95.5093 92.5148 95.6953 92.9795 95.2756 93.9014L95.0493 94.1073C94.4963 94.3284 93.9081 94.4485 93.3126 94.4615C93.0311 94.4615 92.722 94.3334 92.5159 94.6499C92.6039 95.5593 91.9654 96.9107 93.8077 96.7549L93.7348 96.7148L94.2602 97.0087C94.2602 97.393 94.2476 97.7749 94.2426 98.1592C94.1219 98.3124 93.8379 98.3652 93.9334 98.6616C93.4911 98.8249 92.7345 98.2998 92.6164 99.0358C92.5159 99.6563 92.35 100.387 92.8175 100.995L94.5442 100.97C96.4016 100.882 96.4669 100.93 96.2206 102.188C96.1578 102.266 96.1024 102.329 96.0446 102.392L96.0522 102.382ZM93.3478 114.577H93.3327C94.1395 114.088 94.2929 113.442 94.2149 112.6C94.2853 113.452 94.1244 114.098 93.3402 114.587L93.3478 114.577ZM91.0556 102.701C90.9608 102.653 90.8756 102.588 90.8043 102.51C90.8724 102.591 90.9551 102.659 91.048 102.711L91.0556 102.701ZM91.5759 103.203C91.4437 103.186 91.3204 103.127 91.224 103.035C91.3167 103.13 91.4373 103.193 91.5683 103.216L91.5759 103.203ZM95.5621 102.678C94.6824 103.118 93.7901 103.452 92.8526 103.432C93.7901 103.432 94.6824 103.11 95.5646 102.678H95.5621ZM94.0842 111.555C94.0088 110.721 94.0641 109.875 94.5643 109.139C94.0566 109.888 94.0013 110.734 94.0767 111.568L94.0842 111.555ZM94.8383 108.792C94.9162 108.627 94.9941 108.461 95.0745 108.29C94.9941 108.473 94.9162 108.639 94.8383 108.805V108.792ZM95.0896 108.262C95.0824 108.065 95.1528 107.873 95.2857 107.727C95.2174 107.802 95.1648 107.89 95.1311 107.985C95.0975 108.08 95.0833 108.181 95.0896 108.282V108.262ZM90.7741 102.485C90.7173 102.418 90.6707 102.344 90.6359 102.264C90.6689 102.351 90.7155 102.432 90.7741 102.505V102.485ZM94.3079 97.0112C94.5366 97.3528 94.6296 97.6919 94.3758 98.016C94.6271 97.6969 94.5391 97.3579 94.3079 97.0188V97.0112ZM97.1556 101.513C97.1504 101.564 97.1504 101.615 97.1556 101.666C97.1509 101.617 97.1509 101.569 97.1556 101.52V101.513ZM96.7887 100.807C96.8336 101.02 96.8412 101.239 96.8112 101.455C96.8403 101.242 96.8327 101.025 96.7887 100.814V100.807ZM96.7887 100.724C96.7877 100.671 96.7945 100.619 96.8087 100.568C96.7929 100.621 96.7853 100.676 96.7861 100.731L96.7887 100.724ZM96.3613 100.975C96.4245 101.017 96.4835 101.065 96.5373 101.118C96.4827 101.065 96.4229 101.017 96.3588 100.975H96.3613ZM95.7883 100.749C95.9658 100.783 96.1359 100.847 96.291 100.94C96.1353 100.846 95.9643 100.781 95.7858 100.746L95.7883 100.749ZM95.2857 100.699C95.3937 100.699 95.4992 100.699 95.6023 100.719C95.4942 100.709 95.3812 100.701 95.2806 100.699H95.2857ZM90.5755 93.4392C90.5779 93.3043 90.6101 93.1715 90.6696 93.0504C90.7291 92.9293 90.8145 92.8228 90.9199 92.7384C90.8136 92.8223 90.7272 92.9286 90.6668 93.0498C90.6064 93.1709 90.5736 93.3039 90.5705 93.4392H90.5755ZM100.031 113.985C100.003 114.178 99.9458 114.365 99.86 114.54C99.9432 114.364 99.9983 114.177 100.023 113.985H100.031ZM99.8298 114.585C99.8085 114.626 99.7833 114.665 99.7544 114.7C99.7807 114.664 99.8034 114.626 99.8223 114.585H99.8298ZM100.348 102.967C100.403 102.947 100.456 102.919 100.508 102.894C100.448 102.919 100.408 102.947 100.34 102.967H100.348ZM100.599 102.854C100.865 102.716 101.11 102.542 101.328 102.337C100.071 102.917 98.8722 102.912 97.7236 102.085C97.5427 101.834 97.3591 101.596 97.1757 101.352V101.314C97.0237 100.973 96.9909 100.591 97.0827 100.229C97.6055 99.7115 98.1308 99.4202 98.6737 100.201C99.0457 100.983 99.576 101.249 100.348 100.739L100.365 100.721C101.222 99.8447 100.617 99.1213 100.114 98.3853V98.4279L99.8424 98.1592L99.5785 97.908H99.6213L98.8672 97.3151C98.8401 97.2674 98.802 97.2269 98.7561 97.1967C98.7102 97.1666 98.6579 97.1477 98.6033 97.1418L98.3369 96.8705L97.6231 96.1547L97.3315 95.7878C96.5172 94.0797 96.5901 93.7581 98.0855 92.5373L98.6737 92.2058V92.1933C99.6665 92.0777 100.649 92.0575 101.594 92.4645L101.971 92.8012L102.057 92.7835C102.057 93.2356 102.069 93.6803 102.079 94.1274L101.828 94.4112L101.876 94.3484C101.796 94.4624 101.68 94.5455 101.546 94.5835C101.412 94.6214 101.269 94.6121 101.142 94.557C101.27 94.6116 101.412 94.6207 101.546 94.5827C101.679 94.5448 101.796 94.462 101.876 94.3484H100.931C100.667 94.1578 100.392 93.9817 100.109 93.821C99.7067 93.6176 99.2241 93.5924 98.9526 93.9517C98.6334 94.3787 99.0482 94.7052 99.3322 94.9941C99.5986 95.5593 100.197 95.7476 100.639 96.1018C101.77 97.0312 102.602 98.1115 102.65 99.6563C102.688 100.794 102.288 101.666 101.34 102.299C101.119 102.519 100.867 102.706 100.591 102.854H100.599ZM101.541 92.457C101.64 92.4656 101.734 92.5061 101.808 92.5725C101.733 92.5056 101.639 92.465 101.539 92.457H101.541ZM98.6385 92.2058C99.5332 91.8642 100.418 91.6205 101.23 92.1933C100.418 91.6205 99.5332 91.8641 98.641 92.2082L98.6385 92.2058ZM102.044 92.7082C102.353 93.1302 102.444 93.5547 102.207 93.9843C102.441 93.5598 102.353 93.1403 102.049 92.7283L102.044 92.7082ZM100.858 94.4163C100.707 94.4362 100.554 94.4163 100.413 94.3585C100.554 94.4133 100.706 94.4307 100.855 94.4088L100.858 94.4163ZM100.157 94.2657C100.079 94.2405 100.003 94.2154 99.9304 94.1978C100.001 94.2154 100.076 94.2329 100.157 94.258V94.2657ZM102.595 108.237C102.589 108.141 102.57 108.047 102.539 107.956C102.57 108.048 102.587 108.143 102.592 108.24L102.595 108.237ZM87.2353 108.046C87.2789 108.119 87.338 108.181 87.4084 108.228C87.4788 108.274 87.5587 108.305 87.6424 108.318L87.6248 108.398L88.2205 109.071C88.3587 109.86 88.6729 110.636 88.3638 111.455L88.4416 111.442C88.4969 111.724 88.4668 111.965 88.2205 112.103C88.4718 111.965 88.4969 111.724 88.4416 111.442L88.1024 112.156L88.1627 112.209C88.2042 112.351 88.1932 112.503 88.1319 112.639C88.0706 112.774 87.9629 112.882 87.8284 112.945C87.963 112.882 88.0705 112.772 88.1314 112.637C88.1923 112.501 88.2025 112.349 88.1602 112.206L87.7128 112.987C87.3559 113.261 87.4112 113.535 87.7128 113.809C87.7982 113.977 87.8812 114.145 87.9641 114.311C88.0471 114.477 88.1099 114.638 88.1853 114.801L88.1677 114.786C88.2582 114.977 88.3462 115.165 88.4367 115.351C88.4458 115.609 88.5444 115.856 88.7156 116.049C88.7357 116.552 89.163 117.125 88.5271 117.494C87.9541 117.823 87.6474 117.295 87.288 116.991C87.2859 116.897 87.2621 116.804 87.2186 116.72C87.175 116.636 87.1128 116.563 87.0367 116.507C86.9216 115.947 86.6616 115.427 86.2827 114.999C86.25 114.861 86.2048 114.728 86.0313 114.7C86.0464 114.678 86.0564 114.655 86.074 114.633C85.7322 114.213 85.4306 113.975 85.3778 114.793C85.3175 115.703 85.2673 116.615 85.212 117.524L84.752 117.843L83.8321 117.763C83.5305 116.451 83.8597 115.118 83.6863 113.801C83.4972 113.479 83.438 113.096 83.5205 112.731C83.4903 112.083 83.4584 111.435 83.4249 110.787C83.161 110.285 83.1962 109.744 83.2767 109.207L83.528 108.26L83.7517 108.142C84.9154 107.745 86.064 107.496 87.2327 108.049L87.2353 108.046ZM76.6162 117.886L75.9627 118.019L75.5781 117.727H75.6033L75.543 117.707L75.6058 117.727C74.9775 115.69 75.3545 113.583 75.166 111.518V111.015C75.1861 110.262 75.2087 109.508 75.2288 108.755L75.7441 108.315C76.1965 108.154 76.5634 108.355 76.9178 108.611C76.9647 111.351 77.0158 114.09 77.0711 116.828C77.0902 117.035 77.0577 117.243 76.9766 117.434C76.8954 117.625 76.7682 117.793 76.6061 117.923L76.6162 117.886ZM75.5077 117.685C75.3473 117.636 75.2065 117.537 75.1056 117.403C75.2072 117.537 75.3477 117.635 75.5077 117.685ZM75.0553 117.315C75.031 117.267 75.0133 117.215 75.0026 117.162C75.0124 117.219 75.0302 117.274 75.0553 117.326V117.315ZM77.4556 110.232C77.4942 109.635 77.3157 109.044 76.9529 108.569C77.3143 109.045 77.4926 109.635 77.4556 110.232ZM75.7541 108.292C75.8282 108.21 75.9184 108.143 76.019 108.097C76.1197 108.05 76.2288 108.024 76.3397 108.021C76.2295 108.023 76.1209 108.047 76.0202 108.092C75.9196 108.137 75.8291 108.202 75.7541 108.282V108.292ZM75.2137 108.77C75.2424 108.639 75.3088 108.519 75.4047 108.426C75.3096 108.518 75.2433 108.636 75.2137 108.765V108.77ZM74.6482 109.873C74.6457 109.919 74.6457 109.966 74.6482 110.013C74.6455 109.965 74.6455 109.916 74.6482 109.867V109.873ZM77.3903 102.226C77.3249 102.304 77.2596 102.384 77.1967 102.465L76.8373 102.902C76.7838 102.92 76.7355 102.951 76.6966 102.992C76.6576 103.034 76.6292 103.083 76.6137 103.138C76.493 103.181 76.3899 103.233 76.3849 103.359L76.3598 103.346C76.3104 103.522 76.2016 103.674 76.0522 103.778C75.9028 103.882 75.722 103.931 75.5405 103.917C75.722 103.931 75.9027 103.881 76.0518 103.777C76.2008 103.672 76.3088 103.519 76.3573 103.344L75.367 103.902V103.831C74.515 104.135 73.7157 103.897 72.924 103.593C72.9244 103.574 72.9206 103.556 72.9129 103.539C72.9052 103.522 72.8938 103.507 72.8796 103.495C72.8653 103.483 72.8486 103.475 72.8306 103.471C72.8126 103.466 72.7939 103.466 72.7757 103.469C72.6735 100.385 72.5713 97.3017 72.4691 94.2204L72.9718 93.7381C74.2285 93.3563 75.3946 93.5145 76.4427 94.351L76.4628 94.439H76.5508C76.6237 94.5696 76.6916 94.7051 76.8449 94.7252C76.8977 94.8935 76.9328 95.087 77.1917 94.9891L76.855 94.7379L77.1842 94.9891L77.0359 95.1171L77.3425 95.5066C78.1518 97.5463 78.4107 99.6085 77.6165 101.721C77.6291 101.706 77.6391 101.686 77.6517 101.671C77.5813 101.849 77.4858 102.035 77.3903 102.221V102.226ZM73.399 109.983C72.4088 109.867 71.9664 110.234 72.175 111.279C72.2276 111.689 72.2486 112.102 72.2378 112.515C72.3082 114.01 72.366 115.504 72.4515 116.999C72.4842 117.547 72.3585 118.004 71.8483 118.255C71.3381 118.506 71.0013 118.134 70.6946 117.783C70.6745 116.871 70.6519 115.956 70.6318 115.045V114.542L70.5212 114.512L70.4785 113.216C70.4533 112.427 70.4181 111.638 70.4106 110.85C70.4106 110.38 70.3528 110.056 69.7244 110.114C68.7191 110.207 68.5231 109.611 68.7417 108.765L67.769 108.674C68.151 109.059 68.4024 109.491 68.2717 110.061L68.2918 110.114C68.1284 110.546 67.9425 110.777 67.7288 110.762C67.9425 110.777 68.1284 110.546 68.2893 110.111C67.9575 110.513 67.5705 110.438 67.1709 110.244L66.7059 109.95H66.7235L66.6606 109.93L66.6858 109.945C65.6503 109.805 65.4517 110.121 65.8614 111.267C65.9041 111.417 65.977 111.535 66.1554 111.543L66.4068 111.902L67.7715 113.028L68.1033 113.259L67.7715 113.03C67.8494 113.153 67.9199 113.281 68.0682 113.306L68.0531 113.321C68.3531 113.51 68.61 113.76 68.8071 114.055C68.6101 113.761 68.3531 113.512 68.0531 113.324C68.4231 113.799 68.6856 114.349 68.8227 114.935C68.9598 115.521 68.9682 116.13 68.8473 116.72L68.5356 117.29C67.6232 118.489 66.349 118.446 65.0471 118.295C65.0201 118.217 64.9692 118.149 64.9016 118.101C64.8339 118.053 64.7529 118.028 64.67 118.029L64.4187 117.79L64.1674 117.466L64.2377 117.496C64.2205 117.418 64.1822 117.346 64.1271 117.288C64.0743 117.2 64.0241 117.109 63.9738 117.019C63.8506 116.608 63.8836 116.166 64.0668 115.778C65.0344 115.04 65.1425 116.223 65.6603 116.492C66.0298 116.924 66.3967 116.775 66.7637 116.492H66.829L66.8491 116.429C66.7955 115.787 66.7444 115.145 66.6959 114.502C66.7461 115.145 66.7972 115.787 66.8491 116.429C67.4448 115.735 67.3644 115.095 66.7134 114.502C66.5215 114.212 66.2452 113.987 65.9217 113.859C65.4743 113.49 65.0043 113.143 64.5795 112.746C63.6446 111.88 63.5742 110.804 63.9009 109.651L64.1724 109.245L64.1498 109.285L64.4137 109.034L64.6951 108.762C64.7399 108.663 64.8052 108.574 64.8867 108.502C64.9681 108.43 65.0638 108.376 65.1677 108.343C65.0638 108.375 64.9679 108.43 64.8865 108.502C64.805 108.574 64.7398 108.663 64.6951 108.762C64.6836 108.782 64.6735 108.802 64.665 108.822V108.8C64.6654 108.807 64.6654 108.815 64.665 108.822L65.7131 108.32L65.6729 108.353C66.2197 108.23 66.7858 108.22 67.3367 108.323L67.3192 108.343C67.372 108.334 67.4261 108.335 67.4783 108.347C67.5306 108.359 67.5798 108.382 67.6233 108.413C67.5804 108.382 67.5314 108.359 67.4795 108.348C67.4276 108.336 67.3739 108.335 67.3217 108.345L67.8244 108.647L67.7715 108.684L68.7468 108.775L68.9403 108.604C70.2699 108.215 71.6371 108.252 73.0019 108.24C73.4367 108.24 73.8389 108.252 74.0073 108.755C74.0159 108.993 73.9647 109.23 73.8585 109.443C73.7523 109.657 73.5944 109.841 73.399 109.978V109.983ZM72.8461 110.302C72.7871 110.362 72.7356 110.428 72.6928 110.501C72.7349 110.425 72.7864 110.355 72.8461 110.292V110.302ZM72.5168 110.95C72.482 111.116 72.4585 111.284 72.4465 111.453C72.4557 111.282 72.4767 111.113 72.5093 110.945L72.5168 110.95ZM70.1693 111.704C70.2046 111.863 70.2264 112.025 70.2347 112.188C70.2266 112.025 70.2047 111.862 70.1693 111.701V111.704ZM70.5112 117.386C70.4197 117.129 70.3712 116.859 70.3679 116.587C70.3715 116.859 70.4199 117.128 70.5112 117.383V117.386ZM68.8523 116.783C68.8412 116.929 68.7779 117.066 68.6739 117.17C68.7784 117.066 68.8418 116.928 68.8523 116.78V116.783ZM65.9669 110.654C66.0126 110.49 66.0991 110.34 66.2183 110.219C66.1022 110.341 66.0183 110.489 65.9745 110.651L65.9669 110.654ZM62.6317 108.599C62.6036 108.582 62.5742 108.568 62.5437 108.556C62.5741 108.567 62.6035 108.581 62.6317 108.596V108.599ZM62.1868 96.6821L62.3125 96.7123C62.3602 97.4081 62.4708 98.1014 62.2924 98.7947L62.3225 103.844C62.1591 103.909 62.1491 104.095 62.0963 104.223L61.8751 104.424C61.4051 104.617 61.0608 104.339 60.7039 104.113H60.7869C60.3395 102.151 60.7165 100.144 60.4576 98.1642C60.1711 95.9537 60.2364 95.9462 57.9844 95.9035C57.7155 95.4915 57.444 95.082 57.6225 94.5519C57.6954 94.4464 57.7708 94.3434 57.8462 94.2379L57.6225 94.5519C57.7306 94.4766 57.8738 94.4163 57.894 94.3007C60.0379 93.7983 62.1792 93.5472 64.3181 94.3259C64.3181 94.6022 64.3181 94.8761 64.3181 95.1499C63.8858 95.5518 63.3128 95.6296 62.7825 95.6698C62.2522 95.71 62.0284 95.9059 62.1918 96.4234C62.1629 96.5061 62.1612 96.5959 62.1868 96.6796V96.6821ZM57.9518 108.792C58.1855 108.227 58.6731 108.167 59.1406 108.167C58.6731 108.167 58.1855 108.227 57.9518 108.795V108.792ZM64.386 94.2681C64.6373 94.5344 64.6725 94.8006 64.4488 95.0694C64.6725 94.8031 64.6248 94.5344 64.3835 94.2707L64.386 94.2681ZM64.3559 95.1624C64.3376 95.327 64.2712 95.4824 64.1649 95.6095C64.2716 95.4818 64.3381 95.3253 64.3559 95.1598V95.1624ZM63.5691 117.7C63.5914 117.778 63.5843 117.861 63.5491 117.933C63.5849 117.86 63.592 117.776 63.5691 117.697V117.7ZM65.6704 94.6902L65.9217 94.439L66.2082 94.1878L66.1806 94.2707C66.6138 94.0064 67.1019 93.8449 67.6074 93.7987C68.1128 93.7525 68.6221 93.8229 69.0961 94.0044L69.5988 94.2731C69.5973 94.3312 69.6161 94.388 69.6518 94.4338C69.6876 94.4796 69.7381 94.5116 69.7948 94.5243L70.3956 95.1875C70.5665 95.5342 70.7349 95.8783 70.8982 96.2225L70.8706 96.1823C71.3064 97.9116 71.2891 99.724 70.8203 101.445L70.8655 101.377L70.0185 102.95C69.8451 103.125 69.6792 103.314 69.4957 103.479C67.8193 104.964 66.1856 104.643 65.4165 102.527C64.5142 100.051 64.4112 97.5035 65.4165 94.9915L65.6704 94.6902ZM69.6013 94.2254L69.8526 94.4967C69.7772 94.4138 69.7018 94.3284 69.6239 94.2455L69.6013 94.2254ZM72.4666 94.2254C72.4775 94.159 72.496 94.0941 72.5219 94.032C72.4968 94.0909 72.4782 94.1524 72.4666 94.2154V94.2254ZM71.3481 97.3478C71.2685 96.9589 71.1186 96.5877 70.9058 96.2525C71.1172 96.5839 71.267 96.9507 71.3481 97.3352V97.3478ZM70.4106 95.2177C70.5532 95.2805 70.6759 95.3812 70.765 95.509C70.6776 95.3766 70.5548 95.2713 70.4106 95.2051V95.2177ZM70.8555 95.7125C70.8933 95.8345 70.912 95.9616 70.9107 96.0893C70.9133 95.9574 70.8947 95.826 70.8555 95.7V95.7125ZM69.6239 108.041C69.5545 108.057 69.4865 108.078 69.4203 108.104C69.4862 108.074 69.5542 108.05 69.6239 108.031V108.041ZM67.7766 108.579C67.7479 108.537 67.715 108.498 67.6786 108.463C67.7144 108.494 67.7472 108.529 67.7766 108.566V108.579ZM65.7206 108.31C65.8907 108.158 66.0965 108.051 66.3188 107.999C66.0986 108.047 65.8939 108.15 65.7231 108.298L65.7206 108.31ZM65.5548 108.295C65.4937 108.291 65.4324 108.291 65.3713 108.295C65.4321 108.287 65.4934 108.283 65.5548 108.282V108.295ZM72.5294 94.0195C72.5592 93.9532 72.6039 93.8947 72.6601 93.8486C72.6054 93.8911 72.5608 93.9451 72.5294 94.0069V94.0195ZM78.9863 107.19C78.6998 106.778 78.6772 106.436 79.0542 106.198C78.6772 106.424 78.6973 106.775 78.9863 107.177V107.19ZM78.8481 107.85C78.6929 107.962 78.5699 108.113 78.4912 108.287C78.568 108.109 78.6912 107.953 78.8481 107.838V107.85ZM78.5037 99.0032C78.5364 97.697 78.1569 96.3456 77.4003 95.5317C78.1569 96.333 78.5415 97.6844 78.5037 98.9881V99.0032ZM78.2323 108.476C78.1454 108.57 78.0809 108.682 78.0438 108.805C78.0791 108.678 78.1437 108.561 78.2323 108.463V108.476ZM78.0815 114.924C78.0563 115.728 77.9634 116.552 78.5012 117.27C78.4881 117.417 78.5222 117.564 78.5987 117.689C78.6751 117.815 78.7898 117.913 78.926 117.969C78.7903 117.913 78.6759 117.815 78.5995 117.69C78.5231 117.565 78.4887 117.419 78.5012 117.273C77.9634 116.539 78.0563 115.715 78.0815 114.912V114.924ZM79.215 117.871C79.0841 117.844 78.9651 117.777 78.8748 117.678C78.7845 117.58 78.7276 117.456 78.7123 117.323C78.6676 117.28 78.6168 117.243 78.5616 117.215C78.5389 116.994 78.5188 116.773 78.4962 116.554C78.4962 113.803 78.5045 111.052 78.5213 108.303C79.7051 107.735 80.9643 108.024 82.1909 108.011C82.681 108.011 82.882 108.363 82.6056 108.888C82.5015 109.088 82.3462 109.257 82.1555 109.377C81.9647 109.498 81.7453 109.566 81.5198 109.574C80.2807 109.742 79.8685 110.415 80.1776 111.633C80.3661 112.387 81.0422 111.867 81.4042 112.136L81.3816 112.111C81.9471 112.631 81.9948 113.173 81.4695 113.738C80.3309 113.668 80.1776 114.311 80.2128 115.281C80.2681 116.552 81.1378 115.816 81.643 115.941C82.0804 116.024 82.5229 116.078 82.9675 116.102C83.2189 116.519 83.3897 116.946 83.1032 117.421L82.9248 117.722L80.4918 117.856H79.2125C79.2125 117.916 79.2125 117.976 79.2125 118.036C79.2175 117.979 79.215 117.918 79.215 117.858V117.871ZM82.9499 117.753C81.9219 118.569 80.8161 118.413 79.7001 118.162C80.8211 118.401 81.927 118.556 82.9524 117.74L82.9499 117.753ZM79.1597 100.757C79.2037 100.916 79.267 101.07 79.3482 101.214C79.2671 101.066 79.2047 100.909 79.1622 100.746L79.1597 100.757ZM72.9793 93.723C74.1531 93.0347 75.0956 93.0297 75.9074 93.7355C75.0956 93.0221 74.153 93.0247 72.9818 93.713L72.9793 93.723ZM57.899 94.3108C59.0451 93.4567 60.3068 93.3664 61.5911 93.4543C60.3018 93.3563 59.0375 93.4467 57.894 94.3007L57.899 94.3108ZM61.6339 93.4567C61.8324 93.4718 62.0285 93.4894 62.227 93.5095C62.0235 93.4793 61.8274 93.4618 61.6288 93.4467L61.6339 93.4567ZM57.899 118.255L57.9568 108.87C59.3919 108.21 60.915 108.594 62.4004 108.501L62.7071 108.986C62.5161 109.365 62.3275 109.739 62.1365 110.126C61.5509 110.443 60.905 110.377 60.2967 110.317C59.6885 110.257 59.6206 110.468 59.6055 110.995C59.5804 112.015 59.5377 112.96 61.0206 112.739C61.1932 112.735 61.3647 112.768 61.5233 112.837C62.0385 113.565 61.5861 114.04 61.0759 114.5C60.8447 114.5 60.6134 114.5 60.3822 114.515L59.8393 114.444L59.7765 114.497C59.8645 115.195 59.9599 115.894 59.7387 116.587C59.7764 116.682 59.8116 116.775 59.8493 116.868L62.1416 116.823L62.6442 116.748C63.0162 116.773 63.1469 117.044 63.2449 117.341C63.2298 117.652 63.2148 117.964 63.2022 118.275C61.7645 118.747 60.254 118.647 58.7811 118.83C58.3086 118.891 58.1478 118.516 57.899 118.255C57.7982 118.22 57.7105 118.155 57.6476 118.069C57.7106 118.151 57.7963 118.212 57.894 118.245L57.899 118.255ZM61.1287 110.764C61.262 110.763 61.3947 110.744 61.5233 110.709C61.3926 110.741 61.2582 110.757 61.1236 110.754L61.1287 110.764ZM61.1412 114.5C60.8844 114.623 60.6381 114.768 60.4048 114.932C60.6376 114.767 60.882 114.619 61.1362 114.489L61.1412 114.5ZM61.8173 116.537C61.6037 116.537 61.39 116.549 61.1764 116.537C61.385 116.539 61.5987 116.524 61.8123 116.527L61.8173 116.537ZM100.878 116.537C100.405 113.696 100.601 110.83 100.581 107.973C100.579 107.744 100.652 107.519 100.787 107.333C100.923 107.148 101.115 107.011 101.335 106.944C101.526 106.933 101.715 106.986 101.874 107.093C102.032 107.2 102.151 107.355 102.213 107.536C102.253 109.244 102.298 110.953 102.333 112.663C102.378 114.673 102.376 114.673 104.344 114.869C104.766 115.313 104.595 115.859 104.595 116.376C104.253 116.741 103.796 116.978 103.301 117.049C103.796 116.979 104.251 116.741 104.593 116.376C103.464 116.846 102.283 116.758 101.104 116.715L100.878 116.537ZM103.225 117.062C103.099 117.08 102.971 117.092 102.843 117.097C102.97 117.089 103.096 117.075 103.22 117.054L103.225 117.062ZM84.7118 94.4541C84.4724 94.0584 84.1231 93.7407 83.7065 93.5397C84.1194 93.7384 84.4665 94.0514 84.7068 94.4414L84.7118 94.4541ZM85.2145 95.9612C85.1969 95.8683 85.1793 95.7753 85.1592 95.6849C85.1793 95.7678 85.1969 95.8607 85.2145 95.9536V95.9612ZM84.9908 95.067C84.9908 95.0268 84.9606 94.9866 84.9455 94.9464C84.9606 94.969 84.9782 95.0192 84.9908 95.0594V95.067ZM84.9104 94.8534C84.8535 94.7154 84.7863 94.5819 84.7093 94.4541C84.7859 94.5795 84.8531 94.7104 84.9104 94.8458V94.8534ZM83.6763 93.4769C83.6059 93.3839 83.5355 93.2935 83.4627 93.2031L83.6763 93.4769ZM83.2742 93.1202C83.2223 93.0833 83.1634 93.0575 83.1011 93.0445C83.0388 93.0315 82.9744 93.0316 82.9122 93.0447C82.974 93.0308 83.038 93.0296 83.1002 93.0413C83.1624 93.053 83.2216 93.0772 83.2742 93.1126V93.1202ZM81.4067 92.7132C81.1455 92.8509 80.9273 93.0577 80.7758 93.311C81.1019 93.1144 81.4675 92.9922 81.8464 92.9531C82.2253 92.914 82.6081 92.959 82.9675 93.085L82.9399 93.0649L83.4425 93.2482C83.4174 93.4115 83.5079 93.4819 83.6361 93.5195C85.5387 96.2601 85.6317 99.159 84.3901 102.173C84.3913 102.154 84.3913 102.135 84.3901 102.116L84.086 102.56L84.0558 102.598L83.5984 103.088H83.631L83.2214 103.407C82.663 103.605 82.0531 103.605 81.4947 103.407L80.7406 102.904L79.8685 101.706C79.6516 101.597 79.4716 101.427 79.3507 101.216C79.4717 101.426 79.6518 101.595 79.8685 101.704C78.9913 99.2067 78.4736 96.7072 79.7855 94.1852L79.7403 94.2103L79.9917 93.934C80.0128 93.8064 80.0734 93.6887 80.1651 93.5974C80.0734 93.6883 80.0135 93.8063 79.9942 93.934C79.9953 93.9406 79.9953 93.9475 79.9942 93.9541L80.5396 93.4517H80.4994L80.7507 93.2407L80.7708 93.2935C80.9255 93.0441 81.1453 92.8417 81.4067 92.7082V92.7132Z" fill="#F4C686"/>
<path d="M99.8725 98.2041L99.83 98.1617L99.845 98.1767L99.8725 98.2041Z" fill="#F4C686"/>
<path d="M92.0132 46.322C95.1977 47.3871 98.4148 44.5436 98.0454 41.1851C97.9499 40.3461 97.4798 40.3888 96.9319 40.4641C96.384 40.5395 96.6127 41.0645 96.5097 41.3785C96.0522 42.7752 95.1273 43.5313 93.8983 43.4509C92.7522 43.3755 91.601 42.426 91.5583 41.2378C91.5206 40.2732 91.1159 40.13 90.3393 40.218C90.048 40.2343 89.7559 40.2343 89.4646 40.218V40.2079C89.2535 40.2079 89.0449 40.2079 88.8363 40.2079C87.3483 40.1853 87.3283 40.2406 87.655 41.7553C88.1853 44.1593 89.8266 45.591 92.0132 46.322Z" fill="#F4C686"/>
<path d="M92.9457 115.459L91.7065 115.547C92.1715 116.25 92.5637 115.924 92.9457 115.459Z" fill="#F4C686"/>
<path d="M63.3405 43.9759H63.235V44.0813L63.612 44.7244C63.6426 44.8852 63.7053 45.0381 63.7964 45.1741C63.8875 45.31 64.0052 45.4262 64.1423 45.5157V45.483L64.3936 45.7342C64.4004 45.803 64.431 45.8673 64.4801 45.9159C64.5292 45.9645 64.5937 45.9944 64.6626 46.0005L64.9139 46.2342H64.8913C64.9782 46.3711 65.0921 46.4889 65.2261 46.5804C65.36 46.672 65.5112 46.7353 65.6705 46.7666C66.0198 47.1083 66.4823 47.1962 66.9272 47.3143C66.9272 47.3143 66.9146 47.2992 66.9095 47.2891C68.7644 47.9824 70.6168 48.0628 72.4642 47.269C72.6703 47.2238 72.9015 47.2313 73.0297 47.0178C73.1234 47.0161 73.2153 46.9925 73.2983 46.9489C73.3812 46.9053 73.4527 46.8428 73.5072 46.7666C73.8148 46.6833 74.0823 46.4927 74.2612 46.2292H74.2185L74.5402 45.9653C76.2619 44.5862 76.0784 42.6068 76.1739 40.7204C76.1739 40.6349 76.0533 40.4692 75.9879 40.4692C75.2339 40.4692 74.4799 40.3787 73.751 40.5269C73.1402 40.6525 73.5826 41.3082 73.4469 41.7076C73.1805 42.5039 72.8914 43.2675 72.2078 43.8126C71.0793 44.5536 70.0261 44.0888 68.9755 43.6065L68.958 43.6468L68.689 43.4207L68.7217 43.4559L68.4528 43.1921H68.4653L67.9626 42.6746C67.9325 42.549 67.8948 42.4234 67.7616 42.3908C67.734 41.278 67.563 40.3083 66.0223 40.7379C65.2532 40.9201 64.4598 40.9778 63.6723 40.9087C63.421 41.1022 62.7951 40.6299 62.8354 41.283C62.863 42.2024 62.6544 43.1896 63.3405 43.9759Z" fill="#F4C686"/>
<path d="M82.2285 101.673C82.7312 101.623 82.9298 101.144 83.0329 100.681C83.425 98.943 83.4073 97.2424 82.5553 95.6222C82.4372 95.2127 82.2487 94.7228 81.8013 94.7831C81.3991 94.8358 81.2131 95.3509 81.0925 95.7427C80.5965 97.4313 80.7013 99.2396 81.3891 100.86C81.5399 101.231 81.7535 101.721 82.2285 101.673Z" fill="#F4C686"/>
<path d="M67.1558 101.977L67.3795 102.254C67.656 102.598 67.9224 102.56 68.1838 102.236C69.6114 100.875 69.9055 97.5563 68.6865 96.0994C68.2617 95.597 67.7591 95.0192 67.1357 95.926C66.9196 95.9989 66.8843 96.1923 66.8265 96.3757C66.4786 97.2785 66.327 98.245 66.3821 99.2109C66.4371 100.177 66.6975 101.12 67.1457 101.977H67.1558ZM67.1759 101.962C67.1131 101.505 67.0402 101.048 66.9723 100.588C67.0402 101.048 67.1131 101.5 67.1759 101.962Z" fill="#F4C686"/>
<path d="M74.5426 95.5267C74.0827 95.6724 74.329 96.1672 74.329 96.5164C74.329 98.011 74.329 99.5056 74.329 100.998C74.329 101.392 74.1053 101.972 74.5175 102.136C75.0202 102.332 75.4374 101.93 75.7113 101.478C76.7494 100.036 76.6539 97.9482 75.46 96.1722C75.274 95.8005 74.99 95.386 74.5426 95.5267Z" fill="#F4C686"/>
<path d="M85.4507 112.126C86.1218 111.925 86.6697 111.566 86.7326 110.799C86.8055 109.955 86.3128 109.513 85.506 109.292C85.2723 109.312 85.0486 109.418 85.0561 109.722C85.0762 110.42 85.1164 111.121 85.1767 111.817C85.1868 111.945 85.2069 112.199 85.4507 112.126Z" fill="#F4C686"/>
<path d="M97.6106 109.471H97.6231C96.663 108.325 96.6932 109.508 96.4217 109.973C96.4016 110.066 96.384 110.156 96.3639 110.249C96.2546 111.246 96.2546 112.252 96.3639 113.249C96.3384 113.33 96.3257 113.415 96.3262 113.5C96.3489 113.554 96.3682 113.609 96.384 113.666C96.384 113.693 96.3715 113.723 96.3639 113.753C96.5147 114.213 96.6555 114.675 96.8214 115.13C97.0023 115.632 97.2537 115.703 97.5603 115.216C97.8544 114.989 97.8318 114.623 97.9549 114.321H97.8669C98.2515 112.678 98.4099 111.046 97.6106 109.471Z" fill="#F4C686"/>
</svg>
