<svg width="130" height="130" viewBox="0 0 130 130" fill="none" xmlns="http://www.w3.org/2000/svg">
<path d="M129.065 0.513947H0.379272V129.127H129.065V0.513947Z" fill="#FFA73E"/>
<path d="M97.1951 112.611C96.7376 111.498 96.7979 110.852 97.8988 110.142C100.307 108.609 100.686 106.122 100.616 103.527C100.582 103.237 100.478 102.96 100.314 102.719C100.141 102.425 99.8693 102.184 99.4898 102.271C99.0298 102.377 99.1228 102.774 99.1429 103.093C99.2183 104.477 99.2484 105.856 98.7784 107.193C98.4517 108.127 97.9792 108.951 97.0191 109.375C96.6194 109.556 96.1494 109.72 95.888 109.267C94.6741 107.187 93.5079 105.08 92.1632 102.704C94.4806 102.666 95.9131 101.563 96.9688 99.8801C97.4866 99.0896 97.809 98.1874 97.9091 97.2479C98.0091 96.3084 97.8841 95.3586 97.5443 94.4769C97.386 94.0323 97.1247 93.4093 96.4988 93.6228C95.785 93.874 96.1695 94.4418 96.3329 94.8939C96.8984 96.4639 96.6596 97.9409 95.8478 99.3577C95.566 99.8814 95.1511 100.322 94.6447 100.634C94.1384 100.946 93.5586 101.119 92.9639 101.136C92.3692 101.153 91.7806 101.013 91.2574 100.729C90.7342 100.446 90.295 100.03 89.984 99.5234C89.5367 98.8251 89.0189 98.1745 88.476 97.4134C91.0899 96.082 91.8465 93.8086 91.8741 91.161C91.8833 90.9087 91.8656 90.6561 91.8213 90.4074C91.7208 89.9201 91.477 89.4831 90.914 89.5735C90.351 89.6639 90.3712 90.194 90.4566 90.5783C90.7561 91.812 90.5717 93.1135 89.9413 94.2156C88.8539 96.1398 87.5184 96.3482 85.935 94.841C85.3268 94.2633 84.8668 93.462 83.9243 93.2008C83.3437 94.2985 83.849 95.1049 84.4446 95.7781C91.7184 104.022 95.8554 113.806 98.5196 124.309C98.8388 125.565 98.977 126.861 99.2283 128.132C99.2981 128.381 99.2857 128.645 99.1931 128.886H101.603C101.42 128.622 101.352 128.185 101.257 127.454C100.643 122.304 99.1555 117.391 97.1951 112.611Z" fill="#1F5C61"/>
<path d="M88.4058 121.767C86.6765 113.687 83.3564 106.031 78.6388 99.2446C78.4977 99.0367 78.3405 98.8402 78.1688 98.6568C77.9174 98.4056 77.646 98.2096 77.2816 98.4206C77.135 98.5069 77.0219 98.6404 76.9608 98.7991C76.8996 98.9578 76.8939 99.1325 76.9447 99.2948C77.0302 99.7972 77.0905 100.342 77.4474 100.694C78.9931 102.201 78.3195 103.673 77.48 105.175C76.4747 106.984 74.4514 108.064 72.7046 107.783C72.1604 107.719 71.6461 107.501 71.2231 107.153C70.8 106.805 70.4863 106.342 70.3194 105.821C70.2639 105.619 70.1976 105.42 70.1209 105.226C69.9022 104.796 69.8318 104.088 69.2311 104.153C68.55 104.228 68.6354 104.972 68.5676 105.477C68.4821 106.095 68.545 106.733 68.4696 107.353C68.1881 109.644 66.3433 110.574 64.3602 109.403C63.8093 109.024 63.2876 108.604 62.7994 108.147C62.4978 107.896 62.1685 107.629 61.794 107.943C61.4196 108.257 61.5151 108.712 61.794 109.064C62.9477 110.481 64.4607 111.294 66.2729 111.204C67.9317 111.121 69.2262 110.317 69.6836 108.556C69.7138 108.448 69.8269 108.36 69.9978 108.137C71.6692 109.466 73.5441 109.772 75.4794 108.843C77.2639 107.984 78.5131 106.549 79.3551 104.781C79.7849 104.713 79.8578 105.055 79.9835 105.283C81.0894 107.396 82.1072 109.554 83.0121 111.764C83.3413 112.563 83.2131 113.189 82.7104 113.852C80.8254 116.346 77.2891 116.047 75.9695 113.259C75.8037 112.905 75.6554 112.53 75.1929 112.566C74.6903 112.606 74.5395 113.04 74.4389 113.452C74.2077 114.379 74.2102 115.336 73.896 116.271C73.3933 117.745 72.4457 118.451 70.9653 118.599C69.593 118.74 68.6555 118.097 67.9493 116.974C67.842 116.833 67.7235 116.7 67.595 116.577C66.7354 117.127 66.9641 117.778 67.3436 118.403C68.6481 120.599 72.1592 120.755 73.9814 118.735C74.6952 117.946 75.0772 116.977 75.6151 115.922C78.6312 117.429 81.4739 117.461 83.9471 114.706C84.8997 116.17 85.1862 117.841 85.6185 119.416C86.3524 122.073 87.0611 124.746 87.4633 127.487C87.5663 128.188 87.5839 128.615 87.428 128.876H89.8133C89.6761 128.664 89.5901 128.423 89.562 128.172C89.2051 126.042 88.8632 123.892 88.4058 121.767Z" fill="#1F5C61"/>
<path d="M104.494 105.077C104.2 103.943 104.238 102.749 104.604 101.636C106.018 97.231 106.316 92.5445 105.474 87.9959C104.901 84.7982 105.15 81.5654 104.72 78.3777C104.682 77.9603 104.597 77.5483 104.469 77.1493C104.16 76.3928 104.025 75.5764 104.076 74.7609C104.126 73.9454 104.36 73.1519 104.76 72.4393C105.532 70.9849 105.095 69.7239 103.961 68.586C102.687 67.3049 101.141 66.491 99.5073 65.8228C94.1563 63.6625 88.6671 62.09 82.846 61.9217C81.629 61.9128 80.4532 61.4801 79.5208 60.6983C75.2631 57.1815 70.5305 54.441 65.4911 52.2053C65.3127 52.1274 65.1443 52.0245 64.9407 51.9164C65.0538 51.8084 65.109 51.713 65.1643 51.713C70.5681 51.7305 75.9317 51.0373 81.3279 50.8589C87.5963 50.6504 93.8673 50.3565 100.113 49.7185C101.817 49.5451 103.536 49.5125 105.25 49.4095C106.477 49.3367 107.666 49.4096 108.769 50.0451C109.134 50.253 109.551 50.3531 109.971 50.334C112.429 50.143 114.889 49.937 117.34 49.6506C118.609 49.5024 119.054 48.6458 118.531 47.4903C118.171 46.7352 117.76 46.0051 117.302 45.305C116.812 44.5238 116.711 43.7852 117.247 42.9688C118.044 41.7505 118.054 40.5498 117.048 39.4043C116.448 38.7185 116.465 38.0252 116.963 37.2315C118.066 35.4731 118.061 35.2596 116.799 33.677C116.176 32.8958 115.917 32.2151 116.591 31.3434C117.496 30.1728 117.29 29.0625 116.194 28.1532C115.141 27.279 114.924 26.4149 115.842 25.2946C116.453 24.541 116.739 23.6768 116.093 22.7574C115.475 21.8782 114.628 21.818 113.643 21.9336C112.064 22.1144 110.473 22.2048 108.885 22.2802C108.03 22.3179 107.178 22.4385 106.467 22.8655C104.479 24.0587 102.34 23.9356 100.151 23.8979C97.3081 23.8451 94.4629 23.9682 91.6228 24.1064C88.104 24.2797 84.608 24.5159 81.1043 24.7797C75.223 25.2243 69.3441 25.7015 63.4653 26.1788C59.0468 26.538 54.6282 26.9323 50.2097 27.284C49.5436 27.3368 48.845 27.4172 48.2166 27.156C45.5248 26.0407 42.7827 26.4903 40.0481 26.8595C38.3842 27.0856 37.7308 28.4496 38.7914 29.7734C39.7691 30.9867 39.9652 32.0342 39.1684 33.3832C38.6532 34.2523 38.8995 35.1038 39.7591 35.684C40.8398 36.415 41.0157 37.2792 40.2114 38.3141C39.4072 39.3491 39.7289 40.2182 40.5105 40.9944C41.2922 41.7706 41.4732 42.6347 41.0836 43.6219C40.6614 44.6845 40.5256 45.7094 41.3952 46.6765C40.6915 47.2116 39.9651 47.1161 39.2764 47.1161C35.4661 47.1161 31.7891 47.8697 28.1975 49.078C26.4261 49.6264 24.8314 50.6335 23.5753 51.9969C21.4515 54.3682 21.8989 56.9027 24.6963 58.3848C25.8625 59.0027 27.1443 59.4273 28.1069 60.2462C28.1237 60.4146 28.0832 60.5838 27.9921 60.7264C27.9009 60.869 27.7642 60.9768 27.6042 61.0324C22.6805 63.5921 21.645 72.1579 26.3476 76.2349C27.0412 76.8378 27.1343 77.3628 26.4406 77.9933C26.2535 78.1578 26.0849 78.3423 25.9379 78.5434C25.2015 79.5783 24.7064 80.7062 25.3347 81.9371C25.9631 83.168 27.1745 83.3237 28.3759 83.2483C29.884 83.1528 31.3769 82.9795 32.8648 82.7459C34.0511 82.5625 34.1643 83.394 34.3553 84.1577C34.6066 85.1348 33.8275 84.9866 33.2821 85.0695C33.1162 85.0971 32.91 85.0695 32.7919 85.1574C30.9823 86.5089 28.577 86.441 26.7422 87.702C26.4918 87.8852 26.2066 88.0153 25.904 88.0845C25.6015 88.1536 25.288 88.1602 24.9829 88.104C23.5025 87.8678 22.5423 88.4858 21.8813 89.8498C21.1563 91.4084 20.7227 93.0864 20.602 94.8009C20.5417 95.634 20.2607 96.4359 19.7877 97.1245C17.6991 100.197 16.1684 103.46 16.5806 107.318C17.0508 111.979 18.9296 116.386 21.9668 119.953C24.7315 123.231 28.0391 125.889 32.1787 127.215C38.8869 129.361 45.3186 128.471 51.4387 125.07C53.7008 123.814 55.699 122.146 57.8831 120.32C58.436 122.347 58.5291 124.181 58.7301 125.997C58.7804 126.454 58.7677 126.919 58.818 127.376C58.906 128.152 58.9487 128.609 58.818 128.883H61.5602C61.344 128.632 61.2334 128.268 61.1932 127.72C60.7886 121.985 59.6852 116.361 58.2148 110.812C57.6242 108.574 56.3298 106.627 55.0781 104.691C54.7187 104.133 54.2336 103.636 54.1934 102.917C50.5741 102.819 47.2012 101.809 43.9866 100.179C42.8807 99.6163 42.6696 98.8955 43.3507 97.7827C44.5898 98.486 45.8137 99.1668 47.2037 99.541C53.0724 101.088 58.7854 96.7628 58.9614 90.3673C59.1373 84.0572 55.3822 78.8624 49.34 77.0714C47.846 76.6094 46.244 76.6313 44.7632 77.1342C41.4706 78.247 38.0298 78.8323 34.7624 80.033C32.6159 80.8218 30.3339 80.872 28.0869 81.0805C27.7627 81.1106 27.3781 81.1282 27.1896 80.7766C26.9734 80.3746 27.2197 80.0405 27.4786 79.7718C28.5066 78.6941 29.4365 77.7195 31.2487 77.737C34.7423 77.7672 37.6101 74.5318 37.8338 70.593C38.0625 66.5412 36.4288 63.2731 33.3524 60.7009C31.1406 58.8521 28.489 57.7669 25.9354 56.5185C24.249 55.6945 24.0856 54.7952 25.4328 53.4639C26.8503 52.0622 28.6749 51.4316 30.5424 50.9117C37.7734 48.9021 45.0372 49.0754 52.2807 50.7484C57.4181 51.9315 62.5429 53.2051 67.2404 55.7372C67.723 55.9883 68.2055 56.2396 68.5675 56.6566C71.018 57.4931 73.0513 59.0631 75.1601 60.4799C82.929 65.7073 88.3278 72.9593 92.8192 81.0328C96.338 87.3655 98.8514 94.095 101.061 100.95C102.91 106.7 103.612 112.714 104.23 118.715C104.547 121.792 104.65 124.887 104.798 127.977C104.838 128.29 104.788 128.608 104.652 128.893H107.467C107.306 128.642 107.271 128.243 107.254 127.582C107.03 119.991 106.276 112.473 104.494 105.077ZM109.752 24.4807C111.039 24.2597 112.311 24.247 114.108 24.3953C112.14 26.4802 112.833 28.0252 114.432 29.462C114.829 29.8187 114.741 30.3236 114.419 30.718C113.298 32.0946 113.414 33.3932 114.65 34.609C115.281 35.2319 115.198 35.7947 114.741 36.4955C113.55 38.3167 113.512 38.387 114.859 39.957C115.631 40.8563 115.724 41.5772 114.945 42.4539C114.13 43.3707 114.233 44.2876 114.859 45.3125C116.274 47.636 116.164 47.8044 113.524 47.9023C110.662 48.0053 110.699 48.0028 110.433 45.1391C109.83 38.6532 109.719 32.1297 108.872 25.6639C108.772 24.9053 109.028 24.6089 109.752 24.4807ZM22.5926 93.4872C22.6417 92.8625 22.7753 92.2472 22.9897 91.6584C23.3592 90.5757 23.9147 89.998 25.1186 90.6135C25.855 90.9928 26.4683 90.6812 27.0614 90.1989C28.6122 88.9429 28.8786 89.0008 29.6578 90.729C29.8915 91.249 30.3238 91.3018 30.7838 91.362C31.6006 91.4675 32.1108 91.7866 32.2516 92.7386C32.4124 93.8162 33.096 94.095 34.0963 93.6529C34.599 93.4343 35.0313 93.1028 35.5214 92.8692C35.9537 92.6607 36.3911 92.2336 36.9064 92.5803C37.4216 92.9269 37.4367 93.5324 37.3412 94.0624C36.9843 96.0318 36.5872 97.9911 36.1775 99.9529C36.0971 100.347 36.097 100.794 35.6974 101.081C34.9183 100.993 34.9057 100.37 34.775 99.8047C34.3402 97.9208 33.4103 96.4413 31.5378 95.6374C30.4646 95.1777 29.5522 95.1777 28.67 96.0217C28.3206 96.3558 27.9537 96.7326 27.4133 96.8256C26.9307 96.597 26.7498 96.0921 26.4079 95.7278C25.6388 94.8913 24.7466 94.2608 23.5653 94.4517C22.6906 94.5949 22.5523 94.1729 22.5926 93.4872ZM54.2111 110.604C54.6936 110.011 55.2164 109.9 55.4829 110.764C56.0609 112.681 56.5887 114.615 57.1065 116.542C57.2623 117.127 56.9355 117.585 56.5384 117.989C52.0746 122.546 46.8041 125.299 40.322 125.801C34.971 126.213 30.4721 124.497 26.4381 121.189C25.8651 120.717 25.2518 120.242 25.0457 119.458C20.4361 115.135 17.9152 110.006 19.0136 103.538C19.4534 100.968 20.8633 98.8954 22.6981 97.1068C23.6733 96.1548 24.367 97.0692 25.0808 97.5766C25.7946 98.084 25.6338 98.6643 25.1462 99.2822C23.8468 100.925 22.5223 102.548 22.1704 104.726C22.0473 105.255 22.0404 105.806 22.1503 106.338C22.2684 106.768 22.2608 107.343 22.8816 107.356C23.5024 107.368 23.5653 106.828 23.618 106.381C24.0227 102.93 26.2773 100.699 28.7781 98.6643C29.9116 97.7399 31.0074 97.8454 32.0806 98.7648C33.0533 99.5987 33.003 100.403 31.9976 101.186C29.9497 102.802 28.3542 104.92 27.3655 107.333C27.1142 107.951 26.9157 108.589 27.1972 109.282C27.348 109.644 27.5139 110.021 27.9512 110.036C28.4413 110.051 28.4815 109.596 28.6021 109.245C29.3851 106.881 30.9269 104.842 32.988 103.445C33.8853 102.829 34.7473 102.719 35.6245 103.467C36.5494 104.258 36.6651 104.974 35.9487 105.964C35.2324 106.954 34.3426 107.881 33.747 109.009C32.8673 110.679 32.5657 112.385 33.0709 114.221C33.2242 114.784 33.4002 115.349 33.3348 115.949C34.4407 116.452 35.1973 117.456 36.3509 117.959C40.4025 119.674 44.077 118.665 47.5279 116.419C50.0136 114.809 52.321 112.932 54.2111 110.604ZM45.1176 104.007C47.2489 104.759 49.4472 105.306 51.6826 105.64C52.6176 105.781 53.2183 106.24 53.5249 107.112C53.8115 107.933 53.173 108.333 52.7256 108.803C50.2349 111.425 47.5078 113.749 44.2027 115.309C43.0616 115.846 41.9155 116.366 40.6614 116.208C39.0603 116.344 37.7207 115.788 36.4816 114.952C35.9982 114.651 35.6109 114.218 35.3656 113.705C35.1202 113.191 35.0269 112.618 35.0967 112.053C35.1545 111.37 35.4662 111.026 36.18 110.925C40.1737 110.36 41.1691 109.448 42.0689 105.625C42.6419 103.133 42.6444 103.128 45.1176 104.007ZM53.6933 81.6356C54.3945 82.1883 53.8466 83.1705 52.6879 83.5121C50.9437 84.0145 50.0916 83.5297 49.7498 81.7336C49.6466 80.9671 49.5837 80.1957 49.5613 79.4226C51.2076 79.8722 52.4868 80.6912 53.6807 81.6332L53.6933 81.6356ZM48.8802 96.2226C50.2173 93.2585 52.0395 91.7137 54.9123 91.8544C55.3647 91.9297 56.0961 91.6031 56.4379 92.1859C56.7797 92.7687 56.2972 93.3816 55.9805 93.9066C54.5931 96.1875 52.4894 97.3304 49.8906 97.5967C48.6791 97.7273 48.385 97.3179 48.8675 96.2202L48.8802 96.2226ZM44.3686 79.842C45.5724 79.4766 46.8254 79.2995 48.0833 79.3171C47.7591 80.9674 46.6558 82.1104 45.6203 83.2308C44.6953 84.2355 43.3305 83.7482 42.9359 82.4269C42.4483 80.8368 42.6771 80.3269 44.3636 79.8396L44.3686 79.842ZM43.504 91.3745C43.034 92.5778 42.6244 93.7886 42.0991 94.9441C40.6187 98.2096 40.209 101.676 39.837 105.173C39.6184 107.255 38.633 108.308 36.7982 108.536C36.7656 108.463 36.6827 108.358 36.7078 108.323C39.0804 104.721 38.2158 100.455 39.1056 96.5517C39.2426 95.854 39.3267 95.147 39.3569 94.4366C39.4901 92.3592 41.2318 91.0254 43.4914 91.3721L43.504 91.3745ZM41.071 80.7891C40.978 82.6329 39.6962 83.6176 38.5576 84.6701C38.3616 84.8284 38.1166 84.9132 37.8646 84.91C37.6126 84.9068 37.3697 84.8158 37.1778 84.6526C36.4414 84.0849 35.6698 83.5121 35.5768 82.3918C37.3512 81.696 39.1282 81.0579 41.0585 80.7866L41.071 80.7891ZM34.8655 87.7398C35.6873 88.2824 36.454 88.2949 36.9692 87.3228C37.3236 86.6546 37.889 86.5114 38.5526 86.5843C40.312 86.7777 41.722 87.5136 42.5162 89.365C41.2595 89.9327 39.9677 90.101 38.9372 90.8596C38.6607 91.0631 38.3817 90.9223 38.1254 90.7591C37.1602 90.1487 36.2227 90.2568 35.3053 90.8647C34.7222 91.2515 34.217 91.4348 33.7646 90.6385C33.4404 90.0708 32.7969 89.8599 32.2012 89.6614C31.6835 89.4881 31.2813 89.1917 31.1959 88.6566C31.0954 88.0362 31.6986 87.9858 32.0605 87.7447C32.9804 87.1067 33.9079 87.1117 34.8529 87.7372L34.8655 87.7398ZM33.8249 64.4236C35.1318 66.707 35.9161 69.0456 35.1571 71.7309C34.486 74.1072 33.1815 75.2126 29.6929 75.3633C28.2125 75.4387 26.9533 73.959 26.0962 71.9972C24.4902 68.3272 25.6363 65.1897 28.8007 63.1048C30.2534 62.1327 32.6989 62.4794 33.8073 64.4211L33.8249 64.4236ZM44.7003 47.0708C43.7829 46.7066 42.8505 44.5765 43.3431 43.6923C44.1399 42.2605 44.0318 41.0849 42.7148 40.0499C42.0965 39.5626 42.2423 39.0124 42.5841 38.3844C43.5392 36.626 43.5166 36.4829 42.1066 35.0285C41.4732 34.3753 41.262 33.7524 41.7672 32.9134C42.3931 31.8709 42.6042 30.8234 41.5612 29.8487C41.1741 29.487 41.2244 28.9645 41.7974 28.9218C43.0767 28.8264 44.3409 28.4195 45.6529 28.7686C46.4924 28.9947 46.9674 29.4469 47.0252 30.3161C47.1308 31.8986 47.2338 33.4811 47.3344 35.0637C47.5329 38.3141 47.7265 41.5672 47.9075 44.5916V44.9457C47.8999 47.415 47.0202 47.9903 44.6878 47.0684L44.7003 47.0708ZM56.3122 49.1307C54.7766 48.7313 53.2133 48.4148 51.6499 48.1259C50.6094 47.935 50.2022 47.4125 50.1645 46.3374C49.9911 41.2431 49.707 36.1563 49.2093 31.0822C49.0987 29.9719 49.5261 29.6353 50.5943 29.5524C56.3876 29.1153 62.176 28.5903 67.9668 28.1332C72.8856 27.7463 77.8068 27.3996 82.728 27.063C89.778 26.5807 96.8381 26.2943 103.908 26.2843C104.494 26.2718 105.077 26.1935 105.645 26.0507C106.537 25.8422 106.879 26.2291 106.944 27.0555C107.196 30.1779 107.477 33.3002 107.698 36.4251C107.902 39.3415 108.038 42.2629 108.219 45.4908C108.244 47.0281 108.181 47.0784 106.349 47.1161C100.568 47.2342 94.8324 47.7817 89.0717 48.0807C85.1056 48.2841 81.1369 48.4223 77.1708 48.6333C71.4956 48.9314 65.8212 49.2546 60.1476 49.6029C58.8477 49.6536 57.5483 49.4932 56.2997 49.1281L56.3122 49.1307ZM87.2948 68.2418C86.2442 67.0143 85.1969 65.7826 84.1531 64.5467L84.3039 64.2478C85.2841 64.3935 86.2793 64.4689 87.2394 64.6924C91.7108 65.7399 96.2324 66.6216 100.4 68.6814C101.154 69.0557 101.882 69.4601 102.428 70.1182C102.76 70.5176 102.983 70.9874 102.742 71.5048C102.456 72.1177 101.915 71.9194 101.423 71.8516C99.1731 71.5325 97.0844 70.6332 94.9103 70.0379C92.8116 69.4651 90.708 68.9427 88.5339 68.7442C88.0514 68.699 87.5938 68.6186 87.2822 68.2393L87.2948 68.2418ZM92.4146 74.1651C90.8286 73.7104 90.4843 72.0173 89.3985 70.7789C90.4391 70.3896 91.1779 70.6834 91.8741 70.8593C94.664 71.5752 97.4238 72.4066 100.216 73.105C101.302 73.3788 101.779 73.9063 101.699 75.0216C101.696 75.5601 101.731 76.0983 101.805 76.6318C101.098 77.0111 100.57 76.4811 99.9848 76.3806C97.3558 75.9611 94.9304 74.886 92.402 74.1625L92.4146 74.1651ZM93.822 77.3628C93.7458 77.1218 93.6862 76.8759 93.6436 76.6268C94.0306 76.6268 94.2544 76.5665 94.4303 76.6268C96.8055 77.5587 99.2736 78.2093 101.719 78.9705C101.986 79.0282 102.222 79.1813 102.384 79.4011C102.545 79.6209 102.621 79.8921 102.596 80.1636C102.596 81.2488 102.667 82.334 102.692 83.4292C102.712 84.3285 102.358 84.4943 101.435 84.3436C97.3157 83.6603 95.2446 80.877 93.8095 77.3602L93.822 77.3628ZM98.3211 85.1198C99.8291 85.4287 101.061 86.1748 102.383 86.6545C102.478 86.6938 102.564 86.7535 102.635 86.8295C102.705 86.9054 102.758 86.9957 102.79 87.0941C103.101 88.7922 103.544 90.4828 103.353 92.2437C100.832 92.0779 97.8837 87.8979 98.3084 85.1172L98.3211 85.1198ZM102.674 98.1066L101.209 93.452C103.642 93.9267 103.986 94.9265 102.674 98.1041V98.1066Z" fill="#1D2831"/>
<path d="M87.4807 127.502C87.0785 124.761 86.3698 122.088 85.6359 119.431C85.2036 117.856 84.9171 116.185 83.9645 114.721C81.4913 117.484 78.6512 117.439 75.6327 115.937C75.0948 116.987 74.7128 117.961 73.999 118.75C72.1767 120.76 68.6655 120.614 67.3611 118.418C66.9891 117.793 66.7604 117.142 67.6124 116.592C67.741 116.715 67.8595 116.848 67.9668 116.989C68.6655 118.099 69.603 118.748 70.9829 118.614C72.4633 118.466 73.4183 117.76 73.9134 116.286C74.2276 115.351 74.2251 114.394 74.4563 113.467C74.5569 113.055 74.7077 112.621 75.2104 112.581C75.6728 112.545 75.8211 112.92 75.987 113.274C77.3065 116.062 80.8429 116.361 82.728 113.867C83.2306 113.204 83.3587 112.578 83.0295 111.779C82.1247 109.569 81.1068 107.411 80.0009 105.298C79.8752 105.047 79.8023 104.718 79.3726 104.796C78.5306 106.554 77.2814 107.999 75.4969 108.858C73.5616 109.787 71.6866 109.481 70.0152 108.152C69.8443 108.376 69.7312 108.463 69.701 108.572C69.2436 110.33 67.9417 111.136 66.2904 111.219C64.4783 111.31 62.9651 110.496 61.8115 109.079C61.5249 108.727 61.4043 108.298 61.8115 107.959C62.2186 107.619 62.5077 107.913 62.8168 108.162C63.305 108.619 63.8267 109.039 64.3776 109.418C66.3607 110.589 68.2055 109.669 68.487 107.368C68.5625 106.748 68.4997 106.112 68.5851 105.492C68.653 104.989 68.5674 104.236 69.2486 104.168C69.8493 104.103 69.9196 104.811 70.1383 105.241C70.215 105.435 70.2813 105.634 70.3369 105.836C70.5037 106.357 70.8175 106.82 71.2405 107.168C71.6635 107.516 72.178 107.734 72.7221 107.798C74.4815 108.079 76.4922 106.999 77.4976 105.19C78.337 103.683 79.0056 102.211 77.4649 100.709C77.103 100.357 77.0427 99.8072 76.9623 99.3098C76.9115 99.1475 76.9171 98.9729 76.9782 98.8142C77.0394 98.6555 77.1524 98.522 77.299 98.4357C77.6634 98.2247 77.9449 98.4181 78.1862 98.6718C78.3579 98.8552 78.5151 99.0518 78.6562 99.2597C83.3739 106.046 86.6939 113.702 88.4232 121.782C88.8806 123.907 89.2225 126.052 89.5844 128.203C89.6125 128.453 89.6986 128.694 89.8358 128.906H99.2007C99.2933 128.665 99.3056 128.401 99.2358 128.152C98.9845 126.881 98.8463 125.583 98.5271 124.329C95.8503 113.827 91.7133 104.042 84.4521 95.7981C83.8564 95.1249 83.3513 94.3186 83.9319 93.2209C84.8819 93.4721 85.3419 94.2834 85.9426 94.8611C87.5243 96.3683 88.8598 96.1599 89.9489 94.2357C90.5793 93.1336 90.7636 91.8321 90.4641 90.5984C90.3787 90.204 90.3712 89.6715 90.9216 89.5936C91.4721 89.5157 91.7284 89.9402 91.8289 90.4275C91.8732 90.6761 91.8909 90.9288 91.8817 91.1811C91.854 93.8287 91.0975 96.1021 88.4836 97.4335C89.034 98.187 89.5518 98.8452 89.9916 99.5435C90.3026 100.05 90.7418 100.466 91.265 100.75C91.7882 101.033 92.3768 101.173 92.9715 101.156C93.5662 101.139 94.146 100.966 94.6523 100.654C95.1586 100.342 95.5736 99.9014 95.8554 99.3777C96.6672 97.9609 96.9059 96.4839 96.3404 94.9139C96.177 94.4617 95.7925 93.8891 96.5063 93.6429C97.1321 93.4294 97.3936 94.0523 97.5519 94.497C97.8917 95.3787 98.0166 96.3285 97.9165 97.268C97.8165 98.2075 97.4942 99.1097 96.9763 99.9002C95.9207 101.583 94.4881 102.686 92.1707 102.724C93.5154 105.1 94.6841 107.208 95.8955 109.287C96.1469 109.74 96.6269 109.576 97.0265 109.396C97.9816 108.966 98.4541 108.139 98.7859 107.212C99.2559 105.876 99.2258 104.497 99.1504 103.113C99.1303 102.789 99.0373 102.397 99.4972 102.292C99.8767 102.204 100.148 102.445 100.322 102.739C100.486 102.98 100.589 103.258 100.623 103.548C100.694 106.15 100.314 108.629 97.9062 110.162C96.8054 110.862 96.7451 111.518 97.2025 112.631C99.163 117.404 100.651 122.325 101.267 127.479C101.355 128.21 101.43 128.647 101.614 128.911H104.63C104.765 128.626 104.816 128.307 104.775 127.994C104.627 124.904 104.524 121.81 104.207 118.732C103.589 112.731 102.888 106.718 101.038 100.968C98.8337 94.1226 96.3204 87.383 92.7966 81.0503C88.3052 72.9768 82.9064 65.7273 75.1375 60.4974C73.0287 59.0806 70.9954 57.5106 68.5449 56.6741C69.9247 58.6284 71.4654 60.4848 72.2118 62.8184C72.4883 63.69 72.7749 64.5517 72.5236 65.4811C73.3505 65.5565 73.735 66.1092 74.0316 66.8125C76.4319 72.6905 76.5727 78.6765 74.8736 84.743C74.0933 87.5286 72.8457 90.1616 71.1839 92.5301C70.6812 93.2585 70.0982 93.8137 69.1079 93.5751C66.6523 96.8683 63.6438 99.5083 59.929 101.312C58.1118 102.196 56.1413 102.535 54.1909 102.952C54.2311 103.671 54.7162 104.168 55.0756 104.726C56.3323 106.662 57.6217 108.609 58.2123 110.847C59.6802 116.396 60.7861 122.021 61.1907 127.755C61.2309 128.303 61.3415 128.675 61.5577 128.918H87.4631C87.5938 128.625 87.5938 128.203 87.4807 127.502ZM76.9395 75.4386C76.9588 75.2476 77.048 75.0703 77.1899 74.941C77.3319 74.8116 77.5166 74.7393 77.7087 74.7377C78.0845 74.732 78.4603 74.7462 78.8347 74.7804C81.2651 74.8483 82.4766 73.4089 82.1675 70.9547C82.087 70.3116 81.3556 69.2441 82.4011 69.0481C83.2708 68.8874 83.2934 70.1483 83.4317 70.7889C83.786 72.4568 83.4317 74.0996 82.1901 75.3104C80.9484 76.5212 79.2318 76.5087 77.578 76.2274C77.1733 76.147 76.8692 75.9033 76.9395 75.4386ZM76.7134 87.9558C77.0451 87.6368 77.309 87.8176 77.578 87.9155C79.928 88.7822 82.0015 87.368 82.087 84.8585C82.1077 83.856 82.0065 82.8548 81.7854 81.8768C81.6472 81.2161 81.5894 80.5655 82.2404 79.9024C83.0999 80.9474 83.2733 82.2034 84.1706 83.0926C85.2136 84.1276 86.3396 84.2883 87.6064 83.8839C88.8128 83.5021 88.9008 82.3416 89.0843 81.3343C89.205 80.6862 89.1295 80.0029 89.1597 79.3247C89.1597 79.0735 89.2426 78.8222 89.5417 78.7519C89.6674 78.7374 89.7947 78.7607 89.9071 78.8188C90.0195 78.877 90.1118 78.9674 90.1725 79.0784C90.2813 79.2064 90.3664 79.3527 90.4239 79.5105C90.9039 81.1835 90.4389 82.6429 89.3557 83.934C88.2724 85.2252 86.7594 85.9437 85.1232 85.3283C83.8514 84.8585 83.6327 85.273 83.2708 86.3331C82.3609 89.0334 80.5689 89.8498 78.048 89.4579C77.211 89.3499 76.5349 88.9505 76.7134 87.9558ZM78.9478 122.93C78.2692 126.062 74.9264 128.469 71.6967 126.462C71.3303 126.258 71.0222 125.964 70.8019 125.608C70.5933 125.241 70.5706 124.879 70.9175 124.59C71.2643 124.301 71.5207 124.495 71.8223 124.693C74.67 126.565 76.907 125.65 77.7213 122.294C77.8143 121.91 77.7212 121.433 78.244 121.167C79.0483 121.516 79.0936 122.259 78.9478 122.93Z" fill="#2A7478"/>
<path d="M68.5375 56.6542C69.9174 58.6085 71.458 60.4648 72.2045 62.7984C72.481 63.6701 72.7674 64.5316 72.5161 65.461C72.0813 65.9634 72.305 66.4785 72.4935 66.9909C72.9962 68.3624 73.5617 69.7263 73.7879 71.1707C74.934 78.5132 73.8683 85.3911 69.4096 91.5354C68.9622 92.1533 68.462 92.7612 69.0904 93.545C66.6348 96.8382 63.6263 99.4782 59.9115 101.282C58.0943 102.166 56.1238 102.505 54.1734 102.922C50.5541 102.824 47.1812 101.814 43.9666 100.184C42.8607 99.6213 42.6496 98.9005 43.3307 97.7877C44.5698 98.4911 45.7939 99.1718 47.1838 99.5461C53.0525 101.093 58.7654 96.7679 58.9413 90.3724C59.1173 84.0623 55.3623 78.8675 49.3201 77.0764C47.8261 76.6144 46.224 76.6364 44.7431 77.1392C41.4506 78.2521 38.0099 78.8374 34.7425 80.0381C32.5961 80.8268 30.3139 80.8771 28.0669 81.0855C27.7427 81.1157 27.3581 81.1333 27.1696 80.7816C26.9534 80.3797 27.1998 80.0456 27.4587 79.7768C28.4867 78.6992 29.4166 77.7245 31.2288 77.7421C34.7224 77.7722 37.5901 74.5368 37.8138 70.5981C38.0425 66.5462 36.4088 63.2782 33.3324 60.7059C31.1206 58.8571 28.469 57.772 25.9154 56.5235C24.2289 55.6996 24.0681 54.8003 25.4128 53.4689C26.8303 52.0672 28.655 51.4367 30.5225 50.9167C37.7535 48.9071 45.0171 49.0805 52.2607 50.7535C57.3981 51.9366 62.5229 53.2101 67.2204 55.7422C67.693 55.9959 68.1756 56.2271 68.5375 56.6542ZM58.2125 65.7198C58.2125 61.9644 56.541 59.0379 53.5853 56.8525C50.4712 54.549 46.2412 54.951 43.4991 57.6966C39.7516 61.4495 39.3997 68.0458 42.7199 72.3062C43.7717 73.6759 45.2282 74.6799 46.883 75.1759C48.5377 75.6719 50.3067 75.6346 51.9391 75.0693C55.7343 73.7681 58.2276 70.053 58.2125 65.7198Z" fill="#4EAAA2"/>
<path d="M25.0458 119.468C20.4362 115.145 17.9153 110.016 19.0136 103.548C19.4535 100.978 20.8634 98.9054 22.6982 97.1168C23.6734 96.1648 24.3671 97.0792 25.0809 97.5866C25.7947 98.094 25.6339 98.6743 25.1463 99.2922C23.8469 100.935 22.5223 102.558 22.1705 104.736C22.0474 105.265 22.0405 105.816 22.1503 106.348C22.2685 106.778 22.2608 107.353 22.8817 107.366C23.5025 107.378 23.5653 106.838 23.6181 106.391C24.0228 102.94 26.2774 100.709 28.7782 98.6743C29.9117 97.7499 31.0075 97.8554 32.0807 98.7748C33.0534 99.6087 33.0031 100.413 31.9977 101.196C29.9498 102.812 28.3543 104.93 27.3656 107.343C27.1143 107.961 26.9157 108.599 27.1972 109.292C27.3481 109.654 27.5139 110.031 27.9513 110.046C28.4414 110.061 28.4816 109.606 28.6022 109.255C29.3852 106.891 30.927 104.852 32.9881 103.455C33.8854 102.839 34.7474 102.729 35.6246 103.477C36.5495 104.269 36.6651 104.984 35.9488 105.974C35.2325 106.964 34.3427 107.891 33.747 109.019C32.8673 110.689 32.5658 112.395 33.0709 114.231C33.2243 114.794 33.4003 115.359 33.3349 115.959C31.0201 120.423 29.585 121.031 25.0458 119.468Z" fill="#4EAAA2"/>
<path d="M25.0458 119.468C29.585 121.031 31.0202 120.423 33.34 115.952C34.4459 116.454 35.2024 117.459 36.3561 117.961C40.4077 119.677 44.0822 118.667 47.5331 116.421C50.0213 114.801 52.3286 112.932 54.2187 110.604C54.7013 110.011 55.2241 109.9 55.4905 110.764C56.0686 112.681 56.5964 114.615 57.1141 116.542C57.27 117.127 56.9433 117.585 56.5462 117.989C52.0824 122.546 46.8118 125.299 40.3298 125.801C34.9788 126.213 30.4797 124.497 26.4458 121.189C25.8652 120.727 25.262 120.252 25.0458 119.468Z" fill="#2A7478"/>
<path d="M29.6804 75.3707C28.2 75.4461 26.9408 73.9666 26.0837 72.0047C24.4777 68.3347 25.6237 65.1973 28.7881 63.1124C30.2534 62.1427 32.6989 62.4894 33.8148 64.4312C35.1218 66.7145 35.9061 69.0531 35.147 71.7384C34.4734 74.1148 33.169 75.21 29.6804 75.3707ZM28.5494 69.9525C28.5267 71.6506 29.4517 72.7708 30.8843 72.7809C32.0907 72.7809 33.2946 71.5249 33.2996 70.2413C33.2996 68.7115 32.2013 67.4907 30.8114 67.4957C29.4793 67.4882 28.567 68.4779 28.5494 69.9424V69.9525Z" fill="#F8CBA0"/>
<path d="M35.6974 101.081C34.9183 100.993 34.9057 100.37 34.775 99.8048C34.3402 97.9208 33.4103 96.4413 31.5378 95.6374C30.4646 95.1777 29.5522 95.1777 28.67 96.0217C28.3206 96.3558 27.9537 96.7327 27.4133 96.8256C26.9307 96.597 26.7498 96.0921 26.408 95.7278C25.6389 94.8913 24.7466 94.2608 23.5653 94.4517C22.6756 94.5949 22.5373 94.1729 22.5775 93.4872C22.6267 92.8625 22.7603 92.2472 22.9746 91.6584C23.3441 90.5757 23.8996 89.9981 25.1035 90.6135C25.8399 90.9928 26.4532 90.6812 27.0464 90.1989C28.5971 88.9429 28.8636 89.0008 29.6427 90.729C29.8765 91.249 30.3088 91.3018 30.7687 91.3621C31.5856 91.4676 32.0957 91.7866 32.2365 92.7386C32.3973 93.8162 33.081 94.095 34.0813 93.6529C34.584 93.4343 35.0162 93.1028 35.5064 92.8692C35.9387 92.6607 36.376 92.2336 36.8913 92.5803C37.4065 92.9269 37.4216 93.5324 37.3261 94.0624C36.9692 96.0318 36.5721 97.9911 36.1624 99.9529C36.0971 100.347 36.0971 100.794 35.6974 101.081Z" fill="#774525"/>
<path d="M84.2914 64.2452C85.2716 64.3909 86.267 64.4663 87.2271 64.6899C91.6984 65.7374 96.2199 66.619 100.387 68.6788C101.141 69.0531 101.87 69.4576 102.415 70.1158C102.747 70.5152 102.971 70.9849 102.73 71.5024C102.443 72.1153 101.903 71.9168 101.41 71.849C99.1606 71.53 97.072 70.6306 94.8979 70.0353C92.7993 69.4626 90.6955 68.9401 88.5214 68.7416C88.0514 68.6989 87.604 68.6186 87.2823 68.2393C86.2317 67.0117 85.1845 65.78 84.1406 64.5441L84.2914 64.2452Z" fill="#2A7478"/>
<path d="M93.6261 76.6268C94.0132 76.6268 94.2368 76.5665 94.4128 76.6268C96.7879 77.5587 99.2561 78.2094 101.702 78.9705C101.968 79.0282 102.205 79.1814 102.366 79.4011C102.528 79.6209 102.603 79.8921 102.579 80.1637C102.579 81.2489 102.649 82.334 102.674 83.4292C102.694 84.3285 102.34 84.4944 101.418 84.3436C97.3233 83.6704 95.2522 80.8796 93.8171 77.3629C93.7367 77.1222 93.6729 76.8762 93.6261 76.6268Z" fill="#2A7478"/>
<path d="M89.3858 70.7764C90.4264 70.3871 91.1653 70.6809 91.8615 70.8568C94.6514 71.5727 97.4111 72.4042 100.203 73.1026C101.289 73.3764 101.767 73.9039 101.686 75.0192C101.683 75.5577 101.718 76.0957 101.792 76.6293C101.086 77.0086 100.558 76.4786 99.9723 76.3781C97.3558 75.9536 94.9304 74.871 92.4019 74.1551C90.816 73.7079 90.4716 72.0148 89.3858 70.7764Z" fill="#2A7478"/>
<path d="M42.5038 89.3625C41.2471 89.9302 39.9551 90.0984 38.9246 90.857C38.6482 91.0605 38.3692 90.9199 38.1128 90.7566C37.1477 90.1462 36.2102 90.2542 35.2929 90.8621C34.7098 91.2489 34.2045 91.4323 33.7521 90.636C33.4278 90.0683 32.7845 89.8573 32.1888 89.6588C31.671 89.4855 31.2689 89.1891 31.1834 88.654C31.0829 88.0336 31.6861 87.9834 32.048 87.7422C32.9805 87.1117 33.908 87.1167 34.853 87.7422C35.6749 88.2848 36.4414 88.2973 36.9566 87.3252C37.311 86.657 37.8766 86.5138 38.5401 86.5867C40.3071 86.7751 41.7095 87.5112 42.5038 89.3625Z" fill="#774525"/>
<path d="M98.3084 85.1172C99.8164 85.4262 101.048 86.1723 102.37 86.6521C102.466 86.6913 102.552 86.7509 102.622 86.8269C102.693 86.9028 102.745 86.9932 102.777 87.0917C103.089 88.7898 103.531 90.4803 103.34 92.2412C100.832 92.078 97.8836 87.8979 98.3084 85.1172Z" fill="#2A7478"/>
<path d="M48.0709 79.3146C47.7467 80.9649 46.6434 82.1078 45.6079 83.2281C44.6829 84.2329 43.3181 83.7457 42.9235 82.4244C42.4485 80.8368 42.6722 80.3269 44.3562 79.8395C45.5599 79.4741 46.813 79.297 48.0709 79.3146Z" fill="#D7C39E"/>
<path d="M35.5668 82.3842C37.3437 81.6959 39.1207 81.0579 41.0509 80.7866C40.9579 82.6304 39.6761 83.615 38.5376 84.6675C38.3416 84.8258 38.0965 84.9108 37.8445 84.9076C37.5926 84.9043 37.3496 84.8132 37.1578 84.65C36.4389 84.0823 35.6547 83.5095 35.5668 82.3842Z" fill="#D7C39E"/>
<path d="M49.5362 79.4201C51.2076 79.8722 52.4869 80.6911 53.6807 81.6331C54.382 82.1858 53.8341 83.1679 52.6754 83.5095C50.9311 84.0119 50.0791 83.5271 49.7372 81.731C49.6298 80.9647 49.5628 80.1934 49.5362 79.4201Z" fill="#D7C39E"/>
<path d="M101.196 93.457C103.642 93.9343 103.986 94.934 102.662 98.1117L101.196 93.457Z" fill="#2A7478"/>
<path d="M69.0903 93.5474C68.4619 92.7611 68.9621 92.1532 69.4095 91.5378C73.8683 85.3935 74.9389 78.5158 73.7878 71.1733C73.5616 69.7289 73.0011 68.3649 72.4934 66.9933C72.3049 66.4909 72.0812 65.9685 72.516 65.4636C73.3429 65.5389 73.7275 66.0915 74.024 66.7949C76.4243 72.6729 76.5651 78.659 74.8661 84.7254C74.0858 87.511 72.8382 90.1441 71.1765 92.5125C70.6587 93.231 70.0806 93.786 69.0903 93.5474Z" fill="#1D2831"/>
<path d="M82.2404 79.8923C83.1 80.9373 83.2734 82.1933 84.1706 83.0825C85.2137 84.1175 86.3397 84.2782 87.6064 83.8738C88.8129 83.492 88.9009 82.3315 89.0844 81.3242C89.205 80.6761 89.1296 79.9928 89.1597 79.3146C89.1597 79.0634 89.2427 78.8121 89.5418 78.7418C89.6675 78.7273 89.7948 78.7507 89.9071 78.8089C90.0195 78.8671 90.1119 78.9574 90.1726 79.0684C90.2813 79.1964 90.3664 79.3426 90.4239 79.5004C90.904 81.1734 90.439 82.6328 89.3557 83.924C88.2725 85.2151 86.7594 85.9336 85.1232 85.3182C83.8515 84.8484 83.6328 85.2629 83.2708 86.323C82.361 89.0233 80.569 89.8397 78.0481 89.4479C77.2186 89.3172 76.5527 88.9179 76.721 87.9231C77.0528 87.6041 77.3167 87.7849 77.5856 87.8829C79.9357 88.7495 82.0092 87.3353 82.0946 84.8258C82.1154 83.8234 82.0141 82.8221 81.793 81.8441C81.6472 81.2161 81.5895 80.5655 82.2404 79.8923Z" fill="#1F5C61"/>
<path d="M78.8322 74.7831C81.2652 74.8484 82.4766 73.409 82.1675 70.9548C82.087 70.3117 81.3556 69.2441 82.4011 69.0482C83.2708 68.8874 83.2934 70.1484 83.4316 70.7889C83.786 72.4569 83.4317 74.0997 82.19 75.3105C80.9484 76.5213 79.2318 76.5088 77.578 76.2274C77.1733 76.1571 76.8692 75.9134 76.9395 75.4487C76.9587 75.2577 77.0479 75.0805 77.1899 74.9511C77.3318 74.8217 77.5166 74.7494 77.7087 74.7479C78.0835 74.7383 78.4587 74.7501 78.8322 74.7831Z" fill="#1F5C61"/>
<path d="M78.2441 121.167C79.0358 121.516 79.0937 122.259 78.9479 122.925C78.2693 126.057 74.9265 128.464 71.6968 126.457C71.3304 126.253 71.0223 125.959 70.802 125.603C70.5934 125.236 70.5707 124.874 70.9176 124.585C71.2644 124.296 71.5208 124.49 71.8224 124.688C74.6701 126.56 76.9071 125.645 77.7214 122.289C77.8144 121.91 77.7238 121.433 78.2441 121.167Z" fill="#1F5C61"/>
<path d="M58.2124 65.7197C58.2275 70.0529 55.7342 73.758 51.929 75.0592C50.2966 75.6244 48.5276 75.6617 46.8728 75.1658C45.2181 74.6698 43.7616 73.6657 42.7098 72.296C39.3896 68.0256 39.7415 61.4393 43.489 57.6864C46.2311 54.9409 50.4611 54.539 53.5752 56.8425C56.541 59.0429 58.2049 61.9643 58.2124 65.7197ZM42.6043 65.4937C42.637 66.5993 42.8791 67.6886 43.318 68.7039C44.7934 72.4292 48.561 74.0821 52.0546 72.3463C54.4876 71.1405 55.9881 68.4201 55.8247 65.677C55.6437 62.5672 53.5099 58.7163 50.8281 58.023C48.9607 57.5407 45.4293 58.3219 44.5245 59.7562C43.4362 61.4845 42.4007 63.2957 42.6043 65.4937Z" fill="#1D2831"/>
<path d="M59.9265 36.1036C59.9342 35.4864 59.9091 34.8692 59.8511 34.2547C59.7405 33.4508 59.9817 32.9988 60.8338 32.9435C62.1378 32.7708 63.4622 32.832 64.7446 33.1243L64.7196 33.0766L65.2223 33.3931L65.7677 33.8251C65.8456 33.9859 65.9235 34.1466 65.9989 34.3074C67.0042 35.7819 67.0269 37.4499 65.8933 38.8793C65.1544 39.8112 65.3403 40.4869 66.0541 41.2505C66.293 41.5371 66.4901 41.8559 66.6397 42.1976C66.8911 42.7 67.5948 43.3204 66.6774 43.7299C65.9737 44.0439 65.0814 44.1544 64.5712 43.2752C64.1163 42.4915 63.7419 41.66 63.3322 40.8536C62.3093 41.2078 62.2741 41.356 62.6988 43.8102C61.9322 43.9409 61.2033 44.5387 60.4016 43.863L60.213 43.6118L60.1653 43.1094L60.1829 40.3689C60.3688 39.8087 59.9894 39.349 59.9089 38.839C59.9173 37.9263 59.9231 37.0146 59.9265 36.1036ZM63.767 35.5584C63.3272 35.1615 62.842 35.2696 62.3519 35.4354C62.1156 35.9955 62.2715 36.5757 62.289 37.1434C62.3293 38.3994 62.5907 38.5175 63.8172 37.9548C64.4933 37.2967 64.4708 36.5758 64.0083 35.8172L63.767 35.5584Z" fill="#F0DFA4"/>
<path d="M56.6792 33.5263C58.0993 33.9633 58.6044 35.0762 58.7175 36.4075C58.8608 38.083 58.5995 39.6278 56.9281 40.5397L54.9174 41.0698L54.8872 41.0948C54.4398 42.1674 54.9349 43.2852 54.7263 44.3604C54.6993 44.3766 54.6792 44.4024 54.67 44.4325C54.6607 44.4626 54.6628 44.4951 54.676 44.5237L53.1981 44.6971L52.7231 44.6116C52.1475 42.4739 52.507 40.2558 52.1551 38.1006L52.1325 37.578C52.1853 36.3221 51.8812 35.0661 52.1476 33.8101H52.1726C53.6631 33.6091 55.1511 33.152 56.6792 33.5263ZM55.988 38.1232H55.9729C56.639 37.5555 56.4756 36.8924 56.1815 36.2242C56.1068 36.0101 55.9598 35.8288 55.7658 35.7115C55.5717 35.5941 55.3428 35.548 55.1184 35.5811C54.9955 35.5878 54.8752 35.6188 54.7645 35.6724C54.6537 35.7259 54.5546 35.8008 54.473 35.8929C54.3914 35.9849 54.3289 36.0922 54.2891 36.2086C54.2494 36.325 54.233 36.4481 54.2412 36.5708C54.0979 38.2488 54.2412 38.495 55.4477 38.5377C55.7216 38.5201 55.9453 38.4448 55.993 38.1232H55.988Z" fill="#F0DFA4"/>
<path d="M82.567 31.5318L79.551 31.7403C79.0131 31.7705 78.4752 31.8157 77.9374 31.8283C76.8868 31.8534 76.5475 32.1146 76.7737 33.5088C76.9798 34.7974 78.1334 34.4256 78.9377 34.6969C79.0408 36.0936 79.1412 37.4601 79.2443 38.8165C79.3523 40.2182 79.1815 41.6399 79.5485 43.1044C80.4181 43.132 81.2651 43.3557 82.0317 42.7679C82.1845 42.3391 82.2345 41.8805 82.1775 41.429C82.0342 39.0803 81.9262 36.7291 81.8055 34.3779C82.0488 34.367 82.2908 34.3367 82.5293 34.2875C83.1652 34.1091 83.6402 33.7524 83.5774 33.0164C83.5322 32.3457 83.5975 31.5519 82.567 31.5318Z" fill="#F0DFA4"/>
<path d="M90.5697 40.8788C90.0821 40.2835 89.2954 40.8186 88.7626 40.3966C88.4236 40.2765 88.0523 40.2855 87.7196 40.4217L87.702 40.497L87.6241 40.4769C86.8851 39.8966 86.87 38.917 87.5964 38.4045C88.1179 38.3484 88.6324 38.2399 89.1321 38.0805C89.7831 37.8293 90.2229 37.6358 90.1375 36.8245C90.0495 35.9352 89.3683 36.1539 88.8506 36.0459C88.5766 35.9831 88.2901 35.8398 88.0287 35.8724C86.9253 36.0156 86.8198 35.3876 86.8123 34.516C86.8123 33.5112 87.5059 33.6796 88.0966 33.6343C88.3479 33.6168 88.5993 33.6343 88.8506 33.6343L90.3461 33.456C90.6402 32.7024 90.9266 31.9488 90.1198 31.3108C88.28 31.0596 86.4453 31.3107 84.608 31.3861L84.5577 34.084C84.667 35.8323 84.667 37.5857 84.5577 39.334C84.5753 39.5852 84.5929 39.8364 84.6131 40.0876C84.3617 40.482 84.4622 40.806 84.809 41.0924C84.9825 41.6852 84.5828 42.3735 85.1182 42.9035C86.8901 43.1547 88.6721 43.549 90.3812 42.6121L90.6853 42.1097C91.2332 41.6475 91.085 41.2456 90.5697 40.8788Z" fill="#F0DFA4"/>
<path d="M71.4452 40.8537L71.4252 40.8863C71.4553 40.8948 71.4865 40.899 71.5177 40.8987L71.4452 40.8537Z" fill="#F0DFA4"/>
<path d="M71.2418 40.6152C71.2407 40.6224 71.2407 40.6297 71.2418 40.637H71.2661L71.2418 40.6152Z" fill="#F0DFA4"/>
<path d="M76.2836 40.3413C76.2729 40.3507 76.2628 40.3608 76.2534 40.3714C76.5525 38.6558 76.364 36.9678 75.9745 35.2923L76.0347 35.237C75.9258 35.1693 75.8411 35.069 75.7923 34.9505C75.7436 34.8319 75.7335 34.701 75.7634 34.5764L75.7507 34.6466C75.7695 34.4875 75.7407 34.3265 75.6678 34.1839C75.5948 34.0412 75.4811 33.9233 75.3411 33.8453C75.1299 33.6519 74.9113 33.4686 74.7077 33.2676C72.7623 31.361 70.2339 31.7228 68.8666 34.1041L68.5046 34.7321L68.5398 34.7873L68.4996 34.8376L68.2482 35.3601L68.2885 35.3249C67.9617 36.8964 67.931 38.515 68.198 40.0977C68.6153 41.1602 69.1054 42.1801 70.0152 42.9287C70.1704 42.8976 70.3315 42.9206 70.4719 42.9937C70.6122 43.0668 70.7233 43.1857 70.7868 43.3306L71.2769 43.519C71.9127 43.6445 72.5648 43.6648 73.2071 43.5792C73.3504 43.014 73.9135 43.112 74.2829 42.9035C74.7228 42.6674 74.9616 42.1499 75.4969 42.0419C75.5121 42.0506 75.5264 42.0607 75.5396 42.0721C75.6226 41.9138 75.703 41.7556 75.791 41.5998L75.7709 41.6325C75.8563 41.4667 75.9393 41.2984 76.0222 41.1301C76.1102 40.8789 76.1956 40.6076 76.2735 40.3438L76.2836 40.3413ZM74.0215 39.2436C73.8833 40.4393 72.9634 41.0296 72.0108 41.5521C71.857 41.5218 71.716 41.4456 71.6065 41.3334C71.4969 41.2213 71.4241 41.0786 71.3976 40.9241L71.4227 40.8865C71.3693 40.8703 71.3228 40.8369 71.2904 40.7914C71.2581 40.7459 71.2419 40.691 71.2443 40.6353C71.086 40.6177 71.0332 40.5021 70.993 40.364L70.7416 39.8616C70.3084 38.6519 70.2402 37.3417 70.5455 36.0936C70.6159 34.9029 71.5509 34.6994 72.3979 34.7245C73.2449 34.7496 73.637 35.4354 73.8079 36.2493C74.0413 37.2291 74.1135 38.2406 74.0215 39.2436Z" fill="#F0DFA4"/>
<path d="M94.654 41.3913C94.4831 38.1609 94.2997 34.9305 94.1288 31.7001C94.1037 31.253 94.0509 30.8133 93.4728 30.8636C92.7917 30.9239 92.0503 30.7983 91.4772 31.3384C91.0625 31.8609 90.9996 32.3607 91.5802 32.8154C91.5802 32.9912 91.5928 33.1646 91.5978 33.3405C91.4999 33.5202 91.4344 33.7157 91.4043 33.9182C91.4646 36.0559 91.545 38.1885 91.6305 40.3312C91.6399 40.4564 91.6899 40.5752 91.7729 40.6695C91.8558 40.7638 91.9674 40.8284 92.0905 40.8537C92.0905 41.027 92.0905 41.2029 92.0905 41.3762C91.9956 41.4776 91.9446 41.6122 91.9483 41.7509C91.9521 41.8896 92.0104 42.0212 92.1106 42.1173C92.1302 42.1411 92.143 42.1697 92.1479 42.2002C92.1528 42.2307 92.1494 42.2619 92.1382 42.2906C92.7364 43.0442 93.4175 42.8558 94.1137 42.4589C94.7873 42.3433 94.6792 41.8334 94.654 41.3913Z" fill="#F0DFA4"/>
<path d="M75.7809 41.63L76.0498 41.0974C75.9593 41.2758 75.8689 41.4592 75.7809 41.63Z" fill="#161C19"/>
<path d="M104.479 38.3619V37.842C104.338 35.8123 104.182 33.78 104.062 31.7478C104.056 31.4806 103.995 31.2175 103.882 30.9752C103.769 30.733 103.607 30.5171 103.406 30.3412H103.463C103.246 30.1636 102.97 30.0745 102.691 30.0922C102.411 30.11 102.148 30.2331 101.955 30.4367L101.679 30.831C101.794 32.6471 101.91 34.4658 102.041 36.4829C101.799 36.3345 101.596 36.1319 101.446 35.8912C101.296 35.6506 101.205 35.3784 101.179 35.0963C100.56 34.5186 100.405 33.7374 100.148 32.9687C99.8215 31.9991 99.6455 30.7607 98.1702 30.7933C97.5619 30.1151 96.9888 30.0648 96.461 30.8536C95.5838 31.3735 95.8805 32.1096 96.1343 32.8205L96.2751 33.3581C96.2952 33.5113 96.3178 33.667 96.3379 33.8202L96.3907 35.1013L96.6068 40.6051C96.7576 41.0723 96.5213 41.5974 96.833 42.0847C97.5465 42.2166 98.2789 42.2089 98.9895 42.062V40.6025C98.9895 40.5272 98.9895 40.4544 98.9895 40.3815L98.9744 39.854C98.9015 38.5126 98.8287 37.1713 98.7508 35.7319C99.6833 35.8625 99.6179 36.5382 99.726 37.0934C100.575 38.2363 101.101 39.5475 101.636 40.8437C101.945 41.5973 102.405 41.9917 103.227 41.9314C103.602 41.949 103.996 41.8033 104.346 42.0545C104.295 41.7732 104.449 41.7179 104.682 41.748C104.605 40.6176 104.537 39.4889 104.479 38.3619Z" fill="#F0DFA4"/>
<path d="M28.5493 69.9424C28.5669 68.478 29.4793 67.4882 30.8114 67.4857C32.2013 67.4857 33.3046 68.7015 33.2996 70.2313C33.2996 71.5124 32.0907 72.7784 30.8843 72.7709C29.4516 72.7608 28.5292 71.6405 28.5493 69.9424Z" fill="#1D2831"/>
<path d="M42.6043 65.4937C42.4007 63.2957 43.4362 61.4745 44.527 59.7563C45.4318 58.3219 48.9631 57.5407 50.8306 58.023C53.5124 58.7163 55.6462 62.5673 55.8272 65.6771C55.988 68.4202 54.4875 71.1406 52.0571 72.3463C48.5635 74.0821 44.796 72.4292 43.3206 68.704C42.8809 67.6888 42.6378 66.5995 42.6043 65.4937ZM49.9485 66.732C49.9485 64.8782 49.1416 63.9463 47.5481 63.9689C46.1833 63.9839 45.0523 65.2248 45.1755 66.7798C45.3212 68.6386 46.1456 69.5128 47.4174 69.4751C49.0436 69.4223 49.9485 68.4879 49.9485 66.732Z" fill="#F8CBA0"/>
<path d="M49.9484 66.7321C49.9484 68.4904 49.0435 69.4224 47.4174 69.4701C46.1456 69.5078 45.3212 68.6336 45.1754 66.7748C45.0523 65.2249 46.1808 63.9789 47.5481 63.9639C49.139 63.9463 49.9509 64.8782 49.9484 66.7321Z" fill="#1D2831"/>
<path d="M107.683 36.4352C107.465 33.3103 107.181 30.1879 106.929 27.0655C106.864 26.2291 106.522 25.8422 105.63 26.0608C105.062 26.2035 104.479 26.2818 103.893 26.2943C96.8231 26.2943 89.763 26.5907 82.7129 27.073C77.7917 27.4096 72.8705 27.7564 67.9518 28.1432C62.171 28.6004 56.3726 29.1254 50.5792 29.5624C49.511 29.6428 49.0838 29.9819 49.1944 31.0922C49.6971 36.1664 49.976 41.2531 50.1494 46.3474C50.1871 47.4225 50.5944 47.945 51.6349 48.136C53.1982 48.4223 54.7615 48.7388 56.2972 49.1407C57.5404 49.5076 58.8347 49.6712 60.1301 49.6255C65.8037 49.2738 71.4781 48.9506 77.1533 48.6559C81.1194 48.4449 85.0881 48.3068 89.0542 48.1033C94.8149 47.8044 100.561 47.2567 106.331 47.1386C108.164 47.101 108.226 47.0508 108.201 45.5135C108.023 42.273 107.887 39.3516 107.683 36.4352ZM56.9306 40.5397L54.9199 41.0698L54.8897 41.0948C54.9877 41.5771 55.141 42.0645 55.2139 42.5468C55.1435 42.0645 54.9877 41.5771 54.8897 41.0948C54.4423 42.1674 54.9375 43.2853 54.7289 44.3604C54.7019 44.3767 54.6817 44.4024 54.6724 44.4325C54.6632 44.4626 54.6654 44.4951 54.6786 44.5238L53.2007 44.6971L52.7257 44.6116C52.1501 42.4739 52.5095 40.2558 52.1576 38.1006L52.135 37.5781C52.1878 36.3221 51.8837 35.0661 52.1501 33.8101H52.1753C53.6833 33.6066 55.1586 33.1495 56.6994 33.5238C58.1194 33.9609 58.6246 35.0736 58.7377 36.405C58.8659 38.083 58.6045 39.6278 56.9306 40.5397ZM66.68 43.7299C65.9763 44.0439 65.084 44.1545 64.5738 43.2753C64.1189 42.4915 63.7444 41.66 63.3347 40.8537C62.3117 41.2079 62.2765 41.3561 62.7013 43.8103C61.9347 43.9409 61.2058 44.5387 60.404 43.863L60.2155 43.6118L60.1653 43.1094L60.1855 40.369C60.3714 39.8088 59.9918 39.349 59.9114 38.8391C59.9114 37.9247 59.9157 37.0121 59.924 36.1011C59.9318 35.4839 59.9065 34.8668 59.8486 34.2523C59.738 33.4484 59.9793 32.9962 60.8338 32.941C62.137 32.7686 63.4605 32.8299 64.7422 33.1219L64.717 33.0742L65.2197 33.3906L65.7651 33.8227C65.843 33.9835 65.9209 34.1442 65.9963 34.305C67.0017 35.7795 67.0243 37.4475 65.8908 38.8769C65.1518 39.8088 65.3379 40.4845 66.0517 41.2481C66.2905 41.5347 66.4877 41.8535 66.6373 42.1952C66.9012 42.7151 67.5999 43.3205 66.6825 43.7199L66.68 43.7299ZM76.0448 41.0974C75.9569 41.2758 75.8664 41.4516 75.776 41.63L75.7961 41.5972C75.7131 41.753 75.6327 41.9113 75.5447 42.0696L75.502 42.0368C74.9667 42.1398 74.7279 42.6623 74.288 42.8985C73.9186 43.107 73.3555 43.009 73.2122 43.5742C72.5699 43.6597 71.9178 43.6394 71.282 43.5139L70.7919 43.3256C70.7284 43.1806 70.6173 43.0617 70.477 42.9886C70.3366 42.9155 70.1755 42.8926 70.0203 42.9236C69.1105 42.17 68.6204 41.1652 68.2031 40.0926C67.9361 38.5099 67.9668 36.8913 68.2936 35.3199L68.2533 35.3551L68.5047 34.8326L68.5449 34.7823L68.5097 34.7271L68.8716 34.0991C70.2389 31.7177 72.7674 31.356 74.7128 33.2626C74.9164 33.4635 75.135 33.6469 75.3462 33.8403C75.4862 33.9183 75.5998 34.0361 75.6727 34.1788C75.7457 34.3215 75.7746 34.4825 75.7558 34.6416L75.7685 34.5713C75.7386 34.696 75.7487 34.8268 75.7974 34.9454C75.8462 35.064 75.9309 35.1642 76.0398 35.2319L75.9796 35.2872C76.3691 36.9652 76.5576 38.6558 76.2585 40.374L76.2887 40.3362C76.2007 40.6 76.1153 40.8613 76.0374 41.1225L76.0448 41.0974ZM76.623 36.5758C76.6381 36.6311 76.6531 36.6839 76.6657 36.7417C76.6557 36.6864 76.6405 36.6261 76.6255 36.5708L76.623 36.5758ZM76.7662 37.2892C76.7662 37.3143 76.7662 37.342 76.7662 37.3671C76.7863 37.337 76.7713 37.3093 76.7688 37.2842L76.7662 37.2892ZM82.547 34.2925C82.3085 34.3418 82.0665 34.372 81.8232 34.3829C81.9438 36.7341 82.0519 39.0853 82.1952 41.434C82.2521 41.8855 82.2022 42.3441 82.0494 42.7729C81.2828 43.3506 80.4358 43.1371 79.5662 43.1094C79.1992 41.645 79.3701 40.2232 79.2621 38.8215C79.159 37.46 79.0584 36.0986 78.9554 34.7019C78.1511 34.4306 76.9975 34.8024 76.7914 33.5138C76.5652 32.1196 76.9044 31.8584 77.955 31.8333C78.4929 31.8207 79.0308 31.7755 79.5686 31.7453L82.5847 31.5368C83.6127 31.5569 83.5473 32.3507 83.6051 33.0214C83.6529 33.7524 83.1779 34.1091 82.542 34.2875L82.547 34.2925ZM90.6803 42.1147L90.3762 42.6171C88.6671 43.5541 86.8851 43.1572 85.1132 42.9085C84.5778 42.3785 84.9775 41.6902 84.804 41.0974C84.4572 40.8211 84.3592 40.497 84.608 40.0926C84.5879 39.8414 84.5703 39.5902 84.5527 39.339C84.662 37.5907 84.662 35.8373 84.5527 34.089L84.603 31.3911C86.4403 31.3208 88.275 31.0571 90.1148 31.3158C90.9216 31.9538 90.6352 32.7074 90.3411 33.461L88.8456 33.6394C88.5942 33.6394 88.3429 33.6218 88.0916 33.6394C87.5009 33.6846 86.7997 33.5037 86.8073 34.521C86.8073 35.3927 86.9203 36.0282 88.0237 35.8774C88.275 35.8448 88.5716 35.9881 88.8456 36.0509C89.3633 36.1589 90.0445 35.9403 90.1325 36.8295C90.2129 37.6308 89.773 37.8343 89.1271 38.0855C88.6274 38.2449 88.113 38.3535 87.5915 38.4095C86.8676 38.9119 86.8801 39.9017 87.6191 40.4819L87.697 40.502L87.7146 40.4241C88.0479 40.2899 88.4187 40.2819 88.7576 40.4016C89.2904 40.8236 90.0771 40.2885 90.5647 40.8839C91.085 41.2456 91.2332 41.6475 90.6753 42.1097L90.6803 42.1147ZM94.1287 42.4639C93.4325 42.8608 92.7514 43.0618 92.1532 42.2956C92.1645 42.2669 92.1678 42.2357 92.1629 42.2052C92.1581 42.1747 92.1451 42.1461 92.1255 42.1223C92.0253 42.0263 91.967 41.8946 91.9633 41.7559C91.9595 41.6172 92.0107 41.4826 92.1055 41.3812C92.1055 41.2079 92.1055 41.032 92.1055 40.8587C91.9824 40.8334 91.8709 40.7688 91.7879 40.6745C91.7049 40.5802 91.655 40.4614 91.6455 40.3362C91.5601 38.1985 91.4797 36.0659 91.4193 33.9232C91.4494 33.7207 91.5149 33.5252 91.6129 33.3455C91.6129 33.1696 91.6002 32.9962 91.5952 32.8204C91.0146 32.3657 91.0774 31.8659 91.4921 31.3434C92.0652 30.8033 92.8067 30.9289 93.4879 30.8686C94.0659 30.8183 94.1187 31.258 94.1438 31.7051C94.3147 34.9355 94.4982 38.1659 94.6691 41.3963C94.6791 41.8334 94.7872 42.3433 94.1287 42.4639ZM104.323 42.0545C103.974 41.8033 103.569 41.9489 103.205 41.9313C102.383 41.9916 101.923 41.5947 101.614 40.8436C101.078 39.5474 100.553 38.2363 99.7035 37.0933C99.5954 36.5382 99.6606 35.8625 98.7282 35.7319C98.8061 37.1712 98.879 38.5125 98.9519 39.8539L98.967 40.3815C98.967 40.4543 98.967 40.5271 98.967 40.6025V42.062C98.2564 42.2088 97.524 42.2166 96.8105 42.0846C96.4988 41.5973 96.7351 41.0798 96.5843 40.6051L96.3682 35.1013L96.3154 33.8202C96.2953 33.6669 96.2727 33.5112 96.2526 33.358L96.1118 32.8204C95.8605 32.102 95.5613 31.3735 96.4385 30.8535C96.9663 30.0647 97.5395 30.115 98.1477 30.7933C99.6331 30.7606 99.7989 31.9991 100.126 32.9687C100.377 33.7374 100.538 34.5185 101.156 35.0963C101.182 35.3784 101.274 35.6505 101.424 35.8912C101.573 36.1318 101.777 36.3344 102.018 36.4829C101.888 34.4733 101.767 32.6471 101.656 30.8309L101.933 30.4366C102.125 30.233 102.388 30.1099 102.668 30.0922C102.948 30.0745 103.224 30.1635 103.441 30.3412H103.381C103.582 30.5178 103.745 30.7346 103.859 30.9776C103.972 31.2207 104.033 31.4847 104.039 31.7528C104.16 33.785 104.316 35.8172 104.456 37.8469V38.3669C104.517 39.4922 104.576 40.6192 104.635 41.748C104.434 41.7103 104.27 41.7681 104.321 42.0494L104.323 42.0545Z" fill="#E16D3F"/>
<path d="M96.4708 30.8335L96.4459 30.8484L96.4234 30.8834L96.4708 30.8335Z" fill="#2A3631"/>
<path d="M114.859 45.3124C114.233 44.2875 114.13 43.3707 114.945 42.4538C115.724 41.5771 115.631 40.8562 114.859 39.9569C113.512 38.387 113.55 38.3167 114.741 36.4955C115.198 35.7947 115.281 35.2394 114.651 34.6089C113.421 33.3931 113.298 32.097 114.419 30.718C114.741 30.3236 114.829 29.8187 114.432 29.462C112.833 28.0251 112.14 26.4802 114.108 24.3952C112.311 24.247 111.036 24.2597 109.752 24.4807C109.028 24.6088 108.772 24.9052 108.872 25.6638C109.719 32.1297 109.83 38.6532 110.433 45.1391C110.7 48.0028 110.662 48.0053 113.525 47.9023C116.164 47.8043 116.274 47.636 114.859 45.3124Z" fill="#E16D3F"/>
<path d="M47.895 44.589C47.714 41.5746 47.5205 38.309 47.322 35.061C47.2231 33.4785 47.1201 31.8959 47.0128 30.3134C46.955 29.4443 46.48 28.9922 45.6405 28.7661C44.3285 28.4119 43.0643 28.8238 41.785 28.9193C41.212 28.962 41.1616 29.4845 41.5487 29.8462C42.5917 30.8208 42.3807 31.8558 41.7548 32.9109C41.2522 33.7499 41.4608 34.3728 42.0942 35.0259C43.5042 36.4804 43.5268 36.6285 42.5717 38.3819C42.2299 39.0099 42.0841 39.56 42.7024 40.0473C44.0194 41.0822 44.1275 42.2578 43.3307 43.6897C42.8281 44.5739 43.7706 46.7041 44.6879 47.0683C47.0204 47.9977 47.9 47.415 47.895 44.9432V44.589Z" fill="#E16D3F"/>
<path d="M39.3368 94.4342C39.3066 95.1446 39.2226 95.8516 39.0855 96.5493C38.1932 100.453 39.0604 104.718 36.6877 108.32C36.6626 108.356 36.7455 108.461 36.7782 108.534C38.6129 108.305 39.5983 107.253 39.8169 105.17C40.1864 101.674 40.5961 98.1971 42.079 94.9416C42.6043 93.7861 43.0139 92.5754 43.4839 91.3721C41.2319 91.0255 39.4902 92.3593 39.3368 94.4342Z" fill="#61452D"/>
<path d="M54.9047 91.8517C52.0269 91.711 50.2047 93.2559 48.8726 96.2201C48.3699 97.3178 48.6841 97.7147 49.878 97.5942C52.4768 97.3279 54.5805 96.1848 55.9679 93.904C56.2846 93.379 56.7848 92.7938 56.4254 92.1834C56.066 91.573 55.3571 91.9271 54.9047 91.8517Z" fill="#DF5E44"/>
<path d="M64.0084 35.8146L63.757 35.5634C63.3172 35.1666 62.832 35.2746 62.3419 35.4404C62.1056 36.0006 62.2615 36.5808 62.2791 37.1485C62.3193 38.4045 62.5807 38.5226 63.8072 37.9599L63.7293 37.862C63.4494 37.8428 63.1839 37.7305 62.9753 37.543C63.1843 37.7296 63.4497 37.8409 63.7293 37.8594C63.7544 37.8946 63.7821 37.9272 63.8072 37.9599C64.4833 37.2992 64.4608 36.5808 63.9983 35.8197L64.0084 35.8146ZM62.6083 35.9453C62.636 36.1086 62.6461 36.2844 62.6586 36.4477C62.6461 36.2869 62.636 36.1111 62.6083 35.9478V35.9453Z" fill="#E16D3F"/>
<path d="M72.4131 34.7346C71.5611 34.7094 70.6311 34.913 70.5607 36.1036C70.2554 37.3517 70.3235 38.6619 70.7567 39.8716L71.0081 40.374C71.0382 40.5122 71.091 40.6251 71.2594 40.6452C71.257 40.7009 71.2734 40.756 71.3057 40.8014C71.338 40.8469 71.3845 40.8803 71.438 40.8964L71.4128 40.9342C71.4394 41.0886 71.5122 41.2313 71.6217 41.3435C71.7312 41.4556 71.8722 41.5319 72.0261 41.5622C72.9811 41.0397 73.901 40.4494 74.0368 39.2537C74.1309 38.2545 74.0621 37.2465 73.8332 36.2693C73.6522 35.4454 73.235 34.7597 72.4131 34.7346Z" fill="#E16D3F"/>
<path d="M55.1235 35.5912C55.0006 35.5979 54.8803 35.629 54.7695 35.6825C54.6587 35.736 54.5596 35.811 54.4781 35.903C54.3965 35.9951 54.334 36.1023 54.2942 36.2187C54.2544 36.3351 54.2381 36.4582 54.2462 36.5809C54.103 38.2589 54.2463 38.5051 55.4527 38.5478C55.7217 38.5202 55.9554 38.4347 55.9931 38.1258H55.978C56.644 37.5606 56.4807 36.8949 56.1866 36.2267C56.1105 36.0141 55.9629 35.8345 55.769 35.7185C55.5751 35.6026 55.3469 35.5577 55.1235 35.5912Z" fill="#E16D3F"/>
</svg>
