<svg width="130" height="130" viewBox="0 0 130 130" fill="none" xmlns="http://www.w3.org/2000/svg">
<path d="M129.562 0.765167H0.875977V129.378H129.562V0.765167Z" fill="#F4E1AD"/>
<path opacity="0.3" d="M72.4019 126.575C95.6527 126.575 114.501 121.345 114.501 114.894C114.501 108.443 95.6527 103.214 72.4019 103.214C49.1512 103.214 30.3027 108.443 30.3027 114.894C30.3027 121.345 49.1512 126.575 72.4019 126.575Z" fill="#1D2831"/>
<path d="M109.135 89.2997C108.013 91.8704 106.448 94.2239 104.51 96.2528C102.475 98.4382 99.9135 100.116 97.2216 101.508C94.658 102.837 94.5323 103.183 95.4874 105.974C95.9035 107.119 96.5638 108.16 97.4227 109.024C97.8852 109.508 98.3434 109.996 98.7975 110.488C101.406 113.319 100.808 116.71 97.3624 118.459C93.9165 120.207 90.2545 121.169 86.4844 121.769C80.5805 122.709 74.6388 122.978 68.7399 121.895C61.5998 120.579 54.7554 117.988 48.5348 114.246C46.6297 113.108 45.0839 111.706 45.3126 109.167C45.4195 107.907 45.945 106.718 46.8056 105.791C47.6978 104.786 48.5976 103.806 49.4245 102.749C50.8772 100.89 51.1286 98.7296 51.209 96.4965C51.1931 95.9921 51.0021 95.5089 50.6687 95.13C49.3768 93.4043 48.5826 91.4273 47.6526 89.5157C47.4817 88.3627 47.2932 87.2122 47.1499 86.0541C47.0946 85.607 46.7553 85.5995 46.4662 85.4463C44.4832 84.3862 42.4448 83.3111 40.9368 81.6632C38.8858 79.4451 37.7347 76.0289 37.5538 72.8186C33.3639 71.3817 29.9206 68.7593 27.0453 65.4736C25.7886 64.0368 24.9567 62.1905 24.2806 60.3341C22.8731 56.5134 22.3779 52.5268 22.0386 48.5152C21.4958 41.8407 21.39 35.1379 21.7219 28.4496C21.7496 27.8342 21.722 27.4021 21.0082 26.9424C18.5098 25.3599 17.9569 21.3056 19.6584 18.3063C20.2066 17.4154 20.8757 16.6046 21.6465 15.8973C23.0782 14.4842 24.7641 13.3541 26.6155 12.5664C29.3475 11.4109 32.1701 10.3885 35.1384 9.8635C41.4521 8.74065 47.8235 8.52211 54.215 8.60751C55.0852 8.62703 55.9456 8.42201 56.7134 8.01221C60.863 5.86447 65.2966 5.57811 69.8232 6.25383C71.7836 6.54019 73.7818 6.81398 75.6517 7.42941C79.4042 8.66028 82.5987 10.8633 85.3308 13.7093C85.7225 14.1163 86.2342 14.3874 86.7911 14.4831C89.6035 15.1462 92.6347 15.297 94.8188 17.5929C94.8716 17.6482 94.9873 17.638 95.0451 17.6908C96.6335 19.1276 96.6033 24.438 95.0023 25.8597C94.8841 25.9765 94.7515 26.0779 94.6077 26.1612C92.7151 27.0932 92.6573 27.1082 93.2128 29.1078C95.1556 36.0961 95.3039 43.1497 94.1679 50.2762C93.7104 53.1599 92.8785 55.9532 92.0667 58.734C91.564 60.4094 90.4983 61.9191 89.6413 63.4816C88.9124 64.8079 88.9425 65.0641 90.3199 65.2675C93.3359 65.7172 96.3294 66.295 99.1997 67.2471C103.369 68.6312 107.645 69.9675 110.666 73.4993C112.594 75.7601 113.393 78.2595 112.209 81.1533C112.191 81.2351 112.158 81.3128 112.111 81.382C110.389 83.1202 110.249 85.4589 109.703 87.6619C109.555 88.2045 109.324 88.7471 109.135 89.2997ZM44.8753 19.2156C44.909 19.2138 44.942 19.205 44.9722 19.1901C45.0025 19.1752 45.0295 19.1544 45.0516 19.1288C45.0736 19.1032 45.0903 19.0736 45.1006 19.0415C45.1109 19.0093 45.1146 18.9754 45.1115 18.9417L47.9139 15.2416L48.1653 14.9201V14.9678L48.668 14.4378H48.6253L48.9218 14.1866L49.3969 13.7119L49.9398 13.1868L50.1584 12.9884L50.4751 12.692C50.8848 12.373 51.3599 12.1168 51.5433 11.5717C51.1211 11.3205 50.7516 11.4084 50.3821 11.4561C49.4647 11.4059 48.5775 10.9814 47.635 11.2049L46.127 11.2526C42.2664 11.3305 38.4159 11.5038 34.6659 12.5588C30.9159 13.6139 27.3042 14.9729 23.9463 17.1658C30.3265 19.4277 37.1397 20.201 43.8649 19.4266L44.3073 19.4668C44.4179 19.6753 44.536 19.743 44.6717 19.4868L44.624 19.4743C44.6981 19.4699 44.7683 19.4391 44.8217 19.3875C44.8752 19.3359 44.9084 19.2669 44.9155 19.1929L44.8753 19.2156ZM55.4089 114.922C55.465 115.042 55.5642 115.136 55.6867 115.186C55.8093 115.235 55.9461 115.237 56.0699 115.191C56.4318 115.693 57.0426 115.738 57.5503 115.969C59.1312 116.69 60.863 116.974 62.4665 117.572C63.9505 118.163 65.511 118.54 67.1012 118.692C68.7776 119.315 70.532 119.489 72.2989 119.697C78.1098 120.388 83.8102 119.697 89.4603 118.426C91.7726 117.903 94.1076 117.338 96.1685 116.11C97.6062 115.256 98.1793 114.1 97.2744 112.784C96.7718 112.03 96.2414 111.252 95.5578 110.676C93.5119 108.958 92.7001 106.71 92.4638 104.145C92.4412 103.894 92.7151 103.427 92.1421 103.374C91.8647 103.418 91.5954 103.503 91.3428 103.625C90.1992 104.04 89.0205 104.128 87.9095 103.497C87.6984 103.379 87.3114 103.259 87.437 102.882C87.4669 102.72 87.5533 102.575 87.6809 102.471C87.8085 102.368 87.9689 102.313 88.1332 102.317C89.8323 102.271 91.2951 101.352 92.9087 100.98L93.4566 100.671L93.3988 100.644C93.8185 100.631 94.2081 100.551 94.4343 100.141L94.4016 100.156C94.5473 100.2 94.7029 100.197 94.847 100.149C94.9911 100.1 95.1165 100.008 95.2059 99.8851L95.1782 99.9178C95.9323 99.227 96.9376 98.9934 97.7846 98.4759C99.6873 97.3229 101.18 95.7379 102.754 94.183C105.32 91.6383 106.788 88.6566 107.491 85.1725C107.341 85.1445 107.186 85.1541 107.041 85.2006C106.895 85.247 106.763 85.3289 106.657 85.4388C106.619 85.4316 106.581 85.4352 106.545 85.449C106.51 85.4627 106.479 85.4862 106.456 85.5167C106.358 85.4854 106.253 85.4918 106.16 85.5346C106.067 85.5773 105.993 85.6534 105.953 85.7477L105.702 85.8683L102.975 86.5565L102.424 86.6847L101.15 86.9635C100.871 87.2473 100.519 87.2826 100.145 87.3328C98.7372 87.5262 97.287 87.476 95.9323 88.0135C95.8116 87.7623 95.5955 87.8276 95.3969 87.8578C92.0833 88.3448 88.7379 88.5841 85.3886 88.5737H84.8231L79.5802 88.3602L79.2886 88.3376C75.413 88.0864 71.5926 87.4232 67.7622 86.8304C67.5636 86.7576 67.3852 86.5163 67.1439 86.7499C66.2517 86.2199 65.2187 86.1346 64.2485 85.8558C62.4137 85.5368 60.6945 84.8835 58.9528 84.2329C55.6653 83.0096 52.4707 81.6607 49.6884 79.4753L49.412 79.2241C49.0023 78.8071 48.5951 78.3876 48.1854 77.9681L47.9089 77.6567C47.3846 77.0706 47.0004 76.3731 46.7854 75.6169C46.7241 75.3535 46.5694 75.1211 46.3499 74.9627C46.1305 74.8043 45.8611 74.7306 45.5916 74.7553C44.1589 74.7754 42.7892 74.376 41.4043 74.0796C40.9443 73.9791 40.4416 73.7355 39.9993 74.155C40.6854 78.1742 43.2667 81.3794 46.7402 82.5174C46.809 82.6246 46.909 82.7082 47.0266 82.7572C47.1443 82.8061 47.2741 82.8179 47.3987 82.7911L47.366 82.7686C47.4766 82.9921 47.6978 82.9971 47.8989 83.0423L47.8587 83.0273C48.2145 83.345 48.6629 83.5405 49.138 83.585L49.0903 83.5447C49.1515 83.6373 49.2373 83.711 49.338 83.7575C49.4388 83.8041 49.5506 83.8217 49.6608 83.8084L49.6231 83.7758C49.7261 84.027 49.9423 84.027 50.161 84.0522L50.1308 84.0246L50.6611 84.4139C50.8019 84.65 51.0859 84.6651 51.2744 84.7907C51.7771 85.1574 52.2219 85.6423 51.9756 86.3381C51.6866 87.1469 51.1236 86.6797 50.6309 86.5692C50.3997 86.5164 50.1408 86.4335 49.8895 86.647C49.8311 87.6789 50.0342 88.7088 50.4802 89.6413C51.8573 92.7911 54.1374 95.4624 57.0326 97.3179C59.9255 99.1893 62.7882 101.036 66.1511 101.955C66.6714 102.098 67.1565 102.372 67.3274 102.972C66.1034 103.995 65.8973 104.178 64.2409 103.432C63.5076 103.141 62.7351 102.96 61.9487 102.894C61.3665 102.831 60.8106 102.618 60.3351 102.276C58.2214 100.696 55.5597 99.973 53.7199 97.7926C53.0714 102.49 52.0234 104.575 49.221 106.954C49.0014 107.149 48.8056 107.369 48.6378 107.609C47.3811 109.368 47.6727 110.935 49.5175 112.056C50.3495 112.558 51.2367 112.975 52.0988 113.432C52.1544 113.53 52.2403 113.608 52.3436 113.653C52.4468 113.698 52.562 113.709 52.6718 113.683L52.6416 113.668C52.7372 113.919 52.9533 113.932 53.1745 113.935H53.1317C53.2398 114.186 53.4585 114.186 53.6797 114.186H53.6269C53.7425 114.417 53.9737 114.422 54.1849 114.465L54.1346 114.442C54.2329 114.551 54.3575 114.633 54.4966 114.68C54.6357 114.727 54.7845 114.738 54.9289 114.711L54.8962 114.696C54.9791 114.985 55.2028 114.98 55.4365 114.947L55.4089 114.922ZM22.9862 24.742C23.0817 24.9932 23.318 24.9781 23.5215 25.0208L23.4863 24.9932C23.6924 25.2444 23.989 25.2444 24.2781 25.2871L24.2479 25.2444C24.4439 25.5232 24.7506 25.5106 25.0296 25.4956H24.9843C25.2532 25.8121 25.6705 25.7467 26.0047 25.8798C27.9677 26.5204 29.9508 27.0353 32.0369 26.9801C34.1582 27.7939 36.4027 27.4222 38.5843 27.6608H38.8356H39.3207L39.8561 27.6809C40.5799 27.7739 41.3214 27.8894 41.168 26.749L41.1555 26.7616C41.4294 26.6636 41.4068 26.4426 41.3816 26.219V26.2492C41.504 26.1668 41.5972 26.0478 41.6478 25.9093C41.6983 25.7708 41.7037 25.6197 41.6632 25.4779L41.6481 25.5031C41.922 25.4051 41.8994 25.1739 41.8994 24.9504C42.3744 24.2392 42.7617 23.4735 43.0531 22.6696C43.1084 22.441 43.41 22.3003 43.2667 21.9335C42.3518 21.9335 41.4118 21.9486 40.4743 21.9335C37.3326 21.8808 34.1733 22.25 31.0592 21.5417C29.8427 21.2201 28.5583 21.2905 27.3745 20.6826C26.4521 20.2078 25.2633 20.5168 24.3233 19.929C24.2102 19.6778 24.0016 19.6778 23.7754 19.7104C23.6978 19.6933 23.6185 19.6848 23.5391 19.6853C23.0188 19.316 22.4986 18.8941 21.9682 19.6677L21.9833 19.6527C21.8877 19.704 21.8104 19.7838 21.7622 19.881C21.714 19.9783 21.6973 20.0881 21.7144 20.1953V20.1526C21.4153 20.3008 21.5083 20.6122 21.4304 20.8509L21.2947 21.4688C21.267 22.2601 21.0433 23.089 21.727 23.7447V23.7195C21.644 23.9883 21.7974 24.129 22.011 24.237V24.2245C22.0681 24.3129 22.1479 24.3842 22.2421 24.431C22.3363 24.4779 22.4414 24.4986 22.5463 24.4908H22.4986C22.5507 24.5873 22.632 24.6649 22.7308 24.7127C22.8296 24.7605 22.9409 24.7759 23.049 24.7569L22.9862 24.742ZM93.1399 24.0311L93.4289 23.7322L93.4088 23.7622C94.0975 22.4309 93.8512 21.1573 93.1575 19.9139V19.9642C93.1123 19.7582 93.1575 19.512 92.9062 19.394L92.8885 19.4542L92.6096 19.0548C92.6115 19.0358 92.6089 19.0164 92.6021 18.9985C92.5952 18.9806 92.5843 18.9646 92.5701 18.9517C92.556 18.9388 92.539 18.9293 92.5205 18.9241C92.502 18.9189 92.4826 18.918 92.4638 18.9216C92.4066 18.8204 92.3191 18.7396 92.2136 18.6905C92.1082 18.6415 91.99 18.6265 91.8757 18.6479H91.8933C91.6595 18.2485 91.2574 18.2082 90.8577 18.163L90.8829 18.1756C89.9384 17.8123 88.9549 17.5594 87.9522 17.4221C88.4549 18.2008 88.8872 18.8438 89.312 19.4894L89.2844 19.4367L89.5834 19.9743L89.5608 19.9391C89.6111 20.0722 89.601 20.2555 89.8122 20.2354L89.782 20.2028C89.7635 20.2553 89.756 20.3111 89.7601 20.3666C89.7641 20.4222 89.7796 20.4763 89.8056 20.5256C89.8315 20.5749 89.8674 20.6184 89.9109 20.6532C89.9544 20.6879 90.0047 20.7134 90.0585 20.7278V20.6977C90.0283 20.9313 90.0585 21.1398 90.3098 21.2302V21.2025C90.2944 21.3454 90.312 21.4899 90.3613 21.6249C90.4105 21.7599 90.4901 21.8818 90.5938 21.9813L90.5737 21.9561C90.6165 22.1521 90.6164 22.3731 90.8452 22.4736L90.7899 22.4535C90.8527 22.6494 90.8276 22.8981 91.0915 22.981H91.0111C91.1518 23.3402 91.1971 23.7547 91.5615 23.9858H91.4936L91.4785 24.0512C91.745 24.8048 92.1999 24.5032 92.6448 24.2596H92.6272C92.8785 24.3249 93.0394 24.1692 93.1776 23.9884L93.1399 24.0311ZM108.974 81.0252L109.253 80.7439V80.789C109.444 80.6634 109.608 80.5229 109.535 80.2566L109.5 80.2917C109.733 80.3193 109.751 80.1435 109.776 79.9877L109.758 80.0405C109.894 79.9327 109.992 79.7859 110.041 79.62C110.09 79.4541 110.086 79.2772 110.03 79.1136C110.548 78.2369 110.153 77.4608 109.779 76.6821C109.324 75.8556 109.047 74.8835 108.235 74.3283C104.918 72.05 101.261 70.5377 97.3976 69.4249C90.3048 67.3777 83.0084 67.0788 75.7171 66.7648C70.9215 66.5588 66.1285 66.923 61.3732 67.5033C57.6709 67.958 53.9838 68.5633 50.7038 70.6055C49.4471 71.3968 48.864 72.1982 48.9445 73.9565C49.5979 75.7451 50.5706 77.2799 52.2898 78.2269L52.6894 78.5083L52.6567 78.4831C52.7144 78.5714 52.7941 78.643 52.888 78.691C52.9819 78.7391 53.0867 78.7618 53.1921 78.7569H53.1393C53.1869 78.8555 53.2655 78.9359 53.363 78.9858C53.4606 79.0357 53.5718 79.0523 53.6797 79.0332L53.647 79.0031C53.6244 79.2216 53.7953 79.2417 53.9411 79.2869L53.9009 79.2492C53.9554 79.3424 54.0363 79.4174 54.1333 79.4647C54.2303 79.5121 54.3392 79.5298 54.4463 79.5155H54.3834C54.4399 79.6103 54.5243 79.6853 54.6251 79.7303C54.7259 79.7753 54.8381 79.7879 54.9464 79.7667H54.8886C55.1756 80.0438 55.5327 80.2375 55.9216 80.3269V80.249C56.0121 80.5153 56.2484 80.5002 56.4595 80.5203L56.4193 80.4977C56.5223 80.7489 56.7485 80.7188 56.9521 80.7489H56.932C57.0381 80.8454 57.1629 80.9191 57.2987 80.9653C57.4344 81.0115 57.5783 81.0294 57.7212 81.0177H57.6709C57.877 81.2865 58.1736 81.2839 58.4752 81.2914L58.4426 81.2614C58.6361 81.5377 58.9226 81.5552 59.2217 81.5326L59.1865 81.5176C59.2644 81.8065 59.5233 81.7286 59.7194 81.7813L59.6993 81.7537C59.9079 81.9924 60.2019 82.0049 60.4834 82.0526L60.4583 82.0074C60.7448 82.3163 61.1269 82.2586 61.4888 82.2586H61.4612C61.7477 82.5625 62.1171 82.5575 62.4891 82.5349H62.459C63.2607 83.0197 64.1806 83.1101 65.0603 83.3312C68.4578 84.4554 71.9937 85.108 75.5688 85.2705C76.4812 85.9814 77.5343 85.7477 78.5572 85.7176H78.8412L82.8275 85.9462C84.5124 86.0479 86.202 86.0479 87.8869 85.9462L92.6247 85.7101C93.3309 85.8231 93.9919 85.5669 94.673 85.4589C96.6184 85.2554 98.5814 85.1649 100.454 84.4992C101.861 84.1852 103.246 83.9039 104.608 83.306C105.918 82.7308 107.177 82.05 108.482 81.4748C108.505 81.4732 108.527 81.4662 108.547 81.4544C108.567 81.4427 108.585 81.4264 108.597 81.407V81.3041H108.497C108.768 81.3769 108.889 81.186 109.014 81.0076L108.974 81.0252ZM41.1404 58.8646L41.158 58.8972C41.1987 58.7523 41.1951 58.5986 41.1476 58.4558C41.1001 58.313 41.0109 58.1876 40.8915 58.0959L40.9217 58.1311C40.3956 55.7866 39.872 53.4479 39.3509 51.1151L38.8079 44.0565C38.8079 43.7927 38.9512 43.4938 38.6194 43.3155L38.5591 42.8005V42.0847C38.5817 41.9113 38.6044 41.7379 38.6295 41.5646C39.0291 40.2458 38.8808 38.8994 38.8155 37.5454L39.0668 37.0078C39.107 36.4351 39.2528 35.8624 39.0668 35.2897L39.1171 35.0385C39.4916 33.9784 40.037 32.9561 39.8208 31.7729C39.9013 31.5217 39.9792 31.2454 40.0596 30.9817C40.2732 30.4918 40.0144 30.4466 39.6022 30.4316C37.9358 30.3663 36.2744 30.1552 34.603 30.2909L34.1004 30.2432C33.0573 29.7709 31.9564 29.7056 30.833 29.7935L30.5816 29.7382C30.3152 29.3514 29.9332 29.4745 29.5763 29.5172L29.3249 29.4896C27.7415 28.6883 25.9318 28.6706 24.2981 28.0477C24.1423 28.0477 24.0745 28.0879 24.1449 28.2461L24.1273 29.7382V30.2557L24.1096 30.9917V31.7629C24.1096 34.2748 24.1096 36.7784 24.1096 39.2736C24.1096 40.0699 23.9438 40.8738 24.2353 41.6525C24.2755 42.7829 24.3149 43.9141 24.3534 45.0462L24.3761 45.5938C24.464 46.6313 24.4992 47.6762 24.6601 48.7036C24.8586 50.0023 24.7933 51.3537 25.3714 52.5821C25.12 53.1724 25.4769 53.72 25.5548 54.2726C26.0801 58.0657 27.0629 61.678 29.7874 64.5994C30.4258 65.2852 31.2954 65.6042 31.9137 66.3001C34.1532 68.7718 37.1918 69.8569 40.2079 70.9823C41.8894 71.6103 43.6437 71.7359 45.3755 72.0448C45.8178 72.1252 46.4336 72.4945 46.5618 71.9921C46.788 71.1154 47.8712 70.4624 47.17 69.3044C45.7097 66.9004 43.9151 64.7149 42.6987 62.1477C42.284 61.276 42.0779 60.2864 41.442 59.5228C41.4043 59.2515 41.4294 58.9851 41.1278 58.8495L41.1404 58.8646ZM41.3138 41.5621C41.2851 44.3699 41.4649 47.1759 41.8517 49.9571C42.6308 55.7774 44.169 61.2962 47.9265 65.9961C49.525 68.0057 49.4848 68.0283 51.8198 67.0738C51.9731 67.011 52.1365 66.9707 52.2923 66.913C55.5245 65.7298 58.8899 65.2727 62.2981 64.8758C69.4109 64.0551 76.5896 63.9709 83.7197 64.6246C85.3861 64.7753 86.2884 64.3231 87.1002 62.9013C89.3526 58.9662 90.8847 54.6611 91.6243 50.1882C92.3946 45.667 92.5029 41.0578 91.946 36.5054C91.4107 32.1447 90.3702 27.9121 88.5706 23.9105C85.7204 17.5803 81.7693 12.2147 74.9254 9.74293C69.8785 7.92175 64.7411 7.73335 59.6691 9.67762C55.5145 11.2777 52.1591 14.0233 49.4044 17.4647C43.7744 24.5058 41.4068 32.6672 41.3013 41.5471L41.3138 41.5621Z" fill="#1D2831"/>
<path d="M39.8687 27.6809C40.3829 27.4957 40.8367 27.1734 41.1808 26.749C41.3416 27.8945 40.5875 27.7739 39.8687 27.6809Z" fill="#1D2831"/>
<path d="M41.3867 26.2492C41.354 26.1072 41.3632 25.9587 41.4132 25.8219C41.4631 25.685 41.5517 25.5655 41.6682 25.4779C41.7088 25.6197 41.7034 25.7708 41.6528 25.9093C41.6022 26.0478 41.5091 26.1668 41.3867 26.2492Z" fill="#1D2831"/>
<path d="M54.1371 114.417C54.2813 114.397 54.4283 114.41 54.5662 114.457C54.7041 114.504 54.8292 114.582 54.9314 114.686C54.787 114.713 54.6382 114.702 54.4991 114.655C54.36 114.608 54.2354 114.526 54.1371 114.417Z" fill="#1D2831"/>
<path d="M41.168 26.7617L41.3942 26.219C41.4244 26.4426 41.442 26.6637 41.168 26.7617Z" fill="#1D2831"/>
<path d="M52.1013 113.415L52.6743 113.666C52.5645 113.691 52.4493 113.681 52.346 113.635C52.2428 113.59 52.1569 113.513 52.1013 113.415Z" fill="#1D2831"/>
<path d="M52.6517 113.653L53.1845 113.919C52.9558 113.917 52.7396 113.907 52.6517 113.653Z" fill="#1D2831"/>
<path d="M21.9884 24.2195L22.5237 24.4858C22.4188 24.4936 22.3137 24.4729 22.2195 24.4261C22.1253 24.3792 22.0455 24.3079 21.9884 24.2195Z" fill="#1D2831"/>
<path d="M53.1343 113.912L53.6822 114.163C53.461 114.166 53.2424 114.158 53.1343 113.912Z" fill="#1D2831"/>
<path d="M53.6294 114.161L54.1874 114.439C53.9762 114.397 53.745 114.392 53.6294 114.161Z" fill="#1D2831"/>
<path d="M22.4683 24.4782C22.6518 24.5686 22.8353 24.6591 23.0188 24.7445C22.9107 24.7634 22.7993 24.748 22.7005 24.7002C22.6017 24.6524 22.5205 24.5747 22.4683 24.4782Z" fill="#1D2831"/>
<path d="M54.8987 114.671L55.4391 114.922C55.2053 114.954 54.9816 114.96 54.8987 114.671Z" fill="#1D2831"/>
<path d="M55.4164 114.912L56.0775 115.181C55.9537 115.227 55.8168 115.225 55.6943 115.176C55.5717 115.126 55.4725 115.032 55.4164 114.912Z" fill="#1D2831"/>
<path d="M22.9938 24.7269L23.5291 25.0057C23.318 24.963 23.0817 24.9781 22.9938 24.7269Z" fill="#1D2831"/>
<path d="M41.6531 25.5031C41.641 25.3968 41.658 25.2893 41.7022 25.192C41.7465 25.0947 41.8164 25.0111 41.9044 24.9504C41.9069 25.1739 41.927 25.4051 41.6531 25.5031Z" fill="#1D2831"/>
<path d="M44.3123 19.4568L44.6767 19.4769C44.541 19.7331 44.4228 19.6653 44.3123 19.4568Z" fill="#1D2831"/>
<path d="M44.629 19.4643L44.9206 19.1829C44.9135 19.2569 44.8803 19.3259 44.8268 19.3775C44.7733 19.429 44.7032 19.4598 44.629 19.4643Z" fill="#1D2831"/>
<path d="M44.8754 19.2081L45.1116 18.9343C45.1147 18.9679 45.111 19.0018 45.1007 19.0339C45.0904 19.066 45.0737 19.0958 45.0517 19.1213C45.0296 19.1469 45.0026 19.1678 44.9723 19.1827C44.942 19.1976 44.9091 19.2062 44.8754 19.2081Z" fill="#1D2831"/>
<path d="M51.9857 37.5831C51.0808 37.5379 50.4525 37.1108 50.5128 36.2492C50.5832 35.2671 51.3723 35.0385 52.247 35.0385C56.5583 35.0385 60.8696 35.0385 65.1809 35.0385H66.3999C66.8096 34.094 65.9576 33.3028 66.2793 32.4462C67.9607 32.4864 69.5693 35.2094 68.574 36.6111C67.8476 37.636 67.8929 38.7262 67.7949 39.7611C67.5435 42.4012 65.6007 45.1718 63.0546 46.0761C57.598 48.0053 51.1965 43.8329 51.9857 37.5831ZM63.507 42.8081L63.4819 42.8282L63.8715 42.5468C64.3741 42.0972 64.8768 41.6501 65.0025 40.9442C65.2538 40.7985 65.2714 40.5322 65.3242 40.2861L65.3016 40.3614C65.4197 40.0549 65.5529 39.7485 65.661 39.4421L65.6836 39.3264L65.568 39.3014C65.9098 38.7588 65.8193 38.1659 65.8671 37.4927C64.8265 37.4927 63.874 37.5555 62.934 37.4726C62.2327 37.4098 62.0744 37.8419 61.9839 38.3091C61.9481 38.72 61.9573 39.1336 62.0115 39.5425C60.9509 41.2682 59.5509 41.3486 57.9901 39.7736C57.8921 39.0426 57.7916 38.3141 57.6885 37.568H54.2703C54.0893 39.0199 54.117 39.2687 54.5669 40.3589H54.5292L54.871 41.1125L54.8459 41.0648C54.8911 41.208 54.8961 41.3887 55.1274 41.341L55.0268 41.4893L55.336 41.8912L55.4038 41.8736L55.3863 41.8033C55.346 42.0118 55.4038 42.1323 55.6376 42.0946L55.527 42.1173L55.5496 42.2278L55.7532 42.4388L55.7959 42.4714L56.1 42.69L56.1679 42.6473L56.1252 42.5795C56.095 42.8106 56.2584 42.8307 56.4218 42.8608H56.3539C56.6337 43.1309 56.9809 43.3209 57.3593 43.4109L57.3392 43.3884C59.1513 44.1269 60.9584 44.3127 62.758 43.3456L62.7027 43.3683L63.2406 43.0668L63.2029 43.0869L63.507 42.8081Z" fill="#1D2831"/>
<path d="M73.0376 34.9932L84.456 34.9606C84.833 34.9606 85.21 34.9832 85.5845 34.9606C86.4013 34.938 87.1604 35.1189 87.3438 36.0106C87.5273 36.9024 86.8009 37.2063 86.1374 37.4248C86.6627 42.1273 84.4836 45.2823 79.962 46.0158C77.4109 46.4278 75.1715 45.0789 73.6434 43.0015C72.8713 41.9803 72.318 40.8111 72.0179 39.5669C71.7178 38.3226 71.6773 37.03 71.8991 35.7695C72.1177 35.2947 72.4068 34.8977 73.0376 34.9932ZM76.8077 42.5995L76.7575 42.5744L77.2853 42.9085L77.2224 42.8934C78.8687 44.1946 80.3817 44.0941 81.8269 42.5945C82.4052 42.1622 82.9197 41.6506 83.3551 41.0748C84.2448 39.9545 84.1343 38.6683 84.0513 37.3771H81.8269L81.465 39.2636L81.5027 39.1858L81.186 39.7911C81.1679 39.7915 81.1501 39.7958 81.1339 39.8039C81.1177 39.8119 81.1034 39.8233 81.0921 39.8375C81.0808 39.8516 81.0728 39.8681 81.0687 39.8857C81.0645 39.9033 81.0642 39.9217 81.0679 39.9394L80.7939 40.2784V40.2031C80.0927 40.4543 79.389 40.6829 78.645 40.3663L78.6626 40.384L78.2102 40.1328L78.17 40.0926C78.1279 40.0205 78.0693 39.9593 77.9991 39.9142L77.9538 39.8665L77.6045 39.4746L77.6422 39.5248C77.5768 39.1932 77.5089 38.8617 77.4411 38.52C77.4964 38.1784 77.5844 37.8343 77.4411 37.4927L77.3582 37.4248C77.2601 37.2791 77.147 37.2816 77.0239 37.3947H74.229C74.3496 38.0176 74.0757 38.5553 74.4803 39.0351L74.3873 39.2058C74.5155 39.5148 74.4828 39.8917 74.7694 40.1378C74.9327 40.8713 75.7395 41.1426 75.9733 41.8359L76.5262 42.3659L76.5011 42.3131L76.8077 42.5995Z" fill="#1D2831"/>
<path d="M54.3482 27.4246C53.8455 27.5427 53.5389 27.9647 53.1493 28.236C51.5156 26.9247 51.6413 26.4148 53.3001 25.2216C54.5166 24.3424 55.8864 24.2897 57.1682 24.2796C64.5325 24.2219 71.8942 23.835 79.2635 23.9807C80.5208 23.9811 81.7678 24.2065 82.9456 24.6464C83.9132 25.0257 84.5893 25.6914 84.3078 26.8594C84.1067 27.6884 83.207 28.1506 82.7018 27.613C81.4451 26.2465 79.8164 26.342 78.2707 26.342C71.7359 26.342 65.201 26.4274 58.6863 26.5028C57.3919 26.5028 56.0925 26.5756 54.8962 27.1684H54.9213L54.3558 27.4498L54.3482 27.4246Z" fill="#1D2831"/>
<path d="M70.8437 50.3414C74.0232 50.575 76.8532 51.198 79.2284 53.1549C79.4831 53.4202 79.7135 53.7077 79.9171 54.0139C80.5152 54.7022 80.9978 55.4533 80.2137 56.1843C79.4772 56.8726 78.6277 56.2923 78.1175 55.7673C74.6188 52.1777 70.5145 52.6048 66.3045 53.9487C64.2978 54.5797 62.5009 55.7451 61.1069 57.3197C60.4911 58.0181 59.7521 58.4828 58.9654 57.7342C58.2692 57.071 58.6337 56.2973 59.1615 55.6467C61.2828 53.0242 64.1883 51.7356 67.34 50.8991C68.544 50.5801 69.8057 50.5022 70.8437 50.3414Z" fill="#1D2831"/>
<path d="M100.703 75.2904C101.628 76.1897 101.271 77.6215 99.9034 78.3751C98.4063 79.1726 96.7863 79.7143 95.1104 79.9777C91.2121 80.6534 87.2837 80.5605 83.3552 80.4801C77.8624 80.3965 72.3945 79.7228 67.0458 78.4705C65.0179 77.984 63.0708 77.2074 61.265 76.1646C60.2597 75.5868 59.4529 74.8232 59.4378 73.517C59.4378 72.8789 59.5559 72.3564 60.1918 72.0625C60.1831 72.0933 60.1854 72.1262 60.1982 72.1555C60.211 72.1848 60.2337 72.2088 60.2622 72.2233C60.2579 72.2544 60.2603 72.2859 60.2692 72.3159C60.278 72.346 60.2932 72.3739 60.3136 72.3976C60.3341 72.4214 60.3593 72.4404 60.3877 72.4537C60.4161 72.4669 60.447 72.4741 60.4784 72.4745H60.4205C60.5462 72.6981 60.7674 72.7257 60.9861 72.7533L60.9534 72.7106C61.0378 72.8327 61.1583 72.9254 61.2979 72.9758C61.4376 73.0262 61.5895 73.0318 61.7325 72.9919H61.7074C62.3936 73.4415 62.949 72.9567 63.5396 72.7407H63.4818C66.1611 72.4443 68.8756 72.5046 71.5247 71.9394L72.045 71.9218L72.1606 71.9394L72.2737 71.9193H72.8015C76.3705 71.6982 79.9219 72.2006 83.4859 72.2006C84.1972 72.2006 84.906 72.786 85.6173 72.2233C86.1979 72.688 86.8966 72.3414 87.53 72.5021C89.4854 73.0045 91.4533 73.4541 93.4163 73.9264L96.9024 75.0517L96.8597 75.004C96.912 75.1014 96.9951 75.1789 97.096 75.2243C97.1969 75.2697 97.3099 75.2806 97.4176 75.2552L97.3875 75.2401C97.4805 75.5089 97.7016 75.5089 97.9253 75.4913L97.86 75.5064C97.9599 75.6251 98.0825 75.7227 98.2206 75.7934C98.3587 75.8642 98.5095 75.9067 98.6643 75.9184C99.4007 75.8858 100.115 75.8104 100.703 75.2904ZM95.8794 77.3C85.5343 73.3261 75.061 73.8284 64.3339 74.8583C67.4027 77.6868 91.0261 79.297 95.882 77.3101L95.8794 77.3Z" fill="#1D2831"/>
<path d="M36.2367 40.399C35.0403 41.1124 33.761 41.1979 32.434 40.9014L32.3334 40.9191L32.3485 41.0196C32.2605 40.7483 32.052 40.7181 31.8132 40.7684L31.8483 40.8036C31.8835 40.5926 31.7126 40.5523 31.5794 40.497L31.3281 40.3012L31.0767 40.05C30.6954 39.5034 30.165 39.0779 29.5486 38.824C28.3522 38.2915 26.9246 38.5729 25.8061 37.764L25.3864 37.2617C24.7656 35.9429 24.9089 34.6115 25.3387 33.2801L25.2784 33.26L25.3135 33.3103L25.3412 33.2676C25.8439 31.8433 27.1006 32.3834 28.0808 32.2101L28.1838 32.2276L28.2894 32.2126H28.8298C30.368 32.2251 31.9187 32.3809 33.4393 32.2252C37.0611 31.8509 38.6999 35.7947 37.8352 38.3695C37.7297 38.681 37.5688 38.9748 37.4331 39.2763C37.3999 39.2988 37.3734 39.3297 37.3562 39.3659C37.339 39.4021 37.3317 39.4423 37.3351 39.4822C37.2521 39.5902 37.1717 39.6983 37.0837 39.8038L37.1088 39.7761L36.8299 40.0524L36.855 40.0273L36.576 40.3012L36.6037 40.276C36.4478 40.2936 36.297 40.3162 36.3046 40.5272L36.3348 40.4443L36.2367 40.399ZM29.3224 36.1589C30.5791 36.5256 31.5543 37.342 32.5446 38.1483C33.1201 38.6181 33.7334 39.0727 34.5553 38.7236C34.8418 38.4883 35.1015 38.2222 35.3294 37.9299C36.1965 36.5307 35.5807 34.6819 34.1657 34.6015C32.0218 34.4834 29.8653 34.5713 27.7138 34.5713C27.1232 36.38 28.6563 35.8022 29.3224 36.1589Z" fill="#1D2831"/>
<path d="M77.4363 38.5227C77.2629 38.1835 77.3609 37.8394 77.4363 37.4953C77.5796 37.8369 77.4916 38.1936 77.4363 38.5227Z" fill="#1D2831"/>
<path d="M63.263 43.0668H63.243L63.2255 43.0843L63.263 43.0668Z" fill="#D2BE93"/>
<path d="M62.9339 37.4726C62.2327 37.4098 62.0743 37.8418 61.9838 38.3091C61.948 38.72 61.9573 39.1336 62.0115 39.5425C60.9508 41.2682 59.5509 41.3486 57.99 39.7736C57.892 39.0426 57.7915 38.314 57.6885 37.568H54.2702C54.0893 39.0199 54.1169 39.2687 54.5668 40.3589H54.5291C54.6347 40.595 54.7428 40.8337 54.8508 41.0698C54.8961 41.213 54.9011 41.3937 55.1298 41.346C55.0996 41.3962 55.0645 41.4441 55.0318 41.4943L55.3409 41.8962H55.3811C55.3686 42.057 55.439 42.1474 55.6325 42.1122L55.5269 42.1323L55.5496 42.2429L55.7506 42.4538L55.7959 42.4865C55.8939 42.5593 55.9919 42.6348 56.0949 42.7076L56.1251 42.6875C56.1452 42.8206 56.2633 42.8507 56.3764 42.8733H56.3438C56.6235 43.1434 56.9708 43.3333 57.3491 43.4234V43.4059C59.1588 44.1394 60.9609 44.3228 62.7554 43.3582H62.7152C62.7723 43.2766 62.8473 43.2091 62.9344 43.1608C63.0215 43.1125 63.1184 43.0846 63.2179 43.0794L63.4692 42.8282L63.8387 42.5619C64.3414 42.1122 64.8441 41.665 64.9697 40.9592C65.2211 40.8185 65.2362 40.5673 65.2864 40.3312L65.6282 39.457L65.6509 39.3415L65.5352 39.3164C65.8771 38.7738 65.7866 38.181 65.8343 37.5078C64.8265 37.4927 63.8739 37.5555 62.9339 37.4726Z" fill="#D2BE93"/>
<path d="M84.044 37.3771H81.8196C81.6889 38.0554 81.5683 38.6583 81.4602 39.2587C81.3647 39.4345 81.2717 39.6128 81.1787 39.7911C81.1606 39.7915 81.1428 39.7959 81.1266 39.8039C81.1103 39.8119 81.0961 39.8233 81.0848 39.8375C81.0735 39.8516 81.0655 39.8681 81.0613 39.8857C81.0571 39.9033 81.0569 39.9217 81.0606 39.9394L80.7866 40.2784V40.2031C80.0854 40.4543 79.3816 40.6829 78.6377 40.3664L78.6552 40.384L78.2054 40.1328L78.1626 40.0926L77.9917 39.9167L77.9465 39.8665L77.6323 39.5148C77.567 39.1857 77.5016 38.8592 77.4337 38.5301C77.2603 38.191 77.3583 37.8469 77.4337 37.5027L77.3508 37.4349L77.014 37.4047H74.2216C74.3423 38.0277 74.0683 38.5653 74.473 39.0451L74.38 39.2159C74.5081 39.5248 74.4755 39.9016 74.762 40.1478C74.9254 40.8813 75.7322 41.1526 75.9659 41.8459L76.5189 42.3759C76.5201 42.3642 76.5201 42.3524 76.5189 42.3407L76.8029 42.5919H76.7777L77.2804 42.9135H77.2402C78.8865 44.2147 80.3996 44.1143 81.8473 42.6146C82.4242 42.1816 82.9377 41.67 83.3729 41.0948C84.2375 39.9519 84.1269 38.6683 84.044 37.3771Z" fill="#D2BE93"/>
<path d="M77.3407 37.44L77.0039 37.4098C77.1296 37.2842 77.2427 37.2817 77.3407 37.44Z" fill="#1D2831"/>
<path d="M95.882 77.3101C91.0287 79.297 67.4053 77.6868 64.3365 74.8684C75.0611 73.8385 85.5344 73.3361 95.882 77.3101Z" fill="#49636A"/>
<path d="M51.8072 67.0587C51.9605 66.9959 52.1239 66.9557 52.2798 66.8979C55.512 65.7147 58.8774 65.2576 62.2856 64.8607C69.3984 64.04 76.5771 63.9559 83.7072 64.6095C85.3736 64.7602 86.2759 64.308 87.0877 62.8862C89.3401 58.9511 90.8721 54.646 91.6118 50.1731C92.382 45.6519 92.4904 41.0429 91.9335 36.4905C91.3982 32.1297 90.3576 27.897 88.558 23.8954C85.7078 17.5653 81.7568 12.1996 74.9128 9.72786C69.8659 7.90667 64.7286 7.71827 59.6566 9.66254C55.5019 11.2627 52.1466 14.0083 49.3919 17.4497C43.777 24.4832 41.4069 32.6396 41.3013 41.532C41.2726 44.3398 41.4524 47.1458 41.8391 49.927C42.6183 55.7472 44.1565 61.2661 47.914 65.966C49.5125 67.9831 49.4723 68.0132 51.8072 67.0587ZM80.2086 56.1843C79.4721 56.8726 78.6226 56.2923 78.1124 55.7673C74.6138 52.1777 70.5094 52.6048 66.2995 53.9487C64.2927 54.5798 62.4958 55.7451 61.1018 57.3198C60.486 58.0181 59.747 58.4828 58.9604 57.7342C58.2641 57.0711 58.6286 56.2973 59.1564 55.6467C61.2777 53.0242 64.1832 51.7356 67.335 50.8991C68.5364 50.5826 69.7981 50.4997 70.8361 50.3414C74.0156 50.575 76.8456 51.1981 79.2208 53.1549C79.4755 53.4202 79.7059 53.7077 79.9094 54.014C80.5152 54.7022 80.9978 55.4534 80.2136 56.1843H80.2086ZM86.5951 34.5814C84.8608 33.4635 83.1794 34.6517 81.4602 34.5462C78.9317 34.3879 76.3807 34.6392 73.8396 34.717C73.694 34.7019 73.5467 34.7177 73.4076 34.7636C73.2686 34.8095 73.1408 34.8844 73.0328 34.9833L84.4512 34.9506C84.8282 34.9506 85.2052 34.9732 85.5797 34.9506C86.3965 34.928 87.1556 35.1089 87.339 36.0006C87.5225 36.8924 86.7961 37.1963 86.1326 37.4148C86.6579 42.1172 84.4788 45.2723 79.9572 46.0058C77.4061 46.4178 75.1667 45.0689 73.6411 42.9915C72.866 41.9717 72.3097 40.8031 72.007 39.5587C71.7043 38.3144 71.6616 37.021 71.8817 35.7595C71.3589 35.968 71.2031 35.7419 71.281 35.2571C71.477 34.0011 72.0878 32.951 73.1937 32.318C76.7677 30.2733 80.4825 30.1302 84.2526 31.7177C85.5068 32.2553 86.1628 33.2752 86.6001 34.5914L86.5951 34.5814ZM53.2952 25.2042C54.5117 24.325 55.8814 24.2722 57.1633 24.2622C64.5275 24.2044 71.8892 23.8176 79.2585 23.9633C80.5158 23.9636 81.7629 24.189 82.9406 24.6289C83.9083 25.0082 84.5844 25.6739 84.3029 26.842C84.1018 27.6709 83.202 28.1331 82.6968 27.5956C81.4401 26.229 79.8114 26.3245 78.2657 26.3245C71.7309 26.3245 65.1961 26.4099 58.6814 26.4853C57.387 26.4853 56.0876 26.5581 54.8912 27.1509H54.9062L54.3508 27.4273C54.4622 27.461 54.5822 27.4512 54.6867 27.3999C54.7912 27.3486 54.8724 27.2596 54.9138 27.1509C56.2308 27.0505 57.5453 26.8998 58.8648 26.8621C60.765 26.8144 62.6676 26.8494 64.809 26.8494C64.0535 27.4007 63.1455 27.7044 62.2102 27.7186C59.9305 27.8492 57.6182 27.3493 55.3712 28.1205C54.8132 28.3114 54.5544 27.8568 54.3433 27.4273C53.8406 27.5453 53.5339 27.9673 53.1444 28.2386C51.5157 26.9249 51.6313 26.4149 53.3002 25.2142L53.2952 25.2042ZM65.739 33.4937C66.0029 34.0589 66.1135 34.6542 65.2614 34.6617C61.1671 34.6969 57.0703 34.6792 52.7322 34.6792C53.534 33.1319 54.5569 32.0719 55.8814 31.3961C58.3948 30.11 61.0138 29.2761 63.7961 30.6576C64.9498 31.2329 65.656 32.1497 65.7289 33.4836L65.6887 33.5313L65.739 33.4937ZM50.5078 36.2317C50.5782 35.2495 51.3674 35.021 52.2421 35.021C56.5534 35.021 60.8647 35.021 65.176 35.021H66.395C66.8047 34.0765 65.9526 33.2851 66.2718 32.4285C67.9558 32.4687 69.5643 35.1917 68.569 36.5934C67.8427 37.6183 67.8879 38.7085 67.7899 39.7434C67.5385 42.3835 65.5957 45.1543 63.0496 46.0586C57.5931 47.9928 51.1915 43.8204 51.9908 37.5706C51.0809 37.5379 50.4525 37.1108 50.5128 36.2492L50.5078 36.2317Z" fill="#CECCB5"/>
<path d="M106.657 85.4187C107.114 86.2275 106.81 86.6746 105.971 86.8706C105.564 86.961 105.146 87.0012 104.734 87.064C104.474 87.339 104.141 87.5349 103.774 87.6292C101.11 88.6325 98.3178 89.2574 95.4799 89.4856C90.6139 89.8196 85.7455 90.1186 80.857 89.8021C74.0306 89.36 67.2847 88.6415 60.8931 85.9286C60.5312 85.7753 60.1391 85.4263 59.7294 85.7679C59.3197 86.1095 59.5032 86.6143 59.5937 87.064C60.6393 92.201 63.5121 96.0644 67.9457 98.7472C73.8345 102.314 80.299 102.603 86.8791 101.669C89.4035 101.267 91.8724 100.572 94.2357 99.5988C94.5499 99.4757 95.1531 98.9281 95.1858 99.8977C95.9398 99.2069 96.9452 98.9733 97.7922 98.4558C99.6948 97.3028 101.188 95.7178 102.761 94.1629C105.327 91.6183 106.795 88.6365 107.499 85.1524C107.347 85.1231 107.191 85.1321 107.044 85.1787C106.897 85.2252 106.764 85.3077 106.657 85.4187Z" fill="#CECCB5"/>
<path d="M108.218 74.3132C104.9 72.0348 101.243 70.5226 97.38 69.4098C90.2872 67.3625 82.9908 67.0636 75.6995 66.7497C70.9039 66.5437 66.1109 66.9079 61.3556 67.4882C57.6534 67.9428 53.9662 68.5482 50.6862 70.5905C49.4295 71.3792 48.8464 72.183 48.9269 73.9414C49.2083 74.0129 49.4782 74.1237 49.7287 74.2705C55.3637 78.8373 62.0442 80.9448 69.0063 82.2134C76.4183 83.5791 83.9623 84.0931 91.4911 83.7456C96.7693 83.4944 101.959 82.6555 106.725 80.0531C108.208 79.2417 108.899 77.9279 109.758 76.6669C109.306 75.8405 109.03 74.8683 108.218 74.3132ZM99.9035 78.3851C98.4063 79.1826 96.7863 79.7242 95.1104 79.9877C91.2122 80.6634 87.2837 80.5705 83.3553 80.4901C77.8625 80.4065 72.3946 79.7328 67.0459 78.4805C65.018 77.994 63.0709 77.2174 61.2651 76.1746C60.2598 75.5968 59.453 74.8332 59.4379 73.527C59.4379 72.8889 59.556 72.3664 60.1919 72.0725C60.5965 71.3566 61.3028 71.1029 62.0242 70.8491C65.3469 69.6811 68.8103 69.3671 72.2863 69.2943C79.1604 69.1486 86.017 69.445 92.7177 71.2235C94.9797 71.8239 97.2418 72.4794 99.2776 73.6927C99.9135 74.077 100.61 74.4463 100.718 75.318C101.628 76.1896 101.271 77.6315 99.9035 78.3851Z" fill="#CECCB5"/>
<path d="M95.5578 110.666C93.5119 108.948 92.7001 106.7 92.4638 104.135C92.4412 103.884 92.7151 103.417 92.1421 103.364C92.1094 104.027 91.6394 104.294 91.1015 104.457C90.0784 104.811 89.0342 105.102 87.9749 105.326C83.672 106.062 79.3464 105.808 75.031 105.442C74.1387 105.364 73.4148 105.359 73.1836 106.371C72.7086 108.428 72.2763 110.498 71.8264 112.563L72.2763 112.626C73.068 112.664 73.8572 112.721 74.6489 112.734C80.4635 112.824 86.2693 112.25 91.9536 111.023C92.4412 110.918 93.1399 110.574 93.3184 111.35C93.4717 112.018 92.7705 112.219 92.2829 112.415C91.1141 112.882 89.8549 113.005 88.6434 113.309C83.6222 114.616 78.4313 115.151 73.2489 114.897C71.8163 114.816 70.8864 115.148 69.9991 116.371C69.3004 117.328 68.6997 118.722 67.1012 118.672C68.7776 119.295 70.532 119.468 72.2989 119.677C78.1099 120.368 83.8102 119.677 89.4603 118.406C91.7726 117.883 94.1076 117.318 96.1686 116.09C97.6062 115.236 98.1793 114.08 97.2744 112.764C96.7617 112.025 96.2414 111.242 95.5578 110.666Z" fill="#CECCB5"/>
<path d="M43.8699 19.4166C44.1037 18.2686 44.918 17.4371 45.5991 16.5831C46.0502 16.061 46.4484 15.4956 46.7879 14.895C47.5972 13.3326 49.148 12.5438 50.3972 11.4411C49.4798 11.3908 48.5926 10.9663 47.6501 11.1899C47.1677 11.3778 46.6354 11.3946 46.142 11.2376C42.2815 11.3155 38.4309 11.4888 34.6809 12.5438C30.931 13.5988 27.3193 14.9578 23.9614 17.1508C30.338 19.4128 37.1477 20.1878 43.8699 19.4166Z" fill="#CECCB5"/>
<path d="M32.0418 26.9801C34.1631 27.794 36.4076 27.4222 38.5892 27.6609H38.8406H39.3256C39.8157 25.9175 40.8337 24.4154 41.5248 22.755C41.8541 21.9562 42.5051 22.1547 43.048 22.6697C43.1033 22.4411 43.4048 22.3003 43.2616 21.9336C42.3467 21.9336 41.4067 21.9487 40.4667 21.9336C37.3275 21.8808 34.1682 22.2501 31.0541 21.5417C31.3054 21.9562 31.7855 22.1898 31.8081 22.7776C31.8529 23.894 32.0378 25.0005 32.3585 26.0709C32.4792 26.4653 32.5169 26.8068 32.0418 26.9801Z" fill="#CECCB5"/>
<path d="M37.8227 38.3594C37.7171 38.6709 37.5563 38.9647 37.4205 39.2662C38.1368 39.2662 37.976 38.3744 38.441 38.1358C38.9964 39.3013 38.0388 40.4493 38.6219 41.5495C39.0216 40.2307 38.8733 38.8843 38.8079 37.5304C38.6693 37.4786 38.5517 37.3826 38.4731 37.2573C38.3945 37.132 38.3593 36.9844 38.3731 36.8371C38.3379 35.669 38.0062 34.5286 38.0816 33.3429C38.1268 32.6622 38.3329 31.7378 37.5161 31.4489C36.5937 31.1248 35.5531 30.5245 34.593 31.4916C34.3039 31.783 33.8792 31.6625 33.5273 31.7554C31.9765 32.1648 30.3554 31.7302 28.8172 32.1924C30.3554 32.205 31.9062 32.3608 33.4268 32.205C37.041 31.8408 38.6798 35.7846 37.8227 38.3594Z" fill="#CECCB5"/>
<path d="M37.2849 51.6101C36.7571 47.8848 36.7495 44.1193 36.2368 40.399C35.0404 41.1124 33.7612 41.1979 32.4341 40.9014C32.8136 41.542 32.8312 42.2429 32.8086 42.9613C32.6603 47.7818 32.9041 52.5822 34.1055 57.2796C34.8469 60.1784 35.5532 63.1275 37.6066 65.5038C38.4863 66.5262 39.6174 67.2797 40.487 68.2896C41.2259 69.1386 42.1307 69.4903 43.3899 69.4199C42.93 67.7796 42.0202 66.4257 41.3038 65.0014C39.18 60.7487 37.9485 56.2798 37.2849 51.6101Z" fill="#CECCB5"/>
<path d="M28.0607 32.1974L28.1638 32.2151L28.2694 32.2C28.2391 32.1781 28.2028 32.1661 28.1655 32.1657C28.1281 32.1652 28.0915 32.1763 28.0607 32.1974Z" fill="#CECCB5"/>
<path d="M25.2933 33.2975L25.3208 33.255L25.2584 33.2475L25.2933 33.2975Z" fill="#CECCB5"/>
<path d="M62.7253 43.3683L63.2631 43.0668C63.1556 43.0689 63.0502 43.0976 62.9564 43.1502C62.8626 43.2028 62.7832 43.2776 62.7253 43.3683Z" fill="#CECCB5"/>
<path d="M77.9943 39.9093L78.1652 40.085C78.1236 40.0132 78.0649 39.9529 77.9943 39.9093Z" fill="#CECCB5"/>
<path d="M72.1481 71.9319L72.2612 71.9118H72.0325L72.1481 71.9319Z" fill="#CECCB5"/>
<path d="M45.3327 72.0349C45.775 72.1153 46.3909 72.4845 46.519 71.9821C46.7453 71.1054 47.8285 70.4523 47.1273 69.2943C45.667 66.8904 43.8724 64.7049 42.6559 62.1377C42.2412 61.266 42.0351 60.2764 41.3992 59.5127C41.4143 59.2615 41.4369 59.0102 41.1479 58.862C41.1804 58.7255 41.1741 58.5827 41.1297 58.4495C41.0853 58.3164 41.0045 58.1982 40.8966 58.1084L39.3282 51.1026L38.7853 44.044C38.7853 43.7802 38.9286 43.4812 38.5968 43.3029L38.5365 42.788V42.072C38.5591 41.8987 38.5818 41.7254 38.6069 41.5521C38.0238 40.4519 38.9813 39.3038 38.4259 38.1382C37.9609 38.3769 38.1218 39.2737 37.4055 39.2686C37.3724 39.2912 37.3458 39.3222 37.3285 39.3584C37.3113 39.3946 37.304 39.4348 37.3074 39.4747L37.0737 39.7811L36.8073 40.0323L36.8324 40.0073L36.5811 40.2585C36.4554 40.2735 36.3297 40.2936 36.2945 40.4167L36.2317 40.3915C36.7344 44.1118 36.752 47.8772 37.2798 51.6025C37.9434 56.2747 39.1749 60.7411 41.3012 64.9712C42.0176 66.3955 42.9274 67.7494 43.3873 69.3898C42.1306 69.4601 41.2233 69.1084 40.4844 68.2594C39.6047 67.2546 38.4736 66.501 37.604 65.4736C35.5506 63.0973 34.8393 60.1482 34.1029 57.2494C32.9015 52.5645 32.6577 47.7642 32.806 42.9311C32.8286 42.2127 32.806 41.5119 32.4315 40.8714L32.3309 40.8889L32.346 40.9894C32.2631 40.7382 32.0721 40.6929 31.8433 40.7231C31.8433 40.5498 31.695 40.5171 31.5719 40.4568L31.3205 40.2609L31.0692 40.0097C30.6879 39.4632 30.1575 39.0377 29.5411 38.7839C28.3447 38.2514 26.9171 38.5327 25.7986 37.7238L25.3789 37.2214C24.7581 35.9026 24.9014 34.5712 25.3312 33.2399L25.2708 33.2199H25.3337C25.8364 31.7956 27.093 32.3357 28.0732 32.1624C28.1038 32.1409 28.1402 32.1293 28.1776 32.1293C28.2149 32.1293 28.2514 32.1409 28.2819 32.1624H28.8222C30.3604 31.7002 31.9816 32.1347 33.5323 31.7252C33.8842 31.6323 34.309 31.7529 34.598 31.4615C35.5581 30.4944 36.6087 31.0947 37.5211 31.4187C38.343 31.7076 38.1319 32.632 38.0866 33.3128C38.0112 34.4984 38.3379 35.6389 38.3781 36.807C38.3644 36.9542 38.3995 37.1019 38.4781 37.2272C38.5567 37.3525 38.6743 37.4485 38.813 37.5003L39.0643 36.9627C39.1045 36.39 39.2503 35.8172 39.0643 35.2445C39.0819 35.1616 39.097 35.0761 39.1146 34.9933C39.489 33.9332 40.0345 32.9108 39.8183 31.7277C39.8987 31.4765 39.9766 31.2002 40.0571 30.9364C40.2707 30.4466 40.0119 30.4014 39.5997 30.3863C37.9333 30.321 36.2719 30.11 34.6005 30.2456L34.0978 30.1979C33.0548 29.7257 31.9539 29.6604 30.8304 29.7483L30.5791 29.6931C30.3127 29.3062 29.9306 29.4292 29.5737 29.4719L29.3224 29.4443C27.739 28.643 25.9293 28.6255 24.2956 28.0025C24.1398 28.0025 24.072 28.0427 24.1423 28.201L24.1247 29.6931V30.2106L24.1071 30.9465V31.7178C24.1071 34.2297 24.1071 36.7333 24.1071 39.2285C24.1071 40.0248 23.9412 40.8286 24.2328 41.6073C24.273 42.7377 24.3124 43.869 24.3509 45.001L24.3735 45.5486C24.4615 46.586 24.4967 47.6311 24.6576 48.6585C24.8562 49.9572 24.7908 51.3086 25.3688 52.537C25.1175 53.1273 25.4744 53.6749 25.5523 54.2275C26.0776 58.0206 27.0604 61.6328 29.7849 64.5542C30.4233 65.24 31.2929 65.559 31.9112 66.2548C34.1506 68.7266 37.1893 69.8118 40.2054 70.9372C41.8441 71.6028 43.6035 71.7184 45.3327 72.0349Z" fill="#A6B3A3"/>
<path d="M44.6767 19.4769L44.6289 19.4642L44.9205 19.1829L44.8752 19.208L45.1115 18.9342L47.9139 15.2341L48.1652 14.9126V14.9603L48.6679 14.4302H48.6252L48.9218 14.179L49.3968 13.7043L49.9397 13.1793L50.1584 12.9808L50.4751 12.6844C50.8848 12.3654 51.3598 12.1092 51.5433 11.5641C51.121 11.3129 50.7515 11.4008 50.3821 11.4486C49.1254 12.5513 47.5822 13.3401 46.7729 14.9025C46.4334 15.5031 46.0351 16.0685 45.584 16.5906C44.9029 17.4446 44.076 18.276 43.8548 19.424L44.2972 19.4642L44.6767 19.4769Z" fill="#A6B3A3"/>
<path d="M41.6674 25.4779H41.653C41.653 25.4779 41.653 25.4779 41.653 25.4923L41.6674 25.4779Z" fill="#A6B3A3"/>
<path d="M41.1807 26.749L41.1681 26.7617L41.3867 26.2416C41.356 26.1037 41.3646 25.9599 41.4118 25.8267C41.4589 25.6934 41.5425 25.576 41.6532 25.488C41.6433 25.3842 41.6614 25.2796 41.7056 25.1851C41.7498 25.0906 41.8185 25.0095 41.9045 24.9504C42.3794 24.2393 42.7668 23.4736 43.0582 22.6697C42.5153 22.1547 41.8643 21.9562 41.535 22.755C40.8514 24.4154 39.8259 25.9176 39.3358 27.6609L39.8711 27.681C40.3844 27.4954 40.8373 27.1731 41.1807 26.749Z" fill="#A6B3A3"/>
<path d="M106.456 85.4991C106.358 85.4678 106.253 85.4742 106.16 85.517C106.067 85.5598 105.993 85.6359 105.953 85.7303L105.702 85.8508L102.975 86.5416L102.424 86.6672L101.15 86.9485C100.871 87.2298 100.519 87.265 100.145 87.3152C98.7373 87.5086 97.287 87.4584 95.9323 87.996C95.8117 87.7448 95.5955 87.8102 95.397 87.8403C92.0833 88.3273 88.7379 88.5666 85.3887 88.5562H84.8231L79.5802 88.3427L79.2887 88.32C75.413 88.0688 71.5927 87.4057 67.7623 86.8128C67.5637 86.74 67.3853 86.4989 67.144 86.7325C66.2517 86.2025 65.2187 86.117 64.2485 85.8382C62.4138 85.5192 60.6946 84.8661 58.9528 84.2155C55.6653 82.9922 52.4708 81.6432 49.6885 79.4578L49.412 79.2066C49.0023 78.7896 48.5951 78.3701 48.1855 77.9506L47.909 77.6391C47.3846 77.0531 47.0005 76.3557 46.7855 75.5995C46.7241 75.336 46.5694 75.1036 46.35 74.9452C46.1306 74.7869 45.8612 74.7132 45.5916 74.7378C44.159 74.7579 42.7892 74.3585 41.4043 74.0621C40.9444 73.9616 40.4417 73.7179 39.9993 74.1374C40.6855 78.1566 43.2668 81.3619 46.7403 82.4998C46.8068 82.605 46.9036 82.6877 47.018 82.737C47.1323 82.7863 47.2589 82.7999 47.3812 82.7761C47.4893 82.9645 47.6853 82.9796 47.8688 83.0273C48.2159 83.3356 48.651 83.5272 49.1129 83.575C49.176 83.6525 49.257 83.7136 49.3489 83.753C49.4409 83.7923 49.541 83.8088 49.6407 83.801C49.7488 84.0095 49.9524 84.0321 50.161 84.0522L50.1308 84.0246L50.6612 84.4139C50.8019 84.6501 51.0859 84.6651 51.2744 84.7907C51.7771 85.1575 52.222 85.6423 51.9757 86.3382C51.6866 87.147 51.1236 86.6798 50.631 86.5692C50.3997 86.5165 50.1409 86.4336 49.8895 86.6471C49.8311 87.679 50.0343 88.7089 50.4802 89.6414C51.8574 92.7911 54.1375 95.4624 57.0326 97.318C59.9255 99.1894 62.7882 101.036 66.1512 101.955C66.6714 102.098 67.1565 102.372 67.3274 102.972C66.1034 103.995 65.8973 104.178 64.241 103.432C63.5076 103.141 62.7352 102.96 61.9488 102.894C61.3665 102.831 60.8106 102.618 60.3352 102.277C58.2214 100.697 55.5597 99.973 53.7199 97.7927C53.0715 102.49 52.0234 104.575 49.221 106.954C49.0014 107.149 48.8057 107.369 48.6379 107.609C47.3812 109.368 47.6727 110.935 49.5176 112.056C50.3495 112.558 51.2367 112.975 52.0988 113.432L52.6543 113.683L53.1745 113.935H53.1318L53.6797 114.186H53.627L54.1296 114.437C54.2734 114.417 54.4198 114.431 54.5572 114.478C54.6946 114.525 54.8193 114.603 54.9214 114.706L54.8887 114.691L55.4291 114.942L55.3989 114.924L56.0599 115.193C56.4219 115.695 57.0326 115.741 57.5403 115.972C59.1212 116.693 60.8529 116.977 62.4565 117.574C63.9405 118.166 65.501 118.543 67.0912 118.695C68.6897 118.745 69.2904 117.351 69.9891 116.394C70.8763 115.178 71.8063 114.839 73.2389 114.919C78.4213 115.174 83.6122 114.638 88.6334 113.332C89.8449 113.028 91.1041 112.905 92.2728 112.438C92.7604 112.242 93.4617 112.041 93.3083 111.372C93.1299 110.596 92.4312 110.94 91.9436 111.046C86.2593 112.272 80.4534 112.846 74.6389 112.757C73.8472 112.744 73.058 112.686 72.2663 112.649C71.9722 112.98 71.3715 113.04 71.3413 113.598C71.2785 114.811 70.4868 114.761 69.6548 114.565C65.5103 113.595 61.2903 112.88 57.4021 111.028C55.9661 110.351 54.5948 109.545 53.3052 108.619C52.7598 108.225 52.1717 107.748 52.1793 106.974C52.5311 106.62 52.7749 106.879 53.0237 106.989C57.6324 109.076 62.4442 110.682 67.3827 111.782C68.848 112.101 70.3385 112.319 71.8163 112.586C72.2662 110.521 72.6986 108.451 73.1736 106.394C73.4048 105.389 74.1287 105.389 75.0209 105.464C79.3364 105.831 83.662 106.085 87.9649 105.349C89.0242 105.124 90.0684 104.834 91.0915 104.48C91.6269 104.316 92.0969 104.05 92.1321 103.387C91.8544 103.429 91.5849 103.514 91.3328 103.638C90.1892 104.052 89.0104 104.14 87.8995 103.51C87.6884 103.392 87.3013 103.271 87.427 102.894C87.4568 102.733 87.5433 102.587 87.6709 102.484C87.7985 102.38 87.9589 102.325 88.1232 102.329C89.8223 102.284 91.2851 101.365 92.8987 100.993L93.4466 100.684L93.3888 100.656C93.8035 100.644 94.1855 100.563 94.4117 100.169C94.5482 100.206 94.6925 100.202 94.8266 100.157C94.9607 100.112 95.0787 100.029 95.1657 99.9179L95.1934 99.8851H95.1632C95.1155 98.9733 94.5248 99.5008 94.2157 99.634C91.8523 100.607 89.3834 101.302 86.859 101.704C80.2789 102.638 73.8145 102.349 67.9256 98.7825C63.492 96.0997 60.6192 92.2362 59.5736 87.0992C59.4832 86.6496 59.2997 86.1622 59.7093 85.803C60.119 85.4438 60.5111 85.803 60.873 85.9638C67.252 88.6767 74.0105 89.3951 80.8369 89.8373C85.7255 90.1538 90.5939 89.8549 95.4598 89.5208C98.2978 89.2927 101.09 88.6678 103.754 87.6644C104.121 87.5702 104.454 87.3743 104.714 87.0992C105.126 87.0364 105.544 86.9962 105.951 86.9058C106.79 86.7199 107.094 86.2628 106.637 85.4539C106.605 85.4465 106.572 85.4467 106.541 85.4545C106.509 85.4624 106.48 85.4777 106.456 85.4991Z" fill="#A6B3A3"/>
<path d="M89.3321 19.4919L89.5834 19.9516C89.6312 20.0747 89.6262 20.243 89.8096 20.248C89.7815 20.3476 89.7937 20.4543 89.8436 20.545C89.8934 20.6357 89.9769 20.7032 90.0761 20.7329C90.0535 20.954 90.0761 21.1474 90.3274 21.2353C90.3171 21.3695 90.3356 21.5043 90.3815 21.6307C90.4274 21.7572 90.4998 21.8724 90.5938 21.9688C90.6365 22.1647 90.6391 22.3832 90.8653 22.4837L90.81 22.4636C90.8728 22.6595 90.8477 22.9082 91.1116 22.9911H91.0311C91.1719 23.3503 91.2172 23.7648 91.5816 23.9959H91.5137L91.4987 24.0613C91.75 24.8149 92.215 24.5158 92.6573 24.2747C92.9087 24.3325 93.0595 24.1793 93.1977 24.0009H93.17L93.4214 23.7497L93.439 23.7195C94.1151 22.3957 93.8663 21.1298 93.1877 19.8914V19.9214C93.1474 19.7205 93.1877 19.4869 92.9363 19.3713L92.9187 19.4317L92.6397 19.0323C92.6416 19.0132 92.6391 18.9939 92.6322 18.976C92.6254 18.9581 92.6144 18.9421 92.6003 18.9291C92.5861 18.9162 92.5691 18.9068 92.5507 18.9015C92.5322 18.8963 92.5128 18.8955 92.494 18.8991C92.4373 18.8002 92.3519 18.7209 92.2492 18.6716C92.1464 18.6222 92.031 18.6051 91.9184 18.6227C91.6846 18.2309 91.285 18.1882 90.8879 18.1455C89.9495 17.7916 88.9739 17.5455 87.9799 17.412C88.4826 18.2033 88.9073 18.8513 89.3321 19.4919Z" fill="#A6B3A3"/>
<path d="M47.65 11.1898L46.142 11.2376C46.6353 11.3946 47.1676 11.3778 47.65 11.1898Z" fill="#A6B3A3"/>
<path d="M110.02 79.0985C110.538 78.2218 110.143 77.4457 109.769 76.667C108.909 77.923 108.218 79.2418 106.735 80.0531C101.959 82.6556 96.7843 83.4945 91.5012 83.7457C83.9723 84.0932 76.4284 83.5792 69.0164 82.2135C62.0518 80.9449 55.3737 78.8373 49.7387 74.2706C49.4883 74.1238 49.2184 74.013 48.937 73.9415C49.5904 75.73 50.5631 77.2648 52.2823 78.2119L52.6568 78.4756C52.7119 78.5505 52.7833 78.612 52.8655 78.6555C52.9478 78.699 53.0388 78.7233 53.1318 78.7268C53.1752 78.8205 53.2473 78.898 53.3377 78.9482C53.428 78.9983 53.532 79.0184 53.6345 79.0057C53.6345 79.1891 53.7828 79.2142 53.9185 79.2569C53.9737 79.3371 54.0495 79.4009 54.138 79.4416C54.2265 79.4823 54.3243 79.4983 54.4212 79.488H54.3583C54.4148 79.5827 54.4992 79.6576 54.6 79.7026C54.7008 79.7476 54.813 79.7604 54.9213 79.7392H54.8635C55.1505 80.0163 55.5076 80.2099 55.8965 80.2993V80.2214C55.982 80.4726 56.2007 80.4726 56.3992 80.4902C56.5073 80.7062 56.7209 80.6937 56.917 80.7188C57.1167 80.8929 57.3761 80.9829 57.6408 80.97C57.8469 81.2388 58.1435 81.2363 58.4401 81.2463C58.5296 81.3455 58.6434 81.4197 58.7703 81.4616C58.8973 81.5034 59.0329 81.5114 59.1639 81.4849C59.2469 81.7537 59.4982 81.6808 59.6892 81.7361L59.6691 81.7085C59.8778 81.9471 60.1718 81.9597 60.4533 82.0074L60.4282 81.9623C60.7097 82.2662 61.0842 82.2135 61.4335 82.2135C61.715 82.5023 62.0744 82.5022 62.4389 82.4796C63.2356 82.9544 64.1505 83.0449 65.0226 83.266C68.4201 84.3902 71.956 85.0427 75.5311 85.2051C76.4435 85.916 77.4966 85.6825 78.5196 85.6523H78.8036L82.7898 85.8809C84.4748 85.9826 86.1643 85.9826 87.8493 85.8809L92.587 85.6447C93.2933 85.7578 93.9543 85.5016 94.6354 85.3935C96.5808 85.1901 98.5437 85.0997 100.416 84.434C101.824 84.12 103.209 83.8387 104.571 83.2408C105.88 82.6656 107.14 81.9848 108.444 81.4096C108.467 81.4079 108.49 81.4006 108.51 81.3884C108.53 81.3761 108.547 81.3592 108.56 81.3392V81.2413C108.763 81.2413 108.866 81.083 108.977 80.9298H108.932L109.211 80.6484V80.6937C109.394 80.5731 109.547 80.4425 109.5 80.1913C109.673 80.1913 109.701 80.0607 109.726 79.9276C109.847 79.8307 109.939 79.7016 109.991 79.555C110.043 79.4085 110.053 79.2504 110.02 79.0985Z" fill="#A6B3A3"/>
<path d="M24.2781 25.2719L24.2479 25.2293C24.4414 25.5056 24.733 25.4955 25.022 25.4805H24.9843C25.2532 25.797 25.6704 25.7316 26.0047 25.8647C27.9677 26.5053 29.9507 27.0202 32.0369 26.965C32.5144 26.7916 32.4767 26.4626 32.3611 26.0531C32.0404 24.9828 31.8555 23.8764 31.8107 22.76C31.7906 22.1722 31.308 21.9386 31.0567 21.5241C29.8402 21.2026 28.5558 21.2729 27.372 20.665C26.4496 20.1903 25.2608 20.4992 24.3208 19.9114C24.2077 19.6602 23.9991 19.6602 23.7729 19.6929C23.6953 19.6757 23.616 19.6672 23.5366 19.6677C23.0188 19.2985 22.501 18.8814 21.9707 19.6426C21.8792 19.6954 21.806 19.7751 21.7611 19.8707C21.7162 19.9664 21.7016 20.0734 21.7194 20.1776V20.1349C21.4203 20.2831 21.5133 20.5947 21.4354 20.8333L21.2997 21.4512C21.272 22.2375 21.0483 23.0589 21.7169 23.712C21.6415 23.9632 21.7923 24.1165 22.0034 24.2144L22.5337 24.4781H22.486L23.0364 24.7444L23.0037 24.7269L23.524 24.9982C23.7312 25.1823 24.001 25.2802 24.2781 25.2719Z" fill="#A6B3A3"/>
<path d="M65.2665 34.6768C66.1185 34.6768 66.0205 34.0739 65.744 33.5087L65.6937 33.5464L65.734 33.4987C65.6611 32.1648 64.9548 31.2379 63.8012 30.6727C61.0188 29.2911 58.4024 30.1251 55.8865 31.4112C54.5619 32.0869 53.539 33.1469 52.7372 34.6943C57.0754 34.6968 61.1721 34.7144 65.2665 34.6768Z" fill="#A6B3A3"/>
<path d="M71.8967 35.7871C72.1179 35.2847 72.3994 34.8979 73.0378 34.9933C73.1458 34.8944 73.2735 34.8197 73.4126 34.7738C73.5517 34.7279 73.6989 34.712 73.8446 34.7272C76.3856 34.6493 78.9367 34.398 81.4652 34.5563C83.1843 34.6618 84.8658 33.4737 86.6 34.5915C86.1627 33.2752 85.5067 32.2553 84.2726 31.7378C80.5026 30.1502 76.7827 30.2935 73.2137 32.3382C72.1078 32.9712 71.4971 34.0112 71.301 35.2773C71.2181 35.7696 71.3739 35.9956 71.8967 35.7871Z" fill="#A6B3A3"/>
<path d="M55.3763 28.1181C57.6232 27.3469 59.9356 27.8467 62.2152 27.7161C63.1506 27.7019 64.0585 27.3983 64.814 26.847C62.6726 26.847 60.77 26.8118 58.8699 26.8595C57.5503 26.8947 56.2358 27.0479 54.9188 27.1483C54.8774 27.2571 54.7962 27.3461 54.6918 27.3973C54.5873 27.4486 54.4672 27.4584 54.3558 27.4247C54.5594 27.8542 54.8183 28.309 55.3763 28.1181Z" fill="#A6B3A3"/>
<path d="M72.2712 69.2667C68.8052 69.3395 65.3317 69.6535 62.009 70.8216C61.2877 71.0728 60.5814 71.3239 60.1767 72.0448C60.168 72.0756 60.1703 72.1086 60.1831 72.1379C60.1959 72.1672 60.2186 72.1911 60.2471 72.2056C60.2428 72.2367 60.2452 72.2683 60.2541 72.2984C60.2629 72.3284 60.2781 72.3562 60.2985 72.3799C60.319 72.4037 60.3442 72.4228 60.3726 72.4361C60.401 72.4494 60.4319 72.4564 60.4633 72.4568H60.4055C60.5311 72.6804 60.7523 72.708 60.971 72.7356L60.9383 72.6929C61.0205 72.8109 61.1366 72.9012 61.2712 72.9519C61.4058 73.0025 61.5526 73.0113 61.6923 72.9769C62.3734 73.4165 62.9264 72.9367 63.5145 72.7106C66.1762 72.4192 68.8706 72.4745 71.5046 71.9143L72.0248 71.8967H72.2536H72.7814C76.3504 71.6756 79.9018 72.178 83.4658 72.178C84.1771 72.178 84.8859 72.7633 85.5972 72.2006C86.1777 72.6653 86.8765 72.3188 87.5098 72.4795C89.4653 72.9819 91.4332 73.4315 93.3962 73.9038L96.8747 75.0266C96.9296 75.1059 97.0063 75.1677 97.0954 75.2047C97.1846 75.2416 97.2824 75.2522 97.3774 75.2351C97.4729 75.4863 97.6891 75.4863 97.9078 75.4863L97.8399 75.5014C97.9405 75.6198 98.0636 75.7172 98.2021 75.7879C98.3406 75.8586 98.4917 75.9013 98.6467 75.9134C99.3856 75.8832 100.109 75.8078 100.698 75.2878C100.59 74.4187 99.8933 74.047 99.2574 73.6627C97.2241 72.4393 94.9646 71.7937 92.6975 71.1934C86.0018 69.4174 79.1453 69.121 72.2712 69.2667Z" fill="#A6B3A3"/>
<path d="M71.8263 112.573C70.3484 112.307 68.858 112.088 67.3927 111.769C62.4542 110.669 57.6424 109.063 53.0337 106.976C52.7823 106.866 52.531 106.607 52.1891 106.961C52.1891 107.735 52.7698 108.217 53.3152 108.607C54.6047 109.532 55.976 110.339 57.412 111.016C61.3002 112.867 65.5202 113.583 69.6648 114.553C70.4967 114.748 71.2884 114.804 71.3513 113.585C71.3814 113.028 71.9821 112.967 72.2762 112.636L71.8263 112.573Z" fill="#859F9A"/>
<path d="M34.1682 34.6015C32.0243 34.4834 29.8678 34.5713 27.7164 34.5713C27.1232 36.38 28.6564 35.8022 29.3224 36.1589C29.1289 35.6565 28.493 35.6565 28.1285 35.1541C29.1339 34.5788 30.1393 34.8225 31.0944 34.835C32.2606 34.8501 32.7608 35.5485 32.8814 36.6588C32.9417 37.2114 33.4645 37.4601 33.9144 37.6636C34.1333 37.7351 34.319 37.8833 34.4372 38.0809C34.5555 38.2784 34.5983 38.512 34.5578 38.7387C34.8444 38.5034 35.104 38.2372 35.332 37.9448C36.1991 36.5306 35.5958 34.6769 34.1682 34.6015Z" fill="#859F9A"/>
<path d="M29.3224 36.1589C29.1289 35.6565 28.493 35.6565 28.1285 35.1541C29.1339 34.5789 30.1393 34.8225 31.0944 34.8351C32.2606 34.8502 32.7608 35.5485 32.8814 36.6588C32.9417 37.2115 33.4645 37.4602 33.9144 37.6636C34.1333 37.7352 34.319 37.8833 34.4372 38.0809C34.5555 38.2785 34.5983 38.5121 34.5578 38.7387C33.7334 39.0879 33.1202 38.6332 32.5471 38.1634C31.5543 37.342 30.5791 36.5256 29.3224 36.1589Z" fill="#637C80"/>
</svg>
