<svg width="129" height="129" viewBox="0 0 129 129" fill="none" xmlns="http://www.w3.org/2000/svg">
<path d="M128.818 0H0.13208V128.613H128.818V0Z" fill="#D18647"/>
<path opacity="0.3" d="M65.4803 123.589C85.6079 123.589 101.924 118.866 101.924 113.039C101.924 107.212 85.6079 102.489 65.4803 102.489C45.3528 102.489 29.0362 107.212 29.0362 113.039C29.0362 118.866 45.3528 123.589 65.4803 123.589Z" fill="#1D2831"/>
<path d="M49.9426 22.7861C48.2773 21.5544 46.5213 20.4502 44.6896 19.4829C43.4857 18.8147 42.4426 17.7822 42.0555 16.4484C41.6685 15.1145 42.5382 14.165 43.6014 13.434C45.2024 12.3187 46.9819 11.7736 48.8795 11.2888C50.7858 10.7795 52.7418 10.4789 54.7131 10.392C56.0049 10.3468 57.4073 10.5402 58.4127 11.1984C59.5286 11.9269 60.4586 13.0622 61.1774 14.2956C61.9616 15.6521 62.8865 16.9206 63.6908 18.2645C64.015 18.8147 64.4826 18.7669 64.8722 18.6313C67.569 17.7069 70.3865 17.8902 73.1663 17.6968C77.0471 17.4087 80.949 17.6726 84.7555 18.4806C87.2689 19.0232 89.5309 20.3444 90.6896 22.776C91.5869 24.665 90.8204 26.4837 89.5461 28.1667C90.5942 28.8902 91.5568 29.6287 92.5923 30.2542C93.947 31.0706 94.603 32.3869 94.0827 33.9066C93.7927 34.8642 93.6645 35.8634 93.7032 36.8632C93.7032 45.4466 93.7309 54.0275 93.6706 62.6109C93.6706 63.4926 94.0475 63.985 94.5904 64.4195C96.3498 65.8212 96.7871 67.1827 95.832 69.1194C95.4047 69.981 95.2389 70.7774 95.5154 71.6792C96.2216 73.9776 95.4853 75.9696 94.1104 77.7682C93.8611 78.0742 93.7198 78.4538 93.7083 78.8483C93.5901 80.878 93.9822 82.9277 93.4318 84.9398C93.3989 85.0822 93.4114 85.2314 93.4672 85.3664C93.5231 85.5015 93.6196 85.6157 93.7435 85.6934C96.1136 87.4292 95.9652 89.7126 95.0353 92.0764C94.6406 92.9992 94.6012 94.0352 94.9247 94.9852C95.3093 96.1658 95.5832 97.3515 94.138 98.1403C93.8063 98.3211 93.6956 98.801 93.7007 99.2506C93.7208 100.841 93.6178 102.438 93.7334 104.023C93.7963 104.893 94.1581 105.749 94.4522 106.588C95.3797 109.228 93.9998 112.994 90.8983 114.285C89.9809 114.664 89.3576 115.44 88.4829 115.928C85.6151 117.523 82.4055 118.065 79.3367 118.691C71.6231 120.276 63.7839 120.253 55.922 119.64C51.0636 119.261 46.5998 117.668 42.0984 116.078C39.4763 115.185 37.2231 113.45 35.6892 111.145C34.5632 109.472 34.6536 107.593 35.3096 105.842C36.0637 103.832 36.1541 101.81 36.1366 99.7253C36.1039 95.7916 36.1164 91.8553 36.1366 87.9191C36.1366 87.266 36.0335 86.7209 35.5358 86.2235C34.7114 85.397 34.9678 84.3018 35.2066 83.3824C35.6087 81.8401 35.4278 80.5816 34.352 79.3457C33.4774 78.3409 33.6257 76.3313 34.4249 75.2813C35.5559 73.7942 36.2196 72.2669 36.1969 70.2423C36.0662 59.1067 36.1341 47.9711 36.1291 36.833C36.1291 36.3005 36.2019 35.7755 35.845 35.2731C33.7488 32.3266 36.1315 29.2042 38.4665 27.9884C40.0022 27.1946 41.5856 26.4586 43.0107 25.4965C43.6039 25.0946 44.192 24.9941 44.8053 24.8208C46.5219 24.3661 48.138 23.5748 49.9426 22.7861ZM92.3912 69.4234L92.4163 69.4008L92.0645 69.652C90.5213 70.9884 89.1389 72.6111 87.3946 73.5908C84.7656 75.0678 82.4483 77.0321 79.6584 78.2806C78.4922 78.8031 77.1677 79.1473 76.1598 80.0063C74.9363 81.0086 73.5078 81.7305 71.9749 82.1214C71.0651 82.3726 70.4417 82.8549 69.635 83.3548C70.3663 83.5734 70.9546 83.8396 71.5628 83.91C73.0357 84.0783 74.2069 85.3971 75.8155 84.9952C76.7354 85.5804 77.7935 85.799 78.8315 85.9296C79.1457 85.9673 79.3693 86.432 79.9022 86.0301C81.375 84.9524 83.2274 84.4977 84.6575 83.3096C85.889 82.988 86.6431 81.9406 87.6735 81.3151C89.9356 79.9435 91.871 78.2229 92.9065 75.6908C93.183 75.638 93.1151 75.3818 93.188 75.2085L93.1679 75.2261C93.4343 75.1331 93.3991 74.892 93.4318 74.686V74.7287C94.2335 73.4526 93.7209 72.2167 93.3036 70.9859C93.3288 70.7096 93.3564 70.4357 93.384 70.1619C93.477 69.9961 93.5675 69.8304 93.6605 69.6595C94.4673 68.5417 94.7462 67.3711 93.9671 66.0699C94.0978 67.3711 92.8688 68.0443 92.635 69.1647L92.6576 69.1446C92.4767 69.1446 92.3912 69.2426 92.3912 69.4234ZM84.1272 85.5001L83.6019 85.7663C83.4059 85.8919 83.1521 85.9497 83.0616 86.3064C83.5391 86.53 84.0518 86.4973 84.557 86.4898H85.1577L86.0977 86.5098H86.3868C87.7214 86.3767 89.0912 86.7937 90.4082 86.2737H90.3855H90.7826H90.7625C91.127 86.6128 91.225 86.2737 91.3683 86.0376C91.5216 85.4197 92.0569 84.8996 91.8257 84.1862V80.4183L90.7675 81.2347L84.8812 85.1885L84.092 85.5101L84.1272 85.5001ZM39.8915 87.08L39.8438 87.0273L39.7885 87.0775C39.9895 87.9919 40.8794 87.5975 41.3921 87.9241C41.4576 87.9876 41.5415 88.0287 41.6319 88.0414C41.7223 88.054 41.8144 88.0376 41.8948 87.9944C42.5287 88.3694 43.185 88.7049 43.8602 88.9992C48.3843 90.6923 53.0064 92.0136 57.8321 92.6215C58.7495 92.7345 59.6921 92.6566 60.6296 92.9355C62.3161 93.4379 64.0728 93.7067 65.8071 94.0282C68.1646 94.4678 70.5599 94.7491 72.8848 95.3118C75.7752 96.0126 78.7184 96.412 81.6239 97.0124C83.8407 97.4696 86.1983 97.2787 88.493 97.3188C89.8678 97.3415 91.2577 97.3616 92.6175 97.0903C93.2282 96.9672 93.5449 96.7914 93.3087 96.1081C92.7482 94.4929 92.6753 92.8928 93.3564 91.2701C93.576 90.6382 93.712 89.9803 93.761 89.3132C93.8222 88.961 93.784 88.5986 93.6508 88.2668C93.5177 87.935 93.2948 87.6467 93.007 87.4343C92.5797 87.1077 92.5294 87.4493 92.4691 87.7558C91.9488 88.2808 91.2627 88.2582 90.6092 88.2582C88.6111 88.2884 86.6129 88.2833 84.6148 88.2934C84.2428 88.3059 83.9362 88.0849 83.5617 88.0422C81.3725 87.7508 79.1632 87.5021 77.0269 86.9846C74.242 86.3089 71.4019 85.9371 68.6447 85.0705C65.5733 84.1084 62.2732 84.4701 59.0938 84.0129C57.4124 83.7617 55.6228 83.817 54.0469 83.3624C51.6315 82.6666 49.1081 82.453 46.7581 81.5462C45.328 80.996 43.8099 80.6796 42.332 80.2575C41.2437 79.7426 40.163 79.2151 39.0646 78.7127C38.1221 78.2806 37.1469 77.9013 36.5764 76.9543C36.5764 76.4193 36.4005 76.0249 35.7269 75.9495C35.4756 77.0598 35.1563 78.1249 36.0888 79.0618C37.3455 80.152 38.0995 81.3226 37.0942 83.0308C36.8428 83.4704 36.8755 84.0783 36.7347 84.5982C36.511 85.4146 36.9081 85.9421 37.6094 86.0929C38.2201 86.226 38.7128 86.545 39.2582 86.7736C39.3688 87.0951 39.4995 87.3589 39.8891 87.07L39.8915 87.08ZM38.3559 89.5317V89.4966C37.911 89.7955 37.9085 90.2502 37.911 90.7199L37.9638 103.835C37.8859 105.091 37.7577 106.267 38.6725 107.392C40.4319 109.542 42.8926 110.456 45.308 111.383C48.0526 112.441 51.0284 112.715 53.8936 113.368C54.5245 113.514 55.1503 113.961 55.7585 113.835C57.0278 113.584 58.272 113.812 59.4835 113.968C64.8194 114.659 70.1277 113.983 75.3907 113.466C78.4281 113.121 81.4054 112.37 84.2428 111.233C86.7084 110.276 89.1364 109.241 90.9611 107.214C91.7629 106.327 92.1776 105.342 91.5894 104.161L91.6045 101.815C92.0469 100.916 91.7829 100.057 91.6221 99.135H84.6097C79.221 98.5422 73.86 97.8112 68.607 96.3894C65.513 95.5504 62.238 95.6961 59.1365 94.8119C58.6213 94.6662 58.2116 94.2593 57.6285 94.3095C55.5323 94.4703 53.587 93.5308 51.521 93.4504C49.827 93.3826 48.3592 92.4231 46.6501 92.2824C45.5001 92.1709 44.394 91.784 43.4254 91.1545C42.7618 90.7174 42.1536 90.3104 41.3794 90.1497C40.9823 89.8708 40.6254 89.5167 40.1856 89.3358C39.6377 89.1072 39.037 88.5621 38.4439 89.2956L38.3559 89.5317ZM57.4953 27.4609C57.523 27.2549 57.3646 27.2449 57.2289 27.2097C57.0971 27.106 56.9456 27.0303 56.7835 26.9871C56.6215 26.9439 56.4523 26.9342 56.2864 26.9585C55.3388 26.2325 54.4617 25.9286 53.2151 26.5742C51.3652 27.5287 50.126 29.0359 49.1458 30.7013C47.9444 32.741 48.7915 34.507 50.9655 34.7808C52.1996 34.9365 53.4236 35.2103 54.6627 35.263C58.0206 35.4062 61.3835 35.4766 64.7439 35.5746H65.043C66.1237 35.5746 67.275 35.8534 68.2703 35.675C71.4195 35.1124 74.6543 35.042 77.6955 33.6655C79.3392 32.9244 81.0257 32.2186 82.6544 31.4273C83.8653 30.8718 84.9827 30.132 85.9669 29.2343C86.8108 28.3881 87.6071 27.4958 88.3522 26.5616C90.0261 24.5847 89.2244 22.869 88.0682 22.0878C87.6686 21.8165 87.2614 21.5527 86.8617 21.2915C85.8564 20.6384 84.7756 20.0355 83.5566 19.8998C80.0881 19.4622 76.5898 19.3051 73.0959 19.4301C70.464 19.5182 67.8383 19.7404 65.229 20.0958C65.4201 20.5655 65.5432 20.9097 65.6991 21.2387C66.4028 22.7459 66.2017 24.3937 64.9451 25.4764C63.6884 26.5591 62.2833 27.486 60.5013 27.486C59.496 27.486 58.5057 27.4382 57.5078 27.4131L57.4953 27.4609ZM91.9137 31.7765C91.5819 30.5883 90.2071 30.8445 89.5285 30.0332C88.8499 29.2218 88.0205 29.4453 87.3921 30.5104C88.5383 31.1382 89.4494 32.1212 89.9884 33.3113C89.9263 33.4902 89.8226 33.6518 89.6859 33.7828C89.5491 33.9138 89.3832 34.0105 89.2017 34.0649C87.8696 34.4266 86.7436 35.2781 85.2808 35.4062C83.906 35.5268 82.4659 35.5168 81.1614 35.8735C78.1202 36.705 74.9961 36.9712 71.9096 37.1898C66.3626 37.5841 60.7829 37.662 55.2308 37.0214C53.4187 36.8129 51.604 36.6145 49.8069 36.3156C47.3161 35.8986 44.8429 35.3811 42.3596 34.929C41.4203 34.7729 40.569 34.2832 39.962 33.5499C39.0898 32.5175 39.2079 31.6257 40.4093 31.0655C43.3751 29.6639 46.3359 28.2521 49.3318 26.9158C50.3824 26.446 51.247 25.7577 52.2222 25.0418C51.9709 24.7906 51.9533 24.4138 51.4958 24.2882C51.1716 24.8836 50.5081 24.6525 49.9878 24.8409C47.5247 25.7351 45.0113 26.534 42.6512 27.6493C41.196 28.3351 39.9368 29.4604 38.4212 30.0884C37.2902 30.5556 36.8629 31.4122 36.8403 32.5376C36.8176 33.663 37.2826 34.6075 38.3257 35.0722C39.7835 35.7203 41.2588 36.3909 42.792 36.8004C46.3836 37.7524 49.9978 38.5588 53.7327 38.8703C60.0264 39.3771 66.3478 39.446 72.651 39.0763C76.9346 38.832 81.1894 38.2219 85.3688 37.2526C87.4876 36.7703 89.5587 36.0719 91.3205 34.723C92.5345 33.776 92.6929 32.8892 91.9112 31.7664L91.9137 31.7765ZM91.6021 50.5384C91.8019 50.0315 91.8877 49.487 91.8534 48.9433C91.8534 45.4684 91.8534 41.9943 91.8534 38.5211V36.2001C90.2901 37.5816 88.6865 38.3804 87.0553 38.6894C84.3106 39.2094 81.7118 40.4026 78.8038 40.2845C76.5644 40.1941 74.33 40.7392 72.068 40.8271C63.6858 41.1562 55.3187 41.2868 47.012 39.7947C44.4684 39.335 41.9575 38.7547 39.5572 37.7851C38.4237 37.3229 37.9311 37.6369 37.9135 38.8828C37.9135 39.762 37.9788 40.6412 37.9135 41.5204C37.6244 45.6526 38.4941 49.8099 37.6496 53.9295C37.5055 54.6969 37.5098 55.4848 37.6621 56.2506C37.8054 57.0971 38.2528 57.9688 38.1271 58.7626C37.725 61.3524 38.004 63.9398 37.9412 66.5246C37.8784 69.2426 37.906 71.9655 37.9412 74.686C37.9563 75.52 37.8482 76.5022 38.9315 76.8815C43.9155 78.6172 48.7588 80.8027 54.0721 81.4583C56.4296 81.7472 58.7721 82.1591 61.1297 82.4429C64.857 82.8926 68.2577 81.5789 71.6156 80.2701C72.4174 79.9586 73.3172 79.941 74.0184 79.4939C76.107 78.16 78.3137 77.0347 80.4375 75.7686C80.8698 75.5174 81.4278 75.5803 81.7747 75.1382C82.9912 73.5958 84.8637 72.8774 86.3969 71.7771C88.1273 70.5556 89.7832 69.232 91.3558 67.8132C91.5252 67.6567 91.658 67.4649 91.7449 67.2513C91.8318 67.0377 91.8706 66.8076 91.8584 66.5773C91.8383 64.5251 91.8584 62.4753 91.8333 60.423C91.8333 60.1718 92.0092 59.6694 91.3783 59.8101C91.3783 59.5589 91.3507 59.3227 91.3381 59.0791C91.4135 58.6294 91.4814 58.1798 91.5719 57.7352C91.9866 55.693 91.9212 53.6432 91.6573 51.5909C91.6447 51.2266 91.6196 50.8775 91.5995 50.5283L91.6021 50.5384ZM92.7255 107.61C91.7805 108.615 91.0239 109.585 89.9608 110.22C86.7889 112.134 83.4939 113.737 79.769 114.267C78.8315 114.4 77.8588 114.433 76.964 114.717C74.2445 115.576 71.3994 115.649 68.6221 116.139C67.5841 116.319 66.4933 115.935 65.405 115.928C59.4659 115.89 53.5518 115.583 47.8339 113.727C45.597 113.001 43.3098 112.416 41.2789 111.18C40.1228 110.477 38.7982 110.034 37.9864 108.821C37.7049 108.399 37.1972 108.13 36.7975 107.794C36.6956 107.881 36.6186 107.993 36.5744 108.119C36.5303 108.245 36.5205 108.381 36.5462 108.512C36.7598 110.321 37.921 111.514 39.2582 112.491C41.9689 114.446 45.0464 115.833 48.3064 116.571C53.8391 117.856 59.5096 118.452 65.1888 118.347C69.146 118.287 73.09 117.875 76.9741 117.116C78.8893 116.739 80.8195 116.397 82.7146 115.935C85.6025 115.234 88.2441 113.958 90.7575 112.356C92.3736 111.318 93.1453 109.773 92.723 107.6L92.7255 107.61ZM53.9792 12.1353C51.5361 12.0449 48.6583 13.2431 45.7428 14.2353C45.1019 14.4539 44.5413 14.9638 44.001 15.4085C43.5184 15.8053 43.6642 16.2374 44.0211 16.7172C44.8957 17.8903 46.2832 18.3399 47.4343 19.0558C49.5229 20.342 51.4933 21.7964 53.5015 23.188C54.3159 23.7532 55.369 23.8587 56.0149 24.65C56.7413 25.5317 57.7441 25.6548 58.7796 25.7452C60.1494 25.8507 61.4111 25.5091 62.6603 24.9916C63.9673 24.454 64.6836 23.2031 64.1357 21.9144C63.7071 20.8937 63.1126 19.9507 62.3763 19.1236C61.6977 18.37 61.2453 17.5411 60.7175 16.7122C59.3049 14.4614 57.9653 12.0148 53.9766 12.1253L53.9792 12.1353ZM41.5152 32.628C42.3396 33.1304 45.5643 33.884 46.2455 33.781C46.5747 33.7308 46.8486 33.5901 46.8461 33.2635C46.8335 31.9724 47.2935 30.7893 47.8238 29.5458C45.9664 29.8222 42.6086 31.4776 41.5127 32.618L41.5152 32.628ZM87.2915 32.6054C86.9673 31.794 86.4168 31.588 85.8413 31.887C84.5846 32.5401 83.3682 33.2987 82.1366 34.0121C83.9664 33.9543 85.6227 33.4268 87.2891 32.5954L87.2915 32.6054Z" fill="#1D2831"/>
<path d="M111.805 57.6046C108.713 57.376 106.207 56.4365 104.838 53.6281C104.508 52.9574 104.083 52.9097 103.445 52.8946C99.8886 52.8067 97.7146 51.0106 97.3627 47.8355C97.1365 45.7983 97.7623 43.9796 99.3332 42.6583C100.087 42.0253 100.256 41.3747 100.223 40.5005C100.14 38.2925 100.743 36.3834 102.618 35.0044C104.629 33.5273 106.765 33.2987 109.01 34.2809C109.688 34.5773 110.131 34.6326 110.799 34.1729C113.564 32.2537 117.651 32.6984 119.905 35.0722C122.225 37.5164 122.396 41.5129 120.235 44.2786C119.795 44.8438 119.837 45.2507 120.101 45.8511C121.534 49.1392 120.416 53.6382 117.46 55.6478C115.748 56.8108 113.737 57.3986 111.805 57.6046ZM105.521 50.0034C106.024 50.7243 106.041 51.4628 106.275 52.1234C106.523 52.8617 106.947 53.5283 107.511 54.0651C108.075 54.6019 108.762 54.9926 109.512 55.2031C111.332 55.7661 113.294 55.6437 115.029 54.859C118.297 53.4447 119.631 48.7097 117.606 45.7732C116.713 44.4845 116.688 44.3439 118.035 43.5928C119.558 42.7437 119.845 41.3948 119.795 39.865C119.762 39.3217 119.66 38.7848 119.491 38.2674C118.897 36.3106 117.55 35.1751 115.542 34.8888C113.82 34.6376 112.297 35.0646 111.234 36.5492C110.568 37.4761 109.9 37.3405 109.123 36.7025C107.484 35.3535 105.986 35.1375 104.523 35.9991C102.689 37.0818 101.849 38.6693 102.45 40.7543C102.952 42.5327 102.829 43.6531 100.942 44.4619C99.587 45.0447 99.2176 46.5242 99.3382 47.8882C99.4664 49.3678 100.389 50.35 101.852 50.8675C103.314 51.3849 104.438 50.9278 105.511 50.0034H105.521Z" fill="#8A7325"/>
<path d="M32.4168 63.3143C32.3752 64.711 31.792 66.0369 30.7906 67.0119C30.411 67.4088 30.2452 67.7479 30.5166 68.3332C32.2056 71.953 30.2401 75.7887 26.2739 76.6704C24.3361 77.1025 22.504 76.9619 21.0487 75.4371C20.6617 75.0352 20.3374 75.0578 19.8422 75.2261C17.2484 76.1128 14.8155 75.3592 13.4004 73.2944C11.9854 71.2295 12.199 68.592 13.9885 66.5824C14.6395 65.8514 14.6144 65.3666 14.3128 64.4296C13.4004 61.5861 14.084 58.9033 17.4595 57.1148C19.9302 55.8085 22.4135 55.6075 24.7258 57.5016C25.1958 57.8884 25.6206 57.8106 26.1232 57.7352C26.9195 57.5972 27.7366 57.6401 28.514 57.8609C29.2914 58.0818 30.009 58.4747 30.6136 59.0107C31.2182 59.5467 31.6942 60.2119 32.0064 60.9569C32.3185 61.702 32.4589 62.5077 32.4168 63.3143ZM17.6907 65.9292C17.0724 66.4718 16.5321 66.9341 16.0068 67.4063C15.4973 67.8452 15.0993 68.3989 14.8459 69.0217C14.5924 69.6445 14.4906 70.3186 14.549 70.9884C14.7476 73.3547 17.2208 74.5202 19.6009 73.4099C20.3374 73.0658 20.8727 72.8372 21.5664 73.5933C23.0292 75.1808 25.0298 75.3969 26.9224 74.3318C29.2322 73.0331 29.7878 70.5262 28.139 68.5844C27.4252 67.7404 27.7795 67.3284 28.5436 66.826C30.3206 65.6529 31.0243 63.367 30.2552 61.5383C29.6193 60.0186 27.7669 59.1922 25.6506 59.6694C24.4542 59.9382 23.4137 60.3075 22.8482 58.7375C22.7351 58.4235 22.2224 58.1924 21.8429 58.0442C19.998 57.3157 17.0096 58.8505 16.4542 60.7596C15.8987 62.6687 16.615 64.2839 17.6907 65.9292Z" fill="#8A7325"/>
<path d="M103.317 65.143C100.539 65.2535 99.0441 63.0781 98.9636 60.536C98.8908 58.2953 101.04 56.4164 103.488 56.4114C104.066 56.3948 104.642 56.4948 105.181 56.7055C105.72 56.9162 106.211 57.2332 106.625 57.6376C107.038 58.0419 107.366 58.5254 107.589 59.0592C107.812 59.593 107.925 60.1662 107.921 60.7445C107.956 63.3017 105.994 65.1631 103.317 65.143ZM103.231 63.2615C104.576 63.2615 105.996 61.7543 105.976 60.3552C105.976 59.0414 104.616 57.8432 103.191 57.8758C101.889 57.9085 100.71 59.1619 100.7 60.5234C100.69 61.9528 101.902 63.2665 103.231 63.2615Z" fill="#8A7325"/>
<path d="M23.7731 85.6583C23.758 83.4905 25.5953 81.7798 27.9454 81.7798C30.1194 81.7798 31.7405 83.5382 31.7481 85.8919C31.7556 88.2456 30.2953 89.7679 28.0986 89.7729C25.4646 89.7804 23.7932 88.1904 23.7731 85.6583ZM27.895 87.7609C28.9858 87.7609 29.8002 86.8942 29.8103 85.7287C29.8103 84.4727 28.9407 83.5281 27.7619 83.498C26.661 83.4704 25.3264 84.7037 25.3264 85.7588C25.3239 86.9143 26.4272 87.7658 27.895 87.7633V87.7609Z" fill="#8A7325"/>
<path d="M91.3858 59.7975C92.0166 59.6443 91.8382 60.1467 91.8407 60.4104C91.8608 62.4627 91.8407 64.5125 91.8659 66.5648C91.878 66.795 91.8393 67.0252 91.7525 67.2388C91.6656 67.4524 91.5326 67.6442 91.3632 67.8006C89.7906 69.2194 88.1347 70.5431 86.4043 71.7645C84.8711 72.8748 82.9986 73.5833 81.7821 75.1256C81.4353 75.5677 80.8773 75.4999 80.445 75.7561C78.3212 77.0121 76.1145 78.1475 74.0258 79.4813C73.3246 79.9285 72.4248 79.9461 71.623 80.2575C68.2651 81.5663 64.8646 82.88 61.1372 82.4304C58.7797 82.1465 56.4372 81.7346 54.0796 81.4457C48.7663 80.7901 43.9229 78.6047 38.9389 76.8689C37.8556 76.4896 37.9637 75.5074 37.9486 74.6734C37.9034 71.953 37.8757 69.23 37.9486 66.512C38.0115 63.9272 37.7325 61.3398 38.1347 58.75C38.2603 57.9512 37.8129 57.0795 37.6697 56.238C37.5173 55.4722 37.513 54.6844 37.657 53.917C38.5015 49.7973 37.632 45.64 37.921 41.5078C37.9813 40.6337 37.9034 39.7495 37.921 38.8703C37.9386 37.6143 38.4237 37.3104 39.5648 37.7726C41.9651 38.7497 44.4759 39.33 47.0194 39.7821C55.3136 41.2743 63.6933 41.1436 72.0755 40.8145C74.3375 40.7266 76.5719 40.1815 78.8113 40.272C81.7193 40.39 84.3182 39.1968 87.0628 38.6768C88.694 38.3679 90.2975 37.5691 91.8608 36.1875V38.5086C91.8608 41.9818 91.8608 45.4558 91.8608 48.9307C91.8952 49.4744 91.8093 50.019 91.6095 50.5258L81.2643 54.6882C80.7416 53.181 79.7564 51.9903 79.1255 50.5936C79.2483 50.5711 79.3727 50.5586 79.4975 50.556C80.1937 50.5911 80.8547 50.5158 81.287 49.8928C81.5107 49.5713 81.375 49.2548 81.106 48.996C80.548 48.461 79.9122 48.5916 79.2286 48.6846C75.1041 49.2523 71.0198 49.6894 68.2475 45.4969C67.7448 44.7433 66.9506 44.9392 66.6289 45.7933C66.5014 46.0851 66.4593 46.407 66.5074 46.7217C66.5554 47.0365 66.6916 47.3312 66.9003 47.5717C68.0289 48.7724 69.1624 49.9933 70.8992 50.3651C71.6758 50.5309 72.4926 50.6163 73.1989 50.9554C74.9583 51.7643 76.6548 50.9855 78.3765 50.9554C78.7007 52.1511 79.7362 52.9248 80.1911 54.0627C80.4852 54.7987 80.6234 56.3059 82.0133 54.9243C82.0837 54.8539 82.2648 54.8766 82.3804 54.874C84.743 54.8288 86.8541 53.8919 88.9503 52.9574C89.8777 52.5455 91.0364 52.5455 91.6774 51.5658C91.9287 53.6181 92.0041 55.6678 91.5894 57.7101C91.4989 58.1547 91.4311 58.6044 91.3557 59.054C89.2972 59.8578 87.4046 61.0133 85.3236 61.7996C84.2679 62.199 83.1167 62.4552 82.0862 63.1761C84.4513 63.6459 89.3725 61.8172 91.3858 59.7975ZM45.4411 64.9395C45.9664 64.8516 46.4162 65.1229 46.8937 65.2485C48.3892 65.6379 49.9099 65.8137 51.3777 65.3063C53.69 64.51 55.5399 63.249 56.8443 60.958C58.7068 57.6925 58.6388 53.8266 56.1405 51.0735C57.0177 50.968 57.5128 50.4781 57.3972 49.5914C57.3892 49.4542 57.3474 49.3213 57.2756 49.2042C57.2038 49.0871 57.1041 48.9895 56.9855 48.9202C56.8668 48.8508 56.733 48.8118 56.5957 48.8067C56.4584 48.8015 56.3218 48.8303 56.1983 48.8905C55.5976 49.1844 54.7079 49.5034 55.1704 50.5434C54.4515 50.767 54.454 51.2141 54.7531 51.7994C55.303 52.7745 55.7045 53.826 55.9445 54.9192C55.291 55.2332 54.6526 55.1428 54.0468 55.1076C50.3723 54.8866 46.6952 54.7158 43.0533 54.1406C42.1359 53.9949 41.5453 54.4345 41.4347 55.281C41.0049 58.838 41.9374 61.9428 44.6645 64.3995C43.8652 66.5472 44.491 68.0795 46.4414 68.5819C48.5244 69.1285 50.7285 68.9875 52.7249 68.18C53.8508 67.7328 54.5873 66.7934 55.2533 65.8313C55.5248 65.4394 55.6153 64.9596 55.0749 64.6406C54.5345 64.3216 54.2053 64.4597 54.0067 65.0299C53.8383 65.5097 53.3783 65.6605 53.0139 65.9318C51.629 66.9516 49.945 66.9743 48.3742 67.2179C46.5017 67.5018 45.3732 66.4643 45.4411 64.9395ZM65.4501 51.5984C63.2107 54.1104 62.9568 58.5993 64.6961 61.5459C65.4903 62.8923 66.2594 64.1885 67.5136 65.1455C66.282 65.3138 65.9529 65.9142 66.5887 66.9692C66.8602 67.3872 67.2001 67.7565 67.5941 68.0619C68.8508 69.0968 70.4015 69.4435 71.9598 69.8203C74.1942 70.3629 75.9485 69.4661 77.5672 68.1749C78.198 67.6725 78.4595 66.8311 78.4168 65.5123C76.9087 67.655 75.094 68.2152 72.9601 67.9012C70.972 67.6073 69.1348 67.0094 67.7826 65.4043C68.1546 65.3842 68.5366 65.2962 68.8709 65.5474C70.1703 66.5045 71.6783 66.4216 73.1738 66.414C76.6925 66.399 79.1859 64.7637 80.8673 61.7016C81.8727 59.8754 81.9732 57.9713 81.8727 55.8035C76.3709 56.13 71.0425 55.3011 65.5105 55.5121C66.3022 53.8391 66.8853 52.4148 67.8303 51.2417C67.4383 50.777 67.0763 50.8348 66.7018 50.9654C67.1466 50.4831 67.579 49.9305 66.9984 49.3376C66.7414 49.0893 66.4259 48.9096 66.081 48.8153C65.7362 48.7209 65.3732 48.7148 65.0254 48.7976C64.4749 48.9232 64.5403 49.6014 64.5227 50.0938C64.5026 50.7871 64.5478 51.4603 65.4501 51.5984ZM59.9207 70.2373C56.8116 70.167 54.4264 70.9004 52.1769 71.963C50.503 72.7543 49.5228 74.2012 49.4349 76.1404C49.3771 77.3713 49.8194 77.6476 51.0283 77.7556C52.7073 77.8963 53.7378 76.8086 54.8135 75.9395C57.0102 74.156 61.3483 73.7792 63.7058 75.2989C65.1972 76.2839 66.541 77.4756 67.6971 78.8383C68.3908 79.6346 69.3635 79.9235 70.2809 79.5768C71.1204 79.2603 71.3767 78.3058 71.2863 77.4517C71.1179 75.6933 70.3965 74.1258 68.9136 73.1085C66.066 71.1366 62.9041 70.0263 59.9307 70.2373H59.9207ZM47.6377 50.8097C50.9629 50.8423 53.5366 50.041 54.7003 46.8181C54.9215 46.2102 55.2508 45.537 54.4967 45.1853C53.7427 44.8337 53.2401 45.2105 52.9309 46.0596C52.3654 47.5668 51.3626 48.5715 49.563 48.6946C47.7634 48.8177 46.0644 48.5489 44.3151 48.564C43.835 48.564 43.1488 48.255 42.9905 49.0789C42.8322 49.9028 43.4931 50.1063 44.0863 50.3123C45.3279 50.7419 46.6298 50.6791 47.6478 50.8097H47.6377Z" fill="#A18E71"/>
<path d="M64.7413 35.5746C61.3809 35.4766 58.018 35.4062 54.6601 35.263C53.421 35.2103 52.197 34.9365 50.9629 34.7808C48.7888 34.5069 47.9468 32.741 49.1432 30.7013C50.1234 29.0359 51.3625 27.5287 53.2123 26.5742C54.469 25.9286 55.3361 26.2325 56.2812 26.9585C55.1527 27.579 55.6327 28.4657 56.0298 29.1992C56.6506 30.3672 57.8421 30.734 59.0585 30.9827C62.0168 31.5856 64.8871 30.8972 67.7624 30.3747C70.512 29.8723 73.1008 28.963 75.3201 27.1896C75.8906 26.7349 76.5366 26.2928 76.0741 25.18C75.0688 26.1546 74.0483 26.9836 72.8369 27.4181C68.6722 28.9253 64.402 29.7895 59.9332 29.5056C58.5131 29.4152 57.6132 28.9303 57.5127 27.4131C58.5181 27.4382 59.5084 27.4809 60.5062 27.486C62.2882 27.486 63.6932 26.5616 64.9499 25.4764C66.2066 24.3912 66.4026 22.7384 65.7039 21.2387C65.5481 20.9097 65.4249 20.5655 65.2339 20.0958C67.8457 19.7401 70.4739 19.5179 73.1084 19.4301C76.6022 19.3051 80.1005 19.4622 83.5691 19.8998C84.7881 20.0455 85.8739 20.6384 86.8742 21.2915C87.2738 21.5427 87.6809 21.8165 88.0806 22.0877C89.2367 22.869 90.0385 24.5847 88.3646 26.5616C87.6195 27.4958 86.8232 28.3881 85.9794 29.2343C84.9952 30.132 83.8777 30.8718 82.6667 31.4273C81.038 32.2186 79.3516 32.9345 77.7078 33.6655C74.6666 35.0345 71.4243 35.1048 68.2826 35.675C67.2772 35.8534 66.1362 35.5796 65.0554 35.5746H64.7413ZM67.2547 22.6304C70.032 23.2232 72.8595 22.8263 75.6594 23.0624C77.5445 23.2232 79.4069 23.2935 81.1059 24.1426C82.6139 24.8962 82.7271 26.2124 81.5232 27.388C81.2445 27.6391 80.9441 27.8652 80.6258 28.0637C78.5246 29.4855 76.152 30.3245 73.807 31.2112C73.1435 31.4624 72.5001 31.7136 71.9924 32.4672C72.4247 32.4321 72.7112 32.4371 72.9851 32.3868C76.1181 31.8011 79.1194 30.6548 81.8448 29.0032C83.2373 28.1768 84.6524 27.2624 84.3181 25.3282C83.9964 23.4593 82.433 22.9242 80.8646 22.4746C80.7842 22.452 80.6988 22.4394 80.6133 22.4219C77.4371 21.6509 74.1471 21.4645 70.9041 21.8717C69.6776 22.025 68.4058 21.8793 67.2396 22.6304H67.2547Z" fill="#A18E71"/>
<path d="M92.474 87.7533C92.5344 87.4469 92.5847 87.1052 93.0119 87.4318C93.2997 87.6442 93.5226 87.9325 93.6558 88.2643C93.7889 88.5962 93.8271 88.9585 93.766 89.3108C93.7169 89.9779 93.5809 90.6357 93.3613 91.2676C92.6802 92.8903 92.7531 94.4905 93.3136 96.1057C93.5499 96.7889 93.2332 96.9647 92.6224 97.0878C91.2551 97.3591 89.8727 97.339 88.4979 97.3164C86.2032 97.2762 83.8456 97.4671 81.6288 97.0099C78.7233 96.4096 75.7801 96.0051 72.8897 95.3093C70.5648 94.7466 68.1695 94.4653 65.812 94.0257C64.0777 93.7042 62.321 93.4379 60.6345 92.933C59.697 92.6542 58.7544 92.732 57.837 92.619C53.0113 92.0136 48.3942 90.6898 43.8651 88.9968C43.1899 88.7025 42.5336 88.3669 41.8997 87.992C41.8997 87.3841 41.7137 86.7536 42.151 86.1155C43.6591 86.7812 45.1193 87.7709 47.1903 87.3087C45.9462 86.4572 44.765 86.2663 43.7269 85.7488C41.8545 84.8169 41.1481 82.0888 42.3319 80.2651C43.8098 80.6871 45.3279 81.0036 46.758 81.5537C49.118 82.4606 51.6415 82.6741 54.0468 83.3699C55.6227 83.8246 57.4122 83.7794 59.0937 84.0205C62.2706 84.4777 65.5707 84.116 68.6446 85.0781C71.4093 85.9447 74.2419 86.3165 77.0268 86.9922C79.1657 87.5097 81.3749 87.7458 83.5616 88.0497C83.9361 88.1 84.2427 88.321 84.6147 88.3009C84.6147 89.1374 84.5493 89.9764 84.6147 90.8129C84.685 91.7273 84.2754 92.1568 83.4258 92.2071C79.3642 92.4407 75.3151 92.5009 71.3892 91.1696C71.0448 91.0515 70.693 90.7124 70.419 91.2023C70.1677 91.6394 70.399 92.0287 70.7483 92.3C71.3716 92.8011 72.1059 93.1456 72.8897 93.3048C76.5241 93.9931 80.1509 94.3899 83.74 93.0385C83.8534 92.9714 83.9853 92.9423 84.1164 92.9554C84.2475 92.9686 84.371 93.0232 84.4689 93.1113C84.5192 93.2136 84.554 93.3229 84.572 93.4354C84.5921 94.0182 84.5946 94.6035 84.6021 95.1938C84.6197 96.6156 84.9213 97.03 86.3615 97.0074C88.4426 96.9748 90.6066 97.5099 92.645 96.2363C92.6173 95.7665 92.6726 95.2089 92.5369 94.6989C92.1775 93.3324 92.5947 92.0664 92.9968 90.8179C93.3789 89.6474 93.3789 88.6426 92.474 87.7533ZM54.9115 85.7035C54.1575 85.0429 45.8633 83.4428 45.059 83.812C45.8758 85.4071 52.5363 86.6907 54.924 85.7035H54.9115Z" fill="#F1BE84"/>
<path d="M37.9687 103.825C38.205 103.898 38.494 103.908 38.6674 104.054C42.2992 107.148 46.6876 108.402 51.2343 109.346C57.8772 110.725 64.5981 110.884 71.3239 110.57C75.6729 110.355 79.9642 109.482 84.0518 107.982C86.1178 107.229 88.3747 107.01 90.1542 105.528C90.6801 105.12 91.162 104.657 91.5919 104.149C92.18 105.33 91.7653 106.314 90.9636 107.201C89.1388 109.226 86.7109 110.261 84.2453 111.22C81.4079 112.357 78.4305 113.108 75.3931 113.453C70.13 113.976 64.8217 114.652 59.4858 113.956C58.2719 113.8 57.0303 113.564 55.761 113.823C55.1478 113.948 54.527 113.501 53.8961 113.355C51.0308 112.702 48.055 112.428 45.3103 111.371C42.895 110.444 40.4243 109.53 38.675 107.379C37.7626 106.257 37.8908 105.071 37.9687 103.825Z" fill="#A18E71"/>
<path d="M91.9112 31.7664C92.6928 32.8892 92.5344 33.7759 91.3179 34.7054C89.5585 36.0543 87.4851 36.7527 85.3663 37.235C81.1868 38.2043 76.9321 38.8144 72.6485 39.0586C66.3453 39.4284 60.0239 39.3595 53.7302 38.8526C49.9953 38.5387 46.3811 37.7348 42.7895 36.7828C41.2563 36.3733 39.7734 35.7027 38.3232 35.0546C37.2801 34.5899 36.8151 33.6554 36.8377 32.52C36.8604 31.3846 37.2877 30.538 38.4187 30.0708C39.9267 29.4428 41.1834 28.3124 42.6487 27.6317C45.0088 26.5164 47.5222 25.7176 49.9853 24.8233C50.5056 24.6349 51.1691 24.866 51.4933 24.2707C51.9508 24.4063 51.9684 24.7731 52.2197 25.0243C51.2445 25.7402 50.3799 26.4285 49.3293 26.8982C46.3334 28.2346 43.3726 29.6463 40.4068 31.048C39.2155 31.6082 39.0872 32.4999 39.9594 33.5323C40.5655 34.2675 41.4171 34.759 42.3571 34.9164C44.8404 35.3686 47.3135 35.886 49.8043 36.303C51.6014 36.6019 53.416 36.8054 55.2282 37.0089C60.7803 37.6495 66.36 37.5716 71.907 37.1772C74.9935 36.9586 78.1176 36.6924 81.1588 35.8609C82.4633 35.5042 83.9035 35.5142 85.2783 35.3937C86.7411 35.2655 87.8671 34.414 89.1992 34.0523C89.3807 33.9979 89.5466 33.9012 89.6834 33.7702C89.8201 33.6392 89.9238 33.4776 89.9859 33.2987C90.7977 33.0023 91.7026 32.8214 91.9112 31.7664Z" fill="#A18E71"/>
<path d="M92.723 107.6C93.1452 109.783 92.3836 111.318 90.7725 112.345C88.2591 113.948 85.615 115.224 82.7297 115.925C80.8346 116.387 78.9043 116.729 76.9891 117.106C73.105 117.865 69.161 118.277 65.2038 118.337C59.5246 118.442 53.8541 117.846 48.3214 116.561C45.0614 115.823 41.9839 114.436 39.2732 112.481C37.9361 111.504 36.7749 110.311 36.5612 108.502C36.5356 108.371 36.5453 108.235 36.5894 108.109C36.6336 107.983 36.7106 107.87 36.8126 107.784C37.2122 108.12 37.7199 108.389 38.0014 108.811C38.8132 110.024 40.1378 110.467 41.2939 111.17C43.3298 112.406 45.612 112.991 47.8489 113.717C53.5669 115.573 59.4808 115.88 65.4199 115.918C66.5082 115.918 67.5991 116.309 68.6371 116.129C71.4144 115.626 74.2596 115.566 76.979 114.707C77.8738 114.423 78.8465 114.39 79.784 114.257C83.5089 113.73 86.8039 112.124 89.9758 110.21C91.0213 109.575 91.7779 108.613 92.723 107.6Z" fill="#A18E71"/>
<path d="M75.8154 85.0001C74.2068 85.4021 73.0356 84.0833 71.5627 83.915C70.9545 83.8447 70.3663 83.5784 69.6349 83.3599C70.4417 82.8575 71.065 82.3802 71.9748 82.1265C73.5077 81.7356 74.9362 81.0136 76.1597 80.0114C77.1651 79.1523 78.4921 78.8081 79.6583 78.2856C82.4482 77.0297 84.7655 75.0729 87.3945 73.5958C89.1388 72.6161 90.5212 70.9934 92.0644 69.6571L92.4163 69.4059L92.3911 69.4284L92.6626 69.1521L92.64 69.1723C92.9315 69.0919 93.1301 68.7452 93.5573 68.8984C93.5925 69.1371 93.6278 69.4008 93.6655 69.6671C93.4141 69.7374 93.1628 69.8229 93.389 70.1695C93.3613 70.4433 93.3337 70.7171 93.3086 70.9934L93.4367 74.7363V74.6936L93.1728 75.2336L93.1929 75.216C92.8837 75.2512 92.8461 75.4447 92.9114 75.6984C91.8759 78.2304 89.9456 79.9511 87.6785 81.3226C86.643 81.9481 85.889 82.9956 84.6624 83.3171V76.8111C81.9605 78.7152 79.2386 79.8808 76.5291 81.5261C78.2307 82.4355 79.9498 81.4809 81.5106 82.2144C81.2241 82.9404 80.626 83.1212 80.0479 83.3196C78.6102 83.812 76.9037 83.6311 75.8154 85.0001Z" fill="#CF9E68"/>
<path d="M53.9764 12.1253C57.9652 12.0148 59.3048 14.4614 60.7374 16.7097C61.2652 17.5386 61.7177 18.3751 62.3963 19.1212C63.1326 19.9482 63.727 20.8912 64.1557 21.912C64.7036 23.2006 63.9872 24.4516 62.6803 24.9891C61.4236 25.4915 60.1669 25.8407 58.7996 25.7427C57.754 25.6623 56.7512 25.5292 56.0349 24.6475C55.3814 23.8563 54.3283 23.7507 53.5215 23.1855C51.5108 21.7939 49.5428 20.3395 47.4541 19.0534C46.293 18.3374 44.9157 17.8878 44.0411 16.7147C43.6842 16.2349 43.5384 15.8029 44.0209 15.406C44.5613 14.9613 45.1217 14.4514 45.7626 14.2328C48.6555 13.2331 51.5334 12.0349 53.9764 12.1253ZM53.6195 19.7115C54.8511 19.7265 56.2435 19.6185 57.5832 19.0031C58.6162 18.5308 58.9479 17.6918 58.684 16.7624C58.3246 15.5064 57.5228 14.3811 56.2133 14.0118C53.5542 13.2582 51.0207 14.0294 48.5575 15.004C47.9267 15.2552 47.7306 15.7802 48.0549 16.4484C48.5493 17.4863 49.3439 18.352 50.3359 18.9338C51.328 19.5155 52.4718 19.7864 53.6195 19.7115ZM58.312 20.5505C58.1625 20.523 58.0115 20.5054 57.8597 20.4977C57.5775 20.5038 57.3019 20.5847 57.0612 20.7321C56.8205 20.8795 56.6233 21.0881 56.4898 21.3367C56.1304 21.9396 56.7236 22.1983 56.9925 22.5927C57.7641 23.7055 59.0384 23.4744 60.1016 23.8211C60.9235 24.0899 61.2376 23.6754 61.5468 23.1026C61.9188 22.4169 61.7453 21.608 61.2099 21.3442C60.3327 20.8795 59.4154 20.2892 58.312 20.5505Z" fill="#A18E71"/>
<path d="M92.4741 87.7533C93.3764 88.6425 93.384 89.6473 93.012 90.7978C92.6099 92.0538 92.1926 93.3097 92.552 94.6788C92.6877 95.1812 92.6325 95.7464 92.6601 96.2161C90.6218 97.4721 88.4578 96.9547 86.3767 96.9873C84.9264 97.0099 84.6173 96.5954 84.6173 95.1736C84.6173 94.5883 84.6173 94.003 84.5871 93.4152C84.5691 93.3027 84.5343 93.1935 84.484 93.0912C84.3861 93.0031 84.2627 92.9484 84.1316 92.9353C84.0004 92.9222 83.8686 92.9513 83.7552 93.0184C80.166 94.3698 76.5392 93.9729 72.9049 93.2847C72.121 93.1255 71.3867 92.781 70.7635 92.2799C70.4141 92.0086 70.1879 91.6192 70.4342 91.1821C70.7082 90.6797 71.06 91.0314 71.4043 91.1495C75.3302 92.4808 79.3793 92.4205 83.441 92.1869C84.2905 92.1367 84.6977 91.7071 84.6298 90.7927C84.5645 89.9613 84.6298 89.1223 84.6298 88.2808C86.6405 88.2808 88.6261 88.2808 90.6243 88.2456C91.2677 88.2557 91.9538 88.2783 92.4741 87.7533Z" fill="#CF9E68"/>
<path d="M42.3269 80.2576C41.1431 82.0813 41.8494 84.8093 43.7219 85.7412C44.7599 86.2587 45.9412 86.4496 47.1853 87.3012C45.1143 87.7634 43.6666 86.7736 42.146 86.108C41.7162 86.746 41.8947 87.3765 41.8947 87.9844C41.8143 88.0275 41.7222 88.044 41.6318 88.0313C41.5414 88.0187 41.4574 87.9776 41.392 87.9141C41.0326 87.3011 40.4695 87.0726 39.7883 87.0676L39.8437 87.0173C39.8437 87.0173 39.8914 87.07 39.8914 87.0725L39.2657 86.7761C38.7203 86.5475 38.2276 86.2285 37.6169 86.0954C36.9156 85.9447 36.5185 85.4172 36.7422 84.6008C36.883 84.0808 36.8402 83.4729 37.1015 83.0333C38.1069 81.3352 37.3529 80.1546 36.0962 79.0644C36.149 78.3108 35.6262 77.5722 35.9906 76.7734L36.5838 76.9493C37.1543 77.9014 38.1296 78.2807 39.0721 78.7077C40.1579 79.2151 41.2386 79.7426 42.3269 80.2576Z" fill="#CF9E68"/>
<path d="M75.8153 85.0001C76.9036 83.6311 78.6102 83.812 80.0478 83.3171C80.6259 83.1186 81.2241 82.9378 81.5106 82.2119C79.9498 81.4784 78.2307 82.4329 76.5291 81.5236C79.2385 79.8782 81.9605 78.7127 84.6624 76.8086V83.3146C83.2323 84.5027 81.3799 84.9574 79.9071 86.0351C79.3742 86.4244 79.1531 85.9723 78.8364 85.9346C77.7959 85.804 76.7352 85.5854 75.8153 85.0001Z" fill="#F1BE84"/>
<path d="M57.5028 27.4232C57.6033 28.9304 58.5083 29.4328 59.9233 29.5157C64.3921 29.7995 68.6623 28.9253 72.827 27.4282C74.0385 26.9936 75.0488 26.1722 76.0642 25.1901C76.5292 26.2928 75.8833 26.7349 75.3102 27.1996C73.0909 28.9731 70.5021 29.8824 67.7525 30.3848C64.8772 30.9073 62.0069 31.5956 59.0486 30.9927C57.8322 30.7415 56.6407 30.3773 56.0199 29.2092C55.6304 28.4807 55.1503 27.589 56.2713 26.9686C56.4376 26.944 56.6073 26.9536 56.7698 26.9968C56.9323 27.04 57.0842 27.1159 57.2164 27.2198L57.4828 27.471L57.5028 27.4232Z" fill="#645E4C"/>
<path d="M91.6195 101.803C90.4709 101.263 89.262 101.742 88.0883 101.604C87.7166 101.582 87.3439 101.582 86.9722 101.604C84.5317 101.604 84.5318 101.604 84.6248 99.1325H91.6371C91.7879 100.037 92.0518 100.903 91.6195 101.803Z" fill="#A18E71"/>
<path d="M79.1154 50.5961C79.7412 51.9928 80.7315 53.1885 81.2542 54.6907L91.5994 50.5283L91.6673 51.5784C91.0263 52.558 89.8677 52.558 88.9402 52.97C86.844 53.9045 84.7329 54.8414 82.3703 54.8866C82.2446 54.8866 82.0737 54.8665 82.0034 54.9368C80.6134 56.3184 80.4752 54.8113 80.1811 54.0753C79.7262 52.9373 78.6907 52.1636 78.3664 50.9679L79.1154 50.5961Z" fill="#645E4C"/>
<path d="M41.5127 32.618C42.6086 31.4776 45.9665 29.8222 47.8214 29.5358C47.291 30.7918 46.831 31.9623 46.8436 33.2535C46.8436 33.5801 46.5721 33.7207 46.2429 33.771C45.5618 33.874 42.3371 33.1229 41.5127 32.618Z" fill="#645E4C"/>
<path d="M91.3858 59.7976C89.3751 61.8071 84.4514 63.6459 82.0863 63.1887C83.1168 62.4678 84.268 62.2116 85.3236 61.8122C87.3997 61.0259 89.2923 59.8704 91.3557 59.0665C91.3683 59.3102 91.3682 59.5539 91.3858 59.7976Z" fill="#645E4C"/>
<path d="M91.9111 31.7665C91.7025 32.8215 90.7976 33.0024 89.9858 33.3013C89.4468 32.1112 88.5356 31.1282 87.3894 30.5004C88.0077 29.4353 88.8271 29.1867 89.5258 30.0232C90.2245 30.8596 91.5793 30.5783 91.9111 31.7665Z" fill="#645E4C"/>
<path d="M41.382 90.1372C41.6007 90.5894 42.1359 90.9711 41.6785 91.6042C40.5274 91.5263 39.5597 90.8305 38.4262 90.6396C38.4011 90.2226 38.381 89.8558 38.3609 89.4866V89.5217C38.3936 89.4413 38.4238 89.3635 38.4539 89.2705C39.0471 88.537 39.6477 89.0822 40.1956 89.3107C40.6229 89.5042 40.9849 89.8584 41.382 90.1372Z" fill="#A18E71"/>
<path d="M87.289 32.5954C85.6227 33.4268 83.9663 33.9544 82.134 34.0021C83.3656 33.2887 84.5746 32.53 85.8388 31.8769C86.4144 31.578 86.9648 31.784 87.289 32.5954Z" fill="#645E4C"/>
<path d="M93.6654 69.6621C93.6277 69.3958 93.5925 69.132 93.5573 68.8934C93.13 68.7402 92.9315 69.0868 92.64 69.1672C92.8737 68.0469 94.1027 67.3737 93.972 66.0724C94.7512 67.3737 94.4722 68.5442 93.6654 69.6621ZM93.7559 68.1549L93.7961 68.2377L93.8388 68.1549H93.7559Z" fill="#F1BE84"/>
<path d="M36.5763 76.9493L35.9831 76.7734C35.6187 77.5723 36.1415 78.3083 36.0887 79.0644C35.1562 78.1274 35.4729 77.0548 35.7268 75.9521C36.4004 76.0199 36.5763 76.4143 36.5763 76.9493Z" fill="#F1BE84"/>
<path d="M93.4342 74.7337L93.306 70.9909C93.7232 72.2243 94.236 73.4576 93.4342 74.7337Z" fill="#F1BE84"/>
<path d="M39.7859 87.0675C40.4671 87.0675 41.03 87.3011 41.3895 87.914C40.8767 87.5875 39.987 87.9819 39.7859 87.0675Z" fill="#F1BE84"/>
<path d="M92.9165 75.6958C92.8511 75.4446 92.8887 75.2487 93.1979 75.2135C93.1275 75.3868 93.193 75.6431 92.9165 75.6958Z" fill="#F1BE84"/>
<path d="M39.2632 86.7761L39.8891 87.0725C39.4995 87.3589 39.3687 87.0951 39.2632 86.7761Z" fill="#F1BE84"/>
<path d="M91.8332 84.1837V80.4158L90.7751 81.2322L84.8887 85.1861L84.0995 85.5075L84.1271 85.4925L83.6244 85.7437C83.4284 85.8693 83.1745 85.9271 83.0841 86.2838C83.5616 86.5073 84.0744 86.4747 84.5796 86.4671H85.1802L86.1203 86.4873H86.4093C87.7389 86.3541 89.1011 86.766 90.4081 86.2561H90.7902C91.1546 86.5952 91.2525 86.2561 91.3958 86.02C91.529 85.4071 92.0644 84.9047 91.8332 84.1837Z" fill="#645E4C"/>
<path d="M93.3789 70.167C93.1603 69.8279 93.394 69.7425 93.6554 69.6646C93.57 69.8329 93.4795 70.0012 93.3789 70.167Z" fill="#F1BE84"/>
<path d="M93.1779 75.2311L93.4418 74.691C93.4091 74.897 93.4443 75.1381 93.1779 75.2311Z" fill="#F1BE84"/>
<path d="M92.6625 69.1471L92.3911 69.4234C92.3911 69.2426 92.4765 69.1446 92.6625 69.1471Z" fill="#F1BE84"/>
<path d="M57.4928 27.4508L57.2263 27.1996C57.362 27.2348 57.5204 27.2449 57.4928 27.4508Z" fill="#A18E71"/>
<path d="M105.511 50.0034C104.438 50.9278 103.277 51.3724 101.844 50.8675C100.411 50.3626 99.4563 49.3603 99.3306 47.8883C99.21 46.5243 99.5819 45.0447 100.934 44.462C102.819 43.6531 102.945 42.5328 102.442 40.7543C101.841 38.6693 102.681 37.0818 104.516 35.9991C105.979 35.1375 107.476 35.3536 109.115 36.7025C109.892 37.3405 110.56 37.4762 111.226 36.5492C112.29 35.0647 113.813 34.6426 115.534 34.8888C117.545 35.1752 118.89 36.3106 119.483 38.2674C119.652 38.7848 119.754 39.3217 119.787 39.865C119.845 41.3948 119.558 42.7438 118.028 43.5928C116.68 44.3464 116.706 44.4846 117.598 45.7732C119.624 48.7097 118.289 53.4447 115.022 54.859C113.287 55.6437 111.324 55.7662 109.505 55.2032C108.755 54.9927 108.068 54.602 107.503 54.0652C106.939 53.5284 106.515 52.8618 106.267 52.1235C106.031 51.4628 106.011 50.7243 105.511 50.0034Z" fill="#B79533"/>
<path d="M17.6907 65.9293C16.615 64.2839 15.9063 62.6637 16.4567 60.7697C17.0072 58.8756 20.0006 57.3258 21.8454 58.0543C22.2224 58.2025 22.7352 58.4336 22.8508 58.7476C23.4163 60.3175 24.4568 59.9483 25.6532 59.6795C27.7695 59.2022 29.6218 60.0286 30.2577 61.5484C31.0268 63.3771 30.323 65.663 28.546 66.8361C27.792 67.3385 27.4276 67.7404 28.1414 68.5945C29.7902 70.5362 29.2348 73.0432 26.925 74.3419C25.0324 75.4069 23.0317 75.1909 21.5689 73.6033C20.8752 72.8498 20.3399 73.0758 19.6035 73.42C17.2233 74.5303 14.7501 73.3647 14.5516 70.9984C14.4932 70.3286 14.5949 69.6545 14.8483 69.0318C15.1018 68.409 15.4997 67.8552 16.0093 67.4163C16.5321 66.929 17.0724 66.4718 17.6907 65.9293Z" fill="#B79533"/>
<path d="M103.231 63.2616C101.902 63.2616 100.69 61.9528 100.7 60.5235C100.7 59.162 101.889 57.9085 103.191 57.8759C104.616 57.8407 105.956 59.0415 105.976 60.3552C105.986 61.7644 104.576 63.2591 103.231 63.2616Z" fill="#B79533"/>
<path d="M27.8951 87.7633C26.4273 87.7633 25.324 86.9017 25.3265 85.7537C25.3265 84.7062 26.6611 83.4728 27.7619 83.4929C28.9407 83.5231 29.8179 84.4776 29.8103 85.7236C29.7902 86.8967 28.9859 87.7633 27.8951 87.7633Z" fill="#B79533"/>
<path d="M59.9307 70.2373C62.9041 70.0263 66.0659 71.1366 68.9312 73.1085C70.4141 74.1258 71.1354 75.6858 71.3038 77.4517C71.3868 78.3058 71.1304 79.2603 70.2985 79.5768C69.3811 79.9235 68.4085 79.6346 67.7148 78.8383C66.5587 77.4756 65.2148 76.2839 63.7234 75.2989C61.3633 73.7792 57.0278 74.156 54.8311 75.9395C53.7553 76.8086 52.7248 77.8963 51.0459 77.7556C49.8369 77.6577 49.3946 77.3713 49.4524 76.1404C49.5404 74.2012 50.5207 72.7543 52.1946 71.963C54.4365 70.9004 56.8217 70.167 59.9307 70.2373Z" fill="#1D2831"/>
<path d="M67.5112 65.1456C66.2545 64.1885 65.488 62.8848 64.6937 61.5459C62.957 58.5993 63.2108 54.1004 65.4477 51.5984L66.7044 50.9604C67.0789 50.8298 67.4408 50.772 67.8329 51.2367C66.8878 52.4174 66.3047 53.8416 65.513 55.5071C71.0425 55.286 76.3734 56.125 81.8752 55.7985C81.9833 57.9663 81.8752 59.8704 80.8699 61.6966C79.1884 64.7587 76.6952 66.394 73.1764 66.4091C71.6809 66.4091 70.1729 66.4995 68.8735 65.5424C68.5342 65.2912 68.1571 65.3792 67.7851 65.3993L67.5112 65.1456ZM65.2969 57.1901C65.229 60.1643 66.5939 62.3121 68.9866 63.6459C71.9097 65.2762 74.9056 65.4043 77.5497 62.9249C78.927 61.6363 79.9776 60.1467 79.8695 58.112C78.4762 57.8972 77.0665 57.8072 75.6572 57.8432C75.3455 59.5865 74.3778 60.8249 72.5154 60.7697C70.4796 60.7069 69.6174 59.2625 69.3912 57.4263L65.2969 57.1901Z" fill="#1D2831"/>
<path d="M56.1404 51.0735C58.6387 53.8366 58.7066 57.6875 56.8442 60.9581C55.5398 63.249 53.6899 64.51 51.3776 65.3063C49.9098 65.8087 48.3891 65.6379 46.8936 65.2485C46.4161 65.1229 45.9662 64.8516 45.4409 64.9396L44.6593 64.3945C41.9398 61.9378 40.9998 58.833 41.4296 55.276C41.5301 54.4295 42.1308 53.9899 43.0482 54.1356C46.6901 54.7108 50.3672 54.8892 54.0418 55.1027C54.6475 55.1379 55.2859 55.2283 55.9394 54.9143C55.6994 53.821 55.2978 52.7695 54.748 51.7944C54.4489 51.2141 54.4464 50.767 55.1652 50.5384C55.5423 50.599 55.8868 50.7881 56.1404 51.0735ZM42.8722 56.2456C43.1638 58.5415 43.5534 60.7345 45.4736 62.1638C49.3517 65.0501 54.4816 63.2666 55.7785 58.421C55.9293 57.8558 56.4772 56.949 55.3487 56.8987C54.5947 56.8661 53.3908 56.1627 53.1068 57.8206C52.873 59.1796 51.7169 59.9684 50.4577 59.9809C48.9069 59.9985 48.1302 59.4584 47.6376 57.9713C47.4817 57.5066 47.3864 57.0193 47.2506 56.4642L42.8722 56.2456Z" fill="#1D2831"/>
<path d="M79.1155 50.5962L78.3615 50.9679C76.6398 50.988 74.9332 51.7667 73.1839 50.9679C72.4776 50.6414 71.6608 50.5434 70.8842 50.3776C69.1575 50.0059 68.0139 48.785 66.8853 47.5843C66.6766 47.3437 66.5404 47.0491 66.4924 46.7343C66.4443 46.4196 66.4864 46.0977 66.6139 45.8059C66.9356 44.9518 67.7299 44.7508 68.2326 45.5094C70.9973 49.6944 75.0891 49.2649 79.2136 48.6972C79.8972 48.6042 80.533 48.4736 81.091 49.0086C81.36 49.2598 81.4957 49.5838 81.272 49.9054C80.8397 50.5283 80.1787 50.6037 79.4825 50.5686C79.3596 50.5681 79.2369 50.5773 79.1155 50.5962Z" fill="#1D2831"/>
<path d="M47.6479 50.8097C46.63 50.6791 45.328 50.7469 44.0965 50.3073C43.5159 50.1013 42.8398 49.9255 43.0007 49.074C43.1615 48.2224 43.8452 48.5716 44.3252 48.559C46.0846 48.5439 47.8063 48.8228 49.5732 48.6896C51.3401 48.5565 52.3756 47.5643 52.9411 46.0546C53.2603 45.2055 53.7328 44.8212 54.5069 45.1804C55.281 45.5396 54.9317 46.2053 54.7105 46.8132C53.5468 50.0411 50.9731 50.8424 47.6479 50.8097Z" fill="#1D2831"/>
<path d="M67.5111 65.1455L67.7876 65.3967C69.1398 67.0019 70.977 67.5997 72.9651 67.8936C75.099 68.2076 76.9163 67.6424 78.4218 65.5047C78.4645 66.8235 78.203 67.665 77.5722 68.1674C75.9535 69.4586 74.1992 70.3553 71.9648 69.8127C70.4065 69.4334 68.8684 69.0868 67.5991 68.0543C67.2051 67.749 66.8652 67.3796 66.5937 66.9617C65.9503 65.9142 66.2795 65.3113 67.5111 65.1455Z" fill="#645E4C"/>
<path d="M44.6594 64.3945L45.441 64.9395C45.3706 66.4643 46.5017 67.5018 48.3566 67.2129C49.9274 66.9617 51.6114 66.9466 52.9963 65.9267C53.3607 65.6554 53.8206 65.5048 53.989 65.025C54.1875 64.4548 54.5495 64.3342 55.0572 64.6356C55.5649 64.937 55.5072 65.4344 55.2357 65.8263C54.5697 66.7884 53.8333 67.7278 52.7073 68.1749C50.7109 68.9825 48.5069 69.1235 46.4238 68.5769C44.486 68.0745 43.8652 66.5422 44.6594 64.3945Z" fill="#645E4C"/>
<path d="M66.6993 50.9604L65.4426 51.5984C64.5403 51.4603 64.4951 50.7871 64.5152 50.0913C64.5303 49.5889 64.4649 48.9207 65.0179 48.7951C65.3657 48.7123 65.7287 48.7184 66.0735 48.8128C66.4184 48.9071 66.7337 49.0868 66.9908 49.3351C67.5764 49.9255 67.1442 50.4907 66.6993 50.9604Z" fill="#645E4C"/>
<path d="M56.1405 51.0735C55.8861 50.7899 55.5417 50.6027 55.1653 50.5434C54.7029 49.5035 55.5926 49.1844 56.1933 48.8905C56.3168 48.8303 56.4533 48.8015 56.5906 48.8067C56.728 48.8119 56.8618 48.8509 56.9804 48.9202C57.099 48.9895 57.1987 49.0871 57.2705 49.2042C57.3424 49.3213 57.3841 49.4543 57.3921 49.5914C57.5128 50.4907 57.0177 50.968 56.1405 51.0735Z" fill="#645E4C"/>
<path d="M54.2329 103.966C54.4968 103.8 54.4968 103.639 54.2329 103.478C54.7205 101.614 54.3083 99.7103 54.4214 97.8414L54.6728 97.2812L54.7481 96.5502L54.7306 96.5804C56.0677 95.4223 57.4073 96.2438 58.752 96.5804L58.7345 96.5628L59.5036 98.3211C59.4583 99.3058 59.599 100.331 58.8726 101.165C58.6213 101.464 58.8726 101.768 59.0259 101.946C59.7297 102.818 59.8378 103.822 59.7976 104.875C59.7775 105.126 59.7599 105.362 59.7398 105.606V105.588C59.4885 105.679 59.4885 105.9 59.4885 106.111L59.5086 106.091L59.2195 106.342C59.1441 106.422 59.0662 106.503 58.9933 106.593L58.7419 106.859C56.8343 107.834 55.4947 107.671 54.4994 106.339C54.2782 105.556 54.5798 104.727 54.2329 103.966ZM57.4853 100.085C57.8974 99.5822 58.0935 99.0622 57.5129 98.5347C57.3925 98.3845 57.2194 98.286 57.0287 98.2594C56.8381 98.2328 56.6444 98.28 56.4875 98.3915C56.4222 99.1451 56.2361 99.8987 56.5075 100.652C56.8443 100.627 57.0807 100.577 57.2264 100.333L57.4853 100.085ZM57.5003 103.044C57.0806 102.594 56.5528 102.27 56.2914 103.066C56.0928 103.669 56.1934 104.383 56.2185 105.043C56.2386 105.573 56.764 105.694 57.1108 105.797C57.5683 105.93 57.7416 105.428 57.8371 105.098C58.0482 104.383 58.1312 103.644 57.5003 103.044Z" fill="#774525"/>
<path d="M67.5488 98.688C68.7301 97.0451 71.0676 97.2109 72.1307 99.0472C72.9647 100.402 73.3646 101.98 73.2769 103.569C73.1085 106.138 71.6105 107.839 69.1072 108.291C68.519 108.394 68.1521 108.143 67.9234 107.628C67.848 105.228 67.7708 102.829 67.692 100.429C67.7328 100.315 67.7475 100.193 67.7349 100.073C67.7223 99.9521 67.6826 99.8361 67.6191 99.7329C67.6443 99.3737 67.7625 99.0195 67.5488 98.688ZM70.0094 105.392C70.4769 105.807 70.4845 105.814 70.8011 105.46C71.1645 105.023 71.3801 104.482 71.417 103.915C71.6909 102.833 71.7211 101.745 71.1505 100.763C70.8741 100.286 70.6479 99.5219 69.7833 99.8233C69.7113 99.8145 69.6382 99.8233 69.5705 99.8491C69.5027 99.8749 69.4423 99.9169 69.3945 99.9714C69.3467 100.026 69.3128 100.091 69.2961 100.162C69.2793 100.232 69.28 100.306 69.2981 100.376C69.5193 102.041 69.3484 103.765 70.0195 105.365L70.0094 105.392Z" fill="#774525"/>
<path d="M49.1432 104.558C49.0566 104.694 48.981 104.836 48.917 104.983C48.7386 105.515 48.3439 105.872 47.8262 105.762C47.2229 105.631 47.2004 105.096 47.3512 104.561C47.3787 104.4 47.3896 104.237 47.3839 104.074C47.3688 103.662 47.6353 103.262 47.4442 102.84V102.855C47.8439 102.265 47.9469 101.587 47.9947 100.901C48.6833 99.6249 48.4973 98.1528 48.8969 96.8114C49.3242 95.4022 49.651 95.2365 51.0107 95.7062C51.1869 95.752 51.345 95.8503 51.4639 95.9881C51.5829 96.1258 51.6571 96.2965 51.6767 96.4774C51.9281 97.6882 52.2271 98.8964 52.5061 100.107C52.6896 102.011 53.0817 103.9 52.9963 105.829C52.9963 106.013 52.9963 106.194 52.9963 106.377L52.9133 106.849L52.9385 106.837L52.4735 107.173C51.7194 107.229 51.4556 106.739 51.3299 106.108C51.2043 105.478 51.2997 104.789 50.9654 104.124C50.3672 104.332 49.5906 103.621 49.1432 104.558ZM49.5931 102.124C50.0154 102.004 50.4653 102.252 50.9001 101.923L50.322 98.8813C50.1737 99.9941 49.1708 100.886 49.5956 102.124H49.5931Z" fill="#774525"/>
<path d="M60.7049 105.124L60.7553 104.455C61.2579 102.948 61.4314 101.391 61.7028 99.8434C61.7879 99.1001 62.0825 98.3962 62.5523 97.8137C63.158 97.0425 64.1181 97.1556 64.563 98.0298C64.8646 98.6201 65.0958 99.2456 65.3597 99.8535C65.7066 101.85 66.0685 103.845 66.3927 105.845C66.4938 106.383 66.405 106.939 66.1414 107.419C65.9906 107.691 65.8901 107.887 65.5156 107.869C65.1411 107.852 64.8722 107.741 64.7767 107.349C64.7088 107.068 64.6183 106.787 64.5781 106.5C64.4499 105.561 63.7612 105.641 63.0826 105.621C62.3286 105.598 62.3285 106.123 62.2883 106.626C62.2556 106.998 62.2506 107.379 62.2305 107.749C61.6675 108.042 61.1071 108.361 60.4888 107.867C60.1822 106.92 60.9563 106.061 60.7049 105.124ZM63.3792 100.64C62.929 101.329 62.713 102.144 62.7634 102.966C62.7628 103.06 62.7843 103.154 62.8261 103.238C62.8679 103.323 62.929 103.397 63.0044 103.454C63.0798 103.511 63.1674 103.55 63.2604 103.567C63.3534 103.584 63.4491 103.58 63.54 103.554C63.8944 103.491 64.2413 103.222 64.0076 102.87C63.5778 102.217 63.907 101.413 63.3817 100.64H63.3792Z" fill="#774525"/>
<path d="M79.8946 104.31C79.955 104.963 80.0454 105.616 80.0655 106.269C80.078 106.676 80.0328 107.098 79.5352 107.274C78.9973 107.465 78.6857 107.188 78.4142 106.794C78.2961 106.322 78.286 105.814 77.9693 105.402H76.3105C76.1597 106.156 76.014 106.882 75.8682 107.605C74.7346 107.94 74.1088 107.425 74.3727 106.261C74.5133 105.624 74.565 104.969 74.5261 104.317C74.655 102.709 74.9557 101.119 75.4233 99.5746C75.7852 98.7481 76.3809 98.4693 77.3033 98.5171C78.1629 98.5623 78.2886 99.0973 78.4921 99.6977C78.5989 99.9211 78.7331 100.13 78.8917 100.321C79.2738 101.639 79.8494 102.908 79.8946 104.31ZM77.6326 102.3C77.4843 101.888 77.4918 101.406 77.1148 101.084C76.4412 101.75 76.4412 101.75 76.2954 103.056C75.8631 103.893 76.3331 104.141 77.0067 103.93C77.7607 103.694 78.1805 103.139 77.6225 102.303L77.6326 102.3Z" fill="#774525"/>
<path d="M47.7809 96.5628L47.7181 96.5327L47.6653 96.5728C47.331 96.6557 47.0143 96.3216 46.6725 96.5276H46.6851C46.2377 96.0252 45.6144 96.0554 44.9383 95.9248V98.5448C44.9785 98.9643 45.2398 99.12 45.6269 99.0798C46.2477 99.017 46.7932 99.2381 46.8007 99.8635C46.8007 100.391 46.2729 100.662 45.7451 100.763C45.4937 100.811 45.2599 100.851 44.888 100.916C44.888 101.758 44.888 102.584 44.888 103.41C44.888 104.026 44.4582 104.395 44.061 104.719C43.7318 104.99 43.664 104.403 43.3926 104.347L43.1412 104.32L43.1614 104.34C43.0105 100.645 43.101 96.9572 43.189 93.036L47.4013 94.4075L47.9241 94.8069C47.9166 95.3947 48.0901 96.0001 47.7809 96.5628Z" fill="#774525"/>
<path d="M67.2397 22.6304C68.3984 21.8768 69.6701 22.025 70.8942 21.8768C74.1372 21.4696 77.4272 21.656 80.6034 22.4269C80.6838 22.4445 80.7692 22.4571 80.8547 22.4797C82.4231 22.9293 83.9864 23.4644 84.3082 25.3333C84.6424 27.2675 83.2273 28.1818 81.8349 29.0083C79.1095 30.6599 76.1081 31.8061 72.9752 32.3919C72.7012 32.4421 72.4148 32.4371 71.9825 32.4723C72.4852 31.7187 73.1335 31.4675 73.7971 31.2163C76.1421 30.3271 78.5148 29.4906 80.616 28.0688C80.9343 27.8703 81.2345 27.6442 81.5132 27.3931C82.7171 26.2175 82.594 24.8987 81.096 24.1476C79.3969 23.2985 77.5345 23.2282 75.6495 23.0675C72.8521 22.8263 70.0245 23.2232 67.2397 22.6304Z" fill="#645E4C"/>
<path d="M54.9241 85.7035C52.5489 86.6907 45.8985 85.4121 45.0716 83.812C45.8758 83.4478 54.1701 85.0429 54.9241 85.7035Z" fill="#CF9E68"/>
<path d="M53.6196 19.7115C52.4712 19.7867 51.3266 19.5157 50.3341 18.9335C49.3415 18.3512 48.5467 17.4847 48.0525 16.4459C47.7308 15.7777 47.9268 15.2502 48.5552 15.0015C51.0183 14.0269 53.5518 13.2607 56.211 14.0093C57.5204 14.3785 58.3222 15.5014 58.6816 16.7599C58.9455 17.6893 58.6137 18.5182 57.5807 19.0005C56.2436 19.6185 54.8512 19.7265 53.6196 19.7115ZM50.2793 16.3379C51.247 18.6891 55.3991 18.463 56.877 17.4381C57.3797 17.094 57.3797 16.6845 56.9801 16.3002C55.4796 14.8407 51.7597 14.8709 50.2793 16.3278V16.3379Z" fill="#1D2831"/>
<path d="M58.3122 20.5505C59.4156 20.2993 60.3229 20.8795 61.2076 21.3241C61.743 21.5979 61.9164 22.4068 61.5444 23.0825C61.2352 23.6552 60.9211 24.0697 60.0992 23.8009C59.036 23.4543 57.7618 23.6854 56.9902 22.5726C56.7238 22.1883 56.1306 21.9295 56.4875 21.3166C56.6211 21.068 56.8181 20.8593 57.0588 20.7119C57.2995 20.5645 57.5751 20.4837 57.8573 20.4776C58.0104 20.4918 58.1623 20.5161 58.3122 20.5505Z" fill="#1D2831"/>
<path d="M93.7559 68.1498H93.8383L93.7958 68.2323L93.7559 68.1498Z" fill="#CF9E68"/>
<path d="M65.2968 57.1901L69.3911 57.4262C69.6173 59.265 70.4795 60.7068 72.5153 60.7696C74.3777 60.8249 75.3454 59.5865 75.657 57.8432C77.0664 57.8072 78.4761 57.8972 79.8694 58.112C79.9775 60.1467 78.9269 61.6287 77.5496 62.9249C74.9055 65.3967 71.9096 65.2762 68.9865 63.6459C66.5938 62.312 65.2289 60.1642 65.2968 57.1901Z" fill="#F1BE84"/>
<path d="M42.8723 56.2456L47.2532 56.4591C47.3965 57.0269 47.4844 57.5142 47.6403 57.9663C48.1429 59.4459 48.897 59.9759 50.4603 59.9759C51.717 59.9634 52.8756 59.1746 53.1093 57.8156C53.3934 56.1577 54.5923 56.8611 55.3514 56.8937C56.4799 56.944 55.932 57.8508 55.7812 58.416C54.4817 63.2616 49.3519 65.0451 45.4763 62.1588C43.5535 60.7345 43.1639 58.5415 42.8723 56.2456Z" fill="#F1BE84"/>
<path d="M69.7832 99.8233C70.6528 99.5219 70.874 100.286 71.1504 100.763C71.721 101.745 71.6908 102.833 71.4169 103.915C70.6101 104.086 70.8639 105.264 70.0094 105.392V105.365C70.2557 103.493 69.6902 101.677 69.7832 99.8233Z" fill="#CF9E68"/>
<path d="M67.6921 100.419C67.667 100.188 67.6443 99.9565 67.6192 99.7228C67.6827 99.826 67.7223 99.942 67.7349 100.062C67.7475 100.183 67.7328 100.305 67.6921 100.419Z" fill="#CF9E68"/>
<path d="M76.2878 103.059C76.4336 101.752 76.4335 101.752 77.1071 101.087C77.4841 101.408 77.4766 101.891 77.6249 102.303C77.263 102.526 77.5219 103.016 77.2303 103.255C76.8584 103.388 76.5844 103.167 76.2878 103.059Z" fill="#CF9E68"/>
<path d="M88.0784 101.604C87.7067 101.582 87.3341 101.582 86.9624 101.604C84.5219 101.604 84.5219 101.604 84.6148 99.1325C79.2261 98.5397 73.8651 97.8087 68.6121 96.3869C65.5181 95.5479 62.2431 95.6936 59.1416 94.8094C58.6264 94.6637 58.2167 94.2567 57.6336 94.307C55.5374 94.4678 53.5921 93.5283 51.5261 93.4479C49.8321 93.3801 48.3643 92.4205 46.6552 92.2799C45.5052 92.1684 44.3991 91.7815 43.4305 91.152C42.767 90.7149 42.1587 90.308 41.3846 90.1472C41.6032 90.5994 42.1386 90.9811 41.6812 91.6142C40.53 91.5363 39.5624 90.8405 38.4289 90.6496C38.4037 90.2326 38.3836 89.8658 38.3635 89.4966C37.9186 89.7955 37.9161 90.2501 37.9186 90.7199L37.9714 103.835C38.2076 103.908 38.4967 103.918 38.6701 104.064C42.302 107.158 46.6904 108.412 51.2371 109.356C57.88 110.735 64.6007 110.894 71.3265 110.58C75.6755 110.365 79.9669 109.492 84.0544 107.992C86.1204 107.239 88.3775 107.02 90.1569 105.538C90.6828 105.13 91.1646 104.667 91.5945 104.159L91.6096 101.813C90.461 101.263 89.2521 101.735 88.0784 101.604ZM74.2949 102.436C74.2949 102.536 74.2949 102.637 74.2949 102.74C74.2773 102.637 74.2773 102.536 74.2949 102.436ZM54.5422 96.8164C54.5316 96.8447 54.5249 96.8743 54.522 96.9044C54.5242 96.8718 54.531 96.8396 54.5422 96.8089V96.8164ZM47.4142 102.594C47.4083 102.415 47.4175 102.236 47.4418 102.059C47.4182 102.232 47.409 102.407 47.4142 102.581V102.594ZM42.7117 103.621C42.7776 103.911 42.9386 104.17 43.1691 104.357C42.9362 104.167 42.775 103.903 42.7117 103.609V103.621ZM45.7453 100.78C45.494 100.828 45.2602 100.868 44.8882 100.934C44.8882 101.775 44.8882 102.602 44.8882 103.428C44.8882 104.043 44.4584 104.413 44.0613 104.737C43.732 105.008 43.6643 104.42 43.3928 104.365L43.1666 104.34C43.0183 100.655 43.1063 96.9747 43.1942 93.0611H43.2068L47.4066 94.4276L47.9294 94.827C47.9143 95.4148 48.0877 96.0202 47.7786 96.5854L47.7158 96.5552L47.663 96.5954C47.3287 96.6783 47.0146 96.3568 46.6753 96.5477C46.2279 96.0453 45.6095 96.0805 44.9359 95.9523V98.5723C44.9762 98.9918 45.2376 99.1476 45.6247 99.1074C46.2455 99.0446 46.7909 99.2656 46.7984 99.8911C46.8085 100.396 46.2731 100.667 45.7453 100.768V100.78ZM47.2157 96.8994C47.1731 96.8913 47.1316 96.8778 47.0925 96.8592C47.1322 96.8735 47.1736 96.8828 47.2157 96.8868V96.8994ZM51.3376 106.123C51.0435 105.571 50.8173 104.92 50.3322 104.616C50.8073 104.913 51.0335 105.563 51.3376 106.123C51.2245 105.483 51.3074 104.805 50.9731 104.139C50.3674 104.347 49.5907 103.636 49.1459 104.573C49.0593 104.709 48.9837 104.851 48.9197 104.998C48.7412 105.531 48.3467 105.887 47.8289 105.777C47.2257 105.646 47.203 105.111 47.3539 104.576C47.3813 104.415 47.3922 104.252 47.3865 104.089C47.3714 103.677 47.6379 103.28 47.4469 102.858C47.844 102.27 47.937 101.602 47.9923 100.916C48.6809 99.6399 48.4949 98.1679 48.8945 96.8265C49.3218 95.4173 49.6486 95.2515 51.0083 95.7213C51.1845 95.7671 51.3426 95.8654 51.4616 96.0031C51.5805 96.1409 51.6547 96.3115 51.6744 96.4924C51.9257 97.7032 52.2249 98.9115 52.5038 100.122C52.6873 102.026 53.0793 103.915 52.9939 105.845V106.392L52.911 106.864L52.4636 107.188C51.7171 107.229 51.4633 106.739 51.3376 106.111V106.123ZM52.7778 107.226C52.8833 107.173 52.9135 107.02 52.9437 106.859C52.9135 107.01 52.8833 107.161 52.7778 107.214V107.226ZM53.9616 104.903C53.9463 105.102 53.9641 105.302 54.0143 105.495C53.9627 105.298 53.9449 105.093 53.9616 104.89V104.903ZM58.9708 106.596L58.7195 106.862C56.8118 107.836 55.4721 107.673 54.4743 106.342C54.2732 105.568 54.5748 104.739 54.223 103.978C54.4869 103.812 54.4869 103.652 54.223 103.491C54.7106 101.627 54.2984 99.7228 54.4115 97.8539L54.6628 97.2938C54.6879 97.0576 54.7106 96.819 54.7357 96.5828C56.0628 95.4449 57.3948 96.2513 58.7219 96.5828C58.9732 97.1631 59.2246 97.7459 59.4759 98.3261C59.4307 99.3108 59.5715 100.336 58.8451 101.17C58.5938 101.469 58.8451 101.773 58.9984 101.951C59.7022 102.823 59.8102 103.827 59.77 104.88C59.7499 105.131 59.7323 105.357 59.7147 105.598C59.4634 105.689 59.476 105.905 59.4634 106.113C59.3729 106.191 59.2825 106.269 59.1945 106.349L58.9708 106.596ZM59.7248 105.616C59.6444 105.782 59.5614 105.95 59.4735 106.118C59.5539 105.937 59.6368 105.769 59.7172 105.603L59.7248 105.616ZM59.9309 105.365C59.9411 105.335 59.9479 105.305 59.951 105.274C59.9441 105.299 59.9349 105.322 59.9234 105.345L59.9309 105.365ZM60.137 106.304C60.0256 106.642 60.0354 107.008 60.1647 107.339C60.028 107.003 60.0155 106.629 60.1294 106.284L60.137 106.304ZM60.2249 107.472C60.2334 107.487 60.2411 107.502 60.2476 107.517C60.2397 107.495 60.2295 107.473 60.2174 107.452L60.2249 107.472ZM60.499 107.882C60.1898 106.94 60.9538 106.081 60.7151 105.144C60.7327 104.92 60.7478 104.699 60.7654 104.475C61.2681 102.968 61.4414 101.411 61.7128 99.8635C61.7979 99.1202 62.0926 98.4163 62.5624 97.8338C63.1682 97.0626 64.1283 97.1757 64.5731 98.0499C64.8748 98.6402 65.106 99.2657 65.3699 99.8761C65.7167 101.871 66.0786 103.865 66.4028 105.865C66.504 106.403 66.4151 106.959 66.1515 107.44C66.0007 107.711 65.9002 107.907 65.5257 107.889C65.1512 107.872 64.8823 107.761 64.7868 107.369C64.7189 107.088 64.6285 106.807 64.5882 106.52C64.4601 105.581 63.7713 105.661 63.0927 105.641C62.3387 105.618 62.3387 106.143 62.2985 106.646C62.2658 107.018 62.2608 107.399 62.2407 107.769C61.6701 108.037 61.1096 108.356 60.4913 107.862L60.499 107.882ZM73.2845 103.579C73.1161 106.148 71.6181 107.849 69.1148 108.301C68.5267 108.404 68.1597 108.153 67.931 107.638C67.8556 105.238 67.7785 102.839 67.6998 100.439C67.6747 100.208 67.652 99.9765 67.6269 99.7429C67.652 99.3938 67.7701 99.0396 67.5564 98.708C68.7377 97.0651 71.0753 97.2309 72.1385 99.0672C72.9621 100.415 73.3573 101.981 73.272 103.559L73.2845 103.579ZM79.5429 107.296C79.005 107.487 78.6934 107.211 78.4219 106.817C78.3038 106.344 78.2938 105.837 77.9771 105.425H76.3182C76.1674 106.179 76.0216 106.905 75.8758 107.628C74.7423 107.962 74.1165 107.447 74.3804 106.284C74.5211 105.646 74.5726 104.992 74.5337 104.34C74.6626 102.732 74.9633 101.142 75.4309 99.5972C75.7928 98.7708 76.3885 98.492 77.3109 98.5397C78.1705 98.5849 78.2962 99.1199 78.4998 99.7203C78.6074 99.9433 78.7417 100.152 78.8995 100.343C79.2815 101.66 79.8571 102.928 79.9048 104.33C79.9651 104.983 80.0555 105.636 80.0757 106.289C80.0782 106.676 80.033 107.098 79.5353 107.276L79.5429 107.296Z" fill="#CF9E68"/>
<path d="M57.5002 103.046C57.0805 102.599 56.5527 102.278 56.2938 103.071C56.0953 103.674 56.1958 104.388 56.2209 105.048C56.241 105.578 56.7663 105.699 57.1131 105.802C57.5706 105.935 57.744 105.433 57.8395 105.103C58.0482 104.385 58.1311 103.647 57.5002 103.046ZM57.0177 105.229C56.2938 104.895 56.515 104.27 56.515 103.742C56.5275 103.104 57.0704 103.142 57.4952 103.051C57.186 103.722 57.8471 104.616 57.0177 105.229Z" fill="#CF9E68"/>
<path d="M57.2264 100.328C56.4724 99.4867 56.5402 99.0446 57.4777 98.5698C57.4777 99.0722 57.4777 99.5746 57.4777 100.077C57.8899 99.5746 58.0859 99.0546 57.5053 98.5271C57.385 98.3769 57.2117 98.2784 57.0211 98.2518C56.8304 98.2252 56.6367 98.2724 56.4798 98.3839C56.4145 99.1375 56.2285 99.8911 56.5 100.645C56.8443 100.622 57.0806 100.572 57.2264 100.328Z" fill="#CF9E68"/>
<path d="M69.7833 99.8233C69.7114 99.8144 69.6383 99.8233 69.5705 99.8491C69.5028 99.8749 69.4424 99.9169 69.3945 99.9714C69.3467 100.026 69.3129 100.091 69.2961 100.162C69.2793 100.232 69.28 100.306 69.2982 100.376C69.5194 102.041 69.3485 103.765 70.0196 105.365C70.2558 103.493 69.6903 101.677 69.7833 99.8233Z" fill="#CF9E68"/>
<path d="M70.0044 105.392C70.4719 105.807 70.4794 105.814 70.7961 105.46C71.1595 105.023 71.3751 104.482 71.4119 103.915C70.6102 104.086 70.864 105.264 70.0044 105.392Z" fill="#CF9E68"/>
<path d="M49.5956 102.124C50.0178 102.004 50.4678 102.252 50.9026 101.923L50.3246 98.8813C50.1738 99.9941 49.1708 100.886 49.5956 102.124Z" fill="#CF9E68"/>
<path d="M63.5424 103.554C63.8968 103.491 64.2436 103.222 64.0099 102.87C63.5776 102.217 63.9068 101.413 63.3815 100.64C62.9313 101.329 62.7154 102.144 62.7658 102.966C62.7652 103.06 62.7867 103.154 62.8285 103.238C62.8704 103.323 62.9315 103.397 63.0068 103.454C63.0822 103.511 63.1699 103.55 63.2628 103.567C63.3558 103.584 63.4515 103.58 63.5424 103.554Z" fill="#CF9E68"/>
<path d="M77.2279 103.255C76.8584 103.388 76.5845 103.167 76.2854 103.059C75.8531 103.895 76.323 104.144 76.9965 103.933C77.7506 103.694 78.1804 103.139 77.6224 102.303C77.2605 102.526 77.5194 103.016 77.2279 103.255Z" fill="#CF9E68"/>
<path d="M57.5004 103.044C57.1787 103.717 57.8498 104.614 57.0178 105.229C56.294 104.895 56.5152 104.27 56.5152 103.742C56.5277 103.101 57.0731 103.142 57.5004 103.049V103.044Z" fill="#CF9E68"/>
<path d="M57.4726 100.075L57.2212 100.326C56.4672 99.4842 56.5351 99.0421 57.4726 98.5673V100.075Z" fill="#CF9E68"/>
</svg>
