<svg width="130" height="130" viewBox="0 0 130 130" fill="none" xmlns="http://www.w3.org/2000/svg">
<path d="M129.566 0.419312H0.880859V129.032H129.566V0.419312Z" fill="#D2BE93"/>
<path opacity="0.3" d="M65.1884 124.008C77.5523 124.008 87.5752 121.44 87.5752 118.271C87.5752 115.102 77.5523 112.534 65.1884 112.534C52.8246 112.534 42.8017 115.102 42.8017 118.271C42.8017 121.44 52.8246 124.008 65.1884 124.008Z" fill="#1D2831"/>
<path d="M45.7952 80.3001C44.6792 79.9534 43.7015 79.6545 42.7237 79.3455C41.8038 79.0516 41.4671 78.4437 41.6807 77.4892C42.1658 75.2284 43.6914 73.6734 45.2824 72.1763C45.8379 71.6563 46.4436 71.1917 47.0066 70.7219C46.9337 70.3979 46.7151 70.4406 46.5391 70.4305C44.5611 70.335 43.2339 69.3077 42.5478 67.5041C41.8616 65.7005 42.191 63.9873 43.5331 62.6258C44.365 61.7868 44.5385 61.0081 44.355 59.8777C43.6298 55.6569 43.3835 51.3678 43.621 47.0918C43.7592 44.6903 44.1238 42.319 45.0462 40.0583C46.9187 35.4086 50.5882 33.2483 55.3511 32.6052C55.6024 32.57 55.8713 32.5424 56.3564 32.4821C55.8364 31.0003 55.1783 29.5706 54.3909 28.2118C52.5567 24.8667 49.6946 22.2 46.2274 20.6055C45.6418 20.3317 45.1366 20.0353 45.2069 19.2692C45.2849 18.4503 45.9409 18.3498 46.5341 18.2493C50.7113 17.5309 54.5894 18.1965 58.0303 20.8065C58.1629 20.8742 58.3029 20.9264 58.4475 20.9622C57.9905 18.9271 57.0315 17.0385 55.6576 15.4685C54.3406 13.9262 52.893 12.5019 50.9426 11.7307C50.357 11.5021 49.5929 11.2735 49.6607 10.4597C49.7286 9.64577 50.4926 9.42224 51.1511 9.23887C55.8235 7.95776 59.8274 9.23887 63.2657 12.5044C63.9518 13.1575 64.5098 13.9413 65.2035 14.7526C65.5378 14.2327 65.3946 13.7026 65.3946 13.2128C65.4126 11.451 65.0926 9.70212 64.452 8.06071C64.2736 7.60855 64.1454 7.17905 64.5425 6.79221C64.7204 6.61261 64.9529 6.49711 65.2036 6.46392C65.4543 6.43073 65.7088 6.48167 65.9273 6.60878C66.4488 6.84709 66.9406 7.14554 67.3926 7.49803C71.4518 10.8867 73.7113 15.1797 73.8697 20.5126C73.8697 20.7638 73.8019 21.0476 74.0758 21.3641C74.8952 20.5301 75.6793 19.661 76.6193 18.9728C77.1553 18.5439 77.7205 18.1527 78.3108 17.8021C79.477 17.1767 80.2688 17.6765 80.0375 18.9828C79.6555 21.1606 79.3363 23.3561 78.6878 25.4838C77.8532 28.1702 76.682 30.7402 75.2018 33.1327C75.3928 33.5698 75.7749 33.605 76.0815 33.718C78.4317 34.5703 80.505 36.0466 82.0784 37.9884C83.8001 40.0959 84.5717 42.6129 84.8432 45.2731C84.9839 46.6296 85.2026 47.9961 84.906 49.3776C84.7879 49.9252 84.8456 50.4478 85.474 50.8472C86.228 51.3219 86.1853 52.1157 85.4539 52.5176C84.7226 52.9195 84.5918 53.5224 84.4812 54.1881C83.7926 58.3329 83.2975 62.5027 82.8099 66.6726C82.7034 67.813 82.5254 68.9456 82.277 70.0638C82.0483 71.0032 82.4228 71.4755 83.1718 71.9C85.4816 73.2063 87.4922 74.9144 89.3999 76.7356C90.6566 77.9313 90.4882 78.7753 88.9601 79.5364C87.9723 80.0262 86.9745 80.501 85.861 81.0436C86.7834 82.4101 87.7612 83.6711 88.5328 85.0451C89.9077 87.4893 90.8728 90.0817 91.104 92.9277C91.5012 97.8311 87.4018 100.737 83.5035 100.936C81.2414 101.051 81.2414 101.006 81.6084 103.272C81.9502 105.395 81.6084 105.972 79.5852 106.721C78.2955 107.216 76.9156 107.434 75.536 107.359C74.5306 107.296 74.028 107.648 73.6711 108.595C72.3943 111.943 70.6551 115.031 68.0914 117.583C65.1131 120.552 62.8132 120.384 60.1666 117.08C58.2942 114.752 57.0324 112.097 56.1452 109.293C55.8059 108.213 55.2354 107.801 54.1697 107.618C51.5734 107.173 48.9921 106.631 46.4159 106.073C44.5962 105.679 43.9955 104.752 44.37 102.915C44.9053 100.298 45.4885 97.688 46.0942 95.0856C46.2672 94.4987 46.2031 93.8674 45.9158 93.3272C45.393 92.3224 44.9657 91.2447 44.5435 90.1797C43.2868 87.0397 43.7568 84.0404 45.3503 81.1366C45.4961 80.9105 45.6192 80.6718 45.7952 80.3001ZM81.3043 57.9435L81.5405 57.6295C81.9662 57.2541 82.2604 56.7523 82.38 56.1977C82.7059 55.3504 82.8491 54.4439 82.7998 53.5375C81.1244 53.3239 79.423 53.5969 77.8987 54.3238C77.8987 54.5122 78.0594 54.8061 77.8659 55.0774C77.6724 55.3486 77.5392 55.5797 77.3632 55.8309C76.755 56.7579 75.2369 57.0567 74.41 56.4061C73.9752 56.062 73.945 55.4868 73.656 55.0572C73.1835 54.5925 72.6356 54.9517 72.1103 54.8538C72.0982 55.2069 72.2255 55.5506 72.4647 55.8108V55.738L72.5652 56.1952C73.2916 57.1271 73.5278 58.4434 74.7544 58.9859C74.7368 59.5838 75.257 59.2774 75.5084 59.418L75.5813 59.4431C76.2003 59.7099 76.8726 59.83 77.5457 59.7943C78.2189 59.7586 78.8747 59.5679 79.4619 59.2371L79.4293 59.2673C80.0554 59.1221 80.6174 58.7774 81.0304 58.2851L81.0153 58.3027C81.1837 58.1896 81.3621 58.0817 81.3018 57.8305L81.254 57.8832L81.3043 57.9435ZM45.2196 66.5219V66.5545L45.4709 64.9519L45.6594 64.7007L46.0615 64.4495C46.5918 63.9471 47.6927 63.8843 47.4313 62.7037C46.1922 62.4525 45.4382 63.1483 44.7244 63.9396C44.48 64.1255 44.3106 64.3929 44.2469 64.6932L44.2644 64.663C43.6989 65.5271 43.7316 66.3913 44.2644 67.2554L44.2469 67.2277L44.3424 67.4362L44.752 67.8859C44.9678 68.1765 45.281 68.3798 45.6343 68.4586L45.6117 68.4134C46.617 69.0288 47.557 68.7927 48.4568 68.1622L48.4266 68.1898C49.9573 67.1348 50.1533 66.0094 49.06 64.1933C48.3814 64.9041 48.776 65.7783 48.6252 66.5344L48.6026 66.4767L48.0999 67.1097V67.1876H48.1803C47.2705 67.7553 46.3656 67.2679 45.4583 67.1876L45.4911 67.2252C45.6393 66.9012 45.4106 66.7203 45.2196 66.5219ZM68.1039 98.1476C67.8149 98.6199 67.6868 99.0896 68.1492 99.5393C68.858 99.592 69.6899 99.9964 69.9991 98.8962C70.3811 98.6249 70.1549 98.3285 69.9991 97.8537C69.3984 98.3837 68.6946 97.3312 68.0864 98.1351L68.1039 98.1476ZM68.858 95.4774L69.2023 94.9951C69.3154 93.9752 68.8328 93.0734 68.1366 93.1613C67.2519 93.2744 66.9026 93.8848 67.0509 94.764C67.4932 96.0778 67.7621 96.1808 68.8705 95.4624L68.858 95.4774ZM69.7703 54.3765H69.7904C69.7326 54.0399 69.6849 53.7033 69.617 53.3717C69.4436 52.5202 69.1646 51.6837 69.2827 50.7919C69.3631 50.1865 69.6472 49.8022 70.3057 49.7871C70.9643 49.772 71.0874 50.2468 71.1502 50.7693C71.2055 51.2214 71.291 51.6686 71.3488 52.1182C71.35 52.2144 71.3723 52.3091 71.4141 52.3957C71.4559 52.4823 71.5162 52.5587 71.5907 52.6195C71.6652 52.6803 71.7521 52.7241 71.8453 52.7477C71.9386 52.7713 72.0359 52.7743 72.1304 52.7563C73.8898 52.6709 75.5812 52.1685 77.3582 52.0931C78.4691 52.0479 79.6405 51.5907 80.7991 51.4199C82.8903 51.0984 82.9731 51.1335 83.1541 49.0863C83.3728 46.5743 83.2547 44.0824 82.184 41.7287C82.0864 41.2272 81.8525 40.7622 81.5079 40.3848C81.2968 40.0256 81.1535 39.591 80.8594 39.3223C79.4419 38.0336 78.0595 36.657 76.3554 35.7728C75.2722 35.2101 74.0105 34.6098 72.8242 35.7929C72.0499 36.5727 71.1256 37.1875 70.1069 37.6003C69.0883 38.013 67.9965 38.2151 66.8976 38.1943C65.573 38.1943 64.2484 37.903 62.9239 37.8904C60.5236 37.8678 58.6938 36.966 57.5602 34.7957C57.4044 34.5018 57.241 34.1702 56.8062 34.2129C54.7704 34.4088 52.6869 34.547 50.8898 35.5894C47.2529 37.6995 46.1395 41.2766 45.6242 45.1475L45.4935 45.7127C44.7395 50.7693 45.5412 55.738 46.1595 60.8096C47.2302 60.5584 48.0848 60.576 48.9243 60.9553C49.2786 61.1136 49.5476 61.2895 49.5351 61.6713C49.5175 62.3319 49.8492 62.7087 50.3795 63.0378C50.8887 63.3883 51.2475 63.9173 51.3849 64.5198C51.9303 66.439 51.3673 68.0366 49.9397 69.3805C49.2208 70.0487 49.0048 71.7141 49.7487 72.0759C50.7968 72.5783 51.5307 73.6006 52.7145 73.8468C52.9834 73.9021 53.2775 73.9247 53.4157 74.1759C54.0315 75.2887 55.3686 75.4319 56.2332 76.3437C57.319 77.4892 58.925 78.1498 60.0937 79.3455C61.8833 81.1767 63.6628 83.0029 65.1205 85.123C65.3719 85.5023 65.6459 85.7134 66.1586 85.53C67.9608 84.8844 69.7603 85.01 71.5272 85.6857C72.1908 85.9369 72.6154 85.7159 73.1583 85.3014C74.7091 84.1132 75.6291 82.4603 76.6017 80.8577C77.2024 79.8705 78.0042 78.9687 78.2631 77.7881C78.4867 77.0948 78.713 76.404 78.9367 75.7107C79.9144 74.2788 79.9219 72.5607 80.3165 70.958C80.9222 68.4913 81.1434 65.9567 81.3822 63.4397C81.4903 62.3118 81.9276 61.2216 81.8849 60.0184C79.3715 61.3196 76.9108 62.1435 74.1738 60.8549C73.9903 61.6437 73.8194 62.4198 73.6233 63.191C73.4575 63.8441 73.0453 64.1681 72.3541 64.0099C71.6629 63.8516 71.7735 63.2815 71.8313 62.8067C71.9444 61.9074 72.1178 61.0156 72.2661 60.1214C72.2812 59.8224 72.3742 59.4883 72.1707 59.2447C71.0849 57.9535 70.7381 56.3032 69.9966 54.8462C69.9639 54.6779 70.0217 54.4519 69.7729 54.3765H69.7703ZM64.6706 105.04C64.513 105.299 64.3809 105.573 64.2761 105.857C63.9242 107.13 63.145 107.753 61.7853 107.811C60.3803 107.871 58.9854 108.12 57.3391 108.022C58.3294 109.462 58.43 111.052 59.1161 112.433C59.2647 112.741 59.4326 113.039 59.6188 113.325C60.2798 114.33 61.0766 115.244 61.7502 116.249C62.9792 118.08 64.6808 118.314 66.3899 116.977C67.4107 116.177 68.2444 115.164 68.8328 114.008C69.5089 113.782 69.6874 113.147 69.994 112.614C70.8662 111.016 71.8313 109.459 72.4295 107.628C71.4794 107.392 70.738 106.977 70.2403 106.219C70.3182 104.711 70.0091 103.234 69.9086 101.674C68.4986 102.046 67.4354 101.33 66.3119 100.77C65.9224 101.579 65.5403 102.315 65.3769 103.139C65.0204 103.721 64.7814 104.367 64.6732 105.04H64.6706ZM51.8523 81.6992C50.7665 81.5435 49.7562 81.0285 48.6427 81.0009C47.7957 80.7899 47.3509 81.3576 46.9864 81.9404C45.8221 83.7195 45.3967 85.8818 45.8002 87.9691C46.2048 90.0641 47.0745 91.9883 48.0949 93.8773C49.1606 95.8442 50.656 97.4744 52.619 98.3988C56.7309 100.331 60.9735 100.466 65.1483 98.3988C65.3217 98.3317 65.473 98.2178 65.5855 98.0698C66.0882 97.1705 64.9623 93.8245 63.9594 93.3724C63.1681 92.9971 62.2945 92.8284 61.4203 92.882C60.5461 92.9356 59.6997 93.2097 58.9603 93.6788C57.807 94.3794 56.5607 94.9139 55.258 95.2664C53.8053 95.6608 52.9632 95.2036 52.6013 93.8044C52.443 93.1965 52.1313 93.0508 51.5683 92.9956C49.9095 92.8022 49.153 91.6517 49.437 89.9963C49.5803 89.1573 50.088 88.469 50.2615 87.6526C50.6209 87.1226 50.9853 86.6101 51.6489 86.3966C52.1339 86.2434 52.0258 85.9243 51.7845 85.6154C53.3729 85.9595 54.7226 84.9347 56.2608 84.897C55.6827 84.7538 55.1751 84.4976 54.5719 84.5729C53.9134 84.6558 53.5867 84.2539 53.6545 83.5882C53.687 83.1298 53.8126 82.6827 54.0239 82.2745C54.8559 80.7422 54.5266 79.9082 52.8678 79.1873C50.7867 78.2855 48.5573 77.9062 46.3756 77.3636C45.5211 77.1526 45.3427 76.8235 45.9057 76.1251C46.6337 75.2419 47.4359 74.4225 48.3035 73.6759C48.585 73.4248 48.9846 73.2138 48.7182 72.7465C48.4518 72.2793 48.0295 72.4577 47.6877 72.5581C47.3643 72.6645 47.0659 72.8354 46.8106 73.0605C45.555 74.1194 44.5105 75.4054 43.7317 76.8511C43.3295 77.6047 43.5331 77.8886 44.3524 78.1071C46.6145 78.6849 48.8162 79.4359 51.111 79.8655C52.4054 80.1217 52.6366 80.8276 51.8448 81.6992H51.8523ZM82.8099 87.419C82.7696 87.9641 82.3323 88.2605 82.0407 88.6524C82.3097 89.2728 82.6665 89.8681 82.8224 90.5112C82.9631 91.0965 83.1743 91.4557 83.78 91.619C84.245 91.7471 84.6094 92.0837 84.4938 92.6364C84.3656 93.2543 83.8402 93.189 83.3853 93.1388C81.7089 93.0105 80.0268 93.296 78.4868 93.9702C77.5794 94.3545 76.7148 94.8569 75.7849 95.1659C74.8549 95.4749 74.2768 96.0476 73.6334 96.7309C75.2822 97.806 77.0366 98.4064 78.8311 98.8535C81.5607 99.5343 84.2349 99.4764 86.8212 98.125C88.1282 97.4443 89.5306 95.5377 89.513 94.0481C89.4628 90.0867 88.1357 86.58 85.7178 83.4652C85.2151 82.812 84.7501 82.1112 83.9232 81.8022C83.0787 80.5462 83.1542 80.3603 84.539 79.7374C85.3383 79.3807 86.0923 78.9285 86.8589 78.504C87.4144 78.1976 87.5174 77.8082 87.0575 77.3159C85.7714 75.9705 84.3323 74.7801 82.7696 73.7689C82.4077 73.5177 81.9879 73.2188 81.5933 73.7137C81.5405 74.108 81.8221 74.2839 81.993 74.5275C82.6264 75.4344 83.6568 75.8488 84.4636 76.5371C85.1372 77.1124 85.1724 77.5771 84.3053 77.9664C83.4381 78.3558 82.4805 78.7476 81.6084 79.2098C80.8544 79.6118 80.6332 80.5889 81.1962 80.9858C82.5735 81.9554 82.7419 83.3019 82.2694 84.7161C81.9024 85.8063 82.0005 86.6453 82.8022 87.419H82.8099ZM66.7242 9.10573C67.4505 12.5949 67.3273 15.7449 66.9981 18.9024C66.9076 19.7615 66.4149 20.0228 65.676 19.5957C65.273 19.3629 64.9712 18.9886 64.8291 18.5457C64.0549 16.2296 62.6625 14.4587 60.7599 12.8687C59.091 11.477 57.2587 10.957 55.2782 10.6079C54.7931 10.5225 54.1245 10.3316 53.7701 10.9998C53.965 11.3358 54.235 11.6221 54.5593 11.8362C56.2026 13.1347 57.5966 14.7203 58.6737 16.516C60.0586 18.8522 60.5788 21.4596 61.2449 24.0218C61.3806 24.5368 61.5088 25.2527 60.6995 25.5817C59.8902 25.9108 59.4428 25.4109 59.096 24.8709C58.2917 23.6149 57.1757 22.806 55.9517 21.9796C53.9158 20.603 51.7217 19.97 49.3365 19.7941C49.1053 19.7765 48.7861 19.6334 48.6328 20.1685C49.3592 20.6709 50.2337 21.0552 50.9877 21.6003C53.3194 23.2821 55.1625 25.5523 56.3287 28.1791C57.2461 30.1887 58.2766 32.148 59.2644 34.1249C59.6992 34.9966 60.4507 35.8256 61.3379 35.7276C63.1727 35.5292 64.731 36.6394 66.616 36.3933C68.8781 36.0994 70.7782 35.4864 72.3616 33.8185C74.2014 31.8818 75.2746 29.5482 76.2674 27.114C77.1044 25.0693 77.8283 23.0321 77.7755 20.7386C77.5819 20.7788 77.3231 20.7537 77.2351 20.8642C76.0538 22.3362 74.2693 23.2732 73.465 25.0768C73.2137 25.6546 72.9624 26.2349 72.133 25.941C71.2734 25.632 71.2632 25.0316 71.5146 24.278C71.894 23.1595 72.0694 21.9819 72.0323 20.8014C71.9892 18.8108 71.5874 16.8444 70.8461 14.9963C69.9589 12.8109 68.5765 11.0224 66.7316 9.10573H66.7242ZM81.8974 91.4758C80.975 89.5366 79.57 88.5669 77.5668 88.371C76.5414 88.2705 75.604 88.6222 74.6363 88.7579C72.8518 88.989 71.2582 89.9385 69.6648 90.7674C69.4436 90.883 69.1621 90.9659 69.1445 91.3779C70.9039 91.9833 71.3086 93.4251 71.1552 95.1458C72.603 94.7389 73.8697 94.3269 75.0762 93.5984C76.2826 92.87 77.4865 91.9205 79.0297 91.8074C79.9672 91.7597 80.8996 91.6039 81.8974 91.4758ZM50.9626 90.6821C51.6136 91.4507 52.2193 91.4834 52.9306 90.6821C53.4756 90.1001 54.1437 89.647 54.8861 89.3557C55.4214 89.1322 55.914 89.2477 56.1428 89.7727C56.3464 90.2424 56.3087 90.6444 55.6602 90.9333C54.7303 91.3502 53.9486 92.0209 53.7852 93.1488C54.8132 93.9451 55.7231 93.4 56.55 92.9177C58.1837 91.9506 59.8751 91.2397 61.8003 91.3729C62.0064 90.1822 59.6237 87.8184 57.8794 87.2206C55.17 86.2936 51.8297 87.723 50.9626 90.6821ZM64.2509 90.3881C64.3364 91.1719 64.5601 91.8803 65.48 92.0034C66.038 92.0787 66.7643 91.0463 66.7744 90.2751C66.7869 89.3607 66.2164 89.102 65.4498 89.102C64.6204 89.1045 64.178 89.5064 64.2509 90.3881ZM71.8087 87.7883C70.2153 86.5323 67.6214 86.4443 66.2793 87.517C68.094 87.9465 69.8056 88.7579 71.8087 87.7883Z" fill="#1D2831"/>
<path d="M72.2611 60.1239C72.1128 61.0181 71.9394 61.9099 71.8263 62.8092C71.7685 63.284 71.6504 63.8516 72.3491 64.0124C73.0478 64.1732 73.4524 63.8466 73.6183 63.1935C73.8144 62.4223 73.9853 61.6462 74.1687 60.8574C76.9058 62.1461 79.3665 61.3221 81.8799 60.0209C81.9226 61.2241 81.4853 62.3143 81.3772 63.4422C81.1384 65.9542 80.9172 68.4938 80.3114 70.9606C79.9168 72.5632 79.9094 74.2814 78.9317 75.7132C77.5619 75.7132 76.192 75.7132 74.8222 75.7258C73.7892 75.7383 72.9573 76.1427 72.2158 77.0973C74.2567 78.19 76.3001 77.6399 78.248 77.7906C77.9966 78.9712 77.1873 79.873 76.5866 80.8602C75.614 82.4629 74.694 84.1258 73.1433 85.3039C72.6004 85.7184 72.1757 85.9419 71.5121 85.6882C69.7528 85.0125 67.9457 84.8869 66.1436 85.5325C65.6409 85.7159 65.3668 85.5049 65.1054 85.1255C63.6527 83.0054 61.8732 81.1792 60.0787 79.348C58.9099 78.1523 57.314 77.4917 56.2181 76.3462C55.3535 75.4319 54.0164 75.2912 53.4006 74.1783C53.2624 73.9272 52.9683 73.9046 52.6994 73.8493C51.5156 73.5981 50.7817 72.5933 49.7336 72.0784C48.9796 71.7166 49.2058 70.0512 49.9246 69.383C51.3522 68.0517 51.9152 66.4415 51.3698 64.5223C51.2325 63.9198 50.8736 63.3909 50.3644 63.0403C49.8341 62.7112 49.5024 62.3344 49.52 61.6738C49.5325 61.292 49.2686 61.1161 48.9092 60.9579C48.0672 60.5786 47.2126 60.566 46.1444 60.8121C45.5262 55.7405 44.7294 50.7643 45.4784 45.7152C45.672 46.1875 45.677 46.7627 46.3355 46.9511C47.3258 47.235 48.2808 47.6569 49.2812 47.873C50.0352 48.0337 50.9274 48.2674 51.5055 47.4585C51.4841 47.3306 51.4307 47.21 51.3503 47.1082C51.2699 47.0063 51.1651 46.9264 51.0456 46.8757C49.6029 45.9036 47.8636 45.6198 46.343 44.8385C45.8956 44.61 45.9233 45.2279 45.6091 45.15C46.1118 41.2791 47.2378 37.702 50.8747 35.592C52.6718 34.5495 54.7554 34.4113 56.7913 34.2154C57.2286 34.1727 57.392 34.5043 57.5453 34.7982C58.6788 36.9685 60.5085 37.8703 62.9088 37.8929C64.2334 37.9055 65.5579 38.1994 66.8825 38.1968C67.9814 38.2176 69.0732 38.0155 70.0918 37.6028C71.1105 37.19 72.0348 36.5752 72.8091 35.7954C73.9954 34.6123 75.2571 35.2126 76.3403 35.7753C78.0444 36.6595 79.4268 38.0361 80.8443 39.3247C81.1384 39.5935 81.2817 40.0281 81.4928 40.3873C78.914 39.694 75.521 40.317 74.762 41.6433C74.9409 41.8412 75.1615 41.9967 75.408 42.0988C75.6545 42.2009 75.9206 42.2469 76.1871 42.2336C77.8208 42.2537 79.4545 42.2336 81.0882 42.2487C81.2968 42.2696 81.5072 42.2339 81.6974 42.1455C81.8875 42.0571 82.0504 41.9192 82.1689 41.7463C83.2396 44.1 83.3577 46.5969 83.139 49.1039C82.958 51.1511 82.8752 51.1135 80.7841 51.4375C79.6254 51.6159 78.4542 52.0655 77.3432 52.1107C75.5663 52.1861 73.8697 52.6884 72.1153 52.7738C72.0208 52.7918 71.9235 52.7889 71.8302 52.7653C71.737 52.7417 71.6501 52.6979 71.5756 52.6371C71.5011 52.5763 71.4408 52.4998 71.399 52.4132C71.3572 52.3266 71.3349 52.2319 71.3337 52.1358C71.2759 51.6861 71.1904 51.239 71.1351 50.7869C71.0723 50.2644 70.9793 49.7821 70.2907 49.8047C69.602 49.8273 69.3481 50.2092 69.2676 50.8095C69.1495 51.7013 69.4285 52.5378 69.6019 53.3893C69.6698 53.7234 69.7175 54.06 69.7753 54.3941C69.7293 54.3358 69.6709 54.2885 69.6044 54.2554C69.5379 54.2224 69.4649 54.2046 69.3906 54.2031C69.3163 54.2017 69.2427 54.2167 69.175 54.2471C69.1072 54.2775 69.047 54.3226 68.9987 54.379C69.0565 53.6732 68.7851 53.0904 68.0613 53.0703C65.6082 53.0025 63.424 51.9951 61.172 51.224C59.483 50.6462 57.8217 49.9906 56.1327 49.4103C55.5747 49.2194 54.9665 49.1591 54.7202 49.9127C54.5367 50.4804 54.6825 51.0783 55.243 51.2189C56.3086 51.4852 57.0576 52.3695 58.2037 52.5051C59.0683 52.6081 59.8952 53.0502 60.7372 53.3415C60.4476 53.4496 60.1385 53.4959 59.8299 53.4772C57.2713 53.4973 54.7176 53.4446 52.1665 53.2587C51.5608 53.216 50.9677 53.3189 50.7189 53.9193C50.4474 54.5774 51.0758 54.9241 51.4729 55.1226C52.0082 55.3738 52.0107 55.7229 52.0761 56.1876C52.4279 58.6368 53.3956 60.7469 55.4893 62.2289C57.9247 63.9522 60.418 63.7813 62.9791 62.553C63.8914 62.1062 64.6577 61.4092 65.1884 60.5434C65.7269 59.6831 66.183 58.7739 66.5506 57.828C66.8648 57.622 67.3047 57.5768 67.4354 57.1397C68.0612 57.0442 68.6595 56.5645 69.2954 57.2829C70.0494 58.1445 71.11 58.7473 71.5574 59.8953C71.6982 60.2043 72.0098 60.1465 72.2611 60.1239ZM77.0768 68.9786C75.5688 67.7703 73.8094 67.1901 71.8891 66.9137C67.928 66.346 64.6003 67.5041 61.7677 70.2547C61.4966 70.5189 61.2902 70.8422 61.1645 71.1992C60.971 71.7242 61.245 72.0281 61.6094 72.2366C62.0141 72.4652 62.5293 72.4075 62.6977 71.9653C63.311 70.3652 64.9271 69.9809 66.1637 69.4333C69.1798 68.1019 72.3089 68.22 75.2721 69.8678C76.3403 70.4581 76.7677 70.2521 77.0818 68.9786H77.0768Z" fill="#D36022"/>
<path d="M66.7317 9.10571C68.5841 11.0223 69.9665 12.8109 70.8688 14.9938C71.6101 16.8418 72.012 18.8083 72.0551 20.7989C72.0922 21.9794 71.9168 23.157 71.5374 24.2755C71.286 25.0291 71.286 25.6295 72.1556 25.9385C72.975 26.2324 73.2288 25.652 73.4877 25.0743C74.2945 23.2707 76.079 22.3337 77.2578 20.8617C77.3457 20.7512 77.6046 20.7763 77.7981 20.7361C77.8409 23.0295 77.117 25.0668 76.2901 27.1115C75.2973 29.5431 74.2242 31.8843 72.3844 33.816C70.801 35.4839 68.9058 36.0968 66.6387 36.3907C64.7411 36.6419 63.1828 35.5266 61.3606 35.7251C60.4734 35.8231 59.7219 34.9941 59.287 34.1224C58.2993 32.1455 57.2764 30.1862 56.3515 28.1766C55.1852 25.5498 53.3422 23.2795 51.0105 21.5978C50.2565 21.0527 49.3818 20.6658 48.6555 20.1659C48.8088 19.6309 49.1279 19.7741 49.3592 19.7917C51.7444 19.975 53.9386 20.6005 55.9745 21.9771C57.1985 22.8035 58.3144 23.6224 59.1187 24.8683C59.4655 25.4084 59.9028 25.9133 60.7222 25.5792C61.5415 25.2451 61.4033 24.5342 61.2676 24.0193C60.6015 21.4571 60.0813 18.8497 58.6964 16.5135C57.6193 14.7178 56.2254 13.1321 54.582 11.8337C54.2578 11.6196 53.9876 11.3333 53.7928 10.9972C54.1522 10.3291 54.8208 10.5199 55.3008 10.6054C57.2814 10.9545 59.1137 11.4745 60.7826 12.8661C62.6852 14.4562 64.0776 16.2271 64.8517 18.5432C64.9939 18.9861 65.2958 19.3604 65.6988 19.5932C66.4377 20.0202 66.9303 19.759 67.0207 18.8999C67.3274 15.7423 67.4506 12.5948 66.7317 9.10571Z" fill="#C74727"/>
<path d="M83.9157 81.8073C84.7426 82.1162 85.2025 82.8121 85.7102 83.4702C88.1281 86.5851 89.4552 90.0917 89.5054 94.0531C89.523 95.5427 88.1206 97.4493 86.8136 98.1301C84.2273 99.4815 81.5531 99.5392 78.8235 98.8585C77.029 98.4114 75.2747 97.811 73.6259 96.7359C74.2769 96.0526 74.8826 95.4799 75.7774 95.1709C76.6722 94.862 77.572 94.3596 78.4793 93.9752C80.0193 93.301 81.7014 93.0155 83.3778 93.1438C83.8327 93.1814 84.3581 93.2467 84.4863 92.6414C84.6019 92.0887 84.2348 91.7522 83.7724 91.6241C83.1666 91.4608 82.9556 91.1015 82.8149 90.5162C82.6591 89.8732 82.3121 89.2779 82.0331 88.6574C82.3247 88.2655 82.762 87.9691 82.8022 87.4241C82.5961 86.4996 82.8651 85.6933 83.3049 84.8769C83.8227 83.9374 83.9383 82.8799 83.9157 81.8073Z" fill="#D36022"/>
<path d="M50.2414 87.6451C50.068 88.4615 49.5603 89.1523 49.417 89.9888C49.133 91.6441 49.8895 92.7946 51.5483 92.988C52.1113 93.0533 52.4231 93.189 52.5814 93.7969C52.9434 95.1961 53.7853 95.6533 55.238 95.2589C56.5407 94.9063 57.787 94.3718 58.9403 93.6713C59.6797 93.2022 60.526 92.9281 61.4003 92.8745C62.2745 92.8209 63.1481 92.9896 63.9394 93.3648C64.9448 93.817 66.0732 97.1629 65.5655 98.0622C65.453 98.2102 65.3017 98.3241 65.1283 98.3913C60.9535 100.449 56.7109 100.313 52.599 98.3913C50.6486 97.4769 49.1531 95.8467 48.0749 93.8697C47.0544 91.9908 46.1848 90.0566 45.7802 87.9616C45.3767 85.8743 45.8021 83.712 46.9664 81.9328C47.3309 81.3501 47.7758 80.7824 48.6228 80.9934C47.8688 81.6565 47.6551 83.6334 48.1704 84.4373C48.8666 85.5149 50.058 86.2585 50.2414 87.6451Z" fill="#D36022"/>
<path d="M70.2253 106.226C70.728 106.98 71.4644 107.399 72.4145 107.635C71.8163 109.467 70.8512 111.024 69.979 112.622C68.7223 111.906 67.3651 112.22 66.043 112.195C65.5227 112.195 64.6783 112.006 64.6858 112.8C64.6858 113.435 65.4575 113.528 66.0456 113.554C66.3125 113.572 66.5804 113.572 66.8473 113.554C67.5362 113.486 68.2283 113.645 68.8178 114.008C68.2294 115.164 67.3957 116.177 66.3749 116.977C64.6658 118.314 62.9642 118.08 61.7352 116.249C61.0616 115.244 60.2648 114.335 59.6038 113.325C59.4176 113.039 59.2497 112.741 59.1011 112.433C58.415 111.052 58.3144 109.462 57.3241 108.022C58.9704 108.12 60.3653 107.871 61.7703 107.811C63.13 107.753 63.9092 107.13 64.2611 105.857C64.3659 105.573 64.4981 105.299 64.6557 105.04C64.7286 105.543 65.0051 105.917 65.5304 105.937C66.3397 105.967 67.0886 106.261 67.8678 106.387C68.6469 106.513 69.4688 106.628 70.2253 106.226Z" fill="#D36022"/>
<path d="M81.8975 91.4758C80.8921 91.6014 79.9672 91.7597 79.0272 91.83C77.484 91.943 76.2976 92.8825 75.0736 93.6211C73.8496 94.3596 72.6004 94.7615 71.1527 95.1684C71.3085 93.4377 70.9165 91.9958 69.142 91.4005C69.1596 90.9885 69.4412 90.8981 69.6623 90.7901C71.2558 89.9486 72.8493 88.999 74.6338 88.7805C75.6014 88.6549 76.539 88.2932 77.5644 88.3936C79.5701 88.567 80.975 89.5366 81.8975 91.4758Z" fill="#D36022"/>
<path d="M50.9627 90.6821C51.8298 87.723 55.1627 86.2937 57.8922 87.2256C59.6365 87.8235 62.0192 90.1872 61.8131 91.3779C59.8879 91.2448 58.1963 91.9556 56.5626 92.9227C55.7256 93.4251 54.8158 93.9501 53.7979 93.1538C53.9612 92.026 54.7429 91.3553 55.6729 90.9383C56.3213 90.6494 56.359 90.2475 56.1554 89.7777C55.9242 89.2527 55.4316 89.1372 54.8987 89.3608C54.1563 89.652 53.4883 90.1051 52.9434 90.6871C52.212 91.4834 51.6137 91.4507 50.9627 90.6821Z" fill="#D36022"/>
<path d="M51.8447 81.6993C52.6365 80.8276 52.3952 80.1218 51.0907 79.8731C48.796 79.4335 46.5867 78.6824 44.3322 78.1147C43.5128 77.9037 43.3093 77.6123 43.7115 76.8587C44.4903 75.413 45.5348 74.127 46.7904 73.0681C47.0457 72.843 47.344 72.6721 47.6675 72.5657C48.0093 72.4653 48.4492 72.3145 48.698 72.7541C48.9468 73.1937 48.5648 73.4374 48.2833 73.6835C47.4156 74.4301 46.6134 75.2495 45.8855 76.1327C45.3225 76.8311 45.501 77.1602 46.3555 77.3712C48.5372 77.9138 50.7664 78.2931 52.8475 79.1949C54.5089 79.9158 54.8356 80.7497 54.0037 82.282C53.7924 82.6903 53.6668 83.1374 53.6343 83.5958C53.5665 84.2615 53.8856 84.6634 54.5517 84.5805C55.1549 84.5052 55.6625 84.7614 56.2406 84.9046C54.7024 84.9423 53.3528 85.9671 51.7644 85.6205C51.0581 84.9422 51.043 84.1736 51.3219 83.2743C51.4853 82.7367 51.885 82.2871 51.8447 81.6993Z" fill="#3E4136"/>
<path d="M83.9157 81.8072C83.9383 82.8723 83.8328 83.9298 83.315 84.8643C82.8651 85.6807 82.5962 86.4871 82.8123 87.4115C82.0105 86.6378 81.9125 85.7988 82.272 84.7237C82.7445 83.3094 82.5761 81.9605 81.1987 80.9934C80.6357 80.5965 80.8519 79.6193 81.611 79.2174C82.4831 78.7552 83.4055 78.3809 84.3078 77.974C85.2101 77.567 85.1397 77.1199 84.4661 76.5447C83.6593 75.8539 82.6288 75.4394 81.9955 74.5351C81.8246 74.2839 81.5431 74.1156 81.5959 73.7212C81.9905 73.2188 82.4101 73.5378 82.7721 73.7765C84.3348 74.7877 85.7739 75.978 87.0599 77.3233C87.5199 77.8257 87.4168 78.205 86.8614 78.5115C86.0948 78.936 85.3408 79.3882 84.5415 79.7449C83.1466 80.3729 83.0687 80.5512 83.9157 81.8072Z" fill="#3E4136"/>
<path d="M70.2253 106.226C69.4713 106.628 68.6495 106.52 67.8779 106.394C67.1063 106.269 66.3497 105.975 65.5403 105.945C65.0151 105.925 64.7386 105.56 64.6657 105.048C65.2991 104.563 65.2388 103.827 65.3544 103.154C65.5178 102.33 65.8999 101.594 66.2895 100.785C67.4129 101.345 68.476 102.061 69.886 101.689C69.9991 103.242 70.3033 104.716 70.2253 106.226Z" fill="#C74727"/>
<path d="M51.8449 81.6992C51.8851 82.287 51.4855 82.7367 51.3221 83.2617C51.0431 84.161 51.0708 84.9296 51.7645 85.6078C52.0159 85.9193 52.1139 86.2384 51.6288 86.3916C50.9653 86.6026 50.6008 87.115 50.2414 87.6476C50.0579 86.261 48.8666 85.5174 48.183 84.4473C47.6677 83.6435 47.8813 81.6666 48.6353 81.0034C49.7487 81.0285 50.7591 81.5561 51.8449 81.6992Z" fill="#C74727"/>
<path d="M82.1865 41.7312C82.068 41.9042 81.9051 42.0421 81.715 42.1305C81.5248 42.2189 81.3143 42.2545 81.1056 42.2336C79.4719 42.2336 77.8382 42.2336 76.2045 42.2185C75.9381 42.2319 75.672 42.1858 75.4255 42.0837C75.179 41.9816 74.9584 41.8261 74.7795 41.6283C75.5335 40.312 78.9315 39.689 81.5103 40.3723C81.8574 40.7538 82.0916 41.2243 82.1865 41.7312Z" fill="#C74727"/>
<path d="M67.4632 57.1446C67.3249 57.5742 66.8926 57.6269 66.5784 57.8329C66.5639 57.6813 66.5698 57.5283 66.596 57.3782C66.9303 56.386 66.5734 54.8663 68.4132 55.0044C68.7324 55.027 68.8278 54.6 69.0163 54.3714C69.0646 54.315 69.1248 54.2699 69.1926 54.2395C69.2603 54.2091 69.3341 54.1941 69.4083 54.1955C69.4826 54.197 69.5556 54.2148 69.6221 54.2478C69.6886 54.2809 69.747 54.3282 69.7931 54.3865H69.7729L69.9967 54.8587C70.7381 56.3157 71.0849 57.966 72.1707 59.2572C72.3743 59.5084 72.2813 59.8349 72.2662 60.1339C72.0023 60.1565 71.6981 60.2243 71.5775 59.9078C71.1401 58.7598 70.087 58.1494 69.3154 57.2953C68.6795 56.5769 68.0814 57.0442 67.4555 57.1522L67.4632 57.1446Z" fill="#C74727"/>
<path d="M78.263 77.7881C76.3051 77.6374 74.2617 78.1875 72.2309 77.0948C72.9723 76.1402 73.8043 75.7358 74.8373 75.7233C76.2071 75.7057 77.5769 75.7233 78.9467 75.7107C78.713 76.4065 78.4867 77.0973 78.263 77.7881Z" fill="#C74727"/>
<path d="M45.6193 45.1501C45.9335 45.2279 45.9058 44.61 46.3532 44.8386C47.8738 45.6198 49.6206 45.9036 51.0557 46.8757C51.1753 46.9264 51.2801 47.0063 51.3605 47.1082C51.4409 47.21 51.4943 47.3306 51.5157 47.4585C50.9376 48.2674 50.0529 48.0338 49.2913 47.873C48.286 47.657 47.336 47.235 46.3457 46.9511C45.6872 46.7627 45.6821 46.1975 45.4886 45.7152C45.5364 45.5269 45.5791 45.3385 45.6193 45.1501Z" fill="#C74727"/>
<path d="M44.7243 63.9471C45.4381 63.1558 46.1921 62.4575 47.4313 62.7112C47.6826 63.8918 46.5917 63.9521 46.0614 64.457C45.8779 64.4118 45.6744 64.3239 45.5287 64.4922C45.4181 64.6153 45.5538 64.6731 45.6594 64.7133L45.4709 64.9644C44.7168 65.3965 44.933 65.9693 45.2195 66.5671V66.5344L45.4834 67.2403L45.4507 67.2027C46.6094 68.1271 47.1649 68.1296 48.1727 67.2027H48.0922V67.1223C48.512 67.1223 48.6351 66.8711 48.5949 66.4917L48.6176 66.5495L49.251 65.4468C49.6004 66.635 48.791 67.3509 48.4191 68.21L48.4491 68.1823L45.604 68.4335L45.6266 68.4787C45.4406 68.122 45.315 67.6698 44.7445 67.906L44.3348 67.4564L44.2392 67.2479L44.2569 67.2755C44.2569 66.4113 44.2569 65.5473 44.2569 64.6831L44.2392 64.7133C44.3854 64.6459 44.509 64.5378 44.5951 64.4018C44.6812 64.2659 44.726 64.1079 44.7243 63.9471Z" fill="#EEAE1D"/>
<path d="M68.8178 114.016C68.2283 113.653 67.5362 113.493 66.8473 113.561C66.5804 113.58 66.3125 113.58 66.0456 113.561C65.4574 113.528 64.6908 113.435 64.6858 112.807C64.6858 112.014 65.5227 112.192 66.043 112.202C67.365 112.227 68.7323 111.913 69.979 112.629C69.6724 113.154 69.4964 113.79 68.8178 114.016Z" fill="#C74727"/>
<path d="M64.2509 90.3881C64.1781 89.5064 64.6204 89.1046 65.4498 89.1021C66.2164 89.1021 66.787 89.3532 66.7744 90.2751C66.7744 91.0463 66.038 92.0788 65.48 92.0034C64.5601 91.8803 64.3364 91.1719 64.2509 90.3881Z" fill="#B29674"/>
<path d="M71.8089 87.7883C69.7981 88.7579 68.0941 87.9465 66.2794 87.517C67.6216 86.4444 70.2154 86.5348 71.8089 87.7883Z" fill="#3E4136"/>
<path d="M67.0534 94.764C66.9051 93.8848 67.2545 93.2744 68.1392 93.1613C68.8355 93.0734 69.318 93.9752 69.2049 94.9951C69.1072 95.034 69.0229 95.1002 68.9619 95.1857C68.9008 95.2712 68.8657 95.3724 68.8606 95.4774L68.8731 95.4623C68.1417 95.5603 67.5988 95.1559 67.0534 94.764Z" fill="#DAA36E"/>
<path d="M48.4292 68.2024C48.8012 67.3484 49.6105 66.6324 49.2611 65.4393L48.6277 66.542C48.7785 65.7884 48.3764 64.9117 49.0625 64.2008C50.1559 66.022 49.9598 67.1474 48.4292 68.2024Z" fill="#EEAE1D"/>
<path d="M69.9992 98.8886C69.69 99.9889 68.8581 99.5845 68.1493 99.5317L68.104 98.1401V98.1275C68.7751 98.2807 69.6221 98.0019 69.9992 98.8886Z" fill="#DAA36E"/>
<path d="M48.1728 67.2001C47.1675 68.117 46.6095 68.1145 45.4508 67.2001C46.3581 67.2805 47.263 67.7678 48.1728 67.2001Z" fill="#EEAE1D"/>
<path d="M67.0533 94.764C67.5987 95.1559 68.1416 95.5603 68.873 95.4624C67.7646 96.1808 67.4856 96.0778 67.0533 94.764Z" fill="#E0B077"/>
<path d="M45.6192 68.4284L48.4643 68.1772C47.5595 68.8078 46.6246 69.0439 45.6192 68.4284Z" fill="#EEAE1D"/>
<path d="M44.2644 64.6781C44.2644 65.5422 44.2644 66.4063 44.2644 67.2704C43.7316 66.4063 43.6989 65.5422 44.2644 64.6781Z" fill="#EEAE1D"/>
<path d="M69.9991 98.8886C69.622 97.9944 68.7751 98.2732 68.0965 98.1351C68.7047 97.3312 69.4084 98.3862 70.0091 97.8537C70.1549 98.3284 70.3811 98.6374 69.9991 98.8886Z" fill="#E0B077"/>
<path d="M45.2246 66.5546C44.9331 65.9617 44.722 65.384 45.476 64.9519C45.388 65.4794 45.3076 66.0195 45.2246 66.5546Z" fill="#EEAE1D"/>
<path d="M65.3619 103.159C65.2463 103.832 65.3067 104.568 64.6733 105.053C64.7778 104.383 65.0116 103.74 65.3619 103.159Z" fill="#D36022"/>
<path d="M44.7545 67.9009C45.3251 67.6648 45.4507 68.117 45.6367 68.4737C45.2834 68.3948 44.9703 68.1915 44.7545 67.9009Z" fill="#EEAE1D"/>
<path d="M68.104 98.1476L68.1493 99.5393C67.6869 99.0896 67.815 98.6199 68.104 98.1476Z" fill="#E0B077"/>
<path d="M48.6051 66.4842C48.6353 66.8585 48.5121 67.1072 48.1025 67.1147L48.6051 66.4842Z" fill="#EEAE1D"/>
<path d="M45.6594 64.7259C45.5538 64.6857 45.408 64.6279 45.5287 64.5048C45.6745 64.3365 45.878 64.4244 46.0614 64.4696L45.6594 64.7259Z" fill="#EEAE1D"/>
<path d="M44.7245 63.9471C44.7244 64.105 44.6795 64.2596 44.595 64.3931C44.5105 64.5265 44.3898 64.6331 44.247 64.7007C44.3107 64.4004 44.4801 64.133 44.7245 63.9471Z" fill="#EEAE1D"/>
<path d="M45.4835 67.2378L45.2196 66.5319C45.4106 66.7203 45.6393 66.9012 45.4835 67.2378Z" fill="#EEAE1D"/>
<path d="M68.8605 95.4774C68.8656 95.3725 68.9007 95.2712 68.9618 95.1857C69.0228 95.1002 69.1071 95.034 69.2048 94.9951L68.8605 95.4774Z" fill="#E0B077"/>
<path d="M69.999 54.8487L69.7753 54.3765C70.0216 54.4519 69.9638 54.6779 69.999 54.8487Z" fill="#D36022"/>
<path d="M69.0163 54.3715C68.8277 54.6001 68.7323 55.0272 68.4131 55.0046C66.5733 54.8764 66.9302 56.3861 66.5959 57.3784C66.5697 57.5284 66.5638 57.6814 66.5783 57.833C66.2107 58.779 65.7546 59.6882 65.2161 60.5485C64.6854 61.4143 63.9191 62.1113 63.0068 62.5581C60.4457 63.7864 57.9523 63.9572 55.5168 62.234C53.4232 60.752 52.4555 58.6419 52.1036 56.1927C52.0383 55.728 52.0358 55.3813 51.5005 55.1276C51.0933 54.9342 50.4649 54.5825 50.7464 53.9244C50.9978 53.324 51.5885 53.2211 52.1942 53.2638C54.7453 53.4497 57.2988 53.5149 59.8575 53.4823C60.1661 53.5009 60.4751 53.4547 60.7648 53.3466C59.9228 53.0552 59.096 52.6132 58.2314 52.5102C57.0853 52.3745 56.3362 51.4903 55.2705 51.224C54.7101 51.0833 54.5643 50.4855 54.7477 49.9178C54.9991 49.1642 55.6023 49.222 56.1603 49.4154C57.8493 49.9957 59.5107 50.6513 61.1997 51.229C63.4618 52.0002 65.6358 53.0076 68.0888 53.0754C68.8026 53.0829 69.0741 53.6732 69.0163 54.3715ZM63.0922 60.1491C63.2053 60.1189 63.3108 60.0837 63.2832 59.9305C64.1706 58.8833 64.7976 57.6413 65.113 56.3057C65.1934 55.9616 65.5855 55.3411 64.7008 55.3562C64.2534 55.3562 63.8035 55.3864 63.3561 55.3713C62.3859 55.3411 61.5967 55.5597 61.4283 56.6901L61.4686 56.6398C61.3161 56.6494 61.1685 56.6978 61.04 56.7805C60.9116 56.8631 60.8065 56.9773 60.7347 57.1121C60.232 57.833 59.5358 57.9612 58.724 57.7778L58.8019 57.7978C58.2088 57.1096 57.3241 56.6449 57.2311 55.5697C56.6253 55.5697 56.1 55.5697 55.5772 55.5697C55.165 55.5697 54.7503 55.5697 54.3381 55.5898C53.7273 55.635 53.5589 55.9465 53.8505 56.4916L53.956 57.1673C54.0918 57.6697 54.1647 58.2023 54.5618 58.5942L54.5216 58.5389C54.6799 58.7901 54.8408 59.0413 55.0017 59.3075V59.2498H54.9438C55.0469 59.9682 55.4892 60.3425 56.1804 60.458C56.3212 61.0333 56.8917 60.8549 57.2436 61.0609C57.3642 61.3121 57.6206 61.2744 57.8292 61.3372L57.7588 61.3146C59.1989 61.9124 60.6089 61.9853 61.9586 61.0634H61.9788L62.2478 60.8373C62.2824 60.8444 62.3183 60.8398 62.3501 60.8244C62.3819 60.809 62.4078 60.7835 62.4236 60.7519L62.8937 60.3726H62.856L63.1199 60.1214L63.0922 60.1491Z" fill="#1D2831"/>
<path d="M77.0819 68.9786C76.7677 70.2572 76.3278 70.4581 75.2772 69.8678C72.3139 68.22 69.1822 68.1095 66.1686 69.4333C64.9321 69.9809 63.3161 70.3652 62.7028 71.9654C62.5344 72.4075 62.0191 72.4677 61.6145 72.2366C61.25 72.0281 60.9761 71.7342 61.1696 71.1992C61.2953 70.8422 61.5017 70.5189 61.7728 70.2547C64.6054 67.4915 67.9331 66.346 71.8942 66.9137C73.822 67.1901 75.5638 67.7703 77.0819 68.9786Z" fill="#1D2831"/>
<path d="M82.7999 53.5375C81.1245 53.3239 79.4231 53.5969 77.8988 54.3238C77.8988 54.5122 78.0595 54.8061 77.866 55.0774C77.6725 55.3487 77.5392 55.5798 77.3633 55.831C76.7551 56.7579 75.237 57.0568 74.4101 56.4062C73.9753 56.062 73.9451 55.4868 73.6561 55.0573C73.1835 54.5926 72.6356 54.9518 72.1103 54.8538C72.0982 55.2069 72.2256 55.5507 72.4648 55.8109C72.4648 55.8109 72.4648 55.7907 72.4648 55.7807L72.5552 56.1952C73.2816 57.1271 73.5178 58.4434 74.7444 58.986C74.7268 59.5838 75.2471 59.2774 75.4984 59.4181L75.5713 59.4432C76.1868 59.7084 76.8551 59.8286 77.5244 59.7946C78.1938 59.7607 78.8464 59.5734 79.4318 59.2472C79.4267 59.2533 79.4226 59.2601 79.4193 59.2673C80.0398 59.1227 80.5975 58.7828 81.0103 58.2977C81.1536 58.2022 81.3019 58.1093 81.3019 57.9259L81.5356 57.617C81.9613 57.2416 82.2555 56.7398 82.3751 56.1851C82.7011 55.3422 82.8458 54.4401 82.7999 53.5375Z" fill="#F3E8C3"/>
<path d="M64.7008 55.3461C64.2534 55.3461 63.8034 55.3763 63.3561 55.3612C62.3985 55.331 61.6244 55.5446 61.4384 56.6323C61.2918 56.6479 61.1513 56.6988 61.0287 56.7806C60.9062 56.8624 60.8053 56.9727 60.7347 57.102C60.232 57.8003 59.5785 57.9435 58.8069 57.7828C58.2138 57.097 57.3341 56.6297 57.2411 55.5596C56.6354 55.5596 56.11 55.5596 55.5873 55.5596C55.1751 55.5596 54.7603 55.5597 54.3481 55.5798C53.7374 55.625 53.569 55.9364 53.8605 56.4815L53.9661 57.1573C54.0968 57.6597 54.1721 58.162 54.5491 58.5589C54.6899 58.785 54.8333 59.0111 54.974 59.2397H54.9563C55.0594 59.9581 55.5017 60.3324 56.1929 60.4479C56.3337 61.0232 56.9042 60.8449 57.2561 61.0508C57.3717 61.302 57.613 61.2668 57.8191 61.3221C59.2417 61.9024 60.6366 61.9651 61.9712 61.0558H61.9914L62.2603 60.8298C62.2949 60.8368 62.3309 60.8323 62.3627 60.8169C62.3945 60.8014 62.4204 60.7759 62.4362 60.7443L62.9062 60.365H62.8711L63.1224 60.1264C63.2254 60.0988 63.3158 60.0561 63.2882 59.9154C64.1756 58.8683 64.8026 57.6262 65.118 56.2906C65.1934 55.9515 65.5855 55.331 64.7008 55.3461Z" fill="#F3E8C3"/>
</svg>
