<svg width="129" height="129" viewBox="0 0 129 129" fill="none" xmlns="http://www.w3.org/2000/svg">
<path d="M128.69 0.00457764H0.00463867V128.618H128.69V0.00457764Z" fill="#54B3A2"/>
<path opacity="0.3" d="M63.9707 122.589C86.6662 122.589 105.065 119.777 105.065 116.309C105.065 112.841 86.6662 110.029 63.9707 110.029C41.2751 110.029 22.8768 112.841 22.8768 116.309C22.8768 119.777 41.2751 122.589 63.9707 122.589Z" fill="#1D2831"/>
<path d="M37.3915 57.8001L37.017 58.1743C37.0396 57.9483 37.1125 57.78 37.3915 57.8001Z" fill="#C6DFC4"/>
<path d="M41.9181 95.1833L42.1368 95.4822C42.1022 95.4784 42.0687 95.4674 42.0386 95.4499C42.0085 95.4325 41.9823 95.4089 41.9617 95.3808C41.9411 95.3527 41.9267 95.3206 41.9192 95.2866C41.9117 95.2526 41.9113 95.2174 41.9181 95.1833Z" fill="#C6DFC4"/>
<path d="M91.291 98.7753C91.5096 98.7351 91.5423 98.916 91.6202 99.0492L91.291 98.7753Z" fill="#F0EDC7"/>
<path d="M37.874 57.2173L37.6604 57.5036C37.6531 57.4705 37.653 57.4363 37.6601 57.4032C37.6673 57.37 37.6814 57.3388 37.7017 57.3117C37.722 57.2845 37.7478 57.262 37.7776 57.2457C37.8073 57.2294 37.8402 57.2197 37.874 57.2173Z" fill="#C6DFC4"/>
<path d="M37.6324 57.5288L37.4288 57.7448C37.4062 57.5941 37.4766 57.5288 37.6324 57.5288Z" fill="#C6DFC4"/>
<path d="M83.5247 35.539C83.5373 35.1145 83.5524 34.6874 83.565 34.2629C84.1179 34.0795 83.9847 33.6073 83.9897 33.2129C84.0023 31.6354 83.9897 30.0554 83.9897 28.4753C83.9897 27.2193 83.9897 25.9809 83.9897 24.7325C83.9897 24.6094 84.0752 24.416 83.854 24.3758C83.8106 24.4807 83.7794 24.5903 83.761 24.7023C83.7283 24.9083 83.7107 25.1143 83.6881 25.3203C83.389 22.1024 82.7556 18.975 81.2149 16.0913C79.7195 13.2955 77.8445 10.8161 75.0823 9.14565C74.9491 9.06527 74.6826 9.05022 74.7882 8.85931C74.8536 8.74125 75.1476 8.68093 75.3261 8.70354C76.8576 8.90323 78.356 9.30443 79.7823 9.89673C84.4044 11.7958 87.7749 14.9483 89.4815 19.7286C89.407 19.802 89.3547 19.8949 89.3307 19.9967C89.3067 20.0985 89.3119 20.205 89.3458 20.3039C90.0402 22.5272 90.3562 24.8512 90.2807 27.1791C90.2154 29.2188 90.3561 31.2686 90.1928 33.2983C89.9414 36.275 89.5971 39.2417 89.5242 42.2309C89.5242 42.6002 89.4639 42.9844 89.7328 43.306L89.8082 43.5572L89.6976 44.0847C89.1748 43.929 89.2829 44.3359 89.2829 44.5871C89.2829 46.4962 89.2025 48.4103 89.3382 50.3094C89.3689 50.58 89.3338 50.854 89.2358 51.1081C89.1377 51.3622 88.9797 51.5889 88.7752 51.7689L88.5013 51.8317C88.2499 51.5805 88.1192 51.7437 88.0262 51.9899C86.6715 52.4923 85.4198 53.2157 84.143 53.8915C83.1377 53.6905 83.6404 52.8666 83.4795 52.3064C83.4493 52.2034 83.6052 51.9246 83.3136 52.0226C83.2257 52.0527 83.2156 52.3115 83.1704 52.4647C83.1068 52.4275 83.0506 52.3789 83.0045 52.3215L83.0271 50.8394C83.4896 49.4654 83.2156 48.0461 83.2156 46.6519C83.2156 45.1448 83.4896 43.5899 83.0321 42.0852C83.0321 41.5954 83.012 41.103 83.0045 40.6106C83.0573 40.259 83.1126 39.9073 83.1653 39.5556H83.2583C83.858 39.1793 84.337 38.6387 84.6382 37.9982C85.3821 36.5136 85.1559 36.0137 83.5247 35.539ZM88.0212 21.8588C87.8955 21.1504 87.7347 20.5098 86.855 20.4646C86.101 20.4295 85.543 21.1303 85.5983 22.1251C85.6511 22.9239 86.3222 23.1549 86.9354 23.1549C87.7221 23.1574 87.8704 22.4642 88.0212 21.8588ZM88.2725 43.9641C88.2298 43.3387 87.9684 42.8262 87.3325 42.8413C86.39 42.8614 86.287 43.6301 86.2643 44.3485C86.2468 44.9438 86.4931 45.5241 87.134 45.4814C87.9961 45.4512 88.1418 44.6725 88.265 43.9792L88.2725 43.9641ZM88.9788 30.9521C88.9788 30.1985 88.3329 29.4926 87.6844 29.4926C87.1088 29.4926 86.8676 29.8469 86.8198 30.3467C86.757 30.9923 87.6945 31.9871 88.3052 31.9343C88.916 31.8816 88.8129 31.3088 88.9788 30.9672V30.9521Z" fill="#B9A748"/>
<path d="M73.1444 38.0259C72.8503 39.1035 72.8403 40.2087 72.8202 41.3115C72.7674 41.4848 72.4205 41.5627 72.6694 41.8315L72.697 41.8038C72.227 41.5777 72.1943 42.1203 71.9128 42.2434L71.5735 42.4946L71.5987 42.4519C71.2543 42.6202 70.8748 42.7308 70.621 43.0498C70.5844 43.0423 70.5464 43.0451 70.5113 43.058C70.4763 43.0709 70.4455 43.0932 70.4224 43.1226C68.8264 43.6677 67.2505 43.3537 65.6771 42.9995L65.7098 43.0247L65.177 42.7458L65.2096 42.7709L64.4229 42.2685L64.4556 42.3012L64.1565 42.05L64.1817 42.0726L63.9027 41.8214L63.6639 41.5099L63.7016 41.5476L63.6036 41.0829C63.6351 40.9893 63.6357 40.888 63.6054 40.794C63.5751 40.7 63.5154 40.6181 63.4352 40.5604C63.3624 40.1031 63.162 39.6756 62.8571 39.327C62.7164 39.0758 62.5806 38.8246 62.4349 38.5734C62.1332 38.056 61.8869 37.4205 62.2036 36.9457C62.455 36.5815 63.0582 36.9733 63.498 36.9583C64.5763 36.9231 65.2725 37.2094 65.6872 38.3674C66.029 39.3295 67.062 39.6235 68.0975 39.5807C69.1029 39.5305 69.5829 38.8272 69.8066 38.0083C69.9675 37.4204 70.1786 37.2823 70.7366 37.428C71.5434 37.6164 72.403 37.5837 73.1444 38.0259Z" fill="#F4EBC2"/>
<path d="M52.3386 38.0887C51.7832 37.6416 51.6701 36.9608 51.4238 36.3504L55.0908 36.2951L54.7339 37.2145H54.749C54.186 38.1514 53.153 37.8224 52.3386 38.0887Z" fill="#F4EBC2"/>
<path d="M71.1336 35.5541C71.2717 35.5233 71.4151 35.525 71.5525 35.559C71.6899 35.593 71.8175 35.6584 71.9253 35.75C71.6467 35.7786 71.3667 35.7093 71.1336 35.5541Z" fill="#B9A748"/>
<path d="M45.5673 34.3634L45.7835 34.3785L45.6729 34.4086L45.5673 34.3634Z" fill="#B9A748"/>
<path d="M44.459 35.7826C44.4312 35.7278 44.4085 35.6707 44.3912 35.6118C44.3912 35.5917 44.4289 35.5615 44.4515 35.5364L44.459 35.7826Z" fill="#B9A748"/>
<path d="M81.3303 36.177C81.3504 36.0464 81.373 35.9258 81.3956 35.7826L81.3303 36.177Z" fill="#B9A748"/>
<path d="M48.7636 50.7941C48.755 50.8016 48.7468 50.8097 48.7394 50.8184L48.7636 50.7941Z" fill="#E0B84A"/>
<path d="M81.7149 26.2999L81.6571 25.5463C81.358 23.0217 81.0086 20.5022 79.9857 18.146C77.6734 12.8081 73.8354 9.33655 67.9541 8.38451L67.6801 8.32423C67.3986 8.26896 67.1171 8.21115 66.8331 8.16091C63.8171 7.61581 60.801 8.03033 57.7849 8.19863L57.3702 8.34679C50.4282 9.4169 45.6126 13.1723 43.0715 19.7386C42.2095 21.9667 41.928 24.333 41.6465 26.6917C41.5962 27.8757 41.5451 29.0597 41.4931 30.2437V32.0247L41.6364 39.2692C43.2701 39.327 44.8611 38.8974 46.4772 38.8346C47.7339 38.7869 47.5605 37.7897 47.656 37.1491C47.7791 36.3302 46.9346 36.8602 46.5601 36.6718C45.8865 36.3302 44.8008 36.9632 44.469 35.7801C44.4412 35.7253 44.4185 35.6681 44.4011 35.6093C44.4011 35.5892 44.4388 35.559 44.4615 35.5339C44.4579 35.2316 44.5726 34.9399 44.781 34.7208C44.9894 34.5017 45.2752 34.3726 45.5774 34.3608L45.7935 34.3759L46.3113 34.4562L46.5626 34.4764C49.0509 34.7024 51.5216 34.3633 54.0023 34.2829C55.832 34.2201 55.9677 34.0493 55.4098 32.2231C54.6055 32.6577 53.8414 32.301 53.1477 32.0071C52.6023 31.7785 52.0946 31.6303 51.6196 31.9518C50.2397 32.8863 48.797 32.5698 47.3468 32.2708C46.7672 32.2039 46.1917 32.1058 45.6226 31.9769C45.1577 31.8513 44.7957 31.5223 44.851 30.9722C44.8614 30.7176 44.9701 30.4769 45.1543 30.3008C45.3385 30.1247 45.5839 30.0268 45.8388 30.0277C46.1278 30.0025 46.4244 30.0276 46.716 30.0126C50.4081 29.691 53.2055 28.0658 54.6784 24.5214C54.7969 24.2105 54.9389 23.909 55.1031 23.6196C55.1733 23.4662 55.2929 23.3408 55.4428 23.2634C55.5927 23.1859 55.7643 23.161 55.93 23.1926C56.3473 23.2855 56.4101 23.6196 56.4026 23.9662C56.4026 24.549 56.3573 25.1293 56.3322 25.7246C57.2194 26.85 56.8499 28.1462 56.8097 29.3896C56.8097 29.6634 56.4981 29.7363 56.2518 29.7865C58.1795 32.2181 58.0413 34.8255 56.9027 37.5159H58.4108L58.637 37.4957L59.391 37.4078L59.6725 37.3174L59.7403 37.2973H59.8132C59.8132 36.2825 59.8049 35.2676 59.7881 34.2528C59.7645 34.1996 59.7468 34.144 59.7353 34.087C59.7353 34.0669 59.773 34.0418 59.7931 34.0192C59.8183 33.8509 59.8409 33.6825 59.866 33.5168C59.0818 31.9191 59.9339 30.515 60.5195 29.151C60.7834 28.5355 60.7985 27.4554 61.9345 27.478C61.6832 26.4732 61.2559 25.4835 61.4595 24.4134C61.5575 23.8959 61.6204 23.278 62.3392 23.2152C63.058 23.1524 63.234 23.7528 63.3445 24.2702C63.9478 26.85 65.6418 28.4526 67.9541 29.5253C69.4045 30.1823 70.9814 30.5132 72.5737 30.4948C72.8269 30.4763 73.0781 30.5516 73.2793 30.7064C73.4805 30.8611 73.6176 31.0845 73.6645 31.3339C73.8354 31.9719 73.383 32.2382 72.9105 32.4542C72.0308 32.8511 71.1134 32.7582 70.196 32.6451C70.3921 32.9893 70.7264 32.9817 71.0632 33.0119C71.3145 33.0319 71.6236 32.8863 71.8448 33.1475C71.6111 33.2078 71.3773 33.2806 71.1411 33.3284C69.148 33.7428 67.2931 33.0244 65.4106 32.5873C64.9395 32.4353 64.4604 32.3095 63.9754 32.2105C63.3898 32.1427 63.0404 31.7534 62.8444 31.2058C62.3417 31.8965 62.2512 32.733 62.015 33.5218C61.8139 34.1875 62.0401 34.4161 62.686 34.4889C64.9958 34.7401 67.3006 35.029 69.6079 35.3028L69.9397 35.3932L71.1612 35.5289C71.2993 35.4981 71.4427 35.4998 71.5801 35.5338C71.7175 35.5678 71.8451 35.6332 71.9529 35.7248C72.7069 35.8981 73.4911 36.0614 74.2552 36.2498C74.7076 36.3603 75.0092 36.6618 74.9564 37.1416C74.9382 37.3514 74.8496 37.5489 74.705 37.7021C74.5604 37.8553 74.3682 37.9552 74.1597 37.9856C73.8298 38.0195 73.4976 38.0246 73.1669 38.0007C72.8728 39.0783 72.8627 40.1836 72.8426 41.2863C72.8698 41.3784 72.87 41.4762 72.8433 41.5683C72.8166 41.6605 72.764 41.743 72.6918 41.8063L72.7195 41.7787C72.5335 43.1176 71.7141 44.0394 70.7088 44.8382C70.9149 45.2376 70.8872 45.6923 71.3974 46.0214C71.9479 46.3781 72.4556 47.0739 72.1012 47.83C71.968 48.1587 71.7272 48.4326 71.4182 48.6069C71.1091 48.7812 70.75 48.8456 70.3996 48.7896C68.1904 49.0584 66.2551 48.4881 64.6641 46.898C64.1363 46.3705 63.6411 45.8104 63.1309 45.2627C62.6282 45.8556 62.1314 46.4467 61.6405 47.0362C61.2308 48.4756 61.2057 50.0506 60.1701 51.2714C62.0831 51.4213 63.946 51.9562 65.6468 52.8439C67.464 53.7633 69.0323 54.9766 69.9347 56.8781C70.1357 57.3026 70.3167 57.7423 69.8567 58.1216C69.6679 58.2919 69.4225 58.3862 69.1681 58.3862C68.9137 58.3862 68.6683 58.2919 68.4794 58.1216C67.9566 57.7121 67.4891 57.2323 66.9965 56.7827C64.7747 54.748 62.201 53.5171 59.1547 53.3563C57.8 55.4086 56.2115 57.2775 54.1531 58.6315C52.3937 59.7794 51.3507 59.1891 51.137 57.1243C48.6236 57.3353 46.8643 55.8683 48.136 52.8389C48.1779 52.38 48.3158 51.9349 48.5407 51.5326L48.5055 51.5628C48.5834 51.3116 48.5532 51.0102 48.7568 50.8092C48.8373 50.558 48.8021 50.2541 49.0408 50.0556L49.2595 49.5131H49.2344C49.4388 49.0375 49.6415 48.561 49.8426 48.0837L49.82 47.9858L41.8098 47.7848C41.3071 47.9782 41.5032 48.4153 41.4931 48.7569C41.4152 51.387 41.4127 54.0321 41.2594 56.6445C41.1966 57.7171 41.566 58.4682 42.2647 59.2042C44.5695 61.671 47.3895 63.2937 50.5464 64.404C53.7032 65.5143 56.9681 65.773 60.2682 65.8861C60.5349 65.7351 60.8454 65.6801 61.1478 65.7303L63.2541 65.6022C63.3496 65.4314 63.5054 65.4314 63.6713 65.4465C69.9548 64.399 75.2781 61.4725 80.0083 57.2801C81.079 56.328 81.3982 55.3911 81.2399 54.0421C80.7871 49.8879 80.7299 45.7001 81.069 41.535C81.0375 41.4586 81.0375 41.3728 81.069 41.2963C81.1662 39.5848 81.265 37.8742 81.3655 36.1644C81.3857 36.0338 81.4083 35.9132 81.4309 35.77C81.6219 34.2402 81.4183 32.6803 81.7375 31.158C81.7132 31.1278 81.7012 31.0895 81.704 31.0508C81.7068 31.0121 81.7242 30.9759 81.7526 30.9495C81.7275 29.4105 81.7149 27.8606 81.7149 26.2999ZM47.1759 21.718C46.3264 21.6854 46.0901 21.0273 46.0876 20.3189C46.0851 19.6105 46.4722 19.0629 47.1885 19.0453C48.0204 19.0227 48.2768 19.6608 48.3145 20.437C48.2843 21.1428 48.038 21.7482 47.1759 21.718ZM51.9715 16.88C51.1094 16.88 51.0365 16.0787 51.0365 15.3879C51.0365 14.6971 51.2049 13.9711 52.067 13.9661C52.9291 13.9611 53.2558 14.5941 53.3463 15.3728C53.2307 16.2042 52.831 16.8925 51.9715 16.88ZM64.9456 14.7197C64.7056 14.7197 64.4679 14.6722 64.2465 14.5798C64.025 14.4874 63.824 14.3519 63.6553 14.1814C63.4865 14.0108 63.3532 13.8086 63.2632 13.5862C63.1732 13.3638 63.1283 13.1258 63.1309 12.8859C63.1132 12.6369 63.146 12.3869 63.2273 12.1509C63.3086 11.9148 63.4368 11.6977 63.6041 11.5123C63.7715 11.327 63.9746 11.1774 64.2012 11.0724C64.4278 10.9675 64.6733 10.9093 64.923 10.9015C65.9283 10.8839 66.617 11.5646 66.6396 12.6247C66.6622 13.7526 65.8881 14.7097 64.9456 14.7197ZM71.2291 22.8861C70.3996 22.851 69.9724 22.2506 69.9899 21.4543C70.0075 20.7333 70.5052 20.3716 71.1813 20.2435C71.963 20.3968 72.3777 20.9092 72.345 21.6377C72.3224 22.2808 71.9956 22.9163 71.2341 22.8861H71.2291ZM73.4258 17.8622C72.3159 17.053 71.2535 16.1807 70.2438 15.2497C70.0725 15.0883 69.9618 14.873 69.9302 14.6399C69.8986 14.4067 69.9481 14.1697 70.0704 13.9686C70.2664 13.622 70.6233 13.6446 70.9601 13.6571C72.2168 13.7476 74.4085 16.0535 74.416 17.2844C74.4236 18.0631 73.8983 18.1938 73.4308 17.8647L73.4258 17.8622ZM44.5218 55.6121C43.6295 55.587 43.2651 55.0971 43.2651 54.2456C43.2651 53.394 43.6144 52.8464 44.5218 52.8841C45.3814 52.9193 45.7785 53.4443 45.7785 54.2833C45.7785 55.1223 45.4467 55.6422 44.5268 55.6146L44.5218 55.6121ZM61.8064 61.6836C61.6153 62.088 61.2534 62.1558 60.8462 62.0704C59.8987 61.8368 59.0064 61.5027 58.3605 60.7139C58.1092 60.4024 57.9734 60.0407 58.1745 59.6715C58.4083 59.2419 58.833 59.3474 59.1799 59.473C60.0043 59.7744 60.8337 60.0834 61.4972 60.6863C61.7963 60.9576 62.0024 61.2816 61.8114 61.6861L61.8064 61.6836ZM76.2583 56.3054C75.3435 56.3054 74.9539 55.6573 74.969 54.8133C74.9841 53.9693 75.4943 53.4091 76.3664 53.3991C77.2386 53.389 77.5377 54.0321 77.5854 54.8485C77.5276 55.6523 77.1657 56.3054 76.2634 56.3079L76.2583 56.3054Z" fill="#E0B84A"/>
<path d="M49.0284 50.0556L49.0158 50.0682V50.0858L49.0284 50.0556Z" fill="#E0B84A"/>
<path d="M100.229 87.3761C99.6664 85.9963 99.183 84.5856 98.781 83.1509C97.9842 80.006 97.4514 76.7932 96.2927 73.7436C94.2418 74.8388 91.8993 75.3236 90.0093 76.7454C90.2933 78.853 90.4868 80.9781 90.894 83.063C91.1327 84.2838 90.9719 85.1756 90.1073 86.1226C87.7246 88.7326 88.084 91.7997 89.1019 94.5754C89.2603 94.9999 89.5292 95.427 90.0947 95.3943C90.6602 95.3617 90.9015 94.9924 91.0749 94.5453C91.1931 94.2363 91.2584 93.9072 91.3464 93.5882C91.5977 92.6864 91.5047 91.762 91.5324 90.8451C91.5449 90.4909 91.6228 90.1468 92.0174 90.074C92.4498 89.9936 92.7313 90.2473 92.8594 90.6517C92.951 90.8822 93.007 91.1253 93.0253 91.3726C93.0253 92.6613 93.1585 93.9474 92.7413 95.2235C92.3744 96.3438 93.058 97.7354 93.9804 98.0118C95.026 98.3182 95.8529 97.7003 96.2048 96.2534C96.4008 95.447 96.4561 94.6056 96.6019 93.7892C96.6999 93.2868 96.715 92.5583 97.4413 92.606C98.0546 92.6462 98.1124 93.2692 98.1124 93.7842C98.1124 94.5377 98.0797 95.2913 98.0672 96.0449C98.0672 96.487 97.8661 97.0648 98.4442 97.2281C98.9016 97.3587 99.3239 97.0296 99.628 96.6654C99.8225 96.449 99.9827 96.2042 100.103 95.9394C101.248 93.2079 101.293 90.14 100.229 87.3761Z" fill="#E0B84A"/>
<path d="M35.5241 78.2349C34.8203 78.6946 33.8477 78.2626 33.164 79.0463C32.9604 79.2799 32.3497 78.5188 31.935 78.2023C31.0313 81.5741 30.3844 85.0094 29.9997 88.4788C29.7483 90.9053 30.251 93.1988 31.7138 95.2285C32.142 95.8515 32.7724 96.3075 33.4983 96.5196C33.7295 96.5849 34.0387 96.6728 34.1895 96.4367C34.2624 96.3236 34.1166 96.0599 34.0563 95.8715C33.8049 95.1179 33.4279 94.3894 33.3374 93.6233C33.2168 92.5984 32.7795 91.4705 33.7396 90.5687L34.0412 88.7325C33.5536 88.2929 33.5083 87.7754 33.6441 87.1474C34.2925 84.1808 34.9008 81.2066 35.5241 78.2349Z" fill="#E0B84A"/>
<path d="M90.2807 27.179C90.2154 29.2188 90.3561 31.2685 90.1928 33.2982C89.9414 36.2749 89.5971 39.2416 89.5242 42.2308C89.5242 42.6001 89.4639 42.9844 89.7328 43.3059L90.042 40.068L90.0872 39.0456C90.3385 35.1998 90.7734 31.364 90.8085 27.4905V26.4707C90.6611 25.2214 90.512 23.9729 90.3612 22.7253C90.0646 21.7205 89.9364 20.6755 89.489 19.7109C89.4145 19.7843 89.3622 19.8772 89.3382 19.979C89.3142 20.0808 89.3194 20.1873 89.3533 20.2862C90.0471 22.5156 90.3606 24.8457 90.2807 27.179Z" fill="#E0B84A"/>
<path d="M89.8182 51.1007C89.8182 50.8495 89.8031 50.5983 89.7981 50.3471V49.576L89.6849 47.8326C89.6557 47.7756 89.6321 47.7159 89.6146 47.6543C89.6146 47.6342 89.6523 47.604 89.6749 47.5764C89.6749 47.074 89.6749 46.5716 89.6749 46.0692C89.6484 46.0119 89.6273 45.9522 89.6121 45.8909C89.6121 45.8683 89.6523 45.8382 89.6749 45.813L89.7779 44.0547H89.695C89.1722 43.8989 89.2803 44.3059 89.2803 44.557C89.2803 46.4661 89.1999 48.3802 89.3356 50.2793C89.3663 50.5499 89.3312 50.8239 89.2331 51.078C89.1351 51.3321 88.9771 51.5588 88.7726 51.7387C89.1596 51.6031 89.8357 51.897 89.8182 51.1007Z" fill="#E0B84A"/>
<path d="M66.7349 45.7225C68.3636 46.029 69.2483 45.8858 69.8415 45.2678C67.9313 45.8129 66.1644 45.2226 64.405 44.5846C64.5609 45.2904 65.1264 45.6672 65.624 46.0917C65.6647 46.1853 65.7329 46.2642 65.8196 46.318C65.9062 46.3719 66.0072 46.3981 66.1091 46.3932C66.1091 46.5439 66.2473 46.5741 66.3604 46.6092C66.6118 46.9509 67.024 47.0488 67.3884 47.2096C67.2703 46.6268 66.8606 46.5464 66.368 46.5992L66.1016 46.348C66.1003 46.3538 66.1003 46.3598 66.1016 46.3656C66.0627 46.2745 65.9955 46.1984 65.9099 46.1487C65.8243 46.0989 65.7249 46.078 65.6265 46.0892C65.8226 45.4512 66.275 45.6421 66.7349 45.7225Z" fill="#E0B84A"/>
<path d="M64.3925 44.5745H64.3625L64.3775 44.592H64.3975C64.3964 44.5854 64.3964 44.5786 64.3975 44.572L64.3925 44.5745Z" fill="#E0B84A"/>
<path d="M83.9895 33.2128C84.0021 31.6353 83.9895 30.0553 83.9895 28.4753C83.9895 27.2193 83.9895 25.9809 83.9895 24.7324C83.9895 24.6093 84.075 24.4159 83.8538 24.3757C83.8104 24.4807 83.7792 24.5902 83.7608 24.7023C83.7281 24.9083 83.7105 25.1143 83.6879 25.3202C83.7432 28.3019 83.7709 31.2836 83.5648 34.2628C84.1177 34.0795 83.9845 33.6072 83.9895 33.2128Z" fill="#E0B84A"/>
<path d="M83.2154 46.6469C83.2154 45.1397 83.4894 43.5848 83.0319 42.0801C82.9967 42.5825 82.9624 43.0849 82.9289 43.5873L82.8987 44.3132L82.8686 44.8659C82.9748 45.3216 82.9334 45.7992 82.7504 46.2299C82.8325 46.4234 82.8748 46.6314 82.8748 46.8416C82.8748 47.0517 82.8325 47.2597 82.7504 47.4532C82.8251 47.5782 82.8698 47.7188 82.8811 47.8639C82.8925 48.009 82.8701 48.1547 82.8158 48.2897L83.0269 50.8419C83.4894 49.4603 83.2154 48.041 83.2154 46.6469Z" fill="#E0B84A"/>
<path d="M83.4792 52.3013C83.449 52.1983 83.6049 51.9195 83.3133 52.0175C83.2253 52.0476 83.2153 52.3064 83.1701 52.4596L83.1399 53.0901C83.4641 53.3689 82.7026 55.0168 84.1452 53.8864C83.1298 53.6854 83.6325 52.8615 83.4792 52.3013Z" fill="#E0B84A"/>
<path d="M88.0261 51.9848L88.5011 51.8265C88.2447 51.5854 88.1191 51.7512 88.0261 51.9848Z" fill="#E0B84A"/>
<path d="M64.2894 44.5414C64.3145 44.5536 64.3416 44.5612 64.3694 44.5638L64.2794 44.4539C64.2819 44.4839 64.2719 44.5289 64.2894 44.5414Z" fill="#E0B84A"/>
<path d="M91.9419 51.3568L91.9645 51.608C91.9333 51.554 91.908 51.4967 91.8891 51.4372C91.8841 51.4171 91.9243 51.3845 91.9419 51.3568Z" fill="#132340"/>
<path d="M39.8317 38.0459C39.8582 38.1001 39.8801 38.1564 39.897 38.2143C39.897 38.2369 39.8618 38.267 39.8417 38.2921C39.8392 38.2092 39.8342 38.1288 39.8317 38.0459Z" fill="#132340"/>
<path d="M41.0232 19.7135C41.0355 19.7968 41.0355 19.8814 41.0232 19.9647L40.9152 19.9798C40.9004 19.9248 40.892 19.8683 40.89 19.8115C40.9381 19.7841 40.9828 19.7512 41.0232 19.7135Z" fill="#132340"/>
<path d="M102.772 90.2798C102.521 89.9633 102.576 89.6016 102.606 89.2424C102.77 89.5621 102.828 89.9252 102.772 90.2798Z" fill="#132340"/>
<path d="M102.337 88.524C102.337 88.3482 102.337 88.1699 102.35 87.9915L102.523 88.529C102.461 88.529 102.4 88.529 102.337 88.524Z" fill="#132340"/>
<path d="M101.835 86.7656C101.835 86.6802 101.835 86.5948 101.835 86.5144C101.89 86.5472 101.948 86.5742 102.008 86.5948C102.016 86.6548 102.016 86.7156 102.008 86.7756C101.95 86.7763 101.892 86.773 101.835 86.7656Z" fill="#132340"/>
<path d="M85.5102 92.7969C83.3889 93.4525 81.2374 93.9624 79.0633 94.4322C75.0585 95.1704 71.0022 95.5954 66.9312 95.7032H66.6195L61.6355 95.6228H61.3842L59.1623 95.54C58.6597 95.3591 58.1216 95.2988 57.5915 95.3642L51.8584 94.6357C48.9756 94.191 46.1053 93.6862 43.3129 92.8472C43.0992 92.7819 42.8253 92.5407 42.6468 92.7743C42.5865 92.8547 42.8353 93.1888 42.9686 93.3922C43.8738 94.7988 45.081 95.9864 46.5024 96.8688C49.3928 98.6473 52.5873 99.5089 55.8949 100.049L60.3889 100.551H60.6402C61.9346 100.571 63.229 100.644 64.5209 100.597C65.4508 100.561 66.4185 100.865 67.3082 100.36C67.3886 100.71 67.6224 100.551 67.8109 100.514C68.8565 100.634 69.8719 100.335 70.9049 100.293C71.4955 100.383 72.149 100.114 72.6643 100.597C74.2879 99.9234 76.0523 99.755 77.7136 99.2074C78.2892 99.0165 78.4677 99.3054 78.4677 99.8254C78.4827 100.27 78.3646 100.76 78.7919 101.101C78.7768 100.85 78.7567 100.599 78.7467 100.348C78.6537 98.4438 78.6587 98.4564 80.5186 97.9213C82.3785 97.3863 84.2887 96.796 85.5454 95.1079L85.5102 92.7969ZM54.3266 97.0296C54.2989 97.5847 53.9822 97.866 53.4393 97.8259C52.6853 97.7656 52.1826 97.3486 52.1826 96.5849C52.172 96.4626 52.1858 96.3393 52.2233 96.2223C52.2607 96.1052 52.3211 95.9969 52.4008 95.9034C52.4806 95.8099 52.5781 95.7331 52.6878 95.6776C52.7975 95.6221 52.9171 95.589 53.0397 95.5802C53.7912 95.8138 54.3693 96.1428 54.3266 97.0296ZM67.6651 98.3157C67.5797 99.0995 67.0393 99.3205 66.333 99.3355C65.5539 99.2778 65.1467 98.8709 65.1367 98.062C65.1266 97.2532 65.5966 96.9241 66.2853 96.8688C66.4725 96.8679 66.658 96.9052 66.8304 96.9784C67.0027 97.0517 67.1582 97.1593 67.2874 97.2948C67.4166 97.4303 67.5168 97.5908 67.5817 97.7663C67.6467 97.9418 67.6751 98.1288 67.6651 98.3157Z" fill="#C8A238"/>
<path d="M72.9558 103.628V106.746C72.9558 107.08 72.9131 107.499 73.368 107.512C74.7654 107.527 76.0146 108.228 77.3768 108.336C78.6863 108.441 79.1362 108.027 79.1211 106.698C79.1211 104.997 78.9929 103.297 78.9201 101.594L72.9558 103.628ZM76.6379 107.622C75.6526 107.605 74.9062 106.892 74.9715 106.06C75.0193 105.46 75.3133 105.01 75.9618 104.962C76.6102 104.915 77.3743 105.98 77.4371 106.902C77.4824 107.592 77.0803 107.65 76.6379 107.622Z" fill="#C8A238"/>
<path d="M36.059 74.236C35.1164 74.2862 34.3825 73.7713 33.6059 73.3819C33.1887 73.1734 33.0303 73.2362 32.9323 73.6934C32.6081 75.2006 32.1079 76.6651 31.9269 78.215C32.3417 78.5315 32.9524 79.2926 33.156 79.0589C33.8396 78.2752 34.8123 78.7073 35.5161 78.2476C35.7875 77.1172 36.0564 75.9868 36.3354 74.8539C36.4159 74.5449 36.539 74.2108 36.059 74.236Z" fill="#C8A238"/>
<path d="M65.631 46.1087C65.631 46.1087 65.631 46.1087 65.631 46.0968H65.6166L65.631 46.1087Z" fill="#C8A238"/>
<path d="M70.3797 48.8147C70.7301 48.8708 71.0892 48.8064 71.3982 48.6321C71.7073 48.4578 71.9481 48.1839 72.0812 47.8551C72.4356 47.1015 71.9279 46.4032 71.3775 46.0465C70.8748 45.7175 70.8949 45.2628 70.6888 44.8634L69.8443 45.2728C69.2562 45.8908 68.3664 46.0264 66.7378 45.7275C66.2778 45.6421 65.8254 45.4512 65.6369 46.0968C65.741 46.0843 65.8463 46.1079 65.935 46.1637C66.0238 46.2195 66.0907 46.304 66.1245 46.4032L66.1119 46.3555L66.3784 46.6067C66.881 46.5539 67.2807 46.6343 67.3988 47.2171C68.3007 47.6317 69.2768 47.8607 70.2691 47.8903C70.5657 47.9104 71.0407 47.8451 71.091 48.2445C71.1412 48.6439 70.5807 48.5711 70.3797 48.8147Z" fill="#C8A238"/>
<path d="M66.3956 46.6293L66.3756 46.6093H66.3581L66.3956 46.6293Z" fill="#C8A238"/>
<path d="M63.9505 32.2231C64.4355 32.322 64.9147 32.4478 65.3857 32.5999C67.2682 33.037 69.1231 33.7554 71.1162 33.3409C71.3525 33.2932 71.5862 33.2204 71.82 33.1601C71.5988 32.9089 71.2997 33.0445 71.0383 33.0244C70.7015 32.9943 70.3672 33.0018 70.1712 32.6577C68.3615 32.2507 66.5494 31.884 65.0464 30.6657C63.8098 29.6609 63.6313 29.7287 62.8195 31.2309C63.0156 31.7659 63.3649 32.1578 63.9505 32.2231Z" fill="#C8A238"/>
<path d="M36.3058 92.0659C35.8031 91.8147 35.4789 91.7745 35.7026 92.5181C35.9036 93.1888 36.062 93.8695 36.2404 94.5478L35.9891 94.5728L35.6925 94.3216C35.7453 94.4598 35.783 94.613 35.9816 94.5728H35.9665C36.0412 94.9837 36.2756 95.3483 36.6184 95.5869C36.9613 95.8256 37.3847 95.9189 37.7962 95.8464C38.6483 95.756 38.8468 94.9899 38.9649 94.284C39.0204 93.7929 39.0431 93.2985 39.0328 92.8044C38.04 92.8722 37.1679 92.4904 36.3058 92.0659Z" fill="#C8A238"/>
<path d="M51.5921 31.9544C52.0671 31.6328 52.5748 31.781 53.1202 32.0096C53.8265 32.3035 54.5905 32.6603 55.3822 32.2257C55.1862 31.1958 54.3518 30.6582 53.6782 29.9901C53.3665 29.6786 53.1906 29.8946 52.9468 30.0679C51.2553 31.2837 49.3375 31.9343 47.3017 32.2734C48.7645 32.5723 50.2122 32.8888 51.5921 31.9544Z" fill="#C8A238"/>
<path d="M60.2958 32.2307L60.243 32.1929C60.2563 31.9207 60.37 31.663 60.5622 31.4695L60.8287 30.9671L60.806 30.9797C60.8146 30.9025 60.8523 30.8315 60.9116 30.7812C61.1956 30.3818 61.4143 29.8795 61.7812 29.6006C62.7137 28.9048 62.6333 28.2441 61.9019 27.5006C60.7658 27.478 60.7507 28.5582 60.4868 29.1736C59.9012 30.5376 59.0492 31.9367 59.8334 33.5394C59.9314 33.0772 59.9565 32.5974 60.2958 32.2307Z" fill="#C8A238"/>
<path d="M56.2189 29.7841C56.4703 29.7338 56.7668 29.661 56.7769 29.3872C56.8171 28.1437 57.1866 26.8475 56.2993 25.7222C56.0907 26.1668 55.9801 26.7069 55.6584 27.0385C54.457 28.2744 55.1432 29.0506 56.2189 29.7841Z" fill="#C8A238"/>
<path d="M59.5295 51.3393C59.7356 51.3393 59.9417 51.3116 60.1478 51.2966C61.1834 50.0732 61.2085 48.5008 61.6182 47.0614C61.1482 47.2197 60.9245 47.6065 60.6932 48.0084C60.1755 48.9027 59.6351 49.7793 59.1073 50.6686C58.9867 50.8745 58.6725 51.0755 58.8208 51.289C58.9037 51.4121 59.2832 51.3393 59.5295 51.3393Z" fill="#C8A238"/>
<path d="M56.086 104.156C56.2042 102.147 56.1715 102.091 54.2814 101.699C53.1605 101.468 51.6952 100.577 51.014 101.22C50.3329 101.863 50.8054 103.428 50.8682 104.591C51.6624 105.22 52.5957 105.651 53.5903 105.847C53.1906 105.329 52.9896 104.809 53.2861 104.136C53.5224 103.593 53.8893 103.49 54.3744 103.601C54.9425 103.732 54.9123 104.209 54.7891 104.606C54.5979 105.1 54.3737 105.581 54.1181 106.045C54.6072 106.226 55.1473 106.212 55.6261 106.005C56.5561 105.595 56.0534 104.772 56.086 104.156Z" fill="#C8A238"/>
<path d="M59.7026 34.1021C59.714 34.1591 59.7317 34.2147 59.7553 34.2678C59.7797 34.2338 59.7928 34.193 59.7928 34.1511C59.7928 34.1092 59.7797 34.0683 59.7553 34.0342C59.7403 34.0568 59.7001 34.082 59.7026 34.1021Z" fill="#C8A238"/>
<path d="M45.6629 70.4554C45.685 70.5139 45.7154 70.5689 45.7533 70.6187C45.7383 70.7217 45.7232 70.8272 45.7056 70.9302C45.6076 71.6838 45.507 72.4374 45.4065 73.1909C45.3135 73.6933 44.9667 74.4268 45.492 74.6579C46.1856 74.9619 47.0402 74.9568 47.8294 74.9744C48.1888 74.9744 48.0807 74.5122 48.1486 74.251C48.3999 73.407 48.2517 72.5052 48.5357 71.6561C48.8197 70.8071 49.3249 70.2017 50.2423 70.3398C51.1596 70.478 51.416 71.219 51.318 72.0555C51.0667 74.2937 50.76 76.5293 50.4936 78.765C50.3378 80.0913 50.1643 81.4176 50.0864 82.7464C50.0387 83.5854 49.7471 84.1431 48.8825 84.1959C48.0179 84.2486 47.5806 83.7714 47.4046 82.9675C47.098 81.5784 47.4599 80.2043 47.6434 78.8629C47.7515 78.0842 47.4926 77.926 46.8693 77.8582C46.6204 77.828 46.3737 77.7827 46.1304 77.7225C45.0672 77.4964 44.5142 77.8155 44.5067 79.0137C44.5024 80.018 44.3378 81.0153 44.0191 81.9678C43.7552 82.754 43.1897 83.1233 42.3703 82.9726C41.551 82.8218 41.4379 82.2014 41.5158 81.5282C41.943 77.8808 42.3812 74.2351 42.8303 70.591C42.8507 70.3364 42.9515 70.0948 43.1182 69.9011C43.2849 69.7074 43.5088 69.5716 43.7577 69.5134C44.6022 69.335 45.1677 69.855 45.6629 70.4554Z" fill="#F0DFA4"/>
<path d="M72.8176 80.026C71.2216 79.9783 71.2316 79.9782 71.1612 81.5683C71.1286 82.2742 71.0959 82.9876 70.9953 83.6859C70.8445 84.7309 70.0729 85.3589 69.1053 85.1931C67.9893 85.0097 67.9466 84.1632 68.0245 83.274C68.3136 79.9506 68.6554 76.6323 68.864 73.3039C68.9319 72.2188 69.4119 71.739 70.3569 71.4727C71.9354 71.0256 73.5213 71.1637 75.062 71.543C76.7007 71.9475 77.5352 73.4571 77.4774 75.5848C77.4171 78.2676 75.4742 80.1064 72.8176 80.026ZM72.908 74.2007C71.6287 74.1781 71.6714 74.1806 71.5131 76.3057C71.4402 77.2904 72.0761 77.1648 72.6316 77.1874C73.8883 77.2402 74.6574 76.6675 74.7026 75.7004C74.7504 74.6102 74.303 74.2259 72.908 74.2007Z" fill="#F0DFA4"/>
<path d="M55.7869 70.4553C56.7065 70.4421 57.6248 70.5263 58.5265 70.7065C59.4163 70.8874 59.8184 71.4602 59.7707 72.3092C59.7179 73.2537 59.1373 73.5878 58.2274 73.4722C57.8555 73.4245 57.4734 73.4722 57.1014 73.427C56.0961 73.2889 55.5331 73.4697 55.4602 74.7207C55.3647 76.3786 55.2315 76.4188 56.9456 76.6449C57.858 76.7655 58.3657 77.1473 58.2853 78.0692C58.2048 78.991 57.7373 79.5562 56.6591 79.5512C56.0986 79.5512 55.2239 78.9383 54.9977 80.1691C54.6836 81.8773 54.6308 81.8698 56.3701 82.136C56.7822 82.1988 57.2045 82.2039 57.6267 82.2817C58.3481 82.4199 58.7075 82.852 58.6321 83.6131C58.5617 84.334 58.235 84.7736 57.4558 84.7937C55.8121 84.8314 54.2111 84.5425 52.6151 84.2109C51.8158 84.0476 51.7228 83.4422 51.7932 82.759C52.1082 79.6458 52.4215 76.5335 52.7332 73.422C52.7332 73.2989 52.7885 73.1708 52.791 73.0528C52.8588 70.1539 53.1504 70.4478 55.7869 70.4553Z" fill="#F0DFA4"/>
<path d="M60.1954 82.5305C60.4015 80.0085 60.6068 77.4864 60.8112 74.9644C60.8112 74.879 60.8313 74.7936 60.8388 74.7132C60.9218 74.05 60.9645 73.3819 61.0902 72.7313C61.2686 71.8546 61.6507 71.0935 62.7339 71.2241C63.8172 71.3547 63.8499 72.2716 63.8398 73.0453C63.8197 74.4193 63.6865 75.7933 63.5734 77.1649C63.4678 78.4535 63.3799 79.7472 63.1889 81.0258C63.0707 81.8271 63.3296 82.0783 64.0962 82.0507C64.5557 82.0679 65.0134 82.1174 65.466 82.1989C66.22 82.2768 66.8886 82.4049 66.8081 83.4323C66.7277 84.4597 66.3683 84.9671 65.2549 84.8666C64.1414 84.7661 63.0833 84.7963 61.9875 84.7636C60.1803 84.7108 60.125 84.6481 60.1326 82.8018L60.1954 82.5305Z" fill="#F0DFA4"/>
<path d="M60.8287 74.7106C60.8287 74.7935 60.8111 74.8789 60.8011 74.9618C60.7845 74.9026 60.7727 74.8421 60.7659 74.781C60.7759 74.7584 60.8287 74.7332 60.8287 74.7106Z" fill="#70B49A"/>
<path d="M32.7867 46.0566C32.3494 46.0817 31.907 46.1722 31.4973 45.931C31.9308 45.8616 32.3748 45.9049 32.7867 46.0566Z" fill="#132340"/>
<path d="M55.8396 46.0164H55.1082L55.8622 45.8029L55.8396 45.823C55.8497 45.8908 55.8446 45.9536 55.8396 46.0164Z" fill="#4FA497"/>
<path d="M45.0547 40.7262C45.1624 40.6488 45.285 40.5943 45.4147 40.5662C45.5444 40.5381 45.6785 40.537 45.8087 40.5629L45.0547 40.7262Z" fill="#132340"/>
<path d="M95.8527 72.3117C95.5812 71.4426 95.0811 71.2567 94.2441 71.6661C93.3116 72.1208 92.3214 72.4599 91.3638 72.8694C89.1294 73.8214 89.1319 73.8264 89.7778 76.1701C89.8404 76.3635 89.9142 76.553 89.999 76.7378C91.8941 75.316 94.2366 74.8312 96.2825 73.736C96.1417 73.2612 96.001 72.7865 95.8527 72.3117Z" fill="#9B7B23"/>
<path d="M55.7667 54.3084C54.4955 55.6556 52.8837 56.6346 51.1018 57.1419C51.328 59.2068 52.3585 59.7971 54.1179 58.6491C56.1763 57.3027 57.7648 55.4338 59.1195 53.374C57.8377 53.065 56.7796 53.2584 55.7667 54.3084Z" fill="#9B7B23"/>
<path d="M78.4804 99.8179C78.4628 99.2979 78.2944 99.009 77.7263 99.1999C76.065 99.7475 74.3006 99.9158 72.6769 100.589C72.7172 101.594 72.6644 102.634 72.9635 103.629L78.9202 101.594C78.885 101.428 78.8498 101.262 78.8121 101.091C78.3773 100.752 78.4954 100.262 78.4804 99.8179Z" fill="#9B7B23"/>
<path d="M38.2659 91.0259C36.7553 90.4667 35.3326 89.6944 34.0409 88.7325L33.7393 90.5687C34.5913 90.737 34.7848 91.4203 34.9281 92.1236C35.0839 92.8923 35.1794 93.6735 35.6821 94.3141L35.9787 94.5652L36.23 94.5402C36.0516 93.8619 35.8932 93.1812 35.6922 92.5105C35.4685 91.7569 35.8027 91.8172 36.2954 92.0583C37.1575 92.4828 38.0296 92.8646 39.0249 92.8119C39.4924 91.9051 39.2134 91.3801 38.2659 91.0259Z" fill="#9B7B23"/>
<path d="M83.5247 35.5389H83.4317C83.4617 35.62 83.4617 35.7091 83.4317 35.7901C83.3965 36.1468 83.3638 36.5035 83.3312 36.8602C83.306 36.9632 83.2809 37.0662 83.2583 37.1692C83.2315 37.7218 83.2055 38.2745 83.1804 38.8271C83.208 38.9 83.208 38.9804 83.1804 39.0532C83.2055 39.2265 83.2331 39.3999 83.2583 39.5732C83.858 39.1968 84.3369 38.6563 84.6381 38.0158C85.3821 36.5136 85.1559 36.0137 83.5247 35.5389Z" fill="#9B7B23"/>
<path d="M54.3615 103.608C53.8765 103.498 53.5095 103.609 53.2733 104.144C52.9767 104.817 53.1777 105.337 53.5774 105.854L54.1052 106.043C54.3608 105.578 54.585 105.097 54.7763 104.603C54.8994 104.216 54.9296 103.749 54.3615 103.608Z" fill="#9B7B23"/>
<path d="M85.5104 92.7969L85.5556 95.1054C85.8748 94.6809 86.2267 94.2739 86.5032 93.8243C86.7545 93.4349 86.9581 92.8672 86.6716 92.5482C86.3398 92.1739 85.8949 92.6436 85.5104 92.7969Z" fill="#9B7B23"/>
<path d="M59.6397 37.325L59.3582 37.4153L59.6096 37.5083C59.6258 37.4484 59.6359 37.3869 59.6397 37.325Z" fill="#9B7B23"/>
<path d="M66.6396 12.6248C66.617 11.5648 65.9384 10.884 64.923 10.9016C64.6733 10.9094 64.4278 10.9676 64.2012 11.0726C63.9746 11.1775 63.7715 11.3271 63.6042 11.5125C63.4368 11.6978 63.3086 11.915 63.2273 12.151C63.146 12.387 63.1132 12.6371 63.131 12.8861C63.1283 13.1259 63.1733 13.3639 63.2633 13.5863C63.3533 13.8087 63.4865 14.0109 63.6553 14.1815C63.8241 14.352 64.025 14.4875 64.2465 14.5799C64.468 14.6723 64.7056 14.7198 64.9456 14.7198C65.8881 14.7098 66.6623 13.7527 66.6396 12.6248Z" fill="#9B7B23"/>
<path d="M73.4309 17.8647C73.8909 18.1938 74.4237 18.0632 74.4212 17.287C74.4212 16.0561 72.2195 13.7501 70.9653 13.6622C70.6285 13.6471 70.2716 13.6245 70.0755 13.9712C69.9533 14.1723 69.9038 14.4092 69.9354 14.6424C69.9669 14.8756 70.0776 15.0908 70.249 15.2522C71.2587 16.1833 72.3211 17.0555 73.4309 17.8647Z" fill="#9B7B23"/>
<path d="M61.4997 60.6889C60.8362 60.086 60.0068 59.777 59.1824 59.4756C58.8381 59.35 58.4133 59.2445 58.177 59.6741C57.976 60.0433 58.1092 60.405 58.363 60.7165C59.009 61.5053 59.9012 61.8394 60.8488 62.073C61.2559 62.1584 61.6179 62.0906 61.8089 61.6862C61.9999 61.2817 61.7963 60.9577 61.4997 60.6889Z" fill="#9B7B23"/>
<path d="M76.2634 56.3079C77.1707 56.3079 77.5201 55.6524 77.5904 54.851C77.5427 54.0347 77.2687 53.3916 76.3714 53.4016C75.4742 53.4117 74.9891 53.9392 74.974 54.8158C74.9589 55.6925 75.3485 56.3105 76.2634 56.3079Z" fill="#9B7B23"/>
<path d="M44.5294 52.8867C43.617 52.849 43.2727 53.4142 43.2727 54.2481C43.2727 55.0821 43.6397 55.5895 44.5294 55.6146C45.4191 55.6398 45.8062 55.1374 45.8012 54.2859C45.7962 53.4343 45.389 52.9218 44.5294 52.8867Z" fill="#9B7B23"/>
<path d="M51.9714 16.88C52.8309 16.8926 53.2281 16.2043 53.3462 15.3729C53.2557 14.5941 52.9114 13.9612 52.0669 13.9662C51.2224 13.9712 51.0364 14.672 51.0364 15.3879C51.0364 16.1039 51.1093 16.8675 51.9714 16.88Z" fill="#9B7B23"/>
<path d="M71.1864 20.2436C70.5103 20.3717 70.0127 20.7334 69.9951 21.4543C69.9775 22.2506 70.4048 22.851 71.2342 22.8862C71.9882 22.9163 72.3225 22.2808 72.3501 21.6302C72.3903 20.9093 71.9681 20.3968 71.1864 20.2436Z" fill="#9B7B23"/>
<path d="M47.1883 19.0453C46.472 19.0654 46.0824 19.6181 46.0875 20.3189C46.0925 21.0198 46.3388 21.6854 47.1757 21.718C48.0127 21.7507 48.2842 21.1428 48.3143 20.437C48.2766 19.6608 48.0102 19.0227 47.1883 19.0453Z" fill="#9B7B23"/>
<path d="M58.6071 37.5033L58.3809 37.5234L58.4965 37.546L58.6071 37.5033Z" fill="#9B7B23"/>
<path d="M86.9429 23.1598C87.7094 23.1598 87.8703 22.464 88.0211 21.8637C87.8954 21.1553 87.7346 20.5147 86.8549 20.4695C86.1009 20.4344 85.5429 21.1352 85.5982 22.13C85.6585 22.9288 86.3296 23.1598 86.9429 23.1598Z" fill="#9B7B23"/>
<path d="M87.3247 42.8564C86.3822 42.8765 86.2791 43.6452 86.2565 44.3636C86.2389 44.9589 86.4852 45.5392 87.1261 45.4965C87.9958 45.4412 88.1315 44.6625 88.2647 43.9692C88.2245 43.3538 87.9731 42.8413 87.3247 42.8564Z" fill="#9B7B23"/>
<path d="M87.6767 29.5077C87.1011 29.5077 86.8598 29.8619 86.8121 30.3618C86.7492 31.0074 87.6867 32.0021 88.2975 31.9494C88.9083 31.8966 88.8002 31.3088 88.9711 30.9672C88.9786 30.2086 88.3251 29.5077 87.6767 29.5077Z" fill="#9B7B23"/>
<path d="M66.2853 96.8689C65.5966 96.9241 65.1241 97.2733 65.1367 98.0621C65.1492 98.8508 65.5539 99.2778 66.333 99.3356C67.0393 99.318 67.5897 99.0995 67.6651 98.3158C67.6751 98.1289 67.6467 97.9419 67.5817 97.7663C67.5168 97.5908 67.4166 97.4303 67.2874 97.2949C67.1582 97.1594 67.0027 97.0517 66.8304 96.9785C66.658 96.9052 66.4725 96.8679 66.2853 96.8689Z" fill="#9B7B23"/>
<path d="M54.3266 97.0296C54.3693 96.1428 53.7787 95.8138 53.0272 95.5776C52.9046 95.5865 52.7849 95.6196 52.6753 95.6751C52.5656 95.7306 52.468 95.8073 52.3883 95.9008C52.3085 95.9943 52.2482 96.1027 52.2107 96.2197C52.1733 96.3368 52.1595 96.46 52.1701 96.5824C52.1701 97.336 52.6904 97.763 53.4268 97.8233C53.9823 97.866 54.2939 97.5847 54.3266 97.0296Z" fill="#9B7B23"/>
<path d="M75.9618 104.962C75.3133 105.01 75.0193 105.465 74.9715 106.06C74.9062 106.892 75.6526 107.605 76.6379 107.623C77.0802 107.65 77.4824 107.592 77.4371 106.902C77.3743 105.98 76.6203 104.915 75.9618 104.962Z" fill="#9B7B23"/>
<path d="M89.6775 45.828V46.0792C89.651 46.0218 89.63 45.9621 89.6147 45.9008C89.6097 45.8832 89.6549 45.8531 89.6775 45.828Z" fill="#B9A748"/>
<path d="M89.6671 47.5864C89.6671 47.6718 89.6671 47.7572 89.6671 47.8376C89.6378 47.7806 89.6143 47.7208 89.5967 47.6592C89.6018 47.6441 89.6445 47.614 89.6671 47.5864Z" fill="#B9A748"/>
<path d="M103.453 70.4052C103.86 68.6468 102.975 66.8659 102.179 65.3461L102.201 65.3637C101.938 64.6479 101.578 63.9717 101.131 63.3541C99.0194 59.0335 95.664 55.5419 92.1603 52.3994L92.203 52.422C89.8229 40.2489 96.8227 25.4333 89.0211 14.6444C88.9507 14.5515 88.8803 14.461 88.8125 14.3681H88.8326C88.629 13.8506 88.2646 13.4713 87.8775 13.0141H87.8976C87.6563 12.7445 87.4167 12.4741 87.1788 12.2028L87.2089 12.2254C87.0229 12.0495 86.8395 11.8737 86.661 11.6928L86.6786 11.7179L86.1458 11.2432H86.1583L85.1806 10.4268L85.2033 10.4469L84.4492 9.89675L84.4693 9.90932L84.1476 9.67572L84.1904 9.71841C83.9566 9.59532 83.7581 9.33412 83.4715 9.38939C83.4087 9.15326 83.082 9.08793 82.906 8.93219L82.9337 8.95727L82.4184 8.66339L81.873 8.46494C81.9065 8.55133 81.9459 8.63527 81.9911 8.71613C81.4181 7.96254 80.2091 7.71134 79.2867 7.46015V7.50289C71.1006 5.61891 60.2579 4.58896 52.2804 7.52043C52.2799 7.51458 52.2799 7.50874 52.2804 7.50289C51.5967 7.60337 51.1544 7.9927 50.521 8.29162V8.27905C50.0239 8.41126 49.5672 8.66412 49.1914 9.0151L48.734 9.32407C48.7641 9.30146 48.7666 9.30146 48.734 9.32407L48.4374 9.54258C48.4386 9.52921 48.4386 9.51578 48.4374 9.50241C47.3943 10.1028 46.4996 10.9543 45.547 11.7004L45.5998 11.6602C45.4163 11.836 45.2379 12.0169 45.0619 12.2028L45.0896 12.1802C43.4358 14.245 41.8046 16.4505 41.1888 19.0981C40.862 19.1961 41.0656 19.6407 40.9877 19.8994H41.0028C38.9493 25.476 39.912 32.3036 39.8165 38.2369C39.7712 38.9 40.0326 39.7441 38.9946 39.7089C36.4812 40.0154 33.9377 40.6333 31.4544 40.8694L31.4946 40.7991C30.992 41.1909 30.2832 41.0076 29.6925 41.2789V41.1909C28.9662 41.3969 28.1845 41.299 27.4858 41.608C27.1952 41.8084 26.9475 42.0645 26.7569 42.3616L26.7896 42.3364C23.9344 50.0406 35.2245 46.8328 39.4822 47.8C39.1027 50.543 40.4875 54.213 38.5296 56.3758L38.5497 56.3507L38.2783 56.6521L38.316 56.6145L38.0646 56.9285L38.0973 56.8958C38.0068 56.9938 37.9163 57.0917 37.8284 57.1922L37.8585 57.1646C37.7256 57.3552 37.5768 57.5341 37.4137 57.6996C34.933 61.2691 26.033 68.2072 31.6329 71.9727L31.5399 72.0405C30.4013 78.8228 22.6676 98.4162 34.938 98.1902L34.9053 98.2153C35.4658 98.1072 35.7297 97.3386 36.2776 97.4793C37.013 97.7912 37.8346 97.8351 38.599 97.6032C39.3634 97.3713 40.0221 96.8785 40.4599 96.2107L40.4398 96.2333C41.141 94.8543 40.6911 93.136 42.1112 95.4295L42.076 95.3993L42.3273 95.7108L42.2771 95.6707C43.2482 96.7417 44.3453 97.6914 45.5445 98.4991H45.5269L45.8637 98.7076L45.8486 98.68C45.9617 98.7026 46.3035 99.0291 46.2809 98.9739L46.8062 99.2652L46.7861 99.2477L47.3089 99.5164L47.2913 99.5014L47.8292 99.7526L47.794 99.7174L48.7616 100.044C48.6008 101.421 49.5508 103.86 47.8065 104.345L47.8241 104.327C47.6432 104.427 47.0701 104.922 47.0927 104.814C46.4267 105.382 45.7104 105.874 45.0267 106.382L45.072 106.314C42.9833 108.193 40.6358 109.831 38.688 111.893C34.2744 117.186 43.9083 117.017 47.0073 116.003C49.0004 115.427 51.0287 114.937 52.8006 113.8C53.145 113.578 53.3033 113.591 53.5848 113.943C57.8576 118.271 60.8359 112.498 59.9035 108.306C59.5617 107.482 59.9739 105.834 58.7649 105.859L57.8526 105.734C57.7394 104.593 58.0511 103.443 58.1165 102.3C62.1982 102.764 66.2875 102.983 70.3918 102.516C71.0705 103.809 71.357 106.661 70.3918 107.791C68.6827 110.157 58.9911 116.033 63.573 118.645C66.8228 120.597 73.6417 118.751 76.4818 116.636H76.4541L76.9392 116.357H76.9518C77.8013 115.588 79.6059 118.567 82.2048 116.595L82.4838 116.372C82.5806 116.336 82.6633 116.27 82.7195 116.184C82.7757 116.097 82.8023 115.995 82.7954 115.892C84.414 113.782 83.3785 110.529 82.9211 108.077L82.9387 108.107C82.7829 107.62 82.4109 107.316 82.0288 107L82.348 107.281C82.3273 107.199 82.2824 107.126 82.2192 107.07C82.1559 107.015 82.0773 106.98 81.9937 106.97L82.0112 106.987C81.7096 106.809 81.3754 106.666 81.0863 106.522C80.9883 104.355 80.9456 102.182 80.6364 100.029C81.9132 99.4562 83.3584 99.0618 84.6729 98.4212L84.6453 98.4564L84.977 98.2505C85.5 97.9469 85.9976 97.6016 86.465 97.218L86.4474 97.2909L86.759 96.9945L86.7088 97.0472L87.0104 96.7433L86.9626 96.7658C87.2517 96.6201 87.2592 95.7159 87.8649 96.4318L87.7971 96.472C90.23 98.5142 90.7604 96.3991 91.4138 98.7327L91.3988 98.7528C91.8192 99.2364 92.3138 99.6501 92.8641 99.9787V99.9134C94.1208 100.235 95.5861 100.26 96.7196 99.3532C97.7803 98.7528 98.7655 100.026 100.741 98.1776L100.723 98.2052L101.002 97.9339H100.98C101.27 97.6144 101.511 97.2539 101.696 96.8638H101.681C102.064 96.3698 102.361 95.8143 102.558 95.221C103.086 92.9602 102.81 90.7195 102.538 88.4939C102.478 88.4939 102.415 88.4939 102.352 88.4939C102.352 87.9438 102.473 86.9164 101.849 86.7355C100.467 82.6687 99.9393 78.3455 98.8484 74.2033C99.2807 74.1882 99.6376 73.9646 100.037 73.8265C100.037 73.8817 100.419 73.6205 100.54 73.5753C100.414 73.721 100.739 73.4472 100.809 73.4095C100.841 73.3572 100.862 73.2992 100.872 73.2387C100.942 72.4851 101.498 73.2387 101.608 72.7162C101.797 72.7162 101.859 72.6157 101.895 72.4449L101.852 72.4801C103.342 71.3497 103.254 69.1693 102.817 67.6119C103.248 68.9578 103.176 70.414 102.616 71.7114C103.053 71.3924 103.187 70.8574 103.453 70.4052ZM102.118 94.9572C101.96 95.6053 101.824 96.2584 101.671 96.909C101.824 96.2484 101.96 95.5953 102.118 94.9572ZM88.8225 14.4008C88.7471 14.3756 88.6642 14.3581 88.5913 14.3329C88.6642 14.348 88.7471 14.3656 88.8225 14.3907V14.4008ZM74.7878 8.87442C84.6277 8.91963 90.9438 18.4802 90.9463 27.5911L90.8081 27.5158C90.6799 33.0421 90.0868 38.6237 89.6972 44.0948H89.7801C88.9733 53.8588 92.6203 49.5131 84.1426 53.8915C82.7024 55.0219 83.464 53.374 83.1372 53.0952C82.7511 48.5899 82.7595 44.0595 83.1624 39.5556H83.2554C83.0292 38.2243 83.4188 36.8628 83.4288 35.5365H83.5218C84.3814 25.9508 83.7254 14.4234 74.7878 8.85933V8.87442ZM41.4879 30.2463C41.033 20.0677 46.3538 9.51244 57.365 8.35191C66.1342 6.69149 76.62 8.90705 79.9855 18.1486C82.9739 25.5539 81.2849 33.5998 81.0335 41.3165C80.742 45.5542 80.6967 49.8271 81.2019 54.0623C81.3578 55.4112 81.0386 56.3482 79.9679 57.3003C72.0984 64.5473 60.8108 67.9811 50.5084 64.4242C40.3594 60.0835 40.9927 58.9481 41.4602 48.7771C40.6107 46.8027 48.45 48.3451 49.7871 48.006C49.7393 48.5083 49.3673 49.0258 49.2015 49.5332H49.2266C48.935 50.219 48.5932 50.8545 48.4726 51.588L48.4977 51.5729C45.3183 58.5462 52.5191 58.2171 55.7689 54.3135C59.1294 51.7035 64.1662 54.419 66.9762 56.8255C67.7955 57.4384 68.6953 59.0385 69.8364 58.1644C70.2963 57.785 70.1154 57.3455 69.9143 56.9209C67.8785 52.9495 62.9924 51.2891 58.8227 51.3067C59.7125 49.0735 61.4794 47.1242 63.1106 45.3056C64.6814 47.4508 68.7556 50.3547 71.0906 48.2647C71.0403 47.8653 70.5653 47.9306 70.2687 47.9105C68.8235 47.7974 67.1295 47.4558 66.1115 46.4209C65.7208 46.2475 65.3688 45.9977 65.0761 45.6862C64.7834 45.3747 64.5561 45.0079 64.4075 44.6072C67.4235 46.1144 72.0457 45.8632 72.7017 41.8214C72.7645 41.7584 72.8095 41.6799 72.832 41.5939C72.8545 41.5078 72.8538 41.4173 72.8298 41.3316C72.7821 41.4924 72.488 41.5828 72.6363 41.7964C72.1336 41.7084 72.0306 42.3515 71.6033 42.4972C71.6033 42.4972 71.6033 42.4796 71.6033 42.4696C69.8439 43.7255 67.6975 43.5497 65.6818 43.0171L65.7144 43.0423L65.1816 42.7634L64.4276 42.261L64.1586 42.0274L64.1838 42.05C64.001 41.8938 63.8381 41.7158 63.6987 41.52H63.7138C63.935 40.1409 60.0417 36.1193 63.5102 36.9306C65.8853 36.5614 65.4933 40.048 68.1097 39.5531C69.115 39.5029 69.5951 38.7995 69.8188 37.9806C70.6055 35.971 74.265 39.6712 74.9361 37.1592C75.2477 34.6799 60.5871 35.6093 61.9946 33.5395C63.754 26.624 64.8021 32.3136 70.1757 32.6502C71.2791 32.7808 73.7497 32.9793 73.6467 31.339C73.5998 31.0896 73.4627 30.8662 73.2615 30.7115C73.0603 30.5567 72.8091 30.4814 72.5559 30.5C68.6023 30.5 64.2617 28.4276 63.3267 24.2753C63.2061 23.7579 63.0477 23.1575 62.3214 23.2203C60.6324 23.8106 61.6277 26.2346 61.9167 27.4906C63.4675 28.8144 61.2984 29.6861 60.8209 30.9697H60.8385C60.7052 31.3867 60.1473 31.8087 60.3106 32.2257C59.3907 33.7329 59.906 35.6219 59.808 37.3074C59.6521 37.2597 59.6597 37.3903 59.627 37.5034C59.245 37.2949 58.8026 37.5561 58.408 37.5185C55.0979 38.1992 59.8934 33.6575 56.2465 29.7791C55.1708 29.0456 54.4871 28.2719 55.686 27.0335C57.0458 25.7097 56.3495 20.7661 54.6807 24.5215C53.1374 28.3297 49.7871 30.0277 45.8411 30.0277C44.6799 30.0277 44.4863 31.7685 45.6249 31.9695C48.1936 32.698 50.8528 31.4671 52.9942 30.0579C53.7758 29.3168 55.2562 31.4294 55.4296 32.2157C55.9876 34.0419 55.8519 34.2127 54.0221 34.2755C51.2273 34.3734 48.3695 34.7779 45.6023 34.3534C44.8257 34.4312 44.4235 35.0165 44.4939 35.7726C44.8231 36.9557 45.9114 36.3227 46.585 36.6644C46.9595 36.8528 47.804 36.3228 47.6809 37.1417C47.5854 37.7822 47.7512 38.7795 46.5021 38.8272C44.886 38.89 43.295 39.3296 41.6613 39.2618C41.5809 36.2625 41.4753 33.2556 41.4879 30.2463ZM52.3382 47.9205C53.243 48.2672 59.25 47.1669 58.4683 48.3526C54.7209 55.4087 44.6472 59.7168 52.3382 47.9205ZM48.6586 52.4898C48.6862 52.2059 48.4072 51.8266 48.5002 51.5629C48.4047 51.8266 48.6862 52.2059 48.6586 52.4898ZM64.2793 44.454L64.3698 44.5645C64.2944 44.5595 64.2692 44.5344 64.2793 44.4666V44.454ZM54.7284 37.2095C54.1654 38.1515 53.1349 37.8249 52.3231 38.0912C51.7676 37.6441 51.6545 36.9633 51.4082 36.3529L55.0702 36.2976L54.7158 37.212L54.7284 37.2095ZM27.1817 42.04C27.5687 41.9471 28.001 41.9847 28.3931 41.9018C28.001 41.9847 27.5687 41.9546 27.1817 42.04ZM32.7865 46.0592C31.4092 46.0768 30.0218 45.7627 28.6042 45.7803C27.7748 44.2731 28.0513 43.2131 29.7277 42.8338V42.8689C34.2093 42.4913 38.6599 41.8091 43.0487 40.8267V40.8694C48.6561 40.3419 54.3941 39.4904 60.0694 39.0884C62.2987 40.8091 62.4118 43.502 60.3408 45.5593C57.9807 46.0818 55.3593 45.9687 52.8333 46.1245L32.7865 46.0592ZM31.7988 68.1896C33.8095 64.9617 36.2173 61.6083 38.8966 59.0913C38.8463 60.4151 37.4539 72.8067 36.1067 71.9903C34.5559 72.033 30.7507 69.5863 31.7988 68.1871V68.1896ZM39.0348 92.807C39.4797 95.2411 37.3257 97.4466 35.9685 94.5653H35.9911C34.5585 93.759 35.5814 91.0235 33.729 90.5613C31.3514 92.179 37.0894 99.8556 31.7032 95.221C27.5788 88.6899 31.9018 80.6164 32.9197 73.6859C33.254 72.4726 35.041 74.6203 36.0464 74.2284C36.529 74.2033 36.4058 74.5374 36.3329 74.8338C35.9961 77.6472 32.7589 86.944 34.0306 88.725C35.1692 90.2799 40.1382 90.614 39.0348 92.807ZM58.1139 108.632C57.8626 110.182 58.9157 112.807 56.9276 113.433C55.3693 113.89 55.4347 112.561 55.5679 111.423C55.7664 108.025 50.2697 115.586 40.9198 114.611C36.3128 114.48 47.4119 107.515 48.2841 106.444C50.2772 105.611 51.9184 108.165 53.8588 108.326C55.1079 108.384 57.9657 106.578 58.1139 108.622V108.632ZM55.6006 106.012C53.9995 106.45 52.1572 105.51 50.8452 104.601C50.7824 103.438 50.3425 101.838 50.991 101.23C51.6395 100.622 53.15 101.481 54.2584 101.709C56.1485 102.101 56.1811 102.149 56.063 104.166C56.053 104.771 56.5556 105.595 55.6106 106.01L55.6006 106.012ZM73.8226 117.927C73.9483 117.927 74.074 117.942 74.1996 117.944C74.0865 117.932 73.9583 117.919 73.8327 117.917L73.8226 117.927ZM81.2924 109.574C81.4734 111.293 82.8834 115.184 80.2343 115.395C79.4375 115.395 79.2289 114.942 79.2289 114.164C79.5682 110.938 73.2496 118.826 65.7722 117.467C61.1174 117.683 70.2637 111.067 71.0353 109.896C74.0187 108.195 77.4721 112.408 80.3876 109.288C80.8853 108.866 81.1391 108.856 81.3025 109.564L81.2924 109.574ZM86.4926 93.8344C85.1957 96.1203 82.989 97.3738 80.5208 97.9289C78.6609 98.464 78.6559 98.4514 78.7489 100.355C78.9751 102.46 79.0756 104.586 79.1033 106.708C79.1234 110.011 75.1799 107.392 73.3501 107.522C72.6464 107.894 72.9078 101.536 72.6564 100.599C71.1484 99.6169 68.6626 101.127 67.2853 100.363C59.2651 101.054 47.2134 100.476 42.6189 92.7618C54.3413 95.6229 66.9988 96.7809 79.063 94.4423C81.2321 93.9725 83.3886 93.4626 85.5099 92.807C86.5379 91.9629 87.2366 92.7417 86.5027 93.8243L86.4926 93.8344ZM86.4926 89.6469C84.2808 92.7166 73.609 93.0758 69.6529 93.6435C58.594 94.0353 47.0751 93.0205 36.8959 88.3683C33.7064 87.9187 40.764 65.7003 40.7892 61.6183C40.9374 60.8798 41.0405 60.6587 41.6864 61.2943C47.5778 66.8683 56.6361 69.0387 64.5055 67.21L64.5256 67.2778C78.2713 66.3509 86.9149 48.1165 92.9395 56.0392C94.3671 56.8807 102.777 67.8229 100.294 68.2349C98.3826 68.4054 96.5136 68.8944 94.7642 69.6817L94.7768 69.6642C93.5201 70.041 92.1301 70.4956 90.9866 71.1714C83.1649 75.6502 87.7518 73.5125 84.5498 66.5016C84.0898 65.2029 82.0942 65.8007 82.7276 67.1271C83.5469 69.953 83.9189 72.8745 84.5824 75.7331C84.7458 75.394 84.9092 75.5874 85.0726 75.7331C87.5256 75.9014 87.5633 75.8964 88.0685 78.3204C88.4179 79.9959 88.6541 81.6915 88.9457 83.377C88.5863 85.5247 86.382 87.1551 86.5077 89.6369L86.4926 89.6469ZM100.221 87.3837C102.734 92.5935 98.4438 100.431 98.0542 96.0273C97.8758 95.01 98.6926 92.9954 97.4284 92.596C96.0309 92.905 96.6744 95.1708 96.1918 96.2434C95.5634 99.509 91.9618 97.8611 92.7283 95.2235C92.9319 93.8947 93.7915 90.3528 92.0045 90.074C90.7151 90.913 92.3463 94.9296 90.0817 95.3943C87.5935 94.3292 87.8348 88.0719 90.0817 86.1226C91.9542 84.0477 90.0541 78.8906 89.7625 76.1777C89.1166 73.834 89.1141 73.829 91.3485 72.877C92.7032 72.666 95.1412 70.2972 95.8374 72.3193C97.7049 77.2327 98.2176 82.5205 100.228 87.3761L100.221 87.3837ZM100.884 70.8046C100.108 71.8647 97.9964 73.2035 97.6345 71.2216C97.3605 70.1766 99.8965 70.4102 100.794 70.0635C101.043 70.0887 101.181 70.5911 100.892 70.787L100.884 70.8046Z" fill="#1D2831"/>
<path d="M54.1257 44.238C55.4578 44.253 58.5116 44.66 59.0771 43.2633C58.4789 41.937 55.6614 43.1251 54.4122 43.0121C53.236 42.9593 53.0198 43.7456 54.1257 44.238Z" fill="#1D2831"/>
<path d="M41.9102 43.3236C40.9954 43.4265 39.5678 42.9418 39.0399 43.9214C38.59 46.4585 45.5697 44.3711 41.9102 43.3236Z" fill="#1D2831"/>
<path d="M102.551 95.2561L102.254 96.0323C102.599 95.8665 102.576 95.5625 102.551 95.2561Z" fill="#1D2831"/>
<path d="M46.2939 105.407C46.3489 105.484 46.3564 105.439 46.3439 105.362L46.2939 105.407Z" fill="#1D2831"/>
<path d="M45.3085 106.135V106.198C45.3232 106.192 45.3361 106.183 45.3459 106.171C45.3556 106.158 45.3616 106.144 45.3634 106.128L45.3085 106.135Z" fill="#1D2831"/>
<path d="M40.1627 96.693C40.154 96.7004 40.1459 96.7086 40.1384 96.7172L40.1627 96.693Z" fill="#1D2831"/>
<path d="M44.0645 13.4706C44.0645 13.4706 44.079 13.4584 44.0814 13.4512L44.0645 13.4706Z" fill="#1D2831"/>
<path d="M44.572 12.7679C44.572 12.7679 44.6595 12.7904 44.6595 12.7679H44.572Z" fill="#1D2831"/>
<path d="M44.0543 107.195C44.0868 107.18 44.0893 107.15 44.0918 107.115L44.0543 107.195Z" fill="#1D2831"/>
<path d="M91.3559 98.8203L91.3884 98.7753C91.3561 98.7703 91.3232 98.7703 91.291 98.7753L91.3559 98.8203Z" fill="#1D2831"/>
<path d="M88.0362 96.7855H88.0987C88.098 96.7699 88.0926 96.7549 88.0832 96.7424C88.0739 96.7299 88.061 96.7206 88.0462 96.7156L88.0362 96.7855Z" fill="#1D2831"/>
<path d="M101.563 72.912C101.563 72.912 101.548 72.9121 101.546 72.9265L101.563 72.912Z" fill="#1D2831"/>
<path d="M82.6951 107.623C82.6951 107.623 82.6951 107.642 82.7096 107.647L82.6951 107.623Z" fill="#1D2831"/>
<path d="M65.6193 46.0968C65.6193 46.0968 65.6193 46.0968 65.632 46.1094L65.6193 46.0968Z" fill="#1D2831"/>
<path d="M66.3581 46.6117C66.3581 46.6242 66.3806 46.6242 66.3931 46.6292L66.3581 46.6117Z" fill="#1D2831"/>
<path d="M66.107 46.3555C66.1057 46.3713 66.1057 46.3872 66.107 46.403H66.1195L66.107 46.3555Z" fill="#1D2831"/>
<path d="M88.0916 78.2903C87.5889 75.8662 87.5487 75.8713 85.0956 75.703C84.9322 75.5573 84.7689 75.3639 84.6055 75.703V75.6125C84.5753 76.1551 84.52 76.6952 84.515 77.2378C84.4849 79.8251 84.6357 82.42 84.2008 84.9948C83.8339 87.1676 83.6052 89.3656 82.9718 91.4882C83.9181 91.3183 84.8393 91.0305 85.7139 90.6316C86.1512 90.4432 86.4679 90.1996 86.5182 89.6268C86.6665 87.7328 87.4557 86.085 88.6018 84.6029C88.7542 84.4348 88.8671 84.2348 88.9323 84.0175C88.9975 83.8002 89.0134 83.5711 88.9788 83.3469C88.6772 81.6614 88.4409 79.9658 88.0916 78.2903Z" fill="#2D8F88"/>
<path d="M80.4005 109.275C79.4077 110.114 78.2013 110.441 76.9496 110.637C77.2009 111.7 77.6609 112.732 77.4523 113.87C78.9151 112.988 79.2518 113.028 79.2468 114.151C79.2468 114.93 79.4529 115.385 80.2522 115.382C81.1218 115.382 81.6848 114.948 81.7426 114.033C81.8177 112.53 81.6721 111.023 81.3103 109.562C81.1394 108.856 80.8855 108.866 80.4005 109.275Z" fill="#2D8F88"/>
<path d="M58.1143 108.622C58.1269 107.743 57.6619 107.552 56.9079 107.705C55.9025 107.914 54.8745 108.115 53.8591 108.321C54.015 109.074 54.1733 109.848 54.3291 110.612C55.2289 110.135 55.5557 110.544 55.5657 111.418C55.5656 111.67 55.5488 111.922 55.5155 112.172C55.3923 113.274 55.8497 113.679 56.928 113.428C57.7423 113.232 58.0816 112.631 58.1068 111.868C58.1445 110.783 58.0992 109.702 58.1143 108.622Z" fill="#2D8F88"/>
<path d="M49.4807 53.9719C49.2897 54.6451 49.3827 55.1123 50.099 55.3358C50.853 54.5496 50.8857 53.4619 51.22 52.5124C51.8182 50.8093 53.0196 49.498 53.8515 47.9381L52.3435 47.9205C51.0307 49.7479 50.0607 51.7982 49.4807 53.9719Z" fill="#2D8F88"/>
<path d="M47.0051 66.6523C46.623 67.9384 46.1254 69.1919 45.6755 70.4554C45.6976 70.5139 45.7281 70.569 45.766 70.6187C45.7509 70.7217 45.7358 70.8272 45.7182 70.9302C45.6202 71.6838 45.5197 72.4374 45.4191 73.191C46.1003 72.3947 45.9218 71.3271 46.2988 70.4278C46.9724 68.8126 48.0808 67.4562 48.8323 65.9063C48.5364 65.6583 48.1695 65.5105 47.7842 65.4842C47.3925 65.7673 47.1158 66.182 47.0051 66.6523Z" fill="#2D8F88"/>
<path d="M101.02 70.2218C100.922 70.0585 100.751 70.0611 100.801 70.046C99.7961 70.2294 99.027 70.3424 98.2655 70.5283C97.9513 70.6036 97.3757 70.679 97.6421 71.204C97.8734 71.6561 97.9739 72.4776 98.7782 72.244C99.6206 71.9969 100.362 71.4862 100.892 70.787C101.015 70.6262 101.151 70.4378 101.02 70.2218Z" fill="#2D8F88"/>
<path d="M78.3093 87.0219C78.447 86.927 78.5663 86.8078 78.6612 86.6702C80.0964 84.8239 81.1746 82.8244 81.2902 80.1391C81.2902 80.217 81.3304 79.9984 81.2902 79.805C81.2048 79.4633 81.4033 78.9635 80.9308 78.8253C80.4583 78.6872 80.3351 79.1669 80.0913 79.4332C79.5158 80.0662 79.2217 80.8374 78.8824 81.6061C78.244 83.053 77.9851 84.6506 77.123 86.0046C76.7887 86.5271 76.183 87.3208 76.5575 87.6348C77.0527 88.0518 77.7463 87.361 78.3093 87.0219Z" fill="#2D8F88"/>
<path d="M71.4452 89.265C70.4399 89.2499 69.4345 89.265 68.4292 89.265V89.2951C68.0119 89.2951 67.5922 89.2951 67.1725 89.2951C66.3355 89.2951 65.496 89.275 64.6591 89.3579C64.2192 89.4006 63.6964 89.579 63.6688 90.1517C63.6411 90.6717 64.1262 90.7822 64.5007 90.9606C65.1881 91.2752 65.9393 91.4257 66.6949 91.4002C68.4141 91.3499 70.2338 91.6513 71.7217 90.4154C72.0032 90.1869 72.4556 90.0337 72.2947 89.5664C72.1867 89.1645 71.7644 89.27 71.4452 89.265Z" fill="#2D8F88"/>
<path d="M87.6692 63.0777C88.1593 63.1305 88.2951 62.6356 88.4232 62.2211C88.4022 61.9951 88.3078 61.7823 88.1544 61.6149C88.0011 61.4475 87.7971 61.3349 87.5737 61.2942C87.1816 61.2364 87.0434 61.6811 87.071 62.0026C87.1112 62.4296 87.0987 63.0175 87.6692 63.0777Z" fill="#2D8F88"/>
<path d="M55.8524 45.828C55.8524 45.8908 55.8524 45.9536 55.8524 46.0164L56.159 45.9561L55.8524 45.828Z" fill="#2D8F88"/>
<path d="M57.9257 45.8631L57.5462 45.8807C57.571 45.9068 57.6012 45.9273 57.6346 45.9407C57.6681 45.9542 57.704 45.9602 57.74 45.9586C57.776 45.9569 57.8112 45.9475 57.8432 45.931C57.8753 45.9146 57.9034 45.8914 57.9257 45.8631Z" fill="#2D8F88"/>
<path d="M100.626 67.0542C98.8964 62.8039 96.2674 59.1691 92.9648 56.0216C90.0116 53.2107 89.3405 53.1756 85.8168 55.3409C83.708 56.6371 81.8506 58.2623 79.958 59.8423C76.2307 62.9597 72.1665 65.439 67.3911 66.6247C66.4637 66.9211 65.5362 67.225 64.5485 67.2527L64.5284 67.1848C61.927 68.0062 59.2729 67.8807 56.6112 67.647L56.0909 67.6194C54.736 67.5096 53.3964 67.257 52.0946 66.8658L48.8272 65.861C48.0732 67.4209 46.9673 68.7774 46.2937 70.3826C45.9142 71.2894 46.0952 72.357 45.414 73.1457C45.321 73.6481 44.9742 74.3816 45.4995 74.6127C46.1932 74.9167 47.0477 74.9117 47.8369 74.9293C48.1963 74.9293 48.0883 74.467 48.1561 74.2058C48.4075 73.3618 48.2592 72.46 48.5432 71.611C48.8272 70.7619 49.3324 70.1565 50.2498 70.2947C51.1672 70.4328 51.4235 71.1738 51.3255 72.0103C51.0742 74.2485 50.7675 76.4842 50.5011 78.7198C50.3453 80.0462 50.1719 81.3725 50.094 82.7013C50.0462 83.5403 49.7546 84.098 48.89 84.1507C48.0254 84.2035 47.5881 83.7262 47.4122 82.9224C47.1055 81.5333 47.4675 80.1592 47.6509 78.8178C47.759 78.0391 47.5001 77.8808 46.8768 77.813C46.628 77.7829 46.3812 77.7375 46.1379 77.6773C45.0747 77.4513 44.5218 77.7703 44.5142 78.9685C44.5099 79.9729 44.3453 80.9701 44.0266 81.9226C43.7627 82.7089 43.1972 83.0781 42.3779 82.9274C41.5585 82.7767 41.4454 82.1562 41.5233 81.483C41.9506 77.8356 42.3887 74.1899 42.8378 70.5459C42.8582 70.2912 42.9591 70.0496 43.1257 69.8559C43.2924 69.6623 43.5164 69.5265 43.7652 69.4682C44.6097 69.2874 45.1753 69.8174 45.6704 70.4178C46.1203 69.1618 46.6179 67.9058 47 66.6146C47.104 66.1333 47.3813 65.7069 47.7791 65.4164C45.5799 64.281 43.4812 62.9949 41.7193 61.239C41.0809 60.6035 40.9653 60.8245 40.8221 61.5631C39.1884 69.7898 37.5547 78.014 35.8456 86.2256C35.6143 87.3484 35.9285 87.8383 36.9288 88.3131C40.6417 90.0444 44.5546 91.31 48.5784 92.081C52.2354 92.7291 55.9125 93.2365 59.6122 93.553L60.3888 93.5932H61.5575L61.8818 93.6435L63.8925 93.7239H64.1438C65.4845 93.7908 66.8283 93.7639 68.1652 93.6435L68.4945 93.6083H69.6707L70.7892 93.5154C74.8961 93.1411 78.9879 92.6638 82.954 91.4631C83.5874 89.3405 83.8161 87.1425 84.1831 84.9696C84.6179 82.3948 84.4671 79.8 84.4972 77.2127C84.4972 76.6701 84.5575 76.1299 84.5877 75.5874C83.9066 72.7639 83.5648 69.8676 82.7429 67.0718C82.5996 66.5694 82.5142 66.0293 83.1375 65.7882C83.8035 65.537 84.271 65.8661 84.5651 66.4488C84.7505 66.822 84.9084 67.2082 85.0376 67.6044C85.6107 69.315 85.8318 71.101 86.0932 72.8795C86.2139 73.6909 86.4929 73.8843 87.2016 73.3568C88.1743 72.6408 89.1445 71.9124 90.278 71.4476L91.0019 71.1211L90.9868 71.1487C91.0974 70.9277 91.311 70.9151 91.5196 70.885C91.6132 70.7871 91.729 70.7133 91.8572 70.6696C91.9853 70.6259 92.1222 70.6135 92.2561 70.6338C92.8314 70.1793 93.5343 69.9158 94.2668 69.8802C94.3673 69.6491 94.5885 69.6641 94.7896 69.629L94.7669 69.6516C96.5212 68.8595 98.3965 68.3687 100.314 68.1997C101.417 68.1042 100.792 67.4285 100.626 67.0542ZM58.2273 73.4648C57.8553 73.417 57.4733 73.4648 57.1013 73.4196C56.0959 73.2814 55.5329 73.4622 55.46 74.7132C55.3645 76.3711 55.2313 76.4113 56.9455 76.6374C57.8578 76.758 58.3655 77.1398 58.2851 78.0617C58.2047 78.9836 57.7372 79.5487 56.6589 79.5437C56.0984 79.5437 55.2238 78.9309 54.9976 80.1617C54.6834 81.8699 54.6306 81.8623 56.3699 82.1286C56.7821 82.1914 57.2043 82.1964 57.6266 82.2743C58.3479 82.4124 58.7073 82.8445 58.6319 83.6056C58.5616 84.3266 58.2348 84.7661 57.4557 84.7862C55.8119 84.8239 54.2109 84.535 52.6149 84.2034C51.8156 84.0402 51.7226 83.4348 51.793 82.7515C52.108 79.6383 52.4214 76.526 52.733 73.4145C52.733 73.2914 52.7883 73.1633 52.7908 73.0453C52.8713 70.154 53.1628 70.4479 55.8069 70.4554C56.7264 70.4422 57.6447 70.5264 58.5465 70.7066C59.4362 70.8875 59.8384 71.4602 59.7906 72.3093C59.7177 73.2463 59.1371 73.5803 58.2273 73.4648ZM60.15 82.8018L60.1953 82.5305C60.4014 80.0085 60.6066 77.4864 60.811 74.9644C60.7945 74.9052 60.7827 74.8447 60.7759 74.7835C60.7759 74.7584 60.8161 74.7333 60.8387 74.7107C60.9216 74.0475 60.9644 73.3794 61.09 72.7288C61.2685 71.8521 61.6505 71.091 62.7338 71.2216C63.8171 71.3522 63.8497 72.2691 63.8397 73.0428C63.8196 74.4168 63.6864 75.7908 63.5733 77.1624C63.4677 78.451 63.3797 79.7447 63.1887 81.0233C63.0706 81.8246 63.3295 82.0758 64.096 82.0482C64.5557 82.0642 65.0135 82.1137 65.4658 82.1964C66.2199 82.2743 66.8884 82.4024 66.808 83.4298C66.7276 84.4572 66.3682 84.9646 65.2547 84.8641C64.1413 84.7636 63.0832 84.7938 61.9873 84.7611C60.1978 84.7109 60.1425 84.6582 60.15 82.8018ZM71.7518 90.4105C70.2438 91.6364 68.4316 91.345 66.7251 91.3953C65.9694 91.4208 65.2182 91.2703 64.5309 90.9557C64.1564 90.7773 63.6713 90.6668 63.6989 90.1468C63.7266 89.5741 64.2494 89.3932 64.6892 89.353C65.5161 89.2701 66.3556 89.3002 67.2026 89.2902C67.6198 89.2902 68.0396 89.2902 68.4593 89.2902V89.2601C69.4646 89.2601 70.47 89.2601 71.4754 89.2601C71.7946 89.2601 72.2168 89.1596 72.355 89.5565C72.4857 90.0287 72.0333 90.1844 71.7518 90.4105ZM72.8175 80.0261C71.2215 79.9783 71.2316 79.9783 71.1612 81.5684C71.1285 82.2743 71.0958 82.9876 70.9953 83.686C70.8445 84.7309 70.0729 85.3589 69.1052 85.1931C67.9893 85.0098 67.9466 84.1633 68.0245 83.274C68.3135 79.9507 68.6553 76.6324 68.8639 73.304C68.9318 72.2188 69.4119 71.739 70.3569 71.4728C71.9353 71.0257 73.5213 71.1638 75.062 71.5431C76.7007 71.9476 77.5351 73.4572 77.4773 75.5849C77.417 78.2676 75.4742 80.1064 72.8175 80.0261ZM81.2901 80.1391C81.172 82.8244 80.0963 84.8239 78.6611 86.6702C78.5662 86.8078 78.4469 86.927 78.3093 87.0219C77.7463 87.361 77.0526 88.0518 76.5499 87.6348C76.1754 87.3208 76.7811 86.5271 77.1154 86.0046C77.9775 84.6506 78.2364 83.053 78.8748 81.6061C79.2141 80.8374 79.5081 80.0662 80.0837 79.4332C80.3351 79.1669 80.4607 78.6796 80.9232 78.8253C81.3857 78.971 81.1972 79.4633 81.2826 79.805C81.3304 79.9984 81.2901 80.217 81.2901 80.1366V80.1391ZM87.6691 63.0778C87.0986 63.0175 87.1112 62.4297 87.076 62.0027C87.0483 61.6811 87.1866 61.249 87.5786 61.2943C87.802 61.3349 88.006 61.4476 88.1594 61.6149C88.3128 61.7823 88.4072 61.9952 88.4282 62.2212C88.295 62.6356 88.1592 63.1305 87.6691 63.0778Z" fill="#4EAAA2"/>
<path d="M32.7865 46.0566L52.8283 46.1219H53.8487L55.1054 46.0315L55.8595 45.8179L55.8368 45.838L56.1309 45.9662L56.807 45.936L57.1639 45.921L57.5309 45.8908L57.9104 45.8732L58.7951 45.8054L59.8231 45.7928C59.9236 45.5793 60.1398 45.6044 60.3258 45.5667C62.3968 43.5094 62.2837 40.8166 60.0543 39.0959H59.1671L58.6141 39.2315L47.1908 40.3745L46.7987 40.5026L45.8059 40.583L45.0519 40.7463C44.3808 40.7865 43.7273 41.0427 43.0412 40.887V40.8443C40.842 41.5627 38.5171 41.5652 36.2751 42.0676C35.5915 42.2208 34.8953 42.3188 34.2041 42.4444L33.0102 42.6127L31.8641 42.6328L31.4746 42.7609L29.7152 42.8865V42.8513C29.4186 43.1879 28.9888 43.0422 28.6269 43.1502C27.9533 44.0244 28.0589 44.9086 28.5917 45.7954L31.4846 45.9511C31.9204 45.8731 32.369 45.9095 32.7865 46.0566ZM53.3963 43.4969C53.4843 42.9694 54.0272 43.0447 54.4143 42.9945C55.5679 42.8689 56.7241 42.7433 57.8802 42.6855C58.3477 42.6604 59.0138 42.6001 59.0791 43.2557C59.1394 43.8385 58.4985 43.8636 58.0888 44.0093C57.7316 44.1068 57.3691 44.184 57.0031 44.2405C56.0472 44.3397 55.0836 44.3397 54.1277 44.2405C53.8864 43.9767 53.3184 43.9641 53.3938 43.4969H53.3963ZM39.0424 43.924C39.1856 43.512 39.5626 43.3839 39.9296 43.3562C40.5895 43.3077 41.2516 43.2968 41.9127 43.3236C42.3902 43.3411 42.8652 43.5321 42.9431 44.047C43.0211 44.562 42.5284 44.6876 42.1464 44.8408C41.9931 44.9011 41.8473 44.9739 41.699 45.0418C40.9752 45.0594 40.2463 45.1271 39.5325 44.9413C39.1605 44.7001 38.874 44.4088 39.0399 43.924H39.0424Z" fill="#4EAAA2"/>
<path d="M52.0319 107.57C51.2339 107.034 50.3651 106.611 49.4506 106.314C49.0284 106.188 48.6966 106.143 48.297 106.442C45.5649 108.519 42.8681 110.634 40.3522 112.973C40.033 113.272 39.5152 113.598 39.7188 114.078C39.9023 114.505 40.4728 114.563 40.9327 114.611C42.3531 114.726 43.7825 114.651 45.1829 114.387C48.5232 113.835 51.6725 112.805 54.3417 110.619C54.1858 109.866 54.0275 109.092 53.8717 108.328C53.2087 108.218 52.5795 107.959 52.0319 107.57Z" fill="#4EAAA2"/>
<path d="M72.7595 109.419C72.4577 109.351 72.1441 109.359 71.8458 109.44C71.5475 109.522 71.2736 109.675 71.0479 109.886C68.9794 111.707 67.0818 113.704 65.1063 115.623C64.7544 115.967 64.2341 116.334 64.3924 116.857C64.5784 117.464 65.2571 117.419 65.7849 117.457C70.133 117.763 74.0388 116.623 77.447 113.872C77.6606 112.734 77.2082 111.702 76.9443 110.639C75.6067 110.057 74.2005 109.647 72.7595 109.419Z" fill="#4EAAA2"/>
<path d="M36.9139 71.4702C37.7534 67.5114 38.3742 63.5173 38.9799 59.5208C39.0025 59.3776 38.9799 59.1364 38.8995 59.0887C38.721 58.9882 38.6155 59.2017 38.5124 59.3223C36.1046 62.1483 33.6591 64.9466 31.7992 68.1871C31.6182 68.5036 31.3241 68.8377 31.6685 69.2069C32.8598 70.4931 34.0034 71.8596 36.1071 71.9877C36.3962 72.0354 36.7933 72.0405 36.9139 71.4702Z" fill="#4EAAA2"/>
<path d="M56.355 47.9003H56.1036L53.8567 47.928C53.0247 49.4779 51.8233 50.7992 51.2252 52.5023C50.8909 53.4518 50.8607 54.5395 50.1042 55.3257C50.7675 55.4383 51.449 55.2985 52.0144 54.9339C54.7967 53.3563 56.8702 51.078 58.4738 48.3424C58.612 48.1038 58.7251 47.8928 58.3481 47.7798L56.355 47.9003Z" fill="#4EAAA2"/>
<path d="M72.9079 74.2008C71.6285 74.1782 71.6713 74.1807 71.5129 76.3058C71.44 77.2905 72.0759 77.1649 72.6314 77.1875C73.8881 77.2402 74.6572 76.6675 74.7024 75.7004C74.7502 74.6102 74.3028 74.2259 72.9079 74.2008Z" fill="#4EAAA2"/>
</svg>
