<svg width="130" height="130" viewBox="0 0 130 130" fill="none" xmlns="http://www.w3.org/2000/svg">
<path d="M129.559 0.345825H0.873047V128.959H129.559V0.345825Z" fill="#149980"/>
<path d="M22.6263 81.7589C23.3803 80.9551 24.3203 80.4024 25.2301 79.8096C25.4815 78.0286 24.9335 76.3179 24.5792 74.6324C22.297 63.8158 20.2235 52.9566 18.1575 42.0973C17.4185 38.2088 16.6167 34.3253 16.4182 30.3563C16.3013 27.8809 16.884 25.4225 18.0997 23.2625C18.2681 22.9536 18.5847 22.6596 18.4565 22.2326C15.5159 23.0189 13.5328 24.9958 12.0424 27.5077C9.87583 31.1501 9.79791 35.1768 10.283 39.2085C11.2532 47.1012 13.2991 54.7979 14.782 62.6001C16.4584 71.4297 18.2806 80.2316 20.0249 89.0486L22.2291 89.8022C20.3114 88.2423 20.7287 83.7835 22.6263 81.7589Z" fill="#2C625F"/>
<path d="M81.2688 128.944C83.8626 124.382 85.6622 119.476 87.502 114.59C89.0955 110.353 92.3679 108.044 96.4346 106.602C96.6859 106.509 97.0077 106.308 97.2364 106.625C97.4274 106.891 97.2791 107.185 97.1735 107.459C96.7091 108.675 95.9592 109.761 94.9869 110.627C94.723 110.863 94.2907 111.129 94.5621 111.556C94.8939 112.058 95.2835 111.649 95.6479 111.491C97.8748 110.521 98.9153 108.748 99.1667 106.406C99.2503 105.806 99.1301 105.195 98.8253 104.671C98.5204 104.147 98.0486 103.74 97.4852 103.515C93.0993 101.523 92.0362 95.414 95.4745 92.0304L95.8439 91.7792L96.0953 91.4074C96.1056 91.3783 96.1216 91.3516 96.1423 91.3288C96.163 91.3059 96.188 91.2874 96.2159 91.2743L96.598 91.0231C96.6859 90.9377 96.7714 90.8497 96.8493 90.7719V90.7869C96.9348 90.6689 97.0227 90.5533 97.1006 90.4377L97.4676 90.272C97.9703 90.4629 98.3649 90.478 98.3473 89.7696C100.17 90.272 101.092 89.6448 101.112 87.8881C106.795 85.0873 114.936 85.5168 119.053 90.9804C121.518 94.2459 121.491 99.2447 118.939 102.435C118.16 103.41 117.431 104.419 116.569 105.344C114.559 107.517 113.825 110.25 113.42 113.111C113.111 115.291 112.503 117.364 110.791 118.931C110.477 119.22 109.979 119.569 110.54 120.054C110.626 120.147 110.73 120.221 110.846 120.272C110.962 120.324 111.088 120.351 111.214 120.352C111.341 120.353 111.467 120.328 111.584 120.279C111.701 120.23 111.806 120.158 111.894 120.067C113.43 118.728 114.315 116.997 114.898 115.088C115.044 114.608 115.129 114.111 115.262 113.628C115.436 113.013 115.745 112.965 116.082 113.495C117.992 116.492 118.324 120.026 114.825 122.538C111.389 124.995 107.589 126.025 103.439 126.216C100.944 126.329 98.4126 126.485 96.3843 128.303C96.1657 128.499 95.9043 128.637 95.8439 128.956L81.2688 128.944ZM107.388 112.425C107.431 113.076 107.3 113.638 107.617 114.131C107.82 114.447 108.067 114.809 108.489 114.744C109.012 114.661 108.914 114.173 108.891 113.829C108.823 112.729 109.062 111.661 109.21 110.591C109.612 107.69 110.532 104.995 112.54 102.762C113.375 101.832 114.164 100.857 114.978 99.9054C115.177 99.6718 115.358 99.4382 115.099 99.1393C115.008 99.021 114.875 98.9423 114.728 98.9193C114.58 98.8964 114.43 98.9311 114.307 99.0162C114.09 99.14 113.882 99.2784 113.684 99.4306C109.396 102.749 107.717 107.318 107.388 112.425ZM104.339 91.7817C105.596 91.7993 106.169 90.6061 107.157 90.1263C107.438 89.9906 107.227 89.5912 106.858 89.5335C105.699 89.3601 104.616 89.5485 103.676 90.2871C103.532 90.411 103.431 90.5765 103.386 90.7606C103.341 90.9448 103.354 91.1383 103.424 91.3144C103.553 91.7817 103.955 91.7817 104.339 91.7817Z" fill="#413A51"/>
<path d="M30.4806 122.558C29.2239 118.991 26.8236 116.211 24.3932 113.447C23.6216 112.571 23.5612 113.483 23.4582 113.95C22.7268 117.198 20.6156 119.574 18.4666 121.928C18.2153 122.207 17.8483 122.468 17.4613 122.192C17.0415 121.888 17.2929 121.528 17.5266 121.217C17.8282 120.815 18.1223 120.408 18.439 120.021C22.013 115.673 22.8751 110.534 22.0909 105.233C21.0227 98.0139 16.7525 93.1607 9.87083 90.6286C6.85476 89.5209 3.73815 89.443 0.591385 89.5209C0.591385 102.372 0.584694 115.223 0.571289 128.072C0.571289 128.826 0.722081 128.974 1.47107 128.971C11.4819 128.941 21.4902 128.951 31.501 128.951C31.6518 126.736 31.2045 124.631 30.4806 122.558Z" fill="#413A51"/>
<path d="M54.1292 128.944C55.8458 124.455 57.663 120.014 60.3397 115.985C60.5207 115.713 60.6589 115.304 61.041 115.352C61.423 115.399 61.4481 115.854 61.5436 116.148C62.2497 118.563 62.288 121.125 61.6542 123.561C61.5185 124.096 61.1315 124.794 61.9533 125.053C62.7752 125.311 62.9863 124.55 63.2326 123.988C63.3809 123.646 63.4111 123.254 63.5569 122.91C63.7027 122.566 63.4689 122.021 63.9314 121.996C64.1475 121.983 64.434 122.498 64.6226 122.802C65.12 123.63 65.4057 124.568 65.4545 125.533C65.462 125.866 65.499 126.198 65.5651 126.525C65.6581 126.887 65.8164 127.278 66.2588 127.311C66.7011 127.344 66.779 126.969 66.8871 126.65C66.9525 126.462 66.9499 126.196 67.1963 126.161C67.5029 126.115 67.6085 126.412 67.7266 126.61C68.1539 127.349 67.9478 128.158 67.9578 128.944H54.1292Z" fill="#413A51"/>
<path d="M23.2067 21.2505L23.7094 21.2002C23.8368 21.3091 23.988 21.3867 24.1507 21.4269C24.3135 21.467 24.4834 21.4685 24.6469 21.4313C26.2931 21.2279 27.9495 21.0747 29.5807 20.7833C30.6388 20.5949 31.7547 20.9993 32.7626 20.4316C33.6875 20.3336 34.6678 20.7405 35.5273 20.1226C36.0903 19.9342 36.872 19.7182 37.1837 20.0875C37.4953 20.4567 36.8494 21.0319 36.6106 21.5017C35.8633 22.9064 35.3111 24.4065 34.9694 25.9604C34.9184 26.3318 34.7872 26.6878 34.585 27.0035C34.3827 27.3193 34.1143 27.5873 33.7981 27.7891C33.5468 27.8042 33.2954 27.8042 33.0567 27.8369C29.7315 28.2815 26.9869 32.9638 26.4917 35.6843C25.7377 39.8039 25.896 43.8633 26.7053 47.9929C28.1128 55.1546 29.2187 62.3765 30.5508 69.5557C31.1013 72.5073 31.1792 75.5317 31.9759 78.438C29.6636 78.5963 27.3613 78.7873 25.225 79.8121C25.4763 78.0312 24.9284 76.3205 24.574 74.6349C22.2918 63.8184 20.2183 52.9591 18.1523 42.0999C17.4133 38.2113 16.6116 34.3278 16.413 30.3589C16.2961 27.8834 16.8788 25.4251 18.0945 23.2651C18.2629 22.9561 18.5795 22.6622 18.4514 22.2351C19.4014 22.0216 20.3037 21.572 21.3166 21.7001C21.9601 21.5846 22.7392 22.0342 23.2067 21.2505Z" fill="#51877B"/>
<path d="M108.252 77.9231C108.367 77.4252 108.515 76.9359 108.697 76.4586C108.956 75.8885 109.259 75.3393 109.602 74.8157C111.233 72.1581 111.233 72.1104 109.16 69.7592C106.697 66.9633 106.883 62.8386 109.632 59.8494C110.454 58.9551 111.321 58.1061 112.186 57.2546C112.465 56.9833 112.767 56.4759 113.216 56.8326C113.621 57.1541 113.294 57.6188 113.118 57.978C112.512 59.1697 111.973 60.3941 111.502 61.6455C110.894 63.3411 111.173 64.8558 112.158 66.2851C112.736 67.1551 113.388 67.9736 114.106 68.7317C116.147 70.7991 116.195 73.2533 114.277 75.4588C113.837 75.9612 113.38 76.4636 112.945 76.966C111.967 78.1064 111.253 79.3524 111.387 80.9374C111.414 81.2565 111.475 81.6483 111.113 81.8392C110.703 82.0527 110.414 81.7463 110.107 81.5227C109.001 80.7088 108.29 79.6789 108.252 77.9231Z" fill="#CECCB5"/>
<path d="M44.1258 37.4778C43.9096 34.4634 43.3064 31.6022 41.2831 29.2159C40.3104 28.0704 39.1568 27.2063 37.6387 26.9401C37.2341 26.8697 36.94 26.7793 37.038 26.2342C38.1917 19.796 42.6956 15.7718 48.8786 16.141C49.9917 16.1964 51.0795 16.4931 52.0664 17.0106C53.0534 17.5281 53.9158 18.2539 54.594 19.1379C54.8454 19.4443 55.0339 20.1628 55.5994 19.7784C56.082 19.4443 55.8231 18.8414 55.5491 18.4144C54.0009 16.0004 51.779 14.7118 48.9289 14.4153C48.2528 14.3475 47.1921 14.6892 47.0011 14.1164C46.8101 13.5437 47.5842 12.8077 48.0441 12.2224C48.5074 11.571 49.108 11.0291 49.8035 10.6348L50.1277 10.4012C50.7932 10.3848 51.4254 10.1068 51.8871 9.6275H51.872L54.4055 9.66019C54.4334 9.70112 54.4709 9.73461 54.5147 9.75776C54.5585 9.78091 54.6073 9.79296 54.6569 9.79296C54.7064 9.79296 54.7552 9.78091 54.799 9.75776C54.8428 9.73461 54.8803 9.70112 54.9082 9.66019C55.7753 9.55218 56.4162 10.1274 57.0999 10.464C60.6815 12.2073 63.9187 14.3048 65.2307 18.4094C65.482 19.1629 65.2307 20.0095 65.7082 20.7003C66.4623 21.6096 66.7287 21.5971 67.0956 20.5797C67.395 19.7946 67.5177 18.9533 67.455 18.1155C67.3771 17.2815 67.6461 17.3619 68.2694 17.6633C71.9063 19.3689 74.2135 22.1849 75.3446 25.9956C75.7241 27.2767 76.0609 28.5703 76.4404 29.8514C76.6314 30.4894 76.5309 30.806 75.7719 30.708C74.9022 30.5975 74.0125 30.5623 73.1454 30.4568C71.4086 30.2684 70.2575 29.2561 69.4356 27.7891C69.144 27.2641 68.8299 26.7265 68.0859 26.9827C67.2942 27.254 67.3595 27.9197 67.445 28.5502C67.4994 29.1162 67.6967 29.659 68.0186 30.1278C68.3404 30.5966 68.7761 30.976 69.2848 31.2305C71.2804 32.2579 73.359 32.9461 75.6512 32.8457C78.3531 32.7301 80.2331 34.5915 80.306 37.3497C80.3211 37.8722 80.2356 38.0882 79.6374 38.063C76.2494 37.9123 72.8513 37.842 69.4808 38.2339C68.8349 38.3092 68.7972 37.95 68.7972 37.4928C68.7972 36.488 68.7972 35.4832 68.7972 34.4784C68.7972 34.0941 68.7796 33.6621 68.3297 33.5666C67.9225 33.4837 67.7994 33.8907 67.6461 34.1795C65.7535 37.7264 67.9426 44.5364 71.5619 46.237C72.4508 46.6709 73.43 46.8881 74.4192 46.8706C75.4083 46.8532 76.3792 46.6016 77.2522 46.1366C77.9484 45.7874 78.059 45.9331 78.0942 46.6389C78.3278 50.7327 78.9899 54.7908 80.0697 58.7466C81.1807 62.9391 83.0456 66.7397 86.0265 69.9174C87.6552 71.6532 88.7233 73.6025 89.1029 75.9587C89.2318 76.9566 89.56 77.9185 90.068 78.7872C91.2694 80.7214 92.7699 81.2991 94.8636 80.4652C95.6 80.1687 96.0675 80.2542 96.6229 80.7716C97.4599 81.5503 98.2265 82.3592 98.6663 83.4343C99.6516 85.8358 99.4203 86.6522 97.3342 88.0739C96.9874 88.3101 96.6355 88.5411 96.3289 88.8074C95.7407 89.3098 95.1853 89.8776 94.7479 88.6567C94.7028 88.5371 94.6201 88.4353 94.5123 88.3665C94.4045 88.2977 94.2773 88.2656 94.1497 88.2749C93.7577 88.3327 93.8557 88.722 93.7501 88.9732C93.7294 89.0098 93.7223 89.0525 93.73 89.0938C94.4212 90.9351 93.0464 92.1081 92.325 93.5098C91.9732 93.0074 91.571 93.1607 91.1211 93.3793C90.5958 93.6305 90.0404 93.8213 89.505 94.0499C87.4491 94.9367 85.2046 95.007 83.0657 95.5395C82.0754 94.9492 81.1807 94.173 80.0119 93.9218C79.8511 93.8791 79.6802 93.7736 79.5344 93.8038C76.8836 94.3726 74.1423 94.3726 71.4915 93.8038C70.7375 93.6355 70.446 94.0926 70.5691 94.8538C70.6923 95.6149 70.725 96.361 70.2147 97.004C70.7174 92.1283 68.3976 88.3754 65.3111 84.9691C63.7679 83.2576 62.1004 81.6624 60.3221 80.1964C56.2101 76.8328 53.5711 72.3465 51.2186 67.7244C48.2276 61.8464 46.413 55.5414 45.1588 49.0755C45.0953 48.6208 45.0559 48.163 45.0406 47.704L44.92 47.3071C44.8773 46.7695 44.8371 46.2345 44.7968 45.697C44.7566 45.5638 44.7139 45.4457 44.6737 45.3L44.3193 39.0327L44.2841 38.5026C44.2539 38.2514 44.2213 38.0002 44.1911 37.7641C44.1459 37.6787 44.1358 37.5783 44.1258 37.4778ZM61.9457 60.2011V60.1383L62.006 60.1182C62.3403 60.3694 62.6067 60.2136 62.9008 60.0102C63.8835 59.3269 64.8637 58.6336 65.8817 58.0006C66.7865 57.4379 67.6762 56.9179 68.8977 57.1767C69.2454 57.2405 69.6042 57.1982 69.9274 57.0552C70.2507 56.9123 70.5233 56.6754 70.7099 56.3754C71.9867 56.4281 73.1278 56.9556 74.2889 57.4153C74.8344 57.6313 75.4275 57.9177 75.797 57.1867C76.1287 56.5386 75.7543 56.1041 75.2591 55.7022C73.0649 53.9086 70.5239 53.5067 67.832 53.9438C64.2806 54.524 61.9005 56.9908 59.4801 59.352C59.3095 59.5133 59.203 59.7306 59.1799 59.9641C59.1568 60.1976 59.2188 60.4316 59.3544 60.6231C59.7289 61.2109 60.2617 61.2988 60.8825 61.1255C61.4455 61.0476 62.0714 61.0602 61.9482 60.2011H61.9457ZM56.8335 39.4773C55.1397 39.6837 53.4642 40.0196 51.8218 40.4821C50.6304 40.8061 50.2207 40.4821 50.0976 39.2638C50.0494 38.8912 50.1006 38.5125 50.2459 38.1661C50.3015 38.076 50.3242 37.9694 50.31 37.8645C50.2958 37.7595 50.2456 37.6628 50.168 37.5908C49.9166 37.4125 49.6954 37.5632 49.5019 37.734C49.1962 37.9927 48.9589 38.3224 48.8108 38.6943C48.6626 39.0662 48.6082 39.4688 48.6524 39.8667C49.057 43.3005 49.8111 46.5661 53.4479 48.1562C53.5479 48.1849 53.6377 48.2415 53.7067 48.3194C53.7757 48.3972 53.821 48.4931 53.8375 48.5958C52.9955 49.8191 52.5657 51.2233 52.2164 52.63C51.7514 54.5014 51.4623 56.398 52.0656 58.3171C52.6034 60.0026 53.8249 60.7161 55.5466 60.3468C57.7232 59.8821 58.8592 58.1664 58.7838 55.667C58.712 53.2487 58.1115 50.8755 57.0245 48.7138C58.8517 48.6988 60.6287 48.4425 62.0839 47.2342C65.6027 44.3204 66.1531 37.8395 63.2074 34.3579C62.9234 34.0213 62.7223 33.2225 62.1543 33.5742C61.717 33.8455 61.9181 34.579 62.0638 35.0814C62.2076 35.4268 62.3862 35.7567 62.5967 36.066C62.8882 36.6187 63.2049 37.1588 63.4462 37.7315C63.8081 38.5956 63.6096 39.0553 62.5439 39.0151C60.7456 38.979 58.9478 39.1068 57.1728 39.3969L56.8335 39.4773ZM67.832 63.1552C66.8971 63.2757 66.2537 63.7078 66.2411 64.7352C66.2109 66.996 66.4748 69.1488 68.3699 70.764C69.144 71.4221 70.0916 71.5954 70.9914 71.9068C72.4466 72.4092 73.4344 73.1981 73.5726 74.9062C73.6581 75.9914 73.6983 77.0715 73.7209 78.1567C73.7988 81.892 76.2343 84.1452 79.4766 84.0322C81.2988 83.9694 82.1433 84.929 82.274 86.833C82.4524 89.4028 83.9253 90.807 86.2954 90.5809C88.6655 90.3548 91.1086 88.5989 90.5682 86.0593C89.7488 82.0904 88.3061 78.423 84.0836 76.9158C82.1684 76.235 81.3742 75.1322 81.1731 73.1227C80.972 71.1131 80.3161 69.0332 78.1194 68.1339C76.1464 67.3251 74.7439 66.0263 74.0225 64.0042C73.8491 63.5776 73.6441 63.1645 73.4093 62.7683C72.7131 61.4721 72.0269 61.2008 70.5164 61.6103C69.3501 61.6379 68.3925 62.0599 67.832 63.1451V63.1552ZM60.6236 28.4347C60.5482 27.9624 60.4728 27.3947 59.8219 27.2314C59.1709 27.0682 58.7361 27.4826 58.623 28.0478C58.1203 30.6578 56.0518 31.5872 53.9204 32.4337C53.2645 32.6849 52.5557 32.8281 51.9097 33.0919C51.4825 33.2627 51.0778 33.5465 51.1557 34.1192C51.2336 34.692 51.7061 34.8277 52.1611 34.9005C52.49 34.9478 52.8246 34.941 53.1513 34.8804C55.4134 34.4835 57.2909 33.3355 58.9321 31.7957C59.8709 30.9068 60.4692 29.7179 60.6236 28.4347Z" fill="#D05E2B"/>
<path d="M32.7578 31.7455C33.0519 31.2431 33.2605 30.703 33.6928 30.2759C35.8895 28.0704 38.2948 28.2664 40.1597 30.8211C41.6678 32.8658 42.1277 35.2296 42.2836 37.6687C42.4796 40.7559 42.5349 43.8507 42.8642 46.9303C42.8226 47.241 42.8835 47.5567 43.0376 47.8296C44.4199 55.7675 46.7423 63.4039 50.6004 70.5027C51.6812 72.5329 52.943 74.4615 54.3704 76.2652C54.5263 76.4586 54.652 76.6721 54.7927 76.8781C54.5188 77.0615 54.3353 76.8002 54.1091 76.7449C52.699 76.3832 51.2941 75.9788 49.8715 75.6674C47.2148 75.0846 45.5434 73.4518 44.6713 70.9373C44.26 69.7984 43.9685 68.6198 43.8016 67.4205C43.7589 67.2221 43.7137 67.0261 43.6684 66.8277L43.4724 65.1623C43.4347 64.9839 43.3945 64.8055 43.3543 64.6272C43.1482 62.7784 43.02 60.9095 42.2936 59.1687C42.1252 58.7642 42.0423 58.0282 41.2405 58.3623L40.0818 58.4151C39.3278 58.6311 38.8478 58.5734 38.7497 57.5761C38.6266 56.3352 38.2722 55.1194 38.0661 53.886C37.1889 48.6108 36.8697 43.2855 36.2816 37.9852C36.0956 36.3298 35.9247 34.6669 35.2762 33.1069C34.7007 31.7455 34.1377 31.4516 32.7578 31.7455Z" fill="#E98D2C"/>
<path d="M48.1069 86.0041C48.7578 86.7426 49.0796 87.6494 49.4264 88.5487C50.5222 91.3923 52.2339 92.279 55.2499 91.6561C55.6546 91.5732 56.2553 90.9929 56.5418 91.6962C56.7479 92.2212 56.3458 92.7463 55.9009 93.0954C55.2783 93.5996 54.5303 93.9252 53.7369 94.0374C50.9998 94.3765 48.2627 94.7533 45.5181 95.0221C42.9343 95.2733 40.441 94.5549 37.9553 94.0173C33.6154 93.0791 29.3948 91.6559 25.3733 89.7746C23.6843 88.9934 22.9227 87.6771 22.9629 85.881C23.0057 84.0322 23.9205 82.7285 25.6145 81.9774C27.6604 82.0126 29.4475 83.0249 31.3602 83.5499C36.774 85.032 42.2381 85.9991 47.8581 85.989C47.9309 86.1071 48.0164 86.0895 48.1069 86.0041Z" fill="#2C625F"/>
<path d="M31.9812 78.4355C31.1845 75.5292 31.1066 72.5047 30.5561 69.5532C29.2215 62.3739 28.1182 55.152 26.7107 47.9903C25.9014 43.8682 25.7455 39.8088 26.497 35.6817C26.9997 32.9612 29.7368 28.2789 33.062 27.8343C33.3133 27.8016 33.5647 27.8016 33.8034 27.7866C29.6362 30.6251 29.2442 34.9557 29.6563 39.314C30.7924 51.2509 33.5018 62.909 36.3269 74.5369C36.5961 75.5486 36.9319 76.5412 37.3322 77.5086C37.6263 78.2621 37.3699 78.4908 36.631 78.4757C35.0777 78.4531 33.5295 78.4506 31.9812 78.4355Z" fill="#2C625F"/>
<path d="M41.5244 64.8859C41.5244 64.9839 41.5244 65.0844 41.5244 65.1823C41.4138 65.5767 40.9463 65.9912 41.5897 66.3428L41.7481 66.4634C41.9114 68.5207 42.4769 70.4826 43.1907 72.4018C44.1031 74.856 45.9127 76.333 48.3482 77.1393C49.9317 77.6618 51.5478 78.1215 53.0734 78.7872C55.715 79.9402 58.2032 81.3318 59.0326 84.4215C59.3895 85.7554 59.4222 87.0691 58.53 88.2397C58.3038 88.5361 58.0399 88.8853 57.6201 88.8074C57.2456 88.7371 57.218 88.3302 57.1174 88.0162C57.0936 87.8939 57.0574 87.7744 57.0093 87.6595C56.8007 87.2802 56.8535 86.5466 56.3232 86.6119C55.6471 86.6923 55.8934 87.3982 55.9035 87.8679C55.9261 88.83 55.6948 89.6514 54.6719 89.9328C53.5509 90.2392 52.4827 90.1237 51.7664 89.0687C51.4882 88.6521 51.2841 88.1907 51.1632 87.7047C50.9594 86.8245 50.5542 86.0034 49.9794 85.306C49.4047 84.6087 48.6759 84.054 47.8506 83.6855C48.9665 82.9319 48.0064 82.5099 47.5339 82.1357C45.6715 80.6561 43.7286 79.2268 42.2306 77.3905C39.7399 74.3334 38.4781 70.7363 38.272 66.785C38.2595 66.5086 38.355 66.0188 38.081 66.0188C37.6211 66.0188 37.8297 66.5212 37.7945 66.8151C37.6638 68.0912 38.0132 69.3974 37.5758 70.6609C37.4683 67.8138 37.5103 64.963 37.7015 62.1202C38.0132 61.6354 38.1665 61.447 38.9582 61.7259C40.3984 62.2283 41.0116 63.0547 41.1046 64.4614C41.1323 64.6824 41.3233 64.803 41.5244 64.8859Z" fill="#D05E2B"/>
<path d="M32.7576 31.7455C34.1374 31.4541 34.7004 31.7455 35.2709 33.1069C35.9219 34.6669 36.0928 36.3298 36.2763 37.9852C36.8644 43.2855 37.1836 48.6184 38.0608 53.886C38.2669 55.1194 38.6213 56.3352 38.7444 57.5761C38.8425 58.5809 39.32 58.6311 40.0765 58.4126C39.785 58.8547 39.1013 58.9702 39.0712 59.6259L39.0511 59.641C38.4227 59.8922 37.5129 59.6887 37.3269 60.6809C36.7523 61.651 36.3884 62.7311 36.2587 63.851C36.1984 64.1223 36.1381 64.3936 36.0752 64.6649C35.2358 63.2356 35.1704 61.5903 34.8738 60.0303C33.7504 54.0795 32.7098 48.1135 31.6693 42.1475C31.4908 41.1226 31.4657 40.0702 31.3702 39.0302C31.4624 38.6832 31.444 38.3162 31.3174 37.9802L31.3325 37.3472C31.3325 37.2166 31.3325 37.096 31.345 36.9528C31.3626 36.7619 31.3802 36.571 31.4003 36.3775C31.4154 36.2545 31.428 36.1264 31.4431 36.0108C31.5763 34.687 31.7999 33.3908 32.5037 32.2278C32.9058 32.2278 32.7173 31.9263 32.755 31.743L32.7576 31.7455Z" fill="#D98014"/>
<path d="M68.184 97.0417C67.0379 101.254 62.5615 103.799 58.05 102.988C55.6271 102.55 53.8903 101.719 53.9029 98.8905C53.9029 98.0339 53.2771 97.0317 53.5636 96.361C53.7974 95.8133 54.9611 95.6626 55.71 95.3335C57.6127 94.4945 58.9775 93.324 58.6859 90.9577C58.5778 90.076 59.6284 90.0333 60.018 89.4857C60.6564 89.5988 60.8399 90.1287 61.0661 90.6236C61.3928 91.3445 61.6944 92.078 62.0714 92.7814C63.1321 94.8412 64.5697 96.4288 67.0982 96.5368C67.5123 96.5565 67.9022 96.7378 68.184 97.0417Z" fill="#D98014"/>
<path d="M83.8147 99.408C85.6494 101.669 86.4638 104.304 86.7805 107.137C86.8094 107.721 86.8715 108.304 86.9665 108.881C87.4138 110.832 86.7302 112.485 85.6444 114.023C84.9759 114.97 83.9931 114.837 83.0255 114.638C82.0578 114.44 81.5903 113.844 81.5476 112.88C81.4672 111.001 81.5476 109.112 81.2963 107.243C81.0216 105.04 80.318 102.913 79.2252 100.98C78.3832 99.5261 77.2145 98.4233 75.5129 98.0088C78.147 97.1146 80.6805 96.8232 82.7741 99.2121C82.9608 99.4338 83.1909 99.615 83.4502 99.7446C83.7141 99.8727 83.7669 99.6064 83.8147 99.408Z" fill="#D05E2B"/>
<path d="M47.8584 85.9865C42.2384 85.9865 36.7743 85.0294 31.3605 83.5474C29.4478 83.0224 27.6608 82.01 25.6149 81.9749C27.5627 80.6435 29.7921 80.538 32.0366 80.5054C33.8471 80.8633 35.7103 80.8633 37.5208 80.5054C38.7021 80.322 39.5843 80.6511 40.4916 81.5579C42.1857 83.2485 44.3798 84.2281 46.5967 85.1073C47.0717 85.3032 47.69 85.3334 47.8584 85.9865Z" fill="#51877B"/>
<path d="M68.1841 97.0417C68.0422 96.8896 67.8717 96.767 67.6824 96.6808C67.4931 96.5946 67.2886 96.5465 67.0807 96.5393C64.5673 96.4313 63.1196 94.8438 62.0539 92.7839C61.6895 92.0806 61.3879 91.3471 61.0486 90.6261C60.8224 90.1237 60.6389 89.6013 60.0005 89.4883C61.1365 87.8228 61.1592 85.9715 60.9078 84.0724C60.8852 83.9016 60.7319 83.6378 61.0084 83.5549C61.1089 83.5248 61.2949 83.678 61.4055 83.7835C64.4467 86.6296 67.2617 89.6339 68.2695 93.8591C68.541 94.9216 68.634 95.9942 68.1841 97.0417Z" fill="#E98D2C"/>
<path d="M94.8413 77.9658C93.6022 79.2595 92.3781 79.1213 91.5412 77.6066C91.0905 76.8034 90.7962 75.922 90.6741 75.0092C90.3498 72.442 89.0454 70.4098 87.3438 68.561C84.8469 65.8438 83.0053 62.5915 81.9601 59.0532C81.9023 58.8622 81.7465 58.6864 81.8847 58.4729C82.0164 58.5662 82.1341 58.6779 82.2341 58.8045C84.6319 62.8789 87.9496 66.0691 91.785 68.7745C91.9802 68.9305 92.1657 69.0983 92.3404 69.2769L92.6043 69.6688L92.5893 69.6512L93.107 69.9024C92.9361 70.8418 92.4711 70.8393 91.9659 70.1862C91.2999 69.3221 90.3674 69.0132 89.3922 68.7494C89.2406 68.7408 89.0888 68.7613 88.9448 68.8097C88.9851 68.8775 89.0102 68.9805 89.0705 69.0056C89.8899 69.3548 90.1488 70.3772 90.8701 70.6987C92.3982 71.3845 93.1925 72.766 94.321 73.8311C95.2811 74.7354 94.7834 75.9889 95.3263 76.9535C95.3452 77.0483 95.3375 77.1465 95.3043 77.2374C95.2711 77.3282 95.2135 77.4081 95.1378 77.4684C94.8513 77.5262 94.6025 77.5991 94.8413 77.9658Z" fill="#D05E2B"/>
<path d="M83.8147 99.408C83.7619 99.6065 83.7091 99.8727 83.4427 99.7496C83.1834 99.62 82.9533 99.4388 82.7666 99.2171C80.6729 96.8282 78.1394 97.1196 75.5054 98.0139C75.2657 97.9425 75.0213 97.8879 74.774 97.8506C74.4598 97.8229 74.0376 97.622 73.8717 97.9963C73.731 98.3228 73.9999 98.6167 74.3065 98.8026C74.4699 98.9006 74.7816 98.9257 74.6609 99.1945C74.6182 99.295 74.3015 99.3025 74.108 99.3025C72.7708 99.3025 71.4337 99.3025 70.0865 99.3226C69.5839 99.3226 69.2471 99.305 69.5713 98.6494C69.8008 98.1144 69.9997 97.5667 70.167 97.0091C70.6697 96.356 70.642 95.6049 70.5214 94.8588C70.4007 94.1128 70.6973 93.6405 71.4438 93.8088C74.0945 94.3776 76.8359 94.3776 79.4866 93.8088C79.6324 93.7787 79.8033 93.8842 79.9642 93.9269C78.9161 94.6001 78.9412 95.3411 80.1024 96.0143C81.5949 96.8308 82.8683 97.9949 83.8147 99.408Z" fill="#B35737"/>
<path d="M24.2473 108.926C23.9357 107.052 24.1518 105.07 23.6291 103.148C23.5612 102.897 23.33 102.55 23.6869 102.38C23.9382 102.259 24.1116 102.578 24.3001 102.729C27.281 105.093 28.9273 108.255 29.7366 111.9C29.802 112.271 29.8122 112.649 29.7668 113.023C29.7064 113.731 29.2239 114.106 28.6206 114.379C28.0174 114.653 27.6806 114.229 27.3463 113.877C26.3787 112.839 25.4513 111.764 24.466 110.744C23.9256 110.194 24.0488 109.617 24.2473 108.926Z" fill="#413A51"/>
<path d="M37.5911 70.6635C38.0284 69.4075 37.679 68.0938 37.8097 66.8177C37.8399 66.5288 37.6363 66.0264 38.0962 66.0213C38.3702 66.0213 38.2747 66.5237 38.2873 66.7875C38.4934 70.7388 39.7551 74.336 42.2459 77.393C43.7539 79.2293 45.6867 80.6586 47.5491 82.1382C48.0216 82.5125 48.9817 82.9294 47.8658 83.6881C45.8551 82.7385 43.7916 81.9171 42.0473 80.5079C38.9081 77.9784 37.7997 74.5218 37.5911 70.6635Z" fill="#B35737"/>
<path d="M65.6834 20.6928C65.1958 20.002 65.4472 19.1655 65.2059 18.4019C63.8939 14.2973 60.6566 12.1998 57.0751 10.4565C56.3839 10.1199 55.7505 9.54469 54.8834 9.6527C54.8281 9.5045 54.7904 9.30099 54.5768 9.36379C54.4913 9.3864 54.4461 9.54971 54.3832 9.64767L51.8497 9.61499C55.097 8.23591 58.2161 8.7107 61.1493 10.454C65.0124 12.7751 66.0428 16.4476 65.6834 20.6928Z" fill="#DE703D"/>
<path d="M51.9199 106.529C48.7204 105.999 49.5925 106.768 49.1552 103.638C48.9365 102.083 48.8511 100.511 48.7053 98.9483C48.737 98.9753 48.7656 99.0056 48.7908 99.0387C49.3915 100.111 49.3839 100.044 50.5853 99.8802C51.3167 99.7773 51.8018 99.4758 52.0934 98.8303C52.4326 100.078 52.6663 101.352 52.7921 102.638C52.4779 103.425 52.7041 104.196 52.8474 104.97C52.9906 105.743 52.8298 106.369 51.9199 106.529Z" fill="#995825"/>
<path d="M83.0255 95.5496C85.1644 95.0171 87.4089 94.9467 89.4648 94.06C90.0002 93.8314 90.5556 93.643 91.0809 93.3893C91.5283 93.1707 91.933 93.0175 92.2848 93.5199L91.7822 95.6777C91.7093 95.9992 91.6791 96.361 91.1991 96.3057C90.9436 96.2826 90.6861 96.3155 90.4447 96.4023C90.2033 96.4891 89.9838 96.6276 89.8016 96.8081H89.8167L89.2939 97.0593H89.3165C88.9521 97.0593 88.5851 97.0417 88.2911 97.3105H88.3087C87.2656 97.4085 86.22 97.4914 85.2926 98.0289L83.0255 95.5496Z" fill="#B35737"/>
<path d="M52.0983 98.8303C51.7942 99.4758 51.3091 99.7773 50.5903 99.8803C49.3889 100.054 49.3964 100.111 48.7957 99.0387C48.7705 99.0056 48.7419 98.9753 48.7103 98.9483C48.67 98.7449 48.6223 98.5439 48.5921 98.3379C48.3408 96.5067 48.5192 96.3283 50.3666 96.2505C51.1482 96.2203 51.6459 96.4213 51.7766 97.2553C51.847 97.7853 51.9852 98.3128 52.0983 98.8303Z" fill="#61452D"/>
<path d="M95.3235 76.961C94.768 75.9964 95.2657 74.7429 94.3181 73.8386C93.1896 72.7736 92.3954 71.392 90.8673 70.7062C90.1459 70.3847 89.8871 69.3623 89.0677 69.0131C89.0074 68.988 88.9822 68.885 88.942 68.8172C89.0859 68.7688 89.2378 68.7483 89.3894 68.7569C90.3646 69.0081 91.2971 69.3296 91.9631 70.1938C92.4658 70.8469 92.9333 70.8493 93.1042 69.9099C94.9842 71.8968 95.982 74.1652 95.3235 76.961Z" fill="#DE703D"/>
<path d="M25.1069 100.825C24.7097 99.3502 25.3456 97.9686 25.4939 96.5544C25.5442 96.052 25.6623 95.5722 25.7452 95.0798C26.1775 95.8108 25.8835 96.7428 26.3987 97.4512C26.5093 97.6044 26.4792 97.9334 26.7707 97.8455C26.9602 97.7575 27.1212 97.6183 27.2357 97.4436C27.3764 97.2703 27.2357 97.1271 27.1 97.0367C26.0242 96.376 26.3459 96.1876 27.3739 96.1701C27.7635 96.1701 27.7911 95.6878 28.0551 95.4969C28.0551 95.5898 28.0425 95.6827 28.0374 95.7757C28.0324 95.8686 28.0123 95.9767 28.0023 96.0771C27.8489 97.4261 27.7509 98.785 27.3262 100.096C26.919 100.832 26.3409 101.252 25.4562 101.101H25.4839L25.1069 100.825Z" fill="#82502E"/>
<path d="M28.0603 95.4767C27.7964 95.6676 27.7687 96.1449 27.3792 96.1499C26.3587 96.1675 26.0295 96.3559 27.1052 97.0166C27.2535 97.107 27.3817 97.2502 27.2409 97.4235C27.1265 97.5981 26.9654 97.7374 26.776 97.8254C26.4844 97.9133 26.5246 97.5742 26.404 97.431C25.9013 96.7227 26.1828 95.7907 25.7505 95.0597C25.7731 94.688 25.7681 94.3062 25.8259 93.9444C26.0999 92.2438 26.0973 92.2715 27.7034 92.8166C28.3443 93.0351 28.5755 93.3993 28.4273 94.0298C28.3142 94.5146 28.1835 94.9944 28.0603 95.4767Z" fill="#61452D"/>
<path d="M41.5244 64.8859C41.3233 64.8031 41.1323 64.6825 41.1172 64.4589C41.0242 63.0522 40.411 62.2308 38.9708 61.7234C38.1816 61.4446 38.0283 61.6329 37.7141 62.1177C37.6538 61.6338 37.5943 61.149 37.5356 60.6634C38.2897 60.7036 39.0261 60.696 39.0437 59.6385L39.0638 59.6234C40.142 60.0931 40.5291 58.9903 41.258 58.6588C41.2424 60.7376 41.3313 62.816 41.5244 64.8859Z" fill="#DE703D"/>
<path d="M101.117 87.8755C101.092 89.6288 100.17 90.256 98.3523 89.757C99.0209 88.7672 100.082 88.3377 101.117 87.8755Z" fill="#535E69"/>
<path d="M32.7731 20.4416C31.7677 21.0093 30.6493 20.6048 29.5911 20.7932C27.9599 21.0846 26.3036 21.2379 24.6573 21.4413C24.4939 21.4785 24.324 21.4769 24.1612 21.4368C23.9984 21.3967 23.8473 21.3191 23.7198 21.2103C26.5223 20.7254 29.3549 20.532 32.1824 20.3034C32.3855 20.3173 32.5849 20.364 32.7731 20.4416Z" fill="#51877B"/>
<path d="M25.4615 101.076C26.3463 101.224 26.9244 100.805 27.3315 100.071C27.3164 100.194 27.3089 100.322 27.2838 100.438C27.1556 101.038 27.4094 102.005 26.9369 102.164C26.3965 102.332 25.9215 101.516 25.4615 101.076Z" fill="#A66538"/>
<path d="M51.9199 106.529C52.8298 106.369 53.0032 105.776 52.8524 104.969C52.7016 104.163 52.4829 103.425 52.7971 102.638C52.9027 103.548 52.9404 104.47 53.1289 105.359C53.3727 106.489 53.1339 106.972 51.9199 106.529Z" fill="#CD742D"/>
<path d="M41.258 58.6587C40.5291 58.9903 40.1421 60.0931 39.0638 59.6233C39.0965 58.9677 39.7802 58.8521 40.0692 58.41L41.2279 58.3598C41.2404 58.4603 41.248 58.5582 41.258 58.6587Z" fill="#CD742D"/>
<path d="M37.5205 80.5129C35.7099 80.8709 33.8468 80.8709 32.0363 80.5129H37.5205Z" fill="#5CA293"/>
<path d="M39.0437 59.6284C39.0286 60.6859 38.2897 60.6935 37.5357 60.6533H37.4251L37.317 60.6758C37.5055 59.6861 38.4154 59.8971 39.0437 59.6284Z" fill="#CD742D"/>
<path d="M85.295 98.0339C86.2325 97.4963 87.2781 97.4135 88.3111 97.3155C87.4194 97.897 86.3533 98.1509 85.295 98.0339Z" fill="#D05E2B"/>
<path d="M35.5327 20.1276C34.6656 20.7455 33.6853 20.3386 32.7679 20.4365C33.6451 19.9869 34.6103 20.2456 35.5327 20.1276Z" fill="#51877B"/>
<path d="M23.2069 21.2504C22.7294 22.0342 21.9502 21.5845 21.3219 21.6976C21.9075 21.3635 22.5585 21.3183 23.2069 21.2504Z" fill="#51877B"/>
<path d="M51.8623 9.64007C51.4006 10.1194 50.7684 10.3974 50.1029 10.4138C50.6383 10.0169 51.156 9.61244 51.8623 9.64007Z" fill="#DE703D"/>
<path d="M41.5898 66.3429C40.9464 65.9912 41.4139 65.5768 41.5245 65.1824C41.5747 65.5064 41.6225 65.8304 41.6702 66.1545C41.6333 66.2125 41.6061 66.2761 41.5898 66.3429Z" fill="#DE703D"/>
<path d="M89.8141 96.8056C89.9963 96.6251 90.2158 96.4866 90.4572 96.3998C90.6986 96.313 90.956 96.2801 91.2115 96.3032C91.0265 96.4797 90.8066 96.6155 90.5659 96.702C90.3253 96.7885 90.0692 96.8238 89.8141 96.8056Z" fill="#D05E2B"/>
<path d="M98.3498 89.7545C98.3674 90.4654 97.9703 90.4503 97.4701 90.2569C97.7013 89.9831 97.9476 89.7319 98.3498 89.7545Z" fill="#535E69"/>
<path d="M88.3035 97.308C88.5975 97.0317 88.9645 97.0443 89.3289 97.0568C89.194 97.1833 89.0288 97.2728 88.8492 97.3168C88.6695 97.3608 88.4816 97.3578 88.3035 97.308Z" fill="#D05E2B"/>
<path d="M94.8411 77.9658C94.5898 77.6016 94.8411 77.5287 95.1352 77.4785L94.8411 77.9658Z" fill="#DE703D"/>
<path d="M31.3099 37.9777C31.4365 38.3137 31.455 38.6808 31.3627 39.0277L31.3099 37.9777Z" fill="#61452D"/>
<path d="M36.0605 64.6523C36.1234 64.3811 36.1837 64.1098 36.244 63.8385C36.2916 64.1233 36.2257 64.4154 36.0605 64.6523Z" fill="#61452D"/>
<path d="M32.7605 31.7455C32.7102 31.9289 32.8987 32.2479 32.5092 32.2303L32.7605 31.7455Z" fill="#E98D2C"/>
<path d="M43.0377 47.8222C42.8836 47.5492 42.8227 47.2335 42.8643 46.9229C43.0369 47.1887 43.0991 47.5113 43.0377 47.8222Z" fill="#D18732"/>
<path d="M89.3065 97.0719L89.8293 96.8207C89.7514 97.0895 89.5202 97.0568 89.3065 97.0719Z" fill="#D05E2B"/>
<path d="M43.3494 64.6247C43.3896 64.803 43.4298 64.9814 43.4675 65.1597C43.4248 64.9814 43.3846 64.803 43.3494 64.6247Z" fill="#61452D"/>
<path d="M43.8521 115.08L43.2188 114.947C43.3274 114.918 43.4413 114.915 43.5513 114.938C43.6613 114.961 43.7643 115.01 43.8521 115.08Z" fill="#61452D"/>
<path d="M43.6584 66.8251L43.7917 67.418C43.7489 67.2195 43.7037 67.0236 43.6584 66.8251Z" fill="#61452D"/>
<path d="M93.0993 69.9275L92.5815 69.6763C92.8329 69.5859 92.9686 69.7466 93.0993 69.9275Z" fill="#DE703D"/>
<path d="M44.2514 38.5278L44.2865 39.0579C44.2317 38.9817 44.1993 38.8915 44.1931 38.7979C44.1869 38.7042 44.2071 38.6106 44.2514 38.5278Z" fill="#61452D"/>
<path d="M44.6412 45.3101C44.6814 45.4433 44.7242 45.5739 44.7644 45.707C44.7242 45.5789 44.6814 45.4483 44.6412 45.3101Z" fill="#B35737"/>
<path d="M31.4358 36.0158C31.4207 36.1389 31.4081 36.267 31.3931 36.3825C31.4081 36.2519 31.4232 36.1314 31.4358 36.0158Z" fill="#61452D"/>
<path d="M31.3378 36.9503C31.3378 37.0835 31.3378 37.2141 31.3252 37.3447C31.3277 37.2141 31.3327 37.0835 31.3378 36.9503Z" fill="#61452D"/>
<path d="M44.1259 37.4778C44.1259 37.5783 44.1459 37.6787 44.1585 37.7792C44.1459 37.6787 44.1359 37.5783 44.1259 37.4778Z" fill="#61452D"/>
<path d="M41.59 66.3429C41.6063 66.2761 41.6335 66.2125 41.6704 66.1545C41.6955 66.2575 41.7232 66.3605 41.7483 66.4635L41.59 66.3429Z" fill="#61452D"/>
<path d="M48.1072 86.0041C48.0167 86.0995 47.9312 86.1171 47.8558 85.9915L48.1072 86.0041Z" fill="#51877B"/>
<path d="M92.5964 69.6763L92.3325 69.2844C92.4808 69.3648 92.6115 69.4628 92.5964 69.6763Z" fill="#DE703D"/>
<path d="M28.0175 96.052C28.0175 95.9515 28.0401 95.851 28.0526 95.7505C28.03 95.8561 28.0175 95.9565 28.0175 96.052Z" fill="#61452D"/>
<path d="M51.249 114.271C51.3155 114.225 51.3967 114.205 51.4771 114.215C51.5574 114.225 51.6311 114.265 51.6838 114.327L51.249 114.271Z" fill="#5D563B"/>
<path d="M104.339 91.7816C103.954 91.7816 103.552 91.7816 103.422 91.3169C103.351 91.1408 103.338 90.9472 103.383 90.7631C103.428 90.579 103.529 90.4134 103.673 90.2895C104.613 89.5485 105.696 89.3601 106.855 89.5359C107.224 89.5937 107.436 89.9931 107.154 90.1287C106.169 90.611 105.603 91.8042 104.339 91.7816Z" fill="#535E69"/>
<path d="M44.6992 121.079C43.6102 120.981 42.5137 121.146 41.5022 121.561C40.919 121.812 40.4968 122.182 40.5521 122.88C40.5973 123.536 41.1478 123.651 41.6127 123.779C42.4195 124.02 43.2792 124.02 44.0859 123.779C44.5886 123.626 45.0561 123.478 45.041 122.81C45.041 122.558 45.1164 122.249 45.408 122.229C45.7774 122.204 45.8453 122.568 45.9282 122.837C46.2072 123.721 45.4959 124.847 44.4202 125.085C43.058 125.399 41.6283 125.205 40.3988 124.54C38.8907 123.721 38.8907 121.777 40.3812 120.868C43.0454 119.253 45.8151 119.361 48.5597 120.569C50.1708 121.272 50.7439 122.918 50.1055 124.588C49.0775 127.258 46.8104 128.105 44.2443 128.394C40.9567 128.753 38.3705 127.389 36.3799 124.877C35.1684 123.34 35.2966 121.805 36.6111 120.333C37.8678 118.916 39.5191 118.268 41.3689 118.072C41.6655 118.042 42.1405 117.869 42.2159 118.291C42.2913 118.713 41.7711 118.707 41.4921 118.838C40.7733 119.175 40.0167 119.433 39.308 119.793C36.4402 121.247 36.2014 123.561 38.6947 125.57C41.1101 127.507 45.32 127.504 47.7102 125.55C48.5447 124.867 49.2635 124.076 48.9946 122.887C48.708 121.631 47.5996 121.435 46.5717 121.232C45.9512 121.143 45.3259 121.092 44.6992 121.079Z" fill="#946E44"/>
<path d="M67.8323 63.1452C68.3927 62.0499 69.3403 61.638 70.5216 61.5802C71.2027 61.6129 71.5722 62.0826 71.826 62.6151C72.167 63.332 72.4674 64.0675 72.7258 64.8181C73.3542 66.7222 74.3093 68.3349 76.3275 69.0407C78.6926 69.8622 79.6929 71.7637 79.6477 74.0044C79.5999 76.3456 80.6933 77.4458 82.6889 78.124C84.1341 78.6264 85.4737 79.365 86.3308 80.6712C87.4643 82.3366 88.2743 84.2002 88.7185 86.1649C89.0729 87.8353 88.4144 88.9281 86.924 89.1617C85.3732 89.4129 84.4583 88.5839 84.2774 86.8306C84.026 84.3186 82.9026 82.2136 79.894 82.1231C79.4355 82.0873 78.9791 82.0278 78.5267 81.9448C76.9961 81.7363 76.1239 80.94 75.7319 79.4629C75.4504 78.3953 75.4805 77.3052 75.4529 76.22C75.3322 72.3516 74.3796 71.0478 70.6548 69.8798C69.4584 69.5055 68.7321 68.8122 68.3928 67.619C68.1269 66.8266 67.9631 66.0036 67.9052 65.1698C67.8574 64.989 67.8096 64.8106 67.7644 64.6322C67.782 64.1499 67.8071 63.6475 67.8323 63.1452Z" fill="#E98D2C"/>
<path d="M67.8321 63.1452C67.807 63.6476 67.7819 64.1324 67.7593 64.6272C67.8045 64.8056 67.8523 64.984 67.9 65.1648C67.9579 65.9986 68.1218 66.8216 68.3876 67.614C68.7319 68.8122 69.4583 69.5055 70.6497 69.8748C74.3745 71.0428 75.3271 72.3465 75.4477 76.215C75.4829 77.3002 75.4477 78.3903 75.7267 79.4579C76.1188 80.9425 76.9834 81.7313 78.5216 81.9398C78.974 82.0228 79.4303 82.0823 79.8889 82.1181C82.9049 82.2086 84.0159 84.3211 84.2722 86.8256C84.4532 88.5839 85.3681 89.4054 86.9188 89.1567C88.4093 88.9055 89.0678 87.8304 88.7134 86.1599C88.2692 84.1953 87.4592 82.3316 86.3257 80.6662C85.4686 79.36 84.129 78.6114 82.6838 78.1191C80.6881 77.4408 79.5948 76.3406 79.6426 73.9994C79.6878 71.7587 78.6875 69.8572 76.3224 69.0357C74.3117 68.3324 73.349 66.7172 72.7207 64.8131C72.4623 64.0625 72.1619 63.3271 71.8209 62.6102C71.5696 62.0676 71.1976 61.6053 70.5165 61.5752C72.0245 61.1657 72.7131 61.4371 73.4094 62.7332C73.6442 63.1294 73.8492 63.5425 74.0226 63.9691C74.744 65.9787 76.1464 67.2899 78.1195 68.0988C80.3162 68.9981 80.9671 71.0479 81.1732 73.0876C81.3793 75.1273 82.1786 76.1999 84.0837 76.8806C88.3163 78.3878 89.7489 82.0553 90.5683 86.0243C91.0961 88.5739 88.6229 90.3323 86.2955 90.5458C83.9681 90.7593 82.4601 89.3677 82.2741 86.7979C82.1434 84.8938 81.2989 83.9343 79.4767 83.9971C76.2419 84.1101 73.7989 81.8569 73.721 78.1216C73.6984 77.0364 73.6582 75.9562 73.5727 74.8711C73.4345 73.1629 72.4467 72.3742 70.9915 71.8718C70.0917 71.5603 69.1441 71.3869 68.37 70.7288C66.4749 69.1237 66.211 66.9734 66.2412 64.7001C66.2537 63.7078 66.8972 63.2758 67.8321 63.1452Z" fill="#B35737"/>
<path d="M62.0135 60.1308C63.9061 57.9504 66.1807 56.4507 69.1264 56.1769C69.6543 56.1292 70.2147 56.0715 70.7099 56.3854C70.5233 56.6855 70.2506 56.9224 69.9274 57.0653C69.6042 57.2083 69.2454 57.2506 68.8977 57.1868C67.6838 56.9356 66.794 57.438 65.8817 58.0107C64.8763 58.6462 63.8835 59.3395 62.9008 60.0203C62.6142 60.2137 62.3478 60.382 62.0135 60.1308Z" fill="#B35737"/>
<path d="M60.8877 61.1179C61.2295 60.7989 61.4758 60.3644 61.9483 60.2036C62.0715 61.0602 61.4457 61.0476 60.8877 61.1179Z" fill="#B35737"/>
<path d="M54.8833 9.65265C54.8554 9.69358 54.8179 9.72707 54.7741 9.75022C54.7303 9.77337 54.6815 9.78548 54.632 9.78548C54.5824 9.78548 54.5336 9.77337 54.4898 9.75022C54.446 9.72707 54.4085 9.69358 54.3806 9.65265H54.8833Z" fill="#DE703D"/>
<path d="M57.1731 39.3894L56.8463 39.4799C56.9418 39.4472 57.0524 39.4195 57.1731 39.3894Z" fill="#61452D"/>
<path d="M54.8856 9.65267H54.3829C54.4458 9.5547 54.491 9.40144 54.5765 9.36878C54.7926 9.30096 54.8303 9.50446 54.8856 9.65267Z" fill="#D05E2B"/>
<path d="M53.928 51.6403C54.1567 50.952 54.3854 50.2662 54.6166 49.5779C54.868 49.0504 54.9032 48.0883 55.8557 48.955L56.8611 51.8789C57.1552 53.8684 57.59 55.8529 57.1124 57.875L57.1351 57.8574L56.8611 58.1287V58.1036L56.6098 58.3774C54.8504 59.6083 53.458 59.0129 53.189 56.8828C52.9779 55.2324 53.5359 53.6674 53.7973 52.0698L53.928 51.6403Z" fill="#E98D2C"/>
<path d="M59.4601 110.873C59.0153 110.539 58.5503 110.697 58.1683 110.948C57.2358 111.558 57.0649 112.41 57.3715 113.46C58.02 115.721 56.723 116.859 54.5791 116.567C52.8399 116.329 51.0981 116.103 49.3563 115.871L48.7229 115.771L45.076 115.211L44.7794 115.168L43.8444 115.078L43.2111 114.945C41.2004 114.774 39.265 114.309 37.3222 113.842C36.8547 113.729 36.6184 113.676 36.3596 114.163C35.0702 116.582 33.7683 118.996 32.401 121.37C32.2764 121.549 32.2017 121.758 32.1845 121.975C32.1673 122.192 32.2082 122.41 32.303 122.606C33.1103 124.621 33.5249 126.771 33.5245 128.941H52.1235C52.1092 128.739 52.1261 128.536 52.1738 128.338C54.3202 123.357 56.5798 118.429 59.4375 113.804C59.7676 113.322 59.9755 112.767 60.0432 112.186C60.0672 111.936 60.0262 111.683 59.924 111.453C59.8219 111.223 59.6621 111.023 59.4601 110.873ZM50.1053 124.588C49.0773 127.258 46.8102 128.105 44.2441 128.394C40.9566 128.753 38.3703 127.389 36.3797 124.877C35.1682 123.34 35.2964 121.805 36.6109 120.333C37.8676 118.916 39.5189 118.268 41.3687 118.072C41.6653 118.042 42.1404 117.868 42.2158 118.291C42.2912 118.713 41.7709 118.707 41.4919 118.838C40.7731 119.175 40.0165 119.433 39.3078 119.793C36.44 121.247 36.2012 123.561 38.6945 125.57C41.1099 127.507 45.3198 127.504 47.71 125.55C48.5445 124.867 49.2633 124.076 48.9944 122.887C48.7079 121.631 47.5994 121.435 46.5715 121.232C45.9509 121.145 45.3256 121.095 44.699 121.084C43.61 120.986 42.5135 121.151 41.502 121.566C40.9189 121.817 40.4966 122.187 40.5519 122.885C40.5971 123.541 41.1476 123.656 41.6126 123.784C42.4193 124.025 43.279 124.025 44.0857 123.784C44.5884 123.631 45.0559 123.483 45.0408 122.815C45.0408 122.563 45.1162 122.254 45.4078 122.234C45.7772 122.209 45.8451 122.573 45.928 122.842C46.207 123.726 45.4957 124.852 44.42 125.09C43.0578 125.404 41.6281 125.21 40.3986 124.545C38.8906 123.726 38.8905 121.782 40.381 120.873C43.0452 119.258 45.8149 119.366 48.5596 120.574C50.1706 121.277 50.7437 122.93 50.1053 124.586V124.588Z" fill="#F4C686"/>
<path d="M38.3224 112.631C42.6329 113.133 46.9333 113.719 51.2387 114.271C51.3052 114.225 51.3864 114.205 51.4668 114.215C51.5471 114.226 51.6208 114.265 51.6735 114.327C52.6789 114.43 53.6692 114.518 54.662 114.648C55.1822 114.716 55.3179 114.588 55.2023 114.053C54.9528 113.116 55.0128 112.124 55.3733 111.224C56.0896 109.579 56.082 109.574 54.2523 108.964C53.9003 108.834 53.5401 108.727 53.174 108.644C48.3609 107.73 43.4925 107.326 38.5964 107.117C37.2391 107.062 36.269 108.054 36.3192 109.539C36.4248 112.011 36.6887 112.44 38.3224 112.631Z" fill="#F4C686"/>
<path d="M79.9792 40.8012C80.0219 40.4797 80.3562 40.0476 79.6625 40.0149C78.7979 39.9647 77.9333 39.8918 77.0662 39.8341C76.7067 39.8089 76.6766 40.0351 76.7268 40.3114L76.4981 40.8991C76.3951 41.0272 76.2945 41.1503 76.1915 41.2885L75.9829 41.497C75.8622 41.5548 75.719 41.59 75.7114 41.7482L75.1937 41.9768L75.2264 41.9467C74.5675 42.1427 73.8633 42.1242 73.2156 41.8939C72.5625 41.5357 72.0582 40.9569 71.7931 40.2611C71.7126 40.2611 71.6297 40.2862 71.5417 40.2938C70.6821 40.3641 70.2549 40.3993 70.0563 40.6178C70.2549 40.3993 70.6821 40.3666 71.5417 40.2938C71.6221 40.2938 71.7051 40.2711 71.7931 40.2611C71.4657 40.0526 71.0869 39.9388 70.6988 39.9321C70.3106 39.9255 69.9282 40.0263 69.5938 40.2234C69.0736 40.5801 69.5938 41.4267 69.7974 42.0421L69.9558 42.2933L70.1116 42.6073C70.1644 42.7203 70.192 42.8585 70.3202 42.8861L70.3001 42.9464L70.6746 43.3458C70.9043 43.7289 71.2516 44.0276 71.6649 44.1974C71.8912 44.4159 72.1899 44.5437 72.5044 44.5566C74.412 45.2097 76.1689 44.9384 77.7649 43.6875C77.9911 43.5267 78.2676 43.4161 78.348 43.1097L78.3354 43.175H78.4008L79.1045 42.3184H79.0266C79.2277 42.3184 79.2779 42.1802 79.2779 42.0144V42.0547L79.66 41.512C79.8598 41.3113 79.975 41.0416 79.9817 40.7585L79.9792 40.8012ZM70.1267 42.3159C70.1143 42.2689 70.0948 42.224 70.0689 42.1828C70.0931 42.2177 70.1125 42.2557 70.1267 42.2958V42.3159ZM70.1468 42.4641C70.1466 42.4157 70.1399 42.3675 70.1267 42.321C70.1388 42.3635 70.1455 42.4074 70.1468 42.4516V42.4641ZM69.9206 41.3111C69.9206 41.5121 69.9432 41.7583 69.9658 42.0647C69.9432 41.7457 69.9231 41.4995 69.9206 41.291V41.3111ZM70.1468 42.4691C70.1505 42.5201 70.1505 42.5714 70.1468 42.6224C70.1512 42.5672 70.1512 42.5117 70.1468 42.4565V42.4691ZM70.4509 42.9916C70.5198 43.022 70.5793 43.0701 70.6235 43.131C70.6677 43.1919 70.6948 43.2634 70.7023 43.3383C70.6965 43.2613 70.6701 43.1874 70.6259 43.1242C70.5816 43.061 70.5212 43.0109 70.4509 42.9791V42.9916ZM70.7023 43.3408C70.9336 43.3418 71.1571 43.4246 71.3333 43.5744C71.5095 43.7243 71.6269 43.9316 71.6649 44.1597C71.6293 43.9276 71.5116 43.716 71.3331 43.5634C71.1545 43.4108 70.9271 43.3274 70.6922 43.3283L70.7023 43.3408ZM72.4767 44.4612C72.4778 44.4687 72.4778 44.4762 72.4767 44.4837C72.4761 44.4714 72.4727 44.4594 72.4666 44.4486L72.4767 44.4612ZM72.4465 44.3782C72.4461 44.3866 72.4461 44.395 72.4465 44.4033C72.4422 44.3911 72.4388 44.3785 72.4365 44.3657L72.4465 44.3782ZM75.714 41.7758C75.647 41.8502 75.5647 41.9092 75.4727 41.9487C75.3807 41.9882 75.2812 42.0072 75.1811 42.0044C75.2817 42.0053 75.3813 41.9841 75.4729 41.9424C75.5645 41.9008 75.6459 41.8396 75.7114 41.7632L75.714 41.7758ZM75.1811 42.0044C75.0679 42.117 74.9422 42.2164 74.8066 42.3008C74.942 42.2124 75.0668 42.1087 75.1786 41.9919L75.1811 42.0044ZM73.3488 42.0371C73.3639 42.0547 73.3815 42.0672 73.3966 42.0823C73.4117 42.0973 73.3614 42.0446 73.3463 42.0245L73.3488 42.0371ZM73.4695 42.1501C73.4901 42.169 73.512 42.1866 73.5348 42.2028C73.5107 42.1827 73.488 42.1609 73.467 42.1376L73.4695 42.1501ZM73.5901 42.2456C73.6141 42.264 73.6393 42.2808 73.6655 42.2958C73.638 42.2769 73.612 42.2559 73.5876 42.233L73.5901 42.2456ZM73.8314 42.3863C73.8607 42.4002 73.8909 42.4119 73.9219 42.4214C73.8897 42.4079 73.8586 42.392 73.8289 42.3737L73.8314 42.3863ZM73.9521 42.434C73.9841 42.4439 74.0169 42.4514 74.0501 42.4565C74.0157 42.4474 73.9821 42.4357 73.9495 42.4214L73.9521 42.434ZM74.0727 42.4616C74.107 42.4639 74.1414 42.4639 74.1758 42.4616C74.1403 42.4598 74.105 42.4557 74.0702 42.4491L74.0727 42.4616ZM74.1933 42.4616C74.2302 42.4641 74.2671 42.4641 74.3039 42.4616C74.2663 42.4642 74.2285 42.4642 74.1908 42.4616H74.1933ZM74.309 42.4591C74.347 42.4557 74.3848 42.4498 74.4221 42.4415C74.3864 42.4496 74.3503 42.4555 74.314 42.4591H74.309ZM74.4296 42.4415C74.4696 42.4321 74.5091 42.4203 74.5477 42.4063C74.5107 42.4202 74.473 42.4319 74.4346 42.4415H74.4296ZM74.7991 42.2883C74.7596 42.313 74.7185 42.3348 74.6759 42.3536C74.72 42.3374 74.7628 42.3181 74.8041 42.2958L74.7991 42.2883ZM77.9735 40.2787C78.1142 40.2787 78.2525 40.2586 78.3932 40.2536C78.2575 40.2611 78.1193 40.2712 77.9785 40.2862L77.9735 40.2787ZM78.4762 42.7329C78.5247 42.6531 78.5888 42.5838 78.6647 42.5294C78.5937 42.5868 78.5348 42.6577 78.4912 42.7379L78.4762 42.7329Z" fill="#F4C686"/>
<path d="M60.943 41.0172C60.5685 40.9795 60.4604 41.1554 60.478 41.5196C60.5308 42.5822 59.9049 43.2905 59.1333 43.9035C58.1506 44.4234 57.1427 44.3606 56.1173 44.0416C55.5442 43.6322 54.9862 43.2077 54.662 42.552C54.5565 42.341 54.6042 41.8939 54.3579 41.9391C53.3042 42.1285 52.2627 42.3802 51.2388 42.6927C50.9422 42.7832 51.2086 43.1122 51.2915 43.3283C51.9677 45.1067 53.2696 46.1341 55.1144 46.5134L55.8684 46.6315L57.3916 46.6089L57.8942 46.5185C60.0909 46.3275 61.5261 45.064 62.5138 43.2027C62.8406 42.5847 63.4212 41.7733 63.0517 41.2609C62.6571 40.7158 61.6769 41.0926 60.943 41.0172Z" fill="#F4C686"/>
<path d="M98.3502 89.7545L98.3472 89.7574L98.3502 89.7545Z" fill="#1D2831"/>
<path d="M92.5961 69.6756V69.6562H92.5815L92.5961 69.6756Z" fill="#1D2831"/>
<path d="M116.687 111.124C116.132 110.466 116.039 109.908 116.363 109.097C116.951 107.627 117.871 106.424 118.876 105.231C121.453 102.164 123.335 98.8151 122.596 94.595C121.707 89.5158 117.743 86.0543 112.344 84.7807C109.095 84.0268 105.692 84.2899 102.597 85.5343C101.72 85.876 101.283 85.8734 101.049 84.7807C100.546 82.4396 99.5963 80.322 97.4498 78.9731C96.9672 78.6691 96.7712 78.2948 96.9874 77.7171C98.3396 74.032 96.3238 69.4577 92.9333 67.2547C87.8562 63.954 84.2043 59.3948 81.4873 54.0392C80.2029 51.5097 80.0547 48.7415 79.7505 46.0009C79.6701 45.2699 79.5319 44.6369 80.208 43.9562C83.4176 40.7233 82.6057 35.0336 80.2909 32.808C78.8507 31.4239 78.3883 29.9092 78.0289 28.1785C77.9258 27.6761 77.8052 27.1988 77.672 26.7165C76.2519 21.4589 73.4243 17.387 68.1211 15.4C67.7867 15.2794 67.4823 15.0882 67.2286 14.8394C66.9748 14.5906 66.7778 14.29 66.6507 13.9582C65.6845 11.7069 64.0072 9.83385 61.8753 8.62524C54.8655 4.47044 46.7548 8.41173 44.8923 13.9657C44.8114 14.2451 44.6585 14.4983 44.449 14.7002C44.2396 14.9021 43.9808 15.0455 43.6985 15.1162C42.337 15.5493 41.077 16.2524 39.9937 17.1836C39.3051 17.7688 38.5712 17.9371 37.6965 17.9773C32.2626 18.1883 26.8462 18.5676 21.4726 19.4845C13.4448 20.8485 8.48086 26.6612 8.35016 34.8075C8.27224 39.5803 9.22481 44.2023 10.1296 48.8319C11.8714 57.7369 13.6961 66.6217 15.5158 75.5091C16.4659 80.1361 17.2752 84.8034 18.6877 89.3249C18.924 90.0785 19.3161 91.3345 19.864 91.1838C20.5652 90.9879 20.1832 89.8248 20.0374 89.0838C18.2931 80.2667 16.4709 71.4648 14.7945 62.6352C13.3141 54.833 11.2757 47.1363 10.2955 39.2437C9.79284 35.212 9.87578 31.1853 12.0549 27.5429C13.5453 25.031 15.5284 23.049 18.4691 22.2678C19.4191 22.0543 20.3214 21.6046 21.3343 21.7327C21.92 21.3986 22.5709 21.3534 23.2194 21.2856L23.7221 21.2353C26.5245 20.7505 29.3571 20.5571 32.1846 20.3285C32.3877 20.3424 32.5871 20.3891 32.7753 20.4667C33.6575 20.0271 34.6176 20.2783 35.54 20.1627C36.103 19.9743 36.8847 19.7583 37.1963 20.1276C37.508 20.4968 36.862 21.0721 36.6233 21.5418C35.8759 22.9466 35.3238 24.4466 34.982 26.0005C34.931 26.372 34.7999 26.7279 34.5976 27.0437C34.3954 27.3594 34.1269 27.6275 33.8108 27.8293C29.6436 30.6678 29.2515 34.9985 29.6637 39.3568C30.7998 51.2937 33.5092 62.9517 36.3342 74.5796C36.6034 75.5913 36.9393 76.584 37.3396 77.5513C37.6337 78.3049 37.3773 78.5335 36.6384 78.5184C35.0901 78.4883 33.5419 78.4858 31.9936 78.4707C29.6813 78.6289 27.379 78.8198 25.2426 79.8447C24.3328 80.4376 23.3928 80.9902 22.6388 81.794C20.7387 83.8187 20.3239 88.2774 22.2542 89.8525C24.2473 91.4802 24.4962 93.2185 23.8075 95.424C23.6366 95.9766 23.6718 96.5895 23.5386 97.1572C23.3752 97.8455 23.7497 98.9659 22.9152 99.1141C22.1813 99.2472 21.8621 98.1721 21.4751 97.5491C18.7103 93.1004 14.8523 90.0408 9.81045 88.5814C6.81952 87.7147 3.72552 87.4962 0.616455 87.5415V89.551C3.76322 89.4732 6.88486 89.551 9.8959 90.6588C16.7776 93.1909 21.0478 98.044 22.116 105.263C22.9002 110.564 22.0381 115.703 18.464 120.051C18.1474 120.438 17.8533 120.845 17.5517 121.247C17.3179 121.559 17.0666 121.918 17.4863 122.222C17.8608 122.498 18.2253 122.237 18.4917 121.958C20.6406 119.604 22.7644 117.228 23.4833 113.98C23.5863 113.52 23.6467 112.608 24.4183 113.478C26.8487 116.241 29.2616 119.021 30.5057 122.588C31.2296 124.661 31.6769 126.766 31.5387 128.974H33.5494C33.5499 126.804 33.1353 124.653 32.3279 122.639C32.2331 122.443 32.1922 122.225 32.2095 122.007C32.2267 121.79 32.3014 121.582 32.4259 121.403C33.7932 119.029 35.0951 116.615 36.3845 114.196C36.6358 113.709 36.8872 113.761 37.3471 113.874C39.29 114.342 41.2379 114.806 43.236 114.977C43.3446 114.948 43.4585 114.945 43.5685 114.969C43.6785 114.992 43.7816 115.04 43.8694 115.11L44.8044 115.201L45.1009 115.243L48.7479 115.804L49.3812 115.904C51.123 116.135 52.8648 116.361 54.6041 116.6C56.748 116.891 58.0449 115.741 57.3964 113.493C57.0898 112.438 57.2607 111.586 58.1932 110.981C58.5752 110.729 59.0402 110.571 59.4851 110.905C59.6869 111.057 59.8462 111.258 59.9475 111.489C60.0487 111.72 60.0886 111.973 60.0632 112.224C59.9954 112.804 59.7875 113.36 59.4574 113.842C56.5997 118.466 54.3402 123.387 52.1937 128.376C52.146 128.573 52.1291 128.777 52.1435 128.979H54.1542C55.8708 124.49 57.688 120.049 60.3648 116.02C60.5457 115.748 60.684 115.339 61.066 115.387C61.448 115.434 61.4732 115.889 61.5687 116.183C62.2748 118.599 62.313 121.16 61.6793 123.596C61.5435 124.131 61.1565 124.829 61.9784 125.09C62.8002 125.352 63.0114 124.588 63.2577 124.023C63.406 123.681 63.4361 123.289 63.5819 122.945C63.7277 122.601 63.4939 122.056 63.9564 122.031C64.1725 122.018 64.4591 122.533 64.6476 122.837C65.145 123.665 65.4308 124.603 65.4795 125.568C65.487 125.901 65.5241 126.233 65.5901 126.56C65.6831 126.922 65.8414 127.314 66.2838 127.346C66.7261 127.379 66.8041 127.005 66.9121 126.685C66.9775 126.497 66.975 126.231 67.2213 126.196C67.5279 126.15 67.6335 126.447 67.7516 126.645C68.1789 127.384 67.9728 128.193 67.9828 128.979H69.9936C69.9936 126.904 69.4909 125.093 67.5505 123.955C67.2992 123.802 67.1258 123.453 66.9574 123.174C66.6784 122.709 66.5326 122.111 66.1531 121.765C64.4314 120.197 63.891 118.17 63.6397 115.972C63.5631 115.474 63.3925 114.995 63.137 114.56C62.569 113.547 62.2261 112.422 62.1317 111.265C61.9507 109.004 60.5332 107.876 58.2611 107.863C57.8413 107.863 57.4216 107.883 57.0044 107.863C55.6773 107.783 54.4231 105.635 54.9936 104.444C55.2148 103.997 55.5592 104.228 55.8608 104.321C57.0709 104.651 58.3129 104.849 59.5655 104.912C62.6469 105.163 65.2206 104.033 67.445 101.998C67.6674 101.78 67.932 101.611 68.2225 101.499C68.5129 101.388 68.8231 101.337 69.134 101.35C71.479 101.375 73.824 101.395 76.1715 101.35C77.0461 101.335 77.5563 101.679 77.9585 102.425C79.2152 104.776 79.5218 107.346 79.7531 109.931C79.8234 110.722 79.7782 111.521 79.7832 112.317C79.8008 115.105 80.5372 116.133 83.302 116.587C84.5461 116.791 84.4506 117.238 84.1339 118.13C82.9126 121.47 81.4501 124.717 79.7581 127.846C79.5645 128.213 79.2956 128.552 79.283 128.994H81.2937C83.8876 124.432 85.6872 119.526 87.527 114.641C89.1205 110.403 92.3929 108.094 96.4595 106.653C96.7109 106.56 97.0326 106.359 97.2613 106.675C97.4523 106.941 97.304 107.235 97.1985 107.509C96.734 108.725 95.9841 109.811 95.0118 110.677C94.7479 110.913 94.3156 111.179 94.5871 111.606C94.9188 112.109 95.3084 111.699 95.6729 111.541C97.8997 110.571 98.9403 108.798 99.1916 106.457C99.2752 105.856 99.155 105.245 98.8502 104.721C98.5454 104.197 98.0736 103.79 97.5101 103.565C93.1243 101.573 92.0611 95.4642 95.4994 92.0805L95.8664 91.8293L96.1177 91.4651C96.1281 91.4361 96.144 91.4093 96.1647 91.3865C96.1854 91.3636 96.2105 91.3451 96.2384 91.332L96.6154 91.0808C96.6983 90.9979 96.7838 90.915 96.8667 90.8296L97.118 90.4905L97.485 90.3247C97.7162 90.0484 97.9626 89.7997 98.3647 89.8223C99.0358 88.8175 100.096 88.4055 101.129 87.9433C106.812 85.1425 114.953 85.572 119.07 91.0356C121.536 94.3011 121.508 99.2999 118.957 102.49C118.178 103.465 117.449 104.475 116.587 105.399C114.576 107.572 113.842 110.305 113.437 113.166C113.128 115.346 112.52 117.419 110.808 118.986C110.494 119.275 109.997 119.624 110.557 120.109C110.643 120.202 110.748 120.276 110.864 120.328C110.98 120.379 111.105 120.406 111.232 120.407C111.359 120.408 111.484 120.383 111.601 120.334C111.718 120.285 111.824 120.213 111.912 120.122C113.448 118.783 114.332 117.052 114.915 115.143C115.061 114.663 115.147 114.166 115.28 113.684C115.453 113.068 115.762 113.02 116.099 113.55C118.009 116.547 118.341 120.082 114.842 122.593C111.407 125.05 107.606 126.08 103.457 126.271C100.961 126.384 98.43 126.54 96.4017 128.359C96.1831 128.554 95.9217 128.693 95.8614 129.012H99.3801C100.848 128.067 102.512 128.293 104.123 128.235C108.966 128.06 113.355 126.65 116.964 123.314C118.995 121.438 119.932 119.132 119.284 116.296C118.855 114.385 117.964 112.609 116.687 111.124ZM81.8844 58.4628C82.0161 58.5562 82.1337 58.6678 82.2338 58.7944C84.6315 62.8688 87.9492 66.059 91.7846 68.7644C91.9796 68.9199 92.1643 69.0877 92.3376 69.2668C92.4834 69.3522 92.6166 69.4477 92.604 69.6386C92.8553 69.5833 92.9785 69.739 93.1067 69.9048C94.9993 71.8918 95.9971 74.1601 95.3386 76.956C95.3574 77.0508 95.3498 77.149 95.3165 77.2398C95.2833 77.3307 95.2257 77.4106 95.1501 77.4709L94.856 77.9582C93.6169 79.2519 92.3929 79.1138 91.5559 77.599C91.1052 76.7958 90.811 75.9144 90.6888 75.0016C90.3646 72.4344 89.0601 70.4022 87.3586 68.5534C84.8616 65.8362 83.0201 62.5839 81.9749 59.0456C81.902 58.8597 81.7462 58.6838 81.8844 58.4703V58.4628ZM79.6575 41.5371L79.2755 42.0797V42.0395C79.2629 42.2053 79.2152 42.3384 79.0242 42.3435H79.1021L78.3983 43.2001H78.333L78.3455 43.1323C78.2651 43.4412 77.9886 43.5517 77.7624 43.7125C76.1664 44.9685 74.4096 45.2348 72.5019 44.5842C72.1719 44.5546 71.8639 44.4064 71.6348 44.1672L71.67 44.1948C71.2567 44.025 70.9094 43.7263 70.6797 43.3432L70.7023 43.3633L70.3077 42.9439L70.3278 42.8811C70.1997 42.8635 70.172 42.7178 70.1192 42.6047L70.1444 42.6474L69.9709 42.2983L69.8126 42.0471C69.6115 41.4316 69.0887 40.5851 69.609 40.2284C69.9434 40.0313 70.3258 39.9304 70.7139 39.9371C71.1021 39.9437 71.4808 40.0576 71.8082 40.2661C72.0738 40.9623 72.5779 41.5417 73.2308 41.9014C73.8791 42.129 74.5827 42.1466 75.2415 41.9516L75.1711 41.9968L75.7266 41.7456C75.7266 41.5874 75.8774 41.5522 75.998 41.4944L76.2066 41.2859C76.3097 41.1553 76.4102 41.0347 76.5133 40.8966L76.742 40.3088C76.6917 40.0325 76.7219 39.8064 77.0813 39.8315C77.9484 39.8893 78.813 39.9621 79.6776 40.0123C80.3713 40.0525 80.0371 40.4771 79.9943 40.7986C79.9811 41.0803 79.8606 41.3463 79.6575 41.5422V41.5371ZM37.4326 60.6482L37.3245 60.6708C36.75 61.641 36.386 62.7211 36.2563 63.841C36.2996 64.1266 36.2292 64.4179 36.0603 64.6523C35.2208 63.223 35.1555 61.5777 34.8589 60.0177C33.7354 54.0669 32.6948 48.1009 31.6543 42.135C31.4758 41.1101 31.4507 40.0576 31.3552 39.0176L31.3024 37.9676L31.3175 37.3346L31.3301 36.9402L31.3854 36.365C31.4005 36.2419 31.4155 36.1138 31.4281 35.9982C31.5613 34.6744 31.785 33.3783 32.4887 32.2152L32.7401 31.7304C33.0342 31.228 33.2428 30.6879 33.6751 30.2609C35.8718 28.0554 38.2771 28.2513 40.142 30.806C41.6501 32.8507 42.11 35.2145 42.2658 37.6536C42.4619 40.7408 42.5172 43.8356 42.8464 46.9152C43.0191 47.1811 43.0813 47.5037 43.0199 47.8145C44.4022 55.7524 46.7246 63.3888 50.5827 70.4876C51.6635 72.5178 52.9253 74.4464 54.3527 76.2501C54.5086 76.4435 54.6342 76.6571 54.775 76.863C54.501 77.0464 54.3175 76.7852 54.0913 76.7299C52.6813 76.3682 51.2763 75.9637 49.8538 75.6523C47.1971 75.0695 45.5257 73.4367 44.6536 70.9222C44.2425 69.7832 43.9511 68.6046 43.7839 67.4054C43.7412 67.207 43.696 67.0111 43.6507 66.8126L43.4547 65.1472C43.417 64.9688 43.3768 64.7905 43.3365 64.6121C43.1304 62.7633 43.0023 60.8944 42.2759 59.1536C42.1075 58.7492 42.0245 58.0131 41.2228 58.3472C41.2228 58.4477 41.2404 58.5457 41.2504 58.6462C41.2349 60.7251 41.3238 62.8034 41.5169 64.8733C41.5169 64.9713 41.5169 65.0718 41.5169 65.1698C41.5671 65.4938 41.6149 65.8179 41.6626 66.1419C41.6878 66.2449 41.7154 66.3479 41.7405 66.4509C41.9039 68.5082 42.4694 70.4701 43.1832 72.3892C44.0956 74.8434 45.9052 76.3204 48.3407 77.1268C49.9241 77.6492 51.5402 78.1089 53.0659 78.7746C55.7074 79.9276 58.1957 81.3192 59.0251 84.409C59.382 85.7428 59.4147 87.0566 58.5224 88.2272C58.2962 88.5236 58.0198 88.8728 57.6126 88.7949C57.2381 88.7246 57.2105 88.3176 57.1099 88.0036C57.0861 87.8814 57.0499 87.7619 57.0018 87.6469C56.7932 87.2676 56.846 86.5341 56.3157 86.5995C55.6396 86.6798 55.8859 87.3857 55.8959 87.8554C55.9186 88.8175 55.6873 89.6389 54.6644 89.9203C53.5434 90.2267 52.4752 90.1111 51.7589 89.0561C51.4807 88.6396 51.2766 88.1781 51.1557 87.6921C50.9519 86.8119 50.5467 85.9909 49.9719 85.2935C49.3971 84.5962 48.6684 84.0415 47.8431 83.673C45.8323 82.7234 43.7688 81.9021 42.0245 80.4928C38.8853 77.9633 37.7769 74.5068 37.5683 70.6484C37.4608 67.8013 37.5027 64.9505 37.694 62.1077C37.6337 61.6229 37.5758 61.1381 37.5155 60.6533L37.4326 60.6482ZM22.968 85.8709C23.0108 84.0221 23.9256 82.7184 25.6196 81.9673C27.5675 80.636 29.7969 80.5305 32.0414 80.4979H37.5256C38.7069 80.3145 39.5891 80.6435 40.4964 81.5504C42.1904 83.2409 44.3846 84.2206 46.6014 85.0998C47.0765 85.2882 47.6922 85.3184 47.8581 85.9689H48.1095C48.7604 86.7075 49.0822 87.6143 49.429 88.5135C50.5248 91.3571 52.2365 92.2439 55.2525 91.6209C55.6572 91.538 56.2579 90.9577 56.5444 91.6611C56.7505 92.1861 56.3484 92.7111 55.9035 93.0602C55.2809 93.5645 54.5329 93.8901 53.7395 94.0022C51.0024 94.3414 48.2653 94.7181 45.5207 94.9869C42.9369 95.2381 40.4436 94.5197 37.9579 93.9821C33.618 93.0439 29.3974 91.6207 25.3759 89.7394C23.6843 88.9909 22.9228 87.6746 22.963 85.8785L22.968 85.8709ZM51.9248 106.522C48.7253 105.992 49.5974 106.761 49.1601 103.631C48.9414 102.076 48.8559 100.503 48.7077 98.9382C48.67 98.7373 48.6222 98.5363 48.592 98.3304C48.3407 96.4991 48.5191 96.3208 50.3665 96.2429C51.1482 96.2128 51.6458 96.4137 51.774 97.2477C51.8595 97.7777 51.9977 98.2977 52.1108 98.8227C52.45 100.07 52.6837 101.344 52.8095 102.631C52.9151 103.54 52.9528 104.462 53.1413 105.351C53.3725 106.489 53.1337 106.972 51.9198 106.529L51.9248 106.522ZM46.7171 98.7725C46.6643 99.1769 46.4657 99.0236 46.3074 98.9282C45.8198 98.6117 45.3347 98.2851 44.8773 97.9234C44.6586 97.7526 44.2967 97.5466 44.3897 97.2577C44.5229 96.8332 44.9728 97.1346 45.2467 97.0417C45.4644 97.0383 45.6801 97.0834 45.8782 97.1736C46.0763 97.2638 46.2518 97.3969 46.3921 97.5633C46.5324 97.7297 46.6338 97.9252 46.6892 98.1357C46.7445 98.3461 46.7523 98.5662 46.712 98.78L46.7171 98.7725ZM26.9417 102.154C26.4013 102.334 25.9363 101.508 25.4663 101.068H25.494L25.1119 100.802C24.7148 99.3276 25.3507 97.946 25.499 96.5318C25.5493 96.0294 25.6674 95.5496 25.7504 95.0598C25.773 94.6855 25.768 94.3062 25.8258 93.942C26.0997 92.2413 26.0972 92.269 27.7033 92.8141C28.3442 93.0326 28.5754 93.3968 28.4271 94.0273C28.314 94.5121 28.1758 94.9919 28.0602 95.4742L28.0426 95.7531L28.0049 96.0545C27.8541 97.4034 27.7535 98.7624 27.3313 100.074C27.3162 100.197 27.3086 100.325 27.2835 100.44C27.1553 101.036 27.4092 102.003 26.9367 102.161L26.9417 102.154ZM28.6156 114.377C27.9998 114.656 27.6756 114.226 27.3413 113.874C26.3737 112.837 25.4462 111.762 24.461 110.742C23.9307 110.194 24.0538 109.609 24.2423 108.926C23.9307 107.052 24.1468 105.07 23.624 103.148C23.5562 102.897 23.3249 102.55 23.6818 102.38C23.9332 102.259 24.1066 102.578 24.2951 102.729C27.276 105.093 28.9223 108.255 29.7316 111.9C29.797 112.271 29.8072 112.649 29.7617 113.023C29.6964 113.736 29.2138 114.111 28.6106 114.389L28.6156 114.377ZM34.7081 111.501C35.2434 112.887 34.8187 114.013 33.9717 115.103C33.1795 116.182 32.4911 117.333 31.9157 118.542C31.6015 119.152 31.2622 119.431 30.8324 118.62C30.6833 118.368 30.5214 118.124 30.3474 117.889C29.3621 116.422 29.3696 116.434 30.7972 115.475C31.8629 114.759 31.9283 113.636 31.7523 112.551C31.3175 109.89 30.4831 107.348 29.0127 105.067C28.8355 104.819 28.7124 104.537 28.6513 104.238C28.5903 103.94 28.5927 103.632 28.6584 103.334C29.146 100.496 29.6034 97.6521 29.9729 94.7935C30.091 93.8967 30.3775 93.7334 31.1642 94.0273C34.1803 95.1502 37.3346 95.8485 40.4939 96.4689C41.3459 96.6347 41.9768 97.0191 42.3714 97.7652C43.2159 99.3603 44.5405 100.383 46.1943 101.006C46.4738 101.094 46.7197 101.265 46.8993 101.497C47.0789 101.729 47.1837 102.009 47.1996 102.302C47.27 102.967 47.2298 103.658 47.4057 104.291C47.8305 105.819 47.3856 105.927 45.9555 105.771C43.6708 105.52 41.3836 105.301 39.0839 105.286C35.9824 105.268 34.5045 106.761 34.4768 109.896C34.5522 110.443 34.512 111.018 34.703 111.508L34.7081 111.501ZM55.3883 111.217C55.0278 112.117 54.9678 113.109 55.2173 114.045C55.3329 114.58 55.1972 114.708 54.677 114.641C53.6842 114.51 52.6838 114.422 51.6885 114.319L51.2537 114.264C46.9483 113.711 42.6479 113.123 38.3374 112.623C36.6937 112.433 36.4297 112.003 36.3443 109.531C36.294 108.047 37.2642 107.054 38.6214 107.11C43.5075 107.318 48.3759 107.723 53.1991 108.637C53.5651 108.72 53.9253 108.826 54.2773 108.956C56.092 109.574 56.0995 109.579 55.3832 111.224L55.3883 111.217ZM68.1889 97.0341C67.0428 101.247 62.5665 103.791 58.055 102.98C55.632 102.543 53.8953 101.711 53.9079 98.883C53.9079 98.0264 53.282 97.0241 53.5685 96.3534C53.8023 95.8058 54.966 95.6551 55.715 95.326C57.6176 94.4871 58.9824 93.3164 58.6908 90.9501C58.5828 90.0685 59.6334 90.0258 60.0229 89.4782C61.159 87.8127 61.1816 85.9614 60.9303 84.0623C60.9077 83.8915 60.7543 83.6278 61.0308 83.5449C61.1313 83.5147 61.3173 83.668 61.4279 83.7735C64.4691 86.6196 67.2841 89.6238 68.292 93.849C68.5408 94.9216 68.6338 95.9942 68.1839 97.0417L68.1889 97.0341ZM95.0822 104.193C95.4844 104.535 95.5849 104.884 94.9892 105.113C92.8755 105.906 90.9052 107.037 89.1556 108.464C89.0878 108.513 89.0173 108.56 88.9445 108.602C88.5499 108.602 88.6228 108.28 88.6102 108.062C88.4619 105.462 88.0648 102.92 86.8358 100.576C86.5643 100.059 86.9112 99.933 87.3133 99.8225C88.4745 99.4808 89.6407 99.1543 90.7843 98.7649C91.4202 98.5464 91.6942 98.7649 91.8902 99.3452C92.4798 101.227 93.5805 102.908 95.0696 104.201L95.0822 104.193ZM97.3191 88.0765C96.9723 88.3126 96.6204 88.5437 96.3138 88.8099C95.7256 89.3123 95.1702 89.8801 94.7328 88.6593C94.6877 88.5397 94.605 88.4379 94.4972 88.3691C94.3894 88.3003 94.2622 88.2681 94.1347 88.2774C93.7426 88.3352 93.8406 88.7246 93.735 88.9758C93.7143 89.0123 93.7072 89.055 93.7149 89.0963C94.4061 90.9376 93.0313 92.1107 92.3099 93.5124L91.8073 95.6702C91.7344 95.9917 91.7042 96.3534 91.2242 96.2982C91.04 96.4721 90.822 96.6064 90.5838 96.6929C90.3456 96.7793 90.0922 96.8159 89.8393 96.8006C89.7614 97.0668 89.5377 97.0517 89.3366 97.0517C89.2036 97.1746 89.0418 97.262 88.8661 97.3059C88.6904 97.3499 88.5064 97.3488 88.3312 97.3029C87.4394 97.8839 86.3729 98.1362 85.3152 98.0164L83.0531 95.532C82.0628 94.9417 81.1681 94.1655 79.9968 93.9143C78.9513 94.5875 78.9764 95.3286 80.1376 96.0018C81.6187 96.8263 82.8798 97.9945 83.8147 99.408C85.6495 101.669 86.4638 104.304 86.7805 107.137C86.8095 107.721 86.8716 108.304 86.9665 108.881C87.4138 110.832 86.7302 112.485 85.6444 114.023C84.9759 114.97 83.9931 114.837 83.0255 114.638C82.0578 114.44 81.5903 113.844 81.5476 112.88C81.4672 111.001 81.5476 109.112 81.2963 107.243C81.0216 105.04 80.318 102.913 79.2252 100.981C78.3832 99.5261 77.2145 98.4233 75.5129 98.0088C75.2733 97.9374 75.0289 97.8829 74.7816 97.8455C74.4674 97.8179 74.0451 97.6169 73.8792 97.9912C73.7385 98.3178 74.0074 98.6117 74.3141 98.7976C74.4774 98.8955 74.7891 98.9207 74.6685 99.1894C74.6257 99.2899 74.309 99.2974 74.1155 99.2974C72.7784 99.2974 71.4413 99.2975 70.0941 99.3176C69.5914 99.3176 69.2546 99.3 69.5788 98.6444C69.8083 98.1093 70.0072 97.5616 70.1745 97.004C70.6772 92.1283 68.3573 88.3754 65.2709 84.9691C63.7277 83.2576 62.0601 81.6624 60.2818 80.1964C56.1699 76.8328 53.5309 72.3465 51.1783 67.7245C48.1874 61.8464 46.3727 55.5414 45.1185 49.0756C45.0546 48.6209 45.0161 48.163 45.0029 47.704C44.9602 47.5709 44.92 47.4403 44.8798 47.3071L44.7566 45.697C44.7164 45.5638 44.6737 45.4458 44.6334 45.3001L44.2791 39.0327C44.2242 38.9565 44.1919 38.8664 44.1856 38.7727C44.1794 38.679 44.1996 38.5854 44.2439 38.5026C44.2137 38.2514 44.181 38.0003 44.1509 37.7641C44.1383 37.6637 44.1283 37.5632 44.1182 37.4627C43.9021 34.4483 43.2988 31.5872 41.2756 29.2009C40.3029 28.0554 39.1492 27.1913 37.6311 26.925C37.2265 26.8547 36.9324 26.7642 37.0304 26.2191C38.1841 19.7809 42.6881 15.7568 48.871 16.126C49.9842 16.1814 51.0719 16.478 52.0589 16.9955C53.0458 17.513 53.9083 18.2389 54.5865 19.1228C54.8378 19.4293 55.0263 20.1477 55.5918 19.7634C56.0744 19.4293 55.8155 18.8264 55.5416 18.3994C53.9933 15.9854 51.7715 14.6967 48.9213 14.4003C48.2452 14.3324 47.1845 14.6741 46.9935 14.1014C46.8025 13.5286 47.5766 12.7926 48.0366 12.2073C48.4999 11.556 49.1004 11.014 49.796 10.6197L50.1202 10.3861C50.6505 9.99929 51.1733 9.59485 51.8796 9.61243C55.1243 8.23336 58.2435 8.70814 61.164 10.4515C65.0422 12.765 66.0727 16.4375 65.7132 20.6827C66.4673 21.592 66.7337 21.5795 67.1006 20.5621C67.4 19.7771 67.5227 18.9357 67.4601 18.0979C67.3821 17.2639 67.6511 17.3443 68.2744 17.6458C71.9113 19.3514 74.2186 22.1673 75.3496 25.978C75.7291 27.2591 76.0659 28.5527 76.4454 29.8338C76.6364 30.4719 76.5359 30.7884 75.7769 30.6904C74.9072 30.5799 74.0175 30.5447 73.1504 30.4392C71.4136 30.2508 70.2625 29.2385 69.4406 27.7715C69.1491 27.2465 68.8349 26.7089 68.0909 26.9652C67.2992 27.2365 67.3645 27.9021 67.45 28.5326C67.5044 29.0986 67.7018 29.6414 68.0236 30.1102C68.3454 30.579 68.7811 30.9585 69.2898 31.2129C71.2854 32.2403 73.364 32.9286 75.6562 32.8281C78.3581 32.7126 80.2381 34.5739 80.311 37.3321C80.3261 37.8546 80.2406 38.0706 79.6425 38.0455C76.2544 37.8948 72.8563 37.8244 69.4858 38.2163C68.8399 38.2917 68.8022 37.9325 68.8022 37.4753C68.8022 36.4705 68.8022 35.4657 68.8022 34.4609C68.8022 34.0766 68.7846 33.6445 68.3347 33.549C67.9275 33.4661 67.8044 33.8731 67.6511 34.162C65.7585 37.7089 67.9477 44.5189 71.5669 46.2195C72.4559 46.6534 73.4351 46.8705 74.4242 46.8531C75.4133 46.8356 76.3842 46.584 77.2572 46.119C77.9535 45.7698 78.064 45.9155 78.0992 46.6214C78.3328 50.7151 78.9949 54.7732 80.0748 58.7291C81.1857 62.9215 83.0506 66.7222 86.0315 69.8998C87.6602 71.6356 88.7284 73.5849 89.1079 75.9411C89.2368 76.939 89.5651 77.9009 90.073 78.7696C91.2744 80.7038 92.7749 81.2815 94.8686 80.4476C95.605 80.1512 96.0725 80.2366 96.6279 80.7541C97.4649 81.5328 98.2315 82.3416 98.6713 83.4167C99.6239 85.8458 99.3977 86.6622 97.3066 88.084L97.3191 88.0765Z" fill="#1D2831"/>
<path d="M70.4479 42.8507L70.338 42.8157L70.323 42.8632C70.365 42.8697 70.408 42.8654 70.4479 42.8507Z" fill="#1D2831"/>
<path d="M75.7391 41.7356L75.7116 41.7481C75.7091 41.7638 75.7091 41.7798 75.7116 41.7955L75.7391 41.7356Z" fill="#1D2831"/>
<path d="M112.54 102.761C113.375 101.832 114.164 100.857 114.978 99.9054C115.177 99.6718 115.358 99.4382 115.099 99.1392C115.008 99.021 114.875 98.9422 114.728 98.9193C114.58 98.8964 114.43 98.9311 114.307 99.0161C114.09 99.1399 113.882 99.2784 113.684 99.4306C109.396 102.749 107.717 107.318 107.388 112.425C107.431 113.076 107.3 113.638 107.617 114.131C107.82 114.447 108.067 114.809 108.489 114.744C109.012 114.661 108.914 114.173 108.891 113.829C108.823 112.729 109.062 111.661 109.21 110.591C109.612 107.69 110.532 104.995 112.54 102.761Z" fill="#1D2831"/>
<path d="M63.2049 34.3428C62.9209 34.0062 62.7199 33.2074 62.1518 33.5591C61.7145 33.8304 61.9156 34.5639 62.0614 35.0663C62.2052 35.4117 62.3837 35.7416 62.5942 36.0509C62.8857 36.6036 63.2024 37.1437 63.4437 37.7164C63.8056 38.5805 63.6071 39.0402 62.5414 39C60.7431 38.9639 58.9453 39.0917 57.1703 39.3818L56.8436 39.4723C55.1495 39.6774 53.474 40.0133 51.8319 40.4771C50.6405 40.8011 50.2308 40.477 50.1077 39.2587C50.0595 38.8861 50.1107 38.5075 50.256 38.161C50.3116 38.071 50.3343 37.9644 50.3201 37.8595C50.3059 37.7546 50.2557 37.6578 50.178 37.5858C49.9267 37.4074 49.7055 37.5582 49.512 37.729C49.2063 37.9876 48.969 38.3174 48.8208 38.6893C48.6727 39.0612 48.6183 39.4638 48.6625 39.8616C49.0671 43.2955 49.8211 46.5611 53.458 48.1511C53.558 48.1799 53.6478 48.2365 53.7167 48.3143C53.7857 48.3922 53.8311 48.4881 53.8476 48.5907C53.0056 49.8141 52.5758 51.2183 52.2265 52.625C51.7615 54.4964 51.4724 56.3929 52.0757 58.3121C52.6135 59.9976 53.835 60.711 55.5567 60.3418C57.7333 59.877 58.8694 58.1613 58.794 55.6619C58.7188 53.2423 58.1131 50.8688 57.0195 48.7088C58.8492 48.6937 60.6262 48.4375 62.0815 47.2292C65.5801 44.3053 66.1406 37.8244 63.2049 34.3428ZM53.7169 51.8538C53.693 51.8202 53.6814 51.7794 53.6842 51.7383C53.6785 51.7782 53.6864 51.8189 53.7069 51.8538H53.7169ZM56.8913 58.1513V58.1186V58.1036L56.64 58.3774C54.8806 59.6082 53.4882 59.0129 53.2193 56.8828C53.0081 55.2324 53.5661 53.6674 53.8275 52.0698L53.923 51.6402C54.1517 50.952 54.3804 50.2662 54.6117 49.5779C54.863 49.0504 54.8982 48.0883 55.8508 48.955L56.8561 51.8789C57.1502 53.8684 57.585 55.8528 57.1075 57.875L57.1301 57.8574L56.8787 58.1086L56.8913 58.1513ZM56.8536 58.307C56.873 58.2624 56.8848 58.2149 56.8888 58.1664C56.8817 58.2154 56.8664 58.263 56.8436 58.307H56.8536ZM57.9143 46.5284L57.4116 46.6188L55.8885 46.6414L55.1345 46.5234C53.2896 46.1441 51.9877 45.1166 51.3116 43.3382C51.2286 43.1221 50.9622 42.7931 51.2588 42.7027C52.2827 42.3901 53.3242 42.1385 54.3779 41.9491C54.6293 41.9039 54.5765 42.351 54.6821 42.562C55.0063 43.2176 55.5642 43.6421 56.1373 44.0516C57.1602 44.3706 58.1681 44.4334 59.1534 43.9134C59.925 43.3005 60.5508 42.5921 60.498 41.5296C60.4804 41.1553 60.5885 40.9794 60.963 41.0272C61.6869 41.1025 62.6671 40.7257 63.0717 41.2784C63.4412 41.7808 62.8606 42.6022 62.5339 43.2201C61.5361 45.0739 60.1009 46.3375 57.9042 46.5284H57.9143Z" fill="#1D2831"/>
<path d="M75.2694 55.6972C73.0752 53.9062 70.5342 53.5042 67.8423 53.9388C64.2909 54.5191 61.9107 56.9858 59.4903 59.347C59.3198 59.5083 59.2132 59.7257 59.1902 59.9591C59.1671 60.1926 59.229 60.4266 59.3647 60.6181C59.7392 61.2059 60.272 61.2938 60.8928 61.1205C61.2346 60.8015 61.481 60.3669 61.9535 60.2062C61.9521 60.1844 61.9521 60.1626 61.9535 60.1409L62.0138 60.1207C63.9064 57.9404 66.181 56.4407 69.1267 56.1669C69.6545 56.1192 70.215 56.0614 70.7101 56.3754C71.9869 56.4282 73.128 56.9557 74.2892 57.4153C74.8346 57.6314 75.4277 57.9178 75.7972 57.1868C76.134 56.5362 75.7721 56.1117 75.2694 55.6972Z" fill="#1D2831"/>
<path d="M52.161 34.9005C52.4899 34.9479 52.8245 34.9411 53.1512 34.8804C55.4133 34.4835 57.2908 33.3356 58.932 31.7957C59.8717 30.9072 60.471 29.7183 60.6261 28.4347C60.5507 27.9625 60.4753 27.3948 59.8243 27.2315C59.1733 27.0682 58.7385 27.4827 58.6254 28.0479C58.1227 30.6578 56.0542 31.5872 53.9229 32.4338C53.2669 32.685 52.5581 32.8282 51.9121 33.0919C51.4849 33.2627 51.0802 33.5466 51.1581 34.1193C51.236 34.692 51.706 34.8277 52.161 34.9005Z" fill="#1D2831"/>
</svg>
