<svg width="129" height="129" viewBox="0 0 129 129" fill="none" xmlns="http://www.w3.org/2000/svg">
<path d="M128.815 0.168152H0.12915V128.781H128.815V0.168152Z" fill="#F4E1AD"/>
<path d="M67.1713 128.568C66.8747 128.246 66.5856 127.839 66.284 127.563C65.6582 126.576 64.8841 125.676 64.4442 124.589V124.604C64.409 124.192 64.6051 123.654 63.8988 123.612L63.9164 123.634C63.9426 123.525 63.9292 123.41 63.8786 123.31C63.828 123.209 63.7434 123.13 63.6399 123.087L63.6726 123.124C63.6726 122.896 63.6525 122.685 63.4012 122.584L63.4213 122.624C63.4389 122.315 63.4766 122.001 63.1197 121.836L63.1498 121.881C63.1775 121.63 63.1498 121.431 62.8733 121.336L62.906 121.371C62.9639 120.846 63.0417 120.308 62.3707 120.085H62.421C60.5762 116.49 61.2296 111.954 60.2117 108.256C61.4684 108.319 64.3236 109.349 64.4845 107.455C64.6126 105.993 63.2278 106.801 62.4863 106.286L64.7659 106.229C65.065 110.348 64.3412 114.684 66.4449 118.326C66.3595 118.432 66.4726 118.934 66.6963 119.08C66.6309 119.105 66.7138 119.535 66.9275 119.582C66.8194 119.753 67.0004 120.165 67.2015 120.336C67.2076 120.53 67.2536 120.72 67.3366 120.895C67.4197 121.07 67.5379 121.226 67.684 121.353C67.6287 121.381 67.7468 121.795 67.9353 121.856C68.6517 123.77 70.3457 125.857 71.9894 127.367L71.9593 127.337C72.3338 127.766 72.7786 128.108 73.0777 128.593C71.258 128.781 69.1041 128.643 67.1713 128.568Z" fill="#92A5AA"/>
<path d="M87.5673 40.4854L88.3214 40.7365C87.4869 52.6634 90.2492 66.0748 86.6198 77.9138C84.0486 84.4273 79.331 88.6123 72.8288 90.976C67.8398 92.2546 63.8761 98.3211 66.7163 103.179C63.7002 103.631 60.7018 103.413 57.6983 103.147V103.182C51.9552 101.564 56.7583 96.1055 50.0475 93.8723C48.0368 93.0986 46.0261 92.3149 44.2994 90.9484C46.3955 89.7702 44.9428 89.4412 43.8495 88.6298C33.8462 77.2757 35.216 66.7757 35.6407 52.5956C34.6555 41.0204 37.7319 42.6331 47.705 42.5778C60.0985 42.5552 72.4845 41.8418 84.8654 42.1834C86.665 42.3467 85.2223 40.7642 87.5673 40.4854ZM53.6366 61.292C54.5367 59.9717 55.0544 58.4285 55.1325 56.8327C55.2105 55.237 54.8459 53.6507 54.0789 52.2489C54.187 51.5205 54.4007 50.7694 53.6869 50.1966V50.2117C52.9505 49.4003 52.4151 49.6515 51.6762 50.2871C47.7855 50.6212 42.9874 49.5335 39.6119 50.7895L39.6395 50.7668C39.5707 50.7515 39.4992 50.7524 39.4307 50.7694C39.3622 50.7865 39.2987 50.8192 39.2451 50.865C39.1915 50.9108 39.1492 50.9684 39.1217 51.0334C39.0942 51.0983 39.0822 51.1688 39.0866 51.2391C38.1013 51.4903 38.4632 51.9751 38.8679 52.47C38.8679 52.681 38.8679 52.8819 39.1192 52.9522C39.0966 53.6255 39.7627 53.4773 40.0718 53.7511C38.5336 54.889 39.0665 57.3985 39.3354 59.1267C39.2977 60.3048 40.6901 60.5435 40.8434 61.5332L40.8233 61.5181L41.0948 61.7869L41.0721 61.7693C42.2459 62.7967 40.5393 63.1584 42.8567 63.5277L42.8391 63.5101C42.837 63.5784 42.8489 63.6464 42.874 63.7099C42.8992 63.7735 42.937 63.8313 42.9852 63.8797C43.0335 63.9281 43.0911 63.9663 43.1545 63.9917C43.218 64.0171 43.286 64.0293 43.3543 64.0276H43.3367C43.5277 64.3089 43.8143 64.3064 44.1058 64.2788H44.0907C45.3474 65.3112 49.1854 65.3564 50.1229 64.0276L50.1078 64.0477C50.2109 64.0542 50.3139 64.0331 50.4062 63.9868C50.4985 63.9404 50.5767 63.8704 50.6331 63.7839L50.613 63.7965C50.7158 63.8015 50.8181 63.7795 50.9098 63.7328C51.0015 63.6861 51.0794 63.6163 51.1358 63.5302H51.1157C51.9275 63.4724 52.6237 63.279 52.6237 62.2616L52.6112 62.2868L52.8851 62.013L52.8625 62.0356L53.1364 61.7618L53.1138 61.7844L53.3878 61.5106L53.3652 61.5307L53.6366 61.2619V61.292ZM75.5307 79.9233L75.8098 79.6345L75.7947 79.6721C77.2826 78.7126 76.9483 75.6178 75.4578 74.6833L75.5005 74.6608C75.3925 74.4272 74.7767 74.2161 75.013 74.0026C74.2162 73.1912 73.4798 72.2443 72.482 71.8524L72.4996 71.8649C72.4457 71.7766 72.3682 71.7052 72.2758 71.6586C72.1834 71.612 72.0799 71.5921 71.9768 71.6012C71.3359 70.7748 69.3906 70.0186 68.6416 70.4833C67.8524 68.8907 60.2845 69.147 58.5377 69.6444L58.5779 69.6996L58.5252 69.7423C58.7313 69.1218 51.3871 69.7901 51.7742 70.5236C50.6205 69.883 49.7182 70.732 48.8964 71.3952L48.9215 71.3625C48.6902 71.3625 48.4842 71.3952 48.3912 71.6464L48.4213 71.6213C48.3154 71.5976 48.2047 71.6115 48.1079 71.6605C48.0112 71.7095 47.9345 71.7907 47.891 71.8901L47.9086 71.8548L47.6321 72.106L47.6497 72.0935C47.2702 72.0935 46.9837 72.2317 46.8957 72.6336C46.4081 73.1661 45.3877 73.9624 45.0559 74.814H45.0961C43.5705 76.497 44.5482 79.5867 45.9129 80.6116C45.8777 80.5689 46.2498 80.9306 46.3352 80.8352C46.4383 82.5031 45.4203 85.0679 46.5639 86.3942C46.5312 87.7079 46.4885 86.8689 47.0992 87.9591L47.0741 87.924C47.1144 88.125 47.0943 88.356 47.3381 88.459L47.3154 88.4414C47.3027 88.546 47.3218 88.6521 47.3702 88.7457C47.4186 88.8394 47.4941 88.9163 47.5869 88.9664L47.5743 88.9388C47.5662 89.0441 47.5878 89.1497 47.6367 89.2433C47.6856 89.337 47.7598 89.4151 47.8508 89.4688H47.8131C48.7481 91.2699 50.4496 92.4832 52.3799 93.0233V92.968C54.2649 94.0833 56.6526 93.5584 58.6634 93.1338C57.854 94.4702 55.7755 93.2996 55.2225 94.4626C55.8986 95.598 59.6989 94.1637 60.9732 93.9602C61.9635 93.7492 64.0144 91.1092 62.6647 90.6595C63.6248 88.6499 65.4797 87.1126 65.2057 84.774H65.1454C66.0201 82.9855 65.9849 80.9834 66.4674 79.1044V79.117C67.4728 79.0617 68.365 78.8658 69.0361 79.8706C67.3723 80.0515 70.416 82.1791 71.2605 81.8978C71.6174 82.4002 73.8618 82.0459 74.0101 81.7269C73.7211 81.3376 72.4694 81.9781 72.0221 81.4104C72.8867 81.3978 74.0327 81.2949 74.5681 80.6568L74.548 80.6996C74.6539 80.707 74.7596 80.6843 74.8531 80.6341C74.9465 80.5838 75.0237 80.5081 75.0758 80.4157L75.0406 80.4308L75.3221 80.1419L75.292 80.1796L75.576 79.8932L75.5307 79.9233ZM64.4718 61.0233C64.4629 61.1249 64.4815 61.227 64.5257 61.319C64.5699 61.4109 64.6382 61.4893 64.7232 61.5458V61.5282C64.7149 61.5958 64.7217 61.6645 64.743 61.7293C64.7643 61.794 64.7995 61.8533 64.8463 61.9029C64.893 61.9526 64.9502 61.9913 65.0136 62.0164C65.077 62.0415 65.1452 62.0523 65.2133 62.0482C65.2132 62.178 65.2634 62.3028 65.3534 62.3964C65.4433 62.4901 65.5661 62.5454 65.6959 62.5506C65.7047 62.6856 65.7642 62.8124 65.8625 62.9056C65.9608 62.9987 66.0907 63.0513 66.2262 63.0529C66.8947 66.0372 74.5706 66.5873 76.7824 64.5476H76.7673C76.9131 64.5174 77.2247 64.6355 77.0186 64.2813C78.7169 63.0813 79.946 61.3295 80.496 59.3248C81.0461 57.3201 80.883 55.1868 80.0347 53.2889C80.9169 52.6659 81.4548 51.6938 80.4922 50.8774C80.3037 50.6357 80.0532 50.4496 79.7672 50.339C79.4813 50.2284 79.1707 50.1974 78.8685 50.2494C74.7466 50.5006 70.323 49.747 66.3468 50.5784C65.4545 49.9705 64.0571 49.541 63.3584 50.7543C62.2726 51.5305 63.8611 52.4825 64.2909 53.211C63.1699 54.9292 62.0665 59.5462 64.223 60.5385C64.2582 60.7369 64.2833 60.9404 64.4945 61.0409L64.4718 61.0233ZM54.5288 68.8958C54.4886 68.6597 54.3152 68.6772 54.3429 68.9184L54.5288 68.8958Z" fill="#92A5AA"/>
<path d="M77.074 16.3101C77.4661 22.9342 77.2097 29.6236 77.2022 36.1999C76.6417 37.6493 74.0805 36.7551 74.2615 35.2177C74.8295 33.0725 72.5021 10.1985 77.0765 16.3151L77.074 16.3101Z" fill="#BAE2CB"/>
<path d="M60.2316 108.52C60.9605 110.61 60.8977 113.451 61.0862 115.804C60.429 113.434 60.1407 110.977 60.2316 108.52Z" fill="#92A5AA"/>
<path d="M60.9153 106.297C60.8276 106.388 60.7176 106.456 60.596 106.492C60.4744 106.529 60.3454 106.533 60.2216 106.505C60.3498 106.091 60.6665 106.307 60.9153 106.297Z" fill="#92A5AA"/>
<path d="M68.8552 17.6891L68.9205 17.3224C68.9004 17.4455 68.8778 17.566 68.8552 17.6891Z" fill="#92A5AA"/>
<path d="M61.4282 106.286C61.3553 106.407 61.2849 106.407 61.2146 106.286C61.2484 106.272 61.2847 106.265 61.3214 106.265C61.3581 106.265 61.3944 106.272 61.4282 106.286Z" fill="#92A5AA"/>
<path d="M95.1729 52.5202V52.2363C95.2081 52.3418 95.2936 52.4423 95.1729 52.5202Z" fill="#BAE2CB"/>
<path d="M95.0522 44.7431C95.022 44.6175 94.9944 44.4919 94.9667 44.3688C94.9944 44.4944 95.022 44.6301 95.0522 44.7431Z" fill="#3E5362"/>
<path d="M65.5299 115.199C65.6556 115.807 65.7812 116.417 65.9044 117.025C65.1504 115.973 64.7558 114.847 65.1831 113.549L65.5299 115.199Z" fill="#92A5AA"/>
<path d="M62.9111 121.371C62.6332 120.991 62.4497 120.55 62.3757 120.085C63.0468 120.308 62.9639 120.846 62.9111 121.371Z" fill="#92A5AA"/>
<path d="M64.4493 124.604C64.0898 124.438 63.9818 123.983 63.9039 123.612C64.6101 123.654 64.4141 124.192 64.4493 124.604Z" fill="#92A5AA"/>
<path d="M63.4264 122.624C63.1072 122.524 63.2152 122.122 63.1248 121.838C63.4817 121.999 63.444 122.315 63.4264 122.624Z" fill="#92A5AA"/>
<path d="M62.426 120.097C62.1419 119.864 62.1746 119.522 62.1118 119.206C62.2386 119.313 62.3344 119.452 62.3896 119.609C62.4448 119.766 62.4574 119.934 62.426 120.097Z" fill="#92A5AA"/>
<path d="M63.1549 121.881C62.9287 121.768 62.9236 121.542 62.8809 121.336C63.1448 121.431 63.1825 121.64 63.1549 121.881Z" fill="#92A5AA"/>
<path d="M63.6777 123.124L63.4062 122.584C63.6576 122.685 63.6827 122.896 63.6777 123.124Z" fill="#92A5AA"/>
<path d="M63.9215 123.634C63.6501 123.584 63.7053 123.308 63.6475 123.089C63.7503 123.133 63.8342 123.212 63.8844 123.311C63.9345 123.411 63.9477 123.526 63.9215 123.634Z" fill="#92A5AA"/>
<path d="M64.7232 125.074C64.5146 124.991 64.5146 124.787 64.4518 124.589L64.7232 125.074Z" fill="#92A5AA"/>
<path d="M51.6762 50.2896C48.067 51.1135 43.8998 50.478 40.1146 50.6463C43.5328 49.6189 47.9388 50.6136 51.6762 50.2896Z" fill="#92A5AA"/>
<path d="M66.2312 63.0479C69.4282 65.8437 72.9545 65.7432 76.7874 64.5425C74.5832 66.5797 66.8822 66.0346 66.2312 63.0479Z" fill="#92A5AA"/>
<path d="M80.1781 50.5131C75.566 50.498 70.9414 50.8196 66.3394 50.5784C66.6736 50.2694 67.0934 50.2694 67.5106 50.2694C71.6954 50.4805 76.0913 49.8148 80.1781 50.5131Z" fill="#92A5AA"/>
<path d="M39.8808 54.0173C39.1268 56.2505 39.1997 58.4258 40.3257 60.5334C38.7674 60.2319 38.5638 54.5649 39.8808 54.0173Z" fill="#92A5AA"/>
<path d="M44.1134 64.2888C46.1467 64.756 48.1574 64.7435 50.1455 64.0376C49.203 65.3664 45.3701 65.3212 44.1134 64.2888Z" fill="#92A5AA"/>
<path d="M68.6415 70.4833L63.9364 69.6443V69.3554C65.2635 69.5137 67.9905 69.2097 68.6415 70.4833Z" fill="#92A5AA"/>
<path d="M63.2152 56.0194C63.2305 57.5802 63.573 59.1205 64.2205 60.541C62.8558 60.242 62.7904 57.2252 63.2152 56.0194Z" fill="#92A5AA"/>
<path d="M65.1404 84.7739C65.4069 82.8447 65.525 80.8778 66.4625 79.1044C65.9799 80.9833 66.0151 82.9854 65.1404 84.7739Z" fill="#92A5AA"/>
<path d="M46.6268 82.1439C46.2045 83.5532 46.3905 84.9749 46.5438 86.3967C45.4555 85.0804 46.3151 82.5785 46.3604 80.8854C47.0515 81.0261 46.6268 81.6943 46.6268 82.1439Z" fill="#92A5AA"/>
<path d="M55.6499 69.9056L51.7743 70.521C52.4629 69.476 54.4988 69.9031 55.6776 69.6443C55.675 69.7298 55.6599 69.8177 55.6499 69.9056Z" fill="#92A5AA"/>
<path d="M69.7349 70.8726L68.6994 70.4431C69.4534 70.0839 71.2907 70.7345 71.9919 71.6137L69.7349 70.8726Z" fill="#92A5AA"/>
<path d="M63.9366 69.3554V69.6443H58.5378C60.282 68.9963 62.137 69.476 63.9366 69.3554Z" fill="#92A5AA"/>
<path d="M64.0771 88.15L65.2006 84.7614C65.0875 85.9771 65.2685 87.2909 64.0771 88.15Z" fill="#92A5AA"/>
<path d="M51.6686 70.4707C50.7659 70.8326 49.8428 71.1412 48.9039 71.3951C49.7182 70.7772 50.4597 69.9206 51.6686 70.4707Z" fill="#92A5AA"/>
<path d="M41.6001 62.2767C42.0248 62.7012 42.4471 63.1257 42.8718 63.5477C42.3264 63.2463 41.1326 63.5904 41.6001 62.2767Z" fill="#92A5AA"/>
<path d="M51.1258 63.5452L52.6338 62.2767C52.6439 63.3041 51.9376 63.4875 51.1258 63.5452Z" fill="#92A5AA"/>
<path d="M58.5253 69.7498L57.163 69.7925C57.3339 69.1595 58.1885 69.2022 58.5253 69.7498Z" fill="#92A5AA"/>
<path d="M38.8655 52.48C38.4609 51.9776 38.1115 51.4978 39.0841 51.2491C39.042 51.6643 38.969 52.0757 38.8655 52.48Z" fill="#92A5AA"/>
<path d="M66.455 79.117C66.7968 78.5543 67.2542 78.7402 67.7117 78.9235C67.3296 79.2375 66.8772 79.0868 66.455 79.117Z" fill="#92A5AA"/>
<path d="M40.3434 53.5125L40.0921 53.7637C39.7829 53.4899 39.1169 53.6381 39.1395 52.9649C39.2576 52.9146 39.426 53.0704 39.5617 53.1005C39.83 53.2227 40.091 53.3603 40.3434 53.5125Z" fill="#92A5AA"/>
<path d="M57.168 69.6318C57.1629 69.6827 57.1629 69.734 57.168 69.785L55.66 69.9031C55.66 69.8177 55.6776 69.7298 55.6876 69.6519L57.168 69.6318Z" fill="#92A5AA"/>
<path d="M63.3484 50.7542C63.1823 51.1564 63.1823 51.608 63.3484 52.0102C62.8131 51.5882 62.7955 51.1612 63.3484 50.7542Z" fill="#92A5AA"/>
<path d="M54.5239 68.8957L54.3379 68.9183C54.3103 68.6772 54.4837 68.6596 54.5239 68.8957Z" fill="#92A5AA"/>
<path d="M47.6498 72.1036L46.8958 72.6436C46.9838 72.2417 47.2703 72.1061 47.6498 72.1036Z" fill="#92A5AA"/>
<path d="M42.8566 63.5302C43.108 63.6281 43.4121 63.6658 43.3719 64.0476C43.3035 64.0494 43.2355 64.0371 43.1721 64.0117C43.1086 63.9863 43.051 63.9482 43.0028 63.8998C42.9546 63.8513 42.9167 63.7936 42.8915 63.73C42.8664 63.6665 42.8545 63.5985 42.8566 63.5302Z" fill="#92A5AA"/>
<path d="M43.3594 64.0401C43.4961 63.9804 43.65 63.973 43.7918 64.0193C43.9336 64.0657 44.0535 64.1624 44.1285 64.2913C43.8319 64.3189 43.5454 64.3214 43.3594 64.0401Z" fill="#92A5AA"/>
<path d="M65.7285 62.5681L66.2312 63.0529C66.1009 63.053 65.9756 63.0025 65.8818 62.912C65.788 62.8216 65.7331 62.6982 65.7285 62.5681Z" fill="#92A5AA"/>
<path d="M65.226 62.0507L65.706 62.5531C65.5767 62.5472 65.4546 62.4917 65.3652 62.3981C65.2757 62.3045 65.2259 62.1801 65.226 62.0507Z" fill="#92A5AA"/>
<path d="M64.7232 61.5281C64.9971 61.596 65.08 61.8472 65.2133 62.0481C65.1452 62.0523 65.077 62.0415 65.0136 62.0164C64.9502 61.9913 64.893 61.9525 64.8463 61.9029C64.7995 61.8533 64.7643 61.794 64.743 61.7292C64.7217 61.6645 64.7149 61.5958 64.7232 61.5281Z" fill="#92A5AA"/>
<path d="M39.6371 50.7769C39.6067 50.8364 39.5799 50.8976 39.5567 50.9602C39.4674 51.0545 39.3734 51.1442 39.2752 51.229L39.2953 51.1914C39.2249 51.2065 39.142 51.2793 39.0841 51.2492C39.0797 51.1788 39.0917 51.1083 39.1192 51.0434C39.1468 50.9785 39.189 50.9208 39.2426 50.875C39.2963 50.8292 39.3598 50.7965 39.4283 50.7794C39.4967 50.7624 39.5682 50.7615 39.6371 50.7769Z" fill="#92A5AA"/>
<path d="M65.711 50.503L65.5979 50.2518C65.7378 50.2472 65.8772 50.2719 66.007 50.3243C66.1368 50.3766 66.2543 50.4555 66.3519 50.5558L65.711 50.503Z" fill="#92A5AA"/>
<path d="M64.2206 60.5385L64.492 61.0408C64.2734 60.9404 64.2482 60.7369 64.2206 60.5385Z" fill="#92A5AA"/>
<path d="M64.472 61.0232C64.5589 61.0785 64.6293 61.1563 64.6758 61.2482C64.7222 61.3402 64.743 61.4429 64.7359 61.5457C64.6484 61.491 64.5776 61.4133 64.531 61.3212C64.4845 61.2291 64.4641 61.1261 64.472 61.0232Z" fill="#92A5AA"/>
<path d="M50.6231 63.8015L51.1459 63.5352C51.0895 63.6213 51.0116 63.6911 50.9199 63.7378C50.8282 63.7845 50.7259 63.8065 50.6231 63.8015Z" fill="#92A5AA"/>
<path d="M50.1179 64.0526L50.6432 63.7889C50.5868 63.8754 50.5085 63.9454 50.4162 63.9918C50.3239 64.0381 50.2209 64.0591 50.1179 64.0526Z" fill="#92A5AA"/>
<path d="M76.7573 64.5475C76.7322 64.3642 76.8704 64.3265 77.0087 64.2812C77.2147 64.6354 76.9031 64.5174 76.7573 64.5475Z" fill="#92A5AA"/>
<path d="M48.9215 71.3625L48.3912 71.6464C48.4842 71.3952 48.6903 71.3574 48.9215 71.3625Z" fill="#92A5AA"/>
<path d="M48.4214 71.6212C48.3706 71.7145 48.2928 71.7904 48.1982 71.8388C48.1036 71.8872 47.9965 71.9059 47.8911 71.8925C47.9341 71.7927 48.0106 71.711 48.1074 71.6615C48.2042 71.612 48.3152 71.5977 48.4214 71.6212Z" fill="#92A5AA"/>
<path d="M72.4995 71.8648L71.9768 71.6011C72.0799 71.5921 72.1834 71.6119 72.2758 71.6585C72.3681 71.7051 72.4456 71.7766 72.4995 71.8648Z" fill="#92A5AA"/>
<path d="M72.9847 72.1889L72.4821 71.8524C72.7108 71.8699 72.9169 71.9302 72.9847 72.1889Z" fill="#92A5AA"/>
<path d="M73.7563 72.744L73.221 72.3547C73.3418 72.3464 73.4616 72.3809 73.5595 72.4521C73.6574 72.5233 73.7271 72.6266 73.7563 72.744Z" fill="#92A5AA"/>
<path d="M45.6366 80.3705L45.903 80.6217C45.7899 80.5513 45.4506 80.7498 45.6366 80.3705Z" fill="#92A5AA"/>
<path d="M46.6268 86.9091L46.7701 87.3939C46.4987 87.301 46.3252 87.1779 46.6268 86.9091Z" fill="#92A5AA"/>
<path d="M46.1242 80.6292L46.27 80.8804L45.8628 80.6016L46.1242 80.6292Z" fill="#92A5AA"/>
<path d="M75.013 74.0026C74.9286 73.9727 74.8534 73.9216 74.7944 73.8543C74.7355 73.787 74.6948 73.7057 74.6762 73.6182L75.013 74.0026Z" fill="#92A5AA"/>
<path d="M47.9087 71.8548C47.9087 72.0482 47.773 72.0809 47.6322 72.106L47.9087 71.8548Z" fill="#92A5AA"/>
<path d="M40.8184 61.3096C40.8418 61.3432 40.8577 61.3814 40.8651 61.4217C40.8725 61.462 40.8711 61.5035 40.8611 61.5432C40.8033 61.4603 40.6801 61.395 40.8184 61.3096Z" fill="#92A5AA"/>
<path d="M53.6367 61.292C53.6312 61.2128 53.6524 61.1341 53.697 61.0684C53.7146 61.1689 53.7724 61.2619 53.6367 61.292Z" fill="#92A5AA"/>
<path d="M39.8406 50.7216C39.7722 50.7587 39.6984 50.7849 39.6219 50.7995C39.647 50.6714 39.6973 50.5859 39.8406 50.7216Z" fill="#92A5AA"/>
<path d="M35.3416 40.779C35.3641 40.779 35.3816 40.7791 35.3866 40.7516L35.3416 40.779Z" fill="#ACBCB9"/>
<path d="M85.7981 40.2316L85.8308 40.1587C74.1008 39.9477 62.3582 40.3597 50.6232 40.2266C45.433 40.4124 39.6824 39.2595 34.8567 41.058C30.1542 42.7109 32.9767 63.6005 32.268 69.3504L32.3383 69.3177C32.2503 72.9199 33.4542 76.6226 34.6003 79.8203C34.731 80.1167 35.0478 80.6694 35.0905 80.8251C35.3192 81.2672 35.573 81.6967 35.8269 82.1238C35.8922 82.2368 36.1235 82.6261 36.1009 82.596C36.1486 82.7115 36.4754 83.1537 36.3522 83.0783C36.4109 83.1884 36.4986 83.2802 36.6058 83.3439C36.713 83.4077 36.8357 83.441 36.9604 83.44C36.9034 83.4271 36.8454 83.4187 36.787 83.4149L37.3123 84.1861C37.4304 84.4122 37.6893 84.7764 37.7421 84.7036C38.6896 86.2108 40.2429 87.7933 41.3564 88.8734C42.4019 89.3984 43.7843 91.3603 44.7972 90.5866C45.6542 90.2726 45.5135 89.921 44.9731 89.3558C41.6865 86.2387 39.0905 82.4674 37.3525 78.2855C34.2661 70.0663 35.7264 61.1714 35.6535 52.6131C36.1562 49.7118 34.2032 44.8963 37.4606 43.3037C49.9898 41.573 62.9464 42.8591 75.6013 42.0855C78.9014 41.8594 82.8901 42.7009 85.871 41.8895C85.974 40.7717 86.8286 40.7315 87.5725 40.4878C86.9769 40.4099 86.4164 40.1211 85.7981 40.2316ZM32.5368 50.4026C32.5368 50.3498 32.5368 50.2996 32.5368 50.2469C32.5519 50.2996 32.5519 50.3498 32.5368 50.4076V50.4026ZM37.2897 83.7742C37.3079 83.8617 37.3154 83.951 37.3123 84.0404C37.3294 83.9364 37.3173 83.8297 37.2774 83.7322C37.2374 83.6346 37.1712 83.55 37.0861 83.4878C37.1382 83.5186 37.1833 83.56 37.2183 83.6094C37.2534 83.6587 37.2777 83.7148 37.2897 83.7742Z" fill="#ACBCB9"/>
<path d="M76.0963 79.22L75.9832 79.6093C76.0636 79.4435 76.2345 79.2702 76.2647 79.1069C76.216 79.1547 76.1589 79.193 76.0963 79.22Z" fill="#ACBCB9"/>
<path d="M51.6535 15.8429C53.5109 18.2845 52.3899 21.9017 52.6463 24.7704C52.7267 28.3148 52.6639 31.8617 52.6614 35.4061C52.6614 37.0012 52.6614 37.0163 51.0553 36.9334C49.0446 37.2499 50.1103 34.6726 49.8941 33.4342C49.7609 27.5662 50.0852 21.6907 50.1078 15.8504C50.613 15.3003 51.1282 15.9559 51.6535 15.8429Z" fill="#BAE2CB"/>
<path d="M60.2193 107.738C60.2193 107.5 60.2193 107.259 60.2193 107.017C60.8476 107.264 60.3626 107.5 60.2193 107.738Z" fill="#92A5AA"/>
<path d="M48.8336 84.2867C48.7255 79.0442 52.101 73.9097 57.5048 74.4447C55.6449 76.9316 54.2048 79.7977 54.3782 83.1161C54.3782 83.6034 54.3028 84.2314 54.9412 84.357C55.6952 84.5052 55.6122 83.7968 55.748 83.3522C56.6578 79.1396 60.1011 72.9451 65.0299 75.3465C65.3667 75.5174 65.9951 75.6655 65.505 76.2081C63.3711 78.5669 63.1951 81.5587 62.6447 84.4675C61.8957 93.1665 48.248 93.0484 48.8336 84.2867Z" fill="#DF5E44"/>
<path d="M45.2419 15.1119C45.1846 15.1273 45.1313 15.1545 45.0853 15.1918C45.0393 15.2292 45.0017 15.2758 44.9749 15.3287C44.9481 15.3815 44.9327 15.4394 44.9298 15.4985C44.9268 15.5577 44.9364 15.6168 44.9579 15.672L45.2419 15.1119Z" fill="#E2E1D1"/>
<path d="M45.6995 14.3658C45.5838 14.3885 45.4808 14.4161 45.5688 14.5693C45.6347 14.5188 45.6809 14.4468 45.6995 14.3658Z" fill="#E2E1D1"/>
<path d="M46.936 13.1425L46.9059 13.1174L46.6319 13.3309C46.7174 13.356 46.8355 13.1902 46.936 13.1425Z" fill="#E2E1D1"/>
<path d="M77.4962 37.3453C77.5967 30.671 77.6143 23.4943 77.4358 16.9406C77.094 16.4859 77.0412 15.873 76.5386 15.5665C78.2376 21.8465 76.8502 29.5004 77.2021 36.2099C76.6416 37.6618 74.0804 36.7651 74.2614 35.2278C74.2765 30.3093 74.2388 25.3909 74.3544 20.4749C74.7566 18.7166 73.4923 15.1319 76.2872 15.3354C76.2872 15.1093 75.7619 14.926 75.7443 14.9109C75.035 14.7611 74.3007 14.7757 73.5979 14.9536C69.6016 17.6188 72.3261 28.5434 71.5419 33.3111C70.622 38.8852 73.3189 37.1921 77.4962 37.3453Z" fill="#E2E1D1"/>
<path d="M52.8474 37.373C53.1892 33.7507 52.8977 30.0882 53.0284 26.4559C52.6589 23.1476 53.9206 19.2515 52.1939 16.2949L52.1588 16.3301C52.2316 16.2422 52.018 16.1166 51.9728 16.0136C51.1509 15.1194 50.0299 15.0993 48.909 15.3882L48.929 15.3706C48.8134 15.4233 48.4063 15.6921 48.4515 15.6217C48.2624 15.7722 48.0881 15.9404 47.9312 16.1241C47.803 16.6039 47.2049 17.2872 47.3305 17.6715C46.8681 24.1901 47.1646 30.8066 47.1847 37.3528L52.8474 37.373ZM51.6435 15.8428L51.8948 16.094C53.712 22.1604 52.1914 29.0583 52.6489 35.4136C53.0862 38.1944 50.1355 36.4435 48.5847 36.6947C49.0045 36.6947 49.4217 36.6947 49.8414 36.6947C49.8163 29.739 49.9872 22.7758 50.0928 15.8453C50.613 15.3002 51.1283 15.9558 51.6536 15.8428H51.6435Z" fill="#E2E1D1"/>
<path d="M48.1499 15.8822C48.1586 15.8747 48.1667 15.8666 48.1742 15.8579L48.1499 15.8822Z" fill="#E2E1D1"/>
<path d="M47.1871 37.3878C47.1858 37.3771 47.1858 37.3662 47.1871 37.3554H47.1522L47.1871 37.3878Z" fill="#E2E1D1"/>
<path d="M52.8777 37.373H52.8475V37.3931L52.8777 37.373Z" fill="#E2E1D1"/>
<path d="M64.484 61.045C64.484 61.045 64.484 61.028 64.467 61.0232L64.484 61.045Z" fill="#E2E1D1"/>
<path d="M80.7787 56.2806C80.5273 55.2482 80.6254 52.9247 79.233 53.3843C74.9049 53.422 70.5769 53.4748 66.2488 53.4873C62.2475 52.2037 63.0492 58.2199 64.2129 60.5384C64.5066 61.0673 64.8428 61.5713 65.2183 62.0456C65.3766 62.2139 65.54 62.3822 65.7008 62.548C68.83 65.7307 72.7383 65.8613 76.7598 64.54C79.3284 62.445 81.0928 59.83 80.7787 56.2806ZM76.0284 55.2432C76.014 55.13 75.9818 55.0198 75.9329 54.9166C75.9835 55.0195 76.0174 55.1297 76.0334 55.2432H76.0284ZM75.9555 55.7456C75.8767 55.9376 75.7625 56.1132 75.6187 56.2631C75.7617 56.1154 75.8759 55.9425 75.9555 55.7531V55.7456ZM76.0963 62.1059C75.3724 62.8972 74.6561 62.5656 73.9448 62.0858L73.975 62.1109C73.8845 62.0682 73.6583 61.8874 73.6457 61.92C73.3924 61.7459 73.1627 61.5399 72.9621 61.3071L72.9872 61.3297L72.683 61.0559C72.7836 61.1513 72.4845 60.8775 72.4192 60.8197L72.4845 60.8625C71.2278 59.4658 69.7851 62.3244 68.5561 62.7138C67.4075 63.8015 65.9372 61.8798 67.1989 60.9981L67.1838 61.0182C67.3497 60.8273 67.5206 60.6465 67.7016 60.4731L67.6739 60.4957C68.6943 59.1694 70.7528 58.8554 68.6792 57.2829L68.7119 57.3181C68.6215 57.2201 68.5284 57.1247 68.438 57.0292C67.1486 56.3811 67.7945 53.5501 69.5112 54.7358H69.4936C69.6871 54.8901 69.8693 55.058 70.039 55.2382L70.0038 55.203C71.361 56.9287 71.8939 56.9187 73.236 55.203L73.2008 55.2382C73.7412 54.6076 74.5731 53.9219 75.3196 54.7131L75.3071 54.6981C76.0385 55.2206 75.5961 55.836 75.4453 56.4313C75.1261 56.6675 74.8924 57.0644 74.5405 57.3332L74.5832 57.2904L74.2942 57.5844L74.3318 57.5416L74.0428 57.8356L74.0805 57.7928L73.7865 58.0817C73.5552 58.1194 73.3466 58.7599 73.8317 58.9961L73.7865 58.9509L74.0881 59.2347L74.0303 59.1895C74.4424 59.5587 74.8873 59.8878 75.2869 60.2596L75.2693 60.2445L75.5659 60.4957L75.5182 60.458C76.0636 60.8549 76.6266 61.498 76.0963 62.1135V62.1059ZM75.4377 56.6649C75.428 56.7064 75.4061 56.7441 75.3749 56.773C75.4049 56.7461 75.4267 56.7112 75.4377 56.6725V56.6649Z" fill="#E2E1D1"/>
<path d="M76.0911 62.1231C76.1086 62.1231 76.0662 62.0732 76.0637 62.0657L76.0911 62.1231Z" fill="#E2E1D1"/>
<path d="M43.5374 54.2986C43.5174 54.3186 43.4749 54.3286 43.4699 54.3536L43.5374 54.2986Z" fill="#E2E1D1"/>
<path d="M53.335 52.8944C50.809 53.7385 48.0242 53.3165 45.3927 53.628C46.305 53.9369 47.0816 56.9664 47.9211 55.8134C49.9997 52.3142 52.2215 55.7154 49.4518 57.7677C48.4866 59.0237 51.2237 59.5788 51.4776 60.7293L51.4625 60.7168C52.2969 61.7894 50.628 62.4952 49.8162 61.8572L49.8489 61.8873C49.4518 61.6185 48.9592 61.3422 48.6249 61.0583C48.2906 60.7745 47.9086 60.3977 47.5567 60.0536L47.612 60.1013C47.2425 59.5989 46.9811 60.026 46.6494 60.3525L46.6871 60.3123L46.3955 60.6037L46.4382 60.561C46.114 60.8926 45.6842 61.2744 45.3877 61.5658C44.7819 62.0104 44.1737 62.9499 43.294 62.3596C42.4696 61.719 42.9899 60.8021 43.5705 60.247L43.5504 60.2696L43.8218 59.9757L43.7841 60.0134C43.8419 59.9506 44.1108 59.6592 44.0228 59.7622L44.5582 59.2096L44.518 59.2523L44.8121 58.9584L44.7694 59.0036L45.0659 58.7097L45.0232 58.7524L45.3248 58.4686L45.2846 58.5087L45.5812 58.2273L45.551 58.25C45.83 57.8028 45.4052 57.4964 45.2343 57.1171L45.2746 57.1447L45.0458 56.8031L45.0684 56.8307L44.7367 56.3283L44.7894 56.3761C44.7115 56.263 44.6311 56.15 44.5507 56.0394L44.5708 56.0646C44.1561 55.4743 43.8167 54.9492 43.4548 54.3489C38.9307 50.3574 38.428 58.5891 40.8308 61.5281C41.4994 62.1536 42.2585 62.9549 42.8416 63.5377C43.0929 63.6332 43.387 63.6733 43.3568 64.0401C45.4555 64.7058 47.9689 64.859 50.1028 64.0577C50.2486 63.9874 50.5426 63.8291 50.6055 63.8065C50.7537 63.7311 51.0327 63.593 51.1081 63.5553C51.5882 63.1685 52.1989 62.6158 52.6162 62.2993C52.7569 62.1561 53.0635 61.8572 53.1188 61.7969C53.1741 61.7366 53.3903 61.5256 53.3702 61.5457L53.6416 61.2769L53.6215 61.292C54.5243 59.9728 55.0436 58.4293 55.1217 56.8329C55.1998 55.2366 54.8336 53.6498 54.0639 52.2489L53.335 52.8944Z" fill="#E2E1D1"/>
<path d="M44.1127 64.2988C44.1105 64.2977 44.108 64.2971 44.1055 64.2971C44.1031 64.2971 44.1006 64.2977 44.0984 64.2988H44.1127Z" fill="#E2E1D1"/>
<path d="M43.3712 64.0471V64.0351H43.3544L43.3712 64.0471Z" fill="#E2E1D1"/>
<path d="M75.4579 74.6833L75.5006 74.6607C75.3925 74.4271 74.7767 74.2161 75.013 74.0026C74.1861 73.1334 73.1179 72.0859 71.9969 71.6137C70.8803 71.2796 69.7814 70.8889 68.7044 70.4431C65.4647 69.8704 61.7272 69.363 58.583 69.6895C56.2997 69.8162 54.027 70.0906 51.7792 70.511C51.7693 70.5169 51.7581 70.5202 51.7465 70.5207C51.735 70.5212 51.7235 70.5189 51.713 70.514C51.7026 70.509 51.6936 70.5016 51.6867 70.4923C51.6798 70.483 51.6754 70.4722 51.6737 70.4607L50.6532 70.8626C50.1154 70.9958 49.3437 71.2997 48.9265 71.365C48.5394 71.4856 48.3233 71.9026 47.9212 71.8926C47.7578 72.1588 47.0716 72.498 46.9158 72.606C46.295 73.3395 45.4254 73.9122 45.0559 74.8265H45.0961C43.5152 76.6653 44.5332 79.8505 46.3353 80.8553L46.3805 80.903C47.3054 81.2823 45.5586 86.163 47.0817 87.9365C47.2376 88.4876 47.4876 89.0078 47.8206 89.4739C48.7204 91.1996 50.5854 92.6615 52.3925 92.973C54.2775 94.0883 56.6652 93.5634 58.676 93.1388V93.1891C59.3495 92.6264 60.5912 92.4355 61.0134 91.6542C60.9968 91.7163 60.9834 91.7792 60.9732 91.8426C60.9862 91.8406 60.9995 91.8418 61.0119 91.8462C61.0244 91.8505 61.0356 91.8579 61.0445 91.8676C61.0535 91.8773 61.0599 91.8889 61.0632 91.9017C61.0666 91.9144 61.0667 91.9278 61.0637 91.9406C61.4281 91.594 61.9408 91.0237 62.4435 90.9157C62.4134 90.7148 62.5013 90.6344 62.6949 90.6645H62.6622C63.8536 88.8459 64.5874 86.8514 65.2032 84.779H65.1429C65.3942 82.8699 65.5551 80.8251 66.4574 79.122C67.1561 78.1825 68.4481 79.2778 69.0261 79.8756H68.9909C69.5238 80.1268 70.1823 80.4257 70.5115 80.8804C70.695 80.8201 70.8081 80.908 70.969 80.9607H70.9564C71.7104 81.8249 73.3994 81.3677 74.264 80.9005C74.3972 80.8854 74.5279 80.8653 74.5531 80.7095C74.6547 80.7136 74.7554 80.6895 74.8442 80.6399C74.9329 80.5902 75.0061 80.517 75.0558 80.4282H75.0356C75.0985 80.3654 75.3322 80.1218 75.2719 80.1921L75.5232 79.9409L75.7871 79.6671V79.6897C76.0385 79.6696 76.0259 79.4385 76.0912 79.2476C76.1189 79.2049 76.2169 79.1898 76.2596 79.1396L76.2747 79.1546C77.2047 78.0117 76.7296 75.457 75.4579 74.6833ZM46.8455 84.4298C46.8882 85.4547 47.044 86.4745 47.0817 87.4994C47.044 86.4745 46.8781 85.4547 46.8455 84.4298ZM47.3482 88.3711C47.3506 88.3986 47.3506 88.4264 47.3482 88.454C47.3465 88.426 47.3423 88.3983 47.3356 88.3711H47.3482ZM47.4788 88.5394C47.5479 88.6056 47.59 88.6951 47.597 88.7906C47.5867 88.6934 47.54 88.6036 47.4663 88.5394H47.4788ZM47.5919 88.9488C47.6634 88.9783 47.725 89.0275 47.7695 89.0907C47.814 89.1538 47.8396 89.2284 47.8433 89.3056C47.8385 89.227 47.811 89.1514 47.7642 89.0881C47.7173 89.0248 47.6532 88.9764 47.5794 88.9488H47.5919ZM52.3875 92.968C53.6173 93.1785 54.8691 93.2308 56.1123 93.1238C54.8648 93.2303 53.6087 93.1762 52.3749 92.963L52.3875 92.968ZM65.5174 76.2156C63.3835 78.5744 63.2076 81.5662 62.6572 84.475C61.9032 93.1715 48.2605 93.0534 48.8461 84.2891C48.738 79.0491 52.1135 73.9147 57.5173 74.4497C55.6574 76.9366 54.2172 79.8027 54.3906 83.1211C54.3906 83.6084 54.3152 84.2364 54.9536 84.362C55.9791 84.6358 56.7934 78.9788 58.0401 77.8308C59.6386 75.236 62.6547 74.1659 65.0424 75.3641C65.3666 75.5274 65.995 75.668 65.5049 76.2106L65.5174 76.2156ZM74.5656 80.6618C74.6068 80.5697 74.68 80.4957 74.7717 80.4534C74.6771 80.4924 74.6002 80.5648 74.5556 80.6568L74.5656 80.6618ZM75.0959 74.6808C75.1339 74.7799 75.1943 74.8689 75.2723 74.9408C75.3503 75.0127 75.444 75.0656 75.5459 75.0953C75.4416 75.0664 75.3456 75.0133 75.2657 74.9405C75.1858 74.8676 75.1242 74.777 75.0859 74.6758L75.0959 74.6808ZM75.5559 75.4972C75.6137 76.3814 75.9103 77.233 76.0586 78.1047C75.9003 77.228 75.6037 76.3764 75.5459 75.4922L75.5559 75.4972ZM75.5559 75.1003C75.9757 75.8596 76.2325 76.6981 76.3099 77.5621C76.2297 76.6957 75.9694 75.8555 75.5459 75.0953L75.5559 75.1003ZM76.3275 78.597C76.3275 78.4689 76.3275 78.3458 76.3275 78.2127C76.325 78.3357 76.325 78.4639 76.3174 78.592L76.3275 78.597ZM76.3275 78.077C76.3275 77.9137 76.315 77.753 76.3024 77.5922C76.315 77.7479 76.325 77.9087 76.3275 78.072V78.077Z" fill="#1D2831"/>
<path d="M47.8835 71.8923H47.8985C47.8998 71.8807 47.8998 71.8689 47.8985 71.8573L47.8835 71.8923Z" fill="#1D2831"/>
<path d="M48.3862 71.6464C48.3987 71.6464 48.4113 71.6463 48.4164 71.6212L48.3862 71.6464Z" fill="#1D2831"/>
<path d="M70.2519 80.6236C70.2508 80.6194 70.2483 80.6156 70.2447 80.6129C70.2412 80.6103 70.2369 80.6089 70.2325 80.6091L70.2519 80.6236Z" fill="#1D2831"/>
<path d="M69.7492 80.3774C69.7492 80.3774 69.7492 80.3774 69.7323 80.3629L69.7492 80.3774Z" fill="#1D2831"/>
<path d="M70.5032 80.8771C70.5032 80.8771 70.5032 80.8771 70.5032 80.8628H70.4888L70.5032 80.8771Z" fill="#1D2831"/>
<path d="M62.4454 90.9081H62.4311V90.9225L62.4454 90.9081Z" fill="#1D2831"/>
<path d="M45.9028 80.614C45.8988 80.6085 45.8936 80.6041 45.8875 80.601C45.8814 80.598 45.8746 80.5964 45.8678 80.5965L45.9028 80.614Z" fill="#1D2831"/>
<path d="M44.9856 61.9375L45.3878 61.5582C45.6718 61.2944 46.285 60.7193 46.3931 60.6037C46.4534 60.5434 46.7324 60.2621 46.6445 60.3525C47.4311 59.1417 47.9389 60.8549 48.7808 61.081C48.7256 61.0657 48.6693 61.0549 48.6124 61.0483C48.9944 61.3699 49.4343 61.6034 49.844 61.8848C49.8451 61.8798 49.8451 61.8747 49.844 61.8697C50.3768 62.151 50.9072 62.2139 51.4325 61.8371C51.4325 61.8371 51.4476 61.8195 51.4325 61.822C51.7869 61.4603 51.7265 61.0885 51.4525 60.7117H51.4676C51.2163 59.5637 48.4742 58.9935 49.4418 57.7501C52.2066 55.6953 49.9873 52.2991 47.9112 55.7932C47.0667 56.9462 46.2976 53.9218 45.3827 53.6103C47.6448 53.0728 56.2406 54.5926 53.6769 50.1815C53.0611 49.551 52.4453 49.4279 51.8396 50.2066C48.0896 51.44 43.2313 49.87 39.5466 50.9376L39.2777 51.1888V51.1712C38.8077 51.5932 38.5438 53.0477 39.529 53.0753V53.0577C40.6123 54.0424 42.3466 52.9447 43.3745 53.7561H43.3594C43.3871 53.9495 43.4298 54.1504 43.4499 54.3413C43.7893 54.9015 44.2341 55.5822 44.5458 56.0319L44.7569 56.3283H44.7317C44.8097 56.4514 45.0459 56.7905 45.0409 56.798C45.1113 56.906 45.1842 57.0116 45.2571 57.1196H45.2294C45.4003 57.4913 45.8251 57.8053 45.5461 58.2525C45.4832 58.3128 45.2269 58.559 45.3149 58.471C45.252 58.5288 44.9554 58.8127 45.0635 58.7222C45.0007 58.7825 44.7091 59.0739 44.8122 58.9734C44.7494 59.0337 44.4628 59.3226 44.5608 59.2246C44.4402 59.3452 44.033 59.7672 44.0582 59.727C44.0004 59.7898 43.7365 60.0736 43.8068 59.9907L43.5555 60.2621C42.9749 60.8172 42.4546 61.734 43.279 62.3746C44.0305 62.887 44.4553 62.2138 44.9856 61.9375ZM40.0216 53.0376C40.185 53.0376 40.3484 53.0376 40.5092 53.0376C40.3433 53.0376 40.185 53.0351 40.0216 53.0376ZM40.9692 53.0803C41.1527 53.1004 41.3387 53.123 41.5196 53.1506C41.3487 53.123 41.1527 53.1004 40.9692 53.0803ZM43.5078 54.2685C43.5078 54.2936 43.4876 54.3162 43.475 54.3413C43.4876 54.3162 43.4977 54.2936 43.5078 54.2685Z" fill="#1D2831"/>
<path d="M46.3202 13.8047C46.3303 13.7971 46.3392 13.7881 46.3469 13.778L46.3202 13.8047Z" fill="#1D2831"/>
<path d="M70.6724 13.5417C70.6847 13.5306 70.6964 13.519 70.7074 13.5067L70.6724 13.5417Z" fill="#1D2831"/>
<path d="M95.1704 46.4914C95.1695 45.4538 95.0154 44.422 94.7131 43.4294C94.5798 42.9496 94.429 42.4773 94.2808 42.0026L94.3033 42.0227C94.3486 41.3043 94.238 40.6737 93.3986 40.4703C92.7602 40.0985 92.3379 39.4655 91.6392 39.1716L91.1365 38.8576L90.6338 38.5787C90.6327 38.5837 90.6327 38.5889 90.6338 38.5938C87.4544 37.0615 83.7873 37.3077 80.3289 37.1469C80.2963 30.3998 80.5451 23.5571 80.2611 16.8426C80.2 16.9058 80.1514 16.98 80.1178 17.0612C80.4923 16.2096 79.7408 15.1923 79.4743 14.3608L79.4919 14.3784C79.2859 14.0971 78.8209 13.5369 78.7379 13.3987C78.4564 13.0847 78.1699 13.1149 77.803 12.7933C76.1165 11.3238 72.7284 11.462 71.1952 13.0445C70.9255 13.2703 70.6734 13.5164 70.4412 13.7805L70.4211 13.8057C70.2474 14.0257 70.062 14.2362 69.8657 14.4362C66.8345 17.7018 71.1475 38.1592 67.1009 37.383C50.7639 36.7877 56.9896 41.5831 55.7429 18.5056C55.7638 18.5419 55.7864 18.5771 55.8108 18.6111C55.753 17.4882 55.5594 16.2222 54.9587 15.2927H54.9713C54.9487 14.8883 54.6295 14.818 54.4486 14.5015H54.4636C54.4359 14.4136 54.2474 14.1473 54.343 14.1573C54.2852 14.092 54.0414 13.8383 54.0916 13.891C54.0238 13.8282 53.8101 13.6022 53.8277 13.6398C53.2722 13.3233 52.7218 13.0018 52.1412 12.7305L52.1563 12.7557C50.3417 11.9192 47.8157 12.1804 46.5439 13.562C46.373 13.7203 46.2096 13.8836 46.0412 14.0644C45.712 14.1498 45.5385 14.5141 45.4682 14.818C45.2229 15.0781 45.0294 15.3824 44.8977 15.7147C43.3117 22.7156 44.875 30.553 44.0506 37.4634C41.0346 37.265 37.634 37.0665 34.7034 38.1442V38.1241L33.9493 38.4054V38.3903L33.4165 38.6215C33.4154 38.6165 33.4154 38.6114 33.4165 38.6064L32.9138 38.9003C32.7849 38.966 32.6468 39.0117 32.5041 39.0359H32.5192L31.833 39.6036V39.581C31.7702 39.6363 31.4812 39.9101 31.5817 39.8147C31.5264 39.8775 31.2499 40.1462 31.3303 40.0659L30.7498 40.7918L30.7699 40.7642C30.7271 40.837 30.4783 41.151 30.5814 41.0581C30.516 41.1812 30.2823 41.5303 30.2999 41.5353C30.2099 41.7028 30.1301 41.8756 30.0611 42.0528C28.2615 50.8749 29.6037 60.335 29.2518 69.3806C29.3036 72.047 29.7725 74.6889 30.6417 77.2104L30.6141 77.1953L30.878 77.9715H30.8553C30.9509 78.2227 31.0439 78.4739 31.1369 78.7251H31.1193C31.1943 78.9232 31.258 79.1253 31.3103 79.3305C31.4184 79.5515 31.5239 79.7751 31.632 79.9987H31.6169C31.7174 80.7121 32.1347 81.1165 32.4212 81.7219L32.6901 82.2243L32.9691 82.7443V82.7267L33.15 83.0633H33.1224C33.3738 83.5908 33.6025 84.1484 34.0021 84.4775L34.2258 84.789L34.1931 84.7513C34.256 84.8669 34.3213 84.9799 34.3867 85.093H34.364C34.4746 85.2311 34.5827 85.3718 34.6908 85.5125C34.8441 85.9772 35.1558 86.2032 35.4448 86.5524H35.4222C35.5227 87.0548 35.95 87.2105 36.244 87.5572L36.2038 87.4994C37.1297 88.7639 38.188 89.926 39.3607 90.9659C39.333 90.8956 39.3079 90.8253 39.2853 90.7525C39.3079 90.8228 39.333 90.8956 39.3607 90.9659L39.3004 90.9409C41.0245 92.1768 42.6381 93.6462 44.5634 94.5505L45.0661 94.8394C45.5137 95.1882 46.0263 95.4444 46.5741 95.593V95.5805C47.592 96.1909 48.7582 96.4244 49.8415 96.849L49.8163 96.8289L50.319 97.1429V97.1253C50.7639 97.3941 51.0203 97.904 51.4275 98.1803C51.3755 98.1433 51.3177 98.1154 51.2565 98.0975C51.347 98.2733 51.4375 98.4466 51.5305 98.6199C51.5225 98.6147 51.5149 98.6088 51.5078 98.6024C51.9125 99.5569 51.4576 100.672 52.0583 101.594L51.9527 101.622V101.73C52.0688 101.982 52.146 102.251 52.1815 102.526L52.1588 102.506C52.2523 102.668 52.3362 102.836 52.4102 103.008C52.6771 103.333 52.9206 103.677 53.139 104.036C53.6116 104.538 54.2097 104.789 54.8456 105.149C54.8456 105.149 54.8456 105.149 54.8456 105.136L55.3483 105.387L56.0823 105.704C56.0796 105.694 56.0754 105.685 56.0697 105.676L56.8237 105.96C56.8237 105.96 56.8237 105.945 56.8237 105.935L57.3842 106.078C57.3661 106.053 57.3459 106.029 57.3239 106.008C58.0125 110.278 57.4219 115.327 59.2968 119.442L59.2139 119.474L59.229 119.56L59.5683 120.469L59.5406 120.457L59.8347 121.23H59.8196C59.8724 121.692 60.1414 122.054 60.3223 122.506L60.2946 122.489C60.5611 123.069 60.825 123.652 61.0889 124.232H61.0738C61.1568 124.405 61.2397 124.581 61.3252 124.755H61.3075L61.584 125.257H61.569C61.6645 125.42 61.76 125.583 61.858 125.759L62.147 126.249C62.2023 126.465 62.1697 126.696 62.4235 126.752C62.4839 126.852 62.5467 126.953 62.6095 127.05H62.5894L62.7201 127.445C63.0644 127.847 63.3183 128.332 63.7003 128.744L67.1587 128.713L66.2841 127.709C65.6809 126.802 64.9294 125.774 64.2357 124.92C64.2473 124.986 64.2745 125.047 64.3153 125.1C64.356 125.152 64.4089 125.194 64.4694 125.222L64.7685 125.538C64.6629 125.272 64.5298 124.739 64.2458 124.694C64.1936 124.519 64.1082 124.355 63.9944 124.212C64.0396 123.88 63.537 123.486 63.6802 123.28C63.6199 123.159 63.4138 122.745 63.4289 122.778C63.1549 122.577 62.9614 121.72 62.9136 121.522C62.6925 121.177 62.323 120.562 62.4286 120.248C61.481 118.794 61.5313 116.51 60.6968 115.189C60.7496 115.201 60.8038 115.205 60.8577 115.201C60.4455 113.574 60.4379 111.84 60.1765 110.178C60.1413 110.286 60.1112 110.394 60.0861 110.504C60.2712 109.226 60.2881 107.928 60.1363 106.646L60.2243 106.658C61.3704 106.058 63.3434 106.646 64.766 106.394C64.8162 110.454 64.9193 114.684 66.445 118.49L66.4097 118.467C66.4449 118.738 66.4349 119.025 66.6611 119.221C66.7993 119.655 66.8773 120.117 67.1839 120.477H67.1688C69.0237 124.827 72.1101 129.886 77.5265 128.766C77.6446 128.264 75.8375 127.671 75.4127 127.181C74.91 126.757 74.4074 126.309 73.9047 125.877H73.9173C73.8569 125.815 73.6282 125.599 73.6659 125.626C73.6031 125.561 73.3844 125.36 73.4146 125.375C73.3392 125.305 73.1884 125.104 73.1632 125.104C72.9119 124.797 72.6756 124.481 72.4921 124.285C71.3435 123.041 70.6649 121.625 69.8154 120.178H69.8305C68.301 116.441 67.495 112.448 67.4554 108.412C67.488 107.693 67.3874 106.92 67.5232 106.241C68.3174 105.97 69.5339 106.163 70.0365 105.437C70.1421 105.345 70.3005 105.292 70.3558 105.159C70.3356 105.186 70.3256 105.226 70.308 105.257C71.0394 104.787 71.7457 104.274 72.0674 103.428L72.3439 102.925H72.3313C73.2135 101.418 72.3438 99.5293 73.5654 98.1301C73.4911 98.1426 73.418 98.161 73.3467 98.1854C73.7639 98.1854 73.7815 97.8488 74.0806 97.6327L74.0455 97.6704L74.3898 97.4594V97.4921C75.3474 96.9897 76.3804 96.6707 77.3204 96.1457C80.4395 95.1107 82.9102 93.2317 85.3633 91.089L85.602 90.8605C85.6648 90.8052 85.9262 90.549 85.8534 90.6093L86.1047 90.3581C86.165 90.3003 86.4666 90.0139 86.356 90.1069C87.012 89.4186 88.0475 88.5821 88.4773 87.9265C88.6859 87.6552 89.2012 87.1051 89.2313 86.9594L89.5782 86.4996L89.9376 85.9194C90.0507 85.7587 90.1889 85.6104 90.3046 85.4522L90.2819 85.4823C90.5885 84.8719 90.9757 84.3042 91.3326 83.7239C97.1963 72.2442 94.5522 58.9006 95.1704 46.4914ZM30.9634 77.9288C30.9988 77.9414 31.0333 77.9565 31.0665 77.974C31.0331 77.9591 30.9986 77.9465 30.9634 77.9364V77.9288ZM31.2147 78.6824C31.2372 78.6909 31.259 78.701 31.2801 78.7125C31.2623 78.7014 31.2438 78.6913 31.2248 78.6824H31.2147ZM66.073 127.759C65.9595 127.857 65.8345 127.941 65.701 128.01C65.838 127.942 65.9663 127.858 66.083 127.759H66.073ZM64.2332 124.551C64.1648 124.524 64.1052 124.479 64.0609 124.421C64.0165 124.362 63.9892 124.292 63.9818 124.219C63.9901 124.294 64.0189 124.364 64.0651 124.423C64.1113 124.481 64.173 124.526 64.2432 124.551H64.2332ZM63.7028 123.566C63.5771 123.55 63.4585 123.499 63.361 123.418C63.4615 123.505 63.5858 123.56 63.7179 123.576L63.7028 123.566ZM63.2127 122.549C63.021 122.383 62.8519 122.192 62.71 121.981C62.852 122.195 63.0219 122.39 63.2152 122.559L63.2127 122.549ZM61.1216 124.124C61.1711 124.142 61.2171 124.168 61.2573 124.202C61.2194 124.173 61.177 124.15 61.1316 124.134L61.1216 124.124ZM61.3579 124.639C61.408 124.653 61.4554 124.675 61.4986 124.704C61.4579 124.68 61.4139 124.661 61.3679 124.649L61.3579 124.639ZM61.6092 125.141C61.657 125.155 61.702 125.178 61.7424 125.207C61.708 125.18 61.6699 125.159 61.6293 125.144L61.6092 125.141ZM61.8831 125.626C61.9274 125.643 61.9689 125.667 62.0063 125.696C61.975 125.67 61.9404 125.647 61.9033 125.629L61.8831 125.626ZM62.4688 120.786C61.4634 119.396 60.9984 117.827 60.7848 116.186C61.016 117.829 61.4735 119.396 62.4889 120.788L62.4688 120.786ZM67.9153 121.841C68.0019 121.896 68.0723 121.973 68.1191 122.064C68.1659 122.156 68.1875 122.258 68.1817 122.361C68.1924 122.259 68.1759 122.157 68.1339 122.064C68.0919 121.972 68.026 121.892 67.9429 121.833L67.9153 121.841ZM71.5195 33.3086C71.6225 27.9179 71.3561 22.1982 71.6904 16.9808C71.4943 17.129 71.5019 17.3702 71.5521 17.6314C71.9417 16.7296 72.3438 15.8454 73.0602 15.1722C73.0474 15.2059 73.0366 15.2403 73.0275 15.2751L73.5805 14.9486V14.9838C74.2817 14.6849 75.0005 14.8054 75.7168 14.9059V14.8909C76.5563 15.2953 76.9886 16.1142 77.4209 16.9356C77.4098 16.9232 77.398 16.9115 77.3857 16.9004C77.6697 23.6828 77.5466 30.5982 77.4812 37.3403C73.309 37.1846 70.6272 38.9003 71.5421 33.3011L71.5195 33.3086ZM77.4083 37.4483C77.3435 37.5332 77.2586 37.6007 77.1612 37.6445C77.0638 37.6884 76.9569 37.7073 76.8504 37.6995C76.9613 37.7104 77.0731 37.6922 77.1749 37.6469C77.2766 37.6015 77.3649 37.5305 77.431 37.4408L77.4083 37.4483ZM55.2026 15.7901C55.1558 15.772 55.1118 15.7475 55.0719 15.7173C55.1193 15.7469 55.171 15.7689 55.2252 15.7826L55.2026 15.7901ZM47.1597 18.5232C47.1841 18.2395 47.2346 17.9586 47.3105 17.6842C47.034 17.345 47.1497 16.6166 47.4487 16.3578C47.0994 16.6593 47.1572 17.1466 47.2175 17.6364L47.9112 16.1293C48.0796 15.9082 48.3435 15.7625 48.4767 15.5214C48.4448 15.5656 48.4186 15.6137 48.3988 15.6645L48.9015 15.3807C55.3458 14.3131 52.3448 23.7179 53.036 27.4683L52.9983 27.3854V27.6366L53.0184 27.6165C53.0184 29.6638 52.8978 31.804 53.0486 33.8437C53.0337 33.7839 53.0126 33.7258 52.9858 33.6704C53.0222 34.9066 52.9718 36.1439 52.8349 37.373L47.1723 37.3554C47.0491 31.0654 47.1069 24.7855 47.1798 18.5056L47.1597 18.5232ZM53.222 37.2574C53.1086 37.3472 52.9694 37.3983 52.8249 37.4031C52.9773 37.3985 53.124 37.3438 53.2421 37.2474L53.222 37.2574ZM34.736 38.1316C34.7218 38.1655 34.705 38.1983 34.6857 38.2296C34.7124 38.1958 34.736 38.1596 34.7561 38.1216L34.736 38.1316ZM33.4642 38.6139C33.4501 38.6648 33.4281 38.7131 33.3989 38.7571C33.4364 38.7107 33.4653 38.6579 33.4843 38.6014L33.4642 38.6139ZM32.7454 82.1816C32.7896 82.203 32.8303 82.2309 32.8661 82.2645C32.84 82.2268 32.8086 82.1929 32.773 82.164L32.7454 82.1816ZM33.7508 83.94C33.7822 83.9548 33.8117 83.9734 33.8388 83.9952C33.8195 83.9703 33.7976 83.9476 33.7734 83.9274L33.7508 83.94ZM36.0882 82.6237C36.023 82.5933 35.9661 82.5476 35.9223 82.4905C35.9695 82.5471 36.03 82.5911 36.0983 82.6187L36.0882 82.6237ZM57.7788 103.295C57.8488 103.366 57.9351 103.418 58.0301 103.448C57.9382 103.415 57.8554 103.361 57.7888 103.29L57.7788 103.295ZM65.716 115.038C65.5476 113.262 65.3114 111.491 65.2134 109.71C65.4094 112.192 65.5049 114.709 66.3494 117.065C66.2087 116.37 65.9297 115.719 65.7286 115.033L65.716 115.038ZM66.4324 118.341C66.4926 118.374 66.5463 118.417 66.5907 118.47C66.5497 118.417 66.4995 118.371 66.4424 118.336L66.4324 118.341ZM66.6837 119.095C66.7244 119.115 66.7624 119.141 66.7968 119.17C66.7668 119.138 66.7331 119.109 66.6963 119.085L66.6837 119.095ZM66.9149 119.597C66.9999 119.637 67.0717 119.7 67.1216 119.78C67.1715 119.859 67.1975 119.951 67.1965 120.045C67.1982 119.953 67.1738 119.862 67.1262 119.783C67.0786 119.705 67.0097 119.641 66.9275 119.6L66.9149 119.597ZM67.4981 106.08C67.9717 105.574 68.625 105.274 69.3178 105.244C68.6291 105.278 67.9808 105.579 67.5106 106.083L67.4981 106.08ZM67.7192 103.496C68.0117 103.4 68.2679 103.216 68.4532 102.971C68.2736 103.214 68.0248 103.398 67.7393 103.498L67.7192 103.496ZM69.6772 102.169C69.7 102.102 69.712 102.032 69.7124 101.961C69.7163 102.032 69.7086 102.103 69.6897 102.172L69.6772 102.169ZM70.9389 97.163C70.9586 97.0867 70.9679 97.0081 70.9665 96.9294C70.9722 97.0084 70.9671 97.0878 70.9515 97.1655L70.9389 97.163ZM80.3214 94.4953C80.3375 94.453 80.3595 94.4133 80.3867 94.3772C80.3637 94.4148 80.3459 94.4554 80.334 94.4978L80.3214 94.4953ZM92.1644 69.8076C92.0865 71.9352 91.6216 74.0302 91.2998 76.1327C91.3184 76.1199 91.3377 76.1082 91.3577 76.0976C89.0654 84.0279 83.3148 90.9183 75.4001 93.7618C73.7639 94.435 71.899 95.1484 71.0394 96.8088V96.7209C71.0091 96.7479 70.9853 96.7812 70.9697 96.8186C70.954 96.856 70.9469 96.8964 70.9489 96.9369H70.9741C70.7228 97.0349 70.7052 97.2409 70.7228 97.4619C69.7928 98.7506 70.4387 100.552 69.7174 101.983C69.3606 102.389 68.9352 102.729 68.4607 102.988C64.8816 103.624 61.2699 103.579 57.6732 103.197V103.229C56.0043 102.629 54.3706 101.788 54.4058 99.6549C54.3681 93.2795 45.2847 93.2343 41.3136 88.9036L41.3588 88.9413C40.0066 87.6401 38.7172 86.3112 37.6993 84.7337L37.7747 84.7162C37.1137 84.3645 36.8347 83.3497 36.1133 82.9578C36.1682 83.054 36.2583 83.1252 36.3647 83.1563C36.2717 82.9955 36.1762 82.8347 36.0807 82.6739L35.7841 82.1715C35.5328 81.7545 35.2814 81.3375 35.0678 80.9155H35.0829L34.5802 79.8982H34.5952C33.3235 76.5045 32.2478 73.0204 32.298 69.363L32.2276 69.3957C32.1736 69.4482 32.1286 69.5093 32.0944 69.5765C32.3332 62.013 32.2854 54.1781 32.21 46.5292C32.1202 46.5503 32.035 46.5878 31.9587 46.6397C32.675 45.0747 32.3809 42.8416 34.0951 41.4725C34.0624 41.5219 34.0378 41.5762 34.0222 41.6333C34.2082 41.3394 34.7611 41.3268 34.8064 41.1033C35.9943 40.6006 37.2537 40.287 38.5388 40.1739C54.2852 40.405 70.0391 40.0708 85.7905 40.204L85.7578 40.2768C88.0576 40.3949 90.7218 41.2264 91.7899 43.3741C91.779 43.2978 91.7507 43.225 91.7071 43.1614C91.6635 43.0978 91.6058 43.0451 91.5386 43.0074C91.5688 43.2108 91.5612 43.4319 91.7899 43.5274H91.7573C91.9006 44.2156 92.1343 44.9114 92.182 45.6299C92.3881 53.7084 92.3362 61.7911 92.0262 69.8779L92.1268 69.8578C92.2326 69.8341 92.3299 69.7821 92.4082 69.7071C92.3394 69.7576 92.2606 69.7927 92.177 69.8101L92.1644 69.8076Z" fill="#1D2831"/>
<path d="M63.1246 121.838C63.1242 121.848 63.127 121.857 63.1324 121.864C63.1378 121.872 63.1457 121.878 63.1547 121.881L63.1246 121.838Z" fill="#1D2831"/>
<path d="M63.9038 123.612C63.9035 123.614 63.9037 123.617 63.9044 123.619C63.9051 123.622 63.9062 123.624 63.9078 123.626C63.9093 123.628 63.9113 123.63 63.9136 123.631C63.9158 123.632 63.9183 123.633 63.9209 123.633L63.9038 123.612Z" fill="#1D2831"/>
<path d="M39.6094 50.7987C39.6155 50.798 39.6212 50.7956 39.626 50.7917C39.6307 50.7878 39.6342 50.7827 39.636 50.7769L39.6094 50.7987Z" fill="#1D2831"/>
<path d="M71.0259 81.1209C71.0259 81.1088 71.0114 81.1088 71.0016 81.1039L71.0259 81.1209Z" fill="#1D2831"/>
<path d="M80.6681 51.0608C80.5525 50.8096 80.1303 50.8346 80.1655 50.5131C75.5836 50.488 70.8508 50.8397 66.3418 50.5684C65.8944 50.4955 65.4797 50.4604 65.9573 50.905C65.8391 50.7965 65.7486 50.6612 65.6934 50.5106C63.8511 48.5714 62.1746 52.0027 64.2683 53.211C69.4609 53.5752 75.2819 53.849 80.2911 53.0175C81.0451 52.5152 81.2211 51.7616 80.6556 51.0633L80.6681 51.0608Z" fill="#1D2831"/>
<path d="M67.204 61.0106C66.7013 61.4653 66.4952 61.9651 66.9527 62.5705V62.5856C68.6995 64.6078 70.9992 59.0387 72.4268 60.8272C72.4896 60.8825 72.7912 61.1588 72.6907 61.0633L72.9697 61.3145C73.1703 61.5473 73.4001 61.7534 73.6534 61.9275C73.6534 61.9275 73.6534 61.9275 73.6534 61.9124C73.7506 61.978 73.8513 62.0384 73.9549 62.0933C74.6662 62.5731 75.3826 62.9047 76.1064 62.1134C76.3754 61.7165 76.4206 61.3372 76.0511 60.9654C76.0662 61.3422 76.0813 61.719 76.0938 62.0958C76.1491 61.3045 76.0335 60.6866 75.3022 60.2646C74.9855 59.9707 74.1912 59.3577 74.0932 59.2396C74.0304 59.1819 73.7288 58.8905 73.8419 58.9885C73.3568 58.7523 73.5654 58.1118 73.7966 58.0741C73.8595 58.0163 74.1435 57.735 74.048 57.8229L74.2993 57.5717C74.6788 57.2301 75.0181 56.8181 75.4504 56.4187C75.6012 55.8234 76.0435 55.208 75.3122 54.6855C74.7818 54.1655 74.2541 54.2861 73.7313 54.6855C73.7313 54.6855 73.6986 54.7081 73.7086 54.7056C73.588 54.8136 73.206 55.208 73.2311 55.1854C72.4771 55.7681 71.7507 57.4461 70.9288 56.1123C70.6549 55.8611 70.1547 55.3587 70.034 55.2205C69.8685 55.0416 69.6914 54.8737 69.5037 54.7181C67.7846 53.535 67.1412 56.3635 68.4305 57.0116C68.6693 57.2628 68.986 57.5792 69.2022 57.7877C70.2779 58.6192 68.9784 58.9659 68.7221 59.5059C68.3652 59.8224 68.0158 60.149 67.669 60.4781C67.5031 60.6389 67.3448 60.8072 67.1914 60.9805L67.204 61.0106Z" fill="#1D2831"/>
<path d="M63.4363 106.49C62.2751 106.332 61.3075 106.191 60.2218 106.505L60.1338 106.492L60.2243 107.017C60.9783 107.369 59.9528 107.693 60.2243 108.273C61.481 108.336 64.3362 109.369 64.497 107.472C64.5121 106.676 64.1501 106.445 63.4363 106.49Z" fill="#6A848F"/>
<path d="M63.1346 91.2221C63.3307 90.8529 62.8305 90.6645 62.6923 90.6569C62.4887 90.6243 62.4007 90.7047 62.4409 90.9081C61.9383 91.0162 61.4356 91.5864 61.0611 91.933C61.0008 91.6819 60.6112 92.1189 60.4504 92.1842C60.1035 92.4053 59.6386 92.5685 59.3998 92.8976C59.4139 92.8693 59.4256 92.8399 59.4349 92.8097C59.1836 92.9303 58.8493 92.9027 58.6809 93.184V93.1338C57.8716 94.4702 55.7931 93.2995 55.2401 94.4626C55.2401 94.8569 55.5392 94.9424 55.8534 94.9022C58.593 94.4952 62.4032 94.5907 63.1346 91.2221Z" fill="#6A848F"/>
<path d="M71.258 81.8877C71.1323 81.6616 71.165 81.1868 70.9237 81.1114H71.0192C71.0997 81.3626 71.1776 81.6138 71.258 81.8776C71.5998 82.3624 73.882 82.0233 74.0227 81.7043C74.0076 81.3928 73.4195 81.7043 73.0827 81.6314C72.5273 81.6867 72.0899 81.3802 71.5445 81.33C71.3485 81.2069 71.0267 81.1943 70.979 80.9331H70.9916C70.8307 80.8803 70.7176 80.7924 70.5342 80.8527C70.2125 80.398 69.5589 80.1142 69.0437 79.8479C69.0613 79.8479 69.0136 79.8479 69.0136 79.8479V79.8605C67.3849 80.0489 70.4185 82.1765 71.258 81.8877Z" fill="#6A848F"/>
<path d="M92.2599 60.5685C92.2096 54.9216 92.8279 48.9607 91.8376 43.4871C91.624 43.4268 91.5511 43.0626 91.5863 42.9847C91.2243 41.9071 87.585 39.3876 88.0826 41.8267C88.0122 53.6933 89.9074 66.3762 86.6048 77.9187C82.3144 91.5713 67.9429 88.5796 66.1131 98.0372C65.6632 100.009 65.2359 104.106 68.4531 102.976C68.924 102.718 69.3445 102.378 69.6947 101.971C70.416 100.569 69.8053 98.6601 70.7 97.4619C70.6827 97.3616 70.6962 97.2585 70.7389 97.1661C70.7815 97.0737 70.8512 96.9964 70.9388 96.9444C71.8311 95.2137 73.7035 94.4526 75.3976 93.7693C85.3707 90.2048 91.9256 80.2524 92.1618 69.8151L92.0613 69.8352C92.2875 66.7354 92.3001 63.6582 92.2599 60.5685ZM91.8226 68.2476C91.8226 68.3682 91.8226 68.4863 91.8226 68.6043C91.8125 68.4938 91.8176 68.3682 91.8226 68.2426V68.2476Z" fill="#6A848F"/>
<path d="M79.5724 53.314L79.233 53.3843C79.2595 53.4032 79.2897 53.4163 79.3215 53.423C79.3534 53.4297 79.3862 53.4297 79.418 53.4231C79.4499 53.4165 79.48 53.4034 79.5066 53.3846C79.5331 53.3658 79.5556 53.3418 79.5724 53.314Z" fill="#6A848F"/>
</svg>
