<svg width="130" height="129" viewBox="0 0 130 129" fill="none" xmlns="http://www.w3.org/2000/svg">
<path d="M129.06 0.267578H0.374512V128.881H129.06V0.267578Z" fill="#54B3A2"/>
<path opacity="0.3" d="M60.1931 122.852C79.0713 122.852 94.3752 119.647 94.3752 115.693C94.3752 111.739 79.0713 108.534 60.1931 108.534C41.3148 108.534 26.011 111.739 26.011 115.693C26.011 119.647 41.3148 122.852 60.1931 122.852Z" fill="#1D2831"/>
<path d="M64.3727 10.421C73.8859 10.6445 83.3086 11.6217 92.5453 13.988C96.3707 14.9677 100.06 16.3392 103.29 18.698C104.936 19.8987 106.329 21.3607 107.181 23.2195C108.417 25.9199 107.995 28.5148 106.427 30.974C104.816 33.486 102.697 35.5834 100.789 37.8542C97.9968 41.1801 95.0386 44.3853 93.3596 48.505C92.6685 50.2552 92.1737 52.0766 91.8843 53.9359C91.7812 54.5513 91.6732 55.1718 91.5249 55.7797C91.0222 57.827 90.238 58.4977 88.1494 58.676C87.7749 58.7087 87.3954 58.691 87.0209 58.7412C86.8094 58.756 86.6069 58.8328 86.4388 58.9619C86.2708 59.091 86.1445 59.2668 86.0758 59.4672C85.9376 59.9219 86.3775 60.1129 86.659 60.3339C89.572 62.5947 91.937 65.3251 93.4199 68.7364C93.9069 69.809 94.169 70.9699 94.1902 72.1476C94.2114 73.3252 93.9911 74.4947 93.5431 75.5841C92.0225 79.3521 89.6021 82.2434 85.5807 83.5747C83.7028 84.1789 81.7068 84.3211 79.7622 83.9892C78.6814 83.8209 78.3949 84.2253 78.3245 85.107C78.2215 86.3932 77.5404 87.3954 76.6984 88.2821C75.8564 89.1688 74.7354 89.621 73.5038 89.1814C72.4583 88.8096 72.3351 89.2643 72.2472 90.156C71.7445 95.2779 73.8658 99.6236 76.2183 103.909C77.6107 106.444 78.6739 109.129 79.6868 111.822C80.4408 113.806 79.1841 115.59 76.9874 115.66C74.9767 115.715 73.2928 116.62 71.5183 117.31C68.4017 118.529 65.2348 119.338 61.8568 118.735C60.3789 118.468 59.9014 117.66 60.5122 116.318C61.8583 113.243 64.0859 110.636 66.9137 108.825C67.7004 108.323 68.0398 107.931 67.5471 106.951C66.1044 104.072 64.7824 101.133 63.3975 98.222C63.2819 97.9708 63.2819 97.5638 62.92 97.5563C62.5078 97.5563 62.4374 97.9708 62.3193 98.2647C61.9526 99.2879 61.6546 100.334 61.427 101.397C60.9394 103.341 60.2106 105.13 58.0691 105.919C56.9381 106.331 57.3805 107.371 57.5916 108.079C57.9485 109.277 57.9736 110.468 57.956 111.681C57.9183 114.432 55.694 116.117 53.2233 115.037C51.464 114.269 49.9107 114.535 48.2418 115.052C45.1151 116.002 41.9583 116.409 38.7261 115.512C36.6274 114.927 36.0594 113.284 37.5146 111.681C39.5882 109.395 42.2901 108.059 45.1151 106.986C46.9072 106.305 47.1007 106.105 47.1409 104.185C47.244 99.4654 46.3392 94.871 45.4343 90.2766C45.3866 90.043 45.4343 89.6612 45.183 89.6361C44.7658 89.5984 44.8512 90.0505 44.7909 90.2967C44.4626 91.6824 44.3273 93.1067 44.3888 94.5294C44.429 95.8457 43.9414 96.9987 43.2402 98.0462C42.358 99.375 41.0108 99.7769 39.5027 99.596C37.8866 99.4001 36.8561 98.3576 36.2755 96.9283C35.4185 94.8207 35.3481 92.6077 35.7729 90.3971C36.5822 86.2499 38.4697 82.4921 40.0758 78.6337C40.204 78.3247 40.3673 78.0308 40.5006 77.7243C40.8172 77.0034 40.87 76.6391 39.7892 76.7195C37.3613 76.9205 36.0192 75.4887 35.793 73.0822C35.5567 70.5049 36.7455 68.7917 38.6658 67.3524C39.9426 66.3978 40.8851 62.675 40.2769 61.2407C40.0909 60.8036 39.7893 60.781 39.3645 60.8212C37.3538 61.0222 36.0619 60.1781 35.5944 58.2012C35.1487 56.4585 35.0733 54.6418 35.3732 52.8683C35.9538 49.7082 36.6928 46.5708 36.6299 43.3228C36.5822 41.0494 36.4364 38.8264 35.6799 36.6535C35.0792 34.9379 34.8278 33.1594 35.2526 31.3432C35.286 31.232 35.2971 31.1153 35.2851 30.9999C35.273 30.8844 35.2382 30.7726 35.1825 30.6707C35.1269 30.5688 35.0515 30.4789 34.9609 30.4064C34.8702 30.3338 34.766 30.28 34.6544 30.248C32.4577 29.3437 31.578 27.4094 31.1884 25.332C30.4897 21.6294 31.7188 17.9016 34.9862 15.7866C38.5527 13.4831 42.5264 12.4632 46.6357 11.7448C50.064 11.1444 53.5224 10.946 56.9808 10.6898C59.4389 10.5089 61.8995 10.4712 64.3727 10.421ZM85.0755 69.0103L85.0579 68.9952C85.0805 69.1459 85.1082 69.2916 85.3093 69.2665V69.2539C85.2917 69.3033 85.2842 69.3558 85.2874 69.4082C85.2906 69.4605 85.3044 69.5118 85.3278 69.5587C85.3513 69.6056 85.384 69.6472 85.424 69.6812C85.464 69.7152 85.5105 69.7407 85.5606 69.7563C85.631 69.9422 85.7039 70.1255 85.7742 70.3114L85.9401 70.751C86.0306 70.9495 86.018 71.2183 86.3096 71.2735C86.1035 71.8613 86.4177 72.429 86.3624 73.0118C86.3624 73.1801 86.3448 73.3509 86.3372 73.5142L85.8622 75.0214C85.8424 75.0388 85.8283 75.0617 85.8216 75.0872C85.8149 75.1127 85.8159 75.1397 85.8245 75.1646L85.5732 75.5036C85.161 75.9391 84.7471 76.3728 84.3316 76.8049C84.1732 76.923 83.9721 77.0184 84.0626 77.2797L84.0777 77.2646C83.8791 77.237 83.7308 77.2646 83.8087 77.5158V77.4983C82.361 77.9203 80.9309 78.4528 79.3701 78.1337C79.0811 78.076 78.7141 77.9077 78.4678 78.2794C78.4678 78.3699 78.4678 78.4628 78.4678 78.5532C78.5155 79.3068 78.6488 80.0604 78.5884 80.7939C78.5206 81.6706 78.9453 81.9067 79.6943 82.075C80.9597 82.3295 82.2567 82.3879 83.5398 82.2483C84.5749 82.0961 85.5753 81.7637 86.4956 81.2662C90.7809 79.1109 94.7169 72.8385 90.331 66.9957C89.0969 65.3529 87.8428 63.7452 86.2518 62.4264C84.6608 61.1076 84.6583 61.095 83.4871 62.8333C82.9014 63.6999 81.8433 64.5339 81.8207 65.4056C81.7981 66.2772 83.1955 66.8023 83.8314 67.6186C84.0227 67.8379 84.2266 68.0459 84.4421 68.2416C84.5728 68.4149 84.6935 68.5907 84.8317 68.7666V68.7465L85.0755 69.0103ZM100.938 34.8475L100.907 34.8676L101.181 34.5937V34.6313L101.684 34.1089L101.913 33.8577C103.265 32.4896 104.397 30.9191 105.266 29.203C106.892 25.955 105.54 21.966 102.463 20.7577L102.443 20.7879C102.506 20.3784 102.207 20.3357 101.925 20.2855C101.835 20.0343 101.631 20.0041 101.405 20.0343L101.423 20.0544L101.149 19.7857L101.176 19.7982C100.802 19.547 100.442 19.2556 100.048 19.0321C96.4737 16.9873 92.5503 15.9473 88.5666 15.0907L81.891 13.8825L81.5316 13.8222L80.3629 13.7066L80.0236 13.6237L78.5834 13.4806L77.7691 13.3273L76.3239 13.2218C76.2054 13.1441 76.0726 13.0905 75.9333 13.0642C75.7939 13.0379 75.6508 13.0394 75.512 13.0686C67.7531 12.2321 59.9266 12.2321 52.1677 13.0686L51.8862 13.0862C50.1268 13.3173 48.3423 13.4604 46.6081 13.8071C44.4843 14.2266 42.2976 14.4652 40.3246 15.4976L40.2869 15.4249C39.7616 15.5253 39.2288 15.6107 38.8191 16.0051V15.98C37.8489 16.1634 37.0597 16.6883 36.2831 17.2611L36.3007 17.2385C35.5013 17.6715 34.813 18.2837 34.2899 19.027L34.0839 19.2958L33.5359 20.2754H33.551C32.6713 21.8379 32.3371 23.428 33.2997 25.0884V25.0733C33.2431 25.2107 33.2373 25.3639 33.2833 25.5052C33.3294 25.6465 33.4243 25.7667 33.551 25.8445H33.5008C33.5008 26.2815 33.7798 26.5729 34.0663 26.8492L34.0512 26.8216L34.3176 27.3492L34.3025 27.3266L34.574 27.7234C35.421 28.8739 36.65 29.0297 37.9117 28.8815C39.9702 28.6303 41.9483 28.0349 43.9112 27.3919C44.2002 27.2989 44.537 27.3441 44.7658 27.0854V27.1155C49.497 26.2284 54.2962 25.7519 59.1097 25.6913L59.4691 25.7189H61.1983H61.4798L62.6837 25.7516L67.7909 26.0354L68.0046 26.0781C68.1083 26.1657 68.2372 26.2182 68.3726 26.2281C68.508 26.238 68.6431 26.2049 68.7586 26.1334L69.2462 26.1937L69.5779 26.2615L76.6808 27.098H76.6531C77.4072 27.53 78.2667 27.4697 79.061 27.7109L79.5963 27.7988C81.0867 28.1555 82.5822 28.5072 84.0701 28.8715C85.5581 29.2357 87.0309 29.9491 88.6118 30.1274H88.5917C89.4237 30.7278 90.4039 30.9187 91.3741 31.1447L91.3514 31.1322L91.8541 31.3834C92.4601 31.7853 93.1461 32.051 93.8648 32.1622V32.132C93.9704 32.348 94.174 32.3832 94.3675 32.3832H94.3499C94.4435 32.4861 94.562 32.5633 94.6941 32.6073C94.8261 32.6513 94.9672 32.6606 95.1039 32.6344L95.3553 32.8981L95.3351 32.8856L95.9258 33.167C96.1786 33.4195 96.5123 33.5751 96.8683 33.6066C97.469 34.1089 97.7229 34.6992 97.371 35.4578C95.863 35.2066 94.5485 34.355 93.0832 33.9657C88.6797 32.147 84.1933 30.5896 79.5109 29.6627C74.8773 28.6952 70.1774 28.078 65.451 27.8164C65.3 27.7289 65.1315 27.676 64.9576 27.6617C64.7837 27.6474 64.6089 27.6719 64.4456 27.7335C59.6668 27.4608 54.8733 27.6037 50.1193 28.1605L49.3225 28.3288C48.3125 28.3521 47.3125 28.5344 46.3592 28.8689C44.0344 29.1779 41.7773 29.7908 39.5103 30.3761C38.7332 30.3704 37.9633 30.5244 37.2482 30.8283C36.4364 32.2827 36.5822 33.815 37.1703 35.2368C37.7941 36.8191 38.195 38.4802 38.3617 40.1728L38.5275 41.2128V44.1869C38.3304 44.6747 38.262 45.205 38.329 45.7268L38.2611 46.6938C38.2058 46.9626 38.148 47.2314 38.0927 47.5002C38.0676 47.8192 38.0399 48.1383 38.0148 48.4548C37.8538 48.6795 37.7838 48.9568 37.8188 49.231C37.5951 50.5447 37.3161 51.8534 37.1628 53.1773C36.9818 54.6669 36.7707 56.1916 37.3035 57.6461C37.8364 59.1005 38.985 59.4246 40.028 58.5379C41.1767 57.5582 41.1766 57.5582 41.624 59.0578C41.7195 59.3794 41.8352 59.6934 41.9055 60.0199C42.7676 63.9185 42.4962 67.4302 38.6909 69.8291C37.6177 70.5049 37.5046 71.683 37.5574 72.8435C37.5951 73.6976 37.9067 74.4336 38.7663 74.7174C39.6259 75.0013 40.3975 74.9184 41.0736 74.215C41.9909 73.2367 42.6695 72.0598 43.0566 70.7762C43.21 70.2989 43.308 69.8091 43.4865 69.3394C43.4982 69.2774 43.5221 69.2184 43.5568 69.1658C43.5916 69.1132 43.6365 69.0681 43.6889 69.033C43.7413 68.9979 43.8002 68.9736 43.8621 68.9615C43.924 68.9494 43.9877 68.9498 44.0495 68.9626C44.3008 69.0204 44.3309 69.2339 44.3762 69.4449C44.6124 70.5853 44.6099 71.7232 43.969 72.7104C43.7489 73.034 43.6012 73.4012 43.5361 73.7871C43.4711 74.1729 43.4901 74.5683 43.592 74.9461C43.9514 76.4532 44.2028 77.9604 44.7507 79.4199L45.2534 81.2109C46.2361 84.4765 46.7614 87.84 47.5783 91.1407C47.626 91.6004 47.6763 92.0602 47.724 92.5174L47.807 92.8891C48.5409 96.9083 49.0058 100.968 48.8726 105.075C48.8739 105.532 48.933 105.988 49.0486 106.431C49.4482 108.189 50.6195 108.659 52.1928 107.732C52.7232 107.481 52.884 107.001 52.9267 106.461L53.0826 105.901C53.1479 103.972 53.0826 102.028 53.6179 100.141C54.2111 99.9552 54.3719 100.392 54.6233 100.787C55.1008 101.638 55.606 102.472 56.1011 103.314L56.3701 103.711C56.4389 103.857 56.5491 103.98 56.6872 104.064C56.8252 104.149 56.985 104.191 57.1467 104.185C57.9485 104.336 58.3858 103.831 58.7779 103.269C59.3636 102.397 59.7332 101.399 59.8562 100.357C60.2131 97.6996 61.4521 95.4664 63.0381 93.3764C64.7975 91.0478 66.7001 88.8147 68.1629 86.265C69.2688 84.3333 70.3772 82.4066 70.9854 80.2363C71.835 81.4672 71.6414 82.9592 71.9908 84.3106L72.036 84.5795C72.2698 85.4587 72.5035 86.3379 73.1696 87.0136C74.0669 87.9179 75.0998 87.7672 75.7006 86.6619C75.8541 86.3243 75.9826 85.9758 76.0851 85.6194C76.8668 83.7756 76.7713 81.8389 76.6607 79.9022C76.7166 79.6134 76.6675 79.3141 76.5224 79.0582C75.9971 75.3455 76.1555 71.6755 77.8923 68.2944C79.9475 64.3264 82.4477 60.6048 85.3444 57.2014C85.7616 56.699 86.2266 56.6413 86.7921 56.699C89.3206 57.0005 89.8434 56.7794 89.9565 54.3554C90.1551 50.0574 92.1808 46.5532 94.3298 43.0515C96.1118 40.1501 98.4769 37.7136 100.669 35.1363H100.616L100.938 34.8475ZM38.5778 96.8655L38.8467 97.1167C39.47 97.6191 40.121 97.8955 40.875 97.3805H40.8524L41.2521 97.1116C42.182 96.3405 42.2348 95.2328 42.373 94.1627C42.7148 91.4949 42.5741 88.7041 44.3837 86.4132C44.6527 86.0691 44.5094 85.6948 44.4114 85.3331C43.8031 83.0807 43.1916 80.8283 42.5766 78.5759C42.5389 78.4327 42.4484 78.199 42.363 78.1915C42.0765 78.1614 42.1116 78.4604 42.0513 78.6286C41.3249 80.3569 40.6086 82.0901 39.8898 83.8209L39.837 84.3032C39.3545 84.862 39.0871 85.5746 39.083 86.3127C37.9788 88.3444 37.3878 90.6149 37.3613 92.9268C37.3437 94.1551 37.3764 95.4111 38.3315 96.3882C38.3126 96.49 38.3269 96.5951 38.3721 96.6882C38.4173 96.7814 38.4912 96.8576 38.5828 96.9057L38.5778 96.8655ZM70.4777 87.2372C70.4777 87.1116 70.4451 86.7875 70.4249 86.4609C69.9901 86.5036 70.0027 86.9332 69.8218 87.1819C68.3137 89.2743 67.1148 91.6105 65.28 93.4618C64.3451 94.4063 64.3627 95.3358 64.8 96.5214C66.0567 99.9377 67.8538 103.105 69.3467 106.414C69.6785 107.152 69.9449 107.891 69.7815 108.707C69.5981 109.621 70.0681 109.802 70.8422 109.729C71.5722 109.69 72.2814 109.472 72.907 109.094C73.5325 108.716 74.0552 108.19 74.4288 107.561C75.414 106.022 74.6449 104.816 73.9261 103.648C70.7995 98.6515 69.8217 93.2107 70.4677 87.2372H70.4777ZM55.9252 111.146C55.7794 109.978 55.611 108.571 55.4225 107.167C55.3773 106.833 55.5859 106.414 55.1335 106.185C54.9844 106.476 54.8567 106.777 54.7515 107.087C54.2689 108.845 52.8036 109.42 51.2905 109.785C49.8981 110.119 48.6389 109.709 47.7718 108.453C47.5657 108.149 47.3621 107.951 46.9574 108.122C44.341 109.255 41.805 110.528 39.6686 112.46C38.799 113.249 38.9498 113.638 40.0733 113.967C41.7874 114.469 43.4688 114.052 45.1629 113.826C48.1613 113.422 51.0844 112.382 54.1935 112.927C55.7443 113.196 55.9202 112.947 55.9202 111.146H55.9252ZM77.7917 112.563C77.3695 111.53 76.9422 110.302 76.3666 109.154C76.0851 108.589 75.8639 109.154 75.693 109.385C74.9785 110.317 74.0224 111.035 72.9283 111.463C71.3977 112.086 69.8494 112.204 68.4997 110.96C67.9568 110.458 67.4943 110.784 67.0268 111.056C65.5666 111.9 64.6768 113.291 63.7368 114.613C63.2517 115.293 62.3997 116.153 62.9376 116.931C63.4026 117.607 64.4909 117.23 65.2951 117.062C68.4873 116.396 71.5771 115.311 74.4841 113.834C75.2607 113.44 75.9921 112.992 76.9598 113.47C77.5655 113.791 77.7163 113.269 77.7867 112.553L77.7917 112.563ZM80.3227 76.2673C83.5901 76.3502 85.269 73.6423 83.7208 70.7661C83.1578 69.7236 82.346 68.8972 81.5291 68.0582C80.8002 67.3047 80.3579 67.5332 79.9306 68.3445C79.0438 69.9997 78.439 71.791 78.1411 73.6448C77.8168 75.6569 78.2642 76.2145 80.3126 76.2673H80.3227Z" fill="#1D2831"/>
<path d="M112.494 42.8882C112.549 43.1193 112.346 43.1646 112.22 43.2676L112.494 42.8882Z" fill="#2A2C54"/>
<path d="M38.3994 40.1175C38.2327 38.425 37.8318 36.7639 37.208 35.1815C36.6199 33.7598 36.4741 32.2274 37.2859 30.773C37.3337 32.5112 37.3337 32.5112 39.1584 32.2801C40.6664 33.7572 42.3479 33.6994 44.0847 32.7373C44.7004 32.3956 45.2735 31.9712 45.8641 31.5819C46.3274 31.7853 46.8499 31.8085 47.3294 31.6471C50.632 30.8207 53.9899 30.5469 57.383 30.5344C61.3592 30.5218 65.3102 30.9488 69.2738 31.1447C72.5111 31.308 75.7709 31.6723 78.9177 32.6042C79.1112 35.179 80.6469 36.7791 82.831 37.8568C83.5851 38.226 83.8691 38.6103 83.6806 39.5021C83.3689 40.9791 83.5097 42.5014 83.57 44.001C83.6152 45.1741 84.6734 46.1362 85.6812 46.0658C86.6313 46.0005 87.3376 45.1063 87.3376 43.903C87.3215 43.3602 87.2703 42.819 87.1842 42.2828C87.0523 41.2478 87.0523 40.2004 87.1842 39.1655C87.2948 38.221 87.7271 37.6231 88.5917 37.294C90.0193 36.7464 91.1956 35.8095 92.3618 34.8449C92.8494 35.1639 93.3219 35.5081 93.8271 35.7944C95.2246 36.5857 95.4483 37.5026 94.7144 38.9872C93.709 41.0294 92.201 42.7349 90.9845 44.6214C89.3835 47.0756 87.3099 49.1581 85.6209 51.5444C82.9341 55.3325 80.8153 59.4722 78.2793 63.3507C75.0596 68.2792 73.5868 73.5267 75.1451 79.4274C75.6955 81.5022 76.3013 83.6425 75.5146 85.8254C75.4568 85.9234 75.4015 86.0238 75.3462 86.1243L75.4719 86.1746C75.4895 86.0591 75.5045 85.9435 75.5196 85.8304L76.1153 85.5994C76.0143 85.9551 75.8866 86.3027 75.7332 86.6392C75.1325 87.752 74.0995 87.8953 73.2023 86.991C72.5362 86.3203 72.3025 85.436 72.0687 84.5568C72.0687 84.5266 72.0964 84.4915 72.0888 84.4664C72.0719 84.4053 72.05 84.3456 72.0235 84.2881C71.6615 82.9366 71.8551 81.4444 71.0181 80.2136C70.1661 79.46 69.7614 80.2136 69.3869 80.7562C66.8459 84.4789 64.3602 88.2318 61.804 91.9571C60.477 93.9013 59.4213 95.9185 58.9689 98.2873C58.602 100.209 58.5542 102.462 56.1338 103.284C55.6311 102.442 55.1285 101.608 54.656 100.757C54.4297 100.357 54.2563 99.9251 53.6506 100.111C53.5852 99.7594 53.6506 99.1841 53.2133 99.2168C52.7759 99.2494 52.5623 99.8221 52.4593 100.257C51.9937 102.465 51.658 104.699 51.4539 106.946C51.3936 107.504 51.7831 107.644 52.2305 107.7C50.6571 108.627 49.4859 108.147 49.0863 106.398C48.9707 105.956 48.9116 105.5 48.9103 105.042C49.0436 100.935 48.5786 96.8831 47.8447 92.8564L47.7617 92.4846C47.714 92.0274 47.6637 91.5677 47.6159 91.108L47.8673 91.0629C50.4284 91.0956 52.1828 89.8345 52.967 87.4707C53.819 84.901 52.9669 82.6578 51.4765 80.6759C50.0388 78.7467 46.5955 78.2116 44.7683 79.3872C44.2204 77.9378 43.969 76.4105 43.6096 74.9134C43.5077 74.5356 43.4887 74.1402 43.5537 73.7543C43.6188 73.3685 43.7665 73.0012 43.9866 72.6777C44.6275 71.6729 44.6301 70.5425 44.3938 69.4121C44.3486 69.2011 44.3083 68.9876 44.067 68.9298C44.0053 68.917 43.9416 68.9167 43.8797 68.9288C43.8178 68.9409 43.7589 68.9653 43.7065 69.0003C43.6541 69.0354 43.6092 69.0806 43.5745 69.1332C43.5397 69.1858 43.5158 69.2447 43.504 69.3066C43.3382 69.7763 43.2276 70.2662 43.0743 70.7435C42.6872 72.0272 42.0085 73.2041 41.0912 74.1824C40.4151 74.8807 39.6133 74.9536 38.7839 74.6848C37.9545 74.416 37.6127 73.6649 37.575 72.8109C37.5222 71.6453 37.6353 70.4672 38.7085 69.7965C42.5138 67.3976 42.7852 63.8859 41.9231 59.9873C41.8528 59.6607 41.7371 59.3467 41.6416 59.0252C41.1942 57.518 41.1942 57.5179 40.0456 58.5051C39.0026 59.3918 37.8439 59.0503 37.3211 57.6134C36.7983 56.1766 36.9994 54.6342 37.1803 53.1446C37.3437 51.8208 37.6127 50.5121 37.8364 49.1983L38.0324 48.4221C38.0575 48.1056 38.0852 47.7865 38.1103 47.4675C38.1656 47.1987 38.2234 46.93 38.2787 46.6612L38.3466 45.6941C38.5325 45.2034 38.6005 44.676 38.5451 44.1542V41.1801C38.6285 40.82 38.5767 40.4419 38.3994 40.1175ZM53.4118 36.0984L53.4521 36.136L53.4144 36.0958L53.163 35.5934C53.7461 35.6537 54.2538 35.5934 54.4021 34.8825C54.5378 34.2319 54.1784 33.8778 53.6481 33.609C53.1029 33.3109 52.5057 33.12 51.8887 33.0464C49.0159 32.7324 46.0074 34.4179 44.7406 37.0655C44.6527 37.2439 44.4591 37.4322 44.6753 37.608C44.8914 37.7839 45.0623 37.5855 45.2358 37.49C46.1079 37.0077 46.975 36.5204 47.8422 36.0356C48.0709 36.6108 48.5057 36.5631 48.9858 36.4275C49.9911 36.1361 51.0141 35.9577 52.0672 36.2868C52.5171 36.44 52.9795 36.2817 53.4068 36.0958L53.4118 36.0984ZM67.4868 35.2844C67.4692 35.5356 67.1777 35.8772 67.7055 35.9451C69.6433 36.1963 71.5761 36.4978 73.539 36.3345C73.8839 36.7481 74.2497 37.1438 74.6349 37.5201C74.9063 37.7713 75.3512 38.0953 75.6402 37.9019C76.0298 37.6381 75.7533 37.1483 75.6151 36.7715C74.5469 33.8074 70.3672 31.9435 67.4944 33.1644C67.2275 33.2935 66.9748 33.4501 66.7403 33.6316C66.491 33.7948 66.3079 34.0414 66.2236 34.3271C66.1394 34.6129 66.1595 34.9192 66.2804 35.1915C66.5367 35.8396 67.0746 35.184 67.4818 35.282L67.4868 35.2844ZM44.6577 55.6666C44.341 55.7294 43.881 55.6868 43.8433 56.0837C43.8031 56.5182 44.2857 56.586 44.5773 56.5509C45.1176 56.5031 45.5173 56.7719 45.9772 56.9502C47.6094 57.5345 49.392 57.546 51.0317 56.9828C52.037 56.6613 53.0424 55.7871 54.01 55.0938C54.3116 54.8753 54.3267 54.6292 54.0402 54.3805C56.3726 52.5216 57.6595 50.0926 57.9937 47.141C58.1324 46.8686 58.2046 46.5674 58.2046 46.2618C58.2046 45.9562 58.1324 45.655 57.9937 45.3826C57.4911 39.4971 51.7103 37.6206 47.6285 38.2285C43.7277 38.8088 40.576 42.0568 39.9652 46.1739C39.4223 49.8489 40.2995 53.4033 44.6502 55.6641L44.6577 55.6666ZM59.1423 50.2307C59.645 53.3179 61.319 55.4882 64.2295 56.694C66.014 57.435 67.8764 57.5405 69.7589 57.4627C73.911 57.2944 77.4499 54.5487 78.7594 50.4567C79.9809 46.6461 78.7594 43.3027 75.3361 40.5445C70.9251 36.9976 61.4195 37.5302 59.351 45.1892C58.9239 46.7217 58.8136 48.3251 59.0267 49.9016L59.1423 50.2307ZM53.7059 76.1769C54.1005 77.561 54.5931 78.9276 54.8671 80.3343C55.405 83.0974 56.8275 84.8257 59.7204 85.416C61.8895 85.8581 62.1509 85.9058 63.1261 83.8736C63.3221 83.4616 63.3045 82.9969 63.3774 82.5498C63.5986 81.0426 63.023 79.6032 63.209 78.1086C63.4327 76.3175 62.8974 74.5441 62.9728 72.7481C63.0432 71.1379 64.0937 69.2513 65.1343 69.1232C66.778 68.9198 67.6879 67.7417 68.6731 66.6515C69.0024 66.2873 68.7812 66.0512 68.3841 65.9331C69.8921 64.3933 70.2742 62.2103 69.3141 60.4545C68.6581 59.2613 67.806 58.9925 66.6498 59.7009C65.833 60.2033 65.0815 60.8111 64.2722 61.3261C59.9843 64.0666 54.3418 64.0616 50.9663 59.7436C50.8145 59.5449 50.6351 59.3689 50.4335 59.2211C49.6392 58.6458 48.8098 58.9498 48.6741 59.9044C48.621 60.3601 48.6474 60.8215 48.752 61.2683C49.3075 63.9737 50.8004 66.0662 53.0248 67.6513C53.354 67.8849 53.6431 67.9025 53.1856 68.4048C51.2553 70.4797 51.5444 74.1975 53.6984 76.1744L53.7059 76.1769ZM56.2721 90.7866C56.5058 92.1656 56.6767 93.5497 57.2271 94.871C57.3453 95.1548 57.4609 95.2528 57.76 95.2226C58.4813 95.1523 59.9818 93.8386 59.8788 93.1528C59.738 92.2234 59.9215 91.3366 59.9341 90.4323C59.9491 89.4878 58.4537 88.0887 57.858 88.468C57.0361 88.983 56.0961 89.5255 56.2645 90.784L56.2721 90.7866ZM74.9566 60.7157C74.1699 60.8212 73.3908 61.0649 73.3204 62.0496C73.2726 62.6801 73.255 63.2453 72.7951 63.7577C72.4508 64.142 72.6091 64.6872 72.8554 65.0489C73.1419 65.4734 73.5516 65.0489 73.8432 64.9283C74.5215 64.631 75.166 64.2621 75.7659 63.828C76.1152 63.5924 76.3845 63.2563 76.538 62.8642C76.6915 62.472 76.7221 62.0425 76.6255 61.6326C76.447 60.9116 75.698 60.7483 74.9491 60.7132L74.9566 60.7157ZM70.2566 72.9817C70.2314 72.1578 69.6936 71.6076 68.7837 71.5875C67.8739 71.5674 67.7557 72.2683 67.7507 72.9993C67.7507 73.9337 68.2534 74.406 69.1331 74.4537C70.0128 74.5014 70.2465 73.8684 70.2465 72.9791L70.2566 72.9817ZM67.4918 80.2514C67.4567 79.749 67.3762 79.1787 66.6122 79.2466C65.5188 79.3295 65.3177 80.1684 65.2449 81.035C65.2122 81.4294 65.1795 81.9393 65.7224 82.0398C66.1899 82.1252 67.4667 80.8416 67.4818 80.2488L67.4918 80.2514ZM61.2511 34.968C61.6859 34.8876 62.1182 34.7168 62.1182 34.2345C62.1236 34.1089 62.1038 33.9835 62.0599 33.8657C62.0161 33.7479 61.9491 33.64 61.8629 33.5485C61.7767 33.457 61.673 33.3836 61.558 33.3328C61.443 33.2819 61.319 33.2545 61.1933 33.2523C60.6906 33.2347 60.4996 33.6692 60.5071 34.1189C60.4966 34.3277 60.5673 34.5327 60.7047 34.6906C60.842 34.8484 61.0351 34.9469 61.2436 34.9654L61.2511 34.968Z" fill="#E98D2C"/>
<path d="M34.0786 19.2782L34.2847 19.0094C35.3077 18.8059 35.9335 18.1554 36.2954 17.2209L36.2778 17.2435C37.2832 17.1129 38.2332 16.9119 38.8138 15.9624V15.9875C39.3517 15.9197 40.053 16.2613 40.2817 15.4072L40.3194 15.4801C40.8205 15.5246 41.3252 15.4612 41.7997 15.2942C45.9242 13.9503 50.2246 13.6991 54.4924 13.2243C56.1135 13.0435 57.7422 13.0661 59.3608 12.9154C63.7416 12.5059 68.1124 12.7646 72.4782 13.1213C75.4943 13.3725 78.5103 13.9151 81.5565 13.9855C82.8935 14.3986 84.2685 14.6771 85.6609 14.8169C86.621 14.9375 87.556 15.4725 88.5614 15.0681C92.5451 15.9247 96.4685 16.9646 100.043 19.0094C100.437 19.2329 100.797 19.5118 101.171 19.7756C100.384 19.7957 99.6152 19.8032 98.8663 20.1599C95.5989 21.7047 93.6862 24.3071 92.7864 27.7334C92.3038 27.9118 91.8916 27.6682 91.4643 27.51C88.9281 26.5394 86.3375 25.7173 83.7055 25.0482C78.6393 23.7872 73.4658 23.0042 68.2532 22.7095C59.3256 22.2272 50.4785 22.5639 41.7093 24.4378C39.1356 24.9879 36.6574 25.9248 34.0434 26.2991L33.488 25.8219H33.5382C33.5565 25.6827 33.5434 25.5413 33.4999 25.4079C33.4564 25.2745 33.3836 25.1524 33.2869 25.0507V25.0658C32.8747 23.4355 33.3925 21.853 33.5382 20.2528H33.5232C34.0334 20.1122 34.3325 19.861 34.0786 19.2782ZM59.7152 17.771C59.7705 18.3714 59.7152 19.1827 60.5924 19.1074C60.7828 19.0985 60.9694 19.0515 61.1413 18.969C61.3131 18.8866 61.4666 18.7704 61.5925 18.6274C61.7185 18.4844 61.8143 18.3176 61.8744 18.1368C61.9344 17.956 61.9574 17.7649 61.942 17.575C61.942 16.9244 61.6203 16.4121 60.9141 16.3945C60.0218 16.3769 59.6222 16.8843 59.7052 17.7735L59.7152 17.771ZM75.8788 18.4041C76.472 18.2257 77.1858 18.1152 77.1682 17.3113C77.1682 16.8089 76.8238 16.2714 76.2407 16.3542C75.5998 16.4447 74.8936 16.706 74.8684 17.5299C74.8408 18.1378 75.3108 18.3538 75.8687 18.4065L75.8788 18.4041ZM43.3731 19.7279C43.4033 20.2127 43.4661 20.8783 44.1271 20.8984C44.9063 20.921 44.8988 20.1222 44.9792 19.5947C45.0041 19.4696 45.0002 19.3406 44.9678 19.2173C44.9355 19.0939 44.8755 18.9797 44.7925 18.8829C44.7095 18.7861 44.6056 18.7094 44.4886 18.6587C44.3716 18.6079 44.2445 18.5844 44.1171 18.5899C43.431 18.5748 43.3731 19.1325 43.353 19.7303L43.3731 19.7279Z" fill="#CD742D"/>
<path d="M34.0538 26.2916C36.6678 25.9173 39.146 24.9803 41.7197 24.4302C50.4889 22.5562 59.336 22.2197 68.2636 22.702C73.4762 22.9967 78.6497 23.7797 83.7159 25.0406C86.3478 25.7098 88.9385 26.5317 91.4747 27.5023C91.902 27.6606 92.3142 27.9043 92.7968 27.7259C92.2011 29.4215 93.0481 30.7654 93.8675 32.1168C93.1488 32.0057 92.4627 31.74 91.8568 31.3381C91.8316 30.9739 91.53 31.1472 91.3541 31.0869L91.3767 31.0995C90.6051 30.3309 89.5997 30.2052 88.5944 30.0821H88.6145C86.267 29.0145 83.7712 28.4142 81.2804 27.8213C80.7375 27.6907 80.1695 27.3919 79.5989 27.7661L79.0636 27.6782C78.3548 27.1055 77.5078 27.0779 76.6558 27.0653H76.6834C74.9241 26.4072 73.0541 26.289 71.2143 26.0805C70.0833 25.9499 68.9522 25.5179 67.7936 26.0027L62.6864 25.7188C62.3596 25.1636 61.8042 25.3245 61.3291 25.3295C56.5763 25.3772 51.831 25.6008 47.131 26.3644C46.3217 26.4951 45.447 26.5 44.7684 27.0903V27.0603C44.4869 27.1733 44.0496 26.8467 43.9139 27.3667C41.9509 28.0097 39.9729 28.6227 37.9144 28.8563C36.6577 29.0045 35.4236 28.8563 34.5766 27.6983L34.3052 27.3014L34.3203 27.324L34.0538 26.7964L34.0689 26.8242C34.0538 26.6433 34.0538 26.4674 34.0538 26.2916Z" fill="#995825"/>
<path d="M75.5249 85.8203C76.3116 83.6374 75.7059 81.4972 75.1554 79.4223C73.5971 73.5317 75.07 68.2842 78.2896 63.3457C80.8256 59.4647 82.9444 55.3249 85.6312 51.5394C87.3202 49.153 89.4013 47.0706 90.9948 44.6164C92.2239 42.7299 93.7168 41.0243 94.7247 38.9821C95.4586 37.4975 95.2273 36.5807 93.8374 35.7894C93.3348 35.503 92.8597 35.1588 92.3721 34.8398L93.1262 33.9104C94.5915 34.2998 95.8909 35.1438 97.414 35.4025C98.5601 35.8396 99.6434 35.5156 100.722 35.1187C98.5299 37.696 96.1648 40.1426 94.3828 43.0339C92.2339 46.528 90.2081 50.0322 90.0095 54.3378C89.8964 56.7618 89.3737 56.9829 86.8452 56.6814C86.2797 56.6136 85.8147 56.6814 85.3975 57.1838C82.5007 60.5872 80.0006 64.3088 77.9453 68.2768C76.2085 71.6579 76.0502 75.3278 76.5755 79.0405C76.6207 79.3218 76.6685 79.6032 76.7137 79.8846C76.8243 81.8213 76.9198 83.758 76.1381 85.6043L75.54 85.8354L75.5249 85.8203Z" fill="#D98014"/>
<path d="M84.4297 68.239C84.2143 68.0434 84.0103 67.8354 83.819 67.6161C83.1881 66.7997 81.7907 66.2822 81.8083 65.403C81.8259 64.5238 82.889 63.6974 83.4746 62.8308C84.6459 61.0925 84.6358 61.095 86.2394 62.4238C87.8429 63.7527 89.0845 65.3503 90.3186 66.9931C94.7045 72.836 90.7685 79.1084 86.4832 81.2636C85.5629 81.7611 84.5625 82.0936 83.5274 82.2459C82.8212 81.9268 82.0546 82.0499 81.3207 81.9369C79.3628 81.6405 79.3829 81.334 79.2446 79.4777C79.1466 78.1739 79.7975 78.6009 80.3254 78.5909C81.2425 78.6037 82.1582 78.5128 83.0549 78.3197C83.5249 78.2041 83.824 78.0232 83.7838 77.4957V77.5132L84.0527 77.262L84.0376 77.2771C84.1235 77.2323 84.1945 77.1636 84.2422 77.0794C84.2899 76.9952 84.3123 76.8991 84.3066 76.8024C84.7204 76.3704 85.1343 75.9366 85.5482 75.5012C85.9151 75.6017 85.7995 75.3278 85.7995 75.162C85.7909 75.1371 85.7899 75.1103 85.7966 75.0848C85.8033 75.0593 85.8175 75.0364 85.8372 75.0189C86.6038 74.7099 86.7948 74.2201 86.3123 73.5117C86.3123 73.3409 86.3299 73.1701 86.3374 73.0093C86.7345 72.4165 86.7647 71.8363 86.2846 71.2711C86.2884 71.1556 86.2543 71.0421 86.1876 70.9477C86.121 70.8534 86.0253 70.7835 85.9151 70.7486L85.7493 70.309C86.0006 69.9975 85.8422 69.8493 85.5356 69.7538C85.5485 69.6546 85.5315 69.5537 85.4868 69.4642C85.442 69.3747 85.3715 69.3006 85.2843 69.2514V69.2639L85.0329 68.9926L85.0505 69.0077C84.9601 68.9198 84.8696 68.8319 84.7816 68.7414V68.7615C84.77 68.6524 84.7319 68.5477 84.6706 68.4566C84.6092 68.3656 84.5266 68.2909 84.4297 68.239Z" fill="#B35737"/>
<path d="M70.4676 87.2372C69.8217 93.2207 70.7994 98.6515 73.9084 103.653C74.6348 104.821 75.4165 106.027 74.4111 107.567C74.0375 108.195 73.5148 108.721 72.8893 109.099C72.2637 109.477 71.5546 109.695 70.8245 109.734C70.0504 109.807 69.5804 109.626 69.7639 108.712C69.9272 107.896 69.6608 107.157 69.329 106.419C67.8361 103.11 66.0466 99.9428 64.7823 96.5265C64.345 95.3408 64.3274 94.4113 65.2624 93.4668C67.0972 91.6105 68.2784 89.2744 69.8041 87.1869C69.985 86.9357 69.9725 86.5086 70.4073 86.4659C70.4349 86.7875 70.4576 87.1116 70.4676 87.2372Z" fill="#B35737"/>
<path d="M93.1185 33.928L92.3645 34.8575C91.2083 35.8221 90.032 36.759 88.5944 37.3066C87.7298 37.6357 87.2975 38.2335 87.1869 39.178C87.0549 40.2129 87.0549 41.2604 87.1869 42.2954C87.2729 42.8316 87.3241 43.3727 87.3402 43.9155C87.3402 45.1188 86.6339 46.0131 85.6839 46.0784C84.6785 46.1488 83.6179 45.1866 83.5726 44.0135C83.5123 42.5063 83.3715 40.9992 83.6832 39.5147C83.8717 38.6279 83.5801 38.2385 82.8337 37.8693C80.6495 36.7916 79.1139 35.1915 78.9229 32.6167C79.0008 31.5943 79.0686 30.5695 79.5286 29.625C84.2261 30.5419 88.7125 32.0993 93.1185 33.928Z" fill="#C54814"/>
<path d="M100.711 35.1262C99.633 35.5231 98.5498 35.8471 97.4037 35.4101C97.7455 34.6565 97.4916 34.0561 96.901 33.5587C96.8834 33.3115 96.8379 33.0672 96.7653 32.8303C95.5639 30.0294 95.9962 27.4145 97.5871 24.8899C98.786 22.9859 100.623 21.8756 102.466 20.7377C105.542 21.946 106.894 25.9349 105.268 29.1829C104.399 30.899 103.268 32.4695 101.915 33.8376C101.694 33.7974 101.704 33.9607 101.686 34.0888C101.554 34.1023 101.431 34.1621 101.339 34.2578C101.247 34.3535 101.192 34.4788 101.184 34.6113V34.5735L100.91 34.8474L100.94 34.8273L100.661 35.1087L100.711 35.1262Z" fill="#CD742D"/>
<path d="M79.546 29.615C79.086 30.5595 79.0182 31.5844 78.9403 32.6068C75.791 31.6749 72.5311 31.3106 69.2939 31.1473C65.3303 30.9514 61.3792 30.5243 57.403 30.5369C53.9974 30.5494 50.6395 30.8233 47.3495 31.6497C46.87 31.8112 46.3474 31.7878 45.8842 31.5844C46.5351 30.7529 46.9725 29.8812 46.4044 28.8212C47.3577 28.4867 48.3577 28.3044 49.3677 28.2811L50.1645 28.1129C54.9185 27.556 59.712 27.4131 64.4908 27.6858L65.4961 27.7687C70.2192 28.0308 74.9157 28.648 79.546 29.615Z" fill="#D98014"/>
<path d="M39.8722 83.8284C40.591 82.0976 41.3073 80.3644 42.0337 78.6362C42.104 78.4679 42.0588 78.169 42.3453 78.1991C42.4308 78.1991 42.5212 78.4503 42.5589 78.5834C43.1772 80.8341 43.7888 83.0865 44.3937 85.3406C44.4918 85.7023 44.6451 86.0767 44.3661 86.4208C42.564 88.7117 42.7047 91.5024 42.3554 94.1702C42.2171 95.2403 42.1643 96.348 41.2344 97.1217L40.8348 97.388H40.8574L38.8291 97.1243L38.5602 96.8731V96.9007C38.5763 96.7991 38.5609 96.6951 38.5159 96.6025C38.471 96.51 38.3987 96.4334 38.3088 96.3832C37.6349 94.112 37.6279 91.6952 38.2887 89.4201C38.5803 88.3952 39.1961 87.4406 39.0603 86.3077C39.3646 86.0795 39.5972 85.769 39.7308 85.413C39.8644 85.0569 39.8934 84.6701 39.8143 84.2982C40.0406 84.1675 40.1034 84.0143 39.8722 83.8284Z" fill="#B35737"/>
<path d="M44.7833 79.3947C46.6106 78.2191 50.0615 78.7541 51.4916 80.6833C52.972 82.6653 53.8341 84.9086 52.982 87.4783C52.1979 89.8421 50.4435 91.103 47.8824 91.0704C47.8062 90.7074 47.7533 90.3399 47.724 89.9702C47.7014 88.5032 47.3118 87.0261 47.0479 85.6596C46.7672 84.1747 46.3037 82.7302 45.668 81.359C45.5851 81.1882 45.5047 81.0601 45.2961 81.1857L44.7833 79.3947Z" fill="#C54814"/>
<path d="M55.9203 111.146C55.9353 112.947 55.7494 113.196 54.2036 112.925C51.0946 112.379 48.1715 113.427 45.173 113.824C43.479 114.05 41.7975 114.459 40.0834 113.965C38.9599 113.638 38.8091 113.249 39.6787 112.457C41.8076 110.526 44.3436 109.252 46.9676 108.119C47.3722 107.943 47.5758 108.147 47.7819 108.451C48.639 109.707 49.8982 110.116 51.3006 109.782C52.8087 109.418 54.279 108.848 54.7616 107.084C54.8669 106.775 54.9946 106.473 55.1436 106.182C55.596 106.404 55.395 106.83 55.4327 107.165C55.6011 108.571 55.7694 109.978 55.9203 111.146Z" fill="#61452D"/>
<path d="M77.7867 112.553C77.7214 113.259 77.5706 113.781 76.9472 113.467C75.9922 112.99 75.2482 113.437 74.4716 113.831C71.5646 115.308 68.4747 116.394 65.2826 117.059C64.4783 117.228 63.39 117.604 62.925 116.929C62.3872 116.15 63.2392 115.291 63.7243 114.61C64.6643 113.289 65.554 111.897 67.0143 111.053C67.4818 110.782 67.9443 110.46 68.4872 110.958C69.8369 112.194 71.3851 112.076 72.9158 111.46C74.0098 111.033 74.966 110.314 75.6805 109.383C75.8514 109.152 76.0726 108.586 76.3541 109.152C76.9322 110.305 77.3594 111.53 77.7867 112.553Z" fill="#61452D"/>
<path d="M56.1315 103.279C58.5519 102.457 58.5996 100.204 58.9666 98.2823C59.419 95.9135 60.4746 93.8965 61.8017 91.9522C64.3452 88.2269 66.8435 84.474 69.3846 80.7512C69.7565 80.2061 70.1637 79.4501 71.0158 80.2087C70.4075 82.3715 69.2991 84.2982 68.1932 86.2375C66.7304 88.7871 64.8378 91.0101 63.0684 93.3487C61.4825 95.4387 60.2434 97.6719 59.8865 100.33C59.7636 101.372 59.3939 102.37 58.8082 103.241C58.4161 103.804 57.9788 104.309 57.177 104.158C57.103 104.016 56.9916 103.896 56.8547 103.813C56.7179 103.729 56.5608 103.684 56.4004 103.683L56.1315 103.279Z" fill="#D98014"/>
<path d="M102.456 20.7377C100.613 21.8656 98.7759 22.9858 97.577 24.8899C95.9861 27.4019 95.5663 30.0294 96.7552 32.8302C96.8278 33.0671 96.8733 33.3115 96.8909 33.5587C96.5348 33.5272 96.2012 33.3716 95.9484 33.1191L95.3577 32.8378L95.3778 32.8503L95.1265 32.5866C95.0271 32.4918 94.908 32.4201 94.7776 32.3767C94.6473 32.3332 94.5089 32.3192 94.3725 32.3354H94.3901L93.8874 32.0842V32.1143C93.0731 30.7628 92.221 29.4189 92.8167 27.7234C93.7165 24.297 95.6367 21.6947 98.8966 20.1498C99.6506 19.7931 100.405 19.7856 101.201 19.7655L101.174 19.7504L101.448 20.0217L101.43 20.0016C101.475 20.0969 101.551 20.1739 101.645 20.2197C101.74 20.2655 101.848 20.2772 101.95 20.2528C101.993 20.5543 102.202 20.6799 102.468 20.7552L102.456 20.7377Z" fill="#82502E"/>
<path d="M46.3845 28.8212C46.9525 29.8812 46.5152 30.7529 45.8642 31.5843C45.2735 31.9737 44.7005 32.3982 44.0847 32.7399C42.348 33.702 40.6766 33.7598 39.1585 32.2827C39.0001 31.5744 38.9649 30.8886 39.5355 30.3209C41.8026 29.7431 44.0596 29.1301 46.3845 28.8212Z" fill="#C54814"/>
<path d="M81.5567 13.9855C78.508 13.9151 75.507 13.3675 72.4784 13.1213C68.1126 12.7646 63.7418 12.5059 59.361 12.9154C57.7424 13.0661 56.1137 13.0435 54.4926 13.2243C50.2198 13.6991 45.9244 13.9503 41.7999 15.2942C41.3254 15.4612 40.8207 15.5246 40.3196 15.4801C42.2851 14.4477 44.4717 14.209 46.6031 13.7895C48.3448 13.4429 50.1218 13.2997 51.8812 13.0686L52.1627 13.051C59.9216 12.2145 67.7481 12.2145 75.507 13.051C75.7474 13.2057 76.0386 13.2607 76.3189 13.2042L77.764 13.3097C77.8797 13.3944 78.0129 13.4522 78.1538 13.4787C78.2947 13.5052 78.4398 13.4998 78.5784 13.463L80.0186 13.6062L80.3579 13.689L81.5266 13.8046C81.5466 13.8639 81.5592 13.9256 81.5643 13.988L81.5567 13.9855Z" fill="#E98D2C"/>
<path d="M52.2356 107.697C51.7882 107.639 51.3986 107.499 51.4589 106.943C51.6631 104.696 51.9988 102.462 52.4643 100.254C52.5648 99.8195 52.7584 99.2493 53.2183 99.2141C53.6783 99.179 53.5903 99.7567 53.6556 100.108C53.1203 101.995 53.1856 103.939 53.1203 105.868C53.07 106.057 53.0172 106.243 52.9645 106.429C52.9268 106.966 52.7659 107.438 52.2356 107.697Z" fill="#D98014"/>
<path d="M44.7533 27.0904C45.4319 26.5001 46.3066 26.4951 47.1159 26.3645C51.8159 25.6109 56.5612 25.3773 61.314 25.3295C61.7891 25.3295 62.3445 25.1637 62.6713 25.7188L61.4673 25.6862H61.1858H59.4566L59.0972 25.6586C54.2836 25.7217 49.4844 26.2007 44.7533 27.0904Z" fill="#CD742D"/>
<path d="M45.2959 81.1757C45.5045 81.0501 45.5849 81.1757 45.6679 81.349C46.3035 82.7201 46.767 84.1646 47.0477 85.6495C47.2991 87.016 47.7012 88.4931 47.7238 89.9601C47.7532 90.3298 47.8061 90.6973 47.8822 91.0603L47.6308 91.1056C46.809 87.8048 46.2786 84.4387 45.2959 81.1757Z" fill="#D05E2B"/>
<path d="M39.5354 30.3209C38.9649 30.8886 39 31.5769 39.1584 32.2827C37.3337 32.5113 37.3336 32.5113 37.2859 30.7756C37.9969 30.4725 38.7624 30.3177 39.5354 30.3209Z" fill="#D98014"/>
<path d="M79.5837 27.7612C80.1543 27.3869 80.7223 27.6857 81.2652 27.8164C83.756 28.4142 86.2518 29.0146 88.5993 30.0771C87.0183 29.9063 85.5832 29.203 84.0576 28.8212C82.5319 28.4393 81.0742 28.1179 79.5837 27.7612Z" fill="#CD742D"/>
<path d="M67.7783 26.0028C68.9269 25.518 70.068 25.9499 71.199 26.0805C73.0388 26.289 74.9038 26.4072 76.6682 27.0653L69.5653 26.2288L69.2336 26.161L68.746 26.1007L67.992 26.0455L67.7783 26.0028Z" fill="#CD742D"/>
<path d="M88.5693 15.0606C87.5639 15.4725 86.6289 14.9375 85.6688 14.8094C84.2764 14.6695 82.9014 14.391 81.5645 13.9779L81.8862 13.8549L88.5693 15.0606Z" fill="#E98D2C"/>
<path d="M33.5509 20.2478C33.4001 21.848 32.8824 23.4305 33.2996 25.0608C32.3319 23.4004 32.6662 21.8103 33.5509 20.2478Z" fill="#E98D2C"/>
<path d="M36.3159 17.2209C35.9414 18.1554 35.3105 18.8059 34.3052 19.0094C34.8283 18.2661 35.5165 17.654 36.3159 17.2209Z" fill="#E98D2C"/>
<path d="M38.829 15.9623C38.2484 16.9119 37.2883 17.1128 36.293 17.2435C37.0696 16.6707 37.8563 16.1457 38.829 15.9623Z" fill="#E98D2C"/>
<path d="M88.5792 30.0746C89.5846 30.1977 90.59 30.3258 91.3616 31.0919C90.3914 30.8659 89.4112 30.675 88.5792 30.0746Z" fill="#CD742D"/>
<path d="M76.6405 27.0603C77.4925 27.0729 78.3396 27.1005 79.0483 27.6732C78.2541 27.4321 77.3845 27.4924 76.6405 27.0603Z" fill="#CD742D"/>
<path d="M40.2894 15.4073C40.0607 16.2613 39.3594 15.9097 38.8215 15.9875C39.2312 15.5906 39.7641 15.5077 40.2894 15.4073Z" fill="#E98D2C"/>
<path d="M34.0789 19.2782C34.3302 19.8484 34.0337 20.1121 33.531 20.2578L34.0789 19.2782Z" fill="#E98D2C"/>
<path d="M34.0537 26.2916C34.0537 26.4674 34.0537 26.6458 34.0537 26.8242C33.7671 26.5428 33.4982 26.2514 33.4882 25.8194L34.0537 26.2916Z" fill="#E98D2C"/>
<path d="M38.56 44.1317C38.6154 44.6535 38.5474 45.1809 38.3615 45.6715C38.2945 45.1497 38.3629 44.6195 38.56 44.1317Z" fill="#61452D"/>
<path d="M43.9061 27.3667C44.0419 26.8467 44.4792 27.1733 44.7607 27.0603C44.532 27.319 44.1952 27.2738 43.9061 27.3667Z" fill="#CD742D"/>
<path d="M56.4001 103.675C56.5606 103.677 56.7176 103.721 56.8545 103.805C56.9913 103.889 57.1027 104.008 57.1768 104.15C57.015 104.156 56.8553 104.114 56.7172 104.029C56.5792 103.945 56.4689 103.822 56.4001 103.675Z" fill="#E98D2C"/>
<path d="M38.3993 40.1176C38.5779 40.433 38.6368 40.8021 38.5652 41.1575L38.3993 40.1176Z" fill="#D18732"/>
<path d="M65.4712 27.7687L64.4658 27.6858C64.6291 27.6242 64.804 27.5997 64.9779 27.6141C65.1517 27.6284 65.3202 27.6813 65.4712 27.7687Z" fill="#61452D"/>
<path d="M76.7034 79.8746C76.6582 79.5932 76.6104 79.3118 76.5652 79.0305C76.7103 79.2864 76.7593 79.5858 76.7034 79.8746Z" fill="#61452D"/>
<path d="M76.3263 13.1917C76.0461 13.2481 75.7549 13.1932 75.5145 13.0385C75.6533 13.0093 75.7964 13.0078 75.9357 13.0341C76.0751 13.0604 76.2078 13.1139 76.3263 13.1917Z" fill="#A66538"/>
<path d="M78.5857 13.4504C78.4472 13.4872 78.3021 13.4926 78.1612 13.4661C78.0202 13.4396 77.887 13.3819 77.7714 13.2972L78.5857 13.4504Z" fill="#A66538"/>
<path d="M102.435 20.7678C102.184 20.6824 101.96 20.5568 101.917 20.2654C102.199 20.3156 102.498 20.3633 102.435 20.7678Z" fill="#CD742D"/>
<path d="M33.2821 25.0457C33.3788 25.1474 33.4516 25.2694 33.4951 25.4029C33.5385 25.5363 33.5517 25.6777 33.5334 25.8168C33.4067 25.7391 33.3118 25.6187 33.2658 25.4774C33.2197 25.3361 33.2255 25.1831 33.2821 25.0457Z" fill="#E98D2C"/>
<path d="M67.9845 26.0454L68.7385 26.1006C68.6231 26.1721 68.488 26.2054 68.3525 26.1954C68.2171 26.1855 68.0883 26.133 67.9845 26.0454Z" fill="#61452D"/>
<path d="M91.3389 31.0795C91.5148 31.1473 91.8164 30.974 91.8415 31.3307L91.3389 31.0795Z" fill="#CD742D"/>
<path d="M94.3574 32.3379C94.4939 32.3217 94.6322 32.3358 94.7625 32.3793C94.8929 32.4227 95.012 32.4943 95.1114 32.5891C94.9748 32.6154 94.8336 32.606 94.7015 32.562C94.5695 32.518 94.451 32.4409 94.3574 32.3379Z" fill="#995825"/>
<path d="M101.174 34.6238C101.182 34.4913 101.237 34.366 101.329 34.2703C101.421 34.1746 101.544 34.1147 101.676 34.1013L101.174 34.6238Z" fill="#D98014"/>
<path d="M38.2937 46.6386C38.2384 46.9074 38.1805 47.1762 38.1252 47.4449L38.2937 46.6386Z" fill="#61452D"/>
<path d="M38.0476 48.3995L37.8516 49.1758C37.8166 48.9016 37.8866 48.6242 38.0476 48.3995Z" fill="#61452D"/>
<path d="M101.677 34.1013C101.694 33.9606 101.676 33.7973 101.905 33.8501L101.677 34.1013Z" fill="#D98014"/>
<path d="M101.928 20.2629C101.825 20.2872 101.718 20.2755 101.623 20.2297C101.528 20.184 101.452 20.107 101.408 20.0117C101.634 19.9815 101.837 20.0092 101.928 20.2629Z" fill="#CD742D"/>
<path d="M93.8724 32.0867L94.3751 32.3379C94.169 32.3278 93.9654 32.3027 93.8724 32.0867Z" fill="#995825"/>
<path d="M81.8938 13.8523L81.5721 13.9754C81.5671 13.913 81.5544 13.8514 81.5344 13.792L81.8938 13.8523Z" fill="#A66538"/>
<path d="M72.0333 84.283C72.0599 84.3406 72.0818 84.4002 72.0987 84.4614C72.0987 84.4865 72.0987 84.5216 72.0786 84.5518L72.0333 84.283Z" fill="#61452D"/>
<path d="M78.4478 78.2768C78.4478 78.3673 78.4478 78.4603 78.4478 78.5507C78.4553 78.4603 78.4503 78.3673 78.4478 78.2768Z" fill="#61452D"/>
<path d="M53.6985 76.1745C51.5445 74.1975 51.2555 70.4798 53.1682 68.3874C53.6256 67.885 53.3366 67.8674 53.0073 67.6338C50.7779 66.0487 49.285 63.9562 48.7346 61.2508C48.6299 60.804 48.6036 60.3425 48.6566 59.8868C48.8024 58.9322 49.6318 58.6308 50.416 59.2036C50.6176 59.3515 50.797 59.5274 50.9488 59.7261C54.3243 64.0442 59.9669 64.0491 64.2547 61.3086C65.0641 60.7936 65.8155 60.1857 66.6324 59.6833C67.7785 58.9799 68.6431 59.2487 69.2966 60.4369C70.2567 62.1952 69.8872 64.3756 68.3666 65.9155C66.5243 67.2368 64.7649 68.7515 62.2591 68.5255L61.4523 68.7014C60.0272 68.8747 58.5896 68.5657 57.1795 68.837C56.5713 68.7591 55.8952 68.837 55.3724 68.5858C54.0554 67.9528 53.794 68.6888 53.6633 69.7212C53.6407 69.882 53.6256 70.0453 53.6055 70.2085C53.0702 72.4492 53.5351 74.3533 55.2568 75.2701C56.9181 76.1569 57.5842 77.4002 57.6269 79.1561C57.6137 79.5739 57.6585 79.9916 57.7601 80.3971C58.0341 81.2562 58.2251 82.2334 59.4391 82.271C60.4092 82.3414 60.9245 81.6455 61.495 81.0477C61.6166 80.9019 61.7848 80.8026 61.9712 80.7664C62.1575 80.7303 62.3507 80.7595 62.518 80.8492C62.8497 81.0276 62.6261 81.3516 62.5632 81.6354C62.244 83.012 60.8416 84.0268 59.1928 84.0645C57.8205 84.0972 56.8754 83.3109 56.428 81.849C56.0334 80.5704 55.9254 79.2466 55.7419 77.9329C55.4956 76.1544 55.5157 76.1519 53.6985 76.1745Z" fill="#1D2831"/>
<path d="M59.0317 49.8992C58.8186 48.3227 58.9289 46.7192 59.356 45.1867C61.4245 37.5176 70.9176 36.9952 75.3411 40.5421C78.7719 43.3053 79.9859 46.6437 78.7644 50.4544C77.4549 54.5464 73.916 57.292 69.7639 57.4603C67.8688 57.5382 66.0064 57.4326 64.2344 56.6916C61.3239 55.4859 59.6551 53.3155 59.1473 50.2283C59.0996 50.1178 59.0644 50.0047 59.0317 49.8992ZM74.0518 53.941L74.0317 53.9611C74.2101 53.9611 74.3333 53.9058 74.3106 53.6948L74.2956 53.7149C74.6097 53.6923 74.8183 53.5617 74.8208 53.2125C75.2883 53.1547 75.4467 52.808 75.5749 52.4237V52.4363C75.796 52.3359 75.9343 52.1851 75.8564 51.9213L75.8287 51.949C76.0625 51.9817 76.0549 51.8058 76.08 51.6576V51.6777C76.3314 51.5873 76.3465 51.3762 76.349 51.1577L76.3339 51.1778C76.5852 51.1049 76.5652 50.8412 76.6657 50.6754L76.7989 50.4117C76.7863 49.6581 76.1856 49.9846 75.8187 49.8791H75.8564C74.4313 49.1758 72.8403 48.9899 71.3574 48.475C71.0282 48.3594 70.9 48.4121 70.7693 48.814C70.1434 50.7557 69.03 51.5093 67.3033 51.2631C65.6922 51.0346 64.8301 50.0072 64.6844 48.1408C64.8 47.764 64.6441 47.6384 64.2696 47.6384C63.1713 47.6384 62.0704 47.6032 60.9721 47.5831C60.389 49.7485 61.1304 51.5646 62.4801 53.22V53.1823C62.5681 53.2728 62.656 53.3608 62.7314 53.4512V53.4361L62.9979 53.6998L62.9828 53.6873L63.2517 53.951C63.2911 54.0476 63.3626 54.1277 63.4542 54.1776C63.5458 54.2275 63.6519 54.2441 63.7544 54.2248H63.7393C63.8338 54.4042 63.9804 54.5509 64.1599 54.6455C64.3393 54.7401 64.5432 54.7782 64.7447 54.7549C67.4466 56.046 70.1409 56.0108 72.8353 54.7272H72.8202C73.0414 54.7272 73.2475 54.7097 73.338 54.461H73.3178C73.534 54.461 73.7401 54.4283 73.8381 54.1921L73.8205 54.2048C73.916 54.1696 74.0543 54.1319 74.0518 53.941ZM64.4581 45.6967L64.8226 45.767L67.4742 45.9805L67.8135 46.0609C70.2842 46.2493 72.6543 46.9401 75.0571 47.4651C75.7961 47.6259 76.8567 48.3242 77.2036 47.8243C77.6786 47.136 77.284 46.0484 76.8517 45.2144C76.5586 44.6148 76.2076 44.0452 75.8036 43.5138C73.167 40.2156 69.3819 39.5198 65.6344 40.7506C64.6497 41.058 63.75 41.5899 63.0063 42.3044C62.2626 43.0189 61.6953 43.8964 61.3491 44.8677C61.148 45.4002 61.1857 45.6213 61.8266 45.6213C62.7063 45.6012 63.581 45.6666 64.4657 45.6967H64.4581Z" fill="#1D2831"/>
<path d="M57.9862 47.1384C57.6519 50.09 56.3651 52.5192 54.0326 54.378C51.0769 56.051 48.0005 56.8095 44.6502 55.6641C40.2995 53.4033 39.4223 49.8488 39.9652 46.1814C40.576 42.0642 43.7353 38.8163 47.6285 38.236C51.7002 37.6281 57.4835 39.5046 57.9937 45.3901L57.9862 47.1384ZM51.2981 47.8769C51.0995 48.1156 51.1598 48.3995 51.1674 48.6708C50.539 49.9594 49.5563 50.5724 48.3448 50.3388C47.1334 50.1051 46.1381 49.6028 46.0828 48.1559C46.1431 47.867 46.1054 47.6785 45.7284 47.7187C45.1478 47.7815 44.5647 47.8167 43.969 47.8594C41.4154 48.0403 41.2847 48.2488 42.172 50.7105C42.2385 50.8632 42.3158 51.0108 42.4032 51.1526C43.7076 53.6645 45.8264 54.6091 48.566 54.3755C48.9353 54.4485 49.3185 54.3823 49.6417 54.1896C52.2909 53.7098 54.2538 52.3156 55.3773 49.8388C56.2419 47.9322 56.2168 47.9172 54.1206 47.9524L53.6581 47.8695C52.9256 47.5843 52.1187 47.5525 51.3659 47.7791C51.3662 47.8004 51.3598 47.8212 51.3476 47.8388C51.3355 47.8564 51.3181 47.8697 51.2981 47.8769ZM48.9983 45.9001V45.8574C50.6722 45.8574 52.3461 45.8951 54.0251 45.8373C54.7339 45.8147 55.7568 46.3195 56.0861 45.6413C56.4153 44.9631 55.9102 44.0361 55.4954 43.2976C55.3835 43.0736 55.2478 42.8623 55.0908 42.6672C53.2912 40.5923 50.9789 39.5825 48.287 39.9668C45.2333 40.4039 43.1597 42.2276 42.0563 45.1415C41.805 45.782 41.9432 45.9227 42.6043 45.9126C44.7306 45.8775 46.872 45.9001 48.9983 45.9001Z" fill="#1D2831"/>
<path d="M62.264 68.5405C64.7774 68.7666 66.5368 67.2518 68.3716 65.9305C68.7687 66.0486 68.9898 66.2847 68.6606 66.6489C67.6753 67.7391 66.7655 68.9098 65.1217 69.1208C64.0812 69.2489 63.0306 71.1303 62.9602 72.7455C62.8848 74.5415 63.4202 76.3151 63.1965 78.1061C63.0105 79.6007 63.5861 81.0475 63.3649 82.5472C63.297 82.9943 63.3146 83.459 63.1135 83.871C62.1383 85.9032 61.8769 85.8555 59.7079 85.4134C56.815 84.8231 55.3924 83.0999 54.8545 80.3317C54.5806 78.925 54.1005 77.5686 53.6934 76.1744C55.5105 76.1518 55.4904 76.1543 55.7242 77.9328C55.8976 79.2466 56.0157 80.5703 56.4103 81.8489C56.8652 83.3209 57.8103 84.0971 59.175 84.0644C60.8238 84.0268 62.2263 83.0119 62.5455 81.6354C62.6083 81.3616 62.8321 81.0275 62.5003 80.8492C62.333 80.7595 62.1398 80.7302 61.9535 80.7664C61.7671 80.8025 61.5989 80.9019 61.4773 81.0476C60.9068 81.6455 60.3916 82.3413 59.4214 82.271C59.5269 81.5651 59.4515 80.721 60.6303 80.9672C61.045 81.0526 61.1531 80.6507 61.2511 80.3216C61.7739 78.5984 62.1635 76.8827 61.7865 75.0465C61.3768 73.062 61.2838 71.1052 62.6963 69.3644C63.3523 68.5505 62.4148 68.8319 62.1182 68.6862L62.264 68.5405Z" fill="#D98014"/>
<path d="M67.4819 35.2819C67.0772 35.1815 66.5393 35.8396 66.2805 35.189C66.1596 34.9167 66.1395 34.6102 66.2237 34.3245C66.308 34.0387 66.4911 33.7923 66.7404 33.629C66.9749 33.4476 67.2276 33.291 67.4945 33.1618C70.3673 31.941 74.547 33.8049 75.6152 36.769C75.7534 37.1533 76.0299 37.6356 75.6403 37.8994C75.3588 38.0928 74.914 37.7637 74.635 37.5176C74.2498 37.1412 73.884 36.7455 73.5391 36.3319C71.7345 34.7116 69.7037 34.4455 67.4819 35.2819Z" fill="#1D2831"/>
<path d="M47.8446 36.0381C46.9775 36.5229 46.1103 37.0102 45.2382 37.4925C45.0648 37.588 44.8687 37.7639 44.6777 37.6106C44.4867 37.4574 44.6551 37.2464 44.7431 37.068C45.9998 34.4229 49.0158 32.7374 51.8911 33.0488C52.5081 33.1225 53.1053 33.3135 53.6505 33.6116C54.1708 33.8854 54.5302 34.2345 54.4045 34.8851C54.2562 35.5885 53.7485 35.6563 53.1654 35.596C51.3181 34.86 49.516 34.659 47.8446 36.0381Z" fill="#1D2831"/>
<path d="M56.2646 90.784C56.0962 89.528 57.0363 88.983 57.8506 88.4655C58.4463 88.0862 59.9417 89.4854 59.9266 90.4299C59.9266 91.3342 59.7306 92.2209 59.8713 93.1503C59.9744 93.8361 58.4739 95.1599 57.7526 95.2202C57.4535 95.2504 57.3379 95.1524 57.2197 94.8686C56.6743 93.5548 56.4984 92.1631 56.2646 90.784Z" fill="#F6B33A"/>
<path d="M74.9492 60.7131C75.7032 60.7483 76.4572 60.9116 76.6181 61.63C76.7146 62.0399 76.6841 62.4695 76.5306 62.8617C76.3771 63.2538 76.1078 63.59 75.7585 63.8255C75.1586 64.2596 74.514 64.6284 73.8358 64.9257C73.5442 65.0362 73.1345 65.4708 72.848 65.0463C72.5966 64.6846 72.4433 64.1396 72.7877 63.7552C73.2476 63.2528 73.2652 62.6775 73.313 62.047C73.3833 61.0573 74.1625 60.8186 74.9492 60.7131Z" fill="#D98014"/>
<path d="M44.65 55.6641C47.9928 56.8095 51.0767 56.051 54.0324 54.378C54.3189 54.6292 54.3039 54.8804 54.0023 55.0914C53.0396 55.7847 52.0318 56.6589 51.0239 56.9804C49.3843 57.5435 47.6017 57.532 45.9695 56.9478C45.5095 56.7694 45.1099 56.5006 44.5695 56.5483C44.278 56.5734 43.7954 56.5157 43.8356 56.0811C43.8733 55.6842 44.3333 55.7269 44.65 55.6641Z" fill="#D98014"/>
<path d="M67.4817 35.282C69.7061 34.4455 71.7369 34.7117 73.534 36.3319C71.571 36.4952 69.6382 36.1938 67.7004 35.9426C67.1701 35.8748 67.4616 35.5332 67.4817 35.282Z" fill="#D98014"/>
<path d="M70.2464 72.9792C70.2313 73.8685 70.0101 74.4864 69.1229 74.4512C68.2357 74.416 67.7355 73.9312 67.7405 72.9968C67.7405 72.2658 67.8813 71.5625 68.7735 71.5851C69.6658 71.6077 70.2237 72.1553 70.2464 72.9792Z" fill="#D98014"/>
<path d="M47.8447 36.038C49.5161 34.6589 51.3182 34.8599 53.1631 35.5984L53.4144 36.1008C52.9821 36.2867 52.5196 36.4324 52.0722 36.2942C51.0191 35.9652 50.0063 36.1435 48.9908 36.4349C48.5083 36.5656 48.0734 36.6133 47.8447 36.038Z" fill="#D98014"/>
<path d="M67.4816 80.2487C67.464 80.8415 66.1872 82.1252 65.7222 82.0322C65.1793 81.9267 65.2195 81.4168 65.2446 81.0274C65.3175 80.1608 65.5186 79.3218 66.6119 79.2389C67.3685 79.1761 67.4489 79.7513 67.4816 80.2487Z" fill="#F6B33A"/>
<path d="M61.2435 34.9655C61.0315 34.9512 60.8335 34.8542 60.6924 34.6954C60.5513 34.5365 60.4785 34.3286 60.4895 34.1164C60.4895 33.6668 60.6855 33.2322 61.1756 33.2498C61.3014 33.252 61.4254 33.2793 61.5404 33.3302C61.6554 33.3811 61.7591 33.4546 61.8453 33.5461C61.9315 33.6376 61.9984 33.7455 62.0423 33.8633C62.0861 33.9811 62.1059 34.1064 62.1006 34.232C62.1106 34.7218 61.6783 34.8851 61.2435 34.9655Z" fill="#D98014"/>
<path d="M57.986 47.1384V45.3801C58.1246 45.6524 58.1968 45.9537 58.1968 46.2593C58.1968 46.5648 58.1246 46.8661 57.986 47.1384Z" fill="#D18732"/>
<path d="M75.5246 85.8254C75.5095 85.9384 75.4945 86.054 75.4769 86.1696L75.3512 86.1193C75.4065 86.0188 75.4618 85.9183 75.5196 85.8204L75.5246 85.8254Z" fill="#D98014"/>
<path d="M59.0319 49.8992C59.0645 50.0072 59.0997 50.1177 59.1349 50.2283C59.0997 50.1177 59.0645 50.0047 59.0319 49.8992Z" fill="#61452D"/>
<path d="M53.4144 36.0933L53.452 36.1333L53.412 36.0958L53.4144 36.0933Z" fill="#D98014"/>
<path d="M59.7054 17.7735C59.6225 16.8842 60.0221 16.3768 60.9043 16.3969C61.6105 16.4145 61.9222 16.927 61.9323 17.5776C61.9476 17.7675 61.9246 17.9584 61.8646 18.1392C61.8045 18.32 61.7087 18.487 61.5827 18.63C61.4568 18.773 61.3033 18.8891 61.1314 18.9716C60.9596 19.054 60.773 19.101 60.5826 19.1098C59.6903 19.1851 59.7607 18.3738 59.7054 17.7735Z" fill="#995825"/>
<path d="M75.8691 18.4066C75.3111 18.3588 74.8411 18.1378 74.8637 17.5324C74.8888 16.7085 75.5951 16.4472 76.236 16.3567C76.8191 16.2739 77.1509 16.8114 77.1635 17.3138C77.176 18.1177 76.4622 18.2282 75.8691 18.4066Z" fill="#995825"/>
<path d="M43.3534 19.7304C43.3534 19.1325 43.4213 18.5749 44.1074 18.5976C44.2348 18.5921 44.3619 18.6155 44.4789 18.6662C44.5959 18.717 44.6998 18.7937 44.7829 18.8905C44.8659 18.9872 44.9258 19.1016 44.9582 19.2249C44.9905 19.3482 44.9944 19.4773 44.9695 19.6023C44.8891 20.1299 44.8966 20.9287 44.1175 20.906C43.4565 20.8809 43.3936 20.2152 43.3534 19.7304Z" fill="#995825"/>
<path d="M62.1307 68.6937C62.4272 68.8394 63.3647 68.5581 62.7087 69.3719C61.3012 71.1127 61.3892 73.0696 61.7989 75.0541C62.1759 76.8878 61.7863 78.6035 61.2635 80.3292C61.1655 80.6583 61.0575 81.0601 60.6427 80.9747C59.464 80.7235 59.5394 81.5726 59.4338 82.2784C58.2198 82.2408 58.0288 81.2737 57.7549 80.4045C57.6533 79.999 57.6084 79.5814 57.6216 79.1636C57.5789 77.4052 56.9129 76.1643 55.2515 75.2775C53.5298 74.3607 53.0649 72.4566 53.6002 70.2159C54.9178 70.1993 56.1862 69.7129 57.1768 68.8444C58.5968 68.5731 60.0345 68.8821 61.4495 68.7088L62.1307 68.6937Z" fill="#E98D2C"/>
<path d="M57.1769 68.8445C56.1856 69.7088 54.9184 70.1915 53.6029 70.2059C53.623 70.0426 53.6381 69.8794 53.6607 69.7186C53.7914 68.6862 54.0528 67.9602 55.3698 68.5832C55.8901 68.8444 56.5662 68.7741 57.1769 68.8445Z" fill="#D98014"/>
<path d="M62.131 68.6937L61.4574 68.7164L62.2642 68.5405L62.131 68.6937Z" fill="#61452D"/>
<path d="M76.761 50.4116C76.7485 49.6781 76.1779 49.967 75.8085 49.8841H75.7808C75.3535 49.9845 74.9765 50.0523 74.7528 50.5874C74.3068 51.5882 73.5243 52.4015 72.541 52.8859C69.6783 54.4132 66.7602 54.2147 63.8271 53.1547C63.3596 52.9864 62.8821 52.509 62.4498 53.1772H62.4297V53.2149C62.4297 53.2149 62.4297 53.1999 62.4473 53.1899L62.6835 53.4411L62.9499 53.7048L63.2013 53.956C63.2402 54.0528 63.3117 54.1332 63.4034 54.1831C63.4952 54.2331 63.6014 54.2495 63.704 54.2297C63.7992 54.4082 63.9461 54.5538 64.1255 54.6475C64.3049 54.7412 64.5083 54.7786 64.7093 54.7548C67.4062 56.0435 70.098 56.0108 72.7848 54.7347C73.0035 54.7347 73.2046 54.7146 73.2875 54.4835C73.4936 54.4835 73.6897 54.4458 73.7902 54.2323C73.9259 54.2022 74.0415 54.1644 74.0566 53.9936C74.22 53.9936 74.3306 53.9358 74.308 53.7424C74.6096 53.7148 74.8106 53.5842 74.8106 53.24C75.2656 53.1797 75.4239 52.8381 75.5445 52.4613C75.7531 52.3658 75.8838 52.2252 75.8235 51.9816C76.0145 51.9816 76.0196 51.8409 76.0422 51.7052C76.2785 51.6148 76.2936 51.4139 76.2936 51.2028C76.5449 51.125 76.5147 50.8688 76.6152 50.7005L76.5801 50.7155L76.6127 50.7005L76.761 50.4116ZM64.4454 54.2875C64.4189 54.2689 64.3912 54.2522 64.3625 54.2373C64.3929 54.252 64.4223 54.2687 64.4504 54.2875H64.4454ZM64.3248 54.2146C64.2903 54.2023 64.255 54.1923 64.2192 54.1846C64.2567 54.1921 64.2937 54.2021 64.3298 54.2146H64.3248ZM64.1865 54.1745C64.1431 54.1708 64.0993 54.1708 64.0558 54.1745C64.101 54.1705 64.1464 54.1705 64.1916 54.1745H64.1865ZM64.0332 54.1619C63.9855 54.1619 63.9352 54.1619 63.8824 54.1619C63.9402 54.1669 63.9905 54.1619 64.0383 54.1619H64.0332ZM63.8699 54.1745C63.8115 54.1811 63.7536 54.1912 63.6964 54.2047C63.7552 54.191 63.8148 54.1809 63.8749 54.1745H63.8699ZM62.6936 53.436C62.6954 53.3665 62.6702 53.299 62.6232 53.2476C62.6488 53.272 62.6692 53.3012 62.6835 53.3335C62.6977 53.3658 62.7054 53.4007 62.7062 53.436H62.6936ZM62.6157 53.2426C62.5952 53.2233 62.5714 53.2079 62.5453 53.1973C62.5731 53.2073 62.5988 53.2227 62.6207 53.2426H62.6157ZM62.9449 53.6847C62.9788 53.6811 63.013 53.6852 63.0451 53.6965C63.0773 53.7079 63.1064 53.7263 63.1305 53.7504C63.1546 53.7745 63.173 53.8035 63.1844 53.8356C63.1958 53.8677 63.1998 53.902 63.1963 53.9358C63.1995 53.9031 63.1957 53.8701 63.1851 53.839C63.1744 53.8078 63.1572 53.7794 63.1345 53.7555C63.1119 53.7317 63.0843 53.7131 63.0537 53.7008C63.0232 53.6886 62.9904 53.683 62.9575 53.6847H62.9449ZM63.1963 53.9358C63.4476 53.8781 63.621 53.9359 63.6989 54.2021C63.6311 53.9359 63.4602 53.8781 63.2088 53.9358H63.1963ZM64.4806 54.3328C64.5026 54.3518 64.5228 54.3728 64.5409 54.3956C64.526 54.3732 64.5091 54.3522 64.4907 54.3328H64.4806ZM64.5862 54.4785C64.5994 54.4994 64.6111 54.5212 64.6214 54.5437C64.6144 54.5214 64.606 54.4997 64.5962 54.4785H64.5862ZM76.0522 50.2357C75.973 50.1772 75.9049 50.1048 75.8512 50.0222C75.9078 50.1057 75.9794 50.1781 76.0623 50.2357H76.0522ZM72.7622 54.7021C72.7712 54.6569 72.7891 54.6139 72.8149 54.5757C72.8408 54.5376 72.874 54.505 72.9127 54.4799C72.9514 54.4549 72.9947 54.4378 73.0401 54.4298C73.0855 54.4218 73.132 54.4229 73.1769 54.4332C73.0876 54.4154 72.9949 54.4337 72.9191 54.4841C72.8433 54.5345 72.7905 54.6129 72.7723 54.7021H72.7622ZM73.2624 54.4332C73.3453 54.182 73.5439 54.1494 73.7651 54.182C73.5539 54.1594 73.3554 54.1871 73.2624 54.4433V54.4332ZM74.8006 53.2024C74.8155 53.0086 74.8966 52.8258 75.0301 52.6845C75.1637 52.5433 75.3418 52.4521 75.5345 52.4262C75.342 52.4546 75.1651 52.5482 75.0333 52.6913C74.9015 52.8344 74.823 53.0183 74.8106 53.2124L74.8006 53.2024ZM76.0321 51.6726C76.0027 51.5726 76.0122 51.4652 76.0589 51.372C76.1055 51.2788 76.1858 51.2067 76.2835 51.1702C76.1853 51.2086 76.1057 51.2831 76.0608 51.3784C76.0159 51.4737 76.0093 51.5826 76.0422 51.6827L76.0321 51.6726ZM76.2835 51.1702C76.2624 51.0762 76.2762 50.9776 76.3225 50.893C76.3687 50.8084 76.4442 50.7436 76.5348 50.7105C76.446 50.7459 76.373 50.8122 76.3291 50.8971C76.2852 50.982 76.2735 51.0798 76.296 51.1727L76.2835 51.1702Z" fill="#C18C5A"/>
<path d="M40.865 97.3855L38.8367 97.1217C39.46 97.6191 40.1109 97.9005 40.865 97.3855Z" fill="#B35737"/>
<path d="M85.8496 75.0139C86.6162 74.7049 86.8072 74.2151 86.3246 73.5067L85.8496 75.0139Z" fill="#B35737"/>
<path d="M85.7693 70.3114C86.0207 70.0024 85.8648 69.8543 85.5632 69.7588C85.5762 69.6596 85.5592 69.5588 85.5144 69.4693C85.4696 69.3797 85.3991 69.3056 85.3119 69.2564C85.2289 69.1685 85.146 69.0831 85.0605 69.0052C85.0832 69.1509 85.1108 69.2916 85.3119 69.2766C85.2943 69.326 85.2869 69.3784 85.29 69.4307C85.2932 69.4831 85.307 69.5343 85.3304 69.5812C85.3539 69.6282 85.3867 69.6698 85.4267 69.7038C85.4667 69.7377 85.5131 69.7634 85.5632 69.779L85.7693 70.3114Z" fill="#B35737"/>
<path d="M38.3265 96.3757C37.6547 94.1066 37.6486 91.6925 38.3089 89.42C38.6004 88.3952 39.2137 87.4431 39.0805 86.3127C39.3855 86.085 39.6187 85.7747 39.7523 85.4184C39.886 85.0622 39.9145 84.6751 39.8345 84.3031C40.0507 84.165 40.111 84.0092 39.8822 83.8259L39.8295 84.3031C39.3475 84.8623 39.0802 85.5746 39.0755 86.3127C37.9729 88.3431 37.3827 90.6117 37.3563 92.9217C37.3387 94.1501 37.3714 95.4035 38.324 96.3807C38.3085 96.4802 38.3244 96.582 38.3694 96.672C38.4145 96.762 38.4864 96.8358 38.5753 96.8831C38.5895 96.7833 38.5734 96.6815 38.529 96.5911C38.4846 96.5006 38.4141 96.4256 38.3265 96.3757Z" fill="#B35737"/>
<path d="M84.4294 68.239C84.5601 68.4124 84.6808 68.5883 84.819 68.7641C84.804 68.6508 84.7604 68.543 84.6923 68.4511C84.6241 68.3593 84.5337 68.2863 84.4294 68.239Z" fill="#B35737"/>
<path d="M86.2945 71.271C86.0935 71.8538 86.4051 72.4214 86.3498 73.0017C86.7444 72.4114 86.7771 71.8337 86.3021 71.2735C86.3059 71.1581 86.2718 71.0446 86.2051 70.9503C86.1384 70.856 86.0427 70.7859 85.9326 70.751C86.0256 70.9469 86.013 71.2107 86.2945 71.271Z" fill="#B35737"/>
<path d="M85.812 75.157L85.5607 75.4961C85.9201 75.5966 85.7944 75.3228 85.812 75.157Z" fill="#B35737"/>
<path d="M84.0373 77.2545C83.8539 77.2319 83.7206 77.2545 83.786 77.5057C82.3383 77.9277 80.9132 78.4552 79.3524 78.1387C79.0633 78.0809 78.6964 77.9126 78.4501 78.2844C78.4501 78.3748 78.4501 78.4677 78.4501 78.5582C78.4978 79.3118 78.631 80.0653 78.5707 80.7988C78.5028 81.6755 78.9276 81.9117 79.6766 82.08C80.942 82.3344 82.2389 82.3929 83.5221 82.2533C82.8158 81.9343 82.0493 82.0574 81.3153 81.9443C79.3574 81.6479 79.3775 81.3414 79.2393 79.4851C79.1413 78.1814 79.7922 78.6085 80.32 78.5984C81.2372 78.6112 82.1529 78.5202 83.0496 78.3271C83.5145 78.2141 83.8036 78.0332 83.7784 77.5208L84.0298 77.2696C84.1156 77.2247 84.1867 77.1561 84.2344 77.0718C84.2821 76.9876 84.3044 76.8914 84.2987 76.7948C84.1555 76.9128 83.9619 77.0083 84.0373 77.2545Z" fill="#B35737"/>
<path d="M75.8036 43.5138C73.167 40.2155 69.3819 39.5197 65.6344 40.7506C64.6497 41.058 63.75 41.5899 63.0063 42.3044C62.2626 43.0189 61.6952 43.8964 61.3491 44.8676C61.148 45.4002 61.1857 45.6212 61.8266 45.6212C62.7038 45.6087 63.586 45.674 64.4581 45.7041L64.8226 45.7745L67.4742 45.988L67.8135 46.0684C70.2842 46.2568 72.6543 46.9476 75.0571 47.4726C75.796 47.6333 76.8567 48.3317 77.2036 47.8318C77.6786 47.1435 77.284 46.0558 76.8517 45.2218C76.559 44.6196 76.208 44.0475 75.8036 43.5138Z" fill="#B35737"/>
<path d="M55.0831 42.6672C53.2835 40.5923 50.9711 39.5825 48.2793 39.9668C45.2255 40.4039 43.152 42.2276 42.0486 45.1415C41.7973 45.7821 41.9355 45.9227 42.5965 45.9126C44.7304 45.8775 46.8693 45.9001 48.9981 45.9001V45.8574C50.672 45.8574 52.346 45.8951 54.0249 45.8373C54.7337 45.8147 55.7567 46.3196 56.0859 45.6413C56.4152 44.9631 55.91 44.0362 55.4953 43.2976C55.3809 43.0733 55.2427 42.8619 55.0831 42.6672Z" fill="#B35737"/>
<path d="M71.3198 48.4774C70.9906 48.3618 70.8624 48.4146 70.7317 48.8165C70.1058 50.7583 68.9924 51.5119 67.2657 51.2657C65.6546 51.0371 64.7925 50.0096 64.6467 48.1433C64.7624 47.7665 64.6065 47.6409 64.232 47.6409C63.1337 47.6409 62.0328 47.6058 60.9345 47.5857C60.3514 49.751 61.0928 51.5671 62.4425 53.2225C62.8823 52.4991 63.3674 52.9939 63.845 53.1647C66.7831 54.2248 69.6961 54.4207 72.5589 52.8959C73.5421 52.4115 74.3247 51.5983 74.7707 50.5975C75.0019 50.0498 75.389 49.9921 75.8288 49.8865C74.3937 49.1782 72.8052 48.9999 71.3198 48.4774Z" fill="#F4C686"/>
<path d="M54.1358 47.9523L53.6734 47.8694C52.9409 47.5842 52.1339 47.5524 51.3811 47.779C51.3804 47.8023 51.3719 47.8246 51.3568 47.8424C51.3417 47.8602 51.3211 47.8724 51.2982 47.8769C51.0996 48.1155 51.16 48.3994 51.1675 48.6707C50.5391 49.9594 49.5564 50.5723 48.345 50.3387C47.1335 50.1051 46.1382 49.6027 46.0829 48.1558C46.1432 47.8669 46.1055 47.6785 45.7285 47.7187C45.1479 47.7815 44.5648 47.8167 43.9691 47.8594C41.4155 48.0402 41.2824 48.2487 42.1721 50.7105C42.2386 50.8631 42.3159 51.0108 42.4033 51.1525C43.7078 53.6645 45.8265 54.609 48.5661 54.3754C48.9354 54.4484 49.3186 54.3823 49.6419 54.1896C52.291 53.7098 54.2539 52.3156 55.3774 49.8388C56.2471 47.9322 56.2219 47.9172 54.1358 47.9523Z" fill="#F4C686"/>
</svg>
