<svg width="130" height="129" viewBox="0 0 130 129" fill="none" xmlns="http://www.w3.org/2000/svg">
<path d="M129.562 0.341064H0.875977V128.954H129.562V0.341064Z" fill="#FEBA9D"/>
<path opacity="0.3" d="M71.8791 122.674C94.5746 122.674 112.973 119.863 112.973 116.394C112.973 112.926 94.5746 110.114 71.8791 110.114C49.1835 110.114 30.7852 112.926 30.7852 116.394C30.7852 119.863 49.1835 122.674 71.8791 122.674Z" fill="#1D2831"/>
<path d="M43.782 112.29C46.2452 108.773 48.7234 105.239 49.3115 100.735C47.9241 100.287 46.6498 100.624 45.3554 100.817C42.6711 101.222 40.022 100.92 37.3779 100.338C32.7458 99.3179 28.8575 97.1274 26.0677 93.2389C23.6146 89.8251 22.471 85.9541 22.466 81.7616C22.466 77.3983 23.7981 73.437 25.6178 69.4882C26.9074 66.7514 28.6445 64.2487 30.7576 62.0829C33.0604 59.6519 35.8165 57.6944 38.8709 56.3204C39.2454 56.1546 39.6123 55.9787 40.3261 55.6497C37.4207 55.3432 34.9676 54.5921 32.4693 54.0923C31.3106 53.8586 30.4234 53.2382 29.4105 52.8111C22.3931 49.8596 16.8435 45.127 13.0483 38.5432C10.741 34.5366 9.84627 30.0904 10.8039 25.4658C11.6509 21.3813 13.8778 18.9648 18.4245 18.3569C21.2431 17.9532 24.1184 18.3701 26.7061 19.5576C29.4544 20.8086 32.0205 22.4259 34.3343 24.3655C36.0559 25.82 37.6996 27.2945 39.0543 29.0931C39.3685 29.5076 39.6827 29.9924 40.4468 30.0853C40.3814 27.7115 40.4971 25.3779 41.1732 23.0794C42.5782 18.3067 46.6674 16.1589 51.1036 17.5179C53.7276 18.3242 55.8086 19.8716 57.485 21.9993C58.8398 23.72 59.6516 23.9436 61.9237 22.6373C64.1053 21.3813 66.3624 21.6677 68.6546 21.8837C69.1206 21.9654 69.5807 22.0778 70.0319 22.2204C68.4661 19.9596 66.7921 18.1384 64.2335 17.3044C62.4314 16.7166 61.9538 16.0334 62.3836 14.9231C62.7782 13.9183 63.8917 13.6193 65.4148 14.1519C67.3727 14.8326 68.8406 16.2016 70.1324 17.7365C71.1629 18.9598 72.4925 19.9972 72.8645 21.6903C72.8751 21.7311 72.8949 21.7689 72.9223 21.8008C73.9855 22.9438 75.5563 22.4615 76.8256 23.0041C77.5796 23.3206 77.7103 22.3987 77.9943 21.9616C79.5576 19.5677 81.2316 17.2793 83.6042 15.6013C84.4638 14.9934 85.3636 14.4583 86.4343 14.3277C87.3919 14.2096 87.8569 14.7723 87.9423 15.6113C88.0278 16.3649 87.7312 16.8347 86.8892 17.1813C84.7779 18.0505 82.7823 19.2286 81.4653 21.1503C80.8621 22.0269 79.6155 22.5117 79.6808 23.8431C84.2853 20.6956 91.0237 21.5823 94.8139 25.7924C97.6415 28.9298 98.6971 32.8385 98.0185 37.1616C97.3399 41.4847 94.7511 44.3182 91.1192 46.4986C92.2 47.6616 93.4316 48.3876 94.1956 49.6059C95.4247 51.5678 95.1381 53.502 93.3109 54.9237C93.2104 55.0016 93.1073 55.0694 93.0043 55.1422C89.8475 57.3352 88.9477 57.1895 86.7535 54.1375C86.0774 53.2055 85.4013 52.2711 84.6774 51.3743C84.2062 50.7919 83.5784 50.3561 82.8678 50.1183C82.5159 49.9952 82.2394 49.6812 81.8851 50.0505C81.5307 50.4197 81.7544 50.7488 81.8851 51.098C82.8216 53.4885 83.3155 56.0292 83.3428 58.5962C83.3428 60.4425 82.1389 61.274 80.4549 60.6058C78.7106 59.92 78.6528 59.9577 78.6629 61.8015C78.6629 62.5551 78.6629 63.2936 78.6629 64.2481C82.6843 63.4946 86.6655 63.5197 90.6166 63.4695C91.26 62.3089 90.7648 61.1861 90.7146 60.0884C90.6769 59.3197 90.7146 58.6339 91.4686 58.2546C92.2226 57.8753 92.8233 58.1918 93.4567 58.5987C94.2107 59.086 94.5877 60.0683 95.6333 60.2818C95.3116 57.8678 96.4602 55.9763 97.556 54.0019C98.3855 52.5173 99.2149 51.0302 100.024 49.533C100.7 48.2771 101.605 48.1439 102.844 48.3675C105.76 48.8975 108.542 49.8897 111.372 50.7086C112.418 51.0101 113.468 51.2889 114.491 51.6531C116.281 52.2862 116.582 53.625 115.283 54.9815C113.177 57.1795 110.344 58.0637 107.605 59.0007C105.986 59.5533 104.888 60.1311 104.973 62.0301C105.008 62.7837 104.357 63.4971 104.812 64.2783C106.969 64.5069 109.032 64.9867 110.885 66.1096C112.8 67.2701 113.147 68.5462 111.933 70.3799C110.442 72.6407 108.768 74.8035 107.305 77.0894C106.011 79.1165 104.38 80.9076 102.822 82.6509C100.909 84.7886 99.1596 87.1423 96.8674 88.9534C95.7816 89.815 95.1608 90.8701 95.2638 92.3948C95.5981 97.3685 95.1959 102.347 95.2387 107.323C95.2537 109.019 95.4071 109.177 97.0508 109.632C98.496 110.034 99.9211 110.509 101.349 110.973C102.607 111.348 103.666 112.205 104.294 113.357C104.478 114.56 104.269 115.638 103.289 116.472C102.47 116.961 101.58 117.32 100.65 117.535C98.3918 118.071 96.0838 118.372 93.7633 118.431H92.2C89.2091 118.431 86.2583 118.05 83.3101 117.603H83.3277C83.2398 117.351 83.0311 117.329 82.8074 117.331C82.2771 117.027 81.7242 116.753 81.2215 116.409C79.6783 115.354 79.4973 113.789 80.7188 112.363C81.2718 111.712 82.0409 111.378 82.7119 110.903L83.0839 110.76C84.2853 110.403 85.4792 110.029 86.6856 109.697C87.9775 109.343 88.7139 108.632 88.5732 107.185C88.5053 106.482 88.5732 105.766 88.5606 105.055C88.4777 102.292 88.3093 99.5288 88.3093 96.7958C88.3093 95.2007 88.4098 93.5654 88.4802 91.9502C88.5129 91.2795 88.4224 90.634 87.9046 90.0939C86.575 88.7022 85.2781 87.283 83.9737 85.8712C83.7223 85.5949 83.5213 85.3387 83.0337 85.4743C81.3472 85.9491 79.6506 85.7909 77.9742 85.3688C77.6927 85.296 77.4087 85.1176 77.1398 85.301C75.2522 86.6575 72.9173 87.1071 70.9367 88.2702C73.2968 91.5358 74.8576 95.0223 74.6565 99.0415C74.4605 102.965 72.8972 106.495 70.8161 109.886L73.719 110.639L73.817 110.707L73.8874 110.609C73.9679 110.88 74.1564 110.926 74.3901 110.86L74.3725 110.845C74.3524 111.051 74.5108 111.071 74.649 111.112L74.6239 111.091C74.7923 111.199 74.9607 111.307 75.1265 111.418C76.9965 112.493 77.2579 114.935 75.6292 116.153L74.1212 116.6L73.8522 116.645C71.4221 116.587 68.9967 116.402 66.586 116.09H66.6087C66.4428 115.786 66.106 115.859 65.8546 115.724C63.0296 114.538 62.8386 114.191 63.5926 111.727C65.3168 109.366 66.806 106.842 68.0388 104.191C69.871 100.147 69.9087 96.3135 66.9379 92.7415C66.3171 91.9879 65.7918 91.6488 65.1785 92.7716C64.9419 93.1171 64.6255 93.4006 64.2561 93.5981C61.3431 95.4519 58.4603 97.3661 55.0546 98.3307C55.3336 102.882 53.7124 106.746 51.2468 110.338C51.0382 110.639 50.719 110.891 50.7291 111.313H50.7466L50.4777 111.584L50.4903 111.559C50.2892 111.722 50.0806 111.88 50.2138 112.189H50.1962C50.0127 112.189 49.8268 112.252 49.8242 112.44C49.8242 112.749 50.1032 112.636 50.2817 112.671C50.2829 112.684 50.2868 112.696 50.2933 112.706C50.2998 112.717 50.3086 112.726 50.319 112.732C50.3295 112.739 50.3413 112.743 50.3535 112.744C50.3658 112.745 50.3782 112.744 50.3898 112.739L50.7668 112.805L52.2597 112.872H52.2446C52.4758 113.202 52.8202 113.124 53.1444 113.124H53.1218C53.2425 113.4 53.5239 113.375 53.7502 113.46C55.0496 114.128 56.349 114.807 57.0176 116.223C57.6283 117.532 57.2689 118.371 55.9192 118.851C54.6474 119.306 53.3003 119.268 51.9808 119.426C49.2763 119.529 46.6373 118.969 43.9781 118.617H43.9932C43.6991 118.135 43.0984 118.097 42.7214 117.736C42.4701 117.484 42.2438 117.218 42.0076 116.957C41.7688 115.952 42.2187 115.05 42.5103 114.128H42.4852L43.2216 113.101L43.782 112.29ZM93.7834 89.5287L93.7583 89.5513C93.9443 89.5513 94.0096 89.4232 94.0272 89.2725V89.3126C95.6634 87.4688 97.2745 85.5999 98.9434 83.7863C101.512 80.993 103.842 78.0088 106.122 74.9944H106.076L106.363 74.7281L106.574 74.4594L107.391 73.3089L109.113 70.9426C107.705 71.2189 106.408 71.445 105.119 71.7263C103.312 72.1182 101.434 71.9775 99.6396 72.4397C97.6012 72.5226 95.5554 72.3292 93.5245 72.6382L92.7178 72.6181C92.0745 72.4547 91.4006 72.4547 90.7573 72.6181L90.0033 72.5527H89.7243L89.2442 72.5326L88.4425 72.5025C88.384 72.4874 88.3225 72.4874 88.264 72.5025L87.691 72.4899L85.5068 72.4095C84.4763 72.0403 83.3453 72.3895 82.3224 71.9674C80.2237 71.985 78.2356 71.2465 75.966 70.8848C76.8683 72.5176 77.6827 73.9118 78.4191 75.3461C78.8489 76.1851 79.4445 76.602 80.3896 76.494C82.3852 77.0718 82.9683 77.75 83.0814 79.6993C83.1199 80.065 83.2591 80.4128 83.4836 80.7041C83.4905 80.7857 83.5136 80.8652 83.5516 80.9378C83.5896 81.0103 83.6418 81.0746 83.705 81.1268C83.7682 81.179 83.8412 81.218 83.9197 81.2416C83.9982 81.2652 84.0807 81.2729 84.1622 81.2643L84.1848 81.2844C84.2099 81.9023 84.9061 82.3042 84.7453 82.9774C84.6781 83.1759 84.686 83.3921 84.7675 83.5851C84.849 83.7782 84.9985 83.9346 85.1876 84.0249L85.439 84.2987L85.8788 84.8288L85.9115 84.8589L86.1226 85.0925L86.1578 85.1302C86.2181 85.2031 86.281 85.2734 86.3413 85.3437L86.4092 85.414L86.5675 85.5899L86.6378 85.6703L86.9747 86.032L87.226 86.3058L87.4773 86.5796L87.7287 86.8484L87.98 87.1172L88.0429 87.0669L87.9775 87.1147L88.2288 87.4387C88.2311 87.4617 88.2396 87.4836 88.2533 87.5022C88.267 87.5208 88.2855 87.5352 88.3067 87.5442C88.4428 87.7511 88.6003 87.9431 88.7767 88.1169C90.2471 89.2875 90.702 90.8449 90.6291 92.6561C90.4331 97.5042 90.7196 102.347 90.7724 107.195C90.8026 109.994 89.4906 111.599 86.7107 111.918C85.4365 112.064 84.3708 112.606 83.2599 113.111C82.7572 113.337 82.2244 113.664 82.2545 114.267C82.2847 114.869 82.8929 114.967 83.3227 115.204C83.4957 115.308 83.6828 115.386 83.8782 115.437C89.5584 116.693 95.2261 116.859 100.884 115.296C101.409 115.151 102.07 115.045 102.158 114.458C102.256 113.802 101.625 113.473 101.107 113.202C99.8357 112.533 98.4055 112.355 97.0458 111.966C94.2811 111.174 93.1073 109.974 93.2028 106.969C93.3662 101.79 93.4542 96.6074 93.3185 91.4252C93.3407 90.8877 93.438 90.3559 93.6075 89.8452C93.6603 89.7673 93.7985 89.7121 93.7834 89.5287ZM74.6591 73.1782L74.6741 73.1983C74.6946 73.0788 74.682 72.956 74.6377 72.8431C74.5934 72.7302 74.5191 72.6315 74.4228 72.5578C74.0659 71.8243 73.7919 71.033 73.3345 70.3673C72.3643 68.9632 72.0351 67.6368 73.4124 66.308L73.9151 65.9312L74.1991 65.7403C74.3222 65.6649 74.4856 65.6222 74.4504 65.4213V65.4388C74.92 65.4352 75.3701 65.2508 75.7071 64.9239C76.1822 64.9239 76.4611 64.7757 76.4611 64.2029C76.4611 62.7184 76.5969 61.2288 76.3229 59.7517C76.2601 59.2493 76.2048 58.7645 76.1344 58.2747C75.8529 56.3128 76.3154 55.941 78.1803 56.6469C79.0124 57.3399 79.9522 57.8923 80.9626 58.2822C81.1541 56.1428 80.7669 53.9913 79.8417 52.0526L78.6201 52.8237C75.77 53.1779 74.8249 55.1724 74.4178 57.6592C74.306 58.1457 74.159 58.6235 73.9779 59.0886L71.4168 65.4037C70.8387 65.4388 70.2078 65.3108 69.8158 65.9212L69.4865 65.9789C69.2502 65.5645 69.6901 64.9967 69.1874 64.64C69.2678 63.7583 68.8682 62.9821 68.637 62.1707C68.0765 60.0305 67.3803 57.9431 66.2166 56.0415C66.0079 55.4286 65.4626 55.0543 65.1258 54.5344C63.115 51.6883 60.6017 49.2391 58.7493 46.2875C57.8445 44.5015 56.1982 43.2732 55.2305 41.4093L51.8978 44.5141C51.4982 44.8834 51.2971 45.2325 51.6465 45.8027C52.6292 47.4456 53.3606 49.2316 54.4941 50.789L55.3135 52.0852C56.2962 53.8938 57.6509 55.4085 59.0836 56.8579L59.1037 56.8781C59.7172 57.6233 60.4301 58.2809 61.2225 58.8324L63.9319 56.6369L64.1832 56.4083L64.618 56.0968L65.1207 55.7878C65.4607 55.8203 65.774 55.9855 65.9929 56.2476C66.4955 57.5035 65.8748 58.3601 64.9197 59.0107C63.9143 59.6915 62.8411 60.2491 61.8156 60.8922C61.0314 61.3946 60.4307 61.3042 59.7169 60.6536C57.635 58.7204 55.7608 56.5753 54.1246 54.2531L53.3706 53.2055L51.8425 50.8091L49.8594 46.7422C48.2863 48.4121 46.8373 50.1945 45.5238 52.0751C43.3502 54.892 41.4839 57.9328 39.9567 61.1459C38.6397 63.266 38.0239 65.6825 37.0537 67.9483C36.6583 69.35 36.2645 70.7516 35.8724 72.1533C35.7612 72.8061 35.6092 73.4513 35.4175 74.0851C34.8997 75.4943 35.3647 76.3458 36.722 76.906C37.5288 77.2376 38.2652 77.735 39.0318 78.162L42.1986 79.85C46.1508 81.9021 50.3769 83.3774 54.748 84.2309C56.5727 84.7961 58.4653 84.9845 60.3478 85.2206C61.5467 85.6728 62.821 85.5171 64.0601 85.6351C65.6988 85.7934 65.9325 85.4718 65.8697 83.839C65.8471 83.2387 65.5957 82.9071 65.0503 82.7464L62.4289 81.9777C60.1895 80.7393 58.0958 79.3049 56.3063 77.4561C55.3487 76.4915 54.5469 75.3687 53.3983 74.5247C52.7724 75.228 52.2296 75.9188 51.6037 76.5343C51.3935 76.7525 51.1322 76.915 50.8434 77.0071C50.5546 77.0991 50.2474 77.1178 49.9496 77.0615C49.6518 77.0051 49.3727 76.8756 49.1375 76.6844C48.9024 76.4932 48.7185 76.2465 48.6027 75.9665C47.1273 72.2388 45.6621 68.5035 44.9734 64.522C44.8628 63.8839 44.8301 63.2811 45.2096 62.7184L45.4761 62.5827C46.3884 62.7209 46.5971 63.4243 46.773 64.1678C47.1274 65.6423 47.4793 67.1218 48.2559 68.4507C48.5056 69.1205 48.7569 69.7846 49.0099 70.4427C49.3435 71.6118 49.7993 72.7425 50.3696 73.8163C51.3297 72.8718 52.2069 71.9875 53.3204 71.3997L55.8891 69.9479L58.6915 68.5286C57.7088 67.1595 56.7662 65.891 56.0273 64.4918C55.6779 63.7382 55.2733 62.9847 54.9968 62.2059C54.7982 61.6458 54.4941 60.9324 55.2632 60.553C56.1052 60.1386 56.3842 60.9399 56.638 61.4398C57.7562 63.5937 59.0712 65.6396 60.5665 67.5514C61.1647 68.3327 61.2727 69.1264 60.8404 70.0006C60.192 70.3372 59.5435 70.6763 58.8297 71.0481C59.9607 72.2287 61.0239 73.3767 62.3484 74.2358C63.5716 75.1519 64.9665 75.8131 66.4503 76.18C67.325 76.4111 68.167 76.7729 69.0944 76.7678C71.5047 77.1647 73.8925 77.127 76.2374 76.3684C76.6572 76.1499 76.3983 75.9339 76.2374 75.7179V75.6927L75.9861 75.4415L76.0012 75.4591C76.0185 75.3567 76.0036 75.2516 75.9586 75.158C75.9136 75.0644 75.8406 74.9871 75.7499 74.9366V74.9567C75.7222 74.8085 75.6996 74.6553 75.4985 74.6854L75.5136 74.698C75.5689 74.183 75.2623 73.8113 75.0109 73.442C74.8827 73.3064 74.8626 73.1481 74.6591 73.1883V73.1782ZM73.1962 84.565C73.3772 84.5623 73.555 84.5168 73.7149 84.4321C73.8748 84.3473 74.0124 84.2259 74.1162 84.0777L72.9374 83.7963C71.5399 83.5301 70.1374 83.3618 68.6646 83.5954C68.6344 84.1756 68.6068 84.7157 68.5792 85.2533C70.2304 85.7909 71.6706 85.0197 73.156 84.5148L73.1962 84.565ZM82.6868 25.7271L82.6692 25.7496C83.507 27.2568 84.3448 28.769 85.1826 30.2863C85.248 30.7033 85.1826 31.1554 85.4993 31.5071C86.063 34.1294 85.9181 36.8544 85.0796 39.4022C84.9614 39.7765 84.6422 40.1558 84.9463 40.5829C85.6727 41.3364 86.384 42.0901 87.128 42.816C89.0256 44.6824 89.0733 44.6849 91.3681 43.3787C91.5072 43.2877 91.6391 43.1861 91.7627 43.0748C93.8287 41.5676 95.299 39.6208 95.7841 37.0787C96.4275 33.6599 95.5001 30.5601 93.2958 27.9526C91.8431 26.2345 90.1139 24.7223 87.696 24.4234C85.8964 24.0139 84.132 24.0541 82.4355 24.863C82.2822 24.9484 81.9328 24.9534 82.0258 25.1367C82.1389 25.3829 82.4531 25.5362 82.6868 25.7271ZM61.8257 92.2717C60.011 92.5229 58.1913 92.7289 56.3867 93.0253C55.7156 93.1333 54.8787 92.3572 54.4363 93.156C54.0694 93.8166 54.6198 94.5978 54.7429 95.3288C54.7882 95.6001 54.7429 95.9267 55.2456 96.2231C56.6858 95.5122 58.2617 94.7812 59.7697 93.9623C60.5463 93.5428 61.5115 93.3067 61.8584 92.3169C61.9086 92.2642 62.1097 92.3471 62.0041 92.1562L61.8257 92.2717ZM68.1343 54.0897L68.0589 54.0445L68.1066 54.1199L70.4969 60.6284C70.7482 59.9326 70.9694 59.3498 71.1931 58.7721C71.6142 57.7289 71.925 56.6445 72.1205 55.5366C72.2839 54.567 72.0049 53.944 70.8638 54.1551C69.9439 54.3334 69.0441 53.9993 68.1292 54.0973L68.1343 54.0897ZM38.2074 59.1137C37.4534 59.6412 36.6993 60.1763 35.9453 60.6962C33.8528 62.0911 32.0227 63.8436 30.539 65.8734C30.25 66.2778 29.8705 66.6798 29.9358 67.2123C30.1696 69.0862 29.9358 71.0104 30.5691 72.8417C30.7979 73.5023 30.7702 74.2659 31.386 74.7583C31.3809 74.8074 31.386 74.857 31.4011 74.904C31.3964 75.0175 31.4221 75.1301 31.4756 75.2304C31.529 75.3306 31.6083 75.4148 31.7052 75.4742C32.2858 75.9439 31.9063 76.6624 32.1677 77.2326C34.8796 83.2337 39.7732 86.8007 45.6017 89.3378C45.7262 89.421 45.8765 89.4566 46.0251 89.4382C46.1737 89.4197 46.3107 89.3484 46.411 89.2373C45.3881 87.4261 44.6241 85.4543 43.8198 83.4974C43.6413 83.0654 43.2844 82.8895 42.9099 82.6911C40.0321 81.1613 37.1467 79.6466 34.289 78.0816C33.3766 77.5792 32.5824 76.7804 32.8513 75.6801C33.4244 73.349 33.3339 70.8672 34.4348 68.6617C34.8781 67.2438 35.4 65.8517 35.9981 64.4918C36.7923 62.7334 37.4935 60.9274 38.235 59.1388L38.3028 59.0911L38.2627 59.0484L38.2074 59.1137ZM54.0417 39.2691C52.3929 33.8985 53.4787 29.1936 57.5605 25.2347C55.8262 22.974 53.8406 21.09 51.3096 20.0174C48.1403 18.676 45.4761 19.2386 43.8524 22.5293C43.4452 23.4419 43.1742 24.4093 43.0482 25.4005C42.6008 28.0054 42.4148 30.6028 43.3347 33.1876C44.717 37.0611 47.7306 39.985 49.2638 43.8685C50.3344 42.6629 51.4974 41.5425 52.7423 40.5175C53.2525 40.201 53.9839 40.093 54.0342 39.2766L54.0417 39.2691ZM30.4636 78.2122C30.2123 77.6897 29.9609 77.1673 29.7096 76.6423C29.6417 76.4137 29.5738 76.1851 29.5085 75.954C28.8892 73.8559 28.4784 71.7019 28.282 69.5233C26.5352 72.3668 25.2357 75.331 25.1101 78.7021C24.6074 79.5712 25.0146 80.5082 24.9241 81.41C24.1198 89.2448 29.9307 96.2683 37.0487 97.9086C38.8767 98.3092 40.7445 98.5005 42.6159 98.4788C44.609 98.4788 46.5066 98.1372 48.4394 97.8684C49.1507 97.7705 49.3291 97.4188 49.216 96.7506C48.9647 95.2108 48.3941 93.7739 47.7934 92.3471C47.6652 92.0432 47.5194 91.7844 47.0997 91.7242C44.2646 91.3147 41.8216 89.9155 39.4892 88.4033C35.5897 85.9127 32.4638 82.3831 30.4636 78.2122ZM61.0691 44.087C63.3865 45.5239 65.9099 45.8254 68.5289 45.3205C74.0232 44.2604 77.1272 38.9048 76.1997 33.5342C76.1143 29.814 74.3021 27.076 71.173 25.2623C67.428 23.087 62.5571 23.735 59.2721 26.6414C56.0926 29.4548 54.748 34.6371 56.256 38.4276C57.2387 40.819 58.5155 43.0044 61.0691 44.082V44.087ZM45.2348 48.5458C45.936 47.8374 46.3759 46.9256 47.0168 46.1846C47.4994 45.6294 47.5194 45.2325 47.1625 44.6548C45.9058 42.6301 44.707 40.5728 43.4453 38.5557C40.0343 33.0702 35.6392 28.2612 30.4812 24.3706C27.9167 22.4165 24.9054 21.1319 21.7195 20.6328C14.9836 19.5627 12.3899 24.2199 12.5934 29.5427C12.6462 30.9645 13.1514 32.3888 13.5988 33.7704C14.7348 37.2985 16.6612 40.521 19.2313 43.1928C20.178 44.201 21.2548 45.0787 22.4333 45.8027C23.8333 46.6769 25.0171 47.9128 26.4698 48.7417C30.9185 51.2864 35.5984 53.105 40.8213 53.1251C41.2536 53.1251 41.8794 53.3386 42.078 52.8237C42.6108 51.422 43.9429 50.6232 44.5913 49.3296C44.8934 49.1495 45.1242 48.8709 45.2449 48.5408L45.2348 48.5458ZM62.4465 47.2898C62.6777 48.061 63.3287 48.2645 63.7358 48.7041C66.8776 52.0877 70.7733 52.8438 75.0813 51.8014C76.7627 51.3919 78.4618 50.7966 79.5275 49.2015C79.8643 48.6991 79.912 48.3072 79.3566 47.9455C78.6981 47.5084 78.0546 47.0437 77.4087 46.5865C76.906 46.2298 75.9836 46.1067 76.4033 45.1647C76.8231 44.2227 77.6022 44.6975 78.2607 44.8457C78.5005 44.9213 78.73 45.0259 78.9444 45.1571C82.0057 46.7095 85.072 48.2544 87.2813 51.0226C87.5326 51.3216 87.784 51.5552 88.2389 51.2914C90.3175 50.0807 90.413 48.797 88.5832 47.2145C86.5445 45.4805 84.5966 43.6426 82.7471 41.7082C81.6689 40.5577 81.6639 39.6534 82.7094 38.5959C82.9894 38.2871 83.1721 37.9026 83.2347 37.4906C83.5263 36.2497 83.4861 34.9786 83.4308 33.7428C83.1643 28.749 79.9648 25.511 75.0536 24.8956C79.0424 29.9195 80.0578 35.5639 77.2629 41.1455C74.3047 47.0637 68.9436 48.8749 62.454 47.2974L62.4465 47.2898ZM114.142 53.728C110.12 52.3289 106.27 51.3743 102.442 50.3896C101.902 50.2514 101.716 50.573 101.502 50.9699C100.379 53.0649 99.2199 55.1398 98.1064 57.2498C97.8074 57.8125 97.3926 58.3601 97.4429 59.2067C103.312 58.4832 108.851 57.0665 114.152 53.7356L114.142 53.728ZM51.3398 117.414C52.0109 117.414 52.682 117.444 53.3505 117.414C53.8959 117.381 54.7078 117.665 54.8586 116.912C55.0094 116.158 54.1397 116.01 53.6396 115.681C53.4854 115.616 53.3243 115.57 53.1595 115.543C51.6867 115.04 50.1585 114.789 48.6354 114.523C47.0017 114.231 46.7026 113.455 47.6477 112.061C48.0654 111.435 48.5185 110.832 49.0049 110.257C51.7696 107.01 53.2776 103.224 53.2148 98.9938C53.1469 94.3768 51.4177 90.2019 49.0828 86.2631C48.8616 85.8939 48.6002 85.3236 48.0347 85.6552C47.532 85.9441 47.4968 86.5369 47.7557 87.0041C48.5399 88.4259 48.9823 89.9858 49.6458 91.4554C51.1408 94.7033 51.6486 98.3186 51.1061 101.852C50.6487 104.867 49.2085 107.545 47.5873 110.102C46.6046 111.657 45.4862 113.116 44.5034 114.681C43.674 115.995 43.7997 116.279 45.2574 116.691C47.2349 117.264 49.2928 117.511 51.3499 117.422L51.3398 117.414ZM80.8018 79.217C80.6032 78.6091 80.1583 78.5162 79.6934 78.4509C78.7841 78.3164 77.8587 78.3368 76.9563 78.5111C73.1862 79.2647 69.4764 79.4733 65.6988 78.3002C63.6942 77.7143 61.8443 76.6917 60.2825 75.3059C59.2771 74.4141 58.2717 73.5475 57.3066 72.6281C56.7134 72.0554 56.1957 72.3593 55.7458 72.6985C55.1903 73.1154 55.6352 73.5124 55.9469 73.8389C57.0754 75.0195 58.2089 76.1951 59.355 77.3557C61.2174 79.2321 63.6529 80.1716 66.0884 80.782C67.7453 81.2114 69.4446 81.4574 71.1554 81.5154C72.8595 81.5556 74.639 81.6335 76.1646 82.465C77.6902 83.2964 79.3515 83.3844 80.9752 83.6959C81.5985 83.8165 82.3651 83.7486 82.5134 82.995C82.6366 82.3721 82.0861 82.0078 81.508 81.7391C80.3971 81.2367 79.3013 81.6562 78.2004 81.6838C77.7178 81.6838 77.2378 81.7416 77.0719 81.1663C76.9211 80.6639 77.3232 80.4002 77.6726 80.1766C78.1382 79.8881 78.6731 79.731 79.2208 79.7219C79.7637 79.6968 80.3117 79.6792 80.8018 79.217ZM71.5022 114.385C72.0778 114.385 72.7866 114.385 73.4978 114.385C73.8296 114.385 74.2066 114.372 74.3222 113.968C74.4379 113.563 74.1086 113.37 73.8447 113.169C72.6785 112.282 71.3062 111.913 69.9012 111.662C68.6621 111.426 68.3178 110.815 69.0165 109.75C70.341 107.74 71.1856 105.51 71.922 103.249C73.1209 99.5615 73.4551 95.9091 71.2258 92.3999C70.6904 91.5533 70.1525 90.7118 69.5694 89.8879C69.293 89.5061 69.1044 88.8027 68.4786 89.2021C67.9759 89.5287 67.8126 90.1366 68.1921 90.7495C68.652 91.5031 69.0818 92.2567 69.5418 93.0102C71.369 95.9794 71.8491 99.0742 70.8311 102.483C69.7831 106 67.6442 108.898 65.8471 111.991C65.3067 112.923 65.3444 113.382 66.4252 113.722C68.0656 114.239 69.7835 114.467 71.5022 114.397V114.385ZM51.2644 85.9014C51.8199 87.0368 52.3326 87.8105 52.5839 88.6646C53.1972 90.7244 54.7706 91.1765 56.6054 91.2896C56.7726 91.2744 56.9408 91.2744 57.108 91.2896C58.3949 91.6187 59.7245 91.2419 61.0516 91.6061C61.6548 91.7744 62.6576 92.0205 63.2633 91.3724C63.9822 90.6013 64.98 89.9381 64.7965 88.4811C60.4634 87.3809 55.8614 87.4261 51.2619 85.9139L51.2644 85.9014ZM93.1676 61.7462C93.0275 61.8468 92.9191 61.9855 92.8554 62.1458C92.7917 62.3061 92.7754 62.4813 92.8082 62.6506C92.8384 64.4391 91.9763 65.6649 90.4356 66.4612C89.5835 66.9058 88.7315 67.348 87.8945 67.8177C87.3919 68.1066 86.7334 68.2774 86.5574 68.9832C88.1861 69.6263 97.2042 70.0608 98.5991 69.5785C98.2372 68.8601 97.546 68.5387 96.9201 68.1317C96.2038 67.662 95.5604 67.1119 95.6936 66.1221C95.9877 63.9744 94.3012 63.0525 93.1651 61.7588L93.1676 61.7462ZM83.4609 70.0659C82.9231 66.8807 85.7079 66.8003 87.1632 65.5268C83.1417 65.057 76.2902 66.5517 75.305 68.2422C77.9322 69.2033 80.6727 69.8205 83.4584 70.0785L83.4609 70.0659ZM95.495 60.9399C96.117 61.5543 96.6228 62.2759 96.988 63.07C97.1212 63.3212 97.2092 63.6478 97.5661 63.6478C99.2626 63.6478 100.957 63.6478 102.721 63.6478C102.784 62.6305 103.136 61.5503 103.043 60.3822C101.761 60.3822 100.688 61.0278 99.4712 61.1233C98.2548 61.2187 97.0709 60.754 95.4925 60.9525L95.495 60.9399ZM109.884 68.0086C108.331 66.7928 106.393 66.8305 104.626 66.2326C104.232 67.4409 104.317 68.5462 104.327 69.6238C106.438 69.8424 108.261 69.3575 109.882 68.0211L109.884 68.0086ZM102.429 65.999L98.3452 65.7478C99.1395 67.6092 101.399 67.9081 101.51 69.9328L101.962 69.7695C102.108 68.5687 102.256 67.3705 102.417 66.004L102.429 65.999ZM92.6524 51.7361C92.5695 51.3668 92.572 50.892 92.1497 50.671C91.647 50.4047 91.3957 50.8694 91.1167 51.1507C90.5387 51.7511 89.9681 52.3665 89.4503 53.0171C88.9326 53.6677 89.1412 54.459 89.7344 54.5444C90.604 54.6725 92.67 52.7082 92.6499 51.7411L92.6524 51.7361Z" fill="#1D2831"/>
<path d="M44.5914 49.3245C43.9379 50.6181 42.6058 51.4169 42.078 52.8186C41.8819 53.3336 41.2561 53.1201 40.8213 53.1201C35.5985 53.1 30.9186 51.2813 26.4699 48.7367C25.0171 47.9077 23.8333 46.6718 22.4333 45.7977C21.2548 45.0736 20.178 44.1959 19.2313 43.1877C16.6612 40.5159 14.7349 37.2934 13.5988 33.7653C13.164 32.3837 12.6588 30.9594 12.5934 29.5377C12.3899 24.2148 14.9836 19.5576 21.7195 20.6277C24.9054 21.1268 27.9167 22.4114 30.4812 24.3655C35.6393 28.2561 40.0343 33.0651 43.4453 38.5506C44.702 40.5602 45.9109 42.625 47.1626 44.6497C47.5195 45.2274 47.4994 45.6243 47.0168 46.1795C46.3759 46.9205 45.936 47.8324 45.2348 48.5383C45.1946 48.0183 44.7874 47.747 44.4556 47.4455C42.9099 46.0363 41.3391 44.6547 39.7933 43.2455C34.9498 38.8199 30.434 34.0488 26.2814 28.9699C25.3539 27.8396 24.3435 26.777 23.3658 25.6893C23.0416 25.3276 22.6369 25.006 22.1921 25.4381C21.805 25.8099 22.2172 26.1189 22.4434 26.3977C23.7227 27.9953 25.0146 29.5829 26.2914 31.1704C26.6936 31.6728 27.2389 32.0848 27.3897 32.7731C26.5352 32.9992 26.5377 32.9866 25.9923 32.9162C23.1044 32.5445 20.7318 31.1152 18.5426 29.3041C18.1732 28.9951 17.7182 28.4575 17.2683 28.985C16.8184 29.5125 17.4392 29.8969 17.771 30.2259C19.0955 31.5472 20.7267 32.4139 22.4233 33.1373C24.2656 33.9211 26.1305 34.7299 28.2192 34.1898C28.8651 34.024 29.1265 34.4988 29.4507 34.848C31.391 36.9279 33.2786 39.0556 35.3597 41.0023C35.7945 41.4093 36.3399 41.771 36.5913 42.5371C33.9246 42.8662 31.4011 42.4316 28.9154 41.7609C26.4296 41.0902 24.4415 39.5253 22.1669 38.4753C21.6517 38.2241 21.1138 37.8799 20.6589 38.5581C20.6887 38.7318 20.7594 38.896 20.8652 39.0371C20.9709 39.1782 21.1087 39.2921 21.2671 39.3696C24.1474 41.1631 27.0479 42.9164 30.4284 43.6273C32.4693 44.0594 34.6082 44.6321 36.6189 43.9614C37.8153 43.5645 38.3029 43.989 39.0544 44.6145C40.9293 46.1669 42.4374 48.1263 44.5914 49.3245Z" fill="#9FB1A3"/>
<path d="M61.0689 44.082C58.5153 43.0044 57.2385 40.8165 56.2709 38.4226C54.7427 34.632 56.1 29.4498 59.2869 26.6364C62.5719 23.73 67.4429 23.0819 71.1878 25.2573C74.3095 27.071 76.1216 29.8091 76.2146 33.5293C72.251 30.8666 67.8978 29.4523 63.1173 29.8065C61.8028 29.9045 60.5034 30.0577 59.1789 30.0301C58.5279 30.0301 57.8242 30.1507 57.3692 30.7334C57.0048 31.2007 57.0475 31.688 57.706 31.7106C58.8345 31.7457 59.9354 32.1577 61.0689 31.9618C63.2451 31.5817 65.4647 31.5183 67.659 31.7734C70.4916 32.1301 72.9849 33.3811 75.2445 35.0942C75.8979 35.5966 75.6567 36.3653 75.0911 36.4909C74.0606 36.7169 73.8344 37.4957 73.4474 38.199C73.1056 38.8069 72.7562 39.3822 71.9016 39.0305L71.8664 38.9928L71.9067 39.0255C71.8916 40.2136 71.404 41.0727 70.2931 41.6128C68.9987 42.2383 67.7018 42.693 66.2289 42.5623C65.309 42.482 64.4017 42.605 63.6049 43.3385C63.3938 42.7884 62.9565 42.5473 62.4262 42.6879C62.0215 42.7934 62.1371 43.2305 62.0994 43.5495C61.6319 43.5068 61.2574 43.6123 61.0689 44.082Z" fill="#3C5E65"/>
<path d="M87.6884 72.4798L88.2615 72.4924L88.3469 72.5477L88.4399 72.5025L89.2417 72.5326C88.8973 72.9043 89.2065 72.9144 89.4654 72.9144C90.7857 72.9144 92.1053 72.9144 93.4239 72.9144C93.6527 72.9144 93.7105 72.8114 93.532 72.6356C95.5629 72.3266 97.6087 72.52 99.6471 72.4371L103.093 73.6655C103.151 73.6975 103.215 73.718 103.281 73.7258V73.7107L103.807 73.9619L103.789 73.9418L104.041 74.193C104.543 74.7934 104.367 75.4214 103.932 75.8911C102.352 77.5892 101.014 79.5008 99.4083 81.1663C98.3577 82.259 97.1463 83.2386 96.0655 84.3188C94.8088 85.5748 93.341 86.0772 91.5666 86.0772C89.8675 86.0772 88.6938 85.1477 87.4546 84.2434L87.0626 83.9118L87.0173 83.8691L86.766 83.6631L86.7484 83.6455L86.4971 83.422L86.2156 83.1708L86.2382 83.1909L85.9868 82.9221C85.366 82.3846 84.9564 81.6159 84.1646 81.2642L84.142 81.2441C84.142 80.792 83.951 80.5559 83.4634 80.684C83.2389 80.3927 83.0997 80.0449 83.0613 79.6792C82.9481 77.7173 82.3651 77.0517 80.3719 76.4739C78.4115 74.4643 78.4542 74.3211 81.0405 72.9069C81.4853 72.6557 82.262 72.7537 82.2972 71.9473C83.3201 72.3693 84.4512 72.0202 85.4816 72.3894C85.3107 72.5125 85.0116 72.3341 84.8809 72.6783C85.8587 72.6054 86.7936 72.8767 87.6884 72.4798Z" fill="#855828"/>
<path d="M29.4984 75.9515C29.5638 76.1826 29.6316 76.4112 29.6995 76.6423C29.7146 77.2803 29.0008 78.2775 30.4535 78.2097C32.4509 82.3793 35.5733 85.9088 39.4691 88.4008C41.8015 89.908 44.2445 91.3122 47.0796 91.7216C47.4993 91.7819 47.6451 92.0407 47.7733 92.3446C48.374 93.7714 48.9345 95.2083 49.1959 96.7481C49.309 97.4163 49.1305 97.768 48.4192 97.8659C46.4864 98.1347 44.5888 98.4788 42.5957 98.4763C40.7243 98.498 38.8566 98.3067 37.0286 97.9061C29.9107 96.2658 24.0997 89.2423 24.904 81.4075C24.9945 80.5057 24.5923 79.5687 25.09 78.6995C25.9797 79.4531 27.1006 79.3276 27.0629 78.4685C26.9875 77.0392 28.2593 76.3132 28.38 74.9944C28.9354 75.2456 28.7921 76.0997 29.4984 75.9515ZM26.231 82.3268C26.5502 83.2286 25.3086 83.6632 25.5725 84.2887C26.417 86.2832 27.3645 88.4008 28.9404 89.7874C30.7676 91.4334 32.7337 92.9185 34.8168 94.2261C37.1608 95.6661 39.6555 96.8454 42.2564 97.7428C42.7348 97.8854 43.2301 97.9639 43.7292 97.9764C43.8565 97.9851 43.9829 97.9488 44.0862 97.874C44.1895 97.7992 44.2633 97.6906 44.2948 97.567C44.3232 97.4426 44.3058 97.3122 44.2458 97.1996C44.1858 97.087 44.0872 96.9999 43.968 96.9541C43.0948 96.4737 42.1962 96.041 41.2762 95.6579C37.352 94.1907 33.836 91.8067 31.0215 88.7048C29.2368 86.7249 27.6328 84.5897 26.2285 82.3244L26.231 82.3268Z" fill="#304E55"/>
<path d="M62.454 47.2973C68.941 48.8748 74.3021 47.0662 77.2679 41.1455C80.0628 35.5639 79.0474 29.9245 75.0586 24.8956C79.9698 25.511 83.1693 28.7489 83.4357 33.7427C83.5011 34.9987 83.5312 36.2547 83.2397 37.4906C83.1771 37.9026 82.9944 38.2871 82.7144 38.5959C81.6688 39.6534 81.6739 40.5577 82.7521 41.7082C84.6032 43.6427 86.5528 45.4806 88.5932 47.2145C90.423 48.797 90.3275 50.0806 88.2489 51.2914C87.7965 51.5552 87.5301 51.3215 87.2913 51.0226C85.082 48.2594 82.0132 46.7095 78.9544 45.1571C78.74 45.0259 78.5105 44.9213 78.2708 44.8456C77.6122 44.6974 76.8331 44.2151 76.4134 45.1647C75.9936 46.1142 76.916 46.2298 77.4187 46.5865C78.0647 47.0437 78.7081 47.5084 79.3666 47.9454C79.922 48.3147 79.8692 48.699 79.5375 49.2014C78.4718 50.7915 76.7728 51.3919 75.0913 51.8013C70.7859 52.8438 66.8876 52.0877 63.7459 48.7041C63.3387 48.272 62.6877 48.0685 62.454 47.2973Z" fill="#304E55"/>
<path d="M52.7471 40.5452C51.5023 41.5701 50.3393 42.6905 49.2686 43.8961C47.7355 40.0126 44.7219 37.0887 43.3395 33.2153C42.4196 30.6329 42.6057 28.0356 43.053 25.4281C43.1791 24.4369 43.4501 23.4695 43.8573 22.5569C45.481 19.2537 48.1451 18.691 51.3145 20.0449C53.8455 21.1175 55.8386 23.0066 57.5653 25.2623C53.471 29.2212 52.3853 33.9261 54.0466 39.2967C53.0538 39.1787 53.2423 38.2693 53.0538 37.6915C51.6011 33.2479 50.2137 28.7841 48.7811 24.3354C48.585 23.73 48.4644 23.0016 47.6274 22.8483C47.0141 23.3909 47.2806 24.0264 47.4565 24.6067C47.8561 25.9255 48.3336 27.2191 48.7484 28.5329C49.1379 29.7613 49.5024 31.0021 49.8869 32.341C48.1426 32.0245 47.2529 30.5525 45.4684 30.1581C46.0716 31.7206 47.0216 32.738 48.2331 33.1323C50.46 33.8558 51.1084 35.5614 51.5709 37.5107C51.7267 38.1613 51.9001 38.8094 52.0736 39.4575C52.1691 39.882 52.2294 40.3568 52.7471 40.5452Z" fill="#9FB1A3"/>
<path d="M93.5295 89.8049C93.36 90.3156 93.2627 90.8474 93.2404 91.385C93.3661 96.5672 93.2882 101.749 93.1248 106.929C93.0293 109.943 94.2156 111.134 96.9678 111.925C98.3275 112.315 99.7576 112.493 101.029 113.161C101.547 113.433 102.178 113.762 102.08 114.417C101.992 114.995 101.326 115.111 100.806 115.256C95.1481 116.819 89.4804 116.666 83.8001 115.397C83.6047 115.346 83.4176 115.267 83.2447 115.163C82.8149 114.927 82.1966 114.797 82.1765 114.226C82.1564 113.656 82.6791 113.297 83.1818 113.071C84.2927 112.568 85.3584 112.023 86.6327 111.878C89.4125 111.559 90.7245 109.953 90.6943 107.155C90.6416 102.307 90.3551 97.464 90.5511 92.6159C90.624 90.8047 90.1691 89.2473 88.6987 88.0767C88.5223 87.9029 88.3648 87.7109 88.2287 87.504C88.7138 87.0569 89.3648 86.361 89.7795 87.3206C90.3701 88.6871 91.2699 88.5967 92.4009 88.3706C92.9464 88.2601 93.5294 88.3506 94.1452 88.3506C94.095 88.76 94.0623 89.0363 94.0271 89.3126V89.2724L93.7582 89.5512L93.7833 89.5287C93.7004 89.6216 93.6199 89.712 93.5295 89.8049Z" fill="#C0B9A3"/>
<path d="M54.7076 84.241C50.3366 83.3874 46.1105 81.9122 42.1583 79.8601C44.2067 78.3781 44.3097 77.9862 43.1636 76.0118C44.4756 75.8334 44.5962 74.8211 45.026 73.7987C45.5287 72.6281 45.3377 71.7892 44.6666 70.9476C43.9553 70.0559 42.945 70.0609 41.9271 70.3347C41.5274 70.4427 41.1403 70.5859 40.7457 70.7165C39.8836 67.785 39.2553 67.3203 37.0134 67.9659C37.9835 65.7051 38.5993 63.2836 39.9163 61.1635C40.5573 62.4044 41.5123 62.5023 42.6559 61.917C43.4099 62.4747 43.9704 63.575 45.1693 62.726C44.7898 63.2886 44.8225 63.8915 44.9331 64.5295C45.6217 68.511 47.087 72.2463 48.5624 75.9741C48.6782 76.2541 48.862 76.5008 49.0971 76.6919C49.3323 76.8831 49.6114 77.0127 49.9093 77.069C50.2071 77.1254 50.5143 77.1067 50.8031 77.0146C51.0919 76.9226 51.3532 76.7601 51.5634 76.5418C52.1892 75.9314 52.7321 75.2406 53.3579 74.5322C54.5041 75.3763 55.3083 76.4991 56.2659 77.4637C54.1773 77.7149 53.7048 78.8829 54.964 80.9C53.8757 81.0256 53.4911 81.6537 54.2502 82.4299C54.8182 83.0152 54.783 83.5728 54.7076 84.241Z" fill="#57988E"/>
<path d="M85.1749 30.2862L82.6616 25.7496L87.2133 25.2196L87.0751 25.7094C88.3041 25.3527 88.3041 25.3528 87.6758 24.4233C90.0936 24.7223 91.8229 26.2344 93.2756 27.9526C95.4798 30.56 96.4073 33.6598 95.7639 37.0786C95.2838 39.6207 93.8135 41.5625 91.7424 43.0747C91.3051 42.3061 90.9105 41.5072 89.9278 41.2686C88.4474 40.9069 86.9117 40.7511 85.5143 39.9573L84.9261 40.5828C84.622 40.1508 84.9412 39.7765 85.0593 39.4022C85.8979 36.8544 86.0428 34.1294 85.4791 31.5071C85.8561 31.6478 86.1702 31.8035 86.6428 31.6025C88.5404 30.8023 90.6654 30.7237 92.6171 31.3815C93.1977 31.5649 93.826 31.6327 94.3765 31.2333C93.4867 29.3819 87.9874 28.8494 85.1749 30.2862Z" fill="#3C5E65"/>
<path d="M54.0918 54.2605C55.7279 56.5827 57.6022 58.7279 59.6841 60.661C60.3979 61.3116 60.9986 61.3946 61.7828 60.8997C62.8082 60.2567 63.889 59.699 64.8868 59.0183C65.8419 58.3677 66.4602 57.5111 65.96 56.2551L66.1762 56.0541C67.3449 57.9557 68.0361 60.0431 68.5966 62.1833C68.3251 63.1077 68.7399 63.8789 69.147 64.6526L69.2828 66.0166C68.9384 66.2452 68.5866 66.4662 68.2472 66.6998C67.3525 67.3178 66.9403 67.1872 66.8448 66.1547C66.7191 64.7882 65.8871 64.0799 64.7008 63.7106C63.6452 63.3815 61.8607 64.0723 61.2223 64.9339C60.7875 65.5217 60.8101 66.0216 61.2499 66.6245C61.7275 67.2852 62.5393 67.6971 62.7881 68.7396C61.9436 68.8727 61.7451 69.9478 60.7774 69.9956C61.2097 69.1214 61.1017 68.3276 60.5035 67.5464C59.0083 65.6346 57.6932 63.5886 56.5751 61.4347C56.3237 60.9323 56.0422 60.1335 55.2002 60.548C54.4462 60.9273 54.7352 61.6407 54.9338 62.2009C55.2153 62.9846 55.615 63.7257 55.9643 64.4843C55.4792 64.2482 55.0168 63.9216 54.504 63.796C53.3177 63.5046 52.2872 63.899 51.4452 64.7606C50.8696 65.3534 50.8998 66.0166 51.317 66.6898C49.4823 66.627 48.8037 67.0038 48.2055 68.4482C47.4288 67.1193 47.0769 65.6398 46.7225 64.1653C46.5466 63.4117 46.338 62.7184 45.4257 62.5802C46.1269 61.8568 47.3836 61.7513 47.6751 60.5706C48.311 60.2717 47.9717 59.6914 47.9592 59.2845C47.9366 58.4957 48.2582 58.1842 48.9846 58.1566C51.6136 59.9652 52.4808 59.5709 53.1116 56.3555C53.2675 55.6045 53.4057 54.783 54.0918 54.2605Z" fill="#57988E"/>
<path d="M44.5911 49.3245C42.4372 48.1263 40.9291 46.167 39.0617 44.6221C38.3077 43.9966 37.8226 43.5721 36.6262 43.969C34.6155 44.6347 32.4767 44.067 30.4358 43.6349C27.0628 42.924 24.1523 41.1706 21.2744 39.3771C21.116 39.2997 20.9783 39.1858 20.8725 39.0447C20.7668 38.9036 20.696 38.7395 20.6662 38.5657C21.1111 37.8875 21.6489 38.2442 22.1742 38.4829C24.4489 39.5329 26.4722 41.1078 28.9227 41.7685C31.3733 42.4291 33.9318 42.8738 36.5986 42.5447C36.3472 41.7786 35.8018 41.4168 35.367 41.0099C33.2859 39.0631 31.3984 36.9355 29.458 34.8555C29.1338 34.5064 28.8724 34.0316 28.2265 34.1974C26.1379 34.7375 24.2729 33.9287 22.4306 33.1449C20.7341 32.4215 19.1029 31.5548 17.7783 30.2335C17.4491 29.9045 16.8433 29.5051 17.2756 28.9926C17.7079 28.4802 18.1805 28.9926 18.55 29.3117C20.7391 31.1228 23.1117 32.5521 25.9996 32.9238C26.545 32.9942 26.5425 33.0067 27.3971 32.7806C27.2463 32.0924 26.7008 31.6804 26.2987 31.178C25.0219 29.5804 23.7301 27.9929 22.4507 26.4053C22.227 26.1265 21.8148 25.8175 22.1994 25.4457C22.6443 25.0161 23.0489 25.3377 23.3731 25.6969C24.3508 26.7846 25.3612 27.8472 26.2887 28.9775C30.4413 34.0564 34.9571 38.8275 39.8007 43.2531C41.3464 44.6623 42.9172 46.0439 44.463 47.4531C44.7947 47.7546 45.2019 48.0258 45.2421 48.5458C45.1205 48.872 44.8907 49.1469 44.5911 49.3245Z" fill="#3C5E65"/>
<path d="M62.087 43.547C62.1222 43.228 62.0066 42.7934 62.4112 42.6854C62.9416 42.5447 63.3789 42.7859 63.59 43.336C64.3868 42.6025 65.2941 42.4794 66.214 42.5598C67.6868 42.6904 68.9787 42.2358 70.2782 41.6103C71.3941 41.0702 71.8767 40.2111 71.8918 39.0229C72.7463 39.3746 73.0956 38.7994 73.4375 38.1915C73.8321 37.4856 74.0507 36.7094 75.0812 36.4833C75.6467 36.3577 75.888 35.5841 75.2345 35.0867C72.9725 33.3735 70.4817 32.1226 67.6492 31.7659C65.4549 31.5108 63.2351 31.5742 61.059 31.9543C59.9255 32.1427 58.8246 31.7307 57.6961 31.7031C57.0376 31.6805 56.9949 31.2006 57.3593 30.7259C57.8142 30.1431 58.518 30.015 59.169 30.0225C60.4935 30.0401 61.7929 29.8969 63.1074 29.799C67.8829 29.4448 72.2411 30.859 76.2047 33.5217C77.1322 38.8923 74.0281 44.2478 68.5338 45.3079C65.9149 45.8103 63.3915 45.5114 61.0741 44.0745C61.2576 43.6123 61.6321 43.5068 62.087 43.547Z" fill="#304E55"/>
<path d="M114.152 53.7356C108.851 57.0665 103.312 58.4833 97.4529 59.2017C97.4026 58.3552 97.8173 57.8075 98.1164 57.2449C99.2299 55.1474 100.378 53.0725 101.512 50.9649C101.726 50.568 101.912 50.2465 102.452 50.3846C106.28 51.3819 110.118 52.339 114.152 53.7356Z" fill="#D68734"/>
<path d="M51.3499 117.422C49.2961 117.51 47.2417 117.263 45.2675 116.691C43.8047 116.286 43.679 116.002 44.5134 114.681C45.4962 113.126 46.6146 111.667 47.5973 110.102C49.2134 107.545 50.6536 104.869 51.1161 101.852C51.6585 98.3186 51.1508 94.7033 49.6558 91.4553C48.9923 89.9858 48.5499 88.4259 47.7658 87.0041C47.5144 86.5369 47.5546 85.944 48.0447 85.6552C48.6102 85.3236 48.8717 85.9064 49.0928 86.2631C51.4278 90.1968 53.157 94.3768 53.2248 98.9938C53.2852 103.226 51.7872 107.009 49.0149 110.257C48.5285 110.832 48.0753 111.435 47.6576 112.061C46.7126 113.455 47.0117 114.231 48.6454 114.523C50.1711 114.797 51.6992 115.04 53.1695 115.543C53.3343 115.57 53.4954 115.616 53.6496 115.681C54.1523 116.01 55.0118 116.163 54.8686 116.912C54.7253 117.66 53.9135 117.374 53.3605 117.414C52.692 117.452 52.0209 117.422 51.3499 117.422Z" fill="#304E55"/>
<path d="M54.092 54.2605C53.3983 54.783 53.2676 55.6019 53.1219 56.3555C52.491 59.5709 51.6138 59.9652 48.9948 58.1566C48.6681 57.9456 48.3715 57.5412 47.9266 57.8476C47.5672 58.0988 47.6954 58.5008 47.7005 58.865C47.7005 59.4327 47.7004 60.0029 47.6854 60.5706C47.3938 61.7513 46.1371 61.8568 45.4359 62.5802L45.1695 62.7159C43.9706 63.5649 43.4101 62.4647 42.6561 61.907C42.8144 61.6131 42.9074 61.2413 43.1386 61.0429C44.5788 59.817 45.27 58.237 45.4912 56.3982C45.5235 56.1024 45.6514 55.8252 45.8555 55.6086C46.0596 55.3919 46.3287 55.2476 46.6222 55.1975C47.8437 55.0191 47.6678 54.3585 47.4818 53.4944C47.2304 52.354 46.4764 52.0927 45.4836 52.0827C46.7971 50.202 48.2461 48.4196 49.8192 46.7498L51.8023 50.8166C50.797 50.3142 50.7718 51.2311 50.4878 51.7335C50.1736 52.2937 50.4199 52.6705 50.9679 52.9091C51.7141 53.2196 52.5299 53.3245 53.3304 53.2131L54.092 54.2605Z" fill="#D68734"/>
<path d="M80.8016 79.217C80.2989 79.6692 79.756 79.6867 79.2157 79.7194C78.668 79.7285 78.133 79.8856 77.6674 80.1741C77.3306 80.3976 76.9134 80.6538 77.0667 81.1638C77.2326 81.739 77.7127 81.6938 78.1952 81.6813C79.2961 81.6536 80.3919 81.2266 81.5029 81.7365C82.086 82.0078 82.6364 82.372 82.5082 82.9925C82.3599 83.7461 81.5933 83.8139 80.97 83.6934C79.3464 83.3819 77.7026 83.2964 76.1594 82.4624C74.6162 81.6285 72.8543 81.5531 71.1502 81.5129C69.4394 81.4549 67.7402 81.2089 66.0832 80.7794C63.6477 80.169 61.2123 79.2296 59.3498 77.3531C58.2012 76.1951 57.0702 75.0195 55.9417 73.8364C55.63 73.5098 55.1877 73.1129 55.7406 72.6959C56.1905 72.3568 56.7083 72.0529 57.3014 72.6256C58.259 73.5525 59.2845 74.4116 60.2773 75.3033C61.8392 76.6891 63.689 77.7118 65.6936 78.2976C69.4637 79.4707 73.1886 79.2521 76.9511 78.5086C77.8535 78.3343 78.7789 78.3139 79.6882 78.4483C80.1657 78.5262 80.6106 78.6191 80.8016 79.217Z" fill="#304E55"/>
<path d="M60.7876 69.9981C61.7427 69.9404 61.9412 68.8652 62.7983 68.7421C62.5469 67.6997 61.7376 67.2877 61.2601 66.627C60.8202 66.0241 60.7976 65.5243 61.2324 64.9365C61.8709 64.0749 63.6553 63.3841 64.711 63.7132C65.8973 64.0824 66.7217 64.7908 66.8549 66.1573C66.9504 67.1897 67.3576 67.3203 68.2574 66.7024C68.5967 66.4688 68.9485 66.2477 69.2929 66.0217H69.3758L69.4563 65.9941L69.788 65.9362L70.4641 66.4386C71.2181 69.8499 70.8336 70.7366 68.2297 71.548C68.187 71.5631 68.177 71.6887 68.1543 71.754C68.187 72.0052 68.3906 72.0705 68.5665 72.1835C70.3586 73.3466 70.5571 74.2082 69.4688 76.0042C69.3205 76.2554 69.1898 76.5066 69.0516 76.7578C68.1242 76.7578 67.2922 76.4012 66.4075 76.1675C66.8474 75.7305 66.4327 75.3612 66.2366 75.0673C65.8621 74.5121 65.935 74.1228 66.3648 73.6329C67.815 71.9725 67.7874 71.965 66.6488 70.2443C66.4037 69.8528 66.0554 69.5365 65.6422 69.33C65.2289 69.1235 64.7667 69.0348 64.3063 69.0737C63.883 69.109 63.4775 69.2591 63.1333 69.5079C62.7891 69.7567 62.5195 70.0947 62.3534 70.4854C61.9286 71.4902 62.831 71.9499 63.3965 72.4398C63.4442 73.3516 62.1398 73.3239 62.3057 74.2257C60.9761 73.3666 59.9129 72.2162 58.7869 71.0381C59.4907 70.6763 60.1391 70.3347 60.7876 69.9981Z" fill="#D68734"/>
<path d="M69.039 76.7653C69.1772 76.5141 69.3079 76.2479 69.4562 76.0117C70.5445 74.2157 70.346 73.3541 68.5539 72.191C68.378 72.078 68.1744 72.0127 68.1417 71.7615C68.1643 71.6962 68.1744 71.5706 68.2171 71.5555C70.821 70.7441 71.2106 69.8574 70.4515 66.4461C70.6947 66.3963 70.9155 66.2698 71.0815 66.0854C71.2475 65.9009 71.35 65.6682 71.3739 65.4213L73.9351 59.1061C74.5207 59.5734 75.1516 59.9376 75.9307 59.9426C76.1142 61.6232 76.6043 63.3212 75.6618 64.9415C75.1591 64.9013 74.6564 64.8937 74.4051 65.4564V65.4388L74.1538 65.7578L73.8697 65.9488C73.7599 65.9609 73.6553 66.0023 73.5669 66.0686C73.4785 66.1349 73.4095 66.2236 73.3671 66.3256C71.9897 67.6544 72.319 68.9807 73.2891 70.3849C73.7466 71.0506 74.0205 71.8419 74.3799 72.5754C74.4654 72.7889 74.5509 73.0024 74.6313 73.2159L74.6162 73.1958C74.7067 73.2812 74.7947 73.3691 74.8826 73.447C74.8826 73.9494 74.8826 74.4267 75.3853 74.703L75.3702 74.6904L75.6216 74.9617V74.9416C75.7095 75.115 75.795 75.2908 75.8729 75.4641L75.8578 75.4465L76.1092 75.6977V75.7229C76.1092 75.9389 76.1092 76.1574 76.1092 76.3734C73.8371 77.1245 71.4493 77.1622 69.039 76.7653Z" fill="#57988E"/>
<path d="M34.4322 68.6667C33.3313 70.8722 33.4268 73.354 32.8487 75.6852C32.5798 76.7854 33.374 77.5867 34.2864 78.0866C37.1441 79.6516 40.0295 81.1663 42.9073 82.6961C43.2818 82.8946 43.6387 83.0704 43.8172 83.5024C44.6215 85.4593 45.3855 87.4311 46.4084 89.2423C46.3081 89.3534 46.1711 89.4247 46.0225 89.4432C45.8739 89.4616 45.7236 89.426 45.5991 89.3428C39.7706 86.8057 34.877 83.2387 32.1651 77.2376C31.9137 76.6649 32.2832 75.9464 31.7026 75.4792C31.5995 75.2908 31.499 75.1024 31.3985 74.9115C31.3834 74.8645 31.3783 74.8149 31.3834 74.7658C32.2505 73.6228 32.7557 72.3945 32.5898 70.9049C32.4918 70.0332 33.5751 68.835 34.4322 68.6667Z" fill="#304E55"/>
<path d="M71.5022 114.397C69.7838 114.469 68.0659 114.242 66.4252 113.726C65.3469 113.387 65.3067 112.928 65.8471 111.996C67.6442 108.904 69.783 106.005 70.8311 102.488C71.8365 99.0792 71.369 95.9844 69.5418 93.0153C69.0818 92.2617 68.652 91.5081 68.1921 90.7545C67.8125 90.1416 67.9659 89.5337 68.4786 89.2071C69.1044 88.8077 69.293 89.5111 69.5694 89.8929C70.1525 90.7068 70.6904 91.5483 71.2257 92.4049C73.4551 95.9216 73.1208 99.5665 71.922 103.254C71.1855 105.515 70.341 107.735 69.0165 109.755C68.3177 110.82 68.6621 111.431 69.9012 111.667C71.3062 111.938 72.6785 112.297 73.8447 113.174C74.096 113.375 74.4378 113.571 74.3222 113.973C74.2066 114.375 73.8195 114.385 73.4978 114.39C72.784 114.407 72.0753 114.397 71.5022 114.397Z" fill="#304E55"/>
<path d="M58.7089 46.3102C60.5738 49.2617 63.0847 51.7109 65.0854 54.557C64.0096 54.9765 65.1532 55.3885 65.0854 55.813L64.5827 56.122C64.2559 55.9738 64.2082 56.2099 64.1479 56.4334L63.8965 56.662C62.768 56.5239 61.9713 55.2679 60.6291 55.7075C60.4381 56.4962 60.0209 57.0514 59.0759 56.9032L59.0557 56.8831C58.9929 56.3581 58.8044 55.8632 58.9075 55.3005C59.3674 52.555 57.97 51.3467 55.2731 52.1179L54.4537 50.8217C54.5065 49.9149 54.5341 48.9879 55.9994 49.3622C55.9391 48.0459 56.6831 47.7018 57.8116 47.855C57.7362 47.0386 58.0403 46.5614 58.7089 46.3102Z" fill="#BD6530"/>
<path d="M51.2617 85.9139C55.8612 87.4211 60.4632 87.3809 64.7988 88.5013C64.9823 89.9582 63.9845 90.6214 63.2657 91.3925C62.6599 92.0406 61.6571 91.7944 61.0539 91.6261C59.7268 91.2619 58.3972 91.6261 57.1104 91.3096C56.9432 91.2945 56.7749 91.2945 56.6077 91.3096C54.7679 91.2041 53.1945 90.7444 52.5863 88.6846C52.3299 87.823 51.8172 87.0493 51.2617 85.9139Z" fill="#304E55"/>
<path d="M34.4323 68.6667C33.5752 68.8275 32.4919 70.0257 32.5899 70.8998C32.7558 72.3894 32.2506 73.6178 31.3835 74.7608C30.7677 74.2584 30.7954 73.5047 30.5666 72.8441C29.9333 71.0129 30.1671 69.0887 29.9333 67.2148C29.868 66.6822 30.2475 66.2803 30.5365 65.8759C32.0202 63.8461 33.8503 62.0935 35.9428 60.6987C36.6968 60.1788 37.4509 59.6437 38.2049 59.1162L38.235 59.1464C37.481 60.9324 36.7923 62.7334 35.9981 64.4968C35.3991 65.8566 34.8764 67.2488 34.4323 68.6667Z" fill="#3C5E65"/>
<path d="M94.0346 89.3126C94.0698 89.0363 94.1025 88.76 94.1527 88.3505C93.537 88.3505 92.9539 88.2601 92.4085 88.3706C91.2774 88.5967 90.3776 88.6871 89.787 87.3206C89.3723 86.361 88.7213 87.0568 88.2362 87.504C88.2149 87.495 88.1964 87.4805 88.1827 87.462C88.169 87.4434 88.1606 87.4215 88.1583 87.3985L87.907 87.0744L87.9723 87.0267L87.9095 87.077L87.6581 86.8082L87.4068 86.5394L87.1555 86.2656L86.9041 85.9918L86.5673 85.6301L86.497 85.5497L86.3386 85.3738L86.2708 85.3035C86.2104 85.2331 86.1476 85.1628 86.0873 85.0899L86.0521 85.0523L85.841 84.8187L85.8083 84.7885C85.7838 84.671 85.7309 84.5613 85.6542 84.4689C85.5776 84.3766 85.4795 84.3043 85.3685 84.2585L85.1171 83.9847C85.0744 83.3843 84.911 82.696 85.9365 82.902L86.1878 83.1708L86.1652 83.1507C86.2607 83.2311 86.3537 83.314 86.4467 83.4019L86.698 83.6255L86.7156 83.6431L86.967 83.849L87.0122 83.8918C87.0449 84.1204 87.0901 84.3313 87.4043 84.2233C88.6434 85.1276 89.8171 86.0571 91.5162 86.0571C93.2906 86.0571 94.7534 85.5547 96.0152 84.2987C97.0984 83.2185 98.3074 82.2389 99.358 81.1462C100.956 79.4857 102.294 77.5741 103.882 75.871C104.317 75.4013 104.5 74.7733 103.99 74.1729C104.679 74.4241 105.083 75.4616 106.064 74.9416C103.784 77.956 101.454 80.9502 98.8854 83.7335C97.2819 85.5999 95.6708 87.4688 94.0346 89.3126Z" fill="#EAD8B3"/>
<path d="M40.7457 70.7065C41.1403 70.5784 41.5274 70.4327 41.927 70.3247C42.9449 70.0509 43.9553 70.0459 44.6666 70.9376C45.3377 71.7766 45.5211 72.6181 45.026 73.7887C44.5962 74.811 44.4756 75.8234 43.1636 76.0017C41.7134 75.3561 40.2581 74.6453 38.8908 76.2957C39.024 76.8784 39.3658 77.5114 38.9913 78.162C38.2248 77.7425 37.4833 77.2452 36.6815 76.9061C35.3243 76.3509 34.8594 75.4943 35.3771 74.0851C35.5689 73.4513 35.7208 72.8061 35.8321 72.1534C35.9879 72.2815 36.2744 72.4046 36.282 72.5327C36.3624 73.7108 37.0133 73.4973 37.7472 73.1883C38.2512 73.0024 38.6886 72.671 39.0039 72.2363C39.4538 71.6058 39.9364 70.9577 40.7457 70.7065Z" fill="#BD6530"/>
<path d="M54.7076 84.241C54.783 83.5828 54.8182 83.0252 54.2502 82.4349C53.4961 81.6461 53.8757 81.0307 54.964 80.9051C53.7073 78.8955 54.1773 77.7124 56.2659 77.4687C58.0554 79.315 60.1491 80.7493 62.3885 81.9902C62.2955 84.6052 62.2955 84.6052 60.3074 85.2332C58.4324 84.9945 56.5323 84.7961 54.7076 84.241Z" fill="#BD6530"/>
<path d="M93.165 61.7588C94.3011 63.0525 95.9875 63.9744 95.6784 66.1372C95.5452 67.1244 96.1811 67.6745 96.9049 68.1468C97.5308 68.5537 98.222 68.8752 98.5839 69.5937C97.189 70.0759 88.1709 69.6414 86.5422 68.9983C86.7182 68.2925 87.3641 68.1216 87.8794 67.8328C88.7163 67.363 89.5684 66.9209 90.4204 66.4763C91.9611 65.6725 92.8232 64.4542 92.793 62.6657C92.761 62.4948 92.779 62.3182 92.845 62.1573C92.911 61.9964 93.0221 61.858 93.165 61.7588Z" fill="#855828"/>
<path d="M52.7471 40.5452C52.2294 40.3568 52.169 39.882 52.0559 39.4399C51.8926 38.7918 51.7191 38.1437 51.5533 37.4931C51.0908 35.5438 50.4424 33.8382 48.2155 33.1148C47.0016 32.7204 46.0515 31.703 45.4508 30.1406C47.2353 30.5349 48.125 32.007 49.8693 32.3235C49.4722 30.9846 49.1153 29.7437 48.7307 28.5153C48.316 27.2016 47.8385 25.9079 47.4389 24.5891C47.2629 24.0164 46.9965 23.3809 47.6098 22.8307C48.4467 22.984 48.5674 23.7124 48.7634 24.3178C50.1936 28.7665 51.5809 33.2303 53.0362 37.674C53.2247 38.2518 53.0362 39.1611 54.029 39.2791C53.9837 40.093 53.2523 40.2011 52.7471 40.5452Z" fill="#3C5E65"/>
<path d="M58.7089 46.3102C58.0404 46.5614 57.7362 47.0462 57.8091 47.845C56.6806 47.6918 55.9367 48.0359 55.997 49.3522C54.5317 48.9779 54.504 49.9048 54.4512 50.8116C53.3177 49.2542 52.5863 47.4682 51.6036 45.8254C51.2643 45.2552 51.4654 44.906 51.8549 44.5367L55.1877 41.4319C56.1704 43.2958 57.8041 44.5166 58.7089 46.3102Z" fill="#57988E"/>
<path d="M45.4834 52.0876C46.4737 52.0876 47.2428 52.359 47.4815 53.4994C47.6675 54.3635 47.8435 55.0241 46.622 55.2025C46.3285 55.2526 46.0593 55.3969 45.8552 55.6135C45.6512 55.8302 45.5233 56.1074 45.4909 56.4032C45.2698 58.242 44.5786 59.822 43.1384 61.0478C42.9021 61.2463 42.8142 61.6181 42.6558 61.912C41.5122 62.4973 40.5572 62.3993 39.9163 61.1584C41.4435 57.9453 43.3098 54.9045 45.4834 52.0876Z" fill="#BD6530"/>
<path d="M83.4584 70.0785C80.6724 69.8248 77.931 69.2118 75.3024 68.2548C76.2877 66.5643 83.1342 65.0696 87.1606 65.5394C85.7054 66.823 82.9205 66.8933 83.4584 70.0785Z" fill="#C0B9A3"/>
<path d="M51.3272 66.6923C50.91 66.0191 50.8798 65.356 51.4554 64.7631C52.2974 63.9015 53.3279 63.5072 54.5142 63.7986C55.0168 63.9242 55.4894 64.2507 55.9744 64.4868C56.7134 65.8885 57.6559 67.157 58.6386 68.5261L55.8362 69.9454C55.5849 68.5387 55.2079 68.3628 53.8431 68.9029C53.0891 69.2018 52.4859 69.1716 52.4582 68.0915C52.4406 67.3856 52.1491 66.7953 51.3272 66.6923Z" fill="#D68734"/>
<path d="M62.2932 74.2332C62.1374 73.3314 63.4318 73.3591 63.384 72.4472C62.8185 71.9448 61.9162 71.4902 62.341 70.4929C62.507 70.1022 62.7767 69.7642 63.1208 69.5154C63.465 69.2666 63.8706 69.1164 64.2939 69.0811C64.7542 69.0422 65.2165 69.1309 65.6297 69.3374C66.043 69.5439 66.3913 69.8603 66.6364 70.2518C67.7749 71.9725 67.8026 71.98 66.3523 73.6404C65.9226 74.1302 65.8497 74.5196 66.2242 75.0747C66.4202 75.3686 66.8349 75.7379 66.3951 76.175C64.911 75.81 63.5159 75.1496 62.2932 74.2332Z" fill="#BD6530"/>
<path d="M29.4983 75.9515C28.7921 76.1022 28.9354 75.2481 28.39 74.9944C28.2693 76.3132 26.9975 77.0391 27.0729 78.4685C27.1182 79.3276 25.9897 79.4431 25.0999 78.6995C25.2256 75.3285 26.525 72.3643 28.2718 69.5208C28.4682 71.6994 28.879 73.8534 29.4983 75.9515Z" fill="#3C5E65"/>
<path d="M75.9307 59.9301C75.1515 59.9301 74.5207 59.5608 73.9351 59.0936C74.1162 58.6284 74.2632 58.1508 74.3749 57.6643C74.7821 55.1774 75.7271 53.1829 78.5773 52.8287C78.7482 53.7958 79.1302 54.7001 79.4092 55.6371C79.7661 56.8378 78.9895 56.8429 78.1374 56.6419C76.2725 55.936 75.81 56.3079 76.0915 58.2697C76.1619 58.7595 76.2172 59.2544 76.28 59.7467L75.9307 59.9301Z" fill="#BD6530"/>
<path d="M40.7458 70.7065C39.9365 70.9577 39.4539 71.6058 39.0065 72.2438C38.6912 72.6785 38.2538 73.0099 37.7498 73.1958C37.0159 73.5048 36.3649 73.7183 36.2845 72.5402C36.2845 72.4045 35.9905 72.289 35.8347 72.1609C36.2267 70.7592 36.6205 69.3575 37.0159 67.9558C39.2554 67.3103 39.8837 67.775 40.7458 70.7065Z" fill="#D68734"/>
<path d="M51.3271 66.6923C52.154 66.7953 52.4406 67.3856 52.4582 68.0915C52.4858 69.1716 53.0865 69.2018 53.843 68.9028C55.2078 68.3628 55.5773 68.5386 55.8362 69.9453L53.2675 71.3973C52.9885 71.0958 52.609 70.8773 52.5135 70.4301C52.3501 69.6414 51.87 69.365 51.0708 69.4102C50.2011 69.4605 49.2612 69.2671 48.9545 70.4402C48.7082 69.7703 48.4569 69.1063 48.2005 68.4481C48.8213 67.0063 49.4924 66.6295 51.3271 66.6923Z" fill="#BD6530"/>
<path d="M38.9913 78.162C39.3658 77.5114 39.024 76.8784 38.8908 76.2956C40.2581 74.6453 41.7133 75.3561 43.1636 76.0017C44.3097 77.9761 44.2066 78.368 42.1582 79.85L38.9913 78.162Z" fill="#D68734"/>
<path d="M106.129 74.9843C105.149 75.5043 104.744 74.482 104.056 74.2157L103.804 73.9645L103.822 73.9846L103.297 73.7334V73.7484C103.259 73.6404 103.211 73.5726 103.106 73.6882L99.6522 72.4347C101.447 71.9599 103.324 72.1131 105.131 71.7213C106.421 71.4449 107.718 71.2189 109.125 70.9376L107.404 73.3038C107.082 72.6834 107.082 72.6833 106.011 73.7233C106.053 73.8773 106.126 74.0214 106.225 74.147C106.324 74.2725 106.447 74.377 106.587 74.4543L106.376 74.7231L106.089 74.9893L106.129 74.9843Z" fill="#C0B9A3"/>
<path d="M68.1316 54.0973C69.044 54.0043 69.9437 54.3485 70.8662 54.1626C71.9947 53.9516 72.2737 54.5746 72.1229 55.5442C71.9274 56.652 71.6166 57.7364 71.1954 58.7796C70.9717 59.3573 70.7606 59.9401 70.4992 60.636L68.114 54.1275L68.1316 54.0973Z" fill="#304E55"/>
<path d="M84.9387 40.5829L85.5268 39.9574C86.9192 40.7512 88.4599 40.9069 89.9403 41.2686C90.923 41.5198 91.3176 42.3061 91.755 43.0748C91.6314 43.1861 91.4995 43.2877 91.3604 43.3787C89.0657 44.685 89.0179 44.6825 87.1203 42.8161C86.3763 42.0876 85.665 41.3289 84.9387 40.5829Z" fill="#304E55"/>
<path d="M61.8608 92.3144C61.5114 93.3041 60.5463 93.5403 59.7696 93.9598C58.2465 94.7812 56.6732 95.5122 55.2455 96.2206C54.7429 95.9241 54.7957 95.5976 54.7429 95.3263C54.6197 94.5953 54.0693 93.8191 54.4362 93.1534C54.8811 92.3546 55.7156 93.1308 56.3866 93.0228C58.1913 92.7264 60.0109 92.5204 61.8256 92.2692L61.8608 92.3144Z" fill="#304E55"/>
<path d="M85.1749 30.2863C87.9873 28.8494 93.4866 29.382 94.399 31.2333C93.8385 31.6453 93.2102 31.5649 92.6396 31.3815C90.688 30.7237 88.5629 30.8023 86.6653 31.6026C86.1928 31.8035 85.8786 31.6478 85.5016 31.5071C85.1698 31.1555 85.2402 30.7033 85.1749 30.2863Z" fill="#304E55"/>
<path d="M82.3097 71.9575C82.2694 72.7638 81.4928 72.6733 81.053 72.917C78.4667 74.3312 78.4239 74.472 80.3844 76.484C79.4368 76.5946 78.8412 76.1751 78.4114 75.3361C77.675 73.9017 76.8606 72.5076 75.9583 70.8748C78.2329 71.2365 80.221 71.975 82.3097 71.9575Z" fill="#C0B9A3"/>
<path d="M60.3075 85.2206C62.2956 84.5926 62.2956 84.5926 62.3886 81.9777L65.0101 82.7463C65.5555 82.9071 65.8068 83.2487 65.8294 83.839C65.8923 85.4718 65.6585 85.7934 64.0198 85.6351C62.7807 85.517 61.5064 85.6728 60.3075 85.2206Z" fill="#57988E"/>
<path d="M109.882 68.0211C108.26 69.3575 106.436 69.8424 104.324 69.6364C104.324 68.5587 104.229 67.4535 104.624 66.2452C106.391 66.8431 108.328 66.8053 109.882 68.0211Z" fill="#C0B9A3"/>
<path d="M48.957 70.4402C49.2637 69.2671 50.2137 69.4605 51.0733 69.4102C51.8725 69.365 52.3526 69.6413 52.516 70.4301C52.609 70.8772 52.9885 71.0958 53.27 71.3972C52.1566 71.985 51.2794 72.8692 50.3193 73.8137C49.748 72.7401 49.2915 71.6093 48.957 70.4402Z" fill="#D68734"/>
<path d="M78.1375 56.6519C78.9896 56.8428 79.7662 56.8378 79.4093 55.6471C79.1303 54.7102 78.7483 53.8059 78.5774 52.8388L79.7989 52.0676C80.7241 54.0063 81.1113 56.1578 80.9198 58.2973C79.9087 57.9043 78.9689 57.3485 78.1375 56.6519Z" fill="#D68734"/>
<path d="M55.2706 52.1003C57.9675 51.3291 59.3649 52.5374 58.905 55.2829C58.812 55.8456 58.9904 56.3405 59.0533 56.8655C57.6081 55.4236 56.2534 53.9089 55.2706 52.1003Z" fill="#D68734"/>
<path d="M102.417 66.004C102.246 67.3705 102.098 68.5687 101.949 69.772L101.497 69.9353C101.386 67.9106 99.1269 67.6117 98.3326 65.7503L102.417 66.004Z" fill="#C0B9A3"/>
<path d="M59.0733 56.8856C60.0183 57.0338 60.4355 56.4786 60.6266 55.6899C61.9763 55.2503 62.773 56.5062 63.894 56.6444L61.1845 58.8398C60.3948 58.2878 59.6845 57.6303 59.0733 56.8856Z" fill="#D68734"/>
<path d="M92.6499 51.7411C92.67 52.7082 90.609 54.6725 89.7419 54.5494C89.1487 54.464 88.9652 53.6401 89.4578 53.0221C89.9505 52.4042 90.5461 51.7662 91.1242 51.1557C91.3957 50.8744 91.6571 50.4021 92.1573 50.6759C92.5695 50.897 92.5669 51.3718 92.6499 51.7411Z" fill="#3C5E65"/>
<path d="M87.6834 24.4233C88.3118 25.3527 88.3118 25.3527 87.0827 25.7094L87.221 25.2196L87.2813 25.0287L87.2235 25.2196L82.6717 25.7496L82.6868 25.727L82.4355 24.8629C84.1195 24.0541 85.8839 24.0139 87.6834 24.4233Z" fill="#304E55"/>
<path d="M68.5842 85.2458C68.6118 84.7082 68.6395 84.1681 68.6696 83.5878C70.1374 83.3542 71.5399 83.5225 72.9424 83.7888L73.1937 84.5575L73.1585 84.5072C71.5927 84.4922 70.15 85.2633 68.5842 85.2458Z" fill="#57988E"/>
<path d="M53.3302 53.2131C52.5297 53.3245 51.7139 53.2195 50.9677 52.9091C50.4198 52.6705 50.1734 52.2937 50.4876 51.7335C50.7716 51.2311 50.8068 50.3193 51.8021 50.8166L53.3302 53.2131Z" fill="#BD6530"/>
<path d="M93.5322 72.6331C93.7106 72.809 93.6528 72.9094 93.4241 72.9119C92.1054 72.9119 90.7858 72.9119 89.4655 72.9119C89.2141 72.9119 88.8974 72.9119 89.2418 72.5301L89.7218 72.5502H90.0008L90.7548 72.6155C91.3972 72.7863 92.073 72.7863 92.7153 72.6155L93.5322 72.6331Z" fill="#BD6530"/>
<path d="M86.0043 82.9423C84.9789 82.7363 85.1422 83.4245 85.185 84.0249C84.9958 83.9346 84.8464 83.7781 84.7649 83.5851C84.6833 83.3921 84.6754 83.1759 84.7426 82.9774C84.9035 82.3042 84.2073 81.9023 84.1821 81.2843C84.9738 81.636 85.3835 82.4047 86.0043 82.9423Z" fill="#C0B9A3"/>
<path d="M68.5842 85.2457C70.15 85.2457 71.6002 84.4921 73.161 84.5072C71.6756 85.0197 70.2455 85.7908 68.5842 85.2457Z" fill="#7EAEA1"/>
<path d="M106.582 74.4443C106.442 74.367 106.319 74.2625 106.22 74.1369C106.121 74.0114 106.048 73.8674 106.006 73.7134C107.077 72.6734 107.077 72.6734 107.398 73.2938L106.582 74.4443Z" fill="#EAD8B3"/>
<path d="M75.9308 59.9301L76.2801 59.7568C76.5541 61.2338 76.4184 62.7234 76.4184 64.208C76.4184 64.7807 76.1369 64.9239 75.6644 64.929C76.6044 63.3087 76.1142 61.6106 75.9308 59.9301Z" fill="#7EAEA1"/>
<path d="M71.374 65.4012C71.3501 65.6481 71.2476 65.8809 71.0816 66.0653C70.9156 66.2498 70.6948 66.3762 70.4516 66.4261L69.7755 65.9237C70.1651 65.3158 70.7959 65.4439 71.374 65.4012Z" fill="#304E55"/>
<path d="M65.088 55.7954C65.1534 55.3809 64.0098 54.9689 65.088 54.5394C65.4298 55.0568 65.9702 55.4311 66.1788 56.0466L65.9627 56.2475C65.7419 55.9877 65.4277 55.8253 65.088 55.7954Z" fill="#57988E"/>
<path d="M30.4635 78.2122C29.0007 78.2801 29.7095 77.2828 29.7095 76.6448L30.4635 78.2122Z" fill="#3C5E65"/>
<path d="M87.6884 72.4799C86.7937 72.8768 85.8587 72.6056 84.9036 72.6884C85.0343 72.3443 85.3334 72.5227 85.5043 72.3996L87.6884 72.4799Z" fill="#BD6530"/>
<path d="M69.1473 64.6476C68.7401 63.8739 68.3254 63.1027 68.5968 62.1783C68.828 62.9947 69.2403 63.7709 69.1473 64.6476Z" fill="#7EAEA1"/>
<path d="M73.1962 84.565L72.9449 83.7963L74.1237 84.0777C74.0191 84.2269 73.8804 84.349 73.7191 84.4338C73.5578 84.5185 73.3785 84.5635 73.1962 84.565Z" fill="#7EAEA1"/>
<path d="M92.7252 72.613C92.0829 72.7838 91.4071 72.7838 90.7648 72.613C91.408 72.4497 92.0819 72.4497 92.7252 72.613Z" fill="#855828"/>
<path d="M74.4177 65.4388C74.669 64.8761 75.1717 64.8837 75.6744 64.9239C75.3374 65.2508 74.8873 65.4352 74.4177 65.4388Z" fill="#7EAEA1"/>
<path d="M75.4329 74.6955C74.9302 74.4091 74.9076 73.9243 74.9302 73.4395C75.1941 73.8113 75.4882 74.1931 75.4329 74.6955Z" fill="#7EAEA1"/>
<path d="M82.4227 24.8629L82.6741 25.727C82.4403 25.5361 82.1262 25.3829 82.0005 25.1367C81.9201 24.9583 82.2694 24.9584 82.4227 24.8629Z" fill="#3C5E65"/>
<path d="M69.4438 65.984L69.3634 66.0115H69.2804L69.1447 64.6451C69.6474 65.0018 69.2076 65.5695 69.4438 65.984Z" fill="#7EAEA1"/>
<path d="M83.481 80.7041C83.9686 80.576 84.1546 80.8121 84.1596 81.2642C84.0781 81.2729 83.9957 81.2652 83.9172 81.2416C83.8387 81.218 83.7657 81.179 83.7025 81.1268C83.6393 81.0746 83.5871 81.0103 83.5491 80.9377C83.5111 80.8652 83.4879 80.7857 83.481 80.7041Z" fill="#C0B9A3"/>
<path d="M64.1454 56.4158C64.2058 56.1922 64.2535 55.9561 64.5803 56.1043L64.1454 56.4158Z" fill="#D68734"/>
<path d="M85.424 84.2887C85.5349 84.3345 85.633 84.4068 85.7097 84.4992C85.7864 84.5916 85.8393 84.7013 85.8638 84.8187L85.424 84.2887Z" fill="#C0B9A3"/>
<path d="M73.4022 66.308C73.4446 66.206 73.5136 66.1173 73.602 66.051C73.6904 65.9847 73.795 65.9434 73.9048 65.9312L73.4022 66.308Z" fill="#7EAEA1"/>
<path d="M31.3986 74.9141C31.4991 75.105 31.5996 75.2933 31.7027 75.4817C31.6058 75.4229 31.5265 75.3393 31.473 75.2394C31.4195 75.1396 31.3938 75.0272 31.3986 74.9141Z" fill="#3C5E65"/>
<path d="M75.9282 75.4491C75.8403 75.2757 75.7548 75.0999 75.6769 74.9265C75.7677 74.977 75.8406 75.0544 75.8856 75.1479C75.9306 75.2415 75.9455 75.3467 75.9282 75.4491Z" fill="#7EAEA1"/>
<path d="M76.1821 76.3659C76.1821 76.1499 76.1821 75.9314 76.1821 75.7153C76.3429 75.9314 76.6018 76.1474 76.1821 76.3659Z" fill="#7EAEA1"/>
<path d="M74.6741 73.1883C74.5861 72.9748 74.5006 72.7612 74.4227 72.5477C74.5186 72.6219 74.5926 72.7205 74.6369 72.8333C74.6811 72.9461 74.694 73.0688 74.6741 73.1883Z" fill="#7EAEA1"/>
<path d="M61.8205 92.2793L62.004 92.1612C62.107 92.3521 61.9085 92.2692 61.8582 92.322L61.8205 92.2793Z" fill="#304E55"/>
<path d="M75.6794 74.9467L75.4281 74.6753C75.6292 74.6552 75.6518 74.8085 75.6794 74.9467Z" fill="#7EAEA1"/>
<path d="M68.1012 54.122L68.0538 54.0471L68.1313 54.092L68.1012 54.122Z" fill="#304E55"/>
<path d="M74.1764 65.7403L74.4277 65.4213C74.4629 65.6222 74.2995 65.6649 74.1764 65.7403Z" fill="#7EAEA1"/>
<path d="M93.7583 89.5513L94.0272 89.2725C93.9996 89.4232 93.9443 89.5487 93.7583 89.5513Z" fill="#EAD8B3"/>
<path d="M93.5295 89.8049C93.6149 89.712 93.7004 89.6216 93.7808 89.5287C93.7984 89.712 93.6602 89.7673 93.5295 89.8049Z" fill="#EAD8B3"/>
<path d="M38.2021 59.1208L38.2596 59.0584L38.2996 59.1008L38.2321 59.1483L38.2021 59.1208Z" fill="#3C5E65"/>
<path d="M88.44 72.5025L88.347 72.5477L88.2616 72.4925C88.321 72.4806 88.3824 72.4841 88.44 72.5025Z" fill="#BD6530"/>
<path d="M74.9254 73.4394C74.8374 73.3515 74.7495 73.2636 74.659 73.1882C74.8626 73.1481 74.8827 73.3063 74.9254 73.4394Z" fill="#7EAEA1"/>
<path d="M71.8914 39.0328L71.8514 38.9978L71.8864 39.0378L71.8914 39.0328Z" fill="#304E55"/>
<path d="M87.4772 84.2586C87.163 84.3666 87.1178 84.1556 87.0851 83.927L87.4772 84.2586Z" fill="#C0B9A3"/>
<path d="M103.093 73.663C103.199 73.5474 103.246 73.6153 103.284 73.7233C103.217 73.7162 103.152 73.6957 103.093 73.663Z" fill="#EAD8B3"/>
<path d="M86.5247 83.4422C86.4317 83.3593 86.3387 83.2764 86.2432 83.191L86.5247 83.4422Z" fill="#C0B9A3"/>
<path d="M26.2284 82.3243C27.6321 84.5878 29.2353 86.7214 31.0189 88.6997C33.8333 91.8016 37.3494 94.1856 41.2735 95.6528C42.1936 96.0359 43.0922 96.4687 43.9654 96.949C44.0845 96.9948 44.1832 97.0819 44.2432 97.1945C44.3032 97.3071 44.3206 97.4376 44.2921 97.562C44.2607 97.6855 44.1869 97.7941 44.0835 97.869C43.9802 97.9438 43.8539 97.98 43.7266 97.9714C43.2275 97.9589 42.7322 97.8803 42.2537 97.7378C39.6529 96.8404 37.1582 95.6611 34.8141 94.221C32.7311 92.9134 30.7649 91.4284 28.9378 89.7824C27.3619 88.3958 26.4244 86.2656 25.5699 84.2836C25.306 83.6607 26.5476 83.2362 26.2284 82.3243Z" fill="#1D2831"/>
<path d="M47.6853 60.5706C47.6853 60.0029 47.7079 59.4327 47.7004 58.865C47.7004 58.5007 47.5671 58.0938 47.9265 57.8476C48.3714 57.5412 48.6806 57.9456 48.9947 58.1566C48.2684 58.1842 47.9467 58.4957 47.9693 59.2845C47.9819 59.6914 48.3212 60.2717 47.6853 60.5706Z" fill="#1B96B0"/>
<path d="M87.2235 25.2096L87.2813 25.0187L87.2209 25.2096H87.2235Z" fill="#3C5E65"/>
</svg>
