<svg width="130" height="130" viewBox="0 0 130 130" fill="none" xmlns="http://www.w3.org/2000/svg">
<path d="M129.563 0.753601H0.877686V129.367H129.563V0.753601Z" fill="#FEBA9D"/>
<path opacity="0.3" d="M65.0319 125.347C86.735 125.347 104.329 122.658 104.329 119.341C104.329 116.024 86.735 113.335 65.0319 113.335C43.3289 113.335 25.7351 116.024 25.7351 119.341C25.7351 122.658 43.3289 125.347 65.0319 125.347Z" fill="#1D2831"/>
<path d="M40.7025 114.177C40.7879 112.722 39.9308 111.986 38.8023 111.215C37.3571 110.225 36.2714 108.784 35.2158 107.377C34.5422 106.478 34.6327 105.332 34.5221 104.27C34.4718 103.795 34.4668 103.317 34.4341 102.732C32.3002 102.338 30.3071 102.285 28.5226 103.81C27.0146 105.109 24.6444 104.586 23.7195 102.805C23.5973 102.598 23.4995 102.378 23.4279 102.149C23.0208 100.471 22.2039 99.135 20.9648 97.8364C19.2783 96.078 19.5246 93.7519 20.525 91.6569C21.0151 90.6345 21.0704 89.8432 20.4596 88.8937C19.7659 87.8311 19.9745 86.5777 19.8916 85.3895C20.5099 77.2005 25.6146 72.2695 32.3681 68.7628C33.9767 67.9288 34.2531 67.1451 34.2506 65.5751C34.223 54.8113 34.3109 44.0475 34.321 33.2862C34.321 30.8697 35.6154 28.9656 36.6534 26.9686C37.0304 26.2477 37.2265 25.6875 36.9575 24.8686C35.8894 21.603 36.3694 18.4856 38.5686 15.8681C39.3845 14.8534 40.4634 14.0818 41.6878 13.6375C44.6324 12.694 47.7876 12.6242 50.7711 13.4366C51.8745 13.7204 52.6838 14.562 53.6666 15.0995C54.6518 9.89219 60.0782 8.72913 63.8986 9.36215C66.8091 9.84444 69.0259 11.1908 70.27 13.9816C70.7174 14.9864 75.3219 15.0794 75.895 14.1349C76.6913 12.8407 77.7684 11.7418 79.0468 10.9196C79.9692 10.3242 81.2058 10.2062 82.3795 10.1283C87.64 9.78166 92.6442 13.0397 94.2553 18.0259C95.1274 20.7263 94.7379 23.384 93.0639 25.6498C92.1767 26.853 92.3627 27.8879 92.6995 29.0786C93.2645 30.9563 93.5921 32.8972 93.6747 34.8562C93.926 43.8566 93.6948 52.8595 93.7928 61.8599C93.7928 62.1111 93.818 62.3397 93.8305 62.5783C93.6269 63.6434 93.9461 64.711 93.6194 65.9042C96.2886 65.4269 98.7945 65.3113 101.305 65.1706C106.636 64.8742 111.96 64.4799 117.288 64.1307C117.765 64.0981 118.248 64.078 118.726 64.0855C121.699 64.1307 122.981 65.6379 122.383 68.5643C121.862 71.1039 121.161 73.6059 120.57 76.1304C119.314 81.4583 117.331 86.5777 116.192 91.9357C115.828 93.6615 114.551 94.6989 112.834 94.7667C112.223 94.7919 111.638 95.1033 110.987 94.827C110.675 94.6939 110.419 94.9426 110.328 95.3294C109.71 98.0022 107.657 99.1979 105.277 99.6802C102.218 100.298 99.0961 100.389 96.0172 99.5118C95.2333 99.2721 94.5106 98.8659 93.8984 98.3212C93.6182 99.9248 93.5531 101.559 93.7049 103.179C94.0844 107.198 91.9932 109.763 88.8691 111.72C88.0321 112.245 87.5571 112.83 87.4918 113.78C86.8612 115.181 85.7034 116.276 84.2696 116.829C79.6148 118.769 74.681 119.246 69.7321 119.434C65.4173 119.636 61.0942 119.584 56.7856 119.276C53.0382 118.975 49.3184 118.548 45.7267 117.402C43.7663 116.789 41.8586 116.053 40.7025 114.177ZM37.9377 98.8537C36.5956 100.311 36.9324 102.094 36.945 103.825C36.945 104.782 37.4074 105.279 38.453 105.332C38.4304 103.142 38.5535 101.004 38.3625 98.8638C38.6478 98.0086 38.6478 97.0839 38.3625 96.2287C38.3851 95.6861 38.4052 95.1461 38.4278 94.6035C39.1819 94.7291 38.8954 95.3445 38.9004 95.7439C38.9331 98.6226 38.9431 101.501 38.9004 104.378C38.9004 105.131 39.0839 105.525 39.8605 105.734C42.4016 106.417 44.9024 107.261 47.461 107.872C49.1726 108.279 50.9345 108.64 52.7768 108.419C52.8572 107.151 52.9401 106 53.003 104.847C53.1111 102.813 53.2544 100.798 52.0932 98.9241C51.6408 98.1931 51.5553 97.2586 51.5905 96.3644C51.6419 95.9266 51.5445 95.4842 51.314 95.1084C50.0271 93.2922 50.7988 91.2474 50.8415 89.3484C50.8666 88.3235 50.9069 87.59 50.2182 86.8063C49.6426 86.1457 49.3611 85.3418 50.3614 84.7088C50.408 85.046 50.5516 85.3625 50.7747 85.6198C50.9978 85.8771 51.2907 86.0641 51.6181 86.1582C52.4877 86.4446 52.7969 87.05 52.8145 87.8839C52.8396 89.3133 53.1337 90.7501 52.6109 92.1543C52.5509 92.3025 52.5217 92.4613 52.5252 92.6211C52.5286 92.7809 52.5646 92.9383 52.631 93.0837C53.6565 94.5507 53.7771 96.1935 53.7269 97.8992C53.7527 98.2162 53.8554 98.5223 54.026 98.7909C54.3958 99.4497 54.6508 100.167 54.78 100.911C54.883 101.539 54.9835 102.323 55.8909 102.584C55.9932 101.765 55.9073 100.933 55.6395 100.152C55.471 99.7466 55.3872 99.3107 55.3933 98.8714C55.3993 98.4321 55.4951 97.9987 55.6747 97.5977C56.0098 96.8903 56.1907 96.1198 56.2054 95.3373C56.2201 94.5548 56.0684 93.7781 55.7602 93.0586C55.3304 92.0111 55.539 91.1821 56.0116 90.2276C56.283 89.6724 56.8585 89.2228 56.7278 88.4416C56.5243 87.2333 57.0244 86.3089 57.8538 86.1256C58.8818 85.897 60.6186 86.7234 60.8171 87.7131C61.0685 88.9515 61.3198 90.2854 61.2118 91.4811C61.0187 93.3211 60.9213 95.1699 60.9202 97.02C60.9604 99.0647 60.4401 101.084 61.1112 103.162C61.4455 104.197 61.82 105.365 61.3625 106.55C61.3017 106.723 61.3087 106.912 61.3819 107.079C61.4552 107.246 61.5893 107.38 61.7571 107.452C62.6243 106.859 62.4509 105.885 62.7223 105.058C63.4763 102.755 63.3783 100.348 63.6573 98.0046C63.8785 96.1433 64.1273 94.3347 64.7154 92.5612C64.9366 91.893 65.2432 91.1821 64.7933 90.4939C63.9765 89.2379 64.2429 88.0221 64.9693 86.8992C65.5046 86.0677 66.3617 85.6734 67.3645 86.1004C68.3171 86.5049 68.9831 87.1303 68.7117 88.3135C68.5332 89.0847 68.5609 89.8206 69.1892 90.416C70.0388 91.2148 70.1946 92.1744 69.9433 93.2721C69.6442 94.5834 69.6291 95.9599 69.521 97.2712C69.3376 99.5319 70.177 101.81 69.7296 104.126C69.6969 104.292 69.7296 104.611 69.9483 104.674C71.3407 103.508 71.0492 101.579 72.0822 100.258C72.1557 100.138 72.201 100.003 72.2145 99.8637C72.228 99.724 72.2094 99.583 72.1601 99.4515C71.6574 98.4468 72.0822 97.5299 72.1978 96.5528C72.3461 95.2968 73.0373 94.1488 72.9719 92.8501C72.78 91.7768 72.488 90.724 72.0998 89.7051C72.3345 89.204 72.4652 88.6605 72.4843 88.1075C72.6778 86.1481 73.4444 85.6156 75.2842 86.1231C75.5963 86.1836 75.9197 86.1311 76.1965 85.9748C77.2622 85.8115 78.2324 85.3267 79.3082 85.1433C81.5979 84.749 83.9278 84.8118 86.22 84.435C86.8936 84.3244 87.1851 84.0707 87.3208 83.4302C88.1804 79.4412 89.3466 75.5326 90.4073 71.5963C90.7189 70.4408 91.2015 69.3079 91.2015 68.0971C91.2015 57.0444 91.2291 46.0043 91.1487 34.9591C91.1025 32.7731 90.6861 30.6107 89.9172 28.5637C89.2335 28.8149 88.6881 29.0861 88.1101 29.1891C83.9253 29.9427 80.2708 28.8526 77.2044 25.8985C76.3298 25.0545 75.3445 24.4942 74.1255 24.4716C68.5634 24.3687 63.0088 24.3888 57.4617 24.9942C56.0668 25.1474 55.2575 25.7226 54.5211 26.8204C51.97 30.6235 46.7799 31.9247 42.7961 30.5054C41.831 30.1613 40.9463 29.5509 39.873 29.5258C40.2752 28.5612 39.3251 28.6365 38.9355 28.1593C37.7367 30.0684 36.9023 31.8945 36.9098 34.1528C36.945 42.3393 36.8344 50.5258 36.7841 58.7124C36.764 61.9051 36.7163 65.1004 36.7841 68.2931C36.8017 68.9713 36.6484 69.3933 36.1909 69.8003L35.8818 69.7575C31.4633 71.2798 27.9244 74.0429 25.1044 77.6828C22.3145 81.2799 21.5856 85.3342 23.2294 89.6498C23.541 90.4687 23.5436 90.941 22.978 91.6243C21.9727 92.8325 21.7641 94.3397 22.1336 95.8268C22.4302 97.03 23.3903 97.5525 24.6319 97.7258C25.1848 97.8012 25.9414 98.2081 25.4588 99.0747C24.9988 99.9012 25.1747 101.378 25.8735 101.923C26.0134 102.04 26.18 102.12 26.3584 102.156C26.5368 102.192 26.7215 102.184 26.8959 102.131C27.0702 102.079 27.2288 101.984 27.3574 101.855C27.486 101.726 27.5807 101.568 27.6328 101.393C27.7346 100.966 27.7346 100.522 27.6328 100.095C27.4594 98.8587 27.3488 97.6128 27.9646 96.2664C28.7865 97.663 28.9122 99.0296 29.0177 100.424C29.0982 101.456 29.5883 101.745 30.5258 101.28C31.0812 101.004 31.5788 100.625 31.6995 99.9917C31.9508 98.7357 31.6442 97.4796 31.5311 96.2412C31.4783 95.6585 31.4029 95.2364 31.7246 94.734C32.5641 93.4354 32.441 92.187 31.5387 90.9485C30.385 89.361 28.6935 88.9138 26.9115 88.851C24.4685 88.7681 24.9008 88.4767 24.9008 86.3842C24.9252 86.146 24.9681 85.9101 25.029 85.6784C26.0972 79.4613 30.0909 75.618 35.4746 72.9653C36.2487 72.586 37.0154 71.9781 38.4204 72.0384C36.8495 73.8973 36.6886 75.839 37.1637 77.9617C39.114 77.4417 40.7176 78.0169 42.1904 79.1925C40.4436 79.2101 38.7822 79.7903 37.1108 79.4437C36.9475 79.9461 36.9148 80.2978 37.1108 80.6369C36.9624 81.26 36.9199 81.9037 36.9852 82.541C36.9852 82.7922 36.9852 83.0434 36.9852 83.277C36.9852 86.5953 36.9475 89.9111 36.9626 93.2294C36.9918 94.3422 37.3966 95.4125 38.1111 96.2664C38.2117 97.1204 38.7672 98.0323 37.9403 98.8462L37.9377 98.8537ZM29.7139 80.8253C29.1761 80.7775 29.1836 81.2799 28.9599 81.5613C28.8887 81.5853 28.8283 81.6339 28.7896 81.6983C28.751 81.7628 28.7365 81.8389 28.7488 81.913C28.2463 82.5199 27.9011 83.2411 27.7434 84.013L27.7862 84.0758C27.5047 84.2918 27.5072 84.6309 27.4167 84.9299C26.914 86.5601 26.914 86.6179 28.5603 86.8616C29.5495 86.9786 30.5015 87.3086 31.3507 87.8291C32.1999 88.3495 32.926 89.0479 33.479 89.8759C33.66 90.1271 33.7882 90.5466 34.2707 90.5039V83.4704C34.311 81.0313 34.4416 78.5946 34.3034 76.1555C34.1702 76.0852 34.0872 76.1355 34.037 76.2661C33.7077 76.5549 33.3684 76.8313 33.0517 77.1302C31.8503 78.2681 30.4554 79.2226 29.6587 80.7399L29.6436 80.8027L29.7139 80.8253ZM94.3709 95.5103C95.6427 97.0175 97.1708 98.0223 99.2444 97.8464C101.235 97.6831 103.238 97.5952 105.211 97.2888C107.725 96.9095 109.127 94.7768 108.69 92.2899C108.647 91.8847 108.449 91.5119 108.136 91.25C107.824 90.988 107.422 90.8575 107.016 90.8857C106.149 90.9084 105.892 91.6393 105.92 92.4557C105.955 93.0936 105.933 93.7333 105.855 94.3673C105.842 94.5932 105.743 94.8056 105.578 94.9601C105.412 95.1146 105.194 95.1992 104.967 95.1963C104.419 95.1661 104.465 94.6612 104.447 94.2719C104.429 93.8825 104.447 93.4706 104.427 93.0712C104.387 91.7222 103.871 90.9761 102.899 91.0314C101.682 91.0992 101.532 92.0689 101.416 93.0134C101.333 93.6866 101.484 94.3824 101.232 95.0355C101.089 95.4048 100.938 95.8444 100.433 95.7891C99.928 95.7339 99.8852 95.2867 99.8802 94.8697C99.8802 94.194 99.9707 93.5032 99.6138 92.8601C99.2569 92.2171 98.8598 91.7976 98.0907 91.9558C97.3895 92.1015 97.1683 92.6617 97.0854 93.2872C97.0024 93.8373 97.1683 94.4276 96.8742 94.9375C96.6731 95.2842 96.4822 96.0277 96.0272 95.6911C95.429 95.249 94.9062 95.6308 94.3759 95.5027L94.3709 95.5103ZM100.152 67.2983C98.6311 67.5168 97.1607 67.2556 95.6276 67.7328C94.0944 68.2101 93.2901 68.9537 92.9207 70.3729C92.237 72.9979 91.6137 75.6481 90.8773 78.248C90.2942 80.3153 90.0454 82.4832 89.3693 84.4928C88.5072 87.0374 87.9743 89.6322 87.4013 92.2346C87.2479 92.9204 87.5093 93.3299 88.2257 93.3801C90.2138 93.5208 92.1993 93.7444 94.1975 93.4053C94.7454 93.3123 94.9791 93.154 95.1726 92.6089C95.8839 90.5993 97.5981 89.6448 99.6038 90.097C99.828 90.162 100.065 90.1696 100.293 90.1191C100.521 90.0686 100.732 89.9617 100.908 89.8081C102.044 88.9515 103.278 88.64 104.575 89.4765C104.925 89.7026 105.219 89.7804 105.533 89.4765C107.418 87.595 109.755 89.3032 110.23 91.3379C110.313 91.6971 110.344 92.0211 110.803 92.1317C111.418 92.2455 112.052 92.1452 112.601 91.8475C113.15 91.5499 113.58 91.0729 113.82 90.4964C115.353 86.2411 116.388 81.8401 117.69 77.5195C118.6 74.5052 119.394 71.4405 120.204 68.391C120.568 67.017 120.098 66.4492 118.658 66.4141C118.257 66.3981 117.856 66.4049 117.456 66.4342C113.377 66.816 109.26 66.5171 105.189 67.2606C103.555 67.542 101.813 67.2907 100.157 67.2907L100.152 67.2983ZM38.649 107.573C38.7471 108.12 39.1266 108.379 39.4207 108.693C41.2932 110.68 43.804 111.436 46.3099 112.064C51.4372 113.348 56.7128 113.571 61.9557 113.737C66.9624 113.905 71.9866 113.961 76.9707 113.011C80.1225 112.411 83.2542 111.77 86.1748 110.434C87.5219 109.818 88.952 109.263 89.9674 107.786C72.7306 112.047 55.73 112.097 38.6541 107.565L38.649 107.573ZM83.3874 12.1505C81.9772 12.148 80.6015 12.5865 79.4531 13.4045C78.3047 14.2225 77.4411 15.3791 76.9833 16.7122C76.4907 18.0696 76.4129 19.5427 76.7597 20.9444C77.1065 22.3461 77.8624 23.6132 78.9311 24.5847C80.8564 26.328 83.1687 26.9711 85.6142 27.1997C89.706 27.5865 93.3706 23.3513 92.5035 19.3573C91.6564 15.4512 87.4163 12.1002 83.3849 12.1429L83.3874 12.1505ZM46.6919 14.9613C41.2806 15.004 38.3399 17.7672 38.6138 22.5173C38.7521 24.8861 39.6041 27.0791 41.9466 27.9256C45.4653 29.1992 48.9841 29.0334 51.9524 26.3883C54.0712 24.4943 54.6618 22.0552 53.9631 19.287C53.3272 16.775 51.5452 15.6697 49.1877 15.1698C48.361 15.0329 47.5248 14.9607 46.6869 14.9538L46.6919 14.9613ZM84.1715 113.745C70.8028 116.97 57.6653 116.43 44.2237 113.792C45.4075 115.111 46.7372 115.322 47.9687 115.686C52.9 117.138 57.9971 117.146 63.0641 117.307C66.4622 117.415 69.8502 117.174 73.2483 116.852C76.2644 116.566 79.2805 116.166 82.1835 115.166C82.8696 114.92 83.5859 114.679 84.1665 113.737L84.1715 113.745ZM74.2185 19.7969C73.6706 19.7969 73.2735 19.7743 72.8789 19.7969C67.7943 20.126 62.7122 20.5077 57.6226 20.7564C56.4212 20.8142 56.2604 21.4548 56.1825 22.324C56.183 22.7222 56.2174 23.1197 56.2855 23.5121C62.3955 22.7937 68.4981 22.7083 74.7363 22.7459C74.5453 21.6934 74.3895 20.8042 74.2135 19.7969H74.2185ZM86.3507 86.8917C85.574 86.7509 84.774 86.8168 84.0308 87.0826C82.8546 87.5398 81.5677 87.3338 80.3562 87.3991C79.0162 87.434 77.6797 87.554 76.3549 87.7584C75.2943 87.9543 75.3495 89.0018 75.1887 89.7679C75.0278 90.5341 75.7743 90.5466 76.2921 90.73C78.3677 91.4444 80.4931 92.0053 82.651 92.408C85.5037 92.9607 85.4986 92.9833 85.9309 90.0769C85.9309 90.0116 85.8756 89.9337 85.843 89.8608C85.1292 89.788 84.4128 89.7378 83.7041 89.6298C83.3899 89.582 83.0833 89.4213 83.0883 89.0143C83.0783 88.8518 83.1283 88.6911 83.2288 88.5628C83.3293 88.4346 83.4733 88.3477 83.6337 88.3185C84.2947 88.1753 84.9633 88.0673 85.6444 87.9493C86.2099 87.8563 86.6347 87.6679 86.3456 86.8917H86.3507ZM87.8587 96.8542C87.6677 97.3817 88.198 98.0474 87.4967 98.394C86.7955 98.7407 86.7427 99.3385 86.7427 100.012C86.7628 101.285 86.7201 102.564 86.7427 103.838C86.7628 104.692 86.597 105.568 86.9514 106.52C88.0924 106.121 89.1531 105.691 90.2464 105.387C90.9703 105.186 91.1713 104.805 91.1537 104.101C91.1185 102.627 91.1537 101.152 91.1537 99.6751C91.1789 96.5452 91.1764 96.5452 87.8663 96.8542H87.8587ZM61.7973 18.6388C62.6192 18.6388 63.3808 18.6941 64.1348 18.6388C66.3617 18.453 67.1157 17.2171 66.1455 15.4235C64.7204 12.8136 60.4678 12.3865 58.5475 14.6699C57.6679 15.7174 57.9645 16.785 58.4495 17.9029C58.8969 18.9303 59.7062 18.8248 60.5557 18.7394C60.9905 18.6816 61.4304 18.664 61.8049 18.6388H61.7973ZM67.651 18.3072C68.4804 18.5358 68.6237 18.1138 68.6765 17.5034C68.9278 14.4665 67.2162 12.3589 63.6497 11.3717C58.9371 10.063 55.2625 13.0372 55.6521 17.8375C55.7602 19.1387 55.999 19.2945 57.4115 18.8951C56.9088 17.3427 56.4212 15.735 57.4517 14.2228C58.442 12.7659 59.9173 12.0701 61.639 12.0223C65.0421 11.9269 68.1512 13.9113 67.6586 18.3072H67.651ZM34.0646 93.1013C33.6273 93.4806 33.3659 93.8875 33.3885 94.3849C33.4614 96.0102 33.0341 97.6254 33.3332 99.2531C33.396 99.5923 33.2553 100.029 33.665 100.205C34.135 100.406 34.4969 100.115 34.8437 99.8258C36.9676 98.0725 36.6006 94.5758 34.0722 93.1013H34.0646ZM74.7815 101.12C75.9553 99.8937 76.2896 98.5749 76.2896 97.1682C76.2896 96.2413 76.2895 95.3194 76.8274 94.5256C77.0788 94.1689 77.3301 93.7921 76.9506 93.4957C76.5333 93.1616 76.0181 92.7597 75.4425 92.9004C74.9926 93.0109 74.8544 93.5133 74.8896 93.9755C74.9374 94.5959 74.6584 95.1285 74.5151 95.7037C74.0954 97.4646 73.7083 99.2506 74.7916 101.12H74.7815ZM71.0441 18.1541C72.1902 18.1038 73.4671 18.772 74.4247 17.6893C73.2836 17.7119 72.0067 17.0186 71.0542 18.1541H71.0441Z" fill="#1D2831"/>
<path d="M28.7136 21.5226C28.7739 22.2084 28.417 22.4068 28.0048 22.452C26.2987 22.666 24.5666 22.5119 22.9252 21.9999C22.5533 21.8768 21.9877 21.7487 22.1008 21.1458C22.2139 20.5429 22.7192 20.3922 23.2043 20.3922C24.3328 20.3772 25.411 20.7062 26.4717 21.0378C27.1905 21.2639 27.8816 21.5728 28.7136 21.5226Z" fill="#3DA4A0"/>
<path d="M99.4857 31.9347C100.84 32.3391 102.213 32.834 103.256 33.9443C103.462 34.1678 103.693 34.4919 103.454 34.8009C103.344 34.946 103.185 35.047 103.007 35.0856C102.829 35.1243 102.642 35.0981 102.482 35.0119C101.225 34.414 99.9833 33.8036 98.7492 33.1706C98.4677 33.0249 98.2465 32.7586 98.3797 32.3843C98.5632 31.902 99.0534 32.1005 99.4857 31.9347Z" fill="#3DA4A0"/>
<path d="M98.1283 18.8524C99.3222 17.4557 100.833 16.7348 102.482 16.255C102.558 16.2288 102.64 16.2181 102.721 16.2237C102.802 16.2292 102.881 16.2509 102.953 16.2874C103.026 16.3239 103.091 16.3745 103.143 16.4362C103.196 16.4979 103.236 16.5696 103.261 16.6469C103.417 17.0764 103.223 17.4231 102.919 17.712C102.042 18.5459 100.815 18.6138 99.7897 19.1212C99.282 19.3724 98.7315 19.5331 98.1283 18.8524Z" fill="#3DA4A0"/>
<path d="M22.3346 31.3545C22.2692 30.5808 22.6537 30.3221 23.0735 30.0633C24.1562 29.3828 25.4609 29.1488 26.7129 29.4103C26.9944 29.463 27.2708 29.5735 27.3161 29.895C27.3357 30.0567 27.292 30.2197 27.1941 30.3499C27.0961 30.48 26.9516 30.5673 26.7908 30.5934C25.3406 30.9476 23.8903 31.3168 22.3346 31.3545Z" fill="#3DA4A0"/>
<path d="M99.4553 25.7025C100.554 24.0798 103.145 24.2808 104.52 26.0768C102.755 26.3054 101.202 26.009 99.4553 25.7025Z" fill="#3DA4A0"/>
<path d="M27.2683 13.1854C27.4213 12.995 27.6343 12.8622 27.8725 12.8083C28.1108 12.7545 28.3603 12.7829 28.5803 12.889C29.5128 13.3185 30.4151 13.8209 31.3124 14.3183C31.5914 14.474 31.8502 14.7227 31.7019 15.092C31.6714 15.1765 31.6244 15.254 31.5636 15.3202C31.5028 15.3863 31.4295 15.4398 31.3479 15.4774C31.2663 15.515 31.178 15.5361 31.0882 15.5394C30.9984 15.5426 30.9088 15.528 30.8247 15.4964C29.367 15.1472 28.3164 14.2153 27.2683 13.1854Z" fill="#3DA4A0"/>
<path d="M37.1309 80.6117C36.9399 80.2726 36.9725 79.9234 37.1309 79.4185C38.8023 79.7601 40.4636 79.1799 42.2104 79.1673C40.7376 77.9917 39.134 77.4089 37.1836 77.9365C36.7136 75.8138 36.8745 73.8721 38.4403 72.0132C37.0354 71.9529 36.2688 72.5609 35.4947 72.9402C30.111 75.5928 26.1172 79.4361 25.049 85.6532C24.9881 85.8848 24.9452 86.1209 24.9208 86.3591C24.9208 88.4516 24.481 88.743 26.9315 88.8259C28.7135 88.8887 30.4051 89.3282 31.5587 90.9233C32.461 92.1617 32.5842 93.4102 31.7447 94.7089C31.423 95.2113 31.4934 95.6383 31.5512 96.2161C31.6643 97.452 31.9608 98.7155 31.7195 99.9664C31.5989 100.599 31.1013 100.971 30.5458 101.255C29.6058 101.72 29.1157 101.431 29.0378 100.398C28.9322 99.0169 28.8066 97.6353 27.9847 96.2412C27.3689 97.5876 27.482 98.8336 27.6529 100.069C27.7547 100.496 27.7547 100.941 27.6529 101.368C27.6007 101.543 27.5061 101.701 27.3774 101.83C27.2488 101.959 27.0902 102.054 26.9159 102.106C26.7415 102.159 26.5569 102.167 26.3785 102.131C26.2 102.095 26.0334 102.015 25.8935 101.898C25.1948 101.353 25.0188 99.876 25.4788 99.0496C25.9613 98.183 25.2049 97.776 24.6519 97.7006C23.3952 97.5273 22.4501 97.0048 22.1536 95.8016C21.7841 94.3145 21.9902 92.8073 22.9981 91.599C23.5686 90.9158 23.5661 90.4436 23.2494 89.6247C21.6082 85.3091 22.3345 81.2547 25.1244 77.6576C27.9444 74.0177 31.4833 71.2546 35.9019 69.7324C35.9898 69.8555 36.0803 69.966 36.211 69.7751C36.4454 69.8154 36.674 69.8838 36.8921 69.9785C37.8321 70.5261 38.0608 70.4106 38.1488 69.3103C38.2167 68.4763 38.3423 67.6449 38.3449 66.8109C38.375 55.6703 38.4127 44.5297 38.3825 33.3891C38.3825 31.8342 38.8324 30.5883 39.8906 29.5106C40.9638 29.5357 41.8485 30.1461 42.8137 30.4903C46.7974 31.9095 51.9875 30.6083 54.5386 26.8052C55.275 25.7075 56.0843 25.1322 57.4793 24.979C63.0263 24.3736 68.5809 24.3536 74.143 24.4566C75.362 24.4792 76.3473 25.0393 77.2219 25.8833C80.2883 28.8374 83.9427 29.92 88.1275 29.174C88.7056 29.071 89.2511 28.7897 89.9347 28.5485C90.7036 30.5955 91.12 32.758 91.1662 34.944C91.2467 45.9967 91.2265 57.0494 91.219 68.082C91.219 69.2928 90.7365 70.4256 90.4248 71.5811C89.3641 75.5174 88.1979 79.4261 87.3383 83.4151C87.2026 84.0531 86.9111 84.3068 86.2375 84.4199C83.9453 84.7967 81.6154 84.7338 79.3257 85.1282C78.25 85.3116 77.2798 85.7964 76.2141 85.9572C75.3042 85.2613 75.6511 83.9476 74.8493 83.194C75.5581 82.9101 75.8019 82.4229 75.4928 81.5412C74.0878 82.2068 73.4569 81.4005 72.8034 80.2852C72.0645 79.0292 70.373 78.9714 69.3274 80.1922C68.5131 81.1417 67.9752 81.0689 67.098 80.2877C65.8112 79.1397 63.0766 79.5014 62.2472 80.8227C61.9958 81.207 61.644 81.6718 62.2019 82.0787C62.7599 82.4856 63.1068 82.1641 63.3983 81.7245C64.0694 80.7022 64.8812 80.677 65.8564 81.29C66.6532 81.7924 67.377 82.4806 68.415 82.4731C68.2517 83.1187 67.8369 83.1915 67.2262 83.1362C66.7084 83.0885 66.2812 82.6338 65.7408 82.8298C64.268 83.3322 62.6418 82.8875 61.2493 83.3322C59.2386 83.9576 57.4792 83.5105 55.5766 83.1463C53.7041 82.7896 51.7186 82.8298 50.3991 84.6911C49.3937 85.3241 49.6802 86.128 50.2558 86.7886C50.9445 87.5774 50.9042 88.2959 50.8791 89.3308C50.8364 91.2298 50.0648 93.2746 51.3517 95.0907C51.5822 95.4665 51.6795 95.9089 51.6281 96.3467C51.5854 97.241 51.6708 98.1754 52.1308 98.9064C53.2894 100.78 53.1487 102.795 53.0406 104.83C52.9778 105.983 52.8948 107.133 52.8144 108.402C50.9721 108.623 49.2102 108.261 47.4986 107.854C44.94 107.244 42.4392 106.4 39.8981 105.716C39.1215 105.508 38.9279 105.113 38.938 104.36C38.9732 101.484 38.9631 98.605 38.938 95.7263C38.938 95.3269 39.2245 94.7215 38.4655 94.5858V80.0164C37.9653 80.5489 37.5732 80.6795 37.1309 80.6117ZM87.5721 59.1494C87.2111 59.1828 86.8703 59.3306 86.5994 59.5714C84.634 60.963 82.6232 62.2467 80.145 62.5155C80.1199 62.5155 80.1098 62.6486 80.0973 62.7189C82.6936 64.0528 87.2478 61.4629 87.6927 59.27L87.743 59.1017L87.5721 59.1494ZM43.3767 56.2129C43.3616 55.3714 44.1809 54.7057 43.9095 53.5452C42.4014 55.5296 41.009 57.288 40.4058 59.5488C40.0741 60.7872 39.9509 61.9753 40.5416 63.1585C41.0669 64.2085 41.9968 64.6029 43.0876 64.6381C44.1131 64.6682 44.9802 64.2738 45.5131 63.362C46.6265 61.4554 45.6764 57.8507 43.7537 56.6399L43.3767 56.2129ZM71.5593 58.4737C74.0953 60.9455 77.1943 61.7191 80.6075 61.3875C84.3348 61.0258 86.9211 58.9082 88.4317 55.6351C89.9724 52.2942 89.5677 48.9182 87.743 45.743C87.0167 44.487 85.8756 43.5601 84.8426 42.5653C83.9051 41.666 83.8221 41.0581 84.7219 40.1664C85.7273 39.1616 86.4586 37.8001 88.3839 37.8202C87.092 36.8732 86.0037 36.313 84.6917 36.4236C83.9804 36.4864 83.6085 36.1724 83.3094 35.5544C82.7916 34.4818 82.0301 33.6579 80.8161 33.2937C78.8054 32.6933 77.1189 33.2308 75.641 34.635C74.8719 35.3635 74.1983 36.2 73.2332 36.8581C72.9064 35.258 72.3183 34.0397 70.6871 33.4369C68.2944 32.5501 66.344 33.3665 64.572 34.7908C63.8432 35.3786 63.3405 35.5444 62.4709 35.1676C59.7715 34.0121 57.1073 33.8513 54.6969 35.9011C54.1942 36.3281 53.8725 36.0845 53.4402 35.8157C51.3214 34.4843 47.6268 35.1425 46.169 37.1219C45.7342 37.7147 45.1084 38.4181 45.3572 39.1139C45.6563 39.9554 46.7119 40.0031 47.4408 39.9353C48.9086 39.8022 49.8411 40.2795 50.6353 41.5304C51.0475 42.1835 51.0827 42.5352 50.6177 43.0526C50.1954 43.5324 49.8411 44.0574 49.4188 44.5598C47.7751 46.4312 47.1216 48.7247 47.0613 51.091C46.9633 55.1378 48.4436 58.5666 52.269 60.3501C56.0567 62.1085 59.8896 61.8698 63.4586 59.5136C64.0065 59.1519 64.4917 58.6897 64.9943 58.2803C65.9544 59.2624 65.9544 59.2624 66.6632 59.4182C68.5156 60.9178 70.6369 60.8098 71.5593 58.4712V58.4737ZM81.0574 79.4537C83.0681 79.4989 84.3047 78.4363 84.7495 76.2836C85.5639 72.3749 83.8397 66.5321 78.8481 64.4497C77.7465 63.9775 76.6084 63.5952 75.445 63.3067C70.3378 62.101 65.306 62.5531 60.2214 63.7438C55.1368 64.9345 51.7663 67.979 49.4314 72.4277C48.8481 73.5261 48.6024 74.7723 48.7252 76.0098C48.9941 78.9136 50.9043 80.6821 53.8072 80.5992C55.8858 80.5414 57.7708 79.74 59.6634 78.9714C65.7206 76.5121 71.793 76.0224 77.898 78.8383C78.8966 79.2586 79.9715 79.4672 81.0549 79.4512L81.0574 79.4537ZM55.0061 28.4029C54.7171 28.953 54.5236 29.3373 54.3149 29.7141C53.8475 30.5456 53.7142 31.3821 54.4356 32.1206C54.8229 32.4975 55.3223 32.7385 55.8585 32.8073C56.3947 32.8762 56.9388 32.7691 57.4089 32.5024C58.1403 32.0552 58.4142 31.4197 58.3665 30.5908C58.3238 29.8221 57.7759 29.5433 57.2028 29.2218C56.5343 28.8425 55.6697 29.1188 55.0061 28.4003V28.4029ZM48.3155 58.6369C48.3808 60.0135 48.886 60.8048 49.7783 61.4554C52.2489 63.2565 53.9756 63.6408 56.964 62.7968C55.2725 62.1889 53.6263 62.5632 52.2816 61.6764C50.9369 60.7897 49.9517 59.5337 48.3155 58.6344V58.6369Z" fill="#2E7452"/>
<path d="M100.157 67.2908C101.813 67.2908 103.555 67.542 105.198 67.243C109.27 66.4895 113.387 66.7984 117.466 66.4166C117.866 66.3873 118.267 66.3806 118.668 66.3965C120.108 66.4317 120.578 66.9994 120.213 68.3734C119.402 71.423 118.607 74.4801 117.7 77.502C116.398 81.8226 115.363 86.2235 113.829 90.4788C113.59 91.0553 113.16 91.5323 112.611 91.83C112.062 92.1276 111.427 92.2279 110.813 92.1141C110.353 92.0036 110.311 91.6796 110.24 91.3203C109.765 89.2856 107.428 87.5775 105.543 89.4589C105.229 89.7754 104.935 89.6976 104.585 89.4589C103.288 88.6224 102.054 88.9339 100.918 89.7905C100.742 89.9441 100.531 90.0511 100.303 90.1016C100.075 90.1521 99.838 90.1444 99.6137 90.0794C97.603 89.6248 95.8939 90.5818 95.1826 92.5914C94.9891 93.1415 94.7554 93.2947 94.2074 93.3877C92.2093 93.7268 90.2237 93.5032 88.2356 93.3625C87.5193 93.3123 87.2579 92.9029 87.4112 92.2171C87.9843 89.6147 88.5171 87.0198 89.3792 84.4752C90.0603 82.4656 90.3092 80.2978 90.8873 78.2304C91.6237 75.6205 92.247 72.9804 92.9306 70.3554C93.3001 68.9362 94.137 68.1876 95.6375 67.7153C97.138 67.2431 98.6486 67.5093 100.157 67.2908ZM104.145 85.1861C106.598 85.2364 108.77 83.375 108.755 81.0991C108.74 78.9464 107.634 76.9041 105.168 76.8112C103.11 76.7358 101.17 79.0519 101.109 81.6568C101.059 83.8045 102.215 85.156 104.145 85.1861Z" fill="#3C4746"/>
<path d="M74.8392 83.1966C75.641 83.9502 75.2941 85.2614 76.2039 85.9597C75.9278 86.1179 75.604 86.1714 75.2916 86.1105C73.4518 85.6081 72.6852 86.1356 72.4917 88.0949C72.4726 88.6479 72.3418 89.1914 72.1071 89.6926C71.8331 89.7805 71.431 90.0015 71.6044 90.22C72.2629 91.0038 71.9739 92.2573 72.9692 92.8376C73.0346 94.1362 72.3434 95.2717 72.1951 96.5402C72.0795 97.5174 71.6497 98.4443 72.1574 99.439C72.2067 99.5705 72.2253 99.7115 72.2118 99.8512C72.1983 99.991 72.153 100.126 72.0795 100.245C71.0465 101.567 71.338 103.496 69.9456 104.661C69.7169 104.599 69.6943 104.28 69.7269 104.114C70.1743 101.798 69.3349 99.5093 69.5184 97.2586C69.6264 95.9473 69.6415 94.5708 69.9406 93.2595C70.1919 92.1643 70.0436 91.2022 69.1866 90.4034C68.5582 89.8131 68.5305 89.0721 68.709 88.3009C68.9804 87.1178 68.3144 86.4923 67.3618 86.0879C66.3565 85.6608 65.5019 86.0552 64.9666 86.8866C64.2402 88.0095 63.9738 89.2328 64.7907 90.4813C65.2406 91.1696 64.9339 91.8805 64.7127 92.5486C64.1246 94.3221 63.8758 96.1308 63.6546 97.9921C63.3756 100.336 63.4787 102.742 62.7196 105.046C62.4482 105.872 62.6216 106.847 61.7545 107.44C61.5866 107.367 61.4525 107.234 61.3792 107.067C61.306 106.899 61.299 106.71 61.3598 106.538C61.8223 105.352 61.4478 104.184 61.1085 103.149C60.4374 101.072 60.9577 99.0521 60.9175 97.0074C60.9186 95.1573 61.016 93.3085 61.2091 91.4685C61.3071 90.2753 61.0658 88.9414 60.8145 87.7005C60.6159 86.7108 58.8791 85.8844 57.8512 86.113C57.0217 86.2964 56.5216 87.2208 56.7252 88.429C56.8559 89.2103 56.2803 89.6599 56.0089 90.215C55.5439 91.1696 55.3353 91.9985 55.7576 93.046C56.0657 93.7655 56.2175 94.5422 56.2027 95.3248C56.188 96.1073 56.0071 96.8777 55.6721 97.5852C55.4924 97.9861 55.3967 98.4196 55.3906 98.8589C55.3846 99.2982 55.4684 99.734 55.6369 100.14C55.9047 100.921 55.9906 101.752 55.8883 102.571C54.9809 102.32 54.8829 101.526 54.7773 100.898C54.6481 100.154 54.3932 99.4372 54.0233 98.7783C53.8527 98.5097 53.7501 98.2037 53.7242 97.8866C53.7745 96.181 53.6538 94.5381 52.6283 93.0711C52.5619 92.9257 52.5259 92.7683 52.5225 92.6085C52.519 92.4487 52.5482 92.2899 52.6083 92.1417C53.1311 90.73 52.8369 89.2932 52.8118 87.8714C52.7942 87.0374 52.4851 86.432 51.6155 86.1456C51.2881 86.0516 50.9951 85.8645 50.772 85.6072C50.5489 85.3499 50.4054 85.0335 50.3588 84.6962C51.6783 82.8348 53.6639 82.7947 55.5363 83.1514C57.449 83.5156 59.2084 83.9627 61.2091 83.3373C62.6015 82.9027 64.2251 83.3573 65.7005 82.8349C66.2409 82.6465 66.6682 83.086 67.1859 83.1413C67.7967 83.1966 68.2114 83.1238 68.3748 82.4782C69.1539 82.011 69.7872 81.3327 70.6669 81.0036C71.1696 80.8177 71.5467 80.7801 71.7075 81.3453C72.1901 82.9655 73.2985 83.4327 74.8392 83.1966Z" fill="#639158"/>
<path d="M38.6539 107.565C55.7299 112.087 72.7304 112.047 89.9723 107.779C88.9669 109.256 87.5267 109.811 86.1796 110.426C83.2515 111.763 80.1274 112.403 76.9756 113.004C71.9915 113.953 66.9673 113.898 61.9606 113.73C56.7177 113.554 51.442 113.34 46.3147 112.057C43.8013 111.429 41.288 110.673 39.4256 108.686C39.1315 108.372 38.752 108.113 38.6539 107.565Z" fill="#3C4746"/>
<path d="M83.3848 12.1429C87.4063 12.1002 91.6564 15.4511 92.5009 19.3497C93.368 23.3437 89.7035 27.5789 85.6117 27.1921C83.1661 26.9635 80.8539 26.3204 78.9286 24.5771C77.8598 23.6056 77.104 22.3385 76.7572 20.9368C76.4104 19.5351 76.4882 18.062 76.9807 16.7046C77.4386 15.3715 78.3022 14.215 79.4506 13.3969C80.599 12.5789 81.9746 12.1404 83.3848 12.1429ZM83.6186 13.1476C81.5375 13.0648 79.944 13.9665 78.9462 15.7324C77.9107 17.5687 78.1721 19.4426 79.293 21.1784C80.2064 22.551 81.5147 23.6145 83.0453 24.2284C84.576 24.8424 86.2569 24.978 87.8662 24.6173C88.4725 24.4809 89.0443 24.2219 89.5465 23.8561C90.0486 23.4903 90.4705 23.0256 90.7861 22.4906C91.1017 21.9557 91.3042 21.3617 91.3813 20.7454C91.4584 20.1292 91.4083 19.5037 91.2342 18.9076C90.3344 15.6973 86.9589 13.1426 83.6186 13.1401V13.1476Z" fill="#3C4746"/>
<path d="M39.8804 29.5132C38.8273 30.5908 38.3724 31.8367 38.3724 33.3916C38.4026 44.5322 38.3724 55.6728 38.3347 66.8134C38.3347 67.6474 38.2065 68.4789 38.1387 69.3128C38.0532 70.4131 37.8245 70.5287 36.882 69.9811C36.6639 69.8863 36.4352 69.818 36.2009 69.7776C36.6583 69.3807 36.8116 68.9587 36.794 68.2704C36.7161 65.0777 36.7638 61.8824 36.794 58.6897C36.8443 50.5032 36.9548 42.3167 36.9197 34.1302C36.9197 31.8694 37.7466 30.0457 38.9455 28.1366C39.3325 28.6365 40.2826 28.5486 39.8804 29.5132Z" fill="#639158"/>
<path d="M46.6867 14.9538C47.5194 14.959 48.3504 15.0287 49.1724 15.1623C51.5375 15.6647 53.3195 16.7674 53.9478 19.2794C54.649 22.0426 54.0584 24.4867 51.9371 26.3808C48.9788 29.0259 45.4526 29.1916 41.9313 27.9181C39.5889 27.0715 38.7368 24.8786 38.5986 22.5098C38.3271 17.7597 41.2753 14.9965 46.6867 14.9538ZM46.6163 15.8053C45.5833 15.6571 44.5125 15.936 43.5223 16.3304C41.5694 17.1116 40.094 18.4203 39.8703 20.661C39.6466 22.9017 40.6772 24.5922 42.806 25.6849C45.4953 27.069 48.0489 26.4033 50.4492 25.0343C52.485 23.8738 53.141 21.9321 52.6987 19.6688C52.2764 17.5009 50.7357 16.4811 48.7125 16.0164C48.0285 15.85 47.3247 15.7789 46.6213 15.8053H46.6163Z" fill="#3C4746"/>
<path d="M94.3757 95.5027C94.9086 95.6308 95.4314 95.2515 96.0296 95.6861C96.4845 96.0202 96.6755 95.2766 96.8766 94.9325C97.1706 94.4301 97.0048 93.8323 97.0877 93.2821C97.1807 92.6567 97.4019 92.0965 98.0931 91.9508C98.8471 91.7925 99.2819 92.2597 99.6162 92.8551C99.9505 93.4504 99.8675 94.1764 99.8826 94.8646C99.8826 95.2791 99.9128 95.7213 100.436 95.7841C100.958 95.8469 101.092 95.4022 101.235 95.0305C101.486 94.3774 101.335 93.6815 101.418 93.0083C101.534 92.0638 101.685 91.0942 102.901 91.0264C103.874 90.9711 104.389 91.7172 104.429 93.0661C104.429 93.4655 104.429 93.8674 104.449 94.2668C104.47 94.6662 104.422 95.1611 104.97 95.1912C105.196 95.1941 105.415 95.1095 105.58 94.955C105.745 94.8005 105.845 94.5881 105.857 94.3622C105.935 93.7282 105.957 93.0886 105.922 92.4507C105.895 91.6267 106.151 90.9033 107.018 90.8807C107.425 90.8524 107.827 90.983 108.139 91.2449C108.451 91.5068 108.649 91.8797 108.692 92.2848C109.129 94.7667 107.724 96.9044 105.214 97.2837C103.241 97.5826 101.237 97.6781 99.2467 97.8414C97.1731 98.0147 95.645 97.0224 94.3732 95.5052L94.3757 95.5027Z" fill="#2E7452"/>
<path d="M84.1665 113.737C83.5859 114.679 82.8696 114.92 82.1784 115.159C79.283 116.164 76.2669 116.558 73.2433 116.844C69.8577 117.166 66.4571 117.407 63.059 117.299C57.992 117.138 52.8949 117.131 47.9636 115.679C46.7296 115.315 45.4025 115.104 44.2187 113.785C57.6603 116.422 70.7977 116.963 84.1665 113.737Z" fill="#3C4746"/>
<path d="M74.2134 19.7969C74.3893 20.8017 74.5452 21.6934 74.7312 22.7484C68.4929 22.7108 62.3904 22.7962 56.2803 23.5146C56.2123 23.1222 56.1778 22.7247 56.1773 22.3264C56.2552 21.4572 56.4161 20.8192 57.6175 20.7589C62.7071 20.5077 67.7891 20.1285 72.8737 19.7994C73.2633 19.7743 73.6655 19.7969 74.2134 19.7969Z" fill="#3C4746"/>
<path d="M86.3456 86.8916C86.6347 87.6603 86.2099 87.8562 85.6268 87.9517C84.9582 88.0647 84.2896 88.1778 83.6161 88.321C83.4557 88.3502 83.3116 88.4371 83.2111 88.5653C83.1106 88.6936 83.0606 88.8542 83.0707 89.0168C83.0707 89.4238 83.3723 89.5845 83.6864 89.6322C84.3952 89.7403 85.1115 89.7905 85.8253 89.8658C85.858 89.9362 85.9234 90.0141 85.9133 90.0794C85.481 92.9857 85.486 92.9631 82.6333 92.4104C80.4754 92.0077 78.35 91.4469 76.2745 90.7325C75.7567 90.5491 75.0178 90.5491 75.1711 89.7704C75.3244 88.9917 75.2766 87.9542 76.3373 87.7608C77.6621 87.5565 78.9985 87.4365 80.3386 87.4016C81.55 87.3337 82.8369 87.5422 84.0132 87.0851C84.76 86.8162 85.5647 86.7494 86.3456 86.8916Z" fill="#3C4746"/>
<path d="M87.8661 96.8542C91.1762 96.5452 91.1787 96.5452 91.1837 99.6751C91.1837 101.152 91.1385 102.627 91.1837 104.101C91.2013 104.805 91.0002 105.186 90.2764 105.387C89.1831 105.691 88.1224 106.121 86.9814 106.52C86.627 105.568 86.7928 104.692 86.7727 103.837C86.7426 102.564 86.7853 101.285 86.7727 100.012C86.7727 99.3385 86.828 98.7356 87.5268 98.394C88.2255 98.0524 87.6751 97.3817 87.8661 96.8542Z" fill="#2E7452"/>
<path d="M61.8048 18.6388C61.4303 18.6639 60.9905 18.6815 60.5481 18.7268C59.6986 18.8122 58.8893 18.9176 58.4419 17.8903C57.9568 16.7724 57.6602 15.7049 58.5399 14.6574C60.4602 12.3765 64.7128 12.8035 66.1379 15.411C67.1156 17.2045 66.3616 18.4404 64.1272 18.6262C63.3882 18.6941 62.6267 18.6388 61.8048 18.6388ZM62.5588 15.6822C62.3866 15.4003 62.1925 15.1324 61.9783 14.8809C61.7018 14.6071 61.5962 13.9641 61.0005 14.263C60.4979 14.5142 60.704 15.0768 60.7492 15.4461C60.9201 16.9106 62.6041 17.5737 63.8482 16.7021C64.0996 16.5212 64.3107 16.2801 64.19 15.9309C64.1575 15.7928 64.0782 15.6703 63.9654 15.5842C63.8527 15.4981 63.7135 15.4537 63.5717 15.4587C63.2277 15.5096 62.8875 15.5843 62.5538 15.6822H62.5588Z" fill="#FADAA1"/>
<path d="M67.6585 18.3073C68.1612 13.9113 65.0421 11.9268 61.6465 12.0273C59.9248 12.0751 58.4495 12.7809 57.4592 14.2278C56.4287 15.735 56.9238 17.3477 57.419 18.9001C56.009 19.2995 55.7702 19.1513 55.6596 17.8426C55.27 13.0422 58.9446 10.0555 63.6572 11.3768C67.2212 12.364 68.9353 14.4715 68.684 17.5085C68.6312 18.1139 68.4879 18.5358 67.6585 18.3073Z" fill="#3C4746"/>
<path d="M37.1309 80.6118C37.5757 80.6796 37.9653 80.549 38.4403 80.0366V94.606C38.4177 95.1486 38.3976 95.6887 38.375 96.2312L38.1236 96.2538C37.4073 95.4007 37.0015 94.3302 36.9725 93.2169C36.9575 89.8986 36.9725 86.5827 36.9951 83.2644C37.4978 83.0132 37.533 82.7771 36.9951 82.5284C36.9317 81.8865 36.9776 81.2384 37.1309 80.6118Z" fill="#639158"/>
<path d="M34.0722 93.1013C36.6006 94.5758 36.9676 98.0725 34.8513 99.8258C34.5044 100.115 34.1425 100.406 33.6725 100.205C33.2628 100.029 33.4036 99.5923 33.3407 99.2531C33.0416 97.6254 33.4689 96.0101 33.396 94.3849C33.3734 93.8875 33.6348 93.4806 34.0722 93.1013Z" fill="#2E7452"/>
<path d="M74.7915 101.12C73.7082 99.2506 74.0953 97.4646 74.5402 95.7037C74.6834 95.1284 74.9624 94.5959 74.9147 93.9755C74.8795 93.5133 75.0177 93.0109 75.4676 92.9003C76.0356 92.7597 76.5509 93.1515 76.9756 93.4957C77.3451 93.7921 77.0938 94.1689 76.8525 94.5256C76.3146 95.3194 76.3246 96.2413 76.3146 97.1682C76.292 98.5749 75.9653 99.8937 74.7915 101.12Z" fill="#639158"/>
<path d="M38.3775 98.8537C38.5685 100.994 38.4454 103.124 38.468 105.322C37.4099 105.272 36.96 104.774 36.96 103.815C36.9399 102.084 36.6106 100.298 37.9528 98.8436L38.3775 98.8537Z" fill="#639158"/>
<path d="M71.0541 18.1541C72.0042 17.0187 73.2835 17.712 74.4346 17.6893C73.477 18.772 72.2002 18.1038 71.0541 18.1541Z" fill="#2E7452"/>
<path d="M72.9794 92.8351C71.974 92.2548 72.2731 91.0013 71.6146 90.2175C71.4311 89.999 71.8332 89.778 72.1172 89.6901C72.502 90.7093 72.7907 91.7622 72.9794 92.8351Z" fill="#2E7452"/>
<path d="M38.3775 98.8537H37.9401C38.767 98.0398 38.2116 97.128 38.1261 96.2488L38.3775 96.2262C38.6611 97.0791 38.6611 98.0008 38.3775 98.8537Z" fill="#2E7452"/>
<path d="M37.0052 82.5158C37.538 82.767 37.5078 83.0182 37.0052 83.2518C37.0026 83.0056 37.0026 82.762 37.0052 82.5158Z" fill="#2E7452"/>
<path d="M36.2161 69.7751C36.0854 69.966 35.9949 69.8555 35.9069 69.7324L36.2161 69.7751Z" fill="#639158"/>
<path d="M34.3058 76.1479L34.0394 76.2585C34.0997 76.1279 34.1827 76.0776 34.3058 76.1479Z" fill="#33284F"/>
<path d="M28.6456 56.9916C27.678 58.4787 26.7355 59.9834 25.7276 61.4429C25.4134 61.895 24.9258 62.2592 24.2849 61.9628C24.0299 61.8447 23.816 61.6533 23.6705 61.413C23.525 61.1727 23.4544 60.8945 23.468 60.6139C23.4404 59.6895 23.7194 58.9434 24.5563 58.4009C25.7627 57.6121 27.11 57.2328 28.4169 56.7279L28.6456 56.9916Z" fill="#3DA4A0"/>
<path d="M98.5731 55.9266C100.172 56.0748 101.185 56.8585 102.019 57.8884C102.386 58.3431 102.494 58.9711 101.949 59.3805C101.464 59.7448 101.016 59.4886 100.591 59.0841C99.6891 58.225 99.1311 57.1851 98.5731 55.9266Z" fill="#3DA4A0"/>
<path d="M99.2065 45.7732C99.9153 45.7732 100.624 45.7732 101.333 45.7732C101.926 45.7732 102.23 46.1022 102.461 46.6348C102.693 47.1673 102.288 47.4964 102.039 47.7627C101.637 48.1972 101.32 47.622 100.956 47.5115C100.049 47.2753 99.7595 46.4514 99.0809 46.0244L99.2065 45.7732Z" fill="#3DA4A0"/>
<path d="M66.6783 59.4082C65.9695 59.2525 65.9695 59.2525 65.0094 58.2703C64.5067 58.6797 64.0217 59.1419 63.4737 59.5036C59.9047 61.8599 56.0718 62.1061 52.2841 60.3401C48.4587 58.5566 46.9784 55.1278 47.0764 51.081C47.1367 48.7122 47.7902 46.4188 49.4339 44.5499C49.8562 44.0701 50.2106 43.5326 50.6328 43.0427C51.0978 42.5177 51.0626 42.1736 50.6504 41.5205C49.8562 40.2645 48.9237 39.7922 47.4559 39.9253C46.727 39.9931 45.6714 39.9454 45.3723 39.1039C45.121 38.4081 45.7493 37.7048 46.1841 37.1119C47.6419 35.1325 51.3366 34.4744 53.4553 35.8057C53.8826 36.0745 54.2094 36.3081 54.712 35.8911C57.1224 33.8413 59.7866 34.0021 62.486 35.1576C63.3556 35.5294 63.8583 35.3686 64.5872 34.7808C66.3591 33.3565 68.3095 32.5402 70.7023 33.4269C72.3334 34.0298 72.9215 35.248 73.2483 36.8482C74.2134 36.19 74.887 35.3536 75.6561 34.6251C77.134 33.2209 78.818 32.6833 80.8312 33.2837C82.0452 33.6479 82.8067 34.4718 83.3245 35.5445C83.6236 36.1599 83.9956 36.4764 84.7069 36.4136C86.0188 36.298 87.1071 36.8632 88.399 37.8103C86.4738 37.7902 85.7398 39.1617 84.737 40.1565C83.8372 41.0457 83.9201 41.6636 84.8576 42.5554C85.8906 43.5601 87.0317 44.4695 87.7581 45.733C89.5828 48.9082 89.9875 52.2842 88.4467 55.6252C86.9387 58.8907 84.3499 61.0159 80.6226 61.3776C77.1994 61.7092 74.0878 60.9355 71.5744 58.4637C68.7368 54.9469 68.1587 51.0961 69.898 46.9086C69.9709 46.7353 70.1166 46.5218 69.9407 46.356C69.0132 45.4869 69.1716 44.3665 69.5385 43.4345C70.1116 41.9701 69.9356 40.5131 69.8628 39.0562C69.7874 37.549 68.9629 36.9361 67.4574 36.8632C66.3063 36.808 65.5548 37.5867 64.655 38.0539C64.0041 38.393 63.431 39.0838 62.7021 38.1845C62.6345 38.1067 62.5393 38.0582 62.4365 38.0493C62.3338 38.0404 62.2317 38.0718 62.1517 38.1368C61.649 38.6066 61.2142 39.2044 61.3122 39.8952C61.4027 40.5483 62.0662 40.478 62.5689 40.488C62.77 40.488 62.9686 40.488 63.1696 40.488C64.929 40.5131 66.2761 41.9349 66.5275 43.6807C66.726 45.0648 66.2762 46.464 66.995 47.8607C67.8457 49.5677 68.0172 51.5335 67.475 53.3619C66.9221 55.3689 66.3264 57.3157 66.6783 59.4082ZM57.0721 59.2851C62.2296 59.5212 65.6176 55.5523 65.7006 51.2342C65.7307 50.1224 65.5362 49.0159 65.1285 47.9809C64.7208 46.946 64.1085 46.0039 63.328 45.211C62.5476 44.4181 61.6151 43.7907 60.5864 43.3663C59.5577 42.942 58.4539 42.7293 57.341 42.7412C52.7265 42.7287 49.0343 46.6197 49.072 51.4804C49.1022 55.8764 52.3771 59.5137 57.0721 59.2826V59.2851ZM87.1775 51.1714C87.5269 46.7504 83.1837 42.7463 79.1824 42.8317C74.5151 42.9297 70.8204 46.6198 70.8279 51.2518C70.8279 55.7307 74.6181 59.4107 79.1648 59.3605C83.7668 59.3128 87.2077 55.796 87.1775 51.1714ZM81.09 41.2165C81.5098 40.0334 81.2032 39.0788 80.3009 38.3956C79.7138 37.932 78.9848 37.6848 78.2367 37.6958C77.4886 37.7067 76.7671 37.9752 76.194 38.4559C75.832 38.7648 75.528 39.2496 74.9851 39.0889C73.5424 38.6644 73.0774 39.6867 72.3535 40.6689C73.2533 41.003 73.9043 41.8068 74.6709 41.5983C76.762 41.0331 78.8657 41.1964 81.09 41.2165ZM58.271 40.9653C58.4294 39.2069 57.6778 38.5262 56.0969 39.006C55.0852 39.3581 53.9914 39.4009 52.9552 39.129C52.3143 38.9432 51.9046 39.1944 51.6985 39.6993C51.4723 40.2494 52.0052 40.3875 52.3696 40.6312C54.3074 41.9224 56.3156 40.7443 58.271 40.9703V40.9653Z" fill="#1D2831"/>
<path d="M81.055 79.4512C79.9706 79.4668 78.8947 79.2572 77.8956 78.8358C71.7906 76.0198 65.7182 76.5097 59.661 78.9689C57.7684 79.7376 55.8909 80.5389 53.8048 80.5967C50.9018 80.6796 48.9917 78.9111 48.7227 76.0073C48.6 74.7698 48.8456 73.5236 49.429 72.4252C51.7639 67.9765 55.1344 64.9295 60.219 63.7413C65.3036 62.5531 70.3353 62.0985 75.4425 63.3042C76.6059 63.5927 77.744 63.975 78.8457 64.4472C83.8373 66.5296 85.5615 72.3724 84.7471 76.281C84.3048 78.4338 83.0657 79.4964 81.055 79.4512ZM60.4728 66.7004C60.5131 66.3387 60.5633 65.8514 60.0355 65.9694C58.4144 66.3312 56.7932 66.723 55.5114 67.994C56.097 67.7981 56.5846 68.2628 57.135 68.1121H60.4803L60.4728 66.7004ZM77.8152 67.4263L77.0285 70.1393C78.3782 70.7673 79.3434 69.976 80.3311 69.2877C80.9318 68.1473 80.0019 66.9591 78.1093 66.4593C77.9912 66.5885 77.9032 66.7422 77.8515 66.9093C77.7998 67.0765 77.7857 67.2531 77.8102 67.4263H77.8152ZM68.0808 66.1704C68.3321 65.8061 68.2819 65.4369 68.0808 64.9822C66.0148 64.8566 63.9488 64.9144 61.9431 65.6228C61.3374 66.4542 61.9029 67.2455 61.9683 68.1347C63.979 68.0468 65.9244 68.5593 67.8647 68.3231C68.1839 67.572 67.7089 66.8184 68.0758 66.1628L68.0808 66.1704ZM76.1237 67.6374C76.9506 65.9543 76.9104 65.8639 75.1435 65.3766C73.7234 64.9847 72.243 65.0149 70.8003 64.7763C70.4434 64.716 69.9835 64.726 69.9382 65.1932C69.8151 66.409 69.5361 67.6474 70.1444 68.8255L75.2742 69.7072C75.5431 69.0164 75.8296 68.3256 76.1137 67.6298L76.1237 67.6374ZM66.5125 74.7965C63.23 72.7141 59.7112 73.2893 58.0499 76.0374C57.8925 76.0529 57.7349 76.0104 57.6067 75.9179C57.4785 75.8253 57.3885 75.6892 57.3537 75.535C56.7857 74.0605 55.5038 73.7615 54.1416 73.6987C52.7064 73.6359 51.1255 74.9296 51.1255 76.0876C51.1255 77.4566 52.6336 78.6574 54.2522 78.5117C55.0876 78.4171 55.9018 78.1863 56.6625 77.8285C59.7971 76.3942 63.1048 75.3725 66.5025 74.7889L66.5125 74.7965Z" fill="#1D2831"/>
<path d="M66.6784 59.4082C66.3265 57.3157 66.9297 55.3689 67.4675 53.3795C68.0097 51.5511 67.8382 49.5852 66.9875 47.8783C66.2586 46.4816 66.7185 45.0824 66.52 43.6983C66.2686 41.9525 64.9165 40.5307 63.1621 40.5056C62.9611 40.5056 62.7625 40.5056 62.5614 40.5056C62.0461 40.5056 61.3902 40.5658 61.3047 39.9127C61.2067 39.2169 61.6289 38.6191 62.1442 38.1544C62.2242 38.0893 62.3264 38.058 62.4291 38.0669C62.5318 38.0758 62.627 38.1243 62.6946 38.2021C63.4235 39.1014 63.9965 38.4106 64.6475 38.0715C65.5473 37.6043 66.2989 36.8155 67.45 36.8808C68.958 36.9537 69.7799 37.5741 69.8553 39.0738C69.9281 40.5307 70.1066 41.9876 69.531 43.4521C69.1641 44.3841 69.0057 45.5044 69.9332 46.3736C70.1091 46.5394 69.9634 46.7529 69.8905 46.9262C68.1512 51.1112 68.7293 54.9645 71.5669 58.4813C70.6369 60.8099 68.5156 60.9179 66.6784 59.4082Z" fill="#7C9A45"/>
<path d="M74.8392 83.1966C73.2985 83.4327 72.19 82.9655 71.7376 81.3478C71.5768 80.7826 71.1897 80.8202 70.6971 81.0061C69.8174 81.3352 69.189 82.0109 68.4049 82.4807C67.3668 82.4807 66.6455 81.7974 65.8462 81.2975C64.8711 80.6846 64.0592 80.7097 63.3881 81.7321C63.0966 82.1717 62.712 82.4681 62.1918 82.0863C61.6715 81.7045 61.9932 81.2096 62.237 80.8303C63.074 79.509 65.801 79.1472 67.0878 80.2952C67.965 81.0764 68.5029 81.1493 69.3173 80.1998C70.3628 78.979 72.0543 79.0292 72.7932 80.2927C73.4467 81.408 74.0776 82.2144 75.4826 81.5487C75.7918 82.4254 75.5479 82.9127 74.8392 83.1966Z" fill="#125632"/>
<path d="M55.0061 28.4004C55.6797 29.1188 56.5343 28.8425 57.2028 29.2193C57.7759 29.5408 58.3238 29.8196 58.3665 30.5883C58.4092 31.4173 58.1403 32.0528 57.4089 32.4999C56.9388 32.7667 56.3947 32.8737 55.8585 32.8049C55.3223 32.736 54.823 32.495 54.4356 32.1181C53.7142 31.3796 53.8475 30.5431 54.3149 29.7116C54.5236 29.3348 54.7171 28.9505 55.0061 28.4004Z" fill="#639158"/>
<path d="M43.7637 56.64L43.3766 56.213C43.3616 55.3715 44.1809 54.7058 43.9095 53.5452C42.4014 55.5297 41.009 57.2881 40.4058 59.5489C40.074 60.7873 39.9509 61.9754 40.5415 63.1586C41.0668 64.2086 41.9968 64.603 43.0901 64.6381C43.5735 64.6774 44.0581 64.5782 44.4872 64.3522C44.9163 64.1262 45.2721 63.7827 45.513 63.362C46.6214 61.4555 45.6763 57.8508 43.7637 56.64Z" fill="#3DA4A0"/>
<path d="M48.3155 58.6345C49.9517 59.5337 50.9621 60.8048 52.2816 61.674C53.6011 62.5431 55.2725 62.1764 56.964 62.7943C53.9756 63.6383 52.2489 63.254 49.7783 61.4529C48.8835 60.8023 48.3808 60.011 48.3155 58.6345Z" fill="#125632"/>
<path d="M87.6926 59.2826C87.2478 61.473 82.6935 64.0553 80.0947 62.7315C80.1097 62.6612 80.1198 62.5305 80.1449 62.528C82.6231 62.2592 84.6339 60.9756 86.5993 59.584C86.8702 59.3432 87.211 59.1953 87.572 59.162L87.6926 59.2826Z" fill="#125632"/>
<path d="M87.5721 59.1492L87.7421 59.1017C87.7271 59.1592 87.7095 59.2141 87.692 59.2691L87.5721 59.1492Z" fill="#1D2831"/>
<path d="M104.145 85.1861C102.215 85.1484 101.059 83.8045 101.109 81.6694C101.17 79.0644 103.12 76.7484 105.168 76.8237C107.634 76.9167 108.74 78.9589 108.755 81.1116C108.77 83.3749 106.599 85.2364 104.145 85.1861ZM107.129 80.7902C107.156 79.5342 106.307 78.4163 105.291 78.3736C103.947 78.3184 102.527 80.0491 102.527 81.7396C102.527 82.8675 103.145 83.591 104.11 83.5935C105.686 83.596 107.096 82.2773 107.129 80.7902Z" fill="#1D2831"/>
<path d="M83.6185 13.1376C86.9588 13.1376 90.3343 15.6973 91.2341 18.9152C91.4082 19.5113 91.4583 20.1368 91.3813 20.753C91.3042 21.3693 91.1016 21.9632 90.7861 22.4982C90.4705 23.0332 90.0486 23.4979 89.5464 23.8637C89.0442 24.2294 88.4724 24.4885 87.8662 24.6249C86.2564 24.985 84.575 24.8487 83.0444 24.2338C81.5137 23.6189 80.2056 22.5544 79.293 21.181C78.172 19.4452 77.9107 17.5712 78.9462 15.735C79.944 13.959 81.5375 13.0623 83.6185 13.1376ZM89.809 19.9526C89.7839 19.405 89.9121 18.8699 89.6306 18.3173C88.772 16.6267 87.3074 15.3217 85.5287 14.6624C83.5432 13.8862 81.0046 14.5318 80.3034 16.0942C79.298 18.3751 79.3659 20.2139 81.5324 21.8718C82.7861 22.8725 84.3192 23.4604 85.9208 23.5548C88.4242 23.6753 89.7889 22.4294 89.809 19.9526Z" fill="#1D2831"/>
<path d="M46.6215 15.8053C47.3269 15.7801 48.0323 15.8528 48.7177 16.0214C50.7284 16.4861 52.2816 17.5059 52.7039 19.6738C53.1462 21.9346 52.4903 23.8788 50.4544 25.0393C48.0541 26.4083 45.5005 27.074 42.8112 25.6899C40.6824 24.5922 39.6493 22.9268 39.8755 20.666C40.1017 18.4052 41.5746 17.1166 43.5275 16.3354C44.5127 15.936 45.5835 15.6571 46.6215 15.8053ZM46.2369 25.185C47.559 24.8886 49.1173 24.5822 50.3464 23.4267C51.211 22.6203 51.2713 21.7486 51.2788 20.5303C51.2788 19.2392 50.849 18.6087 50.0372 18.0184C47.9838 16.5112 44.3771 16.682 42.4392 18.3148C41.7805 18.8455 41.3534 19.6109 41.2479 20.4499C40.8734 23.2885 42.6604 24.969 46.2319 25.185H46.2369Z" fill="#1D2831"/>
<path d="M62.5537 15.6822C62.8835 15.5874 63.2194 15.5153 63.5591 15.4662C63.7009 15.4613 63.84 15.5056 63.9528 15.5917C64.0655 15.6779 64.1449 15.8004 64.1774 15.9384C64.298 16.2876 64.0944 16.5288 63.8356 16.7096C62.5789 17.5737 60.9074 16.9106 60.7365 15.4536C60.6938 15.0844 60.4852 14.5267 60.9879 14.2705C61.5835 13.9716 61.6891 14.6146 61.9656 14.8884C62.1821 15.1372 62.3787 15.4026 62.5537 15.6822Z" fill="#1D2831"/>
<path d="M57.072 59.2826C52.377 59.5112 49.102 55.8738 49.0719 51.4779C49.0342 46.6172 52.7263 42.7261 57.3409 42.7387C58.4537 42.7268 59.5575 42.9394 60.5862 43.3638C61.6149 43.7882 62.5474 44.4156 63.3279 45.2085C64.1083 46.0014 64.7207 46.9434 65.1284 47.9784C65.536 49.0133 65.7306 50.1198 65.7004 51.2317C65.6225 55.5523 62.2295 59.5338 57.072 59.2826ZM64.2804 52.2139C63.7601 52.6585 63.6495 53.2187 63.3856 53.701C61.7796 56.5998 58.6353 57.3584 55.4634 56.3737C53.2215 55.6779 51.4998 53.4673 52.284 50.0938C52.573 48.8378 51.5928 48.8001 50.9645 48.5489C50.1401 48.2199 49.9591 49.0991 49.7933 49.5763C49.0518 51.6889 50.1652 55.2258 51.902 56.7179C55.0512 59.4283 59.8191 58.9158 62.7095 56.3863C63.9059 55.3438 64.6549 54.0075 64.2804 52.2164V52.2139ZM54.7295 51.4603C54.7119 53.4423 56.0315 54.9771 57.8864 54.9444C60.2087 54.9092 61.3171 53.5377 61.3774 51.5834C61.4377 49.6291 60.0579 48.1922 58.1452 48.1973C56.2326 48.2023 54.7421 49.6165 54.722 51.4603H54.7295Z" fill="#EFD5AB"/>
<path d="M87.1774 51.1714C87.2076 55.7959 83.7667 59.3127 79.1647 59.3605C74.618 59.4107 70.8354 55.7307 70.8278 51.2518C70.8278 46.6197 74.515 42.9296 79.1823 42.8317C83.1836 42.7463 87.5268 46.7503 87.1774 51.1714ZM85.8403 51.7668C83.9502 55.6076 81.0372 57.4539 78.1619 56.4516C74.5149 55.1805 73.2859 53.4372 73.8162 48.1294C73.4618 48.0817 73.1954 48.4861 72.8234 48.3303C72.0694 48.0113 71.8181 48.5338 71.6447 49.1066C71.1043 51.0282 71.2073 52.8519 72.2152 54.6555C73.4166 56.8008 75.3418 57.7402 77.5838 58.2878C81.1679 59.1645 84.8902 57.0319 85.9986 53.3267C86.1544 52.8042 86.2148 52.3194 85.8302 51.7668H85.8403ZM83.1107 51.606C83.1107 49.7546 81.7108 48.2374 79.9765 48.2249C78.1795 48.2098 76.6161 49.6743 76.586 51.3975C76.5533 53.2262 77.9809 54.8665 79.6373 54.9017C81.5851 54.9469 83.1057 53.505 83.1107 51.606Z" fill="#EFD5AB"/>
<path d="M81.09 41.2165C78.8656 41.2165 76.762 41.0331 74.6709 41.5983C73.9168 41.8068 73.2532 41.0029 72.3535 40.6688C73.0773 39.6866 73.5423 38.6593 74.985 39.0888C75.5279 39.2496 75.832 38.7648 76.1939 38.4558C76.7671 37.9752 77.4886 37.7067 78.2367 37.6957C78.9848 37.6847 79.7138 37.9319 80.3008 38.3955C81.2031 39.0788 81.5097 40.0333 81.09 41.2165Z" fill="#7C9A45"/>
<path d="M58.271 40.9703C56.3156 40.7443 54.3074 41.9224 52.3695 40.6362C52.0051 40.385 51.4722 40.2544 51.6984 39.7043C51.9045 39.2019 52.3142 38.9507 52.9551 39.1341C53.9913 39.4059 55.0851 39.3631 56.0969 39.011C57.6803 38.5312 58.4343 39.217 58.271 40.9703Z" fill="#7C9A45"/>
<path d="M66.5024 74.789C63.1032 75.3705 59.7938 76.3906 56.6574 77.8235C55.8967 78.1813 55.0825 78.4121 54.2471 78.5067C52.6385 78.6524 51.1229 77.4517 51.1204 76.0826C51.1204 74.9246 52.6963 73.631 54.1364 73.6938C55.4987 73.7566 56.7805 74.0555 57.3485 75.53C57.3833 75.6842 57.4733 75.8204 57.6015 75.9129C57.7298 76.0054 57.8874 76.0479 58.0448 76.0324C59.691 73.2768 63.2098 72.7066 66.5024 74.789Z" fill="#DE3338"/>
<path d="M70.1343 68.8281C69.526 67.6499 69.805 66.4115 69.9282 65.1958C69.9734 64.7285 70.4308 64.7184 70.7902 64.7787C72.2329 65.0174 73.7133 64.9873 75.1334 65.3791C76.8928 65.8664 76.9406 65.9569 76.1136 67.6399C74.9575 67.1676 73.8113 66.6527 72.5521 66.6049C72.3737 66.9491 72.2279 67.2355 72.0495 67.567C70.8028 67.0873 70.3178 67.7404 70.1343 68.8281Z" fill="#E5C48F"/>
<path d="M68.0758 66.1629C67.7089 66.8286 68.1839 67.5696 67.8647 68.3106C65.9243 68.5468 63.989 68.0343 61.9683 68.1222C61.9029 67.238 61.3374 66.4468 61.9431 65.6103C62.0864 66.0172 62.3001 66.2408 62.8002 66.1277C63.4888 65.9316 64.1985 65.8195 64.914 65.7936C65.9746 65.8137 67.1333 65.143 68.0758 66.1629Z" fill="#EFD5AB"/>
<path d="M70.1341 68.8281C70.3176 67.7504 70.8026 67.0973 72.0568 67.5721C72.2277 67.2405 72.3735 66.9541 72.5595 66.61C73.8162 66.6577 74.9648 67.1727 76.121 67.6449C75.837 68.3383 75.5504 69.0316 75.2714 69.7148L70.1341 68.8281Z" fill="#EFD5AB"/>
<path d="M68.0757 66.1628C67.1332 65.143 65.972 65.8162 64.9139 65.7986C64.1984 65.8244 63.4887 65.9366 62.8001 66.1327C62.2975 66.2458 62.0863 66.0222 61.943 65.6153C63.9537 64.9069 66.0147 64.8491 68.0807 64.9747C68.2767 65.4294 68.3321 65.7986 68.0757 66.1628Z" fill="#E5C48F"/>
<path d="M80.3259 69.2878C79.3382 69.9761 78.373 70.7673 77.0233 70.1393L77.81 67.4264C78.3479 68.4538 79.5468 68.602 80.3259 69.2878Z" fill="#EFD5AB"/>
<path d="M57.1299 68.1122C56.5794 68.2629 56.0918 67.7982 55.5062 67.9941C56.7956 66.7381 58.4167 66.3312 60.0303 65.9695C60.5581 65.8514 60.5079 66.3387 60.4677 66.7005C59.2181 66.7398 58.0281 67.2431 57.1299 68.1122Z" fill="#E5C48F"/>
<path d="M80.326 69.2878C79.5343 68.602 78.348 68.4538 77.8126 67.4264C77.7875 67.2535 77.8007 67.0772 77.8516 66.91C77.9024 66.7429 77.9895 66.589 78.1066 66.4593C79.9967 66.9592 80.9267 68.1473 80.326 69.2878Z" fill="#E5C48F"/>
<path d="M57.1299 68.1121C58.03 67.2414 59.2231 66.738 60.4752 66.7004V68.1121H57.1299Z" fill="#EFD5AB"/>
<path d="M107.129 80.7902C107.096 82.2772 105.673 83.596 104.113 83.5935C103.148 83.5935 102.529 82.8675 102.529 81.7396C102.529 80.0491 103.957 78.3183 105.294 78.3736C106.307 78.4163 107.156 79.5317 107.129 80.7902Z" fill="#3C4746"/>
<path d="M89.8116 19.9526C89.789 22.4294 88.4242 23.6754 85.9209 23.5598C84.3192 23.4655 82.7861 22.8775 81.5324 21.8768C79.3659 20.2139 79.2955 18.3751 80.3034 16.0993C80.9946 14.5368 83.5432 13.8912 85.5288 14.6674C87.3074 15.3266 88.7721 16.6317 89.6306 18.3223C89.9121 18.8699 89.7839 19.405 89.8116 19.9526ZM82.5831 15.3708C81.8693 15.9184 81.726 16.4484 82.2739 17.1292C82.9249 17.933 83.508 18.7896 84.164 19.5909C84.4304 19.9149 84.8501 20.3595 85.2699 19.9501C86.0616 19.1789 87.1549 18.9453 87.9844 18.2495C88.2834 17.9983 88.5649 17.7923 88.4016 17.3778C88.2382 16.9634 87.8687 16.9433 87.4967 16.9508C86.8557 16.9771 86.2292 17.1489 85.6645 17.4532C84.9406 17.82 84.5133 17.5989 84.0559 16.9985C83.6336 16.4358 83.3421 15.74 82.5831 15.3708Z" fill="#FADAA1"/>
<path d="M46.2318 25.185C42.6603 24.969 40.8733 23.2885 41.2428 20.4575C41.3483 19.6184 41.7754 18.853 42.4341 18.3223C44.3719 16.6895 47.9787 16.5187 50.0321 18.0259C50.8439 18.6187 51.2888 19.2492 51.2737 20.5379C51.2737 21.7562 51.2058 22.6279 50.3412 23.4342C49.1122 24.5822 47.5539 24.8886 46.2318 25.185ZM43.1378 20.8695C43.9899 21.3091 45.0254 21.0327 45.8197 21.7788C45.9956 21.9446 47.3026 22.2938 47.5162 21.2287C47.6519 20.558 47.8832 19.9224 48.0314 19.2643C48.1797 18.6062 48.2099 18.0083 47.4961 17.624C46.7094 18.2997 46.4581 19.2417 46.0861 20.1184C45.0506 20.244 44.1131 19.5783 43.0072 19.9124C43.2233 20.2164 43.08 20.5605 43.1378 20.8695Z" fill="#FADAA1"/>
<path d="M64.2805 52.2164C64.655 54.015 63.906 55.3438 62.7071 56.3913C59.8192 58.9209 55.0513 59.4333 51.8995 56.7229C50.1628 55.2308 49.0494 51.6989 49.7908 49.5813C49.9567 49.104 50.1377 48.2249 50.9621 48.554C51.5904 48.8052 52.5706 48.8503 52.2816 50.0988C51.4974 53.4699 53.2191 55.6804 55.461 56.3787C58.6329 57.3634 61.7772 56.6048 63.3832 53.706C63.6496 53.2313 63.7602 52.6611 64.2805 52.2164Z" fill="#E5C48F"/>
<path d="M54.7221 51.4603C54.7422 49.6165 56.2301 48.1948 58.1378 48.1948C60.0454 48.1948 61.4303 49.5939 61.37 51.5809C61.3096 53.5679 60.2013 54.9067 57.8789 54.9419C56.024 54.972 54.7045 53.4423 54.7221 51.4603Z" fill="#1D2831"/>
<path d="M85.8303 51.7667C86.2048 52.3194 86.1445 52.8042 85.9887 53.3266C84.8803 57.0293 81.1579 59.1645 77.5738 58.2878C75.3319 57.7402 73.4067 56.8007 72.2053 54.6555C71.1999 52.8519 71.0944 51.0282 71.6347 49.1065C71.7981 48.5338 72.0545 48.0113 72.8135 48.3303C73.1855 48.486 73.4519 48.0791 73.8063 48.1294C73.2759 53.4422 74.505 55.1805 78.1519 56.4515C81.0373 57.4538 83.9503 55.6075 85.8303 51.7667Z" fill="#E5C48F"/>
<path d="M83.1109 51.606C83.1109 53.505 81.5853 54.9469 79.6374 54.9017C77.9811 54.8665 76.5534 53.2262 76.5861 51.3975C76.6163 49.6743 78.1796 48.2098 79.9767 48.2248C81.7109 48.2299 83.1159 49.7546 83.1109 51.606Z" fill="#1D2831"/>
<path d="M82.5831 15.3707C83.3371 15.74 83.6336 16.4358 84.0559 16.9909C84.5133 17.5913 84.9406 17.8124 85.6645 17.4456C86.2292 17.1413 86.8557 16.9695 87.4967 16.9432C87.8687 16.9432 88.2508 16.9708 88.4016 17.3702C88.5524 17.7697 88.2834 17.9958 87.9844 18.242C87.1549 18.9302 86.0616 19.1713 85.2699 19.9425C84.8501 20.352 84.4304 19.9074 84.164 19.5833C83.508 18.782 82.9249 17.9254 82.2739 17.1216C81.726 16.4484 81.8693 15.9183 82.5831 15.3707Z" fill="#1D2831"/>
<path d="M43.1379 20.8695C43.0801 20.5605 43.2234 20.2163 43.0072 19.9124C44.1131 19.5783 45.0506 20.244 46.0861 20.1184C46.4581 19.2417 46.7094 18.2997 47.4961 17.624C48.2099 18.0058 48.1697 18.6288 48.0315 19.2643C47.8933 19.8998 47.652 20.558 47.5162 21.2287C47.3026 22.2937 46.0082 21.9446 45.8197 21.7788C45.0255 21.0327 43.9899 21.3091 43.1379 20.8695Z" fill="#1D2831"/>
</svg>
