<svg width="129" height="129" viewBox="0 0 129 129" fill="none" xmlns="http://www.w3.org/2000/svg">
<path d="M128.691 0.386963H0.0057373V129H128.691V0.386963Z" fill="#BC582A"/>
<path opacity="0.3" d="M66.7362 123.725C89.4317 123.725 107.83 120.913 107.83 117.445C107.83 113.977 89.4317 111.165 66.7362 111.165C44.0406 111.165 25.6423 113.977 25.6423 117.445C25.6423 120.913 44.0406 123.725 66.7362 123.725Z" fill="#1D2831"/>
<path d="M25.7026 103.677C25.4739 104.179 24.9762 104.43 24.7148 104.933C24.2825 105.762 24.1368 106.357 24.4861 107.382C24.9888 108.867 24.2876 110.416 23.2897 111.652C22.3623 112.808 21.1031 112.702 19.8364 112.321C17.1169 111.494 14.4552 110.507 11.9669 109.118C10.6323 108.364 9.5591 107.259 9.823 105.641C10.0944 103.971 10.2955 102.084 12.4394 101.506C13.1281 101.321 13.5252 99.6928 13.0778 99.0397C11.4894 96.7211 11.7734 94.1664 13.862 92.2347C14.1938 91.9308 14.6336 91.4937 14.9981 91.5163C16.9635 91.6394 17.3305 90.0845 17.8985 88.8235C18.8209 86.7813 20.0098 85.1233 22.4226 84.7616C23.9055 84.5405 25.2401 85.0304 26.537 85.6056C28.0451 86.2713 29.3721 87.1932 30.3574 88.5673C31.0662 89.5545 31.0536 90.514 30.3775 91.456C29.8748 92.1644 29.3872 92.9632 28.779 93.5108C27.7912 94.4151 28.1255 95.1361 28.6483 96.0856C28.8418 95.862 28.9851 95.7139 29.1082 95.5531C31.1189 92.9356 32.0489 92.7195 35.0675 94.179C35.1361 94.226 35.2104 94.264 35.2887 94.2921C35.819 94.3775 36.4574 95.0457 36.8319 94.5433C37.2994 93.8977 36.377 93.6088 36.0276 93.2496C29.9955 87.0023 26.7884 79.4714 25.783 70.9156C25.215 66.1027 25.7101 61.3525 26.8965 56.7154C28.032 52.2568 29.976 48.044 32.632 44.2862C33.3332 43.294 33.763 42.1033 34.8363 41.405C34.7206 41.2743 34.6729 41.1763 34.6251 41.1763C30.752 41.2266 28.8594 39.4381 28.5578 35.542C28.1607 30.405 30.194 26.1924 33.4489 22.4245C33.8007 22.0175 34.1702 21.6257 34.502 21.2615C34.2883 20.6611 34.0621 20.1637 33.9339 19.6387C33.5042 17.9004 33.8937 16.8755 35.3917 15.8707C35.9491 15.4975 36.5378 15.1731 37.1511 14.9011C39.1015 14.0295 40.3657 14.3987 41.5822 16.1571C42.4568 17.4131 43.3416 17.3679 44.1861 16.0391C45.0758 14.6248 45.9454 13.2005 46.8955 11.824C49.7633 7.6365 53.566 5.20741 58.7838 4.71255C62.5539 4.35585 66.324 3.91378 70.1142 4.05947C73.7913 4.19763 77.4407 4.61712 80.9997 5.6194C86.3859 7.12658 89.8267 10.7388 91.6539 15.8858C92.1566 17.3201 93.2323 17.2774 94.2528 17.5814C94.6122 17.6894 94.7328 17.3302 94.9063 17.1066C95.2632 16.6419 95.6201 16.1772 95.987 15.7225C97.5654 13.7808 98.5004 13.6376 100.561 15.0116C100.702 15.1046 100.843 15.1976 100.976 15.298C103.824 17.4458 104.115 18.7671 102.233 21.3268C104.957 23.7408 107.074 26.5868 108.056 30.1488C109.004 33.5852 109.17 36.9663 107.257 40.1967C106.307 41.8018 105.43 42.2942 103.572 42.0078C102.753 41.8822 101.944 41.6963 100.943 41.5054C101.614 42.465 102.23 43.3065 102.806 44.1732C105.284 47.9085 107.453 51.797 108.587 56.1779C109.504 59.7499 110.022 63.3646 109.574 67.0597C109.533 67.3206 109.552 67.5876 109.632 67.8396C109.711 68.0916 109.848 68.3217 110.032 68.5117C114.408 73.6863 115.883 79.7578 115.405 86.3869C115.335 87.3565 115.456 88.0096 116.177 88.8084C118.51 91.3832 119.417 94.3925 118.11 97.7988C117.805 98.6691 117.284 99.4481 116.596 100.063C115.908 100.678 115.076 101.109 114.176 101.316C113.783 101.449 113.407 101.63 113.058 101.856C112.387 102.227 111.628 102.634 110.919 102.345C109.612 101.81 108.3 102.094 106.988 102.029C104.61 101.916 103.218 100.464 103.233 98.1002C103.236 97.4339 103.121 96.7724 102.894 96.1459C101.537 92.2021 103.087 88.7331 106.935 87.1781C107.418 86.9822 107.609 86.7285 107.599 86.2713C107.561 84.5657 107.632 82.845 106.895 80.9183C104.844 85.4951 102.688 89.7479 99.1262 93.0762C95.5648 96.4046 91.5861 98.9794 87.1776 101.16C87.1625 102.554 87.5521 103.903 88.0347 105.234C88.0759 105.372 88.1534 105.496 88.2591 105.594C88.3648 105.691 88.4947 105.759 88.6354 105.789C89.5239 106.067 90.2774 106.665 90.7491 107.467C92.2571 109.796 94.2679 111.705 95.9569 113.896C96.3648 114.373 96.6909 114.914 96.922 115.498C97.4247 116.98 96.8114 118.123 95.238 118.334C90.0504 119.025 84.8401 119.449 79.5997 119.035C78.5944 118.955 77.5588 118.754 76.9607 117.807C76.2569 116.689 76.6741 115.661 77.3653 114.689C78.5516 113.019 80.2507 112.092 82.3192 111.424C80.1853 109.163 79.1373 106.53 78.7527 103.559C74.75 104.222 70.6844 104.424 66.6356 104.162C62.7072 103.88 58.8441 102.891 54.7146 102.906C54.413 104.282 54.1692 105.822 54.7021 107.379C55.5039 109.705 56.3006 112.037 57.1501 114.348C58.0449 116.787 57.4442 118.116 54.8378 118.397C50.0221 118.919 45.1814 119.535 40.3406 118.595C39.8076 118.495 39.2969 118.3 38.8325 118.02C37.9931 117.498 37.6789 116.764 38.1011 115.759C39.2699 113.014 41.3686 111.507 44.2791 111.052C45.2844 110.894 46.3174 110.786 47.4107 110.642C46.9759 107.822 46.34 105.159 46.4682 102.416C46.4833 102.084 46.3727 101.7 46.5034 101.426C46.8628 100.672 46.7874 100.253 45.9153 99.9189C45.0431 99.5848 44.4072 99.5873 43.9347 100.487C43.6154 101.007 43.2689 101.51 42.8967 101.994C44.1132 103.541 44.1861 105.337 43.706 107.239C43.3114 108.806 42.4895 109.582 40.891 109.751C39.5964 109.877 38.2896 109.746 37.0455 109.366C36.8161 109.28 36.5695 109.251 36.3263 109.28C36.083 109.309 35.8505 109.397 35.6481 109.535C34.2682 110.391 32.9211 110.288 31.7448 109.206C31.589 109.041 31.3958 108.915 31.1815 108.841C30.9671 108.766 30.7379 108.744 30.5132 108.776C27.2207 109.216 25.4136 106.48 25.8735 103.782C26.0293 103.692 26.062 103.576 25.9439 103.431L25.7026 103.677ZM103.213 74.362H103.238C103.128 74.1485 102.987 73.9651 102.715 74.0958H102.74C102.778 73.2693 101.883 73.0433 101.637 72.3701C101.454 71.8677 101.444 71.4909 101.821 71.1141C102.198 70.7373 102.575 70.8478 102.967 71.0864C103.286 71.2861 103.591 71.5086 103.879 71.7521C108.496 75.716 110.11 80.8756 109.894 86.7812C109.846 88.095 109.491 88.9993 107.996 89.2028C107.262 89.3033 106.626 89.8056 106.051 90.3055C105.445 90.8223 105.012 91.5128 104.812 92.2834C104.612 93.0541 104.654 93.8676 104.932 94.6136C106.048 94.2971 107.089 94.3448 107.767 95.4601C108.104 96.0153 108.27 96.6608 107.845 97.2311C107.136 98.1806 106.357 97.314 105.623 97.1683C105.121 99.0573 105.958 100.019 107.765 99.7581C108.761 99.6029 109.673 99.1065 110.343 98.3539C110.643 98.0374 110.798 97.5275 111.452 97.4747C111.975 98.5348 110.982 99.3311 110.831 100.291C112.188 100.245 112.802 99.4165 113.365 98.4217C113.892 97.4923 113.679 96.2363 114.634 95.3019C115.353 96.4197 114.9 97.4471 114.933 98.5373C115.566 98.0364 116.026 97.3492 116.247 96.5729C116.929 94.2066 115.996 91.549 113.825 89.9338C113.257 89.5092 112.962 89.1073 113.086 88.3814C113.354 86.557 113.415 84.7081 113.267 82.8701C112.957 77.492 111.005 72.8222 107.209 68.9287C105.953 67.63 104.445 66.6202 103.135 65.3968C102.565 64.8693 102.549 64.3066 102.957 63.7213C103.409 63.0657 103.992 63.2843 104.497 63.6334C105.38 64.2438 106.227 64.907 107.109 65.5601C107.546 50.433 97.8092 37.5315 81.6733 33.2561C84.81 35.63 87.6375 38.162 89.9674 41.1965C94.2578 46.7781 96.3188 53.2112 96.9522 60.1242C97.4445 65.2891 97 70.5004 95.6402 75.5075C93.6295 82.8827 89.6357 89.0596 83.8951 94.0961C82.8671 95.0004 81.7914 95.8545 80.7483 96.7136C81.3365 96.9447 81.0902 97.4295 81.0927 97.7937C81.0927 99.8812 80.7483 101.966 81.0927 104.056C81.437 106.146 82.0352 108.075 83.7921 109.49C84.7555 108.806 85.6229 107.997 86.3708 107.083C84.6818 103.943 84.8778 100.527 84.8628 97.1431C84.8628 96.5327 84.8628 95.9751 85.5514 95.6837C86.2401 95.3923 86.6825 95.6309 87.0997 96.1258C87.1349 96.804 87.1726 97.4848 87.2078 98.1655C87.3506 98.1645 87.493 98.1486 87.6325 98.1178C87.8612 98.0148 88.0824 97.8967 88.3061 97.7812C95.9116 93.9353 101.559 88.2683 104.764 80.2702C105.857 77.5372 105.769 76.6555 103.615 74.6283L103.213 74.362ZM27.8515 99.0422C27.169 99.9214 26.6373 100.908 26.2782 101.961C27.8314 100.361 27.8314 100.361 27.8339 99.0221L27.8817 98.8965L27.8515 99.0422ZM88.3915 113.559C86.7201 113.559 85.0488 113.516 83.3773 113.559C81.3666 113.619 79.5369 114.878 79.0091 116.475C80.9595 117.573 92.9961 117.018 94.5267 115.722C94.4187 115.558 94.3056 115.39 94.195 115.219C92.986 113.36 91.2468 111.919 90.0529 110.062C88.5449 107.701 88.575 107.661 86.6624 109.635C85.3755 110.967 85.4459 111.414 87.0544 112.366C87.5571 112.672 88.2986 112.758 88.3865 113.549L88.3915 113.559ZM94.9716 63.2667C94.9701 60.7121 94.7022 58.1646 94.1723 55.6654C91.5861 42.6258 80.5272 31.0054 64.9994 30.1739C55.4335 29.6715 47.0187 32.6382 40.0289 39.0738C32.0338 46.439 27.9043 55.6679 27.9445 66.6478C27.9596 70.6368 28.1682 74.5831 29.5607 78.3837C32.5038 86.3994 37.2918 92.9029 44.9401 97.0125C53.3298 101.534 62.0487 102.137 71.019 98.9542C81.1857 95.347 88.2433 88.4166 92.3577 78.537C94.3784 73.6813 94.6574 68.4614 94.9716 63.2667ZM85.0739 17.2749C84.2269 15.0292 82.9476 13.2231 80.6126 12.3866C78.4687 11.6205 76.2368 11.3115 73.9873 10.9699C68.757 10.1811 63.5869 10.5001 58.4294 11.3542C55.1947 11.8918 52.6939 13.517 51.4397 16.7072C51.7413 16.9986 52.1309 17.0137 52.4803 17.1342C55.4963 18.1717 58.0248 19.7844 59.7465 22.5802C61.1816 24.9063 61.1967 25.783 59.3946 27.8981C59.3644 27.9358 59.4197 28.0438 59.4474 28.1945L64.7682 27.9257C64.7669 27.742 64.7442 27.559 64.7004 27.3806C64.5671 27.1118 64.2756 27.1746 64.0443 27.0993C62.3051 26.5441 61.5485 25.3635 61.7647 23.5825C61.8374 22.8267 62.1928 22.1261 62.7599 21.6208C63.3269 21.1156 64.0639 20.8428 64.8235 20.857C66.7915 20.8193 68.762 20.8319 70.7275 20.9072C72.4692 20.9725 73.5776 21.9497 73.8164 23.472C74.1004 25.273 73.4243 26.4261 71.6926 27.0993C71.4991 27.1721 71.2477 27.1771 71.112 27.3077C70.8607 27.5589 70.4686 27.7097 70.5415 28.1945C70.6244 28.7622 71.0668 28.619 71.4086 28.6768C71.9414 28.7698 72.4868 28.8099 73.0071 28.943C74.4649 29.3198 75.9126 29.7318 77.6669 30.2141C76.9129 29.6313 76.3926 29.2847 75.9453 28.8602C74.3945 27.3907 74.2412 26.2201 75.4049 24.4466C76.3902 22.9386 77.6133 21.6 79.0267 20.4827C80.8237 19.0534 82.9476 18.2822 85.0739 17.2749ZM105.196 39.1467C105.31 38.9636 105.413 38.7741 105.505 38.579C105.6 38.3487 105.679 38.112 105.741 37.8706C107.016 33.4646 105.88 29.5811 103.216 26.0015C100.981 23.0098 97.9902 21.1384 94.4312 20.126C90.0278 18.8701 85.755 18.973 81.7637 21.4925C80.1846 22.454 78.8077 23.7133 77.7096 25.2002C87.7588 27.8453 97.1289 32.5997 105.196 39.1467ZM57.693 24.115C56.6877 21.9824 54.3477 20.1285 51.7338 19.3423C42.58 16.5791 32.2248 23.1806 30.8953 32.6557C30.6439 34.5422 30.7168 36.4363 31.8604 38.1821C32.5893 37.2351 33.0392 36.2428 33.7505 35.4063C36.191 32.5352 39.3302 30.6035 42.6328 28.9732C47.3856 26.6245 52.2842 24.6275 57.688 24.115H57.693ZM14.993 102.031C16.7801 102.865 18.5545 103.682 20.3189 104.523C22.0833 105.365 22.1989 105.342 23.2294 103.649C23.3805 103.401 23.5052 103.137 23.6014 102.863C24.2524 101.022 24.6595 99.0949 25.7302 97.4094C26.1701 96.7211 26.1625 96.0429 25.6523 95.3194C25.1421 94.596 25.0868 93.7746 25.8333 93.0586C26.1438 92.7204 26.4357 92.3657 26.7079 91.9961C28.6734 89.6223 28.7187 89.5771 26.1098 87.8714C23.81 86.3643 21.1684 86.2613 19.9972 89.9413C19.7921 90.5326 19.4602 91.0719 19.0245 91.5214C18.3886 92.2197 18.3233 92.8577 18.8586 93.644C19.3613 94.385 19.6554 95.2089 19.3035 96.1283C18.9893 96.9472 18.6927 97.7711 18.3937 98.595C18.2565 99.0164 18.0026 99.3901 17.6613 99.6729C17.3201 99.9557 16.9055 100.136 16.4659 100.193C15.4605 100.348 15.0106 100.866 14.993 102.031ZM89.4371 17.0162C87.9291 12.5474 85.2775 9.2693 80.6905 8.00577C78.3835 7.36165 76.0309 6.89307 73.653 6.60407C69.0686 6.06902 64.4716 6.26496 59.8872 6.79498C55.7049 7.2798 52.0102 8.68647 49.4416 12.2284C48.4362 13.6225 47.4962 15.0745 46.4255 16.662C47.9888 16.8102 48.9238 16.5264 49.4416 15.2528C50.8239 11.8666 53.5912 10.2288 56.9692 9.2793C59.5253 8.57092 62.1493 8.52575 64.7607 8.31474C68.019 8.07909 71.2927 8.17078 74.5327 8.58851C76.9481 8.8799 79.3785 9.34213 81.6632 10.3117C84.7069 11.6004 86.5191 13.9591 87.5621 17.0162H89.4371ZM49.3259 109.223C49.517 109.977 49.6778 110.69 49.8864 111.401C50.1981 112.466 49.8638 112.986 48.7453 113.036C47.8682 113.074 46.986 113.056 46.1088 113.036C44.4199 112.985 42.7616 113.494 41.3937 114.486C40.9337 114.82 40.333 115.204 40.4838 115.87C40.6346 116.536 41.3861 116.508 41.9039 116.734C42.0231 116.773 42.148 116.792 42.2734 116.789C46.423 117.04 50.5449 116.581 54.6694 116.269C55.2374 116.227 55.5692 115.908 55.2701 115.342C54.1592 113.222 53.8425 110.821 52.7718 108.56C51.6734 108.831 50.4997 108.776 49.3259 109.223ZM38.9632 95.7088C38.2494 96.3142 38.3047 97.3366 37.5532 97.8113C37.0506 97.7837 36.7062 97.4546 36.3292 97.2059C35.3029 96.5592 34.1902 96.0611 33.0241 95.7264C32.1846 95.4626 31.6367 95.7063 31.129 96.4498C30.2594 97.7234 30.0608 99.1653 29.9226 100.615C29.8296 101.584 30.9707 102.745 31.8503 102.757C32.6622 102.757 33.3232 101.918 33.3584 100.798C33.3584 100.672 33.3584 100.547 33.3584 100.421C33.3444 100.168 33.406 99.9164 33.5354 99.6981C33.6647 99.4799 33.8559 99.305 34.0848 99.1954C34.5221 98.9895 34.884 99.2783 35.2032 99.5521C36.0229 100.21 36.9615 100.705 37.9679 101.009C40.0289 101.73 41.3309 101.107 42.1829 99.1201C42.482 98.4217 42.4342 97.9771 41.7481 97.5652C40.8081 97.0025 39.9284 96.3594 38.9632 95.7088ZM22.2944 108.605C22.4628 107.98 22.0104 107.744 21.5404 107.525C19.1602 106.412 16.7926 105.264 14.3974 104.197C12.8165 103.486 11.9267 104.152 12.0021 105.89C12.0373 106.741 12.6556 107.101 13.2739 107.45C15.3902 108.645 17.6648 109.474 19.9595 110.243C21.4072 110.728 22.1461 110.195 22.2919 108.605H22.2944ZM34.0269 38.7121C35.3942 38.5137 36.5403 38.383 37.6261 37.9208C39.6368 37.0743 40.9463 35.2808 42.7936 34.2232C43.7864 33.6555 43.422 32.8592 43.0902 32.1709C42.7006 31.3671 41.9919 31.5329 41.3736 31.9047C39.6517 32.9298 38.0412 34.1311 36.568 35.4893C35.6229 36.3659 34.6704 37.225 34.0244 38.7121H34.0269ZM49.1073 101.132C48.7216 102.444 48.6239 103.823 48.8207 105.176C49.1123 107.482 49.5195 107.701 51.7061 106.807C52.0831 106.653 52.2842 106.45 52.2314 106.088C52.0454 104.802 52.3898 103.556 52.5783 102.288L49.1073 101.132ZM48.3156 31.033C51.5679 29.8649 54.9509 28.9682 57.5146 26.3055C57.0119 26.0543 56.567 26.2301 56.1347 26.3055C53.7269 26.6797 51.4875 27.5866 49.2279 28.4432C47.4007 29.1264 47.3906 29.0963 48.3156 31.033ZM88.6203 31.4927C85.3177 29.7042 81.9698 28.2824 78.1596 27.4409C78.2766 27.6284 78.4104 27.8049 78.5592 27.9684C81.0842 30.0356 83.9753 31.6103 87.0821 32.6105C87.9919 32.9019 88.4041 32.4397 88.6203 31.4902V31.4927ZM37.7945 103.313C37.8326 104.047 37.8276 104.782 37.7794 105.516C37.5557 107.369 37.5608 107.407 39.4735 107.553C39.8454 107.58 40.2275 107.575 40.5969 107.573C40.8946 107.586 41.1861 107.486 41.4125 107.292C41.6388 107.099 41.7831 106.826 41.8159 106.53C42.0412 105.586 41.8926 104.59 41.4012 103.752C41.2705 103.539 41.1499 103.25 40.8709 103.308C39.8781 103.539 38.8878 103.112 37.7945 103.313ZM71.1572 25.0973C71.5619 23.6026 71.2829 23.1982 69.8126 23.1454C68.3422 23.0927 66.7965 23.0952 65.2885 23.0801C65.0045 23.0801 64.733 23.055 64.4892 23.3188C64.1876 23.6453 63.9137 23.9944 64.0871 24.419C64.3384 25.062 65.0321 25.0621 65.5675 25.0771C67.4098 25.1324 69.2496 25.0973 71.1572 25.0973ZM70.1519 101.594C72.8312 101.818 75.4501 101.481 78.064 101.049C78.333 101.004 78.5667 100.868 78.5667 100.585C78.5416 99.743 78.9739 98.8864 78.5265 97.952C75.8824 99.6099 73.0448 100.632 70.1569 101.594H70.1519ZM101.748 39.1065C100.071 37.7224 98.3949 36.4187 96.5274 35.3838C94.9364 34.4996 94.9188 34.492 93.9914 36.3107C96.4143 37.6923 98.9101 38.8503 101.748 39.1065ZM17.2425 95.9198C17.2275 95.1085 16.7625 94.2091 16.2372 93.865C15.9054 93.6414 15.5912 93.5158 15.2318 93.8148C14.3044 94.5683 13.8067 96.3067 14.2265 97.4169C14.4929 98.0977 14.9428 98.4217 15.6867 98.0575C16.1061 97.8622 16.4689 97.5635 16.741 97.1895C17.0131 96.8156 17.1857 96.3787 17.2425 95.9198ZM35.4696 102.481C34.7407 103.31 34.1576 104.054 33.4891 104.709C32.911 105.274 32.8381 105.933 32.8984 106.651C32.9412 107.128 33.1196 107.553 33.6122 107.724C34.1652 107.917 34.5321 107.623 34.8689 107.221C36.0904 105.837 35.9949 104.28 35.4696 102.481ZM28.6634 102.499C28.3995 102.741 28.1899 103.036 28.0483 103.365C27.9067 103.694 27.8362 104.05 27.8415 104.408C27.7736 105.835 28.4548 106.603 29.8522 106.701C31.4733 106.814 30.9707 105.573 31.1893 104.727C30.0457 104.332 29.0756 103.812 28.6583 102.499H28.6634ZM99.8426 19.8723C100.413 19.4795 100.812 18.8852 100.961 18.2094C100.162 17.4131 99.2016 16.9007 98.1963 16.4008C97.6936 17.084 97.2588 17.6995 96.7787 18.3601L99.8426 19.8723ZM39.9359 17.9456C39.0889 16.4234 38.9884 16.3932 37.5356 17.192C35.7562 18.1717 35.7461 18.1968 36.5906 19.7618L39.9359 17.9456ZM91.3398 32.7387C90.7893 32.814 90.44 33.1481 90.4651 33.6329C90.5028 34.3438 91.1538 34.5272 91.7218 34.6C91.836 34.6178 91.9528 34.6086 92.0628 34.573C92.1727 34.5373 92.2727 34.4762 92.3547 34.3948C92.4367 34.3134 92.4983 34.2138 92.5346 34.1041C92.571 33.9944 92.5809 33.8778 92.5638 33.7636C92.4984 33.0878 91.8776 32.907 91.3398 32.7387ZM66.9096 28.1568C67.4802 27.9986 68.0683 28.5613 68.3825 27.7976C68.4654 27.5967 68.292 27.2952 68.0859 27.368C67.6787 27.4986 66.9021 26.9687 66.9096 28.1568Z" fill="#1D2831"/>
<path d="M94.9713 63.2667C94.6572 68.4514 94.3782 73.6813 92.3574 78.537C88.243 88.4166 81.1854 95.3471 71.0187 98.9542C62.0484 102.137 53.3295 101.521 44.9398 97.0125C37.2916 92.9029 32.5036 86.3994 29.5604 78.3837C28.168 74.5831 27.9593 70.6368 27.9443 66.6478C27.904 55.668 32.0335 46.439 40.0286 39.0739C47.0184 32.6382 55.4332 29.6615 64.9992 30.174C80.5269 31.0054 91.5858 42.6258 94.1721 55.6655C94.7019 58.1646 94.9698 60.7121 94.9713 63.2667ZM91.1661 64.5729C91.2817 57.5972 89.1981 51.6413 85.3853 46.12C77.6164 34.8613 61.2567 31.2013 49.6147 36.7679C34.8787 43.814 27.4391 61.5108 32.863 77.1529C37.7766 91.333 52.7715 100.489 69.0156 95.3019C83.2187 90.7703 91.4476 77.4392 91.1661 64.5729Z" fill="#C3553C"/>
<path d="M87.0944 96.1283C86.6772 95.6259 86.2022 95.4049 85.5462 95.6862C84.8902 95.9676 84.8525 96.5353 84.8575 97.1457C84.8852 100.529 84.6891 103.946 86.3656 107.086C85.6176 107.999 84.7503 108.809 83.7868 109.492C82.0275 108.085 81.4293 106.146 81.0874 104.059C80.7456 101.971 81.0874 99.8838 81.0874 97.7963C81.0874 97.4321 81.3388 96.9472 80.7431 96.7161C81.7862 95.8495 82.8619 95.003 83.8899 94.0987C89.6305 89.0572 93.6142 82.8802 95.6349 75.5101C96.9948 70.503 97.4393 65.2917 96.9469 60.1268C96.3136 53.2138 94.2526 46.7806 89.9622 41.199C87.6273 38.1645 84.7997 35.6325 81.668 33.2587C97.809 37.5291 107.541 50.4355 107.104 65.5626C106.221 64.9095 105.374 64.2464 104.492 63.636C103.989 63.2868 103.404 63.0682 102.951 63.7239C102.544 64.3092 102.559 64.8719 103.13 65.3994C104.447 66.6227 105.942 67.6325 107.204 68.9312C110.987 72.8248 112.952 77.4946 113.261 82.8727C113.41 84.7107 113.349 86.5596 113.08 88.3839C112.957 89.1099 113.251 89.5118 113.819 89.9363C115.981 91.5591 116.923 94.2067 116.242 96.5755C116.021 97.3518 115.561 98.0389 114.928 98.5398C114.895 97.4496 115.347 96.4223 114.629 95.3044C113.674 96.2389 113.875 97.4949 113.359 98.4243C112.796 99.4291 112.183 100.248 110.826 100.293C110.977 99.3336 111.969 98.5348 111.447 97.4773C110.793 97.53 110.637 98.04 110.338 98.3565C109.67 99.118 108.757 99.6226 107.757 99.7833C105.95 100.034 105.123 99.0824 105.616 97.1934C106.35 97.3391 107.124 98.1982 107.837 97.2562C108.265 96.686 108.089 96.0404 107.76 95.4853C107.081 94.37 106.04 94.3222 104.924 94.6387C104.646 93.8927 104.604 93.0792 104.804 92.3086C105.004 91.538 105.437 90.8474 106.043 90.3307C106.618 89.8283 107.254 89.3259 107.988 89.2279C109.496 89.0245 109.838 88.1202 109.886 86.8064C110.102 80.9008 108.488 75.7412 103.871 71.7773C103.584 71.5337 103.279 71.3113 102.959 71.1116C102.579 70.8604 102.182 70.7775 101.813 71.1392C101.443 71.5009 101.446 71.8928 101.629 72.3952C101.881 73.0684 102.77 73.2945 102.733 74.121C102.416 74.141 101.979 74.0129 101.908 74.4676C101.72 75.824 100.926 76.9293 100.451 78.1652C98.5706 83.0635 96.1024 87.5977 92.1288 91.1371C90.8369 92.2875 89.8667 93.8399 88.1853 94.5182C87.4187 94.8196 87.0794 95.3396 87.0944 96.1283Z" fill="#C3553C"/>
<path d="M105.196 39.1467C97.129 32.5996 87.7589 27.8453 77.7097 25.2002C78.8073 23.7114 80.1842 22.4504 81.7638 21.4875C85.7551 18.9755 90.0278 18.8725 94.4313 20.121C97.9903 21.1258 100.981 23.0047 103.216 25.9965C105.88 29.566 107.016 33.4595 105.742 37.8655C105.679 38.1069 105.601 38.3436 105.505 38.5739C105.414 38.7707 105.31 38.962 105.196 39.1467ZM88.7737 20.8469C87.4516 20.9625 86.117 21.1383 85.0036 21.9899C84.5461 22.339 84.1038 22.8037 84.2269 23.4694C84.3501 24.1351 84.8302 24.5018 85.5113 24.6777C87.3662 25.1524 88.9923 24.6099 90.4903 23.585C90.895 23.3062 91.6339 23.1479 91.4957 22.4496C91.3398 21.696 90.7567 21.2388 90.0454 21.0127C89.6276 20.9181 89.2018 20.8625 88.7737 20.8469Z" fill="#C3553C"/>
<path d="M57.688 24.1151C52.2942 24.6174 47.3831 26.627 42.6278 28.9732C39.3252 30.6035 36.1859 32.5352 33.7454 35.4064C33.0341 36.2428 32.5842 37.2351 31.8554 38.1821C30.7118 36.4237 30.6263 34.5397 30.8902 32.6558C32.2198 23.1806 42.575 16.5791 51.7287 19.3423C54.3427 20.1286 56.6902 21.9899 57.688 24.1151ZM37.8322 24.3663C35.8491 24.3914 33.7404 27.4761 34.4492 29.3299C34.7206 30.0383 35.2258 30.4076 36.02 30.2242C37.885 29.7896 38.82 28.3804 39.4961 26.7753C40.1395 25.2731 39.4659 24.3537 37.8398 24.3763L37.8322 24.3663Z" fill="#C3553C"/>
<path d="M14.993 102.031C15.0106 100.863 15.4605 100.348 16.4659 100.195C16.9055 100.139 17.3201 99.9583 17.6613 99.6755C18.0026 99.3927 18.2565 99.0189 18.3937 98.5976C18.6927 97.7736 18.9893 96.9497 19.3035 96.1308C19.6554 95.2114 19.3663 94.3875 18.8586 93.6465C18.3233 92.8602 18.3886 92.2222 19.0245 91.5239C19.4602 91.0744 19.7921 90.5351 19.9972 89.9438C21.1684 86.2638 23.81 86.3618 26.1098 87.874C28.7061 89.5796 28.6734 89.6323 26.7079 91.9986C26.4357 92.3683 26.1438 92.723 25.8333 93.0612C25.0793 93.7746 25.122 94.5684 25.6523 95.3219C26.1826 96.0755 26.1701 96.7236 25.7302 97.4119C24.6595 99.0924 24.2524 101.024 23.6014 102.865C23.5052 103.14 23.3805 103.403 23.2294 103.652C22.1989 105.345 22.0858 105.367 20.3189 104.526C18.552 103.684 16.7801 102.875 14.993 102.031Z" fill="#3C5E65"/>
<path d="M87.0945 96.1283C87.0794 95.3295 87.4187 94.8196 88.1928 94.5081C89.8743 93.8299 90.8445 92.2775 92.1363 91.127C96.11 87.5877 98.5781 83.0536 100.458 78.1552C100.933 76.9193 101.727 75.8141 101.916 74.4576C101.981 74.0029 102.419 74.131 102.74 74.1109H102.715L103.238 74.3772H103.213L103.61 74.646C105.756 76.6732 105.852 77.5549 104.759 80.2879C101.554 88.286 95.9064 93.953 88.3009 97.7988C88.0772 97.9144 87.856 98.0324 87.6273 98.1354C87.4878 98.1662 87.3454 98.1822 87.2025 98.1832C87.1674 97.4874 87.1297 96.8066 87.0945 96.1283Z" fill="#8C3D2C"/>
<path d="M89.4371 17.0162H87.5596C86.5165 13.9591 84.7043 11.6004 81.6606 10.3117C79.376 9.34212 76.9455 8.87989 74.5301 8.5885C71.2902 8.17078 68.0164 8.07909 64.7581 8.31474C62.1542 8.52323 59.5302 8.5659 56.9666 9.2793C53.5886 10.2163 50.8213 11.8666 49.439 15.2528C48.9187 16.5263 47.9837 16.8102 46.4229 16.662C47.5012 15.0745 48.4336 13.6225 49.439 12.2284C52.0077 8.68647 55.7023 7.27979 59.8846 6.79498C64.469 6.26495 69.066 6.06902 73.6505 6.60407C76.0283 6.89306 78.3809 7.36165 80.688 8.00577C85.2774 9.26929 87.919 12.5474 89.4371 17.0162Z" fill="#9FB1A3"/>
<path d="M88.3865 113.564C88.2985 112.773 87.5696 112.687 87.0544 112.381C85.4458 111.429 85.3755 110.982 86.6623 109.65C88.575 107.676 88.5348 107.716 90.0529 110.077C91.2467 111.934 92.986 113.376 94.1949 115.234C94.3055 115.405 94.4186 115.574 94.5267 115.737C92.996 117.028 80.9544 117.583 79.009 116.49C79.5368 114.893 81.3616 113.634 83.3773 113.574C85.0487 113.521 86.7201 113.574 88.3915 113.574L88.4317 113.617L88.3865 113.564Z" fill="#304E55"/>
<path d="M49.3259 109.223C50.4997 108.776 51.6734 108.831 52.7718 108.56C53.8425 110.821 54.1592 113.232 55.2701 115.342C55.5692 115.908 55.2374 116.227 54.6694 116.269C50.5449 116.581 46.423 117.023 42.2734 116.789C42.148 116.792 42.0231 116.773 41.9039 116.734C41.3861 116.508 40.6346 116.538 40.4838 115.87C40.333 115.202 40.9337 114.82 41.3937 114.486C42.7616 113.494 44.4199 112.985 46.1088 113.036C46.986 113.036 47.8682 113.064 48.7453 113.036C49.8638 112.986 50.1981 112.466 49.8864 111.401C49.6778 110.69 49.5195 109.967 49.3259 109.223Z" fill="#304E55"/>
<path d="M38.9631 95.7088C39.9307 96.3594 40.8104 97.0025 41.7278 97.5652C42.4064 97.9772 42.4617 98.4218 42.1626 99.1201C41.3106 101.107 40.0087 101.73 37.9477 101.009C36.9413 100.705 36.0027 100.21 35.183 99.5522C34.8638 99.2783 34.5018 98.9895 34.0645 99.1955C33.8356 99.305 33.6444 99.4799 33.5151 99.6982C33.3858 99.9164 33.3242 100.168 33.3381 100.421C33.3381 100.547 33.3532 100.672 33.3381 100.798C33.2904 101.918 32.6293 102.77 31.8301 102.757C30.9504 102.745 29.8194 101.584 29.9023 100.615C30.0406 99.1653 30.2391 97.7234 31.1087 96.4498C31.6114 95.6963 32.1644 95.4627 33.0038 95.7264C34.1699 96.0612 35.2827 96.5593 36.3089 97.2059C36.686 97.4571 37.0253 97.7837 37.533 97.8114C38.3021 97.3492 38.2468 96.3142 38.9631 95.7088Z" fill="#C3553C"/>
<path d="M22.2919 108.605C22.1461 110.195 21.4072 110.728 19.957 110.243C17.6622 109.475 15.3876 108.646 13.2713 107.45C12.653 107.101 12.0347 106.741 11.9996 105.89C11.9241 104.152 12.8139 103.486 14.3948 104.197C16.7901 105.272 19.1703 106.412 21.5379 107.525C22.0079 107.744 22.4603 107.98 22.2919 108.605Z" fill="#3C5E65"/>
<path d="M34.0242 38.7122C34.6701 37.2251 35.6227 36.366 36.5652 35.4893C38.0384 34.1312 39.6489 32.9299 41.3708 31.9047C41.9891 31.533 42.6979 31.3672 43.0875 32.171C43.4192 32.8593 43.7837 33.6556 42.7909 34.2233C40.9435 35.2808 39.6265 37.0744 37.6233 37.9209C36.5325 38.3831 35.3915 38.5138 34.0242 38.7122Z" fill="#8C3D2C"/>
<path d="M49.1023 101.132L52.5733 102.288C52.3848 103.556 52.0404 104.8 52.2264 106.088C52.2792 106.45 52.0781 106.654 51.7011 106.807C49.5145 107.701 49.1073 107.482 48.8158 105.176C48.6189 103.823 48.7166 102.444 49.1023 101.132Z" fill="#C3553C"/>
<path d="M48.3155 31.0331C47.3906 29.0989 47.4007 29.129 49.2279 28.4357C51.49 27.5791 53.7269 26.6773 56.1347 26.298C56.567 26.2302 56.9993 26.0468 57.5145 26.298C54.9509 28.9657 51.5679 29.8625 48.3155 31.0331Z" fill="#8C3D2C"/>
<path d="M88.62 31.4902C88.4038 32.4398 87.9916 32.902 87.0818 32.6081C83.975 31.6078 81.0839 30.0331 78.5589 27.9659C78.4101 27.8025 78.2763 27.6259 78.1592 27.4384C81.9695 28.2699 85.3174 29.7017 88.62 31.4902Z" fill="#8C3D2C"/>
<path d="M37.7943 103.313C38.8876 103.112 39.8779 103.539 40.8707 103.313C41.1622 103.245 41.2703 103.544 41.401 103.757C41.8924 104.595 42.0409 105.591 41.8157 106.535C41.7828 106.831 41.6386 107.104 41.4122 107.297C41.1859 107.491 40.8943 107.591 40.5967 107.578C40.2222 107.578 39.8427 107.578 39.4733 107.558C37.5606 107.412 37.5555 107.374 37.7792 105.521C37.8276 104.786 37.8326 104.048 37.7943 103.313Z" fill="#855828"/>
<path d="M71.1573 25.0973C69.2496 25.0973 67.4098 25.1325 65.575 25.0772C65.0397 25.0621 64.356 25.0621 64.0946 24.419C63.9212 23.9945 64.1952 23.6454 64.4968 23.3188C64.7481 23.0551 64.9995 23.0676 65.296 23.0802C66.8041 23.0953 68.3121 23.0802 69.8201 23.1455C71.3282 23.2108 71.5619 23.6027 71.1573 25.0973Z" fill="#9FB1A3"/>
<path d="M70.1567 101.594C73.0446 100.632 75.8822 99.5847 78.5363 97.952C78.9837 98.8864 78.5514 99.743 78.5765 100.585C78.5765 100.868 78.3252 101.004 78.0739 101.049C75.4549 101.481 72.836 101.818 70.1567 101.594Z" fill="#8C3D2C"/>
<path d="M101.748 39.1065C98.91 38.8553 96.4142 37.6923 93.9913 36.3107C94.9188 34.492 94.9364 34.4996 96.5273 35.3838C98.3948 36.4187 100.071 37.7224 101.748 39.1065Z" fill="#8C3D2C"/>
<path d="M17.2423 95.9198C17.187 96.3772 17.0167 96.8131 16.7473 97.1869C16.4779 97.5607 16.1181 97.8602 15.7016 98.0575C14.9476 98.4192 14.5078 98.0977 14.2413 97.417C13.809 96.3067 14.3067 94.5658 15.2467 93.8148C15.6162 93.5158 15.9303 93.6414 16.2521 93.865C16.7623 94.2091 17.2273 95.1085 17.2423 95.9198Z" fill="#BD6530"/>
<path d="M35.4695 102.481C35.9948 104.28 36.0904 105.837 34.8789 107.224C34.5321 107.623 34.1651 107.917 33.6222 107.726C33.1195 107.555 32.9511 107.131 32.9084 106.653C32.8481 105.935 32.9084 105.277 33.4991 104.712C34.1576 104.054 34.7407 103.31 35.4695 102.481Z" fill="#BD6530"/>
<path d="M28.6582 102.499C29.0704 103.813 30.0406 104.333 31.1867 104.727C30.968 105.573 31.4707 106.814 29.8496 106.701C28.4496 106.603 27.7685 105.835 27.8389 104.408C27.8332 104.05 27.9033 103.695 28.0445 103.366C28.1857 103.037 28.3949 102.741 28.6582 102.499Z" fill="#855828"/>
<path d="M99.8426 19.8724L96.7662 18.3652C97.2462 17.7045 97.6886 17.0891 98.1837 16.4058C99.1891 16.9082 100.162 17.4106 100.948 18.2144C100.802 18.8865 100.407 19.4785 99.8426 19.8724Z" fill="#9FB1A3"/>
<path d="M39.9359 17.9456L36.5906 19.7618C35.7461 18.2068 35.7561 18.1717 37.5356 17.192C38.9883 16.3932 39.0889 16.4234 39.9359 17.9456Z" fill="#9FB1A3"/>
<path d="M91.3396 32.7387C91.8775 32.907 92.4882 33.0879 92.551 33.7636C92.5682 33.8779 92.5582 33.9945 92.5219 34.1042C92.4856 34.2138 92.4239 34.3134 92.342 34.3949C92.26 34.4763 92.16 34.5374 92.05 34.573C91.9401 34.6087 91.8233 34.6179 91.709 34.6001C91.1536 34.5272 90.5026 34.3489 90.4524 33.633C90.4398 33.1482 90.7892 32.8141 91.3396 32.7387Z" fill="#304E55"/>
<path d="M27.8364 99.0246C27.8364 100.361 27.8364 100.361 26.2781 101.961C26.6372 100.908 27.1689 99.9214 27.8514 99.0422L27.8364 99.0246Z" fill="#D68734"/>
<path d="M66.9093 28.1569C66.9093 26.9687 67.6784 27.4987 68.0856 27.3681C68.2917 27.3028 68.4651 27.5968 68.3821 27.7977C68.068 28.5614 67.4798 27.9987 66.9093 28.1569Z" fill="#9FB1A3"/>
<path d="M25.7026 103.677L25.9213 103.453C26.0394 103.599 26.0068 103.704 25.8509 103.805L25.7026 103.677Z" fill="#D68734"/>
<path d="M27.8514 99.0414L27.8814 98.8965C27.8814 98.9215 27.8514 98.9714 27.8339 99.0214L27.8514 99.0414Z" fill="#D68734"/>
<path d="M103.238 74.3721L102.715 74.1058C102.999 73.9878 103.127 74.1586 103.238 74.3721Z" fill="#C3553C"/>
<path d="M91.1661 64.5729C91.4476 77.4392 83.2188 90.7703 69.0206 95.3019C52.7766 100.489 37.7817 91.333 32.868 77.1529C27.4441 61.5108 34.8788 43.8139 49.6198 36.7679C61.2643 31.2013 77.6214 34.8613 85.3903 46.1199C89.1981 51.6312 91.2817 57.5971 91.1661 64.5729ZM82.1933 83.7317L82.4145 83.4579L82.7161 83.1213C82.7547 83.1066 82.7881 83.0809 82.8122 83.0474C82.8363 83.0139 82.8501 82.9741 82.8518 82.9329C82.8847 82.924 82.9131 82.903 82.9313 82.8742C82.9494 82.8453 82.9561 82.8107 82.9498 82.7771L82.9951 82.7345L83.176 82.4556L83.4676 82.104C83.4969 82.0997 83.5236 82.0847 83.5426 82.062C83.5616 82.0393 83.5716 82.0104 83.5706 81.9809L83.91 81.4282L84.2291 81.0137L84.2744 80.9635L84.4177 80.6671C84.6989 80.4291 84.8992 80.1095 84.9907 79.7527L85.041 79.6924L85.2496 79.3056C85.2772 79.2964 85.3007 79.2778 85.3159 79.253C85.3311 79.2281 85.337 79.1987 85.3325 79.1699L85.4984 78.8308C85.5316 78.8173 85.5594 78.7933 85.5776 78.7624C85.5957 78.7315 85.6033 78.6956 85.5989 78.66C85.6467 78.5596 85.6919 78.4616 85.7397 78.3636L85.8679 78.1401C86.4329 77.1386 86.9009 76.0855 87.2653 74.9951C87.2861 74.9876 87.3033 74.9727 87.3136 74.9531C87.3238 74.9336 87.3263 74.9109 87.3206 74.8896C87.6876 73.9024 88.1174 72.9327 88.2003 71.8626C89.0071 69.5667 89.0926 67.1627 89.1227 64.7789C89.1856 60.0488 88.0872 55.5524 86.1243 51.2594C85.9156 50.8274 85.795 50.3099 85.4808 49.9783C84.1286 48.5691 83.2188 46.8208 81.9244 45.3764C80.8461 44.1757 80.1223 42.6132 78.3905 42.058C77.7988 41.8369 77.2962 41.4274 76.9604 40.8925C76.6071 40.2986 76.0351 39.8667 75.367 39.6893C73.5623 39.212 71.9713 38.2373 70.2321 37.6295C64.8685 35.758 59.4597 35.8058 54.0258 37.3783C50.9098 38.307 47.9828 39.7791 45.3797 41.7265C41.4186 44.6228 38.6162 48.4862 36.4823 52.8395C34.7248 56.4163 33.6621 60.2938 33.3506 64.2664C32.8121 70.2638 34.1778 76.2783 37.2539 81.4558C38.6953 83.9447 40.5764 86.1516 42.806 87.9694C44.7061 89.4967 46.5409 91.1194 48.7501 92.1468C54.1526 94.723 60.2825 95.3445 66.0925 93.9052C68.8271 93.2496 71.6547 92.6492 73.9117 90.73C75.3319 89.984 76.6676 89.0871 77.8954 88.0548L78.1643 87.8589L78.2473 87.7835L78.6595 87.4293L78.8354 87.261L79.1647 86.9395L79.3456 86.7612L79.8961 86.2588L80.1474 86.0076L80.1047 85.9573L80.1424 86.0101L80.4138 85.7413L80.8788 85.2615L81.1427 84.9827L81.4368 84.6737C81.4752 84.664 81.5099 84.643 81.5363 84.6135C81.5628 84.5839 81.5797 84.5471 81.5851 84.5079L81.942 84.0356L81.9822 83.998L82.1707 83.7468L82.1933 83.7317Z" fill="#1D2831"/>
<path d="M88.7735 20.847C89.2009 20.8627 89.6258 20.9183 90.0428 21.0128C90.7541 21.2389 91.3372 21.7061 91.493 22.4496C91.6388 23.148 90.8999 23.3062 90.4877 23.585C88.9796 24.6099 87.3635 25.1525 85.5087 24.6777C84.8275 24.5019 84.355 24.1577 84.2243 23.4694C84.0936 22.7812 84.5435 22.3391 85.0009 21.9899C86.1169 21.1384 87.4515 20.9625 88.7735 20.847Z" fill="#D37B5E"/>
<path d="M37.8397 24.3763C39.4684 24.3537 40.1395 25.2731 39.5036 26.7853C38.8275 28.3905 37.8925 29.7997 36.0276 30.2343C35.2334 30.4176 34.7282 30.0484 34.4567 29.34C33.7479 27.4861 35.8567 24.4014 37.8397 24.3763Z" fill="#D37B5E"/>
<path d="M88.3866 113.564L88.4315 113.601L88.3916 113.559L88.3866 113.564Z" fill="#1D2831"/>
<path d="M34.6101 65.6229C35.2837 66.0801 35.3314 66.7659 35.349 67.4968C35.437 71.2321 36.4775 74.7816 37.4804 78.3411C37.508 78.4415 37.6588 78.5094 37.7493 78.5923L38.3727 78.9063C38.3575 79.3665 38.455 79.8235 38.6567 80.2376C40.1873 83.2519 42.105 85.9574 44.7315 88.1151C45.7369 88.934 45.9882 88.8487 46.5361 87.6454C46.7196 87.2335 46.7875 86.7436 47.2751 86.5301C47.2215 87.1354 47.0204 87.7184 46.6895 88.2282C46.4733 88.5824 46.1868 88.9365 46.6895 89.2857C47.8909 90.8255 49.7281 91.2953 51.4071 91.9585C56.5796 93.9881 61.908 94.1866 67.2741 92.8678C68.8425 92.4809 70.348 91.7927 71.8409 91.1521C72.4775 90.843 73.1828 90.702 73.8894 90.7426C71.6273 92.6593 68.8048 93.2547 66.0702 93.9178C60.2601 95.3571 54.1303 94.7356 48.7278 92.1594C46.5185 91.132 44.6838 89.5093 42.7837 87.982C40.5541 86.1642 38.6729 83.9573 37.2316 81.4685C34.1555 76.2909 32.7897 70.2764 33.3283 64.279C33.6398 60.3064 34.7025 56.4289 36.46 52.8521C38.5938 48.4988 41.3963 44.6354 45.3574 41.7391C47.9604 39.7917 50.8875 38.3197 54.0034 37.3909C59.4374 35.8209 64.8462 35.7732 70.2098 37.6421C71.949 38.25 73.54 39.2246 75.3446 39.7019C76.0127 39.8793 76.5848 40.3113 76.9381 40.9051C77.2739 41.44 77.7764 41.8496 78.3682 42.0706C80.0999 42.6283 80.8238 44.1882 81.9021 45.389C83.199 46.8333 84.1063 48.5817 85.4585 49.9909C85.7727 50.3225 85.8933 50.84 86.1019 51.272C84.5512 50.7847 84.0912 49.2448 83.1939 48.1647C81.0827 45.6527 78.7905 43.392 75.7895 41.9601C75.4879 41.8144 75.2868 41.4251 74.8721 41.5582C74.5554 40.7117 73.7084 40.5283 73.0348 40.1917C70.5214 38.9357 67.8095 38.275 65.0246 37.9158C64.3284 37.8254 63.6473 37.6094 62.9611 37.4512L62.7299 37.2376C62.4283 36.8583 62.2021 37.0392 61.9759 37.3356L61.6818 37.6998C58.1631 37.6747 54.8655 38.6066 51.6459 39.8852C51.0577 40.1163 50.3565 40.3701 50.3892 41.2317C49.8161 40.4982 49.4466 40.8398 49.1325 41.4703C46.4834 42.4976 44.239 44.3555 42.7359 46.7655C42.0774 47.8205 41.3384 48.8253 40.6246 49.8452C40.411 50.1542 40.1421 50.433 40.2828 50.85C39.3277 50.6189 38.9105 50.85 39.4107 51.8548C38.4581 54.0628 37.2014 56.1252 36.5555 58.4764C36.1583 59.9207 35.628 61.3375 35.5375 62.8372C35.4948 63.538 35.0122 63.7892 34.6403 64.1886C34.3738 64.6759 34.0697 65.1381 34.6101 65.6229Z" fill="#C0B9A3"/>
<path d="M85.8502 78.1602C85.5787 76.7837 86.3855 75.8869 87.2476 75.0152C86.8832 76.1057 86.4152 77.1588 85.8502 78.1602Z" fill="#C0B9A3"/>
<path d="M87.3031 74.9097C86.5491 73.6009 87.6876 72.8323 88.1828 71.8828C88.0998 72.9529 87.67 73.9225 87.3031 74.9097Z" fill="#C0B9A3"/>
<path d="M84.4001 80.6873C84.4655 80.3029 84.5484 79.9337 84.9732 79.7729C84.8817 80.1297 84.6814 80.4492 84.4001 80.6873Z" fill="#C0B9A3"/>
<path d="M79.3459 86.7562C79.366 86.4095 79.6349 86.3291 79.8963 86.2538L79.3459 86.7562Z" fill="#C0B9A3"/>
<path d="M83.5634 81.9834C83.5483 81.7322 83.7218 81.5739 83.9027 81.4308L83.5634 81.9834Z" fill="#C0B9A3"/>
<path d="M81.5851 84.4904C81.585 84.3856 81.6201 84.2837 81.6848 84.2013C81.7496 84.1188 81.8401 84.0605 81.942 84.0357L81.5851 84.4904Z" fill="#C0B9A3"/>
<path d="M78.2473 87.7785C78.2501 87.7279 78.2632 87.6783 78.2856 87.6328C78.3081 87.5873 78.3395 87.5468 78.378 87.5137C78.4164 87.4806 78.4612 87.4557 78.5096 87.4404C78.558 87.425 78.609 87.4196 78.6595 87.4244L78.2473 87.7785Z" fill="#C0B9A3"/>
<path d="M78.8355 87.256C78.8337 87.2127 78.841 87.1694 78.857 87.129C78.873 87.0887 78.8973 87.0521 78.9284 87.0218C78.9594 86.9914 78.9965 86.968 79.0373 86.9529C79.078 86.9379 79.1215 86.9316 79.1648 86.9345L78.8355 87.256Z" fill="#C0B9A3"/>
<path d="M83.1686 82.4582C83.2667 82.3426 83.3622 82.2246 83.4602 82.1065L83.1686 82.4582Z" fill="#C0B9A3"/>
<path d="M85.0235 79.7126C85.0235 79.5493 85.0461 79.3936 85.2321 79.3257L85.0235 79.7126Z" fill="#C0B9A3"/>
<path d="M85.315 79.1901C85.2924 79.0393 85.315 78.9037 85.4809 78.851L85.315 79.1901Z" fill="#C0B9A3"/>
<path d="M85.5815 78.6801C85.5488 78.542 85.5513 78.4289 85.7222 78.3837C85.6745 78.4817 85.6293 78.5796 85.5815 78.6801Z" fill="#C0B9A3"/>
<path d="M82.842 82.9346C82.8363 82.918 82.8343 82.9003 82.8363 82.8829C82.8384 82.8655 82.8443 82.8487 82.8536 82.8338C82.863 82.819 82.8755 82.8064 82.8904 82.797C82.9052 82.7877 82.922 82.7818 82.9394 82.7797C82.9456 82.8131 82.9391 82.8475 82.921 82.8762C82.9029 82.9049 82.8747 82.9258 82.842 82.9346Z" fill="#C0B9A3"/>
<path d="M56.9764 69.0945C59.804 68.5067 62.5964 68.9839 65.3133 69.6295C69.0834 70.5263 71.6194 73.0232 73.0495 76.6178C73.6628 78.1577 73.3537 79.5745 72.2327 80.5491L71.73 80.7601L71.6747 80.8053C70.9509 80.9158 70.2396 81.1218 69.4956 81.0239C69.4729 81.0009 69.4453 80.9835 69.4147 80.973C69.3842 80.9626 69.3517 80.9593 69.3197 80.9636L68.817 80.8505L68.3143 80.5993C68.2113 80.3733 67.9876 80.3934 67.7966 80.3482L67.2939 79.8458L67.0425 79.5946L66.7912 79.3434L66.5399 79.0721L66.3011 78.8485L65.9995 78.547C65.9897 78.507 65.9686 78.4706 65.9388 78.4421C65.909 78.4136 65.8716 78.3942 65.8311 78.3863L65.3988 78.0271L65.3309 77.9668L65.0545 77.7784C61.4251 75.1408 56.6723 75.284 53.0606 78.1502C52.2764 78.7731 51.5349 79.4513 50.7357 80.0517C50.1863 80.4704 49.5138 80.6959 48.8229 80.6932C48.132 80.6905 47.4614 80.4597 46.9153 80.0367C45.9678 79.2981 45.7994 78.2783 46.3548 76.751C47.0204 74.7674 48.3891 73.0957 50.2028 72.0511C51.4595 71.3226 52.5001 70.1998 54.0383 69.9812L54.7521 69.6697V69.6572L55.5061 69.4236H55.5212L56.2174 69.293L56.4536 69.2176L56.9764 69.0945Z" fill="#1D2831"/>
<path d="M76.1964 61.2245C74.2083 66.1706 68.8372 67.0548 65.1878 64.49C63.6797 63.4426 63.1771 61.8374 62.5386 60.28C62.599 59.4686 62.6618 58.6548 62.7246 57.8158L61.5132 57.748H61.5308L61.2794 57.4817L61.0281 57.2305L60.7768 56.9416C60.782 56.8851 60.7734 56.8282 60.7516 56.7758C60.6008 55.663 61.1261 54.6682 61.3171 53.6157L61.3523 53.5781L61.5132 53.033L62.2873 52.0633L62.9534 52.0482C64.112 53.0706 62.981 54.1709 63.0137 55.2686C63.472 55.2289 63.9129 55.0742 64.2955 54.819L64.7982 54.7135C64.8332 54.7199 64.8694 54.7154 64.9018 54.7005C64.9341 54.6857 64.9612 54.6613 64.9792 54.6306L66.3339 54.0955L66.8164 53.9473C66.8411 53.9527 66.8668 53.9484 66.8883 53.9353C66.9099 53.9222 66.9255 53.9013 66.9321 53.877L69.6164 52.8119C71.1244 52.2869 72.65 51.7769 74.1555 51.2243C74.7185 51.0183 75.2715 50.7697 75.8018 51.1992C76.405 51.6865 76.1788 52.322 76.0129 52.9274L75.7742 53.2364L75.4876 53.5379C75.4273 53.6007 75.3695 53.6635 75.3092 53.7238V53.7438L75.0729 53.9423L74.7587 54.2287C74.5074 54.3593 74.5451 54.4798 74.7738 54.5828L75.0252 54.7989L75.2765 55.0701L75.4726 55.349L75.4927 55.3691L75.7943 55.8162L75.9224 56.1051L75.9778 56.178L76.2693 56.8461C76.3045 57.0019 76.3372 57.1576 76.3724 57.3134C76.3975 57.3963 76.4226 57.4792 76.4503 57.5646C76.6838 58.786 76.5963 60.047 76.1964 61.2245ZM73.9193 61.2572C73.9501 61.2447 73.9758 61.2224 73.9927 61.1938C74.0095 61.1652 74.0164 61.1318 74.0123 61.0989L74.2234 60.6693C74.8266 59.3079 74.5351 58.0217 73.8791 56.7708C73.8338 56.4291 73.9871 55.9569 73.3764 55.9871C73.213 55.1405 72.6928 55.5449 72.2554 55.6705L72.2177 55.7032C71.6019 55.8941 70.9937 56.1176 70.3679 56.2659C69.7898 56.4015 69.9506 56.615 70.2397 56.8913C70.3377 57.2505 70.4558 57.6047 70.5287 57.9665C70.8127 59.3907 69.8501 60.9808 68.5381 61.2948C68.1828 61.3841 67.8131 61.4014 67.451 61.3455C67.0889 61.2896 66.7417 61.1618 66.4298 60.9695C66.118 60.7773 65.8478 60.5245 65.6354 60.2262C65.4229 59.9278 65.2724 59.59 65.1928 59.2325C65.0721 58.7728 65.0269 58.2955 64.9414 57.7253C63.8557 60.0414 65.2707 62.6513 68.0178 63.6209C68.5978 63.8549 69.223 63.9559 69.8472 63.9163C70.4714 63.8768 71.0788 63.6977 71.6246 63.3923C71.8181 63.3697 72.0242 63.3747 72.1448 63.1738L72.1624 63.1562C72.4791 63.0884 72.9416 63.229 72.8838 62.6538L73.1351 62.4026C73.7107 62.4779 73.585 62.0133 73.6705 61.7093L73.7107 61.6691L73.9193 61.2572Z" fill="#1D2831"/>
<path d="M58.4721 58.3331C57.2506 58.4361 57.6376 59.4987 57.5597 60.1066C57.3084 62.1338 56.5694 63.7816 54.6216 64.6935L54.1641 64.8919C54.1365 64.8865 54.1079 64.8905 54.0828 64.9032C54.0578 64.916 54.0377 64.9368 54.0259 64.9623L53.4076 65.1532C53.3828 65.1456 53.3561 65.147 53.3322 65.1571C53.3083 65.1672 53.2887 65.1854 53.2769 65.2084C51.6133 65.6376 49.8715 65.666 48.1948 65.2913C48.1144 65.0677 47.9209 65.0401 47.7248 65.005L47.2448 64.7136C46.4852 64.1742 45.8159 63.518 45.2617 62.7693L44.9551 62.2669C44.8772 62.0936 44.7967 61.9228 44.7188 61.7494L44.6635 61.7946L44.7163 61.7469C44.6886 61.551 44.6736 61.345 44.465 61.2445C44.2136 59.6846 44.0075 58.1297 44.5177 56.5798C44.9615 55.6665 45.6311 54.8815 46.4631 54.299C45.7418 53.4424 44.3544 52.8922 45.0682 51.4805C45.4829 50.6616 46.2344 50.8927 46.913 51.2017L47.2347 51.3348C47.244 51.3656 47.2642 51.3919 47.2914 51.409C47.3187 51.4261 47.3512 51.4327 47.383 51.4277L47.7952 51.586L47.8656 51.6413L48.3682 51.807L48.9488 52.0909C48.9666 52.1259 48.9947 52.1545 49.0293 52.1729C49.064 52.1913 49.1034 52.1987 49.1424 52.1939L49.4917 52.3396C49.501 52.3682 49.5204 52.3925 49.5464 52.4077C49.5723 52.423 49.6029 52.4282 49.6325 52.4225L50.0673 52.5757L50.115 52.6184L50.6554 52.837L50.9068 52.9651L51.1405 53.0304C51.2989 53.2816 51.5804 53.259 51.8191 53.3343L51.8669 53.372L52.3821 53.5528L52.4349 53.5026L52.3846 53.5554L53.0054 53.8493C53.0142 53.8775 53.0334 53.9012 53.0591 53.9157C53.0848 53.9301 53.115 53.9342 53.1437 53.9271L53.5986 54.0779L53.6288 54.1055L54.2295 54.3567C54.2445 54.3916 54.2706 54.4206 54.3038 54.4392C54.3369 54.4578 54.3753 54.465 54.4129 54.4597L54.8478 54.6456L57.0872 55.5348C57.4215 54.4723 56.6272 53.4298 57.2103 52.4577C57.8387 52.219 58.7938 51.9804 58.8667 52.7415C59.0225 54.3667 59.9047 55.9845 59.1381 57.6625L59.0979 57.6976L58.9169 57.9689L58.6656 58.2201C58.6268 58.2227 58.5891 58.2343 58.5555 58.2539C58.5219 58.2735 58.4934 58.3006 58.4721 58.3331ZM47.3579 62.1262L47.4106 62.081L47.3604 62.1313L47.6117 62.3825L47.8756 62.611L48.1823 62.8899L48.411 63.0406C48.4355 63.0699 48.4669 63.0926 48.5025 63.1067C48.5381 63.1207 48.5766 63.1257 48.6146 63.121C48.9312 63.3571 49.2354 63.6234 49.6777 63.5229L49.8009 63.5379L49.9215 63.5229C50.8651 63.6871 51.8356 63.5915 52.729 63.2466C52.7633 63.2541 52.7992 63.2477 52.8288 63.2289C52.8585 63.2101 52.8795 63.1803 52.8873 63.1461C53.287 63.0255 53.7243 62.9853 53.9957 62.606L54.2697 62.4327L54.33 62.3724L54.521 62.1941L54.5964 62.1162C54.6542 62.0408 54.712 61.9655 54.7673 61.8876L54.7975 61.86L55.0488 61.5083C55.0864 61.4958 55.1184 61.4707 55.1395 61.4373C55.1605 61.4038 55.1694 61.3641 55.1645 61.3249C55.7978 60.3201 55.8054 59.2199 55.8003 58.092C55.4258 58.0493 55.1293 57.8408 54.7749 58.0041L54.5939 59.7348C54.0388 60.3737 53.4355 60.9692 52.7893 61.5158C52.6299 61.6819 52.4191 61.7893 52.1911 61.8207C51.963 61.8522 51.731 61.8058 51.5326 61.6892C49.7732 60.7924 49.1977 59.3807 49.8914 57.4188C50.1754 56.6225 49.9215 56.2934 49.2731 56.0171C48.9086 55.8614 48.5492 55.6931 48.1898 55.5298C46.0333 56.8561 45.5708 58.7602 46.7748 61.3576L47.1115 61.8349L47.3579 62.1262Z" fill="#1D2831"/>
<path d="M59.6985 63.3094C60.9552 63.2692 62.0083 64.2715 61.9882 65.4019C61.9681 66.5323 60.7994 67.4391 59.5201 67.2758C58.8642 67.188 58.2217 67.0192 57.6074 66.7734C56.7377 66.4318 56.6699 64.892 57.5018 64.2062C58.1528 63.6686 58.9696 63.4626 59.6985 63.3094ZM60.5003 64.9196C59.7312 64.7915 59.2159 64.6684 58.7208 65.2913C59.4019 65.8867 59.8845 65.7988 60.5003 64.9196Z" fill="#1D2831"/>
<path d="M34.61 65.6229C34.0696 65.1381 34.3737 64.6759 34.6502 64.2112C35.8843 64.2489 37.1183 64.289 38.3549 64.3167C38.7948 64.3167 39.1089 64.5302 39.1089 64.9623C39.1089 65.3943 38.7747 65.5777 38.3549 65.5827C37.0907 65.5903 35.8516 65.6103 34.61 65.6229Z" fill="#1D2831"/>
<path d="M49.1425 41.4779C49.4541 40.8474 49.8236 40.5057 50.3992 41.2392C50.4293 41.4351 50.457 41.6361 50.6681 41.7416C50.9194 42.3771 51.2185 42.9976 51.4221 43.6557C51.5427 44.0476 51.5603 44.5374 51.0602 44.7233C50.56 44.9092 50.3413 44.5199 50.1503 44.1205C49.7406 43.2589 49.2681 42.4324 49.1425 41.4779Z" fill="#1D2831"/>
<path d="M62.7348 37.2452L62.9661 37.4587C62.9887 38.4635 63.0063 39.4683 63.0314 40.458C63.0314 40.875 62.946 41.2241 62.4558 41.2618C61.9657 41.2995 61.7999 41.0106 61.7194 40.5911C61.541 39.6291 61.2168 38.6745 61.6993 37.7074L61.9934 37.3432C62.1032 37.2757 62.2259 37.2321 62.3537 37.2153C62.4814 37.1984 62.6113 37.2085 62.7348 37.2452Z" fill="#1D2831"/>
<path d="M74.8769 41.5658C75.2991 41.4326 75.4926 41.817 75.7942 41.9677C75.5756 43.1207 74.6657 43.8567 74.0726 44.7811C73.8539 45.1227 73.4719 45.0876 73.1753 44.9268C72.8134 44.7284 72.8586 44.3867 73.0446 44.0677C73.5476 43.16 74.1633 42.3194 74.8769 41.5658Z" fill="#1D2831"/>
<path d="M86.323 66.1253C85.7808 66.1281 85.2391 66.0929 84.7018 66.0198C84.3675 65.952 83.9478 65.7937 84.0031 65.2888C84.0221 65.1185 84.1056 64.9619 84.2365 64.8512C84.3674 64.7405 84.5357 64.6841 84.7069 64.6935C85.7122 64.7136 86.7176 64.7764 87.6978 64.8819C87.7824 64.8908 87.864 64.9181 87.937 64.9617C88.0099 65.0054 88.0725 65.0644 88.1204 65.1347C88.1682 65.205 88.2002 65.2849 88.214 65.3687C88.2278 65.4526 88.2232 65.5385 88.2005 65.6204C88.1928 65.6932 88.1705 65.7637 88.1347 65.8276C88.099 65.8915 88.0506 65.9475 87.9925 65.9921C87.9345 66.0368 87.8679 66.0691 87.7969 66.0873C87.726 66.1054 87.652 66.109 87.5797 66.0977H86.323V66.1253Z" fill="#1D2831"/>
<path d="M46.6946 89.2857C46.1919 88.9365 46.4734 88.5824 46.6946 88.2282C47.0255 87.7184 47.2266 87.1354 47.2802 86.5301L47.3103 86.4975L47.5064 86.0252L47.5315 86.0001L47.72 85.7036L47.9714 85.5228L48.3333 85.5103L48.3509 85.5278L48.6399 85.7162C48.7192 86.1425 48.6915 86.5818 48.5595 86.9948C48.5347 87.01 48.515 87.0321 48.5029 87.0585C48.4908 87.085 48.4869 87.1144 48.4916 87.1431L48.3559 87.6304L48.082 88.188L47.9437 88.4015C47.8959 88.4718 47.8482 88.5397 47.7979 88.6075C47.4938 88.9466 47.3204 89.4816 46.6946 89.2857Z" fill="#1D2831"/>
<path d="M73.4668 88.5724C73.5774 89.0195 73.7181 89.5018 73.1074 89.6902C72.5896 89.8509 72.371 89.439 72.1749 89.0798C71.823 88.4342 71.5013 87.7735 71.1696 87.1204C71.1394 86.9823 71.1118 86.8466 71.0841 86.7109L71.5717 86.1935L71.9965 86.2412L72.5218 86.7035L72.6701 86.9923L72.7178 87.0451L72.9691 87.4872L72.9968 87.5123C73.1493 87.874 73.306 88.2274 73.4668 88.5724Z" fill="#1D2831"/>
<path d="M39.4207 51.8825C38.918 50.8777 39.3378 50.6265 40.2929 50.8777L40.313 50.9028L40.7503 51.1289L40.8232 51.1841L41.248 51.3775L41.3259 51.4403L41.7707 51.6262L41.8185 51.6714L42.1126 51.8222L42.379 52.0734C42.396 52.1408 42.4196 52.2064 42.4493 52.2693C42.3915 52.5004 42.3337 52.7315 42.2784 52.9651C41.0243 53.3746 40.3808 52.2115 39.4207 51.8825Z" fill="#1D2831"/>
<path d="M60.2893 91.22C60.3006 91.3437 60.3006 91.4681 60.2893 91.5918C60.1988 92.0942 60.7392 92.8955 59.7866 92.9658C58.7008 93.0462 59.0326 92.1218 58.9824 91.529C58.9421 91.0266 58.9824 90.5367 58.9824 90.0393C58.9824 89.5419 59.103 89.1853 59.6534 89.2104C60.0983 89.2305 60.2742 89.552 60.2717 89.979V91.22H60.2893Z" fill="#1D2831"/>
<path d="M38.3722 78.9063L37.7489 78.5923C37.4699 78.1301 37.6986 77.8186 38.0555 77.5347C38.445 77.203 38.9051 76.9646 39.4008 76.8374C39.8965 76.7103 40.4146 76.6979 40.9158 76.8012C40.393 78.0798 39.4907 78.6274 38.3722 78.9063Z" fill="#1D2831"/>
<path d="M82.9474 79.6774C82.02 79.6472 80.6602 78.7881 80.6854 78.2279C80.6796 78.144 80.6924 78.0599 80.7229 77.9815C80.7534 77.903 80.8008 77.8323 80.8618 77.7742C80.9227 77.7162 80.9957 77.6723 81.0756 77.6457C81.1554 77.6191 81.2401 77.6103 81.3238 77.6201C82.0778 77.6326 83.9251 78.7555 83.8195 79.1875C83.714 79.6196 83.3646 79.7201 82.9474 79.6774Z" fill="#1D2831"/>
<path d="M82.8673 53.8317C82.4325 53.9095 82.2138 53.8115 82.1133 53.5478C82.0127 53.284 81.97 52.9374 82.2716 52.7641C83.0256 52.3295 83.7972 51.9201 84.5739 51.5307C84.6394 51.4959 84.7116 51.4753 84.7857 51.4704C84.8598 51.4654 84.9341 51.4763 85.0037 51.5022C85.0732 51.5281 85.1365 51.5684 85.1894 51.6205C85.2422 51.6726 85.2835 51.7353 85.3103 51.8045C85.402 51.9479 85.4368 52.1203 85.408 52.288C85.3792 52.4558 85.2888 52.6067 85.1545 52.7113C84.4557 53.3167 83.5434 53.5126 82.8673 53.8317Z" fill="#1D2831"/>
<path d="M59.1508 57.6876C59.9048 56.0096 59.0352 54.3919 58.8793 52.7667C58.8064 52.0131 57.8514 52.2441 57.223 52.4828C58.065 51.478 58.9397 51.478 59.2337 52.5682C59.6396 54.0492 59.764 55.5931 59.6007 57.1199C59.5783 57.2443 59.5256 57.3612 59.4471 57.4602C59.3686 57.5593 59.2668 57.6374 59.1508 57.6876Z" fill="#1D2831"/>
<path d="M48.1948 65.2913C49.8715 65.6661 51.6133 65.6377 53.2768 65.2085C51.5954 66.0751 49.8988 65.9495 48.1948 65.2913Z" fill="#1D2831"/>
<path d="M44.5125 56.6074C44.0098 58.1573 44.1983 59.7122 44.4597 61.2721C43.8514 59.7097 43.6101 58.1623 44.5125 56.6074Z" fill="#1D2831"/>
<path d="M61.3325 53.6408C61.1415 54.6933 60.6162 55.6881 60.767 56.8009C60.4529 55.6504 60.5006 54.5677 61.3325 53.6408Z" fill="#1D2831"/>
<path d="M69.5033 81.0213C70.2573 81.1193 70.9585 80.9133 71.6824 80.8028C71.0138 81.4534 70.2875 81.5237 69.5033 81.0213Z" fill="#C0B9A3"/>
<path d="M48.5593 86.9923C48.6913 86.5793 48.719 86.14 48.6397 85.7137C49.356 86.1859 48.9036 86.5854 48.5593 86.9923Z" fill="#C0B9A3"/>
<path d="M62.3025 52.0834L61.5284 53.053C61.5837 52.5707 61.742 52.1663 62.3025 52.0834Z" fill="#1D2831"/>
<path d="M73.467 88.5724C73.2995 88.224 73.1369 87.874 72.9794 87.5223C73.3967 87.7509 73.4419 88.1604 73.467 88.5724Z" fill="#C0B9A3"/>
<path d="M42.2684 52.955C42.3237 52.7214 42.3815 52.4903 42.4393 52.2592C42.8365 52.6033 42.4821 52.7641 42.2684 52.955Z" fill="#1D2831"/>
<path d="M48.0767 88.193L48.3506 87.6354C48.3154 87.8464 48.3205 88.0825 48.0767 88.193Z" fill="#C0B9A3"/>
<path d="M71.5669 86.196L71.0793 86.7134C71.0949 86.5865 71.1506 86.4679 71.2383 86.3748C71.326 86.2817 71.4411 86.2191 71.5669 86.196Z" fill="#C0B9A3"/>
<path d="M62.9686 52.0683L62.3026 52.0834C62.3432 52.0353 62.3936 51.9965 62.4504 51.9693C62.5073 51.9422 62.5692 51.9274 62.6322 51.926C62.6952 51.9245 62.7577 51.9365 62.8157 51.961C62.8737 51.9856 62.9258 52.0221 62.9686 52.0683Z" fill="#1D2831"/>
<path d="M72.5193 86.721L71.994 86.2588C72.1135 86.2852 72.2243 86.3414 72.3162 86.4223C72.4081 86.5031 72.4779 86.6058 72.5193 86.721Z" fill="#C0B9A3"/>
<path d="M65.4116 78.0496L65.8439 78.4089C65.74 78.4136 65.6381 78.3794 65.5581 78.3129C65.4781 78.2465 65.4259 78.1526 65.4116 78.0496Z" fill="#C0B9A3"/>
<path d="M56.9768 69.0945L56.4741 69.2302C56.5571 68.8835 56.7833 69.0443 56.9768 69.0945Z" fill="#C0B9A3"/>
<path d="M54.7647 69.6923L54.0509 70.0038C54.2118 69.7174 54.4983 69.735 54.7647 69.6923Z" fill="#C0B9A3"/>
<path d="M56.2354 69.3056L55.5392 69.4361C55.6327 69.3536 55.7468 69.298 55.8693 69.275C55.9919 69.252 56.1184 69.2625 56.2354 69.3056Z" fill="#C0B9A3"/>
<path d="M55.5238 69.4461L54.7698 69.6798C54.9803 69.5052 55.2514 69.4212 55.5238 69.4461Z" fill="#C0B9A3"/>
<path d="M47.7375 65.0125C47.9335 65.0401 48.1271 65.0753 48.2075 65.2988L47.7375 65.0125Z" fill="#1D2831"/>
<path d="M71.0816 86.7109C71.1093 86.8466 71.1369 86.9822 71.1671 87.1204C70.9585 87.0199 70.9459 86.8792 71.0816 86.7109Z" fill="#C0B9A3"/>
<path d="M71.984 86.2488L71.5593 86.2011C71.5879 86.1712 71.623 86.1484 71.6619 86.1343C71.7008 86.1202 71.7424 86.1153 71.7835 86.1199C71.8245 86.1246 71.864 86.1386 71.8988 86.1609C71.9336 86.1833 71.9628 86.2133 71.984 86.2488Z" fill="#C0B9A3"/>
<path d="M48.3356 85.5102L47.9737 85.5227C48.0893 85.3544 48.21 85.3369 48.3356 85.5102Z" fill="#C0B9A3"/>
<path d="M67.8016 80.3607C67.9927 80.4059 68.2163 80.3858 68.3194 80.6119L67.8016 80.3607Z" fill="#C0B9A3"/>
<path d="M50.6682 41.7341C50.457 41.6361 50.4168 41.4351 50.3992 41.2317L50.6682 41.7341Z" fill="#C0B9A3"/>
<path d="M76.3649 57.3083C76.3298 57.1526 76.2971 56.9968 76.2619 56.8411C76.2971 56.9968 76.3298 57.1576 76.3649 57.3083Z" fill="#C0B9A3"/>
<path d="M44.4574 61.2646C44.6786 61.3576 44.6937 61.5636 44.7087 61.767L44.4574 61.2646Z" fill="#1D2831"/>
<path d="M44.724 61.762C44.8019 61.9354 44.8823 62.1061 44.9603 62.2794C44.8823 62.1061 44.8019 61.9303 44.724 61.762Z" fill="#C0B9A3"/>
<path d="M58.472 58.3331C58.4954 58.3043 58.5249 58.2811 58.5584 58.265C58.5918 58.2489 58.6285 58.2405 58.6656 58.2402L58.472 58.3331Z" fill="#C0B9A3"/>
<path d="M47.7925 88.6125C47.8427 88.5446 47.8905 88.4768 47.9383 88.4065L47.7925 88.6125Z" fill="#C0B9A3"/>
<path d="M72.1398 63.1436C72.2805 62.8321 72.5771 62.7366 72.8611 62.6412C72.9114 63.2164 72.4489 63.0758 72.1398 63.1436Z" fill="#1D2831"/>
<path d="M73.1178 62.3649C73.2208 62.076 73.3264 61.7871 73.6532 61.6716C73.5677 61.9755 73.6934 62.4327 73.1178 62.3649Z" fill="#1D2831"/>
<path d="M71.5944 63.3797L72.1146 63.1612C71.994 63.3621 71.7879 63.3571 71.5944 63.3797Z" fill="#1D2831"/>
<path d="M47.3605 62.1312C47.4409 62.2141 47.5188 62.2995 47.6118 62.3824L47.3605 62.1312Z" fill="#C0B9A3"/>
<path d="M60.5006 64.9196C59.8848 65.7988 59.4023 65.8867 58.7211 65.2914C59.2163 64.6935 59.7315 64.7915 60.5006 64.9196Z" fill="#3C5E65"/>
<path d="M71.0817 86.7085L71.0793 86.711V86.7136L71.0817 86.7085Z" fill="#EAD8B3"/>
<path d="M89.1052 64.799C89.168 60.0689 88.0697 55.5726 86.1067 51.2796C84.5559 50.7923 84.096 49.2524 83.1987 48.1723C81.0875 45.6603 78.7952 43.3995 75.7943 41.9677C75.5756 43.1207 74.6658 43.8567 74.0726 44.7811C73.8539 45.1227 73.4719 45.0876 73.1753 44.9268C72.8134 44.7284 72.8586 44.3867 73.0446 44.0677C73.5469 43.1565 74.1626 42.3125 74.8769 41.5557C74.5602 40.7092 73.7132 40.5258 73.0396 40.1892C70.5262 38.9332 67.8143 38.2725 65.0294 37.9133C64.3332 37.8229 63.6521 37.6069 62.9659 37.4487C62.9886 38.4534 63.0061 39.4582 63.0313 40.4479C63.0313 40.8649 62.9458 41.2141 62.4557 41.2518C61.9656 41.2894 61.7997 41.0006 61.7193 40.5811C61.5408 39.619 61.2166 38.6644 61.6992 37.6973C58.1804 37.6722 54.8829 38.6041 51.6632 39.8827C51.0751 40.1138 50.3739 40.3676 50.4065 41.2292L50.678 41.7316C50.9293 42.3671 51.2284 42.9875 51.432 43.6457C51.5526 44.0375 51.5702 44.5274 51.0701 44.7133C50.5699 44.8991 50.3512 44.5098 50.1602 44.1104C49.753 43.2563 49.2906 42.4299 49.1549 41.4754C46.5058 42.5026 44.2614 44.3606 42.7583 46.7706C42.0998 47.8256 41.3608 48.8304 40.647 49.8502C40.4334 50.1592 40.1645 50.438 40.3052 50.855L40.3253 50.8802L40.7626 51.1062L40.8355 51.1615C40.9126 51.1581 40.9897 51.1666 41.0642 51.1866C40.9895 51.1678 40.9126 51.1593 40.8355 51.1615L41.2603 51.3549L41.3382 51.4177L41.7831 51.6036L41.8308 51.6488L42.1199 51.7995L42.3712 52.0507C42.3882 52.1182 42.4118 52.1838 42.4416 52.2467C42.8387 52.5908 42.4944 52.7491 42.2707 52.9425C41.0265 53.362 40.3831 52.1889 39.423 51.8648C38.4704 54.0729 37.2137 56.1352 36.5678 58.4864C36.1707 59.9308 35.6404 61.3475 35.5499 62.8472C35.5071 63.548 35.0246 63.7993 34.6526 64.1987C35.8867 64.2363 37.1208 64.2765 38.3573 64.3041C38.7972 64.3041 39.1114 64.5177 39.1114 64.9497C39.1114 65.3818 38.7771 65.5652 38.3573 65.5702C37.1157 65.5702 35.8766 65.5978 34.635 65.6104C35.3086 66.0675 35.3563 66.7534 35.3739 67.4843C35.4619 71.2196 36.5025 74.769 37.5053 78.3285C37.5329 78.429 37.6837 78.4968 37.7742 78.5797C37.4952 78.1175 37.724 77.806 38.0809 77.5222C38.4704 77.1905 38.9305 76.952 39.4261 76.8249C39.9218 76.6978 40.4399 76.6854 40.9411 76.7886C40.4183 78.0672 39.516 78.6149 38.3975 78.8937C38.3824 79.354 38.4799 79.811 38.6816 80.2251C40.2122 83.2394 42.1299 85.9448 44.7564 88.1026C45.7618 88.9215 46.0131 88.8361 46.561 87.6329C46.7445 87.2209 46.8124 86.731 47.3 86.5175L47.3301 86.4849L47.5262 86.0127L47.5513 85.9875L47.7398 85.6911L47.9911 85.5103C48.1068 85.342 48.2274 85.3244 48.3531 85.4977L48.3707 85.5152L48.6597 85.7036C49.376 86.1759 48.9111 86.5753 48.5793 86.9823C48.5545 86.9974 48.5348 87.0196 48.5227 87.046C48.5106 87.0724 48.5067 87.1018 48.5114 87.1305L48.3757 87.6178C48.3405 87.8313 48.3455 88.0674 48.1017 88.178C48.0565 88.2508 48.0113 88.3212 47.9635 88.3915C47.9158 88.4618 47.868 88.5296 47.8177 88.5974C47.5186 88.9315 47.3452 89.4666 46.7194 89.2707C47.9208 90.8105 49.7581 91.2802 51.437 91.9434C56.6096 93.9731 61.938 94.1715 67.304 92.8528C68.8724 92.4659 70.3779 91.7776 71.8709 91.1371C72.5075 90.8279 73.2127 90.6869 73.9193 90.7276C75.3368 89.9818 76.6699 89.0858 77.8955 88.0549L78.1644 87.8589L78.2473 87.7836C78.2502 87.7329 78.2632 87.6833 78.2856 87.6378C78.3081 87.5923 78.3395 87.5518 78.378 87.5187C78.4165 87.4857 78.4612 87.4608 78.5096 87.4454C78.558 87.43 78.609 87.4246 78.6595 87.4294L78.8355 87.2611C78.8336 87.2177 78.8409 87.1745 78.8569 87.1341C78.8729 87.0937 78.8972 87.0572 78.9283 87.0268C78.9594 86.9965 78.9965 86.9731 79.0372 86.958C79.0779 86.943 79.1214 86.9367 79.1647 86.9396L79.3457 86.7612C79.3658 86.4146 79.6347 86.3342 79.8961 86.2588L80.1475 86.0076C80.2354 85.9172 80.3259 85.8293 80.4139 85.7413L80.8789 85.2615L81.1428 84.9827L81.4368 84.6738C81.4753 84.6641 81.51 84.6431 81.5364 84.6135C81.5628 84.584 81.5798 84.5472 81.5851 84.5079C81.5809 84.4001 81.6142 84.2942 81.6792 84.2082C81.7443 84.1221 81.8371 84.0611 81.942 84.0357L81.9822 83.9981L82.1707 83.7469H82.1833L82.4045 83.473L82.7061 83.1364C82.7447 83.1217 82.7781 83.0961 82.8022 83.0626C82.8263 83.0291 82.8401 82.9892 82.8418 82.948C82.8361 82.9313 82.8341 82.9136 82.8361 82.8961C82.8382 82.8785 82.8441 82.8616 82.8535 82.8467C82.8629 82.8317 82.8756 82.8191 82.8905 82.8097C82.9054 82.8003 82.9223 82.7943 82.9398 82.7923L82.9851 82.7495L83.166 82.4708C83.2641 82.3552 83.3596 82.2372 83.4576 82.1191C83.4869 82.1148 83.5136 82.0998 83.5326 82.0772C83.5516 82.0545 83.5616 82.0255 83.5606 81.996C83.5456 81.7448 83.719 81.5865 83.8999 81.4433L84.2192 81.0289L84.2644 80.9787L84.4077 80.6822C84.473 80.2979 84.556 79.9286 84.9807 79.7679L85.031 79.7076C85.031 79.5443 85.0536 79.3886 85.2396 79.3207C85.2672 79.3116 85.2907 79.2929 85.3059 79.2681C85.3211 79.2433 85.327 79.2138 85.3225 79.1851C85.2999 79.0344 85.3225 78.8987 85.4884 78.846C85.5216 78.8325 85.5494 78.8084 85.5676 78.7775C85.5858 78.7467 85.5933 78.7107 85.589 78.6751C85.5563 78.537 85.5588 78.424 85.7297 78.3787L85.8579 78.1552C85.5864 76.7786 86.3932 75.8819 87.2553 75.0102C87.2761 75.0028 87.2933 74.9877 87.3036 74.9682C87.3138 74.9487 87.3163 74.926 87.3106 74.9047C86.5566 73.5959 87.6952 72.8273 88.1903 71.8778C88.9795 69.5869 89.075 67.1829 89.1052 64.799ZM61.9882 65.3944C61.9706 66.5072 60.7994 67.4316 59.5201 67.2683C58.8642 67.1804 58.2217 67.0117 57.6074 66.7659C56.7377 66.4243 56.6699 64.8844 57.5018 64.1987C58.1528 63.6611 58.9696 63.445 59.6985 63.3019C60.9552 63.2692 62.0083 64.2715 61.9882 65.4019V65.3944ZM51.3113 53.0857C51.259 53.0747 51.2062 53.0663 51.153 53.0605C51.2063 53.0679 51.2591 53.078 51.3113 53.0907V53.0857ZM45.2641 62.7618L44.9575 62.2594L44.7237 61.757L44.6685 61.8022L44.7212 61.7545L44.4699 61.2521C43.8616 59.6897 43.6204 58.1322 44.5227 56.5874C44.9665 55.6741 45.636 54.889 46.468 54.3065C45.7467 53.4499 44.3593 52.8998 45.0731 51.488C45.4878 50.6691 46.2393 50.9003 46.9179 51.2093L47.2396 51.3424C47.249 51.3732 47.2691 51.3995 47.2964 51.4166C47.3236 51.4337 47.3562 51.4403 47.3879 51.4353L47.8001 51.5936L47.8705 51.6488L48.3732 51.8146L48.9538 52.0985C48.9716 52.1335 48.9997 52.1621 49.0343 52.1805C49.0689 52.1989 49.1084 52.2062 49.1473 52.2015L49.4967 52.3472C49.5059 52.3758 49.5254 52.4 49.5513 52.4153C49.5772 52.4306 49.6079 52.4358 49.6374 52.43L50.0722 52.5833L50.12 52.626L50.6604 52.8446L50.9117 52.9727L51.143 53.038C51.3013 53.2892 51.5828 53.2666 51.8216 53.3419L51.8693 53.3796L52.3846 53.5604L52.4373 53.5102L52.3871 53.5629C52.4725 53.5629 52.558 53.5831 52.6384 53.6007C52.558 53.5831 52.4725 53.573 52.3871 53.5629L53.0079 53.8569C53.0166 53.885 53.0358 53.9088 53.0615 53.9232C53.0872 53.9377 53.1175 53.9418 53.1461 53.9347L53.601 54.0855L53.6312 54.113L54.2319 54.3642C54.247 54.3991 54.2731 54.4282 54.3062 54.4468C54.3394 54.4654 54.3777 54.4726 54.4154 54.4673L54.8502 54.6532L57.0896 55.5424C57.4239 54.4798 56.6297 53.4374 57.2128 52.4652C58.0548 51.4605 58.9294 51.4604 59.2235 52.5506C59.6293 54.0316 59.7538 55.5755 59.5905 57.1023C59.5694 57.2254 59.5185 57.3415 59.4423 57.4404C59.3661 57.5394 59.2668 57.6182 59.1531 57.67L59.1129 57.7052L58.9294 57.979L58.6781 58.2151L58.4846 58.3081C57.263 58.4111 57.6501 59.4736 57.5722 60.0815C57.3209 62.1087 56.5819 63.7565 54.634 64.6684L54.1766 64.8668C54.149 64.8614 54.1204 64.8654 54.0953 64.8782C54.0703 64.8909 54.0502 64.9117 54.0384 64.9372L53.4201 65.1281C53.3953 65.1205 53.3686 65.1219 53.3447 65.132C53.3208 65.1421 53.3012 65.1603 53.2894 65.1833C51.6079 66.05 49.9114 65.9244 48.2073 65.2662L47.7373 64.9798L47.2572 64.6885C46.4958 64.1567 45.8232 63.5082 45.2641 62.7668V62.7618ZM47.7097 51.5082C47.6849 51.4883 47.6568 51.473 47.6267 51.463C47.6572 51.4745 47.6853 51.4915 47.7097 51.5132V51.5082ZM50.032 52.5506C50.0098 52.5261 49.9834 52.5057 49.9541 52.4903C49.9802 52.5082 50.0031 52.5302 50.022 52.5556L50.032 52.5506ZM49.9189 52.4728C49.892 52.4603 49.8631 52.4526 49.8335 52.4502C49.8634 52.4542 49.8923 52.4635 49.9189 52.4778V52.4728ZM59.7815 92.9608C58.6957 93.0411 59.0274 92.1167 58.9772 91.5239C58.937 91.0215 58.9772 90.5316 58.9772 90.0343C58.9772 89.5369 59.0978 89.1802 59.6483 89.2054C60.0931 89.2255 60.2691 89.547 60.2666 89.974V91.2149H60.2967C60.308 91.3386 60.308 91.4631 60.2967 91.5867C60.1962 92.074 60.7365 92.8955 59.7865 92.9658L59.7815 92.9608ZM69.5033 81.0213C69.4806 80.9984 69.4529 80.981 69.4224 80.9705C69.3919 80.96 69.3593 80.9568 69.3273 80.9611L68.8246 80.848L68.322 80.5968L67.8193 80.3456L67.3166 79.8432L67.0653 79.592L66.8139 79.3408L66.5626 79.0695L66.3238 78.846L66.0222 78.5445C66.0124 78.5044 65.9914 78.4681 65.9615 78.4396C65.9317 78.4111 65.8943 78.3917 65.8538 78.3838C65.7499 78.3885 65.648 78.3543 65.568 78.2878C65.4881 78.2214 65.4358 78.1275 65.4215 78.0246L65.3536 77.9643L65.0772 77.7759C61.4478 75.1383 56.695 75.2815 53.0833 78.1477C52.2991 78.7706 51.5577 79.4488 50.7584 80.0492C50.209 80.4679 49.5366 80.6934 48.8457 80.6907C48.1548 80.6879 47.4841 80.4572 46.938 80.0342C45.9905 79.2956 45.8221 78.2757 46.3776 76.7485C47.0431 74.7649 48.4118 73.0931 50.2256 72.0486C51.4823 71.3201 52.5228 70.1973 54.0585 69.9787C54.2218 69.7024 54.5084 69.7099 54.7748 69.6672V69.6547C54.9853 69.4801 55.2564 69.3961 55.5288 69.4211H55.5439C55.6373 69.3385 55.7514 69.2828 55.874 69.2598C55.9965 69.2368 56.1231 69.2474 56.2401 69.2904L56.4764 69.2151C56.5643 68.8684 56.788 69.0292 56.979 69.0794C59.8066 68.4916 62.599 68.9689 65.3159 69.6145C69.086 70.5113 71.622 73.0081 73.0522 76.6028C73.6654 78.1426 73.3563 79.5594 72.2353 80.534L71.7326 80.7475L71.6773 80.7903C71.0138 81.4534 70.2874 81.5237 69.5033 81.0213ZM62.1466 58.2327C62.2053 58.3319 62.2485 58.4395 62.2747 58.5517C62.2483 58.4404 62.205 58.3337 62.1466 58.2352V58.2327ZM62.3703 59.7826C62.3703 59.7977 62.3703 59.8127 62.3703 59.8278C62.3703 59.8429 62.3728 59.8002 62.3703 59.7851V59.7826ZM73.1075 89.6876C72.5897 89.8484 72.371 89.4365 72.175 89.0773C71.8231 88.4317 71.5014 87.771 71.1696 87.1179C70.961 87.0174 70.9484 86.8667 71.0817 86.7084C71.0995 86.5848 71.1556 86.4699 71.2422 86.3798C71.3288 86.2897 71.4414 86.2289 71.5642 86.206C71.593 86.1768 71.6281 86.1545 71.6669 86.141C71.7056 86.1274 71.7469 86.1229 71.7877 86.1277C71.8284 86.1326 71.8675 86.1467 71.902 86.169C71.9365 86.1913 71.9654 86.2211 71.9865 86.2563C72.106 86.2827 72.2169 86.3389 72.3087 86.4198C72.4006 86.5006 72.4705 86.6033 72.5118 86.7185L72.6601 87.0074L72.7078 87.0601L72.9592 87.5022L72.9868 87.5273C73.4116 87.7559 73.4493 88.1654 73.4744 88.5774C73.5775 89.0195 73.7232 89.5018 73.1075 89.6902V89.6876ZM65.1878 64.4951C63.6797 63.4476 63.1771 61.8424 62.5387 60.285C62.599 59.4736 62.6618 58.6597 62.7246 57.8207L61.5182 57.753L61.282 57.5018C61.2015 57.4113 61.1186 57.3234 61.0306 57.2355L60.7793 56.9466C60.7845 56.8901 60.7759 56.8332 60.7542 56.7808C60.4375 55.6378 60.4852 54.5602 61.3197 53.6207L61.3549 53.5831L61.5157 53.038C61.5735 52.5557 61.7293 52.1512 62.2898 52.0683C62.3301 52.0206 62.38 51.9819 62.4363 51.9548C62.4926 51.9277 62.5539 51.9129 62.6164 51.9112C62.6788 51.9095 62.7409 51.9211 62.7986 51.9452C62.8562 51.9692 62.9081 52.0052 62.9508 52.0507C64.1095 53.0731 62.9785 54.1734 63.0112 55.2711C63.4688 55.2318 63.909 55.0771 64.2905 54.8214L64.7932 54.716C64.8282 54.7224 64.8644 54.7178 64.8967 54.703C64.9291 54.6882 64.9561 54.6638 64.9741 54.633L66.3288 54.098L66.8114 53.9498C66.836 53.9552 66.8618 53.9509 66.8833 53.9378C66.9048 53.9247 66.9205 53.9038 66.927 53.8795L69.6113 52.8144C71.1194 52.2894 72.645 51.7794 74.1505 51.2268C74.7135 51.0208 75.2665 50.7722 75.7968 51.2017C76.4 51.689 76.1738 52.3245 76.0079 52.9299L75.7691 53.2389L75.4826 53.5404C75.4223 53.6032 75.3645 53.666 75.3042 53.7263V53.7463L75.0679 53.9448L74.7537 54.2312L74.7688 54.5853L75.0202 54.8014L75.2715 55.0726L75.4675 55.3515L75.4876 55.3715C75.5882 55.5172 75.6862 55.6655 75.7842 55.8111L75.9124 56.1001L75.9677 56.1729L76.2593 56.8411C76.2944 56.9968 76.3271 57.1526 76.3623 57.3083C76.3874 57.3912 76.4126 57.4741 76.4402 57.5595C76.6759 58.7831 76.5892 60.0469 76.1889 61.227C74.2083 66.1705 68.8372 67.0548 65.1878 64.4976V64.4951ZM76.772 59.8781C76.7921 59.7265 76.8022 59.5738 76.8021 59.4209C76.8023 59.5746 76.7922 59.7282 76.772 59.8806V59.8781ZM76.6539 58.3031C76.7252 58.5875 76.7723 58.8774 76.7946 59.1697C76.7754 58.8785 76.7317 58.5894 76.6639 58.3056L76.6539 58.3031ZM82.9474 79.6774C82.0199 79.6473 80.6602 78.7882 80.6853 78.228C80.6796 78.1441 80.6924 78.0599 80.7229 77.9815C80.7534 77.9031 80.8008 77.8323 80.8618 77.7743C80.9227 77.7163 80.9957 77.6724 81.0755 77.6458C81.1554 77.6191 81.2401 77.6103 81.3237 77.6201C82.0777 77.6327 83.9251 78.7555 83.8195 79.1876C83.714 79.6196 83.3646 79.7201 82.9474 79.6774ZM82.8594 53.8317C82.4246 53.9096 82.2059 53.8116 82.1054 53.5479C82.0049 53.2841 81.9621 52.9375 82.2637 52.7642C83.0178 52.3296 83.7894 51.9201 84.566 51.5308C84.6316 51.496 84.7038 51.4754 84.7778 51.4704C84.8519 51.4655 84.9262 51.4764 84.9958 51.5023C85.0654 51.5281 85.1287 51.5685 85.1815 51.6206C85.2344 51.6727 85.2756 51.7354 85.3024 51.8046C85.3941 51.948 85.4289 52.1204 85.4001 52.2881C85.3713 52.4558 85.2809 52.6068 85.1466 52.7114C84.4554 53.3168 83.543 53.5127 82.8669 53.8317H82.8594ZM87.572 66.0952H86.3153V66.1253C85.7731 66.1282 85.2314 66.093 84.6942 66.0198C84.3599 65.952 83.9402 65.7938 83.9955 65.2889C84.0145 65.1172 84.0991 64.9594 84.2316 64.8485C84.3641 64.7376 84.5343 64.6821 84.7067 64.6935C85.7121 64.7136 86.7175 64.7764 87.6977 64.8819C87.7823 64.8909 87.8639 64.9181 87.9369 64.9618C88.0098 65.0054 88.0724 65.0645 88.1203 65.1348C88.1681 65.205 88.2001 65.2849 88.2139 65.3688C88.2277 65.4527 88.2231 65.5385 88.2004 65.6204C88.1924 65.693 88.1698 65.7632 88.1339 65.8268C88.098 65.8905 88.0496 65.9461 87.9916 65.9905C87.9336 66.0349 87.8671 66.067 87.7963 66.085C87.7255 66.103 87.6517 66.1065 87.5796 66.0952H87.572Z" fill="#EAD8B3"/>
<path d="M74.7816 54.5903L74.7665 54.2361C74.5051 54.3668 74.5504 54.4823 74.7816 54.5903Z" fill="#EAD8B3"/>
<path d="M62.7346 37.2452C62.433 36.8658 62.2068 37.0467 61.9806 37.3432C62.092 37.2739 62.2169 37.2293 62.347 37.2124C62.477 37.1955 62.6092 37.2067 62.7346 37.2452Z" fill="#EAD8B3"/>
<path d="M73.369 55.987C73.2056 55.1404 72.6853 55.5448 72.248 55.6704L72.2103 55.7031C71.5945 55.894 70.9863 56.1175 70.3604 56.2658C69.7824 56.4014 69.9432 56.6149 70.2323 56.8912C70.3303 57.2504 70.4484 57.6046 70.5213 57.9664C70.8053 59.3907 69.8427 60.9807 68.5307 61.2947C68.1754 61.384 67.8057 61.4013 67.4436 61.3454C67.0815 61.2895 66.7342 61.1617 66.4224 60.9694C66.1105 60.7772 65.8404 60.5244 65.6279 60.2261C65.4155 59.9278 65.265 59.5899 65.1854 59.2324C65.0647 58.7727 65.0195 58.2954 64.934 57.7252C63.8483 60.0413 65.2633 62.6512 68.0104 63.6208C68.5908 63.8549 69.2164 63.9559 69.841 63.9163C70.4657 63.8767 71.0734 63.6977 71.6196 63.3923L72.1374 63.1737L72.155 63.1561C72.2958 62.8446 72.5923 62.7491 72.8763 62.6537L73.1277 62.4025C73.2307 62.1136 73.3363 61.8248 73.663 61.7092L73.7032 61.669L73.9295 61.2947C73.9602 61.2823 73.986 61.26 74.0028 61.2314C74.0196 61.2028 74.0265 61.1694 74.0224 61.1365L74.2336 60.7069C74.8368 59.3454 74.5452 58.0593 73.8892 56.8084C73.834 56.4291 73.9873 55.9568 73.369 55.987Z" fill="#EFE8DA"/>
<path d="M47.1268 61.8499C47.2047 61.9429 47.2801 62.0358 47.3581 62.1263L47.4108 62.0811L47.3606 62.1313C47.441 62.2142 47.5189 62.2996 47.6119 62.3825L47.8758 62.6111L48.1824 62.8899L48.4112 63.0406C48.4357 63.0699 48.4671 63.0927 48.5027 63.1067C48.5383 63.1208 48.5768 63.1257 48.6148 63.121C48.9314 63.3571 49.2356 63.6234 49.6779 63.5229L49.8011 63.538L49.9217 63.5229C50.8653 63.6871 51.8358 63.5916 52.7292 63.2466C52.7635 63.2541 52.7994 63.2478 52.829 63.2289C52.8587 63.2101 52.8797 63.1804 52.8875 63.1462C53.2871 63.0256 53.7245 62.9853 53.9959 62.606L54.2699 62.4327L54.3302 62.3724L54.5212 62.1941L54.5966 62.1162C54.6544 62.0409 54.7122 61.9655 54.7675 61.8877L54.7977 61.86L55.049 61.5083C55.0865 61.4959 55.1186 61.4708 55.1397 61.4373C55.1607 61.4039 55.1696 61.3642 55.1646 61.325C55.798 60.3202 55.8056 59.2199 55.8005 58.092C55.426 58.0493 55.1294 57.8409 54.7751 58.0041L54.5941 59.7349C54.039 60.3738 53.4357 60.9692 52.7895 61.5159C52.6301 61.6819 52.4193 61.7893 52.1913 61.8207C51.9632 61.8522 51.7312 61.8058 51.5328 61.6892C49.7734 60.7924 49.1978 59.3807 49.8915 57.4188C50.1756 56.6225 49.9217 56.2935 49.2733 56.0171C48.9088 55.8614 48.5494 55.6931 48.19 55.5298C46.0335 56.8562 45.571 58.7602 46.775 61.3576L47.1268 61.8499Z" fill="#EFE8DA"/>
<path d="M47.129 61.8551L47.1266 61.8499L47.129 61.8551Z" fill="#EAD8B3"/>
</svg>
