<svg width="130" height="129" viewBox="0 0 130 129" fill="none" xmlns="http://www.w3.org/2000/svg">
<path d="M129.56 0.0211487H0.874634V128.634H129.56V0.0211487Z" fill="#149980"/>
<path d="M16.7845 128.612C16.6513 121.503 16.8323 114.399 17.0635 107.295C17.0911 106.421 17.247 105.755 18.3931 105.878C23.8044 106.456 29.0675 107.747 34.3732 109.144C34.2099 115.675 34.049 122.138 33.8857 128.607L16.7845 128.612ZM22.0978 117.599C22.1305 116.883 21.9948 116.187 21.1629 116.122C20.3309 116.057 20.2983 116.765 20.3108 117.348C20.3259 118.001 20.3334 118.837 21.1654 118.908C21.937 118.976 22.1305 118.287 22.0978 117.599ZM24.091 122.666C24.091 123.352 24.0909 124.07 25.036 124.11C25.7246 124.14 25.79 123.568 25.8151 123.065C25.8629 122.344 25.6442 121.636 24.8902 121.525C24.1789 121.422 24.1086 122.103 24.091 122.666ZM29.1178 116.775C29.0348 116.22 29.1178 115.449 28.3461 115.414C27.5142 115.376 27.4288 116.155 27.4212 116.783C27.4137 117.411 27.7228 118.009 28.409 118.019C29.1932 118.029 29.0574 117.308 29.1202 116.775H29.1178ZM26.8959 111.804C26.8105 111.357 26.9311 110.593 26.0891 110.613C25.315 110.631 25.2873 111.382 25.232 111.932C25.1767 112.482 25.3954 112.977 26.0213 113.01C26.7627 113.06 26.8884 112.502 26.8984 111.804H26.8959ZM20.0671 110.983C20.7155 110.887 20.9316 110.435 21.0397 109.943C21.1478 109.45 21.2056 108.802 20.6024 108.687C19.9615 108.568 19.8685 109.219 19.8157 109.711C19.7755 110.123 19.7051 110.548 20.0696 110.983H20.0671Z" fill="#CE9561"/>
<path d="M103.351 128.634C103.114 122 102.878 115.368 102.639 108.626C103.745 107.988 105.075 107.689 106.482 107.217C106.628 109.752 106.786 112.191 106.902 114.635C107.121 119.307 107.508 123.975 107.47 128.659L103.351 128.634Z" fill="#CE9561"/>
<path d="M80.431 127.109C80.6522 127.936 81.5972 127.577 82.2406 128.295C79.3678 128.295 76.7111 128.31 74.0696 128.295C68.8442 128.257 63.6214 128.185 58.3961 128.162C52.2886 128.137 46.181 128.137 40.0735 128.162C39.1536 128.162 38.2412 128.272 37.3087 128.162C36.6854 128.089 36.4316 127.855 36.4618 127.207C36.7131 121.837 36.9292 116.464 37.1629 111.093C37.1878 110.84 37.2273 110.588 37.2811 110.339C38.1935 110.123 38.9651 110.533 39.9101 110.731C40.4128 109.109 41.1417 107.657 41.2925 105.843C41.5137 103.148 41.1844 100.505 41.2145 97.8423C41.2296 96.7421 40.918 95.8101 39.8246 95.2901C39.2264 95.8177 39.2315 96.4683 39.1963 97.0762C39.0254 100.048 38.4599 102.962 37.9396 105.886C37.7662 106.855 37.3565 106.948 36.4618 106.722C32.6087 105.753 28.8009 104.582 24.9002 103.866C22.3161 103.351 19.6905 103.07 17.0558 103.027C15.588 103.027 15.7037 102.869 16.0279 101.472C16.3622 100.035 16.9654 98.709 17.3524 97.3174C18.1567 94.4186 19.715 91.9292 21.2633 89.3771C22.902 86.6742 25.0334 84.4787 27.2703 82.3711C29.4619 80.3113 32.0608 78.8544 35.0618 78.2842C35.9842 78.1108 36.7759 78.4349 37.1303 79.5753C37.8416 81.8487 38.5881 84.23 40.2268 85.9457C41.7776 87.5684 42.7954 89.8166 45.148 90.6305C45.4571 90.7385 45.6632 91.158 45.902 91.4394C46.0905 91.6604 46.2187 92.0095 46.45 92.1025C48.3953 92.8762 50.0617 94.3332 52.2508 94.5065C53.0048 94.5668 53.6558 94.6974 54.2817 95.2601C54.9075 95.8228 55.7495 96.413 56.4683 96.3728C58.4111 96.2648 60.0951 97.2194 61.9601 97.3776C64.6218 97.6037 67.3538 97.9529 69.9325 97.7143C72.1745 97.5058 74.4918 98.2468 76.676 97.2621C78.0257 96.6542 79.6393 96.6818 80.8256 95.672C81.4389 95.1495 82.2004 95.5614 82.8363 95.1696C85.3497 93.6624 87.76 92.0949 89.924 90.0828C91.2913 88.8143 92.4374 87.3675 93.777 86.0813C94.4607 85.4207 95.2198 84.7801 94.888 83.6145C94.8499 83.2788 94.928 82.9402 95.1091 82.655C95.559 81.8185 95.6973 80.9343 95.6269 79.6984C97.0319 80.7886 98.3716 81.6125 99.4272 82.8158C104.017 88.0407 106.827 94.1874 108.795 100.789C109.621 103.565 109.707 103.587 106.839 104.306C105.467 104.652 104.223 105.401 102.622 105.612C102.182 102.625 101.601 99.7339 100.551 96.9632C99.5001 94.1924 98.7033 91.3338 95.8783 89.6935C95.4485 90.3039 95.7752 90.7159 95.9411 91.1053C98.4545 97.0411 99.4598 103.283 99.7639 109.676C99.8569 111.633 100.267 113.595 100.191 115.542C100.058 119.31 100.583 123.027 100.533 126.778C100.52 127.8 100.201 128.177 99.1532 128.169C93.9706 128.129 88.788 128.152 83.6003 128.152C83.545 127.649 84.0703 127.614 84.103 127.263L84.1809 127.303L84.1432 127.383L84.4373 127.102L84.4122 127.144L84.6761 126.866L84.661 126.883L84.94 126.617H84.8872C85.9654 125.577 85.8926 124.371 85.3899 123.1L85.4025 123.14L85.1511 122.598V122.671H85.0782C85.2843 122.168 85.0028 122.105 84.6032 122.168L84.6836 122.133L84.1231 121.882L84.186 121.915L83.6406 121.633L83.6682 121.721L83.5803 121.749C83.5526 121.287 83.6984 121.023 84.2011 120.837C85.6689 120.302 85.7518 119.593 84.5278 118.599L84.186 118.237L83.6154 117.863L83.6732 117.918C82.4467 116.966 80.6798 117.074 79.687 118.169L79.702 118.106L79.4357 118.672L79.4557 118.591L79.1843 119.141V119.104C78.94 119.569 78.8122 120.086 78.8122 120.611C78.8122 121.136 78.94 121.653 79.1843 122.118V122.078C79.182 122.211 79.229 122.34 79.3162 122.441C79.4034 122.541 79.5247 122.606 79.6568 122.623L79.9082 122.842L80.2701 123.11C80.9562 123.535 81.7781 123.384 82.5045 123.585C82.9745 123.711 83.0851 124.01 83.163 124.356C83.2409 124.703 83.2485 125.127 82.6981 125.168L81.3836 124.665L81.1322 124.61C80.5089 124 79.6443 124.668 79.0436 124.15C78.7922 124.414 78.9078 124.67 78.8852 124.904L78.3825 124.916L75.5902 124.904C75.173 124.72 75.1378 124.349 75.1352 123.967C75.1202 122.186 74.7658 120.425 74.8638 118.639C74.8889 118.172 75.007 117.604 74.3611 117.383C73.6473 117.23 73.0516 117.702 72.4308 117.634C72.079 118.89 72.5917 120.008 72.5515 121.151C72.0488 123.231 72.5515 125.333 72.2197 127.431C73.964 127.752 75.5349 127.639 77.1058 127.484C77.3155 127.469 77.5198 127.41 77.7055 127.311C77.8911 127.213 78.0542 127.076 78.184 126.911C79.1492 126.502 78.4127 125.494 78.8852 124.901C79.3024 125.718 78.9028 127.099 80.4385 127.137L80.431 127.109ZM70.0959 107.503L70.0406 107.531L70.5835 107.25L70.5508 107.285L70.8399 106.898L70.9631 106.526C71.09 106.419 71.1912 106.284 71.2591 106.133C71.3269 105.981 71.3597 105.816 71.3551 105.65C71.4782 103.64 71.0585 101.666 71.0711 99.6686C71.0668 99.5212 71.0158 99.3792 70.9254 99.2627C70.8351 99.1462 70.7101 99.0613 70.5684 99.0204C70.5397 98.9925 70.5043 98.9722 70.4657 98.9617C70.427 98.9511 70.3862 98.9507 70.3472 98.9602L69.0478 98.9426L68.9121 98.8095L68.8442 99.0104C68.8291 99.0933 68.8116 99.1762 68.7965 99.2616C68.324 101.412 68.9247 103.532 68.9825 105.667L68.8845 105.687L68.8593 105.592H67.5348L67.4946 105.567C67.4393 103.866 67.389 102.163 67.3261 100.46C67.3085 99.97 67.4267 99.455 67.0748 99.0204H65.5417L65.3381 99.1963L65.0666 99.2767C64.5086 101.178 64.765 103.112 64.9585 105.017C65.0138 105.569 64.5212 106.524 65.5944 106.775H65.5593L65.8106 107.049L66.0619 107.285C66.7933 108.217 68.0726 108.393 69.5681 107.762H69.5379L70.0959 107.503ZM59.5396 107.503L60.0926 107.755H60.0323C60.8944 108.154 61.7465 108.337 62.5457 107.596C63.2545 107.345 63.5309 106.624 64.0361 106.152C64.5966 104.77 64.2874 103.341 64.2548 101.927C64.2548 101.749 64.0436 101.713 63.8677 101.766L63.8527 101.241C64.0738 101.018 63.9331 100.882 63.7345 100.761L63.7848 100.809C63.6993 100.621 63.6114 100.432 63.5335 100.241L63.5636 100.286C63.4907 100.008 63.3927 99.7539 63.0333 99.764L63.0508 99.7791C62.9503 98.6663 62.0279 98.6939 61.2915 98.6386C60.2183 98.5557 59.1325 98.6386 58.5569 99.8117L58.5996 99.769C58.532 99.7708 58.4656 99.7872 58.405 99.8171C58.3444 99.847 58.2909 99.8897 58.2484 99.9422C58.2059 99.9947 58.1753 100.056 58.1587 100.121C58.1421 100.187 58.1399 100.255 58.1523 100.322L58.0944 100.259C57.8054 100.395 57.8431 100.887 57.4284 100.902C57.0992 100.387 57.5868 99.5882 56.8227 99.2541C56.7972 99.2286 56.7775 99.1979 56.7649 99.1641C56.7523 99.1303 56.7472 99.0941 56.7498 99.0581C54.7933 98.5227 52.7292 98.5184 50.7705 99.0456C50.5015 99.7188 50.8433 100.397 50.7579 101.073C50.8835 101.181 51.0092 101.382 51.1349 101.379C52.4142 101.379 52.4167 102.201 52.5952 103.195C52.8717 104.715 52.3916 106.288 53.0124 107.76L53.0325 107.79C53.6935 108.335 54.357 109.006 55.0105 107.79C55.3523 107.456 55.2619 107.019 55.2845 106.614C55.3398 105.205 55.385 103.796 55.1061 102.404C54.9075 101.424 55.4303 101.211 56.2295 101.321C57.0288 101.432 57.5164 101.824 57.5264 102.703C57.5264 103.396 57.3606 104.12 57.7451 104.775C57.7659 104.858 57.781 104.942 57.7903 105.027C57.7684 105.171 57.7854 105.319 57.8398 105.454C57.8942 105.59 57.9838 105.708 58.0995 105.798L58.0668 105.745C58.1246 105.931 57.8783 106.247 58.298 106.28L59.0521 107.179L59.5849 107.546L59.5396 107.503ZM65.5417 118.159C65.4663 118.116 65.5768 117.808 65.328 118.009C64.3654 118.297 63.4631 117.853 62.5281 117.785L62.3924 117.632L62.3094 117.835L62.2919 117.848C62.0405 117.933 61.8243 118.034 61.764 118.32C61.2801 120.472 60.9442 122.654 60.7587 124.851C60.628 125.519 60.5375 126.198 60.3515 126.848C60.2057 127.351 60.457 127.602 60.8541 127.617C61.392 127.617 62.0103 127.903 62.4653 127.353C62.9679 127.044 62.8423 126.291 63.3324 126.047C64.4533 125.492 64.9686 126.25 65.3933 127.117L65.3381 127.079L65.5894 127.358L65.8583 127.428L65.9513 127.604L66.0544 127.433L67.8313 127.346C67.3062 125.88 66.9051 124.372 66.6324 122.839C66.8561 121.746 66.7355 120.737 65.9136 119.898L65.9639 119.822L66.0393 119.87C66.0929 119.685 66.0864 119.489 66.021 119.308C65.9555 119.127 65.8343 118.972 65.6749 118.865L65.7377 118.812L65.7905 118.878C65.8242 118.733 65.8157 118.582 65.7657 118.442C65.7158 118.302 65.6267 118.179 65.5089 118.089L65.5417 118.159ZM73.1723 107.265L73.1245 107.217C73.2164 107.325 73.3327 107.41 73.4639 107.464C73.595 107.518 73.7371 107.54 73.8785 107.529C74.3812 108.315 75.3866 108.307 76.3743 107.508L76.3467 107.531L76.8946 107.247L76.8469 107.265C77.2515 107.265 77.538 107.154 77.4425 106.662H77.5532V106.772L77.8397 106.25L77.7567 106.283L77.724 106.202C78.9506 105.672 78.4052 107.016 78.8752 107.29C79.6016 108.043 80.2249 108.061 80.7024 107.039C80.9865 106.584 80.8884 106.074 80.9236 105.579C80.9588 105.084 80.7477 104.414 81.5846 104.343C82.4216 104.273 82.4844 104.899 82.59 105.481C82.7282 106.162 82.4241 106.911 82.9142 107.534C83.731 107.812 84.465 107.9 84.6937 106.78C85.1612 105.368 84.862 103.924 84.857 102.495C84.857 102.243 84.6233 102.442 84.5052 102.522V99.1034C83.7512 98.8522 83.0725 99.2089 82.5372 98.7467C81.9038 99.3671 82.1677 100.128 82.2205 100.849C82.2531 101.279 82.5221 101.796 81.836 101.944C81.1071 102.105 80.9814 101.605 80.8055 101.04C80.5692 100.286 80.8834 99.4525 80.3757 98.7793C79.78 98.7793 79.1693 98.6538 78.5635 98.9175V100.043C78.0458 100.892 78.7872 102.052 77.8673 102.806H74.8513C74.9066 103.419 74.9417 103.823 74.982 104.273L76.0677 104.471C76.2336 105.356 75.9395 105.798 75.0623 105.84C74.1852 105.883 74.0092 105.368 73.9992 104.652C73.9992 103.778 74.057 102.894 73.9037 102.032C73.6825 100.822 74.6074 100.96 75.2182 100.839C75.7385 100.734 75.8038 101.46 76.2387 101.693C76.8293 101.537 77.5205 101.291 77.5431 100.636C77.5657 99.9801 77.0178 99.445 76.3768 99.1285C75.1201 98.508 73.6599 98.7517 72.4585 99.7917C71.2169 100.877 71.3275 105.727 72.6193 106.737C72.6938 106.772 72.7737 106.794 72.8556 106.803L73.1723 107.265ZM73.6021 112.844C73.5066 112.668 73.4085 112.492 73.3105 112.316V112.399C73.2401 111.995 72.7852 111.917 72.6093 111.585L73.3483 110.804C73.2402 109.777 72.6244 109.282 71.6366 109.249C70.6489 109.217 69.5002 109.046 68.99 110.254C68.5477 111.302 68.7135 112.289 69.5982 113.09C70.0557 113.906 71.2998 113.291 71.7146 114.185C71.5587 114.56 71.2395 114.522 70.9756 114.597C69.9526 114.107 69.6108 114.281 69.4047 115.396C68.53 115.78 68.7839 114.954 68.6281 114.642C68.2813 113.926 68.6281 112.934 67.7484 112.424C67.4845 111.485 67.2206 110.545 66.9466 109.561C66.2378 109.623 65.5819 109.448 64.848 109.699L63.556 116.077C64.0587 117.044 64.5991 117.124 65.2124 116.202C65.7151 115.449 66.1951 115.449 66.6475 116.112C67.2708 117.019 68.045 116.938 68.7864 116.464C69.2891 116.147 69.7441 116.323 70.2116 116.227L70.1889 116.323L70.0909 116.3C71.3928 117.054 72.2423 116.936 73.1069 115.926L73.1321 115.846H73.215C73.3432 115.66 73.4664 115.476 73.6021 115.293L73.5644 115.331C74.2606 114.502 74.4617 113.67 73.587 112.819L73.6021 112.844ZM70.8147 117.848H68.5828C68.2611 118.242 68.3013 118.714 68.3315 119.169C68.4597 121.585 68.6582 123.997 68.5828 126.424C68.6169 126.667 68.6899 126.904 68.799 127.124C68.8191 127.205 68.8342 127.288 68.8467 127.376C69.4223 128.348 70.2844 127.765 70.9756 127.67C71.5335 127.592 71.3401 126.916 71.3401 126.486C71.3401 125.158 71.4406 123.804 71.2345 122.505C70.9982 120.96 71.5311 119.352 70.8122 117.858L70.8147 117.848ZM54.6963 127.353C55.2996 126.599 54.905 125.708 55.0357 124.889C55.096 124.514 54.7466 123.937 55.4906 123.854C55.8978 124.55 56.4432 125.203 56.682 125.954C57.1143 127.305 58.0291 127.536 59.233 127.368C59.9393 125.374 59.5321 123.349 59.3713 121.339C59.3713 121.261 59.1803 121.196 59.0797 121.123C59.0699 119.975 58.9529 118.829 58.7303 117.702L56.785 117.893V119.842C56.7071 120.37 56.878 120.958 56.4155 121.392C56.0787 120.772 55.6615 120.181 55.4253 119.521C54.9226 118.056 53.9524 117.529 52.4695 117.85C52.1478 118.084 52.1804 118.413 52.193 118.757C52.2885 121.344 52.6102 123.924 52.4971 126.519C52.5208 126.809 52.58 127.095 52.6731 127.371C53.3492 128.132 54.0177 127.361 54.6938 127.363L54.6963 127.353ZM79.9559 109.623C79.0109 109.948 76.2738 113.062 76.1406 113.917C76.02 114.688 76.4296 114.921 77.0957 114.743C78.0055 114.507 80.3103 110.947 80.1821 110.01C80.1646 109.91 80.0615 109.809 79.9534 109.634L79.9559 109.623ZM84.3619 110.777C84.392 110.342 84.3619 110.088 84.0804 109.975C83.711 109.83 83.4068 110.048 83.168 110.257C82.1828 111.118 81.5745 112.284 80.7728 113.296C80.451 113.703 80.157 114.195 80.6949 114.615C81.2906 115.082 81.8385 114.761 82.2029 114.253C82.8137 113.404 83.3541 112.507 83.9095 111.623C84.1031 111.319 84.2588 110.977 84.3594 110.799L84.3619 110.777ZM55.2795 111.06C55.2971 110.571 55.2795 110.307 55.0281 110.169C54.8996 110.094 54.7499 110.065 54.6028 110.086C54.4557 110.106 54.3196 110.175 54.2163 110.282C52.8918 111.387 52.2634 112.929 51.6325 114.464C51.5942 114.586 51.5981 114.717 51.6437 114.837C51.6893 114.956 51.7739 115.057 51.8839 115.122C51.9827 115.204 52.1092 115.245 52.2372 115.236C52.3652 115.228 52.4852 115.171 52.5725 115.077C53.7324 113.935 54.6519 112.573 55.2769 111.07L55.2795 111.06ZM58.9314 110.749C58.2754 110.38 57.8758 110.626 57.5089 111.015C56.8419 111.755 56.2934 112.594 55.8827 113.502C55.6641 113.954 55.5383 114.532 56.0259 114.869C56.609 115.273 57.0966 114.798 57.3957 114.391C58.1799 113.334 58.8334 112.183 58.9339 110.759L58.9314 110.749Z" fill="#2B404C"/>
<path d="M90.7686 55.5358V57.7966V59.3037C90.7383 59.3848 90.7383 59.4739 90.7686 59.5549V61.5645C90.7686 61.7303 90.7686 61.8936 90.7686 62.0669C90.7686 63.0834 90.7686 64.1 90.7686 65.1165V66.3373C90.7686 66.8397 90.7686 67.3622 90.7686 67.8746L90.7887 69.3667C90.7887 69.7109 90.7887 70.055 90.7887 70.3991C90.7709 70.4314 90.7615 70.4677 90.7615 70.5046C90.7615 70.5415 90.7709 70.5778 90.7887 70.6101L90.8189 71.3938C90.7938 71.4697 90.7938 71.5517 90.8189 71.6275C90.8315 72.3133 90.8465 72.9965 90.8591 73.6798C90.8767 73.8456 90.8943 74.0088 90.9144 74.1822C90.9144 75.3954 90.8968 76.6112 90.9596 77.8195C91.0023 78.7012 90.6681 79.2865 89.9819 79.8291C85.4742 83.347 80.1233 85.6238 74.4617 86.4331C67.6512 87.4942 60.6849 86.8909 54.1586 84.6747C48.934 82.9241 44.2268 79.9029 40.4606 75.8828C40.2642 75.6414 40.0103 75.453 39.7223 75.335C39.4343 75.217 39.1212 75.173 38.8118 75.2071L38.7389 73.8958C41.1442 73.004 42.0843 70.2233 41.7877 66.8974C41.7238 66.2751 41.6197 65.6576 41.476 65.0487C41.1417 63.5591 40.3902 62.3859 38.7892 62.0845C37.2686 61.8006 36.7308 63.0541 36.0898 64.0413C33.1366 63.2877 30.49 59.9468 30.3719 56.9953C30.3367 56.0633 30.3518 55.1415 30.3719 54.2095C30.3844 53.3478 30.6063 52.502 31.0184 51.745C31.4306 50.988 32.0206 50.3425 32.7378 49.864C33.455 49.3855 34.2778 49.0883 35.1354 48.9982C35.9929 48.908 36.8596 49.0274 37.6607 49.3462C38.5329 49.6979 38.9174 50.4942 39.7795 51.3558C39.8674 47.5602 39.8222 44.0711 40.0635 40.597C40.3047 37.123 40.4053 33.6138 41.2749 30.1272C44.0799 30.5919 46.7767 31.3154 49.5013 31.9158C56.7272 33.5033 63.7723 35.7037 70.7972 37.9896C71.9182 38.3564 72.4686 38.8187 72.4586 40.1425C72.4533 42.9538 73.0354 45.7353 74.1677 48.3088C74.5372 49.1629 74.2355 49.5649 73.4614 49.7934C72.8456 49.9793 72.167 50.0446 71.609 50.7806C73.2126 50.6273 74.4064 51.2277 75.5274 52.0366C76.8067 52.966 77.2994 54.1868 76.9073 55.5056C76.5277 56.7817 75.7712 57.2641 74.0068 57.3294C73.6323 57.347 73.2528 57.347 72.8783 57.3545L69.8622 57.3268C68.6633 57.2112 67.8515 57.8519 67.0975 58.721C67.6002 59.4746 68.3693 59.6077 69.171 59.6103C70.8852 59.6103 72.5993 59.6278 74.3109 59.5825C77.6386 59.4971 79.3377 57.6584 79.1894 54.2647C81.1197 55.1138 83.045 55.7845 85.1964 55.1791C87.2373 54.6014 89.0821 53.7246 90.7711 51.8733V55.0787L90.7686 55.5358ZM49.2348 43.0639C49.2348 43.6014 49.2348 44.0687 49.2348 44.5133C49.3077 47.3468 50.3307 49.9592 52.2786 51.8381C54.2893 53.7648 56.9384 54.6164 59.8967 54.3175C63.4732 53.9532 66.4742 51.715 67.6304 48.2887C67.9697 47.2839 68.0777 46.2541 68.2537 45.2292C68.3241 44.8172 68.3894 44.5058 68.8116 44.2244C69.8019 43.5462 69.817 42.5238 68.9825 40.9865C68.4799 40.0344 67.7259 39.7731 66.7984 40.0721C66.6099 40.7076 67.2181 41.1221 67.0221 41.7652C65.5006 41.6496 64.0002 41.5265 62.5206 41.3959C60.6657 41.2301 58.7882 41.1447 56.9635 40.8759C54.5707 40.5192 52.1705 40.4263 49.7727 40.2329C48.8905 40.16 48.0636 40.4011 47.8525 41.4235C47.6413 42.4458 48.3099 42.9307 49.2348 43.0713V43.0639ZM71.2295 66.267C74.8538 66.6011 78.6666 67.0206 81.4389 70.2284C81.596 70.4274 81.8146 70.5688 82.0606 70.6306C82.3065 70.6924 82.566 70.6711 82.7986 70.57C83.3013 70.3891 83.427 69.9319 83.4496 69.4521C83.515 68.1635 82.7358 67.3672 81.7807 66.6889C79.2196 64.9029 76.3292 63.9835 73.2578 63.6896C68.1556 63.1998 63.4556 64.3 59.4342 67.6158C58.6927 68.2262 57.9814 68.9196 57.813 69.9269C57.7351 70.3841 57.4586 70.9845 58.0317 71.296C58.6047 71.6075 59.0823 71.2683 59.4618 70.8387C62.5307 67.3822 66.625 66.5206 71.2295 66.2745V66.267ZM57.715 62.6371C56.7348 62.2377 55.9883 63.1094 55.0935 63.0993C54.2867 63.0993 53.8369 63.5139 53.6861 64.2524C53.485 65.1894 52.8994 65.6792 51.9895 65.8651C51.6341 65.9244 51.3021 66.0809 51.0301 66.3172C50.7582 66.5535 50.557 66.8604 50.4488 67.204C50.1397 68.2087 49.3932 68.711 48.6668 69.3591C47.5566 70.3253 46.7566 71.5977 46.3671 73.0166C47.1915 73.1849 47.7947 73.0166 48.0133 72.5142C48.4431 71.5094 49.3429 71.3286 50.1748 70.9844C50.5217 70.8387 51.0068 70.801 51.1375 70.4468C51.7331 68.8191 52.9647 67.8444 54.4049 67.0355C54.6336 66.8504 54.8074 66.6064 54.9076 66.3298C55.4329 65.2873 55.933 64.2599 57.1344 63.7776C57.3472 63.6848 57.5213 63.5212 57.6271 63.3147C57.733 63.1082 57.764 62.8714 57.715 62.6446V62.6371ZM38.7364 57.7589C38.4976 55.2997 38.0302 54.227 36.8991 53.5287C36.13 53.0514 35.2956 52.7752 34.4285 53.2625C33.5613 53.7498 33.1215 54.5008 33.0637 55.601C33.878 55.2845 34.4184 54.5963 35.3559 54.9404C34.4762 56.8897 34.2324 58.7586 36.1954 60.2884C36.9142 59.8664 37.1806 59.4068 36.7232 58.6482C36.1979 57.7815 36.3361 57.0028 37.1655 56.3522C37.7989 56.626 38.1508 57.1484 38.7364 57.7664V57.7589ZM65.1496 73.2176C68.8694 72.4037 72.3329 72.685 75.8265 72.4816C74.3084 69.7184 67.8515 70.06 65.1496 73.2251V73.2176Z" fill="#CE9561"/>
<path d="M42.0516 27.2008C43.9694 19.0243 49.9236 13.4075 58.1976 12.0761C64.8229 11.011 71.413 11.0437 77.7618 13.523C83.8794 15.9144 87.7425 20.4159 89.5748 26.7159C89.7834 27.4368 89.6275 27.8237 89.0118 28.1176C84.0026 30.5216 79.001 32.9331 73.9817 35.3119C73.7135 35.4297 73.4244 35.493 73.1315 35.4981C72.8385 35.5033 72.5474 35.4502 72.2751 35.342C65.2025 32.9029 57.9488 31.0892 50.7178 29.2128C47.8752 28.4768 44.9848 27.879 42.0516 27.2008Z" fill="#CE9561"/>
<path d="M87.1869 84.946C87.4935 85.265 87.3628 85.4257 86.9959 85.5589C86.1413 85.8703 85.6638 86.7395 84.9575 87.1439C83.4746 87.9955 82.4617 89.6031 80.4058 89.6382C79.4683 89.6533 78.5208 90.5903 77.626 91.1806C77.1594 91.5252 76.5826 91.6869 76.0048 91.6353C75.0375 91.5812 74.0758 91.8137 73.2401 92.3035C72.946 92.4668 72.6218 92.7306 72.3101 92.5547C70.4678 91.4846 68.4043 92.1629 66.5771 92.2357C64.7499 92.3086 63.1438 91.251 61.3719 91.776C61.1232 91.8026 60.874 91.7305 60.6782 91.5751C59.5421 90.7336 58.3533 90.2688 56.9433 90.8591C56.8285 90.9108 56.7018 90.9306 56.5766 90.9164C56.4514 90.9023 56.3324 90.8547 56.232 90.7787C53.9147 89.1434 51.7708 87.262 49.2121 85.9733C49.1 85.9245 49.0111 85.8342 48.9642 85.7213C48.9173 85.6084 48.9161 85.4817 48.9608 85.3679C50.2778 85.5864 51.444 86.2546 52.6454 86.7545C56.6681 88.422 60.958 89.3529 65.3104 89.5027C69.9225 89.6861 74.4742 89.3921 78.9656 88.3069C81.3458 87.7292 83.5274 86.6817 85.6588 85.5186C86.1388 85.2549 86.5913 84.9534 87.1668 84.9333L87.1869 84.946Z" fill="#2B404C"/>
<path d="M90.1428 30.9536C90.2433 32.2096 90.6454 33.2671 90.467 34.3422C90.2885 35.4173 90.932 36.4548 90.6505 37.6581L78.2796 36.6257L78.2042 36.3745L90.1428 30.9536Z" fill="#CE9561"/>
<path d="M81.1323 124.59L81.3837 124.645C81.635 125.281 81.8109 126.135 82.6982 125.148C83.2486 125.107 83.246 124.708 83.1631 124.336C83.0802 123.964 82.9746 123.69 82.5046 123.565C81.7657 123.364 80.9563 123.515 80.2702 123.09L79.9083 122.821L79.6569 122.603C79.5187 122.404 79.4659 122.133 79.1844 122.058V122.098C79.1844 121.093 79.1844 120.088 79.1844 119.084V119.121C79.4584 119.028 79.4182 118.78 79.4559 118.571L79.4358 118.651C79.6067 118.501 79.765 118.345 79.7022 118.086C79.6965 118.108 79.6924 118.13 79.6896 118.152C80.2939 117.818 80.9645 117.623 81.6533 117.579C82.3421 117.536 83.032 117.646 83.6733 117.9L83.613 117.845L84.1861 118.219L84.5279 118.581L85.0029 119.837C84.6862 120.186 84.2489 120.199 83.9372 120.468C83.4698 120.857 82.9319 120.686 82.7861 119.98C82.7401 119.886 82.6736 119.804 82.5915 119.739C82.5094 119.675 82.4138 119.629 82.3118 119.606C82.2097 119.583 82.1039 119.584 82.0019 119.607C81.9 119.631 81.8047 119.677 81.7229 119.742C81.3082 119.993 81.2781 120.4 81.3233 120.834C81.3761 121.337 81.7506 121.362 82.1251 121.43C82.6278 121.515 83.0978 121.633 83.5829 121.736L83.6708 121.709L83.6432 121.621C83.7312 121.9 83.9976 121.827 84.1886 121.902L84.1257 121.872C84.1888 121.959 84.2738 122.029 84.3722 122.073C84.4706 122.117 84.579 122.134 84.6862 122.123L84.6058 122.158L85.0808 122.661H85.1537V122.588C85.1537 122.811 85.1362 123.037 85.4051 123.13L85.3925 123.09C85.4478 124.293 85.4051 125.482 84.8898 126.607H84.9426L84.6636 126.873L84.6787 126.856L84.4148 127.134L84.4399 127.092C84.2992 127.139 84.1308 127.162 84.1459 127.373L84.1836 127.293L84.1056 127.253C82.9088 127.652 81.6064 127.596 80.4487 127.094C79.9184 126.481 79.3403 125.889 79.4257 124.914L81.1323 124.59Z" fill="#CECCB5"/>
<path d="M35.6072 69.1281C36.0671 69.8138 36.7005 69.8264 37.3665 69.525C38.0326 69.2235 38.3266 68.6785 38.299 67.9224C38.2638 66.9527 37.9547 65.958 38.4624 65.0034C39.7769 66.0484 39.8573 69.7134 38.6106 70.7383C37.5048 71.6426 35.7906 71.0347 34.7853 69.3818L35.6072 69.1281Z" fill="#A6B3A3"/>
<path d="M47.2844 89.2892C48.9257 88.4778 49.3153 88.5355 51.0822 89.779C49.4837 90.9696 48.6768 90.8642 47.2844 89.2892Z" fill="#859F9A"/>
<path d="M48.2647 87.5459C45.7388 87.8373 44.942 87.6061 43.9794 86.4355C45.7086 85.2675 46.7139 86.7597 48.2647 87.5459Z" fill="#859F9A"/>
<path d="M54.7492 91.8413C53.3417 92.9415 52.6631 92.8863 51.4315 91.6278C52.5299 90.6582 53.1909 90.7033 54.7492 91.8413Z" fill="#859F9A"/>
<path d="M76.3644 93.8458C75.7009 95.2701 74.5397 95.8002 73.3634 95.2199C73.9968 93.778 75.0198 93.3158 76.3644 93.8458Z" fill="#859F9A"/>
<path d="M85.8021 90.6657C85.5784 89.2213 86.0358 88.3471 87.2825 87.7468C87.7877 89.9498 87.5539 90.4296 85.8021 90.6657Z" fill="#859F9A"/>
<path d="M78.0082 94.7854C77.865 94.6332 77.774 94.4395 77.7483 94.2322C77.7225 94.0249 77.7634 93.815 77.8649 93.6324C78.019 93.2903 78.265 92.9976 78.5756 92.787C78.8863 92.5763 79.2493 92.4559 79.6243 92.4392C79.9888 92.4191 80.3783 92.6025 80.3582 92.9416C80.3381 93.7229 79.6871 94.0142 79.0764 94.293C78.737 94.4714 78.3977 94.6095 78.0082 94.7854Z" fill="#859F9A"/>
<path d="M41.4484 83.6297C42.7981 83.1122 43.8587 83.0997 44.1427 84.7953C42.979 85.6443 42.5266 85.476 41.4484 83.6297Z" fill="#859F9A"/>
<path d="M89.2857 87.9955C88.5594 86.7973 88.6951 86.2723 89.9945 84.9811C90.9521 86.2648 90.8365 86.7948 89.2857 87.9955Z" fill="#859F9A"/>
<path d="M59.9395 94.4713C61.1283 93.871 62.0734 93.2153 63.2974 93.8659C62.5283 95.358 61.7265 95.5414 59.9395 94.4713Z" fill="#859F9A"/>
<path d="M64.3228 95.1646C65.298 94.313 66.1978 93.6021 67.5023 94.2377C66.9569 95.6343 65.7203 96.0186 64.3228 95.1646Z" fill="#859F9A"/>
<path d="M59.2031 93.3133C57.7704 94.3482 56.7122 94.3331 55.6415 93.258C56.9736 92.5019 57.8483 92.5145 59.2031 93.3133Z" fill="#859F9A"/>
<path d="M71.7523 94.5517C71.0184 95.8077 69.9779 95.6118 68.8368 95.2601C69.6637 93.9991 70.4529 93.8182 71.7523 94.5517Z" fill="#859F9A"/>
<path d="M35.6071 69.128L34.7827 69.3792C34.1443 68.3116 34.3932 67.1561 34.4384 65.7946C35.5418 66.8019 35.0793 68.1483 35.6071 69.128Z" fill="#859F9A"/>
<path d="M40.0961 79.4949L42.0741 81.9567C40.2444 81.9718 39.4451 81.0348 40.0961 79.4949Z" fill="#859F9A"/>
<path d="M83.6682 92.1151L83.7085 92.1678L83.6657 92.218C83.563 92.2176 83.4621 92.2449 83.3736 92.2971C83.2852 92.3493 83.2124 92.4244 83.1631 92.5145L83.1832 92.4969L82.9318 92.7481C81.7656 92.9189 82.6503 91.9945 82.3663 91.6906C82.4641 91.6443 82.5442 91.5676 82.595 91.4721C82.6457 91.3767 82.6642 91.2673 82.6479 91.1605C83.0022 90.6882 83.4999 90.4948 84.0025 90.7686C84.3016 90.9294 84.2212 91.3238 83.9296 91.5725L83.6682 92.1151Z" fill="#637C80"/>
<path d="M92.0781 84.4561C91.3743 84.5766 91.5377 84.0367 91.4774 83.6674C91.56 83.6156 91.6244 83.5395 91.6618 83.4494C91.6992 83.3594 91.7077 83.26 91.686 83.165C92.0856 83.165 92.2264 82.8007 92.4978 82.6224V82.65L92.4752 84.1974L92.0781 84.4561Z" fill="#637C80"/>
<path d="M83.173 92.5136H83.1973C83.1984 92.5047 83.1984 92.4958 83.1973 92.4869L83.173 92.5136Z" fill="#1D2831"/>
<path d="M112.517 103.786C110.602 95.8202 107.626 88.342 102.257 82.0018C99.9376 79.2638 97.3513 76.8548 93.7622 75.8525C93.7069 75.7621 93.6541 75.6692 93.6013 75.5788C93.5845 73.9393 93.5669 72.3014 93.5485 70.6653V70.3211C93.5485 69.766 93.5485 69.2134 93.5485 68.6608C93.5485 68.5427 93.5611 68.4271 93.5686 68.3116C93.5686 67.4223 93.556 66.5306 93.551 65.6414V65.2972C93.551 63.9039 93.551 62.5107 93.551 61.1174C93.6281 60.9455 93.6679 60.7592 93.6679 60.5709C93.6679 60.3826 93.6281 60.1965 93.551 60.0246C93.551 59.8865 93.551 59.7458 93.551 59.6076C93.551 59.4694 93.551 59.384 93.551 59.2735V54.3325C93.551 54.2219 93.551 54.1089 93.551 53.9959C93.551 53.3578 93.5712 52.7173 93.5837 52.0793C93.7325 51.7266 93.7415 51.3305 93.6088 50.9715C93.6088 50.8408 93.6088 50.7076 93.6088 50.577C93.7393 50.315 93.7645 50.013 93.6792 49.733C93.6792 49.424 93.6792 49.1151 93.6792 48.8061L93.7019 48.4796C93.7848 46.7212 93.8753 44.9628 93.9532 43.2045C93.9733 42.6845 94.0713 42.1996 94.4559 41.8304C95.509 40.8256 95.039 39.8911 94.3277 38.9642C94.0512 38.6075 93.6164 38.3513 93.5737 37.8414C93.4254 36.0554 93.2344 34.2744 93.071 32.4934C92.89 30.4612 92.8196 28.4516 92.2717 26.4495C90.0348 18.4665 85.0784 13.0557 77.2567 10.3026C74.2428 9.26807 71.076 8.74839 67.8893 8.76528C67.7664 8.68508 67.6252 8.63723 67.4789 8.62625C67.3326 8.61527 67.1858 8.64152 67.0524 8.70248H66.6552C65.967 8.49883 65.2362 8.48664 64.5415 8.66728C61.6109 8.85316 58.6928 8.88838 55.7999 9.65704C45.9977 12.2569 41.074 19.2025 38.9753 28.4968C38.0598 32.6136 37.6037 36.8192 37.6155 41.0365V46.5629C31.6161 45.651 29.3214 48.8237 28.228 51.9837C26.7552 56.1963 28.3085 61.6548 31.7468 64.5436C32.5812 65.2419 32.8853 65.8699 32.7974 67.0556C32.6239 69.4244 32.9557 71.8284 35.2103 73.2753C35.9391 73.745 36.0823 74.147 35.8461 74.9232C33.6396 75.3608 31.518 76.1504 29.5626 77.2618C24.561 80.025 21.0598 84.2225 18.192 89.0379C15.3494 93.8107 13.208 98.8522 12.3585 104.379C12.087 106.137 12.3359 106.529 13.9721 106.767C14.6432 106.865 14.7739 107.147 14.7261 107.772C14.2436 114.703 14.0877 121.648 14.0424 128.596H16.8072C16.6739 121.488 16.8549 114.384 17.0862 107.28C17.1138 106.406 17.2697 105.74 18.4158 105.863C23.8271 106.441 29.0902 107.732 34.3959 109.129C34.2325 115.66 34.0716 122.123 33.9083 128.591C37.0073 128.591 40.1063 128.612 43.2078 128.612L103.378 128.632C103.142 121.998 102.906 115.366 102.667 108.624C103.773 107.986 105.103 107.687 106.51 107.215C106.656 109.749 106.814 112.188 106.93 114.632C107.148 119.305 107.536 123.972 107.498 128.657C108.503 129.182 109.476 128.84 110.459 128.609C110.132 121.272 109.87 113.932 109.333 106.607C110.016 106.391 110.572 106.21 111.13 106.041C112.525 105.627 112.854 105.187 112.517 103.786ZM91.6811 83.165C91.7188 82.7555 91.6961 82.2832 92.2365 82.1978C92.4703 82.1601 92.5884 82.3711 92.4879 82.6248V82.6525C93.1363 83.18 92.9905 83.6924 92.4652 84.1998C92.4591 84.2436 92.4436 84.2856 92.4198 84.3228C92.3959 84.3601 92.3643 84.3917 92.327 84.4156C92.2898 84.4394 92.2478 84.4549 92.2039 84.4611C92.1601 84.4672 92.1155 84.4637 92.0732 84.451C91.3694 84.5716 91.5328 84.0316 91.4724 83.6623C91.4624 83.4639 91.4373 83.2578 91.6811 83.1674V83.165ZM90.4671 34.3421C90.2811 35.4424 90.9321 36.4548 90.6506 37.658L78.2797 36.6256L78.2042 36.3744L90.1429 30.9435C90.2434 32.2045 90.648 33.267 90.4671 34.3421ZM58.1977 12.0786C64.823 11.0135 71.4131 11.0461 77.7619 13.5255C83.8795 15.9169 87.7426 20.4183 89.5748 26.7183C89.7834 27.4392 89.6276 27.8261 89.0118 28.12C84.0026 30.5239 79.001 32.9355 73.9818 35.3143C73.7135 35.4321 73.4245 35.4953 73.1315 35.5005C72.8385 35.5057 72.5475 35.4527 72.2752 35.3445C65.2025 32.9054 57.9489 31.0917 50.7179 29.2153C47.8752 28.4793 44.9973 27.8814 42.0642 27.2057C43.9694 19.0242 49.9236 13.4074 58.1977 12.0786ZM30.3745 56.9676C30.3393 56.0356 30.3544 55.1137 30.3745 54.1817C30.387 53.32 30.6089 52.4743 31.0211 51.7173C31.4332 50.9603 32.0233 50.3148 32.7404 49.8363C33.4576 49.3578 34.2804 49.0607 35.138 48.9705C35.9955 48.8803 36.8622 48.9997 37.6633 49.3186C38.5355 49.6702 38.92 50.4665 39.7821 51.3281C39.8701 47.5326 39.8248 44.0434 40.0661 40.5693C40.3074 37.0953 40.4079 33.5861 41.2775 30.0995C44.0825 30.5642 46.7794 31.2876 49.5039 31.8879C56.7299 33.4755 63.7749 35.676 70.7998 37.9619C71.9208 38.3287 72.4712 38.7909 72.4612 40.1147C72.4559 42.926 73.038 45.7076 74.1703 48.2812C74.5398 49.1352 74.2382 49.5371 73.464 49.7656C72.8483 49.9515 72.1696 50.0169 71.6116 50.7529C73.2152 50.5997 74.4091 51.2 75.53 52.0089C76.8093 52.9383 77.302 54.1591 76.9099 55.4779C76.5304 56.754 75.7738 57.2363 74.0094 57.3016C73.6349 57.3191 73.2554 57.3192 72.8809 57.3267L69.8648 57.2991C68.666 57.1836 67.8541 57.8241 67.1001 58.6932C67.6028 59.4468 68.3719 59.5799 69.1737 59.5825C70.8878 59.5825 72.6019 59.6001 74.3135 59.5549C77.6413 59.4695 79.3403 57.6307 79.1921 54.237C81.1223 55.0861 83.0476 55.7568 85.199 55.1514C87.2399 54.5737 89.0847 53.697 90.7737 51.8456V55.0508C90.83 55.1225 90.8605 55.211 90.8605 55.302C90.8605 55.3931 90.83 55.4816 90.7737 55.5532V56.8092C90.8569 56.9636 90.9004 57.1363 90.9004 57.3116C90.9004 57.487 90.8569 57.6596 90.7737 57.814V59.3212V59.5724V61.582C90.8291 61.654 90.8593 61.7423 90.8593 61.8332C90.8593 61.924 90.8291 62.0124 90.7737 62.0844C90.7737 63.1009 90.7737 64.1174 90.7737 65.1339C90.8643 65.3216 90.9114 65.5272 90.9114 65.7356C90.9114 65.9439 90.8643 66.1496 90.7737 66.3372C90.7737 66.8396 90.7737 67.3621 90.7737 67.8745C90.9763 68.35 90.9835 68.8859 90.7938 69.3666V70.399C90.8209 70.4275 90.836 70.4653 90.836 70.5045C90.836 70.5438 90.8209 70.5815 90.7938 70.61L90.824 71.3938C90.8424 71.446 90.8559 71.4998 90.8642 71.5546C90.8642 71.5772 90.8391 71.6023 90.824 71.6274L90.8642 73.6823L90.9195 74.1847C90.9195 75.3979 90.9019 76.6137 90.9647 77.822C91.0075 78.7037 90.6732 79.289 89.9871 79.8316C85.4793 83.3494 80.1285 85.6262 74.4669 86.4354C67.6564 87.4965 60.69 86.8932 54.1637 84.677C48.9391 82.9265 44.232 79.9052 40.4657 75.8851C40.2693 75.6438 40.0154 75.4555 39.7274 75.3375C39.4394 75.2194 39.1264 75.1754 38.8169 75.2094C38.7893 74.707 38.7667 74.3002 38.744 73.8983C41.1493 73.0065 42.0894 70.2258 41.7928 66.8999C41.729 66.2776 41.6249 65.6599 41.4811 65.051C41.1469 63.5614 40.3954 62.3884 38.7943 62.0869C37.2737 61.8031 36.7358 63.0566 36.0949 64.0438C33.1392 63.2601 30.4926 59.9166 30.3745 56.965V56.9676ZM89.2858 87.9979C88.5594 86.7997 88.6952 86.2747 89.9946 84.9836C90.9522 86.2647 90.8366 86.7948 89.2858 87.9955V87.9979ZM83.6684 92.1175L83.7086 92.1703L83.6658 92.2206C83.5326 92.3587 83.4899 92.6501 83.1984 92.527C83.2562 92.748 83.1607 92.821 82.932 92.7632C82.8415 93.3711 82.3891 93.2204 81.9417 93.2354C81.8613 92.6451 81.7884 92.0975 82.3664 91.7057C82.2332 91.4093 82.4419 91.2936 82.648 91.1756C83.0024 90.7033 83.5 90.5099 84.0027 90.7837C84.3018 90.9444 84.2213 91.3389 83.9298 91.5876C84.0228 91.8538 83.8895 92.0071 83.6684 92.1151V92.1175ZM80.4009 89.6408C79.4635 89.6558 78.516 90.5928 77.6212 91.1832C77.1546 91.5277 76.5778 91.6895 76 91.6378C75.0327 91.5837 74.071 91.8161 73.2353 92.3059C72.9412 92.4692 72.617 92.733 72.3053 92.5571C70.463 91.487 68.3995 92.1653 66.5723 92.2381C64.745 92.311 63.139 91.2534 61.3671 91.7784C61.1184 91.805 60.8692 91.7329 60.6734 91.5775C59.5373 90.736 58.3485 90.2712 56.9385 90.8616C56.8236 90.9132 56.697 90.9331 56.5718 90.919C56.4466 90.9048 56.3276 90.8572 56.2272 90.7812C53.9098 89.1459 51.7659 87.2645 49.2073 85.9758C49.0952 85.9271 49.0063 85.8367 48.9595 85.7238C48.9126 85.6109 48.9113 85.4842 48.956 85.3704C50.273 85.589 51.4392 86.2571 52.6406 86.757C56.6632 88.4245 60.9532 89.3553 65.3056 89.5051C69.9176 89.6885 74.4694 89.3946 78.9608 88.3095C81.341 87.7317 83.5226 86.6842 85.654 85.5212C86.134 85.2574 86.5864 84.9559 87.162 84.9359L87.2123 84.9007L87.1771 84.9534C87.4837 85.2724 87.353 85.4332 86.9861 85.5663C86.1315 85.8778 85.654 86.7469 84.9477 87.1514C83.4748 87.9954 82.4619 89.603 80.406 89.6382L80.4009 89.6408ZM80.3507 92.9541C80.3306 93.7353 79.6797 94.0266 79.0689 94.3055C78.7321 94.4612 78.3928 94.6119 78.0032 94.7877C77.8601 94.6356 77.7691 94.4419 77.7433 94.2347C77.7175 94.0274 77.7584 93.8173 77.8599 93.6348C78.014 93.2927 78.26 93 78.5706 92.7893C78.8813 92.5787 79.2443 92.4583 79.6193 92.4416C79.9863 92.419 80.3658 92.6024 80.3557 92.9641L80.3507 92.9541ZM76.3595 93.8483C75.6959 95.2726 74.5347 95.8027 73.3584 95.2224C73.9968 93.778 75.0198 93.3157 76.3645 93.8458L76.3595 93.8483ZM71.7474 94.5542C71.0135 95.8102 69.9729 95.6142 68.8318 95.2625C69.6637 93.999 70.453 93.8181 71.7524 94.5516L71.7474 94.5542ZM67.4972 94.2402C66.9518 95.6369 65.7202 96.0212 64.3153 95.1671C65.298 94.313 66.1978 93.6021 67.5023 94.2376L67.4972 94.2402ZM63.2999 93.8735C62.5233 95.3606 61.7215 95.5439 59.942 94.4788C61.1358 93.8759 62.0808 93.2153 63.3049 93.8709L63.2999 93.8735ZM59.198 93.3158C57.7654 94.3507 56.7072 94.3357 55.6365 93.2606C56.9736 92.502 57.8483 92.5145 59.2031 93.3133L59.198 93.3158ZM54.7443 91.8438C53.3368 92.944 52.6581 92.8887 51.4266 91.6302C52.53 90.6581 53.191 90.7033 54.7493 91.8412L54.7443 91.8438ZM44.1378 84.7977C42.9741 85.6468 42.5217 85.4785 41.4434 83.6321C42.7981 83.1122 43.8537 83.0996 44.1428 84.7952L44.1378 84.7977ZM40.0912 79.4975L42.0692 81.9591C40.2445 81.9717 39.4453 81.0347 40.0963 79.4949L40.0912 79.4975ZM48.2598 87.5483C45.7338 87.8397 44.937 87.6086 43.9744 86.438C45.7086 85.2674 46.714 86.7596 48.2648 87.5458L48.2598 87.5483ZM51.0773 89.7815C49.4787 90.9721 48.6719 90.8666 47.2795 89.2916C48.9258 88.4777 49.3154 88.5279 51.0823 89.7789L51.0773 89.7815ZM87.2701 87.7493C87.7727 89.9448 87.5415 90.432 85.7897 90.6681C85.5761 89.2212 86.036 88.3471 87.2826 87.7467L87.2701 87.7493ZM34.7704 69.3842C34.132 68.3166 34.3808 67.1611 34.426 65.7996C35.5294 66.8044 35.0669 68.1509 35.5947 69.1305C36.0547 69.8163 36.6881 69.8289 37.3541 69.5274C38.0202 69.226 38.3143 68.6808 38.2866 67.9247C38.2515 66.9551 37.9423 65.9604 38.45 65.0059C39.7645 66.0509 39.8449 69.7157 38.5983 70.7406C37.5025 71.6424 35.7883 71.0346 34.7829 69.3817L34.7704 69.3842ZM106.819 104.313C105.447 104.66 104.203 105.408 102.602 105.619C102.162 102.633 101.581 99.7415 100.531 96.9708C99.4801 94.2001 98.6833 91.3413 95.8583 89.701C95.4285 90.3114 95.7552 90.7234 95.9211 91.1128C98.4345 97.0485 99.4399 103.291 99.744 109.684C99.837 111.641 100.247 113.603 100.171 115.549C100.038 119.317 100.563 123.035 100.513 126.785C100.501 127.808 100.181 128.185 99.1332 128.177C93.9506 128.137 88.7681 128.159 83.5804 128.159C83.5251 127.657 84.0504 127.622 84.0831 127.27C82.8863 127.67 81.5838 127.614 80.4261 127.112C80.6473 127.938 81.5923 127.579 82.2357 128.298C79.3629 128.298 76.7063 128.313 74.0647 128.298C68.8394 128.26 63.6166 128.187 58.3912 128.164C52.2837 128.139 46.1761 128.139 40.0686 128.164C39.1487 128.164 38.2363 128.275 37.3039 128.164C36.6805 128.092 36.4267 127.858 36.4569 127.21C36.7082 121.839 36.9244 116.466 37.1581 111.096C37.183 110.842 37.2224 110.591 37.2763 110.342C38.1886 110.126 38.9602 110.535 39.9052 110.734C40.4079 109.111 41.1368 107.659 41.2876 105.845C41.5088 103.15 41.1795 100.508 41.2097 97.8449C41.2248 96.7447 40.9131 95.8127 39.8198 95.2927C39.2216 95.8202 39.2266 96.4708 39.1914 97.0787C39.0205 100.05 38.455 102.964 37.9347 105.888C37.7613 106.858 37.3517 106.951 36.4569 106.725C32.6039 105.755 28.7961 104.585 24.8953 103.869C22.3112 103.353 19.6857 103.072 17.051 103.03C15.5832 103.03 15.6988 102.871 16.023 101.475C16.3573 100.038 16.9605 98.7115 17.3476 97.3198C18.1519 94.421 19.7102 91.9317 21.2584 89.3795C22.8972 86.6766 25.0285 84.4811 27.2654 82.3736C29.4571 80.3138 32.0559 78.8568 35.0569 78.2866C35.9793 78.1133 36.771 78.4374 37.1254 79.5778C37.8367 81.8511 38.5832 84.2324 40.2219 85.9481C41.7727 87.5709 42.7906 89.8192 45.1431 90.633C45.4523 90.7411 45.6584 91.1605 45.8971 91.4418C46.0856 91.6629 46.2139 92.0121 46.4451 92.105C48.3905 92.8787 50.0568 94.3356 52.246 94.5089C53 94.5692 53.651 94.6999 54.2768 95.2625C54.9026 95.8252 55.7446 96.4156 56.4634 96.3754C58.4063 96.2674 60.0903 97.2219 61.9552 97.3802C64.6169 97.6063 67.3489 97.9554 69.9277 97.7167C72.1696 97.5082 74.487 98.2493 76.6711 97.2646C78.0208 96.6567 79.6344 96.6843 80.8207 95.6745C81.434 95.152 82.1955 95.564 82.8314 95.1721C85.3448 93.665 87.7552 92.0975 89.9192 90.0854C91.2865 88.8168 92.4326 87.3699 93.7722 86.0838C94.4559 85.4231 95.2149 84.7826 94.8831 83.6171C94.8451 83.2813 94.9231 82.9428 95.1043 82.6575C95.5542 81.821 95.6924 80.9368 95.6221 79.7009C97.027 80.7911 98.3667 81.615 99.4223 82.8182C104.012 88.0431 106.822 94.19 108.79 100.791C109.614 103.567 109.705 103.59 106.832 104.311L106.819 104.313Z" fill="#1D2831"/>
<path d="M82.3688 91.7082C82.6528 92.0096 81.7681 92.9365 82.9343 92.7657C82.8438 93.3736 82.3914 93.2229 81.944 93.2379C81.8636 92.6451 81.7907 92.0975 82.3688 91.7082Z" fill="#859F9A"/>
<path d="M92.4701 84.1999L92.4927 82.6526C93.1437 83.1801 92.9929 83.6925 92.4701 84.1999Z" fill="#859F9A"/>
<path d="M92.4927 82.6248C92.2213 82.8031 92.0805 83.1775 91.6809 83.1674C91.7186 82.758 91.696 82.2832 92.2364 82.1978C92.4701 82.1627 92.5882 82.3711 92.4927 82.6248Z" fill="#859F9A"/>
<path d="M90.7887 69.3516C90.7887 68.8492 90.7887 68.3468 90.7686 67.8595C90.9712 68.3349 90.9784 68.8709 90.7887 69.3516Z" fill="#2B404C"/>
<path d="M90.771 66.3372C90.771 65.9353 90.771 65.5359 90.771 65.134C90.8616 65.3216 90.9087 65.5273 90.9087 65.7356C90.9087 65.944 90.8616 66.1496 90.771 66.3372Z" fill="#2B404C"/>
<path d="M90.771 57.809V56.8043C90.8542 56.9587 90.8977 57.1313 90.8977 57.3067C90.8977 57.482 90.8542 57.6546 90.771 57.809Z" fill="#2B404C"/>
<path d="M90.7686 55.5358V55.0334C90.8249 55.105 90.8554 55.1935 90.8554 55.2846C90.8554 55.3756 90.8249 55.4641 90.7686 55.5358Z" fill="#2B404C"/>
<path d="M90.7786 62.0669V61.5645C90.834 61.6365 90.864 61.7248 90.864 61.8157C90.864 61.9065 90.834 61.9949 90.7786 62.0669Z" fill="#2B404C"/>
<path d="M90.9169 74.162C90.8968 73.9962 90.8792 73.833 90.8616 73.6596C90.8792 73.833 90.8968 73.9988 90.9169 74.162Z" fill="#2B404C"/>
<path d="M91.686 83.1675C91.7077 83.2625 91.6993 83.3619 91.6619 83.4519C91.6245 83.5419 91.56 83.6181 91.4774 83.6699C91.4598 83.4639 91.4347 83.2554 91.686 83.1675Z" fill="#859F9A"/>
<path d="M82.6478 91.1756C82.6641 91.2825 82.6456 91.3918 82.5949 91.4873C82.5442 91.5828 82.464 91.6594 82.3662 91.7057C82.233 91.4093 82.4417 91.2937 82.6478 91.1756Z" fill="#859F9A"/>
<path d="M83.173 92.5145C83.2224 92.4245 83.2951 92.3494 83.3836 92.2972C83.472 92.245 83.573 92.2177 83.6757 92.2181C83.5274 92.3613 83.4897 92.6703 83.173 92.5145Z" fill="#859F9A"/>
<path d="M82.9318 92.7607L83.1831 92.5095C83.266 92.7406 83.1705 92.821 82.9318 92.7607Z" fill="#859F9A"/>
<path d="M83.6682 92.1152L83.9195 91.5876C84.0225 91.8539 83.8893 92.0072 83.6682 92.1152Z" fill="#859F9A"/>
<path d="M87.172 84.9282L87.222 84.8932L87.1869 84.9456L87.172 84.9282Z" fill="#2B404C"/>
<path d="M92.0781 84.4561L92.4752 84.1898C92.4704 84.2351 92.4557 84.2789 92.4322 84.318C92.4086 84.357 92.3768 84.3903 92.3389 84.4157C92.301 84.4411 92.2581 84.4579 92.213 84.4649C92.1679 84.4719 92.1219 84.4688 92.0781 84.4561Z" fill="#859F9A"/>
<path d="M90.8214 71.6124C90.7963 71.5365 90.7963 71.4546 90.8214 71.3787C90.8398 71.4309 90.8532 71.4848 90.8616 71.5395C90.854 71.5646 90.8365 71.5898 90.8214 71.6124Z" fill="#2B404C"/>
<path d="M90.7913 70.6076C90.7735 70.5753 90.7641 70.539 90.7641 70.5021C90.7641 70.4652 90.7735 70.4289 90.7913 70.3966C90.8183 70.4251 90.8334 70.4629 90.8334 70.5021C90.8334 70.5414 90.8183 70.5791 90.7913 70.6076Z" fill="#2B404C"/>
<path d="M90.7836 59.5549C90.7533 59.4739 90.7533 59.3847 90.7836 59.3037V59.5549Z" fill="#2B404C"/>
<path d="M22.0977 117.597C22.1304 118.287 21.9369 118.976 21.1653 118.908C20.3333 118.837 20.3258 118.001 20.3107 117.348C20.3107 116.765 20.361 116.057 21.1627 116.122C21.9645 116.187 22.1304 116.883 22.0977 117.597Z" fill="#7C6653"/>
<path d="M24.0908 122.666C24.1084 122.101 24.1788 121.422 24.8901 121.525C25.6441 121.636 25.8627 122.344 25.815 123.065C25.7823 123.568 25.7245 124.14 25.0358 124.11C24.1008 124.07 24.0958 123.359 24.0908 122.666Z" fill="#7C6653"/>
<path d="M29.1201 116.775C29.0572 117.308 29.193 118.031 28.4113 118.019C27.7252 118.019 27.4059 117.421 27.4235 116.783C27.4411 116.145 27.5166 115.376 28.3485 115.414C29.1126 115.449 29.0371 116.22 29.1201 116.775Z" fill="#7C6653"/>
<path d="M26.8984 111.804C26.8984 112.502 26.7527 113.047 26.0238 113.01C25.3979 112.977 25.1843 112.452 25.2345 111.932C25.2848 111.412 25.3175 110.631 26.0916 110.613C26.9336 110.593 26.813 111.357 26.8984 111.804Z" fill="#7C6653"/>
<path d="M20.0695 110.983C19.705 110.551 19.7754 110.123 19.8181 109.727C19.8709 109.224 19.9639 108.584 20.6048 108.702C21.208 108.81 21.1527 109.455 21.0421 109.958C20.9315 110.46 20.7305 110.887 20.0695 110.983Z" fill="#7C6653"/>
<path d="M56.7826 119.842V117.896L58.7279 117.705C58.9505 118.832 59.0675 119.977 59.0773 121.126C59.3143 123.2 59.3656 125.29 59.2306 127.373C58.0267 127.541 57.1118 127.31 56.6795 125.959C56.4282 125.205 55.8954 124.555 55.4882 123.859C55.4882 123.286 55.1338 122.892 54.6939 122.472V127.358C54.0178 127.358 53.3493 128.112 52.6707 127.371C53.0477 124.188 52.5928 121.023 52.4671 117.85C53.95 117.529 54.9151 118.056 55.4229 119.521C55.6516 120.181 56.0763 120.777 56.4131 121.392C56.6644 121.784 56.6846 122.329 57.2652 122.711C57.0314 121.684 57.2702 120.719 56.7826 119.842Z" fill="#CECCB5"/>
<path d="M65.8432 127.446L65.5768 127.376C65.524 127.255 65.5567 127.062 65.3255 127.097C65.3443 127.111 65.3645 127.122 65.3858 127.132C65.417 126.611 65.3113 126.092 65.0791 125.625H62.8322C62.6965 126.24 62.5808 126.8 62.4527 127.361C61.9977 127.911 61.3795 127.637 60.8416 127.624C60.452 127.624 60.2007 127.373 60.3389 126.856C60.5249 126.205 60.6154 125.527 60.7461 124.859C61.0518 124.4 61.2415 123.874 61.299 123.326C61.5654 121.49 61.945 119.674 62.2793 117.848H62.2968C62.3713 117.838 62.4447 117.82 62.5155 117.795C63.4505 117.863 64.3528 118.297 65.3154 118.019L65.5291 118.169L65.4838 118.096C65.5441 118.373 65.4285 118.709 65.7653 118.885L65.7125 118.82L65.6497 118.873C65.7527 119.219 65.6798 119.626 66.0141 119.877L65.9388 119.83L65.891 119.905L66.6073 122.847C66.88 124.38 67.281 125.887 67.8062 127.353L66.0292 127.441C65.9687 127.42 65.9026 127.422 65.8432 127.446ZM64.7348 123.623C64.4835 122.548 64.3528 121.52 63.9054 120.516C63.7018 121.573 63.5083 122.568 63.3047 123.623H64.7348Z" fill="#CECCB5"/>
<path d="M72.4636 99.7817C73.665 98.7418 75.1152 98.4981 76.3819 99.1185C77.0228 99.4325 77.5683 99.9525 77.5482 100.626C77.528 101.299 76.8344 101.528 76.2437 101.683C75.8089 101.45 75.741 100.724 75.2233 100.829C74.6125 100.95 73.6876 100.812 73.9088 102.022C74.0621 102.874 73.9942 103.768 74.0042 104.642C74.0042 105.358 74.1953 105.871 75.0674 105.831C75.9396 105.79 76.2386 105.346 76.0728 104.462L74.987 104.263C74.9468 103.813 74.9116 103.409 74.8563 102.796H77.8724C77.895 103.937 78.1689 105.087 77.7165 106.205L77.7492 106.285C77.7761 106.275 77.8021 106.264 77.8271 106.25C77.626 106.368 77.4401 106.501 77.5456 106.775V106.665H77.4351L76.8394 107.267L76.8871 107.25L76.3392 107.534L76.3669 107.511C75.542 107.658 74.6981 107.665 73.871 107.531C73.6423 107.378 73.4613 107.107 73.117 107.22L73.1648 107.267C73.2528 106.981 72.9989 106.913 72.8506 106.778C71.5663 104.519 71.9182 102.156 72.4636 99.7817Z" fill="#CECCB5"/>
<path d="M78.5735 100.03V98.9049C79.1793 98.6537 79.7901 98.7693 80.3858 98.7668C80.4461 99.9148 80.3028 101.08 80.5743 102.233C81.3283 102.233 82.0245 102.384 82.7106 102.14C82.6553 100.97 82.6 99.8595 82.5472 98.7467C83.0826 99.2089 83.7537 98.8547 84.5152 99.1034V102.522L84.7037 106.78C84.475 107.895 83.7411 107.807 82.9242 107.534C82.8086 106.391 83.1153 105.218 82.6905 103.999C81.9918 104.082 81.3057 103.856 80.6999 104.09V107.031C80.2224 108.059 79.5991 108.036 78.8727 107.282C78.9449 104.861 78.8449 102.438 78.5735 100.03Z" fill="#CECCB5"/>
<path d="M64.0261 106.17C63.5234 106.642 63.2445 107.35 62.5357 107.614C61.7138 107.903 60.8693 107.777 60.0223 107.772H60.0826C59.9645 107.544 59.7232 107.584 59.5297 107.521L59.5573 107.539L59.0245 107.174L58.2705 106.275L58.0392 105.74L58.0719 105.793C57.9864 105.529 58.0945 105.187 57.7628 105.022C57.7534 104.937 57.7383 104.853 57.7175 104.77C57.7954 103.263 57.627 101.756 58.0618 100.274L58.1222 100.339C58.273 100.156 58.4187 99.97 58.567 99.7841L58.5243 99.8268C60.0173 99.3244 61.5077 98.7015 63.0132 99.7942L62.9956 99.7791L63.5259 100.302L63.4957 100.259C63.5837 100.447 63.6717 100.636 63.7471 100.824L63.6968 100.776C63.737 100.937 63.7773 101.095 63.815 101.256L63.83 101.781C64.2247 103.233 63.9859 104.708 64.0261 106.17ZM61.8445 105.574C62.1386 105.002 62.3044 104.414 62.0656 103.776C62.0455 103.602 62.0254 103.429 62.0028 103.256C62.0481 102.562 62.1561 101.869 61.9576 101.151C61.2915 100.859 60.6229 100.523 59.9795 101.231L59.9971 101.213C59.3235 102.527 59.5296 103.901 59.9293 105.192C60.3289 106.484 61.103 106.627 61.9224 105.672V105.587L61.8445 105.574Z" fill="#CECCB5"/>
<path d="M66.0721 107.282L65.8207 107.049L65.5694 106.773H65.6046C65.2402 106.077 65.3533 105.318 65.2904 104.577C65.1422 102.819 65.489 101.028 65.0768 99.2767L65.3482 99.1964C65.494 99.2265 65.5393 99.1411 65.5518 99.0205H67.085C66.4617 101.148 67.2056 103.243 67.2358 105.356C67.2358 105.429 67.4192 105.499 67.5148 105.569L67.555 105.594C67.9974 105.946 68.4397 106.059 68.8796 105.594L68.9047 105.69L69.0027 105.67C69.1711 105.559 69.3621 105.479 69.3144 105.205C68.955 103.241 69.2239 101.224 68.8117 99.2642C68.8268 99.1813 68.8444 99.0984 68.8594 99.013L69.063 98.9426L70.3624 98.9603C70.4331 98.9903 70.5075 99.0105 70.5837 99.0205C70.9323 101.506 71.0643 104.018 70.9782 106.526C70.938 106.649 70.8953 106.778 70.8551 106.898C70.6816 106.971 70.5334 107.061 70.566 107.285L70.5987 107.25C70.3474 107.197 70.2016 107.368 70.0558 107.531L70.1111 107.503C69.9226 107.571 69.6562 107.468 69.5632 107.755H69.5933C68.3919 107.719 67.1604 108.036 66.0721 107.282Z" fill="#CECCB5"/>
<path d="M78.1817 126.876C78.0518 127.041 77.8888 127.177 77.7031 127.276C77.5174 127.375 77.3132 127.433 77.1034 127.448C75.6683 126.743 74.0873 127.469 72.5793 127.029C72.7527 125.032 72.6446 123.078 72.5391 121.121C72.5793 119.983 72.0665 118.873 72.4184 117.604C73.0392 117.664 73.6349 117.192 74.3487 117.353C74.3487 119.925 74.8262 122.475 74.6151 125.06C75.0022 125.087 75.3415 125.248 75.5778 124.881L78.3702 124.894C78.3149 125.557 78.252 126.218 78.1817 126.876Z" fill="#CECCB5"/>
<path d="M50.7428 101.09C50.8283 100.415 50.4915 99.7364 50.7554 99.0632L56.7348 99.0758C56.7321 99.1118 56.7373 99.1478 56.7499 99.1817C56.7624 99.2155 56.7822 99.2462 56.8077 99.2717C56.8655 99.8344 56.9258 100.395 56.9911 101.043H54.7995C54.7065 103.351 54.8975 105.564 55.0006 107.787H53.0225L53.0024 107.757V101.07L50.7428 101.09Z" fill="#CECCB5"/>
<path d="M69.5982 113.1C68.7135 112.299 68.5476 111.312 68.9899 110.264C69.4926 109.056 70.6237 109.227 71.6366 109.259C72.6494 109.292 73.2401 109.787 73.3482 110.812C72.7198 110.874 72.0914 111.357 71.4807 110.618C71.2771 110.367 70.7417 110.596 70.596 111.02C70.4628 111.407 70.689 111.678 71.0408 111.774C71.7949 112.002 72.5489 112.193 73.3029 112.399V112.316C73.235 112.583 73.4437 112.698 73.5945 112.844L73.5769 112.819C73.9137 113.655 73.7327 114.489 73.5542 115.331L73.592 115.293C73.4613 115.476 73.3406 115.66 73.2049 115.846H73.1219L73.0968 115.926L70.0808 116.3L70.1788 116.323L70.2014 116.227C70.038 115.851 69.8294 115.517 69.3946 115.406C69.6007 114.291 69.9425 114.118 70.9655 114.607C71.4305 114.957 71.8577 115.062 72.0965 114.374C72.3127 113.741 71.9859 113.462 71.3978 113.369L69.5982 113.1Z" fill="#CECCB5"/>
<path d="M63.556 116.074L64.8479 109.696C65.5819 109.445 66.2378 109.621 66.9466 109.558C67.2205 110.543 67.4845 111.482 67.7484 112.422C67.9796 113.427 68.1706 114.464 68.4571 115.464C68.5702 115.858 68.5753 116.132 68.2058 116.268C67.8363 116.403 67.4794 116.431 67.2004 116.052C66.9818 115.758 67.0346 115.311 66.7129 115.135H65.2174C64.9661 115.981 64.6494 116.77 63.556 116.074ZM65.9966 111.53C65.6616 112.243 65.5352 113.037 65.6321 113.819C65.9639 113.773 66.2605 113.939 66.4942 113.69C66.3459 113.06 66.2002 112.412 65.9966 111.533V111.53Z" fill="#CECCB5"/>
<path d="M68.8467 127.378C68.8341 127.295 68.8191 127.212 68.799 127.127C69.0654 124.027 68.6707 120.942 68.5803 117.85H70.8122V127.378H68.8467Z" fill="#CECCB5"/>
<path d="M79.9534 109.634C80.0615 109.809 80.1646 109.91 80.1797 110.02C80.3079 110.957 78.0031 114.517 77.0932 114.753C76.4272 114.926 76.0175 114.698 76.1381 113.927C76.2764 113.073 79.0084 109.958 79.9534 109.634Z" fill="#637C80"/>
<path d="M84.3594 110.799C84.2589 110.99 84.1081 111.332 83.9071 111.646C83.3516 112.53 82.8112 113.427 82.2005 114.276C81.836 114.778 81.2881 115.105 80.6924 114.637C80.1546 114.218 80.441 113.726 80.7703 113.319C81.5721 112.314 82.1803 111.141 83.1656 110.279C83.4169 110.071 83.7085 109.852 84.078 109.998C84.3595 110.098 84.3896 110.352 84.3594 110.799Z" fill="#637C80"/>
<path d="M55.277 111.07C54.6511 112.578 53.7289 113.945 52.565 115.09C52.4777 115.184 52.3577 115.241 52.2297 115.249C52.1016 115.257 51.9752 115.216 51.8764 115.135C51.7664 115.069 51.6819 114.969 51.6362 114.849C51.5906 114.73 51.5866 114.599 51.625 114.477C52.2559 112.942 52.8817 111.4 54.2088 110.294C54.3121 110.188 54.4482 110.119 54.5952 110.098C54.7423 110.078 54.8921 110.107 55.0206 110.181C55.2694 110.324 55.2946 110.581 55.277 111.07Z" fill="#637C80"/>
<path d="M58.934 110.759C58.8385 112.183 58.18 113.334 57.3983 114.401C57.0992 114.808 56.6116 115.283 56.0285 114.879C55.5409 114.542 55.6666 113.964 55.8853 113.512C56.296 112.604 56.8445 111.766 57.5115 111.025C57.8734 110.636 58.273 110.39 58.934 110.759Z" fill="#637C80"/>
<path d="M55.0005 107.785C54.8975 105.567 54.7065 103.349 54.7995 101.04H56.9911C56.9258 100.392 56.8655 99.832 56.8077 99.2693C57.5617 99.6034 57.0841 100.402 57.4134 100.917C57.8331 100.902 57.7904 100.415 58.0795 100.274C57.6446 101.749 57.813 103.268 57.7351 104.77C57.3505 104.115 57.524 103.391 57.5165 102.698C57.5165 101.809 57.0137 101.422 56.2195 101.317C55.4253 101.211 54.8975 101.42 55.096 102.399C55.375 103.791 55.3298 105.2 55.2745 106.609C55.2594 107.016 55.3424 107.453 55.0005 107.785Z" fill="#1D2831"/>
<path d="M63.556 116.074C64.6494 116.768 64.9636 115.979 65.225 115.135H66.6928C67.0145 115.311 66.9617 115.758 67.1804 116.052C67.4669 116.431 67.8414 116.391 68.1857 116.268C68.5301 116.145 68.5627 115.858 68.4371 115.464C68.1505 114.459 67.9595 113.437 67.7283 112.422C68.613 112.924 68.2611 113.929 68.608 114.64C68.7638 114.962 68.51 115.788 69.3846 115.394C69.8194 115.504 70.028 115.838 70.1914 116.215C69.7239 116.31 69.2565 116.135 68.7663 116.451C68.0249 116.926 67.2583 117.006 66.6274 116.099C66.175 115.441 65.6974 115.431 65.1922 116.19C64.5991 117.124 64.0637 117.044 63.556 116.074Z" fill="#1D2831"/>
<path d="M68.8469 127.378H70.8124V117.858C71.5312 119.352 70.9883 120.96 71.2346 122.51C71.4407 123.809 71.3377 125.163 71.3402 126.492C71.3402 126.921 71.5337 127.597 70.9758 127.675C70.2846 127.77 69.4225 128.353 68.8469 127.378Z" fill="#1D2831"/>
<path d="M78.5736 100.03C78.8453 102.44 78.9453 104.866 78.8727 107.29C78.4027 107.016 78.9481 105.672 77.7216 106.202C78.174 105.085 77.9 103.942 77.8774 102.794C78.7898 102.045 78.0558 100.879 78.5736 100.03Z" fill="#1D2831"/>
<path d="M83.5652 121.756C83.0802 121.653 82.5976 121.535 82.1075 121.45C81.733 121.382 81.3535 121.354 81.3057 120.855C81.2605 120.42 81.2906 120.018 81.7054 119.762C81.7871 119.697 81.8825 119.651 81.9844 119.627C82.0863 119.604 82.1921 119.604 82.2942 119.626C82.3962 119.649 82.4918 119.695 82.5739 119.76C82.656 119.824 82.7225 119.907 82.7685 120.001C82.6102 120.038 82.4543 120.083 82.2934 120.116C81.9918 120.179 81.733 120.3 81.7531 120.656C81.7682 120.95 81.9893 121.058 82.2558 121.066C82.6755 121.066 82.6705 120.777 82.6855 120.483C82.7032 120.322 82.7309 120.163 82.7685 120.006C82.9269 120.711 83.4521 120.882 83.9196 120.493C84.2413 120.224 84.6736 120.212 84.9853 119.862L84.5103 118.606C85.7343 119.611 85.6513 120.31 84.1835 120.845C83.6834 121.031 83.5376 121.294 83.5652 121.756Z" fill="#1D2831"/>
<path d="M75.5878 124.884C75.3516 125.251 75.0123 125.09 74.6252 125.062C74.8363 122.477 74.3588 119.928 74.3588 117.355C75.0048 117.584 74.8866 118.152 74.8615 118.611C74.7635 120.397 75.1128 122.158 75.1329 123.939C75.1354 124.329 75.1706 124.7 75.5878 124.884Z" fill="#1D2831"/>
<path d="M72.5489 121.126C72.6545 123.083 72.7626 125.037 72.5891 127.034C74.0821 127.474 75.668 126.748 77.1132 127.454C75.5424 127.609 73.9715 127.722 72.2272 127.401C72.5564 125.308 72.0362 123.206 72.5489 121.126Z" fill="#1D2831"/>
<path d="M65.0666 99.2743C65.4788 101.033 65.132 102.811 65.2803 104.575C65.3406 105.316 65.23 106.082 65.5945 106.77C64.5213 106.519 65.0139 105.567 64.9586 105.012C64.7651 103.11 64.5087 101.176 65.0666 99.2743Z" fill="#1D2831"/>
<path d="M62.2894 117.858C61.9551 119.684 61.5756 121.5 61.3092 123.336C61.2517 123.884 61.0619 124.41 60.7562 124.869C60.9418 122.671 61.2777 120.489 61.7616 118.338C61.8219 118.044 62.0481 117.943 62.2894 117.858Z" fill="#1D2831"/>
<path d="M50.7429 101.09H53.0049V107.785C52.3841 106.313 52.8642 104.74 52.5877 103.221C52.4093 102.216 52.4067 101.399 51.1274 101.404C50.9942 101.399 50.8685 101.198 50.7429 101.09Z" fill="#1D2831"/>
<path d="M72.4636 99.7817C71.9181 102.156 71.5662 104.519 72.8606 106.793C72.7787 106.784 72.6988 106.762 72.6244 106.727C71.3325 105.717 71.2219 100.867 72.4636 99.7817Z" fill="#1D2831"/>
<path d="M82.5597 98.7417C82.6125 99.8545 82.6678 100.965 82.7231 102.135C82.0369 102.387 81.3432 102.228 80.5867 102.228C80.3153 101.075 80.4585 99.9098 80.3982 98.7618C80.9009 99.4476 80.5918 100.287 80.828 101.023C81.004 101.588 81.1296 102.088 81.8585 101.927C82.5446 101.779 82.2757 101.261 82.243 100.832C82.1777 100.128 81.9138 99.3672 82.5597 98.7417Z" fill="#1D2831"/>
<path d="M73.3107 112.409C72.5566 112.203 71.8026 112.012 71.0486 111.784C70.6967 111.678 70.4705 111.407 70.6037 111.03C70.7495 110.606 71.2849 110.385 71.4885 110.628C72.1017 111.367 72.7275 110.879 73.3559 110.822L72.617 111.605C72.7854 111.927 73.2403 112.005 73.3107 112.409Z" fill="#1D2831"/>
<path d="M67.5046 105.577C67.4091 105.506 67.2256 105.436 67.2256 105.363C67.1954 103.251 66.4514 101.156 67.0748 99.0281C67.4367 99.4602 67.3261 99.9801 67.3261 100.47C67.399 102.173 67.4493 103.876 67.5046 105.577Z" fill="#1D2831"/>
<path d="M52.4671 117.855C52.5928 121.028 53.0477 124.193 52.6707 127.376C52.5776 127.1 52.5184 126.814 52.4947 126.524C52.6078 123.929 52.2861 121.35 52.1906 118.762C52.178 118.418 52.1479 118.084 52.4671 117.855Z" fill="#1D2831"/>
<path d="M68.5803 117.858C68.6708 120.95 69.0655 124.035 68.799 127.134C68.6899 126.914 68.6169 126.677 68.5829 126.434C68.6507 124.007 68.4522 121.596 68.3315 119.179C68.2988 118.724 68.2586 118.252 68.5803 117.858Z" fill="#1D2831"/>
<path d="M63.0309 99.7969C61.5228 98.7042 60.0349 99.3196 58.5419 99.8295C59.1175 98.6564 60.2033 98.5735 61.2765 98.6564C62.0079 98.7117 62.9303 98.6841 63.0309 99.7969Z" fill="#1D2831"/>
<path d="M70.963 106.529C71.0492 104.02 70.9171 101.509 70.5684 99.0231C70.7101 99.064 70.8351 99.1487 70.9254 99.2652C71.0158 99.3817 71.0668 99.5239 71.0711 99.6712C71.0585 101.681 71.4782 103.648 71.3551 105.652C71.3597 105.818 71.3269 105.983 71.2591 106.135C71.1912 106.287 71.09 106.421 70.963 106.529Z" fill="#1D2831"/>
<path d="M81.1324 124.59L79.4132 124.934C79.3277 125.909 79.9159 126.502 80.4361 127.114C78.9005 127.077 79.3001 125.695 78.8829 124.879C78.9055 124.645 78.7848 124.389 79.0412 124.125C79.6444 124.648 80.509 123.979 81.1324 124.59Z" fill="#1D2831"/>
<path d="M80.7 107.031V104.085C81.3057 103.851 81.9918 104.085 82.6905 103.994C83.1153 105.213 82.8086 106.386 82.9243 107.529C82.4342 106.903 82.7383 106.155 82.6 105.474C82.4819 104.891 82.4115 104.263 81.5947 104.336C80.7778 104.409 80.9689 105.067 80.9337 105.572C80.8985 106.077 80.984 106.579 80.7 107.031Z" fill="#1D2831"/>
<path d="M68.8067 99.2667C69.2139 101.226 68.9449 103.243 69.3094 105.208C69.3571 105.481 69.1661 105.562 68.9977 105.672C68.9349 103.537 68.3342 101.417 68.8067 99.2667Z" fill="#1D2831"/>
<path d="M59.2305 127.378C59.3655 125.295 59.3142 123.205 59.0772 121.131C59.1777 121.204 59.3637 121.269 59.3687 121.347C59.5296 123.359 59.9393 125.384 59.2305 127.378Z" fill="#1D2831"/>
<path d="M54.6938 127.363V122.477C55.1337 122.897 55.4931 123.291 55.4881 123.864C54.7341 123.947 55.0935 124.525 55.0332 124.899C54.9125 125.718 55.2971 126.607 54.6938 127.363Z" fill="#1D2831"/>
<path d="M56.7347 99.0758L50.7553 99.0631C52.7141 98.5359 54.7781 98.5403 56.7347 99.0758Z" fill="#1D2831"/>
<path d="M62.4528 127.378C62.5759 126.818 62.7041 126.258 62.8323 125.642H65.0792C65.3113 126.109 65.4171 126.629 65.3859 127.15C64.9561 126.285 64.4408 125.527 63.3199 126.082C62.8323 126.308 62.9554 127.062 62.4528 127.378Z" fill="#1D2831"/>
<path d="M70.0909 116.3L73.1069 115.926C72.2549 116.936 71.3928 117.041 70.0909 116.3Z" fill="#1D2831"/>
<path d="M69.5983 113.1L71.408 113.376C71.9961 113.462 72.3228 113.741 72.1067 114.381C71.8679 115.069 71.4406 114.964 70.9757 114.615C71.2396 114.539 71.5588 114.577 71.7146 114.203C71.2999 113.311 70.0558 113.917 69.5983 113.1Z" fill="#1D2831"/>
<path d="M84.7038 106.78L84.5153 102.522C84.6334 102.442 84.8646 102.231 84.8671 102.495C84.8721 103.924 85.1713 105.368 84.7038 106.78Z" fill="#1D2831"/>
<path d="M73.8661 107.534C74.6932 107.668 75.5371 107.661 76.3619 107.513C75.3792 108.315 74.3763 108.322 73.8661 107.534Z" fill="#1D2831"/>
<path d="M83.6582 117.926C83.0168 117.671 82.3269 117.561 81.6381 117.605C80.9493 117.648 80.2787 117.844 79.6744 118.177C80.6647 117.079 82.4317 116.974 83.6582 117.926Z" fill="#1D2831"/>
<path d="M64.0262 106.17C63.986 104.708 64.2247 103.233 63.8578 101.784C64.0337 101.731 64.2398 101.766 64.2448 101.944C64.285 103.359 64.5867 104.788 64.0262 106.17Z" fill="#1D2831"/>
<path d="M56.7825 119.842C57.2701 120.714 57.0339 121.679 57.2651 122.711C56.6845 122.329 56.6744 121.784 56.413 121.392C56.8755 120.963 56.7046 120.375 56.7825 119.842Z" fill="#1D2831"/>
<path d="M53.0175 107.807H54.9956C54.3421 109.023 53.6785 108.352 53.0175 107.807Z" fill="#1D2831"/>
<path d="M78.1816 126.876C78.2469 126.206 78.3131 125.544 78.3801 124.891L78.8828 124.879C78.4103 125.464 79.1467 126.471 78.1816 126.876Z" fill="#1D2831"/>
<path d="M84.8722 126.625C85.3925 125.504 85.4352 124.316 85.3749 123.108C85.8801 124.386 85.9504 125.592 84.8722 126.625Z" fill="#1D2831"/>
<path d="M66.072 107.282C67.1603 108.036 68.3919 107.73 69.5782 107.757C68.0928 108.38 66.8034 108.204 66.072 107.282Z" fill="#1D2831"/>
<path d="M66.6175 122.857L65.9011 119.915C66.7255 120.754 66.8412 121.764 66.6175 122.857Z" fill="#1D2831"/>
<path d="M73.5594 115.321C73.7379 114.489 73.9189 113.655 73.5821 112.809C74.4568 113.67 74.2657 114.502 73.5594 115.321Z" fill="#1D2831"/>
<path d="M79.1793 119.104C79.1793 120.109 79.1793 121.113 79.1793 122.118C78.9349 121.653 78.8073 121.136 78.8073 120.611C78.8073 120.086 78.9349 119.569 79.1793 119.104Z" fill="#1D2831"/>
<path d="M82.6931 125.158C81.8059 126.135 81.635 125.281 81.3786 124.655L82.6931 125.158Z" fill="#1D2831"/>
<path d="M60.0299 107.785C60.8694 107.785 61.7139 107.915 62.5433 107.627C61.744 108.355 60.892 108.172 60.0299 107.785Z" fill="#1D2831"/>
<path d="M76.8343 107.282L77.43 106.68C77.533 107.162 77.2389 107.282 76.8343 107.282Z" fill="#1D2831"/>
<path d="M68.8694 105.597C68.4296 106.067 67.9872 105.954 67.5449 105.597H68.8694Z" fill="#1D2831"/>
<path d="M58.5846 99.7867C58.4363 99.9726 58.2906 100.159 58.1398 100.342C58.127 100.275 58.1288 100.207 58.145 100.141C58.1613 100.076 58.1916 100.014 58.2339 99.9616C58.2762 99.9089 58.3295 99.8659 58.3901 99.8357C58.4506 99.8055 58.517 99.7888 58.5846 99.7867Z" fill="#1D2831"/>
<path d="M66.0242 119.888C65.6899 119.636 65.7729 119.219 65.6598 118.883C65.8192 118.99 65.9404 119.145 66.0059 119.326C66.0714 119.506 66.0778 119.703 66.0242 119.888Z" fill="#1D2831"/>
<path d="M85.0733 122.691L84.5983 122.188C84.9878 122.126 85.2693 122.181 85.0733 122.691Z" fill="#1D2831"/>
<path d="M57.7804 105.022C58.1122 105.187 58.0041 105.524 58.0896 105.793C57.9739 105.703 57.8842 105.585 57.8299 105.449C57.7755 105.314 57.7585 105.166 57.7804 105.022Z" fill="#1D2831"/>
<path d="M73.1221 107.227C73.4614 107.114 73.6423 107.385 73.8761 107.539C73.7347 107.55 73.5925 107.528 73.4614 107.474C73.3303 107.42 73.2139 107.335 73.1221 107.227Z" fill="#1D2831"/>
<path d="M58.0569 105.733L58.2881 106.268C57.8684 106.237 58.1147 105.918 58.0569 105.733Z" fill="#1D2831"/>
<path d="M65.7754 118.885C65.4386 118.709 65.5542 118.383 65.4939 118.096C65.6116 118.187 65.7007 118.31 65.7506 118.45C65.8006 118.589 65.8091 118.741 65.7754 118.885Z" fill="#1D2831"/>
<path d="M63.5435 100.304L63.0132 99.7818C63.3726 99.7717 63.4706 100.025 63.5435 100.304Z" fill="#1D2831"/>
<path d="M79.187 122.068C79.4685 122.143 79.5213 122.415 79.6595 122.613C79.5274 122.596 79.4061 122.531 79.3189 122.431C79.2317 122.33 79.1847 122.201 79.187 122.068Z" fill="#1D2831"/>
<path d="M69.0579 98.9502L68.8543 99.0205L68.9222 98.817L69.0579 98.9502Z" fill="#1D2831"/>
<path d="M63.8425 101.254C63.8048 101.093 63.7646 100.935 63.7244 100.774C63.923 100.899 64.0637 101.035 63.8425 101.254Z" fill="#1D2831"/>
<path d="M77.5506 106.78C77.4451 106.499 77.631 106.373 77.8321 106.255C77.7416 106.423 77.6462 106.599 77.5506 106.78Z" fill="#1D2831"/>
<path d="M72.8556 106.78C73.0039 106.916 73.2577 106.984 73.1698 107.27C73.0667 107.112 72.9612 106.948 72.8556 106.78Z" fill="#1D2831"/>
<path d="M70.0406 107.534C70.1864 107.37 70.3272 107.199 70.5835 107.252L70.0406 107.534Z" fill="#1D2831"/>
<path d="M59.5372 107.513C59.7307 107.576 59.972 107.536 60.0902 107.765L59.5372 107.513Z" fill="#1D2831"/>
<path d="M69.548 107.747C69.641 107.468 69.9074 107.571 70.0959 107.496L69.548 107.747Z" fill="#1D2831"/>
<path d="M73.5996 112.854C73.4488 112.708 73.2402 112.603 73.3081 112.326C73.4061 112.502 73.5117 112.678 73.5996 112.854Z" fill="#1D2831"/>
<path d="M73.21 115.846C73.3381 115.66 73.4613 115.476 73.597 115.293C73.4688 115.476 73.3381 115.66 73.21 115.846Z" fill="#1D2831"/>
<path d="M62.5257 117.795C62.4549 117.82 62.3815 117.838 62.307 117.848L62.39 117.642L62.5257 117.795Z" fill="#1D2831"/>
<path d="M65.5392 118.169L65.3255 118.019C65.5743 117.818 65.4688 118.127 65.5392 118.169Z" fill="#1D2831"/>
<path d="M79.6871 118.106C79.7499 118.358 79.5916 118.521 79.4207 118.672L79.6871 118.106Z" fill="#1D2831"/>
<path d="M79.4409 118.586C79.4032 118.795 79.4409 119.043 79.1694 119.136L79.4409 118.586Z" fill="#1D2831"/>
<path d="M84.171 121.922C83.98 121.847 83.7136 121.922 83.6256 121.641L84.171 121.922Z" fill="#1D2831"/>
<path d="M84.6686 122.148C84.5613 122.159 84.4531 122.142 84.3546 122.098C84.2562 122.054 84.1712 121.985 84.1081 121.897L84.6686 122.148Z" fill="#1D2831"/>
<path d="M85.3926 123.161C85.1186 123.068 85.1287 122.842 85.1412 122.618L85.3926 123.161Z" fill="#1D2831"/>
<path d="M65.8432 127.446C65.9061 127.421 65.9763 127.421 66.0393 127.446C66.0041 127.504 65.9714 127.562 65.9362 127.617L65.8432 127.446Z" fill="#1D2831"/>
<path d="M70.5509 107.282C70.5182 107.059 70.6665 106.968 70.8399 106.896L70.5509 107.282Z" fill="#1D2831"/>
<path d="M65.5416 99.0181C65.529 99.1387 65.4838 99.224 65.338 99.1939L65.5416 99.0181Z" fill="#1D2831"/>
<path d="M70.5786 99.0281C70.5025 99.0181 70.428 98.9977 70.3574 98.9678C70.3963 98.9582 70.4371 98.9588 70.4758 98.9694C70.5145 98.9799 70.5499 99.0001 70.5786 99.0281Z" fill="#1D2831"/>
<path d="M84.1283 127.378C84.1132 127.167 84.2816 127.145 84.4223 127.097L84.1283 127.378Z" fill="#1D2831"/>
<path d="M65.3281 127.097C65.5568 127.062 65.5241 127.255 65.5794 127.376L65.3281 127.097Z" fill="#1D2831"/>
<path d="M49.2348 43.0713C48.3099 42.9306 47.6338 42.4911 47.8549 41.4361C48.0761 40.381 48.893 40.18 49.7752 40.2453C52.173 40.4388 54.5732 40.5317 56.966 40.8884C58.7907 41.1597 60.6682 41.2426 62.5231 41.4083C64.006 41.5423 65.5065 41.6655 67.0246 41.7777C67.2206 41.1346 66.6124 40.7202 66.8009 40.0847C67.7258 39.7857 68.4748 40.0469 68.985 40.9989C69.8069 42.5363 69.8044 43.5587 68.8141 44.2369C68.3919 44.5258 68.3265 44.8373 68.2562 45.2417C68.0802 46.2666 67.9722 47.3015 67.6328 48.3013C66.4767 51.7151 63.4757 53.9533 59.8991 54.33C56.9409 54.629 54.2817 53.7774 52.281 51.8507C50.3332 49.9717 49.3102 47.3593 49.2373 44.5257C49.2247 44.0661 49.2348 43.6089 49.2348 43.0713ZM62.3849 44.3273C62.043 46.8242 61.0326 47.8441 59.032 47.7235C58.371 47.6808 57.6899 47.6105 57.1922 47.0729C56.3703 46.1837 56.9408 45.0859 56.7724 43.9932C55.096 44.0208 53.4497 43.7421 51.806 43.5185C51.1399 48.2913 54.3948 51.4211 58.0191 51.7904C62.1813 52.2149 65.5166 50.4665 66.1902 44.5056C64.946 44.5282 63.7396 44.0586 62.3849 44.3248V44.3273Z" fill="#1D2831"/>
<path d="M71.2295 66.2745C66.6249 66.5257 62.5307 67.3822 59.4593 70.8588C59.0798 71.2884 58.5921 71.6124 58.0291 71.3159C57.4661 71.0195 57.7326 70.4042 57.8105 69.947C57.9789 68.9422 58.6902 68.2463 59.4316 67.6359C63.453 64.3201 68.1556 63.2199 73.2553 63.7097C76.3266 64.0036 79.217 64.923 81.7781 66.709C82.7332 67.3747 83.5124 68.171 83.4471 69.4722C83.4244 69.952 83.2937 70.4092 82.7961 70.5901C82.5635 70.6912 82.304 70.7125 82.058 70.6507C81.812 70.5889 81.5935 70.4473 81.4364 70.2484C78.6666 67.0355 74.8538 66.6085 71.2295 66.2745Z" fill="#1D2831"/>
<path d="M57.715 62.6446C57.7674 62.873 57.7383 63.1124 57.6328 63.3215C57.5272 63.5307 57.3519 63.6965 57.137 63.7901C55.9356 64.2724 55.4354 65.2973 54.9101 66.3423C54.81 66.6189 54.6362 66.863 54.4074 67.0482C52.9648 67.857 51.7332 68.8317 51.14 70.4595C51.0093 70.8136 50.5242 70.8512 50.1774 70.9969C49.3455 71.3411 48.4457 71.5321 48.0159 72.5268C47.7972 73.0292 47.194 73.1925 46.3696 73.0292C46.7591 71.6103 47.5591 70.338 48.6694 69.3717C49.3957 68.7287 50.1422 68.2112 50.4514 67.2165C50.5596 66.873 50.7608 66.5661 51.0327 66.3298C51.3046 66.0935 51.6366 65.9369 51.992 65.8776C52.9019 65.6917 53.5001 65.2019 53.6886 64.2649C53.8469 63.5264 54.2893 63.1019 55.0961 63.1119C55.9884 63.117 56.7348 62.2452 57.715 62.6446Z" fill="#6E322B"/>
<path d="M38.7364 57.7663C38.1508 57.1484 37.7989 56.6259 37.1655 56.3596C36.3361 57.0102 36.1979 57.7889 36.7232 58.6556C37.1806 59.4092 36.9142 59.8739 36.1954 60.296C34.2324 58.7662 34.4762 56.8972 35.3559 54.9479C34.4184 54.6063 33.8781 55.2921 33.0637 55.6086C33.1215 54.5083 33.5664 53.7597 34.4285 53.2699C35.2906 52.7801 36.1301 53.0589 36.8992 53.5362C38.0302 54.2345 38.4976 55.3071 38.7364 57.7663Z" fill="#1D2831"/>
<path d="M65.1497 73.2251C67.8516 70.06 74.3084 69.7084 75.8265 72.4892C72.3329 72.6926 68.8695 72.4112 65.1497 73.2251Z" fill="#1D2831"/>
<path d="M64.735 123.623H63.3048C63.5084 122.568 63.702 121.573 63.9055 120.516C64.3529 121.52 64.4635 122.548 64.735 123.623Z" fill="#1D2831"/>
<path d="M62.0028 103.263C62.0254 103.437 62.0455 103.61 62.0656 103.783C61.6987 104.346 61.8143 104.969 61.8445 105.582L61.9299 105.594V105.68C60.4395 105.64 60.1127 105.326 60.0549 103.846C60.0223 102.972 60.0223 102.088 60.0047 101.221L59.9871 101.239C61.6082 100.952 61.7565 102.153 62.0028 103.263Z" fill="#2B404C"/>
<path d="M59.9971 101.213C60.0147 102.088 60.0147 102.972 60.0474 103.839C60.1052 105.318 60.4319 105.632 61.9224 105.672C61.103 106.627 60.3364 106.511 59.9293 105.192C59.5221 103.874 59.3236 102.527 59.9971 101.213Z" fill="#1D2831"/>
<path d="M62.003 103.263C61.7516 102.161 61.6084 100.96 59.9797 101.239C60.6231 100.53 61.2917 100.867 61.9577 101.158C62.1563 101.869 62.0482 102.562 62.003 103.263Z" fill="#1D2831"/>
<path d="M61.8445 105.574C61.8043 104.961 61.6987 104.338 62.0656 103.776C62.3044 104.414 62.1386 105.002 61.8445 105.574Z" fill="#1D2831"/>
<path d="M65.9966 111.533C66.2002 112.412 66.346 113.04 66.4993 113.693C66.2656 113.944 65.9689 113.776 65.6372 113.821C65.5387 113.04 65.6634 112.246 65.9966 111.533Z" fill="#1D2831"/>
<path d="M82.7711 120.006C82.7335 120.163 82.7058 120.322 82.6881 120.483C82.6731 120.777 82.6881 121.076 82.2584 121.066C81.9894 121.066 81.7557 120.95 81.7557 120.656C81.7356 120.3 81.9944 120.179 82.296 120.116C82.4569 120.083 82.6128 120.038 82.7711 120.001V120.006Z" fill="#2B404C"/>
<path d="M62.3849 44.3249C63.7396 44.0586 64.9461 44.5283 66.1902 44.5107C65.5166 50.4641 62.1814 52.2124 58.0192 51.7954C54.3949 51.4262 51.14 48.3013 51.806 43.5236C53.4498 43.7521 55.0961 44.0259 56.7725 43.9982C56.9384 45.0909 56.3704 46.1887 57.1923 47.078C57.695 47.6155 58.371 47.6858 59.032 47.7285C61.0327 47.8491 62.0431 46.8218 62.3849 44.3249Z" fill="#CECCB5"/>
</svg>
