<svg width="130" height="129" viewBox="0 0 130 129" fill="none" xmlns="http://www.w3.org/2000/svg">
<path d="M129.068 0.341064H0.382324V128.954H129.068V0.341064Z" fill="#F4E1AD"/>
<path opacity="0.3" d="M68.2438 122.925C84.3459 122.925 97.3992 120.507 97.3992 117.525C97.3992 114.542 84.3459 112.124 68.2438 112.124C52.1418 112.124 39.0885 114.542 39.0885 117.525C39.0885 120.507 52.1418 122.925 68.2438 122.925Z" fill="#1D2831"/>
<path d="M72.5165 6.67875C72.4763 8.6632 69.2617 12.7075 72.0139 13.6972C77.0205 14.1267 72.4185 18.789 71.5112 21.2005C71.1694 21.8586 70.7571 22.3937 69.9679 22.0746C68.2086 20.6277 72.6121 16.7493 69.322 15.9379C67.06 15.4355 66.8615 14.2096 67.8015 12.3081C68.5907 11.2405 71.0236 3.58399 72.5165 6.67875Z" fill="#F95F39"/>
<path d="M36.628 20.6628C37.7691 21.4943 46.9177 26.4831 45.3796 27.5683C44.2008 29.3618 37.9676 23.323 36.163 22.6147C35.1677 22.1273 35.4065 20.688 36.628 20.6628Z" fill="#F95F39"/>
<path d="M94.5615 14.9758C93.4129 17.3923 91.1106 19.2813 89.5549 21.5069C89.0522 22.1349 88.4842 22.4891 87.7477 21.8988C86.0613 20.6654 91.8018 15.6188 92.7544 14.3352C93.3777 13.4434 94.5389 13.9459 94.5615 14.9758Z" fill="#F95F39"/>
<path d="M54.1688 21.2733C53.2011 24.7298 50.5042 19.0301 49.4109 18.1157C48.9082 17.023 46.5482 15.541 47.8476 14.3905C49.0088 12.7351 53.3645 20.1856 54.1688 21.2733Z" fill="#F95F39"/>
<path d="M94.9536 30.334C93.9784 30.3742 93.2973 29.3971 94.0513 28.7138C95.6121 27.7442 99.7542 23.0091 101.34 24.5063C102.64 26.2144 96.1952 29.2288 94.9536 30.334Z" fill="#F95F39"/>
<path d="M58.5648 13.2902C58.4668 12.0342 60.1055 11.665 60.3041 12.9561C60.4448 14.82 63.5161 19.5852 61.4577 20.5724C59.7285 20.8387 59.3264 14.712 58.5648 13.2902Z" fill="#F95F39"/>
<path d="M80.4263 21.6426C78.0486 20.889 81.698 16.7994 82.0699 15.2772C82.5726 14.182 84.4099 15.3299 83.9751 16.2619C83.0074 18.0856 82.2259 20.5524 80.4263 21.6426Z" fill="#F95F39"/>
<path d="M37.93 36.9556C36.1103 36.3652 34.1598 35.589 32.3452 34.9183C31.0885 34.6671 31.6942 32.8711 32.873 33.3961C34.0066 33.9186 42.336 35.6569 37.93 36.9556Z" fill="#F95F39"/>
<path d="M99.7015 37.6991C99.0455 37.7594 98.6332 37.6765 98.4799 37.1967C98.5603 35.255 102.285 35.4509 103.723 34.7375C103.834 34.7035 103.951 34.6929 104.067 34.7063C104.183 34.7197 104.295 34.7567 104.395 34.8152C104.496 34.8737 104.584 34.9523 104.653 35.0461C104.722 35.1399 104.77 35.2469 104.796 35.3605C104.939 36.9681 100.76 37.1867 99.7015 37.6991Z" fill="#F95F39"/>
<path d="M59.1653 89.2649C59.2055 90.9379 59.2709 93.5805 58.1952 94.6656C57.871 94.0175 57.406 94.1909 56.926 94.4421C53.6837 94.5702 50.1699 91.6186 51.223 88.2676C51.4241 87.7652 51.7584 88.0164 52.0499 88.0818C54.3849 88.6846 56.7877 88.8806 59.1653 89.2649Z" fill="#4FA497"/>
<path d="M59.1731 101.968C59.9799 102.583 61.3095 101.92 60.9023 103.53C62.5611 109.019 58.683 106.5 55.6443 105.347C50.5874 102.782 56.1043 100.4 59.1731 101.968Z" fill="#4FA497"/>
<path d="M60.6761 97.4766C60.7439 98.5567 60.9073 99.76 59.3842 99.5314C57.8761 99.8404 52.6307 99.4334 53.156 97.1199C53.7391 94.9822 58.7558 97.3711 60.6785 97.0998C60.6509 97.2254 60.5026 97.351 60.6761 97.4766Z" fill="#4FA497"/>
<path d="M81.5447 88.6495C81.9971 91.915 78.1014 91.8045 75.7413 91.6789C75.5933 91.6903 75.4463 91.647 75.3281 91.5571C75.21 91.4673 75.1289 91.3372 75.1004 91.1916C75.784 88.6268 79.3556 88.9861 81.5447 88.6495Z" fill="#8FC6B5"/>
<path d="M74.0247 113.317C71.5515 115.445 67.5049 116.193 64.9765 114.101C65.0318 113.686 65.5294 113.865 65.8159 113.882C68.5671 114.027 71.3258 113.84 74.0322 113.325L74.0247 113.317Z" fill="#2D8F88"/>
<path d="M57.4738 86.8785C56.3931 86.8082 55.2596 86.3761 54.3673 85.9717C54.6639 82.9573 53.7289 80.1615 52.5375 77.4863C47.2594 66.6371 37.3391 49.2341 48.4885 39.2766C46.1837 47.0888 46.6461 55.6622 49.348 63.3564C52.1882 71.1787 57.6347 78.2398 57.4738 86.8785Z" fill="#8FC6B5"/>
<path d="M87.5969 38.5557C87.7703 39.877 86.7951 40.299 86.1165 39.1234C84.0706 37.1566 82.2383 34.9637 79.7601 33.4615C79.2273 33.1375 78.3225 32.6526 78.7096 31.8362C79.0967 31.0198 79.9085 31.6654 80.5167 31.7458C84.1913 31.894 87.7703 35.8478 87.5969 38.5557Z" fill="#EFE9D3"/>
<path d="M62.7144 31.678C61.4577 27.7342 65.273 32.6677 63.3126 33.8307C61.3898 36.2699 57.5544 32.3537 59.7134 31.2308C60.5629 31.271 59.8592 32.4617 60.4674 32.8636C61.8423 34.2326 62.6164 33.1575 62.7144 31.678Z" fill="#EC817A"/>
<path d="M71.6118 76.9387C70.8578 76.9211 68.2514 77.0844 69.3296 75.7756C71.1971 74.0223 77.6791 76.9361 71.6118 76.9387Z" fill="#8FC6B5"/>
<path d="M73.1525 36.7295C72.9338 35.574 74.2333 34.9208 74.6304 36.0889C74.9999 36.6415 75.7313 37.0936 75.3442 37.9276C75.02 38.6812 72.9741 39.2615 72.5569 38.5356C72.107 37.7041 73.7733 37.5534 73.1525 36.7295Z" fill="#EC817A"/>
<path d="M71.7072 32.2858C71.7726 32.7405 71.0487 32.8234 71.0362 32.3687C71.0205 32.3205 71.0158 32.2694 71.0222 32.219C71.0286 32.1687 71.0461 32.1205 71.0734 32.0777C71.1006 32.0349 71.137 31.9987 71.1799 31.9716C71.2228 31.9445 71.2711 31.9272 71.3215 31.921C71.3719 31.9148 71.423 31.9198 71.4712 31.9356C71.5195 31.9514 71.5636 31.9777 71.6005 32.0126C71.6373 32.0474 71.6659 32.09 71.6844 32.1372C71.7029 32.1845 71.7107 32.2352 71.7072 32.2858Z" fill="#EC817A"/>
<path d="M56.8958 38.523C56.9436 38.9802 56.285 38.9023 56.3227 38.4979C56.3345 38.4285 56.3714 38.3658 56.4262 38.3216C56.481 38.2773 56.55 38.2546 56.6203 38.2577C56.6907 38.2608 56.7576 38.2895 56.8083 38.3383C56.8591 38.3872 56.8902 38.4529 56.8958 38.523Z" fill="#C1AE9B"/>
<path d="M71.4032 54.8307C71.1695 54.2455 71.074 53.2256 71.4636 52.8087L71.4032 54.8307Z" fill="#C6DFC4"/>
<path d="M82.6179 64.0472C82.0876 64.0322 81.5422 64.2306 81.037 63.9191L82.809 63.7885C82.809 63.899 82.7009 63.9718 82.6808 64.0798L82.6179 64.0472Z" fill="#C6DFC4"/>
<path d="M66.7861 26.8122C66.9201 26.7376 67.0682 26.6918 67.2209 26.6775C67.3736 26.6633 67.5277 26.6809 67.6733 26.7293C67.3976 26.8644 67.082 26.8938 66.7861 26.8122Z" fill="#2D8F88"/>
<path d="M71.7877 26.782C71.8904 26.7313 72.0051 26.71 72.1192 26.7207C72.2332 26.7313 72.3421 26.7734 72.4336 26.8423L71.7877 26.782Z" fill="#2D8F88"/>
<path d="M63.7775 27.1112V26.9982H64.4184C64.3275 27.065 64.2224 27.1099 64.1112 27.1295C64.0001 27.1491 63.8859 27.1429 63.7775 27.1112Z" fill="#2D8F88"/>
<path d="M82.0473 96.4642C81.8412 96.5044 81.5447 96.419 81.4643 96.6652C81.4149 96.6434 81.3723 96.6087 81.3411 96.5647C75.4098 97.2929 69.4266 97.5072 63.4583 97.2053V97.2957L60.6811 97.0997C60.568 99.0767 61.3471 99.3078 58.9393 99.6996C64.7904 100.237 70.7522 100.388 76.533 99.2902C76.8572 99.2399 77.3348 98.9762 77.4956 99.4861C75.128 102.983 63.3276 101.679 59.1805 101.968C59.9873 102.583 61.3169 101.92 60.9097 103.53C60.7564 104.801 62.3851 106.824 60.2261 106.949C67.1882 108.597 75.0551 108.748 81.6603 105.731C82.5374 105.299 84.0731 104.297 83.4774 103.156C82.3992 103.123 81.2532 104.053 80.0869 104.103L80.0719 104.05C77.9078 104.842 73.5019 106.118 71.6194 104.701C75.2839 103.194 80.2 103.284 83.4573 100.318C85.2469 99.1445 84.2466 96.1577 82.0473 96.4642Z" fill="#7099A6"/>
<path d="M86.0513 89.3779C85.9105 87.185 82.9397 88.5088 81.5447 88.6495C81.9946 91.915 78.1014 91.8045 75.7414 91.6789C73.8262 91.0534 76.3395 89.9406 76.7945 89.2347C75.7011 89.1468 74.6229 89.4859 73.5271 89.4859L73.5421 89.398C68.7585 89.7728 63.9511 89.7266 59.1756 89.2599C59.3616 91.1237 59.0299 92.9198 58.4342 94.6782C60.2237 94.8515 62.071 95.364 63.858 95.0098C63.6066 95.4092 64.519 95.2434 64.7427 95.2861L64.7302 95.2006C70.0044 95.3904 75.2849 95.2999 80.5494 94.9294V94.9696C83.3896 94.2361 86.7877 93.1032 86.0513 89.3779Z" fill="#7099A6"/>
<path d="M68.2438 110.278C65.7053 110.403 62.9431 109.562 60.583 109.421C61.2641 110.732 63.5061 110.833 64.7402 111.541L64.7226 111.516C68.9124 112.174 73.7029 112.207 77.2543 109.559C74.276 109.981 71.2976 110.534 68.2438 110.278Z" fill="#7099A6"/>
<path d="M77.2544 109.559H77.2943L77.3193 109.526C77.2954 109.532 77.2732 109.543 77.2544 109.559Z" fill="#7099A6"/>
<path d="M56.9335 94.4321C57.308 94.7134 57.7605 94.638 58.1902 94.6556C57.871 94.0075 57.4061 94.1809 56.9335 94.4321Z" fill="#7099A6"/>
<path d="M77.3795 109.498C77.3945 109.498 77.3795 109.451 77.3795 109.426L77.307 109.528C77.3328 109.523 77.3573 109.513 77.3795 109.498Z" fill="#7099A6"/>
<path d="M75.5327 87.0946L74.9998 87.1473C75.1732 86.9765 75.3467 86.9112 75.5327 87.0946Z" fill="#8FC6B5"/>
<path d="M54.644 86.4113C54.6436 86.3533 54.6393 86.2955 54.6313 86.238C54.8344 86.1894 55.0461 86.1889 55.2494 86.2365C55.4527 86.284 55.6422 86.3783 55.8026 86.5118C55.3929 86.753 55.0235 86.5018 54.644 86.4113Z" fill="#BCDCBB"/>
<path d="M69.5005 100.049C69.5318 100.028 69.5685 100.017 69.6061 100.017C69.6436 100.017 69.6803 100.028 69.7116 100.049H69.5005Z" fill="#2D8F88"/>
<path d="M83.8269 65.8784C83.6912 66.2125 83.1005 65.9638 82.7813 66.0392C83.1048 65.8787 83.4702 65.8225 83.8269 65.8784Z" fill="#C6DFC4"/>
<path d="M70.6517 52.0374C70.5843 51.9884 70.5354 51.9181 70.5131 51.8378C70.4907 51.7576 70.4961 51.6721 70.5285 51.5953C70.7572 51.5853 70.6191 51.8892 70.6517 52.0374Z" fill="#C6DFC4"/>
<path d="M69.2962 48.4971C69.2962 48.4971 69.2962 48.4753 69.2768 48.4705L69.2962 48.4971Z" fill="#C6DFC4"/>
<path d="M49.4311 33.0109C49.4372 33.01 49.4429 33.0071 49.4472 33.0027C49.4516 32.9984 49.4544 32.9927 49.4554 32.9866L49.4311 33.0109Z" fill="#C6DFC4"/>
<path d="M63.2321 75.6995C63.2321 75.6995 63.2467 75.6874 63.2539 75.6801L63.2321 75.6995Z" fill="#C6DFC4"/>
<path d="M64.5014 64.4156C64.5014 64.4156 64.5185 64.3986 64.5282 64.3913L64.5014 64.4156Z" fill="#C6DFC4"/>
<path d="M43.9116 40.5502C43.9192 40.549 43.926 40.5449 43.9306 40.5388C43.9353 40.5327 43.9375 40.5251 43.9368 40.5175L43.9116 40.5502Z" fill="#C6DFC4"/>
<path d="M94.3832 47.9882C94.2877 45.4084 93.5889 42.9491 92.8173 40.5025L92.8349 40.5301L91.2213 37.3424L91.2515 37.3299L91.0604 36.9832L91.0805 37.0108C90.6407 36.3351 90.1707 35.687 89.761 35.0013L89.8087 35.0439L89.5574 34.7249L89.5801 34.7526C89.3605 34.5345 89.1595 34.2984 88.9794 34.0467L89.0196 34.0744C88.9342 33.9663 88.8462 33.8583 88.7683 33.7528L88.7909 33.7854C80.7857 25.614 67.7337 25.5311 57.474 28.4827L57.5042 28.4676C54.3851 29.9145 50.8311 31.3865 48.6244 33.9286C47.9985 34.5265 47.139 35.044 46.8148 35.9382C47.0229 35.8587 47.2184 35.7496 47.3953 35.6142C47.144 35.8151 46.7922 35.893 46.6213 36.1945C46.4076 36.2296 46.3221 36.4055 46.2014 36.5687L46.2342 36.5411C46.1588 37.0285 45.6359 37.2068 45.5882 37.7067C44.8056 38.7654 44.1957 39.9414 43.7811 41.1908C43.2254 42.2098 42.8568 43.32 42.6928 44.4689H42.7733C40.9108 50.0329 41.9312 56.4962 44.0626 61.8819C44.1181 62.3417 44.2912 62.7795 44.5653 63.153L44.5502 63.1379C44.8384 64.1922 45.2607 65.2053 45.8069 66.1523C46.0205 67.4509 46.9832 68.3126 47.2496 69.556H47.237C47.3149 69.7343 47.3928 69.9152 47.4732 70.096L47.4557 70.076C47.6229 70.4663 47.8381 70.8342 48.0965 71.1712C48.8782 73.1607 49.758 75.1577 50.517 77.112L50.5019 77.0969C51.0289 78.2254 51.4422 79.4035 51.7359 80.6137C53.0605 82.0656 52.103 86.5671 54.6591 86.4264C54.4907 78.682 49.4035 72.1885 46.6036 65.0746C43.6051 57.1795 40.8228 45.1672 48.5037 39.2942C46.199 47.104 46.6614 55.6773 49.3633 63.3715C52.1129 71.0782 57.5419 77.9937 57.4539 86.4666L57.4891 86.8936C61.2228 87.3739 64.9891 87.5537 68.7516 87.4312V87.5065L69.2845 87.4236L69.2618 87.494C89.7836 85.9466 80.5319 88.544 88.3309 72.0956L88.3108 72.1232C88.3959 71.6646 88.5748 71.2285 88.8362 70.8421L88.816 70.8672C89.0536 69.9813 89.3909 69.1251 89.8214 68.3151L89.8013 68.3452C89.937 67.677 90.319 67.0892 90.4296 66.3934C90.7687 65.7082 91.0731 65.0065 91.3419 64.2909L91.3244 64.316C91.7868 62.7862 92.3297 61.279 92.8324 59.7593L92.8098 59.7844C93.8152 55.9159 94.6144 52.0249 94.3832 47.9882ZM87.6824 47.8073C87.6406 47.8048 87.5986 47.8048 87.5568 47.8073C87.5971 47.8083 87.6374 47.8117 87.6774 47.8174L87.6824 47.8073ZM78.7047 31.8362C79.235 30.8314 81.3864 32.1577 82.339 32.1904C87.1823 32.7958 89.286 42.3287 86.1091 39.1259C84.0657 37.1565 82.2334 34.9636 79.7552 33.4615C79.2173 33.1374 78.3126 32.6525 78.6996 31.8362H78.7047ZM72.7555 37.7695C73.8488 37.3198 72.5796 35.9206 73.703 35.4936C74.2309 35.2424 74.4294 35.7775 74.6355 36.089C75.005 36.6416 75.7363 37.0937 75.3493 37.9277C74.9949 39.0003 71.4913 39.342 72.7505 37.7695H72.7555ZM71.3329 31.914C71.8129 31.8462 71.8507 32.7128 71.353 32.6676C70.9358 32.6953 70.9156 31.9366 71.3278 31.914H71.3329ZM63.5011 31.3488C65.444 35.0816 59.0273 35.8076 59.0902 31.8965C59.0902 31.1605 60.289 30.9294 60.1533 31.8136C60.0327 32.7581 61.1009 33.7604 62.0208 33.4037C62.7371 33.0344 62.5636 32.0999 62.6943 31.5021C62.634 31.0399 62.1188 30.329 62.5662 30.1909C63.0136 30.0527 63.2171 30.9143 63.4961 31.3488H63.5011ZM56.5466 38.2693C56.9336 38.1563 57.0492 38.8898 56.6219 38.8471C56.5537 38.8428 56.4891 38.8151 56.439 38.7687C56.3888 38.7222 56.3562 38.66 56.3468 38.5923C56.3373 38.5246 56.3516 38.4558 56.387 38.3974C56.4225 38.339 56.4771 38.2947 56.5416 38.2719L56.5466 38.2693ZM56.7804 65.4564C54.8953 64.4516 61.6161 65.3183 63.192 63.8161C60.4272 63.7684 57.0819 64.635 54.3951 62.3591L54.4203 62.3742L54.0885 62.1381L54.1313 62.1833C53.8494 62.0363 53.5944 61.8427 53.3772 61.6106L53.4048 61.6307C53.2138 61.4599 53.0304 61.2865 52.8494 61.1057L52.8921 61.1484C52.7061 60.9726 52.5227 60.7917 52.3443 60.6058L52.392 60.646C49.7228 57.8401 49.7906 53.4441 51.1931 50.048C51.2886 49.8797 51.3866 49.7114 51.4821 49.5456L51.7988 49.0909H51.7611L51.9949 48.7845L51.9471 48.8322L52.1985 48.5508C52.5217 48.1822 52.9124 47.8787 53.3496 47.6566L53.3319 47.6767L53.6588 47.4657L53.6437 47.4782C54.1291 47.0407 54.7287 46.7499 55.3728 46.6393L55.3578 46.6568L56.142 46.4056L56.1143 46.4307L56.906 46.1795L56.8833 46.1971L57.8611 45.8681V45.8806L59.1555 45.4084L59.1353 45.426L59.6808 45.1748C59.7286 45.1748 60.0428 44.9939 60.1835 44.9236L60.1608 44.9412C60.9601 44.4036 61.6689 43.9866 62.2947 43.2531L62.2621 43.2933L62.536 43.0095L62.5185 43.032C62.7045 43.0145 62.7321 42.9039 62.7698 42.7382L62.7572 42.7532L63.0488 42.296C63.3152 42.2458 63.2372 41.9645 63.28 41.756C63.8203 40.8341 63.7298 39.1686 63.7625 37.9604C63.9234 37.8926 64.0692 37.5736 64.2275 37.4203C64.6724 36.8451 65.6828 37.0259 65.8537 37.6388L65.8386 37.6237C66.7032 39.2415 66.4117 41.3917 65.5873 43.0471L65.6123 43.0169C65.5947 43.4314 65.258 43.5344 65.2127 43.9313C65.0607 43.9962 64.9329 44.1074 64.8476 44.249C64.7624 44.3906 64.7239 44.5554 64.7377 44.7201C67.3994 45.4184 69.1362 47.7018 70.2018 50.038C70.3175 50.5404 70.4323 51.0469 70.5462 51.5577C70.888 51.942 70.5689 52.9443 70.9433 53.4391C70.9212 53.3644 70.8785 53.2975 70.8201 53.2458C70.8629 55.1574 70.3175 56.971 69.5987 58.6942H69.6639L69.4478 59.0007L69.468 58.9755L69.1588 59.4403L68.6334 60.1612H68.6712C67.7941 61.078 66.8339 62.0854 66.2207 63.0299L66.4845 62.7787C66.4091 62.849 66.2583 62.9821 66.2332 63.0073C65.4339 63.6905 64.7528 64.4642 63.755 64.8486L63.7802 64.8284C61.7494 66.195 59.0248 66.1221 56.7753 65.4564H56.7804ZM59.4621 76.3559C59.1236 75.9234 58.9318 75.3943 58.9147 74.8455C58.8975 74.2966 59.0558 73.7566 59.3667 73.3038L59.3465 73.3214C59.5074 72.5879 59.9723 72.0655 60.3795 71.5229L60.3318 71.5656C60.4499 71.4073 60.5655 71.249 60.6836 71.0933L60.6685 71.1134L60.9199 70.8019L60.8747 70.8396C60.938 70.5727 61.0737 70.3286 61.2668 70.1338L61.234 70.184L61.5055 69.8901L61.4729 69.9227L61.7242 69.6489C62.2269 69.2847 62.5134 68.6692 63.1644 68.5336L63.1291 68.5763C63.3865 68.3818 63.6559 68.204 63.9359 68.0438L63.9008 68.0689L64.4235 67.7699L64.3884 67.7951C66.7862 66.2879 69.7369 66.3456 72.4313 65.8106C72.1101 65.8222 71.796 65.9082 71.5138 66.0618C72.6297 66.0618 73.6577 66.2854 74.7485 66.406L74.7159 66.3808C75.578 66.8506 76.5381 66.9435 77.3273 67.569L77.2946 67.5464L77.8149 67.8353H77.7923L78.1442 68.0262L78.1241 67.986C78.7609 68.3617 79.3442 68.8213 79.8583 69.3525L79.8156 69.3073C80.4313 69.8549 80.8059 70.5231 81.2231 71.2164L81.1929 71.1812C81.7484 72.706 81.9117 74.9819 80.2453 75.841V75.8259C78.9736 76.2529 78.0939 75.3435 77.0609 74.8562L77.0458 74.8788C73.9518 72.0127 68.9828 72.5804 65.4842 74.1855H65.5043L65.0017 74.4769L65.0268 74.4569L64.5518 74.7784L64.5743 74.7532C64.3582 74.8412 63.9686 75.3788 63.9561 75.3536C63.5062 75.7581 62.7321 75.8786 62.4305 76.3584C62.2193 76.4187 61.9831 76.386 61.9278 76.6272C61.2158 76.8929 60.4291 76.8767 59.7286 76.582L59.7687 76.6322L59.4621 76.3559ZM69.3347 75.7832C69.8801 74.7784 75.6006 75.3335 73.693 76.788C72.8636 76.9563 67.9925 77.4587 69.3296 75.7756L69.3347 75.7832ZM87.8308 61.5654L87.5417 61.8292L87.5744 61.7914C87.5066 61.8467 87.1973 62.1281 87.3104 62.0125L86.9938 62.2637C86.995 62.2453 86.995 62.2269 86.9938 62.2085C86.0262 62.9369 84.8675 63.2961 83.7641 63.7734L83.7842 63.7081C83.4474 63.7533 82.8065 63.7081 82.6758 64.0849C81.1818 64.073 79.6997 63.8185 78.2874 63.3313C79.4863 65.0897 82.711 64.949 84.7795 65.1173C84.8901 65.5469 84.6614 65.6825 84.2919 65.8332C84.0934 65.8885 83.7892 65.7931 83.744 66.0493C81.3033 66.2932 78.8546 65.6707 76.8271 64.2909C76.7944 64.208 76.6512 64.1326 76.5758 64.0397C76.3068 63.9091 76.337 63.5749 76.0379 63.5548C76.1233 63.6453 76.2088 63.7382 76.2892 63.8312C75.8896 63.3916 75.4724 62.9671 75.0677 62.5325L75.108 62.545L74.5399 61.7914L74.3213 61.5177H74.3514L73.6201 60.7264H73.6427L73.3033 60.2843C73.2053 59.7819 72.7303 59.493 72.5493 59.0132C72.4639 58.8424 72.3809 58.6716 72.298 58.5108L72.0643 57.9909L72.0869 58.0034C71.9864 57.7522 71.8858 57.501 71.7878 57.2498L71.8104 57.2674C70.0058 51.9923 73.0973 46.064 78.7373 44.9437C75.4875 40.083 80.9491 33.0997 80.3233 42.9743L80.3007 42.9416L80.8485 43.9464L80.7983 43.9062C81.0974 44.4086 81.8414 44.6196 82.055 45.1346C82.5577 45.22 82.7436 45.7952 83.2463 45.7826L83.749 46.0665L84.2517 46.3403V46.3253L84.7694 46.5765C84.7694 46.5765 84.7694 46.5764 84.7694 46.5589L85.2721 46.7925L86.5288 47.3351V47.3175L87.0516 47.5687L87.5543 47.8475C87.8056 48.0183 88.057 48.1891 88.3083 48.3624C88.3083 48.3624 88.3083 48.3449 88.3083 48.3348C89.0297 49.0106 89.6631 49.636 89.9571 50.4876L89.937 50.4675L90.2109 50.9875L90.1934 50.9699C91.1203 53.0813 91.2004 55.4679 90.4171 57.6367L90.4346 57.6166C90.4288 58.0928 90.2387 58.5483 89.9043 58.8876L89.9194 58.87C89.4947 59.9326 88.6703 60.749 87.8258 61.5578L87.8308 61.5654Z" fill="#C6DFC4"/>
<path d="M50.1878 76.3702C50.1898 76.3648 50.1898 76.3589 50.1878 76.3534V76.3702Z" fill="#C6DFC4"/>
<path d="M58.2104 28.2235C58.2104 28.2235 58.225 28.2235 58.2322 28.2114L58.2104 28.2235Z" fill="#C6DFC4"/>
<path d="M60.6451 44.6698C60.6451 44.6698 60.6451 44.6698 60.6308 44.6841L60.6451 44.6698Z" fill="#C6DFC4"/>
<path d="M64.2475 74.946C64.2475 74.946 64.2669 74.9459 64.2693 74.9265L64.2475 74.946Z" fill="#C6DFC4"/>
<path d="M77.2242 64.3964C77.2242 64.3964 77.2363 64.4134 77.246 64.4158L77.2242 64.3964Z" fill="#C6DFC4"/>
<path d="M77.9906 64.8812C77.9906 64.8812 77.9907 64.8812 78.0076 64.8932L77.9906 64.8812Z" fill="#C6DFC4"/>
<path d="M76.709 74.4568C76.7133 74.4644 76.7191 74.4709 76.726 74.4762L76.709 74.4568Z" fill="#C6DFC4"/>
<path d="M54.6329 46.9482C54.6207 46.9482 54.6086 46.9482 54.6062 46.9652L54.6329 46.9482Z" fill="#C6DFC4"/>
<path d="M54.128 47.1969C54.128 47.1969 54.1134 47.1969 54.1086 47.2139L54.128 47.1969Z" fill="#C6DFC4"/>
<path d="M61.4066 44.1826C61.4066 44.1826 61.3922 44.1826 61.3898 44.1994L61.4066 44.1826Z" fill="#C6DFC4"/>
<path d="M65.2731 43.5588C65.2731 43.5588 65.2876 43.5588 65.2901 43.5394L65.2731 43.5588Z" fill="#C6DFC4"/>
<path d="M89.6523 49.9945C89.6523 49.9945 89.6522 49.9752 89.6353 49.9752L89.6523 49.9945Z" fill="#C6DFC4"/>
<path d="M63.589 41.1255C63.554 41.1705 63.5135 41.211 63.4684 41.246C63.43 41.1117 63.428 40.9694 63.4624 40.834C63.4968 40.6985 63.5665 40.5746 63.6644 40.4749L63.589 41.1255Z" fill="#8FC6B5"/>
<path d="M68.1306 51.3743C68.0326 51.1231 67.9372 50.8719 67.8392 50.6383H67.9121C67.7311 50.6007 67.7234 50.2565 67.6179 50.1008L67.643 50.1259C67.4872 49.8521 67.3314 49.5808 67.178 49.307L67.1982 49.3321L66.8413 48.8925L66.8564 48.9101C66.7031 48.7142 66.5473 48.5207 66.394 48.3273L66.4341 48.365L66.135 48.0837C66.2255 48.1716 65.929 47.9179 65.8611 47.8676L65.8913 47.9003C65.6399 47.7019 65.3886 47.5034 65.1373 47.3225L65.1624 47.3526C62.4932 45.4536 59.9396 48.061 57.0944 48.3776C52.2436 49.0156 50.9541 55.5744 53.6158 58.8852L53.7515 59.272L53.7088 59.2393C54.0198 59.6188 54.3556 59.9771 54.7142 60.3119L54.6664 60.2793C57.6624 62.5828 62.1588 62.4295 65.0769 60.4426L65.102 60.5129C65.0643 60.3672 65.3257 60.3371 65.4187 60.2466L65.3785 60.2868L65.6901 60.0356L65.6575 60.0708C66.8184 58.981 67.6593 57.5949 68.0894 56.0622C68.5195 54.5295 68.5225 52.9085 68.098 51.3743H68.1306ZM59.4193 53.7356C59.6879 53.2997 60.1163 52.986 60.6132 52.8615L60.6609 52.9468C61.0007 52.7751 61.3848 52.711 61.762 52.763C62.1392 52.8151 62.4916 52.9809 62.7721 53.2382L62.7419 53.2106C62.9624 53.3412 63.1568 53.5115 63.3151 53.713L63.2823 53.6829L63.5086 54.0194L63.4909 53.9944C64.2022 54.9389 64.1369 55.8783 63.4683 56.8103C61.5682 60.0105 57.1095 56.4335 59.4193 53.7356Z" fill="#E8E6D6"/>
<path d="M64.6874 60.7515C64.6723 60.7515 64.6572 60.7515 64.6572 60.7741L64.6874 60.7515Z" fill="#E8E6D6"/>
<path d="M63.6843 61.2514C63.6769 61.2523 63.6698 61.2551 63.6637 61.2595C63.6576 61.2638 63.6527 61.2697 63.6494 61.2764L63.6843 61.2514Z" fill="#E8E6D6"/>
<path d="M64.1972 61.0177C64.1906 61.0169 64.1839 61.0185 64.1784 61.0222C64.1729 61.0258 64.1688 61.0314 64.167 61.0378L64.1972 61.0177Z" fill="#E8E6D6"/>
<path d="M84.8473 48.9879C78.1993 44.303 72.2149 49.2717 74.11 56.775L74.085 56.7449C74.2031 56.9961 74.3363 57.2297 74.4469 57.4783L74.5524 57.8125L74.5323 57.7848C74.9922 58.4806 75.4296 59.2242 76.0605 59.817L76.0454 59.8019C76.579 60.2901 77.1629 60.7204 77.7872 61.0856L78.1415 61.2413L78.1064 61.2087C79.9211 62.0552 82.085 62.0326 84.0304 61.505L84.0002 61.5277C89.5397 59.4151 91.1157 51.314 84.8473 48.9879ZM80.8033 58.031C77.6037 57.8777 77.5584 52.6905 80.8736 52.6353C84.1887 52.58 84.1008 58.1164 80.8107 58.031H80.8033Z" fill="#E8E6D6"/>
<path d="M81.4644 96.6652C81.4948 96.6035 81.5376 96.5489 81.5901 96.5044L81.3387 96.5647C81.3706 96.609 81.4141 96.6438 81.4644 96.6652Z" fill="#0E1630"/>
<path d="M63.2672 57.0765C63.2543 57.0869 63.2425 57.0985 63.2321 57.1114L63.2672 57.0765Z" fill="#0E1630"/>
<path d="M63.0511 53.4191C63.0579 53.4283 63.0661 53.4365 63.0754 53.4433L63.0511 53.4191Z" fill="#0E1630"/>
<path d="M87.2576 86.4816C87.2682 86.4993 87.2839 86.5132 87.3027 86.5216L87.2576 86.4816Z" fill="#0E1630"/>
<path d="M86.5438 28.9524C86.5496 28.9613 86.5581 28.9682 86.5681 28.9718L86.5438 28.9524Z" fill="#0E1630"/>
<path d="M86.9662 86.323H86.9787L87.0187 86.2581L86.9662 86.323Z" fill="#0E1630"/>
<path d="M42.6374 38.2716C42.6524 38.2716 42.6549 38.2492 42.6624 38.2367L42.6374 38.2716Z" fill="#0E1630"/>
<path d="M44.6825 68.8315C44.6811 68.8257 44.6786 68.8203 44.6748 68.8156C44.671 68.811 44.6661 68.8073 44.6607 68.8049L44.6825 68.8315Z" fill="#0E1630"/>
<path d="M96.2882 46.4257C95.8911 43.8735 95.5795 41.2988 94.4082 38.9501C93.1742 35.3504 90.4647 32.5044 87.8055 29.9397L87.5165 29.6885L87.5466 29.7186L87.235 29.4674L87.2702 29.5076C86.6067 29.1986 86.1416 28.5933 85.4731 28.2516L85.4932 28.2717L84.523 27.6814H84.5381L82.4797 26.7017L82.5098 26.7268C70.2595 23.0367 54.1387 23.5542 45.4826 34.0442C45.1876 34.3569 44.9091 34.6848 44.6482 35.0264L44.6909 34.9937L44.1379 35.7473L44.163 35.7147C44.0261 35.9999 43.8464 36.2624 43.6302 36.4934L43.6529 36.4708L42.8761 37.7493L42.8988 37.7218C42.8461 38.1212 42.4992 38.3648 42.3609 38.7441L42.3785 38.7215C38.8045 46.7598 39.5157 55.9637 42.6298 64.0472L42.6097 64.0196C42.8765 64.4016 43.0543 64.8385 43.1301 65.2982L43.1124 65.2756C43.4827 66.0978 43.8514 66.9201 44.2184 67.7423C44.3843 68.3025 44.7839 68.7747 44.8844 69.3299L44.8693 69.3048C45.3098 70.0127 45.6618 70.772 45.9174 71.5656L45.8998 71.5454C46.8066 73.2466 47.5699 75.0204 48.182 76.8483L48.1568 76.8206C48.6746 78.5312 52.3743 85.8989 50.2606 86.6751C47.9985 88.7625 49.2753 93.2916 51.6655 94.7963C52.8971 95.8739 48.7499 97.3509 52.3541 100.039C53.4148 100.925 49.4411 102.415 52.3541 105.623C53.327 106.776 54.5366 107.706 55.9006 108.351C57.7907 109.167 58.2933 111.167 60.1959 112.038C62.0483 118.195 70.1289 119.132 74.8314 115.304C75.2637 114.993 75.8141 114.586 75.9222 114.131C76.3696 111.815 78.8328 111.659 79.9613 110.089C81.3386 107.296 85.8626 108.331 85.0382 102.357C84.5733 100.704 87.4285 100.169 85.9757 96.7456L86.0009 96.7757C85.3399 96.0623 84.6361 95.3464 86.0009 95.1178L85.9783 95.1404L86.7448 94.6054L86.7072 94.6506L86.9736 94.3466L86.946 94.3693C88.3334 92.0206 88.8486 88.3606 86.946 86.3083C84.6161 85.6301 86.853 82.8142 86.8882 81.1889H86.8655C87.1367 80.7155 87.3078 80.1913 87.3682 79.6491C87.6547 79.0236 88.1097 78.1696 87.9941 77.5491C88.0147 77.5744 88.0374 77.5978 88.0619 77.6194C88.2275 77.3177 88.3485 76.9937 88.4213 76.6573C88.8108 76.0293 88.9542 75.3159 89.198 74.6478H89.1728C89.213 74.482 89.3915 74.3388 89.3613 74.1704C89.6328 73.9745 89.5925 73.643 89.7031 73.3767H89.688C90.2259 72.3292 90.4421 71.234 91.0428 70.2493L91.0252 70.2719C93.7925 62.6782 96.8487 54.7002 96.2882 46.4257ZM65.7002 114.694C64.6949 114.442 64.7653 113.591 65.8033 113.882C68.5478 114.028 71.2998 113.842 73.9995 113.327C71.5112 115.425 68.7188 115.786 65.7002 114.694ZM72.2477 111.652C69.7343 111.923 67.2209 112.021 64.7226 111.516L64.7402 111.541C63.5086 110.835 61.2616 110.732 60.583 109.421C60.8168 109.074 61.5884 109.79 61.9327 109.368C61.8537 109.405 61.7807 109.453 61.7165 109.511C62.5459 109.702 63.3929 109.803 64.2299 109.991C68.5931 110.574 72.974 110.328 77.2618 109.559C75.7965 110.76 74.0247 111.227 72.2477 111.652ZM77.38 109.499C77.3615 109.512 77.3411 109.522 77.3196 109.529C77.3448 109.494 77.3674 109.459 77.3925 109.426C77.39 109.451 77.3951 109.489 77.38 109.499ZM83.4498 100.318C80.1824 103.284 75.2763 103.186 71.6117 104.698C73.4943 106.118 77.8952 104.842 80.0642 104.05L80.0793 104.103C81.2481 104.053 82.3917 103.123 83.47 103.156C84.0656 104.297 82.5274 105.299 81.6528 105.731C77.1991 107.992 72.1471 108.122 67.2636 107.992C64.431 107.992 49.1672 105.892 55.1742 101.41C62.0207 102.129 69.2089 102.616 75.99 100.745C77.0607 100.596 78.5437 98.8757 76.5255 99.2902C69.1738 100.358 61.1586 100.777 53.9803 98.6722C52.3165 98.2251 53.2264 95.58 54.9003 96.2105C57.6901 96.934 60.5931 97.0721 63.4458 97.2957V97.2053C67.6445 97.4314 71.8537 97.3785 76.0454 97.047C78.0938 96.9038 80.0492 96.841 82.0348 96.4642C84.2441 96.1578 85.2494 99.142 83.4498 100.318ZM86.0512 89.3779C86.7851 93.1032 83.3895 94.2361 80.5368 94.9646V94.9244L74.5273 95.2635C74.7786 95.3137 75.03 95.3564 75.2813 95.3941C71.7978 95.0198 68.2312 95.4745 64.71 95.1957L64.7226 95.2811C64.5014 95.2384 63.579 95.4042 63.8379 95.0048C59.3364 95.0952 49.8107 95.0048 51.2132 88.2576C51.4142 87.7552 51.7484 88.0064 52.0399 88.0717C59.102 89.6098 66.3614 90.0336 73.5546 89.3277C73.5267 89.3743 73.5104 89.4268 73.5068 89.481C76.1987 89.3127 78.8402 88.8982 81.5346 88.6495C82.9396 88.5113 85.9079 87.185 86.0512 89.3779ZM92.7921 59.7668C92.2894 61.274 91.749 62.7812 91.284 64.3135C91.0163 65.0271 90.7118 65.7263 90.3717 66.4085L90.3893 66.3884C90.2787 67.0867 89.8866 67.672 89.7609 68.3402C89.3397 69.1384 89.0085 69.9809 88.7732 70.8521C88.5245 71.2336 88.3536 71.6604 88.2706 72.1081C80.6223 88.3656 89.5272 86.0295 69.2165 87.4814L69.2391 87.4111L68.7062 87.494V87.4186C64.0012 87.5643 59.1202 87.2855 54.6137 86.4138C52.0576 86.5545 53.0152 82.0556 51.6907 80.6011C51.3981 79.3916 50.9871 78.2136 50.464 77.0844C49.71 75.13 48.8253 73.1331 48.0437 71.1436L48.0638 71.1687C47.8033 70.829 47.5855 70.4586 47.4153 70.0659L47.1817 69.5308C46.9152 68.2899 45.9526 67.4258 45.7389 66.1271L45.7615 66.1548C45.2042 65.1996 44.7734 64.1762 44.4798 63.1102L44.5024 63.1404C44.2286 62.7611 44.0556 62.3186 43.9997 61.8542L44.0172 61.8718C41.8733 56.4862 40.8554 50.0128 42.7178 44.4438H42.6374C42.8022 43.2881 43.1743 42.1717 43.7358 41.1481L43.7157 41.1682C44.1331 39.9126 44.7464 38.7308 45.5329 37.6665L45.5178 37.684C45.5655 37.1816 46.0883 37.0058 46.1637 36.5185H46.1486C46.2642 36.3577 46.3472 36.202 46.5507 36.1693V36.1919C46.6387 36.0864 46.7242 35.9809 46.8021 35.8779L46.7469 35.9181C47.0736 35.0213 47.9407 34.5064 48.5691 33.9085L48.5514 33.9236C50.7531 31.3865 54.2945 29.9195 57.4061 28.4726C59.4716 27.8352 61.5881 27.3763 63.7322 27.1011V26.9881C72.4286 26.1441 82.3314 27.0408 88.7179 33.7704L88.9441 34.0467H88.9165C89.0966 34.2984 89.2975 34.5345 89.5172 34.7526L89.7559 35.0465L89.7081 35.0038C90.1178 35.6895 90.5878 36.3376 91.0277 37.0134L91.0075 36.9857L91.1986 37.3324L91.1684 37.345C91.7029 38.4 92.2374 39.4541 92.7719 40.5075C95.127 46.7422 94.5942 53.5044 92.7343 59.7819L92.7921 59.7668Z" fill="#0E1630"/>
<path d="M45.2891 38.1387C45.2799 38.1489 45.2715 38.1599 45.2639 38.1714L45.2891 38.1387Z" fill="#0E1630"/>
<path d="M46.8223 68.3854C46.8223 68.3854 46.8223 68.4072 46.8369 68.4097L46.8223 68.3854Z" fill="#0E1630"/>
<path d="M53.1357 61.3969C53.1228 61.3823 53.1086 61.3689 53.0932 61.3569L53.1357 61.3969Z" fill="#0E1630"/>
<path d="M90.5526 51.5576C90.5526 51.5697 90.5526 51.577 90.5648 51.5819L90.5526 51.5576Z" fill="#0E1630"/>
<path d="M72.8426 59.5298C72.8375 59.5207 72.8311 59.5125 72.8233 59.5056L72.8426 59.5298Z" fill="#0E1630"/>
<path d="M79.0983 65.5538C79.0983 65.5538 79.0982 65.5343 79.074 65.5343L79.0983 65.5538Z" fill="#0E1630"/>
<path d="M81.223 71.2114C80.8057 70.518 80.4312 69.8499 79.8154 69.3023L79.8582 69.3475C79.344 68.8163 78.7608 68.3566 78.1239 67.981C78.1227 67.9918 78.1227 68.0028 78.1239 68.0136L77.7872 67.8302H77.8098L77.2895 67.5414C76.7416 67.2199 76.2062 66.7878 75.5527 66.7878L74.7007 66.3734L74.7333 66.3984C71.295 65.7704 67.4947 66.0467 64.4133 67.7674L63.9106 68.0513L63.4206 68.3502H63.408L63.1266 68.5562C63.1275 68.5487 63.1275 68.5411 63.1266 68.5336C62.4756 68.6693 62.1941 69.2872 61.6864 69.6489V69.6339L61.4123 69.9202L61.4451 69.8876L61.1737 70.1815L61.2063 70.1313C61.0132 70.3261 60.8775 70.5702 60.8142 70.8371L60.8444 70.817L60.6182 71.0933C60.5001 71.249 60.3844 71.4073 60.2662 71.5656H60.2914C59.8867 72.0956 59.4393 72.6131 59.286 73.324H59.2987C58.5899 74.4267 58.7255 75.8786 59.7108 76.6297L59.6706 76.5795C60.3712 76.874 61.1578 76.8901 61.8699 76.6247C61.9327 76.3735 62.169 76.4162 62.3725 76.3559C62.6741 75.8686 63.4482 75.7505 63.8981 75.3511L63.8454 75.3838C64.1243 75.2104 64.1973 74.9015 64.4989 74.7633C64.4989 74.7633 64.4989 74.7633 64.4989 74.7759L64.9512 74.4669L65.4539 74.1856C68.5806 72.8291 72.6522 72.0378 75.8166 74.0574C77.3246 74.6879 78.4256 76.3408 80.2126 75.8158L80.1924 75.8385C81.8714 74.9844 81.7004 72.701 81.1525 71.1712L81.223 71.2114Z" fill="#0E1630"/>
<path d="M63.0261 65.2781C63.2548 65.2781 63.5036 64.9942 63.7423 64.8963C64.7477 64.5119 65.4214 63.7382 66.2206 63.055H66.2055C66.8188 62.1105 67.7789 61.1057 68.6561 60.1863H68.6184L69.1437 59.4654L69.1211 59.5005L69.4528 58.9982L69.4327 59.0233L69.6488 58.7168H69.5835C69.7394 57.8878 70.4783 57.2096 70.2495 56.2928C70.2646 56.4133 70.2772 56.5439 70.2923 56.657C70.3425 56.5314 70.3929 56.4058 70.4406 56.2852H70.2495C72.0718 52.2384 69.2945 45.9861 64.7201 44.7301C64.7352 44.0117 65.5218 43.7253 65.5847 43.0195H65.5696C66.3789 41.3791 66.6654 39.2515 65.8209 37.6338C65.6475 37.0209 64.6397 36.8401 64.1948 37.4153C63.1166 38.7416 64.2174 41.1255 63.0336 42.2885L63.0612 42.2408L62.742 42.7432L62.7547 42.7281C62.727 42.8939 62.6994 43.0044 62.5033 43.022L62.5209 42.9994L62.247 43.2832L62.2796 43.2431C62.0886 43.4415 61.8146 43.66 61.7769 43.9263C61.7806 43.8938 61.7806 43.8609 61.7769 43.8284C61.2064 44.1273 60.7716 44.5819 60.1734 44.9185L59.6707 45.1697L59.1379 45.4033L57.8435 45.8756V45.863L56.8833 46.1846L56.1093 46.4358V46.4157L55.3351 46.6669C55.334 46.6619 55.334 46.6568 55.3351 46.6518C54.6909 46.7624 54.0912 47.0533 53.6058 47.4908L53.3093 47.6792C52.8721 47.9013 52.4814 48.2048 52.1582 48.5735L52.1808 48.5433L51.9044 48.8498L51.9521 48.802L51.7008 49.1412L51.7636 49.0985L51.4243 49.5858L51.4494 49.5506L51.1553 50.0681C49.7528 53.4617 49.6849 57.8552 52.3542 60.6661L52.3064 60.6259C52.4849 60.8118 52.6684 60.9926 52.8544 61.1685L52.8117 61.1258C52.9851 61.2991 53.1611 61.4674 53.3445 61.6282L53.7315 61.9924C53.8572 62.0502 53.9829 62.1331 54.0935 62.2009C54.0909 62.1926 54.0865 62.1849 54.0809 62.1783L54.3598 62.3767C57.0642 64.6551 60.4096 63.786 63.1567 63.8337C61.2302 64.8075 59.0485 65.1587 56.9135 64.8385C54.8374 66.0417 62.3827 66.1899 63.0261 65.2781ZM59.1353 45.4335C59.0796 45.5567 58.9971 45.6658 58.8935 45.7528C58.79 45.8397 58.6681 45.9023 58.5371 45.9359C58.6663 45.901 58.7861 45.8378 58.8879 45.7509C58.9896 45.664 59.0707 45.5556 59.1253 45.4335H59.1353ZM63.1266 61.4423C60.289 62.3391 57.1095 62.1206 54.6841 60.2692L54.7319 60.3019C54.3804 59.9761 54.0504 59.6279 53.7441 59.2594H53.7617L53.626 58.8726C50.9668 55.5618 52.2537 49.003 57.1046 48.3649C59.9497 48.0484 62.5057 45.4411 65.1724 47.3401C65.1724 47.3401 65.1724 47.3401 65.1724 47.3275C65.4238 47.5034 65.6627 47.6968 65.9014 47.8877L66.1854 48.1188L66.1477 48.0811L66.3991 48.3323L66.849 48.8975L67.1882 49.3145L67.6407 50.1133H67.628C67.7336 50.269 67.7412 50.6157 67.9222 50.6509H67.8493C67.9473 50.9021 68.0428 51.1407 68.1408 51.3869L68.1157 51.3667C68.4823 52.663 68.5388 54.0273 68.2808 55.3494C68.0228 56.6715 67.4574 57.9145 66.6303 58.978L66.6126 58.9982C66.3336 59.382 66.0197 59.7394 65.6751 60.0657L65.7079 60.0306L65.3962 60.2818L65.4364 60.2416C65.3434 60.332 65.082 60.3622 65.1197 60.5079L65.0946 60.4375C64.4361 60.7716 63.8882 61.2162 63.1166 61.4423H63.1266Z" fill="#0E1630"/>
<path d="M90.5828 52.045C90.6432 51.5879 90.2863 51.3944 90.1883 50.9674L89.9219 50.465H89.9344C89.6378 49.6034 88.9843 48.9578 88.2529 48.2821L88.2956 48.3399C88.087 48.1967 87.6346 47.8802 87.5416 47.8375L87.0214 47.5486L87.0389 47.5637L86.4986 47.3125L86.5238 47.3401L85.2671 46.7925L84.7267 46.5413L84.767 46.5714L84.2164 46.3052L84.2567 46.3353L83.7238 46.0439L83.7566 46.069L83.2388 45.7801C82.3139 45.4661 81.5749 44.6297 80.8108 43.9364H80.836L80.3031 42.9442C79.9739 41.437 80.6273 39.8092 80.0518 38.3949V38.3824C77.0634 36.5461 77.365 43.557 78.7298 44.9135C73.0747 45.9911 70.1541 51.9069 71.8029 57.2373L71.7751 57.2096C71.8757 57.4608 71.9787 57.712 72.0792 57.9833L72.0441 57.9457C72.1292 58.1155 72.2047 58.2899 72.2703 58.4681C72.3583 58.6465 72.4438 58.8223 72.5217 58.9982L72.5066 58.9806C72.69 59.4654 73.1676 59.7543 73.2606 60.2642L73.2405 60.2391L73.5973 60.7038L73.5522 60.6736L74.3062 61.49C74.183 61.3996 74.4595 61.7011 74.5072 61.7739V61.7538L75.0753 62.5074L75.0049 62.4647C77.2493 65.2279 80.6324 66.5366 84.2567 65.7855L84.2391 65.8006C84.6086 65.6474 84.8524 65.5167 84.7418 65.0796C82.6758 64.9113 79.4461 65.047 78.2497 63.2937C79.6928 63.8343 81.2511 63.9935 82.7738 63.7558L82.7612 63.8362C83.0879 63.796 83.4322 63.6428 83.7665 63.6705L83.7465 63.7358C84.8499 63.2585 86.0085 62.8992 86.9761 62.1708L86.9511 62.2386L87.2828 61.9724L87.2375 62.0201C87.3054 61.9673 87.5768 61.7136 87.514 61.789C88.1725 61.1057 89.0799 60.4928 89.4016 59.6136C89.3162 59.6136 89.2507 59.6337 89.2583 59.699C89.2583 59.6337 89.3162 59.6161 89.4016 59.6136C89.649 59.4129 89.8201 59.1337 89.8866 58.8223C90.2133 58.4852 90.3978 58.0356 90.402 57.5663H90.3869C91.0956 55.7753 91.0654 53.9165 90.5828 52.045ZM87.5166 58.7871C86.5946 59.9677 85.3942 60.9015 84.0229 61.5051C82.0775 62.0326 79.9135 62.0552 78.0989 61.2087V61.2288L77.7696 61.0856C77.1453 60.7204 76.5615 60.2901 76.0279 59.802C75.4021 59.2117 74.9698 58.4731 74.5199 57.7924L74.5399 57.8201C74.425 57.4557 74.2717 57.1045 74.0825 56.7725H74.0976C72.7428 52.5449 74.8817 47.5486 79.6019 46.9382C85.1112 47.8726 92.1789 52.7458 87.5166 58.7871Z" fill="#0E1630"/>
<path d="M63.491 54.0043L63.5087 54.0294L63.2824 53.6928L63.3151 53.723C63.1569 53.5215 62.9625 53.3512 62.742 53.2206L62.7722 53.2483C62.4917 52.9909 62.1393 52.8251 61.7621 52.773C61.3848 52.721 61.0008 52.7851 60.661 52.9568L60.6132 52.8715C56.3405 54.5369 60.6509 60.8219 63.4684 56.8278C64.137 55.8883 64.2023 54.9488 63.491 54.0043Z" fill="#0E1630"/>
<path d="M80.8737 52.6353C77.5585 52.6906 77.6064 57.8778 80.8034 58.031C84.101 58.1164 84.1889 52.6077 80.8737 52.6353Z" fill="#0E1630"/>
</svg>
