<svg width="130" height="129" viewBox="0 0 130 129" fill="none" xmlns="http://www.w3.org/2000/svg">
<path d="M129.068 0.172913H0.382324V128.786H129.068V0.172913Z" fill="#FEBA9D"/>
<path opacity="0.3" d="M65.3534 123.26C88.049 123.26 106.447 120.448 106.447 116.98C106.447 113.511 88.049 110.7 65.3534 110.7C42.6579 110.7 24.2595 113.511 24.2595 116.98C24.2595 120.448 42.6579 123.26 65.3534 123.26Z" fill="#1D2831"/>
<path d="M68.0554 93.9097V92.5809C68.076 92.5449 68.0829 92.5025 68.0745 92.4618C68.0662 92.4211 68.0433 92.3849 68.0101 92.3598C66.9017 91.026 65.5747 90.0262 63.8656 89.569C60.656 88.7099 57.4967 87.685 54.2469 86.9465C51.7737 86.3813 49.4086 85.3564 46.9907 84.5501C46.488 84.3818 46.2769 83.9949 46.1361 83.5453C44.6281 78.8278 43.0522 74.1354 41.7075 69.3753C41.1697 67.4737 40.2247 65.7253 39.8627 63.7635C39.717 62.9697 38.8247 62.3819 38.1034 62.5427C36.3163 62.9446 34.4464 62.7738 32.7147 63.3591C30.9829 63.9444 29.1079 64.1127 27.3033 64.4669C27.4541 64.0247 27.1977 63.663 27.0821 63.2661C26.2753 60.5029 25.8455 57.7398 26.8308 54.8938C27.6127 52.7323 28.532 50.6229 29.583 48.5786C30.6775 46.4413 31.0505 44.0073 30.6462 41.6406C30.2214 39.0834 29.9147 36.5337 30.7014 33.9539C31.9329 29.9348 34.8109 27.3876 38.3949 25.6443C42.2354 23.7779 45.352 21.1705 48.167 17.9777C51.3514 14.3731 55.4985 13.0041 60.2941 14.137C62.4836 14.6817 64.7265 14.9841 66.9822 15.0387C70.8226 15.089 74.467 13.7401 78.2622 13.4864C78.5136 13.4688 78.5362 13.2176 78.5513 13.0066C81.414 13.8079 84.0381 15.1794 86.5389 16.7067C89.0925 18.2667 91.1987 20.4244 93.3603 22.5068C96.404 25.4383 98.6508 28.9777 100.689 32.5547C103.292 37.1002 105.07 42.0702 105.94 47.2347C106.55 50.8369 106.965 54.419 106.814 58.0362C106.679 61.2717 106.442 64.5673 104.851 67.4812C103.806 69.3878 102.532 71.1939 101.426 73.0729C99.7895 75.836 97.7888 78.3857 96.2908 81.2418C95.9389 81.9175 95.9339 82.4978 96.409 83.0932C96.7734 83.5478 97.1228 84.0125 97.4922 84.4923C97.3917 84.9017 97.0498 85.1555 96.7935 85.4695C94.451 84.4396 92.5609 84.849 90.7613 86.7255C90.1455 87.3685 89.4041 87.8935 88.9216 88.6647C88.3158 88.627 87.783 88.8682 87.2426 89.0917C85.8527 89.6695 84.4175 90.1844 82.9221 90.2648C81.332 90.3251 79.8181 90.9607 78.662 92.0534C76.8089 93.7769 74.3693 94.7315 71.838 94.7236C70.5662 94.7437 69.1412 94.9446 68.0554 93.9097ZM79.4637 59.4956C79.2626 59.7644 79.3631 59.89 79.6396 60.0558C81.3947 61.1356 83.432 61.6682 85.4913 61.5854C87.5506 61.5026 89.5385 60.8083 91.2012 59.5911C92.2543 58.8099 93.1239 57.8328 93.4431 56.1397C92.6489 56.8305 92.1437 57.3705 91.5681 57.8277C89.1703 59.7368 86.3177 60.0307 83.4398 60.1689C82.6707 60.2041 81.7961 60.5231 81.0797 59.885C85.9381 60.3196 91.1183 58.0588 93.2446 53.6428C95.8887 48.1441 93.6367 38.8748 85.8729 37.2571C80.449 36.1267 74.7511 38.3072 72.4313 43.8662C70.046 49.5909 72.768 57.2851 79.4637 59.5057V59.4956ZM53.6361 59.9755C51.3061 60.2995 49.3935 59.4454 47.6317 57.6066C47.6442 59.2319 48.2624 60.3698 49.4211 60.7743C53.058 62.0554 56.8029 62.922 60.6937 62.1332C62.2771 61.8142 63.7977 61.254 64.9463 60.0056C64.6548 59.5233 64.1924 59.5635 63.8179 59.4203C65.346 58.295 66.8339 57.1997 67.9724 55.5795C69.4679 53.4368 70.5034 51.2061 70.4129 48.5811C70.2445 43.63 67.7413 40.0053 63.4358 37.8751C60.9978 36.6719 58.2355 36.2474 55.3803 37.109C53.0931 37.7998 50.914 38.7643 49.4688 40.5227C47.3249 43.1301 46.1512 46.2626 46.3448 49.7743C46.4776 52.0613 47.2025 54.2746 48.4485 56.1975C49.6449 58.0739 51.6052 59.1365 53.6361 59.9855V59.9755ZM66.7886 76.5043C71.6923 76.454 75.5855 75.8461 79.1218 73.5502C82.075 71.6361 83.5153 68.7146 82.9623 65.3184C82.7939 64.291 82.1932 63.5299 81.1375 62.9722C79.4159 62.0654 77.9003 62.7085 76.3395 63.1958C74.8868 63.6479 73.5019 64.5171 72.0315 64.6678C68.5542 64.9916 65.0482 64.802 61.6261 64.1051C59.6933 63.7334 57.7832 63.0878 55.775 64.3137C53.6889 65.5847 52.9877 67.0768 53.8372 69.3954C54.5208 71.2743 56.0389 72.3796 57.5469 73.4145C60.5554 75.5045 64.0164 76.2681 66.7886 76.5143V76.5043ZM49.1798 37.2622L49.4539 37.4832C50.6352 36.6367 51.8339 35.8128 52.9926 34.9411C54.6062 33.7253 56.3404 32.8336 58.3813 32.595C59.1228 32.507 59.8517 32.3437 60.6133 32.4241C61.1336 32.4743 61.6814 32.2985 61.8473 31.7761C62.0257 31.2058 61.5105 30.8944 61.1084 30.5954C60.7587 30.3196 60.3489 30.1302 59.912 30.0429C59.4752 29.9556 59.0239 29.9728 58.595 30.093C56.4435 30.7436 54.1589 31.0677 52.2663 32.4518C50.5949 33.6977 49.7202 35.3757 49.1798 37.2722V37.2622ZM89.8967 35.3481C89.9669 35.1899 89.9883 35.0143 89.9583 34.8439C89.9283 34.6735 89.8483 34.5158 89.7284 34.391C87.4437 31.6278 84.6036 29.8067 80.9818 29.3997C79.9789 29.2575 78.9591 29.4988 78.1265 30.0754C77.561 30.4799 77.2644 31.0576 77.566 31.7032C77.85 32.3111 78.4507 32.3865 79.0741 32.2056C79.9049 31.9339 80.7908 31.8751 81.6503 32.0348C83.6304 32.4495 85.5094 33.2501 87.1797 34.391C87.9664 34.9059 88.7507 35.6922 89.8892 35.3581L89.8967 35.3481ZM84.2919 80.3501C84.2919 79.2347 83.4726 78.6696 82.4169 79.1896C81.3189 79.7518 80.352 80.5393 79.5793 81.5006C79.3531 81.8019 79.2107 82.1577 79.1666 82.5318C79.1225 82.9059 79.1781 83.285 79.328 83.6307C79.4736 83.8721 79.6799 84.0713 79.9264 84.2084C80.1729 84.3454 80.4509 84.4156 80.7329 84.412C82.3641 84.2838 84.2919 82.0381 84.2843 80.3601L84.2919 80.3501ZM71.9763 87.3836C71.9763 86.2331 70.4029 84.2813 69.0658 83.7739C68.3344 83.4976 67.5578 83.2866 67.0073 83.9949C66.4569 84.7033 66.5348 85.585 67.0249 86.326C67.8417 87.5619 69.1035 88.2126 70.4934 88.5441C71.3229 88.7401 71.9738 88.4034 71.9713 87.3836H71.9763ZM91.0152 72.0355C90.0702 72.1987 89.198 72.4022 88.8914 73.2914C88.5847 74.1807 89.1302 74.7986 89.8214 75.301C90.4515 75.7977 91.2134 76.099 92.013 76.1676C92.9203 76.2003 94.0237 76.361 94.4837 75.203C94.8305 74.3289 94.1922 73.1934 93.0838 72.6911C92.4063 72.4312 91.7139 72.2123 91.0102 72.0355H91.0152ZM40.5866 44.1526C40.5866 42.143 38.6286 40.4147 36.6606 40.6584C35.8362 40.7613 35.4768 41.1934 35.6075 42.0199C35.8111 43.3211 37.7264 45.2151 39.0132 45.3935C40.0312 45.5316 40.5815 45.097 40.5815 44.1475L40.5866 44.1526ZM89.0698 28.1035C89.7786 28.1035 90.4647 27.993 90.6784 27.2068C90.9825 26.0915 90.4472 25.1419 89.8063 24.3205C89.2483 23.6071 88.3812 23.4765 87.514 23.6699C86.5238 23.891 85.7547 24.8631 85.9407 25.6016C86.2499 26.8877 87.7151 28.0558 89.0648 28.0985L89.0698 28.1035ZM100.428 62.2413C100.458 61.2365 99.6411 60.7341 98.6257 61.1159C97.2635 61.6359 96.6151 62.8743 95.8787 63.9695C95.6973 64.2552 95.6231 64.5959 95.6691 64.9311C95.7151 65.2663 95.8784 65.5744 96.13 65.8007C96.5774 66.2102 97.1353 66.1775 97.6556 65.9916C98.8545 65.5646 100.385 63.4747 100.415 62.2362L100.428 62.2413ZM79.0213 17.5759C78.0285 17.3699 77.2066 18.033 76.2942 18.3998C75.3819 18.7665 74.6982 19.4498 75.0953 20.3893C75.4925 21.3287 76.4527 21.5774 77.4429 21.1906C78.2548 20.8741 79.0364 20.4772 79.8381 20.1355C80.6927 19.7688 81.0421 19.0805 80.8435 18.239C80.6072 17.307 79.8055 17.4729 79.0163 17.5708L79.0213 17.5759ZM45.166 29.367C42.4742 29.1535 41.3959 30.6833 40.8781 32.929C40.7993 33.1923 40.8041 33.4736 40.8919 33.7341C40.9797 33.9946 41.146 34.2214 41.3682 34.3835C41.5451 34.5327 41.7598 34.6302 41.9887 34.6653C42.2175 34.7003 42.4516 34.6714 42.6651 34.5819C44.0199 34.0343 45.5103 30.9647 45.161 29.362L45.166 29.367ZM64.3985 20.9996C63.4635 20.8263 63.0839 21.1604 62.7999 21.5824C62.6456 21.8066 62.5684 22.0747 62.5797 22.3465C62.591 22.6183 62.6903 22.8791 62.8627 23.0896C63.7499 24.2652 65.0997 24.7425 66.4267 25.0841C66.7812 25.1447 67.1457 25.0814 67.4588 24.9048C67.772 24.7282 68.0146 24.4491 68.1458 24.1145C68.4173 23.4087 67.9397 22.753 67.4345 22.3963C66.4191 21.6879 65.3435 21.0223 64.3934 20.9946L64.3985 20.9996ZM40.0764 54.434C40.0764 53.4619 39.0283 52.6757 38.2592 53.0449C37.2865 53.5222 36.3012 54.0095 35.5145 54.8033C35.0118 55.3057 34.5544 55.7503 35.1325 56.4863C35.6351 57.1269 36.2058 57.4308 37.0654 57.1846C37.7641 56.9837 38.2215 56.3909 38.8926 56.1949C39.8427 55.9086 39.9055 55.0972 40.0714 54.4315L40.0764 54.434ZM49.8458 23.8081C49.866 25.5087 51.261 26.943 52.8268 26.8702C53.7517 26.8275 53.8523 26.1467 53.8698 25.4509C53.905 24.0944 52.2361 22.0497 51.1176 22.1401C50.1475 22.2129 49.7755 22.8736 49.8408 23.8031L49.8458 23.8081ZM53.978 81.0484C52.9274 81.1614 51.8818 81.4151 51.2358 82.4275C50.6603 83.3268 51.0172 84.1055 52.0527 84.3868C53.43 84.7611 54.5912 84.2763 55.6695 83.5101C56.3607 83.0077 56.25 82.3446 55.8252 81.7518C55.4004 81.1589 54.7018 81.0886 53.9729 81.0434L53.978 81.0484ZM101.451 51.9522C102.657 51.9522 103.115 51.2891 102.655 50.1637C102.195 49.0383 101.446 48.2721 100.259 47.9958C99.2541 47.7647 98.6635 48.2697 98.6132 49.2971C98.5278 50.9374 99.8347 51.6684 101.446 51.9472L101.451 51.9522ZM98.1357 35.23C98.1357 34.8959 98.1808 34.3382 97.6002 34.1247C97.3148 33.9991 96.9986 33.9607 96.6914 34.0144C96.3841 34.068 96.0996 34.2113 95.8736 34.4262C95.3936 34.8784 94.8682 35.2928 94.4359 35.7801C94.0036 36.2674 93.7322 36.908 94.0565 37.6088C94.145 37.8439 94.307 38.0441 94.5184 38.1799C94.7298 38.3156 94.9795 38.3796 95.2302 38.3624C96.3537 38.3222 98.0904 36.5463 98.1307 35.225L98.1357 35.23ZM47.531 76.572C48.4258 76.557 49.7278 75.2633 49.582 74.3289C49.484 73.7185 49.1899 73.093 48.4133 73.0729C47.5537 73.0452 46.3522 74.4972 46.3899 75.4794C46.41 76.13 46.6538 76.6073 47.526 76.5671L47.531 76.572Z" fill="#E16D3F"/>
<path d="M10.4609 75.5321L34.1345 69.5587C35.3183 74.03 37.123 78.2401 38.0881 82.7114C38.299 83.5903 38.5565 84.4572 38.8597 85.3087C39.111 86.0497 38.8924 86.4391 38.1233 86.6702C36.6505 87.1124 35.0871 87.1726 33.6621 87.7931C31.0481 88.9436 28.1049 89.147 25.5538 90.3679C23.1812 91.5058 20.5874 91.7369 18.1946 92.6965C15.8396 93.6435 15.1786 92.4453 14.6759 90.3779C13.5675 85.8011 12.0871 81.3348 10.7173 76.8409C10.5916 76.4616 10.3654 76.0898 10.4609 75.5321Z" fill="#E16D3F"/>
<path d="M66.1478 94.0277C66.1478 96.7507 66.1478 99.4611 66.1478 102.169C66.1478 102.945 65.5873 103.161 65.0268 103.307C63.2628 103.769 61.5474 104.4 59.9044 105.191C57.2051 106.482 54.3951 107.499 51.7184 108.821C49.4965 109.916 47.1591 110.73 44.8694 111.649C42.914 112.435 41.4512 111.855 40.5966 109.971C40.2076 109.096 39.8858 108.192 39.634 107.268C39.0006 105.058 37.9927 104.216 35.6754 104.091C35.2506 104.068 34.9515 104.02 34.67 103.571C33.7526 102.124 32.3753 101.619 30.7064 102.001C30.5259 102.055 30.3342 102.061 30.1508 102.017C29.9675 101.973 29.7992 101.88 29.6634 101.75C27.4491 99.416 23.2869 100.652 22.4851 104.292C22.4499 104.45 22.4073 104.608 22.3419 104.867C20.6755 104.545 19.1549 103.862 17.5665 103.397C17.2548 103.304 17.2146 103.061 17.2196 102.81C17.2749 100.393 17.1518 97.9715 17.3981 95.4294C18.597 95.7409 19.733 95.9318 20.7936 96.3312C24.5637 97.7505 28.5499 98.5593 32.3075 99.9936C34.3911 100.785 36.5802 101.094 38.6562 102.003C40.2472 102.699 42.2681 103.357 43.952 102.722C45.636 102.086 47.5034 101.549 49.0994 100.627C50.9166 99.5792 52.9826 99.2803 54.8224 98.3659C58.115 96.7231 61.7921 96.0198 65.0218 94.2137C65.3963 94.0052 65.909 94.0629 66.1478 94.0277Z" fill="#E16D3F"/>
<path d="M26.2477 32.8687C27.4767 30.6079 29.0626 28.5983 30.5707 26.5335C31.8274 24.7977 33.5139 23.5644 35.052 22.1401C36.4193 20.8841 37.7564 19.5779 39.174 18.3721C39.9154 17.7416 40.9008 17.4025 41.705 16.8298C42.9768 15.9255 44.5678 15.5286 45.7641 14.6795C48.6018 12.6699 51.9772 12.268 55.0637 11.0196C56.7326 10.3438 58.6428 10.4192 60.4499 10.3112C63.3125 10.1738 66.1815 10.3016 69.0205 10.693C71.3687 11.0171 73.6941 11.4895 75.9826 12.1073L75.9675 12.4414C75.2638 12.5293 74.5525 12.582 73.8563 12.7101C69.9304 13.4361 66.017 13.8431 62.0434 12.881C59.7813 12.3308 57.474 12.0219 55.0963 12.4439C51.3262 13.1146 48.6168 15.3854 46.1587 18.0883C44.0143 20.4987 41.3985 22.4444 38.4727 23.8055C36.8684 24.5301 35.3749 25.4781 34.0366 26.6214C30.1409 30.0026 28.2357 34.2403 28.9897 39.4325C29.515 43.0472 29.5628 46.5112 27.3385 49.6512C27.136 49.9715 26.9594 50.3075 26.8106 50.656C24.5813 55.263 23.7419 59.9277 26.2527 64.723L21.2611 65.9338C21.4093 65.7907 21.5401 65.552 21.7085 65.5218C23.0381 65.2882 23.018 64.5171 22.7666 63.4143C22.4629 62.1152 22.3143 60.7845 22.3242 59.4504C22.3669 57.0439 22.651 54.64 22.7239 52.231C22.8421 48.3324 23.5358 44.5218 24.4456 40.7513C24.9935 38.4905 25.7023 36.2474 26.2954 33.9891C26.3884 33.6198 26.8157 33.2078 26.2477 32.8687Z" fill="#E0862D"/>
<path d="M104.761 86.9967C102.423 86.1653 100.536 84.6857 98.5427 83.3971C97.8767 82.965 97.7008 82.435 98.1633 81.601C99.3345 79.4859 100.785 77.5819 102.155 75.5949C103.306 73.9345 104.105 72.0555 105.259 70.3826C106.583 68.457 108.099 66.6703 109.783 65.0496C110.738 64.1353 111.638 63.0903 112.826 62.402C114.015 61.7137 114.659 61.9725 115.043 63.3038C115.372 64.4392 115.071 65.5646 114.812 66.6196C114.288 68.6956 113.616 70.7313 112.801 72.7112C111.545 75.7557 110.386 78.8931 108.513 81.5835C107.282 83.3645 106.447 85.4443 104.761 86.9967Z" fill="#B8A584"/>
<path d="M26.2501 64.7029C23.7367 59.9076 24.5787 55.2428 26.8081 50.6359C26.9569 50.2874 27.1334 49.9514 27.336 49.6311C29.5603 46.4911 29.5125 43.0271 28.9872 39.4124C28.2332 34.2302 30.1384 29.9925 34.0341 26.6013C35.3723 25.458 36.8659 24.51 38.4702 23.7854C41.396 22.4243 44.0118 20.4785 46.1562 18.0682C48.6143 15.3653 51.3187 13.0945 55.0938 12.4238C57.4715 12.0017 59.7711 12.3107 62.0407 12.8608C66.0069 13.8229 69.9202 13.416 73.8537 12.69C74.5499 12.5619 75.2613 12.5092 75.965 12.4212L77.0105 12.5092H76.9954C77.3875 13.0267 77.958 13.0116 78.5185 13.0116H78.5463C78.5312 13.2226 78.5185 13.4738 78.2571 13.4913C74.4619 13.7425 70.8175 15.094 66.9771 15.0437C64.7214 14.9891 62.4785 14.6867 60.289 14.142C55.4934 13.0091 51.3463 14.378 48.1619 17.9827C45.3469 21.1754 42.2303 23.7829 38.3898 25.6493C34.8057 27.3926 31.9278 29.9197 30.6963 33.9589C29.9096 36.5387 30.2163 39.0884 30.641 41.6456C31.0454 44.0123 30.6724 46.4463 29.5779 48.5836C28.5269 50.6279 27.6076 52.7373 26.8257 54.8987C25.8505 57.7373 26.2803 60.5054 27.077 63.2711C27.1926 63.668 27.449 64.0247 27.2982 64.4718L26.2501 64.7029Z" fill="#BC4825"/>
<path d="M99.9855 96.5297C98.5001 96.3941 97.56 95.4244 96.3335 95.0426C94.8631 94.5854 94.1971 93.1586 94.8254 91.7972C95.2653 90.83 96.3662 90.8376 97.0272 90.7497C99.0706 90.4759 101.137 90.5487 102.997 91.865C103.433 92.1625 103.803 92.5466 104.084 92.9935C104.365 93.4404 104.551 93.9405 104.63 94.4624C105.078 96.786 104.211 98.7001 102.738 100.408C100.747 102.712 98.1733 103.531 95.5166 102.154C94.0463 101.4 92.3599 100.479 91.7894 98.5594C91.4827 97.5295 91.5983 96.6704 92.3398 95.9142C93.0812 95.1581 93.9459 95.2109 94.8532 95.7058C95.9968 96.2998 97.2137 96.7406 98.4724 97.017C98.9073 97.1351 99.425 97.2683 99.9855 96.5297Z" fill="#E0862D"/>
<path d="M73.9593 102.699C73.7884 102.601 73.5521 102.576 73.4968 102.232C75.3919 101.86 77.2493 101.32 79.1092 100.785C80.2528 100.453 81.2858 101.272 81.8211 102.154C82.5953 103.428 83.6886 104.508 83.9851 106.136C84.2038 107.344 84.332 108.565 84.5205 109.773C84.6863 110.851 85.0558 111.471 86.222 111.448C86.6374 111.473 87.0512 111.52 87.4612 111.592C89.1225 111.755 90.6104 112.134 90.819 114.179H90.8039C87.3958 115.581 83.8821 115.354 80.386 114.711C78.4532 114.357 78.2321 113.933 78.2798 111.978C78.3628 108.627 77.4781 105.676 74.839 103.42C76.8497 102.234 79.1695 103.445 81.3914 102.702C80.6374 101.948 80.2578 100.893 79.1996 101.182C77.4453 101.657 75.6282 101.935 73.9593 102.699Z" fill="#E0862D"/>
<path d="M36.4118 64.6126C35.6955 66.062 34.8786 67.3631 33.451 67.7324C26.1446 69.6264 18.8055 71.3899 11.3559 73.2312C11.9691 71.8219 12.8287 70.6664 13.6028 69.4632C13.8139 69.1341 14.2261 69.0939 14.6082 69.0186C16.6943 68.6141 18.7829 68.2147 20.859 67.7626C24.8603 66.8834 28.8591 66.0042 32.8403 65.0471C33.9487 64.7783 35.0144 64.3789 36.4118 64.6126Z" fill="#E16D3F"/>
<path d="M40.9282 84.9871C39.9229 81.9476 38.9175 78.9099 37.9121 75.8737C37.2737 73.9345 36.7686 71.9399 35.987 70.061C35.527 68.9607 35.9165 68.1796 36.5147 67.5189C37.2498 66.642 37.9282 65.7191 38.5455 64.7557C39.1688 67.1597 40.0712 69.325 40.6744 71.5657C41.5742 74.915 42.536 78.2458 43.5598 81.5583C43.749 82.1488 43.8903 82.7537 43.9821 83.3669C44.0776 84.0703 43.6151 84.432 43.0043 84.5852C42.3936 84.7385 41.7048 84.8414 40.9282 84.9871Z" fill="#E16D3F"/>
<path d="M63.1166 109.675C63.4466 110.919 63.5177 112.218 63.3252 113.491C63.2523 114.081 63.4559 114.39 64.0164 114.618C65.0217 115.028 65.909 115.719 67.0324 115.842C67.8066 115.925 67.9901 116.575 68.0378 117.198C68.0856 117.821 67.5175 118.052 67.0324 118.123C63.8983 118.58 60.7489 118.746 57.6272 118.075C55.9257 117.711 55.4205 116.676 55.9911 115.008C56.394 113.926 56.7084 112.812 56.9312 111.679C58.4995 111.303 59.6531 110.157 61.0404 109.441C61.8648 109.019 62.4958 108.969 63.1166 109.675Z" fill="#E0862D"/>
<path d="M67.8215 100.149L68.01 95.8791C68.2172 95.8564 68.4262 95.8564 68.6333 95.8791C72.9061 96.8964 76.5958 95.5676 79.9788 93.028C80.5795 92.5783 81.1702 91.978 81.9217 91.9504C83.9826 91.875 85.9432 91.3751 87.9036 90.8225C88.1549 91.6213 87.8281 92.498 88.3157 93.2491C86.0919 95.2316 83.5315 96.8011 80.7554 97.8836C80.5845 96.9416 79.9059 97.4089 79.4987 97.5094C76.5879 98.1755 73.6149 98.5325 70.6291 98.5744C69.3372 98.6247 68.1432 98.5292 67.8215 100.149Z" fill="#E0862D"/>
<path d="M49.8962 98.3207C47.3828 99.2276 45.0579 100.408 42.4766 100.777C40.8982 101.004 39.4304 100.355 38.0103 99.7727C37.0829 99.3908 37.0201 97.8962 37.8294 96.9417C38.6739 95.9369 39.84 95.4722 41.049 95.128C43.5573 94.4146 47.8704 95.1883 49.8962 98.3207Z" fill="#B86B24"/>
<path d="M38.4049 94.5628C36.937 95.6003 35.5999 96.6829 35.7332 98.7553C33.2198 98.1298 30.8094 97.655 28.5122 96.801C27.4691 96.4116 27.1651 95.1029 27.8965 94.0805C28.8013 92.8245 30.1057 92.1739 31.6539 92.3674C32.9307 92.5256 34.19 91.9855 35.4693 92.4478C36.6305 92.8647 37.6333 93.4324 38.4049 94.5628Z" fill="#B86B24"/>
<path d="M60.2663 94.1659C57.5317 95.5675 54.6942 96.4919 51.8339 97.3586C51.1729 97.5595 50.8436 97.1074 50.4741 96.708C48.6419 94.7185 48.7023 93.985 50.9367 92.3673C51.8139 91.7318 52.7488 91.1565 53.9351 91.6137C54.2568 91.7418 54.5811 91.5534 54.9053 91.4881C57.1523 91.041 59.4796 92.1462 60.2663 94.1659Z" fill="#B86B24"/>
<path d="M43.668 93.5178C43.1352 93.4324 42.2555 93.8569 41.3331 93.8017C40.7449 93.769 40.0034 94.1006 39.6968 93.2842C39.3902 92.4678 39.164 91.5258 39.7672 90.7722C40.9712 89.2349 42.5923 88.4034 44.5427 88.5114C45.6776 88.5451 46.7901 88.8345 47.7974 89.358C49.3784 90.2221 49.3055 91.35 48.1694 92.6738C46.9127 94.1584 45.5003 93.5857 43.668 93.5178Z" fill="#B86B24"/>
<path d="M30.8848 90.6341C32.3526 89.8278 33.9888 89.4861 35.5547 88.9536C37.8846 88.1623 40.2622 87.4765 42.5092 86.4943C44.3364 85.698 46.028 85.9216 47.6894 86.64C49.2653 87.3258 50.9442 87.5519 52.5603 88.0166C56.8657 89.2525 61.0832 90.7371 65.5268 92.1413C64.5366 92.7869 63.5715 92.9602 62.6616 93.2591C62.5495 93.3176 62.4195 93.3317 62.2975 93.2987C62.1754 93.2656 62.0703 93.1878 62.0031 93.0808C59.9697 89.77 56.7803 89.7172 53.4752 90.1141C52.1607 90.2724 51.2131 90.3051 50.1374 89.0641C48.2699 86.929 45.5253 86.733 42.831 87.1851C41.2931 87.4311 39.8562 88.1069 38.6864 89.1344C38.4199 89.3731 38.1837 89.5539 37.8067 89.4786C35.3435 88.9762 33.1243 89.9232 30.8672 90.6391L30.8848 90.6341Z" fill="#E16D3F"/>
<path d="M87.9036 90.8375C85.9431 91.3902 83.9826 91.89 81.9216 91.9654C81.1676 91.993 80.5795 92.5934 79.9788 93.043C76.5958 95.5826 72.9111 96.9115 68.6333 95.8942C68.4262 95.8715 68.2172 95.8715 68.01 95.8942L68.0553 93.9197C69.1411 94.9572 70.5687 94.7562 71.8254 94.7487C74.3567 94.7566 76.7962 93.802 78.6492 92.0785C79.8053 90.9858 81.3194 90.3502 82.9094 90.2899C84.4049 90.2095 85.84 89.6946 87.2299 89.1169C87.7703 88.8933 88.3032 88.6521 88.9089 88.6898C88.6023 89.4032 88.6626 90.315 87.9036 90.8375Z" fill="#BC4825"/>
<path d="M30.2313 110.876C29.1505 108.929 28.5122 106.874 29.5075 104.741C30.2615 103.116 32.021 103.031 33.1746 104.395C33.4385 104.704 33.5893 104.98 33.4435 105.399C32.6417 107.718 32.966 109.969 33.8934 112.182C33.0087 111.81 33.1746 110.737 32.506 110.092C32.0033 110.308 31.5207 110.511 30.91 110.185C30.2992 109.858 30.3293 110.506 30.2313 110.876Z" fill="#E0862D"/>
<path d="M90.5049 93.9348C88.3685 90.6014 91.6912 87.0797 94.5263 86.841C95.5316 86.7581 96.0344 87.4388 96.336 88.2603C96.5094 88.74 96.1977 89.0139 95.7026 89.0817C93.5009 89.3831 92.6865 90.8401 92.7242 92.8496C92.7393 93.7916 92.0004 93.7087 91.5078 93.9901C92.2417 93.1159 92.7117 92.1764 92.3598 90.9757C90.7965 91.3701 90.3616 92.0785 90.5049 93.9348Z" fill="#E0862D"/>
<path d="M67.8215 100.149C68.1433 98.5217 69.3297 98.6172 70.6241 98.582C73.6099 98.5401 76.5829 98.1831 79.4937 97.5169C79.9059 97.4164 80.5845 96.9492 80.7504 97.8912C78.8521 98.8481 76.8175 99.5064 74.7183 99.843C73.16 99.7023 71.652 99.8606 70.2294 100.566C69.5759 100.592 68.9199 100.619 68.2664 100.639C67.9296 100.652 67.6833 100.579 67.8215 100.149Z" fill="#B86B24"/>
<path d="M63.1165 109.675C62.4957 108.969 61.8598 109.019 61.0454 109.441C59.658 110.157 58.5044 111.303 56.936 111.679C56.9072 111.474 56.9072 111.266 56.936 111.061C57.1622 110.233 56.1317 109.18 56.9988 108.627C58.439 107.711 59.9723 106.766 61.7492 106.703C62.5435 106.676 62.7545 107.585 63.041 108.21C63.2371 108.675 63.2638 109.193 63.1165 109.675Z" fill="#B86B24"/>
<path d="M20.2733 94.1006L28.2934 91.3651C26.8382 92.5457 25.8052 93.8972 25.8505 95.9821L20.2356 94.4146L20.2733 94.1006Z" fill="#E16D3F"/>
<path d="M24.0659 104.869C24.174 103.563 24.8903 102.772 26.1244 102.383C27.092 102.076 27.8209 102.337 28.4191 103.292C27.2428 105.05 27.2856 107.085 27.4917 109.135C26.705 107.434 24.8903 106.545 24.0659 104.869Z" fill="#E0862D"/>
<path d="M34.7705 107.344C34.8056 106.613 35.0747 106.012 35.8815 105.965C36.2998 105.923 36.7196 106.029 37.0674 106.265C37.4152 106.501 37.6688 106.852 37.7841 107.256C38.1334 108.301 38.3772 109.378 38.8497 110.383C37.7966 111.539 36.7184 111.323 36.065 109.775C35.791 109.125 35.6326 108.447 34.7127 108.992C34.6219 108.778 34.5751 108.549 34.5751 108.317C34.5751 108.085 34.6219 107.856 34.7127 107.643C34.7328 107.542 34.7529 107.434 34.7705 107.344Z" fill="#E0862D"/>
<path d="M24.0659 104.869C24.8903 106.545 26.705 107.429 27.4917 109.14C27.5118 109.816 28.1954 110.268 28.115 110.979C25.6267 111.097 23.6638 108.125 24.0659 104.869Z" fill="#B86B24"/>
<path d="M99.4552 86.11C100.64 86.6416 101.732 87.36 102.69 88.2377C102.941 88.4638 102.858 88.8682 102.69 89.1822C102.491 89.5514 102.157 89.5489 101.823 89.4334C100.882 89.0992 99.9117 88.8553 98.9248 88.7049C98.2487 88.6119 98.0376 88.2025 98.206 87.5343C98.3744 86.8661 98.4926 86.2055 99.4552 86.11Z" fill="#445045"/>
<path d="M73.9593 102.699C75.6282 101.945 77.4453 101.659 79.1996 101.192C80.2578 100.903 80.6398 101.963 81.3914 102.712C79.1695 103.465 76.8422 102.244 74.839 103.43L73.9593 102.699Z" fill="#B86B24"/>
<path d="M91.2991 102.975C91.3946 102.513 91.2789 101.873 92.0028 101.745C92.3823 101.677 93.9708 103.272 93.9532 103.689C93.9231 104.367 93.4681 104.638 92.8599 104.586C91.9224 104.508 91.3091 104.048 91.2991 102.975Z" fill="#445045"/>
<path d="M90.5048 93.9348C90.3666 92.0785 90.7964 91.3701 92.3648 90.9883C92.7167 92.1815 92.2466 93.1209 91.5127 94.0026C91.1684 94.0881 90.824 94.2237 90.5048 93.9348Z" fill="#B86B24"/>
<path d="M37.8569 90.6567C38.0153 91.2043 37.9675 91.5133 37.686 91.8574C36.5801 91.6816 35.6753 90.8727 34.5493 90.6542C35.6652 90.403 36.7485 90.6517 37.8569 90.6567Z" fill="#B86B24"/>
<path d="M70.2293 100.574C71.6519 99.8681 73.1599 99.7099 74.7182 99.8506C73.3158 100.675 71.7148 100.257 70.2293 100.574Z" fill="#B86B24"/>
<path d="M76.5154 114.523C76.104 113.199 76.0822 111.785 76.4526 110.449C76.4727 111.808 76.4936 113.166 76.5154 114.523Z" fill="#3B756A"/>
<path d="M78.5111 13.0292C77.9506 13.0292 77.38 13.0292 76.9879 12.5268C77.5338 12.5424 78.0632 12.717 78.5111 13.0292Z" fill="#E16D3F"/>
<path d="M33.8933 112.177C33.0086 111.805 33.1745 110.732 32.5059 110.087C32.0032 110.303 31.5206 110.506 30.9099 110.18C30.2991 109.853 30.3293 110.506 30.2312 110.876C30.5379 112.272 31.6413 112.634 32.8326 112.86C33.2825 112.8 33.838 113.222 34.1648 112.589L33.8933 112.177Z" fill="#B86B24"/>
<path d="M77.003 12.5293L75.9574 12.4414L75.9725 12.1073C76.3194 12.2304 76.7266 12.2304 77.003 12.5293Z" fill="#E16D3F"/>
<path d="M26.2477 32.8687C25.3177 34.3759 24.34 35.8454 24.0032 37.6239C23.4653 37.6239 23.5507 38.0635 23.4804 38.3775C22.8249 39.6375 22.306 40.9638 21.9322 42.3339C21.2209 43.728 21.1253 45.2904 20.7257 46.77C20.4681 47.1842 20.3782 47.681 20.4744 48.1591C20.2493 48.3868 20.1015 48.6794 20.0521 48.9956C19.6715 51.0385 19.4197 53.1032 19.298 55.1776L19.2755 55.7126C19.2554 57.4987 19.1724 59.2871 19.2328 61.0706C19.2805 62.4924 19.0342 63.9695 19.7354 65.3184C20.2381 66.4337 20.3461 66.4764 21.266 65.9062C21.4143 65.763 21.5451 65.5244 21.7135 65.4943C23.0431 65.2606 23.023 64.4894 22.7716 63.3867C22.4679 62.0875 22.3193 60.757 22.3292 59.4228C22.3719 57.0164 22.656 54.6123 22.7289 52.2034C22.847 48.3048 23.5406 44.4941 24.4505 40.7237C24.9984 38.4629 25.7073 36.2197 26.3004 33.9614C26.3884 33.6198 26.8157 33.2078 26.2477 32.8687Z" fill="#B86B24"/>
<path d="M29.8393 90.8678L30.8823 90.6342H30.8672L29.8192 90.8426L29.8393 90.8678Z" fill="#E16D3F"/>
<path d="M38.8496 110.383C37.7965 111.539 36.7184 111.323 36.0649 109.775C35.7909 109.125 35.6325 108.446 34.7126 108.992L34.7529 109.059C34.7855 109.333 34.8208 109.607 34.856 109.883C35.083 110.808 35.5453 111.659 36.1981 112.353C37.3643 113.712 39.0331 113.664 40.0536 112.194C39.4504 111.742 39.3247 110.951 38.8496 110.383Z" fill="#B86B24"/>
<path d="M29.3617 91.1515L29.8393 90.8652C29.8393 90.8652 29.8167 90.8451 29.8192 90.8476L29.3441 91.1389L29.3617 91.1515Z" fill="#E16D3F"/>
<path d="M34.7705 107.344C34.7529 107.444 34.7329 107.542 34.7153 107.643C34.7329 107.542 34.7529 107.434 34.7705 107.344Z" fill="#B86B24"/>
<path d="M67.9926 92.3623C68.0257 92.3874 68.0486 92.4236 68.0569 92.4643C68.0652 92.505 68.0585 92.5473 68.0379 92.5833C67.9984 92.5168 67.9824 92.439 67.9926 92.3623Z" fill="#BC4825"/>
<path d="M90.819 114.179V114.254L90.804 114.181L90.819 114.179Z" fill="#E0862D"/>
<path d="M53.636 59.9855C54.8575 60.2166 55.9961 60.7843 57.2855 60.7391C59.2962 60.6864 61.2869 60.6135 63.089 59.5459C63.3226 59.4615 63.5693 59.419 63.8178 59.4203C64.1923 59.5635 64.6547 59.5233 64.9463 60.0056C63.7976 61.2616 62.2771 61.8142 60.6936 62.1332C56.8029 62.922 53.0579 62.0554 49.421 60.7743C48.2624 60.3648 47.6442 59.2319 47.6316 57.6066C49.3935 59.4554 51.3061 60.3096 53.636 59.9855Z" fill="#BC4825"/>
<path d="M84.2842 80.3601C84.2842 82.0381 82.364 84.2838 80.7277 84.422C80.4457 84.4256 80.1677 84.3555 79.9212 84.2184C79.6747 84.0814 79.4684 83.8822 79.3228 83.6408C79.173 83.2951 79.1173 82.916 79.1614 82.5418C79.2056 82.1677 79.3479 81.812 79.5741 81.5106C80.3468 80.5494 81.3138 79.7619 82.4118 79.1996C83.4649 78.6796 84.2766 79.2448 84.2842 80.3601Z" fill="#4A9596"/>
<path d="M71.9713 87.3811C71.9713 88.4035 71.3229 88.7401 70.4885 88.5442C69.0986 88.2126 67.8368 87.562 67.0199 86.3261C66.5298 85.585 66.4243 84.7259 67.0024 83.995C67.5804 83.264 68.3294 83.4926 69.0608 83.7739C70.3979 84.2814 71.9789 86.2331 71.9713 87.3811Z" fill="#4A9596"/>
<path d="M79.4635 59.5057L81.0771 59.895C81.7934 60.5331 82.6681 60.214 83.4372 60.1789C86.315 60.0407 89.1677 59.7469 91.5655 57.8378C92.141 57.3806 92.6462 56.833 93.4404 56.1497C93.1212 57.8478 92.2516 58.8199 91.1985 59.6012C89.5359 60.8184 87.548 61.5126 85.4887 61.5954C83.4293 61.6782 81.392 61.1457 79.6369 60.0658C79.363 59.9001 79.2624 59.7745 79.4635 59.5057Z" fill="#BC4825"/>
<path d="M91.01 72.0355C91.7121 72.2133 92.4028 72.433 93.0785 72.6936C94.1869 73.1809 94.8253 74.3263 94.4785 75.2055C94.0235 76.3636 92.9151 76.2104 92.0078 76.1702C91.2082 76.1015 90.4463 75.8002 89.8162 75.3035C89.125 74.8011 88.5846 74.1681 88.8862 73.294C89.1878 72.4198 90.065 72.1987 91.01 72.0355Z" fill="#E0862D"/>
<path d="M40.5815 44.1475C40.5815 45.097 40.0311 45.5316 39.0082 45.3884C37.7213 45.21 35.806 43.316 35.6025 42.0148C35.4718 41.1884 35.8312 40.7588 36.6555 40.6533C38.6235 40.4096 40.5765 42.1404 40.5815 44.1475Z" fill="#E0862D"/>
<path d="M89.0647 28.0985C87.715 28.0583 86.2498 26.8877 85.9356 25.5865C85.7571 24.848 86.5186 23.8759 87.5089 23.6548C88.376 23.4614 89.2432 23.592 89.8011 24.3054C90.4421 25.1268 90.9775 26.0638 90.6733 27.1917C90.4597 27.988 89.7735 28.106 89.0647 28.0985Z" fill="#E0862D"/>
<path d="M100.415 62.2363C100.378 63.4797 98.8469 65.5646 97.6505 65.9866C97.1202 66.1725 96.5723 66.2052 96.125 65.7957C95.8733 65.5694 95.71 65.2613 95.664 64.9261C95.618 64.5909 95.6923 64.2502 95.8736 63.9645C96.6276 62.8793 97.2584 61.6309 98.6207 61.1109C99.6361 60.7241 100.453 61.2265 100.415 62.2363Z" fill="#4A9596"/>
<path d="M79.0162 17.5708C79.8029 17.4728 80.6071 17.307 80.8333 18.2339C81.0369 19.0754 80.6876 19.7637 79.828 20.1305C79.0262 20.4721 78.2446 20.869 77.4328 21.1855C76.4425 21.5723 75.4724 21.2986 75.0853 20.3842C74.6983 19.4698 75.3668 18.7615 76.2842 18.3947C77.2016 18.028 78.0234 17.3648 79.0162 17.5708Z" fill="#4A9596"/>
<path d="M45.1608 29.362C45.5102 30.9647 44.0197 34.0343 42.6599 34.5769C42.4465 34.6664 42.2123 34.6952 41.9835 34.6602C41.7546 34.6252 41.5399 34.5277 41.363 34.3784C41.1408 34.2164 40.9745 33.9896 40.8867 33.7291C40.7989 33.4686 40.7941 33.1873 40.873 32.924C41.3832 30.6783 42.469 29.1485 45.1608 29.362Z" fill="#4A9596"/>
<path d="M64.3934 20.9946C65.3435 21.0222 66.4191 21.6879 67.4295 22.3988C67.9321 22.7555 68.4122 23.4036 68.1408 24.117C68.0095 24.4516 67.7669 24.7307 67.4538 24.9073C67.1406 25.0839 66.7761 25.1472 66.4217 25.0866C65.0946 24.745 63.7449 24.2677 62.8576 23.0921C62.6852 22.8816 62.586 22.6208 62.5746 22.349C62.5633 22.0772 62.6405 21.8091 62.7948 21.5849C63.0788 21.1554 63.4685 20.8213 64.3934 20.9946Z" fill="#4A9596"/>
<path d="M40.0713 54.4315C39.9054 55.0997 39.8476 55.9111 38.8875 56.1899C38.2165 56.3858 37.759 56.9786 37.0603 57.1796C36.2007 57.4308 35.6327 57.1218 35.1275 56.4813C34.5494 55.7453 35.0168 55.2931 35.5094 54.7983C36.2961 54.007 37.2815 53.5197 38.2542 53.0399C39.0232 52.6581 40.0638 53.4569 40.0713 54.4315Z" fill="#4A9596"/>
<path d="M49.8409 23.8031C49.7755 22.8737 50.145 22.213 51.1127 22.1351C52.2311 22.0447 53.9001 24.0895 53.8649 25.4459C53.8473 26.1417 53.7468 26.8225 52.8218 26.8652C51.256 26.938 49.861 25.5037 49.8409 23.8031Z" fill="#F6C68D"/>
<path d="M53.973 81.0433C54.7019 81.0886 55.3955 81.1589 55.8202 81.7492C56.245 82.3395 56.3557 83.0052 55.6645 83.5076C54.5862 84.2737 53.425 84.7636 52.0477 84.3843C51.0122 84.1029 50.6553 83.3242 51.2308 82.4249C51.8768 81.4101 52.9123 81.1564 53.973 81.0433Z" fill="#E0862D"/>
<path d="M101.446 51.9472C99.8347 51.6785 98.5277 50.9424 98.6081 49.2921C98.6584 48.2647 99.2565 47.7598 100.254 47.9909C101.441 48.2672 102.2 49.066 102.65 50.1587C103.1 51.2514 102.652 51.9397 101.446 51.9472Z" fill="#F6C68D"/>
<path d="M98.1307 35.225C98.0905 36.5463 96.3537 38.3222 95.2252 38.3574C94.9745 38.3746 94.7249 38.3106 94.5134 38.1748C94.302 38.0391 94.1401 37.8389 94.0515 37.6038C93.7273 36.903 93.9735 36.29 94.431 35.7751C94.8884 35.2601 95.3886 34.8733 95.8687 34.4212C96.0946 34.2063 96.3791 34.063 96.6864 34.0094C96.9936 33.9557 97.3098 33.9941 97.5953 34.1197C98.1759 34.3357 98.1307 34.8909 98.1307 35.225Z" fill="#4A9596"/>
<path d="M47.526 76.5671C46.6539 76.6073 46.4101 76.13 46.3849 75.4668C46.3472 74.4846 47.5487 73.0327 48.4083 73.0603C49.1849 73.088 49.479 73.7134 49.577 74.3163C49.7228 75.2583 48.4208 76.552 47.526 76.5671Z" fill="#F6C68D"/>
<path d="M69.2995 74.3791H68.5933L68.3218 74.2862L67.7638 74.3314H67.1908C64.426 74.2635 60.6836 73.0754 59.2837 71.7566C60.4448 70.7518 61.5155 70.0158 63.2322 69.9003C65.0896 69.7747 66.5876 70.3424 68.1484 71.0407C68.8094 71.3396 69.2493 70.8925 69.7142 70.5835C72.0014 69.0613 76.0304 69.5084 78.0084 71.6234C75.6886 73.4848 72.9816 74.0651 70.139 74.2962L69.2995 74.3791Z" fill="#BC4825"/>
<path d="M58.2632 58.9329C51.8164 58.5813 48.2473 55.165 48.2423 49.0408C48.2423 42.6303 52.5578 38.5332 59.6833 38.7417C64.1043 38.8724 68.5631 42.7232 68.4273 49.0559C68.2992 55.0419 63.9535 58.5687 58.2632 58.9329ZM54.8576 48.7017C54.7018 51.8743 57.484 53.9492 59.726 54.208C62.463 54.5245 65.1297 51.4447 65.2554 48.8775C65.361 46.6544 62.4052 43.6024 60.02 43.6501C57.3432 43.7104 54.8928 46.0164 54.8576 48.7017Z" fill="#F6C68D"/>
<path d="M83.0275 58.1341C80.8081 58.1869 78.9181 57.3504 77.2467 55.9462C74.6981 53.8211 73.4138 51.1032 73.7406 47.7949C73.9919 45.3784 74.4569 42.9568 76.7943 41.53C77.2794 41.2336 77.3875 40.7086 77.8198 40.3544C81.3033 37.4882 87.9739 39.0431 90.3867 42.2936C92.6312 45.3231 93.0031 48.6339 91.7866 52.1858C90.9522 54.6249 89.2356 56.1321 86.961 57.1595C85.6968 57.7222 84.4425 58.1995 83.0275 58.1341ZM83.4572 43.6602C80.8634 43.4818 78.5361 45.7124 78.5009 48.0008C78.4456 51.6281 80.4387 53.6252 84.1987 53.6754C85.5183 53.693 88.3684 50.8293 88.3835 48.7193C88.3986 46.4635 85.6741 43.2658 83.4572 43.6602Z" fill="#F6C68D"/>
<path d="M116.903 63.2888C116.531 60.6713 113.817 59.443 111.625 60.9125C110.982 61.3815 110.364 61.8846 109.775 62.4197C109.466 62.6709 109.24 63.0828 108.717 62.9547V58.9531L108.815 58.6442C108.742 52.1733 108.061 45.8205 105.859 39.6587C101.624 27.7695 94.2977 18.5204 82.9095 12.8233C75.7788 9.23164 67.766 7.76247 59.824 8.59058C49.494 9.61295 40.5714 14.0842 33.1946 21.1881C20.7056 33.2179 16.1262 48.2521 17.6619 65.311C17.7624 66.4212 17.5865 66.9915 16.4278 67.0693C13.7108 67.2527 11.9188 68.7523 10.647 71.0583C10.1217 72.0053 9.45321 72.8745 8.83743 73.7688C8.64935 74.0218 8.52294 74.3154 8.4684 74.6259C8.41385 74.9364 8.43268 75.2553 8.52326 75.5573C10.2097 81.2921 11.7052 87.0822 13.6229 92.7467C13.8743 93.5154 14.1985 94.2539 15.0832 94.5051C15.7342 94.686 15.6663 95.211 15.6965 95.7159C15.8372 98.0621 15.6034 100.398 15.4677 102.732C15.3923 104.058 15.9302 104.772 17.1568 105.113C18.607 105.515 20.0447 105.962 21.4924 106.369C22.0428 106.525 22.4348 106.723 22.568 107.399C23.0179 109.725 24.3726 111.396 26.4914 112.451C27.9819 112.825 29.4698 113.114 30.7642 114.121C31.7168 114.875 32.9986 114.847 34.1573 114.644C35.0615 114.497 35.9868 114.548 36.8692 114.794C37.6735 114.998 38.6286 115.38 39.3198 114.912C41.3129 113.568 43.7031 113.908 45.8219 113.169C48.001 112.415 50.0469 111.355 52.1431 110.406C52.1796 110.386 52.2174 110.368 52.2562 110.353C52.9374 110.137 53.6361 109.348 54.3147 109.964C54.9933 110.579 55.2044 111.582 54.9908 112.526C54.7909 113.25 54.5475 113.961 54.2619 114.656C53.4777 116.829 54.2116 118.535 56.3304 119.472C57.8184 120.13 59.4219 120.132 60.9953 120.323C63.0739 120.554 65.1248 120.293 67.1757 120.012C68.558 119.678 69.7167 119.065 69.8474 117.47C69.9335 116.772 69.7659 116.067 69.375 115.484C68.9842 114.9 68.3963 114.476 67.7186 114.289C64.7151 113.423 65.0041 111.127 64.9865 108.881C64.9865 108.841 64.9714 108.798 64.9614 108.758C64.71 107.876 64.2074 106.962 64.3004 106.118C64.4185 105.088 65.8084 105.281 66.4593 104.656C66.6679 104.455 66.9847 104.282 67.0601 104.036C67.5301 102.491 68.5681 102.84 69.6639 103.159C72.5166 103.983 74.927 105.327 76.0203 108.306C76.1046 108.584 76.1734 108.867 76.2263 109.152C76.2389 109.311 76.254 109.471 76.2666 109.63C76.2993 109.725 76.3295 109.818 76.3596 109.914L76.4652 110.451C76.4853 111.809 76.5062 113.167 76.528 114.526C77.4278 115.812 78.765 116.392 80.2227 116.686C83.5111 117.332 86.899 117.273 90.1631 116.515C91.5983 116.198 92.3774 115.282 92.5005 114.061C92.6 113.391 92.4712 112.708 92.1347 112.121C91.7982 111.533 91.2737 111.076 90.6457 110.823C89.5473 110.32 88.3963 109.929 87.2703 109.489C86.0136 109.288 86.2649 108.173 86.104 107.404C85.6014 105.045 84.9705 102.785 83.3041 100.933C82.9045 100.489 82.2987 100.215 82.0474 99.5441C84.4804 98.1374 86.8681 96.7809 88.9743 95.0979C89.8917 95.6003 90.1304 96.2359 89.8816 97.1502C89.7434 97.6526 89.6805 98.3032 89.8816 98.7528C90.432 99.9686 90.1908 101.036 89.761 102.224C89.1201 104 89.761 105.264 91.4123 106.012C93.1441 106.796 94.5013 106.419 95.4614 104.804C95.7705 104.284 96.0973 104.081 96.6703 104.221C99.7015 104.975 102.036 103.812 104.027 101.596C107.02 98.2655 107.395 94.1157 104.922 91.1541C104.08 90.1493 104.19 89.4384 105.352 88.7703C106.223 88.2642 106.964 87.5614 107.516 86.718C111.612 80.5988 114.852 74.0828 116.627 66.8935C116.949 65.7208 117.043 64.497 116.903 63.2888ZM13.6028 69.4658C13.8139 69.1367 14.2261 69.0965 14.6082 69.0211C16.6943 68.6167 18.7829 68.2173 20.859 67.7652C24.8603 66.886 28.8591 66.0068 32.8403 65.0497C33.9537 64.7809 35.0194 64.3815 36.4168 64.6151C35.7005 66.0645 34.8836 67.3657 33.456 67.735C26.1496 69.629 18.8106 71.3925 11.3609 73.2337C11.9691 71.822 12.8287 70.6665 13.6028 69.4658ZM35.7206 98.7553C33.2072 98.1299 30.7969 97.6551 28.4997 96.801C27.4566 96.4117 27.1524 95.103 27.8838 94.0806C28.7887 92.8246 30.0932 92.174 31.6414 92.3674C32.9182 92.5257 34.1773 91.9856 35.4567 92.4478C36.6178 92.8673 37.6207 93.4325 38.3923 94.5629C36.9371 95.6003 35.5999 96.683 35.7332 98.7553H35.7206ZM25.8379 95.9922L20.223 94.4247L20.2607 94.1107L28.281 91.3752C26.8383 92.5458 25.8053 93.8972 25.8505 95.9821L25.8379 95.9922ZM34.5368 90.6643C35.6528 90.4131 36.736 90.6643 37.8444 90.6643C38.0027 91.2119 37.955 91.5209 37.6735 91.865C36.5752 91.6816 35.6779 90.8728 34.5494 90.6542L34.5368 90.6643ZM37.8042 96.9442C38.6487 95.9394 39.815 95.4747 41.0239 95.1306C43.5373 94.4197 47.8477 95.1934 49.871 98.3258C47.3576 99.2326 45.0327 100.413 42.4514 100.783C40.873 101.009 39.4052 100.361 37.9851 99.7777C37.0778 99.3959 37.0175 97.8887 37.8319 96.9392L37.8042 96.9442ZM39.7445 90.7673C40.9484 89.2299 42.5696 88.3985 44.52 88.5065C45.6548 88.5401 46.7675 88.8296 47.7748 89.3531C49.3558 90.2172 49.2829 91.345 48.1468 92.6688C46.8901 94.176 45.4675 93.5932 43.6352 93.5254C43.1024 93.44 42.2227 93.8645 41.3003 93.8093C40.7122 93.7766 39.9708 94.1082 39.6641 93.2918C39.3575 92.4754 39.164 91.5334 39.7672 90.7622L39.7445 90.7673ZM50.914 92.3724C51.7912 91.7369 52.7262 91.1617 53.9125 91.6189C54.2342 91.747 54.5584 91.5586 54.8827 91.4933C57.1296 91.0411 59.457 92.1463 60.2437 94.166C57.5092 95.5676 54.6716 96.492 51.8114 97.3587C51.1503 97.5596 50.821 97.1075 50.4516 96.7081C48.6394 94.7186 48.7023 93.9851 50.9367 92.3624L50.914 92.3724ZM53.4525 90.1117C52.138 90.2699 51.1906 90.3026 50.1148 89.0617C48.2474 86.9265 45.5027 86.7305 42.8083 87.1827C41.2705 87.4286 39.8337 88.1044 38.6638 89.132C38.3974 89.3706 38.1611 89.5515 37.7841 89.4761C35.321 88.9737 33.1017 89.9207 30.8447 90.6391L30.724 90.6618L30.8597 90.6317C32.33 89.8253 33.9663 89.4837 35.5321 88.9511C37.862 88.1598 40.2397 87.4741 42.4867 86.4919C44.3139 85.6956 46.0054 85.9192 47.6667 86.6376C49.2426 87.3234 50.9215 87.5494 52.5376 88.0141C56.8431 89.25 61.0606 90.7347 65.5043 92.1388C64.514 92.7844 63.5489 92.9577 62.6391 93.2567C62.527 93.3152 62.3969 93.3293 62.2748 93.2962C62.1528 93.2632 62.0477 93.1854 61.9805 93.0783C59.9698 89.7701 56.7804 89.7173 53.4753 90.1142L53.4525 90.1117ZM42.9692 84.5853C42.3333 84.7436 41.6824 84.8365 40.9057 84.9822C39.9004 81.9427 38.895 78.9049 37.8897 75.8688C37.2513 73.9296 36.746 71.935 35.9644 70.056C35.5044 68.9558 35.894 68.1746 36.4922 67.514C37.2273 66.6371 37.9057 65.7141 38.523 64.7508C39.1464 67.1547 40.0487 69.32 40.6519 71.5607C41.5517 74.91 42.5135 78.2409 43.5373 81.5534C43.7265 82.1439 43.8677 82.7487 43.9595 83.362C44.065 84.0729 43.6126 84.4371 42.9918 84.5904L42.9692 84.5853ZM14.6483 90.383C13.5399 85.8062 12.0595 81.3398 10.6897 76.8459C10.5691 76.4566 10.3429 76.0923 10.4384 75.5372L34.1121 69.5637C35.2959 74.035 37.1005 78.2451 38.0656 82.7164C38.2765 83.5953 38.534 84.4623 38.8372 85.3138C39.0886 86.0548 38.8698 86.4442 38.1007 86.6753C36.6279 87.1174 35.0646 87.1777 33.6395 87.7981C31.0256 88.9486 28.0824 89.1521 25.5313 90.3729C23.1587 91.5108 20.5648 91.742 18.1721 92.7015C15.8396 93.6536 15.1712 92.4603 14.671 90.3879L14.6483 90.383ZM27.4666 109.13C27.4867 109.806 28.1704 110.258 28.09 110.969C25.6018 111.092 23.6387 108.12 24.0409 104.864C24.1489 103.558 24.8652 102.767 26.0993 102.378C27.067 102.071 27.7959 102.332 28.3941 103.287C27.243 105.058 27.2756 107.085 27.4917 109.135L27.4666 109.13ZM32.8075 112.855C31.6162 112.619 30.5129 112.267 30.2063 110.871C29.1255 108.924 28.487 106.869 29.4823 104.736C30.2363 103.111 31.9958 103.026 33.1494 104.39C33.4133 104.699 33.5616 104.975 33.4183 105.394C32.6166 107.713 32.9408 109.964 33.8682 112.177L34.1397 112.589C33.8306 113.212 33.2826 112.8 32.8327 112.86L32.8075 112.855ZM36.173 112.353C35.5202 111.659 35.0579 110.808 34.8309 109.883C34.7957 109.607 34.7605 109.333 34.7278 109.059L34.6877 108.992C34.5969 108.778 34.5501 108.549 34.5501 108.317C34.5501 108.085 34.5969 107.856 34.6877 107.643L34.7429 107.344C34.7781 106.613 35.047 106.012 35.8538 105.965C36.2721 105.923 36.6919 106.029 37.0397 106.265C37.3875 106.501 37.6413 106.852 37.7565 107.256C38.1059 108.301 38.3496 109.378 38.8221 110.383C39.2971 110.956 39.4228 111.742 40.026 112.194C39.0333 113.664 37.3644 113.714 36.1982 112.353H36.173ZM67.0174 115.842C67.7915 115.925 67.975 116.575 68.0227 117.198C68.0705 117.821 67.5024 118.052 67.0174 118.123C63.8832 118.58 60.7339 118.746 57.6123 118.075C55.9107 117.711 55.4055 116.676 55.976 115.008C56.3789 113.926 56.6933 112.812 56.9161 111.679C56.8873 111.474 56.8873 111.266 56.9161 111.062C57.1423 110.233 56.1118 109.18 56.9789 108.627C58.4191 107.711 59.9522 106.766 61.7292 106.703C62.5234 106.676 62.7346 107.585 63.0211 108.21C63.219 108.673 63.2483 109.19 63.1039 109.672C63.434 110.917 63.505 112.215 63.3126 113.488C63.2397 114.078 63.4433 114.387 64.0038 114.616C65.0242 115.028 65.909 115.724 67.0425 115.842H67.0174ZM65.0067 103.307C63.2426 103.769 61.5273 104.4 59.8844 105.191C57.185 106.482 54.375 107.5 51.6982 108.821C49.4764 109.916 47.1389 110.73 44.8492 111.649C42.8938 112.436 41.431 111.855 40.5765 109.971C40.1875 109.096 39.8657 108.193 39.6138 107.268C38.9804 105.058 37.9726 104.216 35.6552 104.091C35.2305 104.068 34.9314 104.02 34.6499 103.571C33.7325 102.124 32.3551 101.619 30.6862 102.001C30.5057 102.055 30.314 102.061 30.1307 102.017C29.9473 101.973 29.779 101.88 29.6432 101.75C27.4289 99.416 23.2667 100.652 22.465 104.292C22.4298 104.45 22.3871 104.608 22.3217 104.867C20.6554 104.545 19.1348 103.862 17.5463 103.397C17.2346 103.305 17.1945 103.061 17.1995 102.81C17.2548 100.393 17.1316 97.9716 17.3779 95.4295C18.5768 95.741 19.7128 95.9319 20.7735 96.3313C24.5435 97.7506 28.5298 98.5594 32.2873 99.9937C34.3709 100.785 36.5601 101.094 38.6362 102.003C40.2272 102.699 42.2479 103.357 43.9319 102.722C45.6158 102.086 47.4833 101.549 49.0793 100.627C50.8965 99.5793 52.9625 99.2803 54.8023 98.366C58.0948 96.7232 61.7719 96.0199 65.0016 94.2137C65.3686 94.0103 65.8812 94.068 66.12 94.0328C66.12 96.7558 66.12 99.4663 66.12 102.174C66.1577 102.945 65.5923 103.164 65.0318 103.307H65.0067ZM83.96 106.136C84.1787 107.344 84.307 108.565 84.4955 109.773C84.6614 110.851 85.0308 111.471 86.1971 111.448C86.6125 111.473 87.0261 111.52 87.4361 111.592C89.0974 111.755 90.5854 112.134 90.7941 114.179V114.254L90.7764 114.181C87.3707 115.583 83.857 115.357 80.3609 114.714C78.4281 114.36 78.207 113.935 78.2547 111.981C78.3377 108.63 77.453 105.678 74.8139 103.423L73.9342 102.699C73.7633 102.601 73.527 102.576 73.4717 102.232C75.3668 101.86 77.2242 101.32 79.0841 100.785C80.2277 100.453 81.2607 101.272 81.7961 102.154C82.5953 103.428 83.6886 104.508 83.9852 106.136H83.96ZM88.8913 88.6773C88.5671 89.4033 88.64 90.3151 87.886 90.8376C88.1373 91.6364 87.8106 92.5131 88.2982 93.2642C86.0744 95.2467 83.5141 96.8162 80.7379 97.8988C78.8396 98.8556 76.805 99.514 74.7058 99.8506C73.3033 100.675 71.7023 100.258 70.2169 100.574C69.5634 100.599 68.9074 100.627 68.2539 100.647C67.9171 100.659 67.6708 100.579 67.8091 100.157L67.9976 95.8867L68.0429 93.9123V92.5859C68.0033 92.5194 67.9874 92.4416 67.9976 92.3649C66.8892 91.031 65.562 90.0312 63.8529 89.5741C60.6433 88.715 57.484 87.6901 54.2342 86.9516C51.7635 86.3864 49.396 85.3615 46.9781 84.5552C46.4754 84.3868 46.2643 84 46.1236 83.5504C44.6156 78.8329 43.0396 74.1405 41.695 69.3803C41.1571 67.4788 40.212 65.7304 39.8501 63.7686C39.7043 62.9748 38.812 62.387 38.0907 62.5478C36.3037 62.9497 34.4337 62.7789 32.702 63.3642C30.9703 63.9495 29.0953 64.1177 27.2907 64.4719L26.2401 64.698L21.2485 65.9088C20.3286 66.479 20.213 66.4363 19.7179 65.321C19.0116 63.9721 19.258 62.495 19.2152 61.0732C19.1549 59.2897 19.2378 57.5012 19.2579 55.7152L19.2805 55.1801C19.4021 53.1057 19.654 51.0411 20.0345 48.9982C20.084 48.682 20.2317 48.3893 20.4568 48.1617C20.3607 47.6836 20.4506 47.1868 20.7082 46.7726C21.1078 45.293 21.2108 43.7306 21.9145 42.3365C22.2902 40.9599 22.8126 39.6276 23.4729 38.3625L23.4528 38.3851C23.5231 38.0586 23.4377 37.6315 23.9756 37.6315C24.3124 35.8531 25.29 34.3659 26.2199 32.8763C27.449 30.6155 29.035 28.606 30.543 26.5411C31.7997 24.8054 33.4862 23.572 35.0244 22.1477C36.3917 20.8917 37.7288 19.5855 39.1464 18.3797C39.8878 17.7492 40.873 17.4101 41.6773 16.8374C42.9491 15.9331 44.5401 15.5362 45.7365 14.6871C48.5741 12.6776 51.9496 12.2756 55.0361 11.0272C56.7049 10.3515 58.615 10.4268 60.4222 10.3188C63.2847 10.1814 66.1539 10.3092 68.9929 10.7006C71.3411 11.0248 73.6665 11.4971 75.955 12.1149C76.2993 12.2455 76.7089 12.2329 76.9804 12.5293C77.5211 12.5475 78.0449 12.722 78.4884 13.0317L78.5161 13.0166C81.3789 13.8205 84.0028 15.1921 86.5036 16.7194C89.0572 18.2793 91.1635 20.437 93.325 22.5195C96.3687 25.4509 98.6032 28.9903 100.654 32.5674C103.257 37.1128 105.035 42.0827 105.904 47.2473C106.515 50.8495 106.93 54.4316 106.779 58.0488C106.643 61.2842 106.407 64.58 104.816 67.4938C103.771 69.4004 102.496 71.2065 101.39 73.0855C99.7542 75.8487 97.7536 78.3983 96.2557 81.2544C95.9038 81.9302 95.8987 82.5104 96.3737 83.1057C96.7382 83.5604 97.0875 84.0251 97.457 84.5049C97.3565 84.9144 97.0147 85.1681 96.7583 85.4821C94.4158 84.4522 92.5258 84.8617 90.7262 86.7381C90.1406 87.3812 89.3991 87.9062 88.9165 88.6773H88.8913ZM90.4799 93.9349C88.3435 90.6015 91.6662 87.0797 94.5013 86.8411C95.5067 86.7582 96.0093 87.4389 96.3109 88.2603C96.4843 88.7401 96.1726 89.0139 95.6775 89.0817C93.4758 89.3832 92.6614 90.8401 92.6991 92.8497C92.7142 93.7917 91.9753 93.7088 91.4827 93.9901C91.1685 94.0881 90.8241 94.2238 90.5049 93.9349H90.4799ZM92.8348 104.586C91.8973 104.508 91.2841 104.048 91.274 102.975C91.3695 102.513 91.254 101.873 91.9779 101.745C92.3574 101.677 93.9458 103.272 93.9282 103.689C93.9232 104.367 93.4682 104.638 92.86 104.586H92.8348ZM104.595 94.4624C105.042 96.786 104.175 98.7001 102.702 100.408C100.712 102.712 98.1382 103.531 95.4815 102.154C94.0112 101.4 92.3247 100.479 91.7541 98.5594C91.4475 97.5295 91.5631 96.6704 92.3046 95.9143C93.046 95.1582 93.9106 95.211 94.8179 95.7058C95.9615 96.2998 97.1784 96.7407 98.4372 97.0171C98.8997 97.1301 99.4074 97.2683 99.9679 96.5298C98.4825 96.3941 97.5424 95.4245 96.3159 95.0426C94.8456 94.5855 94.1795 93.1587 94.8079 91.7972C95.2477 90.8301 96.3486 90.8376 97.0097 90.7497C99.0531 90.4759 101.119 90.5487 102.979 91.865C103.417 92.1618 103.788 92.5457 104.071 92.9926C104.353 93.4395 104.54 93.9399 104.62 94.4624H104.595ZM98.1808 87.5344C98.3492 86.8762 98.4674 86.2056 99.4375 86.1101C100.623 86.6417 101.715 87.36 102.672 88.2377C102.924 88.4638 102.841 88.8683 102.672 89.1823C102.474 89.5515 102.139 89.549 101.805 89.4334C100.864 89.0993 99.8941 88.8553 98.9072 88.7049C98.2487 88.612 98.0376 88.195 98.206 87.5344H98.1808ZM114.789 66.6197C114.266 68.6957 113.594 70.7314 112.779 72.7112C111.522 75.7557 110.363 78.8932 108.491 81.5835C107.234 83.3645 106.407 85.4444 104.721 86.9968C102.383 86.1653 100.496 84.6858 98.5026 83.3972C97.8366 82.9651 97.6606 82.435 98.123 81.6011C99.2943 79.486 100.744 77.5819 102.114 75.595C103.265 73.9345 104.065 72.0556 105.218 70.3826C106.543 68.4571 108.058 66.6703 109.742 65.0497C110.698 64.1353 111.597 63.0904 112.786 62.4021C113.975 61.7138 114.621 61.9725 115.003 63.3039C115.375 64.4393 115.073 65.5747 114.814 66.6197H114.789Z" fill="#1D2831"/>
<path d="M20.4897 48.1516C20.4893 48.1558 20.4893 48.16 20.4897 48.1642V48.1516Z" fill="#1D2831"/>
<path d="M81.1376 62.9722C79.4159 62.0654 77.9004 62.7084 76.3396 63.1958C74.8868 63.6479 73.5019 64.5171 72.0316 64.6678C68.5543 64.9916 65.0482 64.802 61.6262 64.1051C59.6934 63.7334 57.7833 63.0878 55.7751 64.3136C53.6889 65.5847 52.9877 67.0768 53.8372 69.3954C54.5209 71.2743 56.0389 72.3796 57.5469 73.4145C60.563 75.4894 64.0164 76.253 66.7887 76.4992C71.6923 76.449 75.5855 75.8411 79.1218 73.5451C82.0751 71.631 83.5153 68.7096 82.9624 65.3134C82.794 64.3011 82.1932 63.5399 81.1376 62.9722ZM70.134 74.2761L69.2996 74.3715H68.5933L68.3219 74.2786L67.7638 74.3238H67.1909C64.4261 74.256 60.6837 73.0678 59.2837 71.749C60.4449 70.7443 61.5156 70.0083 63.2323 69.8927C65.0897 69.7671 66.5877 70.3348 68.1485 71.0332C68.8095 71.3321 69.2493 70.8849 69.7143 70.576C72.0015 69.0537 76.0305 69.5008 78.0085 71.6159C75.6836 73.4722 72.9716 74.0525 70.134 74.2761Z" fill="#1D2831"/>
<path d="M57.2854 60.7491C59.2961 60.6964 61.2868 60.6235 63.0889 59.5559C63.3226 59.4715 63.5693 59.429 63.8178 59.4303C65.3459 58.305 66.8338 57.2098 67.9724 55.5896C69.4678 53.4469 70.5033 51.2162 70.4128 48.5912C70.2444 43.6401 67.7412 40.0153 63.4357 37.8851C60.9977 36.6819 58.2355 36.2574 55.3802 37.119C53.0931 37.8098 50.914 38.7744 49.4688 40.5328C47.3248 43.1402 46.1512 46.2726 46.3447 49.7844C46.4775 52.0714 47.2024 54.2847 48.4484 56.2075C49.6398 58.0739 51.6052 59.1365 53.636 59.9755C54.8575 60.2091 55.996 60.7843 57.2854 60.7491ZM48.2372 49.0409C48.2372 42.6303 52.5527 38.5333 59.6782 38.7418C64.0992 38.8724 68.558 42.7233 68.4223 49.0559C68.2941 55.042 63.9484 58.5687 58.2581 58.933C51.8163 58.5813 48.2473 55.16 48.2422 49.0409H48.2372Z" fill="#1D2831"/>
<path d="M93.2419 53.6528C95.886 48.1541 93.634 38.8849 85.8701 37.2672C80.4462 36.1368 74.7484 38.3172 72.4285 43.8762C70.0458 49.591 72.7628 57.2851 79.466 59.5057L81.0796 59.8951C85.9354 60.3297 91.1156 58.0689 93.2419 53.6528ZM86.9584 57.1696C85.7017 57.7323 84.445 58.207 83.0375 58.1442C80.8182 58.197 78.9281 57.3605 77.2567 55.9563C74.7081 53.8312 73.4239 51.1133 73.7506 47.805C74.002 45.3885 74.4669 42.9669 76.8044 41.5401C77.2894 41.2437 77.3975 40.7187 77.8298 40.3645C81.3134 37.4983 87.9839 39.0532 90.3968 42.3037C92.6412 45.3332 93.0132 48.644 91.7967 52.1959C90.9396 54.625 89.223 56.1322 86.9484 57.1596L86.9584 57.1696Z" fill="#1D2831"/>
<path d="M52.9926 34.9512C54.6062 33.7354 56.3404 32.8437 58.3813 32.605C59.1228 32.5171 59.8517 32.3538 60.6133 32.4342C61.1336 32.4844 61.6814 32.3086 61.8473 31.7861C62.0257 31.2159 61.5105 30.9044 61.1084 30.6055C60.7587 30.3296 60.3488 30.1403 59.912 30.053C59.4752 29.9657 59.0239 29.9828 58.595 30.1031C56.4435 30.7537 54.1589 31.0777 52.2663 32.4618C50.5899 33.6877 49.7152 35.3656 49.1748 37.2622L49.4488 37.4833C50.6351 36.6468 51.8339 35.8228 52.9926 34.9512Z" fill="#1D2831"/>
<path d="M79.069 32.2106C79.8998 31.9389 80.7857 31.8802 81.6452 32.0398C83.6253 32.4545 85.5043 33.2552 87.1747 34.396C87.9588 34.8984 88.743 35.6922 89.8816 35.3581C89.9517 35.1999 89.9732 35.0244 89.9432 34.8539C89.9132 34.6835 89.8332 34.5258 89.7132 34.401C87.4285 31.6379 84.5885 29.8167 80.9667 29.4097C79.9637 29.2675 78.944 29.5089 78.1114 30.0855C77.5458 30.4899 77.2493 31.0677 77.5509 31.7132C77.8424 32.3262 78.4431 32.3965 79.069 32.2106Z" fill="#1D2831"/>
<path d="M65.253 48.8775C65.3586 46.6544 62.4028 43.6024 60.0176 43.6502C57.3433 43.7104 54.8928 46.0164 54.8577 48.7017C54.7018 51.8743 57.4841 53.9492 59.726 54.208C62.4631 54.5245 65.1298 51.4347 65.253 48.8775ZM59.4948 47.1468C59.5828 46.142 60.1006 45.5291 61.1738 45.5241C61.4017 45.5167 61.6288 45.5551 61.8416 45.637C62.0545 45.719 62.2487 45.8428 62.4128 46.0012C62.5769 46.1596 62.7074 46.3492 62.7968 46.5589C62.8862 46.7686 62.9326 46.9942 62.9332 47.2222C62.8879 48.335 62.1666 48.9504 60.9224 48.9303C60.1383 48.9052 59.4118 48.0561 59.4948 47.1468Z" fill="#1D2831"/>
<path d="M83.4574 43.6602C80.8635 43.4819 78.5362 45.7124 78.501 48.0009C78.4457 51.6281 80.4388 53.6252 84.1989 53.6754C85.5184 53.693 88.3686 50.8294 88.3836 48.7193C88.3987 46.4636 85.6742 43.2658 83.4574 43.6602ZM85.8678 46.9986C85.82 47.8979 85.453 48.6716 84.4728 48.757C83.2161 48.8574 82.4923 48.1164 82.5074 46.9408C82.5224 45.8431 83.0402 45.401 84.2818 45.4336C85.35 45.4361 85.9231 45.9888 85.8678 46.9986Z" fill="#1D2831"/>
<path d="M60.9275 48.9303C60.1383 48.9153 59.4194 48.0562 59.4948 47.1468C59.5828 46.142 60.1006 45.5291 61.1738 45.5241C61.4018 45.5167 61.6288 45.5551 61.8417 45.6371C62.0545 45.719 62.2488 45.8429 62.4128 46.0012C62.5769 46.1596 62.7075 46.3492 62.7968 46.5589C62.8862 46.7687 62.9326 46.9942 62.9332 47.2222C62.8879 48.335 62.1666 48.9504 60.9275 48.9303Z" fill="#F6C68D"/>
<path d="M84.2818 45.4186C85.35 45.4362 85.9231 45.9888 85.8678 46.9986C85.82 47.8979 85.453 48.6715 84.4728 48.757C83.2161 48.8574 82.4923 48.1164 82.5073 46.9408C82.5224 45.838 83.0402 45.3884 84.2818 45.4186Z" fill="#F6C68D"/>
</svg>
