<svg width="129" height="130" viewBox="0 0 129 130" fill="none" xmlns="http://www.w3.org/2000/svg">
<path d="M128.818 0.513947H0.13208V129.127H128.818V0.513947Z" fill="#D18647"/>
<path opacity="0.3" d="M66.9884 124.857C94.4729 124.857 116.754 120.695 116.754 115.562C116.754 110.429 94.4729 106.268 66.9884 106.268C39.5039 106.268 17.2233 110.429 17.2233 115.562C17.2233 120.695 39.5039 124.857 66.9884 124.857Z" fill="#1D2831"/>
<path d="M42.6084 114.809C41.4498 112.799 40.7611 110.732 41.2939 108.356C41.6408 106.813 42.4677 105.592 43.5133 104.505C44.8127 103.146 46.175 101.844 47.502 100.511C49.8294 98.172 50.1662 96.1322 48.7235 93.138C48.3867 92.4371 48.0348 91.7438 47.595 90.8571C46.8811 91.9799 46.3383 92.9395 45.6873 93.8438C43.0282 97.5967 39.5296 100.172 34.9979 101.196C33.7136 101.488 32.7208 101.963 32.0346 103.206C31.2555 104.608 29.9309 105.311 28.2646 105.281C27.8172 105.281 27.2592 105.143 27.0079 105.638C26.1508 107.326 24.5572 107.692 22.9261 107.918C19.9351 108.333 16.9316 108.546 13.9658 107.733C10.7764 106.856 9.31107 105.537 9.08487 101.872C8.86871 98.3704 8.77569 94.8737 8.61986 91.3745C8.4012 86.5089 10.7437 85.1776 14.9033 84.4491C16.6878 84.1376 18.49 84.2732 20.2795 84.1426L20.9681 84.2079C21.9986 84.6073 23.102 84.5168 24.1677 84.6876C25.4116 84.8684 26.6178 85.2502 27.7392 85.818C28.1505 86.0289 28.5034 86.338 28.7665 86.7179C29.0296 87.0979 29.1947 87.5368 29.2472 87.9959C29.486 89.4478 31.3082 90.2366 32.5146 89.3851C35.1084 87.5388 37.6043 83.5422 38.1572 80.342C37.8079 80.0782 37.4359 80.239 37.0739 80.2943C33.8582 80.79 30.57 80.1525 27.7729 78.4912C24.9758 76.8299 22.8438 74.2482 21.7423 71.1884C21.2547 69.8545 20.762 68.5081 20.7369 67.0637C20.6917 65.0968 19.455 63.9789 17.9168 63.0746C16.9624 62.5508 16.0661 61.9278 15.2427 61.2158C12.4905 58.7038 12.023 55.5186 13.9206 52.2832C14.471 51.3462 15.0315 50.4117 15.5267 49.4472C16.1801 48.1761 16.1047 47.0708 15.024 45.9304C12.6086 43.3405 12.1185 39.8765 13.609 37.254C14.1795 36.2492 15.0441 35.4957 15.8962 34.7722C17.7083 33.2173 18.4925 31.2555 18.5403 28.9143C18.5604 28.005 18.7287 27.0981 18.8694 25.8497C21.3049 27.6834 21.6593 30.3236 22.3882 32.6974C23.1899 35.34 21.3099 37.5957 20.953 40.1202C22.255 38.6005 23.7354 37.2189 23.7932 35.056C23.8158 34.2196 23.7932 33.3831 23.7932 32.5441C23.8309 29.9593 25.2585 28.2311 27.2642 26.8244C27.7141 27.2515 27.5758 27.7487 27.5305 28.1682C27.332 30.0949 27.9001 31.8106 28.9054 33.4057C30.4486 35.8524 30.607 38.2764 28.7169 40.5924C27.8674 41.6349 27.9428 42.6447 28.4329 43.7425C28.9338 44.7962 29.3498 45.8882 29.677 47.008C30.3732 49.618 29.8706 51.9642 28.2168 54.0868C28.066 54.2869 27.9258 54.4949 27.797 54.7098C27.7517 54.8285 27.7181 54.9513 27.6965 55.0765C29.9711 56.9655 30.6698 59.7387 31.4867 62.4718C32.2658 65.0767 34 66.697 36.7447 67.016C38.9816 67.2672 41.3014 66.3629 41.1707 63.3008C41.0476 60.412 40.1654 57.7166 39.3686 54.9936C38.3633 51.5396 37.3882 48.0757 36.805 44.5262C34.9602 33.3203 39.512 21.1172 50.4879 15.7918C61.5644 10.4162 72.4348 11.0793 82.5361 18.2334C88.7593 22.6369 91.8909 28.9746 91.8356 36.6311C91.8055 41.5872 90.2271 46.149 87.3292 50.2285C85.2532 53.1524 82.888 55.913 81.7545 59.4097C81.5386 60.0865 81.3615 60.775 81.2242 61.472C80.7642 63.7654 81.5307 65.574 83.5993 66.6115C86.7335 68.1865 91.9085 68.297 94.8894 65.0365C96.8448 62.9013 97.1766 60.5024 96.5859 57.8145C96.2648 56.3379 96.2486 54.8113 96.5382 53.3282C96.6789 52.5897 96.4754 52.2028 95.7515 52.0722C94.8769 51.9089 94.0877 51.512 93.2834 51.1578C91.9337 50.565 91.3104 49.6506 91.5969 48.2163C92.2605 44.9005 93.0396 41.6074 93.7609 38.3016C94.2963 35.8524 94.8492 33.4057 95.3318 30.9465C95.5831 29.6905 96.3372 29.266 97.4883 29.3866C100.147 29.6679 102.804 29.9752 105.458 30.3084C107.074 30.5094 108.698 30.6903 110.292 31.0143C111.769 31.3158 112.036 31.8433 111.767 33.3429C111.619 34.1568 111.465 34.9708 111.312 35.7997C112.639 36.5056 113.931 37.0883 115.15 37.8093C116.246 38.4674 116.407 39.226 115.937 40.3213C114.951 42.582 114.021 44.8678 113.034 47.1286C112.896 47.4062 112.824 47.7118 112.824 48.0217C112.824 48.3315 112.896 48.6372 113.034 48.9147C114.961 53.1223 114.205 57.7544 110.807 61.045C108.94 62.784 107.592 65.0054 106.911 67.4631C106.157 70.181 104.649 72.575 102.766 74.7001C102.58 74.9111 102.294 75.0718 102.374 75.5918C104.188 75.9313 105.968 76.4358 107.69 77.099C109.55 77.8787 111.154 79.1656 112.317 80.8126C113.481 82.4596 114.158 84.4004 114.27 86.4134C114.393 88.7847 114.341 91.0781 113.348 93.2761C113.26 93.4659 113.232 93.6776 113.265 93.8839C113.299 94.0902 113.393 94.2818 113.536 94.4342C116.51 98.3127 116.567 102.387 113.657 106.348C112.305 108.187 110.623 109.614 108.2 109.757C107.544 109.8 107.263 110.174 106.991 110.679C106.675 111.269 106.29 111.817 105.483 111.737C105.121 111.046 105.948 110.398 105.446 109.775C105.395 108.657 104.44 108.187 103.772 107.539C103.196 106.988 102.74 106.325 102.432 105.59C102.125 104.855 101.971 104.065 101.982 103.269C102.01 100.506 103.191 98.1042 104.704 95.8735C105.106 95.2782 105.938 95.0445 106.396 94.4266C106.66 94.0674 106.851 93.673 106.602 93.271C106.353 92.8691 105.931 93.0199 105.579 93.143C103.784 93.7459 102.296 94.7155 101.306 96.4085C100.11 98.4734 99.8157 100.767 99.7453 103.045C99.6951 104.711 99.8283 106.517 101.442 107.675C102.207 108.182 103.036 108.584 103.908 108.873C104.39 109.054 104.594 109.297 104.47 109.795C103.784 109.86 103.493 110.373 103.231 110.903C101.99 113.427 99.9037 114.728 97.1792 115.196C96.2291 115.359 95.3469 115.158 94.4722 114.932C93.3085 114.63 92.5168 114.917 92.0795 116.057C91.7438 116.031 91.4062 116.046 91.0741 116.102C89.0634 116.678 87.3794 116.042 85.8287 114.811C84.9238 112.867 85.2405 111.546 86.8767 110.455C88.8271 109.149 91.9764 109.787 93.2156 111.782C93.5624 112.337 93.9293 112.787 94.5778 112.993C96.9454 113.703 99.044 113.143 100.922 111.639C101.404 111.254 101.857 110.792 101.844 110.011C98.1066 108.443 97.5285 105.21 97.5385 101.633C97.2719 102.099 97.0417 102.584 96.8499 103.085C95.4525 106.517 92.5394 107.883 90.0336 107.645C88.3283 107.503 86.7211 106.789 85.4728 105.62C84.2244 104.45 83.4084 102.893 83.157 101.201C82.9013 99.6273 82.9585 98.0183 83.3253 96.4663C83.441 96.0217 83.5767 95.5871 82.9961 95.2957C80.1032 93.8588 77.532 91.9021 74.8276 90.1588C74.6667 90.0759 74.6291 90.1136 74.7145 90.2743C74.8187 90.587 74.9507 90.8896 75.1091 91.1787C77.7607 95.1727 77.992 99.3199 76.0089 103.656C75.6107 104.574 75.3066 105.53 75.1015 106.509C74.629 108.584 75.0487 109.652 76.8608 110.737C78.5193 111.719 79.8764 113.137 80.7843 114.836C80.7592 115.625 80.7968 116.424 80.6938 117.203C80.46 118.961 79.3693 120.079 77.7054 120.511C76.0416 120.943 74.9985 119.994 74.2244 118.685C73.8825 118.107 73.3949 118.099 72.8394 118.062C70.865 117.964 68.9726 117.242 67.4356 115.999C66.7294 115.427 66.2946 114.565 65.5129 114.053C64.991 113.149 64.5696 112.192 64.2562 111.197C63.5324 108.622 64.2839 106.255 65.1762 103.884C65.812 102.196 66.4454 100.433 65.5381 98.6768C64.1683 96.0242 61.7127 94.2382 59.9633 91.5905C59.8176 92.5777 59.8025 92.5828 60.1594 93.6605C61.293 97.0994 60.5314 100.192 58.3272 102.935C57.0829 104.453 55.6466 105.804 54.0544 106.954C52.7886 107.842 51.6231 108.866 50.5784 110.006C49.3544 111.397 49.1584 113.445 50.1361 114.332C50.1507 114.561 50.2129 114.785 50.3189 114.989C50.425 115.193 50.5724 115.373 50.7518 115.517C51.4882 116.215 51.7572 117.057 51.3726 118.009C50.9881 118.961 50.1562 119.217 49.2514 119.3C46.8662 119.521 45.2299 118.295 43.85 116.522C43.3901 115.964 43.2192 115.226 42.6084 114.809ZM93.3537 81.1483L93.1024 81.3995C90.9057 83.2132 90.1894 85.7 89.5635 88.5812L90.6091 88.1969C91.4612 88.3275 91.8256 87.9155 92.1172 87.1268C92.9064 85.0192 93.9269 83.0222 95.5555 81.4045C97.6919 79.2844 100.331 78.8926 103.176 79.1438C106.75 80.1913 108.53 82.7509 109.208 86.2576C109.578 88.1847 109.63 90.1592 109.362 92.103C109.299 92.5803 109.037 93.1732 109.93 93.1204C111.066 93.3867 111.762 92.9194 112.114 91.8343C112.631 90.2366 112.953 88.6265 112.564 86.946C112.518 86.5742 112.488 86.1924 112.425 85.8307C111.742 81.7336 108.329 78.2294 104.682 77.8702C104.099 77.501 103.453 77.4356 102.776 77.3954C99.7403 77.2171 97.066 78.1666 94.6356 79.9074L94.6104 80.1586C94.5023 80.1461 94.3928 80.1628 94.2933 80.2069C94.1938 80.2511 94.1081 80.3212 94.0449 80.4098L93.6051 80.7891C93.5196 80.9146 93.4342 81.0403 93.3537 81.1684V81.1483ZM17.198 45.2623C17.609 45.9755 17.8858 46.7579 18.0149 47.5708C17.8854 48.1766 17.7244 48.7753 17.5323 49.3644C17.0297 50.6831 16.0997 51.7934 15.6674 53.1499C15.1647 54.343 14.7701 55.5664 15.0441 56.8701C15.4739 58.9023 17.0774 59.9899 18.6307 61.0701C20.0382 62.0522 21.5814 62.8686 22.2902 64.5717C22.4511 65.5112 22.632 66.4482 22.7728 67.3902C23.6173 72.9844 27.5105 77.1317 32.952 78.2269C36.5964 78.9604 39.6602 77.5486 41.4246 74.3308C41.6458 73.9289 41.8896 73.542 42.1233 73.1476C42.543 72.9266 42.8497 72.4569 43.4253 72.5448C43.506 72.7355 43.5465 72.9408 43.5443 73.1478C43.5422 73.3548 43.4974 73.5591 43.4128 73.748C42.0329 76.8981 40.7712 80.1008 39.3285 83.2207C38.0567 85.9713 37.1645 89.0258 34.2238 90.6485C33.7337 93.6252 34.1434 96.6522 33.6734 99.6238C33.8317 99.6489 33.9247 99.6968 33.99 99.6717C34.7214 99.3652 35.4478 99.0486 36.1792 98.7372C40.8088 96.7627 44.2019 93.5173 46.283 88.9229C46.4715 88.5084 46.7279 88.0864 46.6022 87.6092C46.2529 86.2954 46.4464 84.9489 46.3308 83.62C46.4564 81.829 46.939 80.1862 48.2937 78.679C48.3421 78.8768 48.3724 79.0786 48.3842 79.2819C48.354 79.6134 48.2962 79.945 48.2585 80.2867C47.874 83.6075 47.9317 86.8731 49.4121 89.9779C50.0204 91.2565 50.6311 92.5375 51.1715 93.8463C51.6566 95.0344 52.275 96.2779 51.8376 97.5766C51.3471 99.088 50.5106 100.464 49.3946 101.596C47.8589 103.131 46.1498 104.492 44.7851 106.203C42.9352 108.521 42.8095 110.267 44.3477 112.86C45.1319 116.216 47.5925 118.074 49.7339 116.924C49.8194 116.472 49.4222 116.281 49.2312 115.979C47.0119 112.623 47.2205 110.88 49.9349 107.966C51.262 106.537 52.9284 105.432 54.3761 104.11C55.8238 102.789 57.4626 101.613 57.8346 99.4932C58.8399 98.2121 58.762 96.7527 58.5257 95.2707C58.3322 94.0524 57.6159 92.8541 57.9878 91.6257C58.4026 90.2617 57.9703 89.2117 57.2465 88.1617C56.128 85.7854 55.4871 83.4066 57.0956 80.8645C57.5983 81.6884 57.6461 81.6883 57.6561 82.2184C57.7365 86.3204 60.2348 89.1942 62.7808 91.9649C64.3618 93.6856 65.9754 95.3836 67.1366 97.3882C67.6512 98.2393 67.9618 99.1979 68.0437 100.189C68.1257 101.18 67.977 102.177 67.6092 103.1C66.9507 104.844 66.1438 106.582 66.2393 108.529C65.7366 111.732 68.157 115.452 71.3364 116.002C73.1486 116.316 74.9708 116.55 76.2426 118.117C76.5592 118.509 76.974 118.597 77.4616 118.263C78.6931 117.421 79.0073 116.097 78.301 114.781C77.5068 113.297 76.0641 112.556 74.7823 111.664C73.0681 110.486 72.7917 108.83 72.9375 106.941C73.0682 105.278 74.051 103.887 74.3325 102.279C75.5364 100.161 75.5891 97.966 74.7848 95.7103C74.8276 94.8813 74.4556 94.1704 74.0836 93.4771C73.2165 91.8619 72.093 90.415 71.0097 88.9555C69.677 87.1046 68.7072 85.0181 68.152 82.8062C67.9484 82.0376 67.7474 81.1282 68.5517 80.352L69.0342 81.1608C69.5671 82.7559 70.203 84.3838 71.5476 85.381C74.9734 87.9081 78.4218 90.4225 82.129 92.5401C82.8001 92.922 83.451 93.3867 84.2703 93.5022L85.6778 91.0531C87.5201 89.8423 87.9123 88.0386 87.7338 85.9487C84.4664 84.5294 82.134 81.9697 80.0404 79.1663C79.2512 78.1138 78.364 77.0463 78.281 75.622C78.2559 75.1196 78.203 74.5016 79.0526 74.9161V74.8885C79.0344 74.9683 79.0479 75.052 79.0902 75.122C79.4446 75.9334 80.455 76.0942 80.8496 76.8528C81.4001 77.9179 82.3929 78.3274 83.4309 78.6816C85.9795 79.5532 88.6085 79.5456 91.2425 79.3296C91.9971 79.2514 92.713 78.9565 93.3035 78.4806C94.6437 77.476 96.1216 76.6698 97.6919 76.0867C98.424 75.7816 99.0968 75.3504 99.6799 74.8131C102.57 72.3337 104.357 69.1737 105.398 65.5765C105.96 63.6016 107.065 61.8238 108.587 60.4446C109.844 59.2766 110.958 57.9577 111.566 56.3124C112.227 54.5163 112.166 52.7177 111.566 50.5675C111.131 51.4693 110.872 52.0294 110.593 52.5771C109.502 54.7424 109.336 54.8002 107.009 54.1194C105.991 53.8205 104.971 53.3986 103.865 53.6774C103.724 54.2124 103.915 54.6243 104.116 55.0313C104.116 55.4583 104.418 55.908 103.975 56.3929C102.658 55.8905 102.254 54.7902 102.216 53.5518C102.178 52.547 102.354 51.5573 102.367 50.5575C102.379 49.4146 101.522 48.9072 100.499 49.4171C100.065 49.6666 99.7228 50.0499 99.5242 50.5097C98.8567 51.7157 98.453 53.0498 98.3399 54.4234C98.2268 55.797 98.4068 57.1789 98.8681 58.4777C99.2202 59.5006 99.2871 60.6 99.0616 61.6579C98.5967 63.8434 97.3022 65.3907 95.7791 66.9506C94.4265 68.3739 92.6353 69.3027 90.6921 69.5882C87.5101 70.1032 84.4086 69.862 81.5962 68.081V68.1136L81.0758 67.7218C78.7987 65.1646 78.6705 62.2834 79.6608 59.1611C80.7566 55.6996 82.9106 52.8811 84.9867 49.9998C89.4504 43.8103 91.0967 37.0984 88.6135 29.6881C87.3043 25.6843 84.68 22.24 81.1664 19.9139C79.4548 18.6002 77.6878 17.4849 75.5691 16.7916C74.1641 16.3319 72.7515 15.95 71.3565 15.5155C69.895 15.1015 68.3981 14.824 66.8852 14.6865C62.2832 14.1389 57.8697 15.2366 53.5643 16.7086C49.3769 18.1455 46.004 20.8258 43.3826 24.3702C41.6584 26.6988 40.472 29.3338 39.5974 32.097C39.0796 33.7298 39.0696 35.4429 38.8232 37.1209C38.1673 41.5646 38.979 45.825 40.1654 50.0552C41.3265 54.2049 42.812 58.2743 43.3248 62.5798C43.7043 65.7499 42.7743 67.6037 40.1152 68.6211C37.6671 69.558 35.1436 69.4525 32.9444 67.9051C30.4461 66.1467 29.3628 63.3987 28.6239 60.5853C28.2952 59.2948 27.6549 58.1045 26.759 57.1187C25.9371 56.1968 25.2309 56.2772 24.6 57.3699C24.3487 57.812 24.0973 58.1939 23.5192 58.3924C22.7048 56.7722 23.1799 55.378 24.0998 54.0542C25.9245 53.4865 27.2516 52.4389 27.7543 50.4871C28.0056 49.5175 27.797 48.5856 27.7694 47.636C27.7266 46.257 26.9626 45.104 26.5781 43.8354C26.088 42.2228 25.9296 40.6452 27.3321 39.3139C27.7913 38.9038 28.1181 38.3665 28.2712 37.7703C28.4242 37.1741 28.3966 36.5458 28.1917 35.9654C27.6161 34.2522 26.8067 32.617 26.0225 30.7732C25.359 31.793 25.4872 32.72 25.5198 33.6068C25.6003 35.2596 25.447 36.8094 24.5271 38.289C23.2553 40.3362 21.3476 42.1122 21.7497 44.9081C21.3853 44.795 21.2672 44.795 21.2471 44.7473C21.0359 44.3428 20.8776 43.9058 20.6338 43.524C19.1258 41.1678 18.8192 38.8668 20.2845 36.2669C21.1441 34.7421 21.0385 32.9084 20.2417 31.2128C20.1057 31.2678 19.9882 31.3602 19.9028 31.4794C19.8173 31.5986 19.7675 31.7396 19.7592 31.886C19.3218 33.8202 18.2512 35.4027 16.5898 36.3748C14.0764 37.8519 14.0212 42.8684 16.4617 44.3052L17.198 45.2623ZM84.3257 81.1558L84.2679 81.098L84.3206 81.1608C85.6804 82.2686 86.9471 83.5221 88.6939 84.1426L90.0712 81.6507C87.96 81.819 86.1705 81.2035 84.3131 81.1658L84.3257 81.1558ZM105.421 106.896C106.979 108.258 108.454 108.456 110.058 107.263C112.84 105.193 114.064 102.274 113.898 98.8879C113.783 96.5292 112.202 95.0797 109.93 94.7506C108.902 94.5672 108.019 94.9164 107.263 95.567C104.83 97.6545 103.103 101.533 104.305 105.301C104.506 105.979 104.795 106.542 105.408 106.906L105.421 106.896ZM27.224 89.1866C27.5331 88.0261 26.9726 87.4283 25.9522 86.9711C22.8004 85.5619 19.4803 85.8935 16.2003 86.0191C14.559 86.0793 12.8927 86.3104 11.4248 87.2876C10.5326 87.8879 10.0475 88.6014 10.1958 89.6815C10.7286 93.5751 10.6432 97.5037 10.9272 101.412C11.1484 104.474 11.7993 105.246 14.8153 105.831C16.9316 106.243 19.063 106.052 21.1918 105.992C21.8554 105.926 22.519 105.879 23.18 105.796C24.8941 105.58 25.7285 104.934 25.9069 103.244C26.4171 98.5588 26.7967 93.8689 27.224 89.1866ZM97.3727 50.5022C98.2348 48.8343 99.0315 46.9628 101.206 47.1763C103.94 47.4426 103.855 49.8115 103.993 51.8135C104.805 51.8412 105.013 51.414 105.147 50.8966C106.614 45.1944 108.067 39.4898 109.565 33.7952C109.832 32.7904 109.442 32.3834 108.525 32.2679C105.126 31.8375 101.729 31.4121 98.3328 30.9918C97.6567 30.9089 97.2193 31.1324 97.0761 31.876C96.875 32.941 96.5231 33.9834 96.3799 35.056C95.8584 38.693 95.1028 42.2927 94.1178 45.8325C93.1904 49.294 93.2357 49.4698 96.7595 50.3766C96.9128 50.4218 97.0761 50.4445 97.3727 50.5022ZM98.2474 97.8755C99.3583 95.5193 100.147 94.193 101.429 93.0852C102.872 91.8418 104.41 90.7742 106.504 91.1761C107.281 91.3243 107.592 90.9249 107.705 90.1387C107.929 88.436 107.744 86.7047 107.167 85.0871C105.694 80.7012 100.854 79.2392 97.3777 82.1205C95.7365 83.4794 94.6456 85.2554 93.8765 87.2374C93.6076 87.9282 93.7735 88.2672 94.4797 88.5586C96.694 89.468 97.7748 91.2389 98.1267 93.5499C98.3454 94.9968 98.4886 96.4312 98.2474 97.8781V97.8755ZM96.6111 95.7303C96.6324 95.3957 96.6324 95.0601 96.6111 94.7255C96.4553 93.2183 95.9803 91.7539 94.7186 90.9275C92.8461 89.7016 90.7347 89.581 88.7944 90.8295C85.9166 92.6808 84.7378 95.5671 84.5996 98.8251C84.401 103.555 87.3166 105.944 91.8884 104.974C92.7184 104.822 93.4927 104.452 94.1319 103.901C94.7711 103.351 95.2521 102.64 95.5253 101.842C96.3003 99.9009 96.6698 97.8219 96.6111 95.7328V95.7303ZM28.7219 94.8838C29.1216 94.8336 29.476 94.7783 29.8479 94.7431C30.2601 94.7055 30.6748 94.6978 31.0895 94.6576C32.1351 94.5597 32.6403 93.9342 32.5071 92.8993C32.4192 92.2361 32.1 91.6936 31.449 91.4876C30.6598 91.2364 29.8354 91.0982 29.011 91.3343C28.9079 91.3645 28.8124 91.6057 28.8023 91.7539C28.7345 92.7788 28.4078 93.7911 28.7219 94.8863V94.8838ZM89.458 114.804C90.677 114.804 91.5693 114.148 91.514 113.297C91.4612 112.493 90.4885 111.769 89.5033 111.789C88.3647 111.825 87.382 112.543 87.377 113.327C87.3669 114.246 88.1736 114.809 89.458 114.809V114.804ZM28.4631 99.124C29.373 99.124 30.2048 99.1717 31.0267 99.1039C31.2833 99.0937 31.5273 98.9899 31.7125 98.8122C31.8977 98.6345 32.0114 98.3951 32.0321 98.1393C32.0885 97.8902 32.0552 97.6292 31.9379 97.4022C31.8207 97.1752 31.6271 96.9968 31.3912 96.8984C30.5291 96.5292 29.5438 96.2855 28.7169 96.7125C28.0006 97.0817 28.4078 97.9986 28.3399 98.6768C28.3595 98.8318 28.401 98.9832 28.4631 99.1265V99.124ZM28.0283 103.048C29.7877 103.008 30.4436 102.482 30.6145 101.005C28.4831 100.433 27.9981 100.815 28.0308 103.05L28.0283 103.048Z" fill="#1D2831"/>
<path d="M105.999 7.79871C106.034 7.86904 106.117 7.95698 106.099 8.00973C105.179 10.6046 105.946 12.8955 107.275 15.1362C108.419 17.0629 108.404 19.0146 107.077 20.8886C106.547 21.6422 106.059 22.4159 105.494 23.1368C104.395 24.5385 103.546 25.9301 105.305 27.4448C104.777 27.8342 104.403 27.6709 104.048 27.4298C102.651 26.4878 101.867 24.1341 102.43 22.5189C102.773 21.6232 103.207 20.7647 103.724 19.9566C104.569 18.5298 104.951 17.0578 104.146 15.4502C103.722 14.5877 103.422 13.6691 103.256 12.7222C103.093 11.7129 103.274 10.6778 103.772 9.78437C104.269 8.89094 105.054 8.19135 105.999 7.79871Z" fill="#EFE5DF"/>
<path d="M22.9688 26.9349C22.1972 26.0633 22.2274 25.0459 22.054 24.1466C21.7122 22.3882 20.7092 20.8283 20.6866 18.9719C20.6551 17.7572 21.0772 16.5743 21.8705 15.6536C23.4163 13.7721 25.2786 12.0565 25.3088 9.12247C26.0879 9.76804 26.1834 10.4287 26.2312 11.0592C26.392 13.1517 26.2111 15.1411 24.6126 16.7588C23.6072 17.7862 23.9013 19.0046 24.3612 20.155C25.0222 21.7677 25.2585 23.3578 24.4718 24.9956C24.1376 25.7555 23.6215 26.4216 22.9688 26.9349Z" fill="#EFE5DF"/>
<path d="M104.438 109.785C104.561 109.282 104.357 109.044 103.875 108.863C103.003 108.574 102.174 108.172 101.409 107.665C99.7957 106.507 99.6625 104.701 99.7128 103.035C99.7832 100.757 100.077 98.4634 101.274 96.3985C102.259 94.6979 103.747 93.7283 105.546 93.133C105.898 93.0149 106.32 92.8567 106.569 93.2611C106.818 93.6656 106.627 94.0573 106.363 94.4165C105.906 95.0345 105.074 95.2682 104.672 95.8635C103.164 98.0941 101.977 100.506 101.95 103.259C101.939 104.055 102.092 104.845 102.4 105.58C102.708 106.315 103.164 106.978 103.739 107.529C104.398 108.177 105.363 108.647 105.413 109.765L104.438 109.785Z" fill="#323948"/>
<path d="M16.8587 82.6806C15.4663 83.1604 14.9561 82.4545 14.574 81.6406C13.8778 80.1611 14.1317 78.6137 14.7726 77.2698C15.5719 75.5943 15.5266 74.1348 14.6997 72.5146C14.372 71.9017 14.196 71.2192 14.1864 70.5243C14.1767 69.8294 14.3339 69.1423 14.6445 68.5206C14.8682 68.0634 15.1698 67.5837 15.7655 67.7017C16.3611 67.8198 16.1901 68.3649 16.1876 68.7492C16.1751 70.078 17.1603 70.9321 17.7208 71.9771C18.7664 73.9214 18.8015 75.7801 17.6278 77.6591C17.3765 78.0459 17.1754 78.4554 16.9618 78.8624C16.3359 80.0631 15.6598 81.2638 16.8587 82.6806Z" fill="#EFE5DF"/>
<path d="M114.956 20.7906C115.068 20.9235 115.141 21.0836 115.17 21.2545C115.199 21.4254 115.181 21.6007 115.12 21.7627C114.313 23.7547 114.7 25.5834 115.776 27.3644C116.673 28.849 116.643 30.3536 115.776 31.8734C115.361 32.5918 115.097 33.3957 114.74 34.1468C114.597 34.4507 114.383 34.7622 113.974 34.6492C113.564 34.5361 113.426 34.1292 113.534 33.7398C114.187 31.3811 113.295 29.2182 112.712 27.0152C112.242 25.2317 112.209 23.4583 113.451 21.9009C113.84 21.4035 114.27 20.9639 114.956 20.7906Z" fill="#EFE5DF"/>
<path d="M94.2838 27.3418C94.2461 27.1157 94.1933 27.0103 94.226 26.9575C95.5807 24.7495 95.0428 22.6043 94.1858 20.3736C93.4644 18.5022 93.8137 16.6785 95.083 15.0532C95.5605 14.4428 95.9351 13.7495 96.39 13.0436C96.754 13.3392 96.9984 13.7566 97.0779 14.2186C97.1574 14.6805 97.0666 15.1555 96.8224 15.5556C95.9402 17.1984 96.209 18.7458 96.8675 20.366C97.7598 22.564 97.6894 24.6916 96.1437 26.646C95.6687 27.2388 95.1384 27.603 94.2838 27.3418Z" fill="#EFE5DF"/>
<path d="M14.7274 19.713C14.4258 21.4337 15.1497 22.6243 15.7001 23.8652C16.4843 25.6236 16.2857 27.2238 15.1773 28.8289C14.4409 29.894 13.3074 30.9741 14.6295 32.6696C12.6188 31.8156 12.1462 30.2432 13.1716 28.8767C14.3605 27.2916 13.9407 25.6261 13.423 23.9657C12.9505 22.3982 13.1641 21.0519 14.7274 19.713Z" fill="#EFE5DF"/>
<path d="M32.8062 17.7737C32.1729 19.6502 32.7711 21.2327 33.4271 22.8303C34.156 24.6012 33.7161 26.3772 32.3815 27.4976C32.095 27.7487 31.821 28.0502 31.3987 27.794C30.9765 27.5378 31.0419 27.156 31.2229 26.7892C31.9894 25.282 31.7431 23.8653 31.0871 22.3606C30.3507 20.6701 30.602 18.1229 32.8062 17.7737Z" fill="#EFE5DF"/>
<path d="M20.9682 84.1928L20.2796 84.1275C19.7769 82.8715 20.0282 81.5125 19.6261 80.2188C19.3471 79.3371 20.5008 78.9805 20.8828 78.0536C21.5891 79.5608 21.8882 80.7916 21.4106 82.138C21.1945 82.8012 20.9054 83.4619 20.9682 84.1928Z" fill="#EFE5DF"/>
<path d="M44.3302 112.867C42.792 110.275 42.9176 108.529 44.7675 106.21C46.1322 104.5 47.8414 103.138 49.3771 101.603C50.4931 100.472 51.3295 99.0956 51.8201 97.5842C52.2574 96.2855 51.6391 95.0421 51.154 93.8539C50.6187 92.5452 50.0079 91.2641 49.3947 89.9855C47.9143 86.8807 47.8565 83.6151 48.2411 80.2943C48.2788 79.9627 48.3366 79.6311 48.3667 79.2895C48.3549 79.0862 48.3245 78.8845 48.2762 78.6867C46.9214 80.1938 46.439 81.8367 46.3133 83.6277C46.1424 83.5247 46.1826 83.2132 45.8483 83.2132C43.3902 87.9307 40.6807 92.4622 35.4981 94.9038C35.0457 93.3389 34.8496 91.9298 34.2062 90.6562C37.1469 89.0334 38.0391 85.9788 39.3109 83.2282C40.7536 80.1083 42.0153 76.9056 43.3952 73.7556C43.4798 73.5666 43.5247 73.3623 43.5269 73.1553C43.529 72.9483 43.4885 72.743 43.4078 72.5523C42.8322 72.4644 42.5256 72.9342 42.1058 73.1553C40.9095 73.3914 40.06 74.3459 38.8636 74.6448C35.8701 75.3984 33.0375 75.3607 30.4311 73.4516C29.7449 72.9492 29.7148 72.4343 30.0617 71.7335C30.313 71.2461 30.876 70.8592 30.6171 70.1031C30.1899 70.4423 29.8154 70.7638 29.4132 71.0502C28.8402 71.4596 28.2772 71.5249 27.7469 70.9396C26.0579 69.0758 23.9038 67.6012 22.8809 65.1621C22.8289 65.0249 22.7476 64.9007 22.6425 64.7983C22.5375 64.6959 22.4112 64.6178 22.2726 64.5693C21.5639 62.8662 20.0106 62.0574 18.6131 61.0676C17.0599 59.9875 15.4563 58.8997 15.0265 56.8676C14.7526 55.5639 15.1548 54.3406 15.65 53.1449C15.6252 53.5526 15.6318 53.9616 15.67 54.3682C15.7403 54.8103 15.8586 55.3127 16.326 55.4936C16.8991 55.7146 17.0801 55.1092 17.3892 54.8354C17.9346 54.3632 18.108 53.5066 18.9424 53.3282C18.8117 54.1848 18.2764 55.0866 19.1937 55.8402C20.1513 56.3828 20.7546 56.0914 21.3301 55.1645C21.8529 54.3155 22.0339 53.2856 22.7753 52.5672C23.6198 52.6953 23.5495 53.6297 24.0723 54.0442C23.1499 55.3755 22.6749 56.7621 23.4892 58.3824C24.0748 58.1839 24.3135 57.802 24.5699 57.3599C25.2008 56.2722 25.907 56.1918 26.7289 57.1087C27.6248 58.0944 28.2652 59.2848 28.5939 60.5753C29.3328 63.3887 30.4161 66.1343 32.9144 67.8952C35.1136 69.4426 37.637 69.548 40.0851 68.611C42.7442 67.5937 43.6742 65.7399 43.2947 62.5698C42.792 58.2643 41.2966 54.1949 40.1354 50.0451C38.9491 45.815 38.1246 41.5546 38.7931 37.1109C39.0445 35.4354 39.0445 33.7223 39.5673 32.087C40.4419 29.3238 41.6283 26.6888 43.3525 24.3602C45.9739 20.8158 49.347 18.1355 53.5343 16.6986C57.8297 15.2266 62.2432 14.1289 66.8552 14.6765C68.3681 14.814 69.8649 15.0915 71.3264 15.5054C72.7214 15.94 74.134 16.3218 75.5389 16.7815C77.6577 17.4748 79.4247 18.5901 81.1363 19.9039C80.4778 20.0672 80.9302 20.3913 81.0458 20.6349C81.8426 22.3406 82.7323 24.0034 83.4386 25.7442C84.9818 29.5524 85.7458 33.4786 85.1325 37.6234C84.3986 42.5619 82.207 46.9177 79.9198 51.2508C77.9091 55.0715 76.21 58.9952 75.926 63.4037C75.7425 66.2624 76.6097 68.8397 78.4394 70.2991C78.7511 69.9625 78.1378 69.4777 78.6907 69.1134C79.5579 69.6158 80.2591 68.5709 81.184 68.7744C81.4831 68.8397 81.4882 68.3448 81.5636 68.071C84.3811 69.857 87.4776 70.0982 90.6595 69.5782C92.6028 69.2926 94.3939 68.3639 95.7466 66.9406C97.2546 65.3807 98.5641 63.8333 99.0291 61.6479C99.2546 60.59 99.1877 59.4906 98.8355 58.4677C98.3742 57.1689 98.1941 55.787 98.3072 54.4134C98.4203 53.0398 98.824 51.7058 99.4915 50.4998C99.6901 50.04 100.032 49.6566 100.467 49.4071C101.49 48.9047 102.347 49.4071 102.334 50.5475C102.322 51.5523 102.146 52.5571 102.183 53.5418C102.229 54.7802 102.633 55.8754 103.943 56.3828C104.385 55.898 104.083 55.4484 104.083 55.0214C104.513 55.3605 104.767 55.7749 105.556 55.4459C106.941 54.8681 108.163 56.0687 107.7 57.4855C106.192 62.1226 104.134 66.5286 100.994 70.2966C98.9536 72.7457 96.5584 74.8509 93.3212 75.715C92.4943 75.9335 92.0218 75.8255 91.876 74.9312C91.8383 74.6976 91.876 74.4113 91.499 74.2957C91.3217 74.3379 91.1643 74.4397 91.0535 74.5843C90.9427 74.729 90.8852 74.9074 90.8907 75.0894C90.8907 76.3253 89.9708 76.5238 89.1062 76.5841C87.4798 76.723 85.843 76.6834 84.2252 76.466C82.3075 76.1821 80.4979 75.8104 79.5227 73.8686C79.5076 73.836 79.3744 73.8686 79.2864 73.8686C78.9446 74.1525 79.0979 74.5645 79.0351 74.9187C78.1856 74.5042 78.2383 75.112 78.2634 75.6245C78.3413 77.0487 79.2286 78.1164 80.0228 79.1689C82.1164 81.9622 84.449 84.5219 87.7164 85.9513C87.8948 88.0387 87.5027 89.8448 85.6604 91.0555C80.0731 88.7596 74.9332 85.7352 70.399 81.7236C70.012 81.3795 69.6677 80.8645 69.0092 81.1634L68.5266 80.3545C67.7223 81.1307 67.9233 82.0401 68.1269 82.8087C68.6822 85.0205 69.6519 87.1071 70.9847 88.958C72.0679 90.43 73.1914 91.8769 74.0585 93.4796C74.4305 94.1729 74.8125 94.8838 74.7598 95.7128C74.2571 95.763 74.1063 95.0772 73.4402 95.1425C71.9699 96.9964 71.515 99.4606 70.2834 101.523C70.0044 102.887 69.1826 104.06 69.1173 105.542C69.0419 107.22 67.7952 108.318 66.2269 108.536C66.1314 106.59 66.9381 104.851 67.5966 103.108C67.9644 102.184 68.1132 101.187 68.0312 100.196C67.9492 99.2054 67.6388 98.2469 67.1241 97.3958C65.9629 95.3863 64.3594 93.6931 62.7684 91.9724C60.2223 89.2092 57.724 86.328 57.6436 82.226C57.6436 81.696 57.5883 81.6959 57.0831 80.872C55.477 83.4141 56.1155 85.793 57.2339 88.1694C55.8968 89.6765 55.5852 91.5228 55.6028 93.457C55.6028 94.2106 55.751 94.9642 55.6178 95.6926C55.4217 96.7602 55.3841 98.0439 54.042 98.4232C53.1975 98.6618 52.8933 99.1567 52.8883 99.9505C52.7093 100.235 52.6306 100.571 52.6645 100.905C52.6645 101.53 52.7149 102.161 52.6772 102.776C52.6445 103.312 52.3655 103.764 51.8025 103.857C51.1063 103.972 51.1491 103.409 51.0787 102.96C50.9455 102.128 50.5081 102.141 49.9501 102.583C49.3921 103.025 48.7612 103.565 48.9045 104.324C49.2162 105.979 48.1757 106.273 46.9592 106.534C45.2652 106.896 44.8857 107.62 45.514 109.162C46.067 110.559 45.5417 112.224 44.3302 112.867ZM72.0152 42.3031C73.008 41.9012 74.4984 42.3031 74.8703 40.5925C73.6262 40.5372 72.5581 40.2408 71.4321 40.2157C68.9187 40.1629 66.4228 40.065 63.9321 39.8389C61.577 39.6254 61.5871 39.5426 61.1673 37.229C61.0819 36.7568 60.9009 36.3497 60.3606 36.2493C59.6945 36.1237 59.4407 36.601 59.31 37.0783C59.114 37.7917 58.8651 38.5201 59.0888 39.2837C58.4051 39.6204 57.5028 39.2838 56.9423 39.9972C56.7789 39.3592 56.8041 38.6508 56.3065 38.0881C55.8365 38.5126 55.7913 39.025 55.6354 39.4872C54.6904 39.1205 53.7102 39.2838 52.74 39.2938C52.7913 39.1796 52.826 39.0587 52.8431 38.9347C52.8305 38.2715 53.2426 37.4652 52.3705 37.0557C51.4229 36.6136 51.2143 37.5454 50.7569 38.0076C49.9426 38.8316 49.1861 39.7661 47.9068 39.8465C45.7553 39.9721 43.6189 40.4996 41.4448 40.05C40.9422 39.947 40.3666 40.0122 40.2183 40.6126C40.0826 41.1552 40.5677 41.3813 40.9724 41.6174C41.284 41.7957 41.7515 41.6551 41.9626 42.1374C40.9723 43.3206 40.5827 44.7675 40.4244 46.2721C40.1957 48.4902 40.5149 50.5978 41.9324 52.4365C43.1313 54.0015 44.5237 55.1996 46.6626 55.1293C47.0697 55.1142 47.5322 55.2197 47.4166 55.9055C46.8285 56.2797 45.969 56.1567 45.4236 56.7772C45.7428 57.3625 46.062 57.7392 46.8059 57.3122C47.2413 57.0657 47.7286 56.9255 48.2284 56.9028C50.1512 56.85 51.4054 55.5639 52.652 54.4159C54.1349 53.0519 55.4318 51.4845 56.1129 49.392C56.6584 52.5671 58.4982 54.4661 61.2051 56.0562C63.7119 57.5963 66.6819 58.2031 69.5922 57.7694C68.4888 57.0586 67.1493 57.0987 65.6262 56.5135C67.2523 56.2321 68.5819 56.3853 69.7305 55.4809C70.3363 55.0012 70.6705 54.3381 71.2712 53.8985C73.5106 52.2531 74.0661 49.8366 74.1717 47.2744C74.2245 45.9983 73.9581 44.7448 72.9979 43.7576C72.4023 42.9387 73.2694 42.881 73.8827 42.5469C73.1035 42.3786 72.5003 42.7151 72.0152 42.3031ZM58.0584 60.1156C57.3496 60.1834 56.6457 60.2638 55.937 60.314C53.4236 60.4949 51.4129 61.8212 49.4148 63.1952C49.2694 63.2815 49.1436 63.397 49.0454 63.5346C48.9472 63.6721 48.8788 63.8287 48.8445 63.9942C48.8102 64.1596 48.8108 64.3304 48.8462 64.4956C48.8816 64.6608 48.9512 64.8167 49.0503 64.9536C49.5379 65.6796 50.0909 65.3204 50.6338 64.8883C51.7045 64.0368 52.823 63.2681 54.1526 62.8411C58.5887 61.4294 62.3814 62.3788 65.5734 65.7951C65.9931 66.2423 66.6641 66.609 67.2774 65.9735C67.8002 65.4334 67.9258 64.7803 67.3829 64.1925C64.8796 61.472 61.7103 60.2362 58.0584 60.1156ZM55.3062 19.3186C53.0919 19.6954 51.996 20.9941 52.2373 22.8354C52.4082 24.1416 52.0714 25.1388 51.0233 25.8924C50.6903 26.1153 50.4176 26.4171 50.2294 26.7707C50.0413 27.1244 49.9436 27.5191 49.9451 27.9196C49.9451 29.5097 50.6992 30.826 51.6341 32.0594C52.3454 31.4841 52.4333 30.9239 52.0412 30.2306C51.4857 29.2534 51.7094 28.3994 52.5439 27.6684C52.9536 27.3117 53.318 26.9148 53.7051 26.523C54.2882 25.9452 54.5245 25.267 54.2782 24.4657C53.7328 22.6872 53.8509 21.0117 55.3062 19.3186ZM79.4774 38.4323C79.9751 38.1928 80.4019 37.8282 80.7161 37.3741C81.0302 36.9201 81.2209 36.3923 81.2694 35.8424C81.5032 33.8328 80.42 32.0266 80.2817 30.0321C79.8599 30.3392 79.5468 30.7726 79.3877 31.2694C79.2286 31.7661 79.2319 32.3005 79.397 32.7953C79.8997 34.4557 80.0053 36.0609 79.2236 37.6535C79.1281 37.852 79.113 38.063 79.4774 38.4448V38.4323Z" fill="#8F5F87"/>
<path d="M81.566 68.0861C81.4906 68.3599 81.4857 68.8547 81.1866 68.7894C80.2616 68.5859 79.5603 69.6209 78.6932 69.1285C78.1478 69.4928 78.761 69.9776 78.4418 70.3142C76.6096 68.8548 75.7425 66.2774 75.9285 63.4188C76.2125 59.0103 77.9065 55.0866 79.9223 51.2659C82.2095 46.9302 84.4012 42.577 85.1351 37.6384C85.7484 33.4937 84.9842 29.5675 83.441 25.7593C82.7348 24.0185 81.845 22.3556 81.0483 20.65C80.9326 20.3988 80.4802 20.0823 81.1387 19.919C84.6524 22.245 87.2768 25.6893 88.586 29.6931C91.0692 37.1034 89.4229 43.8154 84.9591 50.0049C82.8831 52.8836 80.7291 55.7046 79.6333 59.1661C78.643 62.2885 78.7711 65.1696 81.0483 67.7268C81.0913 67.8331 81.1626 67.9258 81.2542 67.9948C81.3458 68.0638 81.4544 68.1066 81.5685 68.1187L81.566 68.0861Z" fill="#634061"/>
<path d="M21.202 105.987C19.0732 106.047 16.9418 106.238 14.8255 105.826C11.8095 105.241 11.1586 104.469 10.9374 101.407C10.6534 97.4987 10.7388 93.5701 10.2059 89.6765C10.0577 88.5963 10.5428 87.8829 11.435 87.2825C12.8928 86.3054 14.5592 86.0743 16.2105 86.014C19.4779 85.8884 22.8106 85.5568 25.9624 86.9661C26.9803 87.4232 27.5433 88.021 27.2342 89.1816C25.5301 87.8327 23.6777 86.8556 21.4282 86.8556C20.3977 86.8556 19.3923 86.652 18.3769 86.4963C16.5447 86.215 14.7325 86.245 13.4482 87.9331C12.8123 87.9934 12.2896 88.2296 12.2569 88.9505C12.2242 89.6714 12.8098 89.9352 13.3628 90.1185C16.316 91.1032 19.3246 91.1585 22.3632 90.5984C22.4965 94.4492 22.9488 98.3126 21.5061 102.063C20.9306 103.57 20.1188 104.693 18.5152 105.138C18.0503 105.266 17.5978 105.442 16.9921 105.64C18.48 105.994 19.8875 105.472 21.202 105.987Z" fill="#2A7478"/>
<path d="M97.3727 50.5022C97.0761 50.4419 96.9127 50.4193 96.7544 50.3766C93.2356 49.4698 93.1853 49.294 94.1128 45.8325C95.0977 42.2927 95.8533 38.693 96.3748 35.056C96.5181 33.9834 96.8775 32.941 97.071 31.8759C97.2093 31.1223 97.6466 30.9088 98.3277 30.9917C101.726 31.4137 105.123 31.8391 108.52 32.2678C109.437 32.3834 109.826 32.7878 109.56 33.7951C108.052 39.4898 106.609 45.1943 105.141 50.8965C105.008 51.414 104.8 51.8411 103.988 51.8135C103.85 49.8039 103.935 47.4426 101.201 47.1763C99.0315 46.9653 98.2348 48.8368 97.3727 50.5022ZM102.216 43.2678C102.309 43.195 102.412 43.1373 102.523 43.0969C103.09 42.986 103.629 42.7569 104.102 42.4244C104.575 42.0919 104.974 41.6635 105.27 41.167C105.567 40.6706 105.756 40.1173 105.825 39.5431C105.894 38.9689 105.841 38.3867 105.669 37.8343C105.456 37.1585 105.109 36.6637 104.322 36.9375C103.106 37.3621 101.975 37.1712 100.803 36.7417C99.3532 36.2141 98.5263 36.6864 98.001 38.1508C97.629 39.1833 97.5964 40.2082 98.2524 41.1376C99.0064 42.1977 99.2878 43.2225 98.1769 44.2072C98.6268 44.8452 99.2627 44.9407 99.8559 45.0914C102.151 45.6742 102.485 45.4154 102.216 43.2702V43.2678Z" fill="#323948"/>
<path d="M96.611 95.7328C96.6684 97.825 96.2963 99.9067 95.5177 101.85C95.2445 102.647 94.7636 103.358 94.1244 103.909C93.4852 104.459 92.7108 104.83 91.8809 104.982C87.309 105.952 84.3935 103.563 84.5921 98.8326C84.7303 95.567 85.9091 92.6883 88.7869 90.837C90.7272 89.581 92.8384 89.7091 94.7109 90.935C95.9676 91.7614 96.4477 93.2309 96.6036 94.7331C96.6272 95.0658 96.6297 95.3998 96.611 95.7328ZM94.0977 96.6497C94.0313 96.2959 93.9364 95.9481 93.8137 95.6097C93.3487 94.5697 92.1121 94.1252 91.4963 94.8185C89.9882 96.5165 89.6238 98.6166 89.8877 100.762C90.0536 102.101 91.2173 102.322 92.1649 101.345C93.4065 100.051 93.8162 98.4081 94.0851 96.6497H94.0977Z" fill="#323948"/>
<path d="M16.444 44.3027C14.0035 42.8633 14.0639 37.847 16.5722 36.37C18.2386 35.3878 19.3043 33.8153 19.7416 31.881C19.7499 31.7347 19.7997 31.5936 19.8852 31.4744C19.9706 31.3552 20.0882 31.2628 20.2241 31.2078C21.0184 32.9034 21.1264 34.7371 20.2669 36.2619C18.8016 38.8618 19.1132 41.1628 20.6163 43.519C20.8676 43.9008 21.0184 44.3378 21.2295 44.7423C21.2572 44.79 21.3753 44.79 21.7322 44.9031C21.33 42.1072 23.2403 40.3313 24.5096 38.284C25.4295 36.8044 25.5827 35.2546 25.5023 33.6018C25.4595 32.715 25.3314 31.788 26.0049 30.7682C26.7891 32.612 27.5984 34.2473 28.174 35.9604C28.3789 36.5408 28.4067 37.1691 28.2536 37.7653C28.1006 38.3615 27.7736 38.8988 27.3144 39.3089C25.9069 40.6402 26.0577 42.2178 26.5604 43.8305C26.9449 45.099 27.7091 46.252 27.7518 47.631C27.0405 48.0204 26.5352 48.6359 26.0225 49.2338C25.4067 49.9572 24.9946 50.8614 24.1098 51.3412C24.2305 50.9192 24.3503 50.5006 24.4693 50.0852C24.8564 49.5251 25.3288 49.0654 25.3087 48.249C25.2735 46.7543 24.3034 46.031 23.2302 45.3251C22.0614 44.9006 22.3932 45.8927 22.3253 46.36C22.0941 47.9576 20.9606 49.2111 19.5255 49.3467L19.6612 48.5931C20.2745 46.4027 19.4576 44.5866 17.7208 44.2801L17.7359 44.2926L17.4721 44.0414C16.8839 43.2451 16.7205 43.9259 16.444 44.3027Z" fill="#323948"/>
<path d="M79.025 74.9211C79.0953 74.5669 78.942 74.1549 79.2763 73.871C79.3643 73.871 79.4975 73.8434 79.5125 73.871C80.4877 75.8128 82.2974 76.1846 84.2151 76.4685C85.8329 76.6859 87.4696 76.7254 89.0961 76.5865C89.9607 76.5262 90.8806 76.3354 90.8806 75.0919C90.8751 74.9099 90.9325 74.7315 91.0433 74.5868C91.1541 74.4422 91.3115 74.3402 91.4888 74.2981C91.8683 74.4137 91.8281 74.7 91.8658 74.9336C92.0116 75.8279 92.4841 75.9384 93.311 75.7174C96.5483 74.8532 98.9435 72.7482 100.984 70.2991C104.124 66.5311 106.172 62.1352 107.69 57.488C108.153 56.0713 106.936 54.8705 105.546 55.4483C104.757 55.7773 104.503 55.3629 104.073 55.0237C103.865 54.6168 103.674 54.2048 103.822 53.6698C104.928 53.3909 105.948 53.813 106.966 54.1119C109.281 54.7927 109.46 54.7349 110.55 52.5695C110.829 52.0194 111.088 51.4593 111.523 50.56C112.126 52.7102 112.187 54.5088 111.523 56.3049C110.915 57.9502 109.806 59.2689 108.545 60.437C107.023 61.8162 105.918 63.5941 105.355 65.569C104.315 69.1662 102.528 72.3262 99.6372 74.8055C99.0541 75.3429 98.3813 75.7739 97.6492 76.0791C96.0789 76.6622 94.6008 77.4685 93.2607 78.473C92.6701 78.949 91.9544 79.2439 91.1998 79.3221C88.5658 79.5381 85.9367 79.5456 83.3882 78.674C82.3501 78.3198 81.3573 77.9204 80.8069 76.8453C80.4173 76.0917 79.4069 75.9259 79.0475 75.1145C79.0651 75.0869 79.1054 75.0518 79.0979 75.0342C79.0735 74.9804 79.044 74.929 79.0099 74.8808L79.025 74.9211Z" fill="#634061"/>
<path d="M21.2019 105.987C19.8874 105.472 18.4875 105.987 16.9819 105.643C17.5877 105.442 18.0401 105.266 18.5051 105.14C20.1086 104.696 20.9204 103.563 21.496 102.066C22.9387 98.3152 22.4863 94.4518 22.3531 90.6035C23.0945 90.6035 23.6098 90.0282 24.2758 89.8322C24.5724 89.7443 24.982 89.6539 24.9217 89.2018C24.8614 88.7496 24.4567 88.6265 24.0948 88.5611C23.1481 88.4016 22.1813 88.4016 21.2346 88.5611C18.5905 88.9681 15.9338 89.4102 13.4431 87.9257C14.7274 86.2276 16.5395 86.2074 18.3718 86.4888C19.3771 86.6445 20.3825 86.8505 21.4231 86.848C23.6851 86.848 25.525 87.8252 27.229 89.1742C26.8018 93.8615 26.4222 98.5514 25.922 103.241C25.7436 104.932 24.9166 105.577 23.195 105.793C22.5289 105.874 21.8655 105.921 21.2019 105.987Z" fill="#1F5C61"/>
<path d="M66.2117 108.529C67.7801 108.31 69.0267 107.213 69.1021 105.535C69.1675 104.058 69.9893 102.884 70.2682 101.515C70.5196 101.568 70.8639 101.538 70.9695 101.689C71.8969 102.99 73.0984 102.573 74.2922 102.274C74.0107 103.882 73.0355 105.273 72.8972 106.936C72.7515 108.825 73.028 110.481 74.7422 111.659C76.0365 112.55 77.4792 113.292 78.2609 114.776C78.9672 116.092 78.6529 117.416 77.4213 118.258C76.9337 118.592 76.5191 118.509 76.2024 118.112C74.9307 116.545 73.1085 116.311 71.2963 115.997C68.1294 115.459 65.7141 111.739 66.2117 108.529ZM72.4348 113.583C71.618 112.812 70.8514 113.196 70.1879 113.41C69.6249 113.59 69.6273 114.103 70.1375 114.46C71.2761 115.266 71.7084 114.208 72.4348 113.59V113.583Z" fill="#323948"/>
<path d="M109.917 94.7607C112.179 95.0897 113.77 96.5392 113.886 98.8979C114.052 102.284 112.828 105.203 110.045 107.273C108.442 108.466 106.966 108.278 105.408 106.906C105.277 106.122 106.21 105.507 105.735 104.645C105.413 104.073 105.285 103.412 105.369 102.761C105.453 102.11 105.744 101.503 106.2 101.031C108.04 99.2345 108.547 96.7652 109.917 94.7607Z" fill="#1F5C61"/>
<path d="M22.2776 64.5818C22.4161 64.6302 22.5424 64.7085 22.6475 64.8109C22.7526 64.9133 22.8339 65.0375 22.8858 65.1747C23.9088 67.6038 26.0628 69.0783 27.7518 70.9522C28.2821 71.5375 28.8451 71.4722 29.4182 71.0628C29.8203 70.7764 30.1948 70.4549 30.6221 70.1157C30.8734 70.8693 30.3079 71.2586 30.0666 71.7459C29.7198 72.4468 29.7499 72.9643 30.436 73.4642C33.0424 75.3733 35.8751 75.4009 38.8685 74.6574C40.0649 74.3585 40.9144 73.4014 42.1108 73.1678C41.877 73.5621 41.6333 73.949 41.4121 74.3509C39.6527 77.5687 36.5838 78.9805 32.9394 78.247C27.4979 77.1518 23.6046 73.0045 22.7601 67.4103C22.6194 66.4583 22.4384 65.5213 22.2776 64.5818Z" fill="#634061"/>
<path d="M34.2112 90.6586C34.8547 91.9322 35.0508 93.3414 35.5032 94.9064C40.6858 92.4648 43.3952 87.9332 45.8533 83.2157C46.1876 83.2157 46.1473 83.5271 46.3182 83.6301C46.4338 84.959 46.2403 86.3053 46.5897 87.6191C46.7154 88.0964 46.459 88.5185 46.2705 88.933C44.1894 93.5274 40.7964 96.7728 36.1667 98.7472C35.4353 99.0587 34.709 99.3751 33.9776 99.6816C33.9147 99.7067 33.8192 99.659 33.6608 99.6339C34.1308 96.6622 33.7211 93.6353 34.2112 90.6586Z" fill="#634061"/>
<path d="M44.3301 112.867C45.5416 112.224 46.0668 110.559 45.4988 109.162C44.8705 107.62 45.2475 106.901 46.944 106.534C48.1605 106.283 49.2061 105.979 48.8894 104.324C48.7462 103.57 49.3669 103.033 49.9349 102.583C50.5029 102.133 50.9403 102.128 51.0635 102.96C51.1339 103.409 51.0911 103.965 51.7873 103.857C52.3503 103.764 52.6293 103.311 52.662 102.776C52.6997 102.156 52.6394 101.52 52.6495 100.905C52.6155 100.571 52.6941 100.235 52.8731 99.9505C53.3104 100.722 53.1395 101.784 54.0569 102.38C54.9667 101.749 55.6228 100.895 56.2788 100.038C56.6658 99.536 57.0881 99.0889 57.8069 99.5008C57.435 101.621 55.7962 102.804 54.3484 104.118C52.9007 105.432 51.2344 106.544 49.9073 107.974C47.1979 110.888 46.9843 112.631 49.2036 115.987C49.4047 116.288 49.8018 116.489 49.7063 116.931C47.5749 118.074 45.1218 116.223 44.3301 112.867Z" fill="#323948"/>
<path d="M104.669 77.8828C108.316 78.242 111.729 81.7462 112.413 85.8432C112.476 86.2124 112.506 86.5968 112.549 86.9585C112.384 86.9817 112.233 87.0642 112.125 87.1904C112.017 87.3167 111.958 87.478 111.96 87.6442C111.689 89.601 110.991 91.4745 109.917 93.1329C109.025 93.1857 109.286 92.5929 109.349 92.1156C109.617 90.1719 109.566 88.1973 109.196 86.2703C108.525 82.7535 106.745 80.2038 103.164 79.1563C103.797 78.8674 104.395 78.561 104.669 77.8828Z" fill="#2A7478"/>
<path d="M68.999 81.1483C69.6575 80.8493 70.0043 81.3643 70.3889 81.7084C74.913 85.7276 80.063 88.7419 85.6502 91.0404L84.2427 93.4896C83.4233 93.374 82.7724 92.9093 82.1013 92.5275C78.394 90.4099 74.9456 87.8954 71.5199 85.3683C70.1627 84.3786 69.5268 82.7509 68.999 81.1483Z" fill="#634061"/>
<path d="M57.8069 99.5008C57.0881 99.0888 56.6658 99.531 56.2787 100.038C55.6227 100.895 54.9667 101.749 54.0568 102.38C53.1394 101.784 53.3028 100.722 52.873 99.9504C52.873 99.1567 53.1822 98.6618 54.0267 98.4231C55.3689 98.0438 55.4066 96.7602 55.6026 95.6926C55.7359 94.9717 55.6026 94.203 55.5876 93.457C55.57 91.5227 55.8816 89.6891 57.2187 88.1693C57.9425 89.2193 58.3749 90.2693 57.9602 91.6333C57.5882 92.8617 58.3045 94.0598 58.4981 95.2781C58.7343 96.7602 58.8198 98.2297 57.8069 99.5008Z" fill="#634061"/>
<path d="M104.669 77.8827C104.395 78.5709 103.797 78.8874 103.161 79.1562C100.326 78.9176 97.6769 79.3019 95.5405 81.417C93.9118 83.0347 92.8913 85.0318 92.1021 87.1393C91.8055 87.9281 91.4411 88.34 90.5941 88.2094C91.1248 86.3889 91.8266 84.6226 92.6902 82.9342C92.9801 82.4796 93.119 81.9451 93.0873 81.4069L93.3387 81.1557C93.4267 81.0301 93.5121 80.9046 93.59 80.7765L94.0299 80.3971L94.5954 80.1459C94.6205 80.1233 94.6658 80.0983 94.6632 80.0782C94.6538 80.0193 94.6395 79.9613 94.6205 79.9048C97.051 78.1464 99.7253 77.2044 102.761 77.3928C103.433 77.438 104.086 77.5034 104.669 77.8827Z" fill="#1F5C61"/>
<path d="M109.917 94.7607C108.547 96.7703 108.039 99.2345 106.2 101.041C105.744 101.513 105.452 102.12 105.369 102.771C105.285 103.422 105.413 104.083 105.735 104.655C106.21 105.509 105.277 106.125 105.408 106.916C104.795 106.552 104.506 105.989 104.292 105.321C103.091 101.553 104.817 97.6746 107.25 95.5872C108.007 94.9265 108.889 94.5773 109.917 94.7607Z" fill="#2A7478"/>
<path d="M74.2922 102.286C73.0983 102.585 71.8968 103.002 70.9694 101.701C70.8638 101.55 70.5094 101.581 70.2682 101.528C71.4997 99.4655 71.9547 97.0063 73.425 95.1475C74.091 95.0821 74.2368 95.7679 74.7445 95.7177C75.5463 97.9785 75.4961 100.169 74.2922 102.286Z" fill="#634061"/>
<path d="M19.6536 48.573L19.5179 49.3266C19.3302 50.6663 19.14 52.001 18.9473 53.3307C18.1129 53.509 17.942 54.3656 17.3941 54.8379C17.0774 55.1117 16.8914 55.7171 16.331 55.496C15.8635 55.3152 15.7453 54.8128 15.6749 54.3707C15.6367 53.964 15.63 53.555 15.6548 53.1473C16.0871 51.7934 17.0196 50.6832 17.5198 49.3644C17.7118 48.7753 17.8729 48.1766 18.0023 47.5708C18.4334 48.0703 19.0113 48.421 19.6536 48.573Z" fill="#DB591B"/>
<path d="M24.1024 51.3412C24.9871 50.8614 25.3993 49.9572 26.015 49.2337C26.5177 48.6334 27.0329 48.0203 27.7442 47.631C27.7719 48.5805 27.9779 49.5125 27.7291 50.4821C27.2264 52.4339 25.8994 53.4814 24.0746 54.0491C23.5544 53.6347 23.6248 52.7002 22.7803 52.5721L24.1024 51.3412Z" fill="#9D4930"/>
<path d="M28.7219 94.8863C28.4077 93.7911 28.7344 92.7788 28.8023 91.7614C28.8023 91.6132 28.9079 91.3721 29.0109 91.342C29.8353 91.1058 30.6598 91.2465 31.449 91.4952C32.0999 91.7011 32.4191 92.2488 32.5071 92.9069C32.6403 93.9368 32.1351 94.5623 31.0895 94.6653C30.6748 94.7055 30.2601 94.713 29.8479 94.7507C29.4835 94.7808 29.1215 94.8361 28.7219 94.8863Z" fill="#634061"/>
<path d="M89.458 114.809C88.1736 114.809 87.3669 114.249 87.3719 113.347C87.3719 112.556 88.3597 111.84 89.4982 111.809C90.4885 111.782 91.4612 112.505 91.5089 113.317C91.5693 114.151 90.677 114.809 89.458 114.809Z" fill="#323948"/>
<path d="M28.4632 99.1265C28.3996 98.9842 28.3564 98.8338 28.335 98.6794C28.4029 98.0012 27.9957 97.0844 28.712 96.7151C29.5389 96.2881 30.5242 96.5317 31.3863 96.9009C31.6222 96.9993 31.8158 97.1777 31.933 97.4047C32.0503 97.6316 32.0835 97.8927 32.0271 98.1418C32.0065 98.3976 31.8928 98.637 31.7076 98.8147C31.5223 98.9924 31.2784 99.0963 31.0218 99.1065C30.2049 99.1743 29.3731 99.1265 28.4632 99.1265Z" fill="#634061"/>
<path d="M109.917 93.1229C110.991 91.4644 111.689 89.5909 111.96 87.6342C111.958 87.4679 112.017 87.3066 112.125 87.1804C112.233 87.0541 112.384 86.9716 112.549 86.9484C112.941 88.6289 112.619 90.2391 112.101 91.8367C111.749 92.9219 111.053 93.3891 109.917 93.1229Z" fill="#1F5C61"/>
<path d="M93.0923 81.3995C93.124 81.9376 92.985 82.4721 92.6952 82.9268C91.8316 84.6152 91.1298 86.3814 90.599 88.2019L89.5534 88.5862C90.1793 85.7075 90.8956 83.2207 93.0923 81.3995Z" fill="#2A7478"/>
<path d="M19.6536 48.573C19.0126 48.4237 18.4349 48.0767 18.0024 47.5808C17.8733 46.768 17.5965 45.9856 17.1855 45.2723C17.4947 45.2723 17.8189 45.5662 18.1129 45.2396C18.2989 44.7749 17.9345 44.5463 17.7134 44.2599C19.4501 44.5664 20.2669 46.3825 19.6536 48.573Z" fill="#9D4930"/>
<path d="M28.0307 103.05C28.0006 100.814 28.4857 100.433 30.617 101.008C30.4436 102.485 29.7901 103.002 28.0307 103.05Z" fill="#634061"/>
<path d="M17.7259 44.26C17.9471 44.5463 18.3115 44.7749 18.1255 45.2396C17.8314 45.5662 17.5072 45.2673 17.1981 45.2724L16.444 44.3027C16.708 43.9259 16.8839 43.2451 17.4645 44.0188L17.7284 44.27L17.7259 44.26Z" fill="#794137"/>
<path d="M81.566 68.1162C81.4519 68.1041 81.3432 68.0612 81.2516 67.9922C81.1599 67.9232 81.0888 67.8306 81.0458 67.7243L81.566 68.1162Z" fill="#8F5F87"/>
<path d="M94.6104 80.1435L94.0449 80.3947C94.1081 80.3061 94.1938 80.236 94.2933 80.1918C94.3928 80.1477 94.5023 80.131 94.6104 80.1435Z" fill="#2A7478"/>
<path d="M74.694 90.2658C74.6091 90.106 74.6465 90.0685 74.8064 90.1509L74.694 90.2658Z" fill="#1B494F"/>
<path d="M94.6357 79.9199C94.6546 79.9764 94.6689 80.0344 94.6784 80.0932C94.6784 80.1133 94.6357 80.1384 94.6105 80.161C94.6055 80.0806 94.6131 80.0003 94.6357 79.9199Z" fill="#2A7478"/>
<path d="M93.6051 80.7866C93.5196 80.9122 93.4342 81.0377 93.3537 81.1658C93.4342 81.0402 93.5196 80.9122 93.6051 80.7866Z" fill="#2A7478"/>
<path d="M84.3078 81.1705L84.2553 81.1081L84.3128 81.1655L84.3078 81.1705Z" fill="#1B494F"/>
<path d="M79.0174 74.8935C79.0515 74.9417 79.081 74.993 79.1054 75.0467C79.1054 75.0643 79.0727 75.0994 79.0551 75.1271C79.0127 75.057 78.9993 74.9733 79.0174 74.8935Z" fill="#8F5F87"/>
<path d="M72.9979 43.7652C73.958 44.7474 74.2244 46.0009 74.1716 47.282C74.0661 49.8442 73.5106 52.2606 71.2712 53.9059C70.6705 54.3455 70.3362 55.0088 69.7305 55.4886C68.5819 56.3929 67.2523 56.2421 65.6261 56.5209C67.1492 57.1012 68.4888 57.061 69.5922 57.7769C66.6818 58.2106 63.7118 57.6039 61.2051 56.0638C58.4982 54.4737 56.6583 52.5746 56.1129 49.3995C55.4318 51.4919 54.1348 53.0594 52.6519 54.4234C51.3953 55.5714 50.1511 56.8575 48.2284 56.9102C47.7285 56.933 47.2412 57.0733 46.8059 57.3198C46.0518 57.7468 45.7427 57.3699 45.4235 56.7847C45.9689 56.1617 46.8284 56.2823 47.4165 55.9131C47.5271 55.2273 47.0647 55.1218 46.6625 55.1369C44.5236 55.2022 43.1438 54.009 41.9324 52.444C40.5249 50.6052 40.2057 48.4977 40.4243 46.2796C40.5827 44.7724 40.9723 43.3281 41.9626 42.1449C41.7514 41.6626 41.284 41.8033 40.9723 41.625C40.5601 41.3914 40.075 41.1653 40.2183 40.6202C40.3666 40.0198 40.9371 39.9545 41.4448 40.0575C43.6189 40.5071 45.7552 39.9796 47.9067 39.854C49.186 39.7786 49.9425 38.8492 50.7568 38.0153C51.2143 37.553 51.4229 36.6211 52.3704 37.0632C53.2426 37.4727 52.8305 38.279 52.843 38.9422C52.8259 39.0662 52.7912 39.1872 52.7399 39.3014C52.4534 40.2359 51.8251 40.8211 50.953 41.2607C48.809 42.3409 46.5444 42.4037 44.2422 42.1425C43.5811 42.0671 43.1338 42.0746 42.9202 42.8357C42.6688 43.7224 42.166 44.7901 42.7366 45.4608C43.3071 46.1315 44.4458 45.7371 45.3355 45.5461L51.1163 45.5109L51.9255 45.4984H53.1144H53.6899H54.8713L55.4193 45.516C56.2537 45.3678 55.7082 44.677 55.9093 44.2801C56.2762 43.9937 56.412 44.2801 56.5729 44.5313C56.6206 45.4858 57.254 45.7446 58.0633 45.7571C58.8727 45.7697 59.6291 45.7445 60.4133 45.737C64.4146 45.841 68.4075 46.1598 72.3746 46.6916C72.6008 45.6215 72.7993 44.6946 72.9979 43.7652ZM46.9918 49.4924C46.4891 48.9021 46.6097 48.1661 46.5318 47.3748H42.4375C42.4978 47.8571 42.5355 48.3144 42.6109 48.764C42.9854 50.9846 44.4634 52.3662 46.5545 52.8761C49.8998 53.6925 53.7629 51.2408 54.7657 47.601H51.5235C51.3928 48.3244 51.5008 49.0754 50.9026 49.5929C50.8788 49.3854 50.8856 49.1755 50.9228 48.9699C51.3324 47.822 50.88 47.4125 49.7465 47.5406C49.5372 47.5519 49.3274 47.5519 49.1181 47.5406C47.0697 47.5331 47.0697 47.5331 46.9918 49.4975V49.4924ZM61.8208 47.8345C60.3128 47.4326 58.7796 47.5381 57.2389 47.5557C57.5209 49.4543 58.4735 51.1894 59.9242 52.4472C61.3749 53.705 63.2281 54.4024 65.1486 54.4134C68.0716 54.4284 71.799 51.3212 71.9347 48.543C71.5203 48.5644 71.105 48.5644 70.6905 48.543C70.2457 48.4952 69.8109 48.3094 69.3686 48.2918C68.5844 48.2742 67.7524 48.1988 67.026 48.4249C66.468 48.6007 66.6541 49.4648 66.3424 49.9496C66.2473 50.0824 66.1449 50.2099 66.0357 50.3314C66.0885 49.8868 66.1514 49.4422 66.1966 48.9975C66.257 48.3997 66.0282 48.0707 65.3822 48.043C64.1884 47.9903 63.0021 47.9049 61.8183 47.8345H61.8208Z" fill="#1D2831"/>
<path d="M58.0583 60.1155C61.7153 60.2361 64.8795 61.4721 67.3879 64.19C67.9308 64.7778 67.8051 65.4309 67.2824 65.971C66.6691 66.6065 65.9981 66.2398 65.5783 65.7926C62.3863 62.3763 58.5936 61.4268 54.1575 62.8385C52.8229 63.2655 51.7044 64.0342 50.6388 64.8857C50.0959 65.3178 49.5428 65.677 49.0552 64.9511C48.9561 64.8142 48.8866 64.6582 48.8512 64.493C48.8157 64.3278 48.8151 64.157 48.8494 63.9916C48.8837 63.8261 48.9522 63.6696 49.0503 63.5321C49.1485 63.3945 49.2744 63.279 49.4197 63.1927C51.4078 61.8287 53.421 60.4923 55.9419 60.3114C56.6457 60.2637 57.3495 60.1834 58.0583 60.1155Z" fill="#1D2831"/>
<path d="M72.0151 42.3031C69.7682 42.2805 67.5212 42.2655 65.2767 42.2328C63.687 42.2509 62.1197 41.8571 60.7275 41.0898C59.9823 40.7028 59.4002 40.0622 59.0863 39.2837C58.8626 38.5301 59.1114 37.7917 59.3074 37.0783C59.4381 36.601 59.692 36.1236 60.3581 36.2492C60.8985 36.3497 61.0794 36.7517 61.1649 37.229C61.5871 39.5425 61.5771 39.6253 63.9296 39.8389C66.4204 40.0649 68.9262 40.1629 71.4295 40.2157C72.5555 40.2408 73.6237 40.5372 74.8679 40.5925C74.4984 42.3081 73.0205 41.9012 72.0151 42.3031Z" fill="#1D2831"/>
<path d="M55.3061 19.3185C53.8508 21.0116 53.7327 22.6871 54.2832 24.4731C54.5345 25.2669 54.2831 25.9527 53.71 26.5304C53.323 26.9122 52.956 27.3192 52.5488 27.6759C51.7094 28.4069 51.4857 29.261 52.0462 30.2381C52.4382 30.9315 52.3504 31.4941 51.6391 32.0668C50.7091 30.8334 49.9601 29.5172 49.95 27.9271C49.9486 27.5265 50.0463 27.1319 50.2344 26.7782C50.4225 26.4245 50.6953 26.1228 51.0283 25.9C52.0764 25.1464 52.4132 24.1416 52.2423 22.8429C51.996 20.9941 53.0918 19.6953 55.3061 19.3185Z" fill="#634061"/>
<path d="M18.9473 53.3408C19.1383 52.0011 19.3285 50.6664 19.5179 49.3367C20.953 49.2011 22.0866 47.9477 22.3178 46.3501C22.3857 45.8828 22.0539 44.8906 23.2227 45.3151C23.2233 45.8514 23.3409 46.3811 23.567 46.8674C23.9717 47.8195 24.3964 48.7565 24.2129 49.8316C23.1849 49.907 22.9562 51.0876 22.0212 51.3714C20.5257 51.8236 19.8647 53.0193 19.7591 54.5164C19.7598 54.7646 19.7101 55.0104 19.6128 55.2389C19.5156 55.4673 19.373 55.6736 19.1936 55.8453C18.2813 55.0942 18.8166 54.1974 18.9473 53.3408Z" fill="#9D4930"/>
<path d="M19.1987 55.8452C19.378 55.6735 19.5207 55.4672 19.6179 55.2388C19.7151 55.0104 19.7648 54.7646 19.7642 54.5163C19.8647 53.0092 20.5182 51.8235 22.0262 51.3714C22.9662 51.0875 23.1899 49.9069 24.2204 49.8315L24.4717 50.0827C24.3528 50.5048 24.233 50.9234 24.1124 51.3387L22.7903 52.5696C22.0488 53.288 21.8679 54.3279 21.3451 55.1669C20.7595 56.1039 20.1563 56.3878 19.1987 55.8452Z" fill="#DB591B"/>
<path d="M79.4774 38.4448C79.113 38.0755 79.128 37.8646 79.2261 37.6737C80.0077 36.076 79.8946 34.4758 79.3995 32.8154C79.2344 32.3206 79.2311 31.7862 79.3902 31.2895C79.5492 30.7927 79.8623 30.3593 80.2842 30.0522C80.4224 32.0468 81.5057 33.8479 81.272 35.8625C81.222 36.4113 81.0302 36.9377 80.7157 37.3903C80.4011 37.8429 79.9745 38.2063 79.4774 38.4448Z" fill="#634061"/>
<path d="M56.9348 39.9972C56.8342 40.4996 56.9348 41.3009 56.1808 41.1602C55.2784 40.9894 55.7258 40.085 55.6203 39.4872C55.7761 39.025 55.8213 38.5126 56.2913 38.0881C56.8015 38.6508 56.7764 39.3592 56.9348 39.9972Z" fill="#1D2831"/>
<path d="M13.438 87.9306C15.9338 89.4152 18.5905 88.973 21.2295 88.5661C22.1763 88.4066 23.143 88.4066 24.0898 88.5661C24.4517 88.6314 24.8563 88.7521 24.9167 89.2067C24.977 89.6614 24.5674 89.7493 24.2708 89.8372C23.6022 90.0331 23.0895 90.6135 22.3481 90.6084C19.3094 91.1661 16.3008 91.1109 13.3476 90.1262C12.7946 89.9428 12.2091 89.6865 12.2417 88.958C12.2744 88.2295 12.8022 87.9934 13.438 87.9306Z" fill="#1D2831"/>
<path d="M102.216 43.2702C102.485 45.4154 102.151 45.6742 99.8485 45.094C99.2554 44.9433 98.6194 44.8428 98.1695 44.2098C99.2805 43.2251 98.9939 42.2001 98.2449 41.1401C97.5864 40.2106 97.6191 39.1857 97.9936 38.1533C98.5189 36.6888 99.3457 36.2166 100.796 36.7441C101.977 37.1737 103.108 37.3645 104.315 36.94C105.101 36.6662 105.448 37.1611 105.662 37.8368C105.833 38.3892 105.886 38.9715 105.817 39.5457C105.749 40.1199 105.56 40.6731 105.263 41.1695C104.966 41.6659 104.568 42.0943 104.095 42.4268C103.621 42.7593 103.083 42.9885 102.515 43.0994C102.407 43.1404 102.306 43.1981 102.216 43.2702Z" fill="#9B8E87"/>
<path d="M94.0852 96.6496C93.8163 98.408 93.4066 100.051 92.1524 101.344C91.2049 102.322 90.0411 102.098 89.8753 100.762C89.6114 98.6165 89.9707 96.5165 91.4838 94.8184C92.0996 94.1251 93.3362 94.5672 93.8012 95.6096C93.9239 95.948 94.0189 96.2958 94.0852 96.6496Z" fill="#1D2831"/>
<path d="M24.4617 50.0752L24.2104 49.824C24.3913 48.7488 23.9591 47.8144 23.562 46.8599C23.3359 46.3735 23.2184 45.8437 23.2177 45.3074C24.2859 46.0133 25.2611 46.7368 25.2962 48.2314C25.3214 49.0553 24.8488 49.515 24.4617 50.0752Z" fill="#794137"/>
<path d="M72.4349 113.59C71.7085 114.208 71.2762 115.266 70.1376 114.467C69.6349 114.111 69.635 113.598 70.1879 113.417C70.8514 113.204 71.618 112.819 72.4349 113.59Z" fill="#8F5F87"/>
<path d="M66.0282 50.3314C66.1374 50.2098 66.2397 50.0824 66.3348 49.9495C66.6465 49.4647 66.4605 48.6006 67.0185 48.4248C67.7449 48.1987 68.5768 48.2741 69.3609 48.2917C69.8033 48.2917 70.2382 48.4851 70.6831 48.5429C71.0975 48.5643 71.5127 48.5643 71.9271 48.5429C71.7964 51.3212 68.0691 54.4284 65.141 54.4133C63.2205 54.4023 61.3673 53.7049 59.9166 52.4472C58.4659 51.1894 57.5134 49.4543 57.2314 47.5557C58.7721 47.5381 60.3027 47.4325 61.8133 47.8345C61.7271 48.2796 61.6874 48.7325 61.6951 49.1859C61.8183 50.2459 62.0947 51.2357 63.4545 51.2683C64.1859 51.3587 64.9047 51.3964 65.4928 50.8287L65.4652 50.8464L65.7794 50.5725L65.7341 50.6228L66.0206 50.3114L66.0282 50.3314Z" fill="#F8CBA0"/>
<path d="M50.9026 49.5878C51.5008 49.0704 51.3928 48.3319 51.5235 47.5959H54.7657C53.7603 51.2408 49.8998 53.6925 46.5545 52.8711C44.4633 52.3687 42.9854 50.9795 42.6109 48.7589C42.5355 48.3093 42.4978 47.852 42.4375 47.3698H46.5318C46.6097 48.161 46.4941 48.8971 46.9917 49.4874L47.6805 50.1808L47.7081 50.2385H47.7709C48.1278 50.2837 48.1077 50.9469 48.6104 50.7409C49.01 50.8715 49.2061 50.6102 49.3946 50.3364C49.8972 50.3364 50.3999 50.3364 50.6839 49.8064L50.9026 49.5878Z" fill="#F8CBA0"/>
<path d="M63.4695 51.2683C62.1022 51.2357 61.8258 50.2459 61.7101 49.1859C61.7025 48.7325 61.7421 48.2796 61.8283 47.8345C63.0121 47.9048 64.1984 47.9927 65.3848 48.043C66.0307 48.0706 66.2593 48.3996 66.199 48.9975C66.1538 49.4421 66.091 49.8867 66.0383 50.3314V50.3138L65.7517 50.6228L65.7969 50.5725L65.4827 50.8464L65.5104 50.8287C64.8019 50.7754 64.0931 50.9281 63.4695 51.2683Z" fill="#1D2831"/>
<path d="M50.9027 49.5878L50.6917 49.8189C50.4523 49.8173 50.215 49.8633 49.9936 49.9543C49.7722 50.0453 49.5711 50.1795 49.4022 50.349C49.2137 50.6228 49.0177 50.8841 48.6181 50.7534C48.5704 50.2008 48.3265 49.9747 47.7785 50.251H47.7157L47.6881 50.1933C47.7258 49.6909 47.6128 49.3467 46.9995 49.4999C47.0774 47.5406 47.0774 47.5406 49.1258 47.5456C49.3351 47.5569 49.5449 47.5569 49.7542 47.5456C50.8877 47.4175 51.34 47.827 50.9303 48.9749C50.8916 49.1768 50.8823 49.3833 50.9027 49.5878Z" fill="#1D2831"/>
<path d="M73.8826 42.5543C73.1035 42.3785 72.5002 42.7076 72.0151 42.3031C69.7682 42.2805 67.5212 42.2655 65.2767 42.2329C63.687 42.251 62.1196 41.8571 60.7274 41.0898C59.9822 40.7028 59.4002 40.0622 59.0863 39.2838C58.4026 39.6204 57.5003 39.2838 56.9398 39.9972C56.8393 40.4996 56.9398 41.3009 56.1858 41.1603C55.2835 40.9894 55.7309 40.0851 55.6253 39.4872C54.6803 39.1205 53.7001 39.2838 52.7299 39.2938C52.4434 40.2283 51.8151 40.8136 50.9429 41.2532C48.799 42.3334 46.5344 42.3961 44.2321 42.1349C43.5711 42.0595 43.1238 42.0671 42.9101 42.8282C42.6588 43.715 42.1561 44.7825 42.7266 45.4532C43.2972 46.1239 44.4357 45.7296 45.3255 45.5387L51.1062 45.5035L51.9155 45.4908H53.1043H53.6799H54.8612L55.4092 45.5085C56.2436 45.3603 55.6982 44.6695 55.8992 44.2726C56.2662 43.9863 56.402 44.2726 56.5628 44.5238C56.6106 45.4784 57.244 45.7371 58.0533 45.7496C58.8626 45.7622 59.619 45.7371 60.4032 45.7295C64.4045 45.8336 68.3974 46.1522 72.3645 46.684C72.5907 45.6215 72.7893 44.6946 72.9878 43.7652C72.4022 42.9463 73.2719 42.8884 73.8826 42.5543Z" fill="#634061"/>
<path d="M63.4696 51.2684C64.0924 50.9286 64.8003 50.7759 65.5079 50.8288C64.9173 51.3965 64.1985 51.3588 63.4696 51.2684Z" fill="#1D2831"/>
<path d="M47.7784 50.2511C48.3263 49.9848 48.5702 50.2109 48.618 50.7535C48.1153 50.9494 48.1378 50.2863 47.7784 50.2511Z" fill="#1D2831"/>
<path d="M46.9995 49.4975C47.6128 49.3442 47.7258 49.6933 47.6881 50.1907L46.9995 49.4975Z" fill="#1D2831"/>
<path d="M49.3947 50.3491C49.5636 50.1796 49.7646 50.0454 49.986 49.9544C50.2073 49.8634 50.4446 49.8173 50.684 49.819C50.4 50.3415 49.8973 50.3491 49.3947 50.3491Z" fill="#1D2831"/>
</svg>
