<svg width="130" height="130" viewBox="0 0 130 130" fill="none" xmlns="http://www.w3.org/2000/svg">
<path d="M129.563 0.843384H0.877686V129.456H129.563V0.843384Z" fill="#B5E8CF"/>
<path opacity="0.3" d="M67.1056 124.935C89.8011 124.935 108.199 122.123 108.199 118.655C108.199 115.187 89.8011 112.375 67.1056 112.375C44.41 112.375 26.0117 115.187 26.0117 118.655C26.0117 122.123 44.41 124.935 67.1056 124.935Z" fill="#1D2831"/>
<path d="M40.886 67.0465C40.0088 67.5489 39.8153 68.3326 39.8429 69.2746C39.9887 74.188 42.3086 76.7302 46.5436 78.4006C51.8745 80.5006 56.5796 79.2547 60.8699 75.7254C62.024 74.7539 63.3592 74.0206 64.7984 73.5676C67.7215 72.6683 70.916 74.5322 71.5192 77.5164C71.7404 78.6116 71.5469 79.4858 70.7124 80.988C70.4108 80.4429 70.1393 79.9681 69.8805 79.4808C69.4158 78.5788 68.6123 77.8977 67.646 77.5867C67.0529 77.3858 66.5251 77.4812 66.231 78.0188C65.937 78.5564 66.3416 78.8729 66.7337 79.1567C67.3047 79.5477 67.771 80.0728 68.0913 80.6861C68.4117 81.2993 68.5764 81.9817 68.571 82.6735C68.571 83.4723 68.571 84.3942 67.3847 84.6404C67.3269 82.5806 66.3341 81.2517 64.4013 80.6087C63.7754 80.4002 63.1999 80.3575 62.9234 81.0031C62.6469 81.6486 62.8379 82.1535 63.5769 82.4826C64.5043 82.8971 64.9216 83.7185 64.8713 84.7308C64.821 85.7431 64.1826 86.2782 63.3808 86.67C62.8254 86.4188 62.5816 85.9943 62.3604 85.5396C61.6315 84.0325 60.5558 83.7536 59.2111 84.6856C58.4571 85.2056 57.9016 84.6102 57.4291 84.2561C56.7983 83.7788 56.2302 83.711 55.4712 83.8315C51.6081 84.442 47.7148 84.8639 43.9548 83.3718C40.0993 81.8446 36.8269 79.6189 35.4319 75.4239C34.5723 72.8441 34.8489 70.2317 35.2761 67.6368C35.4093 66.8304 35.5275 66.0618 34.5221 65.8382C33.4489 65.6021 33.1799 66.4361 32.9562 67.2274C31.8126 71.2666 32.167 75.1275 34.2129 78.8478C35.4696 81.1337 33.67 84.7182 31.1466 84.8514C30.0784 84.9066 29.0253 84.143 28.4573 83.1106C27.3388 81.0809 27.0246 78.9056 27.6781 76.6699C28.0928 75.2506 27.9295 73.7711 28.3844 72.3393C29.792 67.7658 30.7294 63.0608 31.1818 58.2973C31.6191 54.0269 31.4607 49.7239 31.4482 45.4335C31.4331 40.7863 31.8026 36.1945 33.1272 31.6905C35.4797 23.6974 40.6874 18.6558 48.5417 16.081C53.8199 14.3528 59.2237 13.8579 64.7079 13.8203C71.205 13.77 77.682 13.9936 84.0309 15.5787C86.8961 16.2946 89.6608 17.3873 92.041 19.0703C96.0197 21.8888 98.4728 25.815 99.3047 30.6782C99.9766 34.7142 100.098 38.8228 99.6641 42.8913C98.9101 50.3871 98.8121 57.8979 99.0684 65.4087C99.1489 67.7499 99.7295 70.0785 100.157 72.397C100.609 74.8462 99.5661 76.0896 97.0753 75.9489C95.9408 75.8808 94.8508 75.4836 93.9386 74.806C93.0212 74.1453 92.0309 73.6404 90.8924 73.6002C90.4877 73.5851 90.4249 73.3239 90.2414 73.1381C88.4821 71.3797 86.4236 71.2164 84.2093 72.0051C83.6287 72.2136 83.1511 72.3141 82.5555 72.093C81.7153 71.8133 80.816 71.7613 79.9491 71.9423C77.4734 72.3568 75.0932 71.9875 72.7432 71.1611C72.0252 70.9405 71.2799 70.8213 70.5289 70.8069C66.5075 70.5708 62.7374 71.1812 59.4122 73.7208C58.0795 74.7702 56.6266 75.6573 55.0841 76.3634C52.7693 77.3682 50.2961 77.0768 48.0115 76.2579C44.1459 74.8763 42.5674 73.1004 42.4543 69.1641C42.4166 68.1241 42.1301 67.2023 40.886 67.0465ZM81.628 64.5169C83.5709 64.6023 84.8804 63.0299 84.5662 61.0278C84.2043 58.7269 82.9853 56.9886 81.0474 55.6622C77.0059 52.8815 68.9958 51.5325 63.2878 56.0139C61.2646 57.6015 59.7113 59.5081 59.3544 62.1633C59.1885 63.3966 59.3996 64.5345 60.5005 65.2705C61.5058 65.9387 62.6796 66.2603 63.6874 65.479C64.5923 64.7757 65.5021 63.894 65.9923 62.8867C66.784 61.2564 68.3347 60.6686 69.6794 59.9728C72.4567 58.5334 75.0455 59.5684 77.3477 61.3343C78.1696 61.9623 78.813 62.8188 79.5369 63.575C80.1376 64.1954 80.7609 64.748 81.628 64.5169ZM56.6877 40.9672C61.247 40.716 64.7984 38.6612 67.9301 35.7322C68.1665 35.4947 68.3618 35.2197 68.5082 34.9183C68.8927 34.1647 69.1817 33.3685 68.2819 32.8234C67.4349 32.321 66.7739 32.7555 66.2712 33.4916C65.477 34.6672 64.3636 35.471 63.1395 36.1291C61.0157 37.2696 58.7763 37.9704 56.3258 37.9428C54.9711 37.9277 54.0938 39.0405 54.7724 39.867C55.2651 40.4648 55.8432 41.1908 56.6877 40.9672ZM88.0774 40.1884C88.2885 40.1884 88.4971 40.1884 88.7057 40.1884C89.5351 40.1583 90.3948 40.0578 90.4325 39.0003C90.4727 37.895 89.6583 37.6489 88.7359 37.6388C88.2785 37.6388 87.7959 37.7418 87.3686 37.6388C84.6497 36.9837 82.2133 35.4726 80.4191 33.3283C79.8963 32.7028 79.3986 31.9995 78.4687 32.7053C77.873 33.16 77.7147 34.5491 78.2601 35.1143C80.9695 37.8699 83.9831 40.0829 88.0774 40.1884ZM57.781 46.3528C57.7609 48.9904 59.4273 50.4072 61.5083 49.5205C63.6824 48.591 64.2203 44.6673 62.3679 43.2053C62.096 42.9373 61.742 42.7684 61.3625 42.7256C59.0201 42.6778 57.8011 43.9162 57.781 46.3528ZM80.5372 46.2122C80.5212 47.0207 80.7508 47.8151 81.1957 48.4905C81.9498 49.5355 83.033 49.8747 84.2721 49.7315C85.3981 49.6034 85.8857 48.7543 86.1245 47.8098C86.4587 46.5492 86.2931 45.2084 85.662 44.067C85.2901 43.3787 84.712 42.811 83.9554 42.7432C81.7437 42.5422 80.7157 43.5319 80.5372 46.2122Z" fill="#E3ADA9"/>
<path d="M84.2091 74.5372C86.9537 73.2536 88.6452 73.9293 89.7385 76.7252C90.6785 79.1191 90.5881 81.6562 90.6358 84.138C90.7471 89.6299 91.4209 95.096 92.6465 100.451C92.9506 101.79 93.3201 103.136 93.1089 104.533C92.7973 106.613 92.355 107.045 90.2512 106.922C88.1475 106.798 86.167 106.879 84.194 107.55L84.1638 107.512C84.2845 107.107 85.0208 107.042 84.7419 106.344C83.4374 106.457 82.0073 106.191 81.0497 107.758H83.1585L83.1836 107.791C81.9118 108.439 80.6249 108.08 79.4135 107.683C76.7367 106.804 74.0952 106.846 71.4008 107.567C69.1162 108.18 68.8095 107.916 68.8673 105.472C68.9905 100.411 69.6968 95.4243 70.7122 90.4606C71.0037 89.0288 71.2936 87.5969 71.5818 86.1651C72.0497 84.9421 72.3752 83.6694 72.5519 82.3721C74.5928 78.8679 74.2962 76.4312 71.3656 73.1154C73.1752 73.3792 74.6657 74.3714 76.3698 74.6728C76.3962 74.8177 76.4534 74.9552 76.5375 75.0761C76.6216 75.197 76.7307 75.2985 76.8574 75.3737C79.0893 76.8809 80.0192 79.0688 80.1248 81.6838C80.1399 82.0279 80.1072 82.4374 80.6651 82.676C81.0246 80.5207 81.0949 78.4433 80.4138 76.4538C80.1072 75.5596 79.5643 74.605 78.4157 74.3815C80.0921 74.1504 81.7861 73.6128 83.3821 74.6804C83.0705 75.4063 83.2062 76.1323 83.3972 76.8558C83.4953 77.2351 83.7742 77.4662 84.1311 77.2979C84.8399 76.9613 84.958 76.1951 85.1365 75.5395C85.3275 74.8563 84.7947 74.6277 84.2091 74.5372ZM84.679 87.4136H84.9304C84.9304 89.7899 84.7645 92.1863 84.9756 94.54C85.1893 96.9365 85.1641 99.3731 85.8126 101.729C86.0011 102.413 86.1695 103.204 86.9763 103.078C87.7831 102.953 87.949 102.073 87.9314 101.365C87.8985 99.8213 87.7861 98.2803 87.5946 96.7481C87.2879 94.4371 86.8707 92.1436 86.6646 89.8125C86.5239 88.2249 86.5339 86.6449 86.4409 85.0624C86.4082 84.467 86.1695 83.9521 85.4959 83.9546C84.8223 83.9571 84.7167 84.5147 84.6941 85.0297C84.6539 85.8235 84.679 86.6173 84.679 87.4136ZM78.0185 86.3385C77.3525 86.4791 77.4153 86.9238 77.3248 87.2654C76.973 88.6319 76.6513 90.0009 76.415 91.3976C75.8897 94.5099 75.2488 97.6022 75.2237 100.777C75.2237 101.694 75.4323 102.573 76.4552 102.646C77.3852 102.712 77.6491 101.857 77.7119 101.074C77.8602 99.3304 78.0186 97.5845 78.0663 95.8362C78.1518 92.6912 78.5413 89.5412 78.0185 86.3385Z" fill="#7EAEA1"/>
<path d="M37.1736 82.985C40.353 85.095 43.7084 86.4339 47.3905 86.9187C50.0572 87.2678 52.6812 87.2252 55.2775 86.4465C55.4343 86.3834 55.6049 86.3623 55.7724 86.3852C55.9399 86.4081 56.0985 86.4742 56.2326 86.5771C57.4415 87.6422 58.8641 87.6823 60.4074 87.4135C60.459 87.6137 60.4843 87.8198 60.4827 88.0265C60.0982 90.5661 59.5955 93.0931 59.3291 95.6453C59.035 98.4486 58.8063 101.277 59.5277 104.07C59.8368 105.264 59.4096 105.942 58.1504 106.163C57.0309 106.355 55.8797 106.224 54.8326 105.784C53.2115 105.123 52.1182 105.784 51.9775 107.542C51.8107 109.84 51.9433 112.149 52.372 114.412C52.4022 114.576 52.45 114.739 52.4751 114.915C52.9099 117.871 52.4097 118.552 49.4364 118.934C47.2792 119.249 45.0805 119.126 42.972 118.572C41.665 118.213 41.3835 117.233 42.3411 116.276C43.1251 115.487 44.0673 114.874 45.1058 114.475C45.6259 114.278 46.0865 113.95 46.443 113.523C46.7996 113.096 47.0402 112.585 47.1417 112.038C47.3872 110.297 47.3761 108.529 47.109 106.791C46.8778 105.103 45.8523 103.92 44.6735 102.885C43.4947 101.85 42.0721 100.971 40.8808 99.9307C39.6895 98.8908 38.9204 97.371 37.9754 96.0548C37.8321 95.8538 37.7642 95.6001 37.6235 95.3941C37.2867 94.8917 36.9122 94.427 36.1984 94.6883C35.4268 94.9721 35.5298 95.6101 35.7208 96.1602C36.1707 97.4539 36.1933 98.7777 36.1757 100.119C36.1556 101.579 35.2684 102.729 33.9137 102.998C33.0868 103.159 31.7949 101.802 31.6667 100.586C31.4757 98.7828 31.7095 96.9942 31.9181 95.2082C32.182 93.0027 32.1694 90.7821 32.2423 88.5666C32.2674 87.6572 32.5238 86.9614 33.499 86.6625C35.3338 86.0797 36.0827 84.3716 37.1736 82.985Z" fill="#E3ADA9"/>
<path d="M102.265 68.5235C104.658 70.5079 106.287 72.6733 106.603 75.6575C107.063 79.9781 104.52 83.1357 100.262 83.947C97.9424 84.3841 95.904 83.6682 93.7702 83.1934C93.4108 83.1105 92.9684 83.0552 93.0162 82.5378C93.1569 80.8271 92.3978 79.2019 92.5335 77.3581C93.7902 77.8856 94.9389 78.697 96.2911 78.6141C97.5076 78.5337 98.7492 78.7447 99.933 78.1519C103.336 76.4463 103.1 75.1878 102.557 71.1786C102.401 70.301 102.304 69.414 102.265 68.5235Z" fill="#E3ADA9"/>
<path d="M62.5739 91.4452L62.6644 90.6917C62.9886 90.5108 63.1344 90.2847 62.8453 89.9506C62.8227 89.5211 63.1168 89.398 63.4535 89.285C63.7903 89.1719 64.2503 89.0916 64.474 88.8404C65.6 87.5668 67.1558 87.3332 68.7468 87.0091C68.3563 89.2833 67.9643 91.5591 67.5705 93.8367C67.1382 96.3486 66.8893 98.8732 66.7008 101.408C66.5249 103.817 65.972 104.457 63.5792 105.025C63.4686 104.889 63.3706 104.909 63.2827 105.05L63.2098 105.017H62.7976C62.8604 103.658 61.9782 102.506 62.2723 100.968C62.5236 99.677 62.1567 98.1271 62.1667 96.6978V96.7128C62.2031 96.7004 62.2362 96.6799 62.2634 96.6527C62.2906 96.6255 62.3111 96.5924 62.3235 96.556C62.3359 96.5196 62.3398 96.4808 62.3348 96.4427C62.3298 96.4046 62.3162 96.3681 62.2949 96.3361C62.0838 96.2632 62.0838 96.1904 62.2949 96.1201C62.403 95.5454 62.4776 94.965 62.5186 94.3818C62.5286 93.3946 63.1871 92.4299 62.5739 91.4452Z" fill="#57988E"/>
<path d="M93.2398 85.8762C95.7808 86.4841 98.1886 86.994 100.677 86.4339C101.18 86.3183 101.469 86.3937 101.345 87.1423C100.727 90.8474 99.8701 94.4596 97.7035 97.6172C97.017 98.6916 96.0969 99.5975 95.0117 100.267C94.0667 95.4896 93.1543 90.8122 93.2398 85.8762Z" fill="#E3ADA9"/>
<path d="M86.2928 109.732C85.8555 110.901 85.7901 112.016 85.677 113.114C85.589 113.975 86.0993 114.37 86.901 114.302C88.6277 114.151 90.279 114.671 91.9756 114.804C92.2885 114.843 92.5906 114.943 92.8646 115.099C93.1385 115.255 93.3788 115.464 93.5716 115.713C94.5769 116.904 94.2754 117.939 92.7698 118.313C90.3947 118.904 87.9717 118.816 85.5614 118.7C84.3047 118.635 83.0606 118.605 81.824 118.328C80.3411 117.997 79.7982 117.299 80.2355 115.816C80.7382 114.156 81.3414 112.536 81.2032 110.662C83.0078 110.617 84.6943 110.456 86.2928 109.732Z" fill="#E3ADA9"/>
<path d="M78.4334 74.3814C79.582 74.605 80.1249 75.5595 80.4315 76.4538C81.1127 78.4433 81.0423 80.5207 80.6829 82.676C80.1249 82.4248 80.1576 82.0279 80.1425 81.6837C80.0395 79.0688 79.1095 76.8883 76.8751 75.3736C76.7484 75.2984 76.6394 75.197 76.5552 75.0761C76.4711 74.9552 76.4139 74.8176 76.3875 74.6728C77.0158 74.193 77.7875 74.6653 78.4334 74.3814Z" fill="#57988E"/>
<path d="M84.2091 74.5372C84.7947 74.6276 85.3376 74.8562 85.1491 75.542C84.9757 76.1875 84.8576 76.9537 84.1437 77.3003C83.7868 77.4686 83.5079 77.2375 83.4099 76.8582C83.2188 76.1348 83.0831 75.4088 83.3948 74.6828L84.2091 74.5372Z" fill="#57988E"/>
<path d="M62.1667 96.6852C62.1667 98.1246 62.5161 99.6744 62.2723 100.956C61.9782 102.503 62.8604 103.646 62.7976 105.005C62.1868 104.693 62.1893 104.055 62.0235 103.513C61.3398 101.29 61.6489 99.0414 61.8751 96.7982C61.8953 96.6224 62.0561 96.6952 62.1667 96.6852Z" fill="#7EAEA1"/>
<path d="M62.574 91.4452C63.1873 92.4299 62.5288 93.3945 62.5112 94.3692C62.4702 94.9524 62.3955 95.5328 62.2875 96.1075C61.7848 96.1075 61.9557 95.7231 61.9884 95.487C62.1668 94.1381 62.3754 92.7816 62.574 91.4452Z" fill="#7EAEA1"/>
<path d="M62.8454 89.9406C63.1344 90.2746 62.9886 90.5007 62.6644 90.6816L62.8454 89.9406Z" fill="#7EAEA1"/>
<path d="M28.799 41.9593C28.7341 41.8866 28.6999 41.7915 28.7036 41.694C28.7074 41.5966 28.7488 41.5045 28.8191 41.4369C28.8116 41.6102 28.8041 41.7885 28.799 41.9593Z" fill="#57988E"/>
<path d="M62.2874 96.3235C62.3087 96.3556 62.3223 96.392 62.3273 96.4301C62.3322 96.4683 62.3284 96.507 62.316 96.5434C62.3036 96.5798 62.283 96.6129 62.2558 96.6401C62.2287 96.6673 62.1956 96.6879 62.1592 96.7003C62.1379 96.6683 62.1242 96.6318 62.1193 96.5937C62.1143 96.5556 62.1182 96.5168 62.1305 96.4804C62.1429 96.444 62.1635 96.4109 62.1907 96.3837C62.2179 96.3565 62.251 96.336 62.2874 96.3235Z" fill="#7EAEA1"/>
<path d="M109.167 76.1172C108.981 72.4623 107.388 69.4932 104.643 67.24C102.414 65.4112 101.456 63.3112 101.667 60.4249C101.848 57.9833 101.34 55.4789 101.612 53.0548C101.926 50.2515 101.981 47.4406 102.265 44.6397C102.532 41.9871 102.517 39.3068 102.61 36.6366L102.595 35.4484L102.579 35.1344C102.388 33.2605 102.199 31.3865 102.011 29.5126C101.705 29.4247 101.71 29.1308 101.652 28.9097C99.5182 20.6931 93.7248 16.1489 86.0816 13.5415C81.3967 11.9439 76.473 11.6374 71.5844 11.2179L67.8872 11.0094H64.2931L60.8824 11.0948C60.6838 11.5972 60.2063 11.6198 59.8243 11.5344C58.1855 11.1652 56.5996 11.6751 54.991 11.7605L54.3903 11.8509L54.0108 11.9916L50.7434 12.5844L50.766 12.5668C50.4694 12.818 50.105 12.818 49.743 12.818C48.958 13.2198 48.1063 13.4752 47.2296 13.5716C46.2921 14.1494 45.2491 14.4784 44.2136 14.8276C44.1105 15.0486 43.8944 15.0537 43.6959 15.0788L43.7159 15.0612L43.1907 15.3275L43.2132 15.3124C43.0398 15.4029 42.8639 15.4907 42.688 15.5787L42.2104 15.8802C39.8378 17.4351 37.435 18.9347 35.56 21.1327C32.6671 24.5188 31.2143 28.5731 29.9627 32.7355C29.8923 32.9666 29.9049 33.2379 29.6435 33.371L29.5831 33.4539C29.6234 33.8709 29.7993 34.308 29.3846 34.6496L29.3469 34.9334L28.804 41.4219C28.804 41.5952 28.7889 41.7711 28.7839 41.9444C28.7336 42.3538 28.6833 42.7633 28.6356 43.1727C28.6356 43.4239 28.6356 43.6751 28.6356 43.9263C28.7462 47.8475 28.7864 51.7712 28.5627 55.6899C28.334 61.5453 26.9893 67.1998 25.4838 72.8266L25.0767 75.0698C25.0767 75.2506 25.054 75.434 25.0439 75.6148C24.7033 77.8569 24.7236 80.139 25.1043 82.3746C25.3992 83.0311 25.6924 83.6866 25.984 84.3414C26.562 85.3839 27.4643 86.1149 28.3817 86.8334L29.6184 87.2805C29.5078 88.1496 29.8345 89.0388 29.367 89.8954C29.367 90.4305 29.367 90.9655 29.367 91.5006C29.3821 93.3469 29.367 95.1932 28.804 96.9817C29.1081 98.3809 28.6104 99.8203 29 101.214C29.0704 101.41 29.1408 101.604 29.2086 101.8C30.0531 104.312 31.3676 105.316 33.8509 105.419C35.7183 105.49 37.4123 104.259 38.3096 102.199C38.4328 101.913 38.4454 101.541 38.9028 101.378C40.4108 102.681 42.0923 103.849 43.4621 105.372C44.02 105.992 44.5353 106.655 44.6283 107.535C44.6509 108.572 44.6811 109.609 44.6886 110.647C44.6886 111.051 44.7414 111.508 44.2011 111.652C42.9971 112.619 41.5469 113.254 40.4913 114.415C39.3779 115.643 38.8877 117.027 39.3628 118.685C39.8378 120.343 41.1221 121.019 42.6955 121.325C44.8947 121.755 47.114 121.677 49.3283 121.576C53.493 121.401 55.1091 119.657 55.0764 115.477V114.724C54.7623 112.714 54.3551 110.717 54.5361 108.595L55.7224 108.778C57.6451 109.094 59.4347 108.677 61.1438 107.808C61.4705 107.64 61.7696 107.437 62.1918 107.6C63.2852 108.027 64.3157 107.693 65.3235 107.258C65.3906 107.208 65.4735 107.183 65.5573 107.188L65.5422 107.205C65.7508 107.009 65.9393 106.783 66.3264 106.778C66.4118 107.344 66.4998 107.909 66.5777 108.474C66.6581 108.53 66.7231 108.606 66.767 108.693C66.8109 108.781 66.8322 108.878 66.829 108.976L67.284 109.534C68.5407 110.652 70.0211 110.466 71.4336 110.107C73.3211 109.627 75.1735 109.353 77.1088 109.773C78.5666 110.094 78.8682 110.386 78.6545 111.893C78.4987 112.963 78.167 114.005 77.9257 115.063C77.2043 118.23 78.3555 120.509 81.3062 120.953C85.3653 121.566 89.4847 121.647 93.5288 120.742C95.0368 120.403 96.3312 119.519 96.6856 117.844C97.0274 116.231 96.3865 114.917 95.2404 113.787C94.3708 112.928 93.2699 112.558 92.159 112.187L88.3261 111.684L88.7558 109.537H90.6585H91.2114L93.0161 109.197L93.0588 109.248L93.6394 108.969C94.9941 107.944 95.4666 106.495 95.4264 104.897C95.3962 103.706 95.6024 102.804 96.7862 102.229C97.3643 101.948 97.8242 101.395 98.2942 100.923C101.192 97.989 102.64 94.3542 103.371 90.3727L103.778 86.3938C103.824 85.9567 103.706 85.4241 104.379 85.3462C104.557 85.18 104.743 85.0233 104.937 84.8765C108.056 82.7765 109.356 79.8274 109.167 76.1172ZM60.4827 88.019C60.0982 90.5586 59.5955 93.0857 59.3291 95.6378C59.0351 98.4412 58.8064 101.27 59.5277 104.063C59.8368 105.256 59.4096 105.934 58.1504 106.155C57.0309 106.348 55.8797 106.216 54.8326 105.776C53.2115 105.115 52.1182 105.776 51.9775 107.535C51.8107 109.832 51.9433 112.141 52.372 114.405C52.4022 114.568 52.45 114.731 52.4751 114.907C52.9099 117.864 52.4097 118.545 49.4364 118.926C47.2792 119.242 45.0805 119.118 42.972 118.565C41.665 118.205 41.3835 117.226 42.3411 116.269C43.1251 115.48 44.0673 114.866 45.1058 114.468C45.6259 114.27 46.0865 113.942 46.443 113.516C46.7996 113.089 47.0402 112.578 47.1417 112.031C47.3872 110.29 47.3761 108.522 47.109 106.783C46.8778 105.095 45.8523 103.912 44.6735 102.877C43.4948 101.842 42.0722 100.963 40.8808 99.9232C39.6895 98.8833 38.9204 97.3635 37.9754 96.0472C37.8321 95.8463 37.7642 95.5926 37.6235 95.3866C37.2867 94.8842 36.9122 94.4195 36.1984 94.6808C35.4268 94.9646 35.5298 95.6026 35.7208 96.1527C36.1707 97.4464 36.1933 98.7702 36.1758 100.112C36.1556 101.571 35.2684 102.722 33.9137 102.99C33.0868 103.151 31.7949 101.795 31.6668 100.579C31.4757 98.7753 31.7095 96.9867 31.9181 95.2007C32.182 92.9952 32.1694 90.7746 32.2423 88.559C32.2675 87.6497 32.5238 86.9539 33.499 86.655C35.3413 86.0873 36.0903 84.3791 37.1811 82.985C40.3605 85.095 43.716 86.4339 47.3981 86.9187C50.0648 87.2679 52.6887 87.2252 55.2851 86.4465C55.4419 86.3834 55.6125 86.3623 55.7799 86.3852C55.9474 86.4081 56.106 86.4743 56.2402 86.5771C57.4491 87.6422 58.8716 87.6824 60.4149 87.4136C60.4624 87.6084 60.4852 87.8084 60.4827 88.0089V88.019ZM59.2009 84.6856C58.4469 85.2056 57.8914 84.6103 57.4189 84.2561C56.7881 83.7788 56.22 83.711 55.461 83.8316C51.5979 84.442 47.7047 84.864 43.9447 83.3718C40.0891 81.8446 36.8167 79.6189 35.4217 75.4239C34.5622 72.8441 34.8387 70.2317 35.2659 67.6368C35.3992 66.8305 35.5173 66.0618 34.5119 65.8383C33.4387 65.6021 33.1698 66.4361 32.9461 67.2274C31.8025 71.2666 32.1569 75.1275 34.2028 78.8478C35.4595 81.1337 33.6598 84.7182 31.1364 84.8514C30.0682 84.9066 29.0151 84.143 28.4471 83.1106C27.3286 81.0809 27.0145 78.9056 27.668 76.6699C28.0827 75.2506 27.9193 73.7711 28.3742 72.3393C29.7818 67.7658 30.7192 63.0608 31.1716 58.2973C31.6089 54.0269 31.4506 49.7239 31.4381 45.4335C31.423 40.7863 31.7924 36.1945 33.117 31.6905C35.4695 23.6974 40.6773 18.6558 48.5316 16.0811C53.8097 14.3528 59.2135 13.858 64.6977 13.8203C71.1948 13.77 77.6718 13.9936 84.0207 15.5787C86.8859 16.2946 89.6506 17.3873 92.0308 19.0703C96.0095 21.8888 98.4626 25.815 99.2945 30.6782C99.9664 34.7143 100.087 38.8228 99.6539 42.8913C98.8999 50.3871 98.8019 57.8979 99.0582 65.4087C99.1387 67.7499 99.7193 70.0785 100.147 72.397C100.599 74.8462 99.5559 76.0896 97.0651 75.9489C95.9306 75.8808 94.8406 75.4836 93.9284 74.806C93.011 74.1453 92.0208 73.6404 90.8822 73.6002C90.4776 73.5852 90.4147 73.324 90.2312 73.1381C88.4719 71.3797 86.4134 71.2164 84.1991 72.0052C83.6185 72.2137 83.1409 72.3141 82.5453 72.093C81.7051 71.8133 80.8058 71.7613 79.9389 71.9424C77.4632 72.3568 75.083 71.9875 72.733 71.1611C72.015 70.9405 71.2697 70.8213 70.5187 70.8069C66.4973 70.5708 62.7272 71.1813 59.402 73.7209C58.0694 74.7702 56.6164 75.6573 55.0739 76.3634C52.7591 77.3682 50.2859 77.0768 48.0013 76.2579C44.1357 74.8763 42.5572 73.1004 42.4441 69.1641C42.4165 68.1392 42.13 67.2174 40.8858 67.0616C40.0087 67.564 39.8152 68.3477 39.8428 69.2897C39.9886 74.2031 42.3084 76.7453 46.5435 78.4157C51.8744 80.5157 56.5795 79.2698 60.8698 75.7404C62.0239 74.769 63.3591 74.0357 64.7983 73.5827C67.7213 72.6834 70.9159 74.5473 71.5191 77.5315C71.7402 78.6267 71.5467 79.5009 70.7123 81.0031C70.4107 80.458 70.1392 79.9832 69.8803 79.4959C69.4157 78.5939 68.6121 77.9128 67.6459 77.6018C67.0527 77.4009 66.525 77.4963 66.2309 78.0339C65.9368 78.5715 66.3415 78.888 66.7336 79.1718C67.3046 79.5628 67.7708 80.0879 68.0912 80.7011C68.4116 81.3143 68.5763 81.9968 68.5709 82.6886C68.5709 83.4874 68.5709 84.4093 67.3846 84.6554C67.3267 82.5956 66.3339 81.2668 64.4011 80.6238C63.7753 80.4153 63.1998 80.3725 62.9233 81.0181C62.6468 81.6637 62.8378 82.1686 63.5767 82.4977C64.5042 82.9122 64.9214 83.7336 64.8712 84.7459C64.8209 85.7582 64.1824 86.2933 63.3807 86.6851C62.8252 86.4339 62.5815 86.0094 62.3603 85.5547C61.6214 84.045 60.5456 83.7537 59.2009 84.6856ZM67.5705 93.8266C67.1382 96.3386 66.8894 98.8632 66.7009 101.398C66.5249 103.807 65.972 104.447 63.5792 105.015L63.2827 105.04L63.2098 105.007C63.0741 105.113 62.9384 105.284 62.7976 105.007C62.1869 104.696 62.1894 104.058 62.0235 103.515C61.3398 101.292 61.649 99.044 61.8752 96.8008C61.8928 96.6225 62.0436 96.6828 62.1542 96.6778C62.1328 96.6466 62.1192 96.6108 62.1145 96.5734C62.1098 96.5359 62.1141 96.4979 62.1272 96.4624C62.1402 96.427 62.1616 96.3952 62.1895 96.3698C62.2173 96.3443 62.2509 96.3259 62.2874 96.316C62.0763 96.2432 62.0763 96.1703 62.2874 96.1C61.7847 96.1 61.9556 95.7157 61.9883 95.4795C62.1667 94.1306 62.3753 92.7842 62.5739 91.4378L62.6644 90.6842L62.8454 89.9431C62.8227 89.5136 63.1168 89.3905 63.4536 89.2775C63.7904 89.1645 64.2503 89.0841 64.474 88.8329C65.6 87.5593 67.1558 87.3257 68.7468 87.0016C68.3581 89.2741 67.966 91.5491 67.5705 93.8266ZM91.9755 114.807C92.2884 114.845 92.5906 114.946 92.8645 115.102C93.1385 115.258 93.3788 115.467 93.5715 115.716C94.5769 116.907 94.2753 117.942 92.7698 118.316C90.3946 118.906 87.9717 118.818 85.5613 118.703C84.3046 118.637 83.0606 118.607 81.824 118.331C80.3411 117.999 79.7982 117.301 80.2355 115.819C80.7382 114.159 81.3414 112.538 81.2032 110.664C83.0078 110.607 84.6943 110.451 86.2928 109.727C85.8554 110.896 85.79 112.011 85.6769 113.109C85.589 113.97 86.0992 114.365 86.901 114.297C88.6277 114.151 90.279 114.671 91.9755 114.807ZM93.1242 104.533C92.8125 106.613 92.3701 107.045 90.2664 106.922C88.1627 106.799 86.1822 106.879 84.2092 107.55C83.9136 107.748 83.558 107.837 83.2038 107.801C81.932 108.449 80.6452 108.09 79.4337 107.693C76.757 106.814 74.1154 106.856 71.421 107.577C69.1363 108.19 68.8297 107.926 68.8876 105.482C69.0107 100.421 69.7169 95.4343 70.7323 90.4707C71.0239 89.0389 71.3138 87.607 71.602 86.1752C72.0699 84.9522 72.3954 83.6795 72.5722 82.3821C74.613 78.8779 74.3165 76.4413 71.3858 73.1255C73.1955 73.3892 74.6859 74.3815 76.39 74.6829C77.0158 74.2006 77.7799 74.6829 78.4334 74.3915C80.1098 74.1604 81.8039 73.6229 83.3999 74.6904L84.2092 74.5472C86.9538 73.2636 88.6453 73.9394 89.7386 76.7352C90.6786 79.1291 90.5882 81.6662 90.6359 84.148C90.7472 89.6399 91.421 95.1061 92.6466 100.461C92.9658 101.79 93.3353 103.136 93.1191 104.533H93.1242ZM101.345 87.1423C100.727 90.8475 99.8701 94.4597 97.7035 97.6172C97.017 98.6916 96.0969 99.5975 95.0117 100.267C94.0667 95.4946 93.1543 90.8123 93.2398 85.8763C95.7808 86.4842 98.1886 86.9941 100.677 86.4339C101.182 86.3184 101.469 86.3937 101.345 87.1423ZM100.262 83.9396C97.9423 84.3766 95.904 83.6607 93.7701 83.186C93.4107 83.1031 92.9683 83.0478 93.0161 82.5303C93.1568 80.8197 92.3978 79.1944 92.5335 77.3506C93.7902 77.8782 94.9388 78.6895 96.291 78.6066C97.5075 78.5263 98.7491 78.7372 99.9329 78.1444C103.336 76.4388 103.1 75.1803 102.557 71.1712C102.403 70.2992 102.308 69.4181 102.27 68.5336C104.663 70.5181 106.292 72.6834 106.608 75.6676C107.063 79.9706 104.52 83.1357 100.262 83.9396Z" fill="#1D2831"/>
<path d="M59.3617 62.1632C59.1958 63.3966 59.4069 64.5345 60.5078 65.2705C61.5131 65.9387 62.6869 66.2603 63.6947 65.479C64.5996 64.7757 65.5095 63.894 65.9996 62.8867C66.7913 61.2564 68.342 60.6686 69.6867 59.9727C72.464 58.5334 75.0528 59.5684 77.355 61.3343C78.1769 61.9623 78.8203 62.8188 79.5442 63.5749C80.1374 64.1954 80.7607 64.748 81.6278 64.5169C83.5707 64.6023 84.8801 63.0299 84.5659 61.0278C84.204 58.7269 82.985 56.9885 81.0472 55.6622C77.0057 52.8815 68.9955 51.5325 63.2876 56.0139C61.2719 57.614 59.7186 59.5081 59.3617 62.1632Z" fill="#1D2831"/>
<path d="M56.6875 40.9671C61.2468 40.7159 64.7982 38.6611 67.9299 35.7321C68.1663 35.4946 68.3616 35.2196 68.508 34.9182C68.8925 34.1646 69.1815 33.3684 68.2817 32.8233C67.4347 32.3209 66.7737 32.7554 66.271 33.4914C65.4768 34.667 64.3634 35.4709 63.1394 36.129C61.0155 37.2695 58.7762 37.9703 56.3256 37.9427C54.9709 37.9276 54.0937 39.0404 54.7723 39.8669C55.2649 40.4647 55.843 41.1906 56.6875 40.9671Z" fill="#1D2831"/>
<path d="M88.0772 40.1884C88.2884 40.1884 88.497 40.1884 88.7056 40.1884C89.535 40.1582 90.3946 40.0577 90.4323 39.0002C90.4725 37.8949 89.6582 37.6488 88.7358 37.6387C88.2783 37.6387 87.7958 37.7417 87.3685 37.6387C84.6495 36.9836 82.2132 35.4725 80.419 33.3282C79.8962 32.7027 79.3985 31.9994 78.4686 32.7052C77.8729 33.1599 77.7145 34.549 78.2599 35.1142C80.9694 37.8698 83.9829 40.0829 88.0772 40.1884Z" fill="#1D2831"/>
<path d="M61.5082 49.5204C63.6823 48.591 64.2202 44.6672 62.3678 43.2053C62.0959 42.9373 61.7419 42.7683 61.3624 42.7255C59.0174 42.6778 57.7984 43.9162 57.7783 46.3528C57.7607 48.9904 59.4397 50.4071 61.5082 49.5204Z" fill="#1D2831"/>
<path d="M83.9553 42.7431C81.7435 42.5321 80.7155 43.5319 80.537 46.2121C80.521 47.0207 80.7506 47.815 81.1956 48.4905C81.9496 49.5354 83.0329 49.8746 84.272 49.7314C85.398 49.6033 85.8855 48.7542 86.1243 47.8097C86.4586 46.5492 86.2929 45.2083 85.6619 44.0669C85.2899 43.3786 84.7118 42.8134 83.9553 42.7431Z" fill="#1D2831"/>
<path d="M84.6791 87.4135C84.6791 86.6172 84.654 85.8234 84.6791 85.0296C84.7018 84.5272 84.825 83.9546 85.481 83.9546C86.137 83.9546 86.3933 84.4569 86.426 85.0623C86.519 86.6449 86.5089 88.2249 86.6497 89.8124C86.8558 92.1435 87.273 94.437 87.5796 96.748C87.7711 98.2802 87.8835 99.8212 87.9164 101.365C87.934 102.066 87.7631 102.953 86.9613 103.078C86.1595 103.204 85.9862 102.413 85.7976 101.729C85.1492 99.3731 85.1743 96.9364 84.9607 94.54C84.7495 92.1812 84.9154 89.7898 84.9154 87.4135H84.6791Z" fill="#57988E"/>
<path d="M78.0187 86.3384C78.5214 89.5412 78.152 92.6912 78.069 95.8362C78.0213 97.5945 77.8629 99.3303 77.7146 101.074C77.6492 101.857 77.3853 102.711 76.4579 102.646C75.4349 102.573 75.2188 101.694 75.2264 100.777C75.2515 97.6021 75.8924 94.5099 76.4177 91.3975C76.654 90.0009 76.9756 88.6344 77.3275 87.2653C77.4155 86.9237 77.3526 86.4791 78.0187 86.3384Z" fill="#57988E"/>
<path d="M84.1789 107.512L83.1736 107.763H81.0548C82.0124 106.196 83.4425 106.462 84.747 106.349C85.036 107.042 84.2996 107.1 84.1789 107.512Z" fill="#57988E"/>
</svg>
