<svg width="130" height="129" viewBox="0 0 130 129" fill="none" xmlns="http://www.w3.org/2000/svg">
<path d="M129.068 0H0.382324V128.613H129.068V0Z" fill="#B5E8CF"/>
<path opacity="0.3" d="M64.0968 122.446C86.7923 122.446 105.191 119.635 105.191 116.166C105.191 112.698 86.7923 109.886 64.0968 109.886C41.4012 109.886 23.0028 112.698 23.0028 116.166C23.0028 119.635 41.4012 122.446 64.0968 122.446Z" fill="#1D2831"/>
<path d="M40.2447 97.0149C40.0134 98.5221 40.2447 99.9388 39.9607 101.343C39.4982 103.604 38.1861 104.9 36.2358 104.86C34.3884 104.822 32.6316 103.101 32.3803 101.064C32.2672 100.15 32.1842 99.2355 32.0987 98.3186C31.9504 96.731 31.4578 95.2741 30.3394 94.1211C28.0773 91.8 27.1649 88.9766 27.1096 85.799C27.0393 81.6567 26.979 77.5095 26.8407 73.3748C26.5039 63.3796 26.2526 53.3844 26.3506 43.3843C26.3682 41.3747 26.4009 39.3651 26.7729 37.3832C26.9921 36.0984 27.4938 34.8781 28.2418 33.8104C28.9897 32.7427 29.9654 31.8541 31.0984 31.2087C37.5176 27.5212 44.1379 24.2004 51.2055 21.8692C52.4858 21.469 53.8231 21.2815 55.1641 21.3141C67.5074 21.3895 79.8481 21.505 92.1863 21.9371C95.4898 22.0248 98.7811 22.3759 102.029 22.9871C106.05 23.7758 107.536 25.5417 108.038 29.5684C108.624 34.2784 108.36 38.9934 108.415 43.7134C108.546 54.6957 108.126 65.6755 108.295 76.6579C108.267 77.1599 108.267 77.663 108.295 78.165C108.963 83.5959 106.09 87.0449 101.798 89.6247C100.661 90.308 100.204 91.0615 100.425 92.3627C100.839 94.6756 101.754 96.8702 103.105 98.7934C103.497 99.3686 104.08 99.3762 104.675 99.341C106.965 99.2003 107.566 99.5143 108.111 101.15C108.561 102.496 108.073 103.564 106.48 104.702C106.462 104.82 106.462 104.94 106.48 105.058C107.586 108.444 105.96 110.007 101.984 110.313C101.742 110.321 101.503 110.361 101.272 110.431C98.4246 111.436 95.6046 110.364 94.3454 107.608C93.0409 104.752 92.7217 101.657 92.6388 98.5447C92.6187 97.8062 92.7644 97.0526 92.4729 96.1809C91.8068 96.51 91.1684 96.7938 90.5626 97.1304C89.1251 97.9072 87.5864 98.4805 85.9908 98.8336C84.2717 99.233 83.96 99.6123 83.8695 101.403C83.7891 102.986 84.0807 104.584 83.6635 106.153C83.5328 106.638 83.5278 107.209 83.2588 107.593C82.2083 109.1 82.4142 110.683 82.5826 112.378C82.9999 116.606 81.8438 118.156 77.7671 119.263C76.9273 119.521 76.0683 119.712 75.1983 119.834C72.044 120.178 68.8848 120.663 65.728 119.806C64.1772 119.384 62.9028 118.623 62.5635 116.95C62.1991 115.161 63.1216 113.87 64.524 112.916C66.4845 111.587 68.6736 110.76 70.9608 110.185C71.7299 109.992 72.504 109.823 73.4063 109.615C73.0846 106.282 73.1098 102.986 72.9866 99.6952C72.9564 98.8637 72.5165 98.4392 71.6393 98.3739C67.633 98.1403 63.6293 97.8489 59.6229 97.6404C58.6754 97.5901 57.7152 97.7886 56.7601 97.8539C55.9483 97.9092 56.0061 98.5121 56.0061 99.0471C55.9862 102.389 56.348 105.722 57.0844 108.982C57.959 112.921 56.9964 114.657 53.1685 115.93C49.0214 117.312 44.7713 117.251 40.5061 116.699C39.9119 116.651 39.3482 116.416 38.8964 116.027C38.4447 115.638 38.1282 115.116 37.9927 114.536C37.6609 113.265 37.7765 112.069 38.8146 111.067C40.966 108.989 43.6327 107.942 46.4327 107.151C48.3177 106.616 48.3402 106.628 48.207 104.656C48.0562 102.451 47.8476 100.248 47.7043 98.0423C47.6591 97.3867 47.4229 97.0752 46.7443 97.0048C45.7012 96.8943 44.6783 96.7536 43.6277 97.0048C42.5771 97.256 41.4687 97.0199 40.2447 97.0149ZM92.6261 92.1115C92.9076 89.7352 92.6866 87.3539 92.7268 84.975C92.7795 81.9255 92.7117 78.8735 92.7016 75.8214C92.7016 74.9824 92.8399 74.0354 93.8477 74.063C94.745 74.0831 94.7023 75.0226 94.7123 75.731C94.7324 77.2381 94.7551 78.7453 94.7526 80.2525C94.7526 87.5171 94.3127 94.7818 94.9058 102.039C95.0667 104.011 95.4865 105.953 96.7959 107.52C97.4896 108.349 98.2864 109.246 99.6763 108.763C99.073 107.902 98.4975 107.151 98.0099 106.349C97.8986 106.168 97.8465 105.957 97.8609 105.745C97.8753 105.533 97.9555 105.331 98.0903 105.166C98.2612 104.945 98.5301 104.82 98.7463 104.983C99.2967 105.395 99.9853 105.596 100.355 106.287C101.305 108.07 102.207 108.336 104.042 107.648C104.866 107.342 104.783 106.895 104.462 106.319C104.14 105.744 103.585 105.686 102.954 105.639C101.948 105.561 100.986 105.284 100.591 104.156C100.45 103.749 100.302 103.355 100.661 102.993C101.021 102.632 101.368 102.772 101.712 102.926C102.873 103.428 104.024 103.428 105.256 103.144C105.97 102.983 106.307 102.75 106.261 102.026C106.214 101.16 105.578 101.368 105.06 101.358C104.145 101.341 103.022 101.67 102.386 101.014C100.722 99.3303 99.5237 97.2433 98.9096 94.9576C98.2988 92.5938 98.4447 90.1447 98.4673 87.7231C98.51 83.3774 98.5829 79.0292 98.6508 74.6835C98.6508 73.9299 98.9524 73.2894 99.7818 73.317C100.707 73.3446 100.398 74.1635 100.403 74.6785C100.45 78.1475 100.458 81.619 100.48 85.0881V88.3963C102.355 87.3915 103.723 86.0551 104.944 84.6861C106.319 83.1463 106.482 81.099 106.48 79.0618C106.465 69.9559 106.42 60.8475 106.525 51.7416C106.586 46.4087 106.447 41.0758 106.621 35.7353C106.72 33.1974 106.482 30.6575 105.914 28.1818C105.829 27.8201 105.784 27.3529 105.54 27.1394C104.256 26.0115 102.823 25.0444 101.099 24.8284C98.3166 24.4767 95.5216 24.1124 92.7242 24.0471C89.3009 23.9642 85.8878 23.6829 82.467 23.6151C74.1879 23.4493 65.9088 23.2985 57.6272 23.2056C55.1465 23.1779 52.5754 22.9946 50.2656 24.0798C48.9636 24.6927 47.6139 25.1122 46.2994 25.6547C45.0427 26.1747 43.786 26.7299 42.5746 27.3328C41.6899 27.7674 40.8528 28.4406 39.9757 28.7269C37.1079 29.6664 34.5895 31.2389 32.0685 32.7888C30.0176 34.0448 28.5272 35.8333 28.2985 38.4282C28.1979 39.5133 28.1125 40.5935 28.1099 41.6786C28.0798 51.4904 28.1704 61.2997 28.5725 71.1064C28.7685 75.8792 28.7535 80.6519 28.8867 85.4096C28.9255 86.5326 29.0746 87.6491 29.3315 88.743C29.6507 90.1076 30.3475 91.355 31.3423 92.3427C32.6165 93.674 33.7576 95.1611 33.74 97.3038C33.74 98.7005 33.6747 100.208 34.3056 101.574C34.7831 102.604 35.6175 103.039 36.7209 102.918C37.7866 102.8 37.9926 101.996 38.1887 101.097C38.4802 99.7655 38.3571 98.4317 38.3143 97.1129C38.2666 95.671 40.0235 94.7843 40.9936 94.92C43.2431 95.2365 45.5177 95.2189 47.7798 95.2741C50.6048 95.3445 53.4173 95.7413 56.2498 95.5856C59.5399 95.4047 62.7847 95.9574 66.0647 96.1432C68.1357 96.2588 70.2168 96.2035 72.2803 96.3743C74.1754 96.5326 76.0277 97.0149 76.6762 99.1375C76.9602 100.062 77.3523 100.979 77.3825 101.986C77.4202 103.282 77.5333 104.576 77.6338 105.87C77.772 107.648 79.1821 108.457 80.763 107.651C81.6502 107.201 81.7256 106.264 81.884 105.438C82.2007 103.782 82.0348 102.099 82.0825 100.429C82.1253 99.0069 82.9296 97.8891 84.0455 97.4646C85.7043 96.8315 87.4712 96.4597 89.1778 95.8745C91.6183 95.0229 92.6689 94.0884 92.6237 92.1115H92.6261ZM49.798 97.3867C49.6623 100.557 50.0318 103.614 50.4038 106.666C50.5546 107.922 50.2831 108.505 49.0289 108.633C47.7747 108.761 46.5759 109.188 45.3091 109.341C43.6101 109.547 42.2226 110.683 40.8177 111.602C40.0636 112.104 39.561 112.958 39.8576 113.88C40.1542 114.802 41.0564 114.862 41.9185 114.955C45.5503 115.35 49.1093 115.166 52.6457 114.144C55.237 113.39 55.8754 111.974 55.2495 109.738C54.2799 106.155 53.8055 102.457 53.8395 98.7457C53.8395 98.3036 53.8999 97.8313 53.5731 97.3766L49.798 97.3867ZM75.4673 101.614H75.128C75.1531 104.159 75.0501 106.709 75.4849 109.231C75.784 110.971 75.3693 111.856 73.2228 111.936C70.9759 112.021 68.5529 112.042 66.8363 113.993C66.6528 114.202 66.3513 114.111 66.1426 114.209C65.1901 114.646 64.7401 115.526 64.6119 116.47C64.5063 117.254 65.2729 117.513 65.8686 117.829C66.8086 118.332 67.8266 118.105 68.8043 118.213C71.7927 118.548 74.6681 117.688 77.5836 117.294C78.9408 117.111 80.2628 116.483 80.4865 114.94C80.68 113.594 80.68 112.195 80.1623 110.861C80.1048 110.691 80.0058 110.537 79.8741 110.415C79.7425 110.293 79.5824 110.205 79.4083 110.16C76.7667 109.226 75.9071 107.975 75.7915 105.154C75.7236 103.996 75.5729 102.81 75.4673 101.627V101.614Z" fill="#1D2831"/>
<path d="M19.0241 80.7198C20.1878 82.4355 20.59 84.2089 21.0122 85.9723C21.0963 86.3806 21.0863 86.8026 20.9831 87.2065C20.8799 87.6103 20.6862 87.9855 20.4165 88.3034C20.0948 88.7254 19.5192 89.2404 18.9236 89.0118C18.0715 88.6827 17.2019 88.115 17.1642 87.1077C17.0863 84.8469 17.7247 82.752 19.0241 80.7198Z" fill="#A7BBA6"/>
<path d="M20.1777 58.2778C20.9317 60.0939 22.0176 61.7594 21.8341 63.8041C21.7537 64.6908 21.3314 65.3113 20.3537 65.3264C19.2227 65.354 18.1319 64.6481 18.1571 63.7137C18.1612 61.719 18.8777 59.7913 20.1777 58.2778Z" fill="#6CA198"/>
<path d="M92.6237 92.1116C92.6664 94.0885 91.6184 95.023 89.1728 95.8494C87.4662 96.4272 85.6994 96.8064 84.0405 97.4395C82.9246 97.864 82.1203 98.9818 82.0775 100.404C82.0298 102.074 82.1957 103.757 81.879 105.412C81.7206 106.239 81.6452 107.171 80.758 107.626C79.1771 108.432 77.767 107.626 77.6288 105.845C77.5257 104.551 77.4126 103.257 77.3775 101.961C77.3473 100.956 76.9552 100.037 76.6712 99.1125C76.0227 96.9924 74.1704 96.5101 72.2753 96.3493C70.2118 96.1785 68.1308 96.2337 66.0597 96.1182C62.7923 95.9323 59.5248 95.3796 56.2449 95.5605C53.4123 95.7162 50.5999 95.3093 47.7748 95.249C45.5329 95.1938 43.2507 95.2114 40.9887 94.8949C40.0185 94.7592 38.2616 95.6484 38.3094 97.0878C38.3521 98.4066 38.4752 99.7405 38.1837 101.072C37.9876 101.971 37.7816 102.775 36.7159 102.893C35.6125 103.014 34.7781 102.579 34.3006 101.549C33.6697 100.193 33.725 98.6854 33.7351 97.2787C33.7526 95.136 32.6116 93.6489 31.3373 92.3176C30.3425 91.3299 29.6457 90.0825 29.3266 88.7179C29.0696 87.624 28.9206 86.5075 28.8817 85.3845C28.7485 80.6117 28.7636 75.839 28.5675 71.0813C28.1654 61.2846 28.0648 51.4654 28.105 41.6536C28.105 40.5684 28.1929 39.4882 28.2935 38.403C28.5297 35.8082 30.0202 34.0172 32.0636 32.7637C34.5769 31.2213 37.0903 29.6413 39.9707 28.7018C40.8478 28.4155 41.6849 27.7423 42.5696 27.3077C43.7911 26.7048 45.0352 26.1497 46.2944 25.6297C47.6089 25.0871 48.9587 24.6676 50.2606 24.0547C52.5704 22.9695 55.1416 23.1529 57.6223 23.1805C65.9039 23.2735 74.1829 23.4317 82.462 23.5899C85.8828 23.6578 89.296 23.9391 92.7192 24.022C95.5166 24.0873 98.3116 24.4516 101.094 24.8032C102.818 25.0193 104.251 25.9864 105.535 27.1143C105.786 27.3278 105.824 27.795 105.909 28.1568C106.477 30.6325 106.715 33.1723 106.616 35.7102C106.442 41.0507 106.581 46.3836 106.52 51.7165C106.415 60.8224 106.46 69.9308 106.475 79.0367C106.475 81.0739 106.314 83.1212 104.939 84.6611C103.718 86.0301 102.351 87.3539 100.476 88.3713V85.063C100.76 85.0177 101.149 85.0756 101.315 84.9098C102.788 83.4403 104.771 82.2672 104.474 79.705C104.444 79.162 104.444 78.6177 104.474 78.0747C104.447 64.6909 104.52 51.3071 104.253 37.9233C104.205 35.5394 104.253 33.1505 104.188 30.7742C104.153 29.2972 103.434 28.7646 101.976 29.0459C101.572 29.1507 101.187 29.3204 100.838 29.5483C98.015 31.1761 95.1873 32.7963 92.3899 34.4643C91.2137 35.1651 90.0199 35.8685 89.3237 37.1471C88.5831 38.5557 88.0795 40.0765 87.8332 41.6486C87.3632 44.3464 87.5818 47.0744 87.5818 49.7748C87.612 61.782 87.426 73.7893 87.3481 85.794C87.3355 87.9216 87.8357 90.0217 88.3534 92.0915C88.6048 93.0737 89.2507 93.3475 90.1581 92.8601C90.5954 92.629 90.9448 92.2422 91.3646 91.9734C91.7843 91.7046 92.2769 91.4559 92.6237 92.1116ZM30.9225 75.3567C30.9225 76.6403 30.8923 78.4389 30.9225 80.2375C30.9323 82.2215 31.5605 84.1531 32.7196 85.7638C33.8758 87.3539 35.1299 88.8711 36.3188 90.4361C37.1029 91.471 38.1184 91.9433 39.4077 92.104C41.6999 92.4004 44.0048 92.2598 46.297 92.4306C50.8378 92.7655 55.3829 93.0653 59.9321 93.3299C63.2297 93.5133 66.5322 93.5811 69.8348 93.7117C72.9665 93.8348 76.0982 94.0257 79.2299 94.091C81.2205 94.1312 82.8793 93.659 84.0279 91.6318C85.0182 89.8734 85.2846 88.0975 85.3424 86.2386C85.5937 78.768 85.2519 71.2924 85.5258 63.8167C85.7495 57.7604 85.4355 51.6914 85.4279 45.6325C85.4279 39.8826 81.5874 37.8881 77.0432 37.6168C75.691 37.5364 75.3065 38.059 75.3065 39.4632C75.3065 40.7191 75.3693 41.9751 75.3065 43.2311C75.2487 44.6052 74.4619 45.4064 73.346 45.3738C72.23 45.3411 71.5313 44.4996 71.5187 43.113C71.5187 42.068 71.564 41.018 71.4911 39.9781C71.3655 38.1946 70.712 37.3681 69.013 37.2149C65.0971 36.8808 61.1763 36.5743 57.2453 36.5944C56.4184 36.5944 55.5839 37.0316 54.7696 36.7C53.8849 36.3357 52.975 36.3458 52.0576 36.3182C50.4692 36.2704 48.8832 36.2453 47.2947 36.1574C43.962 35.9715 40.6041 35.7956 37.2965 36.3458C34.5846 36.7954 32.2697 37.7952 31.1488 40.7593C30.3394 42.9103 29.9768 45.2034 30.083 47.499C30.3721 56.6174 30.6385 65.7283 30.925 75.3592L30.9225 75.3567ZM99.9778 26.3732C99.4148 26.2577 98.9373 26.122 98.4472 26.0668C92.2542 25.3961 86.0285 25.2429 79.8079 25.062C77.1537 24.9841 74.4595 25.4589 71.8456 25.1599C68.3268 24.7555 64.8356 24.8962 61.3345 24.7505C59.3238 24.6651 57.3307 24.4591 55.325 24.6425C52.3341 24.9138 49.7554 26.3531 47.1239 27.6166C44.0701 29.0811 41.0465 30.6084 38.0254 32.1382C37.578 32.3668 36.8215 32.515 36.9773 33.1957C37.1331 33.8765 37.8922 33.7911 38.4652 33.8162C39.0383 33.8414 39.551 33.8162 40.0939 33.8162C43.0974 33.8941 46.0908 33.8941 49.0994 34.188C51.467 34.4191 53.9125 34.1277 56.3379 34.2156C65.0216 34.5271 73.6954 35.1903 82.3968 35.0923C84.1984 35.1155 85.9767 34.6835 87.5667 33.8363C91.3737 31.7363 95.1714 29.6212 98.96 27.491C99.3546 27.2549 99.7919 27.064 99.9804 26.3607L99.9778 26.3732Z" fill="#A7BBA6"/>
<path d="M92.6237 92.1115C92.2743 91.4559 91.8043 91.6945 91.367 91.9734C90.9297 92.2522 90.598 92.629 90.1606 92.8601C89.2533 93.3399 88.5973 93.0737 88.356 92.0915C87.8533 90.0216 87.3506 87.9216 87.3506 85.7939C87.4285 73.7892 87.6146 61.782 87.5844 49.7747C87.5844 47.0744 87.3683 44.3464 87.8357 41.6485C88.0821 40.0765 88.5856 38.5556 89.3261 37.147C90.0223 35.8684 91.2162 35.1651 92.3925 34.4643C95.1899 32.7963 98.0174 31.1761 100.84 29.5483C101.19 29.3204 101.574 29.1507 101.979 29.0459C103.439 28.7545 104.155 29.2971 104.19 30.7742C104.243 33.1555 104.208 35.5469 104.256 37.9233C104.522 51.3071 104.449 64.6909 104.477 78.0747C104.447 78.6177 104.447 79.1619 104.477 79.7049C104.773 82.2671 102.79 83.4402 101.317 84.9097C101.152 85.0755 100.762 85.0177 100.478 85.0629C100.455 81.5939 100.448 78.1224 100.4 74.6533C100.4 74.1509 100.704 73.3195 99.7794 73.2919C98.95 73.2642 98.6584 73.9098 98.6484 74.6584C98.5805 79.0041 98.5076 83.3523 98.4649 87.698C98.4423 90.1196 98.2964 92.5687 98.9072 94.9325C99.5212 97.2182 100.719 99.3052 102.383 100.989C103.019 101.645 104.143 101.315 105.057 101.333C105.575 101.333 106.211 101.135 106.259 102.001C106.299 102.725 105.962 102.958 105.253 103.119C104.022 103.395 102.871 103.408 101.71 102.9C101.365 102.747 100.986 102.649 100.659 102.968C100.332 103.287 100.448 103.722 100.589 104.131C100.983 105.259 101.941 105.536 102.951 105.613C103.569 105.661 104.12 105.709 104.459 106.294C104.799 106.879 104.864 107.317 104.039 107.623C102.205 108.311 101.302 108.045 100.352 106.262C99.9829 105.571 99.2943 105.37 98.7438 104.958C98.5277 104.795 98.2588 104.92 98.0879 105.141C97.9531 105.306 97.8728 105.508 97.8584 105.72C97.844 105.932 97.8961 106.143 98.0074 106.324C98.495 107.126 99.0705 107.877 99.6737 108.738C98.2838 109.221 97.4871 108.324 96.7934 107.495C95.4839 105.927 95.0642 103.978 94.9033 102.014C94.3101 94.7567 94.74 87.492 94.75 80.2274C94.75 78.7202 94.7299 77.213 94.7098 75.7058C94.7098 74.9974 94.7425 74.058 93.8452 74.0379C92.8398 74.0153 92.6965 74.9623 92.6991 75.7963C92.6991 78.8483 92.777 81.9004 92.7242 84.9499C92.6865 87.3539 92.9077 89.7352 92.6237 92.1115ZM101.772 50.2344C101.604 46.3961 99.4601 43.2386 98.0928 39.8198C97.7309 38.913 97.0874 39.3501 96.7833 40.071C95.9891 41.9977 95.1094 43.9017 94.4836 45.8862C93.8201 47.9887 93.2797 50.1566 93.9332 52.4023C94.4007 54.0049 95.9992 55.3288 97.5675 55.4167C99.4325 55.5222 100.584 54.7485 101.338 52.9499C101.695 52.0732 101.735 51.1639 101.775 50.2395L101.772 50.2344Z" fill="#6CA198"/>
<path d="M49.7981 97.3993H53.5682C53.8949 97.854 53.8346 98.3262 53.8346 98.7683C53.8006 102.48 54.2749 106.178 55.2446 109.761C55.8704 111.996 55.2321 113.418 52.6408 114.167C49.1044 115.189 45.5455 115.372 41.9137 114.978C41.0516 114.885 40.1543 114.81 39.8527 113.903C39.5511 112.996 40.0663 112.119 40.8127 111.625C42.2177 110.695 43.6051 109.56 45.3042 109.364C46.5609 109.211 47.7597 108.784 49.024 108.655C50.2882 108.527 50.5496 107.937 50.3988 106.689C50.0319 103.626 49.6624 100.569 49.7981 97.3993Z" fill="#6CA198"/>
<path d="M75.4674 101.627C75.5729 102.81 75.7187 103.993 75.7715 105.181C75.8871 108.002 76.7466 109.253 79.3882 110.188C79.5623 110.233 79.7225 110.32 79.8541 110.443C79.9858 110.565 80.0848 110.718 80.1422 110.889C80.6599 112.222 80.66 113.622 80.4664 114.968C80.2427 116.51 78.9207 117.138 77.5635 117.322C74.648 117.716 71.7827 118.578 68.7842 118.241C67.8065 118.133 66.7886 118.354 65.8486 117.857C65.253 117.54 64.4864 117.282 64.5919 116.498C64.7201 115.551 65.17 114.672 66.1226 114.237C66.3312 114.139 66.6252 114.237 66.8162 114.021C68.5328 112.069 70.9558 112.049 73.2027 111.964C75.3592 111.883 75.7739 110.999 75.4648 109.258C75.03 106.746 75.1331 104.187 75.1079 101.642L75.4674 101.627Z" fill="#6CA198"/>
<path d="M30.9252 75.3592C30.6386 65.7308 30.3723 56.6198 30.1008 47.5089C29.9946 45.2133 30.3571 42.9203 31.1664 40.7693C32.2975 37.8052 34.6022 36.8054 37.3142 36.3558C40.6218 35.8056 43.9798 35.9815 47.3125 36.1674C48.901 36.2553 50.4868 36.2804 52.0753 36.3282C52.9927 36.3558 53.9026 36.3457 54.7873 36.7099C55.6016 37.0415 56.4361 36.6095 57.263 36.6044C61.1939 36.5843 65.1148 36.8908 69.0306 37.2249C70.7297 37.3706 71.3832 38.197 71.5089 39.9881C71.5818 41.028 71.5265 42.078 71.5365 43.123C71.5365 44.4996 72.2378 45.3411 73.3638 45.3838C74.4898 45.4265 75.2664 44.6151 75.3242 43.2411C75.3795 41.9851 75.3242 40.7291 75.3242 39.4731C75.3242 38.0689 75.7088 37.5464 77.061 37.6268C81.6052 37.8981 85.438 39.8876 85.4456 45.6425C85.4456 51.7014 85.7673 57.7704 85.5436 63.8267C85.2697 71.3024 85.6065 78.778 85.3602 86.2486C85.2973 88.1075 85.0359 89.8935 84.0457 91.6418C82.8971 93.669 81.2381 94.1412 79.2475 94.101C76.1158 94.0357 72.9842 93.8498 69.8525 93.7217C66.5499 93.5911 63.2473 93.5233 59.9498 93.3399C55.4022 93.087 50.8572 92.7872 46.3146 92.4406C44.0224 92.2698 41.7176 92.4104 39.4254 92.114C38.136 91.9482 37.1206 91.481 36.3364 90.4461C35.1476 88.8811 33.8935 87.3639 32.7373 85.7738C31.5782 84.1631 30.9501 82.2315 30.9403 80.2475C30.895 78.4388 30.9252 76.6403 30.9252 75.3592ZM76.0631 61.2369C74.834 61.0158 73.8186 60.2672 72.67 59.8352C71.7752 59.496 70.976 59.3177 70.1415 59.8829C66.9068 58.9208 63.5112 59.2424 60.2287 58.6696C59.9774 58.0944 60.3369 57.6648 60.5304 57.1625C61.0481 55.8261 62.1264 54.8138 62.6291 53.4598C60.176 54.8062 58.8338 57.0193 57.7983 59.4885C56.8457 61.7845 57.2956 64.088 57.8762 66.3437C58.2618 67.8345 59.0495 69.1908 60.1534 70.2649C63.6344 73.6284 69.7671 74.5353 74.1404 71.6616C74.6933 71.2998 75.3971 71.0863 75.7213 70.4985C76.7267 68.6497 77.8753 66.8411 77.9004 64.6255C78.3076 62.8244 78.0562 61.0535 77.5183 59.3353C76.6914 56.7052 74.8491 54.879 72.582 53.4296C72.6969 53.4163 72.8078 53.3786 72.907 53.3191C73.0062 53.2596 73.0916 53.1796 73.1575 53.0845C73.2233 52.9895 73.2682 52.8815 73.289 52.7677C73.3099 52.654 73.3061 52.5371 73.2782 52.4248C73.2525 52.2169 73.168 52.0206 73.0344 51.859C72.9008 51.6975 72.7237 51.5775 72.5242 51.513C71.5415 51.2116 70.5588 50.8825 69.5534 50.679C66.8113 50.1264 64.4538 49.0789 63.3982 46.2228C63.1469 45.522 62.624 45.1527 61.9454 45.4215C61.3472 45.6576 61.1913 46.3283 61.3396 46.9287C61.7971 48.8755 63.1519 50.1766 64.7806 51.1287C66.7913 52.3043 69.0533 52.9197 71.3154 53.4598C71.8507 53.9245 72.4162 54.359 72.9189 54.8589C74.6959 56.5997 76.239 58.4963 76.0631 61.2344V61.2369ZM39.6517 52.9825C39.7045 53.5376 39.2319 53.7361 38.9328 54.0752C37.2111 55.9843 35.7358 58.0165 35.7332 60.7521C35.3085 62.4678 35.2431 64.1231 35.8438 65.8689C36.7637 68.5392 38.4402 70.604 40.9662 71.5686C44.8997 73.0758 48.7275 72.7643 51.9019 69.559C52.3084 69.1672 52.6754 68.7364 52.9977 68.2729C54.272 66.3462 54.4429 64.1457 54.6842 61.9779C54.8501 60.4707 54.5686 58.9912 53.5833 57.7402C53.048 55.1328 51.1479 53.0629 49.3986 53.3593C50.2682 54.6806 51.1303 55.9567 51.6782 57.3986C49.9464 57.4739 48.2048 57.4287 46.4856 57.7251C45.7643 57.6925 45.0378 57.6297 44.3994 58.0768C43.6454 58.019 43.1427 58.6973 42.4415 58.7852C41.6271 58.5465 40.7299 58.9334 39.9482 58.4486C39.0861 58.6093 38.4402 59.2022 37.6535 59.5388C37.7013 58.3632 38.1184 57.3131 38.6136 56.2531C39.2017 54.9971 40.285 54.1254 40.9058 52.9172C43.6393 52.4228 46.2768 51.4978 48.7199 50.1766C50.2682 49.3301 51.178 47.9158 51.9069 46.3911C52.1759 45.8359 52.1357 45.11 51.4043 44.7684C50.6276 44.4016 50.3988 45.0547 50.0922 45.5421C49.9389 45.7933 49.8007 46.0444 49.6399 46.2781C48.7979 47.5064 47.7447 48.5388 46.3523 49.0639C44.2436 49.8727 42.0796 50.5585 39.9508 51.3045C38.7444 51.714 38.7016 51.9702 39.6517 52.98V52.9825ZM56.3279 75.952C53.94 75.9569 51.5733 76.4006 49.3458 77.2608C48.1243 77.7255 47.3351 78.675 46.2921 79.2527C44.3945 80.2927 43.4192 81.9481 42.7532 83.8547C42.346 85.0152 42.8789 86.5274 44.0099 87.2282C44.4579 87.5208 44.9837 87.6714 45.5188 87.6602C46.0538 87.649 46.573 87.4765 47.0083 87.1654C48.0011 86.4445 49.102 85.8693 49.9792 84.965C50.7583 84.1586 51.8164 83.7266 52.8569 83.3347C56.6672 81.8978 59.6834 83.6085 62.6241 85.7587C63.3529 86.2938 63.8807 87.1026 64.8459 87.3463C66.2081 87.6829 67.5553 88.0245 68.7341 86.9569C69.9129 85.8893 69.8375 84.5002 69.3901 83.1312C68.5531 80.569 66.4419 79.0367 64.3156 77.8561C61.8808 76.4943 59.1157 75.8343 56.3279 75.9495V75.952ZM76.1134 83.405C76.1008 85.4774 77.2972 86.8866 79.1722 87.0022C80.9064 87.1102 82.5979 85.7864 82.7763 84.0054C83.0704 81.0588 81.8289 78.5443 80.3058 76.1554C80.0067 75.6832 79.514 75.4823 79.0817 76.0776C77.4933 78.2731 76.2717 80.6343 76.1134 83.3975V83.405ZM62.0007 72.7668C61.9178 73.0682 61.8574 73.1637 61.8826 73.219C61.9719 73.4036 62.0745 73.5816 62.1892 73.7515C63.0187 75.0326 64.3582 75.5099 65.6903 76.0299C68.7064 77.213 71.5239 76.7458 74.1454 74.9698C74.8391 74.5001 75.671 73.9273 75.1357 72.5709C70.7573 76.2836 66.3564 75.4019 62.0007 72.7643V72.7668ZM43.0875 75.5476C45.5179 75.5174 47.3853 75.3492 49.019 74.2564C49.3206 74.0555 49.9289 73.8897 49.6348 73.3446C49.3408 72.7995 48.8934 73.2165 48.539 73.3446C46.473 74.1132 44.3994 74.6006 42.1776 73.9826C40.6819 73.5732 39.3162 72.7869 38.2114 71.6992C37.8822 71.3827 37.5001 71.0185 37.0226 71.448C36.545 71.8776 36.6858 72.3624 37.0226 72.7945C37.254 73.089 37.5218 73.3531 37.8194 73.5807C39.516 74.9221 41.4387 75.6229 43.0875 75.5451V75.5476Z" fill="#6CA198"/>
<path d="M99.9804 26.3606C99.7919 27.064 99.3547 27.2549 98.9626 27.4735C95.169 29.5969 91.3713 31.712 87.5694 33.8187C85.9794 34.6658 84.2009 35.0979 82.3992 35.0747C73.6979 35.1726 65.0243 34.5095 56.3405 34.198C53.9151 34.1101 51.4695 34.4015 49.1019 34.1704C46.0858 33.8765 43.0999 33.8765 40.0964 33.7986C39.5535 33.7986 39.0081 33.8137 38.4677 33.7986C37.9273 33.7835 37.1432 33.8865 36.9798 33.1782C36.8164 32.4698 37.5805 32.3492 38.0279 32.1206C41.0439 30.5934 44.0726 29.0661 47.1264 27.5991C49.7579 26.3431 52.3366 24.8962 55.3275 24.6249C57.3382 24.4415 59.3339 24.6475 61.3371 24.7329C64.8382 24.8786 68.3368 24.7329 71.848 25.1424C74.462 25.4413 77.1564 24.9665 79.8105 25.0444C86.0311 25.2252 92.2568 25.3785 98.4498 26.0492C98.9399 26.1069 99.4099 26.2451 99.9804 26.3606ZM50.542 29.5735C51.9923 29.9603 52.955 29.2394 53.9528 28.7144C54.4002 28.4808 54.8978 28.1467 54.5936 27.5589C54.2744 26.9334 53.6084 26.8781 53.0856 27.177C52.1079 27.7196 51.1704 28.3451 50.542 29.5735Z" fill="#6CA198"/>
<path d="M101.775 50.2394C101.735 51.1689 101.695 52.0782 101.333 52.9524C100.579 54.7509 99.435 55.5246 97.5625 55.4191C95.9942 55.3287 94.3957 54.0049 93.9282 52.4048C93.2747 50.1641 93.8151 47.9912 94.4786 45.8887C95.1044 43.9042 95.9866 42.0002 96.7783 40.0735C97.0724 39.3576 97.726 38.9205 98.0879 39.8223C99.4627 43.2386 101.607 46.3961 101.775 50.2394ZM97.4671 43.9796C96.6889 45.5288 96.1169 47.173 95.7655 48.8704C95.4951 49.9268 95.553 51.0404 95.9314 52.0631C96.3687 53.1533 97.2157 53.5904 98.5478 53.4045C99.6662 53.2488 99.9025 52.4801 99.9654 51.5381C100.068 50.5403 99.9515 49.532 99.6236 48.584C99.0455 47.1045 98.7413 45.4818 97.4671 43.9746V43.9796Z" fill="#37746D"/>
<path d="M56.3279 75.9495C59.1166 75.8311 61.8835 76.4884 64.3205 77.8485C66.4468 79.0342 68.5581 80.5665 69.395 83.1237C69.8424 84.4927 69.9329 85.8692 68.7391 86.9494C67.5452 88.0295 66.2131 87.6754 64.8508 87.3388C63.8781 87.0876 63.3579 86.2863 62.629 85.7512C59.6883 83.601 56.6722 81.8903 52.8619 83.3271C51.8213 83.719 50.7633 84.1511 49.9841 84.9574C49.107 85.8617 48.006 86.437 47.0132 87.1579C46.5779 87.469 46.0588 87.6414 45.5237 87.6526C44.9887 87.6638 44.4628 87.5133 44.0148 87.2207C42.8788 86.5199 42.3459 85.0077 42.7581 83.8471C43.4242 81.9405 44.3994 80.2851 46.297 79.2452C47.3476 78.6674 48.1292 77.7179 49.3508 77.2532C51.577 76.3953 53.9419 75.9534 56.3279 75.9495Z" fill="#1D2831"/>
<path d="M60.2287 58.6672C63.5111 59.2399 66.9067 58.9183 70.1414 59.8804C72.2452 60.9631 74.6782 61.4278 76.3999 63.2239C76.327 63.3796 76.2591 63.5379 76.3999 63.6936C76.1999 64.0586 76.0896 64.4659 76.0781 64.8818C75.9022 67.0094 74.8566 68.5895 73.0395 69.7073C69.5534 71.8475 66.1905 71.7797 62.7597 69.4787C61.9296 68.9467 61.2145 68.2537 60.6567 67.4409C60.099 66.628 59.7098 65.7118 59.5123 64.7461C59.08 62.8622 59.3288 61.0133 59.638 59.1545C59.8265 58.9812 59.917 58.6923 60.2287 58.6672ZM65.5998 67.2355C67.133 67.4163 68.3871 66.1102 68.4123 64.3267C68.4273 63.2867 67.1857 61.4002 66.4845 61.4579C64.5593 61.6212 62.6993 62.4427 62.7144 64.3618C62.7051 64.7426 62.7734 65.1213 62.9152 65.4748C63.057 65.8284 63.2694 66.1494 63.5394 66.4182C63.8093 66.6871 64.1312 66.8982 64.4855 67.0387C64.8397 67.1792 65.2188 67.2462 65.5998 67.2355Z" fill="#E5C499"/>
<path d="M42.4389 58.7802C43.1452 58.6923 43.6402 58.0266 44.3993 58.0718C44.447 58.4335 44.0775 58.4687 43.9293 58.6772C45.0384 58.6798 46.1397 58.4902 47.1841 58.1171L46.4779 57.7126C48.197 57.4162 49.9388 57.4614 51.673 57.386L51.942 57.69C52.7463 60.4783 53.2993 63.2164 51.8365 66.0273C50.6879 68.2353 49.0139 69.7952 46.6011 70.1143C43.4744 70.5363 40.6216 69.7148 38.5933 67.0697C37.314 65.4018 37.4095 63.3771 37.4573 61.4354C37.4698 60.9179 37.6635 59.9709 38.4954 59.9282C39.1237 59.8955 39.5812 59.5313 40.1442 59.4258C40.9585 59.358 41.8156 59.476 42.4389 58.7802ZM46.6689 60.9305C45.1886 60.9305 43.6102 62.6461 43.6529 64.2287C43.683 65.5173 45.578 67.4942 46.7618 67.4942C48.2498 67.4942 49.6951 65.9393 49.7001 64.3668C49.7051 62.7943 48.0714 60.9279 46.6689 60.9229V60.9305Z" fill="#E5C499"/>
<path d="M59.6379 59.1545C59.3288 61.0133 59.08 62.8622 59.5123 64.7461C59.7098 65.7118 60.0989 66.628 60.6567 67.4409C61.2144 68.2537 61.9296 68.9467 62.7597 69.4787C66.1905 71.7797 69.5458 71.8475 73.0394 69.7073C74.8566 68.5895 75.9021 67.0094 76.0781 64.8818C76.0896 64.4659 76.1999 64.0586 76.3999 63.6936C77.0332 63.7816 77.4052 64.3015 77.9079 64.613C77.8828 66.8311 76.7315 68.6322 75.7287 70.4885C75.4095 71.0763 74.7008 71.2898 74.1479 71.6515C69.7746 74.5177 63.6418 73.6184 60.1608 70.2549C59.0569 69.1808 58.2692 67.8245 57.8836 66.3337C57.303 64.0729 56.8532 61.7745 57.8058 59.4785C58.595 60.4155 59.0322 59.3077 59.6379 59.1545Z" fill="#1D2831"/>
<path d="M76.1133 83.3976C76.2716 80.6193 77.4931 78.2681 79.0816 76.0701C79.5139 75.4748 80.0065 75.6757 80.3056 76.148C81.8288 78.5369 83.0703 81.0513 82.7762 83.9979C82.5978 85.7789 80.9063 87.1027 79.172 86.9947C77.292 86.8842 76.1007 85.475 76.1133 83.3976ZM79.534 78.7052C78.7397 80.4862 78.026 81.9707 78.1441 83.6839C78.1969 84.4626 78.6468 85.063 79.4963 85.0152C80.3458 84.9675 80.9264 84.4878 80.9239 83.5885C80.9502 81.8612 80.4667 80.1645 79.534 78.7102V78.7052Z" fill="#37746D"/>
<path d="M71.3076 53.4322C69.0455 52.8921 66.7835 52.2767 64.7728 51.1011C63.1441 50.149 61.7894 48.8403 61.332 46.9011C61.1937 46.3107 61.332 45.6451 61.9377 45.3939C62.6164 45.1251 63.1315 45.4943 63.3904 46.1952C64.446 49.0513 66.8037 50.0988 69.5458 50.6514C70.5511 50.8549 71.5338 51.184 72.5166 51.4854C72.7161 51.5499 72.893 51.6699 73.0266 51.8314C73.1602 51.993 73.2448 52.1893 73.2706 52.3973C73.2985 52.5095 73.3022 52.6264 73.2814 52.7401C73.2605 52.8539 73.2157 52.9619 73.1498 53.057C73.0839 53.1521 72.9985 53.232 72.8993 53.2915C72.8001 53.351 72.6893 53.3887 72.5744 53.4021L71.3076 53.4322Z" fill="#1D2831"/>
<path d="M39.6515 52.98C38.7014 51.9752 38.7441 51.724 39.953 51.292C42.0894 50.5384 44.2459 49.8602 46.3547 49.0513C47.7471 48.5188 48.8002 47.4939 49.6422 46.2655C49.803 46.0269 49.9412 45.7757 50.0945 45.5295C50.3962 45.0422 50.6298 44.3891 51.4065 44.7558C52.1353 45.0974 52.1756 45.8234 51.9091 46.3785C51.1803 47.8857 50.2705 49.3176 48.7222 50.1641C46.2791 51.4853 43.6416 52.4104 40.9082 52.9047L39.6515 52.98Z" fill="#1D2831"/>
<path d="M62.0006 72.7643C66.3563 75.4019 70.7496 76.2811 75.1355 72.5684C75.6708 73.9248 74.8389 74.4976 74.1452 74.9673C71.5237 76.7433 68.7112 77.2105 65.6901 76.0274C64.358 75.5049 63.0185 75.0226 62.1891 73.749C62.0743 73.5791 61.9718 73.4011 61.8824 73.2165C61.8572 73.1612 61.9176 73.0657 62.0006 72.7643Z" fill="#37746D"/>
<path d="M43.0874 75.5451C41.4386 75.623 39.5159 74.9221 37.8093 73.5857C37.5117 73.3582 37.244 73.0941 37.0126 72.7995C36.6833 72.3675 36.5526 71.8751 37.0126 71.4531C37.4725 71.0311 37.8721 71.3853 38.2014 71.7043C39.3062 72.792 40.6717 73.5782 42.1675 73.9877C44.3893 74.5981 46.4629 74.1183 48.5289 73.3496C48.8833 73.2165 49.3356 72.8096 49.6247 73.3496C49.9137 73.8897 49.3106 74.0605 49.009 74.2614C47.3828 75.3592 45.5179 75.5149 43.0874 75.5451Z" fill="#37746D"/>
<path d="M71.3076 53.4322L72.5819 53.4196C74.8439 54.869 76.6913 56.6852 77.5182 59.3253C78.0561 61.0435 78.3074 62.8144 77.9002 64.6155C77.3976 64.3015 77.0331 63.7815 76.3922 63.6936C76.2515 63.5379 76.3193 63.3796 76.3922 63.2239C76.6436 62.7215 76.3922 62.2367 76.3344 61.7468L76.0504 61.1892V61.2344C76.2264 58.4963 74.6831 56.5998 72.8986 54.8314C72.4085 54.3315 71.843 53.8969 71.3076 53.4322Z" fill="#37746D"/>
<path d="M39.6516 52.98L40.9083 52.9047C40.2875 54.113 39.2042 54.9896 38.6161 56.2406C38.1134 57.3006 37.7036 58.3506 37.6559 59.5263C37.3417 60.4456 36.9019 61.1716 35.7357 60.7496C35.7357 58.0141 37.2136 55.9768 38.9353 54.0728C39.2318 53.7563 39.7044 53.5352 39.6516 52.98Z" fill="#37746D"/>
<path d="M59.638 59.1544C59.0322 59.3077 58.5949 60.4104 57.7982 59.4785C58.8337 57.0168 60.1759 54.8037 62.629 53.4498C62.1263 54.8037 61.048 55.816 60.5303 57.1524C60.3367 57.6548 59.9773 58.0844 60.2286 58.6596C59.917 58.6923 59.8265 58.9811 59.638 59.1544Z" fill="#37746D"/>
<path d="M53.5833 57.7277C53.0552 57.5496 52.4854 57.5364 51.9496 57.6899L51.6807 57.386C51.1303 55.9441 50.2682 54.6681 49.3985 53.3468C51.1529 53.0504 53.048 55.1202 53.5833 57.7277Z" fill="#37746D"/>
<path d="M53.5833 57.7277C53.0552 57.5496 52.4854 57.5364 51.9496 57.69C52.7539 60.4782 53.3069 63.2163 51.8441 66.0272C50.6955 68.2353 49.0215 69.7952 46.6087 70.1142C43.482 70.5362 40.6294 69.7148 38.6011 67.0697C37.3217 65.4017 37.4172 63.3771 37.465 61.4353C37.4776 60.9179 37.6711 59.9709 38.503 59.9282C39.1313 59.8955 39.5888 59.5313 40.1518 59.4258C40.9586 59.3605 41.8157 59.4785 42.439 58.7751C41.6272 58.5365 40.7299 58.9233 39.9482 58.4385C39.0861 58.5993 38.4402 59.1921 37.6535 59.5287C37.3393 60.4481 36.8995 61.1741 35.7332 60.7521C35.3085 62.4678 35.2431 64.1231 35.8438 65.869C36.7637 68.5392 38.4402 70.604 40.9662 71.5686C44.8997 73.0758 48.7275 72.7643 51.9019 69.559C52.3084 69.1672 52.6754 68.7365 52.9977 68.2729C54.272 66.3462 54.4429 64.1457 54.6842 61.9779C54.8501 60.4557 54.5686 58.9786 53.5833 57.7277Z" fill="#1D2831"/>
<path d="M47.1918 58.117L46.4855 57.7126C45.7642 57.6799 45.0378 57.6171 44.3994 58.0642C44.4471 58.4259 44.0776 58.4611 43.9293 58.6696C45.0406 58.6755 46.1445 58.4885 47.1918 58.117Z" fill="#1D2831"/>
<path d="M50.542 29.5735C51.1703 28.3451 52.1079 27.7196 53.073 27.177C53.6084 26.8781 54.2744 26.9258 54.5811 27.5588C54.8852 28.1466 54.3875 28.4808 53.9401 28.7144C52.9548 29.2394 51.9922 29.9603 50.542 29.5735Z" fill="#A7BBA6"/>
<path d="M97.4669 43.9746C98.7412 45.4818 99.0453 47.1045 99.6234 48.579C99.9514 49.5271 100.068 50.5353 99.9652 51.5331C99.9024 52.4751 99.6661 53.2438 98.5476 53.3995C97.2155 53.5854 96.3686 53.1483 95.9313 52.0581C95.5528 51.0354 95.4949 49.9218 95.7653 48.8654C96.1167 47.168 96.6888 45.5238 97.4669 43.9746Z" fill="#A7BBA6"/>
<path d="M65.5997 67.2354C65.2196 67.2447 64.8415 67.1768 64.4884 67.0356C64.1354 66.8945 63.8146 66.6832 63.5458 66.4145C63.2769 66.1458 63.0655 65.8253 62.9243 65.4724C62.7831 65.1195 62.7151 64.7417 62.7244 64.3618C62.6992 62.4426 64.5592 61.6212 66.4945 61.4579C67.1957 61.4001 68.4373 63.2867 68.4222 64.3266C68.387 66.1101 67.1329 67.4163 65.5997 67.2354Z" fill="#1D2831"/>
<path d="M46.669 60.9229C48.0715 60.9229 49.7002 62.7742 49.6851 64.3543C49.67 65.9343 48.2349 67.4691 46.747 67.4817C45.5632 67.4942 43.668 65.5098 43.6379 64.2161C43.6127 62.6386 45.1886 60.9154 46.669 60.9229Z" fill="#1D2831"/>
<path d="M79.5339 78.7102C80.4676 80.1659 80.9512 81.8645 80.9239 83.5935C80.9239 84.4928 80.3307 84.975 79.4962 85.0203C78.6618 85.0655 78.1968 84.4676 78.1441 83.6889C78.0259 81.9782 78.7397 80.4912 79.5339 78.7102Z" fill="#A7BBA6"/>
<path d="M76.3421 61.7468L76.058 61.1892C76.0572 61.2026 76.0572 61.216 76.058 61.2294C74.834 61.0058 73.8236 60.2647 72.68 59.8327C71.7853 59.4936 70.986 59.3152 70.1516 59.8804C72.2553 60.9631 74.6883 61.4278 76.41 63.2239C76.6437 62.7215 76.3974 62.2367 76.3421 61.7468Z" fill="#1D2831"/>
</svg>
