<svg width="130" height="129" viewBox="0 0 130 129" fill="none" xmlns="http://www.w3.org/2000/svg">
<path d="M129.065 0H0.379272V128.613H129.065V0Z" fill="#FFA73E"/>
<path d="M45.0649 116.807C45.0825 116.681 45.1076 116.556 45.1152 116.435C45.2484 114.039 45.2509 114.021 47.6562 114.571C49.814 115.057 51.9951 115.434 54.191 115.699C55.6689 115.88 57.0588 115.779 57.9611 114.348C58.1923 113.976 58.3205 114.013 58.5894 114.32C59.8461 115.774 61.5703 116.023 63.3649 116.056C70.6537 116.181 77.9023 115.945 85.1333 115.071C85.8873 114.978 86.3071 115.028 86.3674 116.016C86.5107 118.414 87.335 120.587 89.1497 122.258C89.5795 122.655 89.6524 123.069 89.6399 123.582C89.6223 125.25 89.6399 126.917 89.6399 128.585H44.9015L44.8562 127.061C44.8705 127.027 44.8778 126.991 44.8778 126.955C44.8778 126.919 44.8705 126.883 44.8562 126.85C44.8562 126.335 44.8562 125.817 44.8562 125.302V124.594V123.3L45.0649 116.807Z" fill="#DF5E44"/>
<path d="M10.3374 55.4869C10.3978 52.8569 11.4961 50.7142 13.1022 48.6846C14.4091 47.0342 15.809 45.3813 16.284 43.2336C16.661 41.538 16.7189 39.85 15.985 38.2096C15.8894 37.9986 15.5778 37.7625 15.7739 37.5565C16.0252 37.2902 16.3268 37.5766 16.553 37.7172C18.516 38.9305 19.6018 40.7191 20.024 42.9673C20.5896 45.9968 19.6444 48.5866 17.9127 51.0257C17.1587 52.0882 16.2087 53.0906 16.2288 54.5776C16.2439 55.6452 16.6461 56.5043 17.2166 57.3534C17.9706 58.4938 18.7723 59.6342 18.7648 61.1012C18.7648 63.1108 17.5232 64.6733 16.7541 66.404C16.5832 66.7934 16.5203 66.7532 16.4072 66.3262C15.7965 64.0327 14.384 62.2919 12.6849 60.6667C11.2573 59.3027 10.3123 57.5769 10.3374 55.4869Z" fill="#EFE5DF"/>
<path d="M87.8855 58.5063C87.8855 58.7575 87.8855 59.0238 87.8855 59.2825V63.0304C87.8855 63.2037 87.8855 63.377 87.8855 63.5504V65.2886V66.3161C87.7372 67.3937 88.0238 68.504 87.6342 69.564C85.538 71.8248 83.0573 73.5681 80.3655 75.0527C78.0632 76.3238 75.8413 77.7204 73.5516 79.0342C71.4831 80.2299 69.96 82.0209 68.3715 83.7366C65.3957 86.9545 62.1257 89.916 59.7078 93.6262C59.2605 94.312 59.1324 93.6263 58.9916 93.3977C57.2549 90.539 55.3471 87.7959 53.4068 85.078C51.1272 81.8802 48.8023 78.7152 46.5302 75.5124C45.5676 74.156 45.6103 74.1584 47.1737 73.8444C49.6292 73.342 52.0873 72.8196 54.3996 71.8349C55.5106 71.3651 56.546 71.6314 57.5916 71.8625C58.7301 72.1137 59.836 72.5005 60.9595 72.817C61.8291 73.0682 62.4173 73.4224 62.4248 74.5151C62.4248 75.3868 63.3674 75.6103 64.1088 75.0175C65.2172 74.1132 65.5541 71.3827 64.6945 70.2649C64.5838 70.0853 64.4203 69.9441 64.2265 69.8605C64.0327 69.7769 63.8179 69.755 63.6112 69.7977C63.1663 69.8956 63.0306 70.2322 63.0205 70.6417C63.0105 71.0511 62.9753 71.3953 62.3922 71.1114C58.5819 69.2199 54.3267 69.0792 50.2953 68.0568C49.0386 67.7378 47.797 67.3887 46.5252 67.1375C45.7888 66.9918 45.6078 66.6351 45.6304 65.9317C45.7837 60.7922 45.8642 55.6477 46.0477 50.5082C46.1306 48.2123 46.1355 45.9163 46.3341 43.6204C46.6935 39.4756 48.7998 36.6597 52.4115 34.7782C55.0807 33.3866 57.956 32.6858 60.8791 32.2336C62.3067 32.0126 62.5832 31.274 62.5279 30.101C62.4978 29.4679 62.3269 28.9203 63.3649 29.4855C66.381 31.1233 69.3065 30.4275 71.4706 27.6844C71.5962 27.5262 71.6591 27.3252 71.9104 27.3428C71.8833 27.505 71.8648 27.6685 71.8551 27.8326C71.8375 28.6289 71.8224 29.4227 71.8174 30.2165C71.8174 31.7463 72.2698 32.1733 73.7653 32.3994C77.8269 33.0123 81.6523 34.2356 84.8242 37.0214C86.018 38.0714 86.6288 39.4957 87.2898 40.8874C87.7498 42.9371 87.8353 45.0196 87.8378 47.1095C87.8453 50.9026 87.8679 54.7057 87.8855 58.5063ZM60.0145 56.7153C60.4116 56.2782 60.1251 55.8788 59.9467 55.4593C60.6027 53.7863 60.3714 53.3944 58.5693 53.2889C56.5259 53.1709 54.4826 53.0855 52.4367 53.0177C51.1021 52.9725 49.7624 52.9473 48.4278 52.985C47.2515 53.0177 46.7689 53.8089 47.3344 54.8062C47.6511 55.3638 47.611 55.929 47.6461 56.4967C47.8522 59.9884 50.3354 62.4828 53.716 62.5657C57.3151 62.6687 59.6802 60.4657 60.0145 56.7153ZM71.6315 53.3141V53.0453C70.2114 53.0453 68.7888 53.0629 67.3587 53.0453C63.8626 52.995 63.8625 52.9875 63.9756 56.5219C64.0962 60.2898 66.5443 63.3243 70.2139 63.9523C74.5847 64.7059 78.4879 62.7315 78.2114 57.7779C78.1788 57.1624 77.935 56.3108 78.6136 55.8034C79.2344 55.3412 79.4908 54.7987 79.2269 54.0702C78.963 53.3417 78.2718 53.3166 77.6435 53.3166C75.6453 53.304 73.6397 53.3141 71.6315 53.3141ZM70.1234 47.2477C72.1542 46.9965 73.7879 47.4738 75.3412 48.2525C75.9972 48.5765 76.4571 48.4459 76.8341 47.8707C77.2337 47.2577 77.0527 46.7403 76.4847 46.3635C73.9562 44.7131 71.164 44.5775 68.2962 45.0422C67.7231 45.1351 67.4114 45.6098 67.4492 46.2579C67.4869 46.9563 67.9267 47.2025 68.5173 47.2427C69.108 47.2829 69.7765 47.2477 70.1334 47.2477H70.1234ZM54.7465 44.9693C54.4543 44.9517 54.1614 44.9517 53.8692 44.9693C52.4165 45.1452 50.9789 45.3964 49.7372 46.2404C49.2471 46.5695 48.9833 47.0342 49.3 47.632C49.5362 48.0741 49.8981 48.3856 50.4209 48.1344C52.3613 47.2427 54.4423 47.0819 56.5184 46.9864C56.9909 46.9638 57.3353 46.8106 57.4308 46.3182C57.5263 45.8259 57.3176 45.4491 56.8325 45.223C56.1765 44.9166 55.4653 44.9392 54.7565 44.9643L54.7465 44.9693Z" fill="#DF5E44"/>
<path d="M86.1915 112.494C83.0196 113.084 79.7999 113.277 76.5928 113.456C72.4156 113.687 68.2308 113.863 64.041 113.752C63.8324 113.752 63.6213 113.752 63.4126 113.737C60.8515 113.604 59.5696 112.255 59.7179 109.698C59.9416 105.857 60.2207 102.021 60.5097 98.1856C60.6555 96.2514 61.7664 94.7517 62.9452 93.3374C66.082 89.5775 69.4249 85.9941 72.9585 82.6038C74.7782 80.8454 77.1257 79.8406 79.2873 78.5846C82.5723 76.673 85.9452 74.8895 88.5868 72.0535C89.1825 71.4155 89.8735 70.8603 90.2355 70.0213C90.3209 69.8254 90.2104 69.4285 90.5246 69.4611C90.698 69.4787 90.8714 69.8002 90.987 70.0163C91.3471 70.6865 91.43 71.471 91.2182 72.2017C90.6854 74.2992 89.6222 76.1329 88.4535 77.924C86.8173 80.4359 85.1611 82.9479 83.5701 85.5026C83.1906 86.113 82.9768 86.1205 82.5068 85.6407C81.1857 84.2299 79.4816 83.2347 77.6032 82.7771C75.8062 82.3601 75.0446 82.9077 75.0395 84.7113C75.0395 85.9246 75.012 87.1404 75.0572 88.3512C75.0899 89.1801 74.7757 89.6072 73.989 89.9387C71.5309 90.9686 69.1004 92.0739 66.68 93.1917C65.6759 93.6101 64.7378 94.1719 63.8952 94.8597C63.6011 95.1109 63.1412 95.3621 63.3674 95.8644C63.5936 96.3668 64.0712 96.1785 64.4808 96.088C65.7425 95.8078 66.979 95.4247 68.178 94.9426C70.6487 93.9378 73.1119 92.933 75.5901 91.9433C77.0503 91.3655 77.5756 90.2401 77.5404 88.7782C77.5178 87.8613 77.4474 86.9419 77.3469 86.015C77.274 85.3267 77.4926 85.2087 78.1009 85.4674C78.9938 85.8283 79.8151 86.3455 80.5263 86.9947C81.0011 87.469 81.5047 87.9137 82.0343 88.3261C83.4242 89.3309 84.49 89.1399 85.3671 87.678C87.408 84.2793 89.4112 80.8605 91.4144 77.4417C91.6908 76.9669 91.7662 76.5273 92.3367 77.301C95.8882 82.1139 97.6878 87.6177 98.8716 93.3776C98.9897 93.9554 98.7207 94.2292 98.2557 94.4351C94.2745 96.1935 90.1375 97.1983 85.7516 97.0124C85.0529 96.9823 84.8468 96.706 84.8393 96.0076C84.852 94.543 84.6401 93.0851 84.2109 91.6845C84.0576 91.2223 83.8792 90.6069 83.2634 90.6974C82.7607 90.7752 82.6752 91.4007 82.6325 91.8202C82.4585 93.826 82.4585 95.8431 82.6325 97.8489C82.6953 98.7206 83.3112 99.2733 84.1783 99.4416C84.8318 99.5697 85.5002 99.6224 86.1613 99.7078C86.1789 99.8585 86.1941 100.012 86.2091 100.165L86.2291 100.954C86.2291 101.104 86.2065 101.255 86.1965 101.406C86.1965 101.599 86.1965 101.79 86.1965 101.984L86.2191 102.695V103.214C86.1908 103.239 86.1731 103.274 86.1699 103.311C86.1666 103.349 86.1779 103.386 86.2015 103.415C86.2015 103.687 86.2015 103.956 86.2015 104.224C86.1785 104.253 86.1659 104.289 86.1659 104.326C86.1659 104.363 86.1785 104.399 86.2015 104.428C86.2015 104.694 86.2015 104.96 86.2015 105.227V105.937C86.2015 106.457 86.2015 106.977 86.2015 107.497C86.1793 107.522 86.1669 107.555 86.1669 107.588C86.1669 107.621 86.1793 107.653 86.2015 107.678C86.2015 108.882 86.1186 110.087 86.3046 111.285L86.1915 112.494ZM77.4072 108.977C79.3576 108.977 80.3176 107.693 79.6943 105.691C79.4581 104.938 79.4707 104.762 80.3102 104.614C81.1496 104.465 82.1776 104.091 82.1902 103.059C82.2027 102.225 81.9137 101.152 80.9661 100.903C79.5988 100.544 79.4582 99.949 80.1619 98.8688C80.2597 98.638 80.3044 98.3882 80.2926 98.1378C80.3705 97.2486 80.275 96.4372 79.2571 96.1132C78.2768 95.7992 77.8219 96.5327 77.3042 97.118C77.1767 97.2839 77.0742 97.4675 77 97.6631C76.623 98.4945 76.246 98.9994 75.5121 97.8992C75.156 97.4354 74.7212 97.0375 74.2277 96.7236C73.7376 96.3694 73.2048 96.4724 72.7021 96.7889C72.4622 96.9233 72.2716 97.1308 72.1581 97.3812C72.0446 97.6316 72.0142 97.9117 72.0713 98.1805C72.1543 98.6829 72.1014 99.3235 72.3954 99.6249C73.7401 101.004 72.4231 101.15 71.5937 101.635C70.2515 102.431 69.7287 104.074 70.337 105.309C71.0206 106.716 72.0461 107.068 73.8281 106.279C74.645 105.92 74.7806 106.169 74.9666 106.887C75.3235 108.281 76.1933 108.962 77.4072 108.969V108.977ZM96.127 88.0346C96.1546 87.5549 96.2299 86.8113 95.775 86.5827C94.5063 85.9508 93.4335 84.9862 92.671 83.7919C92.3518 83.3122 91.4645 83.2544 90.8261 83.7115C90.4635 83.966 90.1863 84.3239 90.0306 84.7385C89.875 85.1532 89.8483 85.6051 89.9541 86.0351C90.0722 86.6757 90.0394 86.8942 89.303 86.9395C87.8126 87.0349 86.85 87.987 86.9128 89.1374C86.9681 90.1422 88.2148 91.0415 89.572 90.8455C90.3436 90.7325 90.4341 90.9485 90.6402 91.5991C90.8463 92.2497 90.9367 93.2746 92.0677 93.1641C93.0555 93.0686 93.3244 92.3352 93.4501 91.5037C93.4882 91.3845 93.5136 91.2615 93.5256 91.137C93.4929 90.725 93.7442 90.6974 94.0684 90.6346C95.9006 90.3281 96.1395 90.0392 96.1395 88.0271L96.127 88.0346ZM64.996 102.102H65.0162C65.0162 101.85 64.996 101.599 65.0162 101.348C65.1041 100.436 64.6617 99.866 63.8022 99.763C62.8898 99.6525 62.4148 100.25 62.3143 101.097C62.2255 101.801 62.1994 102.511 62.2363 103.22C62.2891 104.146 62.915 104.475 63.7721 104.475C64.6292 104.475 64.9734 104.006 64.991 103.22C65.0011 102.833 64.996 102.458 64.996 102.082V102.102Z" fill="#F3C221"/>
<path d="M43.3181 96.0704C43.4563 94.2367 43.5971 92.403 43.7303 90.5692C43.763 90.1522 43.6021 89.6448 44.3385 90.215C46.4875 91.888 48.9556 93.0385 51.3559 94.292C52.1828 94.7215 53.1153 94.827 54.0151 94.93C54.2966 94.9601 54.6283 95.0204 54.7691 94.6487C54.8153 94.5079 54.8127 94.3557 54.7616 94.2167C54.7105 94.0776 54.6139 93.9599 54.4875 93.8825C54.0714 93.5358 53.6359 93.2129 53.1831 92.9154C51.1272 91.6393 49.0629 90.375 46.9902 89.1223C44.8337 87.8161 44.321 86.01 45.4822 83.7517C46.2035 82.345 46.0502 82.0385 44.5145 82.1114C43.5644 82.1566 42.6219 82.3852 41.6769 82.5209C40.9078 82.6314 40.4202 82.5209 40.7494 81.5311C41.4155 79.5065 42.4158 77.6275 43.2628 75.6808C43.5971 74.9121 43.7655 75.7661 43.8459 75.8967C45.7209 78.5067 47.5707 81.1393 49.4231 83.7668C52.2858 87.8261 55.2843 91.79 57.8907 96.0252C58.215 96.4947 58.3572 97.0662 58.2904 97.6329C57.8757 101.705 57.5514 105.787 57.2196 109.866C57.1367 110.899 56.6291 111.763 56.1641 112.629C55.8348 113.237 55.1586 113.308 54.4976 113.237C50.4611 112.81 46.5327 111.871 42.6369 110.753C41.8528 110.527 41.8377 110.06 41.903 109.444C42.2901 105.874 42.6746 102.303 43.0567 98.7331C43.1145 98.1931 43.1472 97.6505 43.195 97.1104C43.3689 96.7927 43.413 96.42 43.3181 96.0704ZM44.9669 104.561C46.495 104.516 46.5729 104.599 46.4372 106.128C46.2889 107.791 46.6357 108.462 47.7592 108.683C48.3749 108.823 49.0208 108.729 49.5704 108.418C50.1199 108.107 50.5335 107.602 50.7301 107.003C51.2579 105.541 51.6551 105.066 53.0324 104.252C53.9649 103.702 54.6334 102.996 54.2891 101.808C53.9448 100.62 53.1404 100.002 51.7933 100.301C50.3858 100.602 50.3656 100.19 50.5692 99.0069C50.6539 98.5082 50.6035 97.9959 50.4232 97.5233C50.2428 97.0506 49.9391 96.6349 49.5437 96.3191C48.9279 95.8393 48.1237 96.0328 47.4275 96.4673C46.7313 96.9019 46.3141 97.6831 46.4624 98.3789C46.8444 100.188 46.0804 100.703 44.424 100.818C43.4061 100.891 42.7149 102.195 42.9788 103.23C43.2428 104.264 44.0218 104.543 44.9669 104.561Z" fill="#F3C221"/>
<path d="M35.0968 61.5836C35.1521 56.9766 33.727 52.7088 32.0807 48.4937C30.721 45.0146 29.5673 41.4602 29.61 37.6922C29.6754 30.3095 33.5159 25.6347 40.1839 23.1453C43.2779 21.9898 46.5202 21.7412 49.7826 21.5879C50.7477 21.5427 51.0217 21.8693 50.9613 22.7962C50.8407 24.6475 51.3358 24.6023 49.119 24.5998C45.6354 24.5998 42.2675 25.1951 39.2187 26.9183C33.7973 29.9804 31.8722 34.5723 33.1615 40.6664C33.9935 44.6077 35.5316 48.3179 36.7029 52.1461C37.8741 55.9744 37.9344 59.9609 37.8364 63.9373C37.8213 64.5502 37.6152 64.9547 36.9516 64.8014C36.2881 64.6482 35.215 65.0526 35.1094 63.8443C35.0441 63.0933 35.0968 62.3372 35.0968 61.5836Z" fill="#3E5362"/>
<path d="M96.0288 107.113C96.1545 110.2 96.3757 113.295 95.8981 116.37C95.6971 117.666 95.2949 118.882 94.375 119.874C93.063 121.283 91.3589 121.188 90.2128 119.65C88.9209 117.912 88.7048 115.857 88.6645 113.815C88.5615 109.261 88.5742 104.707 88.5239 100.152C88.5239 99.7254 88.5364 99.4868 89.0768 99.4215C91.1478 99.1703 93.2163 98.8713 95.2019 98.2081C96.0138 97.9394 96.0238 98.4393 96.0263 98.9617C96.0313 101.681 96.0322 104.398 96.0288 107.113Z" fill="#DF5E44"/>
<path d="M32.8245 93.0636C32.6034 96.2287 32.342 99.964 31.8192 103.677C31.6885 104.624 31.206 104.847 30.3665 104.709C27.8983 104.307 25.4276 103.956 23.0952 102.951C21.6173 102.33 21.5546 102.288 22.2433 100.768C23.5653 97.8439 25.0281 94.9903 26.1239 91.9558C27.0061 89.5243 26.9909 89.5217 29.542 90.0166C29.9517 90.0945 30.369 90.1221 30.7838 90.1723C32.8774 90.431 32.8773 90.4311 32.8245 93.0636Z" fill="#3E5362"/>
<path d="M61.2661 18.664C61.2661 17.0237 61.6708 16.3329 63.2592 15.8857C65.75 15.1849 68.286 14.6499 70.7994 14.0194C75.2154 12.9166 79.6189 11.7586 84.0475 10.6985C85.827 10.2715 87.6316 9.84442 89.499 10.0328C89.873 10.0489 90.2448 10.0985 90.6099 10.181C90.9919 10.2916 91.5625 10.3317 91.5449 10.8517C91.5273 11.3139 90.9869 11.2562 90.6451 11.3541C85.3997 12.7583 80.1719 14.2354 74.8988 15.5291C71.9832 16.2425 72.3326 16.9684 72.1089 19.5482C72.0913 19.7492 72.2069 19.9576 72.2094 20.1636C72.2094 20.7841 72.2094 21.4045 72.2094 22.0225C71.6313 21.7311 71.6413 21.0629 71.3221 20.5982C69.3742 17.7722 65.6872 17.2497 62.8295 19.41C62.4826 19.6612 62.191 20.3395 61.7688 20.1134C61.2284 19.8295 61.3063 19.091 61.2661 18.664Z" fill="#3E5362"/>
<path d="M37.8791 72.7719C33.741 72.8779 29.6002 72.7286 25.4805 72.3247C24.9778 72.277 24.6158 72.3951 24.9652 71.6139C25.5986 70.1946 25.3875 68.6673 25.1337 67.1802C24.9678 66.2031 25.1587 65.7409 26.3099 65.8414C30.3916 66.1981 34.4583 66.6352 38.4521 67.5998C38.4521 67.6399 38.4345 67.6826 38.4245 67.7228C38.0525 69.6018 38.1053 71.7621 35.4964 72.1766C35.3783 72.1967 35.245 72.2921 35.348 72.4278C35.4083 72.5056 35.5668 72.5157 35.6849 72.5332C36.4138 72.6287 37.1879 72.3272 37.8791 72.7719Z" fill="#DF5E44"/>
<path d="M41.6341 86.5676C41.3677 89.7712 41.1004 92.9732 40.8323 96.1734C40.7594 97.0476 40.6589 97.7308 39.5229 96.927C38.5803 96.2513 37.4895 95.7841 36.5068 95.1686C36.0318 94.8747 35.1746 94.7742 35.2173 94.1437C35.2802 93.2143 35.0464 92.1944 35.6094 91.3453C36.8661 89.4362 38.231 87.5774 39.45 85.6381C39.9753 84.8017 40.689 84.9373 41.4154 84.9248C41.7446 84.9248 41.7974 85.1609 41.7521 85.4497C41.6943 85.819 41.6592 86.2034 41.614 86.5676H41.6341Z" fill="#F3C221"/>
<path d="M74.567 21.8542C74.5821 19.8722 74.5997 19.8446 76.2434 20.548C80.5665 22.4244 85.1735 23.6126 89.3131 25.9361C91.1076 26.9409 92.8319 28.0462 94.2369 29.5533C94.4882 29.8045 94.9556 30.111 94.7018 30.4753C94.4228 30.8797 93.9302 30.6235 93.5632 30.4401C90.4249 28.8676 87.222 27.4441 83.9546 26.1697C81.2728 25.1197 78.5784 24.0773 75.7333 23.5598C74.5243 23.3413 74.4288 22.6404 74.567 21.8542Z" fill="#3E5362"/>
<path d="M39.9602 67.881C43.6423 68.6045 47.1962 69.8906 50.9411 70.3327C51.0643 70.3478 51.2956 70.2247 51.2855 70.4684C51.2855 70.5312 51.009 70.5915 50.8532 70.6367C47.2288 71.6716 43.5216 72.2494 39.7942 72.6664C39.0402 72.6362 38.6481 72.6186 39.4072 71.7595C40.5382 70.4684 40.6664 68.8281 39.9602 67.881Z" fill="#DF5E44"/>
<path d="M33.8726 75.0553C34.878 74.8166 35.1671 75.2864 34.8504 76.4821C34.2823 78.6122 33.7973 80.765 33.3423 82.9228C33.1161 84.0281 32.3622 83.6211 31.7891 83.5281C31.2714 83.4453 30.4972 83.5633 30.7385 82.4756C31.216 80.3279 31.5654 78.1475 31.9072 75.9721C32.0982 74.8267 32.9301 75.108 33.8726 75.0553Z" fill="#3E5362"/>
<path d="M34.0135 104.35C34.4666 102.161 34.7431 99.939 34.8404 97.7057C34.858 97.2862 34.9736 97.1908 35.3431 97.3967C36.6274 98.0926 37.9194 98.7733 39.2037 99.4641C39.4551 99.5947 39.5883 99.748 39.3671 100.044C38.035 101.825 36.6451 103.536 34.5916 104.548C34.1141 104.784 33.8778 104.792 34.0135 104.35Z" fill="#DF5E44"/>
<path d="M31.681 88.1703C30.8139 88.012 29.6703 87.8387 28.5242 87.5824C27.3781 87.3262 27.8582 86.3993 27.8582 85.7236C27.8582 84.9374 28.5091 85.073 28.9715 85.1484C30.2433 85.3619 31.5051 85.6306 32.7718 85.8869C33.3424 86.0024 34.0914 86.0878 33.9959 86.8439C33.9691 87.1991 33.8107 87.5315 33.5518 87.7763C33.293 88.0211 32.9522 88.1606 32.596 88.1678C32.3899 88.1703 32.1787 88.1703 31.681 88.1703Z" fill="#3E5362"/>
<path d="M60.2833 21.6984C60.1536 22.488 60.129 23.2913 60.2104 24.0873C58.1293 24.1627 56.0484 24.2581 53.9698 24.0496L54.0024 24.0999C53.9873 23.3463 53.9731 22.5927 53.9597 21.8391L54.1833 21.613L60.2833 21.6984ZM57.9359 23.8361C58.0604 23.8474 58.1858 23.8474 58.3104 23.8361C58.6573 23.7758 59.1548 24.0296 59.3031 23.5699C59.4011 23.2584 59.0644 22.9544 58.8004 22.761C58.4159 22.4721 58.1319 22.7083 57.8428 23.0122C57.6285 23.2041 57.3806 23.3548 57.1115 23.4568C56.9507 23.5296 56.6088 23.3488 56.6365 23.6552C56.654 23.8662 56.9758 23.8286 57.1794 23.8336C57.4332 23.8386 57.6845 23.8336 57.9359 23.8361ZM55.5431 23.7005C55.5808 23.4995 55.4828 23.4292 55.3496 23.4191C55.3107 23.4168 55.2717 23.4227 55.2353 23.4365C55.1989 23.4504 55.1659 23.4719 55.1385 23.4995C55.1214 23.521 55.1102 23.5467 55.1062 23.5739C55.1022 23.601 55.1056 23.6288 55.1158 23.6543C55.126 23.6798 55.1427 23.7021 55.1644 23.7191C55.186 23.736 55.2118 23.747 55.239 23.7507C55.3427 23.7543 55.4461 23.7372 55.5431 23.7005Z" fill="#BAE2CB"/>
<path d="M39.9601 67.881C40.6663 68.823 40.5382 70.4684 39.3972 71.7595C38.6431 72.6186 39.02 72.6362 39.7841 72.6664C39.1583 72.9176 38.5149 72.7995 37.8765 72.7744C37.1878 72.3272 36.4138 72.6287 35.6849 72.5232C35.5667 72.5056 35.4083 72.4956 35.348 72.4177C35.2399 72.2846 35.3782 72.1891 35.4964 72.1665C38.1053 71.752 38.0525 69.5917 38.4244 67.7128C38.4244 67.6726 38.442 67.6299 38.4521 67.5897C38.9874 67.5118 39.47 67.7253 39.9601 67.881Z" fill="#3E5362"/>
<path d="M23.5528 69.2023C23.58 69.7479 23.4685 70.2915 23.2286 70.7824C23.1234 70.9902 22.9507 71.1563 22.7389 71.2534C22.5271 71.3506 22.2886 71.3732 22.0623 71.3174C21.6401 71.2521 21.2053 71.1315 21.1022 70.6442C20.8383 69.4058 20.7302 68.1649 21.2706 66.9592C21.4491 66.5598 21.7205 66.2307 22.188 66.2056C22.6555 66.1805 22.7887 66.615 22.9722 66.9214C23.3768 67.6119 23.5781 68.4026 23.5528 69.2023Z" fill="#DF5E44"/>
<path d="M43.3179 96.0704C43.4075 96.4222 43.357 96.7951 43.1771 97.1104C43.1264 96.7574 43.1752 96.3973 43.3179 96.0704Z" fill="#DF5E44"/>
<path d="M86.287 111.311L86.3699 112.509H86.2795L86.1915 112.494C86.2242 112.099 86.2568 111.705 86.287 111.311Z" fill="#3E5362"/>
<path d="M86.3372 99.7103C86.292 99.871 86.2443 100.029 86.199 100.19C86.1839 100.037 86.1687 99.8836 86.1512 99.7329C86.212 99.718 86.2745 99.7103 86.3372 99.7103Z" fill="#3E5362"/>
<path d="M42.5439 121.308C42.4882 121.178 42.4622 121.038 42.4679 120.896C42.4735 120.755 42.5107 120.617 42.5766 120.492C42.6373 120.62 42.6659 120.762 42.6602 120.904C42.6545 121.046 42.6146 121.185 42.5439 121.308Z" fill="#3E5362"/>
<path d="M42.4408 124.594V124.051C42.48 124.085 42.5116 124.126 42.5332 124.173C42.5548 124.22 42.566 124.271 42.566 124.323C42.566 124.374 42.5548 124.425 42.5332 124.472C42.5116 124.519 42.48 124.56 42.4408 124.594Z" fill="#3E5362"/>
<path d="M98.791 111.258C98.6714 110.678 98.6714 110.079 98.791 109.499C99.0064 110.066 99.0064 110.691 98.791 111.258Z" fill="#ACBCB9"/>
<path d="M98.771 108.517L98.756 107.234C98.8753 107.426 98.9398 107.647 98.9425 107.873C98.9451 108.1 98.8859 108.322 98.771 108.517Z" fill="#ACBCB9"/>
<path d="M98.7558 106.508L98.7408 105.47C98.8549 105.618 98.9181 105.799 98.9208 105.986C98.9235 106.173 98.8657 106.356 98.7558 106.508Z" fill="#ACBCB9"/>
<path d="M98.7509 112.788C98.7509 112.536 98.7508 112.27 98.7684 112.011C98.8682 112.117 98.9223 112.258 98.919 112.403C98.9157 112.548 98.8553 112.687 98.7509 112.788Z" fill="#ACBCB9"/>
<path d="M98.7207 104.749V104.473C98.7496 104.535 98.7731 104.6 98.791 104.666C98.7935 104.679 98.7458 104.712 98.7207 104.749Z" fill="#ACBCB9"/>
<path d="M48.3976 19.199L47.91 19.2267C47.9371 19.1883 47.9726 19.1565 48.0136 19.1337C48.0547 19.111 48.1002 19.0978 48.1471 19.0951C48.194 19.0924 48.241 19.1004 48.2843 19.1184C48.3277 19.1364 48.3664 19.1639 48.3976 19.199Z" fill="#D0EAC3"/>
<path d="M51.386 19.2995C51.3479 19.3062 51.3085 19.3025 51.2723 19.2888C51.236 19.2751 51.2042 19.2519 51.18 19.2216L51.4489 19.096C51.4215 19.1617 51.4005 19.2298 51.386 19.2995Z" fill="#D0EAC3"/>
<path d="M25.5384 74.6333C25.991 74.5528 26.4574 74.6087 26.878 74.7941H25.5886C25.5672 74.742 25.5504 74.6883 25.5384 74.6333Z" fill="#ACBCB9"/>
<path d="M27.3579 40.1187C27.4432 40.238 27.5013 40.3744 27.5282 40.5184C27.5552 40.6625 27.5502 40.8107 27.5138 40.9527L27.3428 40.8974L27.3579 40.1187Z" fill="#92A5AA"/>
<path d="M23.5025 74.3721C23.6791 74.3217 23.8648 74.3122 24.0456 74.3444C24.2263 74.3766 24.3973 74.4497 24.5455 74.5579C24.1868 74.6241 23.8162 74.5581 23.5025 74.3721Z" fill="#3E5362"/>
<path d="M60.0145 56.7154C59.9422 56.7548 59.8605 56.7739 59.7782 56.7706C59.826 56.5194 59.8763 56.2682 59.924 55.9994L59.9692 55.497L59.9466 55.4795C60.1251 55.8789 60.4116 56.2682 60.0145 56.7154Z" fill="#1D2831"/>
<path d="M77.407 108.969C76.1931 108.969 75.3234 108.281 74.9615 106.887C74.7755 106.169 74.6397 105.92 73.8229 106.279C72.0409 107.06 71.0154 106.716 70.3318 105.309C69.7285 104.074 70.2513 102.431 71.5884 101.634C72.4179 101.145 73.7349 100.999 72.3902 99.6249C72.0961 99.3235 72.139 98.6754 72.0661 98.1805C72.009 97.9116 72.0394 97.6315 72.1529 97.3812C72.2664 97.1308 72.457 96.9233 72.6969 96.7889C73.1996 96.4648 73.7324 96.3694 74.2225 96.7235C74.716 97.0375 75.1508 97.4353 75.5069 97.8991C76.2433 98.9994 76.6178 98.4945 76.9948 97.663C77.069 97.4674 77.1714 97.2838 77.2989 97.1179C77.8167 96.5301 78.2716 95.7966 79.2518 96.1132C80.2698 96.4372 80.3653 97.2485 80.2874 98.1378C80.2991 98.3881 80.2545 98.638 80.1567 98.8688C79.4554 99.9489 79.5936 100.544 80.9609 100.903C81.9084 101.155 82.1975 102.225 82.1849 103.059C82.1724 104.091 81.1343 104.465 80.3049 104.614C79.4755 104.762 79.4528 104.93 79.6891 105.691C80.3174 107.686 79.3574 108.982 77.407 108.969ZM77.1004 102.225C77.1176 102.056 77.0688 101.888 76.9643 101.755C76.8597 101.622 76.7076 101.535 76.5399 101.511C76.1578 101.454 75.9895 101.715 76.0247 102.041C76.0649 102.411 76.1704 102.838 76.6379 102.853C76.9848 102.865 77.0878 102.544 77.1004 102.237V102.225Z" fill="#DF5E44"/>
<path d="M96.1394 88.0271C96.1394 90.0367 95.9132 90.3281 94.0809 90.6295C93.7567 90.6823 93.5053 90.7099 93.538 91.1319C93.526 91.2565 93.5007 91.3794 93.4626 91.4986C93.337 92.3301 93.068 93.0636 92.0803 93.1591C90.9492 93.2696 90.8662 92.2572 90.6526 91.5941C90.439 90.9309 90.356 90.735 89.5844 90.8405C88.2272 91.0364 86.9805 90.1271 86.9252 89.1324C86.8624 87.9819 87.8251 87.0299 89.3155 86.9344C90.052 86.8892 90.0846 86.6706 89.9665 86.0301C89.8607 85.6 89.8874 85.1481 90.043 84.7335C90.1987 84.3189 90.476 83.9609 90.8387 83.7065C91.4771 83.2493 92.3642 83.3071 92.6834 83.7869C93.4459 84.9812 94.5189 85.9458 95.7875 86.5777C96.2299 86.8037 96.1544 87.5473 96.1394 88.0271Z" fill="#DF5E44"/>
<path d="M86.1864 102.009C86.2347 102.054 86.2736 102.108 86.3008 102.168C86.3281 102.229 86.3433 102.293 86.3454 102.36C86.3475 102.426 86.3365 102.491 86.3131 102.553C86.2897 102.615 86.2544 102.672 86.2091 102.72L86.1864 102.009Z" fill="#3E5362"/>
<path d="M86.194 105.252C86.2427 105.297 86.2813 105.352 86.3078 105.413C86.3343 105.475 86.348 105.541 86.348 105.607C86.348 105.674 86.3343 105.74 86.3078 105.801C86.2813 105.862 86.2427 105.917 86.194 105.963V105.252Z" fill="#3E5362"/>
<path d="M86.214 100.981C86.3849 101.147 86.3297 101.293 86.1814 101.433C86.1914 101.28 86.204 101.13 86.214 100.981Z" fill="#3E5362"/>
<path d="M86.2167 103.242C86.238 103.292 86.2557 103.343 86.2695 103.395C86.2695 103.408 86.2243 103.428 86.1991 103.446C86.1754 103.416 86.164 103.378 86.1672 103.34C86.1705 103.303 86.1882 103.267 86.2167 103.242Z" fill="#3E5362"/>
<path d="M86.1965 104.247C86.2217 104.294 86.2427 104.344 86.2593 104.395C86.2593 104.408 86.2166 104.433 86.1915 104.45C86.1691 104.421 86.1576 104.385 86.1585 104.348C86.1594 104.311 86.1727 104.275 86.1965 104.247Z" fill="#3E5362"/>
<path d="M86.1891 107.512C86.2117 107.556 86.2318 107.602 86.2493 107.648C86.2493 107.648 86.2067 107.678 86.184 107.693C86.1625 107.668 86.1509 107.635 86.1519 107.602C86.1528 107.569 86.1661 107.537 86.1891 107.512Z" fill="#3E5362"/>
<path d="M44.9668 104.561C44.0218 104.543 43.235 104.219 42.9837 103.219C42.7324 102.22 43.411 100.881 44.4289 100.808C46.0852 100.692 46.8494 100.178 46.4673 98.3689C46.319 97.6731 46.7061 96.9119 47.4324 96.4573C48.1588 96.0026 48.9405 95.8293 49.5487 96.309C49.9441 96.6248 50.2478 97.0406 50.4281 97.5133C50.6085 97.9859 50.6589 98.4982 50.5742 98.9969C50.3706 100.18 50.3907 100.592 51.7982 100.291C53.1454 100.002 53.9622 100.64 54.2939 101.798C54.6257 102.956 53.9647 103.692 53.0372 104.242C51.6599 105.056 51.2629 105.531 50.7351 106.992C50.5385 107.592 50.1249 108.097 49.5753 108.408C49.0258 108.719 48.3798 108.813 47.7642 108.673C46.6407 108.452 46.2939 107.781 46.4422 106.118C46.5729 104.599 46.4949 104.516 44.9668 104.561ZM48.2594 101.233C47.8823 101.283 47.5456 101.484 47.5782 101.838C47.6127 102.045 47.7101 102.237 47.8571 102.387C48.0041 102.537 48.1936 102.638 48.4001 102.677C48.7671 102.77 48.9405 102.509 48.9028 102.175C48.8601 101.75 48.7545 101.346 48.2594 101.233Z" fill="#DF5E44"/>
<path d="M67.4038 22.859C68.3589 23.8638 68.3087 24.6174 67.2229 25.5744C65.4761 25.1273 65.476 25.1273 65.4861 23.1001C66.1119 22.9594 66.7327 22.7761 67.4038 22.859Z" fill="#3E5362"/>
<path d="M69.9851 23.3614C69.8845 23.0373 69.784 22.7133 69.686 22.3867L69.7111 22.4169L69.3819 21.9145L69.4346 21.9521C69.3442 21.8466 69.2537 21.7412 69.1657 21.6332L69.2159 21.6809L68.9144 21.382L68.9646 21.4322L68.6404 21.181L68.6706 21.2237L68.2031 20.8745L68.2307 20.9021L67.2455 20.6133C66.6297 20.4801 66.0189 20.3771 65.4509 20.7715V20.7564L64.8376 20.9473L64.521 21.1182C64.5084 21.1854 64.4863 21.2505 64.4556 21.3116C64.3551 21.392 64.2545 21.4724 64.1565 21.5628L63.5207 22.133C62.9376 23.3338 62.7666 24.5621 63.2944 25.8332L63.2668 25.803L63.5684 26.3305L63.5131 26.2803C63.601 26.3858 63.6865 26.4938 63.7644 26.6018L64.2395 27.0615C64.3119 27.0974 64.3924 27.1139 64.4731 27.1092C64.5117 27.1623 64.5383 27.2232 64.5511 27.2875L65.0187 27.5714C65.9648 27.898 66.993 27.898 67.9391 27.5714L68.3262 27.2398L68.7183 27.0991C68.7334 27.0357 68.7537 26.9735 68.7787 26.9133L68.9847 26.863C68.9998 26.7927 69.02 26.7224 69.0401 26.6546L69.4699 26.3481L69.5905 25.9286H69.5728C70.1936 25.1474 70.171 24.2682 69.9851 23.3614ZM68.4444 27.0087C68.433 27.0202 68.4228 27.0328 68.4142 27.0464C68.4231 27.0345 68.4332 27.0236 68.4444 27.0138V27.0087ZM68.3991 27.0665C68.373 27.1141 68.3561 27.166 68.3489 27.2198C68.3566 27.1678 68.3736 27.1175 68.3991 27.0715V27.0665ZM67.2229 25.5593C66.5041 25.9286 65.8405 25.8306 65.3705 25.1851C64.8678 24.4892 64.8477 23.7507 65.4861 23.085C66.0566 22.4495 66.6975 22.3565 67.4139 22.8338C68.3589 23.8637 68.3086 24.6023 67.2354 25.5619L67.2229 25.5593ZM66.3557 20.862C66.2426 20.862 66.127 20.8619 66.0114 20.8368C66.127 20.8494 66.2426 20.862 66.3557 20.8645V20.862Z" fill="#BAE2CB"/>
<path d="M57.9359 23.8361C57.6846 23.8361 57.4332 23.8361 57.1819 23.8361C56.9783 23.8361 56.6566 23.8688 56.639 23.6578C56.6163 23.3513 56.9532 23.5322 57.114 23.4594C57.3831 23.3574 57.6311 23.2067 57.8455 23.0148C58.1345 22.7108 58.4185 22.4747 58.8031 22.7636C59.0544 22.957 59.3988 23.266 59.3058 23.5724C59.1575 24.0321 58.6598 23.7784 58.3129 23.8387C58.1874 23.8493 58.0612 23.8485 57.9359 23.8361Z" fill="#ACBCB9"/>
<path d="M55.5432 23.7005C55.447 23.7415 55.3436 23.7629 55.2391 23.7633C55.2119 23.7595 55.1861 23.7486 55.1645 23.7317C55.1428 23.7147 55.1261 23.6924 55.1159 23.6669C55.1057 23.6413 55.1023 23.6136 55.1063 23.5865C55.1103 23.5593 55.1215 23.5336 55.1386 23.5121C55.166 23.4845 55.199 23.463 55.2354 23.4491C55.2718 23.4353 55.3108 23.4293 55.3497 23.4317C55.4829 23.4292 55.5809 23.4996 55.5432 23.7005Z" fill="#ACBCB9"/>
<path d="M77.7917 55.8286L74.5519 55.7231C74.4927 55.7646 74.4197 55.7816 74.3483 55.7708C74.3055 56.2858 74.5268 56.851 74.0568 57.278L74.0693 57.2629L73.8381 57.582L73.5868 57.8332L73.617 57.8056C72.6367 58.73 71.5911 58.7727 70.4928 58.0341L70.2062 57.8031C70.1208 57.7101 70.0328 57.6197 69.9549 57.5292L69.98 57.5593C69.3441 56.9916 69.4899 56.2255 69.4572 55.5071L68.281 55.4016L66.2854 55.3036L66.0541 55.497C65.9721 56.6895 66.1862 57.8838 66.6774 58.9736C67.3063 60.1195 68.3177 61.0085 69.5352 61.4856C69.5987 61.5356 69.678 61.5614 69.7589 61.5584C70.4251 61.9012 71.1614 62.0861 71.9106 62.0987C72.6598 62.1114 73.4019 61.9514 74.0794 61.6313L74.1473 61.7167L74.2478 61.669L74.861 61.3374C75.1661 61.2559 75.4329 61.0702 75.615 60.8124L75.9443 60.5386C77.2362 59.2474 78.0581 57.7528 77.7917 55.8286Z" fill="#F2F0E9"/>
<path d="M59.5067 15.3756C59.5172 15.3656 59.5257 15.3538 59.5317 15.3406L59.5067 15.3756Z" fill="#1D2831"/>
<path d="M95.3502 77.1176C95.3502 77.1176 95.3502 77.1346 95.3672 77.1395L95.3502 77.1176Z" fill="#1D2831"/>
<path d="M51.9889 27.3225C51.9889 27.3101 51.969 27.2925 51.9515 27.2925L51.9889 27.3225Z" fill="#1D2831"/>
<path d="M101.332 93.2621C100.636 90.1673 99.9849 87.0022 98.7332 84.0883C98.0018 82.2219 97.4062 80.3379 96.2199 78.7956C96.14 78.6268 96.0688 78.4541 96.0063 78.2782C96.0063 78.1802 95.7977 77.8762 95.8454 77.9063C95.7851 77.7958 95.4659 77.4191 95.5538 77.4568C95.2698 77.0574 94.8803 76.786 94.6465 76.3188C94.5359 76.0676 94.2745 76.0098 94.0935 75.8792C94.1978 75.9664 94.3222 76.0259 94.4555 76.0525C91.9622 73.0658 94.6214 72.6388 93.322 69.0919V69.1095C93.2667 68.9939 92.9927 68.607 93.0706 68.6397C92.8835 68.3879 92.6517 68.1725 92.3869 68.0042L92.6383 68.2805C92.407 68.1474 92.4373 67.7781 92.1633 67.7781L91.6607 67.4415C91.6607 67.4415 91.6607 67.4415 91.6607 67.4541L91.1806 67.1627V67.1853C90.9141 67.0396 90.5245 67.007 90.3335 66.7859C89.6524 57.5921 91.8415 47.6722 89.1723 38.8502C89.1176 38.4698 88.9413 38.1174 88.6696 37.8454C88.5789 37.4974 88.3779 37.188 88.0966 36.9637L88.348 37.3531C88.2173 37.1621 88.0187 36.8507 88.0463 36.6799C87.7095 36.3181 87.2521 35.7554 87.0409 35.4515L86.7896 35.2003C86.7243 35.135 86.5131 34.9189 86.5383 34.9491C86.2342 34.6979 85.8095 34.3613 85.5707 34.1654C85.5029 34.1076 85.2817 33.8966 85.3043 33.9142C84.8569 33.565 84.3215 33.4118 83.8591 33.0928L83.3413 32.7888L82.8512 32.5075C82.3854 32.1784 81.8606 31.9422 81.3054 31.8116L80.579 31.4876V31.5052C79.4354 30.9174 78.1436 30.6537 76.9473 30.1638C74.5042 29.7569 74.5068 29.7569 74.5017 27.3102C74.5646 26.7073 74.3258 25.9914 74.65 25.4915C74.5991 25.5548 74.5561 25.6239 74.5219 25.6975C76.9724 26.3431 79.4205 27.3228 81.8107 27.6292C81.407 27.3986 80.9296 27.3329 80.4785 27.4459L82.2605 28.1266C82.8461 28.5687 83.5751 28.6692 84.2462 28.9254V28.9053L84.7915 29.1314L86.0255 29.6765C86.0266 29.6706 86.0266 29.6647 86.0255 29.6589L86.5584 29.9101C86.9234 30.175 87.3394 30.3614 87.78 30.4577C87.7803 30.4518 87.7803 30.446 87.78 30.4401L90.5774 31.6685V31.6559L91.2911 32V31.9825L91.8416 32.2035C91.842 32.1977 91.842 32.1918 91.8416 32.1859L92.3718 32.4045C93.5029 32.9973 95.4559 33.7006 96.421 32.6305C96.6098 32.4908 96.7825 32.3308 96.9362 32.1533C97.7405 31.6685 97.6299 30.2769 97.2931 29.4831C97.1335 29.0069 96.8415 28.586 96.4512 28.2698C96.3819 28.0358 96.2277 27.836 96.0188 27.7096C96.0174 27.7154 96.0174 27.7214 96.0188 27.7272L95.7675 27.476H95.785C95.6356 27.2853 95.4606 27.1162 95.2648 26.9736C95.1324 26.7504 94.9275 26.5793 94.6842 26.4888L94.4329 26.2728C94.3219 26.0807 94.1736 25.9128 93.9966 25.779C93.8196 25.6453 93.6175 25.5484 93.4024 25.494L93.1335 25.283C93.0882 25.0318 92.8595 25.0318 92.6483 24.969C92.6472 24.974 92.6472 24.9791 92.6483 24.9841L92.3694 24.7831C92.3166 24.5319 92.0879 24.552 91.8667 24.4867C90.419 23.5372 88.9637 22.6832 87.3602 22.1908C86.6061 21.6734 85.7214 21.4372 84.8468 21.1709C84.8523 21.1757 84.8567 21.1818 84.8594 21.1885C84.1054 20.9047 83.3513 20.3168 82.5269 20.3847C82.5569 20.3729 82.5863 20.3595 82.6149 20.3445L82.077 20.1586V20.1812C81.1916 19.7398 80.258 19.4026 79.2947 19.1765L79.3123 19.1965L78.5583 18.8926C78.1582 18.6693 77.7216 18.5188 77.2689 18.4479L76.3993 18.0586C76.4031 18.0942 76.4098 18.1296 76.4194 18.1641C76.4018 18.134 76.4194 18.0637 76.3817 18.0536C81.3658 15.3658 88.1946 15.4486 93.3822 12.9819L93.621 12.7307C94.3751 12.0374 94.453 10.7538 93.9126 9.89969C93.8882 9.73593 93.8259 9.5801 93.7308 9.44452C93.6357 9.30893 93.5104 9.19733 93.3647 9.1185C93.4451 9.21144 93.5256 9.30687 93.6035 9.40232C93.1988 9.01046 92.9072 8.46792 92.3769 8.31971L91.8742 8.06851C91.8727 8.07428 91.8727 8.08029 91.8742 8.08605C87.7623 6.26487 83.0397 8.19407 78.9705 9.34204L78.9479 9.25416H78.8549C73.1294 10.6131 67.4642 12.2158 61.7262 13.5245L61.7437 13.5044C61.5817 13.5922 61.4137 13.6686 61.241 13.733C61.1304 13.7832 60.6806 14.0821 60.7635 13.9842C60.4383 14.2271 60.1363 14.4995 59.8612 14.798C59.6878 15.0266 59.3334 15.3004 59.3133 15.5516C58.5115 16.7549 58.9036 18.1566 58.6624 19.4527C57.4459 19.2292 54.1383 20.0481 53.7135 18.9629C53.0424 18.4128 51.7279 18.2746 51.3157 19.1664C48.9456 18.8624 46.4523 19.204 44.0948 19.503C43.0215 19.7014 41.82 19.8044 40.7845 20.347L40.7343 20.2641C38.608 20.9574 36.5746 21.706 35.0138 22.952C34.9208 23.0173 34.8279 23.0825 34.7324 23.1453C34.7335 23.1404 34.7335 23.1353 34.7324 23.1303C33.8631 23.5786 33.0937 24.1981 32.4703 24.9515L32.508 24.9138L32.2089 25.1901L32.2516 25.1524C32.0896 25.3315 31.9025 25.4863 31.6962 25.6121L31.2865 25.9964C31.2162 26.0768 31.0553 26.2476 31.0477 26.2476C30.8994 26.6596 30.5224 26.7726 30.4294 27.1821H30.4445C30.2083 27.5539 29.781 27.7574 29.7181 28.2246C28.8786 29.1415 28.5619 30.3221 28.19 31.4776H28.2051C26.3979 36.391 27.1997 41.8394 28.9289 46.6398H28.9063L29.208 47.3934L29.1903 47.3759C29.7281 48.9232 30.2786 50.4807 30.8617 52.0029C32.053 55.8764 33.2294 59.79 32.5181 63.9046C28.6223 63.8016 23.5301 62.081 20.1747 64.3216C20.1909 64.2749 20.2036 64.227 20.2125 64.1784L19.8456 64.4648C19.8975 64.4849 19.9536 64.4918 20.0089 64.4849C17.9203 65.8489 17.689 70.8176 19.4082 72.7744L19.6444 73.0256C19.7827 73.3371 20.0742 73.4677 20.3608 73.6185C23.1707 74.7162 26.4381 74.4524 29.4618 74.789C29.3562 77.4919 28.6349 80.1018 28.2604 82.7645C28.3836 82.7496 28.4989 82.696 28.5897 82.6113C28.4966 82.6944 28.3812 82.7485 28.2578 82.767C27.157 82.7896 25.6414 82.9127 25.4353 84.2466C24.7793 86.8414 24.8296 89.5469 23.3718 92.0011H23.3869L22.9094 93.036C22.2609 94.2619 21.4491 95.435 21.1098 96.804L21.1299 96.7813C20.3155 98.6754 18.9557 100.861 19.3579 102.951H19.3353C19.4308 103.117 19.5263 103.28 19.6243 103.453C19.6676 103.645 19.7634 103.822 19.9009 103.963C20.0385 104.104 20.2124 104.204 20.4035 104.252C20.4035 104.252 20.4035 104.252 20.4035 104.237L20.6749 104.435C20.7026 104.699 20.964 104.687 21.1776 104.762C21.1776 104.762 21.1776 104.762 21.1776 104.747L21.6803 104.998C22.0332 105.3 22.4736 105.481 22.937 105.515C22.9358 105.508 22.9358 105.5 22.937 105.493C27.0012 106.696 31.4976 108.412 35.6246 106.498V106.518L36.1273 106.254C36.1288 106.26 36.1288 106.266 36.1273 106.272L36.6299 106.008C36.6289 106.013 36.6289 106.018 36.6299 106.023C37.4267 105.742 38.0224 105.081 38.5979 104.42C38.7412 104.3 38.8719 104.169 39.0227 104.048C41.9206 101.943 37.2809 112.325 40.5659 112.501C40.5659 112.501 40.5659 112.501 40.5659 112.489C41.227 112.793 41.8226 113.242 42.5767 113.212C42.637 118.397 42.4083 123.396 42.3454 128.508H44.8588C44.8337 127.93 44.8311 127.339 44.816 126.772L44.796 126.789C44.8538 126.287 44.796 125.739 44.8186 125.224C44.8186 124.555 44.8186 123.885 44.8186 123.215C45.3213 111.848 43.2703 114.061 54.1508 115.616C55.6286 115.797 57.0185 115.696 57.9209 114.265C58.1722 113.375 60.1603 116.438 63.3272 115.97C70.616 116.098 77.8646 115.862 85.0956 114.988C85.8497 114.895 86.2694 114.945 86.3298 115.933C86.9455 122.715 90.5171 119.969 89.5972 128.493H92.1106C92.1533 121.961 91.1529 124.519 95.1969 122.326C96.2677 121.68 96.9563 120.638 97.5269 119.595C97.5897 119.093 97.9466 118.718 97.9466 118.214H97.9341C99.7236 111.275 98.1853 103.951 98.6603 96.8618C98.9594 96.907 99.4672 96.5352 99.5753 96.5276C99.7512 96.4322 99.9422 96.3518 100.111 96.2513L100.726 95.651C100.807 95.5656 100.885 95.4801 100.963 95.3998L100.98 95.3771C101.561 94.8119 101.495 94.0307 101.332 93.2621ZM93.332 74.9824C93.4004 75.0947 93.5024 75.1826 93.6236 75.2336C93.5145 75.1792 93.4201 75.0991 93.3487 75.0002C93.2774 74.9013 93.2311 74.7866 93.2139 74.6659C93.2364 74.777 93.2763 74.8838 93.332 74.9824ZM89.8308 66.1051C89.8308 66.0724 89.8308 66.0398 89.8308 66.0072C89.8359 66.0398 89.8334 66.0649 89.8334 66.1051H89.8308ZM88.5741 37.8153C88.6069 37.8361 88.6424 37.8522 88.6797 37.863C88.6441 37.8518 88.6103 37.8357 88.5792 37.8153H88.5741ZM88.1293 68.5819C88.1567 68.4479 88.1719 68.3117 88.1746 68.175C88.1733 68.3099 88.1598 68.4444 88.1343 68.5769L88.1293 68.5819ZM88.1544 61.1565C88.1544 61.3148 88.1545 61.4706 88.1369 61.6263C88.1545 61.4706 88.1595 61.3148 88.1595 61.1565H88.1544ZM88.0791 43.1407C88.0791 42.9724 88.0664 42.8041 88.0513 42.6383C88.0714 42.8041 88.0815 42.9724 88.0966 43.1407H88.0791ZM80.7399 31.7363C80.6903 31.6863 80.6517 31.6263 80.6268 31.5604C80.6509 31.6331 80.6914 31.6992 80.745 31.7539L80.7399 31.7363ZM92.857 25.268C92.8133 25.245 92.7749 25.2134 92.7439 25.175C92.7785 25.2178 92.8223 25.2522 92.8721 25.2755L92.857 25.268ZM92.3418 24.8384C92.2343 24.8295 92.1306 24.7941 92.0401 24.7354C92.1313 24.7976 92.2369 24.8356 92.3468 24.8459L92.3418 24.8384ZM76.6204 18.5158C76.583 18.4917 76.552 18.459 76.53 18.4203C76.5524 18.4623 76.5853 18.4978 76.6255 18.5233L76.6204 18.5158ZM89.3156 25.9387C91.1328 27.1545 94.0407 28.4155 94.7068 30.4778C94.4253 30.8822 93.9327 30.626 93.5657 30.4426C90.4273 28.8701 87.2244 27.4467 83.957 26.1723C81.2752 25.1223 78.5809 24.0798 75.7357 23.5623C74.5243 23.3438 74.4314 22.643 74.5696 21.8668C74.5847 19.8848 74.6023 19.8572 76.246 20.5606C80.5565 22.4345 85.1735 23.6126 89.3131 25.9462L89.3156 25.9387ZM93.9427 9.99769C93.8623 9.96833 93.793 9.91477 93.7443 9.84443C93.7912 9.91717 93.8597 9.97342 93.9403 10.0052L93.9427 9.99769ZM63.2618 15.8782C72.0109 14.1022 80.5891 10.603 89.4991 10.0253C90.5321 9.86955 92.8544 10.9522 90.6477 11.3416C85.4022 12.7458 80.1744 14.2228 74.9013 15.5165C71.0357 16.1093 72.4332 19.2065 72.2045 22.0174C70.4451 18.463 66.4036 16.6444 62.8245 19.405C62.4777 19.6562 62.1861 20.3345 61.7638 20.1084C60.6177 18.6615 61.2813 16.1922 63.2593 15.8857L63.2618 15.8782ZM67.9895 27.5865C68.1547 27.6134 68.3241 27.5796 68.4664 27.4914C68.6087 27.4032 68.7143 27.2666 68.7636 27.1067C68.8391 27.0213 68.9672 26.951 69.015 26.8555C68.2962 27.6769 67.0495 28.3502 65.9109 28.0688C66.2708 28.1676 66.6499 28.1733 67.0126 28.0854C67.3753 27.9976 67.7098 27.8189 67.9845 27.5664L67.9895 27.5865ZM69.4975 26.3305C68.9949 26.5968 68.9069 27.0842 68.354 27.2223C66.7479 28.526 64.5084 27.5714 63.3774 26.1823C63.4341 26.2465 63.5071 26.2942 63.5886 26.3205C63.4906 26.1447 63.39 25.9713 63.292 25.798C63.2988 25.807 63.3064 25.8154 63.3146 25.8231C62.6586 24.2305 63.018 22.2159 64.4708 21.3016C64.5085 21.0881 64.6744 21.0278 64.8528 20.9373L64.8276 20.9097C65.0111 20.9449 65.26 20.7816 65.4661 20.7464L65.4459 20.769C66.3256 20.1686 67.3285 20.656 68.2384 20.8921L68.2257 20.8771L68.6782 21.2136C68.6782 21.2136 68.6782 21.2011 68.6782 21.1936L68.9747 21.4272L68.9245 21.3769L69.2261 21.6759L69.1759 21.6281C69.2915 21.7663 69.392 21.9295 69.5704 21.9672C69.5148 21.9376 69.4544 21.918 69.392 21.9095L69.7162 22.3892L69.6961 22.3692C70.0932 23.5322 70.435 24.8459 69.5981 25.9186L69.6232 25.9035C69.6031 26.0442 69.4875 26.2175 69.5252 26.3456L69.4975 26.3305ZM64.7698 20.8519L64.5185 21.0855C65.3454 20.1862 66.474 19.704 67.3386 20.1762C66.5368 19.7894 65.652 20.0129 64.7648 20.8519H64.7698ZM67.522 20.2716C67.6025 20.3219 67.6863 20.3772 67.7734 20.4375C67.6812 20.3872 67.5949 20.337 67.5144 20.2867L67.522 20.2716ZM60.5172 28.31C60.5113 28.4353 60.4936 28.5597 60.4644 28.6817C60.5072 28.4974 60.525 28.3081 60.5172 28.119C60.5122 28.2095 60.5122 28.2723 60.5097 28.3351L60.5172 28.31ZM41.7522 85.4222C41.6944 85.7915 41.6593 86.1758 41.614 86.54H41.6416C41.1038 87.8136 41.7346 99.3511 39.5329 96.8944C38.339 95.7966 35.9513 95.4575 35.2174 94.1136C34.8253 90.7174 38.0198 88.4215 39.4474 85.6081C39.8069 84.847 41.8679 84.4651 41.7447 85.4473L41.7522 85.4222ZM37.8564 74.8568C37.5171 74.9171 37.4091 75.0653 37.3689 75.3115C37.7559 74.5027 39.181 74.1836 40.2065 74.2288C39.4198 74.1635 38.2963 74.4072 37.8564 74.8568ZM37.5272 76.0023C37.6453 75.628 37.761 75.2487 37.8792 74.877C39.6109 74.995 41.9206 73.7792 40.2065 76.4419L40.219 76.4293L40.0456 77.0523C39.8053 77.4107 39.596 77.7889 39.4198 78.1827L39.44 78.1575C38.4346 80.1822 38.4145 82.6791 37.2684 84.6058C36.4616 85.9472 36.8436 85.1358 36.1122 84.7138C36.1446 84.7102 36.1765 84.7035 36.2076 84.6937C34.682 82.7293 36.7632 79.3583 37.2734 77.0498L37.2533 77.0749C37.2533 76.6856 37.7132 76.1053 37.3312 75.8541L37.5272 76.0023ZM37.5322 84.5103C37.642 84.4449 37.7284 84.3466 37.7794 84.2295C37.8303 84.1123 37.8433 83.9821 37.8163 83.8573C37.8869 83.8355 37.9489 83.7924 37.9939 83.7339C38.0389 83.6754 38.0647 83.6044 38.0677 83.5307C38.064 83.6042 38.0379 83.6748 37.993 83.7332C37.9481 83.7915 37.8865 83.8349 37.8163 83.8573C37.8398 83.9802 37.8251 84.1074 37.7743 84.2219C37.7236 84.3363 37.6391 84.4325 37.5322 84.4978V84.5103ZM39.1107 79.3683C39.1657 79.3374 39.2132 79.2948 39.2501 79.2437C39.287 79.1925 39.3124 79.1339 39.3244 79.0719C39.3107 79.1316 39.2846 79.1877 39.2478 79.2367C39.211 79.2856 39.1643 79.3262 39.1107 79.3558V79.3683ZM35.6121 84.131L35.8407 84.3822C35.5265 84.0054 34.8479 83.9301 35.1395 83.4302C35.0439 83.7191 35.039 84.008 35.6171 84.1185L35.6121 84.131ZM40.0708 77.0749C40.0506 77.6728 40.0381 78.2781 39.5681 78.6826C40.0481 78.2781 40.0708 77.6778 40.0708 77.0749C40.3188 76.9196 40.5223 76.7024 40.6611 76.4448C40.7999 76.1872 40.8692 75.8979 40.8624 75.6054C40.8673 75.8953 40.7976 76.1815 40.6598 76.4367C40.5221 76.6918 40.3209 76.9073 40.0758 77.0624L40.0708 77.0749ZM39.7767 72.679C35.0541 73.0859 30.2259 72.7066 25.4755 72.3373C23.9801 72.6463 26.109 69.858 25.1287 67.1928C23.7816 63.9574 38.1607 67.7103 39.9577 67.8937C43.6876 68.7352 47.6762 69.8354 51.283 70.481C47.6008 71.6842 43.6423 72.1992 39.7817 72.6664L39.7767 72.679ZM34.8454 76.4947C34.2774 78.6248 33.7923 80.7775 33.3374 82.9353C33.1112 84.0406 32.3572 83.6337 31.7842 83.5407C29.3764 84.0431 32.1033 77.5271 31.9022 75.9847C32.0832 74.8392 32.9077 75.1307 33.8577 75.0679C34.8832 74.8167 35.1671 75.2864 34.8504 76.4821L34.8454 76.4947ZM29.8011 74.9623C29.8387 74.9857 29.8711 75.0165 29.8966 75.0528C29.874 75.0125 29.8432 74.9774 29.8061 74.9498L29.8011 74.9623ZM21.2556 66.9718C23.7514 63.3395 24.7065 74.3771 21.0872 70.6568C20.8384 69.4059 20.7378 68.165 21.2707 66.9592L21.2556 66.9718ZM45.1177 38.4282C45.1816 38.3941 45.2366 38.3453 45.2781 38.286C45.3196 38.2266 45.3464 38.1583 45.3565 38.0866C45.0926 38.4433 45.1353 38.9004 44.9543 39.2923C45.0833 39.0234 45.1396 38.7255 45.1177 38.4282ZM41.8804 66.399C42.0247 66.4165 42.17 66.424 42.3153 66.4216C42.1764 66.419 42.0379 66.4073 41.9006 66.3865L41.8804 66.399ZM47.0932 35.5394L46.7665 35.8132C46.671 35.9941 46.6081 36.1599 46.3919 36.1976L45.9446 36.7628L45.9571 36.7502C45.5734 37.5297 45.1421 38.2847 44.6653 39.011C44.6226 39.232 44.5748 39.4531 44.5296 39.6741C44.5362 39.6685 44.5438 39.6642 44.5522 39.6615C42.2348 48.2173 44.2782 57.5518 43.0743 66.2885C42.1268 65.8815 41.1088 65.7509 40.1084 65.5701C40.2643 61.2093 40.5936 56.7455 39.1383 52.5078L38.9121 51.6939L38.9448 51.7165C38.7387 50.9629 38.6231 50.1566 38.1907 49.4557C38.2486 49.4407 38.2637 49.408 38.2411 49.3502C38.1204 49.0538 37.9897 48.7549 37.8816 48.4585H37.8992C37.8277 48.2529 37.7724 48.0421 37.7334 47.828C37.663 47.5893 37.482 47.3457 37.482 47.1046C37.3337 46.5821 37.1703 46.0546 37.0295 45.5346C36.4288 44.3188 36.1825 42.9874 35.7728 41.7139C34.9761 38.8979 34.6645 35.3234 36.263 32.8792C36.6174 32.3115 36.9064 31.6233 37.4643 31.2415C37.5426 31.0764 37.6564 30.9306 37.7977 30.8146C37.9389 30.6987 38.104 30.6154 38.2812 30.5707C38.6557 30.3195 38.8166 29.8674 39.3042 29.8347C40.4453 28.8676 41.6115 28.0563 43.0743 27.5991C42.5063 27.7297 41.976 27.8779 41.6241 28.418C41.1842 28.3677 40.8072 28.4532 40.5986 28.8978C40.4981 28.8968 40.3995 28.9259 40.3157 28.9814C40.2319 29.037 40.1668 29.1163 40.1286 29.2093C43.117 27.6669 46.5956 26.9887 50.1118 27.0867C51.268 26.5039 52.4542 28.0337 53.4697 27.0163C55.2516 26.2376 57.8606 26.9786 59.919 26.75C59.9132 26.7662 59.9111 26.7835 59.913 26.8006C59.9149 26.8177 59.9206 26.8342 59.9298 26.8487C59.9391 26.8632 59.9515 26.8755 59.9662 26.8845C59.9808 26.8935 59.9974 26.8991 60.0145 26.9008C60.8439 30.9199 56.4505 29.8247 53.8994 31.3745C53.2309 31.4298 52.6905 31.8067 52.1124 32.1156L51.4916 32.2965C50.8404 32.7496 50.1537 33.1494 49.4382 33.4922L49.4533 33.4771L49.0159 33.8162V33.7961L48.6968 34.0272L48.7294 33.9921C48.4757 34.1548 48.2604 34.3709 48.0985 34.6251C47.7793 34.9341 47.3144 35.0571 47.1133 35.5268L47.0932 35.5394ZM37.7334 48.3253C37.7234 48.3149 37.7149 48.3031 37.7082 48.2902C37.7227 48.3004 37.7388 48.3081 37.7559 48.3128L37.7334 48.3253ZM37.8665 30.6938L37.6152 30.9224C38.0223 30.6059 38.0877 29.9754 38.6783 29.9352C38.4849 29.9684 38.3055 30.0574 38.1622 30.1914C38.0188 30.3253 37.9178 30.4982 37.8715 30.6888L37.8665 30.6938ZM59.7632 24.5897C59.8456 24.5722 59.923 24.5362 59.9894 24.4842C59.9286 24.5287 59.8593 24.5604 59.7858 24.5772L59.7632 24.5897ZM53.261 19.2694C53.3599 19.2995 53.4579 19.3347 53.5551 19.3748C53.473 19.3263 53.3826 19.2869 53.2837 19.2568L53.261 19.2694ZM53.8894 26.4913C53.8172 26.5407 53.7563 26.6049 53.7109 26.6797C53.7621 26.5977 53.8318 26.5288 53.9145 26.4787L53.8894 26.4913ZM49.8679 33.3841C50.0338 33.4112 50.204 33.3776 50.3471 33.2895C50.4902 33.2014 50.5967 33.0646 50.6471 32.9044C50.7667 32.909 50.885 32.8774 50.9865 32.8139C50.5139 32.8868 50.4385 33.4921 49.8679 33.3841C49.8099 33.5914 49.7053 33.7827 49.562 33.9434C49.4187 34.104 49.2404 34.2298 49.041 34.3111C49.2465 34.2317 49.4306 34.1055 49.5786 33.9423C49.7265 33.7792 49.8342 33.5838 49.8931 33.3716L49.8679 33.3841ZM55.7292 21.3795C55.4352 21.4121 55.1386 21.4548 54.8445 21.5025C55.1713 21.4397 55.4578 21.397 55.7518 21.3644L55.7292 21.3795ZM54.1608 21.6307L60.2608 21.716C60.1311 22.5056 60.1066 23.3089 60.1879 24.1049C58.1169 24.1803 56.0484 24.2758 53.9774 24.0698C54.1131 23.276 53.6782 22.2235 54.1834 21.603L54.1608 21.6307ZM53.9774 19.5859C53.8764 19.5269 53.7723 19.4732 53.6656 19.4251C53.7796 19.4667 53.8912 19.5145 53.9999 19.5683L53.9774 19.5859ZM44.1173 19.8622C45.3564 19.8848 46.5905 19.7492 47.8246 19.6537C46.025 19.8521 44.2053 19.7014 42.4987 20.3596C43.0668 20.2139 43.6096 20.023 44.1399 19.8446L44.1173 19.8622ZM36.5973 22.2913C36.6608 22.2615 36.7154 22.2156 36.7556 22.1581C36.7202 22.2067 36.6751 22.2474 36.6232 22.2777C36.5713 22.3079 36.5137 22.3271 36.454 22.334C36.5121 22.3228 36.5682 22.3025 36.6199 22.2737L36.5973 22.2913ZM34.0211 23.8311C34.0115 23.873 33.9989 23.9142 33.9834 23.9542C34.0075 23.9092 34.0277 23.8621 34.0437 23.8135L34.0211 23.8311ZM33.6642 24.2933C33.5844 24.3282 33.4996 24.3503 33.4129 24.3586C33.5083 24.3472 33.601 24.3191 33.6868 24.2757L33.6642 24.2933ZM33.8678 24.1451C33.8678 24.1451 33.8677 24.1451 33.8552 24.1602C33.8426 24.1752 33.8853 24.1301 33.8904 24.1275L33.8678 24.1451ZM30.8517 27.1947C30.8221 27.2363 30.7782 27.2658 30.7285 27.2776C30.7582 27.272 30.7864 27.2602 30.8111 27.2429C30.8358 27.2255 30.8564 27.2031 30.8717 27.1771L30.8517 27.1947ZM29.0948 46.8609C29.0579 46.8315 29.0174 46.807 28.9742 46.788C29.0234 46.7999 29.0708 46.8185 29.1149 46.8433L29.0948 46.8609ZM29.5975 37.7073C29.2607 26.5265 40.0054 21.4498 49.7699 21.603C50.735 21.5578 51.0091 21.8844 50.9488 22.8113C50.8281 24.6626 51.3232 24.6174 49.1064 24.6149C40.0959 24.1702 30.3942 30.7416 33.1489 40.6915C33.9808 44.6328 35.5191 48.3429 36.6903 52.1712C37.2785 54.0652 39.161 64.706 36.9417 64.8265C36.2555 64.6683 35.2049 65.0777 35.0993 63.8695C36.1147 54.535 29.7709 46.773 29.6075 37.6796L29.5975 37.7073ZM32.5608 64.0528C32.4184 64.1249 32.2704 64.1853 32.1184 64.2337C32.2744 64.1802 32.4258 64.1138 32.5708 64.0352L32.5608 64.0528ZM30.4143 64.3342C30.2359 64.3091 30.0549 64.2789 29.8764 64.2463C30.0649 64.2613 30.2459 64.2915 30.4244 64.3065L30.4143 64.3342ZM20.3632 73.3723C20.3775 73.422 20.3836 73.4738 20.3809 73.5255C20.3929 73.4676 20.3937 73.4079 20.3834 73.3497L20.3632 73.3723ZM28.9591 74.5252C29.0703 74.5535 29.1764 74.5993 29.2732 74.6609C29.1837 74.595 29.0845 74.5434 28.9792 74.5077L28.9591 74.5252ZM29.5095 74.8945C29.4809 74.8504 29.448 74.8092 29.4114 74.7714C29.4559 74.8024 29.4972 74.8378 29.5346 74.877L29.5095 74.8945ZM28.9516 85.1584C30.2761 85.7035 33.6717 85.2916 33.9784 86.854C33.443 89.2605 30.3943 87.801 28.5067 87.5925C27.3857 87.3413 27.8406 86.4094 27.8406 85.7337C27.8582 84.9299 28.5091 85.0655 28.9716 85.1408L28.9516 85.1584ZM30.3515 104.727C16.7541 102.752 23.1808 101.516 26.1089 91.986C26.9911 89.5544 26.9761 89.5519 29.5272 90.0467C31.7892 90.4587 33.1867 89.7629 32.7946 93.0812C32.2642 94.5934 33.1112 105.43 30.3716 104.709L30.3515 104.727ZM35.9815 106.314C35.9429 106.314 35.9047 106.321 35.8684 106.334C35.9588 106.309 36.0545 106.309 36.1448 106.334C36.0981 106.318 36.0502 106.306 36.0016 106.297L35.9815 106.314ZM37.1151 105.784C37.1354 105.707 37.1667 105.632 37.208 105.563C37.1751 105.628 37.1507 105.696 37.1352 105.767L37.1151 105.784ZM34.5765 104.566C34.094 104.802 33.8577 104.817 33.9935 104.368C34.6645 103.086 34.3377 96.9321 35.333 97.4119C36.1825 98.178 39.5454 99.002 39.3544 100.062C38.0449 101.825 36.6551 103.536 34.5966 104.548L34.5765 104.566ZM42.0262 112.604C42.0988 112.633 42.1665 112.673 42.2273 112.722C42.1735 112.67 42.1125 112.626 42.0462 112.592L42.0262 112.604ZM42.3354 112.823C42.4504 112.964 42.5359 113.127 42.5867 113.303C42.5427 113.124 42.4632 112.957 42.3529 112.81L42.3354 112.823ZM44.6452 124.958C44.6457 124.928 44.6498 124.899 44.6577 124.87C44.6575 124.896 44.6601 124.921 44.6653 124.946L44.6452 124.958ZM44.615 119.447C44.5999 119.834 44.5898 120.221 44.5898 120.607C44.615 120.208 44.615 119.821 44.6351 119.434L44.615 119.447ZM58.2526 97.6455C57.2045 100.999 58.8458 113.36 54.4599 113.25C52.3688 112.775 41.3903 111.876 41.8654 109.457C42.5364 103.157 43.2829 96.8969 43.7101 90.5818C43.7428 90.1648 43.5819 89.6574 44.3184 90.2276C46.4673 91.9006 48.9356 93.051 51.3358 94.3045C53.4496 95.3997 56.722 95.0933 53.1504 92.928C51.0945 91.6519 49.0301 90.3876 46.9574 89.1349C40.9906 85.9221 50.7276 80.5289 41.6442 82.5334C40.8751 82.644 40.3875 82.5335 40.7168 81.5437C41.0938 80.8153 43.3558 73.9023 43.8082 75.9068C48.3851 83.2066 55.0531 89.7503 58.2727 97.6329L58.2526 97.6455ZM58.9765 93.4103C55.1713 87.2108 50.6949 81.4658 46.5151 75.525C45.5525 74.1685 45.5952 74.1711 47.1586 73.8571C50.7024 73.6436 54.0854 70.9758 57.5765 71.8801C59.1825 72.5985 62.2439 72.2519 62.4097 74.5328C63.9404 77.6225 66.22 71.5888 64.6718 70.2624C64.2244 69.5088 62.9125 69.652 62.9979 70.6417C62.9979 71.0638 62.9527 71.3954 62.3696 71.109C57.3428 68.8306 51.7479 68.7025 46.5075 67.135C45.7711 66.9893 45.5902 66.6326 45.6129 65.9293C45.8642 58.4913 45.8792 51.0508 46.3166 43.6179C47.4174 30.8671 63.0658 34.6 62.5104 30.101C62.4802 29.4655 62.3092 28.9179 63.3472 29.4831C66.6674 31.4073 69.5503 29.9855 71.8927 27.3404C71.9078 29.2243 70.983 32.2914 73.7477 32.3969C79.6617 33.1254 85.5481 35.9137 87.8227 41.7189C87.7001 41.4022 87.5076 41.1171 87.2596 40.8849C88.3882 48.1847 87.6191 55.6679 87.8503 63.0355C87.9421 62.7284 88.0126 62.4153 88.0614 62.0985C87.4934 64.5402 88.1997 67.1225 87.609 69.5691C83.7183 73.7943 78.3095 76.0173 73.5341 79.0393C68.2559 83.1187 63.7318 88.3185 59.6903 93.6313C59.2655 94.3121 59.1374 93.6288 58.9967 93.3977L58.9765 93.4103ZM87.9307 42.0304C87.9307 42.0178 87.9307 42.0052 87.9307 41.9927C87.9307 41.9801 87.9483 42.0053 87.9508 42.0178L87.9307 42.0304ZM86.2593 112.521C78.7066 113.622 71.0257 113.865 63.3875 113.752C56.7446 113.732 60.9671 102.448 60.4846 98.1981C62.2867 91.7599 68.6455 87.4996 72.9309 82.6238C77.7717 78.5871 84.2159 76.8287 88.5591 72.0736C89.1572 71.4355 89.8485 70.8804 90.2104 70.0414C90.2959 69.8455 90.1853 69.4486 90.4994 69.4812C91.271 70.0464 91.4419 71.3049 91.1931 72.2218C91.4444 73.1135 83.0272 87.9744 82.4868 85.6608C71.0559 76.9016 77.1533 89.1349 73.9689 89.9589C71.2745 91.5313 64.3174 93.1239 63.3472 95.882C66.4211 96.716 72.2045 92.8677 75.5699 91.9609C79.2722 91.1093 76.0223 84.8269 78.0833 85.4951C80.5464 86.1055 83.1327 91.3153 85.342 87.7081C86.3322 86.7711 91.834 75.0804 92.3116 77.3312C94.7244 80.6796 100.048 91.0315 98.2281 94.4729C94.2444 96.2312 90.1073 97.236 85.7214 97.0501C83.9495 96.7713 85.1434 93.1314 84.1807 91.7348C81.9916 87.791 82.449 96.7587 82.5948 97.8866C82.723 99.6676 84.9549 99.645 86.3096 99.7229C86.1287 103.918 86.0306 108.053 86.3473 112.521H86.2593ZM86.3498 112.521C86.4981 112.357 86.579 112.142 86.5761 111.921C86.5814 112.136 86.5081 112.345 86.3699 112.509L86.3498 112.521ZM90.1927 119.663C87.1063 113.792 89.1548 106.573 88.5038 100.165C88.4737 98.7633 93.8171 99.1727 95.1819 98.2207C95.9937 97.9519 96.0038 98.4518 96.0063 98.9743C95.4358 102.991 98.9042 125.903 90.2129 119.65L90.1927 119.663ZM97.1172 119.387C97.1698 119.329 97.2298 119.278 97.2957 119.236C97.2402 119.276 97.1896 119.322 97.1448 119.374L97.1172 119.387ZM97.4087 119.173C97.4938 119.134 97.5822 119.103 97.6727 119.08C97.5894 119.1 97.5078 119.127 97.4288 119.161L97.4087 119.173ZM99.344 96.1232C99.4491 96.0483 99.562 95.9852 99.6808 95.9348C99.5695 95.9825 99.4635 96.0414 99.3642 96.1107L99.344 96.1232Z" fill="#1D2831"/>
<path d="M38.9046 79.4176C38.9167 79.4176 38.9167 79.4006 38.9191 79.3909L38.9046 79.4176Z" fill="#1D2831"/>
<path d="M69.0452 26.6614C69.0452 26.6614 69.0622 26.6614 69.0622 26.642L69.0452 26.6614Z" fill="#1D2831"/>
<path d="M68.7837 26.9127C68.7837 26.9127 68.8005 26.9127 68.8005 26.8983L68.7837 26.9127Z" fill="#1D2831"/>
<path d="M70.1887 57.808L70.2287 57.848C70.2162 57.8356 70.2037 57.8205 70.1887 57.808Z" fill="#1D2831"/>
<path d="M70.2239 63.9499C74.5947 64.7035 78.498 62.729 78.2215 57.7754C78.1888 57.16 77.9451 56.3084 78.6237 55.801C79.2445 55.3388 79.5008 54.7962 79.2369 54.0677C77.6635 52.3872 73.8684 53.7135 71.6315 53.3141V53.0453C70.2114 53.0453 68.7888 53.0629 67.3587 53.0453C63.8626 52.9951 63.8625 52.9876 63.9756 56.5219C64.1063 60.2874 66.5544 63.3219 70.2239 63.9499ZM74.0569 56.9916C74.0569 57.057 74.0569 57.1248 74.0569 57.1901C74.0619 57.1248 74.0594 57.057 74.0569 56.9916ZM67.3108 54.9645C67.4139 54.9645 67.5195 54.9645 67.6226 54.9771C67.2829 54.9281 66.9363 54.9687 66.6172 55.0952C66.8357 55.0001 67.0727 54.9554 67.3108 54.9645ZM66.2728 55.3212C67.331 55.3714 68.3891 55.4142 69.4448 55.5247C69.4774 56.2431 69.3317 57.0093 69.9676 57.577C70.1205 57.7492 70.2888 57.9073 70.4703 58.0492L70.4979 58.0693L70.4803 58.0543C71.5787 58.7928 72.6242 58.75 73.6044 57.8256C73.7751 57.6639 73.9261 57.4827 74.0543 57.2856C74.5243 56.851 74.3057 56.2808 74.3459 55.7784C75.4694 55.683 76.6457 55.8362 77.7893 55.8362C78.0758 57.891 77.0905 59.5866 75.58 60.8601L75.6076 60.8375C75.4255 61.0953 75.1586 61.2811 74.8536 61.3625L74.8687 61.3499C74.6173 61.4755 74.3886 61.6162 74.1423 61.7343L74.0744 61.6463C73.3948 61.9689 72.6498 62.1297 71.8975 62.1162C71.1453 62.1027 70.4064 61.9153 69.7388 61.5685H69.7564C68.0523 61.0912 67.057 59.6142 66.0944 58.2552C66.2451 58.53 66.4414 58.7772 66.675 58.9862C66.2628 57.9161 65.637 56.3009 66.2728 55.3212ZM65.7349 56.9464C65.7385 57.2018 65.7775 57.4554 65.8507 57.7C65.7749 57.4558 65.7334 57.2021 65.7275 56.9464H65.7349Z" fill="#1D2831"/>
<path d="M58.5694 53.3015C56.6667 53.6783 45.5826 51.2744 47.3345 54.8087C47.0831 63.6006 58.7855 65.9895 60.0146 56.7078C59.3787 57.1976 59.0721 58.2853 58.3482 58.8806L58.3105 58.7877C58.3885 58.946 58.1345 59.0063 58.0415 59.1168L58.0641 59.0891L57.755 59.3403L57.7801 59.3127L57.476 59.5639L57.4937 59.5488C57.2826 59.7121 57.1593 60.0135 56.9683 60.1617C57.0714 60.0988 57.147 59.9992 57.1795 59.8829L56.6517 60.1919C56.6517 60.1919 56.6517 60.1919 56.6517 60.1743C56.4607 60.2371 56.2747 60.3301 56.0862 60.3778L55.1209 60.7294L55.1638 60.6993C54.3821 60.8571 53.573 60.8136 52.8128 60.5728C52.0525 60.332 51.3661 59.9018 50.8181 59.3227L50.8659 59.368C50.5542 58.9234 49.9309 58.5792 49.7399 58.112C49.7399 58.2878 49.8579 58.4084 50.0565 58.4888L49.7775 57.916L49.8027 57.8984C49.514 57.0518 49.4003 56.1553 49.4684 55.2634C49.9258 55.1704 50.3908 54.9544 50.8733 54.9368C50.4602 54.9831 50.0537 55.0767 49.6619 55.2157L52.3965 55.3413C52.2902 55.2669 52.1784 55.2005 52.0622 55.1428C52.7659 55.5196 52.4141 56.6651 53.2008 57.1373C54.3871 58.0014 56.1615 57.3282 56.6239 55.9265L56.6014 55.9466C56.8753 54.9544 59.072 55.7131 59.9592 55.482C60.5348 53.8366 60.4318 53.3995 58.5694 53.3015ZM56.5587 60.335C56.5911 60.2962 56.6182 60.2531 56.639 60.2069C56.6201 60.2546 56.5948 60.2994 56.5637 60.3401L56.5587 60.335ZM51.0493 54.9318C51.1636 54.9288 51.2778 54.9347 51.3911 54.9494C51.2793 54.9366 51.1668 54.9324 51.0544 54.9368L51.0493 54.9318ZM51.552 54.9745C51.6669 54.9975 51.7795 55.0303 51.8888 55.0725C51.7842 55.0328 51.6767 55.0017 51.5671 54.9796L51.552 54.9745Z" fill="#1D2831"/>
<path d="M68.5274 47.2402C71.0408 47.19 73.343 47.0644 75.3512 48.245C76.5828 49.0262 77.7615 47.0166 76.4948 46.3635C74.7178 45.0623 67.9895 43.427 67.4592 46.258C67.4868 46.9538 67.9367 47.2 68.5274 47.2402Z" fill="#1D2831"/>
<path d="M50.4309 48.1419C52.321 46.7453 56.3951 47.7953 57.4407 46.3258C57.7774 43.6128 48.1613 45.125 49.3099 47.637C49.5462 48.0791 49.9081 48.3831 50.4309 48.1419Z" fill="#1D2831"/>
<path d="M63.8048 99.7455C61.9449 99.5697 62.2541 101.969 62.239 103.202C62.807 105.631 65.6673 104.398 65.0037 102.082H65.0239C65.0741 101.054 65.0816 99.8309 63.8048 99.7455Z" fill="#1D2831"/>
<path d="M67.4038 22.859C66.6925 22.3817 66.0541 22.4721 65.4861 23.1102C64.2294 24.2657 65.7173 26.4988 67.2303 25.5769C65.4861 25.1298 65.4835 25.1298 65.4936 23.1076C66.1169 22.9569 66.7452 22.7761 67.4038 22.859Z" fill="#1D2831"/>
<path d="M57.4057 55.5146C57.0663 55.5146 56.6265 55.379 56.6114 55.9668H56.6239C56.5334 56.1426 56.4456 56.3209 56.3576 56.4968L56.1891 56.748L55.6689 57.2278L55.3497 57.3534L55.2743 57.3734C54.8495 57.5945 54.3896 57.5166 53.9397 57.5317L53.8994 57.479L53.8366 57.5041L53.2108 57.165C52.6554 56.6952 52.5196 56.0371 52.4065 55.3689L49.6719 55.2433C49.6451 55.2649 49.6138 55.2803 49.5804 55.2885C49.547 55.2968 49.5122 55.2977 49.4784 55.2911C49.4106 56.1828 49.5234 57.079 49.8101 57.9261L49.7876 57.9437L50.0665 58.5164C50.2349 58.7023 50.4058 58.8856 50.5692 59.0715L50.8683 59.3855L50.8205 59.3428L51.1347 59.6418L51.3534 59.8176L52.2004 60.4004C53.1402 60.7798 54.1671 60.8903 55.1662 60.7194L55.1235 60.7496L56.0886 60.3979L56.6416 60.1894L56.6039 60.2245L57.1618 59.898L57.476 59.5639L57.7625 59.3303L57.7374 59.3579L58.029 59.1268L58.323 58.8932L58.2979 58.7978L58.3355 58.8907L58.6296 58.5214C59.1371 58.0292 59.5256 57.4278 59.7656 56.763C59.8134 56.5118 59.8637 56.2606 59.9114 55.9918L59.9567 55.4895C59.1147 55.492 58.2602 55.492 57.4057 55.5146Z" fill="#F2F0E9"/>
<path d="M77.0981 102.237C77.0981 102.556 76.985 102.878 76.6382 102.865C76.1707 102.85 76.0651 102.423 76.0249 102.054C75.9897 101.727 76.1581 101.466 76.5401 101.524C76.7076 101.547 76.8595 101.635 76.9636 101.768C77.0678 101.901 77.1161 102.069 77.0981 102.237Z" fill="#F3C221"/>
<path d="M48.2594 101.233C48.7621 101.346 48.8601 101.75 48.9028 102.167C48.9405 102.509 48.7671 102.77 48.4002 102.669C48.1937 102.631 48.0041 102.529 47.8571 102.379C47.7101 102.229 47.6128 102.038 47.5783 101.83C47.5456 101.484 47.8824 101.283 48.2594 101.233Z" fill="#F3C221"/>
</svg>
