<svg width="130" height="130" viewBox="0 0 130 130" fill="none" xmlns="http://www.w3.org/2000/svg">
<path d="M129.06 0.753601H0.374512V129.367H129.06V0.753601Z" fill="#54B3A2"/>
<path opacity="0.3" d="M65.5967 124.091C88.2922 124.091 106.691 121.28 106.691 117.812C106.691 114.343 88.2922 111.532 65.5967 111.532C42.9011 111.532 24.5027 114.343 24.5027 117.812C24.5027 121.28 42.9011 124.091 65.5967 124.091Z" fill="#1D2831"/>
<path d="M86.3825 40.5508L86.0935 40.061L85.8974 39.7621C85.9043 39.7244 85.9017 39.6857 85.8898 39.6493C85.878 39.6129 85.8572 39.58 85.8296 39.5535L85.641 39.2571C85.4525 38.6869 85.2666 38.1192 85.078 37.5515C85.0954 37.4183 85.0859 37.2831 85.0501 37.1536C85.0143 37.0242 84.9528 36.9032 84.8694 36.7979L84.8267 36.2955C84.6771 35.124 84.7625 33.9345 85.078 32.7964C85.1007 32.6482 85.1258 32.4999 85.1509 32.3517C85.3973 31.8292 85.6486 31.3068 85.905 30.7843C86.3523 30.4728 86.8626 30.5682 87.3527 30.5682C91.3037 30.5682 95.2531 30.5682 99.2008 30.5682L99.1706 30.5356L99.4546 30.7868C99.5677 31.0556 99.6808 31.3243 99.7964 31.5931L99.8241 31.6961C100.862 34.2709 101.02 36.8783 100.126 39.5285C97.9642 44.7659 91.5475 45.7581 87.4733 41.857L87.1692 41.533L86.6112 40.802C86.5132 40.7241 86.4478 40.6387 86.3825 40.5508ZM92.0502 38.8201C93.9302 38.8201 95.3176 37.2475 95.2824 35.14C95.2472 33.0324 93.6135 31.2389 91.6883 31.2741C89.8284 31.3067 88.5717 32.8441 88.5892 35.0622C88.6068 37.2802 90.0194 38.8276 92.0502 38.8201Z" fill="#F9D756"/>
<path d="M58.974 112.155C58.9287 110.301 59.4766 108.831 60.6303 107.648C62.269 105.98 64.7422 106.05 66.0868 107.957C67.517 109.982 67.9795 112.325 67.1827 114.739C66.6122 116.47 64.7196 117.711 63.0331 117.653C61.3466 117.596 59.8813 116.345 59.2932 114.435C59.0382 113.703 58.9298 112.928 58.974 112.155ZM60.4569 112.185C60.4569 113.998 61.3064 114.948 62.9049 114.948C64.2119 114.948 65.2248 113.692 65.2398 112.084C65.2549 110.562 63.9279 109.118 62.5631 109.163C61.2964 109.198 60.4443 110.414 60.4569 112.185Z" fill="#214863"/>
<path d="M51.9492 84.7791C54.3545 84.234 55.8701 85.2815 56.5312 86.9017C56.7825 87.5172 57.0338 88.1351 57.3279 88.733C57.8155 89.7378 58.6122 90.3507 59.9494 90.4737C59.6553 93.3726 59.7609 96.2262 59.698 99.0873C58.841 99.5269 58.0367 99.3033 57.0967 99.2657C56.9836 93.8699 55.2317 89.1098 51.9492 84.7791Z" fill="#214863"/>
<path d="M80.5163 110.617C80.5305 110.849 80.5918 111.075 80.6964 111.281C80.801 111.488 80.9466 111.672 81.1245 111.82C82.341 112.245 83.7158 112.059 85.0806 112.024C88.0363 111.944 90.9921 111.831 93.9503 112.006C93.2541 113.187 91.9698 113.393 90.8463 113.619C85.3973 114.712 79.8653 114.393 74.3534 114.398C74.1449 114.424 73.9333 114.391 73.743 114.302C73.5526 114.213 73.3913 114.072 73.2777 113.895C74.5771 113.237 75.3412 111.856 76.9699 111.652C77.7957 111.548 78.5965 111.298 79.335 110.914L79.6542 110.663C79.7124 110.68 79.7744 110.68 79.8326 110.663L80.5163 110.617Z" fill="#214863"/>
<path d="M82.7079 99.4566C82.5772 98.9265 82.4566 98.4518 82.3535 98.0046C84.0651 96.1885 85.9074 95.1812 88.3856 96.3292C90.1274 97.138 90.6351 97.7359 90.5999 99.2506C89.8007 99.64 84.9498 99.7806 82.7079 99.4566Z" fill="#214863"/>
<path d="M94.1387 85.3267C92.696 85.2614 91.4695 84.5732 90.0168 84.7892C89.8232 83.5332 89.8911 82.3827 89.9338 81.1141C91.3061 80.9157 92.603 81.0212 93.9854 81.0941C94.2744 82.5711 94.1035 83.9225 94.1387 85.3267Z" fill="#214863"/>
<path d="M25.8249 59.2499C26.2019 60.0663 26.0335 60.7571 26.036 61.4328C24.998 61.8197 21.62 61.8473 20.7302 61.5007C20.2049 59.8955 20.6825 59.1394 22.291 59.1293C23.4522 59.1243 24.621 59.0063 25.8249 59.2499Z" fill="#214863"/>
<path d="M96.8883 114.775C94.5383 116.726 92.0802 118.223 88.8907 116.606C91.7183 116.674 94.194 115.247 96.8883 114.775Z" fill="#214863"/>
<path d="M66.0996 104.498L66.4364 102.843C67.4418 102.8 67.7233 103.423 67.9444 106.028L66.0996 104.498Z" fill="#214863"/>
<path d="M94.6664 28.5411L94.3925 28.4205H94.7091C94.7006 28.4625 94.6862 28.5031 94.6664 28.5411Z" fill="#214863"/>
<path d="M33.4655 67.7379C33.4505 67.8182 33.4328 67.8961 33.4178 67.989L33.365 67.7002L33.4655 67.7379Z" fill="#214863"/>
<path d="M29.1198 69.7123C29.2069 69.8208 29.2662 69.9489 29.2924 70.0855C29.3187 70.222 29.3112 70.363 29.2706 70.496C29.1825 70.388 29.1226 70.26 29.0963 70.1232C29.07 69.9864 29.0781 69.8452 29.1198 69.7123Z" fill="#214863"/>
<path d="M32.7667 54.8239C32.887 55.2599 32.8423 55.7249 32.6411 56.1301C32.5933 55.6854 32.5456 55.2408 32.7667 54.8239Z" fill="#214863"/>
<path d="M49.981 22.8129H50.0052C50.0052 22.8129 50.0052 22.7983 50.0052 22.7886L49.981 22.8129Z" fill="#299EC7"/>
<path d="M84.5727 67.1827C84.3214 65.7107 84.9045 64.633 86.0456 63.7212C88.843 61.4931 90.7632 58.632 92.045 55.2283L90.3963 54.8087L90.2253 54.8414C89.8508 54.8816 89.4713 54.9394 89.1421 54.6856L88.9762 54.4596C88.8329 54.6832 88.6695 54.6304 88.4961 54.4972L87.9457 54.55L87.6164 54.5274C85.6309 54.3365 83.6578 54.5575 81.6823 54.6932C78.4979 55.3815 75.5446 56.5269 73.0438 58.7249C72.0384 59.6192 71.2115 59.2097 70.8169 57.7201C71.6765 56.3988 72.9558 55.4844 74.3357 54.6756C74.3914 54.6189 74.4652 54.5833 74.5443 54.5751V54.6028C74.9645 54.2048 75.4862 53.9301 76.0523 53.809V53.8366C78.435 52.4576 81.1017 52.2038 83.7559 51.935C84.5426 51.8547 85.3443 51.9049 86.1386 51.8949H86.8926C89.3062 51.8639 91.7079 52.2374 93.9979 53.0001C94.7117 53.2362 95.418 53.4724 96.1871 53.3393L96.1594 53.3719L96.4409 53.1584L96.725 52.8821C97.5242 51.6813 96.9763 50.3701 97.0593 49.0915C97.0378 49.0582 97.0251 49.02 97.0224 48.9804C97.0198 48.9409 97.0273 48.9013 97.0442 48.8654C97.0266 48.5238 97.0115 48.1821 96.9964 47.838L96.9336 47.8556C95.9534 47.946 95.232 48.7775 94.2468 48.8202C92.2009 48.9056 90.2253 48.5313 88.466 47.4687C87.061 46.6172 86.033 45.3236 85.0201 44.0475C84.814 43.7963 84.4747 43.4496 84.897 43.0678C83.5272 41.0984 82.4263 39.021 82.3685 36.5366C82.2218 35.5426 82.2286 34.5319 82.3886 33.5399C82.3408 32.6582 82.7882 31.8819 82.9415 30.9399C82.567 30.2542 82.3333 29.483 83.12 28.8073C83.1412 28.7732 83.1703 28.7447 83.2049 28.7241C83.2394 28.7036 83.2784 28.6916 83.3185 28.6892V28.7244C83.9343 28.2974 84.6456 28.4054 85.3293 28.3727H85.6384L94.385 28.4104H94.7017C95.0511 27.9357 94.674 27.5262 94.5408 27.1268C93.9614 25.4266 93.2295 23.7821 92.3542 22.2134C89.6975 17.4406 86.1888 13.5948 80.8177 11.8188L80.0888 11.6204L79.5334 11.4546C77.6447 11.0853 75.7248 10.8993 73.8003 10.8994H73.2851C70.2134 11.1408 67.183 11.7583 64.262 12.7382L64.2796 12.7131C63.7458 13.0808 63.1497 13.3489 62.5202 13.5044C62.4627 13.5834 62.387 13.6475 62.2995 13.6912C62.212 13.7349 62.1154 13.757 62.0176 13.7556L62.0402 13.7104L61.7511 13.944L61.4822 14.1273C61.4174 14.18 61.337 14.2101 61.2535 14.2128L60.2733 14.7478C60.2219 14.8392 60.1453 14.9139 60.0526 14.9629C59.9599 15.0119 59.855 15.0332 59.7505 15.0241H59.7932L59.5142 15.2226C57.3175 16.677 55.2214 18.2696 53.1805 19.9325C53.1622 19.9654 53.1362 19.9934 53.1047 20.014C53.0731 20.0345 53.037 20.0471 52.9995 20.0506L52.9869 19.9953L52.708 20.2716L52.7331 20.2415L52.4516 20.5203L52.4793 20.4877L52.2003 20.769L52.2204 20.7338L51.9489 21.0353L50.4409 22.4922C50.3328 22.6605 50.2247 22.8313 49.991 22.8137C50.0086 23.0474 49.8301 23.1453 49.6693 23.2559L49.1666 23.7808V23.7557L48.8952 24.037L48.9253 24.012L48.6438 24.2933L48.6765 24.2632L48.3975 24.547V24.5068L48.1462 24.8987L48.0934 25.2328L48.6539 25.3282C49.2722 27.2172 48.1914 28.6817 47.5656 30.214C46.1341 33.6919 45.2989 37.386 45.0949 41.1411C44.7606 47.2603 46.3516 52.9675 48.6137 58.5441C49.3199 60.3024 50.451 61.8096 51.6524 63.2741C51.7301 63.3715 51.8225 63.4562 51.9263 63.5253C56.9355 66.6753 62.0025 69.4988 68.2633 69.2878C71.4553 69.1798 74.6473 69.3933 77.8142 68.7125C79.4824 68.3187 81.1163 67.7921 82.7003 67.1375C83.3638 66.8838 83.9595 66.6552 84.5727 67.1827ZM58.1821 17.1417C59.6902 16.0615 60.9192 15.9527 61.8693 16.8151C61.4571 19.1563 58.0992 21.8717 55.9678 21.5728C55.3194 19.9651 55.9201 18.7695 58.1821 17.1417ZM53.9621 22.2536C54.5654 22.2059 54.8745 22.442 55.1258 22.9293C54.9499 24.3084 53.7485 25.0142 53.0448 25.9613C52.0997 26.014 51.6347 25.6497 51.4488 24.8585C51.969 23.5196 53.0297 22.8766 53.9722 22.2536H53.9621ZM55.2364 58.0467C50.7425 55.8462 46.4823 50.5108 47.5756 44.1078C49.9081 49.83 52.4918 55.3212 58.6773 58.3782C57.2094 58.8957 56.1915 58.5089 55.2465 58.0467H55.2364ZM58.152 42.7237C57.9993 42.3351 57.9441 41.9151 57.9911 41.5003C56.8547 39.1898 56.4279 36.5948 56.7646 34.0423L56.8249 33.6981C56.9908 32.319 57.5211 31.0454 57.9584 29.7417C58.2324 28.9253 58.7527 28.4857 59.5846 28.4204C60.497 28.3551 61.4144 28.315 62.3317 28.32C67.3418 28.3468 72.3501 28.3828 77.3568 28.428C79.9506 28.4481 79.9983 28.4958 80.2245 31.0405C80.2396 31.2037 80.2723 31.367 80.2974 31.5303C80.3335 31.5947 80.3565 31.6655 80.3653 31.7388C80.4005 31.8418 80.4382 31.9423 80.4734 32.0453L80.6166 32.7787L80.6845 33.1656C81.0062 35.5093 80.9358 37.8152 80.0185 40.0408L79.8576 40.3172C79.7671 40.4905 79.6792 40.6664 79.5912 40.8422L79.6063 40.817L79.3323 41.3345C79.2368 41.4953 79.1413 41.6586 79.0483 41.8218L78.8296 42.3494C78.9503 43.8842 78.0756 45.0196 77.1783 46.0621C71.684 52.3847 61.1982 50.5359 58.162 42.7337L58.152 42.7237Z" fill="#299EC7"/>
<path d="M49.9887 92.0481C49.9875 92.0425 49.9875 92.0368 49.9887 92.0312V92.0481Z" fill="#299EC7"/>
<path d="M47.9379 111.707C47.9467 111.708 47.9557 111.708 47.9646 111.707C47.9646 111.707 47.9646 111.707 47.9646 111.69L47.9379 111.707Z" fill="#299EC7"/>
<path d="M45.1704 114.226H45.1873V114.212L45.1704 114.226Z" fill="#299EC7"/>
<path d="M45.4292 113.983H45.4492C45.4492 113.983 45.4492 113.963 45.4492 113.948L45.4292 113.983Z" fill="#299EC7"/>
<path d="M30.1375 111.383C30.1217 111.382 30.1057 111.382 30.09 111.383H30.1375Z" fill="#299EC7"/>
<path d="M29.8808 110.888C29.8819 110.883 29.8819 110.878 29.8808 110.873C29.8808 110.873 29.8808 110.873 29.8638 110.861L29.8808 110.888Z" fill="#299EC7"/>
<path d="M29.6202 110.394V110.376L29.6027 110.361L29.6202 110.394Z" fill="#299EC7"/>
<path d="M29.3738 109.891V109.876L29.3512 109.861L29.3738 109.891Z" fill="#299EC7"/>
<path d="M54.0752 94.3447L53.9546 93.8248C53.9018 93.6615 53.8515 93.5007 53.7987 93.34C53.195 91.4269 52.3144 89.6124 51.1848 87.9542C49.8401 86.0401 48.4703 84.1034 45.9293 83.6161C44.2177 83.2896 42.6443 82.659 41.3172 81.5035C40.8321 81.0815 40.2767 81.0363 39.6735 81.0966C37.8749 81.2565 36.1562 81.9131 34.7095 82.9931C32.7993 84.4224 31.4195 86.2914 30.2156 88.311L29.8537 88.8435L29.8838 88.8184C29.8916 88.9192 29.8724 89.0202 29.8282 89.1111C29.7841 89.202 29.7165 89.2796 29.6325 89.3358C28.421 92.3125 27.5212 95.3646 27.295 98.595C27.295 98.9316 27.295 99.2707 27.2749 99.5998C27.2548 102.978 28.0289 106.206 29.1323 109.369L29.0996 109.349C29.1855 109.405 29.2553 109.482 29.3024 109.573C29.3496 109.665 29.3723 109.766 29.3686 109.869C29.4466 109.927 29.5099 110.003 29.5536 110.09C29.5972 110.177 29.6199 110.274 29.6199 110.371C29.7006 110.427 29.7659 110.502 29.8098 110.59C29.8537 110.678 29.8749 110.775 29.8712 110.873C29.9548 110.927 30.0224 111.001 30.0666 111.09C30.1109 111.178 30.1303 111.277 30.1226 111.376C30.2684 111.396 30.3161 111.517 30.3563 111.645C30.9344 112.398 31.4798 113.197 32.1006 113.921C35.828 118.246 43.6848 120.155 49.2746 114.689C50.2649 113.72 50.9435 112.521 51.8533 111.501C51.8568 111.385 51.885 111.27 51.9361 111.166C51.9873 111.061 52.0602 110.968 52.1499 110.894C52.1826 110.753 52.2128 110.612 52.4013 110.607H52.346C53.7007 107.462 54.7237 104.242 54.7689 100.765C54.796 98.6051 54.5631 96.4494 54.0752 94.3447ZM51.5769 101.85C51.4361 103.609 51.2753 105.405 50.4458 107.03L50.481 107.083L50.4433 107.133C50.4496 107.231 50.4337 107.329 50.3967 107.419C50.3597 107.51 50.3026 107.59 50.2297 107.656C50.0864 108.213 49.9784 108.786 49.5033 109.188C49.5238 109.288 49.5101 109.391 49.4646 109.483C49.419 109.574 49.3441 109.647 49.252 109.69C49.2711 109.79 49.2569 109.893 49.2115 109.984C49.166 110.075 49.0919 110.148 49.0006 110.193C49.0116 110.294 48.9912 110.397 48.9422 110.487C48.8933 110.577 48.8181 110.649 48.7267 110.695C48.7016 110.828 48.6513 110.946 48.503 110.946C48.5131 111.049 48.4912 111.152 48.4403 111.242C48.3895 111.332 48.3122 111.404 48.219 111.449C48.2115 111.513 48.1826 111.572 48.137 111.618C48.0914 111.664 48.0317 111.692 47.9676 111.7C47.9526 111.861 47.8772 111.951 47.6987 111.966L47.7666 111.991C47.7681 112.027 47.7591 112.062 47.7407 112.092C47.7224 112.123 47.6956 112.147 47.6635 112.162C47.243 112.805 46.6673 113.332 45.9896 113.694C45.9346 113.787 45.8555 113.862 45.7607 113.913C45.666 113.964 45.5592 113.988 45.4517 113.983C45.4517 114.147 45.3261 114.194 45.2004 114.222C45.1441 114.308 45.0661 114.378 44.9744 114.424C44.8826 114.47 44.7803 114.491 44.6776 114.486L44.7078 114.461L44.18 114.785L43.896 114.895C41.6892 115.794 39.5126 115.684 37.3612 114.694L36.8585 114.463L36.3407 114.182C33.1537 112.27 31.3718 109.349 30.3614 105.872C28.9413 101.011 28.9639 96.2187 31.05 91.5263H31.0174C31.0202 91.2508 31.128 90.9866 31.319 90.7878L31.5703 90.2854L31.8367 89.783C33.5961 86.6957 35.7878 84.1034 39.6584 83.9301C42.9987 83.7794 45.5724 85.4549 47.6359 87.9241C48.493 88.954 49.4882 89.9588 49.6943 91.3982C49.8111 91.444 49.9065 91.5317 49.9618 91.6442C50.0172 91.7567 50.0285 91.8857 49.9935 92.0061C50.3981 92.3301 50.4685 92.7948 50.4961 93.2621H50.4534C50.7877 93.4731 50.7449 93.8172 50.76 94.1387L50.6922 94.1513C51.7905 96.6507 51.788 99.2556 51.5769 101.85Z" fill="#299EC7"/>
<path d="M48.4504 110.959C48.4654 110.959 48.4754 110.959 48.4904 110.959V110.944L48.4504 110.959Z" fill="#299EC7"/>
<path d="M104.522 110.16C104.495 110.143 104.473 110.119 104.459 110.09C104.446 110.061 104.44 110.029 104.444 109.997C103.793 109.6 103.071 109.685 102.365 109.693L81.0617 109.944L81.0013 109.921L80.5162 110.612C80.5305 110.844 80.5918 111.07 80.6964 111.276C80.8009 111.483 80.9466 111.667 81.1245 111.815C82.341 112.24 83.7158 112.054 85.0806 112.019C88.0363 111.939 90.9921 111.826 93.9503 112.001H94.649L94.9355 111.981L99.9623 111.961C100.037 111.935 100.119 111.935 100.194 111.961H100.719L104.215 111.888L104.172 111.863C104.61 111.356 104.791 110.806 104.522 110.16Z" fill="#299EC7"/>
<path d="M30.0497 62.1814C30.0822 62.1961 30.1099 62.2198 30.1294 62.2495C30.149 62.2793 30.1597 62.3141 30.1604 62.3497L30.1226 62.3849C30.9345 63.5329 30.751 64.9119 31.0199 66.188L31.0652 66.6904C31.4288 69.4351 31.7924 72.1791 32.156 74.9221C32.1811 75.0352 32.2037 75.1457 32.2289 75.2562L32.4551 77.424C32.4702 77.5371 32.4852 77.6527 32.5028 77.7682C32.6302 78.9254 32.7592 80.0825 32.8899 81.2397L34.8453 79.9587C34.5186 77.1553 34.1994 74.4323 33.8827 71.6967C33.8123 71.119 33.7419 70.5387 33.6741 69.961C33.6741 69.868 33.6514 69.7751 33.6414 69.6821C33.566 69.1119 33.4931 68.5392 33.4177 67.9665L33.3649 67.6776C33.3649 67.5118 33.3649 67.346 33.3649 67.1752C33.1639 65.6814 32.9619 64.1868 32.7592 62.6913H32.7969C32.4149 62.3547 32.3998 61.8699 32.2766 61.4354L32.3068 61.4579L32.0328 60.9279V60.9681L31.8242 60.6692C30.854 59.5313 29.6476 59.0616 28.1798 59.3128C27.7701 60.3803 27.7852 60.5134 28.3959 61.5308C28.9137 61.8146 29.6903 61.4755 30.0497 62.1814Z" fill="#299EC7"/>
<path d="M73.3732 110.436C72.8554 107.487 72.3904 104.531 71.6465 101.627C71.1614 99.9841 70.5858 98.4116 68.7661 97.7635C68.0121 97.6756 67.2807 97.4696 66.5292 97.7233L66.3256 97.8615C66.3011 97.9395 66.2718 98.0158 66.2377 98.0901V98.8587C66.3416 99.2707 66.4463 99.6827 66.5518 100.095C68.5626 100.037 68.8792 100.23 69.4925 101.876C70.3169 105.023 70.9854 108.201 71.556 111.404C71.6565 111.567 71.7546 111.73 71.8526 111.906V111.836L72.305 111.944L73.0138 111.916L73.3053 111.665C73.4654 111.275 73.4893 110.842 73.3732 110.436Z" fill="#299EC7"/>
<path d="M64.0307 89.258C64.0477 89.1561 64.0279 89.0514 63.975 88.9627C63.9221 88.8739 63.8394 88.8068 63.7417 88.7731L62.7816 88.8912V88.8586L62.0074 89.3183C62.0527 93.7192 62.1005 98.1202 62.1507 102.521C62.1507 102.976 62.1206 103.443 62.3744 103.858C62.8771 103.976 63.4049 104.292 63.9151 103.805C64.1489 103.448 64.1237 103.014 64.1212 102.612C64.1061 98.1604 64.0659 93.7092 64.0307 89.258Z" fill="#299EC7"/>
<path d="M87.3225 82.2496C87.2739 81.434 87.2245 80.6176 87.1743 79.8004C86.7998 78.3686 86.8349 76.8388 86.1387 75.4823C86.2041 75.108 86.2317 74.7438 85.8874 74.4775L85.8195 73.5079L85.7442 73.2165L85.5858 72.4981C85.5355 72.2946 85.4828 72.0911 85.4325 71.8877C85.337 71.6616 85.4827 71.325 85.1359 71.2094C85.342 70.8728 85.1083 70.5614 85.0806 70.2373C85.0404 70.0565 85.0002 69.8756 84.9575 69.6922C84.8385 69.0324 84.7187 68.3726 84.598 67.7128C84.598 67.537 84.5704 67.3611 84.5553 67.1853C83.9546 66.6577 83.3589 66.8863 82.718 67.1375C81.134 67.7921 79.5001 68.3188 77.832 68.7126C74.6752 69.3933 71.4832 69.1798 68.2811 69.2878C62.0127 69.4988 56.9457 66.6753 51.9441 63.5253C51.8403 63.4562 51.7479 63.3715 51.6701 63.2741C50.4687 61.8172 49.3377 60.2949 48.6314 58.5441C46.3845 52.9675 44.7859 47.2603 45.1127 41.1411C45.3167 37.386 46.1519 33.692 47.5833 30.2141C48.2092 28.6817 49.2899 27.2173 48.6717 25.3283L48.1112 25.2328H48.1438L47.7543 25.484C47.7176 25.4907 47.6849 25.511 47.6625 25.5408C47.6402 25.5706 47.6298 25.6077 47.6336 25.6448L47.3823 25.9864L47.1309 26.2376C44.1738 29.7555 41.6818 33.6391 39.7164 37.7927C37.0789 43.2135 35.6063 49.1263 35.3934 55.1504C35.3746 55.2229 35.3746 55.299 35.3934 55.3714C35.3934 55.8035 35.3783 56.2331 35.3683 56.6651C35.264 58.2409 35.264 59.8219 35.3683 61.3977C35.3683 61.6489 35.3859 61.9227 35.3959 62.1839C35.3745 62.2595 35.3745 62.3395 35.3959 62.415C35.3708 62.7994 35.3029 63.1862 35.4939 63.5504C35.5392 64.3367 35.5869 65.123 35.6322 65.9067C35.6214 65.9391 35.6163 65.973 35.6171 66.0072C35.6357 66.0717 35.6592 66.1346 35.6875 66.1956L35.8684 67.6651C36.258 71.4129 36.6476 75.1633 37.0422 78.9865L38.4773 78.6574L37.6328 76.4745C37.6052 76.3163 37.5801 76.1555 37.5524 75.9973L37.5775 76.0099C37.2835 75.834 37.3262 75.5075 37.2533 75.2563C37.2106 75.0804 37.1679 74.9046 37.1276 74.7262C36.6073 72.283 36.8549 69.7388 37.8364 67.4415L37.8113 67.4541C37.8455 66.9855 38.0287 66.5401 38.3341 66.183L38.3165 66.2006C38.3099 66.1021 38.3297 66.0036 38.3739 65.9153C38.4181 65.827 38.485 65.752 38.5678 65.6982C38.5678 65.4847 38.5854 65.2762 38.8191 65.1958C38.8341 64.7718 39.0145 64.3706 39.3218 64.078C40.2744 62.1965 41.2069 60.31 42.7702 58.9435C44.4642 59.4232 44.7809 60.2472 43.9414 61.5685C42.6571 63.5781 41.2974 65.5399 40.4227 67.7706C39.564 69.8347 39.3238 72.1037 39.7315 74.3017C40.3699 77.6276 42.4963 79.7175 45.5274 80.9961L53.9121 81.8376C56.3827 81.9456 57.8706 83.2795 58.6196 85.5679C58.8936 86.4018 59.0871 87.3036 60.0623 87.9015C60.1377 87.4393 60.1905 87.1278 60.2408 86.8164C60.0322 84.9851 59.8437 83.1463 59.1801 81.3126C59.9165 81.4281 60.2031 81.8929 60.5449 82.2848L60.7259 82.5184L60.9521 82.8324C62.1635 83.9301 61.6709 85.9547 63.1085 87.0374C64.3904 83.9929 62.7692 79.9587 59.6778 78.5871L59.2128 78.5093V78.5269C58.9011 78.0772 58.3583 78.1601 57.9335 77.9717C55.6714 77.7205 53.3692 77.6652 51.1473 77.0021V77.0222L50.6447 76.6629L50.3933 76.5273L49.8906 76.2535L49.9057 76.2761L49.6544 76.0249C49.621 75.9671 49.5973 75.9043 49.584 75.839L49.1517 75.7612C49.156 75.7299 49.1536 75.6981 49.1446 75.6679C49.1356 75.6377 49.1202 75.6097 49.0995 75.5859C49.0788 75.5621 49.0532 75.543 49.0245 75.5299C48.9958 75.5168 48.9646 75.51 48.933 75.51C48.9358 75.4289 48.9204 75.3481 48.8878 75.2738L48.6742 75.2462L48.6289 75.0251L48.1614 74.7237L48.1916 74.7438C48.1966 74.7048 48.1924 74.6652 48.1793 74.6281C48.1662 74.591 48.1446 74.5575 48.1162 74.5303C47.4124 72.9879 46.7011 71.4456 47.6135 69.7349C48.2067 69.0065 48.8074 69.0241 49.4081 69.7349C50.0389 70.579 49.7323 71.5963 49.9309 72.5207L49.9082 72.5006C50.0088 72.6941 50.1068 72.8899 50.2073 73.0859C50.8844 73.8892 51.8 74.4559 52.8213 74.7036C54.1207 75.0653 55.4578 75.1382 56.7849 75.2914C58.7403 75.515 60.7108 75.7184 62.2339 77.188C62.4576 77.3362 62.6913 77.4718 62.7617 77.7607H62.724C62.8924 77.7607 62.9753 77.8386 62.9753 78.0119C63.0732 78.0062 63.1704 78.0309 63.2537 78.0826C63.3369 78.1343 63.4021 78.2105 63.4403 78.3007L63.7042 78.5721L64.2647 79.2854C64.3376 79.4286 64.4105 79.5718 64.4859 79.715C66.1975 82.1592 66.2101 84.9374 65.9939 87.8136H72.0261C73.5693 87.8362 75.0421 88.2607 76.515 88.6425V88.6124L77.0176 88.949L77.4097 89.1098L77.7893 89.361C77.8211 89.4177 77.8448 89.4785 77.8596 89.5418L78.2693 89.6197C78.2548 89.6973 78.271 89.7774 78.3146 89.8432C78.3954 89.8475 78.4748 89.8671 78.5483 89.901L79.5034 90.8656L79.8201 91.1168H79.7824L80.3077 91.888L80.4711 92.1216C80.554 92.2422 80.6017 92.413 80.8003 92.3728C80.6797 92.6893 80.8707 92.9003 81.0516 93.1264C81.0919 93.257 81.1095 93.4128 81.303 93.3776C81.1924 93.88 81.4865 94.2668 81.7102 94.6813C81.8888 94.6617 82.0609 94.6027 82.214 94.5084C82.367 94.4141 82.4971 94.287 82.5949 94.1362C82.691 94.1373 82.7855 94.1121 82.8683 94.0634C82.9512 94.0147 83.0191 93.9443 83.0649 93.8599L83.6053 93.4028L83.8968 93.1189L84.1079 92.9104L84.3945 92.6165L84.8494 92.0764C85.0228 91.8252 85.1988 91.6016 85.3722 91.3605L85.6989 91.0867L86.0734 90.5491L86.0457 90.5793C86.0421 90.4794 86.0631 90.3801 86.1069 90.2903C86.1508 90.2005 86.2161 90.1229 86.2971 90.0643C86.2933 89.9622 86.316 89.8608 86.3632 89.7701C86.4103 89.6794 86.4802 89.6025 86.566 89.5469L86.5233 89.5167C86.561 89.2932 86.6012 89.0696 86.6389 88.846H86.6113C86.9028 88.5697 86.8802 88.1778 86.9958 87.8412C87.5387 85.9773 87.4884 84.116 87.3225 82.2496ZM51.2001 76.9744C51.1189 76.9743 51.0386 76.9563 50.9652 76.9215C50.8917 76.8868 50.8269 76.8362 50.7754 76.7734C50.8265 76.8379 50.8914 76.8901 50.9653 76.9262C51.0393 76.9623 51.1203 76.9813 51.2026 76.982L51.2001 76.9744ZM74.4163 87.59C74.7003 87.6344 74.9791 87.7077 75.2482 87.8086C74.9797 87.7095 74.7018 87.638 74.4188 87.595L74.4163 87.59ZM76.5452 88.5622C76.6379 88.5572 76.7303 88.5781 76.8119 88.6224C76.8935 88.6667 76.9613 88.7329 77.0076 88.8134C76.9608 88.7342 76.8932 88.6694 76.8121 88.626C76.731 88.5826 76.6395 88.5622 76.5476 88.5672L76.5452 88.5622ZM86.7872 81.2372C86.7872 81.1895 86.7872 81.1418 86.7872 81.0941C86.7897 81.1368 86.7897 81.1945 86.7897 81.2423L86.7872 81.2372ZM86.6339 88.8159C86.6339 88.6752 86.6339 88.527 86.6339 88.3838C86.6339 88.532 86.6464 88.6727 86.6364 88.8209L86.6339 88.8159Z" fill="#127FB1"/>
<path d="M98.3713 92.1895C96.8406 88.8184 93.3822 86.761 89.8056 87.1378C89.4462 89.3836 88.5037 91.4534 87.2319 93.4379C91.4519 94.0659 92.9776 95.5078 93.3822 99.1125L93.4878 99.3812C93.6185 101.727 93.2364 104.028 92.8745 106.332L92.6232 107.138C92.6031 107.224 92.5804 107.312 92.5578 107.389C94.1212 107.389 95.6845 107.372 97.2478 107.389C97.7857 107.389 98.2683 107.389 98.2205 106.636H98.2054C98.9217 105.5 98.9594 104.164 99.3012 102.921C99.3289 102.654 99.359 102.386 99.3867 102.119C99.9245 99.65 99.6657 97.1782 99.3867 94.709C99.0474 93.88 98.7483 93.0159 98.3713 92.1895Z" fill="#127FB1"/>
<path d="M102.262 77.0423C100.468 76.2158 98.5499 75.7662 96.6498 75.2613C93.5357 74.4298 90.5799 73.3145 88.5793 70.5614C88.4946 70.4054 88.3693 70.2753 88.2166 70.1846C88.064 70.094 87.8897 70.0462 87.7122 70.0464C87.8378 70.7021 87.9635 71.3451 88.0867 71.9882C88.1369 72.3122 88.338 72.6212 88.1746 72.9628H88.1495C88.9588 74.6308 89.0769 76.467 89.464 78.238L89.6525 78.4088C91.716 78.5318 93.7971 78.5068 95.8304 78.964C96.308 79.072 96.793 79.1523 97.1826 79.4789L97.7305 79.7451C99.4522 80.7173 100.083 82.3651 100.523 84.1562C100.691 84.8394 100.576 85.7212 101.571 86.0603C102.154 85.6257 102.725 85.1736 102.644 84.3019C102.589 83.7191 102.519 83.1363 102.413 82.5611C102.29 81.8878 101.981 81.2372 102.189 80.4234C104.388 81.3327 104.019 83.895 105.472 85.3745C105.641 85.1229 105.783 84.8543 105.897 84.5731C106.522 81.9431 104.698 78.1651 102.262 77.0423Z" fill="#127FB1"/>
<path d="M88.4636 47.4763C90.223 48.5389 92.1884 48.9131 94.2444 48.8277C95.2296 48.785 95.951 47.9536 96.9312 47.8632C96.901 47.3608 97.0518 46.8106 96.705 46.2957C95.3679 46.5268 94.0609 46.9588 92.6836 46.778L92.3845 46.7553L91.4269 46.6473L91.1504 46.6172C88.5792 46.2982 86.654 44.8362 84.8996 43.0753C84.4774 43.4571 84.8167 43.7962 85.0228 44.055C86.0306 45.3285 87.0586 46.6222 88.4636 47.4763Z" fill="#127FB1"/>
<path d="M79.81 97.6429L79.5586 97.1079C79.056 94.1814 77.5705 91.9985 74.753 90.843C72.0235 90.122 69.2562 90.3406 66.489 90.4964L66.4387 90.5466C66.4387 91.049 66.4387 91.5514 66.4387 92.0538V92.5738C66.5795 93.2646 66.3709 93.9956 66.6725 94.6688L66.6875 95.0857L69.2512 95.2289C71.3373 95.8645 72.6393 97.2737 73.3304 99.3084C74.0165 101.454 74.5912 103.634 75.0521 105.84C75.3035 106.912 75.3336 108.047 75.8765 109.055L78.8096 107.776L79.7974 107.555C79.8111 107.489 79.8464 107.429 79.8979 107.384C80.1744 104.144 80.0487 100.893 79.81 97.6429Z" fill="#127FB1"/>
<path d="M86.332 90.0166L86.3119 90.0316V90.0492L86.332 90.0166Z" fill="#127FB1"/>
<path d="M79.981 107.598C79.986 107.563 79.9834 107.527 79.9735 107.492C79.9635 107.458 79.9463 107.427 79.9232 107.399C79.8717 107.444 79.8363 107.504 79.8226 107.57L79.981 107.598Z" fill="#127FB1"/>
<path d="M58.0012 41.5104C57.9543 41.9252 58.0095 42.3452 58.1621 42.7337C61.2033 50.5359 71.6841 52.3847 77.1985 46.0621C78.1084 45.0196 78.9579 43.8842 78.8498 42.3494C78.5582 42.7036 78.2617 43.0502 77.9777 43.4094C75.1501 47.0141 70.2917 48.5916 65.8681 47.4688C62.3745 46.5846 59.9014 44.4619 58.0012 41.5104Z" fill="#127FB1"/>
<path d="M47.5857 44.1078C46.4924 50.5033 50.7526 55.8462 55.2465 58.0467C56.1916 58.5089 57.2095 58.8957 58.6874 58.3783C52.5019 55.3212 49.9181 49.8301 47.5857 44.1078Z" fill="#127FB1"/>
<path d="M61.8791 16.8151C60.9341 15.951 59.7051 16.0599 58.192 17.1417C55.93 18.7695 55.3192 19.9651 55.9777 21.5728C58.099 21.8717 61.4669 19.1563 61.8791 16.8151Z" fill="#127FB1"/>
<path d="M53.0549 25.9613C53.7586 25.0143 54.96 24.3084 55.136 22.9294C54.8846 22.442 54.5755 22.2059 53.9723 22.2537C53.0297 22.8766 51.9615 23.5096 51.4589 24.8585C51.6474 25.6498 52.1098 26.0141 53.0549 25.9613Z" fill="#127FB1"/>
<path d="M90.2125 54.8414C89.8785 54.6715 89.4977 54.6167 89.1293 54.6857C89.461 54.9394 89.8506 54.8816 90.2125 54.8414Z" fill="#127FB1"/>
<path d="M32.2291 75.2662C32.1914 75.1966 32.1586 75.1245 32.1311 75.0502C32.1311 75.0176 32.1462 74.9724 32.1562 74.9322C32.1814 75.0452 32.204 75.1557 32.2291 75.2662Z" fill="#214863"/>
<path d="M32.5029 77.7782C32.4677 77.7044 32.4383 77.628 32.4149 77.5496C32.4149 77.517 32.4401 77.4718 32.4551 77.4341C32.4702 77.5471 32.4853 77.6626 32.5029 77.7782Z" fill="#214863"/>
<path d="M76.3792 41.3119L75.0522 42.8191L74.8008 43.0703L74.2981 43.525L72.9635 44.3062H72.8756L72.8077 44.364L72.4081 44.5674L72.0562 44.6453L71.7797 44.7759L70.9126 45.012C68.3888 45.5595 65.751 45.118 63.5433 43.7787L63.2618 43.5878L62.548 43.0452L62.5631 43.0653L62.2791 42.8141L61.7764 42.3117L61.2738 41.7842L61.2914 41.8042L60.756 41.0356L60.4644 40.5583L60.2734 40.2594L60.2935 40.277C58.8031 36.9712 58.6749 33.7307 60.5776 30.6184H77.455C78.7318 33.3339 78.6714 36.0493 77.837 38.8075L77.7842 38.8502L77.8043 38.918L77.6058 39.3048L77.2438 40.0308C77.1257 40.2042 77.0101 40.38 76.8919 40.5558C76.7738 40.7316 76.6758 40.8974 76.5703 41.0582L76.3792 41.3119ZM69.485 39.0938C71.556 39.0762 73.2149 37.2576 73.1847 35.0345C73.1545 32.8114 71.4078 31.0003 69.3719 31.0379C67.3361 31.0756 65.549 32.9521 65.5465 35.0571C65.5465 37.2325 67.3813 39.1089 69.4925 39.0938H69.485Z" fill="#F9D756"/>
<path d="M39.7088 94.3095C39.1509 94.6913 38.7638 94.9274 38.138 95.0028L34.4031 90.3531C35.6372 88.5068 37.0773 86.9645 39.6561 86.4747C39.3746 89.2278 40.1286 91.7649 39.7088 94.3095Z" fill="#214863"/>
<path d="M41.9182 87.0449C44.0445 87.7433 45.4847 88.9188 46.4875 90.7802C45.6556 92.3954 44.4266 93.674 43.3634 95.0003C43.1502 94.9974 42.94 94.9493 42.7468 94.8592C42.5536 94.7691 42.3817 94.6392 42.2424 94.4779C41.7096 92.094 41.9509 89.6599 41.9182 87.0449Z" fill="#214863"/>
<path d="M48.0357 93.3098C48.8182 95.09 49.1999 97.0203 49.1541 98.9642H44.7582C44.2128 97.8615 45.8842 94.9099 48.0357 93.3098Z" fill="#214863"/>
<path d="M63.0154 112.866C62.3167 112.2 62.5706 111.808 63.2894 111.446C64.0434 112.114 63.6463 112.479 63.0154 112.866Z" fill="#214863"/>
<path d="M80.8205 92.3226C80.8202 92.3282 80.8202 92.3339 80.8205 92.3396H80.84L80.8205 92.3226Z" fill="#1D2831"/>
<path d="M81.323 93.3274C81.3219 93.3321 81.3219 93.3371 81.323 93.3418H81.3399L81.323 93.3274Z" fill="#1D2831"/>
<path d="M65.8683 47.4763C70.2918 48.5991 75.1502 47.0216 77.9778 43.417C78.2618 43.0577 78.5584 42.7111 78.8499 42.3569L79.0686 41.8294C79.1616 41.6661 79.2571 41.5028 79.3526 41.3421L79.619 40.8397L79.8704 40.3373L80.0312 40.0609C80.9461 37.8353 81.019 35.5394 80.6973 33.1857L80.6294 32.7988L80.4862 32.0653C80.451 31.9623 80.4133 31.8618 80.3781 31.7588C80.3693 31.6856 80.3462 31.6148 80.3102 31.5504C80.2851 31.3871 80.2524 31.2238 80.2373 31.0605C80.0111 28.5159 79.9634 28.4682 77.3695 28.4481C72.3629 28.4096 67.3545 28.3736 62.3445 28.3401C61.4271 28.3401 60.5097 28.3752 59.5974 28.4405C58.7654 28.4983 58.2452 28.9429 57.9712 29.7618C57.5339 31.0656 57.0036 32.3391 56.8377 33.7182C56.8176 33.8338 56.7975 33.9468 56.7748 34.0624C56.4402 36.6151 56.8678 39.2098 58.0039 41.5204C59.9015 44.4619 62.3747 46.5845 65.8683 47.4763ZM79.6014 40.8447C79.5145 40.8926 79.4457 40.9675 79.4054 41.0582C79.4443 40.9647 79.5133 40.887 79.6014 40.8372V40.8447ZM60.8189 41.4199C60.861 41.5133 60.9231 41.5964 61.0008 41.6632C61.0786 41.7301 61.1701 41.7791 61.2688 41.8067C61.1693 41.7782 61.0774 41.7281 60.9996 41.6599C60.9218 41.5917 60.8601 41.5072 60.8189 41.4124V41.4199ZM61.2688 41.8093C61.2595 41.9457 61.3047 42.0803 61.3945 42.1835C61.3491 42.1315 61.3146 42.0709 61.293 42.0053C61.2714 41.9397 61.2632 41.8705 61.2688 41.8017V41.8093ZM62.6537 43.4395C62.6919 43.476 62.7372 43.5043 62.7868 43.5224C62.7366 43.502 62.6912 43.4712 62.6537 43.432V43.4395ZM69.3167 45.6124C69.7475 45.5819 70.1757 45.5224 70.5985 45.4341C70.1755 45.5198 69.7473 45.5769 69.3167 45.6049V45.6124ZM71.9934 44.8463C72.0085 44.786 72.0211 44.7257 72.0336 44.6654L71.9934 44.8463ZM73.9237 44.163C74.0244 44.1022 74.1068 44.0154 74.1625 43.9118C74.1058 44.0127 74.0234 44.0967 73.9237 44.1555V44.163ZM78.7795 36.303C78.7418 36.6396 78.6866 36.9788 78.6162 37.3204C78.5458 37.662 78.4579 38.0036 78.3649 38.3478C78.4704 38.0036 78.5584 37.662 78.6162 37.3204C78.674 36.9788 78.7419 36.6321 78.7921 36.2955L78.7795 36.303ZM60.5726 30.6285H77.45C78.7268 33.3439 78.6665 36.0594 77.832 38.8175L77.7792 38.8602L77.7994 38.9255L77.6008 39.3149L77.2388 40.0408C77.1207 40.2141 77.0051 40.39 76.887 40.5658C76.7689 40.7417 76.6708 40.9075 76.5653 41.0682L76.3793 41.3194L75.0522 42.8266L74.8009 43.0778L74.2982 43.535L72.9636 44.3162H72.8756L72.8077 44.374L72.4081 44.5775L72.0562 44.6553L71.7798 44.786L70.9127 45.0221C68.3888 45.5695 65.7511 45.1281 63.5434 43.7887L63.2619 43.5978L62.5481 43.0552L62.2792 42.804L61.7765 42.3016L61.2914 41.7992L60.7586 41.0456L60.467 40.5684L60.286 40.287C58.7981 36.9737 58.6699 33.7333 60.5726 30.6209V30.6285Z" fill="#1D2831"/>
<path d="M50.7677 94.1764C50.7526 93.8549 50.7953 93.5107 50.461 93.2997H50.5037C50.466 92.8225 50.3957 92.3603 50.0011 92.0437C50.0362 91.9237 50.0253 91.7949 49.9705 91.6825C49.9156 91.57 49.8208 91.4821 49.7045 91.4359C49.4959 89.9965 48.5006 88.9917 47.6435 87.9618C45.58 85.4925 43.0063 83.8171 39.666 83.9678C35.7954 84.1411 33.6037 86.731 31.8443 89.8207L31.5779 90.3231L31.3266 90.8255C31.1357 91.0243 31.0278 91.2884 31.025 91.564H31.0576C28.9715 96.2563 28.9489 101.049 30.369 105.91C31.3743 109.386 33.1614 112.308 36.3483 114.219L36.8661 114.501L37.3688 114.732C39.5177 115.722 41.6943 115.832 43.9036 114.933L44.1876 114.822L44.6903 114.513C44.7929 114.519 44.8953 114.498 44.987 114.452C45.0788 114.405 45.1568 114.336 45.2131 114.25C45.3488 114.222 45.4644 114.177 45.4644 114.011C45.5718 114.016 45.6787 113.992 45.7734 113.941C45.8681 113.89 45.9473 113.814 46.0023 113.722C46.68 113.36 47.2556 112.833 47.6762 112.19C47.7084 112.175 47.7353 112.151 47.7533 112.12C47.7713 112.09 47.7794 112.054 47.7767 112.019L47.7114 111.994C47.8898 111.994 47.9627 111.888 47.9803 111.728C48.0446 111.721 48.1045 111.692 48.1502 111.646C48.1959 111.6 48.2246 111.541 48.2317 111.476C48.3249 111.432 48.4022 111.36 48.453 111.27C48.5038 111.18 48.5257 111.077 48.5157 110.974C48.664 110.959 48.7142 110.851 48.7394 110.723C48.8308 110.677 48.9059 110.604 48.9549 110.514C49.0038 110.425 49.0242 110.322 49.0133 110.22C49.1046 110.176 49.1787 110.103 49.2241 110.012C49.2695 109.921 49.2838 109.818 49.2647 109.718C49.3568 109.675 49.4316 109.601 49.4772 109.51C49.5228 109.419 49.5365 109.315 49.516 109.216C49.986 108.814 50.0991 108.241 50.2424 107.683C50.3152 107.618 50.3723 107.537 50.4093 107.447C50.4463 107.356 50.4623 107.258 50.456 107.161L50.4937 107.111L50.4585 107.058C51.2879 105.433 51.4488 103.642 51.5895 101.878C51.8007 99.2833 51.8032 96.6784 50.7124 94.2166L50.7677 94.1764ZM48.0356 93.2997C48.8181 95.08 49.1999 97.0103 49.1541 98.9542H44.7581C44.2127 97.8615 45.8841 94.9099 48.0356 93.3098V93.2997ZM41.918 87.0349C44.0444 87.7332 45.4845 88.9088 46.4873 90.7702C45.6554 92.3854 44.4264 93.664 43.3632 94.9903C43.15 94.9873 42.9399 94.9393 42.7467 94.8492C42.5534 94.7592 42.3815 94.6292 42.2422 94.4678C41.7094 92.094 41.9507 89.6599 41.918 87.0449V87.0349ZM45.007 104.265C44.8228 104.19 44.6686 104.056 44.5686 103.884C44.4685 103.712 44.4282 103.512 44.454 103.315C44.4259 103.514 44.465 103.716 44.5652 103.89C44.6654 104.064 44.8209 104.199 45.007 104.275V104.265ZM39.656 86.4647C39.3745 89.2278 40.1285 91.7549 39.7087 94.2995C39.1508 94.6813 38.7637 94.9174 38.1379 94.9928L34.403 90.3431C35.6371 88.5069 37.0697 86.9646 39.656 86.4747V86.4647ZM38.7536 102.054C38.6627 101.903 38.6347 101.723 38.6757 101.552C38.6541 101.638 38.6498 101.728 38.6632 101.816C38.6765 101.904 38.7073 101.988 38.7536 102.064V102.054ZM36.3408 100.863C36.5453 100.978 36.7182 101.141 36.844 101.339C36.9699 101.537 37.0448 101.763 37.0621 101.996C37.0428 101.765 36.9669 101.542 36.8412 101.346C36.7154 101.151 36.5436 100.989 36.3408 100.876V100.863ZM32.4375 94.1086H32.4023C32.7316 93.7745 32.7944 93.3324 32.905 92.9054C33.2519 92.403 33.3876 92.8049 33.5811 93.0511C34.4985 94.2342 35.4259 95.4123 36.3458 96.5904L36.5972 96.8793C36.5952 96.9538 36.6212 97.0264 36.6701 97.0828C36.5796 97.5048 36.4916 97.9243 36.4011 98.3388L36.376 98.3815H31.8519C31.6533 96.927 32.2239 95.548 32.4375 94.1212V94.1086ZM34.0209 106.568L33.7922 106.859L33.5886 107.126L33.2242 107.01V106.998C32.4224 105.066 32.0253 103.044 31.8117 100.861H36.3358V101.331C36.4941 101.805 36.8384 102.227 36.7505 102.775L36.2202 103.503L36.0417 103.81L35.8306 104.101L35.3002 104.827C35.2317 104.842 35.1651 104.865 35.1017 104.895L34.8856 105.176L34.9082 105.154L34.775 105.561L34.5236 105.726C34.5274 105.737 34.5285 105.748 34.5268 105.759C34.5251 105.77 34.5207 105.781 34.514 105.79C34.5072 105.799 34.4984 105.806 34.4883 105.811C34.4781 105.815 34.4669 105.818 34.4558 105.817L34.1315 106.191L33.9832 106.571L34.0209 106.568ZM35.8632 104.126C35.8632 104.491 35.8205 104.837 35.338 104.867C35.8205 104.837 35.8532 104.491 35.8632 104.126ZM34.2522 106.49C34.4294 106.419 34.5799 106.294 34.6827 106.134C34.7854 105.973 34.8353 105.784 34.8252 105.593C34.8391 105.787 34.791 105.98 34.688 106.144C34.585 106.308 34.4324 106.436 34.2522 106.508V106.49ZM38.3038 112.456L38.3364 112.481L37.7935 112.215L37.8237 112.24L37.321 111.939L37.3462 111.959L37.0094 111.76L37.0244 111.783L36.5821 111.409L36.3483 111.213L36.0492 110.924L36.0719 110.951L35.5441 110.414L35.1067 109.911C34.7574 109.66 34.6619 109.386 35.0841 109.108H35.069C35.3204 108.764 35.5717 108.421 35.8231 108.078L35.8029 108.098L36.1246 107.628L37.6327 105.618L37.6654 105.548C37.6594 105.533 37.6569 105.518 37.6582 105.502C37.6596 105.486 37.6646 105.471 37.6729 105.457C37.6813 105.444 37.6927 105.433 37.7062 105.424C37.7197 105.416 37.735 105.411 37.7508 105.41L38.075 105.038H38.0625C38.0804 104.973 38.0872 104.905 38.0826 104.837L38.2183 104.621H38.6255C38.8972 104.895 39.2605 105.06 39.6459 105.083V105.151C39.6995 105.134 39.7555 105.125 39.8118 105.126C39.9425 107.54 39.9199 109.954 39.8269 112.368C39.8545 112.454 39.8822 112.541 39.9073 112.619C39.284 113.23 38.8291 112.629 38.3038 112.469V112.456ZM39.48 102.627C39.5069 102.676 39.5454 102.718 39.5923 102.749C39.6392 102.78 39.693 102.8 39.749 102.805C39.6942 102.801 39.6411 102.784 39.5943 102.755C39.5475 102.726 39.5083 102.686 39.48 102.639V102.627ZM39.9173 102.813C40.0539 103.027 40.2347 103.209 40.4477 103.348C40.236 103.213 40.0553 103.035 39.9173 102.825V102.813ZM41.5812 102.762C41.0364 102.923 40.4584 102.935 39.9073 102.798L39.4675 102.514C39.4583 102.457 39.4369 102.403 39.4046 102.355L39.1533 102.29L38.6833 101.559C38.3113 100.326 38.2334 99.0899 38.6833 97.854L38.6255 97.8765L38.907 97.54C39.7867 96.6507 40.7292 96.593 41.727 97.339C41.9111 97.3556 42.0813 97.444 42.2007 97.585C42.3202 97.726 42.3793 97.9084 42.3654 98.0926C43.3557 99.547 43.1998 101.539 42.0387 102.315L41.8577 102.566L41.551 102.8L41.5712 102.767L41.5812 102.762ZM44.9567 114.209C45.006 114.197 45.0567 114.191 45.1075 114.192C45.0561 114.195 45.0054 114.205 44.9567 114.222V114.209ZM45.4418 113.946C45.4859 113.864 45.5528 113.796 45.6344 113.752C45.7161 113.707 45.809 113.687 45.9017 113.694C45.8076 113.688 45.7138 113.71 45.632 113.757C45.5502 113.804 45.4841 113.874 45.4418 113.958V113.946ZM46.1631 110.163L45.9671 110.414L45.678 110.73L45.2658 111.177L44.9265 111.484L44.7003 111.67L44.2379 112.032C43.9488 112.21 43.6598 112.388 43.3683 112.564L42.9033 112.72L42.6268 112.858C42.5421 112.852 42.458 112.877 42.3905 112.928C42.3212 112.908 42.2491 112.899 42.1769 112.901C42.1769 110.312 42.1769 107.723 42.1769 105.134C42.1105 105.142 42.0454 105.159 41.9834 105.184C42.0455 105.159 42.1105 105.142 42.1769 105.134C42.2581 105.129 42.3362 105.101 42.4006 105.051C42.4006 105.013 42.4207 104.975 42.4333 104.94C42.4333 104.975 42.4106 105.013 42.4006 105.051L42.9033 105.119L43.1973 105.593L43.4261 105.87L45.8766 108.912C45.9096 108.931 45.9376 108.958 45.9585 108.991C45.9794 109.023 45.9927 109.059 45.9972 109.098L45.9671 109.075L46.2335 109.381L46.2134 109.359C46.6206 109.643 46.52 109.914 46.1631 110.175V110.163ZM46.9347 106.611C46.3904 106.32 45.928 105.896 45.5901 105.38C45.9281 105.896 46.3905 106.318 46.9347 106.608L47.1584 106.872L46.9347 106.611ZM48.0632 106.885L47.827 107.46L47.1836 106.857L46.9599 106.578L46.804 106.206L46.8317 106.226C46.7487 106.123 46.6683 106.018 46.5803 105.912L46.613 105.945L46.3617 105.636L46.3768 105.659L46.0224 105.227L46.04 105.239L45.8113 104.925L45.8414 104.955C45.7685 104.855 45.6931 104.757 45.6177 104.656L45.1955 104.32L45.0447 103.933L45.0773 103.958L44.826 103.639L44.4666 103.312C44.4666 103.044 44.4666 102.775 44.4666 102.506L44.6677 102.099C44.6472 101.966 44.6553 101.83 44.6912 101.7C44.7272 101.57 44.7903 101.449 44.8763 101.346L48.8977 101.313C49.1842 101.391 49.149 101.642 49.1993 101.858C49.1767 101.936 49.149 102.014 49.1214 102.092C49.1013 103.546 48.674 104.928 48.3498 106.327L48.0984 106.696C48.111 106.711 48.1201 106.728 48.1251 106.747C48.1302 106.766 48.1311 106.786 48.1277 106.805C48.1244 106.824 48.1169 106.842 48.1057 106.858C48.0946 106.874 48.0801 106.887 48.0632 106.897V106.885ZM48.7042 110.592C48.7028 110.566 48.7028 110.54 48.7042 110.514C48.7024 110.544 48.7024 110.575 48.7042 110.605V110.592Z" fill="#1D2831"/>
<path d="M91.6882 31.2741C89.8283 31.3067 88.5716 32.8441 88.5892 35.0621C88.6068 37.2802 90.0193 38.8301 92.0501 38.8301C93.9301 38.8301 95.3175 37.2576 95.2823 35.15C95.2471 33.0425 93.621 31.2389 91.6882 31.2741Z" fill="#1D2831"/>
<path d="M62.563 109.153C61.3063 109.198 60.4518 110.409 60.4568 112.185C60.4568 113.998 61.3063 114.948 62.9048 114.948C64.2118 114.948 65.2247 113.692 65.2398 112.084C65.2548 110.552 63.9278 109.108 62.563 109.153ZM63.0154 112.865C62.3167 112.2 62.5705 111.808 63.2894 111.446C64.0434 112.114 63.6463 112.479 63.0154 112.865Z" fill="#1D2831"/>
<path d="M107.171 78.675L107.186 78.5996L107.126 78.5519L106.912 78.1626L106.864 78.0671L106.661 77.5647L106.264 77.2055L106.047 76.9543H106.063C106.002 76.8338 105.944 76.7031 105.884 76.59L105.658 76.3213L105.407 76.0851L105.04 75.9068L104.776 75.7009C104.756 75.6349 104.733 75.5703 104.705 75.5074L104.358 75.3441L104.328 75.3316L104.019 75.1909C103.997 75.1302 103.972 75.0707 103.944 75.0126L103.506 74.897C103.225 74.6468 102.884 74.4737 102.516 74.3946L101.85 74.0706L101.78 74.0555L101.237 73.8847V73.9073C100.779 73.7616 100.329 73.5883 99.8645 73.4752C98.2735 73.0859 96.5971 73.0105 95.089 72.2795L94.2797 72.066L94.1541 71.9479L93.87 71.8023L93.3347 71.5159L93.3598 71.536L92.93 71.433L92.4274 71.1366L92.0655 70.7774L91.6432 70.6317L91.3919 70.4533L91.0425 70.0338L90.6504 69.8781L90.384 69.6394L90.4167 69.6721L90.1352 69.4084L89.9064 69.1697L89.4289 68.3935L89.1775 67.8911H89.1926C89.1122 67.7153 89.0318 67.5419 88.9413 67.3661C88.9462 67.3647 88.9514 67.3647 88.9564 67.3661C88.8458 67.13 88.7327 66.8939 88.6221 66.6553C88.519 66.4041 88.4185 66.1528 88.3155 65.9192L88.3406 65.452L88.8734 64.9496L89.1424 64.6984L89.1097 64.731L89.3987 64.4522L89.361 64.4874L89.6551 64.196L89.8939 64.0553L89.9668 63.9774C90.012 63.8895 90.0572 63.8016 90.105 63.7137C90.1528 63.6258 90.1276 63.5002 90.1427 63.3872C90.1276 63.5002 90.1176 63.6057 90.105 63.7137C90.1722 63.6839 90.2421 63.6604 90.3136 63.6434C90.3287 63.5756 90.3413 63.5077 90.3538 63.4399L90.5574 63.3696L92.0504 61.36L92.0303 61.3826C92.1459 61.1164 92.264 60.8526 92.3796 60.5863L92.631 60.1994L92.646 60.1693L92.9275 59.6845C93.2719 59.2389 93.5356 58.7364 93.7067 58.1999C93.7972 58.0291 93.8851 57.8583 93.9731 57.6975L94.2244 57.18C94.2973 57.0218 94.3727 56.8661 94.4456 56.7078C94.6718 56.4013 94.7849 56.012 95.3454 56.115C96.1246 56.2607 96.8836 56.012 97.6301 55.801L97.6049 55.8236L98.3916 55.3212L98.3665 55.3514L98.6606 55.065L98.6832 54.8741C98.7384 54.8561 98.796 54.8468 98.8541 54.8465L99.0778 54.5023H99.0552L99.2437 54.1104L99.4045 53.804C99.4699 53.4799 99.5352 53.1559 99.5981 52.8319C99.6132 52.7515 99.6257 52.6711 99.6408 52.5807C99.8368 49.9782 99.4422 47.3959 99.3894 44.7935C99.2998 44.8247 99.2151 44.8687 99.1381 44.9242C99.2145 44.8677 99.2993 44.8236 99.3894 44.7935C99.5101 44.6679 99.6408 44.5423 99.7564 44.4218L99.8067 44.369L99.96 44.1178L100.254 43.8113L100.219 43.8515L100.498 43.5601L100.465 43.5953C100.548 43.5024 100.631 43.4119 100.717 43.3215C100.79 43.2959 100.862 43.2666 100.933 43.2336C100.936 43.1681 100.947 43.1032 100.965 43.0402C101.018 43.018 101.074 43.0044 101.131 43L101.383 42.6709L101.352 42.6935L101.646 42.1459V42.1208L101.843 41.9173L102.111 41.4325L102.325 40.905L102.828 39.3978C103.107 38.0358 103.217 36.6446 103.157 35.2556C103.003 34.9447 102.951 34.593 103.009 34.2508L102.506 31.887C102.184 31.0497 101.864 30.2123 101.546 29.375H101.561L101.395 29.0083L101.129 28.7797L100.646 28.5084L97.9392 28.3702C97.948 28.3303 97.9421 28.2887 97.9228 28.2527C97.9034 28.2168 97.8718 28.1889 97.8337 28.1743C97.5822 27.122 97.2251 26.0979 96.768 25.1172H96.7881C96.6205 24.6969 96.4488 24.2782 96.2729 23.8612H96.2879C96.2351 23.6603 96.1798 23.4593 96.1271 23.2559C96.0667 23.1554 96.0089 23.0524 95.9511 22.9519L95.7124 22.658C95.6294 22.4922 95.544 22.3264 95.461 22.1556C95.373 21.9873 95.2851 21.819 95.1946 21.6532L94.9106 21.1508L94.4733 20.3495L94.1591 19.8471L94.1792 19.8723L94.0158 19.5407V19.508L93.7193 19.091L93.4 18.5886L93.4201 18.6138C93.3548 18.5032 93.292 18.3927 93.2291 18.2822H93.2467L92.925 17.8426C92.8823 17.7044 92.837 17.5662 92.7943 17.4281L92.4022 17.0764C92.3394 16.9784 92.2766 16.878 92.2112 16.78H92.2288L92.0679 16.4007C91.9982 16.3809 91.9302 16.3556 91.8644 16.3253C91.8066 16.2449 91.7487 16.1671 91.6934 16.0867C91.6608 15.9912 91.6306 15.8932 91.6005 15.7978C91.5523 15.7789 91.5027 15.7638 91.4522 15.7526L91.2989 15.4085L91.0676 15.1397C90.9973 15.1266 90.9284 15.1073 90.8615 15.0819C90.8615 15.4688 91.0023 15.7526 91.4421 15.7652C91.0023 15.7652 90.8716 15.4688 90.8615 15.0819C90.857 15.0119 90.8409 14.9431 90.8138 14.8784L90.4619 14.5544L90.3991 14.4941L90.1352 14.3384L89.8637 14.0721C89.8495 14.0046 89.8301 13.9382 89.8059 13.8736L89.5546 13.635L89.3032 13.3838L89.072 13.1703L88.705 12.9693L88.3959 12.7508L88.4336 12.7884L88.142 12.5548L87.7952 12.1379L87.4986 11.9394L87.1266 11.8038L87.0588 11.6179L86.7622 11.4194L86.36 11.3089C86.3333 11.2503 86.3106 11.1898 86.2922 11.1281L85.8649 11.0125L85.5055 10.6709L85.0254 10.3896L84.0201 9.90219L82.7634 9.3998C78.9405 8.16642 75.0146 7.86251 71.0309 8.12627C70.9206 8.19789 70.797 8.24653 70.6674 8.26941C70.5379 8.29228 70.405 8.28886 70.2769 8.25935C68.5527 8.55074 66.8184 8.80947 65.1747 9.45254L65.1068 9.41991C64.3528 9.65101 63.5988 9.83692 62.9126 10.2564C62.9121 10.2506 62.9121 10.2447 62.9126 10.2388L62.2868 10.4146L61.7841 10.6658L60.8743 11.1682L60.8114 11.1858L60.3691 11.4119L60.2987 11.4395L59.7483 11.633L59.2657 11.9042L58.4086 12.5247L57.9813 12.6403L57.5164 12.9316L57.2123 13.1226L57.1444 13.3009L56.7473 13.4139L56.4532 13.6224L56.0033 13.9289L55.7067 14.1324L55.2669 14.4514L54.9653 14.6448C54.9476 14.7109 54.9249 14.7756 54.8974 14.8383L54.6209 15.0417C54.6207 15.0375 54.6207 15.0334 54.6209 15.0292L54.2314 15.1673C54.2204 15.233 54.1992 15.2965 54.1686 15.3557L53.6659 15.6069L52.9521 16.1646L52.9671 16.152L52.3287 16.7323L52.2659 16.7825L52.0422 16.9785L52.0246 16.9935L51.7331 17.2171L51.7582 17.1894L51.4591 17.4406L51.4918 17.408L51.1927 17.6792L51.2279 17.6416L50.9338 17.9205L50.959 17.8978L50.6372 18.345C50.5599 18.3572 50.4846 18.38 50.4135 18.4128L50.1245 18.8247C50.0614 18.8441 49.9966 18.8576 49.931 18.865C49.9008 18.9378 49.8757 19.0131 49.8505 19.086L49.3479 19.5884C49.2854 19.5934 49.2238 19.606 49.1644 19.626C49.1462 19.6849 49.1344 19.7456 49.1292 19.8069L48.8427 20.0908L48.5913 20.2239C48.5913 20.2892 48.5586 20.3193 48.4933 20.3168L48.1289 20.8494C48.1289 20.908 48.1012 20.9382 48.0459 20.9398L47.7091 21.2588C47.6867 21.3231 47.6715 21.3896 47.6639 21.4573C47.5939 21.4828 47.5226 21.5046 47.4503 21.5226L47.1989 21.7738C47.1872 21.8408 47.1721 21.9086 47.1537 21.9773C47.0813 21.9961 47.01 22.0187 46.94 22.0451L46.9677 22.0149L46.6937 22.3063L46.7239 22.2737L46.4524 22.5676L46.4751 22.55L45.5828 23.6151L45.53 23.6728L45.1731 24.032L45.1882 24.012L44.9369 24.3059L44.967 24.2732L44.7031 24.5772L44.7383 24.542L44.487 24.856L44.5146 24.8334L43.934 25.5468L43.9491 25.5292C43.924 25.6028 43.9112 25.68 43.9114 25.7578C43.8523 25.7923 43.7877 25.8161 43.7204 25.8281L43.5394 26.127L43.18 26.5415L42.9714 26.8304C42.9236 26.961 42.8759 27.0816 42.8256 27.2198L42.4411 27.5614L42.2576 27.8678L42.1068 28.2371L41.7071 28.5787C41.6619 28.7144 41.6192 28.85 41.5765 28.9856L41.2045 29.3323L41.0838 29.7493L40.7395 30.116L40.4253 30.5682C40.3851 30.7064 40.3449 30.8471 40.3022 30.9877H40.3148L39.8623 31.7564C39.8026 31.788 39.7393 31.8124 39.6738 31.8292L39.2139 32.6155C39.1209 32.7763 39.0254 32.937 38.9299 33.0953L38.7891 33.4469C38.7137 33.6378 38.6383 33.8287 38.5654 34.0196C38.4749 34.188 38.3845 34.3563 38.2915 34.522H38.304L38.0326 35.0244L37.7812 35.5268H37.7938L37.5274 36.0292H37.54L37.2886 36.5316L36.8965 37.0993L36.6628 37.6168L36.429 38.1343C36.3762 38.3528 36.326 38.5688 36.2757 38.7849H36.2908L35.7881 39.752L35.4036 40.6438C33.9257 45.2658 32.8776 49.9682 32.762 54.8439C32.8823 55.28 32.8375 55.745 32.6363 56.1502L32.5534 57.1197C32.4855 57.2705 32.4177 57.4212 32.3724 57.5167C28.3938 56.2607 24.3598 56.6953 20.3308 57.0319L20.3484 57.0143L19.7904 57.2404L19.818 57.2177L19.0917 57.7578L18.5438 58.4737L18.5614 58.4536C17.9607 60.0663 17.835 61.6514 18.8127 63.1761L19.0138 63.3922L19.3154 63.6685L19.2802 63.6333L19.612 63.8368L20.004 64.0202L19.989 63.9297L20.273 64.1408C22.9447 64.299 25.6165 64.2211 28.2882 64.1784C28.3549 64.2128 28.4294 64.2292 28.5043 64.2261C28.63 65.5424 28.7565 66.8587 28.8839 68.1749C28.9244 68.2346 28.9597 68.2976 28.9894 68.3633C28.9894 68.3885 28.9668 68.4312 28.9542 68.4664L29.0975 69.7424C29.1846 69.8509 29.2438 69.979 29.2701 70.1156C29.2964 70.2522 29.2889 70.3931 29.2483 70.5262L29.844 75.7662C29.9251 75.8719 29.9801 75.9952 30.0046 76.1261C30.029 76.2571 30.0222 76.392 29.9847 76.5198C30.1632 78.1651 30.412 79.8104 30.4874 81.4608C30.5251 82.2144 31.0127 82.968 30.4698 83.7216L30.0852 84.1034L29.8691 84.3822C29.8213 84.5178 29.7736 84.651 29.7284 84.7867H29.7434L29.5323 85.0555C29.47 85.0832 29.4052 85.1051 29.3388 85.1208C29.2935 85.2589 29.2483 85.3971 29.2056 85.5327L28.8512 85.8818L28.733 86.3039L28.3837 86.6706L28.1499 87.2207V87.2383L27.7076 87.9919L27.4562 88.4943C27.3733 88.6677 27.2929 88.841 27.2049 89.0118L26.6017 90.4185L26.1719 91.7347C25.9834 92.3854 25.7924 93.036 25.6039 93.6866L25.2118 96.1533C25.2407 96.2825 25.2423 96.4163 25.2163 96.5461C25.1903 96.6759 25.1374 96.7988 25.061 96.9069C24.8423 100.848 24.9378 104.752 26.4484 108.485H26.4283C26.5137 108.736 26.466 109.045 26.6972 109.238C26.841 109.865 27.0964 110.46 27.4512 110.997C27.5367 111.17 27.6196 111.343 27.7026 111.517H27.6875C27.778 111.685 27.8659 111.856 27.9539 112.019L28.2379 112.521C28.2831 112.627 28.3309 112.73 28.3762 112.833L28.4264 112.926L29.0145 113.772C29.0623 113.905 29.1101 114.039 29.1553 114.172L29.4971 114.576L29.766 114.792C29.8867 115.023 30.0174 115.254 30.133 115.485H30.0878L30.3693 115.757V115.712C30.4392 115.745 30.5114 115.774 30.5854 115.797L30.877 116.244L31.5807 116.774C31.6054 116.852 31.6365 116.928 31.6737 117H31.6033L31.9803 117.251L32.3171 117.352C32.3171 117.334 32.3171 117.322 32.3171 117.307L32.6037 117.558L32.571 117.525L32.86 117.776C33.1116 118.065 33.4431 118.272 33.8126 118.372V118.316L34.0941 118.553C34.3773 118.827 34.7363 119.01 35.1246 119.078V119.063L36.9292 119.864L38.9651 120.366C40.5954 120.624 42.256 120.624 43.8863 120.366L44.8263 120.115L44.9193 120.16V120.263C45.0927 119.934 45.3717 119.919 45.6733 120.012C45.7059 119.946 45.7514 119.887 45.8071 119.838C45.8627 119.789 45.9275 119.752 45.9977 119.729C46.0679 119.705 46.142 119.696 46.2157 119.702C46.2895 119.707 46.3614 119.727 46.4273 119.761L46.3745 119.731C46.3745 119.537 46.5354 119.57 46.651 119.54L47.7116 118.857C48.0295 118.797 48.3152 118.625 48.5159 118.372L49.001 118.083L49.275 117.832C49.275 117.847 49.275 117.859 49.275 117.874C49.5863 117.785 49.8544 117.585 50.029 117.312L50.3004 117.06L50.2678 117.093L50.5568 116.812L50.5216 116.847L50.7981 116.573V116.603L51.3209 116.086H51.2932L51.5622 115.807L51.527 115.84L51.8009 115.551L51.7733 115.576L52.0246 115.302C52.0793 115.279 52.139 115.27 52.198 115.277L52.5072 115.008H52.4544C52.57 114.775 52.6856 114.541 52.8038 114.307C53.0601 114.124 53.2449 113.858 53.3266 113.554C53.4497 113.38 53.5779 113.207 53.6986 113.031C53.7327 113.008 53.7598 112.976 53.7771 112.938C53.7944 112.9 53.8011 112.859 53.7966 112.818L54.0931 112.34C54.1567 112.321 54.2175 112.293 54.2741 112.258C54.3319 112.152 54.3872 112.047 54.4425 111.941V111.956L54.7265 111.454L54.7064 111.479L54.9578 110.944L54.9351 110.974C55.0432 110.763 55.1488 110.552 55.2543 110.341L55.9782 108.377C56.4507 106.596 56.9835 104.827 57.1067 102.973L57.079 102.25C57.1059 102.23 57.1366 102.217 57.1692 102.21C57.2017 102.204 57.2353 102.204 57.2676 102.212C57.2892 102.17 57.2962 102.121 57.2876 102.074L58.0417 102.104H58.8384L59.2456 102.072L59.801 102.147C59.7633 103.36 60.0172 104.584 59.6327 105.782L59.4215 105.827L59.1501 106.111L59.1752 106.088C59.1224 106.214 59.0672 106.339 59.0144 106.46L58.288 107.347C58.2948 107.361 58.2985 107.376 58.2987 107.391C58.2989 107.407 58.2956 107.422 58.289 107.436C58.2825 107.45 58.273 107.462 58.261 107.472C58.2491 107.482 58.2351 107.489 58.2201 107.492L57.8783 108.09L57.8984 108.065C57.0465 110.27 56.8578 112.675 57.3555 114.986C57.4058 115.021 57.456 115.051 57.5088 115.081C57.5088 115.355 57.5089 115.634 57.725 115.835L57.8758 116.161C57.8668 116.169 57.8601 116.18 57.8563 116.191C57.8524 116.202 57.8516 116.215 57.8539 116.227C57.8562 116.238 57.8614 116.25 57.8692 116.259C57.877 116.268 57.8871 116.275 57.8984 116.279C57.9562 116.453 58.0165 116.623 58.0743 116.782C58.1154 116.829 58.1728 116.86 58.2352 116.867C58.3064 117.171 58.4849 117.438 58.7379 117.621L58.8962 118H58.8635L59.326 118.311L59.6377 118.771H59.5899L60.0147 118.884L60.354 119.261C60.4897 119.304 60.7008 119.261 60.6305 119.512C62.3898 119.834 64.1643 120.266 65.9362 119.535C66.1876 119.427 66.4389 119.284 66.7053 119.15L67.1728 118.859L67.6026 118.688C67.7031 118.56 67.8062 118.437 67.9092 118.306L68.1354 118.078L68.5677 117.774C68.6281 117.651 68.6884 117.523 68.7512 117.4L68.9247 117.086C68.9895 117.073 69.0512 117.048 69.1056 117.01L69.2489 116.608H69.2363L69.5053 116.106H69.4801C69.9074 115.581 69.8069 114.88 70.0708 114.302C69.9526 114.606 70.2316 114.476 70.3221 114.538L70.5961 114.825L70.5684 114.802C70.5892 114.877 70.6188 114.948 70.6564 115.016C70.7233 115.022 70.7897 115.033 70.855 115.048C70.8804 115.108 70.8948 115.172 70.8977 115.237L71.149 115.523V115.445L71.5713 115.616C71.7866 115.857 72.0771 116.018 72.3957 116.073L72.4409 116.101L72.9059 116.5C76.5452 117.098 80.2098 116.716 83.8617 116.797C84.2488 116.797 84.7037 116.546 85.0028 117.025L85.219 117.234L85.4703 117.533L85.4879 117.465L85.875 117.613C85.8819 117.679 85.9082 117.741 85.9504 117.791L86.9432 118.332L87.2121 118.502C87.2696 118.559 87.3452 118.594 87.4257 118.6C87.4272 118.595 87.4272 118.589 87.4257 118.583C88.2049 119.125 89.1248 119.321 89.9944 119.633C91.7764 120.035 93.5132 119.701 95.2273 119.256V119.289L95.8305 118.889L96.3332 118.638L96.8107 118.357C96.8749 118.358 96.9391 118.351 97.0017 118.337C97.0411 118.277 97.0772 118.215 97.1098 118.151H97.0797L97.4868 118.035C97.5341 117.986 97.5634 117.922 97.5698 117.854L97.9819 117.766C97.9772 117.735 97.9793 117.703 97.988 117.673C97.9967 117.643 98.0119 117.615 98.0324 117.591C98.0529 117.567 98.0783 117.548 98.1069 117.535C98.1356 117.522 98.1666 117.515 98.1981 117.515C98.2078 117.437 98.229 117.361 98.2609 117.289L98.5123 117.246L98.4972 117.279L98.7486 116.97L98.9521 116.767C99.0476 116.684 99.1457 116.603 99.2437 116.515C99.2416 116.481 99.2466 116.447 99.2583 116.415C99.27 116.382 99.2882 116.353 99.3117 116.328C99.3353 116.303 99.3637 116.283 99.3952 116.27C99.4267 116.256 99.4607 116.249 99.495 116.249C99.5352 116.166 99.5729 116.086 99.6131 115.998L99.5352 115.92L99.8419 115.533C99.8407 115.538 99.8407 115.543 99.8419 115.548C99.893 115.542 99.942 115.524 99.9851 115.496C100.098 115.262 100.214 115.028 100.329 114.797L100.799 114.343C102.308 114.33 103.79 114.343 105.258 113.983L105.743 113.732L106.088 113.325L106.354 113.059L106.377 113.031C106.553 112.805 106.729 112.579 106.902 112.351C107.183 111.419 107.108 110.477 106.98 109.532L106.769 108.995L106.462 108.545L106.236 108.279L105.985 108.045C104.444 107.04 102.664 107.703 101.021 107.407C102.672 97.9293 102.672 97.9293 101.445 92.4633L100.943 91.2073L100.352 90.3205C100.211 90.0291 100.073 89.7353 99.9349 89.4439L99.5403 89.0771C99.5403 89.0771 99.5403 89.1022 99.5403 89.1148C99.5403 89.1273 99.5403 89.0897 99.5403 89.0771L99.3291 88.8259H99.3442C99.2135 88.64 99.0929 88.4566 98.9496 88.2732C98.9496 88.1979 98.9169 88.1627 98.8415 88.1678C98.8335 88.1395 98.8189 88.1136 98.7987 88.0921C98.7786 88.0707 98.7537 88.0544 98.7259 88.0447C98.7294 88.0285 98.7291 88.0118 98.7251 87.9957C98.7211 87.9797 98.7135 87.9648 98.7028 87.9522C98.6921 87.9396 98.6787 87.9296 98.6635 87.9229C98.6483 87.9163 98.6319 87.9133 98.6153 87.914L98.2635 87.6001L98.0121 87.3489L97.6753 86.9243L97.0042 86.5526L96.8183 86.334C96.7881 84.9943 96.7588 83.6546 96.7303 82.3148L97.1676 82.3501L97.6527 83.1338L97.9543 83.6236C98.364 84.6912 98.3364 85.8844 98.9773 86.8891C99.0026 87.047 99.0603 87.1979 99.1468 87.3324C99.2333 87.4668 99.3467 87.5819 99.4799 87.6704L99.7313 87.9216C99.8695 87.9216 99.9826 87.9442 100.05 88.0271C99.9927 87.9442 99.8695 87.9266 99.7313 87.9216L100.068 88.2657C100.069 88.2811 100.073 88.2962 100.081 88.3095C100.089 88.3228 100.1 88.334 100.113 88.3419C100.126 88.3499 100.141 88.3544 100.157 88.3552C100.172 88.3559 100.187 88.3528 100.201 88.3461C101.144 89.0017 102.094 88.537 103.041 88.3637L103.293 88.1251L103.795 88.0874C104.663 88.2305 105.535 88.4365 106.369 87.9542V87.9869L106.666 87.8336C106.726 87.8504 106.761 87.8278 106.771 87.7658L107.116 87.4217C107.196 87.3388 107.279 87.2584 107.367 87.1705C107.436 87.1483 107.504 87.1223 107.571 87.0926L107.787 86.8063C109.058 83.9502 108.345 81.2975 107.171 78.675ZM26.0362 61.4328C24.9981 61.8197 21.6202 61.8473 20.7304 61.5007C20.2051 59.8955 20.6826 59.1394 22.2912 59.1293C23.4524 59.1293 24.6211 59.0063 25.8251 59.25C26.2021 60.0663 26.0337 60.7647 26.0362 61.4328ZM103.858 75.1985C103.781 75.1921 103.708 75.1636 103.647 75.1163C103.586 75.069 103.539 75.0051 103.514 74.9322C103.54 75.0038 103.586 75.0664 103.647 75.1127C103.707 75.159 103.78 75.187 103.856 75.1934L103.858 75.1985ZM103.509 74.9322C103.386 74.968 103.257 74.9786 103.13 74.9635C103.004 74.9484 102.881 74.9078 102.77 74.8442C102.881 74.9067 103.003 74.9462 103.13 74.9604C103.256 74.9746 103.384 74.9634 103.506 74.9272L103.509 74.9322ZM98.1805 73.5883C96.9684 73.3268 95.7753 72.9844 94.609 72.5634C95.7779 72.9822 96.9736 73.322 98.1881 73.5807L98.1805 73.5883ZM94.0762 72.0987C93.5735 72.1489 93.111 72.1137 92.9426 71.4531C93.1186 72.1062 93.581 72.1414 94.0837 72.0936L94.0762 72.0987ZM92.4475 71.1642C92.2751 71.2008 92.0953 71.1703 91.9448 71.0788C92.0977 71.169 92.2795 71.1969 92.4525 71.1567L92.4475 71.1642ZM91.2812 70.4533C91.1944 70.4441 91.1096 70.4212 91.0299 70.3855C91.1116 70.4191 91.1982 70.4395 91.2863 70.4458L91.2812 70.4533ZM89.1977 67.9037C89.1522 67.8862 89.1098 67.8616 89.072 67.8308C89.1093 67.8617 89.1519 67.8855 89.1977 67.9012V67.9037ZM88.6472 66.8084C88.6472 67.0596 88.6472 67.2882 88.9715 67.3837C88.6673 67.2807 88.6447 67.0471 88.6548 66.8009L88.6472 66.8084ZM92.6686 60.1266C92.6655 60.038 92.6897 59.9505 92.7377 59.876C92.7858 59.8014 92.8556 59.7434 92.9376 59.7096C92.8591 59.7449 92.7929 59.8026 92.7472 59.8755C92.7016 59.9484 92.6786 60.0331 92.6812 60.1191L92.6686 60.1266ZM92.92 59.579C92.92 59.0565 93.0055 58.5943 93.478 58.323C93.0306 58.5868 92.9326 59.0489 92.9451 59.5714L92.92 59.579ZM99.3995 30.8019L99.7413 31.6082L99.7665 31.7112C100.804 34.2859 100.963 36.8933 100.068 39.5435C97.9066 44.7809 91.4899 45.7732 87.4157 41.8746C87.3151 41.7641 87.2146 41.656 87.1115 41.548L86.5536 40.8171C86.4857 40.7317 86.4204 40.6462 86.355 40.5659L86.066 40.076L85.8699 39.7771C85.8768 39.7395 85.8741 39.7007 85.8623 39.6643C85.8505 39.6279 85.8298 39.595 85.8021 39.5686L85.6136 39.2722C85.4251 38.702 85.2391 38.1343 85.0506 37.5666C85.068 37.4334 85.0585 37.2981 85.0226 37.1687C84.9868 37.0393 84.9253 36.9183 84.8419 36.813C84.8269 36.6422 84.8143 36.4714 84.7992 36.3106C84.6496 35.1391 84.7351 33.9496 85.0506 32.8114C85.0732 32.6632 85.0983 32.515 85.1234 32.3668L85.8624 30.8068C86.3098 30.5004 86.82 30.5933 87.3076 30.5933C91.2586 30.5933 95.208 30.5933 99.1557 30.5933V30.5783L99.3995 30.8019ZM85.1134 32.1357C85.1134 31.6735 85.0958 31.2113 85.5005 30.9425C85.1209 31.2037 85.1285 31.6659 85.1385 32.1281L85.1134 32.1357ZM95.4384 22.2058C95.4384 22.231 95.4384 22.2586 95.4384 22.2837C95.461 22.2511 95.461 22.2235 95.4635 22.1983L95.4384 22.2058ZM95.4384 22.2058C95.3885 22.1858 95.3432 22.156 95.3052 22.1179C95.3515 22.1554 95.4056 22.1821 95.4635 22.1958L95.4384 22.2058ZM95.1871 21.7034C95.1615 21.6934 95.1371 21.6808 95.1142 21.6658C95.1438 21.6796 95.1751 21.6897 95.2072 21.696L95.1871 21.7034ZM94.9759 21.505C94.9365 21.4148 94.9168 21.3171 94.9181 21.2186C94.9242 21.316 94.9507 21.4111 94.996 21.4975L94.9759 21.505ZM94.9181 21.2186C94.4557 21.1684 94.3928 20.8996 94.4481 20.568C94.413 20.8921 94.4758 21.1609 94.9382 21.2111L94.9181 21.2186ZM94.4808 20.4123C94.404 20.3983 94.3339 20.3595 94.2812 20.3019C94.2285 20.2443 94.1962 20.171 94.1893 20.0933C94.1988 20.1726 94.2347 20.2464 94.2912 20.3028C94.3477 20.3593 94.4216 20.3952 94.5009 20.4048L94.4808 20.4123ZM93.7268 19.1563C93.6512 19.1398 93.5828 19.0998 93.5313 19.042C93.4799 18.9843 93.448 18.9117 93.4403 18.8348C93.4494 18.9128 93.483 18.986 93.5362 19.0437C93.5895 19.1015 93.6597 19.1409 93.7368 19.1563H93.7268ZM92.9426 17.923C92.8391 17.905 92.7418 17.861 92.66 17.7951C92.5782 17.7292 92.5146 17.6435 92.4751 17.5462C92.5159 17.6445 92.5812 17.7308 92.6648 17.7968C92.7484 17.8627 92.8475 17.9062 92.9527 17.923H92.9426ZM87.2548 12.2785C87.1878 12.1634 87.1483 12.0345 87.1392 11.9017C87.1521 12.0375 87.1969 12.1683 87.2699 12.2835L87.2548 12.2785ZM86.6642 11.7962C86.5653 11.734 86.484 11.6475 86.4279 11.545C86.4867 11.6531 86.5735 11.7433 86.6792 11.8063L86.6642 11.7962ZM85.7367 11.1331C84.9651 11.1331 84.3895 10.598 83.726 10.2966C84.4046 10.6005 84.9802 11.1281 85.7518 11.1381L85.7367 11.1331ZM80.059 11.4219C79.7207 11.2437 79.3643 11.1023 78.9958 11C79.3697 11.1028 79.7312 11.246 80.074 11.427L80.059 11.4219ZM76.0376 10.6482C75.7862 10.6482 75.5349 10.6231 75.2835 10.603C75.55 10.6282 75.7988 10.6407 76.0476 10.6533L76.0376 10.6482ZM64.1442 12.7031C63.7538 12.6613 63.3598 12.7346 63.0106 12.914C63.3632 12.7344 63.7611 12.6628 64.1542 12.7081L64.1442 12.7031ZM62.9202 10.3594C62.7373 10.72 62.4417 11.011 62.0782 11.1884C62.4441 11.0133 62.7431 10.7242 62.9302 10.3644L62.9202 10.3594ZM59.801 12.2911C59.6137 12.4535 59.3906 12.5693 59.1499 12.6291C58.9092 12.6889 58.6578 12.691 58.4162 12.6352C58.658 12.6944 58.9104 12.6957 59.1528 12.6389C59.3952 12.5822 59.6207 12.469 59.8111 12.3087L59.801 12.2911ZM58.2126 12.9995C58.1475 13.0713 58.0721 13.1331 57.9889 13.1828C58.0753 13.1355 58.1542 13.0754 58.2227 13.0045L58.2126 12.9995ZM57.9235 13.2255C57.6866 13.3344 57.4302 13.3942 57.1695 13.4014C57.4324 13.3968 57.6915 13.3387 57.9311 13.2306L57.9235 13.2255ZM57.1695 13.4039C56.8026 14.2756 56.0963 14.6599 55.2719 14.8508C56.1089 14.6549 56.8151 14.2806 57.1771 13.4089L57.1695 13.4039ZM50.3633 22.4947C50.2744 22.4931 50.1876 22.5215 50.1169 22.5753C50.0462 22.6291 49.9958 22.7051 49.9737 22.7911C49.9972 22.7039 50.0499 22.6273 50.1231 22.5743C50.1963 22.5212 50.2855 22.4949 50.3758 22.4998L50.3633 22.4947ZM49.8933 19.1815C49.9015 19.2677 49.8863 19.3546 49.8491 19.4328C49.8119 19.5111 49.7542 19.5779 49.6822 19.626C49.7558 19.5799 49.8154 19.5146 49.8548 19.4372C49.8942 19.3598 49.9118 19.2731 49.9058 19.1864L49.8933 19.1815ZM49.833 22.859C49.7796 22.9067 49.7377 22.9658 49.7103 23.0319C49.6829 23.0979 49.6707 23.1694 49.6746 23.2408C49.6722 23.1684 49.6864 23.0964 49.716 23.0302C49.7456 22.964 49.7899 22.9055 49.8455 22.859H49.833ZM49.6721 23.2433C49.604 23.2409 49.5362 23.2524 49.4726 23.277C49.4091 23.3016 49.3513 23.3389 49.3026 23.3865C49.3532 23.3382 49.4133 23.3009 49.4791 23.2771C49.5448 23.2533 49.6149 23.2435 49.6846 23.2483L49.6721 23.2433ZM42.8206 27.3981C42.7879 27.8252 42.6371 28.1667 42.0967 28.2321C42.6497 28.1718 42.8005 27.8302 42.8332 27.4032L42.8206 27.3981ZM41.579 28.9756C41.6109 29.1421 41.5761 29.3143 41.482 29.4553C41.388 29.5963 41.2423 29.6947 41.0763 29.7292C41.244 29.6981 41.3926 29.6019 41.4896 29.4616C41.5866 29.3214 41.6241 29.1485 41.5941 28.9807L41.579 28.9756ZM40.9556 30.5155C40.865 30.6588 40.7373 30.7751 40.5862 30.8521C40.7413 30.7783 40.8734 30.6637 40.9682 30.5205L40.9556 30.5155ZM41.0587 30.2643C41.0388 30.3528 41.0049 30.4376 40.9582 30.5155C41.0095 30.4377 41.0478 30.3519 41.0713 30.2617L41.0587 30.2643ZM39.8422 31.7714C40.2243 31.7338 40.3449 31.5202 40.3449 31.2691C40.3449 31.5202 40.2343 31.7313 39.8422 31.7714C39.8297 32.0051 39.8011 32.2376 39.7568 32.4673C39.8058 32.2345 39.8386 31.9987 39.8548 31.7614L39.8422 31.7714ZM39.2767 33.4997C39.2049 33.5828 39.1258 33.6592 39.0404 33.7283C39.1306 33.6566 39.2139 33.5768 39.2893 33.4897L39.2767 33.4997ZM38.294 34.728C38.2801 34.7924 38.2496 34.8521 38.2055 34.901C38.1614 34.9499 38.1053 34.9864 38.0426 35.0069C38.1089 34.9875 38.1685 34.9503 38.215 34.8993C38.2616 34.8484 38.2932 34.7857 38.3066 34.718L38.294 34.728ZM38.0426 35.0069C38.0569 35.0993 38.05 35.1938 38.0225 35.2832C38.0566 35.1918 38.0687 35.0937 38.0577 34.9968L38.0426 35.0069ZM38.015 35.3083C37.9892 35.365 37.9494 35.4142 37.8994 35.4515C37.9563 35.4135 38.0015 35.3605 38.0301 35.2983L38.015 35.3083ZM37.7938 35.6977C37.7964 35.6634 37.7964 35.6289 37.7938 35.5947C37.801 35.6253 37.806 35.6563 37.8089 35.6876L37.7938 35.6977ZM37.6807 35.9263C37.6619 35.9447 37.6407 35.9607 37.6179 35.974C37.6463 35.9604 37.6726 35.9426 37.6958 35.9212L37.6807 35.9263ZM37.7611 35.8107C37.7431 35.8506 37.7184 35.8871 37.6882 35.9187C37.7248 35.8853 37.7547 35.8452 37.7762 35.8007L37.7611 35.8107ZM37.2585 37.0315C37.1856 37.7248 37.0071 38.3654 36.2883 38.7698C37.0147 38.3554 37.1982 37.7148 37.271 37.0214L37.2585 37.0315ZM36.2908 38.7774C36.3436 39.0777 36.3272 39.386 36.243 39.6791C36.3372 39.3848 36.3621 39.0728 36.3159 38.7673L36.2908 38.7774ZM35.3583 56.6802L35.3835 55.3865C35.3646 55.314 35.3646 55.238 35.3835 55.1655C35.5963 49.1414 37.0689 43.2286 39.7065 37.8077C41.6719 33.6541 44.1638 29.7706 47.121 26.2526L47.3723 26.0014L47.6237 25.6598C47.6199 25.6227 47.6302 25.5857 47.6526 25.5559C47.6749 25.5261 47.7077 25.5058 47.7443 25.4991L48.1339 25.2479H48.1012L48.154 24.9137L48.4053 24.5219V24.5621L48.6843 24.2782L48.6516 24.3084L48.9331 24.027L48.903 24.0522L49.1543 23.7834L49.657 23.2659C49.8179 23.1554 49.9963 23.0574 49.9787 22.8238C50.2125 22.8414 50.3206 22.6706 50.4286 22.5023L51.9367 21.0453L52.2081 20.7439L52.188 20.779L52.467 20.4977L52.4393 20.5304L52.7208 20.2516L52.6957 20.2817L52.9747 20.0053L52.9872 20.0607C53.0247 20.0572 53.0608 20.0446 53.0924 20.024C53.1239 20.0035 53.15 19.9755 53.1682 19.9425C55.2091 18.2796 57.3053 16.677 59.502 15.2326L59.7809 15.0342H59.7382C59.7382 15.0141 59.7558 14.9965 59.7634 14.9789C59.7709 14.9613 59.7457 15.0141 59.7382 15.0342C59.8427 15.0433 59.9476 15.022 60.0404 14.973C60.1331 14.924 60.2097 14.8493 60.261 14.7579L61.2287 14.2303C61.3122 14.2276 61.3925 14.1977 61.4574 14.1449C61.5454 14.0821 61.6358 14.0219 61.7263 13.9616L62.0154 13.7279L61.9927 13.7732C62.0905 13.7746 62.1872 13.7525 62.2747 13.7088C62.3622 13.6651 62.4379 13.601 62.4954 13.522C63.1249 13.3665 63.7209 13.0984 64.2548 12.7307L64.2372 12.7558C67.1579 11.7747 70.1884 11.1571 73.2603 10.917H73.7755C75.7 10.9169 77.6199 11.1028 79.5085 11.4722L80.064 11.638L80.7929 11.8365C86.164 13.6124 89.6727 17.4582 92.3293 22.231C93.2047 23.7997 93.9366 25.4442 94.516 27.1444C94.6492 27.5438 95.0187 27.9532 94.6768 28.428C94.6695 28.4743 94.6551 28.5192 94.6341 28.5611L94.3601 28.4406L85.6136 28.4029H85.327C84.6409 28.4356 83.9296 28.3275 83.3163 28.7546V28.7194C83.2762 28.7218 83.2372 28.7337 83.2027 28.7543C83.1681 28.7748 83.139 28.8034 83.1178 28.8375C82.3311 29.5132 82.5648 30.2844 82.9393 30.9701C82.786 31.9121 82.3386 32.6883 82.3864 33.57C82.2264 34.562 82.2196 35.5727 82.3663 36.5668C82.4241 39.0461 83.5249 41.1235 84.8947 43.098C86.6541 44.8563 88.5743 46.3208 91.1455 46.6398L91.422 46.67L92.3796 46.778L92.6787 46.8006C94.051 46.9815 95.358 46.5494 96.7001 46.3183C97.047 46.8332 96.8962 47.3733 96.9263 47.8857L96.9892 47.8682C97.0043 48.2123 97.0193 48.5539 97.0369 48.8955C97.02 48.9314 97.0126 48.971 97.0152 49.0105C97.0178 49.0501 97.0305 49.0884 97.052 49.1217C96.9816 50.3902 97.517 51.7115 96.7177 52.9122L96.4337 53.1885L96.1522 53.4021L96.1799 53.3694C95.4108 53.5025 94.7045 53.2664 93.9907 53.0303C91.7007 52.2676 89.2989 51.894 86.8853 51.925H86.1313C85.3371 51.925 84.5353 51.8848 83.7486 51.9652C81.0945 52.234 78.4278 52.4877 76.0451 53.8668V53.8392C75.4801 53.959 74.9587 54.2309 74.537 54.6254C74.5362 54.6187 74.5362 54.6119 74.537 54.6053C74.4579 54.6135 74.3842 54.649 74.3284 54.7058C72.9536 55.5146 71.6743 56.429 70.8097 57.7503C71.2043 59.2399 72.0211 59.6493 73.0366 58.755C75.5499 56.5571 78.4906 55.4117 81.6751 54.7234C83.6506 54.5877 85.6236 54.3666 87.6092 54.5575L87.9385 54.5802L88.4889 54.5274C88.6623 54.6606 88.8257 54.7133 88.9689 54.4897L89.1323 54.7158C89.5007 54.6469 89.8816 54.7016 90.2156 54.8715L90.3865 54.8389L92.0353 55.2584C90.7534 58.6621 88.8332 61.5233 86.0358 63.7514C84.8947 64.6632 84.3091 65.7409 84.563 67.2129C84.578 67.3887 84.5931 67.5645 84.6057 67.7404C84.7263 68.3985 84.8462 69.0584 84.9651 69.7198C85.0079 69.9032 85.0481 70.0841 85.0883 70.2649C85.1159 70.589 85.3396 70.9005 85.1436 71.2371C85.4904 71.3526 85.3446 71.6892 85.4401 71.9153C85.4904 72.1188 85.5432 72.3222 85.5935 72.5257L85.7518 73.2441L85.8272 73.5355L85.8951 74.5052C86.2394 74.7765 86.2118 75.1407 86.1464 75.5099C86.8451 76.8689 86.8099 78.4012 87.1844 79.8356C87.2347 80.6528 87.2841 81.4692 87.3327 82.2847C87.4986 84.1511 87.5489 86.0125 87.0311 87.8437C86.9155 88.1878 86.9381 88.5797 86.6466 88.8485H86.6742C86.6365 89.0721 86.5963 89.2957 86.5586 89.5192L86.6013 89.5493C86.5155 89.6049 86.4456 89.6819 86.3985 89.7726C86.3513 89.8633 86.3286 89.9647 86.3324 90.0668C86.2514 90.1254 86.186 90.203 86.1422 90.2928C86.0984 90.3826 86.0774 90.4819 86.0811 90.5818L85.7267 91.0842L85.3924 91.3655L84.8696 92.0814L84.4147 92.6215L84.1282 92.9154L83.917 93.1239L83.6255 93.4078L83.0851 93.8649C83.0393 93.9493 82.9714 94.0197 82.8886 94.0684C82.8057 94.1171 82.7112 94.1423 82.6151 94.1412C82.5173 94.292 82.3872 94.4192 82.2342 94.5134C82.0812 94.6077 81.9091 94.6668 81.7304 94.6863C81.5067 94.2718 81.2126 93.8925 81.3232 93.3801C81.1297 93.4052 81.1121 93.2495 81.0719 93.1289C80.8834 92.9104 80.6848 92.6968 80.8205 92.3753C80.622 92.4155 80.5692 92.2447 80.4913 92.1241L80.3279 91.8905L79.8026 91.1193H79.8403L79.5236 90.8681L78.5685 89.901C78.4944 89.8691 78.4153 89.8504 78.3348 89.8457C78.2913 89.7799 78.275 89.6998 78.2895 89.6222L77.8799 89.5443C77.865 89.481 77.8413 89.4202 77.8095 89.3635H77.8246L77.4425 89.1123L77.0479 88.9515L76.5453 88.6149V88.645C75.0699 88.2632 73.5995 87.8387 72.0563 87.8161H66.0242C66.2303 84.9399 66.2177 82.1617 64.5162 79.7175C64.5162 79.8104 64.5338 79.9084 64.5388 80.0038C64.5388 79.9084 64.5388 79.8104 64.5162 79.7175C64.4408 79.5743 64.3679 79.4311 64.295 79.2879L63.7345 78.5745L63.4706 78.3032C63.4324 78.213 63.3672 78.1368 63.2839 78.0851C63.2007 78.0334 63.1035 78.0087 63.0056 78.0144C63.0056 77.8486 62.9126 77.7632 62.7543 77.7632C62.8422 77.8511 62.9277 77.9415 63.0056 78.0294L62.7543 77.7632H62.792C62.7216 77.4743 62.4879 77.3387 62.2642 77.1904C60.7411 75.7209 58.7706 75.5175 56.8152 75.2939C55.4881 75.1407 54.151 75.0678 52.8515 74.7061C51.8303 74.4584 50.9146 73.8917 50.2376 73.0884L49.941 72.5031C49.9454 72.5087 49.9505 72.5138 49.9561 72.5182C49.7601 71.5963 50.0617 70.5814 49.4383 69.7399C48.8376 69.034 48.2394 69.019 47.6438 69.7399C46.7314 71.4506 47.4427 72.9904 48.1465 74.5302C48.1749 74.5574 48.1965 74.591 48.2096 74.6281C48.2227 74.6651 48.2269 74.7048 48.2219 74.7438L48.1917 74.7237L48.6592 75.0251C48.5654 74.8141 48.4774 74.6031 48.3953 74.3921C48.4791 74.6031 48.567 74.8141 48.6592 75.0251L48.7044 75.2462L48.9181 75.2738C48.9506 75.3481 48.9661 75.4288 48.9633 75.5099C48.9949 75.51 49.0261 75.5168 49.0548 75.5299C49.0835 75.543 49.109 75.5621 49.1297 75.5859C49.1505 75.6097 49.1658 75.6376 49.1749 75.6679C49.1839 75.6981 49.1863 75.7299 49.182 75.7611L49.6143 75.839C49.6276 75.9043 49.6513 75.9671 49.6846 76.0249L49.936 76.2911L49.9184 76.2661L50.4211 76.5398L50.6724 76.6755L51.1751 77.0347V77.0146C53.3844 77.6778 55.6816 77.7355 57.9613 77.9842C58.386 78.1726 58.9289 78.0897 59.2406 78.5393V78.5218L59.7056 78.5996C62.797 79.9712 64.4181 84.0054 63.1363 87.0499C61.6987 85.9673 62.1913 83.9426 60.9798 82.8449L60.7536 82.5309L60.5752 82.2973C60.2384 82.3526 60.1278 82.4882 60.1027 82.6816C60.1278 82.4882 60.2384 82.3526 60.5727 82.2973C60.2308 81.9054 59.9443 81.4407 59.2079 81.3251C59.8714 83.1589 60.0599 84.9976 60.2686 86.8289C60.2183 87.1403 60.1655 87.4518 60.0901 87.914C59.1149 87.3162 58.9214 86.4069 58.6474 85.5804C57.8934 83.292 56.4105 81.9582 53.9398 81.8502L45.5552 81.0086C42.519 79.73 40.3977 77.6401 39.7593 74.3142C39.3516 72.1163 39.5917 69.8472 40.4505 67.7831C41.3327 65.5525 42.6924 63.5881 43.9692 61.581C44.8137 60.2597 44.492 59.4358 42.798 58.956C41.2347 60.315 40.3022 62.209 39.3496 64.088C39.3604 64.3569 39.2997 64.6238 39.1737 64.8617C39.3 64.6248 39.3607 64.3586 39.3496 64.0905C39.0423 64.3831 38.8618 64.7844 38.8469 65.2084C38.5956 65.2988 38.5956 65.5073 38.5956 65.7107C38.5128 65.7646 38.4458 65.8395 38.4016 65.9278C38.3575 66.0161 38.3376 66.1146 38.3442 66.2131C38.0506 66.5697 37.875 67.0086 37.8416 67.4691L37.8667 67.4566C36.8851 69.7538 36.6376 72.298 37.1579 74.7413C37.1981 74.9196 37.2409 75.0954 37.2811 75.2713C37.3514 75.5426 37.3112 75.8591 37.6053 76.0249L37.5827 76.0123C37.6103 76.1706 37.6355 76.3313 37.6631 76.4896L38.5076 78.6725L37.0725 79.0016C36.6779 75.1783 36.2883 71.428 35.8987 67.6801L35.7178 66.2106C35.6895 66.1497 35.666 66.0867 35.6474 66.0222C35.6466 65.9881 35.6517 65.9541 35.6625 65.9217L35.5242 63.5655C35.3332 63.2013 35.4011 62.8119 35.4262 62.4301C35.4048 62.3545 35.4048 62.2746 35.4262 62.199C35.4262 61.9478 35.4061 61.674 35.3985 61.4127C35.2846 59.8342 35.2754 58.2499 35.3709 56.6702L35.3583 56.6802ZM89.5319 105.581L89.547 105.566L89.2228 106.194C89.2094 106.195 89.1968 106.201 89.1862 106.209C89.1756 106.218 89.1674 106.229 89.1625 106.241C89.1577 106.254 89.1563 106.267 89.1585 106.281C89.1607 106.294 89.1664 106.306 89.1751 106.317C89.1449 106.415 89.1147 106.513 89.0871 106.608L88.9111 106.694C88.8483 106.889 88.788 107.085 88.7252 107.281L88.5517 107.533L82.59 107.673L82.3185 107.402C82.605 105.644 82.5171 103.885 82.5699 102.127H90.6127C90.2726 103.269 89.9165 104.417 89.5445 105.571L89.5319 105.581ZM89.0971 106.952C89.077 107.116 88.9991 107.249 88.7352 107.279C89.0117 107.239 89.0971 107.106 89.1097 106.942L89.0971 106.952ZM90.5851 99.2606C89.7908 99.65 84.94 99.7907 82.698 99.4666C82.5674 98.9366 82.4467 98.4618 82.3436 98.0147C84.0553 96.1985 85.8976 95.1912 88.3758 96.3392C90.1226 97.138 90.6303 97.7359 90.6052 99.2506L90.5851 99.2606ZM86.0785 90.5441C86.1257 90.5208 86.169 90.4903 86.2067 90.4537C86.1691 90.4866 86.1267 90.5136 86.0811 90.534L86.0785 90.5441ZM86.2268 90.421C86.3064 90.3132 86.344 90.1802 86.3324 90.0467C86.3444 90.1756 86.3106 90.3045 86.2369 90.4109L86.2268 90.421ZM86.3324 90.0467C86.4021 90.0134 86.462 89.9626 86.506 89.8992C86.5501 89.8357 86.5769 89.7619 86.5837 89.685C86.5757 89.7603 86.5483 89.8322 86.5043 89.8938C86.4603 89.9554 86.401 90.0046 86.3324 90.0367V90.0467ZM80.9889 109.937C80.7295 109.933 80.4723 109.985 80.2349 110.09C80.4746 109.98 80.7354 109.924 80.999 109.926L80.9889 109.937ZM79.9836 107.608L79.8252 107.58L78.8375 107.801L75.9043 109.08C75.3615 108.075 75.3212 106.937 75.0799 105.865C74.619 103.659 74.0443 101.479 73.3583 99.3335C72.6671 97.2988 71.3652 95.8896 69.2791 95.254L66.7154 95.1108L66.7003 94.6939C66.3987 94.0207 66.6073 93.2896 66.4666 92.5989V92.0789C66.4666 91.5765 66.4666 91.0741 66.4666 90.5717L66.5168 90.5215C69.2816 90.3532 72.0463 90.1472 74.7809 90.8681C77.5984 92.0236 79.0788 94.2065 79.5865 97.133L79.8378 97.6681C80.0715 100.919 80.2022 104.169 79.9509 107.425C79.9815 107.477 79.9922 107.538 79.9811 107.598L79.9836 107.608ZM78.0131 89.9613C77.895 89.9336 77.8648 89.7528 77.8472 89.5468C77.7869 89.5468 77.714 89.5644 77.6562 89.5468C77.714 89.5468 77.7869 89.5468 77.8472 89.5468C77.8623 89.7428 77.8924 89.9287 78.0106 89.9513L78.0131 89.9613ZM78.0709 89.9613C78.1278 89.9486 78.1817 89.9248 78.2292 89.891C78.1803 89.9224 78.1256 89.9438 78.0684 89.9538L78.0709 89.9613ZM62.1586 102.529C62.105 98.1277 62.0572 93.7268 62.0154 89.3258L62.7895 88.8661V88.8987L63.7496 88.7807C63.8473 88.8143 63.93 88.8815 63.9829 88.9702C64.0358 89.059 64.0556 89.1636 64.0386 89.2655C64.0738 93.7167 64.114 98.1679 64.1342 102.619C64.1342 103.021 64.1618 103.456 63.928 103.812C63.4254 104.3 62.9001 103.983 62.3898 103.865C62.2796 103.841 62.1748 103.797 62.0807 103.734C62.1742 103.796 62.278 103.84 62.3873 103.865C62.1259 103.443 62.1611 102.976 62.1561 102.521L62.1586 102.529ZM63.4555 78.258C63.3669 78.2536 63.2808 78.2268 63.2052 78.1803C63.1297 78.1337 63.0671 78.0689 63.0232 77.9918C63.0684 78.0682 63.1322 78.132 63.2087 78.1772C63.2851 78.2224 63.3718 78.2476 63.4605 78.2505L63.4555 78.258ZM49.1744 75.2864C49.2911 75.3149 49.3976 75.375 49.4823 75.4601C49.567 75.5452 49.6265 75.6519 49.6545 75.7686C50.6598 75.9646 51.5018 76.5223 52.4519 76.8739C51.5018 76.5323 50.6523 75.9646 49.6545 75.7686C49.6276 75.6502 49.5682 75.5416 49.4829 75.4551C49.3977 75.3686 49.29 75.3075 49.1719 75.2788L49.1744 75.2864ZM38.3568 66.301C38.3769 66.7557 38.3895 67.2053 37.8541 67.4289C38.387 67.2053 38.3744 66.7557 38.3543 66.301H38.3568ZM38.6082 65.668C38.6179 65.8161 38.5712 65.9624 38.4774 66.0775C38.5719 65.9629 38.6179 65.816 38.6056 65.668H38.6082ZM37.8541 67.4264C37.8189 67.5972 37.7938 67.768 37.7662 67.9288C37.7938 67.758 37.8189 67.5871 37.8541 67.4264ZM30.128 62.3824L30.1657 62.3472C30.1651 62.3115 30.1543 62.2768 30.1348 62.247C30.1152 62.2172 30.0876 62.1936 30.0551 62.1789C29.6957 61.473 28.919 61.8121 28.4063 61.5308C27.7956 60.5134 27.7805 60.3803 28.1902 59.3128C29.658 59.0616 30.8644 59.5313 31.8346 60.6692L32.0432 60.9681V60.9455C32.1311 61.1113 32.2166 61.2796 32.2945 61.4479H32.2719C32.3925 61.8926 32.4076 62.3774 32.7896 62.7039H32.7519C32.9564 64.1977 33.1583 65.6923 33.3577 67.1878C33.3577 67.3535 33.3577 67.5193 33.3577 67.6902L33.4582 67.7404L33.4104 67.9916C33.4859 68.5643 33.5587 69.1371 33.6341 69.7073C33.6341 69.8002 33.6543 69.8932 33.6668 69.9861C33.7347 70.5639 33.8051 71.1441 33.8755 71.7219C34.1921 74.4499 34.5113 77.1804 34.8381 79.9837L32.8826 81.2649C32.7519 80.1077 32.6229 78.9505 32.4956 77.7933C32.4604 77.7195 32.431 77.6431 32.4076 77.5647C32.4076 77.5321 32.4328 77.4869 32.4478 77.4492L32.2216 75.2813C32.1839 75.2117 32.1511 75.1396 32.1236 75.0653C32.1236 75.0327 32.1387 74.9875 32.1488 74.9473C31.7851 72.2042 31.4215 69.4603 31.0579 66.7155L31.0127 66.2131C30.7513 64.9119 30.9348 63.5329 30.1229 62.3849L30.128 62.3824ZM29.8591 88.8309C29.7654 88.8726 29.6891 88.9454 29.6433 89.0371C29.5974 89.1287 29.5849 89.2334 29.6077 89.3333C29.5852 89.2344 29.5973 89.1307 29.6421 89.0397C29.687 88.9487 29.7618 88.8758 29.854 88.8334L29.8591 88.8309ZM29.5424 85.166C29.5298 85.2394 29.497 85.3079 29.4477 85.3637C29.3985 85.4196 29.3346 85.4607 29.2634 85.4825C29.332 85.459 29.393 85.4174 29.4399 85.3622C29.4868 85.3069 29.5178 85.24 29.5298 85.1685L29.5424 85.166ZM29.291 89.5092C29.2558 89.5428 29.223 89.5788 29.193 89.6172C29.2191 89.5801 29.2476 89.5449 29.2785 89.5117L29.291 89.5092ZM29.2759 85.6257C29.2791 85.727 29.2584 85.8277 29.2156 85.9196C29.2589 85.8286 29.2804 85.7288 29.2785 85.6281L29.2759 85.6257ZM29.1201 89.7252C29.0925 89.7679 29.0698 89.8131 29.0447 89.8608C29.0648 89.8156 29.0874 89.7704 29.1151 89.7277L29.1201 89.7252ZM29.1201 86.0628C29.026 86.1527 28.9112 86.2183 28.7858 86.2537C28.9092 86.2183 29.0221 86.1536 29.1151 86.0653L29.1201 86.0628ZM26.7826 108.869C26.7861 108.977 26.7785 109.086 26.76 109.193C26.7767 109.087 26.7826 108.979 26.7776 108.871L26.7826 108.869ZM26.7625 109.195C27.3632 109.497 27.4789 110.007 27.499 110.559C27.4738 110.009 27.3582 109.499 26.7651 109.198L26.7625 109.195ZM27.6045 111.012C27.572 110.989 27.5375 110.97 27.5015 110.954C27.5359 110.971 27.5687 110.991 27.5995 111.014L27.6045 111.012ZM27.7428 111.469C27.8045 111.489 27.8606 111.523 27.9061 111.569C27.8589 111.523 27.8011 111.49 27.7377 111.471L27.7428 111.469ZM27.974 111.662C28.0104 111.76 28.0174 111.867 27.9941 111.969C28.0153 111.867 28.0065 111.762 27.969 111.665L27.974 111.662ZM28.263 112.466C28.2897 112.48 28.3142 112.498 28.3359 112.519C28.3125 112.498 28.2863 112.481 28.258 112.469L28.263 112.466ZM29.6152 110.374C29.5834 110.356 29.5531 110.336 29.5248 110.313C29.5526 110.336 29.5829 110.355 29.6152 110.371V110.374ZM29.2106 113.772C29.3983 113.842 29.5573 113.973 29.6621 114.144C29.7668 114.314 29.8114 114.515 29.7887 114.714C29.8092 114.514 29.7619 114.313 29.6543 114.143C29.5468 113.973 29.3852 113.844 29.1955 113.777L29.2106 113.772ZM29.7887 114.714C29.9583 114.764 30.1151 114.85 30.2486 114.965C30.1124 114.851 29.9529 114.767 29.7811 114.719L29.7887 114.714ZM29.8792 111.037C29.8809 111.06 29.8851 111.083 29.8917 111.105C29.8803 111.085 29.871 111.064 29.8641 111.042L29.8792 111.037ZM29.9043 111.14C29.9032 111.15 29.9032 111.16 29.9043 111.17C29.8984 111.162 29.8934 111.154 29.8892 111.145L29.9043 111.14ZM29.9445 111.223C29.9445 111.223 29.9319 111.23 29.9294 111.228L29.9445 111.223ZM34.2348 118.452C34.4136 118.419 34.5983 118.452 34.7548 118.544C34.9114 118.636 35.0293 118.782 35.0869 118.955C35.0281 118.78 34.9074 118.633 34.7477 118.542C34.5879 118.45 34.4002 118.42 34.2198 118.457L34.2348 118.452ZM35.0944 118.955C35.7906 118.794 36.3511 119.206 36.9719 119.397C36.3411 119.226 35.7756 118.816 35.0793 118.97L35.0944 118.955ZM47.4603 118.703C47.5439 118.696 47.628 118.696 47.7116 118.703C47.6227 118.698 47.5335 118.701 47.4452 118.713L47.4603 118.703ZM48.4657 118.249C48.487 118.173 48.5306 118.106 48.5907 118.056C48.6507 118.006 48.7245 117.975 48.8025 117.967C48.7228 117.975 48.6475 118.007 48.5868 118.059C48.5261 118.112 48.4829 118.181 48.4631 118.259L48.4657 118.249ZM52.7158 114.182C52.707 114.081 52.7189 113.98 52.7509 113.884C52.7829 113.788 52.8342 113.699 52.9018 113.624C52.8325 113.7 52.7799 113.79 52.7475 113.888C52.715 113.986 52.7034 114.089 52.7133 114.192L52.7158 114.182ZM53.2185 113.428C53.2063 113.334 53.2175 113.238 53.2512 113.149C53.2166 113.245 53.2079 113.348 53.226 113.448L53.2185 113.428ZM53.7212 112.526C53.7314 112.451 53.7618 112.38 53.8092 112.32C53.8565 112.26 53.9189 112.215 53.9901 112.187C53.9193 112.217 53.8577 112.265 53.8118 112.326C53.7658 112.388 53.7371 112.46 53.7287 112.536L53.7212 112.526ZM53.9901 112.185C53.9414 111.947 53.9597 111.7 54.0429 111.471C53.9584 111.707 53.9427 111.961 53.9976 112.205L53.9901 112.185ZM52.3539 110.592H52.4067C52.2207 110.592 52.1905 110.735 52.1553 110.876C52.0656 110.95 51.9927 111.043 51.9415 111.148C51.8904 111.253 51.8622 111.367 51.8587 111.484C50.9489 112.504 50.2703 113.702 49.28 114.672C43.6902 120.138 35.8334 118.229 32.106 113.903C31.4852 113.179 30.9398 112.396 30.3617 111.627C30.3215 111.499 30.2738 111.376 30.128 111.358C30.1357 111.26 30.1163 111.161 30.072 111.072C30.0278 110.984 29.9602 110.909 29.8766 110.856C29.8803 110.758 29.8591 110.66 29.8152 110.573C29.7713 110.485 29.706 110.409 29.6253 110.354C29.6253 110.256 29.6026 110.16 29.559 110.073C29.5153 109.985 29.452 109.91 29.374 109.851C29.3777 109.749 29.355 109.647 29.3078 109.556C29.2607 109.465 29.1909 109.387 29.105 109.331L29.1352 109.351C28.0218 106.189 27.2577 102.958 27.2778 99.5822C27.2778 99.2455 27.2778 98.9064 27.2979 98.5774C27.5241 95.352 28.4239 92.2975 29.6354 89.3183C29.7194 89.262 29.7869 89.1844 29.8311 89.0935C29.8752 89.0026 29.8945 88.9016 29.8867 88.8008H29.8666C29.9847 88.63 30.1003 88.4566 30.2185 88.2833C31.4224 86.2737 32.8022 84.3948 34.7124 82.9655C36.1591 81.8855 37.8777 81.2289 39.6763 81.0689C40.2796 81.0086 40.835 81.0539 41.3201 81.4759C42.6472 82.6314 44.2206 83.2619 45.9322 83.5884C48.4732 84.0758 49.843 86.0125 51.1877 87.9266C52.3173 89.5848 53.1979 91.3992 53.8016 93.3123C53.8544 93.473 53.9046 93.6338 53.9574 93.7971L54.0781 94.3171C54.5714 96.4228 54.8094 98.5802 54.7868 100.743C54.7391 104.247 53.7161 107.467 52.3614 110.612L52.3539 110.592ZM29.9847 111.28C30.0228 111.31 30.0641 111.335 30.1079 111.356C30.0691 111.341 30.032 111.323 29.9973 111.301L29.9847 111.28ZM57.1947 101.84C57.5037 101.716 57.8245 101.622 58.1523 101.562C57.8281 101.63 57.5115 101.73 57.2072 101.861L57.1947 101.84ZM59.708 99.0772C58.851 99.5168 58.0467 99.2933 57.1067 99.2556C56.981 93.8599 55.2292 89.0997 51.9467 84.7691C54.352 84.224 55.8676 85.2714 56.5286 86.8917C56.78 87.5071 57.0313 88.125 57.3254 88.7229C57.813 89.7277 58.6097 90.3406 59.9468 90.4637C59.6553 93.3725 59.7608 96.2262 59.7106 99.0873L59.708 99.0772ZM58.2 116.691C58.3584 116.739 58.4952 116.84 58.587 116.978C58.6787 117.115 58.7196 117.28 58.7027 117.445C58.7175 117.283 58.6762 117.12 58.5856 116.985C58.495 116.85 58.3606 116.75 58.205 116.701L58.2 116.691ZM57.4586 111.205C57.6421 109.507 58.148 107.86 58.949 106.352C58.1497 107.864 57.6456 109.515 57.4636 111.215L57.4586 111.205ZM59.9544 118.706C61.7748 119.447 63.7804 119.606 65.695 119.161C63.7831 119.608 61.7794 119.453 59.9594 118.716L59.9544 118.706ZM67.1779 114.742C66.6073 116.473 64.7147 117.714 63.0283 117.656C61.3418 117.598 59.8765 116.347 59.2883 114.438C59.0327 113.704 58.9243 112.928 58.9691 112.152C58.9239 110.298 59.4718 108.829 60.6254 107.646C62.2642 105.978 64.7374 106.048 66.082 107.955C67.5172 109.982 67.9847 112.325 67.1829 114.744L67.1779 114.742ZM66.0946 104.496L66.4314 102.84C67.4367 102.797 67.7182 103.42 67.9394 106.025L66.0946 104.496ZM68.7889 116.958C68.7889 116.726 68.8719 116.551 69.1207 116.508C68.8769 116.556 68.8015 116.729 68.794 116.96L68.7889 116.958ZM70.767 114.93C70.8691 114.922 70.9718 114.936 71.0681 114.972C71.1643 115.007 71.2519 115.062 71.325 115.134C71.2514 115.065 71.1641 115.012 71.0689 114.979C70.9736 114.946 70.8724 114.934 70.772 114.943L70.767 114.93ZM71.2169 111.245C71.3071 111.323 71.4181 111.371 71.5361 111.386C71.4212 111.374 71.3122 111.33 71.2219 111.258L71.2169 111.245ZM71.4833 115.491C71.5864 115.461 71.6952 115.458 71.7998 115.481C71.9044 115.505 72.0013 115.555 72.0815 115.626C72.0007 115.558 71.9041 115.511 71.8005 115.489C71.6969 115.468 71.5896 115.473 71.4883 115.503L71.4833 115.491ZM71.624 111.685C71.6716 111.772 71.748 111.841 71.8402 111.878C71.7518 111.843 71.6776 111.779 71.6291 111.697L71.624 111.685ZM72.2876 111.916L71.8351 111.808V111.878L71.5411 111.391C70.9706 108.188 70.302 105.011 69.4776 101.863C68.8643 100.218 68.5451 100.024 66.5369 100.082C66.4314 99.6701 66.3266 99.2581 66.2228 98.8462V98.0775C66.2569 98.0032 66.2862 97.9269 66.3107 97.8489L66.5143 97.7107C67.2683 97.4595 68.0073 97.663 68.7512 97.7509C70.5709 98.399 71.1465 99.9715 71.6316 101.614C72.3856 104.518 72.8405 107.475 73.3583 110.424C73.4681 110.828 73.4398 111.256 73.2779 111.642L72.9863 111.893L72.2876 111.916ZM83.0248 116.297C83.2459 116.23 83.4733 116.186 83.7034 116.166C83.4748 116.189 83.2491 116.236 83.0298 116.304L83.0248 116.297ZM88.3381 118.558C88.9438 118.688 89.5244 118.924 90.1326 119.08C89.5294 118.934 88.9463 118.698 88.3431 118.565L88.3381 118.558ZM96.1824 118.45C96.2282 118.366 96.2996 118.299 96.386 118.259C96.2999 118.303 96.2303 118.373 96.1874 118.46L96.1824 118.45ZM88.8935 116.596C91.7186 116.664 94.1943 115.237 96.8912 114.765C94.5411 116.726 92.083 118.224 88.8935 116.606V116.596ZM97.439 117.696C97.4893 117.41 97.5723 117.174 97.7859 117.121C97.5798 117.184 97.4969 117.42 97.4491 117.706L97.439 117.696ZM99.8921 114.885C99.9889 114.798 100.107 114.737 100.234 114.709C100.11 114.742 99.9969 114.806 99.9047 114.895L99.8921 114.885ZM101.139 112.047C102.164 112.268 103.187 112.298 104.198 111.866C103.197 112.308 102.167 112.285 101.161 112.057L101.139 112.047ZM102.355 109.683C103.062 109.683 103.783 109.59 104.434 109.987C104.43 110.019 104.436 110.051 104.449 110.08C104.463 110.108 104.485 110.133 104.512 110.15C104.828 110.18 104.982 110.303 105.014 110.512C104.972 110.303 104.818 110.18 104.512 110.15C104.781 110.796 104.6 111.346 104.155 111.841L104.198 111.866L100.701 111.939H100.176C100.101 111.912 100.02 111.912 99.9449 111.939L94.9181 111.959L94.6316 111.979H93.9329C93.2367 113.159 91.9523 113.365 90.8289 113.591C85.3798 114.684 79.8479 114.365 74.336 114.37C74.1275 114.396 73.9159 114.363 73.7255 114.274C73.5352 114.185 73.3739 114.044 73.2603 113.868C74.5597 113.21 75.3238 111.828 76.9524 111.625C77.7783 111.52 78.5791 111.27 79.3175 110.886L79.6367 110.635C79.6949 110.652 79.757 110.652 79.8152 110.635L80.4988 110.59L80.9814 109.899L81.0417 109.921C81.1214 109.824 81.2242 109.748 81.3408 109.7C81.2247 109.748 81.1226 109.824 81.0442 109.921L102.355 109.683ZM100.257 90.2301C100.088 90.2067 99.928 90.1378 99.7952 90.0307C99.6623 89.9236 99.5612 89.7824 99.5026 89.6222C99.5605 89.7856 99.6625 89.9299 99.7973 90.0389C99.9322 90.148 100.095 90.2176 100.267 90.2401L100.257 90.2301ZM98.3615 92.1794C98.7385 93.0058 99.0376 93.8699 99.3668 94.714C99.7528 95.2632 99.9455 95.925 99.9148 96.5954C99.9463 95.9257 99.7535 95.2645 99.3668 94.7165C99.6458 97.1858 99.9047 99.6575 99.3668 102.127C99.3392 102.393 99.309 102.662 99.2814 102.928C98.9345 104.172 98.9019 105.508 98.1856 106.643H98.2006C98.2484 107.379 97.7658 107.397 97.2279 107.397C95.6646 107.397 94.1013 107.397 92.5379 107.397C92.5606 107.309 92.5832 107.221 92.6033 107.146L92.8546 106.339C93.2266 104.036 93.6087 101.735 93.4679 99.3887L93.3623 99.12C92.9577 95.5153 91.4321 94.0734 87.2121 93.4454C88.4839 91.461 89.4264 89.3911 89.7858 87.1454C93.3825 86.761 96.8409 88.8184 98.3715 92.1894L98.3615 92.1794ZM93.9756 81.084C94.2647 82.561 94.0938 83.9125 94.1289 85.3166C92.6862 85.2513 91.4597 84.5631 90.007 84.7791C89.8134 83.5231 89.8813 82.3727 89.924 81.1041C91.3064 80.9157 92.6159 81.0212 93.9857 81.0941L93.9756 81.084ZM97.1802 79.4813C97.228 79.56 97.2956 79.6246 97.3764 79.6688C97.4572 79.7129 97.5481 79.7348 97.6401 79.7325C97.5508 79.7341 97.4625 79.7128 97.3837 79.6706C97.305 79.6284 97.2383 79.5667 97.1902 79.4914L97.1802 79.4813ZM98.1604 83.8346C98.731 84.4927 98.8239 85.3016 98.8667 86.1281C98.834 85.3117 98.741 84.5028 98.1705 83.8447L98.1604 83.8346ZM98.8993 86.8063C99.0007 86.8313 99.0947 86.8797 99.1737 86.9478C99.2527 87.0159 99.3146 87.1016 99.3543 87.1981C99.3129 87.1038 99.2503 87.0204 99.1714 86.9541C99.0925 86.8879 98.9994 86.8408 98.8993 86.8163V86.8063ZM102.167 80.4208C101.958 81.2347 102.267 81.8853 102.39 82.5585C102.496 83.1337 102.566 83.7166 102.622 84.2993C102.702 85.1635 102.119 85.6156 101.548 86.0577C100.543 85.7186 100.669 84.8369 100.5 84.1536C100.061 82.3626 99.4297 80.7147 97.708 79.7426L97.1601 79.4763C96.7705 79.1497 96.2854 79.0694 95.8079 78.9614C93.7745 78.5042 91.6935 78.5293 89.63 78.4062L89.4415 78.2354C89.0544 76.4645 88.9388 74.6282 88.127 72.9603H88.1521C88.3079 72.6186 88.1144 72.3097 88.0641 71.9856C87.941 71.3426 87.8128 70.6995 87.6896 70.0439C87.8672 70.0437 88.0415 70.0914 88.1941 70.1821C88.3468 70.2727 88.472 70.4028 88.5567 70.5588C90.5675 73.322 93.5131 74.4273 96.6272 75.2588C98.5274 75.7611 100.445 76.2133 102.24 77.0397C104.675 78.1626 106.5 81.9406 105.874 84.5756C105.761 84.8568 105.618 85.1254 105.449 85.3769C104.019 83.8999 104.389 81.3402 102.189 80.4309L102.167 80.4208ZM107.055 78.9312C107.045 79.0442 107.059 79.158 107.096 79.2653C107.068 79.1596 107.062 79.0494 107.078 78.9413L107.055 78.9312ZM107.133 79.3784C107.383 80.0013 107.583 80.643 107.731 81.2975C107.59 80.6436 107.398 80.0019 107.156 79.3784H107.133Z" fill="#1D2831"/>
<path d="M60.5245 119.432C60.5268 119.424 60.5268 119.416 60.5245 119.409H60.4895L60.5245 119.432Z" fill="#1D2831"/>
<path d="M98.1801 117.415C98.1618 117.413 98.1434 117.413 98.1251 117.415H98.1801Z" fill="#1D2831"/>
<path d="M97.9282 117.661H97.9088C97.9088 117.661 97.9088 117.661 97.9088 117.675L97.9282 117.661Z" fill="#1D2831"/>
<path d="M78.2891 89.567V89.582H78.3266L78.2891 89.567Z" fill="#1D2831"/>
<path d="M49.1935 75.7327C49.1935 75.7327 49.1935 75.7327 49.1935 75.7159H49.1791L49.1935 75.7327Z" fill="#1D2831"/>
<path d="M42.2749 98.2182C42.5263 99.3712 43.0289 100.532 42.1769 101.655L42.192 101.637C42.4232 101.931 42.0563 102.099 42.0487 102.343C43.2099 101.567 43.3657 99.5797 42.3755 98.1202C42.3894 97.936 42.3303 97.7536 42.2108 97.6126C42.0914 97.4716 41.9212 97.3833 41.7371 97.3666L42.1367 98.1202C42.1701 98.1679 42.2189 98.2025 42.2749 98.2182Z" fill="#1D2831"/>
<path d="M69.4927 39.0938C71.5637 39.0763 73.2226 37.2576 73.1924 35.0345C73.1623 32.8114 71.4155 31.0003 69.3796 31.038C67.3438 31.0757 65.5567 32.9521 65.5542 35.0571C65.5467 37.2325 67.3815 39.1089 69.4927 39.0938Z" fill="#1D2831"/>
</svg>
