<svg width="130" height="130" viewBox="0 0 130 130" fill="none" xmlns="http://www.w3.org/2000/svg">
<path d="M129.07 0.622253H0.384644V129.235H129.07V0.622253Z" fill="#149980"/>
<path opacity="0.3" d="M63.8475 123.207C86.543 123.207 104.941 120.395 104.941 116.927C104.941 113.458 86.543 110.647 63.8475 110.647C41.1519 110.647 22.7536 113.458 22.7536 116.927C22.7536 120.395 41.1519 123.207 63.8475 123.207Z" fill="#1D2831"/>
<path d="M53.789 60.6584C57.2851 60.2665 60.7963 60.156 64.3101 60.1209C67.2482 59.8345 70.9881 59.2341 70.8449 63.3864C71.1917 65.1046 69.8621 68.0662 71.9357 68.8751C85.4854 73.1077 90.0849 88.3479 88.524 101.179C83.9371 109.941 46.3519 107.263 37.457 104.035C37.7083 103.764 38.0275 103.503 37.8742 103.066C36.8086 97.9456 36.8712 92.6551 38.0577 87.5617C39.6864 80.0408 44.497 74.1829 50.0265 69.7141C50.6588 69.4505 51.2405 69.079 51.7456 68.6163C52.5524 70.3747 55.4705 67.3377 55.0382 65.921C54.8346 64.15 55.6489 61.721 53.789 60.6584ZM62.3496 80.7919C62.4175 77.7624 61.0653 74.4366 57.9964 73.4293C57.6068 73.2987 57.1444 73.2761 56.9307 73.7935C56.7171 74.311 57.1595 74.3185 57.4334 74.4768C59.1928 75.5896 62.1862 79.4379 57.9763 78.9079C54.4123 79.0284 50.9137 79.5308 47.5483 80.7316C46.6183 81.0631 46.6133 80.6487 46.7942 80.0308C48.4807 74.0824 57.6269 77.0515 58.4237 69.4252C58.7705 67.8401 56.8377 67.0815 56.5412 68.8826C55.6615 71.8342 53.4321 73.1705 50.6699 73.9066C39.4526 76.6145 44.9218 94.3867 55.8952 90.5333C54.0253 92.5228 50.6171 91.4577 48.3877 91.6235C55.0809 96.5646 62.5356 87.6245 62.3496 80.7793V80.7919ZM74.3058 90.0234C80.6044 90.5685 83.8793 81.2842 78.9154 76.9611C77.4073 76.3004 79.8177 76.1749 79.5261 75.1651C77.543 72.525 70.5734 74.5044 68.4672 68.6867C68.2837 68.2245 68.0952 67.5287 67.3688 67.7748C65.6472 69.0308 67.5196 71.8292 68.6959 72.9244C69.088 73.2886 69.2262 73.4268 68.5803 73.7332C66.8008 74.5597 65.8407 76.0794 65.2526 77.9106C62.6437 85.7706 72.0387 96.0722 78.6665 90.9729C78.5208 90.4152 77.9678 90.7594 77.5983 90.8298C75.5349 91.1538 73.2075 91.0659 71.4833 89.825C72.4358 89.7747 73.1295 90.1088 74.3058 90.0108V90.0234ZM63.9029 94.1003C61.0585 94.1253 58.2842 94.9858 55.9254 96.5746C54.92 97.1825 51.5823 100.172 54.3043 100.317C58.5946 97.8733 62.7166 95.2307 67.9369 97.0669C70.0004 97.1272 74.0922 101.086 75.2433 99.7297C75.2634 96.1853 67.0798 94.035 63.9029 94.0878V94.1003ZM64.2648 100.28C63.5485 100.28 61.9349 100.209 61.6031 101.106C61.95 102.111 66.3233 102.126 66.2931 100.9C66.1498 99.9205 65.0037 100.375 64.2648 100.267V100.28Z" fill="#FB5820"/>
<path d="M58.2326 12.0994C62.2691 10.0899 66.9088 12.3933 66.8284 16.621C66.8284 30.0399 66.8376 43.4572 66.8561 56.8728C66.8561 57.6516 66.6726 57.9606 65.8507 58.0234C64.0913 57.7722 57.3806 59.7089 58.024 56.8075C58.112 41.9919 57.1594 26.5634 58.2326 12.0994ZM65.0967 33.5039C64.594 30.364 66.3534 15.983 63.6113 15.2847C62.8774 15.3324 63.0734 16.0206 63.0835 16.4828C63.5208 29.3818 63.1564 42.3085 63.3524 55.2049C63.566 56.1972 64.5689 56.6142 65.0288 55.534C65.818 54.5543 64.966 53.6023 65.1017 52.5447C65.8231 51.8866 65.8281 51.2285 65.1017 50.5703C65.4511 45.0515 65.5868 39.0152 65.0967 33.5039Z" fill="#FD742C"/>
<path d="M80.5819 107.559C83.8091 106.502 87.8707 106.273 89.9141 103.171C90.1805 102.709 90.4319 102.757 90.8239 102.92C93.4731 103.714 93.4781 110.619 91.4749 111.963C92.1887 110.559 86.1968 112.666 85.385 112.568C73.2817 114.931 60.8355 114.931 48.7322 112.568C43.4164 111.528 38.2639 110.056 33.5262 107.351C31.7342 106.447 33.589 105.691 33.677 104.507C48.0938 110.833 65.1245 109.401 80.4411 107.562C78.3073 108.728 75.7486 108.225 73.5243 109.112C68.3819 112.428 84.45 109.775 85.5232 109.185C86.8176 109.119 91.3442 106.356 88.014 106.062C85.5609 106.7 83.1858 107.868 80.5819 107.559Z" fill="#FB5820"/>
<path d="M112.818 81.8746C112.705 87.5759 110.809 93.0986 107.395 97.6674C107.679 96.3285 107.503 95.4066 106.233 94.653C105.027 93.3217 101.981 94.6003 102.061 92.2742C101.581 88.0742 105.243 91.3121 106.5 89.2598C105.595 87.5969 102.571 88.3078 100.92 88.348C99.8996 88.2374 98.2408 89.6944 97.6803 88.4258C96.504 84.2861 103.283 83.6204 106.105 84.6227C107.03 84.698 108.443 85.9365 109.033 84.7558C108.43 81.0205 98.3413 81.6485 96.4914 84.7785C96.0742 85.2432 95.8907 85.2507 95.7374 84.5901C94.5938 77.6319 104.464 77.6495 109.011 79.335C110.501 80.164 111.114 78.275 109.621 77.7449C107.131 76.5191 104.381 76.3282 101.672 76.6347C101.036 76.5668 100.191 77.1923 99.8066 76.2604C98.4971 70.3321 114.397 70.4552 112.818 81.8746Z" fill="#FD742C"/>
<path d="M33.677 104.533C33.6067 105.718 31.7091 106.464 33.5262 107.376C38.264 110.089 43.4164 111.554 48.7322 112.594C60.8355 114.956 73.2818 114.956 85.385 112.594C87.1796 112.232 88.9791 111.885 90.7712 111.508C93.8375 111.453 87.0765 114.611 86.3627 114.485C73.5746 117.773 60.2033 117.356 47.2066 116.324C41.5113 115.61 35.3635 115.068 30.4323 111.875C28.5899 110.679 29.2183 108.313 29.1554 106.439C28.9468 104.364 32.0534 100.89 33.1769 104.058V104.023C33.1735 104.091 33.1839 104.159 33.2077 104.223C33.2314 104.286 33.2679 104.345 33.3149 104.394C33.3619 104.444 33.4185 104.483 33.4812 104.51C33.5439 104.536 33.6114 104.55 33.6795 104.55L33.677 104.533Z" fill="#D0331C"/>
<path d="M85.4628 43.788C85.7845 42.6501 85.9655 41.4594 86.6919 40.4722L87.657 40.849L87.6293 40.8138C89.4541 41.585 91.4397 41.5473 93.3398 41.9518C93.287 42.0472 92.7743 42.1401 93.2568 42.2331C98.2836 42.6224 103.31 42.6953 108.264 41.5951C109.4 41.3665 110.76 40.5777 111.76 41.904C111.574 42.1778 111.484 42.5672 111.989 42.6024C111.929 42.8737 111.816 43.1048 112.158 43.2203L112.13 43.2027C112.092 43.5092 112.042 43.8232 112.416 43.9789L112.381 43.9588C112.364 44.8707 112.251 45.8076 113.098 46.4708C114.259 50.1132 114.131 54.1298 113.256 57.8148L113.276 57.7696C112.857 58.1314 112.517 58.5745 112.275 59.072C112.034 59.5695 111.896 60.111 111.871 60.6634L111.894 60.6358C111.245 60.7689 111.421 61.3592 111.258 61.8315L111.28 61.8064C111.058 62.0246 110.86 62.2663 110.69 62.5273L110.73 62.4897L110.456 62.8011L110.501 62.7559L110.22 63.0699L110.267 63.0247C110.205 63.085 109.906 63.3839 110.016 63.2759L109.722 63.5774L109.767 63.5296L109.451 63.8034L109.491 63.7557L109.189 64.042L109.224 63.9968L108.923 64.248V64.2304L108.237 64.8157L108.269 64.7906L107.935 64.9941L107.915 64.974L107.48 65.3156L107.51 65.2855C107.344 65.3935 107.121 65.1573 107.068 65.401C106.967 65.3932 106.866 65.4147 106.777 65.4628C106.688 65.5109 106.614 65.5836 106.565 65.6723C106.464 65.661 106.362 65.6806 106.272 65.7286C106.182 65.7766 106.109 65.8507 106.063 65.9411H106.078C105.56 65.9009 105.072 65.9411 104.821 66.4937L104.849 66.4711C101.242 67.182 97.7407 67.3428 94.1516 66.7223L94.1843 66.7525C93.6012 66.225 92.9477 65.8908 92.1333 65.9838L92.1786 66.0114C91.9549 65.5593 91.3944 65.7276 90.9973 65.5542L91.0325 65.5844C89.3863 64.586 87.9247 63.3114 86.712 61.8165L86.7547 61.8541L86.2093 61.1005L86.2319 61.1282L86.0334 60.784H86.071L85.4905 59.8094L85.5206 59.837C85.1059 58.5458 83.8115 56.5915 85.116 55.544C85.4779 57.325 86.2344 59.214 87.2523 60.5805L87.2272 60.563L87.4786 60.8669L87.4635 60.8468C87.4459 61.1709 87.6344 61.1659 87.8706 61.2538C87.8179 61.5226 87.9812 61.6004 88.1999 61.6306C88.6875 61.8818 88.6423 62.6353 89.2404 62.6102L89.2103 62.5901L89.5395 62.8413L89.5194 62.8062C89.5194 62.9092 89.5395 63.0071 89.6828 62.9167C90.3689 63.2131 90.8565 63.9215 91.5125 64.1048L91.4799 64.0798C91.5214 64.1756 91.5927 64.2554 91.6833 64.3075C91.7738 64.3595 91.8788 64.381 91.9825 64.3686H91.9675C92.0181 64.4598 92.0959 64.533 92.19 64.578C92.2841 64.623 92.3899 64.6376 92.4928 64.6198L92.4701 64.6047C92.5757 64.8408 92.7818 64.8685 93.0055 64.8559L92.9854 64.8383C93.199 65.5115 93.7394 65.3935 94.2546 65.3684L94.2396 65.3533C94.4482 65.6999 95.4963 65.5392 96.0392 65.8708C101.033 68.1491 108.727 63.7054 111.494 59.0683L111.476 59.0859C112.034 58.9327 112.065 58.5232 111.979 58.056L111.959 58.0761C112.24 57.9656 112.258 57.747 112.145 57.5008C113.354 56.6016 112.803 55.4159 112.949 54.1775C113.603 54.4664 113.148 52.0424 113.291 51.5123C113.522 50.7587 112.869 50.4221 112.597 49.7715C111.972 48.2317 109.581 48.8923 108.239 48.5407C108.742 48.2518 109.3 48.3874 109.835 48.3573C111.439 48.1061 109.627 44.5893 109.182 43.6473C108.747 42.9515 108.108 42.9439 107.422 43.2328C105.806 44.313 108.176 46.8928 107.983 48.5281C104.027 48.1412 99.9249 48.6662 96.0668 48.0835C94.6015 47.5811 89.341 49.5907 90.286 46.9631C90.4418 45.7071 91.8745 43.5921 90.2005 42.8912C87.6872 43.0244 88.0667 47.1616 87.7073 49.0179C84.9626 49.3746 85.1235 49.1134 84.8495 51.8565C84.2539 51.6279 84.46 51.1029 84.4097 50.6733C84.3469 50.1458 84.568 49.5831 84.1986 49.0958C84.1681 48.9842 84.1647 48.8669 84.1888 48.7538C84.2128 48.6406 84.2636 48.5348 84.3368 48.4452C84.8571 48.6235 84.9501 46.2271 85.1888 45.682C85.317 45.0264 85.9982 44.4864 85.4628 43.788Z" fill="#C6DFC4"/>
<path d="M50.0266 69.7015C41.1242 76.2477 35.7003 88.0189 37.3541 99.476C37.0676 100.647 38.7038 103.824 37.2108 103.998C34.1344 102.993 33.7625 102.433 33.6443 99.167C32.6892 87.1748 37.9824 74.0045 50.0266 69.7015Z" fill="#D0331C"/>
<path d="M58.2328 12.0995C57.4612 20.9064 57.7955 30.5625 57.8533 39.7036C58.356 45.7851 57.2225 52.5146 58.4666 58.2695C56.1291 58.365 56.1291 58.365 56.0839 56.1017C55.8878 45.8629 55.7169 35.6241 55.4782 25.3878C55.8552 21.0622 53.2488 14.4381 58.2328 12.0995Z" fill="#D0331C"/>
<path d="M107.01 98.2903C106.507 100.217 95.1469 109.29 94.6945 105.919C95.1393 104.663 92.7089 102.42 94.0988 102.302C95.7275 101.885 97.2983 101.337 98.4243 99.9783C98.6757 99.6668 99.0451 99.8024 99.3643 99.7673C101.9 99.4734 104.813 99.8527 106.905 98.0943L107.01 98.2903Z" fill="#FD742C"/>
<path d="M80.5818 107.56C83.0952 108.376 87.6369 105.146 89.1047 106.484C89.3335 108.142 86.7371 108.723 85.5232 109.21C84.4751 109.795 68.3768 112.455 73.5242 109.137C75.8039 108.278 78.4002 108.682 80.5818 107.56Z" fill="#FA846F"/>
<path d="M53.789 60.6584C55.6514 61.7336 54.8346 64.1752 55.0457 65.9135C55.478 67.3353 52.56 70.3572 51.7532 68.6113C52.9772 66.2677 49.9687 60.9423 53.789 60.6584Z" fill="#D0331C"/>
<path d="M92.9876 96.8535C92.6936 96.5345 93.0706 96.2732 93.2742 96.0496L93.2465 96.0747C94.6691 95.6151 96.3707 95.8387 97.5394 94.7861L97.5243 94.8037C97.5952 94.7815 97.6648 94.7555 97.7329 94.7259C97.9063 95.3438 98.693 95.914 98.8916 95.7834C99.4646 95.4794 100.209 95.3287 100.304 94.4621C101.309 96.0949 103.147 96.1677 104.828 96.2205H104.813C105.529 97.175 105.198 96.9464 104.255 97.3986L104.215 97.3232C100.724 97.9637 97.2227 97.7678 93.7417 97.2227L93.7718 97.2428L92.9876 96.8535Z" fill="#C6DFC4"/>
<path d="M93.7996 75.7654C93.6614 72.9068 97.0092 72.726 97.3184 75.1927C97.8889 76.6421 97.6753 77.559 96.1999 78.3955C94.1163 80.2368 94.149 77.147 93.7996 75.7654Z" fill="#FD742C"/>
<path d="M88.2026 39.0253C88.2981 37.9803 93.9633 37.7316 95.2149 37.5483C94.3403 38.5154 92.4502 37.92 91.2061 38.3998C86.3326 39.5578 100.825 40.015 101.581 39.7211C102.946 39.5151 107.397 39.5202 108.063 38.6988C104.193 37.2896 99.5178 38.1963 95.4964 37.5282C99.9552 37.2418 104.414 37.395 108.757 38.3345L108.727 38.3119C109.071 38.6435 109.592 38.3873 109.77 38.9148C102.738 40.4094 95.225 40.6405 88.2026 39.0253Z" fill="#F0EDC7"/>
<path d="M98.4067 91.5255C98.4067 91.3547 98.839 91.0031 98.8189 91.101L100.01 90.7192C99.8067 91.9752 100.397 93.2965 100.247 94.5098C99.9047 93.9547 99.4247 93.4598 99.4925 92.7212C99.5604 91.9827 98.9195 92.0782 98.8064 92.6811C98.5751 93.0855 99.0577 93.8843 98.1353 93.9019L98.4067 91.5255Z" fill="#C6DFC4"/>
<path d="M100.058 71.4347C99.5781 71.6583 99.3041 72.1883 98.721 72.2712C98.9347 71.4473 98.1656 69.3322 99.475 69.5081C99.7515 69.4679 100.184 69.4025 100.184 69.7592C100.184 70.3144 100.666 70.9374 100.046 71.4423C100.242 69.6839 98.7889 69.2468 99.0779 71.2263C99.2413 71.7111 99.7389 71.2815 100.058 71.4347Z" fill="#C6DFC4"/>
<path d="M58.0693 117.062C58.7932 116.515 59.605 116.876 60.3615 116.894C62.2541 116.937 64.1618 116.643 66.0418 117.06C63.3851 117.178 60.726 117.133 58.0693 117.062Z" fill="#FB5820"/>
<path d="M84.3518 48.41C84.5908 46.8407 84.9624 45.2946 85.4627 43.788C85.9981 44.4864 85.3169 45.0264 85.2114 45.6368C84.9626 46.1919 84.8746 48.5859 84.3518 48.41Z" fill="#F0EDC7"/>
<path d="M104.824 96.228C103.517 96.0748 102.119 96.2883 101.026 95.281C102.255 95.7482 103.685 95.4493 104.824 96.228Z" fill="#F0EDC7"/>
<path d="M105.256 96.7429C105.142 96.7018 105.041 96.6318 104.963 96.5397C104.884 96.4477 104.831 96.3368 104.808 96.218C105.06 96.3059 105.321 96.3887 105.256 96.7429Z" fill="#F0EDC7"/>
<path d="M33.6843 104.545C33.6162 104.545 33.5487 104.531 33.486 104.505C33.4233 104.478 33.3667 104.439 33.3197 104.389C33.2727 104.34 33.2362 104.281 33.2125 104.218C33.1887 104.154 33.1782 104.086 33.1817 104.018L33.6843 104.545Z" fill="#FB5820"/>
<path d="M65.0289 55.5341C64.1568 57.197 63.0031 55.2452 63.3072 54.0796C63.2494 41.5474 63.4681 29.0101 63.0835 16.4829C63.0835 16.0207 62.8774 15.3324 63.6088 15.2847C66.3912 16.2593 64.5664 29.4647 65.1018 32.7454C65.044 40.3416 65.2048 47.9429 65.0289 55.5341Z" fill="#FA846F"/>
<path d="M65.0993 50.0278C65.0993 44.5198 65.0993 39.0119 65.0993 33.504C65.7402 38.5028 65.1244 43.8458 65.3305 48.9576C65.328 49.3269 65.3908 49.7163 65.0993 50.0278Z" fill="#FB5820"/>
<path d="M65.102 52.5447V50.5703C65.8283 51.2285 65.8233 51.8866 65.102 52.5447Z" fill="#FB5820"/>
<path d="M65.0291 55.534L65.0969 53.346C65.4136 54.0845 65.5518 54.8206 65.0291 55.534Z" fill="#FB5820"/>
<path d="M65.0944 32.9538C65.0856 32.8855 65.0856 32.8162 65.0944 32.7478C65.1321 32.8282 65.2075 32.9011 65.0944 32.9538Z" fill="#FB5820"/>
<path d="M87.7223 48.9828C88.0767 47.1264 87.7047 42.9892 90.2156 42.856C91.887 43.5569 90.4669 45.6821 90.3011 46.928C89.2957 49.8419 95.6119 47.0862 97.0294 48.292C93.9354 48.4829 90.7459 48.6562 87.7223 48.9828Z" fill="#F0EDC7"/>
<path d="M108 48.493C108.191 46.8577 105.826 44.2829 107.44 43.1977C108.126 42.9088 108.764 42.9163 109.199 43.6122C109.647 44.5516 111.461 48.0684 109.853 48.3221C109.229 48.2241 108.548 48.4578 108 48.493Z" fill="#F0EDC7"/>
<path d="M109.863 40.8138L111.3 40.5124L111.728 41.8337C110.662 40.5777 109.405 41.3615 108.264 41.5825C103.3 42.6828 98.2912 42.6099 93.2568 42.2206C97.4919 41.4996 104.841 42.7908 109.863 40.8138Z" fill="#F0EDC7"/>
<path d="M108.209 49.3797C108.059 49.1301 108.002 48.8357 108.048 48.5482C109.742 48.4151 111.026 48.5482 110.866 50.5578C109.488 50.9899 108.159 51.2109 108.209 49.3797Z" fill="#F95F39"/>
<path d="M87.7225 48.9828C87.7826 49.0179 87.8494 49.0401 87.9186 49.0481C87.8381 49.6459 87.7301 50.2563 87.6672 50.8491C84.1686 50.5728 84.2691 49.1686 87.7225 48.9828Z" fill="#9B7B23"/>
<path d="M84.8597 53.5746C84.9451 54.2194 85.0289 54.8633 85.111 55.5063C84.6083 55.6746 84.7616 56.2599 84.4525 56.5614C83.8794 54.0494 84.0855 51.5852 84.2012 49.0606C84.8521 49.8996 83.8418 51.2285 84.8521 51.8238C85.0055 52.4392 84.46 53.0773 84.8597 53.5746ZM84.6787 54.8633L84.538 54.597C84.491 54.6596 84.4643 54.735 84.4616 54.8132C84.4589 54.8913 84.4803 54.9685 84.5229 55.0341L84.6787 54.8633Z" fill="#F0EDC7"/>
<path d="M110.861 50.5603C110.775 49.965 110.692 49.3696 110.609 48.7743C112.816 48.6009 113.419 50.4799 110.861 50.5603Z" fill="#13233E"/>
<path d="M96.0617 65.8357C98.2157 66.0693 100.37 66.2401 102.506 65.6799C102.333 66.7224 96.1824 66.6144 96.0617 65.8357Z" fill="#F0EDC7"/>
<path d="M104.854 66.436C102.34 67.5287 99.4473 67.6216 96.7555 67.3101C96.7582 67.2469 96.7531 67.1837 96.7404 67.1217C99.5001 67.3754 102.152 66.7751 104.854 66.436Z" fill="#F0EDC7"/>
<path d="M112.967 54.1424C113.14 52.8587 113.01 51.5827 112.884 50.3066C113.47 50.5327 113.306 51.0601 113.309 51.4746C113.165 52.0122 113.618 54.4212 112.967 54.1424Z" fill="#F0EDC7"/>
<path d="M112.057 60.5906C111.997 60.6182 111.934 60.6433 111.871 60.6659C111.904 59.5757 112.419 58.694 113.092 57.8827C112.781 58.802 112.547 59.7466 112.057 60.5906Z" fill="#F0EDC7"/>
<path d="M112.381 43.9589C112.745 44.7553 112.987 45.6022 113.098 46.4709C112.251 45.8077 112.364 44.8707 112.381 43.9589Z" fill="#F0EDC7"/>
<path d="M112.162 57.4657C112.394 56.5899 112.627 55.7132 112.861 54.8357C113.236 55.8857 112.959 56.7398 112.162 57.4657Z" fill="#F0EDC7"/>
<path d="M95.0388 67.0614L94.1566 66.6897C95.0418 66.5795 95.9398 66.7333 96.7378 67.1318C96.1706 67.1433 95.6031 67.1198 95.0388 67.0614Z" fill="#F0EDC7"/>
<path d="M94.1893 66.7198C93.4704 66.5697 92.7788 66.3105 92.1384 65.9512C92.9527 65.8583 93.6062 66.1848 94.1893 66.7198Z" fill="#F0EDC7"/>
<path d="M93.0078 64.8032L94.277 65.3332C93.7693 65.3584 93.2214 65.4764 93.0078 64.8032Z" fill="#F0EDC7"/>
<path d="M105.492 66.328L104.826 66.4662C105.077 65.9236 105.565 65.8733 106.083 65.9135L105.492 66.328Z" fill="#F0EDC7"/>
<path d="M111.499 59.0508L112.002 58.0209C112.087 58.4881 112.057 58.9001 111.499 59.0508Z" fill="#F0EDC7"/>
<path d="M111.894 60.6384C111.828 60.981 111.635 61.2862 111.353 61.4925C111.321 61.073 111.444 60.7539 111.894 60.6384Z" fill="#F0EDC7"/>
<path d="M112.13 43.2027L112.416 43.979C112.042 43.8282 112.092 43.5092 112.13 43.2027Z" fill="#F0EDC7"/>
<path d="M111.713 41.9543L111.989 42.6024C111.497 42.5546 111.592 42.2607 111.713 41.9543Z" fill="#F0EDC7"/>
<path d="M88.7126 62.0877L89.2505 62.5726C89.1817 62.5846 89.1112 62.5807 89.0441 62.5614C88.977 62.5421 88.9153 62.5078 88.8634 62.4611C88.8116 62.4144 88.7711 62.3564 88.745 62.2918C88.7188 62.2271 88.7078 62.1573 88.7126 62.0877Z" fill="#F0EDC7"/>
<path d="M111.165 59.5682C111.28 59.3898 111.399 59.2115 111.517 59.0332C111.533 59.1499 111.506 59.2685 111.442 59.367C111.377 59.4655 111.278 59.537 111.165 59.5682Z" fill="#F0EDC7"/>
<path d="M87.4736 60.8091L87.833 61.1658C87.5565 61.206 87.4836 61.0402 87.4736 60.8091Z" fill="#F0EDC7"/>
<path d="M87.8805 61.2161L88.2097 61.5929C87.9911 61.5627 87.8277 61.4848 87.8805 61.2161Z" fill="#F0EDC7"/>
<path d="M90.9849 63.7154L91.5227 64.0697C91.4053 64.0861 91.286 64.0591 91.187 63.9939C91.088 63.9287 91.0161 63.8297 90.9849 63.7154Z" fill="#F0EDC7"/>
<path d="M91.4897 64.0446L91.9924 64.3334C91.8887 64.3458 91.7837 64.3244 91.6931 64.2724C91.6026 64.2203 91.5312 64.1404 91.4897 64.0446Z" fill="#F0EDC7"/>
<path d="M91.9899 64.3234L92.5152 64.5746C92.4124 64.5924 92.3066 64.5778 92.2125 64.5328C92.1183 64.4878 92.0405 64.4146 91.9899 64.3234Z" fill="#F0EDC7"/>
<path d="M92.4928 64.5671L93.0281 64.8183C92.8044 64.8309 92.5983 64.8032 92.4928 64.5671Z" fill="#F0EDC7"/>
<path d="M94.2619 65.3182L94.7093 65.4312C94.5007 65.6272 94.3499 65.5895 94.2619 65.3182Z" fill="#F0EDC7"/>
<path d="M107.073 65.396C107.015 65.6472 106.781 65.612 106.57 65.6673C106.619 65.5786 106.692 65.5059 106.782 65.4578C106.871 65.4097 106.972 65.3883 107.073 65.396Z" fill="#F0EDC7"/>
<path d="M92.1833 65.9788L91.5424 65.6523C91.67 65.6323 91.8007 65.6532 91.9158 65.7118C92.0309 65.7704 92.1245 65.8639 92.1833 65.9788Z" fill="#F0EDC7"/>
<path d="M106.58 65.6573L106.077 65.9261C106.124 65.8357 106.197 65.7616 106.287 65.7136C106.377 65.6656 106.479 65.646 106.58 65.6573Z" fill="#F0EDC7"/>
<path d="M111.979 42.6978L112.152 43.2204C112.098 43.2081 112.048 43.1821 112.007 43.1449C111.966 43.1077 111.936 43.0605 111.918 43.008C111.901 42.9554 111.897 42.8993 111.908 42.845C111.919 42.7906 111.943 42.7399 111.979 42.6978Z" fill="#F0EDC7"/>
<path d="M111.979 58.041C112.047 57.8627 112.115 57.6843 112.18 57.5059C112.21 57.5525 112.229 57.6056 112.236 57.661C112.242 57.7163 112.235 57.7723 112.215 57.8244C112.196 57.8765 112.164 57.9233 112.123 57.9609C112.082 57.9986 112.032 58.026 111.979 58.041Z" fill="#F0EDC7"/>
<path d="M107.274 65.3181C107.247 65.345 107.214 65.3662 107.178 65.3804C107.142 65.3946 107.104 65.4016 107.066 65.401C107.103 65.2904 107.159 65.2277 107.274 65.3181Z" fill="#F0EDC7"/>
<path d="M89.5296 62.771C89.5637 62.7742 89.5965 62.786 89.6248 62.8052C89.6532 62.8244 89.6763 62.8505 89.692 62.8809C89.5496 62.9708 89.5371 62.8734 89.5296 62.771Z" fill="#F0EDC7"/>
<path d="M87.1443 60.367C87.1755 60.3855 87.202 60.4111 87.2216 60.4416C87.2413 60.4721 87.2535 60.5068 87.2574 60.5428C87.1544 60.5278 87.0664 60.5002 87.1443 60.367Z" fill="#F0EDC7"/>
<path d="M73.6094 118.655C73.4893 118.744 73.3491 118.801 73.2013 118.823C73.0535 118.844 72.9027 118.829 72.7623 118.778C73.0194 118.633 73.3215 118.589 73.6094 118.655Z" fill="#2D8F88"/>
<path d="M95.2149 37.5483C95.5994 37.7543 111.318 37.9 107.407 39.0681C101.878 39.7111 95.323 40.6255 90.1755 38.8169C90.3113 37.8447 94.9987 38.5531 95.2149 37.5483Z" fill="#C6DFC4"/>
<path d="M101.295 37.4278L101.385 37.3624L101.473 37.4353C101.446 37.4536 101.415 37.4627 101.382 37.4614C101.35 37.46 101.319 37.4482 101.295 37.4278Z" fill="#2D8F88"/>
<path d="M100.01 90.7192C100.573 90.9704 100.041 92.3771 100.181 93.0152C99.8546 92.2716 100.053 91.4854 100.01 90.7192Z" fill="#7099A6"/>
<path d="M97.5396 67.4156L99.2437 67.486C98.6845 67.6592 98.0826 67.6344 97.5396 67.4156Z" fill="#2D8F88"/>
<path d="M95.9639 67.1368H96.7405C96.7532 67.1988 96.7583 67.2621 96.7556 67.3252L95.9639 67.1368Z" fill="#C6DFC4"/>
<path d="M99.7691 67.4734L100.468 67.4257C100.371 67.505 100.251 67.5522 100.126 67.5607C100.001 67.5693 99.8761 67.5387 99.7691 67.4734Z" fill="#2D8F88"/>
<path d="M98.1554 93.9195C98.1934 94.0265 98.1885 94.1442 98.1416 94.2476C98.0947 94.3511 98.0096 94.4325 97.9041 94.4747L98.1554 93.9195Z" fill="#C6DFC4"/>
<path d="M60.306 80.92C60.399 82.5125 59.8034 84.168 59.0292 85.4566C58.4285 86.0369 57.8555 86.6447 57.2246 87.1923L57.2422 87.1773C55.048 88.4584 52.5598 89.1291 50.0665 88.1143L50.0841 88.1319L49.2647 87.6772L49.2949 87.7073C48.9529 87.4492 48.6319 87.1645 48.3348 86.8558L48.3599 86.8809C47.4702 85.8761 46.7262 84.6201 46.7337 83.221C48.3373 83.015 50.2525 81.8871 51.7178 82.1885C51.2805 84.2659 53.7511 85.9188 55.2994 84.2383L55.2818 84.2534C55.3723 84.1604 55.4653 84.07 55.5583 83.9796L55.5407 83.9996C56.3374 83.2184 56.4631 82.2413 56.2947 81.2114V81.234C57.5639 80.719 58.9739 80.9576 60.306 80.92Z" fill="#FBE6B4"/>
<path d="M79.1516 82.1458C79.7347 82.7035 79.0687 83.6957 79.0762 84.4342L79.1013 84.3991C78.9732 84.6502 78.8324 84.8738 78.7092 85.12C78.669 85.228 78.6313 85.336 78.5911 85.4415L78.6112 85.4164L78.2594 85.8585L78.2795 85.8409L78.0608 86.1801L78.1035 86.1373L77.8245 86.4363C77.9452 86.3157 77.4928 86.7603 77.6008 86.6447C75.6253 88.3303 72.7223 88.1243 70.4226 87.1145L70.4402 87.1346L69.9576 86.8306L69.9752 86.8457L69.367 86.4262L69.3921 86.4513L69.1131 86.175L69.1383 86.2026L68.8618 85.9188L68.892 85.9489C68.8794 85.3536 68.8492 85.1502 68.2837 84.9919L68.3038 85.012C68.3038 84.7758 68.241 84.5875 67.972 84.5422L68.0248 84.4845L67.9821 84.5498C67.776 81.7339 66.0191 80.2669 70.2668 81.2717C70.8599 81.4148 70.7443 82.0905 70.9856 82.5075C71.5109 82.7587 71.5084 83.4797 72.0588 83.7635L72.0362 83.7384L72.3479 83.9896L72.3227 83.9695C73.308 84.7231 74.5697 84.6101 75.2156 83.4847L75.193 83.5123C76.3316 80.5206 74.7155 81.337 79.1516 82.1458Z" fill="#FBE6B4"/>
<path d="M69.9902 78.6717C64.9031 79.3676 67.9418 76.102 69.9123 74.218C70.136 73.9995 70.3899 74.0899 70.6085 74.218C72.8706 75.8006 76.6105 74.8761 77.8521 77.7222C78.0708 78.3552 79.1088 79.1591 78.8072 79.777C76.0978 79.5359 72.9435 78.3753 69.9902 78.6717Z" fill="#FB5820"/>
<path d="M71.2974 82.696C71.1919 82.6357 71.0461 82.598 70.9858 82.5076C70.85 80.9426 69.2716 81.0808 68.0426 80.9652C66.3913 81.2692 68.3643 83.4772 67.9823 84.5498C67.268 83.3933 66.9438 82.0382 67.0573 80.6839C68.9826 80.7844 71.4884 79.8097 71.2974 82.696Z" fill="#F4EBC2"/>
<path d="M68.2838 84.9919C68.5829 85.1477 69.0378 85.1853 68.8368 85.7178L68.6231 85.655L68.6558 85.7028C68.4538 85.5156 68.3224 85.2646 68.2838 84.9919Z" fill="#F4EBC2"/>
<path d="M67.972 84.5423C68.2409 84.5875 68.3088 84.7759 68.3038 85.012L67.972 84.5423Z" fill="#F4EBC2"/>
<path d="M108.433 50.5679L108.543 50.8191C102.592 51.3918 95.3732 52.3061 89.9292 50.5829C90.3941 50.2162 90.1252 49.754 90.0925 49.3269C90.5952 49.018 91.2763 49.1235 91.7187 48.6563C91.97 49.0331 92.2214 48.9979 92.4551 48.6336C97.1627 49.0984 101.916 48.3573 106.666 48.7592C108.878 48.8522 107.779 49.6686 108.433 50.5679Z" fill="#D0331C"/>
<path d="M89.6877 52.3387C89.5595 55.5817 91.7361 58.581 92.0603 61.5074C88.808 60.5679 88.0012 54.3131 87.8705 51.2837C88.2802 51.9745 88.5642 52.8712 89.6877 52.3387Z" fill="#9B7B23"/>
<path d="M110.471 53.2857C110.029 55.4938 109.574 59.94 106.736 60.0304C106.266 59.6863 106.879 59.322 107.063 59.0256C107.935 57.6415 108.254 56.1117 108.372 54.5192C108.058 52.7156 110.205 51.2862 110.471 53.2857Z" fill="#9B7B23"/>
<path d="M89.6878 52.3388C88.4035 52.9592 87.9561 51.5476 87.6771 50.701C88.5417 51.1657 89.5848 50.4322 90.296 51.0225C89.5119 51.1908 89.7783 51.8489 89.6878 52.3388Z" fill="#13233E"/>
<path d="M84.8596 53.5747C84.8065 53.5282 84.7634 53.4713 84.733 53.4077C84.7026 53.344 84.6854 53.2748 84.6826 53.2043C84.6798 53.1338 84.6914 53.0635 84.7166 52.9976C84.7418 52.9317 84.7802 52.8716 84.8294 52.8211L84.8596 53.5747Z" fill="#C6DFC4"/>
<path d="M89.9039 50.7336C89.1741 50.9252 88.4058 50.9139 87.682 50.701C87.5865 49.0481 88.4813 48.611 90.0295 48.7667C90.1125 49.4249 89.9793 50.0881 89.9039 50.7336Z" fill="#EC817A"/>
<path d="M91.7186 48.6562C91.9578 48.6168 92.2 48.5983 92.4424 48.601C92.3117 48.9878 91.9523 49.0431 91.7186 48.6562Z" fill="#13233E"/>
<path d="M93.9681 48.4728C93.8877 48.5884 93.7997 48.5884 93.7017 48.4929L93.9681 48.4728Z" fill="#9B7B23"/>
<path d="M92.2515 73.4695C92.2665 73.4695 92.2716 73.4544 92.2716 73.4393L92.2515 73.4695Z" fill="#1D2831"/>
<path d="M111.871 60.6575C111.885 60.6575 111.89 60.6453 111.893 60.6308L111.871 60.6575Z" fill="#1D2831"/>
<path d="M111.165 59.5682C111.28 59.3898 111.399 59.2115 111.517 59.0332C111.607 58.782 111.853 58.3374 111.997 58.0284L111.977 58.0485C112.791 55.436 113.62 52.4066 112.615 49.7439C109.808 51.8565 98.8819 51.4269 94.9157 51.3867C93.4077 51.6957 89.4014 49.8242 89.6879 52.3463C89.5597 55.5892 91.7363 58.5885 92.0605 61.515C90.1202 61.309 89.3988 58.4052 88.7177 56.8151C87.2097 53.5822 89.6075 50.7612 85.1185 50.2362C84.7642 52.0109 84.7709 53.8387 85.1384 55.6107C85.5059 57.3827 86.2265 59.0627 87.2574 60.5504L87.2323 60.5328L87.4836 60.8368L87.4686 60.8166C88.0592 61.4095 88.6021 62.0425 89.2455 62.575L89.2154 62.555L89.5446 62.8062L89.5245 62.771L91.5176 64.0697L91.485 64.0445L91.9876 64.3334H91.9726L92.4978 64.5846L92.4752 64.5696L93.0106 64.8208L92.9905 64.8032L94.2597 65.3332L94.2447 65.3181C100.44 67.4408 107.546 65.0142 111.165 59.5682ZM107.988 59.6737C107.106 60.5755 105.957 59.94 107.07 59.0307C108.382 57.1969 108.109 54.9663 108.669 52.9366C112.256 50.1282 109.506 58.8774 107.988 59.6737Z" fill="#1D2831"/>
<path d="M97.8488 48.6663C100.362 48.8044 106.422 48.086 108.204 49.3797C107.97 49.1285 108.103 48.7693 108.003 48.493C102.82 48.2418 97.5245 48.1438 92.4425 48.6009C94.1843 49.1611 96.0668 48.7492 97.8488 48.6663Z" fill="#1D2831"/>
<path d="M90.0926 49.3269C90.5953 49.0104 91.3116 49.1285 91.7338 48.6336L90.0298 48.7668C90.0448 48.9602 90.0574 49.1562 90.0725 49.3496L90.0926 49.3269Z" fill="#1D2831"/>
<path d="M108.433 50.5679C108.387 50.3016 108.342 50.0328 108.294 49.764C108.083 50.0755 108.103 50.3594 108.433 50.5679Z" fill="#1D2831"/>
<path d="M49.0009 67.4407C49.0185 67.4407 49.0236 67.4207 49.0311 67.4081L49.0009 67.4407Z" fill="#1D2831"/>
<path d="M102.931 69.0912C112.014 67.7196 117.327 57.9305 115.561 49.3094C115.259 46.3553 114.201 43.5921 113.459 40.746C112.705 37.4679 110.277 36.6641 107.427 36.0035L107.498 35.9582C101.968 35.3905 96.112 34.77 90.6579 36.1365V36.0688C90.339 36.1182 90.0234 36.1869 89.7129 36.2747C87.4508 36.762 85.0882 37.5634 84.5453 40.1432C84.1784 41.9619 82.9594 43.8056 83.1479 45.6394C82.1802 48.4025 81.851 51.9193 82.331 54.6649C82.2833 56.2876 82.879 58.2796 83.633 59.8772H83.6179C83.833 60.604 84.1797 61.2851 84.6409 61.8868C86.8401 65.9059 91.0324 68.1893 95.3755 69.1313C96.6322 69.3624 97.1098 70.1512 96.7805 71.3419C96.4638 72.0678 94.3828 71.1308 93.5131 71.9975L93.5483 71.9372C92.9375 72.6154 92.2087 73.2334 92.1483 74.1553L92.1911 74.1327C91.4371 76.1272 92.073 77.9358 92.9451 79.7093C93.028 79.8826 93.1085 80.0534 93.1964 80.2117L93.4729 80.7141H93.4603C94.1138 82.4599 92.9954 84.482 94.1968 86.2404C94.5838 87.4336 95.6746 88.1621 96.1321 89.3879H96.0692L96.3507 89.6894V89.6516C97.155 90.2495 96.1572 91.4754 96.3909 92.3169C96.5216 94.7761 92.7139 92.671 90.7484 95.7381C90.7484 91.6763 90.2658 87.5039 88.7955 83.6606L88.8181 83.6756C88.5894 82.6181 88.0892 81.6184 87.5815 80.6387L87.2498 79.9127C87.1693 79.7444 87.0864 79.5761 86.9984 79.4103L86.7345 78.9079V78.8929L86.5133 78.5889L86.5787 78.6015C86.4794 78.222 86.2817 77.8754 86.0056 77.5967L85.7317 77.1345C84.4524 74.9491 82.7407 73.0927 80.8934 71.377L80.9286 71.4198L80.6295 71.1409L80.6647 71.1861L80.3606 70.9023L80.4033 70.9525C79.2089 70.0992 77.9688 69.3118 76.6885 68.5938L76.1858 68.32C75.658 68.0537 75.1805 67.702 74.6275 67.5438C71.5285 67.0414 73.5794 63.1704 72.5892 60.8368L72.6218 60.8569L72.1393 59.8219C71.5587 58.6916 70.1436 58.1842 68.9523 58.0184C69.0453 43.9789 68.9523 29.927 68.9925 15.8825C68.8494 14.6121 68.394 13.3967 67.6669 12.3448C66.9398 11.2929 65.9636 10.4371 64.8253 9.85379L64.8479 9.87642C63.6684 9.35646 62.3926 9.0904 61.1035 9.09559C59.8144 9.10079 58.5408 9.37708 57.3656 9.90653L57.3907 9.87893C56.1843 10.3487 55.478 11.7378 54.4551 12.1221C54.7818 12.2301 54.4928 12.421 54.5154 12.5692C51.5672 17.45 54.0127 26.3851 53.5829 32.1626C53.7538 40.7385 53.97 49.3069 54.0856 58.036C53.4321 58.8498 52.2759 58.4128 51.5546 59.0408C48.5209 60.7439 50.4688 64.7881 49.5665 67.1192V67.0916C49.2782 67.3633 48.9194 67.5486 48.531 67.6267L48.5586 67.5915C46.0754 69.0987 43.4137 70.4778 41.2447 72.3969L41.2799 72.3517L40.9933 72.638L41.021 72.5979C40.4379 73.2083 39.8573 73.8262 39.234 74.3939L39.2541 74.3588C37.3866 76.8707 35.3508 79.4731 34.3429 82.3594L34.1092 82.8769C33.83 83.2402 33.6615 83.6763 33.6241 84.1328H33.6467C31.4123 89.408 31.5983 95.1152 31.6511 100.712C31.2464 100.787 30.8568 100.963 30.4547 101.064L30.4798 101.038C29.7375 101.44 29.101 102.012 28.6224 102.706V102.684C28.3711 102.704 28.356 102.96 28.2706 103.159H28.3158L28.1147 103.455C27.798 103.706 27.7126 104.186 27.4688 104.585L27.514 104.55C27.0918 106.944 26.6017 109.996 28.1499 112.086L28.1198 112.068C28.3711 112.332 28.4741 112.822 28.8738 112.85C28.8702 112.884 28.8743 112.918 28.8857 112.95C28.897 112.982 28.9154 113.011 28.9395 113.035C28.9636 113.059 28.9928 113.078 29.0249 113.089C29.057 113.1 29.0912 113.104 29.1251 113.101C29.1251 113.269 29.2332 113.337 29.3764 113.352V113.327L29.6454 113.598L29.6253 113.576C42.5265 121.38 77.2113 120.823 91.05 114.729C93.1185 113.699 94.6969 111.714 94.7396 109.343C102.803 106.278 109.669 100.86 112.62 92.2365C113.116 91.2933 113.475 90.2842 113.686 89.2397L113.635 89.2548C114.027 88.6368 114.098 87.931 114.198 87.2452H114.14C115.372 83.4973 115.259 79.026 113.653 75.3837C113.286 74.0649 112.24 73.0576 111.253 72.1558L111.29 72.206L110.788 71.8945C110.363 71.6433 109.941 71.3921 109.491 71.1661L109.516 71.1937C107.45 70.4099 105.346 70.0683 103.149 70.5833C102.111 71.2087 101.848 69.2243 102.931 69.0912ZM88.2601 38.6812C92.4877 37.3976 97.0419 37.4704 101.395 37.3624C104.062 37.8648 107.52 37.3775 109.785 38.9148C104.28 40.0979 92.6083 41.1203 88.2501 38.6812H88.2601ZM94.4456 86.7604C94.5185 86.7855 94.6014 86.8056 94.6718 86.8332C94.5914 86.8056 94.5084 86.783 94.4355 86.7604H94.4456ZM94.2194 77.775C92.6284 74.4718 95.9963 71.2439 97.3184 75.1928C97.8889 76.6422 97.6753 77.559 96.1999 78.3955C94.7246 79.232 94.8352 79.3952 94.2093 77.775H94.2194ZM97.4642 94.8037C96.783 94.9343 96.1019 95.0549 95.4233 95.1956C96.0919 95.0574 96.773 94.9343 97.4541 94.8037H97.4642ZM93.2542 96.0773C94.9081 95.5447 97.4868 95.8688 98.1453 93.907C98.3966 92.9976 97.9945 91.6336 98.849 91.0533L98.8189 91.1061C101.689 89.6416 99.0828 94.2712 101.026 95.286C102.255 95.7533 103.672 95.4543 104.823 96.2331H104.808C105.871 96.6023 104.904 97.2655 104.25 97.4112L104.21 97.3358C100.719 97.9763 97.2178 97.7804 93.7368 97.2353C93.111 96.9666 92.4776 96.6475 93.2542 96.0773ZM97.527 94.7911C97.7783 94.0627 97.7281 93.2589 97.9241 92.5178C97.7281 93.2538 97.7683 94.0677 97.527 94.7862V94.7911ZM75.6454 68.1215C75.4971 68.1215 75.3388 68.1366 75.193 68.1215C75.3388 68.1316 75.4971 68.1165 75.6454 68.1165V68.1215ZM55.287 16.6261C55.3925 14.6165 56.1641 12.9033 58.2327 12.1045C62.2692 10.0949 66.9089 12.3984 66.8285 16.6261C66.8285 30.045 66.8377 43.4623 66.8561 56.8779C67.0949 59.096 60.0901 58.0083 58.4664 58.2771C56.129 58.3726 56.129 58.3725 56.0837 56.1092C55.9304 42.939 55.4705 29.7737 55.287 16.6185V16.6261ZM54.8723 12.4286C54.7592 12.4989 54.6209 12.5466 54.4928 12.6119C54.6134 12.5366 54.7592 12.4888 54.8723 12.4286ZM54.4928 12.6119C54.4928 12.725 54.5104 12.8481 54.4928 12.9561C54.5104 12.838 54.4928 12.7149 54.4928 12.6019V12.6119ZM35.4488 84.9744C41.1291 68.418 53.9122 72.6657 51.904 64.5319C51.7381 63.0247 51.6074 60.4223 53.789 60.6559C58.112 60.0732 62.4778 60.347 66.8059 59.9225C71.4757 59.0282 70.9178 64.1426 70.7971 67.2675C70.7644 67.6244 70.8601 67.9812 71.0669 68.274C71.2737 68.5668 71.5782 68.7763 71.9256 68.8651C79.5211 71.3243 84.0929 76.7903 86.8099 84.0022C88.2526 88.059 90.8891 101.285 86.634 103.578C71.0133 108.715 53.2888 107.992 37.457 104.025C34.3278 103.226 33.707 102.458 33.6442 99.1746C33.4657 94.3189 33.6593 89.521 35.4488 84.9643V84.9744ZM92.6963 109.893C91.2762 119.871 29.8062 119.579 29.1251 109.305C29.1905 107.06 28.723 104.244 31.1082 102.998C32.2442 102.284 32.674 102.998 33.1868 104.043V104.008L33.6894 104.535V104.523C47.5432 110.838 71.2797 110.174 85.8372 106.052C87.4282 105.407 89.0167 104.744 89.9265 103.161C90.1929 102.699 90.4443 102.747 90.8364 102.91C93.581 104.131 92.5983 107.522 92.6963 109.893ZM92.5002 100.626V100.569C91.9674 100.908 91.4345 101.048 90.8942 100.584C90.4267 99.7046 90.8037 98.7525 90.7031 97.8407C90.7031 97.2001 91.985 98.9761 92.5052 98.9887L92.4776 98.961C93.3045 99.2625 94.2646 99.2122 94.991 99.6619C94.227 100.136 93.3829 100.466 92.5002 100.636V100.626ZM106.882 98.4913C106.289 100.34 95.1418 109.258 94.7045 105.909C95.1493 104.653 92.7189 102.41 94.1088 102.292C95.7375 101.875 97.3083 101.327 98.4343 99.9683C98.6857 99.6568 99.0551 99.7925 99.3743 99.7573C101.91 99.4634 104.823 99.8427 106.915 98.0844C106.941 98.1133 106.961 98.1474 106.974 98.1844C106.987 98.2215 106.992 98.2608 106.989 98.2999C106.986 98.339 106.975 98.3771 106.956 98.4117C106.938 98.4464 106.912 98.4768 106.882 98.5013V98.4913ZM112.555 78.3679C113.593 85.1829 111.429 92.1837 107.395 97.6573C107.679 96.3184 107.503 95.3966 106.233 94.643C105.027 93.3116 101.981 94.5902 102.061 92.2641C101.581 88.0641 105.243 91.302 106.5 89.2498C105.595 87.5868 102.571 88.2977 100.92 88.3379C99.8996 88.2274 98.2408 89.6843 97.6803 88.4158C96.504 84.276 103.283 83.6104 106.105 84.6127C107.03 84.688 108.443 85.9264 109.033 84.7457C108.43 81.0104 98.3413 81.6385 96.4915 84.7684C96.0743 85.2331 95.8908 85.2406 95.7375 84.58C94.5939 77.6218 104.464 77.6394 109.011 79.3249C110.499 80.1539 111.114 78.2649 109.621 77.7348C107.131 76.509 104.381 76.3181 101.672 76.6246C101.036 76.5568 100.191 77.1822 99.8066 76.2503C98.7988 70.1311 112.529 71.671 112.555 78.3779V78.3679ZM98.7309 72.2612C98.9445 71.4373 98.1754 69.3222 99.4849 69.4981C99.7614 69.4579 100.194 69.3926 100.194 69.7493C100.194 70.3019 100.669 70.9199 100.066 71.4223C99.5779 71.6609 99.2939 72.1985 98.7209 72.2713L98.7309 72.2612ZM100.49 67.4156C98.4796 67.7573 96.1522 67.3529 94.1792 66.6796L94.2118 66.7098C93.493 66.5597 92.8013 66.3005 92.1609 65.9411L92.2062 65.9687C91.8419 65.749 91.4422 65.5943 91.0249 65.5116L91.0374 65.5266C89.4117 64.5396 87.9667 63.2823 86.7647 61.809H86.7797L86.2343 61.0554L86.257 61.083L86.0584 60.7389H86.0961C85.9051 60.4223 85.7166 60.1033 85.5281 59.7868H85.5457C82.8413 53.63 84.02 46.4307 86.7119 40.4597L87.677 40.8365L87.6594 40.8063C95.3001 42.846 103.707 42.4668 111.32 40.5099C111.464 40.9495 111.604 41.3916 111.748 41.8312L111.78 41.8915C111.78 42.2784 112.095 42.7707 112.178 43.2078L112.15 43.1902L112.436 43.9664L112.401 43.9463C114.447 49.4098 114.704 56.0163 111.793 61.0503L111.823 61.0704C111.336 61.3718 111.145 62.0752 110.71 62.5173H110.725L110.473 62.7987L110.519 62.7535C110.267 63.0373 110.001 63.3011 109.74 63.5724L109.785 63.5246L109.468 63.7984L109.508 63.7507L109.237 64.0019C109.236 63.9961 109.236 63.9901 109.237 63.9843L108.935 64.2355V64.2179C108.632 64.5017 108.301 64.7541 107.948 64.9715L107.927 64.9514L107.518 65.273C107.101 65.273 107 65.6522 106.578 65.6547L106.075 65.9235H106.09C105.739 66.2334 105.299 66.4265 104.833 66.4762L104.861 66.4536C103.501 67.0941 101.956 67.2926 100.468 67.4257L100.49 67.4156Z" fill="#1D2831"/>
<path d="M48.2495 89.5461C50.6599 91.199 53.1732 91.1663 55.9028 90.5308C54.254 92.1937 51.439 91.7642 49.2901 91.6235C48.1414 91.1638 48.0987 92.0606 49.1468 92.2791C59.3411 96.8861 67.9344 77.991 57.9964 73.4167C57.172 72.9997 56.3125 74.1703 57.4334 74.4642C58.6097 75.2178 60.2987 77.0389 60.1429 78.4004C59.8589 78.9832 58.7404 78.8702 57.9763 78.9028C54.4123 79.0234 50.9137 79.5258 47.5483 80.7265C46.6183 81.0581 46.6133 80.6437 46.7943 80.0257C47.7418 75.7353 52.6404 76.4135 55.5207 74.1954C57.2123 72.9846 59.7583 69.5458 57.7049 67.8477C55.7394 67.7347 57.0087 72.5752 50.6674 73.9116C43.4615 75.0847 42.4863 85.9289 48.2495 89.5461ZM50.0843 88.1243C50.1195 88.1972 50.1446 88.2826 50.1848 88.3479C50.1496 88.2901 50.1195 88.1972 50.0843 88.1243ZM57.2374 87.3481C57.2374 87.2979 57.2374 87.2351 57.2374 87.1798C57.2424 87.2351 57.2475 87.2979 57.2374 87.3481ZM46.739 83.2134C48.34 83.0049 50.2728 81.877 51.7255 82.1785C51.2882 84.2533 53.7589 85.9088 55.3071 84.2283L55.5585 83.9771C56.3502 83.1984 56.4809 82.2413 56.3125 81.2139C57.5692 80.7115 58.9792 80.9627 60.3062 80.9174C60.3992 82.505 59.8036 84.1579 59.0345 85.439C58.4388 86.0142 57.8708 86.6171 57.2474 87.1597C55.0533 88.4408 52.565 89.1115 50.0717 88.0967L49.2649 87.6495C47.8876 86.6121 46.7691 85.0246 46.739 83.2134Z" fill="#1D2831"/>
<path d="M71.2018 91.2844C73.308 92.3344 77.1861 93.1232 78.6791 90.9704C78.5333 90.4128 77.9804 90.7569 77.6109 90.8273C75.5449 91.1488 73.2225 91.0785 71.4958 89.8225C79.1365 92.0581 84.8671 82.9723 78.9154 76.9561C77.4073 76.2929 79.8177 76.1699 79.5261 75.1601C77.5481 72.52 70.5709 74.4969 68.4672 68.6817C68.2837 68.2195 68.0952 67.5237 67.3688 67.7699C65.6472 69.0258 67.5196 71.8242 68.6959 72.9194C69.088 73.2836 69.2262 73.4218 68.5803 73.7283C61.4925 77.5741 65.7452 89.0261 71.2018 91.2844ZM79.1013 84.4117C79.1013 84.5071 79.1189 84.6051 79.1164 84.698C79.1189 84.6051 79.1064 84.5071 79.1013 84.4117ZM67.3236 77.5314C70.2819 72.0201 70.4201 75.0194 74.9945 75.6173C76.7312 75.8433 77.5707 77.0189 78.3046 78.4633C79.31 79.7193 78.9229 80.2744 77.4325 79.5585C74.9794 79.0159 72.5188 78.5738 69.9903 78.6718C68.985 78.4306 66.5696 79.4229 67.3236 77.5314ZM68.3516 85.3185L68.2837 84.992L68.3038 85.012L67.9721 84.5423C67.2615 83.389 66.9391 82.0386 67.0522 80.6889C73.1798 80.4955 69.6837 80.7618 72.0538 83.7787C72.1418 83.854 72.2322 83.9268 72.3227 83.9997L72.3479 84.0198C73.3256 84.7734 74.5823 84.6403 75.2232 83.5174L75.2006 83.5451C75.9546 82.8869 75.0699 80.9527 76.4874 81.5355C78.4655 81.8972 80.0564 82.0755 79.0838 84.4493C78.8815 84.7658 78.713 85.1026 78.5811 85.4541L78.6012 85.429L78.2493 85.8712L78.0407 86.1951L78.0834 86.1525C77.9226 86.3308 77.7542 86.5042 77.5807 86.6674C75.6052 88.353 72.7023 88.147 70.4025 87.1371L70.4201 87.1573L69.9375 86.8533L69.3444 86.4463C69.1735 86.2806 69.0051 86.1097 68.8417 85.944L68.8718 85.9741C68.8467 85.7933 68.7939 85.7003 68.6029 85.6802L68.6356 85.728L68.3516 85.3185Z" fill="#1D2831"/>
<path d="M68.0245 84.4845L67.9771 84.5369C67.9771 84.5369 67.9771 84.5369 67.9771 84.5494L68.0245 84.4845Z" fill="#1D2831"/>
<path d="M53.515 98.9108C52.3413 100.92 55.2945 100.438 56.0284 99.4006C61.2462 95.1679 68.2787 95.9843 73.5291 99.7598C74.8562 100.765 76.1833 99.2725 74.7255 98.2275C69.1986 92.8443 58.5091 92.4098 53.515 98.9108Z" fill="#1D2831"/>
<path d="M64.8958 100.27C64.2926 100.104 60.2134 100.453 62.1311 101.551C63.0912 101.827 66.1148 102.156 66.2958 100.888C66.2506 100.119 65.4438 100.31 64.8958 100.27Z" fill="#1D2831"/>
<path d="M90.0724 49.3545L90.0925 49.3319C90.1252 49.7615 90.3941 50.2237 89.9292 50.5879L90.0724 49.3545Z" fill="#13233E"/>
</svg>
