<svg width="130" height="129" viewBox="0 0 130 129" fill="none" xmlns="http://www.w3.org/2000/svg">
<path d="M129.562 0.251221H0.875977V128.864H129.562V0.251221Z" fill="#F4E1AD"/>
<path opacity="0.3" d="M66.9277 120.042C89.6233 120.042 108.022 117.231 108.022 113.762C108.022 110.294 89.6233 107.482 66.9277 107.482C44.2322 107.482 25.8338 110.294 25.8338 113.762C25.8338 117.231 44.2322 120.042 66.9277 120.042Z" fill="#1D2831"/>
<path d="M111.716 25.1524C111.562 24.558 111.529 23.9385 111.621 23.3312C111.784 23.9242 111.817 24.5456 111.716 25.1524Z" fill="#7C6653"/>
<path d="M111.634 27.6166L111.651 27.0892C111.646 27.265 111.639 27.4408 111.634 27.6166Z" fill="#7C6653"/>
<path d="M111.606 28.3853C111.606 28.2949 111.606 28.2069 111.623 28.119C111.618 28.1944 111.611 28.2823 111.606 28.3853Z" fill="#7C6653"/>
<path d="M92.6823 113.805L92.6598 113.722L92.7423 113.745L92.6823 113.805Z" fill="#B86B3A"/>
<path d="M89.2718 15.2879C74.8047 14.5092 60.4809 14.6951 46.1093 13.9365C46.0565 14.6901 45.9962 15.2201 45.9862 15.7576C45.951 17.7245 45.951 19.6914 45.9007 21.6558C45.7851 26.1773 45.6544 30.6914 45.5087 35.1978C45.471 36.3533 45.8907 37.2551 47.0669 37.3807C50.6309 37.7575 54.2175 37.8831 57.7941 38.0991C60.873 38.2875 63.977 38.3127 67.0609 38.5237C73.073 38.9357 79.0976 38.8954 85.1146 39.0964C87.7562 39.1843 88.6635 38.1469 88.4976 35.8032C88.2865 32.8416 88.661 29.8976 88.7691 26.9535C88.9123 23.0876 89.0606 19.2192 89.2718 15.2879ZM82.9883 23.0901C82.8777 27.1771 82.7596 31.2615 82.659 35.3485C82.6138 37.2727 82.4303 37.5063 80.495 37.5139C78.5597 37.5214 76.5716 37.4761 74.6137 37.4008C73.0101 37.3405 72.3743 36.5895 72.4522 35.0094C72.5024 33.9695 72.5276 32.927 72.5653 31.887V31.6358L72.6834 24.0999L72.6985 23.6226C72.7437 22.2486 72.7865 20.8721 72.8342 19.498C72.8694 18.5234 73.3872 18.0837 74.3423 18.0888C76.7224 18.0888 79.1001 18.1164 81.4803 18.0888C82.5736 18.0712 82.9883 18.6489 83.016 19.6135C83.0436 20.5781 83.0159 21.6231 82.9958 22.6153C83.0369 22.6885 83.0568 22.7717 83.0532 22.8556C83.0497 22.9394 83.0228 23.0206 82.9757 23.0901H82.9883Z" fill="#CECCB5"/>
<path d="M20.7316 77.2884C21.1137 76.9945 21.561 77.1503 21.9607 77.0548C22.5337 76.9192 22.9661 76.6278 23.0616 76.0049C23.1161 75.7369 23.0944 75.4591 22.9989 75.2029C22.9033 74.9467 22.7379 74.7224 22.5212 74.5554C21.1062 73.41 18.5651 74.2439 18.1856 76.0249C17.8061 77.8059 18.4017 79.3131 19.6082 80.6269C18.4947 80.9509 17.5974 80.765 16.954 79.9637C16.2251 79.0494 15.7702 78.0044 16.2427 76.8212C16.483 76.2893 16.7787 75.7841 17.1249 75.3141C17.424 74.8745 17.7055 74.465 17.2003 73.9953C17.0098 73.7948 16.7515 73.6722 16.4756 73.6513C16.1998 73.6305 15.926 73.7128 15.7074 73.8822C14.4959 74.6559 14.0511 75.8215 14.0259 77.2006C14.0259 77.394 13.9908 77.5899 13.9631 77.8637C12.9276 76.2937 13.1538 73.9199 14.4959 72.3549C17.9066 68.3835 22.8881 69.3833 25.5548 71.9003C27.2212 73.4677 27.4298 76.6555 26.1254 78.5219C24.9893 80.1471 22.295 80.2802 21.0986 78.7731C20.7316 78.3259 20.5155 77.8712 20.7316 77.2884Z" fill="#7C6653"/>
<path d="M21.2594 83.0811C21.2594 84.9274 21.3147 86.6782 21.2594 88.4265C20.9754 96.1559 21.1563 103.888 21.0835 111.62C21.0835 111.871 21.0835 112.122 21.0835 112.373C21.0835 112.876 20.8849 113.293 20.3521 113.396C19.8192 113.499 19.5026 113.084 19.3467 112.642C19.2092 112.249 19.137 111.837 19.1331 111.421C18.9647 102.88 18.55 94.3724 18.6103 85.8417C18.6254 83.3272 18.6329 83.3272 21.2594 83.0811Z" fill="#7C6653"/>
<path d="M23.4186 95.6736C23.5679 96.5108 23.5534 97.3689 23.3759 98.2006C23.3909 97.3591 23.4035 96.5176 23.4186 95.6736Z" fill="#7C6653"/>
<path d="M23.431 93.9077C23.5667 94.2436 23.5667 94.6191 23.431 94.9551V93.9077Z" fill="#7C6653"/>
<path d="M23.4813 91.3605C23.4813 91.471 23.4662 91.5815 23.4562 91.6946C23.4662 91.5815 23.4737 91.471 23.4813 91.3605Z" fill="#7C6653"/>
<path d="M23.3807 98.7005C23.3807 98.7859 23.3807 98.8688 23.3807 98.9517C23.3782 98.8688 23.3807 98.7859 23.3807 98.7005Z" fill="#7C6653"/>
<path d="M74.3724 110.527C74.4629 110.439 74.5534 110.351 74.6414 110.261C74.64 110.331 74.6112 110.399 74.561 110.448C74.5108 110.498 74.4431 110.526 74.3724 110.527Z" fill="#D18647"/>
<path d="M74.121 110.778L74.39 110.509C74.3875 110.58 74.3583 110.647 74.3084 110.697C74.2585 110.746 74.1916 110.776 74.121 110.778Z" fill="#D18647"/>
<path d="M104.9 21.7662C105.006 18.6011 102.638 15.7827 99.4485 15.5516C97.1211 15.3833 94.7811 15.3959 92.4462 15.3281C92.0818 15.3281 91.6922 15.215 91.2473 15.5039V18.787C91.2473 18.89 91.2473 18.9905 91.2473 19.0935C90.6617 22.2485 91.2473 25.4363 90.996 28.6013L90.9784 29.1238C90.35 30.5305 91.1769 31.9849 90.8427 33.3941C90.7823 34.7682 90.7698 36.1448 90.6492 37.5113C90.3978 40.2569 88.8772 41.5028 86.1251 41.3119C83.6278 41.1457 81.1238 41.1063 78.6226 41.1938L74.1236 41.1737H73.3696L67.9708 41.1486L67.9432 41.1235L67.3274 41.0306C61.0439 40.6814 54.7605 40.277 48.4619 40.1966C46.9665 40.169 45.471 40.0233 43.973 40.1966C42.8495 40.6111 41.819 40.2996 40.7307 39.9454C38.6773 39.2521 37.7147 38.1091 37.7021 35.9262C37.6795 33.349 37.7021 30.7717 37.7021 28.1944L37.8076 24.4264C37.8805 21.5979 37.9987 18.7694 38.0087 15.941C38.0087 14.2404 37.9409 14.2404 36.2167 14.2705C35.5481 14.2831 34.8796 14.2705 34.206 14.3031C31.7378 14.3785 30.4811 15.5591 30.4359 18.0159C30.363 21.1458 30.4007 24.2757 30.3906 27.4056C30.3906 28.2421 30.3906 29.0786 30.3906 29.9176V30.4024C30.3906 30.4954 30.3906 30.5883 30.3906 30.6812C30.3906 30.8344 30.3906 30.9877 30.3906 31.1409C30.3755 32.3215 30.3588 33.5022 30.3404 34.6828C30.0589 39.0386 30.1921 43.4018 30.1745 47.7601C30.1561 51.4728 30.1393 55.1855 30.1242 58.8982V58.9761C30.0941 59.6719 30.0614 60.3703 30.0287 61.0661C30.0463 61.2243 30.0639 61.3826 30.079 61.5408C30.0521 63.3829 30.0229 65.2251 29.991 67.0672C29.9676 69.3648 29.9441 71.6632 29.9206 73.9625C29.9206 74.3418 29.9206 74.7161 30.192 75.0251C31.9162 76.9141 31.1597 78.8509 30.2097 80.7147C29.8811 81.2867 29.7013 81.9318 29.6869 82.5912C29.6869 84.2616 29.6718 85.9346 29.6592 87.6151C29.6592 89.165 30.3253 90.3482 31.5945 91.1997C33.2534 92.3125 35.1786 92.1894 37.041 92.3301C37.1768 92.3301 37.3326 92.0789 37.4809 91.9357C37.3024 89.4438 37.3954 86.952 37.4809 84.4601C37.4809 84.3671 37.4684 84.2717 37.4633 84.1788C37.4734 82.5158 37.4842 80.8546 37.496 79.195C37.4005 76.1555 37.4197 73.1177 37.5538 70.0815C37.5739 68.5141 37.5923 66.9474 37.6091 65.3816C37.6091 65.1028 37.6091 64.8265 37.5965 64.5477C37.6468 62.1429 37.6962 59.7389 37.7448 57.3358C37.7448 54.7032 37.6719 52.0607 37.77 49.4356C37.8579 47.0945 39.4916 45.6199 41.8391 45.5094C42.8779 45.4384 43.9216 45.4975 44.9457 45.6853C45.6394 44.3916 46.8207 43.7234 48.1226 43.2135C49.9902 42.48 52.002 42.1869 54.0014 42.3569C54.8585 42.4272 55.7935 42.6659 55.7055 43.7661C55.6175 44.8663 54.6674 44.7332 53.8632 44.7232C52.0787 44.6981 50.2665 44.5699 48.7258 45.7606C49.9825 46.1349 51.2543 45.8259 52.5185 45.9565C53.8456 46.0922 55.1903 46.0545 56.5249 46.0922C57.1126 45.9409 57.7298 45.947 58.3144 46.1098L65.3192 46.3032L66.1436 46.3534H66.6061L66.9831 46.4188L71.3589 46.5519C71.9671 46.5293 72.5779 46.4439 73.1811 46.6122L77.8937 46.8006L79.1856 46.7353L77.6373 46.057C76.3379 45.7481 75.0862 45.1703 73.6963 45.3788C73.3243 45.3411 72.9549 45.2934 72.5829 45.2657C71.9068 45.218 71.4569 44.9015 71.4393 44.2007C71.4217 43.4998 71.859 43.1105 72.5276 43.0728C76.5163 42.8467 80.1482 43.6455 82.9481 46.7729C85.7279 47.1849 88.5404 47.0091 91.3328 47.2251C93.5948 47.4034 94.8038 48.466 94.9546 50.7419C95.025 51.7793 94.9294 52.8293 94.9043 53.8718C94.8222 57.2981 94.7384 60.7228 94.653 64.1458C94.5943 66.5522 94.5382 68.9596 94.4846 71.3677C94.5273 77.3261 94.3564 83.2794 94.0347 89.2303L93.9919 92.2246V92.4406L93.9769 94.4025C93.9769 94.9375 94.1377 95.5027 93.7255 95.98C93.8512 96.3593 94.1528 96.4372 94.5097 96.4573C95.6709 96.5226 96.8346 96.5728 97.9908 96.6833C99.4435 96.819 100.59 96.2261 101.56 95.2389C102.739 94.0357 103.128 92.5411 103.028 90.8907C103.041 89.5996 103.052 88.3076 103.06 87.0147C103.083 86.9896 103.126 86.9671 103.123 86.9445C103.114 86.8848 103.099 86.8259 103.08 86.7686C103.279 86.2461 103.241 85.701 103.239 85.1609C103.249 84.5597 103.257 83.9585 103.264 83.3573C103.275 83.2849 103.275 83.2112 103.264 83.1388C103.264 82.9604 103.264 82.7796 103.264 82.5987C103.282 80.9726 103.3 79.3482 103.317 77.7255C103.674 73.327 103.711 68.921 103.769 64.5125C103.824 62.8379 103.88 61.1682 103.937 59.5036C104.133 52.3026 104.331 45.1016 104.531 37.9006C104.564 35.7236 104.596 33.5465 104.626 31.3695C104.877 30.6812 104.767 29.9653 104.782 29.262C104.82 26.7701 104.817 24.2681 104.9 21.7662ZM35.1635 86.9445C33.9923 87.0977 33.007 86.9118 32.0193 86.859C31.6146 86.8364 31.4387 86.5776 31.4161 86.1983C31.4161 86.0325 31.4161 85.8643 31.4161 85.6959C31.3885 83.4804 32.4214 82.7469 34.5955 83.3724C35.068 83.508 35.1635 83.8019 35.1635 84.2013C35.1661 85.078 35.1635 85.9497 35.1635 86.9445ZM100.733 89.0319C100.662 90.951 100.662 90.951 98.5311 90.9284C95.965 90.8279 96.2515 91.1796 96.2464 88.4993C96.2464 86.7987 96.3244 86.741 98.0285 86.8565L98.7825 86.9067C100.808 87.0122 100.808 87.0122 100.733 89.0268V89.0319ZM104.216 37.9383C104.256 37.9592 104.301 37.9671 104.345 37.961C104.3 37.9648 104.255 37.9542 104.216 37.9308V37.9383Z" fill="#49636A"/>
<path d="M44.076 37.8379C43.4477 36.9612 43.5281 35.9815 43.5734 34.9742C43.6538 33.4344 43.6362 31.8896 43.6588 30.3472C43.6588 30.1111 43.6589 29.8749 43.679 29.6388L43.6941 29.1138C43.7041 27.4241 43.715 25.7335 43.7267 24.0421C43.7401 24.0225 43.7473 23.9993 43.7473 23.9756C43.7473 23.9518 43.7401 23.9286 43.7267 23.909C43.7267 23.5749 43.7443 23.2408 43.7519 22.9042C43.7519 22.7233 43.7745 22.545 43.7845 22.3641C43.7946 22.2908 43.7946 22.2164 43.7845 22.1431C44.0359 19.5356 43.3874 16.9182 44.0886 14.2982C43.0255 13.9842 42.1408 14.1801 41.2812 14.1047C40.4216 14.0294 40.0697 14.3309 40.0245 15.21C39.9064 18.0109 39.8536 20.8117 39.9365 23.6151C39.8678 26.2744 39.8008 28.9355 39.7355 31.5982C39.7355 32.8089 39.6601 34.0222 39.7355 35.2279C39.8938 37.5239 41.7914 38.6844 44.076 37.8379Z" fill="#49636A"/>
<path d="M88.6838 88.0397C82.8376 87.6729 76.9915 87.3338 71.1428 86.9796C66.1764 86.6782 61.2091 86.3692 56.2409 86.0527L53.5214 85.8819L52.9886 85.8568H52.5261C51.9003 85.8317 51.2695 85.8166 50.6487 85.7814C47.9342 85.6324 45.2189 85.4791 42.5028 85.3217C42.0001 85.2916 41.5552 85.3594 41.4974 85.9723C41.4296 86.6581 41.9121 86.8063 42.4499 86.8666C42.656 86.8917 42.8672 86.8816 43.0758 86.8942C46.5443 87.0751 50.0153 87.2409 53.4812 87.4469C65.1769 88.1469 76.8717 88.8536 88.5656 89.567C89.1613 89.6047 89.9179 89.8408 89.953 88.8285C89.9832 87.8664 89.2015 88.0723 88.6838 88.0397Z" fill="#49636A"/>
<path d="M89.6285 79.9713C89.4219 79.9419 89.2138 79.925 89.0052 79.921L65.3341 78.6097C63.8587 78.5369 62.3557 78.9137 60.9105 78.3435C60.8251 78.248 60.7471 78.2179 60.6868 78.3661L60.5888 78.2907H60.4656C60.4656 78.459 60.3751 78.4414 60.2721 78.3661L56.2934 78.0747L41.849 77.4065C41.4619 78.5143 41.849 78.8283 42.794 78.8811C49.4721 79.2528 56.1502 79.6773 62.8307 80.0516C70.4698 80.4786 78.1105 80.8873 85.7528 81.2775C87.0095 81.3428 88.2662 81.3503 89.5229 81.3981C89.9527 81.4131 90.292 81.28 90.3498 80.8278C90.4026 80.3355 90.101 80.0617 89.6285 79.9713Z" fill="#49636A"/>
<path d="M51.0808 65.0928C51.4403 65.0249 51.9178 64.9873 51.9078 64.4975C51.8977 64.0076 51.4051 64.0353 51.0457 63.9951C48.9143 63.7966 46.8156 63.455 44.8602 62.513C44.7548 62.4542 44.6323 62.4338 44.5135 62.4553C44.3948 62.4769 44.2872 62.539 44.2092 62.6311C44.1603 62.7995 44.1717 62.9797 44.2414 63.1407C44.3112 63.3016 44.4349 63.4332 44.5913 63.5128C46.5643 64.809 48.6831 65.5399 51.0808 65.0928Z" fill="#49636A"/>
<path d="M52.5613 64.3744C52.6191 64.3543 52.6518 64.2538 52.7247 64.1508L52.4457 63.98C52.408 64.0478 52.3426 64.1131 52.3376 64.181C52.3326 64.3216 52.4004 64.4246 52.5613 64.3744Z" fill="#49636A"/>
<path d="M84.9162 63.5203C84.5824 63.5125 84.2489 63.5462 83.9234 63.6208C81.0438 64.6546 77.9562 64.9753 74.9255 64.5552C74.6314 64.5176 74.2795 64.5226 74.2469 64.9144C74.2091 65.344 74.5811 65.3943 74.9028 65.5224C77.3207 66.4719 79.7738 66.075 82.1766 65.5776C83.3001 65.3465 84.5794 64.9747 84.9413 63.5404L84.9891 63.4675L84.9162 63.5203Z" fill="#49636A"/>
<path d="M37.5714 64.4949C37.6473 64.6203 37.6885 64.7637 37.6907 64.9102C37.6929 65.0568 37.6561 65.2013 37.584 65.3289C37.5714 65.0601 37.5714 64.7738 37.5714 64.4949Z" fill="#859F9A"/>
<path d="M117.336 88.4893C117.005 87.9995 116.422 87.5775 116.613 86.8666C117.281 84.3546 117.015 81.9029 116.678 79.3507C116.052 74.6106 114.144 70.5061 111.35 66.7507C110.779 66.042 110.492 65.1467 110.545 64.2387C110.751 59.2147 110.924 54.1908 111.063 49.1669C111.262 42.2313 111.427 35.2932 111.606 28.3576C111.606 28.2672 111.606 28.1793 111.623 28.0914C111.623 27.9281 111.623 27.7648 111.623 27.6015C111.623 27.4383 111.623 27.2499 111.641 27.0741C111.664 26.4285 111.684 25.7829 111.706 25.1373C111.552 24.543 111.519 23.9234 111.611 23.3162C111.715 21.7655 111.304 20.2239 110.442 18.9303C107.914 15.0593 104.35 13.0698 99.6572 13.0045C96.1385 12.9568 92.6197 12.8286 89.0784 12.5925C78.6805 11.8942 68.2474 12.1077 57.8269 11.9746H57.093L55.7332 11.9168C55.5835 11.9829 55.4203 12.0126 55.2569 12.0034C55.0935 11.9942 54.9346 11.9465 54.7932 11.864L54.2126 11.8515L54.1247 11.8791L54.0392 11.8389C50.0002 11.5877 45.9562 11.7812 41.9146 11.7083L41.814 11.7359L41.7135 11.7083H41.1581L39.9466 11.6958H39.1449L39.0493 11.7158L38.9589 11.6857L38.4034 11.7058L37.9535 11.6782H37.1341L33.4093 11.7183C29.697 12.3664 27.9728 14.3534 27.8798 18.1239C27.8044 21.3442 27.7341 24.5646 27.7064 27.785C27.5908 41.5456 27.481 55.3061 27.3772 69.0667C27.3772 69.3581 27.5632 69.7299 27.2138 69.9434C24.3787 67.8484 21.2822 66.7959 17.7861 67.5469C14.8102 68.185 12.4928 69.8077 11.2764 72.6915C9.59994 76.6554 11.2764 80.5389 15.5215 82.6138C16.1976 82.9453 16.5017 83.2795 16.4716 84.0959C16.1273 93.3424 16.6827 102.576 16.831 111.818C16.8434 112.278 16.9118 112.734 17.0346 113.177C17.1788 113.836 17.5207 114.436 18.0147 114.896C18.5086 115.356 19.1312 115.654 19.7993 115.752C21.144 116.003 22.285 115.604 23.029 114.37L23.1874 114.006C23.69 111.572 23.2477 109.118 23.3231 106.673C23.4035 104.099 23.3482 101.519 23.3532 98.9391V98.6879C23.3532 98.5221 23.3532 98.3564 23.3532 98.1855C23.3683 97.344 23.3809 96.5025 23.396 95.6585V94.94C23.396 94.5909 23.396 94.2417 23.396 93.8926L23.4211 91.6795C23.4211 91.5665 23.4387 91.4559 23.4462 91.3454C23.4831 88.8518 23.5216 86.3567 23.5618 83.8597C23.587 82.3727 23.6297 82.3525 25.1201 82.5635C25.6573 82.6289 26.1977 82.6641 26.7387 82.6691C27.073 82.6691 27.3269 82.7268 27.2666 83.1463C27.2893 83.2079 27.2893 83.2756 27.2666 83.3372V83.6487L27.2465 84.5907V85.1509C27.2465 85.387 27.2465 85.6257 27.2465 85.8618C27.2465 86.7108 27.2465 87.5599 27.259 88.4089C27.2786 88.4414 27.2909 88.4778 27.2952 88.5155C27.2996 88.5532 27.2958 88.5914 27.2842 88.6275C27.6813 91.4534 30.3002 94.5054 34.676 94.6737C37.4408 94.7793 40.2055 94.8722 42.9275 95.2515C44.8704 95.5228 46.8082 95.5831 48.9069 95.7188C48.7561 99.0446 49.4096 102.29 49.965 105.593C45.9838 106.211 42.5027 107.482 41.1354 111.738C41.0399 114.091 41.1631 114.25 43.5131 114.963H48.6304L48.9772 114.898L50.5205 114.868L51.2544 114.84C52.7925 114.737 54.3308 114.616 55.869 114.533C57.103 114.468 58.1662 113.878 59.2947 113.488L59.2369 113.456L59.7622 112.752C60.202 111.584 59.9784 110.459 59.5461 109.344C58.5055 106.679 57.2614 104.069 56.7059 101.25C56.346 99.6113 56.3839 97.9102 56.8165 96.289C64.804 96.7738 72.676 97.7208 80.6359 97.9569C80.743 101.142 81.1495 104.31 81.8499 107.42C79.1505 107.718 76.8231 108.761 74.6942 110.301L74.654 110.25C74.6523 110.318 74.6257 110.382 74.5792 110.431C74.5328 110.48 74.4699 110.509 74.4027 110.514C74.398 110.579 74.37 110.641 74.3239 110.687C74.2777 110.733 74.2165 110.761 74.1514 110.765L74.1664 110.743L73.9151 111.137C73.8397 111.283 73.7693 111.429 73.6864 111.572C71.6756 115.089 72.6609 115.709 75.1743 116.779L79.9221 116.824H80.2111C82.8125 116.724 85.4088 116.601 88.0026 116.355C89.2593 116.237 90.2647 115.468 91.4661 115.254C92.6072 113.72 92.4539 112.157 91.5591 110.58C91.2701 110.077 90.9885 109.557 90.7121 109.042C89.0909 106.028 88.45 102.787 88.5003 99.3812C88.5003 98.5673 88.8622 98.2357 89.5735 98.5925C91.0815 99.346 92.7052 98.5472 94.3037 99.0471C95.1155 99.2983 96.3144 99.027 97.36 99.0873C99.4587 99.2054 101.517 99.1451 103.392 97.9619C104.033 97.56 104.769 97.3114 105.481 96.9823C105.785 99.022 106.428 100.735 108.291 101.597C110.002 102.388 111.847 101.68 113.624 101.848C113.717 101.848 113.818 101.665 113.928 101.647C115.039 101.469 115.436 100.167 116.469 99.969C118.068 99.6625 118.824 98.6176 119.149 97.1808C119.815 94.0307 119.136 91.147 117.336 88.4893ZM21.2495 88.4265C20.9655 96.1558 21.1465 103.888 21.0736 111.62C21.0736 111.871 21.0736 112.122 21.0736 112.373C21.0736 112.876 20.875 113.293 20.3422 113.395C19.8093 113.498 19.4927 113.084 19.3368 112.642C19.1993 112.249 19.1272 111.837 19.1232 111.421C18.9548 102.88 18.5401 94.3723 18.6004 85.8417C18.618 83.3297 18.6256 83.3297 21.2521 83.0785C21.2596 84.9273 21.3149 86.6782 21.2495 88.4215V88.4265ZM26.133 78.5168C24.997 80.142 22.3026 80.2752 21.1063 78.768C20.7494 78.3234 20.5232 77.8561 20.7418 77.2859C21.1239 76.992 21.5712 77.1477 21.9709 77.0523C22.5439 76.9166 22.9762 76.6253 23.0717 76.0023C23.1263 75.7344 23.1046 75.4565 23.009 75.2003C22.9135 74.9441 22.748 74.7198 22.5313 74.5529C21.1163 73.4074 18.5753 74.2414 18.1957 76.0223C17.8162 77.8033 18.4119 79.3105 19.6184 80.6243C18.5049 80.9483 17.6076 80.7625 16.9642 79.9612C16.2353 79.0468 15.7804 78.0018 16.2529 76.8187C16.4931 76.2867 16.7888 75.7815 17.1351 75.3115C17.4342 74.8719 17.7157 74.4624 17.2105 73.9927C17.0199 73.7923 16.7617 73.6697 16.4858 73.6488C16.21 73.6279 15.9362 73.7102 15.7176 73.8797C14.5061 74.6534 14.0613 75.8189 14.0361 77.198C14.0361 77.3914 14.0009 77.5873 13.9733 77.8611C12.9378 76.2911 13.1639 73.9173 14.5061 72.3524C17.9168 68.381 22.8983 69.3807 25.565 71.8977C27.2289 73.4627 27.4375 76.6504 26.133 78.5168ZM106.544 18.6087C108.997 20.3269 109.731 23.4191 109.15 26.112C106.544 26.2576 106.544 26.2577 106.544 23.806V18.6087ZM45.5088 35.1877C45.6546 30.6662 45.7852 26.1521 45.9008 21.6457C45.9511 19.6813 45.9511 17.7144 45.9863 15.7475C45.9863 15.21 46.0567 14.6724 46.1095 13.9264C60.481 14.68 74.8048 14.4991 89.2719 15.2778C89.0608 19.2091 88.9125 23.0649 88.7692 26.9434C88.6611 29.8875 88.2866 32.8315 88.4978 35.7931C88.6637 38.1368 87.7563 39.1743 85.1148 39.0863C79.0977 38.8854 73.0731 38.9256 67.0611 38.5136C63.9771 38.3026 60.8731 38.2774 57.7942 38.089C54.2176 37.868 50.6311 37.7474 47.0671 37.3706C45.8908 37.2551 45.4711 36.3533 45.5088 35.1978V35.1877ZM39.7606 31.5881C39.826 28.927 39.893 26.266 39.9617 23.605C39.8788 20.8016 39.9316 18.0008 40.0497 15.2C40.0849 14.3208 40.4619 14.0219 41.3064 14.0947C42.1509 14.1676 43.0507 13.9741 44.1138 14.2881C43.4126 16.9081 44.0535 19.5256 43.8097 22.133C43.8198 22.2064 43.8198 22.2807 43.8097 22.354C43.8097 22.5349 43.7871 22.7132 43.777 22.8941C43.777 23.2307 43.7595 23.5648 43.7519 23.8989C43.7653 23.9185 43.7725 23.9417 43.7725 23.9655C43.7725 23.9892 43.7653 24.0124 43.7519 24.032C43.7419 25.7234 43.7309 27.414 43.7192 29.1038L43.7041 29.6287C43.7041 29.8648 43.6916 30.101 43.6841 30.3371C43.6614 31.8795 43.684 33.4243 43.5986 34.9641C43.5433 35.9689 43.4629 36.9512 44.1013 37.8278C41.8166 38.6693 39.919 37.5138 39.7833 35.2179C39.6852 34.0222 39.7531 32.8089 39.7606 31.5981V31.5881ZM57.1583 110.577C57.284 111.371 57 111.775 56.2862 111.964C55.8887 112.096 55.477 112.18 55.0596 112.215C51.7922 112.263 48.56 112.564 45.3102 112.752C44.7095 112.788 43.9354 112.938 43.6237 112.25C43.3121 111.562 43.8951 111.085 44.2822 110.602C45.652 108.897 47.4943 108.133 49.6282 107.99C50.0856 107.96 50.5481 107.99 51.008 107.975C52.5638 107.907 52.8981 107.45 52.5412 105.902C51.9269 103.172 51.5011 100.402 51.2669 97.6128C51.1287 96.0554 51.3625 95.8896 52.9157 95.9097C53.7803 95.9097 54.3056 96.1282 54.0769 97.1456C54.0358 97.479 54.0316 97.816 54.0643 98.1503C53.906 101.542 55.0697 104.636 56.2811 107.711C56.6798 108.634 56.974 109.599 57.1583 110.587V110.577ZM89.106 111.331C89.7545 113.122 89.3121 113.843 87.4522 114.036C85.0444 114.287 82.6491 114.719 80.1634 114.501C79.0022 114.501 77.7832 114.569 76.5793 114.481C75.4231 114.395 75.2246 113.926 75.7247 112.883C76.0978 112.175 76.6867 111.604 77.4062 111.253C79.1831 110.273 80.9928 109.459 83.1166 109.972C84.5417 110.316 84.9589 109.886 84.5618 108.404C83.9717 106.227 83.5515 104.007 83.3051 101.765C83.2372 101.102 83.1995 100.436 83.1744 99.7555C83.1392 98.9115 83.3679 98.2483 84.3808 98.2157C85.5345 98.1629 86.1578 98.6427 86.188 99.7756C86.2837 102.407 86.7058 105.016 87.4447 107.543C87.8167 108.904 88.6385 110.024 89.096 111.328L89.106 111.331ZM104.9 21.7687C104.817 24.2807 104.82 26.7726 104.767 29.2745C104.752 29.9779 104.85 30.6938 104.611 31.3821C104.581 33.5591 104.549 35.7362 104.516 37.9132C104.318 45.1142 104.12 52.3152 103.922 59.5162C103.864 61.1908 103.808 62.8605 103.754 64.5251C103.696 68.9336 103.659 73.3396 103.299 77.7355C103.282 79.3616 103.266 80.9869 103.249 82.6113C103.249 82.7922 103.249 82.973 103.249 83.1514C103.26 83.2238 103.26 83.2975 103.249 83.3699C103.249 83.9727 103.24 84.574 103.224 85.1735C103.224 85.7136 103.264 86.2587 103.065 86.7811C103.084 86.8385 103.099 86.8973 103.108 86.957C103.108 86.9796 103.068 87.0022 103.045 87.0273L103.013 90.9033C103.113 92.5536 102.724 94.0483 101.545 95.2515C100.575 96.2387 99.4285 96.8315 97.9757 96.6959C96.8196 96.5854 95.6559 96.5352 94.4947 96.4698C94.1378 96.4498 93.8362 96.3718 93.7105 95.9925C92.8057 96.3116 91.8783 96.186 90.9458 96.1533C86.854 96.2212 82.8175 95.4877 78.7383 95.3369C74.9154 95.1938 71.0775 95.0858 67.2797 94.6663C64.0978 94.3121 60.9033 94.1462 57.7288 93.7946C55.9695 93.6011 54.1573 93.9176 52.4356 93.6112C50.5883 93.2796 48.741 93.2218 46.8937 93.0561C46.5619 93.0284 46.2376 92.9556 45.9059 92.9305C44.4305 92.8174 42.9376 92.9757 41.4748 92.6416C40.3463 92.5587 39.2127 92.4683 38.0918 92.3904C37.7499 92.3678 37.7298 92.1392 37.682 91.888H37.5664L37.4508 91.8704C37.3025 92.0086 37.1467 92.2748 37.011 92.2648C35.1486 92.1241 33.2233 92.2472 31.5645 91.1344C30.2952 90.2829 29.6166 89.0997 29.6291 87.5498C29.6417 85.8768 29.6618 84.2039 29.6568 82.5259C29.6712 81.8665 29.851 81.2214 30.1796 80.6494C31.1297 78.7856 31.8862 76.8488 30.162 74.9598C29.883 74.6558 29.8855 74.2765 29.8905 73.8972C29.9157 71.5979 29.9391 69.2995 29.9609 67.0019C29.9911 65.1598 30.0204 63.3176 30.0489 61.4755C30.0338 61.3173 30.0163 61.159 29.9987 61.0008C30.0313 60.305 30.064 59.6066 30.0941 58.9108V58.8329C30.1092 55.1202 30.126 51.4076 30.1444 47.6949C30.162 43.3366 30.0288 38.9733 30.3103 34.6175C30.3288 33.4453 30.3455 32.2646 30.3606 31.0756V30.6159C30.3606 30.523 30.3606 30.4301 30.3606 30.3371C30.3606 30.1738 30.3606 30.0131 30.3606 29.8523V27.3403C30.3606 24.2104 30.3329 21.0805 30.4058 17.9506C30.4636 15.4838 31.7203 14.3132 34.1759 14.2378C34.8419 14.2152 35.5105 14.2178 36.1866 14.2052C37.9108 14.1751 37.9837 14.1751 37.9787 15.8757C37.9787 18.7041 37.8505 21.5326 37.7776 24.3611L37.672 28.1291C37.672 30.7064 37.6443 33.2837 37.672 35.8609C37.6921 38.0514 38.6472 39.1943 40.7006 39.8801C41.7889 40.2468 42.8195 40.5583 43.9429 40.1313C45.451 39.9655 46.9364 40.1112 48.4318 40.1313C54.7304 40.2117 61.0139 40.6161 67.2973 40.9653L67.9131 41.0582L67.9407 41.0833L73.3395 41.1084H74.0935L78.5925 41.1285C81.0937 41.041 83.5978 41.0804 86.095 41.2466C88.8346 41.4375 90.3677 40.1916 90.6191 37.446C90.7397 36.0795 90.7523 34.7029 90.8126 33.3288C91.1469 31.9146 90.3099 30.4602 90.9483 29.0585L90.9659 28.536C91.2172 25.371 90.6341 22.1832 91.2172 19.0282C91.2172 18.9252 91.2172 18.8247 91.2172 18.7217V15.4386C91.6722 15.1497 92.0517 15.2728 92.4161 15.2628C94.7511 15.3306 97.091 15.318 99.4184 15.4863C102.628 15.7827 105.006 18.6011 104.9 21.7662V21.7687ZM105.151 92.2673C105.302 85.691 105.453 79.1146 105.609 72.3398C107.718 73.6259 108.175 75.5024 108.258 77.4266C108.381 80.2249 108.293 83.0333 108.258 85.8366C108.258 86.2009 108.205 86.6606 107.984 86.9067C106.61 88.4298 105.637 90.2714 105.154 92.2648L105.151 92.2673ZM116.429 97.2033C116.205 97.4545 115.941 97.7057 115.562 97.5902C115.182 97.4746 115.162 97.1104 115.089 96.7813C114.985 96.2499 114.848 95.7255 114.677 95.2113C114.554 94.8622 114.338 94.5004 113.853 94.6185C113.666 94.6567 113.496 94.7545 113.368 94.897C113.241 95.0396 113.163 95.2195 113.147 95.4098C113.046 96.2422 113.081 97.0854 113.25 97.9067C113.345 98.3789 113.501 98.9868 112.802 99.1501C112.149 99.3033 111.945 98.7733 111.797 98.2785C111.42 97.1029 111.294 95.8142 110.037 94.7617C109.824 96.0579 109.58 97.1305 109.751 98.2659C109.821 98.7281 110.043 99.3712 109.356 99.5344C108.756 99.6776 108.351 99.228 108.077 98.7206C106.516 95.8418 107.112 90.8355 109.417 88.4616C110.227 87.6613 110.706 86.5848 110.756 85.4473C111.076 79.7602 110.719 74.2162 107.057 69.4435C106.051 68.1272 105.702 66.6803 105.747 64.9948C105.918 58.8932 105.943 52.7866 106.071 46.6825C106.197 40.8322 106.403 34.9843 106.524 29.1339C106.546 28.1416 106.891 27.8101 107.861 27.8402C108.773 27.8679 109.387 27.9834 109.346 29.1339C109.163 34.4366 109.022 39.742 108.876 45.0472C108.849 46.052 108.876 47.0568 108.841 48.0616C108.678 53.9095 108.522 59.7573 108.323 65.6052C108.276 67.027 108.741 67.9941 109.955 68.8708C111.289 69.8278 111.933 71.4405 112.616 72.9125C114.582 77.1452 115.381 81.5738 114.645 86.226C114.555 86.7407 114.571 87.2683 114.693 87.7763C114.815 88.2843 115.04 88.7621 115.353 89.1801C116.577 90.9008 117.055 92.8903 117.095 94.9777C117.098 95.7615 117.007 96.5678 116.432 97.2134L116.429 97.2033Z" fill="#1D2831"/>
<path d="M74.3724 110.526C74.3735 110.521 74.3735 110.517 74.3724 110.512V110.526Z" fill="#1D2831"/>
<path d="M81.1736 60.1036H81.1961C81.2042 60.0828 81.2093 60.061 81.2111 60.0387L81.1736 60.1036Z" fill="#1D2831"/>
<path d="M71.5672 59.785L71.5097 59.8025L71.5897 59.8524L71.5672 59.785Z" fill="#1D2831"/>
<path d="M81.4576 59.785V59.8848C81.4623 59.8517 81.4623 59.8181 81.4576 59.785Z" fill="#1D2831"/>
<path d="M72.8116 60.5587C72.8052 60.5909 72.8052 60.6239 72.8116 60.6561H72.8391L72.8116 60.5587Z" fill="#1D2831"/>
<path d="M84.8006 53.9296C79.2309 53.0361 73.6141 52.4666 67.9784 52.2239L67.5989 52.4751L67.3325 52.9474L67.3199 52.98C67.2973 53.1785 67.2898 53.382 67.0837 53.4975L67.1289 53.4724C66.9706 54.3818 66.7695 55.2911 66.9907 56.218C67.614 58.7727 68.7073 60.9279 71.0548 62.4577C74.7998 64.8994 81.6613 64.8693 84.6925 59.8127C85.4465 58.5567 85.5621 57.2278 85.9743 55.9341C86.3312 54.8063 85.9869 54.118 84.8006 53.9296ZM82.7898 58.3406V58.3004C82.6868 58.4763 82.5862 58.6546 82.4832 58.833L82.4983 58.7727L82.2469 59.1268H82.3148L82.1037 59.378L82.0484 59.4384L81.8599 59.6192L81.8071 59.6745L81.5558 59.8905H81.4653C81.4527 60.0286 81.3346 60.0714 81.1989 60.0965C81.1612 60.2346 81.0456 60.2774 80.9048 60.2924H80.9626L80.4072 60.6667C80.0341 60.9474 79.6058 61.146 79.1505 61.2495L78.7081 61.3826V61.3324C76.7627 62.0106 74.9179 61.6238 73.1158 60.8074C73.0027 60.7798 72.8645 60.7797 72.8318 60.6567L72.7715 60.6818L72.2688 60.3828L72.314 60.4055L71.8113 60.0563H71.8717L71.5123 59.8227L71.2232 59.6368L71.2458 59.6795L70.9719 59.4283H71.0146L70.713 59.1444V59.1696L70.2732 58.5717L70.2908 58.5918L69.9439 58.1171V58.1321C69.8585 57.9814 69.7705 57.8307 69.6926 57.68L69.6775 57.577L69.7805 57.5594C69.0265 56.64 68.9989 55.6352 69.401 54.53L72.3392 54.8389C72.2167 55.5642 72.2423 56.3067 72.4146 57.0218L72.3568 56.9942L72.6357 57.2705L72.6181 57.2429L73.0077 57.6272H72.9399L73.6235 57.9839L75.1139 58.0668C75.6012 58.0101 76.0597 57.8064 76.4283 57.4829C76.7969 57.1594 77.0582 56.7313 77.1774 56.2557C77.1598 56.0497 77.1322 55.8437 77.1322 55.6352C77.1322 55.5649 77.195 55.492 77.2528 55.384C79.3163 55.5124 81.3677 55.7911 83.3906 56.218C83.4025 56.9659 83.2021 57.7019 82.8125 58.3406H82.7898Z" fill="#1D2831"/>
<path d="M73.0755 60.7898L73.103 60.8023H73.1155L73.0755 60.7898Z" fill="#1D2831"/>
<path d="M54.7806 59.5965H54.8056L54.838 59.5815L54.7806 59.5965Z" fill="#1D2831"/>
<path d="M55.8183 58.7802L55.7758 58.8676L55.8208 58.8901C55.8236 58.8535 55.8228 58.8167 55.8183 58.7802Z" fill="#1D2831"/>
<path d="M55.527 59.0539H55.5995V59.0264L55.527 59.0539Z" fill="#1D2831"/>
<path d="M48.0368 56.2428H48.0493L47.9968 56.1879L48.0368 56.2428Z" fill="#1D2831"/>
<path d="M53.9085 62.3648C57.4272 61.4605 59.4857 59.0439 60.3805 55.4895C60.7273 54.1154 60.4735 52.8469 60.2322 51.6009C60.0537 50.6866 59.4782 49.6567 58.0531 49.7772C57.9994 50.5174 58.0707 51.2613 58.2642 51.9777C56.6053 51.9777 54.9666 52.1385 53.3731 51.9426C50.8045 51.6261 48.2307 51.5934 45.657 51.4578C44.7321 51.4101 44.1817 51.8371 43.7318 52.5681C42.6183 54.3641 42.9778 57.9412 44.5612 59.7548C47.0771 62.6486 50.3571 63.2716 53.9085 62.3648ZM48.1277 59.682L47.5421 59.2851L46.4713 58.1773C46.1759 57.9647 45.9643 57.6554 45.8732 57.3032L45.9058 57.3308C45.1217 56.2481 45.5389 55.0424 45.461 53.814H47.9216C48.1377 54.5927 47.8009 55.4367 48.1151 56.2079L48.0623 56.2405L48.2961 56.4917L48.5173 56.7128L48.8566 56.9816C49.9524 57.6599 50.9955 57.4036 51.9858 56.7555C52.8881 56.1652 53.0917 55.2483 52.9911 54.2435C53.808 53.9471 56.3465 53.922 58.0983 54.2059C58.1977 55.2235 57.9506 56.2449 57.3971 57.1047V57.0469L57.0779 57.587L57.0527 57.5167C57.0657 57.5931 57.0513 57.6717 57.0123 57.7387C56.9733 57.8057 56.912 57.8569 56.8391 57.8834H56.912L56.7235 58.1346V58.1999L56.6632 58.225C56.54 58.3381 56.4118 58.4511 56.2962 58.5666L55.8488 58.9459L55.8086 58.9259C55.8086 59.0465 55.7106 59.0892 55.5874 59.0917V59.1244L55.1727 59.4433L55.0521 59.4559L55.0395 59.3328C55.0822 59.5539 54.9239 59.584 54.7882 59.6242C52.5864 60.727 50.3847 60.8802 48.1805 59.6242V59.7146L48.1277 59.682Z" fill="#1D2831"/>
<path d="M48.2682 70.3174C48.2682 70.3024 48.2682 70.2874 48.2682 70.2725H48.2256L48.2682 70.3174Z" fill="#1D2831"/>
<path d="M48.0269 69.8327V69.8152L47.9869 69.7927L48.0269 69.8327Z" fill="#1D2831"/>
<path d="M75.1565 67.9991C74.9755 68.5493 75.071 69.1974 74.2617 69.4636C71.9422 70.2644 69.5139 70.7066 67.0608 70.7749C65.049 70.8686 63.033 70.8166 61.0287 70.6191C59.6916 70.398 58.3444 70.2197 57.0073 69.9509C55.1047 69.5641 53.1015 69.2325 51.5231 68.1197C50.3619 67.3008 49.5576 67.2832 48.5548 68.0846C48.4844 68.2026 48.4367 68.3508 48.2657 68.3358C48.2896 68.4357 48.2775 68.5408 48.2315 68.6326C48.1855 68.7245 48.1087 68.7973 48.0144 68.8382C48.0144 69.1597 48.0144 69.4812 48.032 69.8003C48.1174 69.8409 48.1877 69.9075 48.2329 69.9905C48.278 70.0735 48.2957 70.1687 48.2834 70.2624C48.3769 70.2523 48.4712 70.271 48.5538 70.3158C48.6364 70.3607 48.7034 70.4297 48.7458 70.5136C49.2258 70.6147 49.7258 70.5519 50.1659 70.3353C50.3658 70.2257 50.5967 70.1861 50.8218 70.223C51.0468 70.2599 51.253 70.3711 51.4075 70.5388C52.0107 70.6041 52.5033 70.9482 53.0412 71.1768L57.0174 72.3549C57.102 72.3294 57.1923 72.3292 57.2771 72.3542C57.3619 72.3792 57.4376 72.4283 57.4949 72.4956C57.8845 72.6137 58.4525 72.3951 58.5505 73.0608C58.6782 72.9567 58.83 72.886 58.9919 72.8553C59.1539 72.8246 59.321 72.8348 59.478 72.8849C61.1745 73.3622 62.9791 73.3371 64.6731 73.327C66.2892 73.327 67.9657 73.1613 69.6145 73.0608C71.4769 73.0306 73.3117 72.9051 74.8599 71.6817L76.5313 71.021C76.7424 71.2722 76.9184 71.5008 77.122 71.7068C77.5341 72.1188 78.0167 72.3348 78.5872 72.056C79.2256 71.747 79.2734 71.1542 79.198 70.5488C78.9869 69.0391 76.7198 67.5947 75.1565 67.9991Z" fill="#1D2831"/>
<path d="M48.2331 68.3406H48.2731C48.2731 68.3281 48.2731 68.3181 48.2731 68.3056L48.2331 68.3406Z" fill="#1D2831"/>
<path d="M48.7559 70.5639L48.7358 70.5312H48.7233L48.7559 70.5639Z" fill="#1D2831"/>
<path d="M72.5502 45.2156C72.9222 45.2432 73.2917 45.2909 73.6636 45.3286C75.0536 45.1201 76.3052 45.6978 77.6047 46.0068L79.1529 46.6851C79.749 46.8783 80.2838 47.2249 80.7037 47.6899C81.1385 48.127 81.6512 48.4209 82.267 48.1923C82.9481 47.9411 82.9356 47.3206 82.9154 46.7253C80.1155 43.5979 76.4837 42.7991 72.4949 43.0251C71.8264 43.0628 71.3915 43.4547 71.4066 44.153C71.4217 44.8513 71.8741 45.1578 72.5502 45.2156Z" fill="#1D2831"/>
<path d="M46.4513 46.9036C46.5317 46.68 46.7554 46.6976 46.9263 46.6323L46.9489 46.7026C46.9615 46.5268 47.0745 46.4514 47.2329 46.4213H47.1801C47.2278 46.3271 47.3033 46.2499 47.3964 46.2C47.4894 46.1502 47.5956 46.13 47.7004 46.1424C47.9291 45.7707 48.3262 45.7631 48.6932 45.6978C50.2339 44.5071 52.046 44.6353 53.8305 44.6604C54.6348 44.6604 55.5899 44.7985 55.6729 43.7033C55.7558 42.6081 54.8259 42.3645 53.9688 42.2941C51.9693 42.1241 49.9576 42.4172 48.09 43.1507C46.7881 43.6531 45.6067 44.3288 44.913 45.6225C44.7798 46.8358 45.363 47.1749 46.4513 46.9036Z" fill="#1D2831"/>
<path d="M60.785 76.3791C60.5337 76.3364 60.1843 76.462 60.031 76.0977C59.4731 75.9972 58.9201 75.8466 58.3596 75.8064C57.9399 75.7737 57.4146 75.4296 57.1029 75.9294C56.7611 76.4695 57.2613 76.8337 57.5403 77.2231L60.6946 78.3736C60.7549 78.2254 60.8328 78.2555 60.9183 78.351L65.3418 78.3811C66.1788 78.2053 67.1489 78.3083 67.624 77.311C67.4279 77.0774 67.252 76.8614 67.0736 76.6454C64.9673 76.4922 62.8686 76.7232 60.785 76.3791Z" fill="#1D2831"/>
<path d="M98.7775 86.9143L98.0235 86.864C96.3194 86.7535 96.239 86.8063 96.2415 88.5069C96.2415 91.1947 95.96 90.8355 98.5262 90.9359C100.658 90.9585 100.658 90.9585 100.728 89.0394C100.808 87.0122 100.808 87.0122 98.7775 86.9143Z" fill="#1D2831"/>
<path d="M34.593 83.3749C32.4114 82.7494 31.3859 83.4829 31.4136 85.6985C31.4136 85.8643 31.4136 86.0326 31.4136 86.2009C31.4362 86.5802 31.6121 86.8389 32.0168 86.8615C33.0045 86.9143 33.9898 87.1001 35.161 86.9469C35.161 85.9421 35.161 85.0805 35.161 84.2064C35.161 83.8045 35.058 83.5105 34.593 83.3749Z" fill="#1D2831"/>
<path d="M74.6011 37.4008C76.559 37.4761 78.522 37.5189 80.4824 37.5138C82.4429 37.5088 82.6012 37.2626 82.6465 35.3485C82.747 31.2615 82.8651 27.177 82.9757 23.0901C82.9757 22.9218 82.9908 22.7534 83.0009 22.5877C83.0009 21.5829 83.0486 20.5781 83.021 19.5859C82.9933 18.5936 82.5786 18.0435 81.4853 18.0611C79.1051 18.0988 76.7274 18.0812 74.3472 18.0611C73.3821 18.0611 72.8643 18.4957 72.8392 19.4703C72.7915 20.8444 72.7488 22.2209 72.7035 23.595L72.6884 24.0723C72.6499 26.5842 72.6105 29.0962 72.5703 31.6082V31.8594C72.5326 32.8994 72.5075 33.9418 72.4572 34.9818C72.3617 36.5894 73.0101 37.3405 74.6011 37.4008ZM74.6715 32.2312C74.8248 28.8475 74.8474 25.4689 74.8952 22.0878C74.9153 20.5605 75.1465 20.342 76.6319 20.3294C77.6775 20.3143 78.7231 20.3445 79.7686 20.3294C80.5478 20.3093 80.9374 20.6057 80.9198 21.4221C80.8142 25.6799 80.7263 29.9377 80.6282 34.198C80.6132 34.8762 80.2311 35.1626 79.5827 35.1601C78.9342 35.1576 78.243 35.1601 77.5719 35.1601C74.2869 35.1174 74.5182 35.6047 74.6715 32.2312Z" fill="#1D2831"/>
<path d="M94.922 50.6716C94.7712 48.4108 93.5672 47.3432 91.3002 47.1548C88.5078 46.9388 85.6953 47.1146 82.9155 46.7026C82.9356 47.298 82.9481 47.9184 82.267 48.1696C81.6512 48.3982 81.1385 48.1043 80.7037 47.6673C80.2839 47.2022 79.7491 46.8557 79.1529 46.6625L77.8611 46.7278L73.1485 46.5394C72.5452 46.3711 71.9345 46.4565 71.3237 46.4791L66.9504 46.346L66.5734 46.2806H66.111L65.2866 46.2304L58.2818 46.037C57.6971 45.8742 57.0799 45.8681 56.4922 46.0194C55.1576 45.9817 53.813 46.0194 52.4859 45.8837C51.2292 45.7531 49.9398 46.0621 48.6932 45.6878C48.3262 45.7531 47.9392 45.7606 47.7004 46.1324C47.5955 46.12 47.4894 46.1401 47.3963 46.19C47.3033 46.2399 47.2278 46.3171 47.1801 46.4113H47.2153C47.1448 46.4167 47.0786 46.4479 47.0295 46.4988C46.9804 46.5498 46.9518 46.6169 46.9489 46.6876L47.2278 46.4088L46.9464 46.6876L46.9237 46.6173C46.7528 46.6826 46.5292 46.665 46.4487 46.8885C45.3604 47.1598 44.7773 46.8207 44.9105 45.6175C43.8864 45.4297 42.8428 45.3706 41.804 45.4416C39.4565 45.5521 37.8227 47.0267 37.7348 49.3679C37.6367 51.9979 37.7122 54.643 37.7097 57.268C37.6611 59.6728 37.6116 62.0768 37.5614 64.4799C37.6373 64.6053 37.6784 64.7486 37.6806 64.8952C37.6829 65.0417 37.646 65.1862 37.5739 65.3139C37.5555 66.8813 37.5371 68.448 37.5187 70.0138C37.3796 73.0499 37.3603 76.0877 37.4608 79.1272C37.4508 80.7885 37.4399 82.4497 37.4281 84.111C37.4281 84.2039 37.4282 84.2994 37.4458 84.3923C37.3553 86.8842 37.2623 89.3761 37.4458 91.8679L37.5614 91.8855H37.677C37.7247 92.1242 37.7449 92.3553 38.0867 92.3879C39.2152 92.4583 40.3487 92.5487 41.4697 92.6391C42.9325 92.9732 44.4254 92.8149 45.9008 92.928C46.2325 92.9531 46.5568 93.0259 46.8886 93.0536C48.7359 93.2194 50.5833 93.2771 52.4306 93.6087C54.1523 93.9152 55.9493 93.6087 57.7238 93.7921C60.9032 94.1438 64.0977 94.3096 67.2747 94.6638C71.0724 95.0858 74.9103 95.1913 78.7332 95.3345C82.8124 95.4852 86.8489 96.2187 90.9407 96.1509C91.8657 96.1835 92.7931 96.3091 93.7055 95.9901C94.1051 95.5128 93.9317 94.9476 93.9568 94.4126L93.9719 92.4507V92.1593L94.0146 89.165C94.3363 83.2142 94.5173 77.2608 94.4645 71.3024C94.5198 68.896 94.5759 66.4887 94.6329 64.0805C94.715 60.6559 94.7988 57.2312 94.8843 53.8065C94.8968 52.7515 94.9923 51.709 94.922 50.6716ZM37.687 86.957C37.687 87.1705 37.687 87.3841 37.6694 87.5976C37.6694 87.3841 37.682 87.1705 37.687 86.957ZM75.4909 47.0116C75.2949 47.0116 75.0989 47.0116 74.9028 46.9941C75.0989 47.0091 75.2949 47.0141 75.4909 47.0116ZM84.7905 53.9296C85.9768 54.118 86.3262 54.8063 85.9642 55.9392C85.552 57.2328 85.4289 58.5692 84.6824 59.8176C81.6512 64.8742 74.7897 64.9044 71.0448 62.4628C68.6973 60.933 67.6039 58.7777 66.9806 56.223C66.7594 55.2961 66.9605 54.3868 67.1188 53.4774L67.0736 53.5026C67.2797 53.387 67.2872 53.1835 67.3098 52.9851L67.3224 52.9525L67.5888 52.4802L67.9683 52.229C73.6073 52.4696 79.2275 53.0374 84.8005 53.9296H84.7905ZM59.458 72.9025C59.301 72.8524 59.1339 72.8422 58.972 72.8729C58.81 72.9036 58.6583 72.9742 58.5306 73.0784C58.4326 72.4127 57.8645 72.6312 57.4749 72.5132C57.4176 72.4459 57.3419 72.3967 57.2571 72.3717C57.1723 72.3468 57.0821 72.3471 56.9974 72.3725L53.0212 71.1944C52.4834 70.9658 51.9907 70.6216 51.3875 70.5563C51.2331 70.3886 51.0269 70.2775 50.8018 70.2406C50.5768 70.2037 50.3459 70.2433 50.1459 70.3529C49.7059 70.5695 49.2058 70.6323 48.7258 70.5312C48.6834 70.4473 48.6165 70.3783 48.5339 70.3335C48.4512 70.2886 48.3569 70.27 48.2634 70.28C48.2758 70.1863 48.258 70.0911 48.2129 70.0081C48.1677 69.925 48.0974 69.8584 48.0121 69.8178C48.0121 69.4988 48.012 69.1773 47.9944 68.8558C48.0887 68.8149 48.1656 68.7421 48.2115 68.6503C48.2575 68.5584 48.2696 68.4533 48.2458 68.3534C48.4167 68.3534 48.4645 68.2127 48.5349 68.1022C49.5402 67.3009 50.3419 67.3184 51.5031 68.1373C53.0815 69.2501 55.0847 69.5817 56.9874 69.9686C58.3144 70.2373 59.6616 70.4157 61.0088 70.6367C63.0131 70.8342 65.0291 70.8863 67.0409 70.7925C69.494 70.7242 71.9222 70.282 74.2418 69.4813C75.0511 69.215 74.9556 68.5669 75.1365 68.0168C76.6999 67.6123 78.9669 69.0567 79.158 70.594C79.2334 71.1894 79.1856 71.7822 78.5472 72.1012C77.9767 72.3801 77.4941 72.164 77.0819 71.752C76.8783 71.546 76.7024 71.3149 76.4913 71.0663L74.8198 71.7269C73.2716 72.9503 71.4368 73.0759 69.5744 73.106C67.9256 73.2065 66.2492 73.3572 64.6331 73.3723C62.9692 73.3497 61.1646 73.3798 59.4681 72.9025H59.458ZM55.6729 72.38C55.2263 72.3401 54.7878 72.236 54.3709 72.0711C54.795 72.2381 55.2412 72.3422 55.6955 72.38H55.6729ZM47.9869 68.8357L48.2382 68.3333C48.1553 68.4965 48.0749 68.6623 47.9869 68.8357ZM44.5637 63.5178C44.4073 63.4383 44.2835 63.3066 44.2138 63.1457C44.1441 62.9848 44.1327 62.8046 44.1816 62.6361C44.2596 62.544 44.3672 62.4819 44.4859 62.4604C44.6047 62.4388 44.7272 62.4592 44.8326 62.518C46.788 63.46 48.8867 63.8017 51.0181 64.0001C51.38 64.0353 51.8701 63.9725 51.8801 64.5025C51.8902 65.0325 51.4126 65.03 51.0532 65.0978C48.6831 65.5399 46.5643 64.809 44.5913 63.5178H44.5637ZM47.9819 68.793C47.6777 69.1271 47.6627 69.4561 47.9693 69.7802C47.6904 69.4687 47.7054 69.1396 48.0095 68.8055L47.9819 68.793ZM48.2182 70.265L47.9668 69.7751C48.0749 69.951 48.1603 70.1143 48.2458 70.2775L48.2182 70.265ZM50.9201 70.5312C50.5657 70.5739 50.2113 70.6995 49.8544 70.7623C50.2465 70.7221 50.6008 70.5865 50.9552 70.5539L50.9201 70.5312ZM52.3024 64.1583C52.3024 64.0905 52.3728 64.0252 52.4105 63.9574L52.6894 64.1282C52.6165 64.2312 52.5839 64.3317 52.5261 64.3518C52.4004 64.4246 52.3326 64.3216 52.3376 64.181L52.3024 64.1583ZM66.5608 54.4622C66.5158 54.6258 66.493 54.7948 66.493 54.9645C66.5064 54.8008 66.541 54.6395 66.596 54.4847L66.5608 54.4622ZM66.5207 55.2484C66.5057 55.1654 66.4964 55.0814 66.493 54.9972C66.5073 55.0874 66.5283 55.1764 66.5558 55.2635L66.5207 55.2484ZM62.3032 70.2876C62.2278 70.2876 62.1499 70.275 62.0745 70.2725C62.185 70.2976 62.263 70.3026 62.3384 70.3102L62.3032 70.2876ZM74.8701 65.4998C74.5484 65.3716 74.1764 65.3214 74.2141 64.8919C74.2468 64.5 74.5987 64.4949 74.8927 64.5326C77.9235 64.9527 81.0111 64.632 83.8907 63.5982C84.2162 63.5236 84.5496 63.4899 84.8835 63.4977L84.9513 63.445L84.9036 63.5178C84.5467 64.9522 83.2673 65.3239 82.1388 65.555C79.7737 66.0649 77.3207 66.4719 74.9028 65.5224L74.8701 65.4998ZM47.6828 46.1374C47.6413 46.2031 47.5866 46.2593 47.5221 46.3025C47.4576 46.3458 47.3848 46.3751 47.3083 46.3886C47.3887 46.3822 47.4667 46.3584 47.537 46.319C47.6073 46.2795 47.6682 46.2253 47.7155 46.1601L47.6828 46.1374ZM46.7654 46.9865C46.7481 46.9978 46.7287 47.0053 46.7084 47.0088C46.6881 47.0122 46.6673 47.0115 46.6473 47.0066C46.67 47.0202 46.6959 47.0276 46.7223 47.028C46.7488 47.0285 46.7749 47.0219 46.7981 47.0091L46.7654 46.9865ZM43.6865 52.5455C44.1364 51.8145 44.6919 51.3875 45.6118 51.4352C48.1855 51.5709 50.7592 51.6035 53.3278 51.92C54.9213 52.1159 56.5601 51.9552 58.2189 51.9552C58.0255 51.2388 57.9541 50.4949 58.0078 49.7547C59.4279 49.6341 60.0185 50.6641 60.1869 51.5784C60.4382 52.8344 60.6896 54.0904 60.3352 55.4669C59.4404 59.0214 57.3845 61.4379 53.8632 62.3422C50.3419 63.2465 47.0444 62.6261 44.5159 59.7323C42.9626 57.9412 42.5982 54.3642 43.7192 52.5681L43.6865 52.5455ZM41.8165 77.3889L56.2635 78.0571L60.2422 78.3485C60.2946 78.2994 60.3639 78.2725 60.4357 78.2732H60.4608L57.5177 77.2005C57.2387 76.8112 56.7385 76.4469 57.0804 75.9068C57.3945 75.4044 57.9198 75.7511 58.337 75.7838C58.8975 75.8315 59.4505 75.9747 60.0085 76.0752C60.1517 76.4394 60.4961 76.3138 60.7625 76.3565C62.8461 76.7006 64.9523 76.4695 67.0459 76.6077C67.2244 76.8237 67.4003 77.0398 67.5964 77.2734C67.1213 78.2782 66.1512 78.1676 65.3142 78.3434L60.8907 78.3133C62.3359 78.8835 63.8389 78.5068 65.3142 78.5796L88.9853 79.8909C89.1939 79.8949 89.4021 79.9117 89.6087 79.9411C90.0787 80.0315 90.3828 80.3053 90.3224 80.8027C90.2646 81.2548 89.9253 81.388 89.4955 81.3729C88.2388 81.3252 86.9821 81.3176 85.7254 81.2523C78.0814 80.8504 70.4407 80.4418 62.8033 80.0265C56.1228 79.6522 49.4447 79.2277 42.7666 78.8559C41.8442 78.8333 41.4621 78.5193 41.8442 77.4115L41.8165 77.3889ZM56.457 77.8361C56.5123 77.8125 56.5707 77.7972 56.6304 77.7908C56.5801 77.8112 56.5328 77.8382 56.4897 77.8712L56.457 77.8361ZM55.3813 85.6157C55.2696 85.5924 55.1561 85.5789 55.042 85.5754C55.1686 85.5842 55.294 85.6052 55.4165 85.6382L55.3813 85.6157ZM52.785 85.5855C52.7688 85.574 52.7495 85.5679 52.7297 85.5679C52.7466 85.5662 52.7637 85.569 52.7791 85.576C52.7946 85.5831 52.8079 85.5942 52.8176 85.6081L52.785 85.5855ZM41.4747 85.9422C41.535 85.3292 41.9774 85.2615 42.4801 85.2916C45.1945 85.4591 47.9098 85.6123 50.626 85.7513C51.2518 85.7865 51.8826 85.8015 52.5034 85.8266H52.9659L53.4988 85.8518L56.2182 86.0226C61.1847 86.3307 66.152 86.6397 71.1201 86.9495C76.9688 87.3037 82.815 87.6428 88.6611 88.0096C89.1789 88.0422 89.9605 87.8362 89.9178 88.7908C89.8826 89.7956 89.1261 89.5669 88.5304 89.5293C76.8348 88.8259 65.14 88.1192 53.446 87.4092C49.98 87.2032 46.509 87.0374 43.0406 86.8566C42.8319 86.8566 42.6208 86.8565 42.4147 86.8289C41.9095 86.7988 41.427 86.6631 41.4949 85.9648L41.4747 85.9422ZM93.6828 90.6295C93.6811 90.3766 93.7047 90.1242 93.7532 89.876C93.7099 90.1323 93.693 90.3923 93.7029 90.6521L93.6828 90.6295Z" fill="#A6B3A3"/>
<path d="M60.5891 78.2907H60.4911L60.6871 78.3611L60.5891 78.2907Z" fill="#A6B3A3"/>
<path d="M83.0009 22.5851C83.0009 22.7534 82.9833 22.9217 82.9758 23.0875C83.0293 23.0157 83.0602 22.9296 83.0647 22.8402C83.0692 22.7508 83.047 22.662 83.0009 22.5851Z" fill="#A6B3A3"/>
<path d="M83.393 56.1904C81.3701 55.7635 79.3187 55.4848 77.2553 55.3564C77.1974 55.4745 77.1346 55.5473 77.1346 55.6076C77.1346 55.8161 77.1622 56.0221 77.1798 56.2281C77.0606 56.7037 76.7993 57.1317 76.4307 57.4552C76.0621 57.7788 75.6036 57.9825 75.1164 58.0392L73.6259 57.9563L72.9473 57.5971C72.9682 57.5984 72.9892 57.5984 73.0101 57.5971L72.6205 57.2128C72.6195 57.2177 72.6195 57.2229 72.6205 57.2278L72.3692 56.9616C72.3868 56.9731 72.4053 56.9831 72.4245 56.9917C72.2523 56.2766 72.2266 55.5341 72.3491 54.8088L69.411 54.4998C69.0088 55.6051 69.049 56.6099 69.7905 57.5293L69.6874 57.5469L69.7025 57.6498C69.7905 57.8006 69.8784 57.9513 69.9538 58.102L70.2806 58.5517L70.7179 59.147C70.7179 59.147 70.7179 59.147 70.7179 59.1319C70.8109 59.2248 70.9064 59.3178 71.007 59.4107C70.9936 59.4094 70.9801 59.4094 70.9667 59.4107C71.0572 59.4987 71.1452 59.5841 71.2382 59.6619C71.2325 59.6472 71.2258 59.633 71.2181 59.6193L71.5021 59.8051L71.864 60.0387H71.8012L72.2762 60.3653L72.7789 60.6642L72.8417 60.6391C72.8769 60.7622 73.0126 60.7622 73.1257 60.7898C74.9278 61.6087 76.7727 61.9931 78.718 61.3148V61.3651L79.1604 61.2319C79.6157 61.1284 80.044 60.9298 80.4171 60.6491L80.9726 60.2748H80.9147C81.0555 60.2598 81.1661 60.2171 81.2113 60.0789C81.347 60.0513 81.4626 60.0111 81.4777 59.873H81.5657L81.8171 59.6569L81.8698 59.6016L82.0583 59.4208L82.1136 59.3605L82.3248 59.1093H82.2569L82.5082 58.7802V58.8154C82.6088 58.6395 82.7093 58.4662 82.8124 58.2929V58.323C83.2047 57.6817 83.4061 56.9419 83.393 56.1904Z" fill="#D2BE93"/>
<path d="M52.9885 54.2335C53.079 55.2383 52.8754 56.1501 51.9832 56.7455C50.9929 57.3936 49.9498 57.6498 48.854 56.9716L48.5147 56.7028L48.2935 56.4818C48.2181 56.3989 48.1402 56.3185 48.0623 56.2306L48.1125 56.1979C47.7984 55.4267 48.1351 54.5827 47.919 53.804H45.4584C45.5363 55.0323 45.1267 56.228 45.8882 57.3056H45.8706C45.9617 57.6579 46.1733 57.9672 46.4688 58.1799L47.5395 59.2876L48.1251 59.682H48.2156V59.5916C50.4199 60.8475 52.6216 60.7018 54.8233 59.5916C54.9666 59.5488 55.1249 59.5212 55.0746 59.3027L55.0872 59.4233L55.2078 59.4107L55.6225 59.0917C55.6217 59.0808 55.6217 59.0699 55.6225 59.059C55.7457 59.059 55.8311 59.0138 55.8462 58.8932L55.8839 58.9133L56.3187 58.5441C56.4394 58.4285 56.5701 58.3155 56.6857 58.2024L56.746 58.1773V58.112L56.9345 57.8608H56.8616C56.9345 57.8343 56.9958 57.783 57.0349 57.716C57.0739 57.649 57.0882 57.5705 57.0753 57.494L57.1004 57.5644L57.4071 57.0495C57.4083 57.0603 57.4083 57.0712 57.4071 57.0821C57.9606 56.2223 58.2077 55.2009 58.1083 54.1833C56.3439 53.912 53.8054 53.9371 52.9885 54.2335Z" fill="#D2BE93"/>
<path d="M60.2724 78.3736C60.3248 78.3245 60.3941 78.2975 60.4659 78.2982C60.4559 78.464 60.3754 78.4465 60.2724 78.3736Z" fill="#859F9A"/>
<path d="M55.743 11.9244L54.803 11.8716C54.9444 11.954 55.1033 12.0018 55.2667 12.011C55.4301 12.0201 55.5933 11.9905 55.743 11.9244Z" fill="#2B404C"/>
<path d="M54.2215 11.8588C54.1962 11.8422 54.1671 11.8324 54.1369 11.8302C54.1067 11.828 54.0765 11.8335 54.0491 11.8463L54.134 11.8863L54.2215 11.8588Z" fill="#2B404C"/>
<path d="M115.341 89.1751C115.027 88.7571 114.802 88.2794 114.68 87.7713C114.559 87.2633 114.542 86.7357 114.632 86.221C115.361 81.5688 114.569 77.1402 112.603 72.9076C111.92 71.4355 111.276 69.8228 109.942 68.8658C108.728 67.9966 108.263 67.0295 108.311 65.6002C108.509 59.7523 108.665 53.9045 108.828 48.0566C108.859 47.0518 108.828 46.047 108.864 45.0423C109.009 39.737 109.15 34.4317 109.334 29.1289C109.374 27.9784 108.76 27.8729 107.848 27.8352C106.878 27.8051 106.534 28.1366 106.511 29.1289C106.39 34.9793 106.184 40.8272 106.059 46.6776C105.93 52.7817 105.905 58.8882 105.734 64.9898C105.689 66.6703 106.033 68.1222 107.044 69.4385C110.706 74.2113 111.065 79.7552 110.744 85.4423C110.693 86.5798 110.214 87.6563 109.404 88.4567C107.099 90.8305 106.503 95.8369 108.064 98.7156C108.341 99.218 108.743 99.6726 109.344 99.5295C110.03 99.3662 109.809 98.7231 109.738 98.2609C109.567 97.1255 109.811 96.0529 110.025 94.7567C111.281 95.8142 111.415 97.1029 111.784 98.2735C111.94 98.7759 112.144 99.2983 112.789 99.1451C113.481 98.9818 113.332 98.374 113.237 97.9017C113.068 97.0804 113.033 96.2372 113.134 95.4048C113.151 95.2145 113.228 95.0346 113.356 94.8921C113.483 94.7495 113.653 94.6517 113.84 94.6135C114.325 94.4954 114.541 94.8647 114.664 95.2064C114.835 95.7205 114.972 96.2449 115.077 96.7763C115.15 97.1054 115.16 97.4696 115.549 97.5852C115.939 97.7007 116.193 97.447 116.416 97.1983C116.992 96.5653 117.082 95.759 117.067 94.9652C117.042 92.8803 116.565 90.8908 115.341 89.1751Z" fill="#2B404C"/>
<path d="M87.4369 107.553C86.6981 105.026 86.276 102.417 86.1802 99.7856C86.1501 98.6527 85.5268 98.173 84.3731 98.2257C83.3677 98.2684 83.1315 98.9215 83.1667 99.7655C83.1918 100.434 83.2295 101.099 83.2974 101.775C83.5438 104.017 83.964 106.237 84.5541 108.414C84.9512 109.896 84.534 110.326 83.1089 109.982C80.9851 109.479 79.1754 110.283 77.3984 111.263C76.679 111.614 76.0901 112.185 75.717 112.893C75.2143 113.936 75.4154 114.4 76.5716 114.491C77.7755 114.579 78.9945 114.511 80.1557 114.511C82.6439 114.729 85.0392 114.297 87.4445 114.046C89.3044 113.853 89.7467 113.132 89.0983 111.341C88.6383 110.024 87.8165 108.904 87.4369 107.553Z" fill="#2B404C"/>
<path d="M56.2809 107.724C55.0569 104.649 53.9057 101.554 54.0641 98.1629C54.0313 97.8285 54.0356 97.4916 54.0767 97.1581C54.3054 96.1408 53.7801 95.9348 52.9155 95.9223C51.3622 95.9022 51.1285 96.0679 51.2667 97.6253C51.5009 100.414 51.9267 103.184 52.541 105.915C52.8979 107.462 52.5636 107.924 51.0078 107.987C50.5479 108.007 50.0854 107.972 49.628 108.002C47.4941 108.145 45.6518 108.909 44.282 110.615C43.8949 111.097 43.3244 111.602 43.6235 112.263C43.9226 112.923 44.7093 112.8 45.31 112.765C48.5598 112.577 51.802 112.263 55.0594 112.227C55.4768 112.193 55.8885 112.108 56.2859 111.976C56.9997 111.788 57.2913 111.383 57.1581 110.59C56.9731 109.605 56.6788 108.643 56.2809 107.724Z" fill="#2B404C"/>
<path d="M108.273 85.8341C108.296 83.0307 108.384 80.2224 108.273 77.424C108.19 75.4999 107.733 73.6234 105.624 72.3373C105.468 79.1196 105.317 85.6884 105.167 92.2648C105.653 90.269 106.631 88.4264 108.012 86.9042C108.22 86.6631 108.271 86.1983 108.273 85.8341Z" fill="#2B404C"/>
<path d="M109.15 26.1246C109.731 23.4317 108.997 20.347 106.544 18.6213V23.8186C106.544 26.2577 106.544 26.2577 109.15 26.1246Z" fill="#2B404C"/>
<path d="M77.5744 35.1374C78.243 35.1374 78.9141 35.1374 79.5851 35.1374C80.2562 35.1374 80.6156 34.8536 80.6307 34.1754C80.7287 29.905 80.8167 25.6573 80.9223 21.3995C80.9398 20.5831 80.5503 20.2867 79.7711 20.3068C78.7256 20.3344 77.68 20.3068 76.6344 20.3068C75.1566 20.3294 74.9178 20.558 74.8977 22.0652C74.8499 25.4463 74.8273 28.8249 74.674 32.2085C74.5207 35.5921 74.2869 35.1173 77.5744 35.1374Z" fill="#2B404C"/>
</svg>
