<svg width="130" height="130" viewBox="0 0 130 130" fill="none" xmlns="http://www.w3.org/2000/svg">
<path d="M129.56 0.507202H0.874634V129.12H129.56V0.507202Z" fill="#149980"/>
<path opacity="0.3" d="M64.5891 128.115C87.2846 128.115 105.683 125.304 105.683 121.835C105.683 118.367 87.2846 115.556 64.5891 115.556C41.8936 115.556 23.4952 118.367 23.4952 121.835C23.4952 125.304 41.8936 128.115 64.5891 128.115Z" fill="#1D2831"/>
<path d="M100.581 120.012C93.2368 118.814 88.68 115.277 81.4968 120.494C74.7332 124.82 70.6238 119.319 59.9092 123.845C59.2043 123.96 58.4827 123.917 57.7967 123.718C57.1107 123.52 56.4775 123.171 55.9432 122.697C51.8438 119.15 46.5406 121.502 41.8003 121.74C39.1763 122.305 39.2869 120.326 37.9196 118.773C36.0471 117.965 34.1822 117.015 32.0408 117.826C30.2387 118.758 23.6938 120.881 25.6191 116.839C34.8759 103.96 36.5272 88.1776 38.94 72.9978C39.0883 72.1261 38.8722 71.576 38.2363 71.0435C30.7866 65.188 37.5677 58.9458 37.4496 51.6711C36.5347 46.7225 31.606 43.6554 28.1074 40.4401C26.5038 39.2042 26.4736 38.6239 28.0596 37.3654C30.8925 35.1228 34.1866 33.5341 37.706 32.7132C39.0858 32.3842 39.5584 31.6883 39.7167 30.3193C40.2194 26.0289 41.0388 21.8012 43.1198 17.9378C48.2321 8.58068 59.8062 6.29229 69.5808 7.34983C78.9532 8.26419 85.3297 16.1543 86.6568 25.1472C87.7501 27.2221 86.0159 32.2988 88.489 32.5399C90.7988 32.5826 104.22 37.5412 100.249 40.2416C95.8758 43.0952 90.643 46.8632 89.14 51.9675C89.0394 58.142 92.2817 65.693 86.7849 70.4104C90.4671 84.0505 93.3374 99.4363 100.357 112.318C101.79 115.701 108.42 120.328 100.581 120.012ZM50.9264 43.8991H50.9566C48.7674 44.2608 46.2239 44.4567 44.379 42.952C43.3888 45.8333 45.0551 49.0109 45.1481 51.9951C45.965 55.3034 44.8138 59.9581 47.0508 62.5605C58.0619 70.5612 52.3289 72.2869 61.1257 65.703C63.6391 63.9095 66.2681 62.1736 69.1183 60.9604C72.0967 60.2872 71.8428 57.6019 71.9534 55.1401C72.617 51.9625 74.4467 49.2646 75.1479 46.0518C75.8492 44.7406 74.5221 40.0784 72.8733 41.5956C70.6389 44.3236 67.462 45.3636 64.0513 44.7406C61.6837 43.8815 58.4088 40.9023 58.9265 38.2622C59.0924 37.8126 59.0371 37.6242 58.7883 37.2574C57.8181 35.9537 58.9667 35.5241 59.8238 34.6424C62.2844 35.4688 64.9109 34.3611 67.3991 34.9614C68.2964 35.2126 69.0882 35.0871 69.9879 34.7304C68.9072 33.5472 68.6609 30.2766 66.6627 31.0202C64.4861 31.7587 58.831 37.1318 58.9114 32.025C59.4141 30.8619 61.6611 32.4696 63.1566 30.5755C64.2801 28.6112 67.9672 29.822 67.7686 27.212C67.1151 23.6375 67.2006 18.6336 62.4905 18.3899C61.0453 18.2066 59.3814 19.1436 58.1147 19.6635C57.6975 20.7939 57.049 20.4624 56.3151 20.0002C50.4162 15.4434 48.9961 23.547 47.7545 27.7345C49.5139 28.8397 56.5338 31.6934 54.699 34.1476C52.4771 34.3787 49.0665 28.9955 47.1035 30.249C46.2965 31.7529 45.3721 33.1909 44.3388 34.5495C45.9876 34.4741 59.2633 34.7002 54.6789 37.6015C56.104 39.7945 51.4567 47.7524 56.5363 45.8685C57.2249 45.5695 57.5039 46.0794 57.793 46.514C58.4666 48.614 54.797 47.9333 53.5956 47.7298C52.6958 47.5188 52.8668 46.607 52.4219 46.1272C51.9192 45.5947 52.4998 44.9842 52.1856 44.4693C52.1655 44.1603 52.1429 43.8513 52.1177 43.4645C51.6678 43.8212 51.0822 43.5373 50.9264 43.9041V43.8991ZM47.4303 36.9459C46.2892 36.8354 45.1431 37.0489 44.0271 36.8002C43.0218 39.8799 44.7259 41.1811 47.2493 41.9271C49.9512 43.0349 52.5802 40.3923 53.7314 38.1014C52.6481 37.5437 52.6405 37.7573 51.9493 38.5184C51.5924 38.6993 51.3235 39.0459 50.9968 39.2921C48.6291 41.3418 48.5563 38.0035 47.4303 36.951V36.9459ZM61.0026 38.9555C62.1034 45.4163 73.9063 42.5577 71.3477 37.5111C69.5179 36.9133 69.1459 37.064 69.0856 38.4405C68.1808 41.2288 64.4635 40.5305 65.2326 37.383C63.6014 37.687 62.0431 36.8278 60.52 37.7221C60.6935 38.2019 60.8493 38.5762 60.9975 38.953L61.0026 38.9555ZM56.755 120.517C57.4436 121.705 58.5143 121.971 59.7207 121.652C62.9881 120.632 66.2958 120.115 69.6109 119.628C63.903 104.229 59.2382 88.479 55.1037 72.5079C51.2582 88.3886 46.8371 104.066 41.28 119.688C46.6637 119.366 51.8362 117.475 56.775 120.512L56.755 120.517ZM69.0555 78.3458C70.0396 84.17 71.8154 89.8324 74.3336 95.176C74.9795 97.3815 76.3242 99.3684 77.1788 101.524C78.2922 102.968 78.4506 107.238 80.881 106.563C78.6994 99.7277 75.065 93.39 72.9689 86.467C71.6292 82.3498 70.571 78.2227 70.2996 73.9071C70.2544 73.2012 70.0835 72.425 69.2314 72.4904C67.6505 72.8948 69.2314 76.9918 69.0605 78.3558L69.0555 78.3458ZM88.6599 48.3679C91.676 44.7155 94.7474 41.5277 98.52 38.9278C95.431 36.549 92.1183 35.2629 88.5719 34.5394C85.5885 34.3134 88.5493 46.0493 88.6499 48.3654L88.6599 48.3679ZM35.1021 44.3185L35.7003 44.3663C35.2152 40.8822 36.4895 37.8553 37.804 34.753C34.6949 35.6271 31.7191 36.554 29.2736 38.8726L35.1021 44.3185ZM45.7237 81.2446C44.6052 76.188 40.7673 94.7138 39.9429 95.7261C39.8398 97.3313 36.9871 101.37 38.4901 102.285C39.2944 102.549 39.1788 101.7 39.4327 101.28C42.3189 94.8734 44.4275 88.1445 45.7136 81.237L45.7237 81.2446ZM81.4867 72.7416C80.9011 70.938 74.6478 60.8298 72.7325 62.4776C72.1067 63.0579 72.6496 63.4322 72.9839 63.8266C75.3791 66.5395 77.8876 69.162 79.5037 72.4652C79.8907 73.264 81.4967 74.412 81.4766 72.734L81.4867 72.7416ZM62.0456 9.84924C59.5322 9.71861 56.383 16.2598 57.3129 18.2845C57.793 16.83 59.6152 16.3728 59.0145 14.5617C58.8361 14.0216 59.3035 13.7403 59.6227 13.4288C60.6531 12.4016 61.4728 11.183 62.0356 9.84169L62.0456 9.84924ZM39.581 70.2672C40.0836 67.6121 41.2222 65.1378 41.6997 62.1787C39.0129 64.6078 38.8094 67.3257 39.581 70.2672Z" fill="#1D2831"/>
<path d="M52.1882 44.4668C52.5023 44.9817 51.9369 45.5922 52.4245 46.1247C52.8693 46.6045 52.6984 47.5163 53.5982 47.7273C54.7971 47.9358 58.4691 48.6065 57.7955 46.5115C57.514 46.0769 57.2351 45.567 56.5388 45.8634C51.4593 47.7424 56.1066 39.802 54.6815 37.599C56.1443 36.6847 56.1267 36.343 54.6639 35.4563C54.684 35.0192 55.0987 34.5922 54.6965 34.145C56.5363 31.7009 49.5114 28.8372 47.752 27.732C48.9962 23.547 50.4087 15.4384 56.3127 19.9977C57.4537 20.7965 57.6422 20.397 58.3686 19.4048C61.2087 18.3071 64.6998 17.6012 66.5296 20.8517C66.703 22.6653 69.2063 28.6564 66.512 28.9126C64.0338 28.8976 63.1516 31.5779 60.6884 31.6758C60.0827 31.6758 59.1553 31.196 58.909 32.0325C58.175 33.1679 60.3919 34.1501 59.5273 35.0469C57.4311 35.9085 59.1452 36.9534 58.924 38.2999C58.3485 39.8849 60.2612 42.2035 61.5028 43.2234C61.2313 43.2862 60.9247 43.0952 60.6784 43.3414C65.8509 51.0507 71.8428 40.1436 72.6044 48.5839C72.2576 52.3518 73.4012 51.1285 71.951 55.1778C71.8328 57.642 72.0992 60.3249 69.1159 60.9981C66.2657 62.2114 63.6417 63.9471 61.1233 65.7407C58.7808 66.4942 55.923 72.2165 54.0104 68.5591C51.6478 66.6198 49.5416 64.3716 47.0458 62.5982C46.7593 62.4377 46.5165 62.2096 46.3386 61.9338C46.1607 61.6579 46.0532 61.3426 46.0253 61.0156C45.7966 55.2959 44.3514 49.5962 44.1604 43.9694C46.7969 46.2252 49.2274 45.9564 52.1882 44.4668ZM58.7406 57.5114C60.0475 61.1061 62.664 61.081 63.2773 57.2377C63.3828 56.6448 63.3401 55.8636 64.1569 55.7958C69.4351 54.3815 55.1389 44.3211 49.7024 53.1306C48.2296 54.8337 50.1071 55.1402 50.4565 56.7353C51.3462 59.7823 53.6284 61.7366 54.9806 57.4612C56.2297 57.5968 57.4763 58.1369 58.7406 57.5064V57.5114Z" fill="#D7C39E"/>
<path d="M54.7518 119.555C50.1724 117.796 46.0001 119.512 41.2624 119.685C46.8321 104.063 51.2531 88.3861 55.086 72.5054C59.2206 88.4715 63.8829 104.227 69.5933 119.625C66.2781 120.112 62.9681 120.63 59.7032 121.65C58.5068 121.969 57.4235 121.702 56.7373 120.514C56.0638 111.986 55.8024 103.408 54.9051 94.8921C54.8573 94.5505 54.8121 94.0782 54.224 94.3118C53.1256 102.652 53.8771 111.192 54.7518 119.555Z" fill="#443C55"/>
<path d="M88.6498 48.3653C88.5518 46.0694 85.5885 34.3158 88.5618 34.5369C92.1082 35.2603 95.4209 36.5465 98.5098 38.9253C94.7372 41.5252 91.6608 44.7179 88.6498 48.3653Z" fill="#443C55"/>
<path d="M74.3286 95.1659C71.8104 89.8223 70.0346 84.1599 69.0505 78.3357C69.2063 76.9918 67.6556 72.8093 69.2214 72.4702C70.0734 72.4049 70.2443 73.1811 70.2896 73.887C70.561 78.2076 71.6192 82.3348 72.9588 86.4469C75.055 93.3623 78.6894 99.7001 80.871 106.543C78.443 107.221 78.2797 102.946 77.1688 101.504C76.3142 99.3484 74.9695 97.3614 74.3236 95.1559L74.3286 95.1659Z" fill="#2A3842"/>
<path d="M54.7517 119.555C53.877 111.192 53.1255 102.652 54.249 94.3067C54.8372 94.0731 54.8824 94.5579 54.9301 94.887C55.8274 103.403 56.0888 111.981 56.7624 120.509L54.7517 119.555Z" fill="#353339"/>
<path d="M35.0921 44.316L29.2635 38.87C31.7091 36.5515 34.6849 35.6246 37.794 34.7504C36.4795 37.8527 35.2052 40.8796 35.6903 44.3638L35.0921 44.316Z" fill="#443C55"/>
<path d="M45.7136 81.2369C44.4258 88.1403 42.3163 94.865 39.4301 101.267C39.1788 101.692 39.2919 102.541 38.4876 102.272C36.9796 101.29 39.8398 97.3488 39.9404 95.7135C40.7346 94.7514 44.6278 76.1175 45.7136 81.2369Z" fill="#2A3842"/>
<path d="M71.3426 37.5086C73.9013 42.5552 62.0958 45.4138 60.9975 38.953C62.5055 38.5762 63.7622 37.697 65.2175 38.6892C65.3331 41.0404 68.7363 40.3647 69.0705 38.438C70.3222 39.3398 70.747 38.2044 71.3426 37.5086Z" fill="#D7C39E"/>
<path d="M54.7039 34.1399C55.1061 34.5871 54.6914 35.0142 54.6713 35.4512C51.2782 35.0996 47.9303 34.2605 44.3488 34.5419C45.382 33.1833 46.3065 31.7453 47.1135 30.2414C49.0714 28.9879 52.4821 34.3685 54.7039 34.1399Z" fill="#443C55"/>
<path d="M47.9103 37.9356C50.4237 43.0274 51.3713 36.6646 53.7313 38.1039C52.5802 40.3948 49.9612 43.0374 47.2493 41.9297C44.7359 41.1761 43.0218 39.8824 44.0271 36.8027C45.1431 37.0539 46.2892 36.8379 47.4302 36.9484C46.2188 37.6066 43.2756 36.4109 44.4795 38.8651C46.3998 37.1569 46.4802 37.1343 47.9103 37.9356Z" fill="#D7C39E"/>
<path d="M81.4766 72.734C81.4942 74.4095 79.8932 73.2665 79.5061 72.4577C77.89 69.1544 75.3816 66.532 72.9863 63.819C72.6395 63.4246 72.0966 63.0503 72.735 62.4701C74.5974 60.7946 80.906 70.938 81.4766 72.734Z" fill="#2A3842"/>
<path d="M59.8287 34.6449L59.7231 34.1853C64.9108 34.2832 66.8285 26.6091 69.9929 34.7329C69.0931 35.0896 68.3014 35.2202 67.4041 34.9639C64.9158 34.3636 62.2894 35.4714 59.8287 34.6449Z" fill="#443C55"/>
<path d="M62.0356 9.84171C61.469 11.1812 60.6459 12.3972 59.6127 13.4213C59.2935 13.7328 58.826 14.0141 59.0045 14.5542C59.6052 16.3653 57.783 16.815 57.3029 18.2769C56.373 16.2523 59.5172 9.71109 62.0356 9.84171Z" fill="#2A3842"/>
<path d="M39.5809 70.2672C38.8269 67.3307 39.0229 64.6077 41.6997 62.1786C41.2121 65.1378 40.0685 67.612 39.5809 70.2672Z" fill="#443C55"/>
<path d="M74.0898 41.6006C73.6374 41.0379 73.386 41.0002 72.8783 41.6006C71.5454 43.2047 69.7538 44.3634 67.7435 44.9214L64.0563 44.7456C64.2353 44.8422 64.421 44.9261 64.6118 44.9968C63.4202 44.7191 62.3395 44.0898 61.5103 43.1906C61.2388 43.2534 60.9322 43.0625 60.6859 43.3087C64.7073 49.3374 69.1358 44.0095 71.5965 45.3911C73.1045 47.3881 72.0991 49.7921 72.8531 51.9926C74.3185 48.8978 76.7791 44.6426 74.0898 41.6006Z" fill="#BDA383"/>
<path d="M51.4264 43.7408C51.2354 43.7207 51.0143 43.5926 50.9238 43.9041L51.2154 43.8136C51.1199 43.8488 51.0294 43.8764 50.964 43.9015C50.8006 44.0534 50.6046 44.166 50.391 44.2306C50.5845 44.1327 50.7755 44.0196 50.964 43.9015L48.4782 44.2457C48.5596 44.293 48.6435 44.3357 48.7296 44.3738C47.0858 44.2557 45.1204 43.5951 44.3915 42.9545C43.9994 43.2836 44.2583 43.6403 44.1804 43.9442C46.8094 46.205 49.2373 45.9538 52.2006 44.4617C52.1805 44.1527 52.1579 43.8438 52.1327 43.4569C51.8965 43.5599 51.6451 43.6579 51.4264 43.7408Z" fill="#BDA383"/>
<path d="M65.2174 38.6892V37.3804C63.5862 37.6844 62.0279 36.8253 60.5048 37.7195C60.6983 38.2018 60.8491 38.5761 61.0074 38.9529C62.5104 38.5761 63.7521 37.6844 65.2174 38.6892Z" fill="#BDA383"/>
<path d="M47.9102 37.9356C48.2746 36.3556 46.3243 37.4207 45.4722 37.167C44.1602 37.2499 43.9466 37.594 44.4669 38.8651C46.3997 37.1569 46.4801 37.1343 47.9102 37.9356Z" fill="#BDA383"/>
<path d="M71.3427 37.5086C69.5129 36.9107 69.1409 37.0614 69.0806 38.438C70.3222 39.3398 70.747 38.2044 71.3427 37.5086Z" fill="#BDA383"/>
<path d="M54.9754 57.4586C53.6383 61.729 51.3411 59.7772 50.4513 56.7302C50.1045 55.1301 48.2194 54.8236 49.6973 53.1255C55.1438 44.3135 69.4299 54.3815 64.1518 55.7932C62.5357 56.3559 63.7497 59.3376 61.6384 60.0636C59.7006 60.9377 58.7581 57.4813 58.3359 56.0821C57.8985 54.0926 57.798 54.0348 55.546 54.7131C55.6189 55.6601 54.9352 56.4765 54.9754 57.4586ZM52.3414 57.1245C53.7238 56.4187 53.8092 55.2682 53.7589 53.9394L51.0621 54.3463C51.7181 55.2682 51.8965 56.2202 52.3414 57.1245ZM61.9702 54.6427C61.2715 54.2157 60.5752 54.6201 60.1052 54.8939C59.2255 55.3963 60.1806 56.0344 60.3063 56.5996C61.1433 59.1668 62.2844 55.9263 61.9702 54.6427Z" fill="#1D2831"/>
<path d="M54.9753 57.4587C54.9351 56.4765 55.6188 55.6601 55.5559 54.6955C58.5569 53.4044 58.014 55.5094 58.7404 57.4989C57.4762 58.1369 56.2295 57.5968 54.9753 57.4587Z" fill="#443C55"/>
<path d="M52.3415 57.1246C51.9016 56.2202 51.7181 55.2708 51.0621 54.3464L53.759 53.9394C53.8093 55.2682 53.7238 56.4187 52.3415 57.1246Z" fill="#D7C39E"/>
<path d="M61.9701 54.6427C62.2843 55.9263 61.1432 59.1643 60.3062 56.592C60.1806 56.0268 59.2255 55.3837 60.1051 54.8864C60.5751 54.6201 61.2714 54.2157 61.9701 54.6427Z" fill="#D7C39E"/>
</svg>
