<svg width="130" height="130" viewBox="0 0 130 130" fill="none" xmlns="http://www.w3.org/2000/svg">
<path d="M129.062 0.267578H0.376221V128.881H129.062V0.267578Z" fill="#D2BE93"/>
<path d="M59.1595 128.268C58.7397 126.524 58.2497 124.791 58.2371 122.993C58.2371 122.111 57.9858 121.609 57.0508 121.413C56.1042 121.218 55.2207 120.792 54.4796 120.172C54.2282 119.966 53.9367 119.702 54.1805 119.32C54.3615 119.034 54.6832 119.029 54.9697 119.096C56.4777 119.443 57.9632 119.85 59.534 119.805C60.0669 119.787 60.1925 120.197 60.2252 120.661C60.376 122.947 60.5394 125.231 60.6977 127.517H60.7404C60.7404 127.685 60.7404 127.851 60.7404 128.019C60.7404 128.464 60.7404 128.928 60.1875 129.024H89.0362C88.7136 128.935 88.4352 128.73 88.2545 128.449C88.1087 128.24 87.4603 128.326 87.0531 128.366C82.096 128.833 77.0988 128.643 72.1914 127.801C68.9994 127.273 68.0091 126.025 68.0443 122.762C68.0695 120.297 67.8659 117.825 68.1776 115.369C68.2806 114.562 67.8608 114.653 67.2727 114.67C64.3924 114.766 61.4919 114.994 58.6367 114.507C57.2493 114.271 55.8192 114.05 54.8843 112.792C54.8522 112.736 54.8081 112.689 54.7553 112.653C54.7025 112.617 54.6422 112.593 54.579 112.583C54.5159 112.574 54.4513 112.579 54.3902 112.597C54.329 112.616 54.2728 112.648 54.2257 112.691C52.1095 114.346 49.7016 113.708 47.3616 113.563C45.4791 113.447 43.6192 113.206 41.8573 112.457C41.2541 112.206 40.9576 112.287 41.038 113.108C41.4879 117.763 41.8196 122.425 42.5988 127.042C42.8501 128.529 42.8828 128.926 42.0961 129.024H59.7829C59.426 128.948 59.255 128.665 59.1595 128.268Z" fill="#413A51"/>
<path d="M16.3062 52.2077C16.3212 49.7259 17.4975 48.0127 19.0131 46.5231C20.3778 45.1842 21.1646 43.7247 20.8655 41.7377C20.7549 41.0017 20.4206 39.8413 21.142 39.5373C22.0066 39.1756 22.3057 40.3888 22.7606 40.964C23.9821 42.5039 24.5803 44.2296 23.8966 46.2065C23.6331 46.9153 23.1462 47.5192 22.5092 47.9273C20.3276 49.4872 19.5183 51.6451 19.7797 54.2625C19.845 54.9156 20.4005 55.8802 19.3549 56.0209C18.8977 56.0924 18.4296 56.02 18.0153 55.8139C17.6011 55.6077 17.2611 55.2781 17.0426 54.8704C16.632 54.037 16.3821 53.1336 16.3062 52.2077Z" fill="#EFE5DF"/>
<path d="M59.9561 10.1321L58.9809 10.2275C59.1207 10.1273 59.2845 10.0657 59.4557 10.0489C59.6269 10.0322 59.7995 10.0608 59.9561 10.1321Z" fill="#D18732"/>
<path d="M31.5423 34.3375C31.5858 34.6183 31.5221 34.9053 31.3638 35.1413C31.4317 34.8751 31.4895 34.6062 31.5423 34.3375Z" fill="#61452D"/>
<path d="M40.417 125.294L40.5754 126.125C40.4202 125.877 40.3637 125.581 40.417 125.294Z" fill="#61452D"/>
<path d="M83.9188 45.3851C81.8427 41.474 81.4054 37.1936 81.154 32.8856C81.0233 30.6248 81.1692 28.364 81.3124 26.1208C81.3526 25.4802 81.7447 24.38 80.9153 24.2619C79.9803 24.1288 80.116 25.3346 79.9099 25.9827C79.6787 26.7363 79.6586 27.5426 79.5304 28.3264L79.4927 28.6504C79.4651 28.9644 79.4374 29.2784 79.4123 29.5924L79.3972 29.8863C79.3243 34.1692 79.5354 38.427 80.3473 42.6496L80.478 42.9309L80.6137 43.6845C79.9853 43.574 80.1814 43.9784 80.2342 44.2924C80.5257 46.0507 80.6967 47.8518 81.134 49.5675C82.5113 54.9883 81.9131 59.8818 77.6579 63.9185C77.5122 64.0592 77.5976 64.2199 77.7459 64.333C72.6001 66.779 67.0758 68.3334 61.4089 68.9298C58.4532 69.2363 55.4622 69.1032 52.612 68.0079C52.3934 67.9225 51.2071 67.9753 52.2325 67.071C52.6925 66.664 51.9233 66.5686 51.6293 66.5384C49.5809 66.3123 47.6079 65.7848 45.6173 65.2824C43.5538 64.7449 41.7668 63.6873 40.1029 62.3886C39.4997 61.9164 39.3966 61.5747 40.1657 61.1326C41.3559 60.4256 42.4251 59.5327 43.3326 58.4876C43.8352 57.9174 44.4033 57.7766 45.1121 57.8043C47.5325 57.9048 49.5281 58.9447 51.305 60.5147C52.8131 61.841 54.1603 63.3558 55.9222 64.3682C58.4054 65.795 60.9816 66.35 63.691 64.9835C64.6964 64.4811 65.4504 63.7125 65.737 62.5796C65.7656 62.4597 65.768 62.335 65.7441 62.2141C65.7203 62.0932 65.6707 61.9788 65.5987 61.8787C65.38 61.6627 65.1639 61.9239 64.9628 62.0746C61.9467 64.3731 58.9633 64.3908 55.9598 62.0546C54.9862 61.2618 54.0574 60.4156 53.1776 59.52C50.82 57.2215 48.1508 55.6666 44.7325 55.6566C43.7121 55.6566 43.2647 55.1944 43.594 54.1494C43.6711 53.8671 43.7183 53.5775 43.7347 53.2853C43.9006 51.645 44.4209 50.5222 46.3361 50.065C48.3468 49.5877 49.7367 48.0328 50.6893 46.1513C51.6418 44.2699 50.9783 42.0216 48.759 41.0445C45.8334 39.7533 43.2296 40.3988 40.4849 41.1725C36.8079 42.21 37.0541 45.3524 38.243 47.6886C38.577 48.3465 39.046 48.9269 39.6194 49.3917C40.1927 49.8566 40.8576 50.1955 41.5707 50.3865C42.3247 50.5975 42.4806 50.8889 42.2493 51.6199C41.998 52.4488 42.1488 53.6294 41.626 54.0967C41.0304 54.6367 40.0174 53.8279 39.1629 53.7048C37.8258 53.5088 36.5037 53.3581 35.1716 53.6621C34.5583 53.8003 34.2291 53.5842 34.0883 52.9687C33.0101 48.2563 34.3397 43.6167 38.3611 40.5395C40.1682 39.1604 42.5585 39.2383 44.7476 38.9544C45.753 38.8238 46.7231 38.6404 47.5978 38.0903C48.1281 37.7562 48.4976 37.3368 48.4901 36.6837C49.8347 36.0909 49.9981 34.8072 48.8545 33.6265C48.8469 33.5614 48.8469 33.4957 48.8545 33.4307C49.5306 32.6771 49.4326 31.9763 48.5202 31.6547C47.9603 31.4862 47.3783 31.4015 46.7935 31.4035C44.0288 31.2855 41.2641 31.2075 38.5169 31.097C37.3181 31.0468 37.132 30.8031 37.7327 29.7456C38.6275 28.1706 39.8013 26.9145 41.8396 26.912C43.7196 26.912 45.6098 26.7312 47.4697 27.103C48.1382 27.2361 49.0028 27.4697 49.1737 26.4197C49.3446 25.3697 48.5504 25.0532 47.7235 24.9C45.8276 24.5487 43.889 24.4903 41.9754 24.7267C41.1284 24.8297 41.053 24.6086 41.2968 23.8701C42.463 20.3307 45.0342 18.0021 48.005 16.0176C51.7751 13.5057 56.0177 12.5436 60.4538 12.217H60.7479C67.6019 11.883 74.1945 12.7545 80.1537 16.4873C80.664 16.7933 81.2737 16.888 81.8528 16.7512C87.0153 15.7464 91.0066 17.7107 94.2765 21.564C93.6683 22.2875 94.3494 22.8376 94.6183 23.3425C95.875 25.7038 96.4883 28.1153 95.9001 30.8056C94.5831 36.8092 92.5498 42.3356 86.7665 45.5835C86.0501 45.9855 85.462 46.086 84.8312 45.5434C84.5748 45.2897 84.3058 44.9329 83.9188 45.3851ZM64.4903 24.6941L58.7522 24.6714L58.428 24.7518C57.7469 24.9277 57.0758 25.1663 57.1839 26.0404C57.2995 26.9925 58.1239 26.8267 58.7598 26.8844C63.2537 27.2989 67.808 26.686 72.2667 27.638C72.8524 27.7636 73.2495 27.4673 73.4405 26.9398C73.6315 26.4122 73.3651 26.0455 72.9378 25.7842C72.2883 25.4012 71.5673 25.155 70.819 25.0608C68.8259 24.7744 66.8152 24.7895 64.8095 24.7166L64.4903 24.6941ZM70.7512 37.6759C71.4021 36.4827 71.5982 35.1639 71.8143 33.8501C72.1072 33.8573 72.4001 33.8362 72.689 33.7873C73.1766 33.6642 73.9457 33.8124 73.9457 33.0563C73.9457 32.3002 73.3626 32.0014 72.689 31.8808C72.357 31.819 72.021 31.7811 71.6836 31.7677C69.1702 31.6873 66.6568 31.6112 64.1434 31.5392C61.8429 31.4739 59.5423 31.4119 57.2417 31.3532C56.4475 31.3331 55.7588 31.5467 55.8116 32.5088C56.0001 35.9879 57.1286 38.9771 60.3558 40.7983C63.397 42.519 67.8759 42.2703 70.2058 40.2582C71.0704 39.5398 71.5881 38.7384 70.7512 37.6759ZM53.3485 27.4345C54.0773 27.5526 54.4669 27.0703 54.5247 26.4875C54.585 25.8419 54.2734 25.2315 53.5193 25.1386C52.7653 25.0456 52.3305 25.4099 52.2174 26.1434C52.0842 27.005 52.5542 27.3592 53.3485 27.4345ZM56.837 49.3213C57.4025 49.1606 57.8901 48.8969 57.9203 48.2614C57.9505 47.6258 57.4855 47.4299 56.9149 47.445C56.3896 47.46 55.9925 47.6811 56.0227 48.2513C56.0553 48.7487 56.1961 49.251 56.837 49.3213ZM55.2712 53.6545C55.7035 53.5967 55.9674 53.348 55.9171 52.916C55.8392 52.2126 55.4145 51.7907 54.6957 51.7731C54.6016 51.7634 54.5065 51.7755 54.4179 51.8084C54.3292 51.8413 54.2493 51.8942 54.1844 51.963C54.1196 52.0317 54.0714 52.1145 54.0436 52.2048C54.0159 52.2952 54.0094 52.3907 54.0245 52.484C54.0673 53.2451 54.6252 53.4937 55.2712 53.6545ZM66.5814 27.844C66.9408 27.844 67.1067 27.844 67.2726 27.844C67.5114 27.8289 67.9161 27.8917 67.9261 27.6606C67.9487 27.216 67.5064 27.3793 67.2626 27.3743C65.8124 27.3567 64.3596 27.3743 62.9069 27.3743C62.7565 27.3957 62.6096 27.4362 62.4696 27.4949C62.6208 27.5479 62.7776 27.5832 62.937 27.6004C64.1579 27.545 65.3812 27.6267 66.5839 27.844H66.5814Z" fill="#A66538"/>
<path d="M73.8075 101.186C73.1013 101.552 72.3513 101.826 71.5756 102.003C69.3513 102.618 68.2956 103.989 68.2755 106.273C68.2604 107.986 68.2403 109.704 68.2755 111.417C68.3007 112.397 67.8835 112.764 66.9309 112.754C64.4602 112.724 61.9896 112.781 59.5214 112.729C56.616 112.666 55.9046 112.003 55.3567 109.177C54.9695 107.079 54.837 104.941 54.9621 102.811C55.0476 101.005 56.0605 99.596 57.0658 98.1993C61.042 92.673 65.4002 87.418 69.3815 81.8842C73.2923 76.4533 77.6203 71.3464 81.7347 66.0763C83.9968 63.19 87.0858 61.1252 88.996 57.9802C89.2297 57.5958 89.4458 57.6536 89.7826 57.945C91.8939 59.7611 92.6655 64.1973 91.2705 66.6691C90.9865 67.1714 90.5316 67.4227 90.0138 67.6362C87.9529 68.4903 85.7411 68.8268 83.6273 69.4799C82.2902 69.8919 82.1846 70.1255 82.9939 71.2584C85.2309 74.3884 85.2711 74.431 82.5365 77.0108C79.4375 79.9348 76.1751 82.6854 72.963 85.4887C69.2181 88.7543 65.4857 92.0475 61.7257 95.3056C60.9365 95.9888 60.1397 96.6646 59.3505 97.3503C58.9609 97.6894 58.5186 98.1316 58.9006 98.6063C59.2148 99.0007 59.8155 98.7294 60.1573 98.4932C61.3512 97.721 62.4945 96.8737 63.5805 95.9562C67.0993 92.874 70.6683 89.8496 74.182 86.7574C75.8433 85.2954 77.5047 83.8309 79.1434 82.3413C81.0913 80.5829 82.9965 78.7567 84.9921 77.036C86.5755 75.6695 86.7314 74.4286 85.7612 72.5873C84.791 70.746 84.791 70.7887 86.8847 70.2888C88.3927 69.9271 89.9183 69.6508 91.3485 68.7817C93.1229 67.704 93.5904 66.242 93.6708 64.4032C93.6934 63.8431 93.3692 63.0694 93.9222 62.7705C94.4751 62.4715 94.9275 63.1975 95.3825 63.5241C99.8412 66.7268 102.513 71.1882 104.23 76.285C105.34 79.5756 106.215 82.9392 106.446 86.4208C106.773 91.3392 104.184 94.4038 99.9769 96.4486C98.6147 97.1117 97.1343 97.0289 95.7343 97.4006C94.8823 97.6267 94.832 97.0413 94.9175 96.451C95.0742 95.3319 95.0179 94.1933 94.7516 93.0951C94.0529 90.0807 92.2382 87.9631 89.4861 86.6167C89.3051 86.5288 89.0035 86.4182 88.9834 86.2976C88.9507 85.9661 89.3126 85.9987 89.5212 85.9359C91.3585 85.3707 93.2058 84.8357 95.0507 84.268C95.5533 84.1122 96.2596 83.9916 96.0762 83.2632C95.8927 82.5347 95.209 82.6001 94.6108 82.6855C91.6978 83.0974 91.7003 83.0974 90.7302 80.3317C90.5765 79.8987 90.4012 79.4736 90.2048 79.0582C90.0214 78.6688 89.7675 78.2619 89.2598 78.4453C88.7521 78.6287 88.8074 79.1486 88.908 79.5304C89.1744 80.5352 89.4106 81.5802 89.858 82.5071C90.4235 83.6677 89.9912 84.0645 88.9155 84.3082C86.9157 84.7642 84.9757 85.4512 83.1347 86.3554C81.9132 86.9558 80.8325 87.7395 80.081 88.89C79.7517 89.3924 79.2716 89.5783 78.774 89.8019C76.2606 90.9298 74.4032 92.6554 73.4229 95.3056C72.8474 96.863 73.0862 98.3426 73.4733 99.8548C73.5864 100.299 73.6819 100.747 73.7849 101.191L73.8075 101.186ZM60.4614 104.015C60.4338 103.073 59.5868 102.231 58.7021 102.256C58.2412 102.296 57.8123 102.508 57.5004 102.85C57.1884 103.191 57.0163 103.638 57.0181 104.1C57.0583 105.05 57.855 105.738 58.8805 105.715C59.0995 105.718 59.3165 105.675 59.5177 105.588C59.7189 105.502 59.8998 105.374 60.0487 105.214C60.1976 105.053 60.3113 104.864 60.3824 104.657C60.4535 104.45 60.4804 104.23 60.4614 104.012V104.015Z" fill="#413A51"/>
<path d="M50.8954 111.91C47.1831 111.601 43.4934 111.169 39.9596 109.9C38.1299 109.242 37.8986 108.91 37.8785 107.001C37.8182 102.025 37.8785 97.0489 38.1525 92.0802C38.4038 87.531 39.0473 83.0195 39.7309 78.5155C39.7981 78.238 39.8906 77.9672 40.0074 77.7066C40.3215 77.8599 40.2813 78.209 40.402 78.4602C42.4127 82.7306 44.5415 86.9407 47.2308 90.8494C48.676 92.9469 49.9956 95.1322 51.7549 97.0061C52.0063 97.28 52.1998 97.6694 52.509 97.8352C54.1879 98.7219 53.9793 100.151 53.6224 101.603C52.9966 104.13 53.2102 106.665 53.5495 109.192C53.7808 111.081 52.8759 112.07 50.8954 111.91Z" fill="#413A51"/>
<path d="M105.006 108.493V109.624C105.006 112.432 104.111 113.477 101.316 113.713C99.9843 113.826 98.6396 113.754 97.295 113.776C96.7043 113.776 96.3046 113.537 96.2418 112.942C96.1413 111.937 95.5104 111.726 94.6609 111.772C93.0322 111.857 91.3935 111.937 89.7774 112.023C88.7192 112.081 88.018 112.525 88.018 113.696C88.018 114.716 87.5153 115.007 86.51 115.007C84.8411 115.007 83.1747 115.208 81.5033 115.258C79.3896 115.316 78.0801 114.284 77.5422 112.199C77.0697 110.357 77.4542 108.443 77.0873 106.589C76.9666 105.976 77.0069 105.311 76.7807 104.746C76.3207 103.585 76.929 103.113 77.8765 103.07C80.3246 102.96 82.7299 102.442 85.2156 102.598C87.2866 102.726 89.3828 102.452 91.4664 102.332C94.9273 102.131 98.3681 101.608 101.844 101.668C103.754 101.704 104.473 102.374 104.717 104.246C104.901 105.654 104.998 107.073 105.006 108.493Z" fill="#61452D"/>
<path d="M81.9207 126.527C80.7495 126.527 79.5782 126.555 78.402 126.527C77.5851 126.502 77.1001 126.112 77.0624 125.208C76.9417 122.37 77.2307 119.524 76.8638 116.69C76.8085 116.25 77.0573 115.997 77.4645 116.243C80.375 117.986 83.4966 117.087 86.5454 116.949C87.5507 116.901 87.8699 117.122 87.89 118.117C87.9453 120.601 88.1615 120.759 90.6799 120.78C91.7666 120.781 92.8519 120.703 93.9272 120.546C95.7795 120.295 96.5763 119.453 96.6391 117.579C96.6994 115.776 96.6995 115.753 98.5393 115.776C100.254 115.831 101.968 115.64 103.629 115.208C104.282 115.027 104.705 115.082 104.697 115.891C104.677 117.981 104.742 120.076 104.629 122.171C104.534 123.93 104.189 124.246 102.473 124.537C100.289 124.904 98.0969 125.221 95.9027 125.5C91.2655 126.07 86.6132 126.572 81.9207 126.527Z" fill="#61452D"/>
<path d="M83.9188 45.3851C84.3059 44.9329 84.5623 45.2897 84.8463 45.5284C85.4772 46.0609 86.0653 45.9704 86.7816 45.5685C92.5624 42.3205 94.5983 36.7941 95.9153 30.7905C96.5034 28.1077 95.8876 25.6887 94.6334 23.3274C94.3645 22.8251 93.6833 22.2725 94.2916 21.5491C95.968 23.2823 97.9587 24.6966 99.238 26.8242C100.937 29.6602 101.249 32.6218 99.9367 35.5783C98.21 39.4669 96.3752 43.3203 93.9498 46.8471C93.3213 47.8411 92.4958 48.696 91.5243 49.3591C90.7505 49.8651 89.8295 50.0976 88.908 50.0197C87.9866 49.9419 87.1177 49.5582 86.4398 48.9296C85.3499 47.9469 84.4893 46.7368 83.9188 45.3851Z" fill="#82502E"/>
<path d="M31.4443 97.3076C31.7259 91.6545 32.5619 86.0426 33.9401 80.5527C34.8147 77.1439 36.0086 73.8407 37.8484 70.8087C38.0997 70.3867 38.3737 69.7663 38.9643 70.3063C39.555 70.8464 40.872 70.9067 40.3392 72.1527C39.7611 73.5091 39.5399 74.8756 39.3338 76.33C39.1729 77.4403 38.4767 78.6637 38.155 79.887C37.3055 83.13 36.8983 86.4433 36.6093 89.7741C36.3328 92.9367 36.0111 96.0968 36.0941 99.277C36.1091 99.8848 35.9332 100.242 35.1993 100.031C34.1458 99.7612 33.1319 99.3559 32.1832 98.8248C31.6403 98.5108 31.2734 98.0637 31.4443 97.3076Z" fill="#413A51"/>
<path d="M41.6386 65.3929C42.2468 65.3578 44.4511 66.875 44.5667 67.4955C46.3135 76.9229 49.9906 85.7299 53.2354 94.6775C53.4038 95.1423 53.9291 95.8004 53.4515 96.0994C53.1298 96.3003 52.8106 95.4638 52.5166 95.0946C48.093 89.3447 44.1671 83.3084 41.6386 76.4407C41.1686 75.1596 41.1359 74.1296 41.9628 73.0595C42.2189 72.6782 42.4555 72.2842 42.6716 71.8789C42.9908 71.3539 42.9028 70.9068 42.3951 70.5827C41.797 70.2034 41.1661 69.8769 40.5629 69.5076C40.262 69.3683 39.994 69.1672 39.7762 68.9173C39.2107 68.0331 40.5905 65.4532 41.6386 65.3929Z" fill="#413A51"/>
<path d="M70.0575 112.239C70.1806 110.199 69.8413 108.144 70.2158 106.11C70.4219 104.992 71.8772 103.698 72.9152 103.701C73.9532 103.703 74.8379 104.633 75.0189 106.11C75.2903 108.35 75.2275 110.593 75.1395 112.854C74.9887 116.778 75.0591 120.709 75.0943 124.638C75.0943 125.698 74.9133 126.281 73.7019 125.871C73.4161 125.81 73.1263 125.77 72.8348 125.751C70.7361 125.366 70.2686 124.866 70.2937 122.759C70.3339 119.25 69.8891 115.753 70.0575 112.239Z" fill="#61452D"/>
<path d="M76.7606 99.0459C76.6676 99.3498 77.1653 99.9979 76.5948 100.151C75.9765 100.319 75.7176 99.6362 75.4889 99.1463C75.2139 98.5804 75.0592 97.9638 75.0345 97.3352C75.0098 96.7066 75.1158 96.0796 75.3456 95.4939C76.8838 91.2864 82.9562 89.3421 86.6106 91.8993C88.5233 93.2381 89.1642 95.1372 88.8727 97.3829C88.7445 98.3626 88.0985 99.0258 87.2666 99.5056C86.9047 99.7141 86.5126 99.8874 86.1582 100.088C84.5798 100.96 83.7805 100.566 83.5443 98.7846C83.4915 98.3701 83.489 97.9506 83.4412 97.5286C83.401 97.177 83.5066 96.6921 82.9938 96.6243C82.5691 96.569 82.3278 96.9433 82.1368 97.2624C81.8878 97.6514 81.7178 98.0857 81.6368 98.5404C81.5557 98.9951 81.565 99.4615 81.6642 99.9126C81.8276 100.603 81.5562 100.719 80.9831 100.681C79.9426 100.613 79.1157 100.199 78.696 99.2067C78.52 98.7897 78.4873 98.3149 78.3415 97.8829C78.1631 97.3403 78.623 96.3003 77.8891 96.3431C77.3638 96.3732 76.7254 97.2875 76.7581 98.1717C76.7682 98.4355 76.7606 98.6867 76.7606 99.0459Z" fill="#A66538"/>
<path d="M61.0092 89.1185C61.0124 89.5837 60.8613 90.0369 60.5794 90.4071C59.1719 92.2777 57.7762 94.1583 56.3922 96.049C55.9624 96.6393 55.7186 96.5515 55.5074 95.9109C54.8087 93.8084 54.0823 91.7134 53.4037 89.6058C53.1096 88.694 53.4339 87.7821 53.5847 86.8854C53.9441 84.7778 54.6504 82.7607 55.236 80.7084C55.4295 80.0252 55.7512 79.7464 56.5053 79.9549C57.3206 80.18 58.1859 80.1457 58.9809 79.8569C59.3328 79.7287 59.642 79.6987 59.7149 80.1986C60.1455 83.1711 60.5769 86.1444 61.0092 89.1185Z" fill="#3A5C5F"/>
<path d="M77.7535 64.3404C77.6052 64.2274 77.5198 64.0666 77.6655 63.926C81.9207 59.8892 82.5189 54.9959 81.1416 49.5751C80.7042 47.8494 80.5333 46.0583 80.2418 44.2999C80.189 43.9859 79.9904 43.5815 80.6213 43.6921C81.32 45.2495 81.9634 46.832 82.9487 48.2513C84.1752 50.0096 85.6255 51.4665 87.797 51.974C88.6038 52.1624 88.8652 52.6723 88.8627 53.4284C88.8567 54.1856 88.6587 54.9289 88.2871 55.5887C85.9245 59.8691 82.3128 62.6624 77.7535 64.3404Z" fill="#82502E"/>
<path d="M34.1814 29.9088C34.5408 27.3466 34.8852 24.7794 35.6518 22.3001C36.5063 19.5369 37.9892 17.2359 40.7363 15.9624C41.8451 15.4498 43.0968 15.3354 44.2802 15.6383C44.7829 15.7564 44.906 15.9523 44.4335 16.3567C41.6562 18.728 39.6706 21.5867 39.0197 25.2542C38.9887 25.4402 38.9184 25.6175 38.8135 25.7743C38.7086 25.9311 38.5716 26.0637 38.4115 26.1635C36.0087 27.751 35.144 30.0521 35.3099 32.8429C34.9932 32.3078 35.1616 31.7125 35.0988 31.1473C35.0359 30.5821 34.9706 29.9541 34.1814 29.9088Z" fill="#A66538"/>
<path d="M44.2375 42.1622C45.5872 42.3506 47.0173 42.3179 48.1835 43.3554C49.3497 44.3928 49.4076 45.0987 48.4625 46.3145C47.236 47.8895 45.5596 48.6708 43.6871 49.0199C41.7266 49.3842 38.8588 46.3271 39.271 44.3903C39.3209 44.2075 39.4089 44.0373 39.5294 43.891C39.6498 43.7446 39.7999 43.6255 39.9698 43.5413C41.2667 42.7752 42.6465 42.2174 44.2375 42.1622Z" fill="#5D563B"/>
<path d="M62.2734 85.3129C62.0221 83.5018 61.7707 81.6856 61.4993 79.877C61.3812 79.1008 61.3962 78.42 62.0547 77.8398C62.3385 77.5344 62.5605 77.177 62.7083 76.7873C63.3039 75.5464 63.2964 75.5312 64.1484 76.5812C64.3998 76.9028 64.6662 77.2344 64.9175 77.5634C66.4909 79.6233 66.4834 79.6132 68.8309 78.5155C69.2607 78.3145 69.6 77.9 70.1303 77.9201C69.8463 78.3095 69.5698 78.7038 69.2807 79.0882C67.3731 81.6177 65.473 84.1523 63.5402 86.6593C63.2889 87.0034 63.1003 87.7093 62.6856 87.5938C62.2709 87.4782 62.6429 86.7823 62.477 86.3679C62.5252 86.0034 62.4538 85.6333 62.2734 85.3129Z" fill="#F4C686"/>
<path d="M75.3532 71.0676C73.6516 74.0819 70.7939 75.5891 67.7979 76.918C67.3756 77.1089 67.1671 77.0637 66.8805 76.6818C65.4253 74.7476 63.9624 72.8159 62.1277 71.2133C61.6903 70.8315 61.9492 70.8239 62.3187 70.7812C63.7212 70.6204 65.1236 70.4371 66.5236 70.2612C66.315 70.3843 66.0988 70.4973 65.8978 70.6355C65.5559 70.8666 64.7843 70.7787 64.9804 71.4017C65.1588 71.9618 65.8123 71.791 66.3024 71.7131C66.425 71.6886 66.544 71.649 66.6568 71.5951C68.3584 70.8164 70.0323 70.8992 71.6962 71.7332C72.0204 71.8965 72.4502 72.1955 72.7417 71.9192C73.4932 71.1781 74.5413 71.5097 75.3532 71.0676Z" fill="#F4C686"/>
<path d="M58.0108 70.766C59.7073 70.8087 61.542 72.5495 61.4842 74.0617C61.4013 76.2874 59.569 78.1638 57.5307 78.1085C55.535 78.0532 54.1753 76.413 54.2632 74.1497C54.306 72.5772 56.3695 70.7208 58.0108 70.766Z" fill="#3A5C5F"/>
<path d="M23.0345 65.913C21.1142 66.0988 20.5035 65.7196 19.8324 63.9235C19.1211 62.0194 19.4051 60.7961 20.785 59.8214C23.786 57.7013 26.2315 58.7312 26.7618 62.3334C27.1363 64.868 26.5985 65.5286 23.7985 65.9758C24.0231 65.5828 24.2204 65.1749 24.3892 64.755C24.7562 63.6472 24.5928 62.5595 23.8036 61.7406C23.1174 61.0222 22.6298 62.1927 21.9437 62.1651C21.7739 62.1755 21.6149 62.2521 21.5011 62.3785C21.3874 62.5049 21.3278 62.671 21.3354 62.8408C21.3731 63.1875 21.7476 63.2151 22.0266 63.2428C22.8334 63.3282 23.032 63.8682 23.047 64.5515C23.0596 65.0011 23.042 65.4558 23.0345 65.913Z" fill="#5D563B"/>
<path d="M33.3016 108.122C33.4071 107.509 32.9271 106.418 33.5529 106.162C34.1159 105.931 35.0208 106.529 35.7748 106.755C36.1493 106.868 36.1191 107.187 36.1367 107.471C36.2498 109.229 36.9284 110.586 38.6752 111.289C39.5498 111.641 39.1779 112.545 39.2457 113.178C39.4845 115.16 39.3664 115.23 37.4863 114.698C34.2793 113.809 33.4474 112.502 33.3016 108.122Z" fill="#A66538"/>
<path d="M93.0978 95.823C93.0802 95.936 93.0325 96.3932 92.9294 96.8277C92.6931 97.8501 91.9241 98.3073 90.9514 98.0636C90.4864 97.9455 90.6799 97.6215 90.7001 97.3728C90.9212 92.6805 88.3575 89.6134 83.6927 88.9955C83.366 88.9528 83.0418 88.8899 82.7175 88.8371C82.8608 88.4478 83.2327 88.3097 83.5394 88.1163C85.3138 86.9809 88.1414 87.35 90.0516 88.9527C91.8311 90.4624 93.0852 93.1351 93.0978 95.823ZM92.6755 95.4989C92.658 95.1673 92.6755 94.8333 92.6152 94.5067C92.575 94.238 92.5926 93.9214 92.2684 93.7782C92.1619 93.9934 92.0776 94.219 92.0171 94.4514C91.8813 95.2703 91.7858 96.0842 91.2631 96.7925C91.1047 97.0111 90.8709 97.4533 91.361 97.6165C91.7582 97.7472 92.2056 97.7421 92.3815 97.2096C92.5833 96.6621 92.683 96.0823 92.6755 95.4989Z" fill="#F4C686"/>
<path d="M75.3533 71.0676C74.5415 71.5097 73.4933 71.1781 72.7418 71.9192C72.4629 72.1955 72.0205 71.8965 71.6963 71.7332C70.0324 70.8993 68.3585 70.8164 66.6569 71.5951C66.5442 71.649 66.4251 71.6886 66.3026 71.7131C65.7999 71.791 65.159 71.9644 64.9805 71.4017C64.7845 70.7787 65.5561 70.8666 65.8979 70.6355C66.099 70.4973 66.3151 70.3843 66.5237 70.2613L66.4986 70.2814C66.9561 70.3266 67.416 70.3919 67.7779 70.005L67.7528 70.0175C68.1298 70.0602 68.5068 70.098 68.7807 69.7488H68.7506C68.9844 69.7488 69.2533 69.9699 69.4292 69.6383C69.3734 69.5949 69.3146 69.5554 69.2533 69.5202C72.5458 68.4375 75.8283 67.3297 79.0178 65.9607L79.4174 66.3727L75.8258 70.5602C75.5016 70.417 75.5744 70.6531 75.5744 70.8114V70.7862L75.308 71.0626L75.3533 71.0676Z" fill="#C18C5A"/>
<path d="M34.1814 29.9088C34.9706 29.9641 35.0309 30.552 35.0988 31.1473C35.1667 31.7426 34.9933 32.3078 35.3099 32.8429C35.3326 34.8022 35.7146 36.6661 36.8833 38.2863C37.3106 38.8816 37.004 39.2082 36.5641 39.5171C35.7755 40.0759 35.1536 40.8382 34.7646 41.7226C34.4981 42.3154 34.2468 42.7777 33.4802 42.4361C32.789 42.1296 32.035 41.9336 32.2737 40.8736C32.6709 39.0825 33.0278 37.2815 33.3445 35.4754C33.6637 33.6166 33.9075 31.7551 34.1814 29.9088Z" fill="#82502E"/>
<path d="M29.5567 63.838C28.8027 64.3404 28.5287 64.3405 28.5513 63.2428C28.5714 61.399 27.9632 59.7133 26.4828 58.485C25.8067 57.9248 26.141 57.7315 26.7341 57.5381C28.8667 56.8402 31.052 56.3151 33.269 55.9681C34.0632 55.8551 34.6262 56.0735 35.0761 56.7517C35.9482 58.068 35.996 60.4243 35.1288 61.5496C35.2168 60.678 35.3249 59.8089 35.3802 58.9372C35.438 58.1183 35.0559 57.9023 34.2969 58.1836C32.7301 58.7484 31.1984 59.406 29.71 60.153C29.0891 60.4745 28.4885 60.8136 28.6518 61.4818C28.8403 62.2881 28.3226 63.4311 29.5567 63.838Z" fill="#CD742D"/>
<path d="M52.2979 69.7387L54.4343 70.3792C54.1226 71.1002 53.3862 71.3991 52.881 71.9341C51.9334 72.9389 50.9306 73.896 50.2369 75.0842C49.7116 75.986 49.4829 75.564 49.0757 75.0364C47.442 72.8937 47.065 70.3366 46.6252 67.797C46.6252 67.704 46.6503 67.6111 46.6654 67.5182C47.8844 67.7845 49.1788 67.7242 50.3349 68.2718C49.5407 68.3898 48.7741 68.1638 47.9975 68.0834C47.6657 68.0507 47.2937 68.0633 47.2233 68.5029C47.163 68.8721 47.1379 69.3317 47.5929 69.4372C49.1361 69.8015 50.6768 70.4798 52.2979 69.7387Z" fill="#F4C686"/>
<path d="M49.0933 77.4203C51.1945 78.7341 51.3227 76.5361 52.2149 75.7298C52.3567 75.5842 52.4901 75.4307 52.6146 75.2701C52.6749 75.456 52.7377 75.6444 52.8006 75.8302C52.9312 76.2246 52.9564 76.7169 53.2127 76.9933C54.3412 78.2091 53.9391 79.4273 53.4289 80.7361C52.857 82.2104 52.436 83.7388 52.1722 85.2979C52.1521 85.4285 52.2627 85.6697 52.0264 85.6621C51.9284 85.6621 51.7977 85.4485 51.7474 85.3104C50.8241 82.8151 49.9093 80.3183 49.0028 77.8197C48.9475 77.674 48.7666 77.443 49.0933 77.4203Z" fill="#F4C686"/>
<path d="M29.5568 63.838C28.3227 63.4311 28.8404 62.2882 28.6469 61.4868C28.4835 60.8187 29.0842 60.482 29.705 60.158C31.1935 59.4111 32.7252 58.7535 34.2919 58.1887C35.046 57.9023 35.433 58.1183 35.3752 58.9422C35.3149 59.8139 35.2068 60.683 35.1239 61.5547V61.522C34.9854 61.5103 34.846 61.5265 34.7139 61.5696C34.5818 61.6128 34.4596 61.682 34.3548 61.7732C33.6158 62.1274 32.6859 62.0797 32.1355 62.8257C31.3346 63.2968 30.4643 63.6384 29.5568 63.838Z" fill="#995825"/>
<path d="M92.854 118.72C89.7575 118.793 89.7575 118.793 89.7952 115.67C89.8128 114.047 89.8128 114.047 91.5018 113.972C94.636 113.831 94.5807 113.831 94.6787 117.002C94.7164 118.192 94.3319 118.712 93.1707 118.659L92.854 118.72Z" fill="#D98014"/>
<path d="M42.0006 56.7217C42.7697 57.0734 42.3047 57.4928 41.988 57.7616C40.6646 58.8485 39.2259 59.787 37.6976 60.56C37.3307 60.7534 37.112 60.6805 37.2326 60.2309C37.4839 59.3417 37.0567 58.4976 37.0969 57.6259C38.2003 56.9527 39.3288 56.3373 40.6508 56.2168H40.6684C40.5478 56.4253 40.1331 56.7191 40.769 56.7518C41.1761 56.787 41.5959 56.7343 42.0006 56.7217Z" fill="#995825"/>
<path d="M23.0345 65.9129C23.0345 65.4558 23.0596 65.0011 23.0345 64.5464C23.0194 63.8632 22.8209 63.3231 22.0141 63.2377C21.7351 63.2101 21.3606 63.1824 21.3229 62.8358C21.3153 62.6659 21.3749 62.4999 21.4886 62.3735C21.6024 62.2471 21.7613 62.1704 21.9311 62.1601C22.6173 62.1877 23.1049 61.0171 23.791 61.7355C24.5802 62.5645 24.7436 63.6522 24.3767 64.7499C24.2079 65.1699 24.0105 65.5777 23.786 65.9707L23.0345 65.9129Z" fill="#61452D"/>
<path d="M52.298 69.7387C50.6769 70.4797 49.1412 69.8014 47.593 69.4372C47.138 69.3317 47.1631 68.8721 47.2234 68.5028C47.2938 68.0632 47.6658 68.0507 47.9976 68.0833C48.7742 68.1637 49.5408 68.3898 50.3351 68.2717C50.3549 68.274 50.374 68.2804 50.3912 68.2906C50.4084 68.3009 50.4231 68.3147 50.4345 68.3311C50.4459 68.3475 50.4538 68.3661 50.4574 68.3858C50.4611 68.4054 50.4605 68.4256 50.4557 68.445C50.4858 68.9273 50.7774 69.0705 51.2097 69.0303H51.1971L51.4661 69.2991L51.4434 69.2765C51.4912 69.37 51.567 69.4461 51.6603 69.4943C51.7537 69.5426 51.8598 69.5604 51.9637 69.5452L51.9436 69.5327L52.2377 69.7839L52.298 69.7387Z" fill="#C18C5A"/>
<path d="M40.6508 56.2168C39.3287 56.3374 38.2002 56.9528 37.0969 57.626C36.9209 57.3045 36.7525 56.9755 36.564 56.659C35.903 55.5487 35.9005 55.5361 37.2778 55.4984C38.4541 55.4683 39.6454 55.413 40.6508 56.2168Z" fill="#CD742D"/>
<path d="M35.9558 102.234C35.7497 101.706 34.777 101.889 34.1763 101.656C33.9086 101.543 33.6331 101.45 33.3519 101.377C32.9472 101.281 32.4421 100.746 32.1832 101.126C31.9243 101.505 32.0575 102.181 32.3767 102.653C32.5967 102.951 32.8324 103.237 33.0829 103.51L33.3016 103.723C33.9224 104.376 34.7669 104.638 35.5486 105.012C35.9155 105.188 36.0839 105.157 36.0689 104.705C36.0412 103.869 36.2398 102.957 35.9558 102.234Z" fill="#F4C686"/>
<path d="M47.9497 35.3372C48.6183 34.9554 48.5127 34.1617 48.8696 33.614C50.0031 34.7947 49.8498 36.0783 48.5051 36.6711C48.3543 36.2767 48.573 35.6839 47.907 35.5709C47.9122 35.4916 47.9265 35.4132 47.9497 35.3372Z" fill="#82502E"/>
<path d="M94.7087 100.119C94.4373 100.051 94.0326 100.357 93.9547 99.9176C93.9145 99.6413 94.289 99.5734 94.5227 99.5483C95.1762 99.483 95.8221 99.2468 96.4831 99.4453C96.5158 99.4453 96.5384 99.7316 96.4831 99.7643C95.9453 100.116 95.2893 99.9929 94.7087 100.119Z" fill="#82502E"/>
<path d="M90.0741 100.432C89.8429 100.367 89.403 100.538 89.4458 100.279C89.5237 99.8095 90.0365 99.9526 90.3833 99.9426C90.6347 99.9426 91.175 99.8849 91.1172 100.116C90.9941 100.616 90.426 100.324 90.0741 100.432Z" fill="#82502E"/>
<path d="M32.148 62.8157C32.6984 62.0621 33.6284 62.1174 34.3674 61.7632C33.7767 62.4364 32.9372 62.5796 32.148 62.8157Z" fill="#CD742D"/>
<path d="M42.0005 56.7217C41.5883 56.7343 41.1761 56.7744 40.7689 56.7467C40.1331 56.704 40.5478 56.4202 40.6684 56.2117C41.2264 56.0811 41.5959 56.468 42.0005 56.7217Z" fill="#CD742D"/>
<path d="M79.4174 66.3802L79.0178 65.9682C79.0479 65.9406 79.0756 65.898 79.1108 65.8904C79.4124 65.81 79.797 65.3653 79.9377 65.5914C80.1312 65.8953 79.5707 66.0813 79.4174 66.3802Z" fill="#F4C686"/>
<path d="M67.7778 70.005C67.4159 70.3918 66.956 70.3266 66.4985 70.2813C66.6745 70.137 66.8823 70.0366 67.1047 69.9886C67.3272 69.9405 67.5579 69.9462 67.7778 70.005Z" fill="#F4C686"/>
<path d="M51.2096 69.0304C50.7773 69.0706 50.4857 68.9274 50.4556 68.4451L51.2096 69.0304Z" fill="#F4C686"/>
<path d="M68.7806 69.7488C68.5066 70.098 68.1296 70.0602 67.7526 70.0175C68.0417 69.7236 68.3684 69.5729 68.7806 69.7488Z" fill="#F4C686"/>
<path d="M69.2432 69.5277C69.3045 69.5629 69.3633 69.6023 69.4191 69.6457C69.2457 69.9773 68.9742 69.7462 68.7405 69.7562C68.8209 69.4699 69.0773 69.5981 69.2432 69.5277Z" fill="#F4C686"/>
<path d="M62.2735 85.3129C62.4538 85.6333 62.5253 86.0035 62.4771 86.3679C62.2917 86.0494 62.2199 85.6775 62.2735 85.3129Z" fill="#61452D"/>
<path d="M34.3549 61.7783C34.4597 61.6871 34.5818 61.6178 34.7139 61.5747C34.8461 61.5315 34.9855 61.5154 35.124 61.5271C35.0384 61.6444 34.9181 61.7318 34.78 61.7769C34.642 61.822 34.4932 61.8225 34.3549 61.7783Z" fill="#CD742D"/>
<path d="M51.9636 69.5377C51.8597 69.5528 51.7536 69.5351 51.6603 69.4869C51.567 69.4387 51.4911 69.3624 51.4434 69.2689C51.6495 69.279 51.8631 69.304 51.9636 69.5377Z" fill="#F4C686"/>
<path d="M46.6654 67.5182C46.6503 67.6111 46.6378 67.704 46.6252 67.797C46.5322 67.689 46.3487 67.5659 46.6654 67.5182Z" fill="#5D563B"/>
<path d="M73.8025 101.191L73.996 101.249L73.8075 101.186L73.8025 101.191Z" fill="#413A51"/>
<path d="M75.5793 70.8265C75.5793 70.6607 75.5014 70.4245 75.8307 70.5753L75.5793 70.8265Z" fill="#F4C686"/>
<path d="M46.5523 36.7992C46.6177 36.6862 46.683 36.573 46.7433 36.4525C46.8087 36.6308 46.6704 36.7113 46.5523 36.7992Z" fill="#F5E39B"/>
<path d="M52.2377 69.7764L51.9435 69.5252C52.0793 69.5629 52.2879 69.5176 52.2377 69.7764Z" fill="#F4C686"/>
<path d="M45.9716 35.0609C45.9364 35.4352 45.4362 35.7643 45.1497 36.1135C43.986 36.538 42.8299 36.6159 41.6788 36.0783L40.7287 35.1061C40.6055 34.6289 40.4472 34.1566 40.3693 33.6718C40.3215 33.3628 40.3316 33.0891 39.9219 33.079C39.0548 33.0564 37.8609 32.6721 37.4085 33.079C36.9058 33.5437 37.3708 34.7068 37.6397 35.5332C37.7515 35.976 37.9728 36.3837 38.2832 36.7188C38.297 36.8169 38.3344 36.9102 38.3921 36.9907C38.4499 37.0712 38.5263 37.1366 38.6149 37.1811L38.816 37.3995L39.1226 37.6507H39.0874C39.3036 38.0501 39.6831 37.9195 39.9722 37.8542C41.5546 37.5184 43.1653 37.3335 44.7828 37.3017C45.3533 37.2816 46.0395 37.2765 46.4466 36.6711V36.7716H46.5472C46.6125 36.6585 46.6779 36.5455 46.7382 36.4249C46.7358 36.4575 46.7358 36.4903 46.7382 36.5229H46.8462L47.2007 36.1411H47.1805L47.4596 35.8698L47.6882 35.6437C47.7685 35.6235 47.8443 35.5885 47.9119 35.5407C47.9174 35.4615 47.9318 35.3832 47.9547 35.3072C48.6232 34.9254 48.5177 34.1315 48.8746 33.5839C48.867 33.5188 48.867 33.4531 48.8746 33.388C47.4997 33.2473 46.1676 33.0714 45.9716 35.0609Z" fill="#EFE8CE"/>
<path d="M53.3485 27.4345C52.5543 27.3591 52.0918 27.005 52.2124 26.1459C52.3255 25.4099 52.7804 25.0381 53.5143 25.1411C54.2483 25.2441 54.5851 25.8445 54.5197 26.49C54.4669 27.0703 54.0774 27.5525 53.3485 27.4345Z" fill="#82502E"/>
<path d="M56.8371 49.3214C56.1962 49.251 56.0554 48.7537 56.0278 48.2513C55.9976 47.6811 56.3948 47.4601 56.9201 47.445C57.4856 47.4299 57.9531 47.6007 57.9254 48.2614C57.8978 48.922 57.4026 49.1606 56.8371 49.3214Z" fill="#82502E"/>
<path d="M55.2712 53.6544C54.6253 53.4936 54.0673 53.245 54.0146 52.4839C53.9994 52.3906 54.006 52.2951 54.0337 52.2047C54.0614 52.1144 54.1096 52.0316 54.1745 51.9629C54.2394 51.8941 54.3192 51.8412 54.4079 51.8083C54.4965 51.7754 54.5916 51.7633 54.6857 51.773C55.412 51.7906 55.8292 52.2125 55.9071 52.9159C55.9675 53.348 55.7035 53.5966 55.2712 53.6544Z" fill="#82502E"/>
<path d="M66.584 27.844C65.3824 27.6243 64.1599 27.5401 62.9396 27.5928C62.7802 27.5756 62.6234 27.5403 62.4721 27.4873C62.6121 27.4286 62.7591 27.3881 62.9094 27.3667C64.3622 27.3667 65.8149 27.3516 67.2651 27.3667C67.5164 27.3667 67.9513 27.2085 67.9287 27.6531C67.9287 27.8842 67.5139 27.8214 67.2752 27.8365C67.1093 27.8541 66.9434 27.844 66.584 27.844Z" fill="#82502E"/>
<path d="M92.6754 95.499C92.6812 96.0827 92.5798 96.6625 92.3763 97.2096C92.2004 97.7422 91.753 97.7472 91.3559 97.6166C90.8657 97.4533 91.1045 97.0111 91.2579 96.7926C91.7756 96.0842 91.8711 95.2704 92.0119 94.4515C92.0724 94.2191 92.1567 93.9935 92.2632 93.7782C92.5874 93.9214 92.5698 94.238 92.61 94.5068C92.6653 94.8334 92.6578 95.1674 92.6754 95.499Z" fill="#C18C5A"/>
<path d="M46.7456 36.5499C46.7477 36.5133 46.7417 36.4766 46.7281 36.4425L46.7456 36.5499Z" fill="#1D2831"/>
<path d="M41.7036 36.1033L41.6786 36.0783H41.6561L41.7036 36.1033Z" fill="#1D2831"/>
<path d="M100.082 98.5184C104.333 97.0715 107.077 94.2279 108.125 89.8571C108.615 87.8023 108.429 85.6998 108.181 83.6174L108.045 83.0446C107.756 80.8441 107.125 78.7241 106.464 76.619C104.785 71.2685 102.272 66.4078 97.6822 62.9488C95.7142 61.4642 93.7814 60.0299 92.6378 57.7566C92.3036 57.0909 91.6651 56.6212 91.0267 56.2042C90.7201 56.0033 90.3431 55.8224 90.4738 55.3376C90.7365 54.3677 90.814 53.357 90.7025 52.3584C90.6547 51.9163 91.0092 51.9037 91.2479 51.8057C93.1832 51.017 94.538 49.5801 95.7193 47.9172C97.8833 44.8777 99.331 41.4388 101.146 38.2059C102.624 35.606 103.152 32.5738 102.641 29.6275L102.52 29.2859C102.191 27.5119 101.383 25.8616 100.183 24.5131C97.9386 22.0389 95.7041 19.5293 93.1003 17.4243C89.9585 14.8822 86.3946 13.7468 82.3405 14.7265C82.0798 14.7898 81.8086 14.7961 81.5452 14.745C81.2819 14.6938 81.0328 14.5863 80.8148 14.4301C79.4307 13.5736 77.972 12.8439 76.4566 12.2497C71.4148 10.2401 66.1517 9.93616 60.8108 10.0668L60.5468 10.0869L59.9638 10.1422L58.9886 10.2376L57.6439 10.3381L57.2342 10.4712C53.8964 10.9586 50.7371 11.9583 47.902 13.8222C47.6397 14.0198 47.33 14.1449 47.0039 14.185C46.6779 14.2252 46.3471 14.1789 46.0446 14.0508C44.4486 13.4756 42.7772 13.2796 41.1234 13.7418C37.3257 14.8018 35.1089 17.5098 33.8899 21.0793C32.4271 25.3723 32.0702 29.8712 31.5575 34.3475C31.6009 34.6283 31.5373 34.9153 31.379 35.1514C31.1101 36.9273 30.7531 38.6932 30.5973 40.4767C30.3887 42.8907 30.5848 43.1268 32.7664 44.0814C33.1258 44.2397 33.4274 44.2347 33.161 44.8124C31.9949 47.3398 31.7203 50.1875 32.3819 52.891C32.6684 54.1168 32.2637 54.3102 31.2408 54.5212C27.5978 55.2568 24.0575 56.4309 20.6971 58.0178C19.4404 58.6157 18.2239 59.3366 17.7765 60.781C16.7385 64.1068 19.5535 67.8447 23.0245 67.8322C24.3644 67.7987 25.6853 67.5079 26.9152 66.9756C30.3184 65.6074 33.7106 64.2073 37.0919 62.7755C37.6851 62.5243 38.0219 62.4691 38.5597 63.0142C39.4671 63.931 40.0502 64.6318 38.6653 65.6115C38.3411 65.8401 38.1878 66.3878 38.0696 66.8173C37.9227 67.3808 37.6666 67.9099 37.3156 68.3747C35.6718 70.5174 34.5509 72.9365 33.6461 75.4585C31.5248 81.3918 30.6753 87.5888 29.8132 93.7959C29.3809 96.9258 30.3661 99.8573 30.6526 102.882C30.6763 103.134 30.7627 103.377 30.9039 103.588C31.5851 104.592 31.6077 105.693 31.5825 106.828C31.5675 107.582 31.5759 108.335 31.6077 109.089C31.8113 113.51 34.0281 116.346 37.866 116.758C39.3162 116.914 39.8315 117.434 39.6933 118.785L39.7611 119.164L40.4322 125.316L40.5906 126.148C40.6861 127.116 40.7824 128.082 40.8796 129.046V129.074C41.2853 129.088 41.6915 129.079 42.0961 129.046C42.8953 128.948 42.8501 128.544 42.5988 127.064C41.8196 122.447 41.4878 117.785 41.0379 113.13C40.9575 112.309 41.2541 112.224 41.8573 112.48C43.6167 113.234 45.4791 113.47 47.3616 113.585C49.7041 113.731 52.1094 114.369 54.2257 112.714C54.2728 112.67 54.329 112.638 54.3901 112.62C54.4513 112.601 54.5158 112.596 54.579 112.606C54.6422 112.616 54.7024 112.639 54.7552 112.675C54.8081 112.711 54.8522 112.759 54.8842 112.814C55.8192 114.07 57.2493 114.294 58.6367 114.53C61.502 115.017 64.3923 114.781 67.2727 114.693C67.8608 114.675 68.2781 114.585 68.1775 115.391C67.8659 117.848 68.0694 120.32 68.0443 122.784C68.0091 126.05 68.9994 127.306 72.1914 127.823C77.0987 128.665 82.0959 128.855 87.0531 128.388C87.4603 128.348 88.1087 128.263 88.2544 128.471C88.4351 128.753 88.7135 128.958 89.0361 129.046C89.5388 129.182 90.1069 129.029 90.6372 129.046C90.4713 128.087 91.2479 128.217 91.7556 128.15C94.729 127.75 97.7099 127.396 100.688 127.012L101.254 126.873C101.711 126.833 102.176 126.828 102.629 126.748C105.476 126.245 106.384 125.213 106.617 122.347C106.924 118.579 106.248 114.811 107.143 111.043C107.515 109.471 107.087 107.717 107.1 106.047C107.138 100.978 104.911 99.3272 100.201 99.6638C99.713 99.6965 98.8459 100.078 98.7378 99.3498C98.6298 98.6214 99.5924 98.6842 100.082 98.5184ZM48.0202 16.0051C51.7902 13.4931 56.0328 12.531 60.469 12.2045H60.763C67.617 11.8704 74.2096 12.742 80.1689 16.4748C80.6792 16.7808 81.2888 16.8754 81.8679 16.7385C87.0304 15.7338 91.0217 17.6982 94.2916 21.5515C95.968 23.2848 97.9587 24.699 99.238 26.8267C100.937 29.6627 101.249 32.6243 99.9367 35.5809C98.21 39.4695 96.3752 43.3228 93.9498 46.8496C93.3213 47.8436 92.4959 48.6984 91.5244 49.3616C90.7505 49.8675 89.8295 50.1 88.9081 50.0222C87.9866 49.9443 87.1177 49.5606 86.4398 48.932C85.3523 47.9489 84.4943 46.7389 83.9264 45.3877C81.8503 41.479 81.413 37.1986 81.1617 32.8906C81.031 30.6298 81.1768 28.369 81.32 26.1258C81.3603 25.4853 81.7523 24.385 80.9229 24.267C79.9879 24.1338 80.1236 25.3396 79.9176 25.9877C79.6863 26.7413 79.6662 27.5477 79.538 28.3314L79.5004 28.6553L79.4199 29.5973L79.4048 29.8913C79.3319 34.1742 79.5431 38.432 80.3549 42.6547L80.4856 42.9359L80.6213 43.6895C81.32 45.2469 81.9635 46.8295 82.9487 48.2487C84.1752 50.0071 85.6255 51.4641 87.7971 51.9715C88.6039 52.1599 88.8652 52.6699 88.8627 53.426C88.8568 54.1831 88.6587 54.9264 88.2871 55.5863C85.9246 59.8768 82.3003 62.67 77.7536 64.348C72.6077 66.7941 67.0834 68.3484 61.4165 68.9449C58.4608 69.2514 55.4698 69.1182 52.6197 68.023C52.401 67.9376 51.2147 67.9904 52.2401 67.0861C52.7001 66.6791 51.931 66.5836 51.6369 66.5535C49.5885 66.3274 47.6155 65.7999 45.6249 65.2975C43.5614 64.76 41.7744 63.7024 40.1105 62.4037C39.5073 61.9315 39.4043 61.5898 40.1734 61.1477C41.3636 60.4407 42.4327 59.5478 43.3402 58.5027C43.8429 57.9325 44.4109 57.7917 45.1197 57.8194C47.5401 57.9198 49.5357 58.9598 51.3127 60.5298C52.8207 61.8561 54.1679 63.3709 55.9298 64.3832C58.413 65.81 60.9892 66.3651 63.6986 64.9986C64.704 64.4962 65.4581 63.7276 65.7446 62.5947C65.7732 62.4748 65.7756 62.3501 65.7518 62.2292C65.7279 62.1082 65.6783 61.9939 65.6063 61.8938C65.3877 61.6778 65.1715 61.939 64.9704 62.0897C61.9544 64.3882 58.971 64.4057 55.9675 62.0696C54.9939 61.2768 54.065 60.4307 53.1852 59.5351C50.8276 57.2366 48.1584 55.6817 44.7402 55.6717C43.7197 55.6717 43.2723 55.2095 43.6016 54.1645C43.6788 53.8822 43.7259 53.5926 43.7424 53.3004C43.9082 51.6601 44.4285 50.5371 46.3437 50.08C48.3544 49.6027 49.7443 48.0479 50.6969 46.1664C51.6495 44.2849 50.9859 42.0367 48.7666 41.0595C45.841 39.7684 43.2372 40.4139 40.4926 41.1876C36.8155 42.225 37.0617 45.3675 38.2506 47.7036C38.5847 48.3616 39.0536 48.942 39.627 49.4068C40.2003 49.8717 40.8652 50.2106 41.5783 50.4016C42.3323 50.6126 42.4881 50.904 42.2569 51.635C42.0056 52.4639 42.1564 53.6445 41.6336 54.1118C41.0379 54.6518 40.0251 53.843 39.1705 53.7199C37.8334 53.5239 36.5113 53.3732 35.1792 53.6772C34.566 53.8153 34.2367 53.5992 34.0959 52.9838C33.0177 48.2714 34.3473 43.6317 38.3687 40.5546C40.1758 39.1755 42.5661 39.2534 44.7553 38.9695C45.7606 38.8389 46.7307 38.6555 47.6054 38.1054C48.1357 37.7713 48.5052 37.3518 48.4977 36.6962C48.3469 36.3043 48.5656 35.7115 47.8995 35.5985C47.8319 35.6463 47.7561 35.6812 47.6758 35.7015L47.4471 35.9275L47.158 36.2114L47.2008 36.1912L46.8464 36.5731H46.7484C46.7484 36.6861 46.6378 36.7514 46.5448 36.8243H46.4443V36.7238C46.0446 37.3292 45.3534 37.3343 44.7829 37.3544C43.1655 37.3862 41.5547 37.5712 39.9723 37.9069C39.6832 37.9723 39.3037 38.1029 39.0876 37.7035H39.1227L38.8161 37.4523L38.615 37.2338C38.5264 37.1893 38.45 37.124 38.3923 37.0435C38.3345 36.963 38.2971 36.8696 38.2833 36.7715C37.9729 36.4364 37.7516 36.0288 37.6398 35.5859C37.3709 34.7595 36.9135 33.5965 37.4086 33.1317C37.8535 32.7148 39.0474 33.0991 39.922 33.1317C40.3317 33.1317 40.3217 33.4156 40.3694 33.7245C40.4473 34.2093 40.6057 34.6816 40.7288 35.1589L41.6789 36.131C42.83 36.6686 43.9861 36.5907 45.1498 36.1662C45.4363 35.8171 45.9365 35.488 45.9717 35.1137C46.1677 33.1242 47.4999 33.3001 48.8696 33.4709C49.5457 32.7173 49.4478 32.0164 48.5354 31.6948C47.9754 31.5263 47.3935 31.4416 46.8087 31.4436C44.044 31.3256 41.2792 31.2478 38.5321 31.1373C37.3332 31.087 37.1472 30.8433 37.7479 29.7857C38.6427 28.2107 39.8164 26.9548 41.8548 26.9523C43.7348 26.9523 45.6249 26.7715 47.4848 27.1432C48.1533 27.2764 49.0179 27.5099 49.1889 26.4599C49.3598 25.4099 48.5655 25.0935 47.7386 24.9402C45.8427 24.589 43.9042 24.5304 41.9905 24.7668C41.1435 24.8698 41.0681 24.6488 41.3119 23.9103C42.4781 20.3182 45.0493 17.9895 48.0202 16.0051ZM75.3206 71.0776H75.3533C73.6517 74.092 70.794 75.5992 67.798 76.928C67.3757 77.1189 67.1672 77.0737 66.8806 76.6919C65.4254 74.7577 63.9626 72.826 62.1278 71.2233C61.6904 70.8415 61.9493 70.8339 62.3188 70.7912C63.7213 70.6305 65.1237 70.4471 66.5237 70.2713L66.4986 70.2913C66.6734 70.1485 66.8794 70.0489 67.0999 70.0005C67.3204 69.952 67.5492 69.9561 67.7678 70.0125C67.8851 69.8721 68.0437 69.7722 68.221 69.7271C68.3984 69.682 68.5855 69.694 68.7556 69.7613C68.8335 69.5101 69.0824 69.6081 69.2583 69.5503C72.5508 68.4677 75.8333 67.3599 79.0228 65.9909C79.0529 65.9632 79.0806 65.9205 79.1158 65.913C79.4174 65.8326 79.802 65.388 79.9427 65.6141C80.1362 65.918 79.5757 66.1164 79.4224 66.4028C78.2227 67.7961 77.0255 69.192 75.8308 70.5903L75.5794 70.8415V70.8164L75.3206 71.0776ZM62.4747 86.3679C62.2888 86.0496 62.2178 85.6773 62.2736 85.313C62.0222 83.5018 61.7709 81.6856 61.4994 79.877C61.3813 79.1008 61.3964 78.4201 62.0549 77.8398C62.3386 77.5345 62.5606 77.177 62.7084 76.7873C63.3041 75.5464 63.2965 75.5313 64.1486 76.5813C64.3999 76.9028 64.6663 77.2344 64.9177 77.5635C66.491 79.6233 66.4835 79.6133 68.831 78.5155C69.2608 78.3146 69.6001 77.9001 70.1304 77.9202C69.8464 78.3095 69.5699 78.7039 69.2809 79.0882C67.3732 81.6178 65.4731 84.1524 63.5403 86.6593C63.289 87.0035 63.1005 87.7094 62.6857 87.5938C62.271 87.4783 62.6431 86.7824 62.4747 86.3679ZM42.3952 70.5727C41.797 70.1933 41.1661 69.8668 40.5629 69.4976C40.262 69.3583 39.994 69.1571 39.7762 68.9072C39.2107 68.0331 40.6006 65.4533 41.6386 65.3905C42.2469 65.3553 44.4511 66.8726 44.5668 67.493C46.3136 76.9205 49.9907 85.7274 53.2354 94.6751C53.4038 95.1398 53.9291 95.798 53.4516 96.0969C53.1298 96.2979 52.8106 95.4614 52.5166 95.0921C48.093 89.3422 44.1671 83.3059 41.6386 76.4381C41.1686 75.157 41.136 74.1271 41.9629 73.057C42.2189 72.6757 42.4555 72.2816 42.6717 71.8764C42.9909 71.3564 42.9029 70.8967 42.3952 70.5727ZM52.024 85.6622C51.9259 85.6622 51.7952 85.4485 51.7449 85.3104C50.8217 82.8152 49.9068 80.3183 49.0003 77.8197C48.9476 77.674 48.7666 77.443 49.0934 77.4204C51.1946 78.7341 51.3227 76.5336 52.215 75.7298C52.3567 75.5842 52.4902 75.4307 52.6146 75.2701C52.675 75.456 52.7378 75.6444 52.8006 75.8303C52.9313 76.2246 52.9564 76.717 53.2128 76.9933C54.3413 78.2091 53.9392 79.4274 53.429 80.7361C52.8571 82.2104 52.436 83.7388 52.1723 85.2979C52.1522 85.4235 52.2602 85.6747 52.024 85.6747V85.6622ZM52.881 71.9317C51.9335 72.9365 50.9306 73.896 50.2369 75.0841C49.7116 75.9859 49.4829 75.5639 49.0758 75.0364C47.4421 72.8937 47.0651 70.3366 46.6252 67.797C46.5322 67.689 46.3487 67.5659 46.6654 67.5182C47.8844 67.7845 49.1788 67.7242 50.335 68.2718C50.355 68.2744 50.3742 68.2812 50.3915 68.2916C50.4087 68.3021 50.4236 68.3161 50.4352 68.3326C50.4468 68.3491 50.4548 68.3679 50.4587 68.3877C50.4627 68.4075 50.4625 68.4278 50.4581 68.4475L51.2121 69.0328H51.1996L51.4509 69.284C51.662 69.284 51.8656 69.3192 51.9662 69.5352C52.1044 69.5679 52.2954 69.5352 52.2452 69.7864L52.3055 69.7488L54.4419 70.3893C54.1227 71.1052 53.3862 71.3991 52.881 71.9317ZM58.0109 70.7661C59.7074 70.8088 61.5421 72.5496 61.4843 74.0618C61.4014 76.2874 59.5691 78.1638 57.5308 78.1086C55.5351 78.0533 54.1754 76.4131 54.2634 74.1498C54.3061 72.5773 56.3696 70.7209 58.0109 70.7661ZM39.261 44.3904C39.3108 44.2075 39.3989 44.0374 39.5193 43.891C39.6397 43.7447 39.7898 43.6255 39.9597 43.5413C41.2667 42.7752 42.6465 42.215 44.2325 42.1622C45.5821 42.3506 47.0123 42.318 48.1785 43.3554C49.3447 44.3928 49.4025 45.0988 48.4575 46.3146C47.2309 47.8896 45.5545 48.6708 43.682 49.02C41.7166 49.3842 38.8488 46.3271 39.261 44.3904ZM32.2737 40.8736C32.6708 39.0826 33.0278 37.2815 33.3444 35.4754C33.6636 33.6266 33.9075 31.7652 34.1814 29.9089C34.5408 27.3466 34.8852 24.7794 35.6518 22.3001C36.5063 19.5369 37.9892 17.236 40.7364 15.9624C41.8451 15.4498 43.0968 15.3354 44.2802 15.6383C44.7829 15.7564 44.9061 15.9523 44.4335 16.3567C41.6562 18.728 39.6581 21.5867 39.0197 25.2542C38.9887 25.4403 38.9184 25.6175 38.8135 25.7743C38.7086 25.9311 38.5716 26.0637 38.4115 26.1635C36.0087 27.751 35.144 30.0521 35.3099 32.8429C35.3325 34.8022 35.7146 36.6661 36.8833 38.2863C37.3106 38.8817 37.0039 39.2082 36.5641 39.5172C35.7755 40.0759 35.1535 40.8382 34.7645 41.7226C34.4981 42.3154 34.2468 42.7777 33.4802 42.4361C32.799 42.1196 32.045 41.9311 32.2737 40.8635V40.8736ZM23.7986 65.9933L23.0446 65.9255C21.1243 66.1114 20.5136 65.7321 19.8425 63.936C19.1312 62.032 19.4153 60.8086 20.7951 59.834C23.7961 57.7139 26.2416 58.7438 26.7719 62.3459C27.1364 64.873 26.5985 65.5337 23.7986 65.9808V65.9933ZM35.1088 61.5622V61.5296C35.0243 61.6439 34.9065 61.7294 34.7716 61.7744C34.6367 61.8193 34.4911 61.8215 34.3548 61.7808C33.7642 62.4389 32.9297 62.5821 32.143 62.8258C31.3378 63.2954 30.4632 63.6346 29.5518 63.8306C28.7978 64.333 28.5238 64.3329 28.5464 63.2352C28.5665 61.3914 27.9583 59.7059 26.4779 58.4775C25.8018 57.9174 26.1361 57.7239 26.7292 57.5305C28.8618 56.8326 31.0471 56.3076 33.2641 55.9605C34.0583 55.845 34.6213 56.0661 35.0712 56.7443C35.9383 58.0681 35.986 60.4243 35.1189 61.5597L35.1088 61.5622ZM37.6876 60.5725C37.3206 60.7659 37.102 60.693 37.2226 60.2434C37.474 59.3542 37.0467 58.5102 37.0869 57.6386C36.911 57.317 36.7425 56.9879 36.554 56.6714C35.893 55.5611 35.8905 55.5486 37.2679 55.5109C38.4441 55.4807 39.6355 55.4254 40.6408 56.2293H40.6584C41.2164 56.0986 41.5783 56.4805 41.9905 56.7317C42.7596 57.0833 42.2946 57.5029 41.978 57.7717C40.6571 58.8527 39.2217 59.786 37.6976 60.5549L37.6876 60.5725ZM31.4343 97.3201C31.716 91.667 32.5519 86.0553 33.9301 80.5654C34.8047 77.1566 35.9986 73.8534 37.8384 70.8214C38.0897 70.3994 38.3637 69.7789 38.9543 70.319C39.545 70.8591 40.862 70.9194 40.3292 72.1653C39.7511 73.5218 39.5299 74.8883 39.3238 76.3427C39.1629 77.453 38.4667 78.6762 38.145 79.8996C37.2955 83.1425 36.8884 86.4559 36.5993 89.7868C36.3229 92.9494 36.0011 96.1095 36.0841 99.2896C36.0991 99.8975 35.9232 100.254 35.1893 100.043C34.1358 99.7738 33.122 99.3684 32.1732 98.8374C31.6404 98.5108 31.2735 98.0637 31.4444 97.3076L31.4343 97.3201ZM32.3668 102.661C32.0476 102.188 31.8967 101.533 32.1732 101.133C32.4497 100.734 32.9272 101.294 33.3419 101.385C33.6231 101.457 33.8986 101.551 34.1663 101.663C34.767 101.897 35.7397 101.714 35.9458 102.241C36.2298 102.965 36.0313 103.876 36.0589 104.708C36.074 105.16 35.9056 105.19 35.5386 105.014C34.757 104.64 33.9125 104.379 33.2917 103.726L33.073 103.512C32.8257 103.237 32.5933 102.948 32.3768 102.648L32.3668 102.661ZM37.4715 114.718C34.2694 113.819 33.4374 112.523 33.2992 108.142C33.4048 107.529 32.9247 106.439 33.5506 106.182C34.1136 105.951 35.0184 106.549 35.7724 106.775C36.1469 106.888 36.1167 107.207 36.1343 107.491C36.2474 109.25 36.9261 110.606 38.6729 111.309C39.5475 111.661 39.1755 112.565 39.2434 113.198C39.4846 115.16 39.3665 115.231 37.4815 114.698L37.4715 114.718ZM53.5873 101.611C52.9615 104.138 53.1751 106.672 53.5144 109.199C53.7657 111.101 52.8659 112.091 50.8728 111.93C47.1605 111.621 43.4709 111.189 39.9371 109.92C38.1073 109.262 37.8761 108.931 37.856 107.021C37.7957 102.045 37.856 97.069 38.1299 92.1003C38.3813 87.5511 39.0247 83.0396 39.7084 78.5357C39.7755 78.2581 39.8681 77.9873 39.9849 77.7267C40.299 77.88 40.2588 78.2291 40.3794 78.4803C42.3901 82.7507 44.519 86.9608 47.2083 90.8695C48.6535 92.967 49.9731 95.1523 51.7324 97.0263C51.9838 97.3001 52.1773 97.6895 52.4865 97.8553C54.1629 98.7144 53.9543 100.144 53.5973 101.59L53.5873 101.611ZM53.3937 89.626C53.0997 88.7141 53.4239 87.8023 53.5747 86.9055C53.9341 84.798 54.6404 82.7809 55.226 80.7286C55.4196 80.0453 55.7413 79.7665 56.4953 79.975C57.3107 80.2002 58.1759 80.1659 58.9709 79.877C59.3228 79.7489 59.632 79.7187 59.7049 80.2186C60.1355 83.1961 60.567 86.172 60.9993 89.1462C61.0024 89.6114 60.8513 90.0646 60.5695 90.4349C59.162 92.3055 57.7662 94.1861 56.3822 96.0768C55.9524 96.6671 55.7086 96.5791 55.4975 95.9386C54.8088 93.8084 54.0824 91.7034 53.4088 89.6059L53.3937 89.626ZM75.1295 112.874C74.9787 116.798 75.0491 120.729 75.0843 124.658C75.0843 125.718 74.9033 126.301 73.6919 125.891C73.4061 125.83 73.1163 125.79 72.8248 125.771C70.7261 125.386 70.2586 124.887 70.2837 122.779C70.3239 119.262 69.8791 115.773 70.0475 112.259C70.1706 110.219 69.8313 108.164 70.2058 106.13C70.4119 105.012 71.8672 103.718 72.9052 103.721C73.9433 103.723 74.8279 104.653 75.0089 106.13C75.2904 108.35 75.2276 110.593 75.1396 112.854L75.1295 112.874ZM75.4789 99.1765C75.2039 98.6106 75.0492 97.9939 75.0245 97.3653C74.9999 96.7367 75.1058 96.1098 75.3357 95.5241C76.8738 91.3166 82.9462 89.3723 86.6007 91.9295C88.5134 93.2683 89.1543 95.1674 88.8627 97.4131C88.7345 98.3928 88.0886 99.056 87.2566 99.5358C86.8947 99.7443 86.5026 99.9176 86.1483 100.119C84.5698 100.99 83.7706 100.596 83.5343 98.8148C83.4816 98.4003 83.479 97.9808 83.4313 97.5588C83.3911 97.2072 83.4966 96.7223 82.9839 96.6545C82.5591 96.5992 82.3178 96.9735 82.1268 97.2925C81.8778 97.6816 81.7079 98.1159 81.6268 98.5706C81.5457 99.0253 81.5551 99.4915 81.6543 99.9426C81.8177 100.633 81.5462 100.749 80.9732 100.711C79.9326 100.643 79.1058 100.229 78.686 99.2369C78.5101 98.8199 78.4774 98.3451 78.3316 97.9131C78.1506 97.3705 78.6131 96.3304 77.8792 96.3731C77.3539 96.4033 76.7155 97.3177 76.7482 98.2019C76.7482 98.4531 76.7482 98.7043 76.7482 99.061C76.6552 99.3649 77.1528 100.013 76.5823 100.166C75.9766 100.319 75.7177 99.6362 75.489 99.1564L75.4789 99.1765ZM90.9413 98.0938C90.4763 97.9758 90.6699 97.6517 90.69 97.4031C90.9111 92.7107 88.3475 89.6435 83.6826 89.0256C83.3559 88.9829 83.0317 88.9201 82.7074 88.8674C82.8507 88.478 83.2227 88.3398 83.5293 88.1464C85.3038 87.011 88.1313 87.3803 90.0415 88.9805C91.8285 90.4876 93.0827 93.1553 93.0952 95.8431C93.0776 95.9562 93.0299 96.4133 92.9269 96.8479C92.6931 97.8602 91.9215 98.3174 90.9514 98.0737L90.9413 98.0938ZM91.1072 100.136C90.984 100.638 90.416 100.345 90.0641 100.453C89.8329 100.387 89.3931 100.558 89.4358 100.299C89.5137 99.8297 90.0264 99.9728 90.3733 99.9627C90.6472 99.9351 91.175 99.885 91.1097 100.116L91.1072 100.136ZM104.627 122.174C104.531 123.932 104.187 124.249 102.47 124.54C100.286 124.907 98.0944 125.223 95.9002 125.502C91.2555 126.09 86.6006 126.592 81.9107 126.547C80.7394 126.547 79.5682 126.575 78.3919 126.547C77.5751 126.522 77.09 126.132 77.0523 125.228C76.9317 122.39 77.2207 119.544 76.8537 116.71C76.7985 116.27 77.0472 116.017 77.4544 116.263C80.3649 118.006 83.4866 117.107 86.5353 116.969C87.5407 116.921 87.8598 117.142 87.88 118.137C87.9352 120.621 88.1514 120.78 90.6698 120.8C91.7565 120.801 92.8418 120.723 93.9171 120.566C95.7695 120.315 96.5662 119.473 96.6291 117.599C96.6894 115.796 96.6894 115.773 98.5292 115.796C100.244 115.852 101.958 115.66 103.619 115.228C104.272 115.047 104.695 115.102 104.687 115.911C104.682 117.974 104.75 120.069 104.637 122.154L104.627 122.174ZM89.7851 115.69C89.8027 114.068 89.8027 114.067 91.4917 113.992C94.6259 113.851 94.5706 113.851 94.6686 117.019C94.7063 118.212 94.3218 118.732 93.1606 118.68L92.854 118.74C89.7575 118.792 89.7575 118.793 89.7952 115.67L89.7851 115.69ZM101.849 101.688C103.76 101.721 104.478 102.394 104.722 104.266C104.901 105.675 104.993 107.093 104.996 108.514V109.644C104.996 112.452 104.101 113.497 101.307 113.733C99.9744 113.846 98.6298 113.774 97.2851 113.796C96.6945 113.796 96.2948 113.558 96.2319 112.962C96.1314 111.957 95.5006 111.746 94.6511 111.792C93.0224 111.877 91.3836 111.957 89.7675 112.043C88.7094 112.101 88.0081 112.545 88.0081 113.716C88.0081 114.736 87.5055 115.027 86.5001 115.027C84.8312 115.027 83.1649 115.228 81.4935 115.278C79.3797 115.336 78.0702 114.304 77.5323 112.219C77.0598 110.377 77.4444 108.463 77.0774 106.609C76.9568 105.996 76.997 105.331 76.7708 104.766C76.3108 103.605 76.9191 103.133 77.8666 103.09C80.3147 102.98 82.72 102.462 85.2057 102.618C87.2768 102.746 89.3729 102.472 91.4565 102.352C94.9426 102.131 98.3834 101.608 101.859 101.668L101.849 101.688ZM93.9574 99.9301C93.9172 99.6538 94.2916 99.5859 94.5254 99.5608C95.1789 99.4955 95.8248 99.2594 96.4858 99.4579C96.5185 99.4579 96.5411 99.7443 96.4858 99.7769C95.9303 100.129 95.2744 99.9954 94.6938 100.131C94.4374 100.051 94.0328 100.357 93.9674 99.9176L93.9574 99.9301ZM95.7418 97.4181C94.8898 97.6442 94.8395 97.059 94.925 96.4687C95.0817 95.3495 95.0254 94.2108 94.7591 93.1126C94.0604 90.0982 92.2458 87.9806 89.4936 86.6342C89.3126 86.5463 89.011 86.4357 88.9909 86.3152C88.9582 85.9836 89.3201 86.0163 89.5287 85.9535C91.366 85.3883 93.2134 84.8533 95.0582 84.2856C95.5609 84.1299 96.2672 84.0093 96.0837 83.2808C95.9002 82.5523 95.2165 82.6176 94.6184 82.703C91.7053 83.1149 91.7079 83.1149 90.7377 80.3492C90.5841 79.9162 90.4087 79.4912 90.2124 79.0757C90.0289 78.6864 89.775 78.2794 89.2673 78.4628C88.7596 78.6462 88.815 79.1661 88.9155 79.5479C89.1819 80.5527 89.4182 81.5977 89.8656 82.5246C90.4311 83.6852 89.9988 84.0795 88.923 84.3257C86.9232 84.7817 84.9832 85.4687 83.1423 86.3729C81.9207 86.9733 80.84 87.7571 80.0884 88.9076C79.7592 89.41 79.2791 89.5959 78.7815 89.8194C76.2681 90.9473 74.4107 92.6731 73.4305 95.3232C72.8549 96.8806 73.0937 98.3601 73.4808 99.8723C73.5939 100.314 73.6894 100.762 73.7925 101.206C73.0874 101.57 72.3392 101.844 71.5656 102.02C69.3412 102.635 68.2856 104.007 68.2655 106.29C68.2504 108.004 68.2303 109.722 68.2655 111.435C68.2906 112.415 67.8734 112.781 66.9208 112.771C64.4502 112.741 61.9795 112.799 59.5114 112.746C56.6059 112.683 55.8946 112.02 55.3467 109.194C54.9594 107.096 54.8269 104.959 54.952 102.829C55.0375 101.023 56.0504 99.6137 57.0558 98.217C61.032 92.6907 65.3902 87.4356 69.3714 81.9017C73.2822 76.4708 77.6102 71.3639 81.7247 66.0938C83.9867 63.2075 87.0757 61.1427 88.9859 57.9977C89.2196 57.6134 89.4357 57.6712 89.7725 57.9626C91.8838 59.7788 92.6554 64.2149 91.2605 66.6867C90.9765 67.1891 90.5216 67.4402 90.0038 67.6537C87.9428 68.5078 85.731 68.8445 83.6172 69.4976C82.2801 69.9095 82.1746 70.1432 82.9839 71.2761C85.2208 74.406 85.261 74.4487 82.5265 77.0285C79.4275 79.9524 76.1651 82.703 72.953 85.5064C69.208 88.7719 65.4756 92.0652 61.7156 95.3232C60.9264 96.0065 60.1297 96.6821 59.3405 97.3679C58.9509 97.707 58.5085 98.1491 58.8906 98.6238C59.2047 99.0182 59.8054 98.747 60.1473 98.5109C61.3411 97.7387 62.4844 96.8913 63.5705 95.9738C67.0892 92.8916 70.6583 89.8671 74.172 86.7749C75.8333 85.3129 77.4947 83.8484 79.1334 82.3588C81.0813 80.6004 82.9864 78.7743 84.9821 77.0536C86.5655 75.6871 86.7213 74.4462 85.7511 72.6049C84.7809 70.7636 84.7809 70.8063 86.8746 70.3064C88.3826 69.9446 89.9083 69.6683 91.3384 68.7992C93.1128 67.7216 93.5803 66.2597 93.6607 64.4209C93.6834 63.8607 93.3591 63.087 93.9121 62.7881C94.465 62.4892 94.9175 63.2152 95.3724 63.5417C99.8311 66.7445 102.503 71.2057 104.219 76.3025C105.33 79.5932 106.205 82.9567 106.436 86.4383C106.763 91.3568 104.174 94.4213 99.9669 96.4661C98.6322 97.1167 97.1418 97.0339 95.7519 97.4056L95.7418 97.4181Z" fill="#1D2831"/>
<path d="M68.7799 69.7488H68.7557C68.7557 69.7488 68.7557 69.7488 68.7557 69.7657L68.7799 69.7488Z" fill="#1D2831"/>
<path d="M60.2251 120.654C60.1925 120.189 60.0668 119.78 59.534 119.797C57.9631 119.845 56.4726 119.436 54.9696 119.089C54.6755 119.021 54.3614 119.026 54.1804 119.312C53.9291 119.694 54.2357 119.958 54.4795 120.164C55.2207 120.784 56.1041 121.21 57.0507 121.405C57.9832 121.601 58.2295 122.103 58.237 122.985C58.2496 124.791 58.7397 126.524 59.1594 128.26C59.2549 128.657 59.4259 128.941 59.7702 129.014C59.8802 129.036 59.9931 129.04 60.1044 129.026L60.1874 129.014C60.7479 128.906 60.7278 128.441 60.7403 128.009C60.7403 127.843 60.7403 127.677 60.7403 127.506H60.6976C60.5393 125.223 60.3759 122.94 60.2251 120.654Z" fill="#1D2831"/>
<path d="M68.5319 38.9518C68.5569 38.9518 68.5819 38.9518 68.6069 38.9518V38.9218L68.5319 38.9518Z" fill="#1D2831"/>
<path d="M60.3861 40.7983C63.4273 42.519 67.9061 42.2704 70.236 40.2583C71.0705 39.5399 71.5883 38.7385 70.7513 37.6759C70.236 38.0175 69.8113 38.5049 69.1804 38.6632C69.1175 38.7567 69.0321 38.8329 68.9319 38.8847C68.8317 38.9365 68.7201 38.9622 68.6074 38.9595L68.6199 38.9947L67.5467 39.5147L67.597 39.4695C67.1069 39.7835 66.5464 39.8538 65.9884 39.9367H64.2869C63.2815 39.7809 62.251 39.708 61.4543 38.9545V39.0625H61.3462C60.9214 38.8113 60.4564 38.628 60.1649 38.1984L60.2352 38.1682C60.1979 38.1766 60.1592 38.177 60.1217 38.1693C60.0842 38.1617 60.0488 38.1463 60.0177 38.124C59.9866 38.1017 59.9606 38.073 59.9413 38.0399C59.9221 38.0069 59.9101 37.9702 59.906 37.9321C59.7578 37.9321 59.6849 37.8316 59.6547 37.6809C59.4964 37.6583 59.4385 37.5478 59.4285 37.3871V37.4573C59.1595 37.2637 58.9737 36.9757 58.9082 36.651L58.9384 36.6888C58.2723 35.7443 57.6415 34.5561 58.0713 33.5915C58.3226 33.0012 59.7753 33.6166 60.6349 33.4106C62.5727 32.9484 62.9346 34.2597 63.3217 35.6111L63.2891 35.5734L63.5152 35.8698C65.9683 38.0201 68.4038 37.2339 69.296 33.9834C69.384 33.6618 69.5021 33.5538 69.7786 33.5939C70.4572 33.6944 71.1811 33.4256 71.8195 33.8451C72.1124 33.8523 72.4053 33.8313 72.6941 33.7823C73.1817 33.6593 73.9508 33.8074 73.9508 33.0513C73.9508 32.2952 73.3677 31.9964 72.6941 31.8758C72.3622 31.814 72.0262 31.7761 71.6888 31.7627C69.1754 31.6823 66.662 31.6062 64.1486 31.5342C61.848 31.4689 59.5474 31.4069 57.2469 31.3483C56.4526 31.3282 55.764 31.5392 55.8168 32.5038C56.0304 35.9879 57.1589 38.9771 60.3861 40.7983Z" fill="#1D2831"/>
<path d="M59.9009 37.9246V37.9446C59.925 37.9473 59.9493 37.9473 59.9734 37.9446L59.9009 37.9246Z" fill="#1D2831"/>
<path d="M59.657 37.6658V37.6933C59.6769 37.6961 59.6971 37.6961 59.717 37.6933L59.657 37.6658Z" fill="#1D2831"/>
<path d="M58.7599 26.8945C63.2538 27.309 67.8081 26.696 72.2668 27.6481C72.8525 27.7737 73.2496 27.4773 73.4406 26.9498C73.6316 26.4223 73.3652 26.0555 72.9379 25.7943C72.2884 25.4112 71.5674 25.1651 70.8191 25.0708C68.826 24.7845 66.8153 24.7995 64.8096 24.7267L64.4929 24.694L58.7549 24.6714L58.4306 24.7518C57.7495 24.9277 57.0784 25.1663 57.1865 26.0404C57.2996 26.9925 58.124 26.8267 58.7599 26.8945Z" fill="#1D2831"/>
<path d="M58.6868 102.254C58.226 102.294 57.797 102.506 57.4851 102.847C57.1732 103.189 57.0011 103.635 57.0029 104.097C57.0431 105.047 57.8398 105.735 58.8653 105.713C59.0846 105.717 59.3023 105.674 59.5044 105.589C59.7064 105.504 59.8883 105.377 60.0382 105.217C60.1882 105.057 60.3028 104.867 60.3748 104.66C60.4469 104.453 60.4746 104.233 60.4563 104.014C60.4462 103.072 59.5866 102.231 58.6868 102.254Z" fill="#1D2831"/>
<path d="M69.7735 33.6066C69.4971 33.5664 69.3789 33.6743 69.2909 33.9959C68.4062 37.2464 65.9707 38.0325 63.5101 35.8823L63.3116 35.6311C62.9245 34.2797 62.5576 32.9685 60.6248 33.4307C59.7652 33.6366 58.3225 33.0213 58.0611 33.6116C57.6364 34.5636 58.2471 35.7367 58.9056 36.6737C58.9711 36.9984 59.1569 37.2864 59.4259 37.48V37.4096C59.4259 37.5678 59.4963 37.6809 59.6521 37.7035C59.6747 37.8542 59.7476 37.9547 59.9034 37.9547C59.9078 37.9925 59.9201 38.029 59.9395 38.0617C59.9589 38.0945 59.9849 38.1229 60.0159 38.1449C60.047 38.1669 60.0823 38.1822 60.1197 38.1897C60.157 38.1972 60.1955 38.1967 60.2327 38.1883L60.1623 38.2185C60.4539 38.648 60.9163 38.8389 61.3436 39.0826H61.4517V38.952C62.2484 39.7056 63.2789 39.7785 64.2843 39.9342H65.9858C66.5353 39.8938 67.0707 39.7415 67.5592 39.487L67.5441 39.5121L68.6173 38.9922C68.6142 38.9801 68.61 38.9683 68.6048 38.957C68.7175 38.9597 68.8292 38.934 68.9293 38.8822C69.0295 38.8304 69.1149 38.7541 69.1778 38.6606C69.8087 38.5023 70.2335 38.0151 70.7487 37.6734C71.3997 36.4802 71.5957 35.1615 71.8119 33.8477C71.176 33.4382 70.4521 33.707 69.7735 33.6066ZM63.2915 35.6035C63.2915 35.6362 63.2915 35.6713 63.2915 35.704C63.289 35.6713 63.2915 35.6362 63.2915 35.6035ZM63.2915 35.704C63.2915 35.719 63.2915 35.7342 63.2915 35.7468C63.2915 35.7593 63.289 35.719 63.289 35.704H63.2915ZM63.2915 35.7643C63.2903 35.7752 63.2903 35.7861 63.2915 35.7969C63.2912 35.786 63.292 35.7751 63.294 35.7643H63.2915ZM63.3996 35.8873C63.3854 35.8899 63.371 35.8899 63.3568 35.8873C63.375 35.8917 63.394 35.8917 63.4121 35.8873H63.3996Z" fill="#EFE8CE"/>
</svg>
