<svg width="130" height="130" viewBox="0 0 130 130" fill="none" xmlns="http://www.w3.org/2000/svg">
<path d="M129.313 0.670532H0.627686V129.284H129.313V0.670532Z" fill="#54B3A2"/>
<path d="M96.9156 60.5409C96.9156 60.7218 96.9156 60.9051 96.9156 61.086C96.3709 62.757 96.3064 64.5473 96.7296 66.2531C97.0011 67.3207 97.6721 68.6068 97.3228 69.4484C96.6265 71.1264 96.8528 72.8697 96.5914 74.5351C96.1163 77.5495 96.2018 80.6995 97.549 83.6234C97.9503 84.4141 98.0537 85.3225 97.8405 86.1831C96.6316 90.7524 96.2471 95.4121 96.3551 100.122L96.3375 100.137C95.8575 100.255 95.2366 100.022 94.9803 100.687C94.0999 100.957 93.1665 101.004 92.2633 100.825C89.1015 100.293 86.7992 101.813 85.9673 104.915C85.7285 105.799 85.5953 106.716 85.2887 107.575C84.9544 108.515 84.3737 109.225 83.2251 109.306C82.0288 109.391 81.026 109.12 80.5032 107.979C79.9804 106.839 79.6009 105.658 79.1384 104.5C77.7108 100.923 74.7349 99.6171 71.1483 101.031C70.3439 101.375 69.566 101.778 68.8209 102.237C66.5589 103.538 64.4024 103.579 62.3137 101.893C61.6321 101.336 60.8416 100.927 59.9929 100.693C59.1442 100.459 58.256 100.405 57.385 100.534C55.5879 100.755 54.3488 101.72 53.5471 103.363C52.5015 105.505 52.4588 105.483 50.2193 104.912C47.9799 104.342 47.1128 104.94 47.0072 107.306C46.9293 109.065 46.967 110.823 46.9318 112.581C46.8815 115.224 46.0823 116.098 43.7926 116.078C41.1586 116.045 39.5424 114.661 39.6882 112.288C39.8063 110.386 40.2663 108.52 40.5352 106.613C40.7564 105.033 40.7866 103.46 40.1784 101.931C39.4243 100.107 37.964 99.2831 36.1343 99.7101C36.4108 98.7354 36.0438 97.7533 36.2198 96.7535C36.5164 95.0654 36.4007 93.3523 36.26 91.6366C36.0815 89.4386 35.6794 87.1577 36.5113 85.0577C37.4783 82.6815 37.6683 80.0603 37.0542 77.5695C36.5917 75.6077 36.2474 73.6458 36.358 71.6237C40.4875 72.3522 44.6522 72.2818 48.8093 72.0734C51.8379 71.9201 54.6454 71.1238 56.5757 68.441C57.1538 67.6347 57.6112 66.7555 58.2295 65.8939C58.3778 66.032 58.4984 66.1451 58.6015 66.2481C60.1447 67.9688 61.8262 69.4985 63.9701 70.4732C68.3911 72.4828 73.1238 72.0658 77.7635 72.214C80.4202 72.2969 83.0668 71.8322 85.7084 71.3876C90.0666 70.6541 93.7512 67.5041 94.5681 63.4673C94.7817 62.4148 94.8496 61.3346 94.9878 60.2444L96.9156 60.5409ZM68.0518 85.4094C68.0795 85.3868 68.1348 85.3491 68.1323 85.3391C68.1029 85.2846 68.0693 85.2325 68.0317 85.1833C65.0659 85.2964 62.1001 85.3994 59.0514 84.6332C60.6574 88.0621 65.7596 88.3786 68.0518 85.417V85.4094ZM66.4961 79.0743C61.6301 79.4033 56.8069 79.4108 52.2954 77.1375C52.0724 77.0194 51.8261 76.9517 51.574 76.9391C50.8401 76.9215 50.2445 77.2079 50.0208 77.9439C49.8172 78.6045 50.1715 79.0667 50.7421 79.3681C51.1051 79.5708 51.4823 79.747 51.8706 79.8956C60.8534 83.1863 69.5045 82.5684 77.8867 77.7379C78.3366 78.1523 78.6081 78.9712 79.4852 79.0541C80.7419 78.4714 80.9933 77.7705 80.2895 76.6075C79.5858 75.4444 78.3818 74.7637 77.2031 74.1407C76.5948 73.8217 75.9338 73.6383 75.3808 74.3015C74.8279 74.9647 75.0566 75.5072 75.5895 76.1076C72.8487 77.5651 69.8786 78.5429 66.8077 78.9989L66.4961 79.0743ZM88.4781 85.1582C87.5971 85.1395 86.7255 85.3431 85.944 85.7501C85.1625 86.1571 84.4962 86.7544 84.0068 87.4868C83.4138 88.3032 83.1213 89.2993 83.179 90.3064C83.2368 91.3136 83.6411 92.2699 84.3235 93.0132C85.7938 94.6133 87.7141 94.8921 89.5287 93.7668C91.1172 92.7821 91.9265 90.2249 91.4515 87.6903C91.1223 85.9545 90.1948 85.1608 88.4781 85.1658V85.1582ZM45.1875 88.3686C45.1875 86.4896 43.9157 84.9673 42.3851 85.01C40.8996 85.0502 39.7485 86.4368 39.7083 88.2354C39.6807 89.5341 41.4275 91.1719 42.8099 91.1392C44.3079 91.1015 45.19 90.0817 45.1875 88.376V88.3686ZM91.8712 80.172C91.4816 80.4231 91.082 80.697 90.9714 81.237C90.9857 81.4422 91.0433 81.6421 91.1403 81.8234C91.2374 82.0048 91.3717 82.1636 91.5344 82.2895C93.0123 82.4553 93.3466 82.066 93.0424 80.5311C92.7735 80.2649 92.4418 80.1318 91.8637 80.1795L91.8712 80.172Z" fill="#FCD529"/>
<path d="M97.5087 28.149C98.7654 29.8094 98.4337 31.6658 98.1145 33.492C98.0567 33.8135 97.9386 34.125 97.8632 34.4415C97.2248 34.2833 97.4761 34.8459 97.4183 35.0595C96.9156 36.858 96.0862 38.5361 96.3526 40.5607C96.4657 41.4299 96.3526 42.5326 96.3526 43.4671C96.3702 44.2584 95.6891 45.1928 96.4758 45.9514L88.6692 46.0243H88.4178H87.9151H87.6487L87.1611 46.0368C85.7913 45.9715 84.4215 45.8936 83.0593 46.1222L50.9859 46.0493C50.8706 45.9941 50.7443 45.9654 50.6164 45.9654C50.4885 45.9654 50.3623 45.9941 50.2469 46.0493L49.1712 46.082C46.0105 45.8877 42.8401 45.9146 39.6832 46.1624H37.6121C37.5137 46.0816 37.3902 46.0374 37.2628 46.0374C37.1354 46.0374 37.0119 46.0816 36.9135 46.1624H34.8726C34.927 45.8359 35.0207 45.5171 35.1516 45.2129C36.0237 43.7057 36.2072 42.0805 36.1569 40.3773C36.1016 38.4557 36.1268 36.5315 36.1569 34.5998C36.1795 32.0878 36.5766 31.6432 38.8965 30.7489C40.6986 30.0556 42.5635 29.7115 44.426 29.2694C51.6444 27.5638 59.0262 28.026 66.3226 27.4306C70.5627 27.084 74.8681 27.5336 79.1132 27.2874C82.8506 27.0455 86.6029 27.1903 90.3104 27.7195C92.6629 28.0988 95.0883 28.355 97.5087 28.149ZM83.3835 35.2479C83.3513 36.3655 83.5784 37.4755 84.047 38.4909C84.801 40.0458 86.8645 41.3218 88.4027 41.1812C90.1294 41.0254 91.2177 39.9377 91.7706 37.8176C91.8888 37.373 92.022 36.9334 92.115 36.4838C92.6177 33.7709 90.4863 30.6686 87.7895 30.1913C85.5978 29.8044 83.8208 31.5879 83.4161 34.5847C83.3921 34.8049 83.3812 35.0264 83.3835 35.2479ZM66.5287 35.1223C68.2881 34.3461 68.7505 33.3639 68.2504 31.4221C68.0704 30.6847 67.6187 30.0423 66.9855 29.6232C66.3523 29.2041 65.5842 29.0392 64.8347 29.1614C63.6458 29.3171 62.7938 30.3847 62.7712 31.7562C62.736 33.7784 63.6886 34.6299 66.5287 35.1223ZM44.9462 39.1063C44.9664 37.574 43.78 36.22 42.4152 36.2175C41.1183 36.2175 39.9245 37.5438 39.9019 39.0234C39.8742 40.5933 40.9248 41.7037 42.4278 41.6961C43.1011 41.6722 43.7391 41.389 44.2084 40.9059C44.6778 40.4228 44.9421 39.7771 44.9462 39.1038V39.1063ZM77.472 32.9746C76.2555 33.4117 75.6624 34.2104 75.8609 35.2579C76.0193 36.1019 76.4466 36.7149 77.4394 36.7098C78.4321 36.7048 79.0881 36.1422 79.3344 35.2253C79.5807 34.3084 78.8795 33.4795 77.472 32.9746Z" fill="#FCD529"/>
<path d="M107.11 111.521L107.477 112.059C107.385 112.145 107.325 112.26 107.307 112.384C107.289 112.509 107.313 112.636 107.376 112.745C108.191 114.629 108.336 116.613 108.266 118.63C108.246 119.206 108.218 119.761 107.492 120.298C107.53 118.758 108.447 117.402 107.593 116.279C107.457 115.726 107.844 115.397 107.593 114.918C106.838 114.649 106.044 114.187 105.205 114.782C104.599 114.729 104.031 114.307 103.496 114.827C102.726 114.565 102.04 114.103 101.508 113.488C101.535 112.775 101.925 112.139 101.553 111.479C100.98 110.474 100.94 109.349 100.957 108.213C100.98 106.616 100.706 105.093 99.7004 103.774C99.7708 102.943 99.9317 102.109 99.894 101.283C99.8135 99.5569 100.698 97.9442 100.414 96.1984C100.075 94.1209 100.052 92.0511 100.648 89.9988C101.384 87.4567 101.565 84.8744 100.648 82.3574C99.6924 79.8066 99.5545 77.022 100.253 74.3894C101.239 70.6594 101.239 66.7376 100.253 63.0076C99.8261 61.3748 99.4642 59.6818 99.8286 57.9837C100.291 57.6471 101.043 57.9234 101.188 57.1824L101.153 57.2452L101.467 56.9814L101.44 57.0191L101.719 56.7403L101.917 56.5092C102.01 56.4062 102.106 56.3057 102.201 56.2027L102.153 56.2454C102.536 56.062 102.629 55.7054 102.722 55.3361C103.335 52.9447 102.734 50.5633 102.704 48.1669C102.704 47.7951 102.405 47.5941 102.159 47.3731C101.523 47.0415 101.259 46.4688 101.083 45.8056C100.868 44.9234 100.605 44.0538 100.294 43.2007C99.2883 40.5983 99.4994 38.011 100.279 35.4136C100.64 35.3483 100.668 35.0594 100.756 34.7705C101.306 33.105 101.561 31.3565 101.51 29.6034L102.013 29.832C102.189 30.357 102.581 30.4374 103.061 30.3344L103.046 30.2942C103.192 30.7137 103.44 30.6911 103.742 30.46C104.508 30.6459 105.263 30.874 106.004 31.1433C108.545 32.2033 109.696 34.3511 109.367 37.0489C109.163 38.7068 108.636 40.2969 108.502 41.9723C108.324 44.2331 108.942 46.3532 109.314 48.5211C109.304 48.5431 109.3 48.5678 109.304 48.592C109.307 48.6161 109.318 48.6387 109.334 48.6567C109.38 48.8602 109.427 49.0637 109.473 49.2671L109.422 49.3676L109.498 49.453C109.648 51.4626 109.628 53.4546 109.043 55.4064C108.216 58.1849 108.251 61.1487 109.143 63.9069C109.435 64.8564 109.739 65.8135 109.749 66.8259C109.503 69.1658 109.107 71.4875 108.563 73.7765C107.957 76.4241 108.387 78.9562 109.54 81.3878C109.465 82.802 109.626 84.2112 109.374 85.633C108.92 88.3343 108.869 91.0882 109.224 93.8044C109.367 94.9851 109.442 96.2209 109.101 97.5397C108.377 97.0951 108.54 96.5927 108.538 96.1707C108.538 93.4954 108.538 90.8202 108.538 88.145C108.538 86.6855 108.633 85.2135 108.261 83.7867C107.977 82.6914 107.932 81.4756 106.967 80.6517L106.994 80.6794C107.019 80.3679 107.045 80.0564 106.678 79.9057L106.71 79.9509C106.728 79.8967 106.735 79.8394 106.73 79.7825C106.725 79.7256 106.709 79.6702 106.683 79.6196C106.656 79.569 106.62 79.5243 106.576 79.488C106.532 79.4517 106.481 79.4246 106.426 79.4083L106.492 79.4485L106.24 79.132L106.258 79.1571C106.182 78.9059 106.303 78.4412 105.755 78.6547C105.675 78.6371 105.594 78.6221 105.504 78.612C105.356 78.5015 105.328 78.5994 105.315 78.72L105.348 78.6899C105.144 78.6648 104.936 78.5995 104.737 78.7954C104.795 79.8002 104.418 80.7622 104.652 81.8449C105.197 84.3569 105.562 86.9543 105.441 89.519C105.19 94.9172 104.777 100.32 104.813 105.714C104.813 107.085 104.903 108.64 106.052 109.763L106.032 109.735C106.032 110.032 105.974 110.358 106.373 110.469L106.313 110.451L106.565 110.768L106.542 110.733C106.542 110.984 106.607 111.167 106.879 111.222L106.833 111.27L106.788 111.225L107.11 111.521ZM104.848 36.1923C102.661 37.0363 101.91 39.9904 103.39 41.6885C104.177 42.5878 105.19 42.6757 105.878 41.8995C107.271 40.337 106.75 37.2976 104.855 36.1923H104.848ZM104.496 69.7221C106.022 68.9911 106.537 67.6196 106.172 65.399C105.954 64.0752 105.18 63.1232 104.305 63.2237C103.086 63.3618 102.855 64.3214 102.714 65.3187C102.691 65.4845 102.631 65.6452 102.611 65.8085C102.42 67.5317 103.174 69.1092 104.504 69.7221H104.496Z" fill="#E8A607"/>
<path d="M63.2889 66.0296L62.5349 65.3187L62.0322 64.7686L61.8814 64.545L61.2957 63.7688L61.3159 63.8065L61.0269 63.2865L61.0394 63.2991L60.5116 62.2943L60.2854 61.7919C60.2326 61.6236 60.1798 61.4528 60.1296 61.2895C59.75 60.3701 59.6747 59.3402 59.0916 58.4962V58.4686C58.4607 57.5944 57.7318 57.5819 56.9275 58.2174H56.8949C56.5455 58.3731 56.4626 58.6896 56.3922 59.0237H56.4324C56.162 59.4063 55.9942 59.8516 55.9448 60.3174L55.9598 60.2998C55.7085 60.5334 55.7085 60.8625 55.6382 61.1715C54.477 63.588 53.2077 65.9166 50.6742 67.2002L50.2117 67.4187L49.9403 67.5895L49.3924 67.8156L49.4175 67.7854C48.1947 68.1097 46.9428 68.3125 45.6801 68.3909H45.1598L36.4283 68.2653L36.1091 68.2376L34.6262 68.0769L34.0958 67.9312L33.1207 67.7226C29.8181 66.5872 28.0939 64.2336 27.742 60.7972C27.7252 56.7931 27.7068 52.7882 27.6867 48.7824C27.7209 48.7853 27.7551 48.776 27.7831 48.7563C27.8112 48.7365 27.8313 48.7076 27.8401 48.6744L45.9113 48.481L47.9371 48.4659L50.2494 48.5413C50.6968 48.8904 51.2171 48.7322 51.7022 48.7322C63.9172 48.7322 76.1323 48.7322 88.3474 48.7322C88.8325 48.7322 89.3528 48.5965 89.9359 49.0562C89.8278 52.6182 90.1369 56.2806 89.7624 59.9431C89.7146 60.3902 89.5287 60.8474 89.873 61.2619C89.8454 62.2993 89.3151 63.1685 88.9406 64.0929C88.8862 64.1502 88.851 64.2231 88.84 64.3014L88.8626 64.2838L88.3222 65.0374H88.3725L88.0885 65.3312L88.1337 65.3011L87.817 65.5824L87.3672 66.0195L86.3618 66.8359L86.3895 66.8159L86.0853 67.0671V67.0093L85.5827 67.2956L85.6103 67.273L85.0825 67.5393V67.5016L84.5798 67.7528L84.5245 67.7101C78.7211 69.162 72.89 68.8103 67.0514 67.9613L66.0159 67.6348L64.7743 67.0796L64.2716 66.7681L63.9976 66.5847L63.5151 66.2707L63.5503 66.316L63.2889 66.0296ZM84.2053 64.3566L84.2304 64.4219C84.2644 64.4172 84.2965 64.4036 84.3234 64.3824C84.3504 64.3612 84.3712 64.3332 84.3838 64.3014C86.0501 63.0454 86.4573 61.184 86.7463 59.2774C87.0932 59.0941 87.1208 58.775 87.1208 58.4309C87.1208 56.9103 87.1208 55.3906 87.1208 53.8717C87.1208 53.5275 87.0706 53.2135 86.7363 53.0251C86.4046 51.0155 86.2336 50.8573 84.1349 50.8472C77.6982 50.8221 71.2639 51.0608 64.8271 50.8724C64.254 50.8548 63.6408 50.8899 63.319 51.5179C62.9772 51.8847 62.9923 52.3796 62.9169 52.8166C62.369 56.0596 62.0347 59.2925 63.774 62.332V62.3169C63.8569 62.4174 63.9373 62.5204 64.0253 62.6209L63.9776 62.5907L64.2917 63.0931V63.073L64.5582 63.3669L64.5204 63.3317C64.616 63.4297 64.7115 63.5252 64.8045 63.6232L64.7668 63.588L65.0583 63.8718L65.0206 63.8366L65.3147 64.113L65.287 64.0954C65.3353 64.1881 65.4071 64.2664 65.4954 64.3225C65.5837 64.3785 65.6852 64.4102 65.7897 64.4144L65.7696 64.3692L66.0762 64.6204L66.0461 64.5978L66.5764 64.8866L66.5362 64.8666L67.0765 65.1454L67.0439 65.1203C67.5866 65.5046 68.2213 65.7386 68.8837 65.7985C72.6965 66.3009 76.5244 66.1075 80.3447 65.9693C81.056 65.9417 81.8528 65.8513 82.4636 65.3589L82.4409 65.3966C82.7234 65.3929 82.9935 65.2804 83.1949 65.0826C83.508 65.0211 83.7898 64.8523 83.9917 64.6053L83.959 64.6229L84.2053 64.3566ZM32.0575 64.0853L32.3516 64.3642L32.3189 64.3491C32.7888 64.8682 33.4004 65.2384 34.0783 65.4142V65.3715C34.6137 65.8412 35.2998 65.9115 35.9432 65.9643C39.1377 66.2155 42.3398 66.4139 45.5469 66.2155C46.6502 66.1502 47.7888 66.0396 48.7464 65.3539L48.7163 65.379L49.239 65.0851L49.224 65.1027L49.9478 64.5601L50.1992 64.3089L50.5435 63.8693L50.5133 63.8894L50.7823 63.6005L50.7445 63.6257L51.011 63.3217L50.9934 63.3569C51.0832 63.3031 51.158 63.2274 51.2108 63.1369C51.2635 63.0464 51.2925 62.9441 51.295 62.8394V62.8645C51.5863 62.6027 51.7765 62.2472 51.8329 61.8597L51.7776 61.8321C53.1449 58.5489 53.0343 55.1804 52.3582 51.7842C52.3582 51.7515 52.2978 51.7289 52.2677 51.7013L52.2928 51.7214L52.0138 51.43L52.0339 51.4175C51.7374 50.9276 51.2498 51.0256 50.7999 51.0231C44.5449 51.013 38.289 51.0071 32.0324 51.0055C31.6001 51.0055 31.0899 50.8347 30.7908 51.3521L30.7656 51.4099C30.7313 51.4098 30.6974 51.4168 30.6658 51.4304C30.6343 51.4439 30.6059 51.4638 30.5824 51.4887C30.5588 51.5137 30.5406 51.5432 30.5289 51.5754C30.5172 51.6077 30.5122 51.642 30.5143 51.6762L30.5294 51.7088C29.8181 52.4147 30.0493 53.3567 30.0091 54.1806C29.8683 56.9438 29.524 59.7271 30.8209 62.3445L30.7933 62.3169L31.0748 62.852L31.0522 62.8218L31.3035 63.1182H31.2457L31.5699 63.6206L31.5523 63.588L31.8363 63.8769L31.7986 63.8417L32.0877 64.1281L32.0575 64.0853Z" fill="#6BC0B3"/>
<path d="M56.4777 114.578H49.5383V107.52C50.3677 107.618 51.1041 107.733 51.8455 107.789C53.4968 107.914 54.7561 107.216 55.314 105.676C56.5707 102.237 58.4658 102.443 60.9188 104.116C64.2189 106.377 67.4034 106.377 70.6607 104.081C71.7264 103.327 72.9228 102.739 74.2926 103.076C75.7278 103.438 76.5019 104.43 76.8814 105.839C77.3841 107.658 78.0024 109.416 79.4375 110.765C81.5262 112.73 85.6305 112.185 87.1134 109.73C87.7946 108.602 88.0635 107.339 88.3701 106.085C88.9331 103.757 89.9485 102.948 92.2885 103.307C93.8443 103.57 95.4407 103.447 96.9382 102.951C96.6234 106.778 96.0269 110.577 95.1538 114.317C83.5034 114.761 71.8697 114.905 60.2528 114.749C59.0062 114.367 57.7369 114.591 56.4777 114.578ZM59.1193 112.991C59.9512 112.109 60.4388 111.187 59.6572 110.085C59.1947 109.431 58.5161 108.949 57.7344 109.462C56.9527 109.974 56.1987 110.592 56.5933 111.7C57.0206 112.905 58.0058 113.084 59.1193 112.991Z" fill="#FBC30F"/>
<path d="M26.8449 123.107C24.8945 123.609 22.9617 123.303 21.0264 122.986C20.3704 120.725 19.4531 118.477 20.0035 116.02C20.0362 115.877 19.8225 115.676 19.7245 115.503C21.1948 114.219 21.5316 112.589 21.1722 110.75C21.0591 110.172 20.9208 109.577 21.1546 109.025C21.8885 107.311 21.5869 105.704 20.755 104.129C20.8656 103.548 20.3076 103.27 20.1543 102.827C20.3428 101.539 20.192 100.185 20.7826 99.0218C22.3535 95.9246 22.5847 92.6766 22.0393 89.3306C21.896 88.4338 22.0393 87.4843 21.5894 86.6403C21.5894 86.2736 21.4788 85.8867 21.8056 85.5024C23.379 85.319 24.8719 84.3695 26.5961 84.6986C26.5308 85.3165 25.9577 85.7611 26.008 86.4193H25.822C25.3193 86.0249 24.8166 86.1228 24.236 86.3816C24.1179 86.6328 23.8665 86.9392 23.8615 87.2406C23.8188 89.7677 23.7459 92.2646 24.8292 94.6937C25.2514 95.6357 26.0055 96.2913 26.4101 97.276C27.0234 98.7681 27.0536 100.225 27.1013 101.74C27.1066 101.972 27.1719 102.198 27.2909 102.397C27.4098 102.596 27.5783 102.761 27.7799 102.875C26.7746 104.671 26.3171 106.49 27.5286 108.384C27.2169 108.582 26.8349 108.688 26.6514 109.072C26.7268 109.982 26.9027 110.863 27.521 111.516C27.3928 113.423 26.013 115.319 27.795 116.945C27.9081 118.394 27.6467 119.708 27.3803 121.007C27.2496 121.718 27.5763 122.554 26.8449 123.107ZM23.1552 98.3109C22.165 99.8734 22.0745 101.019 22.826 101.727C23.5046 102.365 24.2335 102.398 24.9875 101.888C25.7893 101.345 26.1487 99.9889 25.6963 99.0545C25.1408 97.899 24.1229 98.2305 23.1552 98.3109ZM22.8285 118.887C22.9542 119.942 23.2106 120.826 24.3919 121.004C25.5531 120.622 25.8421 119.708 25.9778 118.718C24.6457 117.136 24.0526 117.163 22.8285 118.887Z" fill="#FCD529"/>
<path d="M96.9156 60.5409L94.9953 60.2369C94.8571 61.3271 94.7892 62.4072 94.5756 63.4598C93.7613 67.4965 90.0741 70.6465 85.7159 71.38C83.0743 71.8246 80.4378 72.2894 77.7711 72.2065C73.1313 72.0583 68.3987 72.4577 63.9776 70.4657C61.8337 69.491 60.1522 67.9537 58.609 66.2405C58.5059 66.125 58.3853 66.0245 58.237 65.8864C57.6187 66.748 57.1613 67.6271 56.5832 68.4335C54.6529 71.1163 51.8455 71.9126 48.8168 72.0658C44.6622 72.2743 40.495 72.3446 36.3655 71.6161C36.1443 71.5558 35.893 71.5358 35.7924 71.1841L36.3354 71.0861C39.6505 71.4177 42.9707 71.1213 46.2883 71.1012C46.688 71.1012 47.1454 71.2218 47.4118 70.7545V70.634H47.6959C48.5177 70.9806 49.2944 71.0409 49.9378 70.2748L49.9077 70.3099C50.4279 70.3501 50.9657 70.4355 51.1844 69.7699L51.1518 69.8025C51.261 69.8278 51.3756 69.8137 51.4755 69.7627C51.5753 69.7117 51.6538 69.627 51.6972 69.5237L51.6544 69.5513C51.7644 69.5795 51.8809 69.5641 51.9797 69.5084C52.0786 69.4527 52.152 69.361 52.1847 69.2524L52.1445 69.28C52.1984 69.2991 52.2558 69.3066 52.3127 69.3018C52.3697 69.2971 52.425 69.2803 52.475 69.2524C52.5249 69.2246 52.5684 69.1864 52.6024 69.1405C52.6365 69.0946 52.6603 69.042 52.6724 68.9861L52.6372 69.0464L52.9539 68.7952L52.9187 68.8153C52.984 68.8289 53.0514 68.8281 53.1163 68.8129C53.1813 68.7976 53.242 68.7684 53.2945 68.7272C53.3469 68.6861 53.3897 68.634 53.4199 68.5745C53.4501 68.5151 53.4668 68.4499 53.4691 68.3833L53.5068 68.323H53.5772L53.9693 68.0466L53.9316 68.0743L54.2156 67.7929L54.1854 67.8231L54.4644 67.5367L54.4318 67.5719L54.7157 67.283L54.6806 67.3056C55.0903 67.293 55.2109 67.0343 55.2134 66.6776C56.1132 65.2282 57.018 63.7813 57.5936 61.8797C58.429 64.0318 59.6753 66.001 61.2631 67.6774L61.5346 68.0743L61.5019 68.0165L61.5572 67.9788C61.6024 68.2476 61.8085 68.3079 62.0297 68.3255C62.1713 68.6894 62.4235 68.9997 62.7509 69.2129C63.0782 69.426 63.4642 69.5312 63.8545 69.5136L63.8368 69.481C63.9047 69.7698 64.0882 69.8352 64.3395 69.7498C64.4551 70.1667 64.7794 70.1039 65.0935 70.0688L65.0533 70.0436C65.4354 70.6189 66.0411 70.7973 66.6619 70.8877C72.0984 71.7392 77.5423 71.5207 82.9813 70.948C83.6474 70.8801 84.4391 70.9479 84.884 70.2245C88.4982 68.9057 91.1675 66.66 92.0672 62.7564C92.3921 61.1522 92.5387 59.5171 92.5046 57.8807C93.9753 57.7819 95.4513 57.7912 96.9206 57.9083L96.9156 60.5409Z" fill="#E8A607"/>
<path d="M85.153 128.962L82.1369 128.862C82.0099 128.166 81.9309 127.463 81.9007 126.757C81.9334 124.94 81.0185 123.807 79.4777 123.006C78.0175 122.253 76.4315 121.876 74.8908 121.356C75.1145 120.1 75.3357 118.844 75.5971 117.362H85.3993C85.427 117.613 85.4546 117.877 85.4848 118.135L85.5074 118.113C85.0173 118.364 85.0047 118.866 84.9092 119.286C84.3864 121.976 84.6578 124.689 84.7332 127.395C84.7332 127.791 84.7533 128.342 85.2359 128.608V128.53L85.153 128.962Z" fill="#E8A607"/>
<path d="M92.5624 48.3226H100.103C100.315 50.5956 100.326 52.8828 100.135 55.1577C97.5289 55.8158 95.0959 55.4089 92.5499 55.4994L92.5624 48.3226Z" fill="#214863"/>
<path d="M57.7645 128.942C55.5025 129.301 53.1977 129.053 50.913 129.123C50.9331 126.453 51.0487 123.792 51.6243 121.172C51.8379 121.584 52.1798 121.333 52.4713 121.338C53.0536 121.552 53.6478 121.731 54.2508 121.876C56.1459 122.471 57.7695 123.436 58.1817 125.594C58.3652 126.561 58.433 127.548 58.5361 128.538C58.2571 128.676 57.9178 128.641 57.7645 128.942Z" fill="#FCD529"/>
<path d="M99.7054 103.777C100.693 105.096 100.977 106.618 100.962 108.216C100.945 109.346 100.985 110.461 101.558 111.481C101.93 112.139 101.54 112.775 101.513 113.491C102.045 114.105 102.731 114.567 103.501 114.83C104.096 115.613 103.222 115.983 102.983 116.525C102.983 118.64 103.274 120.738 103.003 122.835C102.249 121.79 102.342 120.557 102.249 119.374C102.156 118.191 101.792 117.113 100.791 116.332C100.065 116.583 100.037 117.209 99.9844 117.754C99.8537 118.826 99.7859 119.909 99.7331 120.989C99.6929 121.743 99.4314 122.245 98.6875 122.406C98.4939 122.3 98.3289 122.149 98.2063 121.966C98.0838 121.783 98.0074 121.572 97.9838 121.353C98.1575 121.173 98.2907 120.957 98.3743 120.721C98.458 120.485 98.4902 120.234 98.4688 119.984C98.4462 117 98.7202 114.016 98.4537 111.032C98.7403 108.687 99.0259 106.343 99.3108 103.998L99.7054 103.777Z" fill="#FCD529"/>
<path d="M74.8832 121.356C76.4239 121.876 78.0098 122.248 79.4701 123.006C81.0108 123.807 81.9257 124.94 81.8931 126.757C81.9233 127.463 82.0022 128.166 82.1293 128.862C80.1312 129 78.1079 128.749 76.1399 129.286L74.6093 129.236C74.6671 126.608 74.3277 123.966 74.8832 121.356Z" fill="#FCD529"/>
<path d="M26.8449 123.107C27.5763 122.554 27.2496 121.718 27.3954 121.012C27.6618 119.708 27.9231 118.399 27.81 116.95C26.018 115.325 27.4079 113.433 27.5361 111.521C26.9103 110.868 26.7419 109.987 26.6665 109.077C26.85 108.693 27.232 108.587 27.5437 108.389C27.4532 108.69 27.6542 108.731 27.8729 108.753C28.5716 109.1 29.1824 109.637 30.0269 109.65C30.2958 110.838 30.2782 111.964 30.2581 113.071C30.2254 115.36 30.1324 117.648 30.0344 119.934C29.9439 122.059 29.0014 122.974 26.8449 123.107Z" fill="#FBC30F"/>
<path d="M27.7848 102.88C27.5832 102.766 27.4147 102.601 27.2957 102.402C27.1768 102.203 27.1115 101.977 27.1062 101.745C27.0584 100.238 27.0283 98.7732 26.415 97.281C26.0104 96.2964 25.2563 95.6407 24.8341 94.6987C23.7508 92.2797 23.8287 89.7727 23.8664 87.2457C23.8664 86.9442 24.1177 86.6478 24.2409 86.3866C24.829 86.1354 25.3367 86.0299 25.8269 86.4242H26.0128C25.9601 88.9362 26.3044 91.4206 26.4954 93.915C26.5389 94.5797 26.8369 95.2022 27.3273 95.6533C28.6695 97.0072 29.8106 98.4843 29.7603 100.856L28.1719 102.272C27.8879 102.373 27.639 102.496 27.7823 102.873L27.7848 102.88Z" fill="#FBC30F"/>
<path d="M102.995 122.828C103.267 120.73 102.973 118.633 102.975 116.518C103.214 115.975 104.089 115.606 103.493 114.822C104.028 114.302 104.596 114.724 105.202 114.777C106.042 114.182 106.836 114.644 107.59 114.913C107.841 115.392 107.457 115.721 107.59 116.274C108.444 117.402 107.527 118.758 107.489 120.293C108.216 119.756 108.243 119.2 108.263 118.625C108.334 116.616 108.188 114.624 107.374 112.74C107.311 112.631 107.286 112.504 107.304 112.379C107.323 112.255 107.383 112.14 107.474 112.054C108.5 114.159 108.923 116.506 108.698 118.836C108.64 119.59 108.517 120.446 107.384 120.652C106.497 119.216 107.039 117.156 105.373 115.897C104.569 117.56 104.71 119.206 104.853 120.831C104.896 121.333 104.943 121.836 104.73 122.29C104.36 123.081 103.832 123.506 102.995 122.828Z" fill="#FBC30F"/>
<path d="M30.8814 107.547C29.6071 107.522 28.8053 106.291 29.3733 105.048C29.936 103.827 30.8772 102.819 32.0576 102.174C32.3254 102.008 32.6355 101.924 32.9505 101.93C33.2654 101.937 33.5717 102.035 33.8321 102.212C34.4077 102.591 34.4202 103.189 34.3599 103.777C34.1312 105.922 32.5905 107.58 30.8814 107.547Z" fill="#FCD529"/>
<path d="M99.7055 103.777L99.3059 103.996C99.4994 102.046 99.5396 100.082 99.9443 98.1552C100.002 97.9084 100.018 97.6537 99.9921 97.4016C99.5547 93.9627 99.9669 90.5991 100.766 87.2481C101.1 85.8063 100.98 84.2967 100.424 82.9251C99.0923 79.6168 99.3134 76.3487 100.173 72.9927C100.927 70.0411 100.982 67.0544 100.077 64.0903C99.4366 61.9903 99.3612 59.8199 99.5245 57.6345L101.198 57.1874C101.053 57.9284 100.301 57.6521 99.8387 57.9887C99.4743 59.6792 99.8387 61.3723 100.263 63.0126C101.249 66.7427 101.249 70.6644 100.263 74.3944C99.5646 77.027 99.7025 79.8116 100.658 82.3624C101.588 84.8743 101.412 87.4617 100.658 90.0038C100.062 92.0561 100.085 94.126 100.424 96.2034C100.708 97.9492 99.8236 99.5619 99.9041 101.288C99.9367 102.112 99.7759 102.945 99.7055 103.777Z" fill="#FBC30F"/>
<path d="M34.1462 108.841C36.0112 107.083 37.0542 105.023 36.5716 102.31C37.5167 102.524 37.7655 103.199 37.8736 103.935C38.1928 106.098 37.4539 108.123 36.9562 110.165C36.7627 110.959 35.8251 111.042 35.1641 111.353C34.4755 110.768 34.5534 109.655 33.6863 109.193L33.7466 109.14C34.0105 109.213 34.0809 109.032 34.1462 108.841Z" fill="#FBC30F"/>
<path d="M50.262 48.5236C61.4516 48.5036 72.6413 48.4818 83.8309 48.4583C85.54 48.4583 87.2465 48.3679 88.9556 48.3202L89.3201 48.3001L89.5463 48.3202C89.8655 48.4081 90.1671 48.4559 90.1696 48.9281C90.1922 53.0377 90.5139 57.1523 89.8856 61.2368C89.5412 60.8223 89.7273 60.3651 89.775 59.918C90.1495 56.2555 89.8403 52.5931 89.9484 49.0311C89.3653 48.5714 88.8451 48.707 88.36 48.707C76.1449 48.707 63.9298 48.707 51.7148 48.707C51.2297 48.7146 50.7094 48.8728 50.262 48.5236Z" fill="#B5E8CF"/>
<path d="M106.044 109.778C104.896 108.655 104.815 107.1 104.805 105.729C104.77 100.325 105.182 94.9273 105.433 89.5341C105.554 86.9693 105.182 84.3795 104.644 81.86C104.411 80.7773 104.788 79.8102 104.73 78.8105C104.928 78.6145 105.137 78.6798 105.341 78.7049C104.899 80.0608 104.854 81.5146 105.212 82.8949C105.909 85.8088 105.816 88.788 105.715 91.7496C105.592 95.5176 105.363 99.2604 105.18 103.013C105.139 103.039 105.105 103.074 105.081 103.117C105.058 103.159 105.045 103.206 105.045 103.254C105.045 103.303 105.058 103.35 105.081 103.392C105.105 103.435 105.139 103.47 105.18 103.496V105.756C105.16 105.784 105.117 105.819 105.122 105.837C105.144 105.897 105.172 105.955 105.205 106.01C105.295 107.314 105.705 108.537 106.044 109.778Z" fill="#FBC30F"/>
<path d="M106.944 80.6643C107.909 81.4882 107.949 82.704 108.238 83.7992C108.61 85.226 108.517 86.6981 108.515 88.1575C108.515 90.8328 108.502 93.508 108.515 96.1833C108.515 96.6053 108.354 97.1077 109.078 97.5523C109.42 96.2335 109.344 94.9977 109.201 93.817C108.846 91.1008 108.897 88.3469 109.352 85.6456C109.603 84.2238 109.442 82.8145 109.518 81.4003C109.576 81.4053 109.635 81.4053 109.694 81.4003C110.448 83.6209 109.694 85.8038 109.442 87.9717C109.156 90.3354 109.442 92.6364 109.638 94.9625C109.719 95.902 109.932 96.8565 109.503 97.6729C108.932 98.0396 108.515 97.8864 108.032 97.6352C107.949 91.9732 109.136 86.2032 106.944 80.6643Z" fill="#FBC30F"/>
<path d="M52.4714 121.338C52.1798 121.338 51.838 121.589 51.6243 121.172C51.7626 119.813 51.9235 118.459 52.4764 117.342H61.3336C60.8033 119.547 60.7605 121.577 60.6977 123.604C60.3913 124.5 60.3913 125.472 60.6977 126.367L60.7656 128.879L60.484 128.867C60.0266 126.38 60.2327 123.883 60.3709 121.391C60.4313 120.286 60.5695 119.185 60.6851 117.952C57.9983 117.814 55.4573 117.367 52.7679 117.683C52.4663 118.894 51.7199 120.029 52.4714 121.338Z" fill="#FBC30F"/>
<path d="M16.5526 104.051C17.4523 103.925 18.7995 105.209 19.0282 106.447C19.058 106.782 19.058 107.118 19.0282 107.452C18.0228 108.432 17.1532 107.982 16.2886 107.284C16.6179 106.952 16.8616 106.573 16.6882 106.091C16.462 105.42 16.5727 104.734 16.5526 104.051Z" fill="#FCD529"/>
<path d="M16.3037 113.76C16.2183 112.614 16.7335 111.562 16.8064 110.441L18.5658 110.602C19.0182 111.501 19.1664 112.428 18.5306 113.267C17.9701 114.001 17.1633 114.121 16.3037 113.76Z" fill="#FCD529"/>
<path d="M84.879 70.2095C84.4341 70.938 83.6424 70.8651 82.9763 70.933C77.5373 71.5057 72.0933 71.7242 66.6569 70.8727C66.0361 70.7772 65.4304 70.6039 65.0483 70.0287L67.5164 70.6466C67.6243 70.7369 67.7526 70.7994 67.8901 70.8288C68.0277 70.8581 68.1704 70.8533 68.3057 70.8149C73.8502 71.1565 79.3922 71.4253 84.879 70.2095Z" fill="#FBC30F"/>
<path d="M109.523 81.4003C108.369 78.9687 107.939 76.4367 108.545 73.7891C109.09 71.5001 109.486 69.1783 109.731 66.8384C109.957 68.7011 109.785 70.5904 109.229 72.3823C108.362 75.3339 108.744 78.2201 109.555 81.0989C109.555 81.1993 109.538 81.2998 109.528 81.4003H109.523Z" fill="#FBC30F"/>
<path d="M85.2333 128.608C84.7457 128.342 84.7307 127.791 84.7307 127.395C84.6628 124.689 84.3838 121.976 84.9066 119.286C84.992 118.856 85.0146 118.354 85.5047 118.113C84.5949 121.592 84.884 125.099 85.2333 128.608Z" fill="#FBC30F"/>
<path d="M102.169 47.3932C102.42 47.6143 102.709 47.8152 102.714 48.187C102.744 50.5759 103.345 52.9598 102.732 55.3562C102.639 55.7255 102.546 56.0822 102.164 56.2656C102.769 53.2989 102.593 50.3423 102.169 47.3932Z" fill="#FBC30F"/>
<path d="M36.3354 71.0862V70.8098L46.1753 70.7822L47.4119 70.7546C47.1455 71.2218 46.6881 71.0987 46.2884 71.1012C42.9708 71.1213 39.6506 71.4178 36.3354 71.0862Z" fill="#FBC30F"/>
<path d="M101.503 29.6134C101.553 31.3665 101.298 33.115 100.749 34.7806C100.661 35.0695 100.633 35.3584 100.271 35.4237C100.728 33.4317 101.206 31.4422 100.922 29.1688L101.503 29.6134Z" fill="#FBC30F"/>
<path d="M39.6832 46.1874C42.8401 45.9396 46.0105 45.9127 49.1712 46.107C46.0094 46.2779 42.8526 46.2427 39.6832 46.1874Z" fill="#D4823F"/>
<path d="M107.97 107.959C107.243 105.478 107.829 103.265 107.97 101.049V107.959Z" fill="#E8A607"/>
<path d="M83.0668 46.1373C84.4291 45.9087 85.7989 45.9865 87.1687 46.0518C85.7989 46.3583 84.4291 46.2528 83.0668 46.1373Z" fill="#6D4B3F"/>
<path d="M56.4776 114.578C57.7343 114.591 59.0061 114.367 60.2477 114.757C58.9882 114.816 57.7259 114.756 56.4776 114.578Z" fill="#E8A607"/>
<path d="M49.9454 70.2823C49.302 71.0485 48.5254 70.9882 47.7035 70.6415L49.9454 70.2823Z" fill="#FBC30F"/>
<path d="M63.8495 69.5112C63.4592 69.5288 63.0732 69.4236 62.7459 69.2104C62.4186 68.9973 62.1664 68.6869 62.0248 68.323L63.8495 69.5112Z" fill="#FBC30F"/>
<path d="M97.2021 45.9514C97.8783 45.6223 97.3329 44.8738 97.7199 44.4442C98.0718 44.8587 97.8682 45.3937 98.0693 45.8208C97.7702 46.0795 97.4811 45.974 97.2021 45.9514Z" fill="#FCD529"/>
<path d="M60.6977 126.36C60.3913 125.464 60.3913 124.492 60.6977 123.596V126.36Z" fill="#E8A607"/>
<path d="M51.192 69.7775C50.9733 70.4431 50.438 70.3577 49.9152 70.3175C50.2973 70.0483 50.7326 69.8641 51.192 69.7775Z" fill="#FBC30F"/>
<path d="M103.043 30.3469C102.563 30.4474 102.171 30.367 101.995 29.8445L103.043 30.3469Z" fill="#FBC30F"/>
<path d="M47.4119 70.7545L46.1754 70.7822C46.57 70.5511 46.9997 70.634 47.432 70.634L47.4119 70.7545Z" fill="#D4823F"/>
<path d="M85.4771 118.135C85.447 117.884 85.4193 117.633 85.3917 117.362H85.7636C85.777 117.504 85.7582 117.647 85.7086 117.781C85.659 117.915 85.5799 118.036 85.4771 118.135Z" fill="#FBC30F"/>
<path d="M36.275 70.8375C35.883 70.8375 35.4707 70.9405 35.1264 70.6466C35.5197 70.5996 35.9182 70.6658 36.275 70.8375Z" fill="#FBC30F"/>
<path d="M105.738 78.6698C106.286 78.4538 106.165 78.921 106.24 79.1722C106.072 79.0039 105.904 78.8381 105.738 78.6698Z" fill="#FBC30F"/>
<path d="M53.4767 68.3808C53.4745 68.4474 53.4577 68.5127 53.4275 68.5721C53.3974 68.6316 53.3545 68.6836 53.3021 68.7248C53.2497 68.7659 53.1889 68.7952 53.124 68.8104C53.0591 68.8256 52.9916 68.8264 52.9263 68.8129L53.4767 68.3808Z" fill="#FBC30F"/>
<path d="M103.724 30.4725C103.423 30.7036 103.174 30.7238 103.028 30.3068L103.724 30.4725Z" fill="#FBC30F"/>
<path d="M36.9134 46.1875C37.0119 46.1067 37.1353 46.0625 37.2627 46.0625C37.3901 46.0625 37.5136 46.1067 37.6121 46.1875H36.9134Z" fill="#D4823F"/>
<path d="M65.0886 70.0537C64.7794 70.0889 64.4552 70.1517 64.3345 69.7347C64.6085 69.795 64.9 69.8025 65.0886 70.0537Z" fill="#FBC30F"/>
<path d="M55.221 66.6852C55.221 67.0419 55.0979 67.3006 54.6882 67.3132L55.221 66.6852Z" fill="#FBC30F"/>
<path d="M50.247 46.0744C50.3623 46.0192 50.4886 45.9905 50.6165 45.9905C50.7444 45.9905 50.8707 46.0192 50.986 46.0744C50.8732 46.1378 50.7459 46.1711 50.6165 46.1711C50.4871 46.1711 50.3598 46.1378 50.247 46.0744Z" fill="#D4823F"/>
<path d="M68.3057 70.8148C68.1704 70.8533 68.0277 70.858 67.8901 70.8287C67.7526 70.7994 67.6242 70.7368 67.5164 70.6465C67.6518 70.6094 67.7943 70.6053 67.9316 70.6346C68.0689 70.6639 68.1972 70.7257 68.3057 70.8148Z" fill="#6D4B3F"/>
<path d="M17.97 100.248L17.9549 101.001C17.8586 100.898 17.8063 100.762 17.8091 100.621C17.8119 100.481 17.8697 100.346 17.97 100.248Z" fill="#6D4B3F"/>
<path d="M47.9548 117.068C48.2062 117.068 48.4575 117.008 48.6636 117.216L47.9574 117.246C47.9377 117.189 47.9368 117.126 47.9548 117.068Z" fill="#1D2831"/>
<path d="M106.663 79.9183C107.029 80.069 107.004 80.3805 106.979 80.692C106.718 80.4986 106.72 80.1946 106.663 79.9183Z" fill="#FBC30F"/>
<path d="M27.7722 102.868C27.6289 102.491 27.8777 102.365 28.1618 102.267C28.0411 102.466 27.9104 102.657 27.7722 102.868Z" fill="#FCD529"/>
<path d="M106.366 110.484C105.966 110.373 106.027 110.047 106.024 109.75C106.137 109.997 106.253 110.24 106.366 110.484Z" fill="#FBC30F"/>
<path d="M62.0373 68.3331C61.8086 68.3155 61.61 68.2552 61.5648 67.9864L62.0373 68.3331Z" fill="#FBC30F"/>
<path d="M52.68 68.9962C52.6679 69.0521 52.6441 69.1047 52.61 69.1506C52.576 69.1966 52.5325 69.2347 52.4826 69.2625C52.4326 69.2903 52.3773 69.3072 52.3204 69.3119C52.2634 69.3167 52.206 69.3092 52.1522 69.2901L52.68 68.9962Z" fill="#FBC30F"/>
<path d="M52.1924 69.26C52.1596 69.3686 52.0862 69.4603 51.9874 69.516C51.8886 69.5717 51.772 69.5871 51.6621 69.5589C51.7702 69.3379 51.9863 69.3077 52.1924 69.26Z" fill="#FBC30F"/>
<path d="M51.7048 69.5312C51.6614 69.6345 51.5829 69.7192 51.4831 69.7702C51.3833 69.8213 51.2686 69.8354 51.1594 69.81L51.7048 69.5312Z" fill="#FBC30F"/>
<path d="M64.3447 69.7498C64.0808 69.8352 63.8998 69.7699 63.842 69.481L64.3447 69.7498Z" fill="#FBC30F"/>
<path d="M106.411 79.4209C106.466 79.4372 106.517 79.4643 106.561 79.5006C106.605 79.5369 106.641 79.5816 106.668 79.6322C106.694 79.6828 106.71 79.7382 106.715 79.7951C106.72 79.852 106.713 79.9092 106.695 79.9635L106.411 79.4209Z" fill="#FBC30F"/>
<path d="M105.17 103.496C105.128 103.47 105.095 103.435 105.071 103.392C105.048 103.35 105.035 103.303 105.035 103.254C105.035 103.206 105.048 103.159 105.071 103.117C105.095 103.074 105.128 103.039 105.17 103.013C105.185 103.174 105.185 103.335 105.17 103.496Z" fill="#E8A607"/>
<path d="M27.8753 108.758C27.6566 108.736 27.4556 108.695 27.5461 108.394L27.8753 108.758Z" fill="#FCD529"/>
<path d="M106.869 111.238C106.597 111.182 106.527 110.986 106.532 110.748L106.869 111.238Z" fill="#FBC30F"/>
<path d="M109.523 81.4003C109.523 81.2998 109.543 81.1994 109.55 81.0989C109.601 81.2019 109.651 81.3074 109.699 81.4104C109.64 81.412 109.581 81.4087 109.523 81.4003Z" fill="#E8A607"/>
<path d="M97.5087 28.149L97.1895 27.6466L96.335 26.9408C96.3229 26.9484 96.3093 26.9532 96.2952 26.9549C96.281 26.9566 96.2667 26.9551 96.2532 26.9505C96.2397 26.946 96.2274 26.9384 96.2172 26.9284C96.207 26.9185 96.1991 26.9064 96.1942 26.893C95.2026 26.5385 94.1272 26.4904 93.1078 26.7549C91.268 27.1719 89.4835 27.0337 87.6588 26.672C84.7608 26.0942 81.8201 26.5213 78.8971 26.4208L78.412 26.4584L77.5876 26.5288L77.477 26.5765L77.3614 26.5439L76.5923 26.574H76.341C72.8222 26.7725 69.3035 26.4183 65.7847 26.8679L65.282 26.9357C63.3012 27.3596 61.2712 27.5067 59.2499 27.3728H58.4658C57.6715 27.3728 56.8647 27.4407 56.0855 27.3251C53.7639 26.9718 51.3926 27.1435 49.1461 27.8275C47.4772 28.3299 45.748 28.2797 44.0389 28.0787C41.3571 27.7522 38.708 27.7094 36.1217 28.6514H36.1016L35.144 29.2166L34.8927 29.4201L34.6413 29.6537L34.3699 29.9225L34.1361 30.1737L33.8848 30.4249L33.5656 30.8871C32.1983 32.9745 32.4698 35.1423 33.2464 37.3378C33.9483 39.1804 33.9927 41.2087 33.3721 43.0802C33.0403 44.085 32.6834 45.0897 32.6507 46.1799H34.86C34.9145 45.8534 35.0082 45.5346 35.139 45.2304C36.0111 43.7232 36.1946 42.098 36.1443 40.3949C36.089 38.4732 36.1142 36.549 36.1443 34.6173C36.167 32.1053 36.5641 31.6608 38.8839 30.7665C40.686 30.0732 42.5509 29.729 44.4134 29.2869C51.6318 27.5813 59.0137 28.0435 66.31 27.4482C70.5501 27.1015 74.8555 27.5512 79.1007 27.305C82.838 27.063 86.5903 27.2078 90.2978 27.7371C92.6629 28.0988 95.0883 28.355 97.5087 28.149Z" fill="#F9D756"/>
<path d="M36.3655 71.6162C36.1443 71.5559 35.893 71.5358 35.7925 71.1842L36.3354 71.0862V70.8099L36.2751 70.8375C35.883 70.8375 35.4708 70.9405 35.1264 70.6466C34.5961 70.6466 34.121 70.2773 33.4676 70.4281C33.3545 71.1565 32.99 71.8674 33.1635 72.6712C33.163 72.92 33.1926 73.1681 33.2515 73.4098C34.8835 77.5467 35.0177 82.1236 33.631 86.349C33.1886 87.7381 33.3369 89.1724 33.7265 90.5465C34.1839 92.1667 34.0155 93.7593 33.7466 95.3695C33.5681 96.4245 33.2942 97.4921 33.8019 98.5396C33.8521 98.6376 33.9024 98.7355 33.9552 98.8335C33.9435 98.8887 33.9661 98.9188 34.0231 98.9239L34.199 99.1048L34.2769 99.1651C34.3674 99.2203 34.4604 99.2731 34.5534 99.3258C34.9178 99.6197 35.3074 99.8282 35.8101 99.7102H36.1544C36.4309 98.7355 36.0639 97.7533 36.2398 96.7536C36.5364 95.0655 36.4208 93.3523 36.2801 91.6366C36.1016 89.4387 35.6995 87.1578 36.5314 85.0578C37.4985 82.6815 37.6885 80.0604 37.0743 77.5696C36.5993 75.6002 36.2549 73.6384 36.3655 71.6162Z" fill="#F9D756"/>
<path d="M97.2599 94.9022C96.9533 92.8072 97.5112 90.7825 98.0139 88.7705C98.1069 88.4087 98.1899 88.047 98.2778 87.6853C98.3205 87.5094 98.3658 87.3336 98.4085 87.1553C98.4487 86.2911 98.5166 85.422 98.2829 84.5704L98.3005 84.47C98.1974 84.1183 98.0919 83.7641 97.9888 83.4099C96.6517 80.3955 96.5511 77.2907 97.3227 74.1156C97.9511 71.5232 98.6775 68.9208 97.926 66.2305C97.4896 64.537 97.1539 62.8192 96.9206 61.086C96.3759 62.757 96.3114 64.5473 96.7346 66.2531C97.006 67.3207 97.6771 68.6069 97.3278 69.4484C96.6315 71.1264 96.8578 72.8697 96.5964 74.5351C96.1213 77.5495 96.2068 80.6995 97.5539 83.6234C97.9552 84.4141 98.0587 85.3225 97.8455 86.1831C96.6366 90.7524 96.252 95.4121 96.3601 100.122L96.5662 99.9714L96.9432 99.4489C97.0412 99.2102 97.1368 98.9691 97.2323 98.7305C97.4589 97.4652 97.4682 96.1706 97.2599 94.9022Z" fill="#F9D756"/>
<path d="M20.0035 116.02C20.0361 115.877 19.8225 115.676 19.7245 115.503L17.7766 116.239C17.0603 120.509 17.9198 122.295 21.0264 122.986C20.3704 120.713 19.453 118.482 20.0035 116.02Z" fill="#F9D756"/>
<path d="M26.0531 83.1864L25.8018 83.116C24.2184 82.6136 22.6475 82.7242 21.0842 83.2115L21.0967 83.1964L20.8178 83.4099C20.6343 83.6611 20.4483 83.9123 20.2648 84.1811C20.2803 84.2155 20.2883 84.2527 20.2883 84.2904C20.2883 84.3281 20.2803 84.3653 20.2648 84.3997C20.4483 84.7237 20.6343 85.0477 20.8178 85.3743C21.0065 85.5299 21.1493 85.7339 21.2308 85.9645C21.3122 86.1951 21.3293 86.4435 21.2802 86.683L21.3581 86.668L21.2827 87.1704C21.3079 87.4216 21.333 87.6728 21.3607 87.924C21.2551 89.7502 21.3607 91.5914 21.0616 93.4076C20.9032 94.3521 20.7398 95.2865 20.0763 96.0351C20.0793 96.0771 20.0706 96.1191 20.0511 96.1563C20.0315 96.1936 20.002 96.2247 19.9657 96.2461L19.7948 96.4446L19.5435 96.741L19.2545 97.0977C19.2545 97.153 19.2293 97.1831 19.1791 97.1881L18.8271 97.5649C18.3948 98.4114 17.96 99.2605 17.9726 100.25L17.9575 101.004C18.0782 101.343 17.9249 101.757 18.2818 102.112C19.3826 102.363 20.0085 103.327 20.7524 104.141C20.863 103.561 20.305 103.282 20.1517 102.838C20.3402 101.551 20.1894 100.197 20.7801 99.0344C22.3509 95.9372 22.5822 92.6892 22.0367 89.3432C21.8935 88.4464 22.0367 87.4969 21.5868 86.6529C21.5868 86.2862 21.4763 85.8993 21.803 85.515C23.3764 85.3316 24.8694 84.3821 26.5936 84.7112C27.1239 84.1409 26.4754 83.8344 26.307 83.42L26.0531 83.1864Z" fill="#F9D756"/>
<path d="M98.4488 111.024C98.1523 112.313 97.8205 113.594 97.5616 114.887C97.1293 117.07 96.9257 119.253 97.9789 121.346C98.1526 121.165 98.2858 120.95 98.3694 120.714C98.4531 120.478 98.4853 120.226 98.4639 119.977C98.4413 116.992 98.7278 114.008 98.4488 111.024Z" fill="#F9D756"/>
<path d="M97.4057 35.0594C96.903 36.858 96.0736 38.536 96.34 40.5607C96.4531 41.4298 96.34 42.5326 96.34 43.4671C96.3576 44.2583 95.6765 45.1928 96.4632 45.9514H97.197C97.8731 45.6223 97.3278 44.8737 97.7148 44.4442C96.7421 41.0957 96.6818 37.7598 97.8455 34.439C97.2121 34.2832 97.4635 34.8459 97.4057 35.0594Z" fill="#F9D756"/>
<path d="M14.3156 109.261C13.6621 111.18 14.4665 112.936 16.3037 113.76C16.2183 112.614 16.7335 111.562 16.8064 110.441C15.889 110.263 15.1098 109.756 14.3156 109.261Z" fill="#F9D756"/>
<path d="M16.2985 107.294C16.6278 106.962 16.8715 106.583 16.6981 106.101C16.4468 105.425 16.5725 104.734 16.5524 104.051C16.0723 103.722 16.1352 102.978 15.547 102.714C15.3424 102.813 15.1631 102.957 15.0228 103.136C14.8825 103.314 14.785 103.522 14.7377 103.744C14.2501 105.375 15.1499 106.387 16.2985 107.294Z" fill="#F9D756"/>
<path d="M33.6864 109.188L32.5955 109.771C32.6257 110.64 32.6207 111.461 32.867 112.335C33.7341 112.107 34.5032 111.866 35.1642 111.348C34.4755 110.768 34.5585 109.655 33.6864 109.188Z" fill="#F9D756"/>
<path d="M94.9854 100.687L95.953 100.504L96.1742 100.353L96.3426 100.137C95.8626 100.255 95.2417 100.022 94.9854 100.687Z" fill="#F9D756"/>
<path d="M34.1462 108.841L33.7465 109.14C34.0104 109.213 34.0808 109.032 34.1462 108.841Z" fill="#F9D756"/>
<path d="M105.185 106.02C105.152 105.965 105.124 105.907 105.102 105.847C105.102 105.829 105.14 105.794 105.16 105.766C105.185 105.852 105.185 105.937 105.185 106.02Z" fill="#E8A607"/>
<path d="M106.554 110.783L106.303 110.466C106.507 110.479 106.512 110.645 106.554 110.783Z" fill="#FBC30F"/>
<path d="M109.316 48.6686C109.3 48.6506 109.29 48.6282 109.286 48.6042C109.282 48.5802 109.286 48.5556 109.297 48.5337L109.347 48.5961L109.316 48.6686Z" fill="#D4823F"/>
<path d="M107.11 111.521L106.778 111.24C106.992 111.212 107.032 111.388 107.11 111.521Z" fill="#FBC30F"/>
<path d="M109.48 49.4656L109.405 49.3802L109.455 49.2797C109.479 49.3038 109.494 49.3349 109.499 49.3685C109.503 49.402 109.497 49.4361 109.48 49.4656Z" fill="#D4823F"/>
<path d="M49.4778 117.226C49.5432 117.191 49.6085 117.156 49.6764 117.123C49.6885 117.178 49.6842 117.236 49.6638 117.289C49.6301 117.297 49.5945 117.296 49.5615 117.285C49.5286 117.274 49.4995 117.253 49.4778 117.226Z" fill="#1D2831"/>
<path d="M61.5423 68.0818L61.2708 67.6849C61.4292 67.7729 61.5951 67.8533 61.5423 68.0818Z" fill="#FBC30F"/>
<path d="M105.308 78.7351C105.32 78.6146 105.348 78.5166 105.496 78.6271C105.475 78.6581 105.447 78.6838 105.414 78.7025C105.382 78.7212 105.345 78.7324 105.308 78.7351Z" fill="#FBC30F"/>
<path d="M85.417 128.625C85.4421 128.713 85.4647 128.804 85.4898 128.892L85.1531 128.96L85.2209 128.53C85.2904 128.553 85.3564 128.585 85.417 128.625Z" fill="#FBC30F"/>
<path d="M52.4713 121.338C51.7173 120.03 52.4713 118.894 52.7779 117.676C55.4673 117.359 58.0083 117.806 60.6951 117.945C60.5795 119.178 60.4438 120.278 60.3809 121.383C60.2452 123.875 60.0366 126.372 60.494 128.859L57.7645 128.942C57.9178 128.641 58.2672 128.676 58.5361 128.538C58.4205 127.548 58.3652 126.561 58.1817 125.594C57.7695 123.436 56.1459 122.471 54.2508 121.876C53.6478 121.731 53.0536 121.552 52.4713 121.338Z" fill="#E8A607"/>
<path d="M112.318 81.4028C112.354 81.4508 112.386 81.5022 112.413 81.5561C112.413 81.5762 112.391 81.6114 112.375 81.639C112.342 81.5908 112.312 81.5404 112.285 81.4883C112.277 81.4657 112.305 81.4305 112.318 81.4028Z" fill="#214863"/>
<path d="M67.2853 23.9439C67.2304 24.0062 67.1559 24.0479 67.0741 24.0621C66.9923 24.0762 66.908 24.062 66.8354 24.0218C66.8861 23.9538 66.9611 23.9077 67.0448 23.8932C67.1285 23.8787 67.2146 23.8969 67.2853 23.9439Z" fill="#6BC0B3"/>
<path d="M63.9851 24.5744L63.6584 24.4564L64.0329 24.4238C64.0204 24.475 64.0045 24.5254 63.9851 24.5744Z" fill="#214863"/>
<path d="M88.4783 85.1658C90.1949 85.1658 91.1224 85.9546 91.4516 87.7029C91.9267 90.2375 91.1173 92.7947 89.5288 93.7794C87.7142 94.9022 85.794 94.6234 84.3236 93.0258C83.6412 92.2825 83.2369 91.3262 83.1792 90.3191C83.1214 89.3119 83.4139 88.3157 84.0069 87.4994C84.4958 86.7661 85.1618 86.1678 85.9433 85.7599C86.7249 85.352 87.5968 85.1477 88.4783 85.1658Z" fill="#E8A607"/>
<path d="M45.1875 88.376C45.1875 90.0816 44.3079 91.1116 42.8099 91.1392C41.4275 91.1718 39.6807 89.5341 39.7083 88.2354C39.7485 86.4368 40.8997 85.0502 42.3851 85.01C43.9157 84.9748 45.185 86.4971 45.1875 88.376Z" fill="#E8A607"/>
<path d="M68.0518 85.417C65.7596 88.3786 60.6574 88.0621 59.0513 84.6408C62.1001 85.3944 65.0659 85.304 68.0342 85.1909C68.0417 85.2663 68.0468 85.3417 68.0518 85.417Z" fill="#E8A607"/>
<path d="M91.8636 80.1796C92.4342 80.1318 92.7659 80.265 93.0424 80.5463C93.339 82.0736 93.0047 82.4629 91.5344 82.3047C91.3716 82.1788 91.2373 82.02 91.1403 81.8386C91.0433 81.6572 90.9857 81.4574 90.9714 81.2522C91.082 80.7046 91.4816 80.4283 91.8636 80.1796Z" fill="#E8A607"/>
<path d="M68.0517 85.417C68.0517 85.3417 68.0517 85.2663 68.0341 85.1909C68.07 85.2407 68.1028 85.2928 68.1322 85.3467C68.1322 85.3467 68.0794 85.3944 68.0517 85.417Z" fill="#FBC30F"/>
<path d="M83.3836 35.2478C83.3813 35.0263 83.3922 34.8049 83.4162 34.5847C83.8209 31.5879 85.5979 29.8119 87.7895 30.1912C90.4864 30.6685 92.6278 33.7708 92.1151 36.4837C92.0296 36.9334 91.8888 37.3729 91.7707 37.8175C91.2178 39.9376 90.1295 41.0254 88.4028 41.1811C86.8646 41.3218 84.7986 40.0457 84.0471 38.4908C83.5784 37.4755 83.3514 36.3655 83.3836 35.2478Z" fill="#E8A607"/>
<path d="M66.5287 35.1222C63.6886 34.6198 62.736 33.7783 62.7712 31.7612C62.7938 30.3897 63.6458 29.3221 64.8347 29.1663C65.5842 29.0441 66.3523 29.2091 66.9855 29.6282C67.6187 30.0473 68.0704 30.6897 68.2504 31.4271C68.7405 33.3538 68.2906 34.346 66.5287 35.1222Z" fill="#E8A607"/>
<path d="M44.9461 39.1037C44.9414 39.7758 44.6775 40.4202 44.2093 40.9026C43.7411 41.385 43.1048 41.6684 42.4328 41.6936C40.9247 41.6936 39.8791 40.5908 39.9068 39.0208C39.9319 37.5413 41.1258 36.2125 42.4202 36.215C43.7799 36.22 44.9663 37.5739 44.9461 39.1037Z" fill="#E8A607"/>
<path d="M77.472 32.9745C78.8795 33.4769 79.5882 34.2758 79.3344 35.2353C79.0805 36.1949 78.4673 36.7149 77.4393 36.7199C76.4114 36.7249 76.0193 36.112 75.8609 35.268C75.6624 34.2104 76.2555 33.4116 77.472 32.9745Z" fill="#E8A607"/>
<path d="M104.855 36.1923C106.75 37.2976 107.271 40.3371 105.886 41.8995C105.197 42.6757 104.184 42.5878 103.398 41.6886C101.917 39.9905 102.671 37.0363 104.855 36.1923Z" fill="#6D4B3F"/>
<path d="M104.504 69.7221C103.167 69.1092 102.425 67.5317 102.619 65.8085C102.639 65.6452 102.699 65.4844 102.722 65.3186C102.862 64.3139 103.094 63.3618 104.313 63.2236C105.187 63.1232 105.961 64.0752 106.18 65.399C106.545 67.6196 106.029 68.9961 104.504 69.7221Z" fill="#6D4B3F"/>
<path d="M86.7463 59.2774C86.9374 57.1977 86.9374 55.1048 86.7463 53.0251C87.0806 53.2135 87.1309 53.5275 87.1309 53.8717C87.1309 55.3922 87.1309 56.912 87.1309 58.4309C87.1208 58.77 87.0882 59.094 86.7463 59.2774Z" fill="#B5E8CF"/>
<path d="M34.6389 68.0592C34.5457 68.0869 34.4466 68.0879 34.3529 68.0621C34.2591 68.0364 34.1745 67.9849 34.1085 67.9135L34.6389 68.0592Z" fill="#214863"/>
<path d="M59.1192 112.991C58.0058 113.084 57.0205 112.906 56.6058 111.7C56.2112 110.592 56.9954 109.954 57.7469 109.462C58.4984 108.969 59.2072 109.431 59.6696 110.085C60.4463 111.197 59.9436 112.109 59.1192 112.991Z" fill="#E8A607"/>
<path d="M23.1551 98.311C24.1228 98.2306 25.1407 97.899 25.6962 99.0645C26.1486 99.999 25.7892 101.355 24.9874 101.898C24.2334 102.4 23.5046 102.375 22.8259 101.737C22.0744 101.019 22.1649 99.8734 23.1551 98.311Z" fill="#E8A607"/>
<path d="M22.8286 118.887C24.0526 117.163 24.6457 117.128 25.9778 118.718C25.8421 119.708 25.5531 120.622 24.3919 121.004C23.2106 120.826 22.9542 119.942 22.8286 118.887Z" fill="#E8A607"/>
<path d="M98.4162 87.1553C98.4618 87.2446 98.4737 87.3473 98.4497 87.4446C98.4257 87.542 98.3674 87.6274 98.2855 87.6853C98.3283 87.5094 98.3735 87.3336 98.4162 87.1553Z" fill="#6D4B3F"/>
<path d="M79.7993 53.3115H84.4315C84.6301 55.8084 84.8085 58.2877 84.1375 60.7142C83.5569 62.8168 81.8528 63.6457 79.8647 63.7437C77.4141 63.8643 74.951 63.7713 72.4954 63.7713C72.5608 63.0629 73.0383 62.5781 73.4254 62.0456C75.55 59.1317 77.6747 56.2203 79.7993 53.3115Z" fill="#D4823F"/>
<path d="M79.7995 53.3115C77.6731 56.2237 75.5485 59.1351 73.4255 62.0456C73.0384 62.5781 72.5609 63.0629 72.4955 63.7713C70.5627 63.922 68.7028 63.7713 67.0993 62.5153C68.0695 61.2593 69.0673 60.0259 70.0023 58.7473C71.3821 56.8659 73.1315 55.2859 74.4032 53.3165L79.7995 53.3115Z" fill="#EBB267"/>
<path d="M74.4032 53.319C73.1314 55.2884 71.3871 56.8684 70.0022 58.7498C69.0672 60.0284 68.0694 61.2618 67.0992 62.5178C65.6063 61.6185 65.0056 60.159 64.8372 58.5539C64.6781 56.8049 64.7696 55.0422 65.1087 53.319H74.4032Z" fill="#D4823F"/>
<path d="M46.198 63.8492H44.1596L36.9261 63.7889C36.871 63.7455 36.8182 63.6994 36.7678 63.6507L38.2255 63.5126L44.6196 53.8741H50.0032C50.2847 54.4117 50.1465 54.8789 50.2043 55.3286C50.3199 56.2178 49.9253 57.1573 50.4557 58.0088L50.418 58.5615C49.6916 58.8378 49.87 59.2874 50.1892 59.7647C50.154 60.5535 49.6363 61.179 49.4352 61.915L49.1387 62.2918L47.9272 63.3694L46.198 63.8492Z" fill="#127FB1"/>
<path d="M50.4531 58.0164C49.9253 57.1648 50.3199 56.2253 50.2018 55.3361C50.1439 54.889 50.2822 54.4192 50.0007 53.8817H44.612L38.2179 63.5201L36.7602 63.6582L34.8575 63.3543L33.3872 62.5153L33.4073 62.5354C33.2338 62.2842 33.0629 62.033 32.9046 61.7642L32.9197 61.7969L32.6407 61.2694H32.6658C31.8113 58.7172 32.1229 56.1148 32.3567 53.5174L32.6282 53.339V53.2637L38.14 53.3441C38.1536 53.3681 38.1733 53.3881 38.1971 53.402C38.221 53.4159 38.2481 53.4233 38.2757 53.4233C38.3034 53.4233 38.3305 53.4159 38.3543 53.402C38.3782 53.3881 38.3979 53.3681 38.4115 53.3441L39.1655 53.3165C39.2655 53.4115 39.3982 53.4645 39.5362 53.4645C39.6742 53.4645 39.8069 53.4115 39.9069 53.3165L41.9327 53.329C42.8355 53.5608 43.7822 53.5608 44.6849 53.329L45.4389 53.3491C45.4695 53.3882 45.5085 53.4199 45.5532 53.4417C45.5978 53.4635 45.6468 53.4748 45.6965 53.4748C45.7462 53.4748 45.7952 53.4635 45.8398 53.4417C45.8845 53.4199 45.9236 53.3882 45.9542 53.3491L50.2269 53.2762C50.7975 54.8362 50.5411 56.4363 50.4531 58.0164ZM32.696 53.849C32.882 56.4388 32.0098 58.9433 33.4198 61.5909C35.4909 59.1367 36.7401 56.5393 38.0395 53.849H32.696Z" fill="#299EC7"/>
<path d="M50.1866 59.7722C49.8674 59.2949 49.6839 58.8453 50.4153 58.569C50.3399 58.9709 50.262 59.3703 50.1866 59.7722Z" fill="#299EC7"/>
<path d="M32.3517 53.5249C32.3693 53.4446 32.3843 53.3617 32.4019 53.2737C32.4796 53.2789 32.5552 53.3012 32.6232 53.3391L32.3517 53.5249Z" fill="#127FB1"/>
<path d="M13.7878 100.785H13.8048V100.765L13.7878 100.785Z" fill="#1D2831"/>
<path d="M105.308 78.7344C105.317 78.7333 105.326 78.7333 105.335 78.7344C105.335 78.7344 105.335 78.7198 105.335 78.7125L105.308 78.7344Z" fill="#1D2831"/>
<path d="M65.0883 70.0536C65.0823 70.0464 65.0756 70.0396 65.0683 70.0336H65.0483L65.0883 70.0536Z" fill="#1D2831"/>
<path d="M29.8132 94.4777C29.8144 94.4824 29.8144 94.4873 29.8132 94.492V94.4777Z" fill="#1D2831"/>
<path d="M61.542 68.0814C61.5454 68.0524 61.5454 68.023 61.542 67.994L61.4995 68.0239L61.542 68.0814Z" fill="#1D2831"/>
<path d="M106.778 111.24L106.823 111.285L106.866 111.243C106.837 111.237 106.807 111.236 106.778 111.24Z" fill="#1D2831"/>
<path d="M112.376 81.639C112.342 81.5908 112.312 81.5404 112.285 81.4882C112.285 81.4656 112.305 81.4304 112.318 81.4028C112.254 80.7816 112.152 80.165 112.011 79.5565C111.296 77.0588 111.301 74.41 112.026 71.9151C112.782 69.2496 112.73 66.4196 111.875 63.7838C111.054 61.3582 110.978 58.7424 111.657 56.2731C112.627 52.804 112.506 49.3501 111.609 45.8936C111.074 43.8248 111.101 41.6509 111.687 39.596C112.363 37.1293 112.406 34.6575 111.436 32.2334L111.453 32.251L111.126 31.8617L110.991 31.4598L110.578 31.1156L110.327 30.8318L110.357 30.8619L110.081 30.5756L110.108 30.6032C110.026 30.5178 109.94 30.4349 109.857 30.352L109.593 30.1184C109.571 30.048 109.548 29.9802 109.523 29.9124C109.442 29.9075 109.363 29.8924 109.287 29.8672L109.013 29.6612C108.978 29.6065 108.957 29.5446 108.95 29.4803L108.543 29.3648L108.166 29.0182C107.384 28.7469 106.635 28.3701 105.788 28.3198L105.806 28.3399L103.674 27.4783L103.063 27.2949L102.654 26.9809L102.151 26.7121C101.965 26.6669 101.764 26.6443 101.679 26.4283L101.261 26.3102L100.909 25.941L100.495 25.8329L100.208 25.6345L100.168 25.5792L100.098 25.5943L99.6527 25.1773L99.2933 25.0442L98.3131 24.5418C96.242 23.7631 94.1132 23.3939 91.9266 23.8686C90.1672 24.2529 88.4455 24.1198 86.7038 23.8208C86.0058 23.6902 85.2975 23.6229 84.5875 23.6199C78.8067 23.7129 73.0435 23.8309 67.2702 23.9439C67.2153 24.0062 67.1408 24.0479 67.059 24.062C66.9772 24.0762 66.893 24.062 66.8204 24.0218L64.0179 24.4238C64.0054 24.475 63.9895 24.5253 63.9701 24.5744L63.6434 24.4564C62.8894 24.5167 62.1505 24.5694 61.404 24.6372C58.1115 24.9286 54.839 24.2806 51.549 24.4388L51.2071 24.5418C48.9778 24.9487 46.776 25.5717 44.4713 25.323L44.1621 25.2703C41.42 24.9889 38.6855 24.8106 36.0238 25.7903L35.7724 25.9259H35.6819L35.6241 25.9988L35.0561 26.3128L34.5534 26.564L34.0709 26.883L34.0884 26.8704L33.7768 27.0714C33.7768 27.0714 33.7768 27.0714 33.7768 27.0563L33.3747 27.2246L33.1233 27.4205C33.093 27.4872 33.0678 27.556 33.0479 27.6265C32.9574 27.7094 32.8644 27.7898 32.7714 27.8777L32.8016 27.8475L32.5126 28.1214L32.5478 28.0862L32.2411 28.3927L31.8214 28.875C31.746 28.9729 31.6731 29.0734 31.5977 29.1739L31.5399 29.199V29.2643C31.2715 29.4946 31.089 29.8089 31.0221 30.156C29.5392 32.7534 29.8987 35.4312 30.7432 38.0989C31.1503 39.38 31.5449 40.6461 31.0573 41.9925L31.0372 42.0754C30.3807 43.3658 30.0184 44.7856 29.9766 46.2327L29.778 46.3985C28.7525 46.3985 27.7045 46.1724 26.7242 46.6698C26.7232 46.6648 26.7232 46.6597 26.7242 46.6547L26.312 46.7879C26.2957 46.8559 26.2756 46.923 26.2517 46.9888L26.0004 47.24C25.935 47.2658 25.8678 47.2868 25.7993 47.3028L25.6057 47.6043C25.5027 48.0062 25.3042 48.4105 25.3117 48.8099C25.3946 53.7083 24.9071 58.6217 25.6384 63.505L25.8898 64.2586L26.1688 64.6907L26.4201 65.2106C26.7372 65.3793 27.0157 65.6121 27.2381 65.894C27.4605 66.1759 27.6219 66.5009 27.712 66.8484C27.6218 66.5013 27.4604 66.1766 27.238 65.8951C27.0156 65.6136 26.7371 65.3813 26.4201 65.2131L26.6388 65.7859L27.7597 67.1599V67.1474L27.7824 67.17L28.0337 67.4438L28.2373 67.6548L28.5188 67.906L28.8682 68.2527L28.8983 68.3205H28.9712L29.2225 68.4837L29.5317 68.6797L29.8861 69.064L30.4416 69.2751H30.4616L30.811 69.4257C30.057 72.6762 31.0623 75.6806 32.1155 78.6773L32.1381 80.4357V80.6869L31.8868 82.4453C31.8711 82.4575 31.8589 82.4735 31.8512 82.4917C31.8436 82.51 31.8408 82.53 31.8431 82.5496C31.8453 82.5693 31.8526 82.588 31.8642 82.6041C31.8759 82.6201 31.8914 82.6329 31.9093 82.6413C31.0699 85.4923 30.4365 88.3233 31.2684 91.3377C31.737 92.8846 31.5819 94.5532 30.8361 95.9873L30.6276 95.6784L30.6552 95.706L30.4189 95.4272L30.0218 94.7967C29.9517 94.7863 29.8833 94.7669 29.8182 94.7389C29.8109 94.6684 29.7974 94.5986 29.778 94.5304C29.7221 94.5089 29.6639 94.4937 29.6046 94.4852C29.5593 94.3495 29.5166 94.2139 29.4714 94.0783L29.1195 93.6763C28.9436 92.4053 28.7224 91.1393 28.6168 89.8632C28.5062 88.6323 28.4434 87.3989 28.9084 86.1906C29.3408 85.0123 29.3559 83.7213 28.9511 82.5332L28.8204 82.1916L28.2172 81.5561L28.1745 81.5284L27.8578 81.3526C27.8578 81.3526 27.8578 81.3526 27.8578 81.3652L26.9002 80.8025V80.8176C24.9951 80.1093 22.8988 80.1093 20.9937 80.8176L20.946 80.7447L20.863 80.7723L20.016 81.1793L19.4304 81.4933C19.3726 81.4807 19.3424 81.4933 19.3348 81.5611L19.0609 81.7043C19.0336 81.7751 19.0125 81.8482 18.9981 81.9228L18.606 82.267C18.5155 82.4277 18.4225 82.5885 18.3295 82.7492L18.1636 83.317C17.9926 84.0564 17.9978 84.8256 18.1787 85.5626C18.234 85.7536 18.2868 85.947 18.3421 86.1404C18.6663 86.5725 19.0157 87.0397 18.9654 87.5873C18.7668 89.8079 18.9855 92.0762 18.2843 94.2466C18.2703 94.2519 18.2576 94.2602 18.2471 94.2708C18.2365 94.2814 18.2284 94.2942 18.2232 94.3082C18.2179 94.3222 18.2158 94.3372 18.2168 94.3521C18.2178 94.367 18.2219 94.3816 18.229 94.3948C18.1511 94.5028 18.0732 94.6082 17.9978 94.7163C17.9307 94.7421 17.8618 94.7631 17.7917 94.7791C17.7765 94.852 17.7664 94.9259 17.7615 95.0001C17.7025 95.0303 17.6387 95.0498 17.573 95.0579C17.5202 95.1911 17.4699 95.3217 17.4197 95.4548L17.1683 95.7336C17.1098 95.7353 17.0519 95.7472 16.9974 95.7688C16.9819 95.8323 16.9727 95.897 16.9698 95.9622L16.7511 96.0552L16.5752 96.2888L16.4394 96.7058C16.3732 96.7244 16.3085 96.7479 16.2459 96.7761L16.1403 97.2233C16.0499 97.3664 15.9594 97.5096 15.8664 97.6503C15.7256 98.5245 15.5832 99.3978 15.4391 100.27C14.8007 100.22 14.3031 100.594 13.7526 100.82C13.7271 100.888 13.7052 100.957 13.6873 101.026C13.6158 101.04 13.546 101.061 13.4786 101.089L13.2801 101.315L13.0288 101.637L13.069 101.602L12.7598 102.104L12.7825 102.074C12.687 102.267 12.5914 102.461 12.4934 102.654C12.5022 102.666 12.5082 102.679 12.5109 102.694C12.5136 102.708 12.513 102.723 12.5091 102.737C12.5052 102.751 12.4982 102.764 12.4885 102.775C12.4788 102.786 12.4667 102.794 12.4532 102.8C12.1416 104.136 12.0561 105.463 12.6493 106.754C12.7007 106.866 12.7167 106.991 12.6952 107.113C12.6736 107.234 12.6156 107.347 12.5286 107.434V107.457L12.3426 107.688L12.1189 108.191C11.3649 109.906 11.7218 111.564 12.3703 113.214L12.6216 113.699L12.9835 114.327C13.0524 114.345 13.1204 114.366 13.1871 114.39L13.4083 114.641L13.911 115.161L14.1799 115.375L14.5594 115.749C15.2405 115.915 14.9792 116.445 14.9792 116.862C14.9792 118.663 14.7605 120.492 15.6578 122.175C15.7432 122.348 15.8287 122.519 15.9091 122.692C15.9519 122.83 15.9946 122.966 16.0348 123.102C16.1039 123.113 16.1709 123.135 16.2334 123.167L16.4646 123.456C16.55 123.549 16.6355 123.639 16.7159 123.732L16.8693 123.983L16.9271 124.044L17.2312 124.197L17.8922 124.759L18.4703 124.981C21.2626 126.365 24.231 126 27.1691 125.794C28.1041 125.729 29.0516 125.543 29.861 124.998L30.3134 124.893C30.3335 124.827 30.3536 124.765 30.3762 124.702L30.6476 124.501V124.518L30.9517 124.292L31.2031 124.041L31.4369 123.732C31.4369 123.732 31.4368 123.732 31.4167 123.732L31.6404 123.423C31.8289 123.37 31.8541 123.222 31.8591 123.061C32.3608 122.3 32.6234 121.406 32.6131 120.494C32.6634 118.809 32.6885 117.123 32.7237 115.438L33.9326 114.787L34.0306 114.759L34.4378 114.551C34.5183 114.568 34.5635 114.551 34.571 114.455L34.6188 114.405C34.8048 114.36 35.0209 114.37 35.1215 114.154L35.4532 114.043H35.5186L35.5563 113.991L37.2755 113.285C37.3006 113.642 37.3182 113.875 37.3358 114.109C37.562 114.712 37.6424 115.365 38.0898 115.885C38.125 116.028 38.1576 116.169 38.1928 116.312L38.6201 116.656L38.7558 116.927L38.8237 116.992L39.075 117.148C39.1027 117.221 39.1328 117.294 39.163 117.367L39.4143 117.588L39.7235 117.839L39.6933 117.806L40.1106 117.914C40.1357 117.977 40.1608 118.042 40.1809 118.105L40.5504 118.223C42.6164 118.914 44.6799 119.173 46.7333 118.193C46.7322 118.198 46.7322 118.203 46.7333 118.208L47.2134 117.902H47.2284L47.5024 117.673L47.7538 117.399C47.7942 117.399 47.8342 117.391 47.8714 117.375C47.9085 117.359 47.9421 117.336 47.9699 117.306C47.9511 117.249 47.9511 117.186 47.9699 117.128C48.2213 117.128 48.4726 117.068 48.6787 117.276L49.493 117.296L49.6916 117.193C49.7037 117.249 49.6993 117.306 49.679 117.359C49.6187 119.389 49.0809 121.356 48.8471 123.363C48.631 125.209 48.2464 127.055 48.7717 128.912C49.4377 129.429 50.1641 129.449 50.9281 129.183C50.9482 126.513 51.0639 123.853 51.6394 121.233C51.7777 119.874 51.9386 118.52 52.4915 117.402H61.3487C60.8184 119.607 60.7756 121.637 60.7128 123.664V126.427L60.7807 128.939C62.4621 129.849 63.3091 129.377 63.3116 127.535C63.3116 127.163 63.3292 126.782 63.3393 126.415C63.1533 123.456 63.005 120.499 64.0355 117.636L73.0385 117.678C72.953 118.331 72.8701 118.987 72.7871 119.64C72.7695 119.866 72.7544 120.092 72.7368 120.318C72.722 120.336 72.7037 120.351 72.6829 120.362C72.6622 120.373 72.6395 120.379 72.6162 120.381C72.5936 120.632 72.5709 120.901 72.5508 121.162L72.5056 121.381C72.2392 122.014 72.3598 122.697 72.2543 123.353L72.194 123.669L72.0582 125.93C72.0859 126.272 72.1161 126.611 72.1437 126.952C72.2439 127.107 72.3062 127.283 72.3254 127.465C72.3446 127.648 72.3202 127.833 72.2543 128.005L72.3523 129.196L72.3322 129.178L72.6037 129.452L72.5861 129.432L74.3454 129.399L74.6219 129.306C74.6797 126.681 74.3404 124.031 74.8958 121.429C75.1195 120.173 75.3407 118.917 75.6021 117.435H85.7763C85.7897 117.577 85.7709 117.72 85.7213 117.854C85.6717 117.988 85.5925 118.109 85.4898 118.208L85.5124 118.186C84.6126 121.637 84.8941 125.121 85.2384 128.605C85.306 128.628 85.3702 128.659 85.4294 128.698C85.4546 128.786 85.4772 128.877 85.5023 128.965C86.1483 128.997 86.8093 129.299 87.3899 128.902C87.7091 128.615 87.6086 128.241 87.7343 127.94V127.437V127.186C87.3195 124.25 87.2718 121.333 88.2671 118.485C88.3525 118.125 88.4355 117.769 88.5184 117.409C88.551 117.421 88.5866 117.42 88.6189 117.408C88.6511 117.395 88.6778 117.372 88.6943 117.342L93.4698 117.025C93.8104 117.101 94.1668 117.053 94.4751 116.889L94.5958 116.902L94.719 116.887C94.9577 118.738 94.7466 120.655 95.6212 122.413C95.6374 122.419 95.6522 122.427 95.6646 122.439C95.6771 122.451 95.6868 122.465 95.6933 122.481C95.6997 122.496 95.7027 122.513 95.702 122.53C95.7013 122.547 95.6969 122.564 95.6891 122.579L95.8022 122.87L95.7796 122.845C95.948 123.097 96.1164 123.363 96.2823 123.624L96.2597 123.604L96.511 123.905V123.893L97.3178 124.609L97.2977 124.589C97.6949 124.784 98.1333 124.881 98.5759 124.872C99.0185 124.863 99.4525 124.748 99.8412 124.536L99.9317 124.496L100.532 124.142C100.874 124.312 100.95 124.631 101.098 124.895L101.545 125.352L101.892 125.583L101.852 125.536L102.606 125.852L102.576 125.825C103.448 126.002 104.348 125.994 105.217 125.799V125.815L105.675 125.531L105.705 125.513L106.65 124.322L106.685 124.262L107.07 123.418C107.902 123.393 108.741 123.418 109.535 123.109L109.925 122.76L110.32 122.391L110.533 122.107C110.661 121.823 110.785 121.542 110.92 121.26C111.576 119.482 111.483 117.673 111.222 115.837C111.001 114.28 110.159 112.823 110.385 111.207C110.544 109.967 110.605 108.715 110.566 107.465C110.518 105.096 110.453 102.73 110.395 100.363L110.837 100.313L111.187 100.006C111.255 100.017 111.291 99.9864 111.292 99.9161L111.569 99.7553C111.639 99.6624 111.709 99.572 111.777 99.479L111.757 99.5041C111.848 99.3258 111.936 99.1499 112.024 98.9716L112.006 98.9942C112.427 97.1581 112.47 95.2556 112.132 93.4025C111.727 90.981 112.091 88.582 112.461 86.1806C112.705 84.6738 112.676 83.1355 112.376 81.639ZM92.5625 55.4994V48.3226H100.103C100.315 50.5956 100.326 52.8828 100.135 55.1577C97.5415 55.8158 95.1085 55.414 92.5625 55.4994ZM94.9678 26.1218C94.9008 26.1218 94.8329 26.1168 94.7642 26.1068C94.8413 26.1084 94.9108 26.1135 94.9728 26.1218H94.9678ZM67.4084 26.1872C67.2953 26.1872 67.1823 26.2098 67.0717 26.2298C67.1873 26.2098 67.3004 26.1972 67.4135 26.1872H67.4084ZM36.6345 28.1189C36.6345 28.1189 36.6345 28.1189 36.6219 28.1189C36.6094 28.1189 36.6345 28.1214 36.6396 28.1189H36.6345ZM35.6292 28.6639C35.5568 28.6642 35.4855 28.6807 35.4203 28.712C35.3551 28.7432 35.2976 28.7886 35.2522 28.8448C35.299 28.7869 35.3584 28.7405 35.4259 28.7092C35.4935 28.6778 35.5673 28.6624 35.6417 28.6639H35.6292ZM33.4325 27.5763C33.4622 27.5646 33.4908 27.5503 33.5179 27.5335C33.4937 27.5472 33.4685 27.559 33.4425 27.5687L33.4325 27.5763ZM33.5054 30.5328C33.4904 30.544 33.4782 30.5587 33.4701 30.5756C33.4799 30.5547 33.4957 30.5372 33.5154 30.5253L33.5054 30.5328ZM33.5054 30.5328C33.5268 30.5168 33.5505 30.5041 33.5758 30.4952C33.5584 30.4993 33.5416 30.5052 33.5254 30.5128L33.5054 30.5328ZM33.6361 27.4432C33.6496 27.4259 33.6613 27.4074 33.6712 27.3879C33.6669 27.3999 33.6618 27.4116 33.6561 27.423L33.6361 27.4432ZM33.5581 30.9096L33.8773 30.4475L34.1287 30.1963L34.3624 29.9451L34.6339 29.6763L34.8852 29.4427L35.1366 29.2392L36.0942 28.674H36.1142C38.7005 27.732 41.3496 27.7747 44.0314 28.1013C45.7405 28.3072 47.4697 28.3525 49.1386 27.8501C51.3851 27.166 53.7565 26.9943 56.0781 27.3477C56.8573 27.4632 57.6641 27.3853 58.4583 27.3954H59.2425C61.2637 27.5292 63.2938 27.3821 65.2746 26.9583L65.7773 26.8905C69.2834 26.4408 72.8148 26.795 76.3335 26.5966H76.5848L77.354 26.5665L77.4696 26.5991L77.5801 26.5514L78.4045 26.481L78.8896 26.4434C81.8127 26.5514 84.7534 26.1244 87.6513 26.6946C89.476 27.0563 91.2605 27.1969 93.1003 26.7774C94.1197 26.5129 95.1951 26.5611 96.1868 26.9156C96.1917 26.929 96.1995 26.9411 96.2097 26.9511C96.2199 26.961 96.2322 26.9685 96.2457 26.9731C96.2592 26.9777 96.2736 26.9792 96.2878 26.9775C96.3019 26.9758 96.3155 26.9709 96.3275 26.9633L97.1821 27.6692L97.5013 28.1716C98.7579 29.832 98.4262 31.6884 98.107 33.5146C98.0492 33.8361 97.9311 34.1476 97.8557 34.4641C96.692 37.7849 96.7523 41.1209 97.725 44.4693C98.0769 44.8838 97.8732 45.4188 98.0743 45.8459C97.7752 46.0971 97.4862 45.9966 97.2072 45.974H96.4733L88.6667 46.0468H88.4154H87.9127H87.6463L87.1587 46.0594C85.7964 46.3633 84.4266 46.2578 83.0568 46.1448L50.9835 46.0719C50.8707 46.1353 50.7434 46.1686 50.614 46.1686C50.4845 46.1686 50.3573 46.1353 50.2445 46.0719L49.1663 46.1046C46.007 46.2754 42.8426 46.2402 39.6807 46.1849H36.916H34.8752H32.6659C32.6985 45.0847 33.0555 44.08 33.3872 43.0852C34.0079 41.2137 33.9635 39.1854 33.2616 37.3428C32.4824 35.1448 32.211 32.977 33.5783 30.8896L33.5581 30.9096ZM26.3598 46.9813C26.4121 46.9775 26.4637 46.9665 26.5131 46.9486C26.4693 46.958 26.4246 46.9622 26.3799 46.9612L26.3598 46.9813ZM26.6363 46.8707C26.6891 46.8149 26.7249 46.7453 26.7393 46.6698C26.7272 46.7361 26.6988 46.7983 26.6564 46.8507L26.6363 46.8707ZM28.7877 67.9437C28.8125 67.9572 28.834 67.9761 28.8506 67.9989C28.8423 67.9709 28.8277 67.9451 28.8079 67.9236L28.7877 67.9437ZM27.7346 60.7971C27.7179 56.7931 27.6994 52.7881 27.6793 48.7824C27.7135 48.7853 27.7476 48.776 27.7757 48.7562C27.8037 48.7365 27.8239 48.7075 27.8326 48.6744L45.9039 48.4809L47.9297 48.4658L50.242 48.5412C61.4316 48.5211 72.6212 48.4993 83.8108 48.4759C85.5199 48.4759 87.2266 48.3855 88.9357 48.3377L89.3001 48.3176L89.5263 48.3377C89.8455 48.4256 90.1471 48.4734 90.1496 48.9456C90.1722 53.0552 90.494 57.1698 89.8656 61.2543C89.838 62.2917 89.3076 63.1609 88.9332 64.0853C88.8787 64.1426 88.8435 64.2155 88.8326 64.2938L88.3048 65.0298H88.3475L88.071 65.3162L88.1163 65.286L87.7996 65.5674L87.3497 66.0045L86.3444 66.8208L86.0628 67.0519V66.9916C86.0562 67.0244 86.0461 67.0564 86.0327 67.0871C86.0461 67.0573 86.0562 67.0261 86.0628 66.9942L85.5778 67.268L85.0499 67.5342V67.4966L84.5472 67.7477L84.492 67.7051C78.6885 69.1545 72.8575 68.8028 67.0214 67.9563L65.9859 67.6297L64.7468 67.0746L64.2441 66.768L63.9701 66.5847L63.4876 66.2707C63.4929 66.2802 63.4987 66.2895 63.5051 66.2983L63.2337 66.0321L62.4797 65.3212L61.9771 64.771L61.8262 64.5475L61.2431 63.7738L60.9918 63.3016L60.464 62.2968C60.3886 62.126 60.3131 61.9577 60.2403 61.7944C60.1674 61.6311 60.1347 61.4553 60.0845 61.292C59.7049 60.3726 59.6295 59.3427 59.0464 58.4986V58.4711C58.4155 57.5969 57.6867 57.5843 56.8824 58.2199H56.8497C56.5003 58.3756 56.4174 58.6921 56.347 59.0262H56.3873C56.1181 59.4084 55.9503 59.8526 55.8996 60.3173C55.6483 60.5509 55.6483 60.8725 55.593 61.1739C54.4318 63.5905 53.1626 65.9191 50.6291 67.2027C50.6141 67.2817 50.5833 67.3568 50.5386 67.4237C50.5823 67.3563 50.613 67.2814 50.6291 67.2027L50.1666 67.4212L49.8952 67.592L49.3473 67.8181L49.3724 67.7879C48.1495 68.1121 46.8977 68.3149 45.635 68.3933H45.1147C45.0343 68.4436 44.9538 68.4888 44.8634 68.5315C44.9438 68.4888 45.0242 68.4436 45.1147 68.3933L36.3832 68.2677L36.0615 68.2401L34.5811 68.0793C34.4879 68.107 34.3888 68.108 34.2951 68.0822C34.2014 68.0565 34.1167 68.005 34.0508 67.9336L33.0756 67.7251C29.8308 66.5696 28.094 64.2235 27.7547 60.7795L27.7346 60.7971ZM85.5803 67.288C85.5637 67.337 85.5391 67.3829 85.5074 67.4237C85.5481 67.3792 85.5797 67.3271 85.6004 67.2704L85.5803 67.288ZM65.3023 67.7728C65.2482 67.7551 65.1972 67.7288 65.1514 67.695C65.2046 67.7247 65.2623 67.7451 65.3223 67.7553L65.3023 67.7728ZM61.5322 64.4244C61.5161 64.415 61.5009 64.404 61.4869 64.3917C61.508 64.3992 61.53 64.4043 61.5522 64.4068L61.5322 64.4244ZM59.353 60.1942C59.3254 60.1214 59.3003 60.0435 59.2777 59.9682C59.3204 60.026 59.3455 60.1038 59.3731 60.1766L59.353 60.1942ZM59.1645 59.4708C59.1444 59.3452 59.1268 59.2196 59.1143 59.0915C59.1469 59.1995 59.1645 59.3276 59.1897 59.4507L59.1645 59.4708ZM24.7713 82.5508C23.7964 82.2665 22.7531 82.3277 21.8181 82.7241C22.7569 82.3171 23.8082 82.2496 24.7914 82.5332L24.7713 82.5508ZM20.8128 91.609C20.8128 91.6341 20.8128 91.6618 20.8128 91.6869C20.8303 91.6442 20.8303 91.6165 20.8328 91.604L20.8128 91.609ZM20.8806 90.4912C20.8819 90.5138 20.8819 90.5364 20.8806 90.559C20.8893 90.531 20.896 90.5025 20.9007 90.4736L20.8806 90.4912ZM17.955 100.265C17.9424 99.2755 18.3773 98.4265 18.8096 97.5799L19.1614 97.2032C19.2184 97.2032 19.2436 97.173 19.2369 97.1127L19.5259 96.756C19.6088 96.6555 19.6943 96.5576 19.7772 96.4596L19.9482 96.2612C19.9844 96.2398 20.014 96.2087 20.0335 96.1714C20.0531 96.1341 20.0618 96.0921 20.0587 96.0501C20.7223 95.2965 20.8856 94.3671 21.044 93.4226C21.3481 91.6065 21.2375 89.7652 21.343 87.939C21.3154 87.6878 21.2903 87.4366 21.2652 87.1854L21.3405 86.683L21.2627 86.6981C21.3117 86.4585 21.2946 86.2101 21.2131 85.9795C21.1317 85.749 20.9889 85.5449 20.8002 85.3893L20.2472 84.4122C20.2633 84.3785 20.2717 84.3415 20.2717 84.3041C20.2717 84.2668 20.2633 84.2299 20.2472 84.1961L20.8002 83.4224L21.0792 83.2115V83.2265C22.6425 82.7392 24.2133 82.6211 25.7968 83.1311L26.0481 83.2014L26.2994 83.4224C26.4678 83.8369 27.1163 84.1434 26.586 84.7136C26.5207 85.3316 25.9476 85.7762 25.9978 86.4343C25.9451 88.9463 26.2894 91.4306 26.4805 93.925C26.524 94.5898 26.8219 95.2122 27.3123 95.6633C28.6545 97.0172 29.7956 98.4943 29.7453 100.866L28.1569 102.282C28.0262 102.481 27.9055 102.682 27.7673 102.883C26.7619 104.679 26.3045 106.497 27.5159 108.391L27.8452 108.756C28.5439 109.102 29.1547 109.64 29.9992 109.653C30.2681 110.841 30.2505 111.966 30.2304 113.074C30.1977 115.362 30.1047 117.651 30.0067 119.937C29.9137 122.057 28.9712 122.971 26.8147 123.104C24.8643 123.606 22.9315 123.3 20.9962 122.984C17.8897 122.293 17.0301 120.512 17.7464 116.236L19.6943 115.5C21.1646 114.217 21.5014 112.586 21.142 110.748C21.0289 110.17 20.8907 109.575 21.1244 109.022C21.8583 107.309 21.5567 105.701 20.7248 104.126C19.9707 103.312 19.3549 102.368 18.2541 102.096C17.8972 101.74 18.0505 101.328 17.9299 100.989C17.8406 100.883 17.795 100.748 17.8025 100.61C17.8099 100.472 17.8699 100.343 17.9701 100.248L17.955 100.265ZM17.7364 95.1182C17.727 95.148 17.7161 95.1774 17.7037 95.2061C17.7235 95.1722 17.7411 95.1369 17.7564 95.1006L17.7364 95.1182ZM17.6257 95.3242C17.5916 95.3616 17.5495 95.3907 17.5026 95.4096C17.5586 95.3886 17.6081 95.3531 17.6459 95.3066L17.6257 95.3242ZM16.8843 96.4244C16.8543 96.4704 16.8169 96.5111 16.7737 96.545C16.8257 96.5077 16.87 96.4608 16.9044 96.4069L16.8843 96.4244ZM14.7153 103.762C14.7626 103.54 14.8601 103.332 15.0004 103.153C15.1406 102.975 15.32 102.831 15.5246 102.732C16.1152 102.996 16.0524 103.737 16.5299 104.068C17.4297 103.943 18.7769 105.226 19.0056 106.465C19.0354 106.799 19.0354 107.135 19.0056 107.47C18.0003 108.449 17.1306 108 16.266 107.301C15.1501 106.387 14.2502 105.375 14.7353 103.744L14.7153 103.762ZM12.2019 110.087C12.2128 110.523 12.2539 110.958 12.325 111.388C12.2565 110.952 12.2187 110.511 12.2119 110.069L12.2019 110.087ZM16.0499 122.717C16.0193 122.697 15.9863 122.681 15.9518 122.67C15.989 122.675 16.0253 122.685 16.0599 122.7L16.0499 122.717ZM16.1781 122.843C16.2012 122.886 16.219 122.931 16.2308 122.978C16.2236 122.926 16.2092 122.874 16.1881 122.825L16.1781 122.843ZM16.2937 113.777C14.4564 112.953 13.6521 111.197 14.3056 109.278C15.0998 109.781 15.879 110.283 16.7989 110.459L18.5582 110.62C19.0107 111.519 19.1589 112.446 18.523 113.285C17.9701 114.001 17.1633 114.121 16.3037 113.76L16.2937 113.777ZM29.9137 124.87C29.9038 124.889 29.8954 124.91 29.8886 124.93C29.8977 124.903 29.9095 124.877 29.9238 124.852L29.9137 124.87ZM31.2232 123.983C31.2174 123.916 31.2362 123.849 31.276 123.795C31.2436 123.846 31.2287 123.906 31.2333 123.966L31.2232 123.983ZM30.8713 107.565C29.5971 107.54 28.7953 106.309 29.3633 105.066C29.9259 103.844 30.8672 102.837 32.0476 102.192C32.3153 102.026 32.6255 101.941 32.9404 101.948C33.2554 101.955 33.5616 102.052 33.8221 102.23C34.3976 102.609 34.4102 103.207 34.3498 103.795C34.1312 105.922 32.5905 107.58 30.8814 107.547L30.8713 107.565ZM32.6935 115.402C32.7012 115.208 32.7737 115.023 32.8996 114.875C32.781 115.019 32.7122 115.198 32.7036 115.385L32.6935 115.402ZM32.9675 114.817C33.0166 114.783 33.0709 114.756 33.1284 114.739C33.0754 114.752 33.0246 114.772 32.9775 114.8L32.9675 114.817ZM33.3118 114.704C33.3788 114.7 33.4459 114.7 33.5129 114.704C33.4496 114.695 33.3858 114.689 33.3219 114.686L33.3118 114.704ZM35.1542 111.371C34.4931 111.888 33.724 112.124 32.8569 112.358C32.6056 111.484 32.6055 110.662 32.5854 109.793L33.6763 109.21L33.7366 109.158L34.1362 108.859C36.0012 107.1 37.0442 105.04 36.5616 102.328C37.5067 102.541 37.7555 103.217 37.8635 103.953C38.1827 106.116 37.4438 108.14 36.9462 110.183C36.7627 110.959 35.8151 111.042 35.1642 111.353L35.1542 111.371ZM38.2255 115.892C38.3017 115.927 38.3707 115.975 38.4291 116.035C38.3743 115.974 38.3087 115.923 38.2355 115.885L38.2255 115.892ZM95.1387 114.332C83.4883 114.776 71.8546 114.92 60.2377 114.764C58.9782 114.823 57.716 114.763 56.4677 114.586H49.5282V107.527C50.3576 107.625 51.094 107.741 51.8355 107.796C53.4868 107.922 54.746 107.223 55.304 105.684C56.5607 102.245 58.4558 102.451 60.9089 104.124C64.2089 106.384 67.3934 106.384 70.6508 104.088C71.7164 103.335 72.9128 102.747 74.2826 103.084C75.7177 103.445 76.4919 104.438 76.8714 105.847C77.3741 107.665 77.9924 109.424 79.4275 110.773C81.5161 112.737 85.6205 112.192 87.1034 109.738C87.7845 108.61 88.0535 107.346 88.3601 106.093C88.9231 103.764 89.9385 102.956 92.2784 103.315C93.8342 103.577 95.4307 103.455 96.9282 102.958C96.615 106.785 96.0202 110.585 95.1488 114.325L95.1387 114.332ZM96.9056 99.6146C96.9189 99.5627 96.9281 99.5098 96.9332 99.4564L96.5562 99.9789C96.5763 99.9789 96.5914 99.9588 96.6115 99.9512C96.5914 99.9512 96.5788 99.9714 96.5562 99.9789L96.3502 100.13L96.3326 100.145L96.1642 100.361L95.943 100.511L94.9753 100.695C94.0949 100.964 93.1616 101.012 92.2584 100.833C89.0965 100.3 86.7942 101.82 85.9623 104.922C85.7235 105.807 85.5903 106.724 85.2837 107.583C84.9494 108.522 84.3688 109.233 83.2202 109.313C82.0238 109.399 81.021 109.127 80.4982 107.987C79.9754 106.847 79.5959 105.666 79.1335 104.508C77.7058 100.931 74.73 99.6247 71.1434 101.039C70.3389 101.383 69.561 101.786 68.816 102.245C66.5539 103.546 64.3974 103.586 62.3088 101.901C61.6271 101.344 60.8367 100.935 59.9879 100.701C59.1392 100.467 58.251 100.413 57.3801 100.542C55.583 100.763 54.3439 101.727 53.5421 103.37C52.4965 105.513 52.4538 105.49 50.2144 104.92C47.9749 104.35 47.1078 104.948 47.0023 107.314C46.9243 109.072 46.962 110.831 46.9268 112.589C46.8766 115.232 46.0773 116.106 43.7876 116.086C41.1536 116.053 39.5375 114.669 39.6832 112.295C39.8014 110.394 40.2613 108.527 40.5303 106.621C40.7515 105.041 40.7816 103.468 40.1734 101.938C39.4194 100.114 37.9591 99.2906 36.1293 99.7176H35.785C35.2823 99.8407 34.9028 99.6272 34.5283 99.3333C34.4353 99.2805 34.3423 99.2278 34.2518 99.1725L34.1739 99.1122L33.998 98.9314C33.9402 98.9314 33.9175 98.8962 33.9276 98.841L33.7768 98.547C33.2741 97.4995 33.543 96.432 33.7215 95.3769C33.9904 93.7668 34.1589 92.1742 33.7014 90.554C33.3118 89.1799 33.1635 87.7456 33.6059 86.3565C34.9926 82.1311 34.8584 77.5542 33.2264 73.4173C33.1675 73.1755 33.138 72.9275 33.1384 72.6787C32.965 71.8749 33.3294 71.1716 33.4425 70.4356C34.091 70.2848 34.571 70.6466 35.1013 70.6541C35.4946 70.6068 35.8932 70.6731 36.25 70.845L36.3103 70.8174L46.1502 70.7897C46.5448 70.5586 46.9746 70.6415 47.4069 70.6415H47.6884L49.9303 70.2824L49.9002 70.3175C50.2822 70.0483 50.7177 69.8641 51.177 69.7774L51.1418 69.8101L51.6445 69.5589C51.7551 69.3454 51.9687 69.3077 52.1723 69.2675L52.1321 69.2951L52.6599 69.0012L52.6247 69.0615L52.9414 68.8103L52.9062 68.8304L53.4566 68.3984L53.4944 68.338H53.5647L53.9241 68.0868L54.2031 67.808L54.173 67.8407L54.4519 67.5518L54.4193 67.5869L54.7033 67.2981L54.6681 67.3207L55.2009 66.6927C56.1007 65.2433 57.0056 63.7964 57.5811 61.8948C58.4165 64.0469 59.6628 66.0161 61.2506 67.6925C61.3864 67.7679 61.5271 67.8382 61.5322 68.0015L62.0047 68.3481L63.8294 69.5362L63.8118 69.5036L64.3145 69.7724C64.5658 69.8302 64.8574 69.8402 65.0434 70.0713L67.4914 70.6842C67.6268 70.6471 67.7692 70.643 67.9065 70.6723C68.0439 70.7016 68.1721 70.7634 68.2806 70.8525C73.8251 71.1941 79.3672 71.4629 84.8539 70.2472C88.4682 68.9284 91.1374 66.6827 92.0372 62.7791C92.362 61.1748 92.5086 59.5397 92.4745 57.9033C93.9451 57.8033 95.4212 57.8125 96.8905 57.9309V60.5786V61.1236C97.1238 62.8568 97.4595 64.5746 97.8959 66.2682C98.6499 68.9585 97.921 71.5609 97.2927 74.1533C96.5211 77.3284 96.6216 80.4332 97.9587 83.4476C98.0618 83.8018 98.1673 84.156 98.2704 84.5076L98.2528 84.6081C98.4865 85.4596 98.4186 86.3288 98.3784 87.1929C98.424 87.2822 98.4359 87.3849 98.4119 87.4823C98.3879 87.5796 98.3296 87.6651 98.2477 87.723C98.1598 88.0847 98.0769 88.4464 97.9839 88.8082C97.4812 90.8177 96.9157 92.8449 97.2299 94.9399C97.4382 96.2083 97.4288 97.5029 97.2022 98.7681C97.1067 99.0193 97.0112 99.2479 96.9132 99.4865C96.9163 99.5266 96.9172 99.5669 96.9157 99.6071L96.9056 99.6146ZM107.376 120.67C106.489 119.233 107.032 117.173 105.366 115.915C104.561 117.578 104.702 119.223 104.845 120.848C104.888 121.351 104.936 121.853 104.722 122.308C104.355 123.089 103.827 123.511 102.991 122.835C102.237 121.79 102.329 120.557 102.237 119.374C102.144 118.191 101.779 117.113 100.779 116.332C100.052 116.583 100.025 117.209 99.9719 117.754C99.8412 118.826 99.7734 119.909 99.7206 120.989C99.6804 121.743 99.419 122.245 98.675 122.406C98.4815 122.3 98.3164 122.149 98.1938 121.966C98.0713 121.783 97.995 121.572 97.9713 121.353C96.9182 119.261 97.1217 117.083 97.554 114.895C97.8054 113.601 98.1447 112.32 98.4413 111.032C98.7278 108.687 99.0135 106.343 99.2984 103.998C99.4919 102.049 99.5321 100.084 99.9368 98.1577C99.9944 97.9109 100.011 97.6562 99.9845 97.4041C99.5472 93.9652 99.9593 90.6017 100.759 87.2507C101.092 85.8088 100.973 84.2992 100.417 82.9276C99.0847 79.6193 99.3059 76.3512 100.165 72.9952C100.919 70.0437 100.975 67.0569 100.07 64.0928C99.429 61.9928 99.3536 59.8225 99.517 57.6371L101.191 57.1899L101.156 57.2527L101.47 56.9889L101.442 57.0267L101.721 56.7478L101.92 56.5167C102.013 56.4137 102.108 56.3133 102.204 56.2103L102.156 56.253C102.769 53.2964 102.593 50.3398 102.156 47.3807C101.52 47.0491 101.256 46.4763 101.08 45.8132C100.866 44.9309 100.602 44.0613 100.291 43.2083C99.2858 40.6059 99.4969 38.0186 100.276 35.4212C100.733 33.4292 101.211 31.4397 100.927 29.1663L101.498 29.611L102 29.8396L103.048 30.342L103.033 30.2992L103.729 30.4676C104.495 30.6534 105.251 30.8815 105.991 31.1508C108.533 32.2109 109.684 34.3586 109.354 37.0565C109.151 38.7144 108.623 40.3044 108.49 41.9799C108.311 44.2407 108.93 46.3608 109.302 48.5286L109.352 48.5914L109.322 48.6643C109.367 48.8678 109.415 49.0712 109.46 49.2747C109.484 49.2987 109.499 49.3299 109.504 49.3634C109.508 49.397 109.502 49.4311 109.485 49.4606C109.636 51.4702 109.616 53.4621 109.03 55.4139C108.203 58.1925 108.239 61.1562 109.131 63.9145C109.422 64.864 109.726 65.821 109.736 66.8334C109.962 68.6961 109.79 70.5854 109.234 72.3773C108.367 75.3289 108.749 78.2151 109.563 81.0938L109.709 81.4053C110.463 83.6259 109.709 85.8088 109.457 87.9767C109.171 90.3404 109.457 92.6414 109.654 94.9675C109.734 95.9069 109.948 96.8615 109.518 97.6779C108.947 98.0446 108.53 97.8914 108.047 97.6402C107.957 91.9707 109.151 86.2032 106.969 80.6643C106.735 80.4709 106.733 80.1795 106.678 79.9107L106.71 79.9584L106.426 79.4133L106.494 79.4535L106.243 79.1371L106.26 79.1621L105.758 78.6597C105.677 78.6422 105.597 78.6271 105.506 78.6171C105.468 78.6703 105.41 78.7063 105.346 78.7175C104.909 80.0667 104.866 81.5123 105.222 82.8849C105.919 85.7988 105.826 88.778 105.725 91.7396C105.602 95.5076 105.373 99.2504 105.19 103.003C105.19 103.164 105.19 103.325 105.19 103.486C105.19 104.239 105.19 104.993 105.19 105.746C105.19 105.832 105.207 105.917 105.215 105.998C105.32 107.291 105.73 108.51 106.069 109.766L106.049 109.738L106.389 110.464C106.532 110.502 106.542 110.645 106.58 110.768C106.685 110.921 106.788 111.074 106.894 111.225C107.032 111.25 107.072 111.391 107.145 111.504L107.512 112.041C108.537 114.146 108.961 116.493 108.736 118.824C108.643 119.587 108.52 120.456 107.386 120.662L107.376 120.67ZM107.959 101.056V107.967C107.243 105.478 107.829 103.265 107.97 101.049L107.959 101.056Z" fill="#1D2831"/>
<path d="M77.2031 74.1482C76.5949 73.8292 75.9338 73.6458 75.3809 74.309C74.8279 74.9721 75.0567 75.5148 75.5895 76.1151C72.8488 77.5726 69.8786 78.5505 66.8078 79.0064L66.4961 79.0817C61.6302 79.4108 56.807 79.4183 52.2954 77.145C52.0724 77.0269 51.8262 76.9591 51.5741 76.9465C50.8402 76.929 50.2445 77.2153 50.0208 77.9513C49.8172 78.612 50.1716 79.0742 50.7421 79.3757C51.1052 79.5783 51.4823 79.7545 51.8706 79.9031C60.8535 83.1938 69.5046 82.5759 77.8867 77.7454C78.3366 78.1599 78.6081 78.9788 79.4853 79.0617C80.742 78.4789 80.9933 77.778 80.2895 76.615C79.5858 75.452 78.3819 74.7737 77.2031 74.1482Z" fill="#1D2831"/>
<path d="M65.0205 63.8691L64.998 63.8491L64.983 63.8341L65.0205 63.8691Z" fill="#1D2831"/>
<path d="M63.7564 62.3168V62.3319L63.9751 62.6057L63.9424 62.5932C64.0455 62.7539 64.1461 62.9147 64.2466 63.078V63.0981L64.4979 63.3769L64.4627 63.3417L64.7468 63.6331L64.709 63.5979L64.978 63.8617L65.2293 64.1129C65.2775 64.2057 65.3494 64.284 65.4377 64.34C65.526 64.396 65.6275 64.4278 65.732 64.4319C65.7293 64.4189 65.7251 64.4062 65.7194 64.3942L65.9934 64.6178L66.0235 64.6404H66.0084L66.486 64.8916L66.5212 64.9092L67.0238 65.1604C67.5604 65.5316 68.1837 65.7583 68.8335 65.8186C72.6463 66.3209 76.4742 66.1275 80.2945 65.9894C81.0058 65.9617 81.79 65.8713 82.4133 65.3815L82.3907 65.4166C82.6727 65.4129 82.9425 65.3014 83.1448 65.1051C83.4558 65.0434 83.7356 64.8756 83.9364 64.6304L84.2155 64.3792L84.2406 64.4445C84.2745 64.4397 84.3066 64.4261 84.3335 64.4049C84.3605 64.3837 84.3813 64.3557 84.3939 64.3239C86.0603 63.0679 86.4674 61.2065 86.7565 59.2999C86.9475 57.2202 86.9475 55.1274 86.7565 53.0477C86.4247 51.0381 86.2538 50.8798 84.1551 50.8698C77.7183 50.8447 71.2841 51.0833 64.8473 50.8949C64.2742 50.8773 63.6609 50.9125 63.3392 51.5405C62.9974 51.9072 63.0125 52.4021 62.9371 52.8391C62.3891 56.0771 62.0549 59.3075 63.7891 62.3445L63.7564 62.3168ZM65.0961 53.319H74.3956H79.7919H84.424C84.6226 55.8159 84.8011 58.2952 84.13 60.7218C83.5494 62.8243 81.8453 63.6532 79.8572 63.7512C77.4067 63.8718 74.9435 63.7788 72.4879 63.7788C70.5551 63.9295 68.6952 63.7788 67.0917 62.5228C65.5987 61.6235 64.998 60.1641 64.8297 58.5589C64.6685 56.8085 64.7582 55.0441 65.0961 53.319Z" fill="#1D2831"/>
<path d="M34.0758 65.3714C34.6112 65.8412 35.2973 65.9115 35.9407 65.9642C39.1353 66.2154 42.3373 66.4139 45.5444 66.2154C46.6377 66.1501 47.7637 66.0396 48.7188 65.3714L49.2215 65.085L49.9453 64.5425L50.1967 64.2913L50.541 63.8517H50.5234L50.7748 63.5778L50.7371 63.603L50.9884 63.3216V63.3342C51.0759 63.2816 51.149 63.2082 51.2012 63.1206C51.2534 63.0329 51.283 62.9337 51.2875 62.8318C51.5713 62.5718 51.7575 62.2225 51.8153 61.8421L51.76 61.8144C53.1273 58.5313 53.0167 55.1627 52.3406 51.7665C52.3406 51.7414 52.3004 51.7213 52.2702 51.7012C52.1797 51.6033 52.0892 51.5078 51.9962 51.4124L52.0164 51.3998C51.7198 50.91 51.2322 51.0079 50.7823 51.0054C44.5273 50.9954 38.2715 50.9895 32.0148 50.9879C31.5825 50.9879 31.0723 50.817 30.7732 51.337L30.7481 51.3923C30.7138 51.3922 30.6798 51.3992 30.6483 51.4127C30.6167 51.4263 30.5884 51.4462 30.5648 51.4711C30.5413 51.4961 30.5231 51.5255 30.5114 51.5578C30.4997 51.59 30.4947 51.6243 30.4968 51.6585L30.5118 51.6912C29.8005 52.3971 30.0318 53.339 29.9916 54.163C29.8508 56.9111 29.509 59.6894 30.7958 62.3068H30.7757L31.0497 62.8268L31.0346 62.8117L31.0572 62.8419L31.3086 63.1132H31.2508L31.575 63.6156V63.6005L31.8414 63.8718L31.8037 63.8366L32.0927 64.123L32.055 64.0878L32.3315 64.3515H32.3164C32.7863 64.8706 33.3979 65.2409 34.0758 65.4166V65.3714ZM50.453 58.0164L50.4154 58.569C50.34 58.9709 50.262 59.3703 50.1866 59.7722C50.1514 60.561 49.6337 61.1865 49.4326 61.9225L49.136 62.2993L47.9246 63.3769L46.1878 63.8492H44.1494L36.9159 63.7889C36.8608 63.7455 36.808 63.6994 36.7576 63.6507L34.8549 63.3468L33.3947 62.5128L32.892 61.7592L32.6407 61.2568H32.6633C31.8087 58.7046 32.1204 56.1022 32.3541 53.5049C32.3717 53.4245 32.3868 53.3416 32.4044 53.2537C32.482 53.2588 32.5576 53.2811 32.6256 53.319V53.2436L38.1374 53.324H38.4089L39.1629 53.2964H39.9044L41.9302 53.3089H44.6823L45.4363 53.329H45.9516L50.2243 53.2562C50.7974 54.8362 50.541 56.4363 50.453 58.0164Z" fill="#1D2831"/>
<path d="M32.6961 53.849H38.0396C36.7402 56.5393 35.491 59.1367 33.4199 61.5909C32.0099 58.9483 32.8821 56.4363 32.6961 53.849Z" fill="#127FB1"/>
<path d="M41.9226 53.334H44.6748C43.772 53.5659 42.8253 53.5659 41.9226 53.334Z" fill="#127FB1"/>
<path d="M39.1553 53.3115H39.8968C39.7968 53.4065 39.664 53.4595 39.526 53.4595C39.388 53.4595 39.2553 53.4065 39.1553 53.3115Z" fill="#127FB1"/>
<path d="M45.4263 53.3667H45.9415C45.911 53.4058 45.8719 53.4375 45.8272 53.4593C45.7826 53.4811 45.7335 53.4924 45.6839 53.4924C45.6342 53.4924 45.5852 53.4811 45.5405 53.4593C45.4959 53.4375 45.4568 53.4058 45.4263 53.3667Z" fill="#127FB1"/>
<path d="M38.1301 53.3516H38.4015C38.388 53.3757 38.3683 53.3957 38.3444 53.4096C38.3206 53.4235 38.2934 53.4309 38.2658 53.4309C38.2382 53.4309 38.211 53.4235 38.1872 53.4096C38.1633 53.3957 38.1436 53.3757 38.1301 53.3516Z" fill="#127FB1"/>
</svg>
