<svg width="130" height="130" viewBox="0 0 130 130" fill="none" xmlns="http://www.w3.org/2000/svg">
<path d="M129.065 0.843384H0.379272V129.456H129.065V0.843384Z" fill="#BC582A"/>
<path opacity="0.3" d="M63.7167 127.698C89.2579 127.698 109.963 124.212 109.963 119.911C109.963 115.61 89.2579 112.124 63.7167 112.124C38.1755 112.124 17.4703 115.61 17.4703 119.911C17.4703 124.212 38.1755 127.698 63.7167 127.698Z" fill="#1D2831"/>
<path d="M17.4956 68.6266L17.4579 68.1242C17.3624 67.7976 17.2693 67.471 17.1738 67.1419C17.0431 65.4464 17.9958 64.1853 18.971 62.9922C21.4391 59.9778 23.9474 56.9986 27.2425 54.8257C27.6321 54.5745 27.6799 54.3233 27.5492 53.8888C25.9255 48.5257 27.1546 43.8258 30.9096 39.7389C31.4123 39.1963 31.3721 38.8622 31.0403 38.1488C30.1757 36.2949 29.8715 34.2577 29.8664 32.2004C29.8664 30.751 29.9067 29.3618 29.2105 27.9476C28.3132 26.1214 30.0927 23.6321 32.3095 23.4713C33.1791 23.4085 33.5285 23.0619 33.8401 22.3334C34.6268 20.4896 35.4588 18.6609 36.3535 16.8623C38.9499 11.6047 43.3583 9.52231 49.0612 9.32638C55.4704 9.09528 61.8619 9.26104 68.2534 9.61523C74.0543 9.93928 79.8654 10.2357 85.5507 11.6248C90.4701 12.8273 95.172 14.7884 99.4873 17.4376C102.544 19.3165 103.969 22.2656 104.595 25.5914C105.349 29.5905 105.434 33.6523 105.188 37.7192C105.112 38.752 104.902 39.7704 104.562 40.7487C104.423 41.0994 104.366 41.4772 104.395 41.8533C104.424 42.2294 104.539 42.5939 104.73 42.919C106.015 45.3255 105.974 47.9002 105.535 50.5026C105.188 51.4722 104.419 52.5248 106.037 53.1076C110.785 57.4282 114.618 62.3466 116.247 68.7044C116.619 70.1513 116.93 71.5831 115.555 72.7436C115.153 73.0828 115.412 73.5274 115.503 73.9192C116.986 80.3047 115.44 85.7708 110.549 90.2195C110.177 90.5586 109.77 90.8324 109.991 91.4755C110.667 93.4172 109.699 95.1278 109.091 96.8485C108.895 97.4012 108.676 97.8986 108.681 98.4889C108.656 99.993 108.508 101.493 108.239 102.973C107.673 106.582 105.293 108.534 102.137 109.81C101.574 110.039 100.995 110.235 100.377 110.466C100.558 112.872 100.01 115.224 100.126 117.605C99.7739 119.363 98.7685 120.587 97.1399 121.353C96.2022 121.815 95.2124 122.164 94.1917 122.39C89.7731 123.29 85.3094 123.41 80.833 123.114C79.3286 122.997 77.8472 122.676 76.4296 122.159C75.2407 121.74 74.7054 120.936 74.6903 119.697C74.6945 118.77 74.9899 117.868 75.5348 117.118C75.8439 116.658 76.1531 116.216 76.0375 115.61C75.9344 114.435 75.5348 113.681 74.1097 113.792C72.6193 113.91 71.3199 113.289 70.2969 112.207C70.0719 111.936 69.7769 111.733 69.444 111.618C69.1111 111.504 68.7531 111.483 68.4093 111.559C66.2578 111.935 64.0712 111.885 61.8996 111.983C60.1026 112.064 58.2653 112.234 56.511 111.822C54.8647 111.446 53.2033 111.237 51.4314 110.845C51.6274 112.518 50.8106 113.99 51.2103 115.548C51.0142 116.439 51.6576 117.306 51.1952 118.241C50.3934 119.881 49.0662 120.649 47.3446 120.85C41.4482 121.546 35.5316 121.986 29.6302 121.079C26.5412 120.604 25.3374 119.424 25.4706 117.06C25.7219 115.977 26.1844 115.05 27.23 114.49C27.612 114.282 27.9086 113.912 28.2353 113.611L28.2881 113.591L28.2176 113.634C28.3207 111.983 27.4084 110.619 26.9309 109.132C26.8027 108.735 26.3075 108.725 25.9682 108.63C23.2789 107.836 21.5421 106.216 20.7453 103.422C20.1798 101.438 19.3705 99.5138 18.8653 97.4967C18.5838 96.3763 18.1993 96.2407 17.3045 96.831C16.478 97.3463 15.4874 97.5311 14.5305 97.3486C13.5735 97.1661 12.7206 96.6296 12.142 95.8463C10.5385 93.5553 9.89256 91.0308 10.0308 88.1697C10.2821 82.8443 12.6825 78.2625 14.6932 73.5324C14.8566 73.1481 15.035 72.7788 15.1959 72.392L15.8066 71.2566L15.7814 71.2239L16.0001 70.9049L15.9876 70.925L16.3294 70.3522C16.3461 70.3516 16.3625 70.3477 16.3777 70.3406C16.3929 70.3335 16.4065 70.3234 16.4177 70.311C16.429 70.2986 16.4376 70.2841 16.4431 70.2683C16.4487 70.2526 16.451 70.2358 16.45 70.2191C16.8782 69.745 17.2309 69.2079 17.4956 68.6266ZM81.0215 28.6862L81.0467 28.7062C81.0693 28.4952 80.926 28.4551 80.7652 28.4274H80.8028C77.5631 27.1162 74.1449 27.2267 70.7493 27.1714L68.824 27.0257L68.452 26.9981C66.6926 27.0459 64.9334 26.6816 63.2067 27.2493C62.5582 27.9728 61.5428 28.4626 61.6684 29.6759C60.369 32.9264 60.9144 35.9784 62.6738 38.8948C62.9606 39.6768 63.5093 40.3354 64.227 40.7587C67.14 42.6427 70.3296 43.2707 73.7428 42.9944C74.8585 42.9324 75.9556 42.6819 76.9875 42.2533C77.9928 41.9243 78.8926 41.4168 79.5009 40.515C79.6768 40.2638 79.8528 40.0126 80.0313 39.779L80.0111 39.7941C80.1002 39.7372 80.1725 39.6577 80.2206 39.5636C80.2688 39.4696 80.291 39.3645 80.2851 39.259L80.27 39.2917C81.2561 37.7198 81.6797 35.8602 81.4714 34.0166C82.4165 32.3185 81.9414 30.6405 81.3985 28.965C81.3307 28.7916 81.2352 28.656 81.0215 28.6887V28.6862ZM48.9154 12.0921C48.7898 11.9388 48.6968 12.0066 48.6164 12.1373L48.1314 12.175C46.4029 11.8242 44.6057 12.1286 43.0895 13.029C39.5154 15.0562 37.7509 18.4574 36.5847 22.2229C36.4666 22.6097 36.3159 23.3532 37.2509 23.0593C37.9194 23.0769 38.588 23.1045 39.2616 23.1095C43.4857 23.0958 47.7058 23.3745 51.8914 23.9435C53.3089 24.147 54.2866 24.9182 54.6435 26.3274C54.7917 26.9127 55.0456 27.2091 55.6488 27.1765C56.7798 27.1187 57.8757 27.3648 59.057 27.6286C60.007 25.1166 61.9801 24.1847 64.4708 24.0691C70.1134 23.8179 75.7232 24.1219 81.2502 25.3251C82.728 25.6416 84.3039 26.1139 84.7689 27.9401C84.8845 28.3797 85.3822 28.4249 85.709 28.4274C86.9858 28.466 88.2526 28.666 89.4791 29.0227C89.8385 26.0988 89.5897 22.7177 88.8759 20.6353C88.7301 19.5401 88.2048 18.578 87.8228 17.5632C87.0688 15.5536 85.6562 14.3955 83.55 13.966C81.5091 13.549 79.4281 13.4108 77.3872 12.9612C74.9567 12.4086 72.4308 12.3935 69.9526 12.396C67.2808 12.396 64.6442 12.0117 61.9851 11.9816C58.3507 11.9414 54.7164 11.6952 51.082 12.0242L48.9154 12.0921ZM41.8201 25.9632C40.0231 25.9632 38.2235 25.9154 36.4264 25.9456C34.9335 25.9682 33.7773 26.4706 33.2444 28.0732C32.4289 30.4847 32.4289 33.0972 33.2444 35.5087C33.3098 36.4682 33.7672 37.267 34.2498 38.0734C34.2324 38.1702 34.2476 38.2702 34.2931 38.3575C34.3386 38.4447 34.4117 38.5144 34.5011 38.5557C35.0867 39.3294 35.7403 40.0277 36.6854 40.3568C38.8645 41.1104 41.0939 41.6329 43.4187 41.4319C45.9698 41.2109 48.262 40.4573 49.6142 38.0257C49.7525 37.9855 49.8656 37.9227 49.8656 37.7518C49.8843 37.7271 49.8963 37.6978 49.9003 37.667C49.9043 37.6361 49.9 37.6048 49.8881 37.576C50.3607 37.3625 50.4235 36.8827 50.612 36.4833C51.1699 35.2926 51.3484 34.004 51.6022 32.7329C51.6827 32.3084 51.7631 31.8814 51.8536 31.4569C51.9239 30.2662 52.5725 29.0403 51.6501 27.9049C50.215 26.6238 48.4078 26.4254 46.6233 26.1817C45.0323 25.9625 43.4245 25.8893 41.8201 25.9632ZM34.28 42.2633L33.0233 41.1757C31.8433 42.4287 30.9375 43.9137 30.3637 45.536C29.7899 47.1583 29.5606 48.8823 29.6906 50.5981C29.7157 51.0352 29.5196 51.6356 30.1128 51.9295C30.1278 54.1425 31.3419 55.6597 33.0208 56.8931C35.3231 58.5811 37.9646 59.4704 40.7092 60.1034C41.2345 60.2265 41.7749 60.2968 42.2173 60.6811C46.0175 64.0522 50.5341 65.5519 55.5382 65.7051C59.7105 65.8282 63.7395 65.2178 67.2029 62.6907C68.1147 61.9763 69.2414 61.5912 70.3999 61.5981C73.8633 61.5805 77.2213 60.9801 80.3304 59.3674C83.6782 57.6266 86.3775 55.2704 87.2245 51.3969C88.4385 45.8429 89.3836 40.2463 89.2881 34.5265C89.3509 32.6953 88.8834 32.0999 87.1266 31.8161C86.7144 31.7508 86.2921 31.7734 85.8699 31.7382C84.8997 31.6528 84.5 32.0999 84.5276 33.0595C84.5829 34.833 84.206 36.5537 83.6983 38.2342C82.8814 40.932 81.4086 43.1878 78.7871 44.4312C76.2737 45.6219 73.5869 45.7977 70.8347 45.647C68.6279 45.5265 66.5921 44.7779 64.4884 44.2604C62.3613 43.2327 60.6446 41.5161 59.6175 39.3897C58.5568 37.2294 58.2904 34.9259 58.3281 32.5621C58.4965 31.7759 58.4361 31.1605 57.4358 30.9997C55.6538 30.7133 54.7515 30.9595 54.4499 32.0045C54.0453 33.4112 53.7965 34.8631 53.3491 36.2522C52.6654 38.3824 51.6978 40.3467 49.858 41.7785C47.0053 44.0117 43.7429 44.2905 40.3272 43.8961C38.2386 43.6575 36.3033 42.8084 34.2876 42.2659L34.28 42.2633ZM21.3938 70.4427L19.74 69.4379C18.5284 71.2078 17.4907 73.0904 16.6411 75.0597C14.7586 79.4155 12.6422 83.7134 12.5844 88.6243C12.5618 90.4832 12.7453 92.3019 13.7984 93.8995C14.5524 95.0625 15.1808 95.1555 16.4174 94.3441C15.0711 92.1697 14.6275 89.5559 15.1808 87.0594C15.7915 87.4789 15.6633 87.9838 15.7538 88.4134C15.8996 89.6292 16.357 90.747 16.8622 91.8447C17.1136 92.3948 17.4881 92.9299 18.1918 92.7138C19.0439 92.4626 18.521 91.7945 18.413 91.3524C17.5408 87.7628 17.3825 84.2133 18.5789 80.6388C19.4944 77.999 20.7526 75.4907 22.3212 73.1782C23.593 71.2515 23.6057 71.2616 21.4014 70.4452L21.3938 70.4427ZM36.7632 111.853L30.0927 110.235C30.4346 111.134 30.716 111.87 30.9874 112.606C31.1458 113.036 31.3896 113.327 31.8923 113.304C33.257 113.244 34.5012 113.784 35.793 114.081C35.8508 114.714 36.8863 114.814 36.6425 115.618C36.2127 115.967 35.7553 115.869 35.3381 115.673C33.154 114.608 31.1986 115.221 29.3261 116.465C28.9139 116.738 28.4464 116.992 28.5318 117.623C28.6248 118.293 29.1652 118.451 29.683 118.627C29.9949 118.748 30.3241 118.82 30.6583 118.838C36.0394 118.753 41.4431 119.323 46.7941 118.336C47.8121 118.148 48.7495 117.683 48.8425 116.477C48.8913 115.473 48.8872 114.467 48.83 113.463C48.8124 112.795 48.5108 112.317 47.7669 112.347C44.0923 112.498 40.4428 111.91 36.7708 111.855L36.7632 111.853ZM78.6564 103.616C78.9077 104.41 79.2169 105.193 79.4104 106.002C79.6618 107.03 80.3429 107.203 81.2125 107.067C81.5475 107.032 81.8703 106.921 82.1573 106.745C82.4443 106.568 82.6883 106.33 82.8714 106.047C83.3439 105.294 83.8592 105.043 84.7288 105.545C85.6864 106.078 86.5233 105.748 87.3276 105.002C87.9434 104.43 88.1219 103.545 88.8181 103.073C90.3487 104.063 91.6331 104.189 92.1785 103.159C92.749 102.081 93.3849 102.154 94.3626 102.3C95.8581 102.538 97.444 102.732 98.105 100.775C98.2457 100.36 98.5952 100.498 98.9445 100.524C100.538 100.614 101.601 98.9712 100.875 97.3836C99.7815 98.6773 98.2483 99.1269 96.7981 99.7549C95.9561 100.119 95.29 100.222 94.5234 99.6117C94.1941 99.3605 93.8323 98.9109 93.312 99.0767C90.8916 99.8303 89.5419 98.3884 88.4008 96.6476C88.3006 96.4519 88.1483 96.2877 87.9607 96.173C87.7732 96.0582 87.5576 95.9973 87.3377 95.997C86.4504 95.9367 85.4928 95.7006 85.151 94.8139C84.5804 93.3293 84.1633 91.7794 85.1988 90.2596C85.5552 89.6737 85.8781 89.0682 86.1664 88.446C84.3341 86.3184 84.5427 84.0651 86.6691 82.3645C88.2223 81.1236 90.0295 80.5433 91.9472 80.8573C93.5809 81.1311 94.7572 80.6262 95.9234 79.6014C96.5543 79.0512 96.695 78.6744 96.1748 77.956C94.5737 75.7656 92.6107 73.7761 92.2186 70.9024C91.4646 70.9652 90.8463 70.9978 90.3084 71.3696C88.5491 72.4271 86.4178 72.0127 84.5729 72.7738C84.3744 72.8567 84.0853 72.716 83.8365 72.6884C83.4519 72.6432 83.0825 72.6708 82.8085 72.9948C81.7202 74.2734 80.2599 74.2509 78.772 74.1554C78.4076 74.1303 77.9979 73.9042 77.6786 74.183C76.4396 75.2581 74.9668 75.5395 73.2099 75.439C74.5747 78.0364 74.5244 80.7142 74.4666 83.3869C74.4026 85.2697 74.7295 87.1454 75.4267 88.8957C76.093 90.4813 76.3522 92.2083 76.1807 93.9196C76.0396 95.337 76.2112 96.7681 76.6834 98.1121C77.3017 99.9634 78.0005 101.785 78.664 103.618L78.6564 103.616ZM29.2558 57.089C28.6475 56.5389 28.2781 57.0765 27.8734 57.4005C25.0433 59.6613 22.8089 62.4672 20.4815 65.2002C19.8481 65.9538 19.8984 66.4185 20.7127 66.8732C21.2582 67.1687 21.7808 67.5046 22.2761 67.878C23.196 68.6818 23.8167 68.3402 24.4199 67.4886C25.189 66.4035 25.9556 65.3082 26.8077 64.2909C27.5139 63.4494 28.1247 62.4546 29.2909 62.123C29.3336 62.7259 28.8938 63.1077 28.6248 63.5649C27.0012 66.3281 25.1438 68.9983 24.9653 72.3694C24.9348 72.5739 24.8565 72.7684 24.7367 72.9371C24.1058 73.9695 23.4172 74.9693 22.8315 76.0268C20.8208 79.6817 19.6245 83.5401 19.9764 87.7854C20.1699 90.1291 20.861 92.0382 22.8968 93.5629C26.6393 96.3738 30.8015 98.2251 35.1673 99.7298C37.2971 100.487 39.5252 100.932 41.7825 101.051C41.9408 101.413 42.265 101.456 42.6043 101.521C46.4322 102.274 50.3104 102.526 54.1911 102.734C59.3863 103.008 64.5487 102.408 69.7137 101.981C71.4731 101.83 73.2476 101.581 75.1 101.365C74.5671 99.9131 74.0393 98.6019 73.9714 97.1575C73.8181 93.9045 73.7201 90.659 72.765 87.4914C72.3155 85.9617 72.1369 84.3652 72.2372 82.7739C72.3855 80.2092 72.1065 77.7701 70.6639 75.5621C70.5038 75.2689 70.37 74.9621 70.2641 74.6452L70.2792 73.9218C71.3198 73.3465 72.3629 72.9471 73.607 73.3315C74.3786 73.5827 75.1151 73.2285 75.6177 72.6105C76.4974 71.5505 77.5405 71.2339 78.8475 71.7187C79.5311 71.9699 80.26 72.0981 80.8054 71.4324C81.4388 70.6637 82.2607 70.5457 83.173 70.606C83.7511 70.6436 84.4297 70.8572 84.8871 70.4879C85.8925 69.7067 86.9179 69.561 88.1545 69.7669C89.0065 69.9076 89.8158 69.4957 89.748 68.3502C89.7731 67.0088 90.1627 65.7076 90.13 64.3311C90.9516 65.118 91.5203 66.1315 91.7637 67.2425C91.8667 67.6494 91.907 68.109 92.5177 68.0211C93.6688 67.8578 94.0736 68.5235 94.242 69.5283C94.3098 70.1108 94.498 70.6729 94.7949 71.1787C94.9678 72.153 95.3758 73.0704 95.9837 73.8514L96.5869 73.1757C96.994 72.8969 97.3862 72.5854 97.816 72.3393C101.475 70.2443 105.452 69.4028 109.629 69.3827L113.763 69.9855C113.884 69.4228 113.66 69.0435 113.54 68.6541C111.971 63.6679 109.121 59.5181 105.381 55.9009C103.119 53.7154 100.588 53.2935 97.7708 54.3736C95.735 55.1548 93.9202 56.3832 92.103 57.5764C87.8193 60.3685 83.0519 62.3372 78.0456 63.3815C75.3739 63.9543 72.6569 63.9944 69.9449 64.1351C69.3995 64.1627 68.8617 64.1351 68.4194 64.5546C66.3182 66.5466 63.6289 67.2651 60.9194 67.7398C54.8622 68.8024 49.1065 67.991 43.8284 64.5797C42.3204 63.6076 40.8601 62.4847 39.053 62.1104C35.4033 61.3316 32.0253 59.5998 29.2633 57.0915L29.2558 57.089ZM101.076 88.9635C101.101 88.0717 101.312 87.4563 102.355 88.1219C102.621 88.6852 102.855 89.2631 103.056 89.8527C103.393 91.0208 103.81 91.2946 104.926 90.8399C107.179 89.9183 109.176 88.4651 110.745 86.6047C114.035 82.7739 114.223 78.4006 112.964 73.7459C112.65 72.5829 112.052 72.068 110.928 71.9549C106.867 71.5455 103.046 72.4774 99.3417 74.0348C98.3363 74.4518 98.1276 75.2607 98.5122 76.2102C98.6931 76.6573 98.7183 77.1924 99.1808 77.5918C100.055 77.0165 101.154 77.7676 102.043 77.102C102.423 77.014 102.798 76.8231 103.167 76.9914C103.185 77.0892 103.166 77.1902 103.114 77.275C103.062 77.3597 102.981 77.4224 102.886 77.4511C100.97 78.5602 99.1978 79.899 97.6073 81.4376C96.225 82.7212 94.5486 83.6782 92.3946 83.2688C91.119 82.9925 89.7931 83.0549 88.5491 83.4497C88.0554 83.6325 87.6397 83.9793 87.3715 84.4321C87.1034 84.8849 86.9991 85.4161 87.0762 85.9365C87.2597 87.0996 88.1294 87.0293 88.9965 87.0016C90.2142 86.9594 91.4151 87.2946 92.4348 87.9612C90.9016 88.1144 89.8511 88.6244 88.7754 89.0715C87.5011 89.6015 86.8224 90.6012 86.4982 91.8748C86.3122 92.6108 86.4127 93.3067 87.1391 93.7387C87.8177 94.1432 88.338 93.7663 88.8205 93.3318C89.1322 93.0504 89.3962 92.7138 89.728 92.4652C90.8338 91.6387 92.0402 91.1212 93.6111 91.2468C93.3069 91.915 92.7817 91.9025 92.4147 92.121C91.8166 92.4828 91.0902 92.739 91.2209 93.6734C91.2586 93.9472 91.0348 94.1231 90.8363 94.2838C89.9516 94.9972 90.1854 95.6754 90.8539 96.4064C91.608 97.2278 92.5177 97.3083 93.2969 96.6928C94.2036 96.0179 95.0271 95.238 95.75 94.3693C96.2125 93.7764 96.7729 93.259 97.6073 93.2389C96.9689 94.1608 96.3231 95.0776 95.6973 96.002C95.3906 96.4617 94.7974 96.9465 95.373 97.5092C95.9033 98.0392 96.4538 97.6021 96.9439 97.2881C98.9043 96.0322 100.128 94.1608 101.171 92.1612C101.724 91.1313 101.631 90.0185 101.083 88.966L101.076 88.9635ZM84.8293 59.3875C85.5054 59.0584 86.1815 58.7343 86.8551 58.4003C89.562 57.0589 91.8618 55.0543 94.526 53.6552C96.3281 52.7107 98.1427 51.5501 100.256 51.6179C102.267 51.6807 103.021 50.5252 103.288 48.9854C103.481 47.9126 103.453 46.8115 103.205 45.75C102.659 43.4892 102.431 43.2983 100.083 43.145C99.329 43.0948 98.5751 43.0672 97.8336 42.9969C97.3787 42.9542 96.8584 42.9969 96.5769 42.4191C97.6627 42.0423 98.7032 42.0272 99.7463 42.0197C102.408 42.0021 102.423 41.9066 102.682 39.3168C102.976 36.3502 102.878 33.4062 102.717 30.437C102.591 28.1059 102.066 25.8903 101.42 23.6873C100.939 22.0612 99.8923 20.6601 98.4695 19.736C96.0517 18.0745 93.405 16.7731 90.6125 15.8726C90.2003 15.7445 89.7656 15.4656 89.2805 15.8952C89.3936 16.2368 89.4916 16.596 89.6273 16.9402C90.9267 20.2058 91.4068 23.6069 91.3691 27.1262C91.2962 33.69 91.0902 40.2437 90.0321 46.7196C89.5294 49.7566 89.0895 52.8288 87.5815 55.6246C86.8275 57.0187 85.5356 57.9381 84.7614 59.282L84.5729 59.4101C84.6659 59.5734 84.7363 59.4352 84.8293 59.3875ZM106.369 97.4439C105.032 98.1221 103.526 98.4964 103.225 99.4334C102.591 101.413 101.362 102.387 99.5401 102.938C99.3413 103.005 99.1666 103.129 99.0374 103.294C98.0748 104.55 96.7478 104.686 95.3102 104.575C94.7422 104.53 94.0987 104.384 93.6614 104.92C92.9074 105.857 91.8768 105.939 90.8111 105.806C90.4185 105.743 90.0161 105.783 89.6434 105.921C89.2707 106.06 88.9404 106.293 88.6848 106.598C88.152 107.18 87.5563 107.891 86.7093 107.793C85.1064 107.591 83.4847 107.98 82.1475 108.886C81.9601 108.979 81.759 109.042 81.5518 109.072C79.1641 109.687 78.2844 109.258 77.3419 106.984C76.9272 105.98 76.5879 104.947 76.1958 103.932C75.9444 103.244 75.492 102.99 74.7254 103.164C72.6838 103.612 70.62 103.952 68.5426 104.183C60.8717 105.09 53.1932 105.221 45.5324 104.264C37.0925 103.211 29.0723 100.89 22.0348 95.8614C21.6452 95.5825 21.2204 95.2761 20.5494 95.5072C21.6402 98.5492 22.3238 101.699 23.8168 104.568C24.1226 105.171 24.6254 105.651 25.2418 105.929C28.8837 107.582 32.7267 108.579 36.6375 109.295C39.9728 109.903 43.3659 110.014 46.7414 110.242C47.2642 110.28 47.8171 110.376 48.272 109.717C46.3412 108.923 44.6443 107.65 43.3408 106.02C53.3089 110.039 63.4655 110.712 73.7905 108.137C74.0016 108.841 73.5518 109.062 73.308 109.366C72.4609 110.411 72.6595 111.101 73.9538 111.415C74.4026 111.52 74.8632 111.565 75.3237 111.549C79.5839 111.433 83.8315 111.074 88.059 110.544C93.0858 109.923 98.0397 108.891 102.8 107.095C103.833 106.706 104.826 106.193 105.291 105.121C106.301 102.772 106.138 100.247 106.359 97.4439H106.369ZM90.2206 117.874C89.836 118.155 89.5771 117.959 89.3584 117.783C88.4536 117.055 87.3603 116.721 86.2896 116.402C83.1428 115.46 80.2574 115.824 77.8823 118.336C77.5002 118.743 77.1283 119.16 77.3243 119.77C77.5204 120.381 78.1211 120.499 78.6439 120.562C84.0501 121.21 89.5274 120.926 94.8376 119.723C95.9988 119.471 97.0091 118.858 97.351 117.54C97.829 115.764 98.0923 113.937 98.1352 112.099C98.1352 111.345 97.8838 111.014 97.0821 111.215C92.0978 112.484 86.9932 113.222 81.8535 113.418C80.5273 113.428 79.2033 113.525 77.8899 113.709C78.2317 114.385 78.3146 115.008 78.8751 115.507C80.9763 114.704 83.2006 114.817 85.4099 114.844C86.7164 114.874 87.985 115.288 89.0568 116.035C89.6826 116.465 90.296 116.995 90.2105 117.874H90.2206ZM107.766 92.1185C106.706 92.3697 105.849 92.8997 104.853 93.0505C103.069 93.3218 102.089 94.8088 102.34 96.8737C103.557 96.4341 104.776 96.0523 105.949 95.5624C107.357 94.9721 107.88 93.9548 107.756 92.1185H107.766Z" fill="#1D2831"/>
<path d="M70.2867 73.9418L70.2716 74.6652C70.0884 74.899 69.972 75.178 69.9349 75.4726C69.8977 75.7671 69.9412 76.0663 70.0605 76.3382C70.7944 78.3126 70.7014 80.3573 70.734 82.3996C70.7743 84.7784 70.5003 87.1724 70.9653 89.5336C71.3941 91.7522 71.5671 94.0127 71.4806 96.2707C71.458 96.9213 71.3851 97.5267 70.7266 97.8884C69.9926 98.2853 69.2561 98.6797 68.5097 99.054C65.946 100.343 63.1436 100.609 60.3613 100.92C56.6297 101.354 52.8711 101.509 49.1164 101.385C46.6709 101.292 44.2405 100.755 41.7799 101.079C39.5226 100.959 37.2943 100.514 35.1646 99.7573C30.7988 98.2501 26.6367 96.4013 22.8942 93.5904C20.8584 92.0581 20.1672 90.149 19.9736 87.8129C19.6218 83.5676 20.8055 79.7092 22.8288 76.0543C23.4144 74.9968 24.1031 73.9971 24.734 72.9646C24.8538 72.796 24.9322 72.6015 24.9627 72.3969C25.1412 69.0259 26.9986 66.3682 28.6223 63.5925C28.8912 63.1353 29.331 62.7535 29.2883 62.1506L29.2681 62.1355C29.4567 62.1531 29.5195 62.0576 29.5195 61.8843L29.7533 61.6331C30.1579 60.7866 30.7184 61.2035 31.2035 61.4949C32.2767 62.1455 33.3222 62.8388 34.3753 63.5045C36.458 64.8283 38.7162 65.854 41.0837 66.5516C42.9134 67.1017 44.7958 67.5363 46.6382 68.0587C51.298 69.4102 55.9629 69.9176 60.8313 69.1791C66.1446 68.3727 71.3624 67.1469 76.6204 66.1069C82.4515 64.9565 87.8201 62.5625 92.7966 59.2919C94.1891 58.3776 95.5614 57.3803 97.1699 56.8629C98.7785 56.3454 100.48 55.8581 101.945 57.0914C104.042 58.8699 106.1 60.7037 107.148 63.3714C107.935 65.3809 109.277 67.1645 109.644 69.3524C105.462 69.3725 101.485 70.214 97.8309 72.309C97.4011 72.5602 97.009 72.8667 96.6018 73.1455C95.8905 72.5828 95.7121 71.5403 94.8098 71.1359C94.513 70.6301 94.3246 70.068 94.2568 69.4855C94.0884 68.4983 93.6838 67.8276 92.5327 67.9783C91.9244 68.0663 91.8842 67.6066 91.7787 67.1996C91.5353 66.0886 90.9666 65.0752 90.145 64.2883C90.1776 65.6724 89.788 66.9736 89.7629 68.3074C89.3658 68.423 88.9913 68.5837 88.5465 68.4682C87.3224 68.1492 86.2015 68.6038 85.0152 68.8525C82.5973 69.3549 80.3453 70.4903 77.8369 70.636C76.8869 70.6888 75.8488 70.9098 75.2054 71.6408C74.562 72.3718 73.8331 72.52 73.0841 72.2713C71.9807 71.9071 71.2518 72.6129 70.3997 72.9696C69.985 73.2057 69.9223 73.5775 70.2867 73.9418ZM35.3154 77.1647C34.4457 78.3377 33.556 79.5008 32.709 80.6814C31.862 81.862 31.7489 83.2135 32.5305 84.4494C35.9211 89.8627 39.6435 94.977 45.1629 98.5013C46.4196 99.3077 47.6235 99.4685 48.933 98.8807C49.6217 98.571 50.293 98.2238 50.9437 97.8407C56.8326 94.4093 61.985 90.0234 67.0294 85.4918C68.374 84.2811 68.6128 82.9472 68.0045 81.3219C67.1394 78.9688 66.0966 76.6847 64.8854 74.4894C63.8197 72.5903 62.3419 71.4047 60.1854 71.1535C56.825 70.7616 53.4596 70.4225 50.0966 70.0608C50.0336 69.9309 49.9319 69.8237 49.8054 69.754C49.6789 69.6842 49.5339 69.6554 49.3904 69.6714C47.3646 69.6714 45.3387 69.6714 43.3129 69.6714C43.1659 69.6704 43.0208 69.7045 42.8897 69.771C42.7585 69.8374 42.6451 69.9341 42.5589 70.0532C40.2265 70.8571 38.8216 72.7662 37.3236 74.5346C36.7028 75.2656 36.0518 75.459 35.1495 75.366C33.8199 75.2254 32.5884 74.6125 31.2362 74.625C30.8767 73.9895 30.2685 73.9142 29.5874 73.9644C30.9672 75.974 32.9427 76.916 35.3154 77.1647Z" fill="#175071"/>
<path d="M58.3305 32.5545C58.2953 34.9183 58.5618 37.2218 59.6224 39.3821C60.6496 41.5085 62.3663 43.2251 64.4934 44.2528C64.242 44.602 64.1642 44.9888 64.5638 45.2325C66.1548 46.2121 67.6476 47.3802 69.6307 47.551C71.0831 47.6994 72.5475 47.6842 73.9965 47.5058C77.0126 47.0888 79.9407 46.3427 82.0921 43.9689C83.9571 41.9166 85.0629 39.4675 85.6109 36.7445C86.1135 34.2928 86.1538 34.3003 88.6521 34.4837C88.8607 34.4988 89.0694 34.5038 89.278 34.5164C89.3735 40.2362 88.4285 45.8328 87.2145 51.3868C86.3675 55.2603 83.6681 57.6165 80.3202 59.3573C77.2112 60.97 73.8532 61.5704 70.3898 61.5879C69.2312 61.5811 68.1045 61.9662 67.1928 62.6806C63.7293 65.2102 59.7003 65.8206 55.5281 65.695C50.5214 65.5493 46.0049 64.0496 42.2072 60.671C41.7749 60.2867 41.2345 60.2164 40.6991 60.0933C37.9545 59.4603 35.313 58.5711 33.0107 56.883C31.3318 55.6496 30.1177 54.1324 30.1026 51.9194C30.354 49.5606 30.7085 47.2269 31.6485 45.0239C31.9425 44.3357 32.229 43.6348 32.9604 43.2656C33.2778 43.3565 33.5893 43.4672 33.8928 43.5972C38.1153 45.6921 42.4737 46.1795 47.0003 44.7175C46.6745 47.41 45.7624 49.9986 44.3284 52.3012L44.2656 52.364L44.3234 52.2936C46.0627 51.7636 46.9198 50.284 47.8673 48.9301C48.276 48.3098 48.9046 47.8673 49.6267 47.6917C53.3364 46.6743 57.011 47.0888 60.6856 47.8374C61.3315 47.9705 61.6658 48.2669 61.7236 49.0029C61.8367 50.4398 62.2615 51.8088 63.287 52.8864C63.7696 53.3888 64.2244 54.0319 65.3781 53.9968C63.018 50.9824 63.1588 47.5987 63.4177 44.1096C62.3244 44.6246 62.4123 45.5741 61.9574 46.2322C57.5439 44.9411 53.1304 43.5319 48.6942 46.1519C48.5384 45.7299 48.4128 45.3807 48.2846 45.034L48.1112 44.7326L48.1237 44.3005C50.1495 43.4892 52.2104 42.4819 53.1932 40.5326C54.3387 38.3572 55.1174 36.008 55.4979 33.5794C55.704 32.0999 55.8851 31.9969 57.3378 32.2933C57.6847 32.3837 58.0088 32.4741 58.3305 32.5545ZM63.4026 57.0915C63.4503 56.7272 63.5207 56.363 63.3071 56.0189C63.2209 56.0235 63.136 56.0422 63.0558 56.0742C57.1996 60.0255 52.7031 60.028 46.9499 56.0742C46.4975 55.7627 46.0678 55.3608 45.2886 55.3834C45.7209 56.6394 45.8215 57.8501 46.5931 58.8348C47.9729 61.8165 50.994 62.3289 53.6306 63.2433C54.9802 63.713 56.6164 63.3714 58.1043 63.075C60.4343 62.6103 62.1711 61.3418 63.1814 59.1965C63.4805 58.5761 63.953 57.8652 63.4026 57.0915ZM36.5973 50.7689C36.0243 50.5503 35.5919 50.4875 35.2476 50.9271C35.1555 51.0425 35.1042 51.1852 35.1014 51.3328C35.0987 51.4804 35.1448 51.6247 35.2325 51.7435C35.5467 52.1956 35.9212 52.5574 36.5973 52.3087V50.7689ZM51.2855 53.2959C51.0794 54.2027 51.0342 54.8508 51.8007 55.1925C52.1752 55.3583 52.6654 55.21 52.7408 54.8257C52.9369 53.8309 51.9692 53.846 51.2855 53.2959ZM33.5988 47.7369C34.388 47.752 35.0213 47.9881 35.4436 47.3249C35.4767 47.2709 35.4965 47.2098 35.5013 47.1466C35.5061 47.0834 35.4959 47.0201 35.4713 46.9616C35.4468 46.9032 35.4086 46.8515 35.3601 46.8107C35.3116 46.7699 35.254 46.7412 35.1922 46.7271C34.5362 46.6316 33.9959 46.8426 33.5988 47.7369ZM82.6401 51.5048C83.3288 50.8467 83.1427 50.3343 82.7783 49.8545C82.6224 49.646 82.2555 49.5606 82.1223 49.7616C81.6674 50.4448 82.2882 50.8492 82.6401 51.4998V51.5048ZM76.7411 50.5177C76.488 50.627 76.2611 50.7887 76.0752 50.9923C75.8893 51.1958 75.7487 51.4364 75.6628 51.6983C76.6607 51.7787 76.6456 51.0828 76.7411 50.5126V50.5177Z" fill="#5A6258"/>
<path d="M88.8934 20.6252C89.6072 22.7076 89.856 26.0887 89.4966 29.0126C88.2701 28.6559 87.0033 28.4558 85.7265 28.4173C85.3998 28.4173 84.9022 28.3696 84.7866 27.93C84.309 26.1038 82.7331 25.6315 81.2678 25.315C75.7384 24.1243 70.1309 23.8078 64.4884 24.059C61.9976 24.1746 60.0246 25.1091 59.0745 27.6185C57.8932 27.3673 56.7975 27.1161 55.6665 27.1663C55.0557 27.199 54.8019 26.9026 54.6611 26.3173C54.3042 24.9081 53.3265 24.1369 51.9089 23.9334C47.7233 23.3643 43.5033 23.0857 39.2791 23.0995C38.6106 23.0995 37.942 23.0668 37.2684 23.0492C38.8519 18.0252 42.7979 13.7549 49.1593 13.6796C60.1076 13.5565 71.0459 13.5289 81.9389 14.9958C84.4674 15.335 86.1991 16.4176 87.4055 18.608C87.78 19.3365 88.0364 20.2283 88.8934 20.6252ZM42.1947 22.3082C45.246 20.914 48.4153 21.2255 51.6149 21.5194C50.7427 19.9871 49.3277 19.869 47.9302 19.859C45.6958 19.8414 43.5444 20.1328 42.1947 22.3082ZM74.1147 23.0768C73.137 21.0999 71.3349 20.7432 69.4298 20.6905C67.8539 20.6478 66.3886 20.997 65.2752 22.2881C68.339 21.4742 71.2369 21.8485 74.1172 23.0768H74.1147Z" fill="#5A6258"/>
<path d="M106.359 97.4439C106.138 100.247 106.301 102.772 105.278 105.13C104.813 106.203 103.82 106.716 102.787 107.105C98.0269 108.901 93.078 109.933 88.0462 110.554C83.8186 111.074 79.571 111.433 75.3108 111.559C74.8504 111.575 74.3898 111.53 73.9411 111.425C72.6467 111.111 72.4481 110.421 73.2951 109.376C73.5464 109.072 73.9888 108.851 73.7776 108.147C63.4526 110.722 53.2961 110.039 43.328 106.03C44.6315 107.66 46.3284 108.933 48.2593 109.727C47.8043 110.386 47.2539 110.29 46.7286 110.252C43.3532 110.024 39.96 109.913 36.6248 109.305C32.7139 108.589 28.871 107.592 25.2291 105.939C24.6126 105.661 24.1098 105.181 23.804 104.578C22.296 101.709 21.6224 98.5491 20.5366 95.5171C21.2077 95.286 21.6324 95.5925 22.022 95.8714C29.0594 100.895 37.0797 103.221 45.5197 104.274C53.1805 105.231 60.8513 105.1 68.5297 104.193C70.6072 103.962 72.671 103.622 74.7127 103.174C75.4793 103 75.9216 103.254 76.183 103.942C76.5651 104.947 76.9145 105.99 77.3292 106.994C78.2616 109.268 79.1514 109.697 81.5391 109.082C81.7463 109.052 81.9473 108.989 82.1347 108.896C83.4718 107.99 85.0936 107.601 86.6966 107.803C87.5436 107.901 88.1392 107.19 88.6721 106.608C88.9276 106.303 89.2579 106.07 89.6307 105.931C90.0034 105.793 90.4057 105.753 90.7984 105.816C91.8641 105.949 92.887 105.867 93.6485 104.93C94.0859 104.394 94.7293 104.54 95.2973 104.585C96.735 104.696 98.0621 104.565 99.0247 103.304C99.1538 103.139 99.3286 103.015 99.5274 102.948C101.35 102.397 102.579 101.423 103.212 99.4434C103.516 98.4964 105.022 98.1221 106.359 97.4439Z" fill="#0C324F"/>
<path d="M84.7413 59.292C85.5154 57.9506 86.8073 57.0312 87.5613 55.6371C89.0694 52.8413 89.5168 49.7691 90.0119 46.7322C91.07 40.2437 91.2686 33.69 91.349 27.1388C91.3867 23.622 90.9066 20.2258 89.6072 16.9527C89.4714 16.6086 89.3734 16.2494 89.2603 15.9077C89.7454 15.4782 90.1803 15.757 90.5925 15.8851C93.3849 16.7856 96.0315 18.087 98.4493 19.7486C99.8721 20.6727 100.918 22.0737 101.4 23.6999C102.046 25.9029 102.571 28.1185 102.697 30.4496C102.858 33.4187 102.948 36.3627 102.662 39.3294C102.41 41.9192 102.388 42.0147 99.7261 42.0323C98.6831 42.0323 97.6426 42.0549 96.5568 42.4317C96.8483 43.0094 97.3686 42.9667 97.8135 43.0095C98.5675 43.0798 99.3214 43.1074 100.063 43.1576C102.41 43.3109 102.639 43.5118 103.185 45.7626C103.433 46.8241 103.461 47.9251 103.268 48.998C103.004 50.5378 102.242 51.6933 100.236 51.6305C98.1225 51.5627 96.3079 52.7232 94.5058 53.6677C91.8416 55.0669 89.5419 57.0714 86.8349 58.4128C86.1614 58.7469 85.4852 59.071 84.8091 59.4001L84.7413 59.292Z" fill="#27393A"/>
<path d="M102.363 88.1244C101.32 87.4663 101.106 88.0742 101.083 88.9659C99.7639 89.5537 99.5452 90.9529 98.854 92.0029C98.5247 92.5053 98.4142 93.2187 97.6099 93.2413C96.8056 93.2639 96.215 93.7789 95.7525 94.3717C95.0296 95.2404 94.2062 96.0204 93.2995 96.6953C92.5203 97.3107 91.6104 97.2303 90.8564 96.4089C90.1879 95.6779 89.9542 94.9997 90.8389 94.2863C91.0374 94.1255 91.2611 93.9497 91.2234 93.6759C91.0927 92.7414 91.819 92.4852 92.4172 92.1235C92.7842 91.9049 93.3095 91.9175 93.6137 91.2493C92.0428 91.1237 90.8363 91.6412 89.7304 92.4676C89.3987 92.7188 89.1348 93.0529 88.8231 93.3342C88.3406 93.7688 87.8178 94.1456 87.1417 93.7412C86.4153 93.3091 86.3147 92.6133 86.5007 91.8773C86.8249 90.6037 87.5061 89.604 88.7778 89.0739C89.8536 88.6268 90.9042 88.1169 92.4373 87.9637C91.4177 87.297 90.2167 86.9618 88.999 87.0041C88.1319 87.0317 87.2623 87.102 87.0788 85.939C87.0017 85.4185 87.1058 84.8874 87.374 84.4346C87.6422 83.9818 88.058 83.6349 88.5517 83.4522C89.7957 83.0574 91.1215 82.9949 92.3971 83.2713C94.5511 83.6807 96.2276 82.7237 97.6099 81.4401C99.2003 79.9014 100.973 78.5627 102.888 77.4535C102.983 77.4249 103.065 77.3622 103.117 77.2774C103.168 77.1926 103.187 77.0916 103.17 76.9938C102.805 76.8255 102.415 77.0165 102.046 77.1044C102.109 76.7294 102.265 76.3764 102.501 76.0778C102.736 75.7792 103.043 75.5448 103.393 75.3963C104.65 74.8612 106.095 74.3688 107.415 74.7305C110.969 75.7077 111.687 76.3659 110.933 79.8349C110.303 82.7538 108.322 84.6077 105.907 86.0747C104.745 86.7855 103.547 87.4437 102.363 88.1244Z" fill="#5A6258"/>
<path d="M109.651 69.3751C109.285 67.1872 107.942 65.4062 107.156 63.3941C106.108 60.7163 104.049 58.8725 101.953 57.1142C100.485 55.8707 98.7836 56.3606 97.1775 56.8856C95.5714 57.4106 94.1966 58.3928 92.8042 59.3146C87.8277 62.5802 82.4591 64.9791 76.6281 66.1296C71.3701 67.1696 66.1522 68.3904 60.8389 69.2017C55.9705 69.9403 51.3057 69.4328 46.6458 68.0814C44.8035 67.5489 42.921 67.1143 41.0912 66.5742C38.7237 65.8767 36.4657 64.8511 34.383 63.5272C33.3299 62.8515 32.2843 62.1582 31.2111 61.5177C30.726 61.2263 30.1655 60.8093 29.7609 61.6558L29.5272 61.907L29.2758 62.1582L29.2959 62.1732C28.1296 62.5048 27.5189 63.4996 26.8127 64.3411C25.9606 65.3459 25.194 66.4537 24.4249 67.5388C23.8217 68.3904 23.201 68.732 22.2811 67.9282C21.7858 67.5548 21.2631 67.2189 20.7177 66.9234C21.5345 65.6272 21.8261 67.2625 22.4771 67.2726C24.0881 65.1952 26.0687 63.4569 27.9336 61.6106C29.2355 60.3194 30.1228 59.0183 29.2557 57.1393C32.0293 59.6477 35.4199 61.3745 39.0805 62.1431C40.8776 62.5174 42.3479 63.6503 43.856 64.6124C49.1341 68.0187 54.8872 68.835 60.947 67.7724C63.6564 67.2977 66.3457 66.5793 68.4469 64.5873C68.8893 64.1678 69.4272 64.1954 69.9726 64.1678C72.6846 64.0347 75.4015 63.9945 78.0733 63.4142C83.0796 62.3699 87.8469 60.4011 92.1306 57.609C93.9478 56.4158 95.7625 55.1875 97.7984 54.4062C100.616 53.3261 103.149 53.7481 105.409 55.9335C109.149 59.5508 111.999 63.7006 113.567 68.6868C113.688 69.0762 113.912 69.4554 113.791 70.0181L109.651 69.3751Z" fill="#0C324F"/>
<path d="M78.6639 103.618C78.0004 101.785 77.3016 99.9634 76.6858 98.112C76.2137 96.7681 76.0421 95.337 76.1832 93.9196C76.3546 92.2083 76.0954 90.4813 75.4291 88.8956C74.732 87.1453 74.405 85.2697 74.4689 83.3869C74.5192 80.7116 74.5695 78.0363 73.2122 75.439C74.9716 75.5419 76.442 75.2606 77.6811 74.183C78.0003 73.9066 78.41 74.1302 78.7745 74.1554C80.2624 74.2558 81.7227 74.2734 82.811 72.9948C83.085 72.6708 83.4544 72.6431 83.8389 72.6884C84.0903 72.716 84.3768 72.8567 84.5754 72.7738C86.4202 72.0202 88.5465 72.4271 90.3109 71.3696C90.5622 71.8016 89.7831 72.2513 90.2783 72.6256C91.6154 73.668 91.8994 75.3234 92.6811 76.6824C93.5834 78.2524 92.5202 80.0057 90.7558 80.2218C87.0887 80.6689 83.1704 82.3293 83.4192 87.3759C83.4645 88.3128 82.826 88.7273 81.9388 89.074C81.7025 88.029 81.4939 87.1121 81.514 86.14C81.5492 84.3263 80.9033 82.6961 79.9758 81.1889C79.4731 80.3876 78.6664 80.0284 77.6183 79.9982C77.6327 80.2099 77.669 80.4195 77.7264 80.6237C79.3626 84.3741 80.7575 88.1872 81.0716 92.3169C81.1345 93.1383 81.7327 93.9321 81.4663 94.761C80.9636 96.3285 81.1345 98.0266 80.5464 99.5338C80.0085 100.938 79.903 102.548 78.6639 103.618ZM76.7662 78.1067C76.8617 78.5086 77.2061 78.5488 77.5202 78.6442C79.9054 79.3401 82.0016 78.5714 84.0224 77.3882C86.3372 76.4337 88.8582 75.9539 90.9242 74.4216C87.5085 75.3661 84.1104 76.3056 80.6193 76.8608C79.2771 77.0768 77.8495 77.0743 76.7662 78.1067Z" fill="#F08F1F"/>
<path d="M73.745 42.9868C70.3318 43.2681 67.1424 42.6351 64.2294 40.7511C63.511 40.3275 62.9619 39.6678 62.676 38.8847C62.5956 37.8171 62.5655 36.7545 63.0029 35.7397C63.4528 34.6646 62.8973 33.4388 63.5055 32.3863C64.6642 33.2202 65.8229 34.0542 67.2756 34.3029C67.5647 34.3506 67.6475 34.6043 67.645 34.8731C67.645 35.6945 68.1201 36.222 68.7208 36.6817C69.4497 37.6438 69.995 37.6865 70.9501 36.8977L71.8926 36.2246C72.3243 35.8189 72.8434 35.5173 73.4097 35.3432C73.9761 35.169 74.5748 35.1268 75.16 35.2198C75.341 35.2424 75.5421 35.0891 75.7331 35.0163C75.8005 34.9818 75.8766 34.9678 75.9518 34.976C76.3932 34.9899 76.8349 34.963 77.2714 34.8957C77.8319 34.7576 78.5431 34.6646 78.332 33.7653L78.2163 33.5141C78.0957 32.851 77.5227 32.9815 77.1532 33.0318C76.1152 33.1674 75.1072 32.974 74.0918 32.8786C73.7475 32.8459 73.4409 32.8183 73.167 33.0594L68.4568 32.7228C68.9143 31.4869 69.3944 30.2586 69.6281 28.9976C69.5263 28.9014 69.4005 28.8344 69.2639 28.8034C69.1272 28.7725 68.9849 28.7788 68.8515 28.8217C67.1273 29.1583 66.5643 30.0175 66.4437 32.5018C65.4383 32.7053 64.5184 31.7758 63.5005 32.3159C63.6035 30.7283 63.6085 29.0955 65.4357 28.3495L70.1961 28.2013C71.1838 28.1711 72.2069 28.342 73.1142 27.7969C73.171 27.7503 73.2368 27.7163 73.3076 27.6969C73.3784 27.6775 73.4525 27.6733 73.5251 27.6844C73.5976 27.6955 73.667 27.7218 73.7287 27.7615C73.7904 27.8013 73.8432 27.8535 73.8833 27.9149C74.4689 28.7012 75.248 28.3269 75.8814 28.1285C76.1678 28.0722 76.4591 28.0444 76.751 28.0456C78.146 27.827 79.4303 28.5931 80.8026 28.4449H80.7674L81.0465 28.7238L81.0213 28.7037L81.4109 28.9699C81.9537 30.6454 82.4288 32.3235 81.4838 34.0215C81.085 35.7799 80.6845 37.5383 80.2824 39.2967L80.2975 39.264C80.207 39.4424 80.1165 39.6207 80.0235 39.7991L80.0436 39.784C79.6113 39.8443 79.5183 40.1507 79.5133 40.52C78.895 41.4218 78.0053 41.9293 76.9999 42.2583C75.9744 41.9066 75.052 42.6929 74.0316 42.5296C73.8079 42.4818 73.7702 42.7783 73.745 42.9868Z" fill="#7D7F6C"/>
<path d="M78.6638 103.618C79.9029 102.548 80.0084 100.938 80.5463 99.5489C81.1344 98.0417 80.961 96.3361 81.4662 94.7761C81.7326 93.9472 81.1344 93.1534 81.0715 92.332C80.7574 88.2023 79.3625 84.3891 77.7263 80.6387C77.6689 80.4345 77.6326 80.2249 77.6182 80.0133C78.6663 80.0434 79.4831 80.4026 79.9757 81.2039C80.9032 82.7111 81.5491 84.3414 81.5139 86.1551C81.4938 87.1272 81.7024 88.0441 81.9387 89.0891C82.8259 88.7424 83.4644 88.3355 83.4191 87.391C83.1678 82.3444 87.0887 80.684 90.7557 80.2369C92.5151 80.0208 93.5833 78.2675 92.681 76.6975C91.8993 75.3385 91.6153 73.6831 90.2782 72.6407C89.7755 72.2563 90.5521 71.8067 90.3108 71.3847C90.8487 71.0129 91.4645 70.9802 92.221 70.9174C92.6131 73.7911 94.576 75.7806 96.177 77.9711C96.7048 78.6895 96.5641 79.0663 95.9257 79.6164C94.7595 80.6363 93.5832 81.1412 91.9495 80.8724C90.0318 80.5534 88.2247 81.1236 86.6714 82.3796C84.5401 84.0802 84.3315 86.3334 86.1687 88.4611C85.8805 89.0833 85.5574 89.6888 85.2011 90.2747C84.1656 91.7944 84.5828 93.3443 85.1533 94.8289C85.4952 95.7156 86.4528 95.9518 87.34 96.0121C87.56 96.0124 87.7755 96.0732 87.9631 96.188C88.1507 96.3028 88.3029 96.467 88.4032 96.6626C89.5543 98.4034 90.8938 99.8554 93.3142 99.0918C93.8345 98.926 94.1965 99.3655 94.5258 99.6268C95.2798 100.237 95.9584 100.129 96.8003 99.77C98.2506 99.142 99.7838 98.6923 100.877 97.3986C101.603 98.9862 100.54 100.629 98.9468 100.539C98.5974 100.518 98.2481 100.38 98.1073 100.79C97.4463 102.747 95.8603 102.548 94.3649 102.315C93.3872 102.159 92.7513 102.096 92.1808 103.174C91.6354 104.204 90.351 104.078 88.8203 103.088C88.1241 103.561 87.9457 104.445 87.33 105.017C86.5257 105.771 85.6886 106.093 84.731 105.56C83.8614 105.075 83.3462 105.309 82.8737 106.062C82.6907 106.345 82.4467 106.584 82.1597 106.76C81.8727 106.936 81.5499 107.047 81.2149 107.082C80.3452 107.218 79.6541 107.045 79.4128 106.017C79.2243 105.196 78.9177 104.412 78.6638 103.618ZM82.2504 97.5569C82.0845 97.4891 81.8432 97.2505 81.7979 97.6222C81.5918 99.2625 80.9433 100.77 80.2496 102.327C81.2098 102.345 81.4084 101.473 82.0368 101.26C83.2356 101.227 82.9063 100.124 83.2431 99.5012C84.3691 97.4338 84.1581 96.2155 82.4339 94.53C82.2454 95.07 82.1825 95.6503 82.474 96.0924C82.8762 96.7154 82.5193 97.1022 82.2504 97.5544V97.5569ZM83.972 101.93C86.6638 102.337 89.9036 101.089 90.7003 99.4836C88.3729 99.8955 86.508 101.297 83.972 101.93Z" fill="#C85C18"/>
<path d="M90.2104 117.874C90.2959 116.994 89.6825 116.465 89.0416 116.035C87.9698 115.288 86.7012 114.873 85.3947 114.844C83.1804 114.817 80.9561 114.704 78.8599 115.507C78.2994 115.005 78.2165 114.385 77.8747 113.709C79.1881 113.525 80.5121 113.428 81.8383 113.417C86.978 113.222 92.0826 112.484 97.0669 111.214C97.8737 111.013 98.13 111.335 98.12 112.099C98.0771 113.937 97.8138 115.764 97.3358 117.54C97.004 118.858 95.9936 119.461 94.8224 119.723C89.5122 120.926 84.0349 121.21 78.6287 120.562C78.1059 120.499 77.5102 120.401 77.3092 119.77C77.1081 119.14 77.485 118.743 77.8671 118.336C80.2422 115.824 83.1276 115.46 86.2744 116.402C87.3451 116.721 88.4384 117.055 89.3432 117.783C89.5669 117.959 89.8259 118.153 90.2104 117.874Z" fill="#27393A"/>
<path d="M49.6216 38.0206C48.2694 40.4522 45.9772 41.2058 43.4261 41.4268C41.1012 41.6278 38.8718 41.1153 36.6927 40.3517C35.7477 40.0226 35.0942 39.3243 34.5086 38.5506C35.0841 38.4125 35.8507 38.6988 36.1397 37.9151C36.391 37.2318 35.8381 36.8374 35.436 36.4355C34.9911 35.9909 35.0515 35.4508 35.0414 34.9132C35.0088 32.9037 35.7427 30.9645 35.5441 28.9423V28.9574C35.6398 28.8554 35.7118 28.7338 35.7552 28.601C35.7986 28.4682 35.8124 28.3274 35.7955 28.1887V28.2013L36.0468 27.6838C37.1401 27.8421 38.246 27.0257 39.3343 27.719C38.9397 28.1837 38.5124 28.6283 38.153 29.1232C37.399 30.1707 37.3789 31.3261 38.0726 32.1551C37.8062 33.1599 38.6255 33.2378 39.2161 33.4513C40.6086 33.9537 42.0713 34.0441 43.1772 35.4232C44.3585 36.8952 46.1254 36.5184 47.0679 34.863C47.548 34.0165 48.2669 33.6799 49.134 33.494C49.7472 34.0115 50.3907 33.0796 51.0391 33.5242C50.9487 34.956 50.2223 36.2044 49.8981 37.5659C49.9099 37.5946 49.9142 37.626 49.9102 37.6568C49.9062 37.6877 49.8943 37.7169 49.8755 37.7417L49.6216 38.0206Z" fill="#7D7F6C"/>
<path d="M102.363 88.1244C103.546 87.4436 104.745 86.7855 105.911 86.0746C108.329 84.6001 110.31 82.7538 110.938 79.8349C111.692 76.3658 110.966 75.7077 107.419 74.7305C106.105 74.3688 104.672 74.8612 103.398 75.3962C103.048 75.5448 102.741 75.7792 102.505 76.0778C102.27 76.3763 102.114 76.7294 102.051 77.1044C101.161 77.7701 100.063 77.019 99.1881 77.5942C98.7256 77.1948 98.7006 76.6598 98.5196 76.2126C98.1351 75.2631 98.3562 74.4542 99.349 74.0372C103.054 72.4798 106.874 71.5479 110.936 71.9574C112.059 72.0704 112.657 72.5853 112.972 73.7484C114.228 78.4031 114.042 82.7764 110.752 86.6071C109.183 88.4676 107.187 89.9207 104.934 90.8424C103.81 91.297 103.401 91.0232 103.064 89.8552C102.863 89.2655 102.629 88.6876 102.363 88.1244Z" fill="#27393A"/>
<path d="M41.7898 101.071C44.2504 100.747 46.681 101.285 49.1265 101.378C52.8811 101.502 56.6398 101.347 60.3713 100.913C63.1537 100.601 65.9561 100.335 68.5197 99.0465C69.2737 98.6722 70.0027 98.2778 70.7366 97.8809C71.3851 97.5293 71.4579 96.9138 71.4906 96.2632C71.5771 94.0052 71.4042 91.7447 70.9753 89.5261C70.5103 87.1598 70.7843 84.7709 70.7441 82.3921C70.7114 80.3498 70.8044 78.3051 70.0705 76.3307C69.9511 76.0588 69.9077 75.7596 69.9449 75.4651C69.9821 75.1705 70.0985 74.8915 70.2817 74.6577C70.3875 74.9746 70.5212 75.2814 70.6813 75.5746C72.1239 77.7826 72.403 80.2217 72.2547 82.7865C72.1484 84.3775 72.321 85.9748 72.7649 87.5065C73.7225 90.6741 73.8179 93.9195 73.9712 97.1725C74.0391 98.6069 74.567 99.9357 75.0998 101.38C73.2474 101.596 71.4855 101.845 69.7136 101.996C64.5486 102.43 59.3861 103.03 54.1909 102.749C50.3103 102.543 46.4321 102.282 42.6042 101.536C42.2724 101.476 41.9481 101.433 41.7898 101.071Z" fill="#0C324F"/>
<path d="M36.7706 111.855C40.4427 111.91 44.0921 112.498 47.7742 112.342C48.5282 112.312 48.8198 112.79 48.8374 113.458C48.8945 114.462 48.8988 115.468 48.85 116.472C48.757 117.678 47.8195 118.143 46.8016 118.331C41.4506 119.323 36.0468 118.753 30.6656 118.833C30.3315 118.815 30.0024 118.743 29.6904 118.622C29.1727 118.454 28.6323 118.296 28.5393 117.618C28.4538 116.987 28.9214 116.733 29.3336 116.46C31.206 115.216 33.1614 114.603 35.3456 115.668C35.7628 115.869 36.2202 115.962 36.65 115.613C36.9013 114.809 35.8583 114.709 35.8005 114.076C36.4062 113.945 37.0044 114.525 37.6076 114.116C37.9067 113.129 36.9013 112.661 36.7706 111.855Z" fill="#27393A"/>
<path d="M88.8933 20.6252C88.0363 20.2283 87.7799 19.3366 87.3853 18.6156C86.1789 16.4252 84.4471 15.3501 81.9187 15.0034C71.0256 13.5365 60.0874 13.564 49.1391 13.6871C42.7852 13.7575 38.8342 18.0379 37.2482 23.0568C36.3132 23.3507 36.464 22.6072 36.5822 22.2203C37.7484 18.4524 39.5128 15.0537 43.0868 13.0265C44.603 12.1261 46.4002 11.8216 48.1287 12.1724C49.134 12.4036 50.1394 12.6497 51.0869 11.9966C54.7213 11.6675 58.3556 11.9137 61.99 11.9539C64.6492 11.984 67.2858 12.3683 69.9575 12.3683C72.4357 12.3683 74.9617 12.3683 77.3921 12.9335C79.433 13.3957 81.5141 13.5339 83.555 13.9383C85.6712 14.3679 87.0737 15.5234 87.8277 17.5355C88.2223 18.5679 88.7476 19.53 88.8933 20.6252Z" fill="#9A987E"/>
<path d="M15.7613 88.4033C15.6708 87.9738 15.7989 87.4688 15.1882 87.0493C14.6349 89.5458 15.0785 92.1596 16.4247 94.334C15.1882 95.1429 14.5674 95.0525 13.8058 93.8894C12.7527 92.2868 12.5692 90.4681 12.5918 88.6143C12.6496 83.7084 14.7659 79.4104 16.6485 75.0496C17.498 73.0804 18.5359 71.1977 19.7475 69.4279L21.4038 70.4326C21.4465 71.0883 21.1701 71.6334 20.8559 72.191C18.1842 76.9387 16.0805 81.8646 16.176 87.4588C16.1835 87.8331 16.264 88.2601 15.7613 88.4033Z" fill="#5A6258"/>
<path d="M51.8434 31.4593C51.7605 31.8839 51.68 32.3109 51.5921 32.7354C51.0668 32.8058 50.813 31.5699 50.1218 32.429C48.8501 32.5144 47.6084 31.9919 46.3266 32.2431C44.2608 32.6284 42.1494 32.7071 40.0607 32.4767C39.7892 30.9142 40.6564 29.8291 41.614 28.7816C41.9558 28.4073 42.5188 28.1008 42.0714 27.4527V27.2016L44.5497 27.179C45.2082 26.7947 46.2587 27.2116 46.6005 26.1742C48.39 26.4254 50.1972 26.6163 51.6273 27.8974C51.6524 29.0956 51.386 30.2988 51.8434 31.4593Z" fill="#7D7F6C"/>
<path d="M89.2855 34.5189C89.0769 34.5189 88.8684 34.5013 88.6598 34.4862C86.1614 34.3003 86.1187 34.2928 85.6185 36.747C85.0631 39.47 83.9572 41.9192 82.0998 43.9715C79.9483 46.3453 77.0227 47.0913 74.0042 47.5083C72.5552 47.6867 71.0907 47.7019 69.6384 47.5535C67.6553 47.3827 66.1623 46.2147 64.5713 45.235C64.1717 44.9838 64.2396 44.6045 64.501 44.2553C66.6047 44.7728 68.6406 45.5113 70.8473 45.6419C73.5995 45.7927 76.2912 45.6168 78.7996 44.4261C81.4211 43.1827 82.8939 40.927 83.7108 38.2291C84.2135 36.5486 84.5956 34.8279 84.5403 33.0544C84.5126 32.0948 84.9122 31.6477 85.8824 31.7331C86.2971 31.7683 86.7193 31.7457 87.1391 31.811C88.8809 32.0923 89.3534 32.6877 89.2855 34.5189Z" fill="#27393A"/>
<path d="M47.0153 44.7351C42.4912 46.1971 38.1305 45.7097 33.908 43.6148C33.6044 43.4848 33.293 43.3741 32.9755 43.2832C33.2269 42.6878 33.5713 42.2457 34.2876 42.2784C36.2983 42.821 38.2386 43.67 40.3322 43.9061C43.7479 44.293 47.0103 44.0217 49.863 41.7885C51.7028 40.3492 52.6705 38.3848 53.3541 36.2622C53.8015 34.8731 54.0503 33.4212 54.4549 32.0145C54.7565 30.972 55.6588 30.7258 57.4408 31.0097C58.4462 31.1705 58.5015 31.7859 58.3306 32.5721C58.0089 32.4917 57.6898 32.4013 57.363 32.3335C55.9103 32.0371 55.7292 32.14 55.5231 33.6196C55.1426 36.0482 54.3639 38.3974 53.2184 40.5727C52.2356 42.517 50.1747 43.5243 48.1489 44.3407C47.3421 43.2957 47.4174 44.6647 47.0153 44.7351Z" fill="#27393A"/>
<path d="M15.7613 88.4033C16.264 88.2551 16.1835 87.8331 16.176 87.4714C16.088 81.8772 18.1867 76.9512 20.8559 72.2036C21.1701 71.6459 21.4465 71.1008 21.4038 70.4452C23.6055 71.2616 23.593 71.2515 22.3287 73.1682C20.7601 75.4807 19.5018 77.989 18.5863 80.6288C17.3899 84.2033 17.5482 87.7527 18.4204 91.3423C18.5284 91.7844 19.0512 92.4425 18.1992 92.7038C17.4955 92.9198 17.121 92.3848 16.8696 91.8347C16.3644 90.7369 15.9071 89.6191 15.7613 88.4033Z" fill="#27393A"/>
<path d="M29.2632 57.0915C30.1303 58.9705 29.2432 60.2717 27.9412 61.5628C26.0763 63.4091 24.0957 65.1474 22.4847 67.2248C21.8287 67.2248 21.5371 65.5795 20.7253 66.8757C19.911 66.421 19.8606 65.9462 20.494 65.2027C22.8214 62.4697 25.0558 59.6587 27.8859 57.403C28.278 57.0789 28.655 56.5414 29.2632 57.0915Z" fill="#175071"/>
<path d="M65.4358 28.347C63.6085 29.1006 63.6036 30.7258 63.5005 32.3134V32.3862C62.8948 33.4388 63.4503 34.6646 62.9978 35.7397C62.6661 35.6769 62.4273 36.1039 62.0704 35.9256C61.7386 34.9892 61.5975 33.9959 61.6556 33.0042C61.7134 31.9014 62.0904 30.7761 61.6556 29.6683C61.5299 28.455 62.5454 27.9652 63.1938 27.2417C63.3723 27.3296 63.5507 27.4929 63.7292 27.4929C65.8404 27.4929 67.9509 27.4737 70.0605 27.4352C70.2982 27.3894 70.5267 27.3045 70.7366 27.184C74.1347 27.2518 77.5529 27.1413 80.7901 28.4399C79.4178 28.5882 78.1335 27.822 76.7385 28.0405C76.4466 28.0394 76.1553 28.0672 75.8689 28.1234C75.2355 28.3219 74.4563 28.6961 73.8707 27.9099C73.8305 27.8485 73.7779 27.7962 73.7162 27.7565C73.6545 27.7168 73.585 27.6905 73.5125 27.6794C73.4399 27.6682 73.3659 27.6725 73.2951 27.6919C73.2243 27.7112 73.1584 27.7453 73.1016 27.7918C72.1892 28.3369 71.1713 28.1661 70.1836 28.1962C69.04 27.621 67.8134 28.0053 66.6296 27.8998C66.1948 27.8622 65.7022 27.8345 65.4358 28.347Z" fill="#9A987E"/>
<path d="M70.2867 73.9418C69.9223 73.5851 69.985 73.2133 70.4048 73.0375C71.2568 72.6808 71.9857 71.975 73.0891 72.3392C73.8431 72.5904 74.5745 72.4397 75.2104 71.7087C75.8463 70.9777 76.8919 70.7516 77.842 70.7039C80.3553 70.5582 82.6022 69.4253 85.0201 68.9204C86.2064 68.6692 87.3275 68.217 88.5515 68.536C88.9963 68.6516 89.3708 68.4909 89.7679 68.3753C89.8358 69.5208 89.0265 69.9327 88.1745 69.792C86.9178 69.586 85.9124 69.7318 84.9071 70.513C84.4396 70.8772 83.7711 70.6687 83.193 70.6311C82.2806 70.5708 81.4586 70.6888 80.8253 71.4575C80.2799 72.1232 79.551 71.9975 78.8673 71.7438C77.5604 71.259 76.5174 71.5755 75.6377 72.6356C75.1225 73.2535 74.3961 73.5977 73.627 73.3565C72.3703 72.9596 71.3272 73.359 70.2867 73.9418Z" fill="#0C324F"/>
<path d="M44.5571 27.184L42.0789 27.2066C41.2922 27.1664 40.4954 27.0282 39.7213 27.1086C38.4847 27.2392 37.1451 26.7921 36.0341 27.6964C35.933 27.7328 35.8501 27.8074 35.8032 27.904C35.7562 28.0007 35.7489 28.1119 35.7828 28.2139V28.2013C35.4309 28.3696 35.4033 28.6459 35.5315 28.97V28.9549C35.1419 29.8416 35.1168 30.7911 35.0414 31.7331C34.9937 31.7331 34.9458 31.7507 34.8981 31.7633C33.9958 32.8409 34.1441 34.024 34.5311 35.2424V35.7448C34.4799 35.7907 34.4388 35.8467 34.4101 35.9092C34.3815 35.9718 34.3659 36.0395 34.3645 36.1082C34.3631 36.177 34.3758 36.2453 34.4019 36.309C34.428 36.3726 34.4668 36.4303 34.516 36.4783C34.516 37.0259 34.7447 37.6086 34.2496 38.0708C33.7746 37.272 33.3171 36.4657 33.2443 35.5061C33.6037 34.7726 33.2996 34.0542 33.1865 33.3358C32.9331 31.9886 32.9648 30.6032 33.2795 29.2689C33.8777 26.9528 34.6895 26.3374 37.1652 26.3023C37.4391 26.7695 37.7055 26.7494 37.9569 26.2822H38.6607C38.912 26.7695 39.387 26.6087 39.7816 26.6188C40.9956 26.6489 42.2096 26.6364 43.421 26.6665C43.8609 26.6891 44.3937 26.5434 44.5571 27.184Z" fill="#CAC098"/>
<path d="M97.6099 93.2413C98.4142 93.2187 98.5247 92.5078 98.8539 92.0029C99.5451 90.9529 99.7638 89.5537 101.083 88.9659C101.631 90.0235 101.724 91.1313 101.174 92.1838C100.131 94.1934 98.9118 96.0572 96.9463 97.3107C96.4562 97.6247 95.9058 98.0643 95.3754 97.5317C94.7999 96.9565 95.393 96.4717 95.6997 96.0246C96.3255 95.08 96.9715 94.1632 97.6099 93.2413Z" fill="#27393A"/>
<path d="M36.7706 111.855C36.9013 112.661 37.9067 113.139 37.6076 114.116C37.0044 114.525 36.4062 113.945 35.8005 114.076C34.5086 113.779 33.2645 113.239 31.8997 113.299C31.397 113.322 31.1457 113.031 30.9949 112.601C30.7234 111.865 30.4419 111.129 30.1001 110.23L36.7706 111.855Z" fill="#5A6258"/>
<path d="M107.756 92.1185C107.88 93.9547 107.357 94.9721 105.944 95.5624C104.77 96.0522 103.551 96.434 102.335 96.8736C102.084 94.8188 103.059 93.3217 104.848 93.0504C105.839 92.8997 106.696 92.3596 107.756 92.1185Z" fill="#0C324F"/>
<path d="M34.2875 42.2658C33.5712 42.2457 33.2142 42.6879 32.9754 43.2706C32.2441 43.6349 31.9702 44.3357 31.6635 45.029C30.7235 47.232 30.364 49.5657 30.1177 51.9244C29.5245 51.6305 29.7207 51.0302 29.6955 50.5931C29.5656 48.8773 29.7948 47.1532 30.3687 45.5309C30.9425 43.9086 31.8482 42.4236 33.0282 41.1707L34.2875 42.2658Z" fill="#9A987E"/>
<path d="M61.6658 29.6683C62.0956 30.7761 61.7186 31.9014 61.6658 33.0042C61.6077 33.9959 61.7488 34.9892 62.0806 35.9256C62.4375 36.1039 62.6762 35.6744 63.008 35.7397C62.5707 36.7445 62.6008 37.8171 62.6812 38.8847C60.9042 35.9708 60.3664 32.9188 61.6658 29.6683Z" fill="#CAC098"/>
<path d="M35.0465 31.7407C35.1219 30.7987 35.147 29.8491 35.5365 28.9624C35.7426 30.9845 35.0087 32.9263 35.0339 34.9334C35.0339 35.4709 34.9837 36.011 35.4285 36.4556C35.8307 36.8576 36.3811 37.2519 36.1322 37.9352C35.8432 38.7189 35.0766 38.4376 34.501 38.5707C34.4116 38.5294 34.3385 38.4597 34.293 38.3724C34.2475 38.2852 34.2322 38.1853 34.2497 38.0884C34.7523 37.6262 34.5261 37.0434 34.5161 36.4958L34.5312 35.7623V35.2599C34.6485 34.2551 34.765 33.2504 34.8806 32.2456L35.0465 31.7407Z" fill="#5A6258"/>
<path d="M37.1703 26.3073C34.6946 26.3425 33.8828 26.9579 33.2846 29.2739C32.9699 30.6082 32.9382 31.9936 33.1916 33.3408C33.3047 34.0593 33.6088 34.7777 33.2494 35.5112C32.4338 33.0997 32.4338 30.4872 33.2494 28.0757C33.7822 26.4731 34.9384 25.9707 36.4313 25.9481C38.2284 25.9179 40.028 25.9481 41.8251 25.9657C40.8323 26.6238 39.7189 26.134 38.6708 26.2922H37.967L37.1703 26.3073Z" fill="#D9D0A5"/>
<path d="M38.6658 26.2922C39.7139 26.134 40.8273 26.6238 41.8201 25.9657C43.4194 25.8927 45.0221 25.9658 46.6081 26.1842C46.2663 27.2166 45.2157 26.7996 44.5572 27.1889C44.3938 26.5484 43.8559 26.6866 43.4261 26.6866C42.2147 26.6564 41.0007 26.669 39.7868 26.6388C39.3922 26.6187 38.9247 26.7795 38.6658 26.2922Z" fill="#9A987E"/>
<path d="M50.1293 32.429C50.8205 31.5699 51.0743 32.8058 51.5996 32.7354C51.3483 34.0065 51.1673 35.2951 50.6094 36.4858C50.4209 36.8852 50.3581 37.365 49.8855 37.5785C50.2098 36.217 50.936 34.9686 51.0265 33.5367C50.368 33.0921 49.7347 34.0241 49.1215 33.5066C49.5437 33.2755 50.0615 33.2077 50.3932 32.8183C50.725 32.429 50.2675 32.5244 50.1293 32.429Z" fill="#9A987E"/>
<path d="M70.7542 27.1739C70.5443 27.2945 70.3158 27.3794 70.0781 27.4251C67.9702 27.462 65.8598 27.4812 63.7469 27.4829C63.5684 27.4829 63.39 27.3196 63.2115 27.2317C64.9382 26.674 66.7076 27.0383 68.4569 26.9805L68.8289 27.0081L70.7542 27.1739Z" fill="#D9D0A5"/>
<path d="M80.2825 39.2766C80.6847 37.5149 81.0851 35.7565 81.4839 34.0015C81.6921 35.8451 81.2686 37.7047 80.2825 39.2766Z" fill="#9A987E"/>
<path d="M94.8124 71.1787C95.7147 71.5705 95.8931 72.613 96.6044 73.1883L96.0012 73.864C95.3915 73.0793 94.9833 72.1574 94.8124 71.1787Z" fill="#0C324F"/>
<path d="M51.8435 31.4593C51.386 30.2988 51.645 29.0956 51.64 27.9074C52.5624 29.0428 51.9038 30.2686 51.8435 31.4593Z" fill="#9A987E"/>
<path d="M73.7451 42.9868C73.7577 42.7783 73.808 42.4843 74.0216 42.517C75.0421 42.6803 75.9645 41.8941 76.99 42.2457C75.9581 42.6743 74.8609 42.9248 73.7451 42.9868Z" fill="#9A987E"/>
<path d="M51.0894 12.0016C50.1393 12.6547 49.1341 12.4086 48.1313 12.1775L48.6163 12.1398L48.9153 12.0946L51.0894 12.0016Z" fill="#D9D0A5"/>
<path d="M79.5134 40.5075C79.5134 40.1382 79.6114 39.8318 80.0437 39.7715C79.8652 40.0151 79.6893 40.2613 79.5134 40.5075Z" fill="#9A987E"/>
<path d="M80.0235 39.779C80.1165 39.6006 80.2071 39.4223 80.2975 39.244C80.3035 39.3494 80.2811 39.4545 80.233 39.5486C80.1848 39.6426 80.1125 39.7221 80.0235 39.779Z" fill="#9A987E"/>
<path d="M84.8292 59.3875C84.7462 59.4352 84.6758 59.5733 84.5627 59.4226L84.7512 59.2945L84.8292 59.3875Z" fill="#27393A"/>
<path d="M81.0591 28.7087L80.7802 28.4299C80.9259 28.4551 81.0591 28.4977 81.0591 28.7087Z" fill="#9A987E"/>
<path d="M81.411 28.9549L81.0215 28.6887C81.2351 28.656 81.3306 28.7916 81.411 28.9549Z" fill="#9A987E"/>
<path d="M49.6216 38.0206L49.873 37.7468C49.8755 37.9251 49.7598 37.9879 49.6216 38.0206Z" fill="#9A987E"/>
<path d="M28.2051 113.651L28.2751 113.608L28.2225 113.628C28.2173 113.636 28.2115 113.644 28.2051 113.651Z" fill="#2588A3"/>
<path d="M48.9153 12.0945L48.6162 12.1397C48.6966 12.0091 48.7896 11.9413 48.9153 12.0945Z" fill="#9A987E"/>
<path d="M50.0992 70.0785C53.4621 70.4402 56.8275 70.7793 60.1879 71.1712C62.3444 71.4224 63.8223 72.608 64.888 74.5071C66.0993 76.7024 67.1419 78.9865 68.0071 81.3396C68.6153 82.9649 68.3766 84.2988 67.0319 85.5095C61.9875 90.0311 56.8351 94.427 50.9462 97.8584C50.2955 98.2415 49.6242 98.5887 48.9355 98.8984C47.616 99.4862 46.4221 99.3254 45.1654 98.5191C39.6359 95.0023 35.9237 89.8803 32.5332 84.467C31.7515 83.211 31.852 81.8998 32.7116 80.6991C33.5712 79.4983 34.4483 78.3454 35.3179 77.1823C35.4385 76.9311 35.7277 76.7653 35.6171 76.381C34.1669 75.8359 32.513 75.7128 31.2563 74.6226C32.6086 74.605 33.8401 75.223 35.1697 75.3636C36.072 75.4566 36.7229 75.2632 37.3437 74.5322C38.8517 72.7738 40.2467 70.8547 42.5791 70.0508C45.0875 69.8323 47.5933 69.9479 50.0992 70.0785ZM47.2993 71.6485C46.7428 71.6839 46.1844 71.6839 45.6278 71.6485C43.039 71.2491 41.242 72.4322 39.6611 74.3538C37.854 76.5493 36.0771 78.7598 34.4333 81.0809C33.6919 82.1284 33.5385 83.1207 34.2674 84.1958C37.394 88.8002 40.5508 93.3519 45.198 96.6551C46.6608 97.6951 47.9629 97.8508 49.4458 96.9691C49.6267 96.8636 49.8101 96.7631 49.9886 96.6551C56.0082 93.1132 61.3215 88.6822 66.293 83.8089C66.8509 83.2613 66.7579 82.7087 66.5568 82.0907C65.7139 79.602 64.6191 77.2057 63.2894 74.9391C62.9549 74.3082 62.4666 73.7718 61.8695 73.3796C61.2724 72.9875 60.586 72.7524 59.8738 72.696C55.5884 72.2413 51.3283 71.5606 47.2993 71.6485Z" fill="#1D2831"/>
<path d="M31.2563 74.6125C32.513 75.6952 34.1669 75.8183 35.6171 76.3709C35.7277 76.7552 35.4385 76.9286 35.3179 77.1723C32.9427 76.9211 30.9673 75.9816 29.6075 73.9594C30.2887 73.9017 30.8969 73.977 31.2563 74.6125Z" fill="#0C324F"/>
<path d="M50.0992 70.0785C47.5858 69.9479 45.0875 69.8273 42.5792 70.0408C42.6653 69.9217 42.7787 69.8249 42.9099 69.7585C43.0411 69.6921 43.1861 69.6579 43.3332 69.659C45.359 69.659 47.3848 69.659 49.4106 69.659C49.5547 69.6492 49.6983 69.6843 49.8216 69.7594C49.9449 69.8345 50.0419 69.946 50.0992 70.0785Z" fill="#1C668C"/>
<path d="M29.2834 62.1205L29.5347 61.8693C29.5347 62.0426 29.4669 62.1355 29.2834 62.1205Z" fill="#1D2831"/>
<path d="M47.0152 44.7351C47.4173 44.6648 47.342 43.2933 48.1488 44.3182C48.1488 44.4614 48.1487 44.607 48.1361 44.7502L48.3096 45.0517C48.4378 45.3983 48.561 45.7475 48.7193 46.1695C53.1554 43.5495 57.5689 44.9587 61.9825 46.2499C62.4374 45.5917 62.3494 44.6422 63.4428 44.1273C63.1914 47.6164 63.0431 50.9899 65.4032 54.0144C64.2495 54.0495 63.7946 53.4115 63.3121 52.9041C62.2866 51.8264 61.8618 50.4574 61.7487 49.0206C61.6909 48.2846 61.3566 47.9881 60.7107 47.855C57.0336 47.1014 53.359 46.692 49.6518 47.7093C48.9297 47.8849 48.301 48.3274 47.8924 48.9477C46.9448 50.2941 46.0877 51.7812 44.3485 52.3112C45.7787 50.01 46.6888 47.4244 47.0152 44.7351Z" fill="#1D2831"/>
<path d="M46.6004 58.8448C45.8288 57.8602 45.7283 56.6444 45.296 55.3934C46.0751 55.3708 46.5049 55.7727 46.9573 56.0842C52.7105 60.028 57.2069 60.0255 63.0631 56.0842C63.1433 56.0522 63.2282 56.0336 63.3145 56.0289C63.5281 56.3731 63.4577 56.7373 63.4099 57.1016C62.7389 57.9933 62.1533 58.9177 61.256 59.6638C58.2274 62.1983 50.7903 61.7336 47.5882 59.3699C47.2766 59.1363 47.0001 58.87 46.6004 58.8448Z" fill="#1D2831"/>
<path d="M46.6006 58.8448C47.0002 58.8775 47.2766 59.1362 47.5808 59.3472C50.7828 61.711 58.22 62.1757 61.2487 59.6411C62.1434 58.8876 62.7315 57.9707 63.4026 57.0789C63.953 57.8325 63.4805 58.5635 63.1814 59.194C62.1761 61.3392 60.4343 62.6078 58.1043 63.0725C56.6164 63.3689 54.9802 63.7105 53.6306 63.2408C51.0016 62.339 47.9804 61.8265 46.6006 58.8448Z" fill="#27393A"/>
<path d="M36.5972 50.7689V52.3087C35.9211 52.5599 35.5466 52.1956 35.2324 51.7435C35.1447 51.6247 35.0986 51.4804 35.1013 51.3328C35.1041 51.1852 35.1554 51.0425 35.2475 50.9271C35.5843 50.4875 36.0242 50.5503 36.5972 50.7689Z" fill="#27393A"/>
<path d="M51.2855 53.2959C51.9691 53.8435 52.9368 53.8309 52.7408 54.8257C52.6653 55.21 52.1752 55.3583 51.8007 55.1925C51.024 54.8509 51.0794 54.2028 51.2855 53.2959Z" fill="#27393A"/>
<path d="M33.5989 47.7369C33.996 46.8426 34.5364 46.6316 35.1874 46.7321C35.2492 46.7463 35.3067 46.775 35.3552 46.8158C35.4037 46.8565 35.4418 46.9083 35.4664 46.9667C35.4909 47.0251 35.5011 47.0885 35.4963 47.1516C35.4915 47.2148 35.4719 47.276 35.4388 47.33C35.0215 47.9756 34.3881 47.752 33.5989 47.7369Z" fill="#27393A"/>
<path d="M82.64 51.4999C82.2881 50.8493 81.6673 50.4449 82.1222 49.7566C82.2554 49.5556 82.6248 49.6411 82.7782 49.8496C83.1376 50.3294 83.3211 50.8317 82.64 51.4999Z" fill="#27393A"/>
<path d="M76.741 50.5126C76.6455 51.0854 76.6606 51.7686 75.6628 51.6932C75.7487 51.4314 75.8893 51.1908 76.0751 50.9872C76.261 50.7837 76.4879 50.6219 76.741 50.5126Z" fill="#27393A"/>
<path d="M44.3383 52.3112L44.2808 52.3812L44.3433 52.3187L44.3383 52.3112Z" fill="#1D2831"/>
<path d="M42.1946 22.3082C43.5443 20.1329 45.6957 19.8415 47.9301 19.8591C49.3276 19.8591 50.7426 19.9872 51.6148 21.5195C48.4152 21.2256 45.2459 20.9141 42.1946 22.3082Z" fill="#1D2831"/>
<path d="M74.1171 23.0769C71.2367 21.8486 68.3363 21.4743 65.2775 22.2882C66.3909 20.997 67.8563 20.6478 69.4322 20.6905C71.3373 20.7433 73.1394 21.1 74.1171 23.0769Z" fill="#1D2831"/>
<path d="M76.7662 78.1067C77.8495 77.0743 79.2796 77.0767 80.6193 76.8632C84.1154 76.3081 87.5135 75.356 90.9241 74.4241C88.8581 75.9564 86.3372 76.4337 84.0224 77.3908C83.017 77.2978 82.0468 77.5741 81.0817 77.8253C79.6666 78.1971 78.2315 78.3855 76.7662 78.1067Z" fill="#1D2831"/>
<path d="M76.7662 78.1067C78.2315 78.3855 79.6666 78.1971 81.0867 77.8253C82.0518 77.5741 83.012 77.2978 84.0274 77.3908C82.0167 78.5714 79.9105 79.3401 77.5253 78.6468C77.2061 78.5488 76.8617 78.5086 76.7662 78.1067Z" fill="#C85C18"/>
<path d="M63.503 32.3863V32.3134C64.5083 31.7734 65.4483 32.7028 66.4461 32.4993C67.0994 32.684 67.779 32.7587 68.4568 32.7203L73.167 33.057C74.8233 33.5016 76.5223 33.4815 78.2164 33.5117L78.332 33.7629C77.7011 34.4863 76.6531 34.3884 75.9518 34.9736C75.8766 34.9654 75.8005 34.9793 75.7332 35.0138H72.4657C72.2873 35.3981 72.0987 35.8101 71.9077 36.2196L70.9652 36.8928C70.2209 37.0981 69.4269 37.0212 68.7359 36.6767C68.1352 36.217 67.6526 35.6895 67.6601 34.8681C67.6601 34.5993 67.5798 34.3456 67.2907 34.2979C65.8204 34.0542 64.6616 33.2203 63.503 32.3863Z" fill="#1D2831"/>
<path d="M68.4569 32.7203C67.7791 32.7586 67.0995 32.684 66.4462 32.4993C66.5669 30.0149 67.1299 29.1559 68.8541 28.8193C68.9874 28.7763 69.1299 28.77 69.2666 28.8009C69.4032 28.8319 69.5289 28.8989 69.6307 28.9951C69.3944 30.2561 68.9144 31.4894 68.4569 32.7203Z" fill="#9A987E"/>
<path d="M78.2164 33.5117C76.5224 33.4815 74.8233 33.5117 73.167 33.057C73.441 32.8058 73.7475 32.8435 74.0919 32.8761C75.0972 32.9716 76.1152 33.165 77.1532 33.0293C77.5227 32.9791 78.0957 32.8485 78.2164 33.5117Z" fill="#9A987E"/>
<path d="M71.8977 36.2246C72.0887 35.8151 72.2773 35.4031 72.4557 35.0188H75.7231C75.5321 35.0916 75.3311 35.2449 75.1501 35.2223C74.5675 35.1314 73.9716 35.1744 73.4081 35.3481C72.8445 35.5217 72.328 35.8215 71.8977 36.2246Z" fill="#9A987E"/>
<path d="M75.952 34.9785C76.6532 34.3933 77.7113 34.4913 78.3321 33.7678C78.5432 34.6671 77.8295 34.7601 77.2715 34.8982C76.8351 34.9655 76.3934 34.9924 75.952 34.9785Z" fill="#9A987E"/>
<path d="M65.4358 28.347C65.7022 27.8446 66.1899 27.8622 66.6423 27.9024C67.8261 28.0079 69.0525 27.6235 70.1961 28.1988L65.4358 28.347Z" fill="#D9D0A5"/>
<path d="M68.726 36.6818C69.417 37.0262 70.2109 37.1032 70.9553 36.8978C70.0002 37.6966 69.4549 37.6438 68.726 36.6818Z" fill="#9A987E"/>
<path d="M82.2505 97.5544C82.5194 97.0997 82.8762 96.7129 82.4741 96.0949C82.185 95.6528 82.2454 95.0725 82.4339 94.5325C84.1581 96.218 84.3692 97.4363 83.2432 99.5037C82.9064 100.122 83.2432 101.224 82.0368 101.262C82.1072 100.028 82.1784 98.7919 82.2505 97.5544Z" fill="#F08F1F"/>
<path d="M83.9721 101.93C86.5081 101.297 88.3731 99.8955 90.7005 99.4836C89.9037 101.089 86.664 102.327 83.9721 101.93Z" fill="#1D2831"/>
<path d="M82.2506 97.5544C82.1802 98.787 82.1089 100.021 82.0369 101.257C81.4085 101.471 81.2099 102.342 80.2498 102.325C80.9435 100.767 81.592 99.26 81.7981 97.6197C81.8433 97.2505 82.0847 97.4891 82.2506 97.5544Z" fill="#1D2831"/>
<path d="M50.1293 32.429C50.2675 32.5244 50.7527 32.3988 50.3933 32.8183C50.0338 33.2378 49.5437 33.2755 49.1215 33.5066C48.2544 33.6925 47.5355 34.0291 47.0554 34.8756C46.1129 36.531 44.346 36.9078 43.1647 35.4358C42.0588 34.0567 40.5961 33.9688 39.2036 33.4639C38.613 33.2504 37.7936 33.1675 38.06 32.1677C38.7185 32.3436 39.3695 32.5696 40.0707 32.4767C42.1595 32.7071 44.2708 32.6284 46.3366 32.2431C47.631 31.9919 48.8575 32.5144 50.1293 32.429Z" fill="#1D2831"/>
<path d="M40.0683 32.4767C39.3696 32.5696 38.7186 32.3435 38.0576 32.1677C37.3639 31.3388 37.3789 30.1832 38.138 29.1357C38.4974 28.6333 38.9247 28.1963 39.3193 27.7316C40.2292 27.5407 41.139 27.3548 42.0841 27.4527C42.5314 28.1008 41.9684 28.4073 41.6265 28.7816C40.6639 29.8291 39.7969 30.9142 40.0683 32.4767Z" fill="#9A987E"/>
<path d="M42.0791 27.4527C41.1416 27.3548 40.2317 27.5407 39.3143 27.7316C38.226 27.0383 37.1201 27.8546 36.0268 27.6964C37.1377 26.7921 38.4773 27.2392 39.7139 27.1086C40.488 27.0282 41.2848 27.1664 42.0714 27.2066L42.0791 27.4527Z" fill="#5A6258"/>
<path d="M35.5316 28.9775C35.4084 28.6534 35.4361 28.3771 35.7829 28.2088C35.7999 28.3475 35.7862 28.4882 35.7428 28.621C35.6994 28.7539 35.6272 28.8756 35.5316 28.9775Z" fill="#5A6258"/>
<path d="M35.7805 28.2088C35.7466 28.1068 35.7539 27.9957 35.8009 27.899C35.8478 27.8023 35.9307 27.7278 36.0319 27.6913L35.7805 28.2088Z" fill="#5A6258"/>
<path d="M34.8856 32.2431C34.77 33.2478 34.6535 34.2526 34.5362 35.2574C34.1592 34.0441 34.0009 32.856 34.9032 31.7783C34.8956 31.9165 34.8907 32.0722 34.8856 32.2431Z" fill="#D9D0A5"/>
<path d="M37.1702 26.3073L37.9619 26.2872C37.7106 26.7544 37.4442 26.7745 37.1702 26.3073Z" fill="#9A987E"/>
<path d="M34.5288 35.7598L34.5137 36.4933C34.4645 36.4453 34.4256 36.3877 34.3995 36.324C34.3734 36.2604 34.3606 36.1921 34.362 36.1233C34.3635 36.0545 34.379 35.9868 34.4077 35.9242C34.4364 35.8617 34.4776 35.8058 34.5288 35.7598Z" fill="#D9D0A5"/>
<path d="M34.8857 32.2431C34.8857 32.0848 34.8857 31.9291 34.9033 31.7708C34.951 31.7583 34.9989 31.7507 35.0466 31.7407C34.9939 31.8964 34.9385 32.0647 34.8857 32.2431Z" fill="#7D7F6C"/>
<path d="M47.2992 71.6484C51.3207 71.5605 55.5934 72.2412 59.8662 72.6858C60.5784 72.7423 61.2649 72.9775 61.8619 73.3696C62.459 73.7617 62.9474 74.298 63.2818 74.929C64.6115 77.1956 65.7063 79.5919 66.5493 82.0806C66.7503 82.6985 66.8434 83.2512 66.2854 83.7988C61.3139 88.672 56.0006 93.0931 49.981 96.645C49.8026 96.753 49.619 96.8535 49.4381 96.959C47.9476 97.8407 46.6533 97.685 45.1905 96.645C40.5482 93.3418 37.3989 88.7901 34.2597 84.1857C33.5308 83.1105 33.6842 82.1183 34.4256 81.0708C36.0694 78.7497 37.8463 76.5493 39.6534 74.3438C41.2343 72.4221 43.0315 71.239 45.6203 71.6384C46.1791 71.6775 46.74 71.6809 47.2992 71.6484ZM52.14 89.6643C51.4488 90.4958 50.8155 91.2041 50.2424 91.9602C49.78 92.5731 49.3451 93.2438 50.2424 93.8894C51.0316 94.4621 51.8283 94.4697 52.4868 93.7362C53.6832 92.3998 54.8671 91.0484 55.9704 89.6366C56.6264 88.7976 57.2999 87.8959 57.3778 86.773C57.511 84.8765 56.5861 83.6456 54.8644 82.9171C54.0928 82.5931 51.4362 82.9171 50.6897 83.4572C48.5684 84.9945 48.7042 88.5942 52.14 89.6643ZM43.3909 88.8529C42.9736 89.4885 42.6243 90.0938 42.202 90.6439C41.6667 91.3398 41.6693 91.9376 42.4132 92.445C43.1572 92.9524 43.8509 92.9323 44.3988 92.1938C45.7309 90.4354 46.965 88.574 47.817 86.5343C48.5333 84.8111 48.0507 82.47 45.575 81.7892C44.7983 81.5757 44.0971 81.8319 43.3632 81.9324C41.8753 82.1334 40.8498 82.8945 40.5985 84.0274C40.224 85.6451 40.704 87.0418 41.9507 87.9084C42.383 88.2224 42.8379 88.4962 43.3909 88.8529ZM50.5993 76.8682C50.4007 75.984 50.1922 75.3611 50.1369 74.718C50.0665 73.9192 49.7573 73.4118 48.9179 73.4621C47.998 73.5173 47.6059 74.0724 47.6813 74.9893C47.8271 76.7226 48.0306 78.4534 48.0607 80.1891C48.0758 81.1387 48.6489 81.4099 49.3174 81.646C49.986 81.8822 50.4083 81.3949 50.7652 80.9176C51.9792 79.2672 53.1756 77.6018 54.4046 75.9615C54.9324 75.2556 55.1133 74.6678 54.2512 74.0674C53.4394 73.5022 52.8538 73.7283 52.3335 74.4467C51.8132 75.1652 51.2779 75.9212 50.5993 76.8682ZM57.1065 79.8173C57.6971 78.3604 57.6293 76.9712 57.8605 75.6223C58.0189 74.7105 57.4507 74.3664 56.6439 74.2207C55.8372 74.075 55.518 74.4191 55.3873 75.1953C55.1083 76.7954 54.7212 78.378 54.4246 79.968C54.1155 81.641 54.3342 81.9199 56.0031 82.1861C56.7873 82.3117 57.5789 82.3971 58.3556 82.5604C59.2428 82.7488 59.8259 82.5604 59.9742 81.5556C60.1225 80.5508 59.7228 80.0485 58.7175 79.9907C58.2651 79.9706 57.8178 79.9002 57.1065 79.8173ZM44.2429 78.3353C44.1901 77.0542 44.7456 76.0368 44.9969 74.9516C45.1628 74.2181 45.2784 73.4997 44.2178 73.3465C43.2979 73.2133 42.393 73.1304 42.1718 74.3512C41.8481 76.0327 41.6357 77.7336 41.536 79.443C41.4983 80.3071 41.8452 80.807 42.7399 80.8397C43.9514 80.8824 45.1653 80.9125 46.3767 80.9477C47.2539 80.9728 47.367 80.3775 47.4173 79.6917C47.4726 78.9607 47.1987 78.6242 46.4347 78.599C45.7259 78.5865 45.0321 78.4408 44.2429 78.3353Z" fill="#F7AF3C"/>
<path d="M52.1402 89.6643C48.7044 88.5942 48.5686 84.9995 50.6748 83.4572C51.4288 82.9121 54.078 82.5931 54.8497 82.9171C56.5764 83.6456 57.5013 84.8765 57.363 86.773C57.2851 87.8959 56.609 88.7976 55.9555 89.6366C54.8521 91.0484 53.6683 92.3998 52.4719 93.7362C51.8134 94.4697 51.0167 94.4621 50.2275 93.8894C49.3403 93.2438 49.7751 92.5731 50.2275 91.9602C50.8156 91.2041 51.449 90.4958 52.1402 89.6643ZM53.1455 85.3939C52.4041 85.2307 52.1703 85.6753 52.115 86.2003C52.0346 86.9539 52.4292 87.396 53.1858 87.4361C53.8619 87.4713 54.362 87.1397 54.3696 86.4439C54.3846 85.6527 53.7688 85.4417 53.1606 85.3939H53.1455Z" fill="#D33328"/>
<path d="M43.391 88.8529C42.838 88.4962 42.3857 88.2224 41.9484 87.9184C40.6917 87.0493 40.2216 85.6576 40.5961 84.0374C40.8474 82.9045 41.8754 82.1434 43.3608 81.9425C44.0947 81.842 44.796 81.5858 45.5726 81.7993C48.0483 82.48 48.5309 84.8136 47.8146 86.5444C46.9625 88.5841 45.7284 90.4354 44.3963 92.2039C43.8484 92.9323 43.1397 92.9373 42.4108 92.455C41.6819 91.9727 41.6568 91.3498 42.1997 90.654C42.6245 90.0938 42.9738 89.4884 43.391 88.8529ZM44.4567 84.1479C43.8183 84.2032 43.1774 84.3589 43.1623 85.1527C43.1498 85.8083 43.6901 86.3434 44.2229 86.3259C44.8362 86.3083 45.545 85.9415 45.5501 85.1025C45.5501 84.4544 45.1027 84.1806 44.4567 84.1479Z" fill="#D33328"/>
<path d="M50.5994 76.8682C51.278 75.9212 51.8009 75.1802 52.3312 74.4467C52.8615 73.7132 53.437 73.5022 54.2489 74.0674C55.111 74.6678 54.93 75.2556 54.4021 75.9614C53.1731 77.6018 51.9767 79.2672 50.7628 80.9176C50.4059 81.4049 50.0088 81.8846 49.3151 81.646C48.6214 81.4074 48.076 81.1437 48.0584 80.1891C48.0283 78.4533 47.8246 76.7225 47.6788 74.9893C47.6034 74.0724 47.9955 73.5173 48.9154 73.462C49.7549 73.4118 50.064 73.9192 50.1344 74.718C50.1922 75.3586 50.3958 75.984 50.5994 76.8682Z" fill="#D33328"/>
<path d="M57.1065 79.8173C57.8178 79.9002 58.2651 79.9731 58.7175 80.0007C59.7229 80.061 60.115 80.5659 59.9742 81.5657C59.8335 82.5655 59.2428 82.7564 58.3556 82.5705C57.579 82.4072 56.7873 82.3193 56.0031 82.1962C54.3342 81.9299 54.1155 81.6511 54.4246 79.9781C54.7212 78.3805 55.1083 76.798 55.3873 75.2054C55.523 74.4292 55.8548 74.0976 56.644 74.2307C57.4332 74.3638 58.0189 74.7205 57.8605 75.6324C57.6293 76.9713 57.6972 78.3604 57.1065 79.8173Z" fill="#D33328"/>
<path d="M44.243 78.3353C45.0322 78.4408 45.7259 78.5865 46.4272 78.6116C47.1812 78.6367 47.4652 78.9733 47.4099 79.7043C47.3597 80.3825 47.2465 80.9779 46.3694 80.9603C45.1579 80.9251 43.9439 80.895 42.7324 80.8523C41.8377 80.8196 41.4909 80.3197 41.5286 79.4556C41.6284 77.7462 41.8408 76.0453 42.1645 74.3638C42.3856 73.138 43.2905 73.2209 44.2104 73.359C45.271 73.5123 45.1555 74.2307 44.9896 74.9642C44.7433 76.0368 44.1903 77.0542 44.243 78.3353Z" fill="#D33328"/>
<path d="M53.1605 85.394C53.7762 85.4417 54.3921 85.6452 54.3845 86.444C54.3845 87.1398 53.8818 87.4713 53.2007 87.4362C52.4467 87.396 52.0495 86.9489 52.13 86.2003C52.1777 85.6753 52.4064 85.2307 53.1605 85.394Z" fill="#F7AF3C"/>
<path d="M44.4566 84.1479C45.1025 84.1806 45.55 84.4544 45.55 85.1151C45.55 85.9541 44.8361 86.3209 44.2228 86.3384C43.69 86.356 43.1497 85.8209 43.1622 85.1653C43.1773 84.359 43.8182 84.2032 44.4566 84.1479Z" fill="#F7AF3C"/>
</svg>
