<svg width="130" height="129" viewBox="0 0 130 129" fill="none" xmlns="http://www.w3.org/2000/svg">
<path d="M129.06 0.172913H0.374512V128.786H129.06V0.172913Z" fill="#D18647"/>
<path opacity="0.3" d="M45.1126 126.776C58.4384 126.776 69.2411 124.133 69.2411 120.873C69.2411 117.613 58.4384 114.97 45.1126 114.97C31.7868 114.97 20.9841 117.613 20.9841 120.873C20.9841 124.133 31.7868 126.776 45.1126 126.776Z" fill="#1D2831"/>
<path d="M95.4233 52.3315C95.3345 52.1314 95.2886 51.9149 95.2886 51.696C95.2886 51.4771 95.3345 51.2606 95.4233 51.0605C95.4157 51.485 95.4208 51.9195 95.4233 52.3315Z" fill="#5B4938"/>
<path d="M95.4003 69.9178C95.315 69.761 95.2703 69.5852 95.2703 69.4067C95.2703 69.2281 95.315 69.0524 95.4003 68.8955C95.4028 69.2371 95.4003 69.5787 95.4003 69.9178Z" fill="#5B4938"/>
<path d="M95.4054 90.2648C95.3201 90.1079 95.2754 89.9322 95.2754 89.7537C95.2754 89.5751 95.3201 89.3994 95.4054 89.2425V90.2648Z" fill="#5B4938"/>
<path d="M95.3803 67.6546C95.3065 67.4974 95.2683 67.3258 95.2683 67.1522C95.2683 66.9785 95.3065 66.807 95.3803 66.6498C95.3803 66.9763 95.3803 67.3155 95.3803 67.6546Z" fill="#5B4938"/>
<path d="M95.3805 81.2192C95.3143 81.1046 95.2794 80.9747 95.2794 80.8424C95.2794 80.7101 95.3143 80.5801 95.3805 80.4656C95.3805 80.7092 95.3805 80.9655 95.3805 81.2192Z" fill="#5B4938"/>
<path d="M95.4232 50.0758C95.3447 49.9615 95.3027 49.8263 95.3027 49.6877C95.3027 49.5491 95.3447 49.4139 95.4232 49.2996C95.4182 49.5584 95.4207 49.817 95.4232 50.0758Z" fill="#5B4938"/>
<path d="M95.4079 64.6427C95.3311 64.5287 95.2902 64.3945 95.2902 64.2571C95.2902 64.1197 95.3311 63.9855 95.4079 63.8715V64.6427Z" fill="#5B4938"/>
<path d="M95.4158 92.5281C95.3436 92.412 95.3054 92.278 95.3054 92.1413C95.3054 92.0046 95.3436 91.8706 95.4158 91.7545C95.4133 92.0107 95.4133 92.2694 95.4158 92.5281Z" fill="#5B4938"/>
<path d="M95.4055 58.1141C95.3464 58.0398 95.3142 57.9478 95.3142 57.8529C95.3142 57.758 95.3464 57.6659 95.4055 57.5916C95.403 57.7649 95.4055 57.9483 95.4055 58.1141Z" fill="#5B4938"/>
<path d="M95.393 62.3819C95.3316 62.3086 95.298 62.2162 95.298 62.1207C95.298 62.0252 95.3316 61.9327 95.393 61.8594V62.3819Z" fill="#5B4938"/>
<path d="M95.4104 75.4492C95.3871 75.3882 95.3694 75.3251 95.3577 75.2608C95.3577 75.2307 95.3828 75.1981 95.3979 75.1679L95.4104 75.4492Z" fill="#5B4938"/>
<path d="M95.3956 61.3821C95.3703 61.3196 95.3509 61.2549 95.3378 61.1887C95.3378 61.1611 95.3755 61.131 95.3956 61.1008V61.3821Z" fill="#5B4938"/>
<path d="M95.398 77.2076C95.3738 77.1455 95.3545 77.0817 95.3402 77.0167C95.3402 76.989 95.3729 76.9564 95.3905 76.9263L95.398 77.2076Z" fill="#5B4938"/>
<path d="M95.4032 78.2124C95.3787 78.1498 95.3602 78.0851 95.3479 78.019C95.3479 77.9913 95.3831 77.9612 95.4032 77.9311V78.2124Z" fill="#5B4938"/>
<path d="M95.4031 63.3917C95.3791 63.3292 95.3614 63.2644 95.3503 63.1983C95.3503 63.1732 95.383 63.1406 95.4006 63.1104C95.4006 63.2034 95.4006 63.2988 95.4031 63.3917Z" fill="#5B4938"/>
<path d="M95.3956 86.2507C95.3746 86.1869 95.3594 86.1213 95.3503 86.0547C95.3503 86.0296 95.3855 85.997 95.4031 85.9694L95.3956 86.2507Z" fill="#5B4938"/>
<path d="M95.4205 87.0043C95.3988 86.9421 95.382 86.8782 95.3702 86.8134C95.3702 86.7857 95.4004 86.7531 95.418 86.723C95.418 86.8159 95.4205 86.9113 95.4205 87.0043Z" fill="#5B4938"/>
<path d="M95.4154 88.0066C95.4154 87.9161 95.4154 87.8232 95.4154 87.7303C95.4179 87.8232 95.4179 87.9161 95.4154 88.0066Z" fill="#5B4938"/>
<path d="M95.3929 65.9037C95.3687 65.8416 95.3494 65.7778 95.3351 65.7128C95.3351 65.6851 95.3678 65.6525 95.3854 65.6249L95.3929 65.9037Z" fill="#5B4938"/>
<path d="M95.3957 53.0926C95.3747 53.0287 95.3588 52.9631 95.3479 52.8967C95.3479 52.8716 95.3856 52.839 95.4057 52.8113C95.4032 52.9043 95.4007 52.9997 95.3957 53.0926Z" fill="#5B4938"/>
<path d="M95.4358 93.2842C95.4099 93.2232 95.3889 93.1602 95.3729 93.0958C95.3729 93.0682 95.4006 93.0356 95.4157 93.0029C95.4232 93.0959 95.4307 93.1913 95.4358 93.2842Z" fill="#5B4938"/>
<path d="M52.4618 95.0175C52.8011 94.4498 52.6704 93.9575 52.1426 93.6183C51.6751 93.3194 51.2428 93.5731 50.9035 93.9022C48.0935 96.6276 46.1079 99.7701 45.9873 103.827C45.9496 105.05 45.1906 105.618 44.057 105.126C43.5292 104.897 43.0064 104.91 42.4887 104.779C42.8682 104.54 43.2929 104.583 43.7077 104.576C45.8264 104.545 45.8264 104.545 45.6857 102.39C45.6615 102.272 45.6218 102.158 45.5676 102.051C41.5414 101.525 37.6166 100.401 33.923 98.7151C33.365 98.4639 32.6663 97.9339 31.9475 98.5217C30.5048 95.7711 30.6254 92.9024 31.3694 90.0136C32.0857 87.2304 33.6164 84.8139 35.0314 82.3596C37.6831 77.7527 38.9146 72.7614 39.4701 67.5114C40.0507 62.0102 39.9727 56.509 39.9451 51.0002C39.9451 49.6211 40.0532 49.5232 41.3626 49.9753C45.0649 51.2564 49.1064 48.8349 49.2522 44.3359C49.2823 43.3889 48.9657 42.6152 48.0181 42.2258C48.9129 41.4471 48.4052 40.6685 47.9226 40.0028C46.6659 38.2695 44.9493 37.5611 42.7928 37.742C40.8399 37.9078 40.3347 38.4453 40.6916 40.3017C38.9498 39.0457 37.9721 37.423 38.2134 35.2099C38.2787 34.6196 38.3969 34.0368 39.0906 33.8434C41.2797 33.2305 43.0265 31.8891 44.723 30.4623C45.0975 30.8818 44.5572 30.9647 44.4491 31.2008L44.4064 31.2912L44.4969 31.251C44.916 31.2416 45.3227 31.1078 45.6656 30.8667C48.5409 28.8898 51.743 28.9551 54.9928 29.3796C55.8423 29.4902 56.066 29.2063 55.787 28.4326C55.8247 28.4502 55.8875 28.4602 55.8976 28.4879C56.8376 30.9998 59.165 31.6153 61.3391 32.296C63.38 32.934 64.4079 34.484 65.3605 36.1569C66.7077 38.5232 67.233 41.1382 67.5547 43.8009C67.8386 46.2912 67.9293 48.7998 67.8261 51.3041C67.3486 49.601 67.6728 47.8251 67.3536 46.1094C67.2707 45.6673 67.5723 44.9237 66.8258 44.9112C66.1598 44.9112 66.303 45.6447 66.1623 46.0868C66.1206 46.2918 66.1129 46.5022 66.1397 46.7097C66.2488 50.1246 66.1135 53.5429 65.735 56.9385C65.4208 59.7469 65.0639 62.5478 64.7296 65.3813L65.4837 65.4239C64.7523 66.4162 64.9986 67.112 66.0064 67.7952C66.9741 68.4483 68.2459 68.7247 68.8315 69.8978H68.3288L68.2886 69.855L68.3338 69.8928C68.2057 70.7493 68.5399 71.3999 69.1457 72.0028C70.6311 73.51 72.1391 75.0021 73.4838 76.6274C73.9695 77.1818 74.2741 77.8713 74.3568 78.6035C74.4394 79.3358 74.2962 80.0757 73.9462 80.7244C73.7829 81.0584 73.5265 81.3624 73.7628 81.7618L74.5897 81.9025C72.3276 82.8269 69.955 83.4825 67.8538 84.7737C67.5321 84.9721 67.2003 85.153 66.8962 85.374C65.7425 86.2231 65.7124 86.7129 66.7806 87.6348C67.3813 88.1573 68.0373 88.622 68.3112 89.4158C68.4143 89.7198 68.6153 90.089 68.2383 90.3276C67.7884 90.6165 67.5044 90.2623 67.3536 89.9257C66.866 88.8506 66.1472 88.0694 64.9583 87.8106C64.3828 87.685 63.7243 87.4941 63.39 88.1598C63.0306 88.8757 63.5886 89.2626 64.144 89.4861C65.2323 89.9182 65.6244 90.9155 66.122 91.8148C66.4764 92.4553 66.1221 92.7592 65.4786 92.7417C65.2244 92.7374 64.9787 92.649 64.7799 92.4905C63.8123 91.5987 62.7441 90.7848 62.0303 89.6645C60.2885 86.9239 61.8518 84.4295 64.1591 82.955C65.9185 81.8271 67.9141 81.1966 69.8645 80.4832C71.8149 79.7698 72.1969 78.7801 71.0332 77.0695C69.495 74.8087 67.3511 73.2085 64.9131 72.0053C64.6935 71.8768 64.4367 71.8265 64.1848 71.8625C63.9328 71.8986 63.7005 72.0188 63.5257 72.2038C63.0959 72.6258 63.1915 73.0076 63.5659 73.3894C63.2749 75.9241 62.8394 78.4402 62.2615 80.9253L62.2263 81.0133L62.3143 80.9756L63.4654 80.9906C62.4217 81.7572 61.4569 82.6256 60.5851 83.583C58.881 85.5599 58.8006 87.7051 59.728 90.0086C58.4085 89.4861 58.22 89.5866 58.0063 90.9205C57.944 91.2026 57.8659 91.481 57.7726 91.7545C57.8676 91.7697 57.9571 91.8092 58.0323 91.8692C58.1075 91.9292 58.166 92.0077 58.2019 92.097C58.2378 92.1862 58.25 92.2832 58.2373 92.3786C58.2246 92.474 58.1875 92.5644 58.1295 92.6412C57.6746 93.4727 57.3277 94.4674 56.6416 95.0527C54.8822 96.5598 53.5073 98.4187 52.0119 100.162C51.8013 100.438 51.5304 100.663 51.2198 100.819C50.9093 100.975 50.5673 101.057 50.2198 101.061C49.9082 99.4059 51.1272 97.4893 52.7031 97.12C52.7232 96.5624 52.5849 95.9796 52.8312 95.4295C53.0323 95.02 52.683 95.0703 52.4618 95.0175ZM53.2811 51.7814C58.0214 53.5398 60.2432 52.3968 61.5552 47.511C61.7638 46.7348 62.0177 46.0516 62.8873 45.7527C63.2618 45.574 63.5935 45.317 63.86 44.9991C64.017 44.8552 64.1154 44.6585 64.1363 44.4467C64.1572 44.2348 64.0991 44.0228 63.9731 43.8511C63.6715 43.409 63.2543 43.517 62.8697 43.7557C62.2593 44.1203 61.5692 44.3307 60.859 44.3686C60.8062 44.3083 60.756 44.248 60.7057 44.1852C61.0325 43.9491 61.3818 43.7331 61.6834 43.4668C61.985 43.2005 62.4073 42.8438 62.1861 42.3414C61.9926 41.8792 61.6633 41.5049 61.0576 41.6732C60.8062 40.2439 59.444 40.2866 58.5165 39.7591C55.6865 38.1565 52.5699 39.9827 51.66 42.7559C52.1828 42.982 52.7232 42.8187 53.2384 42.786C54.1483 42.7333 55.0581 42.5474 55.7744 43.3362L54.2966 43.1201C51.6424 42.7534 49.8378 44.3761 50.0942 46.8555C50.2701 48.5611 51.1272 49.8999 52.3034 51.078C51.9322 51.112 51.5587 51.112 51.1875 51.078C51.0568 51.0436 50.9206 51.0353 50.7866 51.0535C50.6527 51.0717 50.5236 51.1162 50.4069 51.1843C50.2902 51.2524 50.1881 51.3429 50.1064 51.4505C50.0247 51.5582 49.965 51.6809 49.9308 51.8116C49.7674 52.3491 50.2023 52.7661 50.6572 52.9846C51.2906 53.2886 52.0043 53.4293 52.6226 53.7558C53.2409 54.0824 53.7009 53.8689 54.1659 53.4569C54.0779 52.736 53.447 52.3792 53.2811 51.7814ZM53.2811 57.0565C53.1682 57.0258 53.064 56.9691 52.9767 56.8911C52.8894 56.813 52.8216 56.7157 52.7785 56.6069C51.2704 53.9467 49.0084 52.6254 45.8993 52.854C44.3134 52.9721 43.1647 53.8864 43.0567 55.4212C42.9209 57.3555 43.4261 59.252 43.8811 61.1234C44.0369 61.764 44.6351 62.2061 45.1679 62.6306C47.3747 64.3739 52.507 63.0929 53.5275 60.4201C53.8265 59.6339 54.1256 59.1264 55.0631 59.1892C55.6563 59.2269 55.973 58.7848 56.0283 58.2321C56.1515 57.0314 54.6157 55.7553 53.3666 56.0392C53.3264 56.3331 53.3012 56.6546 53.2686 57.044L53.2811 57.0565ZM55.5683 32.7381C55.1184 32.8712 54.6987 32.9894 54.5353 33.4239C54.3368 33.954 54.6409 34.2956 55.0707 34.5418C57.1191 35.7048 58.7553 37.3928 60.5599 38.8623C61.0048 39.2241 61.3592 39.4853 61.8166 39.1135C62.274 38.7418 61.8719 38.3599 61.6608 38.0208C60.3764 36.0338 58.7905 34.3458 56.7019 33.1827C56.3316 33.0023 55.9486 32.8495 55.5558 32.7256L55.5683 32.7381ZM48.3499 32.1453C46.6307 32.1704 42.6294 34.7 41.7623 36.3202C41.6266 36.5714 41.4154 36.8226 41.6844 37.1115C42.084 37.5235 42.4761 37.2396 42.8078 37.0236C44.6954 35.7826 46.7916 34.9763 48.8551 34.0996C49.3753 33.8786 49.9258 33.6726 49.7247 32.9667C49.5261 32.2986 48.9757 32.1076 48.3373 32.1327L48.3499 32.1453ZM50.9864 64.075C49.2622 64.698 47.6512 63.6053 45.9596 63.7133C46.1406 65.0924 48.3373 65.2732 50.9738 64.0625L50.9864 64.075ZM66.1447 44.0898C66.4287 44.5771 66.7127 44.6172 67.0947 44.3635C66.8937 43.8988 66.6373 43.7557 66.1321 44.0772L66.1447 44.0898Z" fill="#C37699"/>
<path d="M77.6437 55.0922C76.5126 59.1113 73.4463 59.9855 69.9501 60.3322C69.7491 59.3952 69.9049 58.4482 69.9351 57.5062C70.0783 53.3263 70.3372 49.1388 69.8597 44.969C69.5939 42.3365 69.0763 39.7356 68.3139 37.2019C66.9894 32.9969 64.1819 30.4196 59.9393 29.4148C59.5974 29.3552 59.2768 29.2083 59.0085 28.9882C58.7403 28.7681 58.5337 28.4824 58.4087 28.1588C57.2048 25.5338 55.1413 24.0467 52.2157 24.1045C49.3831 24.1623 46.9727 25.4032 44.8514 27.2369C43.7104 28.2216 42.5894 29.2465 41.383 30.1282C38.4775 32.2634 34.8155 32.3462 31.915 30.2261C29.7384 28.6386 28.7356 26.3753 28.7959 23.5744C33.0863 24.1823 36.3084 22.5697 38.8093 19.1986C39.8146 17.8371 40.7898 16.448 41.9158 15.1618C43.0795 13.8355 44.4468 12.9337 45.9825 12.1475C47.2793 11.4532 48.6926 11.0027 50.1522 10.8186C56.4206 10.1304 61.005 12.7328 62.5708 18.8118C62.8222 19.7814 63.0534 20.7585 63.3877 21.7005C63.5988 22.2933 63.9859 22.8862 64.7776 22.6651C65.5693 22.4441 65.3456 21.7256 65.2803 21.1881C65.1898 20.3717 64.9812 19.5704 64.8002 18.6485C65.8307 18.862 66.346 19.4699 66.8637 20.1933C68.8744 23.0067 68.9724 26.001 67.6956 29.0707C67.2382 30.1709 67.4167 30.6758 68.3617 31.4369C71.1415 33.6776 72.0715 36.8754 72.3831 40.2916C72.6068 42.8312 72.1946 45.3608 72.2122 47.9004C72.2273 50.1813 72.7903 52.2989 74.4416 53.9292C74.8553 54.3486 75.3574 54.6706 75.9113 54.8718C76.4652 55.073 77.057 55.1483 77.6437 55.0922Z" fill="#D68734"/>
<path d="M48.3297 104.299C49.7347 104.151 50.9034 104.663 52.0998 105.018C52.7382 105.211 53.085 105.708 53.0348 106.462C52.8815 108.723 53.8265 110.278 56.0508 111.014C58.8834 111.948 59.6173 114.35 60.1979 117.098C59.2705 116.545 59.1297 115.304 57.951 115.37C57.3578 115.834 57.3528 116.548 57.2749 117.254C56.933 120.245 55.5281 121.775 51.5468 121.253C52.14 120.034 52.8815 118.944 53.349 117.718C53.6972 116.737 53.9662 115.728 54.1532 114.704C54.3669 113.656 53.4344 113.058 52.7558 112.513C51.6838 111.651 50.6843 110.703 49.7674 109.677C48.3925 108.153 48.1287 106.289 48.3297 104.299Z" fill="#304E55"/>
<path d="M52.4619 95.0175C52.6831 95.0703 53.0325 95.0175 52.849 95.4345C52.5977 95.9846 52.7409 96.5674 52.7208 97.125C51.1449 97.4943 49.9259 99.4109 50.2376 101.066C50.5851 101.062 50.9271 100.98 51.2376 100.824C51.5481 100.668 51.819 100.443 52.0296 100.167C53.5377 98.4238 54.8899 96.5724 56.6593 95.0577C57.3454 94.4724 57.6923 93.4776 58.1472 92.6462C58.2052 92.5694 58.2424 92.479 58.2551 92.3836C58.2678 92.2883 58.2555 92.1912 58.2196 92.102C58.1837 92.0127 58.1253 91.9343 58.0501 91.8742C57.9749 91.8142 57.8853 91.7747 57.7903 91.7595C57.884 91.487 57.962 91.2094 58.0241 90.928C58.2452 89.5942 58.4262 89.4937 59.7457 90.0161C60.0197 90.4859 60.2158 91.021 60.5827 91.4103C61.7338 92.596 61.3619 93.7967 60.7662 95.0502C59.8428 96.9797 58.5852 98.7308 57.0514 100.222C55.8651 101.393 54.6159 102.503 53.3718 103.664C52.1151 102.486 50.2703 102.388 48.5059 101.86C49.0213 99.2011 50.4143 96.7917 52.4619 95.0175Z" fill="#A0637D"/>
<path d="M41.6065 107.266C41.2572 108.238 40.9832 109.11 40.6313 109.951C40.1287 111.129 39.9552 112.212 40.3674 113.546C40.8877 115.221 41.5965 117.027 40.4428 118.952C40.096 118.118 40.0884 117.256 39.5631 116.593C38.7337 115.545 38.1531 115.518 37.2533 116.52C35.7654 118.178 34.1619 119.675 31.8797 120.185C31.3469 120.303 30.8341 120.506 30.339 119.976C30.8417 119.188 31.661 118.733 32.3195 118.115C35.4035 115.226 37.188 111.707 37.4117 107.462C37.4619 106.475 37.8616 106.178 38.7588 106.492C39.6561 106.806 40.6665 106.681 41.6065 107.266Z" fill="#304E55"/>
<path d="M31.9475 98.5216C32.6638 97.9338 33.3651 98.4563 33.923 98.7151C37.6166 100.401 41.5415 101.525 45.5676 102.051C45.6218 102.158 45.6615 102.272 45.6857 102.39C45.8265 104.545 45.8265 104.545 43.7077 104.576C43.293 104.576 42.8682 104.54 42.4887 104.779C39.8855 104.479 37.3832 103.597 35.1672 102.199C35.0792 102.069 34.9887 101.948 34.8982 101.81L34.9183 101.832L34.393 101.564L34.4156 101.579L34.1467 101.307V101.328C34.1376 101.192 34.0787 101.064 33.9813 100.969C33.8839 100.874 33.7549 100.818 33.6189 100.813L33.6466 100.83C33.6405 100.696 33.5863 100.569 33.4939 100.472C33.4015 100.376 33.2772 100.315 33.1439 100.303C32.5759 99.8279 32.2944 99.1572 31.9475 98.5216Z" fill="#A0637D"/>
<path d="M34.9206 73.6708C34.1087 74.5675 33.0129 75.2081 32.4801 76.3611C31.5024 76.5847 31.5828 77.8984 31.6682 78.0366C32.5278 79.4257 31.3717 79.5739 30.6076 79.9833H30.6478L30.4291 79.7321C30.4065 79.7156 30.3895 79.6926 30.3805 79.666C30.3715 79.6395 30.3709 79.6108 30.3789 79.5839C30.402 79.4279 30.3915 79.2688 30.3482 79.1172C30.3048 78.9656 30.2296 78.8249 30.1275 78.7047V78.7273L29.6978 75.2106C30.0773 73.4522 31.2988 72.2364 32.4952 71.0332C34.1917 69.3301 35.8832 67.627 37.4993 65.7581C37.3787 66.6498 37.5772 67.5566 37.1876 68.4207L37.0193 68.2976C36.9966 68.3303 36.964 68.3605 36.9589 68.3956C36.6875 69.9304 36.4562 71.4703 35.9335 72.9498C35.4685 72.9925 35.0789 73.1709 34.9206 73.6708Z" fill="#A0637D"/>
<path d="M65.4888 65.4289L64.7347 65.3862C65.0766 62.5527 65.4335 59.7519 65.7401 56.9435C66.1186 53.5479 66.2539 50.1296 66.1448 46.7147C66.1181 46.5072 66.1257 46.2968 66.1674 46.0918C66.3081 45.6497 66.1674 44.9036 66.8309 44.9162C67.5849 44.9287 67.2758 45.6697 67.3587 46.1143C67.6779 47.83 67.3587 49.606 67.8313 51.3091V51.8366C67.0395 54.6525 67.2833 57.4986 67.5799 60.3447C67.5799 60.5256 67.5799 60.7039 67.5799 60.8822L67.5045 60.9802L67.5598 61.0907C67.5426 62.5928 67.3631 64.0885 67.0245 65.552C66.4765 65.6274 66.0015 65.1526 65.4888 65.4289Z" fill="#A0637D"/>
<path d="M40.6913 40.3067C40.3344 38.4504 40.8396 37.9128 42.7925 37.747C44.949 37.5611 46.6682 38.2695 47.9223 40.0078C48.4049 40.6735 48.9126 41.4522 48.0178 42.2309L46.7385 41.6732C45.4039 40.8493 43.9386 41.4572 42.5412 41.2914C41.9756 41.2261 41.3775 41.3592 40.9804 40.789C40.8848 40.6282 40.7893 40.4675 40.6913 40.3067Z" fill="#A0637D"/>
<path d="M44.4489 31.2058C44.5569 30.9672 45.0973 30.8868 44.7228 30.4673C46.5249 28.5356 48.6186 27.0887 51.2576 26.536C53.2935 26.1065 55.0277 26.84 55.7968 28.4376C56.0758 29.2113 55.8521 29.4952 55.0026 29.3846C51.7528 28.9601 48.5507 28.8948 45.6754 30.8717C45.3326 31.1128 44.9257 31.2466 44.5067 31.256L44.4489 31.2058Z" fill="#A0637D"/>
<path d="M74.607 81.915L73.7801 81.7744C73.5438 81.375 73.8002 81.071 73.9636 80.7369C74.3135 80.0883 74.4568 79.3483 74.3741 78.616C74.2915 77.8838 73.9868 77.1943 73.5011 76.6399C72.1564 75.0146 70.6484 73.5175 69.163 72.0154C68.5572 71.4024 68.223 70.7594 68.3512 69.9053H68.8538L69.1253 70.1565L69.3917 70.4077L69.3766 70.3876C69.4176 70.5081 69.4859 70.6174 69.5762 70.7072C69.6664 70.7969 69.7762 70.8647 69.8969 70.9051L69.8768 70.89L70.1507 71.1538L70.1357 71.1387L70.4046 71.3899V71.3748C70.4084 71.5068 70.4626 71.6324 70.556 71.7258C70.6495 71.8192 70.7752 71.8734 70.9073 71.8772H70.8897L71.1561 72.146L71.224 72.1108C71.0857 73.0905 71.6336 73.2714 72.4379 73.1458L72.6415 73.3367L72.8929 73.6733L72.8677 73.6482L73.1467 73.9245L73.1191 73.8943L73.4156 74.1631C74.7081 75.3581 75.6029 76.9204 75.9793 78.6395C76.3186 80.1492 75.9391 81.0007 74.607 81.915Z" fill="#A0637D"/>
<path d="M30.6079 79.9833C31.362 79.5739 32.5282 79.4257 31.6686 78.0366C31.5831 77.8984 31.5027 76.5846 32.4804 76.3611C32.3367 76.9081 32.3342 77.4826 32.4731 78.0309C32.612 78.5792 32.8878 79.0833 33.2746 79.496C33.7522 80.0311 33.6868 80.5008 33.4028 81.0735C32.4352 83.0304 31.0176 84.7435 30.442 87.0194C29.3688 85.261 29.3261 84.0854 30.5376 82.4275C31.1986 81.5207 31.2287 80.8073 30.6079 79.9833Z" fill="#C37699"/>
<path d="M63.4879 81.0007L62.3367 80.9856L62.2839 80.9328C62.8621 78.4478 63.2976 75.9317 63.5884 73.3969C64.2067 73.7411 64.8451 74.055 65.3478 74.565C65.3478 75.0673 65.2372 75.5924 65.3478 76.0596C65.4885 76.6047 64.8451 77.2051 65.5011 77.6773C65.4056 79.1393 65.4382 80.6741 63.4879 81.0007Z" fill="#A0637D"/>
<path d="M40.1738 43.7405C40.9052 43.3085 41.697 43.6551 42.539 43.512C42.6169 44.6599 42.7903 45.9184 43.7956 46.4083C44.801 46.8981 45.9747 46.7122 46.9625 45.8883C46.593 46.5514 46.2713 47.2196 45.5927 47.6265C45.2616 47.6732 44.9601 47.8428 44.7482 48.1013L42.4334 48.2721L42.1594 48.1892C41.8804 47.6667 41.3576 47.6165 40.8625 47.516L40.6891 47.3201V47.2674H40.6338C40.6 47.2576 40.5695 47.2385 40.546 47.2123C40.5225 47.1861 40.5067 47.1538 40.5006 47.1191L40.3674 46.8679V46.8504C40.287 45.818 39.9476 44.7956 40.1738 43.7405Z" fill="#EAD8B3"/>
<path d="M67.5647 60.3448C67.2707 57.4987 67.0269 54.6526 67.8161 51.8367C67.7759 53.6788 67.7348 55.5209 67.6929 57.363C67.6929 57.4735 67.6678 57.5841 67.6577 57.6946L67.5647 60.3448Z" fill="#C37699"/>
<path d="M67.7331 77.0971L69.392 78.426C68.8268 78.8611 68.1717 79.1649 67.4742 79.3152C67.5471 78.6294 67.6225 77.9788 67.7331 77.0971Z" fill="#C37699"/>
<path d="M40.9804 40.7915C41.3775 41.3542 41.9858 41.2211 42.5412 41.2939C43.9387 41.4597 45.404 40.8518 46.7386 41.6757C44.3936 41.4245 42.0436 41.6054 39.6659 41.5978C40.2565 41.5175 40.7693 41.412 40.9804 40.7915Z" fill="#C37699"/>
<path d="M35.9363 72.9422C36.439 71.4627 36.6903 69.9279 36.9617 68.388C36.9617 68.3529 36.9995 68.3227 37.0221 68.29L37.1905 68.4131C37.1352 69.8022 36.7481 71.1286 36.4214 72.465C36.3585 72.7212 36.253 72.9422 35.9363 72.9422Z" fill="#C37699"/>
<path d="M29.7005 75.2106L30.1303 78.7273C29.3461 77.6271 29.4567 76.4264 29.7005 75.2106Z" fill="#C37699"/>
<path d="M65.5138 77.6874C64.8703 77.2151 65.5012 76.6147 65.3605 76.0696C65.2373 75.6024 65.3429 75.0648 65.3605 74.575C66.1497 75.0523 65.6118 75.7557 65.6369 76.351C65.6283 76.7988 65.5871 77.2455 65.5138 77.6874Z" fill="#C37699"/>
<path d="M72.4256 73.1558C71.6214 73.2814 71.0734 73.1005 71.2117 72.1208C71.7545 72.2942 72.0511 72.769 72.4256 73.1558Z" fill="#C37699"/>
<path d="M40.1737 43.7405C39.9475 44.7956 40.2869 45.818 40.3723 46.8529C39.8671 45.8431 39.5655 44.8207 40.1737 43.7405Z" fill="#C0B9A3"/>
<path d="M42.4458 48.2697L44.7606 48.0989C44.0217 48.6013 43.23 48.3827 42.4458 48.2697Z" fill="#C0B9A3"/>
<path d="M40.8748 47.5135C41.3774 47.614 41.8801 47.6643 42.1717 48.1867C41.7092 48.021 41.2141 47.9155 40.8748 47.5135Z" fill="#C0B9A3"/>
<path d="M34.9208 73.6708C35.0791 73.1684 35.4687 72.9925 35.9437 72.9373C35.7678 73.4095 35.3104 73.4899 34.9208 73.6708Z" fill="#C37699"/>
<path d="M44.7583 48.1014C44.9702 47.8428 45.2716 47.6733 45.6028 47.6266C45.5076 47.7649 45.382 47.8796 45.2356 47.9619C45.0893 48.0442 44.926 48.0919 44.7583 48.1014Z" fill="#C0B9A3"/>
<path d="M70.8948 71.8922C70.7626 71.8884 70.637 71.8343 70.5435 71.7409C70.4501 71.6475 70.3959 71.5219 70.3921 71.3898C70.6987 71.4049 70.9124 71.5305 70.8948 71.8922Z" fill="#C37699"/>
<path d="M30.1226 78.6947C30.2247 78.8149 30.2999 78.9555 30.3433 79.1071C30.3866 79.2587 30.3971 79.4179 30.374 79.5739C30.2618 79.4601 30.18 79.3199 30.1361 79.1663C30.0922 79.0127 30.0876 78.8506 30.1226 78.6947Z" fill="#C37699"/>
<path d="M69.8794 70.905C69.7587 70.8646 69.6489 70.7969 69.5587 70.7071C69.4684 70.6174 69.4001 70.508 69.3591 70.3876C69.429 70.3806 69.4995 70.3891 69.5656 70.4126C69.6317 70.4361 69.6919 70.4739 69.7416 70.5234C69.7913 70.5729 69.8295 70.6328 69.8533 70.6988C69.8772 70.7648 69.8861 70.8352 69.8794 70.905Z" fill="#C37699"/>
<path d="M33.6289 100.813C33.7649 100.818 33.8939 100.874 33.9912 100.969C34.0886 101.064 34.1476 101.192 34.1567 101.328C34.0383 101.282 33.9304 101.213 33.8397 101.125C33.7489 101.036 33.6772 100.93 33.6289 100.813Z" fill="#C37699"/>
<path d="M33.1514 100.303C33.2847 100.315 33.409 100.376 33.5014 100.473C33.5937 100.569 33.648 100.696 33.654 100.83L33.1514 100.303Z" fill="#C37699"/>
<path d="M34.3929 101.564L34.9182 101.832C34.6594 101.908 34.5337 101.722 34.3929 101.564Z" fill="#C37699"/>
<path d="M61.7915 116.128L62.0428 116.756C61.956 116.677 61.8882 116.58 61.8446 116.471C61.8011 116.362 61.7829 116.245 61.7915 116.128Z" fill="#D68734"/>
<path d="M30.6731 117.138C30.6078 116.904 30.7812 116.919 30.9245 116.887L30.6731 117.138Z" fill="#D68734"/>
<path d="M67.6602 57.6971C67.6602 57.5865 67.6828 57.476 67.6953 57.3655C67.6828 57.471 67.6702 57.5815 67.6602 57.6971Z" fill="#A0637D"/>
<path d="M67.5345 61.0908L67.4792 60.9803L67.5547 60.8823C67.5733 60.9519 67.5662 61.026 67.5345 61.0908Z" fill="#C37699"/>
<path d="M40.6514 47.2598L40.7063 47.2648L40.7013 47.3173L40.6514 47.2598Z" fill="#C0B9A3"/>
<path d="M34.8982 101.81C34.9886 101.94 35.0791 102.061 35.1671 102.199C35.0389 102.096 34.8705 102.021 34.8982 101.81Z" fill="#C37699"/>
<path d="M69.3745 70.4077L69.108 70.1565C69.2865 70.149 69.3669 70.2394 69.3745 70.4077Z" fill="#C37699"/>
<path d="M70.1332 71.1538L69.8593 70.89C70.0478 70.8799 70.1634 70.9428 70.1332 71.1538Z" fill="#C37699"/>
<path d="M70.3874 71.4024L70.1184 71.1513C70.3295 71.101 70.415 71.194 70.3874 71.4024Z" fill="#C37699"/>
<path d="M71.1435 72.1561L70.8771 71.8873C71.0957 71.8496 71.2139 71.9099 71.1435 72.1561Z" fill="#C37699"/>
<path d="M62.0778 116.904C62.0966 116.91 62.1136 116.92 62.1272 116.934C62.1408 116.948 62.1504 116.966 62.1553 116.985C62.1601 117.004 62.1599 117.024 62.1546 117.043C62.1494 117.062 62.1394 117.079 62.1255 117.093C62.0888 117.037 62.072 116.971 62.0778 116.904Z" fill="#D68734"/>
<path d="M72.8905 73.6833L72.6392 73.3467C72.7171 73.4573 72.8025 73.5703 72.8905 73.6833Z" fill="#C37699"/>
<path d="M83.012 24.9862H94.6716C94.1438 29.5078 93.626 33.9464 93.1032 38.4328C90.8864 38.5886 88.7727 38.4328 86.5005 38.2067C85.3494 33.8509 84.1866 29.4441 83.012 24.9862Z" fill="#D68734"/>
<path d="M91.7082 49.2166C93.1434 49.0634 93.5455 49.6839 93.4877 50.975C93.3494 54.0522 93.176 57.1394 93.3092 60.2116C93.4148 62.6281 93.4475 65.0421 93.4299 67.4511C93.3922 72.3293 93.4073 77.2101 93.3645 82.0858C93.3394 85.1932 93.2263 88.3281 93.4399 91.4455C93.441 91.9875 93.3846 92.528 93.2715 93.0581C93.2213 93.4123 93.0755 93.7213 92.6306 93.6585C92.231 93.6007 91.7535 93.6585 91.6881 93.0531C91.5864 92.5218 91.525 91.9835 91.5046 91.4429C91.6655 87.6976 91.6404 83.9447 91.6127 80.2069C91.575 74.7182 91.7761 69.2346 91.6831 63.7459C91.6027 59.0385 91.3312 54.3285 91.6253 49.6186C91.644 49.4829 91.6717 49.3486 91.7082 49.2166Z" fill="#304E55"/>
<path d="M89.9438 100.36C91.5599 100.376 93.1559 100.644 94.7972 100.391C95.7698 100.24 96.1519 101.275 96.3379 102.079C96.9009 104.513 97.4236 106.959 97.4865 109.471C97.5393 111.597 97.5292 111.541 95.4129 111.629C93.7541 111.699 92.1028 111.88 90.4817 111.358C89.602 111.396 89.4436 110.986 89.6195 110.182C90.0091 108.401 91.1552 106.753 90.6073 104.802C90.6073 104.766 90.6425 104.719 90.635 104.684C90.4113 103.807 91.2131 102.822 90.7079 102.144C90.2705 101.561 90.1524 100.971 89.9438 100.36Z" fill="#304E55"/>
<path d="M101.863 25.0214L98.5173 38.4529H95.3203C95.8783 33.9615 96.4312 29.5153 96.9892 25.0214H101.863Z" fill="#D68734"/>
<path d="M94.6816 118.336C91.6354 118.336 88.5841 118.542 85.5429 118.143C84.0349 117.944 83.585 117.59 83.7308 116.342C83.9821 114.297 84.6658 113.518 85.8144 113.578C87.9407 113.689 90.0872 113.641 92.2085 113.656C92.2663 114.021 92.2688 114.438 92.7539 114.505C93.7592 114.649 93.4727 115.259 93.2566 115.849L93.1686 115.817L93.2012 115.905C92.9549 117.163 93.2289 118.107 94.6816 118.336Z" fill="#3C5E65"/>
<path d="M93.3243 22.9238C89.8961 22.8485 85.7993 23.077 81.7125 22.7002C81.1042 22.6424 80.4382 22.6425 80.4558 21.8361C80.4558 20.9846 81.1093 21.0825 81.7326 21.1001C85.9123 21.1504 90.0921 21.1378 94.2719 21.193C97.4815 21.2357 100.689 21.3513 103.896 21.4442C104.423 21.4593 104.974 21.5121 104.979 22.1978C104.984 22.8836 104.421 22.9363 103.901 22.9389C100.593 22.9263 97.2905 22.9238 93.3243 22.9238Z" fill="#304E55"/>
<path d="M93.2567 115.847C93.4729 115.256 93.7594 114.646 92.754 114.503C92.269 114.435 92.2664 114.018 92.2086 113.654C94.5762 113.654 96.9438 113.676 99.3115 113.676C100.141 113.676 100.666 114.091 100.852 114.862C101.024 115.632 101.154 116.41 101.242 117.193C101.357 118.09 100.661 118.261 100.048 118.283C98.2608 118.349 96.4713 118.326 94.6818 118.336C93.229 118.108 92.9551 117.163 93.2014 115.902L93.2567 115.847Z" fill="#304E55"/>
<path d="M93.2338 19.1759C90.2178 19.4497 87.1816 19.2363 84.153 19.1458C84.2485 17.2945 85.4976 15.9506 87.3701 15.6542C89.3895 15.3107 91.4538 15.3269 93.4676 15.7019C92.7513 16.8172 93.1886 18.0079 93.2338 19.1759Z" fill="#3C5E65"/>
<path d="M93.2338 19.1759C93.1886 18.0104 92.7513 16.8172 93.4676 15.7019C95.8252 14.8529 100.143 15.7496 100.857 19.3091C98.2908 19.083 95.7673 19.7864 93.2338 19.1759Z" fill="#304E55"/>
<path d="M88.5766 40.249C91.9545 40.249 95.3325 40.249 98.7105 40.249C99.1755 40.249 99.7159 40.249 99.7385 40.8845C99.7611 41.52 99.3338 41.726 98.7633 41.7662C94.5056 42.0676 90.2479 41.7084 85.9903 41.7235C85.4348 41.7235 84.6908 41.6557 84.7336 40.8292C84.7763 40.0028 85.4876 40.038 86.0632 40.0179C86.9001 39.9928 87.7371 40.0179 88.5766 40.0179V40.249Z" fill="#304E55"/>
<path d="M89.9439 100.36C90.1525 100.971 90.2707 101.561 90.698 102.144C91.2006 102.822 90.4014 103.807 90.6251 104.684C90.6251 104.719 90.5874 104.766 90.5974 104.802C91.1453 106.753 89.9992 108.401 89.6097 110.182C89.4337 110.986 89.5921 111.396 90.4717 111.358C89.6926 111.8 88.8506 111.576 88.0363 111.566C87.4507 111.566 87.3979 111.094 87.4381 110.672C87.7271 107.489 88.0966 104.319 89.0391 101.25C89.1824 100.813 89.3483 100.363 89.9439 100.36Z" fill="#3C5E65"/>
<path d="M92.5302 13.6145C90.6452 13.6145 89.7655 13.0493 89.7354 11.8435C89.7027 10.1128 90.977 8.86937 92.7514 8.88946C94.0081 8.90453 95.2095 10.2861 95.217 11.733C95.2246 13.1799 94.6591 13.6195 92.5302 13.6145Z" fill="#304E55"/>
<path d="M92.3015 98.2604C91.6003 98.2429 90.884 98.3885 90.1978 98.1273C89.9571 98.053 89.7443 97.9082 89.587 97.7116C89.4297 97.5149 89.3351 97.2756 89.3156 97.0246C89.2653 96.4343 89.6599 96.0776 90.135 95.8942C91.6028 95.3265 93.0882 95.4696 94.5309 95.9795C95.1039 96.183 95.2849 96.7332 95.1919 97.3285C95.1717 97.5808 95.0569 97.8162 94.8705 97.9876C94.6841 98.159 94.4398 98.2537 94.1866 98.2529C93.5507 98.2881 92.9248 98.2604 92.3015 98.2604Z" fill="#304E55"/>
<path d="M93.983 45.5592C93.983 47.1292 93.8172 47.2799 92.1257 47.2799C90.595 47.2799 90.2507 46.883 90.2532 45.0568C90.2532 43.3989 91.5426 44.1048 92.289 44.052C93.9378 43.9666 93.9881 44.0771 93.983 45.5592Z" fill="#304E55"/>
<path d="M61.0674 41.6481C59.1899 42.9393 59.1421 43.0196 59.4236 44.4741C58.3705 44.3384 57.438 43.9239 56.4905 43.5723C56.3975 43.0975 56.0129 43.3713 55.7641 43.2934L55.7842 43.311C55.0679 42.5222 54.1581 42.7081 53.2482 42.7609C52.7455 42.7936 52.1926 42.9568 51.6698 42.7307C52.5796 39.9676 55.6912 38.1313 58.5263 39.734C59.4538 40.2615 60.8185 40.2188 61.0674 41.6481Z" fill="#A0637D"/>
<path d="M34.8982 101.81V101.834H34.9176L34.8982 101.81Z" fill="#1D2831"/>
<path d="M69.6533 62.4297C70.7789 62.4289 71.902 62.3255 73.0087 62.1207C77.1482 61.2892 79.7948 58.1945 79.732 54.2632C79.7169 53.4343 79.4178 52.6882 78.5532 52.8766C76.9547 53.2258 76.1379 52.3391 75.3788 51.2514C74.2981 49.7015 74.4287 47.9356 74.5142 46.1697C74.6399 43.4643 74.9817 40.7563 74.3735 38.0585C73.7652 35.3606 73.0313 32.7833 71.0206 30.8064C70.2314 30.0302 70.1158 29.362 70.3495 28.2944C71.6364 22.4541 69.3593 17.091 63.9731 14.981C63.4704 14.7875 63.2668 14.4384 63.0431 14.039C61.8492 11.9013 60.027 10.4921 57.7951 9.58021C50.9411 6.7869 43.3859 9.00497 38.9774 15.1066C37.9494 16.5283 37.0521 18.0631 35.71 19.2337C33.7621 20.9393 31.6081 21.9969 28.9389 21.0624C27.5038 20.56 27.0061 20.8113 26.614 22.3034C25.5961 26.1944 28.024 31.0677 31.8922 32.9818C33.2081 33.6126 34.6277 33.999 36.082 34.1222C36.1086 34.3119 36.1203 34.5034 36.1171 34.6949C35.906 36.6317 36.1171 38.4629 37.497 39.9701C37.8489 40.3569 37.6855 40.7664 37.5598 41.4119C37.0722 40.8091 36.7455 40.3871 36.4012 39.9801C36.1498 39.6887 35.8985 39.4024 35.4486 39.6536C35.2757 39.7281 35.129 39.8526 35.0273 40.011C34.9256 40.1695 34.8737 40.3546 34.8781 40.5428C34.8781 41.1381 35.1973 41.5727 35.5441 41.9872C36.1524 42.7106 37.0999 42.9216 37.9167 43.4944C37.4467 44.6524 38.3465 45.828 38.0701 46.9006C37.5875 48.7695 37.771 50.5656 37.8816 52.427C38.0399 55.1374 37.9168 57.8654 37.9293 60.5858C37.9285 61.3808 37.6493 62.1504 37.1401 62.7612C34.8378 65.758 32.1385 68.3931 29.6603 71.2291C27.0137 74.256 26.6844 77.2252 28.582 80.8047C28.8937 81.3925 28.6197 81.7141 28.4086 82.1512C27.3052 84.4371 27.1896 86.6727 28.9716 88.6823C29.4064 89.1847 29.2908 89.5489 29.1576 90.0287C27.5013 96.0424 29.5723 101.451 34.8026 104.746C35.1646 104.975 35.4511 105.143 35.4662 105.676C35.5893 110.082 34.2321 113.872 30.9119 116.874L30.6606 117.125C29.796 118.035 28.8068 118.817 27.7224 119.449C27.1821 119.786 26.6894 120.203 26.8428 120.956C26.9961 121.71 27.6294 121.74 28.1849 121.873C31.7715 122.735 34.77 121.652 37.3336 119.11C37.6202 118.823 37.8137 118.416 38.3239 118.283C38.7311 118.926 38.7939 119.673 38.9497 120.391C39.083 121.004 39.1734 121.669 39.9249 121.855C40.7569 122.061 41.2595 121.567 41.6843 120.959C42.6696 119.57 42.9762 117.992 42.9988 116.332C42.9611 115.874 43.0591 115.349 42.8681 114.97C41.4656 112.164 42.7198 109.72 43.8458 107.221H46.1305C46.7739 110.212 48.9128 112.121 51.0693 113.958C51.9615 114.711 52.0746 115.347 51.5066 116.249C51.3307 117.899 50.3354 119.163 49.4783 120.484C48.3875 122.164 48.6766 122.845 50.6445 123.182C52.2908 123.463 53.8743 123.157 55.4602 122.727C57.4156 122.197 58.1395 120.632 58.71 118.831C59.2805 119.215 59.733 119.567 60.218 119.836C60.8187 120.167 61.4747 120.386 62.0805 119.836C62.6862 119.286 62.6636 118.67 62.4474 117.995C62.3444 117.675 62.2137 117.369 62.0955 117.058C62.0589 117.002 62.0421 116.936 62.0478 116.869C62.0258 116.852 62.0102 116.828 62.0038 116.801C61.9974 116.774 62.0005 116.746 62.0126 116.721C61.9257 116.642 61.8579 116.545 61.8144 116.436C61.7708 116.327 61.7527 116.21 61.7613 116.093C61.7349 116.067 61.7153 116.035 61.7044 115.999C61.6934 115.964 61.6914 115.926 61.6984 115.889C61.0475 112.493 59.2378 110.014 55.993 108.655C55.4904 108.447 55.3295 108.027 55.239 107.464C54.9626 105.673 55.6412 104.377 56.9456 103.179C59.6651 100.679 62.0981 97.9339 63.3246 94.294C65.2624 95.1431 66.9539 95.1933 68.0548 93.0783C68.2131 92.7718 68.5424 92.8044 68.8088 92.6964C70.3169 92.0885 70.8849 90.83 70.4702 89.245C70.1736 88.1146 69.3668 87.3509 68.5801 86.5295C69.6053 85.8228 70.7397 85.289 71.938 84.9495C73.2927 84.53 74.6675 84.1632 75.9318 83.485C76.4401 83.2385 76.884 82.877 77.2282 82.4292C77.5724 81.9814 77.8075 81.4596 77.9148 80.9052C78.3622 78.5716 77.6811 76.4917 76.2862 74.6403C74.3659 72.0932 72.0687 69.8852 69.784 67.6721C69.3944 67.2953 68.9169 66.9562 69.0074 66.3232C69.2411 65.0496 69.4447 63.7484 69.6533 62.4297ZM30.5349 82.4275C31.1959 81.5206 31.2261 80.8173 30.6053 79.9833H30.6455L30.4268 79.7321C30.4042 79.7156 30.3872 79.6925 30.3782 79.666C30.3692 79.6395 30.3686 79.6107 30.3766 79.5839C30.2653 79.4716 30.1839 79.3332 30.14 79.1814C30.0961 79.0295 30.091 78.8691 30.1252 78.7147C29.3511 77.6271 29.4617 76.4339 29.703 75.2206C30.0825 73.4622 31.304 72.2464 32.5004 71.0432C34.1969 69.34 35.8884 67.6369 37.5045 65.768C37.3839 66.6598 37.5825 67.5666 37.1929 68.4307C37.1376 69.8199 36.7505 71.1462 36.4238 72.4826C36.361 72.7338 36.2579 72.9573 35.9437 72.9598C35.7653 73.4271 35.3078 73.5074 34.9233 73.6883C34.1115 74.5851 33.0156 75.2257 32.4828 76.3787C32.3391 76.9257 32.3366 77.5002 32.4755 78.0485C32.6144 78.5968 32.8902 79.1008 33.277 79.5136C33.7546 80.0486 33.6892 80.5183 33.4052 81.0911C32.4376 83.0479 31.02 84.7611 30.4444 87.0369C29.3687 85.2685 29.326 84.0854 30.5349 82.4275ZM35.622 76.0948C35.3707 76.7328 35.1018 77.3708 34.7524 78.2274C34.2899 77.0744 34.8303 76.5369 35.6245 76.0948H35.622ZM40.6287 109.951C40.126 111.129 39.9526 112.212 40.3648 113.546C40.8851 115.221 41.5938 117.027 40.4402 118.952C40.0933 118.118 40.0858 117.256 39.5605 116.593C38.7311 115.545 38.1505 115.518 37.2507 116.52C35.7628 118.178 34.1592 119.675 31.8771 120.185C31.3442 120.303 30.8315 120.506 30.3363 119.976C30.839 119.188 31.6584 118.733 32.3169 118.115C35.4008 115.226 37.1853 111.707 37.409 107.462C37.4593 106.475 37.8589 106.178 38.7562 106.492C39.6535 106.806 40.6639 106.686 41.6039 107.266C41.257 108.238 40.9831 109.11 40.6312 109.946L40.6287 109.951ZM56.0383 111.014C58.8709 111.948 59.6048 114.35 60.1854 117.098C59.2579 116.545 59.1172 115.304 57.9384 115.37C57.3453 115.834 57.3402 116.548 57.2623 117.253C56.9205 120.245 55.5155 121.775 51.5343 121.253C52.1275 120.034 52.8714 118.944 53.3364 117.718C53.6847 116.736 53.9536 115.728 54.1407 114.704C54.3543 113.656 53.4218 113.058 52.7432 112.513C51.6712 111.651 50.6717 110.703 49.7548 109.677C48.39 108.17 48.1312 106.294 48.3272 104.304C49.7322 104.156 50.9009 104.668 52.0973 105.023C52.7357 105.216 53.0825 105.713 53.0323 106.467C52.8689 108.733 53.8139 110.278 56.0408 111.014H56.0383ZM69.1079 70.1665C69.1397 70.1612 69.1723 70.1631 69.2033 70.1721C69.2343 70.181 69.2629 70.1968 69.287 70.2183C69.3111 70.2397 69.3301 70.2663 69.3426 70.296C69.3551 70.3257 69.3608 70.3579 69.3592 70.3901C69.4266 70.3848 69.4943 70.3942 69.5577 70.4176C69.6211 70.4409 69.6786 70.4778 69.7264 70.5255C69.7742 70.5733 69.8111 70.6308 69.8345 70.6942C69.8578 70.7575 69.8672 70.8252 69.8619 70.8925C70.0328 70.8925 70.1359 70.9478 70.1133 71.1437C70.3093 71.1161 70.3897 71.2015 70.3646 71.3949C70.6763 71.415 70.8849 71.5406 70.8673 71.8973C71.0734 71.8646 71.184 71.9274 71.1186 72.1686L71.189 72.1334C71.7394 72.3067 72.0259 72.789 72.4004 73.1684L72.604 73.3593L72.8554 73.6933L73.1067 73.9445L73.0791 73.9169L73.3756 74.1831C74.6681 75.3781 75.5629 76.9405 75.9393 78.6595C76.2811 80.1667 75.9016 81.0107 74.5695 81.9251C72.3074 82.8495 69.9348 83.5051 67.8336 84.7962C67.5119 84.9947 67.1801 85.1756 66.876 85.3966C65.7224 86.2457 65.6922 86.7355 66.7604 87.6574C67.3611 88.1799 68.0171 88.6446 68.291 89.4384C68.3941 89.7424 68.5952 90.1116 68.2182 90.3502C67.7683 90.6391 67.4843 90.2849 67.3335 89.9483C66.8459 88.8732 66.127 88.092 64.9382 87.8332C64.3626 87.7076 63.7041 87.5167 63.3698 88.1824C63.0104 88.8983 63.5684 89.2851 64.1239 89.5087C65.2122 89.9408 65.6042 90.938 66.1019 91.8373C66.4563 92.4778 66.1019 92.7818 65.4585 92.7643C65.2042 92.76 64.9585 92.6716 64.7598 92.5131C63.7921 91.6213 62.7239 90.8074 62.0101 89.6871C60.2683 86.9465 61.8316 84.4521 64.1389 82.9776C65.8983 81.8497 67.8939 81.2192 69.8443 80.5058C71.7947 79.7924 72.1768 78.8027 71.0131 77.092C69.4749 74.8312 67.3309 73.2311 64.8929 72.0279C64.6733 71.8994 64.4166 71.849 64.1646 71.8851C63.9126 71.9211 63.6804 72.0414 63.5056 72.2264C63.0758 72.6484 63.1713 73.0302 63.5458 73.412C64.1641 73.7561 64.8025 74.0701 65.3051 74.58C66.0943 75.0573 65.5565 75.7607 65.5816 76.356C65.5771 76.8036 65.5402 77.2502 65.471 77.6924C65.363 79.1443 65.3956 80.6791 63.4452 81.0057C62.4015 81.7723 61.4367 82.6407 60.5649 83.5981C58.8608 85.575 58.7804 87.7202 59.7078 90.0237C59.9818 90.4934 60.1778 91.0285 60.5448 91.4178C61.6959 92.6035 61.3239 93.8042 60.7283 95.0577C59.8049 96.9872 58.5473 98.7383 57.0135 100.23C55.8272 101.4 54.578 102.511 53.3339 103.671C52.0772 102.493 50.2323 102.395 48.4679 101.868C48.9815 99.2084 50.3727 96.7981 52.419 95.0225C52.7583 94.4548 52.6276 93.9624 52.0998 93.6233C51.6323 93.3244 51.2 93.5781 50.8607 93.9072C48.0507 96.6326 46.0652 99.7751 45.9445 103.832C45.9068 105.055 45.1478 105.623 44.0142 105.131C43.4864 104.902 42.9636 104.915 42.4459 104.784C39.8427 104.484 37.3404 103.602 35.1244 102.204C35.0012 102.106 34.8454 102.031 34.8554 101.84C34.6041 101.898 34.486 101.722 34.3527 101.569L34.3754 101.584L34.1064 101.312V101.333C33.988 101.287 33.8802 101.218 33.7894 101.129C33.6987 101.041 33.6269 100.935 33.5786 100.818L33.6063 100.833L33.1036 100.308C32.528 99.8329 32.239 99.1622 31.9022 98.5267C30.457 95.7761 30.5776 92.9074 31.3216 90.0186C32.0379 87.2354 33.5686 84.8188 34.9836 82.3646C37.6352 77.7577 38.8668 72.7664 39.4223 67.5164C40.0029 62.0152 39.9249 56.514 39.8973 51.0052C39.8973 49.6261 40.0054 49.5281 41.3148 49.9803C45.0171 51.2614 49.0586 48.8399 49.2044 44.3409C49.2345 43.3939 48.9178 42.6202 47.9703 42.2308L46.691 41.6732C44.346 41.422 41.996 41.6028 39.6183 41.5953C40.209 41.5225 40.7217 41.417 40.9328 40.7965C40.8373 40.6332 40.7418 40.4725 40.6438 40.3117C38.902 39.0557 37.9243 37.433 38.1656 35.2199C38.2309 34.6296 38.349 34.0469 39.0427 33.8534C41.2319 33.2405 42.9787 31.8991 44.6752 30.4723C46.4774 28.5406 48.571 27.0937 51.2101 26.5411C53.2459 26.1115 54.9801 26.845 55.7492 28.4426C55.7869 28.4602 55.8498 28.4703 55.8598 28.4979C56.7998 31.0099 59.1272 31.6253 61.3013 32.306C63.3422 32.9441 64.3702 34.494 65.3228 36.167C66.6699 38.5332 67.1952 41.1482 67.5169 43.8109C67.8008 46.3012 67.8916 48.8098 67.7884 51.3142C67.7884 51.49 67.7884 51.6658 67.7884 51.8417C67.7482 53.6838 67.7071 55.5259 67.6652 57.368C67.6652 57.4785 67.6401 57.5891 67.63 57.6996C67.5974 58.5838 67.5672 59.458 67.5345 60.3523C67.5345 60.5331 67.5345 60.7114 67.5345 60.8898C67.5532 60.9594 67.5461 61.0335 67.5144 61.0983C67.4972 62.6003 67.3177 64.0961 66.9791 65.5596C66.4764 65.6349 65.9737 65.1602 65.471 65.4365C64.7396 66.4287 64.9859 67.1245 65.9938 67.8078C66.9615 68.4609 68.2332 68.7372 68.8189 69.9103L69.1079 70.1665ZM67.4666 79.3151C67.5471 78.6294 67.6225 77.9788 67.718 77.097L69.3769 78.4259C68.8139 78.86 68.1614 79.1638 67.4666 79.3151ZM42.4459 48.2696L42.1719 48.1867C41.7095 48.0209 41.2143 47.9154 40.875 47.5135L40.7016 47.3176L40.6513 47.2598C40.6175 47.25 40.587 47.2309 40.5635 47.2047C40.54 47.1786 40.5242 47.1463 40.5181 47.1116C40.4729 47.0313 40.4276 46.9509 40.3849 46.8605V46.8429C39.8822 45.8381 39.5781 44.8106 40.1863 43.7305C40.9177 43.2984 41.7095 43.6451 42.5514 43.5019C42.6294 44.6499 42.8028 45.9084 43.8081 46.3982C44.8135 46.8881 45.9872 46.7022 46.975 45.8782C46.6055 46.5414 46.2838 47.2096 45.6052 47.6166C45.51 47.7548 45.3844 47.8695 45.238 47.9518C45.0917 48.0341 44.9284 48.0818 44.7607 48.0913C44.0218 48.6012 43.2301 48.3827 42.4459 48.2696ZM68.3137 37.2019C66.9891 32.9968 64.1817 30.4195 59.9391 29.4147C59.5972 29.3552 59.2765 29.2082 59.0083 28.9882C58.7401 28.7681 58.5334 28.4823 58.4084 28.1588C57.2045 25.5337 55.141 24.0467 52.2154 24.1045C49.3828 24.1622 46.9725 25.4031 44.8512 27.2369C43.7101 28.2216 42.5891 29.2465 41.3827 30.1282C38.4772 32.2633 34.8152 32.3462 31.9148 30.2261C29.7382 28.6385 28.7353 26.3753 28.7956 23.5744C33.086 24.1823 36.3082 22.5696 38.809 19.1986C39.8144 17.8371 40.7896 16.4479 41.9156 15.1618C43.0793 13.8355 44.4465 12.9337 45.9822 12.1474C47.279 11.4531 48.6924 11.0027 50.1519 10.8186C56.4203 10.1303 61.0047 12.7327 62.5706 18.8117C62.8219 19.7813 63.0531 20.7585 63.3874 21.7005C63.5985 22.2933 63.9856 22.8862 64.7773 22.6651C65.569 22.4441 65.3454 21.7256 65.28 21.188C65.1895 20.3716 64.9809 19.5704 64.7999 18.6485C65.8304 18.862 66.3457 19.4699 66.8635 20.1933C68.8742 23.0067 68.9722 26.001 67.6954 29.0706C67.2379 30.1709 67.4164 30.6758 68.3614 31.4369C71.1412 33.6776 72.0712 36.8753 72.3829 40.2916C72.6091 42.8312 72.1968 45.3608 72.2144 47.9004C72.2295 50.1813 72.7925 52.2988 74.4438 53.9291C74.8586 54.3484 75.3617 54.6699 75.9165 54.8702C76.4713 55.0705 77.0638 55.1447 77.6509 55.0872C76.5199 59.1063 73.4536 59.9805 69.9574 60.3271C69.7564 59.3901 69.9122 58.4431 69.9424 57.5011C70.0856 53.3212 70.3445 49.1338 69.8669 44.9639C69.5984 42.3329 69.0783 39.7337 68.3137 37.2019Z" fill="#1D2831"/>
<path d="M107.281 21.9819C107.158 20.6932 105.969 19.5503 104.58 19.4247C104.089 19.3819 103.594 19.4247 103.072 19.4247C102.418 15.9431 100.307 14.0817 96.9489 13.6974C97.7431 11.1678 97.2002 9.21353 95.466 7.86209C93.958 6.68649 91.4295 6.66131 89.6852 7.80426C87.8957 8.97735 87.3201 10.8186 87.9258 13.524C87.6393 13.5667 87.3553 13.5919 87.0763 13.6572C84.4473 14.2651 82.4316 15.5713 81.9138 18.4299C81.7856 19.1408 81.3709 19.1232 80.8557 19.1835C79.599 19.3342 78.7997 20.0954 78.4856 21.2936C78.1714 22.4918 78.3524 23.7905 79.4582 24.2879C80.9286 24.951 81.0115 26.1467 81.283 27.36C81.3427 27.8108 81.4317 28.2572 81.5494 28.6964C82.6226 31.5952 83.2409 34.6271 84.1457 37.5737C84.2714 37.9806 84.3619 38.3273 83.8341 38.6187C82.6352 39.2567 82.4542 40.377 82.7508 41.5476C83.0574 42.7458 83.9421 43.4266 85.1938 43.5572C86.2243 43.6702 87.2523 43.7732 88.3431 43.8888C88.3431 44.5042 88.3255 45.082 88.3431 45.6472C88.3757 46.4937 87.9912 47.4407 88.7628 48.1315C89.0464 48.3736 89.2642 48.6834 89.396 49.032C89.5278 49.3807 89.5694 49.757 89.5168 50.126C89.4565 50.9173 89.4992 51.7161 89.4992 52.5099C89.4992 65.9841 89.4992 79.4575 89.4992 92.9301C89.4992 93.538 89.459 93.9876 88.8131 94.3568C87.6896 94.9974 87.1266 96.1454 87.5036 97.3512C87.9158 98.675 87.6821 99.74 87.0336 100.868C86.837 101.283 86.7097 101.728 86.6566 102.184C86.2369 104.347 85.9026 106.517 85.6512 108.715C85.5155 109.921 85.9679 111.546 84.0502 111.913C83.9773 111.926 83.922 112.019 83.8592 112.071C81.9415 113.644 81.6348 115.794 81.7102 118.077C82.2984 119.683 83.7461 120.017 85.1385 120.127C90.497 120.557 95.8631 120.861 101.224 120.089C101.704 120.019 102.159 119.77 102.627 119.605C104.135 117.238 103.129 113.227 100.571 111.762C99.8619 111.355 99.6332 110.913 99.5251 110.13C99.0225 106.404 98.9923 102.561 97.0846 99.1447C96.9162 98.8432 97.0369 98.6046 97.1248 98.3207C97.6552 96.6352 97.2958 95.1934 95.828 94.1358C95.4886 93.8846 95.4836 93.6058 95.4384 93.2842C95.4126 93.2232 95.3915 93.1602 95.3755 93.0958C95.3755 93.0682 95.4032 93.0356 95.4183 93.0029V92.5281C95.3461 92.412 95.3079 92.278 95.3079 92.1413C95.3079 92.0046 95.3461 91.8706 95.4183 91.7545V90.2648C95.3329 90.1079 95.2882 89.9322 95.2882 89.7537C95.2882 89.5751 95.3329 89.3994 95.4183 89.2425V88.0066C95.4183 87.9161 95.4183 87.8232 95.4183 87.7303C95.4183 87.4791 95.4183 87.2454 95.4183 87.0043C95.3965 86.9421 95.3797 86.8782 95.368 86.8134C95.368 86.7857 95.3982 86.7531 95.4158 86.723L95.3931 86.2507C95.3721 86.1869 95.357 86.1213 95.3479 86.0548C95.3479 86.0296 95.3831 85.997 95.4007 85.9694C95.4007 85.3941 95.4007 84.8164 95.4007 84.2411V83.9598L95.378 81.2192C95.3119 81.1046 95.277 80.9747 95.277 80.8424C95.277 80.7101 95.3119 80.5802 95.378 80.4656L95.3957 78.225C95.3711 78.1624 95.3526 78.0976 95.3403 78.0315C95.3403 78.0039 95.3755 77.9738 95.3957 77.9436C95.3957 77.6925 95.3957 77.4613 95.3957 77.2202C95.3715 77.1581 95.3521 77.0943 95.3378 77.0293C95.3378 77.0016 95.3705 76.969 95.3881 76.9389C95.3881 76.4365 95.3881 75.9541 95.4082 75.4618C95.3848 75.4007 95.3672 75.3377 95.3554 75.2734C95.3554 75.2432 95.3806 75.2106 95.3957 75.1805C95.3957 73.4321 95.3957 71.6821 95.3957 69.9304C95.3103 69.7735 95.2656 69.5978 95.2656 69.4192C95.2656 69.2407 95.3103 69.0649 95.3957 68.908C95.3957 68.4961 95.3956 68.0816 95.3755 67.6671C95.3017 67.5099 95.2635 67.3384 95.2635 67.1647C95.2635 66.9911 95.3017 66.8195 95.3755 66.6623V65.9289C95.3513 65.8668 95.332 65.803 95.3177 65.7379C95.3177 65.7103 95.3504 65.6776 95.368 65.65L95.3906 64.6678C95.3139 64.5539 95.2729 64.4196 95.2729 64.2823C95.2729 64.1449 95.3139 64.0106 95.3906 63.8966V63.4169C95.3666 63.3543 95.3489 63.2895 95.3378 63.2235C95.3378 63.1983 95.3705 63.1657 95.3881 63.1355V62.4071C95.3267 62.3338 95.2931 62.2413 95.2931 62.1458C95.2931 62.0503 95.3267 61.9578 95.3881 61.8845C95.3881 61.7263 95.3881 61.5681 95.3881 61.4073C95.3628 61.3448 95.3434 61.28 95.3303 61.2139C95.3303 61.1862 95.368 61.1561 95.3881 61.1259C95.3881 60.1211 95.3881 59.134 95.3881 58.1392C95.329 58.065 95.2968 57.9729 95.2968 57.878C95.2968 57.7831 95.329 57.691 95.3881 57.6167V53.1178C95.3672 53.0538 95.3512 52.9883 95.3403 52.9218C95.3403 52.8967 95.378 52.864 95.3981 52.8364C95.3981 52.6756 95.4107 52.5174 95.4158 52.3567C95.3269 52.1565 95.2811 51.94 95.2811 51.7211C95.2811 51.5022 95.3269 51.2857 95.4158 51.0856V50.1009C95.3373 49.9867 95.2953 49.8514 95.2953 49.7128C95.2953 49.5743 95.3373 49.4389 95.4158 49.3247C96.5367 47.6517 95.9034 45.7401 96.0818 43.826C97.0872 43.826 98.0498 43.7984 98.9998 43.826C100.199 43.8712 101.149 43.5045 101.616 42.3188C102.084 41.1332 102.028 39.95 101.181 39.0106C100.701 38.4755 100.694 38.061 100.852 37.4657C101.815 33.8359 102.79 30.2086 103.682 26.5612C103.881 25.7524 103.934 25.1243 104.989 24.956C105.685 24.8591 106.315 24.4932 106.743 23.9371C107.172 23.3809 107.365 22.6789 107.281 21.9819ZM92.7616 8.88945C94.0183 8.90452 95.2197 10.2861 95.2272 11.733C95.2348 13.1799 94.6592 13.6195 92.5304 13.6145C90.6453 13.6145 89.7657 13.0493 89.7355 11.8435C89.7028 10.1128 90.9771 8.86935 92.7616 8.88945ZM87.3704 15.6542C89.3898 15.3107 91.4541 15.3269 93.4679 15.702C95.8254 14.8529 100.143 15.7496 100.857 19.3091C98.2911 19.083 95.7676 19.7864 93.2341 19.176C90.218 19.4498 87.1819 19.2363 84.1532 19.1459C84.2487 17.2945 85.4979 15.9506 87.3704 15.6542ZM83.0122 24.9862H94.6718C94.144 29.5077 93.6262 33.9464 93.1034 38.4328C90.8866 38.5885 88.7729 38.4328 86.5008 38.2067C85.3496 33.8509 84.1868 29.4441 83.0122 24.9862ZM90.1351 95.8942C91.6029 95.3265 93.0883 95.4696 94.531 95.9796C95.1041 96.183 95.2851 96.7332 95.1921 97.3285C95.1718 97.5808 95.057 97.8162 94.8706 97.9876C94.6842 98.159 94.44 98.2537 94.1867 98.2529C93.5634 98.2881 92.93 98.2529 92.3142 98.2529C91.613 98.2353 90.8967 98.381 90.2105 98.1198C89.9698 98.0455 89.757 97.9007 89.5997 97.704C89.4424 97.5074 89.3479 97.2681 89.3283 97.017C89.2655 96.4343 89.6601 96.0776 90.1351 95.8942ZM93.3095 60.2091C93.4151 62.6256 93.4478 65.0396 93.4302 67.4486C93.3925 72.3269 93.4075 77.2076 93.3648 82.0834C93.3397 85.1907 93.2266 88.3256 93.4402 91.443C93.4413 91.985 93.3849 92.5256 93.2718 93.0557C93.2216 93.4098 93.0758 93.7188 92.6309 93.656C92.2313 93.5982 91.7538 93.656 91.6884 93.0506C91.5867 92.5193 91.5253 91.9811 91.5049 91.4405C91.6658 87.6951 91.6406 83.9422 91.613 80.2044C91.5753 74.7158 91.7764 69.2321 91.6834 63.7434C91.6029 59.036 91.3315 54.3261 91.6256 49.6161C91.6444 49.4813 91.6721 49.3478 91.7085 49.2167C93.1436 49.0635 93.5458 49.6839 93.488 50.9751C93.3497 54.0497 93.1763 57.1369 93.3095 60.2091ZM92.1257 47.28C90.5951 47.28 90.2507 46.883 90.2532 45.0568C90.2532 43.3989 91.5426 44.1048 92.2891 44.0521C93.9379 43.9566 93.9881 44.0671 93.9831 45.5592C93.9781 47.1292 93.8172 47.28 92.1257 47.28ZM100.852 114.852C101.024 115.622 101.154 116.4 101.242 117.183C101.357 118.08 100.661 118.251 100.048 118.273C98.2609 118.339 96.4714 118.316 94.6818 118.326C91.6356 118.326 88.5844 118.532 85.5431 118.133C84.0351 117.934 83.5852 117.58 83.731 116.332C83.9823 114.287 84.666 113.508 85.8146 113.568C87.9409 113.679 90.0874 113.631 92.2087 113.646C94.5763 113.646 96.9439 113.669 99.3115 113.669C100.141 113.676 100.659 114.091 100.852 114.862V114.852ZM96.3281 102.069C96.8911 104.503 97.4139 106.949 97.4767 109.461C97.5295 111.587 97.5194 111.531 95.4032 111.619C93.7443 111.689 92.093 111.87 90.4719 111.348C89.6928 111.79 88.8508 111.566 88.0364 111.556C87.4508 111.556 87.398 111.084 87.4383 110.662C87.7273 107.479 88.0968 104.309 89.0393 101.24C89.1725 100.803 89.3459 100.353 89.934 100.35C91.5501 100.366 93.1462 100.634 94.7874 100.381C95.7701 100.24 96.1522 101.275 96.3382 102.079L96.3281 102.069ZM98.7535 41.7586C94.4959 42.0601 90.2382 41.7008 85.9805 41.7159C85.425 41.7159 84.6811 41.6481 84.7238 40.8217C84.7665 39.9952 85.4778 40.0304 86.0534 40.0103C86.8903 39.9852 87.7273 40.0103 88.5668 40.0103V40.2439C91.9448 40.2439 95.3227 40.2439 98.7007 40.2439C99.1657 40.2439 99.7061 40.2439 99.7287 40.8795C99.7514 41.515 99.3341 41.7285 98.7636 41.7687L98.7535 41.7586ZM98.5022 38.4429H95.3051C95.8631 33.9514 96.4161 29.5052 96.974 25.0113H101.848L98.5022 38.4429ZM103.878 22.9113C100.578 22.9113 97.2757 22.9113 93.3221 22.9113C89.8938 22.8359 85.797 23.0645 81.7102 22.6877C81.102 22.6299 80.4359 22.6299 80.4535 21.8236C80.4535 20.972 81.107 21.07 81.7303 21.0876C85.9101 21.1378 90.0899 21.1253 94.2696 21.1805C97.4792 21.2232 100.686 21.3388 103.893 21.4317C104.421 21.4468 104.972 21.4995 104.977 22.1853C104.982 22.8711 104.414 22.9188 103.893 22.9214L103.878 22.9113Z" fill="#1D2831"/>
<path d="M62.8695 43.7305C62.2591 44.0952 61.5689 44.3056 60.8588 44.3435C60.769 44.4476 60.644 44.5149 60.5076 44.5325C60.3712 44.5501 60.2331 44.5168 60.1198 44.4389C60.238 44.1701 60.522 44.2757 60.7055 44.1601C61.0322 43.924 61.3816 43.708 61.6832 43.4417C61.9848 43.1754 62.407 42.8187 62.1859 42.3163C61.9923 41.8541 61.663 41.4799 61.0573 41.6482C59.1798 42.9393 59.1321 43.0197 59.4136 44.4741C58.3605 44.3385 57.428 43.924 56.4805 43.5723C56.2291 43.4944 55.93 43.5974 55.7667 43.3211L54.2963 43.1051C51.6422 42.7383 49.8376 44.3611 50.0939 46.8404C50.2699 48.546 51.1269 49.8849 52.3032 51.063H52.2529C52.3987 51.0882 52.5043 51.1535 52.5219 51.3142C52.6218 51.3078 52.7216 51.329 52.8103 51.3756C52.8989 51.4221 52.9731 51.4921 53.0245 51.5779L52.9969 51.5629L53.2708 51.8291V51.799C58.0111 53.5574 60.2329 52.4145 61.5449 47.5287C61.751 46.7525 62.0074 46.0692 62.877 45.7703C63.2516 45.5917 63.5833 45.3347 63.8497 45.0167C64.0067 44.8729 64.1051 44.6762 64.126 44.4643C64.1468 44.2525 64.0888 44.0404 63.9628 43.8687C63.6713 43.3789 63.254 43.4919 62.8695 43.7305ZM58.6394 49.699C58.5691 49.7618 58.4962 49.8221 58.4233 49.8824L58.1041 50.1336C58.001 50.3446 57.7975 50.3496 57.6014 50.3847L57.5512 50.3396L57.5964 50.3898C56.8424 50.8419 56.0507 50.7163 55.2564 50.5229C55.2177 50.5316 55.1773 50.5283 55.1405 50.5135C55.1037 50.4987 55.0723 50.4731 55.0503 50.4401L54.4672 50.1662L54.4396 50.1411C54.4021 50.1478 54.3634 50.1419 54.3297 50.1241C54.296 50.1064 54.2692 50.0779 54.2536 50.0432C54.2132 50.0436 54.1736 50.0315 54.1403 50.0086C54.107 49.9856 54.0816 49.953 54.0676 49.915L53.7283 49.6186L53.477 49.3674L53.5222 49.3197L53.4719 49.3624L53.2382 49.0886L53.0245 48.8198C52.879 48.6242 52.7447 48.4204 52.6224 48.2094C51.3984 45.8381 51.9463 44.9765 54.6582 45.0719C54.804 45.6798 54.9548 46.3053 55.1056 46.9283C55.6083 47.0991 56.0079 47.3829 56.1286 47.9331L56.8575 48.1667H56.8751L58.0036 48.2069L58.5993 47.9155C58.6146 47.8784 58.6414 47.8472 58.6758 47.8264C58.7102 47.8056 58.7503 47.7964 58.7903 47.8C58.9939 47.6895 59.1497 47.4584 59.5242 47.5488C59.5321 47.9487 59.4577 48.3459 59.3055 48.7158C59.1533 49.0857 58.9266 49.4204 58.6394 49.699Z" fill="#1D2831"/>
<path d="M53.349 56.0216C53.3263 56.3331 53.3012 56.6546 53.2685 57.0439C53.1555 57.0131 53.0513 56.9565 52.9641 56.8785C52.8768 56.8004 52.8089 56.7032 52.7658 56.5943C51.2578 53.9342 48.9958 52.6128 45.8867 52.8414C44.3007 52.9595 43.1521 53.8738 43.0441 55.4086C42.9083 57.3429 43.4135 59.2394 43.8685 61.1109C44.0243 61.7514 44.6225 62.1935 45.1553 62.6181C47.3621 64.3614 52.4944 63.0802 53.5149 60.4075C53.8139 59.6213 54.113 59.1138 55.0505 59.1766C55.6437 59.2143 55.9604 58.7722 56.0157 58.2196C56.1338 57.0138 54.5981 55.7378 53.349 56.0216ZM44.5521 56.0794C44.8939 54.7355 45.5977 54.2959 46.8141 54.5496C48.478 54.8962 49.9509 55.5117 51.1171 57.0993C48.7042 57.2073 46.5854 56.9435 44.5395 56.0794H44.5521ZM45.9747 61.0556C45.2634 60.4301 45.0749 59.6187 45.291 58.5612C47.5832 59.041 49.8428 59.0787 52.1325 59.0309C51.4865 61.6936 47.3118 62.2413 45.9621 61.0556H45.9747Z" fill="#1D2831"/>
<path d="M55.058 34.5292C57.1064 35.6922 58.7427 37.3803 60.5473 38.8498C60.9922 39.2115 61.3465 39.4727 61.804 39.101C62.2614 38.7292 61.8593 38.3474 61.6481 38.0083C60.3638 36.0213 58.7779 34.3333 56.6892 33.1702C56.3208 32.9978 55.9403 32.8525 55.5507 32.7356C55.1008 32.8687 54.681 32.9868 54.5177 33.4214C54.3241 33.9414 54.6282 34.283 55.058 34.5292Z" fill="#1D2831"/>
<path d="M49.7121 32.9542C49.5261 32.2985 48.9757 32.1076 48.3373 32.1353C46.6181 32.1579 42.6168 34.6874 41.7497 36.3077C41.6139 36.5589 41.4028 36.81 41.6718 37.0989C42.0714 37.5109 42.4635 37.227 42.7953 37.011C44.6828 35.7701 46.779 34.9637 48.8424 34.0871C49.3627 33.866 49.9132 33.66 49.7121 32.9542Z" fill="#1D2831"/>
<path d="M53.2811 51.7814C53.447 52.3793 54.0778 52.736 54.1658 53.4293C53.7008 53.8413 53.2735 54.0749 52.6226 53.7282C51.9716 53.3816 51.2905 53.261 50.6571 52.957C50.2022 52.7385 49.7674 52.3215 49.9307 51.7839C49.9649 51.6532 50.0246 51.5305 50.1063 51.4229C50.188 51.3153 50.2901 51.2248 50.4068 51.1567C50.5236 51.0886 50.6526 51.0441 50.7865 51.0259C50.9205 51.0076 51.0567 51.016 51.1874 51.0505C51.5586 51.0844 51.9322 51.0844 52.3034 51.0505H52.2531L52.5245 51.3017L52.5095 51.2866C52.5608 51.3772 52.6379 51.4506 52.7309 51.4975C52.8239 51.5445 52.9288 51.5629 53.0322 51.5503L53.0046 51.5353L53.2786 51.8015L53.2811 51.7814Z" fill="#A0637D"/>
<path d="M50.9738 64.0625C48.3373 65.2732 46.1406 65.0923 45.947 63.7007C47.6385 63.5927 49.2496 64.6854 50.9738 64.0625Z" fill="#A0637D"/>
<path d="M66.132 44.0772C66.6346 43.7557 66.886 43.8989 67.082 44.351C66.7 44.6047 66.416 44.5645 66.132 44.0772Z" fill="#A0637D"/>
<path d="M62.3361 80.9853L62.2488 81.0228L62.2837 80.9354L62.3361 80.9853Z" fill="#A0637D"/>
<path d="M44.4964 31.2558L44.4064 31.2957L44.4489 31.2058L44.4964 31.2558Z" fill="#A0637D"/>
<path d="M68.3512 69.9051L68.3062 69.8676L68.3462 69.9101L68.3512 69.9051Z" fill="#A0637D"/>
<path d="M93.2012 115.902L93.1687 115.817L93.2561 115.847L93.2012 115.902Z" fill="#304E55"/>
<path d="M53.0071 48.8299C52.8615 48.6342 52.7272 48.4304 52.6049 48.2195C51.3809 45.8482 51.9288 44.9866 54.6408 45.082C54.7866 45.6899 54.9373 46.3154 55.0881 46.9383C55.1171 47.1978 55.2346 47.4395 55.4209 47.6225C55.6072 47.8055 55.851 47.9187 56.1111 47.9431C56.2044 48.0384 56.3195 48.1095 56.4466 48.1502C56.5736 48.191 56.7087 48.2001 56.84 48.1768H56.8576C57.0094 48.3181 57.2071 48.3999 57.4143 48.4073C57.6216 48.4146 57.8246 48.3471 57.9861 48.217C58.1028 48.2296 58.2207 48.209 58.3261 48.1574C58.4316 48.1058 58.5202 48.0255 58.5818 47.9256C58.5971 47.8885 58.6239 47.8573 58.6583 47.8365C58.6927 47.8157 58.7328 47.8064 58.7728 47.81C59.3483 48.4782 58.6873 49.0535 58.627 49.6714C58.5566 49.7342 58.4837 49.7945 58.4109 49.8548L58.0917 50.106L57.589 50.3572L57.5387 50.312L57.5839 50.3622L55.244 50.4953C55.2053 50.504 55.1649 50.5007 55.1281 50.4859C55.0913 50.4711 55.0598 50.4455 55.0379 50.4124C54.9273 50.1436 54.6735 50.1788 54.4548 50.1386L54.4271 50.1135C54.415 50.0762 54.3888 50.0451 54.354 50.0268C54.3193 50.0085 54.2788 50.0044 54.2411 50.0155C54.2007 50.0159 54.1611 50.0039 54.1278 49.9809C54.0945 49.958 54.0691 49.9253 54.0551 49.8874L53.7158 49.591L53.4645 49.3398L53.5098 49.2921L53.4595 49.3348L53.2257 49.061L53.0071 48.8299Z" fill="#EAD8B3"/>
<path d="M58.6396 49.6989C58.7 49.081 59.361 48.5058 58.7854 47.8376C58.989 47.7271 59.1448 47.496 59.5193 47.5864C59.5228 47.9796 59.4466 48.3694 59.2955 48.7325C59.1443 49.0955 58.9212 49.4243 58.6396 49.6989Z" fill="#C0B9A3"/>
<path d="M56.1112 47.9532C55.8511 47.9288 55.6074 47.8156 55.421 47.6325C55.2347 47.4495 55.1172 47.2079 55.0883 46.9484C55.596 47.1091 55.9906 47.398 56.1112 47.9532Z" fill="#C0B9A3"/>
<path d="M55.2539 50.5178L57.5939 50.3847C56.8374 50.8369 56.0481 50.7113 55.2539 50.5178Z" fill="#C0B9A3"/>
<path d="M57.9936 48.247C57.8321 48.3771 57.6291 48.4447 57.4219 48.4373C57.2146 48.4299 57.0169 48.3481 56.8651 48.2068L57.9936 48.247Z" fill="#C0B9A3"/>
<path d="M55.7643 43.2934C56.0156 43.3713 56.3977 43.0975 56.4907 43.5723C56.2443 43.4919 55.9201 43.6049 55.7643 43.2934Z" fill="#C37699"/>
<path d="M60.8615 44.3435C60.7718 44.4476 60.6467 44.5149 60.5103 44.5325C60.3739 44.5501 60.2359 44.5168 60.1226 44.4389C60.2407 44.1701 60.5247 44.2756 60.7082 44.1601C60.7585 44.2229 60.8087 44.2832 60.8615 44.3435Z" fill="#C37699"/>
<path d="M58.5945 47.9531C58.5329 48.053 58.4442 48.1334 58.3388 48.185C58.2334 48.2366 58.1155 48.2572 57.9988 48.2446L58.5945 47.9531Z" fill="#C0B9A3"/>
<path d="M56.8475 48.1968C56.7162 48.2201 56.5811 48.211 56.4541 48.1703C56.3271 48.1296 56.2119 48.0585 56.1187 47.9632L56.8475 48.1968Z" fill="#C0B9A3"/>
<path d="M54.465 50.1612C54.6836 50.2014 54.9375 50.1612 55.0481 50.435L54.465 50.1612Z" fill="#C0B9A3"/>
<path d="M57.5992 50.3797L58.1019 50.1285C57.9938 50.3446 57.7903 50.3496 57.5992 50.3797Z" fill="#C0B9A3"/>
<path d="M53.0425 51.5603C52.939 51.5729 52.8341 51.5545 52.7411 51.5075C52.6481 51.4606 52.571 51.3872 52.5197 51.2966C52.6229 51.2863 52.7269 51.3057 52.8195 51.3524C52.9121 51.3991 52.9894 51.4712 53.0425 51.5603Z" fill="#C37699"/>
<path d="M52.5345 51.3117L52.2631 51.0605C52.4139 51.073 52.5245 51.1409 52.5345 51.3117Z" fill="#C37699"/>
<path d="M54.2512 50.0381C54.2889 50.027 54.3294 50.0311 54.3641 50.0493C54.3989 50.0676 54.4251 50.0988 54.4372 50.1361C54.3997 50.1428 54.3611 50.1368 54.3274 50.1191C54.2937 50.1013 54.2669 50.0728 54.2512 50.0381Z" fill="#C0B9A3"/>
<path d="M52.1199 59.031C51.4865 61.6937 47.3118 62.2413 45.9621 61.0557C45.2508 60.4302 45.0623 59.6188 45.2784 58.5612C47.5706 59.041 49.8302 59.0787 52.1199 59.031Z" fill="#BD6530"/>
<path d="M44.5393 56.0794C44.8811 54.7355 45.5849 54.2959 46.8014 54.5496C48.4652 54.8962 49.9381 55.5117 51.1043 57.0993C48.704 57.2073 46.5852 56.9435 44.5393 56.0794Z" fill="#D68734"/>
</svg>
