<svg width="130" height="130" viewBox="0 0 130 130" fill="none" xmlns="http://www.w3.org/2000/svg">
<path d="M129.062 0.753601H0.376221V129.367H129.062V0.753601Z" fill="#D2BE93"/>
<path opacity="0.3" d="M63.8871 123.338C95.7706 123.338 121.617 113.19 121.617 100.672C121.617 88.1545 95.7706 78.0068 63.8871 78.0068C32.0037 78.0068 6.1571 88.1545 6.1571 100.672C6.1571 113.19 32.0037 123.338 63.8871 123.338Z" fill="#1D2831"/>
<path d="M103.928 92.732C103.902 92.8923 103.921 93.0566 103.983 93.2065C104.045 93.3565 104.148 93.4862 104.28 93.5811C105.803 95.1838 107.256 96.8467 108.869 98.3539C110.483 99.8611 110.415 101.665 109.948 103.524C109.493 105.32 108.022 105.935 106.361 106.214C102.724 106.822 99.0922 107.47 95.4453 108.007C94.0202 108.221 92.5624 108.075 91.1172 108.259C90.1445 108.382 89.1492 108.377 88.164 108.51C86.8319 108.686 85.5023 108.083 84.1426 108.51C83.4262 108.738 83.0291 109 83.2578 109.766C83.66 111.11 83.2981 112.358 82.7074 113.521C82.0891 114.742 81.3351 115.895 80.6037 117.056C80.4002 117.384 80.1077 117.647 79.7602 117.816C79.4127 117.984 79.0245 118.051 78.6407 118.008C75.2223 117.776 71.8312 117.243 68.5068 116.415C66.7474 115.965 66.4709 115.601 66.4508 113.813C66.4508 113.363 66.5463 112.901 66.3101 112.361C65.0534 112.547 63.7841 112.68 62.54 112.936C58.4781 113.752 54.369 114.313 50.2369 114.616C48.186 114.77 46.2407 114.209 44.8156 112.313C43.6443 110.753 42.448 109.15 40.7414 108.043C40.0497 107.558 39.4674 106.935 39.0323 106.211C38.9518 106.056 38.8165 105.936 38.6527 105.874C38.4889 105.812 38.3081 105.814 38.145 105.877C37.9769 105.924 37.831 106.029 37.733 106.174C37.635 106.318 37.5913 106.492 37.6096 106.666C37.7604 109.515 36.828 110.208 33.4701 110.833C31.4468 111.21 29.4361 111.587 27.3525 111.522C25.8445 111.474 24.6632 110.982 23.977 109.61C23.1225 107.907 22.2177 106.221 21.534 104.45C21.0715 103.242 21.2299 101.883 21.4611 100.61C21.5918 99.8987 22.185 99.4943 22.8913 99.2657C24.7867 98.688 26.7458 98.3447 28.7248 98.2434C29.5582 98.2176 30.3861 98.0988 31.193 97.8891C31.2609 97.4546 30.8914 97.4596 30.6903 97.4194C26.2818 96.5855 22.7002 93.963 18.8321 91.9609C17.9499 91.5037 17.5025 90.8129 17.7086 89.8182C17.9022 88.8787 18.5456 88.2934 19.4379 88.0171C20.1542 87.796 20.8982 87.6554 21.5717 87.4921C20.9032 77.8436 21.1696 68.2906 21.1344 58.7426C21.1344 57.9312 21.0113 57.2781 20.305 56.7656C19.7169 56.3411 19.4907 55.6955 19.5083 54.9545C19.5937 51.7668 19.6616 48.5766 19.747 45.3889C19.7338 45.122 19.7901 44.8564 19.9104 44.6178C21.1093 42.7539 20.6368 40.7342 20.496 38.7422C20.4487 38.1733 20.4303 37.6023 20.4407 37.0315C20.5287 34.1327 20.2647 31.2541 20.2069 28.3527C20.1692 26.5742 20.2974 26.3431 22.0618 25.8809C26.5859 24.6752 31.1226 23.4744 35.702 22.4596C39.5976 21.5673 43.5419 20.903 47.5149 20.4701C48.8018 20.337 50.1012 20.3018 51.3881 20.234C60.1171 19.7844 68.8586 19.8522 77.5927 20.023C82.1168 20.1084 86.6082 20.7314 91.0996 21.3016C95.6488 21.8768 100.148 22.653 104.421 24.3385C106.934 25.3207 107.55 26.3481 107.492 28.7948C107.371 33.8916 106.952 38.9683 106.597 44.05C106.461 45.9843 106.404 47.921 106.107 49.8276C106.027 50.1686 106.078 50.5273 106.25 50.8324C107.329 52.5003 107.369 54.3893 107.175 56.2356C107.009 57.8383 107.052 59.4283 107.012 61.0259C106.997 61.6037 107.012 62.1991 106.74 62.704C105.863 64.2739 105.861 65.9695 105.848 67.7003C105.793 74.5127 105.049 81.3026 105.142 88.1226C105.142 88.8762 105.046 89.6122 105.142 90.3834C105.237 91.4359 105.479 92.6492 103.928 92.732ZM58.4205 105.337L58.6719 105.694C58.9936 106.312 59.2098 107.229 60.1523 106.844C60.7092 106.65 61.2967 106.557 61.8865 106.571C62.736 106.533 63.5831 106.43 64.2416 105.799C63.103 103.513 62.7033 103.305 60.2503 103.659C59.7275 103.734 59.1997 103.787 58.6744 103.85C58.34 103.865 58.0078 103.911 57.6816 103.986C57.0407 104.189 57.4302 104.317 57.7369 104.43C57.7243 104.774 57.9707 104.945 58.2019 105.126L58.1893 105.109L58.4406 105.36L58.4205 105.337ZM64.6361 75.824V75.8667C64.7644 75.8915 64.8971 75.8813 65.0201 75.8371C65.143 75.7929 65.2518 75.7163 65.3349 75.6155V75.6306C65.9883 75.4346 66.2246 74.9297 65.9129 74.4047C65.4605 73.6511 64.8825 74.1133 64.3723 74.4449L63.7011 75.0879C63.6305 75.1103 63.5615 75.1381 63.495 75.1709C61.9568 75.6557 61.6704 76.0149 61.6528 77.5899C61.6707 78.0812 61.5983 78.5716 61.4391 79.0368L61.1476 79.4588L61.1677 79.4412L60.484 79.9436C60.0768 80.0566 59.6873 80.2124 59.6295 80.6972C59.5893 81.0413 59.828 81.2473 60.1196 81.3629C60.2194 81.4145 60.3286 81.4454 60.4407 81.4536C60.5528 81.4617 60.6654 81.4471 60.7717 81.4104C60.8779 81.3738 60.9756 81.3159 61.0588 81.2404C61.142 81.1648 61.209 81.0732 61.2556 80.971L61.2029 80.9233C61.4316 80.966 61.5472 80.8178 61.6553 80.6545L62.3389 79.9989L62.6304 79.7477L62.8064 79.5693L63.0577 79.2754V79.3081C63.1861 79.2376 63.2929 79.1335 63.3664 79.0069C63.4399 78.8803 63.4775 78.736 63.475 78.5897C63.4926 78.3812 63.5504 78.1651 63.3619 77.9968C63.5227 77.5196 63.4398 76.9719 63.774 76.5424L64.4225 76.1204C64.5231 76.0501 64.6788 76.0224 64.6311 75.824H64.6361ZM85.5777 75.0377L85.9044 75.3844L86.5076 75.9345L86.5353 75.8767L86.5956 76.9393L86.1809 77.4417C85.7561 78.0521 85.8114 78.6751 86.1306 79.3056L86.103 79.2704C86.1061 79.3661 86.1322 79.4595 86.179 79.543C86.2258 79.6265 86.2919 79.6976 86.3719 79.7502L86.3594 79.7351C86.6333 80.1847 86.9927 80.3229 87.4728 80.0793C87.6161 79.6422 87.6562 79.2478 87.3195 78.9062C87.3396 78.6098 87.1737 78.2631 87.5407 78.0571C87.7518 78.037 87.792 77.8662 87.8624 77.7105L87.8397 77.7456C88.3424 77.2558 88.6918 76.7409 88.2746 76.0099L88.3123 76.0324L88.0157 75.5577L88.0333 75.5753C87.5633 74.7413 86.5378 74.2766 86.392 73.2492C86.3166 72.7292 86.0401 72.4554 85.6204 72.4428C85.0725 72.4252 84.8664 72.8774 84.8086 73.3673C84.7839 73.5743 84.8036 73.7842 84.8664 73.983C84.9293 74.1818 85.0338 74.365 85.173 74.5202H85.1379C85.1671 74.628 85.2187 74.7284 85.2892 74.815C85.3598 74.9015 85.4479 74.9723 85.5476 75.0226L85.5777 75.0377ZM93.2486 92.5361C93.4245 92.9054 93.7361 92.9807 94.1031 92.928L96.903 92.5186C97.6702 92.6101 98.4471 92.4683 99.1324 92.1116C98.3482 91.4082 97.9134 90.3532 96.7221 90.4738C95.2141 90.6195 93.7362 90.8305 92.2357 91.0139C92.2357 91.5917 92.6403 91.7901 92.9218 92.0739L93.2486 92.5361ZM47.6682 106.038H47.6507C48.3318 107.07 48.744 108.429 50.3928 108.299L57.7193 107.337C56.5028 104.875 56.0102 104.616 53.7406 105.119H53.1273C52.9162 105.119 52.7076 105.134 52.5945 105.37C51.7224 105.287 50.8351 105.488 49.9705 105.169C48.5781 104.036 47.7286 102.489 46.8162 100.996C45.9717 99.6149 46.208 99.1426 47.7814 98.8311C48.4876 98.693 49.2894 98.9266 49.9906 98.3287C49.307 97.4973 49.1738 96.2111 47.6707 96.4523C46.0546 96.7035 44.421 96.8542 42.8023 97.0929C41.5783 97.2737 41.3798 97.6229 42.1288 98.6377C43.8881 101.027 45.4615 103.559 47.3817 105.835L47.6682 106.038ZM100.377 98.0424C99.2782 97.9067 98.2276 98.1102 97.1644 98.4041C98.2125 100.785 98.856 101.122 101.06 100.509L107.195 99.7254C106.381 98.9718 105.715 98.2182 104.996 97.5224C104.914 97.4421 104.815 97.3819 104.706 97.3466C104.597 97.3113 104.481 97.3018 104.368 97.3189C103.016 97.4646 101.666 97.5802 100.372 98.0424H100.377ZM51.1141 103.247C53.0721 103.167 54.9797 102.727 56.8949 102.401C57.2418 102.34 57.6489 102.313 57.2845 101.795C56.9426 101.165 56.6084 100.539 56.2565 99.9088C56.1715 99.7378 56.031 99.6006 55.8581 99.5194C55.6852 99.4382 55.4899 99.4179 55.3039 99.4616C53.5069 99.7304 51.7148 100.037 49.8926 100.095C49.4176 100.11 48.9048 100.406 49.1386 100.818C49.6388 101.735 49.875 102.921 51.1191 103.242L51.1141 103.247ZM49.0556 111.723C49.9303 111.723 50.815 111.816 51.6796 111.677C56.822 110.856 61.9518 109.949 67.0967 109.14C68.3182 108.949 69.0044 108.211 69.8062 107.254C69.5844 107.218 69.3598 107.202 69.1351 107.206C66.5438 107.616 63.9575 108.063 61.3637 108.442C57.2643 109.042 53.16 109.597 49.0481 110.173C48.5546 110.089 48.1081 109.829 47.7914 109.442C46.6553 107.97 45.5068 106.505 44.3883 105.021C43.1869 103.423 42.0131 101.805 40.7715 100.12C40.0175 101.125 40.294 101.911 41.048 102.582C41.802 103.252 42.4077 103.908 42.4228 104.965C42.4468 105.154 42.5304 105.33 42.6616 105.468C44.4209 107.52 46.1804 109.555 48.0981 111.464C48.3821 111.745 48.7138 111.743 49.0607 111.723H49.0556ZM81.3351 26.3758C78.686 25.0469 75.8057 24.3009 73.0409 23.2709C71.4902 22.6932 69.8941 22.1029 68.2253 22.0602C64.9126 21.9723 61.5974 22.0124 58.2823 22.015C58.0309 22.015 57.7168 21.8492 57.5107 22.2335C60.0155 22.7175 62.4711 23.428 64.8473 24.3561C66.5589 25.0319 68.4615 25.3785 69.781 26.8455C69.8413 27.2876 69.8992 27.7272 69.9595 28.1668V36.9989C71.5404 36.1021 72.777 35.449 73.9659 34.7155C75.3935 33.8363 76.2505 33.9067 77.374 35.12C78.4296 36.2629 78.681 36.2604 79.7919 35.12C81.5739 33.2686 81.7171 33.2611 83.562 34.9089C83.6022 34.9466 83.6977 34.9215 83.8133 34.9291C84.0923 32.5879 84.1024 30.2342 84.1526 27.883C84.1677 27.1595 83.856 27.0213 83.2453 27.2298C82.5868 27.0113 82.0967 26.3883 81.3351 26.3758ZM41.7191 55.4619C34.9932 52.4199 28.3629 49.182 21.8381 45.8837C21.7198 45.9613 21.6269 46.072 21.571 46.202C21.5151 46.332 21.4988 46.4756 21.5239 46.6148C21.6622 48.9434 21.4134 51.2619 21.2726 53.5779C21.1821 55.0851 21.7753 55.8387 23.0697 56.4567C27.6793 58.6597 32.2486 60.9481 36.8356 63.1963C38.4089 63.965 39.9421 64.8241 41.6311 65.334C43.5061 66.2232 45.2554 67.3435 47.1605 68.18C50.1012 69.4712 52.9614 70.9432 55.8518 72.3424C56.1761 72.5006 56.4274 72.6112 56.7617 72.2921C58.7463 70.4233 60.9389 68.7882 63.2965 67.4189C63.4599 67.3234 63.6358 67.2406 63.6082 66.9668C63.3267 66.5046 62.7938 66.3463 62.3364 66.0926C59.3806 64.4623 56.4048 62.8697 53.4641 61.2143C49.6639 59.0817 45.5972 57.4665 41.7191 55.4695V55.4619ZM22.8686 58.5742L22.7983 58.8581C22.7807 62.3523 22.7002 65.8464 22.8661 69.3381V69.6947C22.7518 71.2383 22.7518 72.7882 22.8661 74.3318C23.1677 77.6225 22.7857 80.9434 23.1049 84.2541C23.223 85.5101 23.2809 86.3366 24.6481 87.0877C27.9155 88.8862 31.2357 90.5793 34.5836 92.2221C35.0661 92.4582 35.5411 92.6216 36.1066 92.3427C37.6147 91.5891 39.1378 90.9009 40.6584 90.1925C41.0254 90.0217 41.2717 89.8257 41.2767 89.3484C41.2767 88.4743 41.4149 87.6026 41.42 86.7285C41.4501 80.5867 41.4426 74.4474 41.5004 68.3081C41.5004 67.4867 41.2239 67.0924 40.5151 66.7557C34.9354 64.1006 29.3733 61.4078 23.7986 58.7426C23.5221 58.617 23.2482 58.2778 22.8686 58.5818V58.5742ZM68.5947 30.7391C68.6493 30.6698 68.6771 30.5831 68.6729 30.495C68.6688 30.4068 68.633 30.3232 68.5721 30.2593C68.4289 27.8855 68.4289 27.8855 66.0587 28.0739C65.9833 28.0739 65.9079 28.094 65.83 28.0965C62.2786 28.2648 58.7247 28.4607 55.1707 28.5989C51.1493 28.7496 47.1505 29.0485 43.1567 29.3952C43.1567 37.2501 43.1769 45.0623 43.1341 52.8721C43.1341 53.8769 43.3854 54.4169 44.3481 54.839C47.7562 56.3336 51.1066 57.9889 54.4016 59.7071C57.9932 61.5861 61.6025 63.4751 65.0911 65.555C65.7144 65.9268 66.1919 65.9117 66.863 65.5977C73.0158 62.714 79.3194 62.3749 85.6983 64.7562C86.5931 65.0903 87.1762 65.0401 87.8347 64.4322C88.8677 63.4801 90.0967 62.7391 91.082 61.7644C92.9469 59.8955 95.214 58.5541 97.177 56.8058C99.1586 55.0124 101.242 53.3349 103.418 51.7818C104.109 51.2945 104.423 50.6339 104.551 49.7874C104.901 47.4889 104.629 45.1703 104.923 42.8669C105.175 40.7694 105.227 38.6392 105.288 36.5191C105.368 33.5952 105.712 30.6763 105.607 27.6368C99.0042 27.3429 92.477 27.888 85.6682 27.7423C85.6682 30.4351 85.6808 32.9471 85.6682 35.459C85.6682 36.1398 85.6556 36.8357 85.3012 37.4561C85.0071 37.9585 84.7985 38.3052 84.1275 37.7073C83.3307 36.9939 82.5667 36.175 81.5487 35.6977C81.2934 35.9704 81.0527 36.2563 80.8274 36.5543C79.4451 38.6267 78.2939 38.7548 76.5547 37.014C75.298 35.758 75.0994 35.7279 73.6743 36.8055C72.8097 37.4586 71.8169 37.8303 70.8367 38.2172C69.4166 38.7748 68.826 38.29 68.6701 36.7854C68.454 34.7657 68.7078 32.7562 68.5947 30.7466V30.7391ZM22.2252 28.4632C22.2252 33.5048 22.2252 38.4106 22.2252 43.3165C22.2252 43.947 22.6047 44.158 23.0647 44.3891C28.6143 47.1824 34.0607 50.1667 39.6882 52.8143C40.2286 53.0655 40.7263 53.4423 41.4904 53.5252V50.2144C41.4904 43.6606 41.4903 37.1069 41.528 30.5532C41.528 29.6639 41.2918 29.2972 40.3794 29.365C39.5827 29.4203 38.7784 29.365 37.9766 29.365C34.5919 29.2829 31.2072 29.1448 27.8225 28.9505C25.8872 28.8375 24.0022 28.2824 22.2252 28.4708V28.4632ZM73.6693 82.8173C72.6011 81.9532 71.0503 82.1818 70.1958 81.0589C67.5768 82.3149 65.1262 83.7241 62.4319 84.6059C60.8283 85.1283 59.0765 85.4096 57.6137 84.6937C55.8292 83.8221 54.6127 84.224 53.0167 85.1585C50.0007 86.9294 46.9318 88.6375 43.873 90.3532C43.6217 90.4989 43.1995 90.7049 43.1894 90.8984C43.1316 92.3076 43.1592 93.7218 43.1592 95.2968C44.1344 94.7768 44.9639 95.0255 45.7682 94.9602C47.1606 94.8472 48.5329 94.508 49.9203 94.2744C51.6796 93.973 53.4742 93.7921 54.9923 92.6919C56.8044 91.3781 58.7925 90.3683 60.8082 89.4037C64.895 87.4494 68.7606 85.0379 73.0459 83.493C73.3299 83.3975 73.6241 83.2619 73.6693 82.8248V82.8173ZM43.2573 88.62L54.2207 82.4054C52.7704 79.4689 53.0419 76.673 54.8314 74.0028C50.9532 71.9706 47.1958 70.0112 43.2573 68.18V88.62ZM105.072 52.538C99.2908 57.1575 93.9046 61.9026 88.1213 66.3689C90.2253 67.647 92.0537 69.3309 93.4999 71.3225C94.5655 70.3007 95.7028 69.3563 96.903 68.4965C99.1902 66.8713 101.311 65.0451 103.589 63.4173C104.237 62.9526 105.069 62.5256 105.069 61.5157C105.084 58.6295 105.084 55.7382 105.084 52.5455L105.072 52.538ZM103.347 86.937C103.33 79.6522 104.124 72.6036 103.983 65.241C100.937 68.0519 97.544 69.956 94.7843 72.7393C95.2643 73.1035 95.679 73.4501 95.4377 74.0806C95.1663 74.794 94.5706 74.6835 93.995 74.6735C93.4195 74.6634 92.8213 74.4951 92.5096 75.2839L96.1541 76.0777C96.7648 76.2108 97.1242 76.5424 96.9231 77.2081C96.722 77.8738 96.2471 77.9918 95.5961 77.8135C94.729 77.5623 93.8367 77.3839 92.9595 77.2307C92.4795 77.1478 91.9542 77.1553 91.8235 77.7481C91.9617 78.0998 92.2306 78.0421 92.4267 78.135C94.1383 78.9489 96.0661 79.0142 97.8154 79.7025C98.3181 79.8984 98.6046 80.1672 98.4613 80.7223C98.3332 81.2247 97.9586 81.3603 97.4886 81.3076C97.187 81.2749 96.8955 81.1694 96.5964 81.1293C95.7419 81.0162 94.8999 80.6495 93.8317 80.9761C97.2021 82.7445 100.095 84.9048 103.36 86.9445L103.347 86.937ZM72.6689 80.4309C73.0082 80.6193 73.1012 80.6822 73.2018 80.7249C78.4347 83.174 83.4263 86.0779 88.438 88.9365C89.2397 89.3937 89.9787 89.5795 90.803 89.2957C91.4716 89.0646 92.1477 89.0947 92.8138 89.0646C93.5678 89.0294 94.3218 89.14 95.0959 89.0093C97.0086 88.6853 98.9012 88.4843 100.228 90.3834C100.354 90.5274 100.498 90.6534 100.658 90.7577C101.342 91.2952 103.023 91.2601 103.38 90.617C103.898 89.68 103.335 89.0445 102.573 88.5396C102.445 88.4567 102.322 88.3637 102.199 88.2733C101 87.3991 99.6024 86.7661 98.4764 85.8593C97.1142 84.7415 95.6262 83.8497 94.2037 82.845C93.6583 82.4631 93.0802 82.4505 92.3764 82.6213C90.1521 83.1589 87.8825 83.2493 85.8064 82.119C84.4451 81.3934 82.9663 80.9138 81.4382 80.7022C80.8777 80.6168 80.3021 80.5716 79.7567 80.5339C77.5374 80.3832 75.2753 80.0717 72.6815 80.4385L72.6689 80.4309ZM58.2948 93.1214C67.7603 92.3854 77.1453 90.9988 86.759 89.9111C86.4986 89.729 86.2237 89.5685 85.9371 89.4313C83.7982 88.6777 82.0489 87.2158 80.0231 86.2411C78.8493 85.6785 77.7611 84.8746 76.6074 84.2316C76.0696 83.9377 75.6649 83.9603 75.0617 84.1713C73.5335 84.7114 72.1788 85.5654 70.7713 86.309C69.5147 86.9721 68.1926 87.4896 67.0013 88.3035C66.133 88.8831 65.227 89.4042 64.2893 89.8634C62.2711 90.8833 60.2402 91.868 58.3074 93.129L58.2948 93.1214ZM90.9538 102.2C90.2325 101.429 89.6117 100.821 89.0613 100.157C88.6064 99.6098 88.0785 99.532 87.4351 99.6551C80.2794 100.941 73.0384 101.629 65.8677 102.81C65.4807 102.875 65.0308 102.785 64.7291 103.217L66.6468 105.631C66.7441 105.77 66.8821 105.876 67.0419 105.933C67.2017 105.991 67.3754 105.998 67.5391 105.953C69.3663 105.631 71.1986 105.347 73.0309 105.056L90.9538 102.2ZM64.42 26.2653C61.1064 25.0509 57.7313 24.0111 54.3086 23.1504C52.0281 22.527 49.6475 22.3563 47.3013 22.648C45.0543 22.9419 42.8426 23.4418 40.6207 23.7483C38.8111 23.9995 37.0718 24.6475 35.2069 24.655C35.3886 24.7958 35.6031 24.8883 35.8302 24.9238C38.3637 25.3358 40.8972 25.7302 43.4307 26.1472C44.6572 26.3482 45.8686 26.6772 47.1002 26.7877C50.5611 27.0992 54.0145 26.6395 57.4755 26.5767C59.7979 26.5491 62.1052 26.3557 64.4326 26.2728L64.42 26.2653ZM28.7299 106.493C30.4418 106.406 32.1421 106.162 33.8094 105.764C35.4255 105.377 35.8654 104.508 35.2973 102.971C34.9762 102.071 34.4751 101.247 33.8245 100.547C33.2163 99.9088 32.5829 99.2732 31.5625 99.9464C31.3111 100.11 30.8889 100.07 30.5571 100.024C28.6796 99.7731 26.8675 100.291 25.0277 100.482C24.0072 100.587 23.8087 101.268 24.158 102.142C24.5074 103.016 24.8818 103.817 25.2312 104.654C26.0305 106.55 26.028 106.55 28.7425 106.508L28.7299 106.493ZM75.4186 106.463C77.2308 106.782 79.0228 107.317 80.8877 107.025C86.005 106.233 91.1205 105.428 96.2344 104.609C99.7683 104.038 103.322 103.604 106.826 102.85C107.366 102.735 107.98 102.644 107.831 101.901C107.683 101.157 107.019 101.454 106.59 101.504C105.268 101.665 103.958 101.928 102.639 102.112C93.5502 103.358 84.5095 104.915 75.4312 106.47L75.4186 106.463ZM101.533 25.597C93.1882 23.2433 84.6301 22.5199 76.0092 22.2687C78.8368 23.3865 81.7599 24.1929 84.4618 25.5644C85.0657 25.8811 85.7405 26.0385 86.4222 26.0216C91.4641 25.8734 96.4908 25.6222 101.545 25.6046L101.533 25.597ZM68.4213 111.383C68.6074 111.522 68.808 111.64 69.0195 111.735C71.2757 112.365 73.5748 112.831 75.8986 113.127C76.8763 113.255 77.9848 113.499 78.7463 112.624C79.616 111.62 80.3524 110.522 81.1139 109.505C81.0223 109.272 80.8721 109.067 80.6779 108.909C80.4837 108.752 80.2521 108.647 80.0055 108.605C77.7287 108.029 75.3978 107.692 73.0509 107.6C72.0456 107.573 71.1031 107.935 70.5376 108.726C69.9243 109.625 69.1653 110.409 68.4339 111.391L68.4213 111.383ZM102.724 95.2692C101.364 93.4706 101.357 93.4279 100.108 93.6715C99.145 93.8599 98.112 94.2066 97.2298 94.189C95.2744 94.1538 93.4597 94.8748 91.5294 94.8522C91.0569 94.8522 90.5693 95.1762 90.8985 95.6058C91.5042 96.392 92.0748 97.2863 93.1832 97.5375C93.8241 97.6832 94.2288 97.1758 94.7892 97.0903C97.0815 96.7412 99.3611 96.3368 101.651 95.965C101.875 95.9509 102.092 95.8805 102.282 95.7602C102.472 95.6398 102.628 95.4735 102.737 95.2767L102.724 95.2692ZM42.0559 27.5087C39.3716 27.0465 36.6295 26.8053 34.013 26.0693C31.2483 25.2881 28.8882 26.5039 26.3522 26.9385C31.5578 27.6632 36.8236 27.8568 42.0684 27.5162L42.0559 27.5087ZM77.2182 73.6235C77.2182 74.2691 77.2006 74.9146 77.2182 75.5602C77.2108 75.6564 77.2249 75.7531 77.2593 75.8432C77.2938 75.9333 77.3478 76.0147 77.4175 76.0815C77.4872 76.1483 77.5709 76.1988 77.6624 76.2294C77.754 76.26 77.8512 76.27 77.947 76.2586C78.3768 76.241 78.5126 75.9194 78.5427 75.5527C78.6257 74.6082 78.7488 73.6612 78.7539 72.7167C78.7539 71.9103 79.068 71.4607 79.8321 71.2095C81.5286 70.6242 82.2525 69.0718 81.6493 67.4189C81.5035 67.017 81.32 66.5824 80.7721 66.7457C80.3122 66.8864 80.1764 67.2305 80.2518 67.7329C80.5158 69.5189 80.3096 69.8455 78.6131 70.3579C77.653 70.6468 77.105 71.1969 77.198 72.2569C77.2609 72.7141 77.2307 73.1739 77.2307 73.6311L77.2182 73.6235ZM77.5776 99.2255C76.6225 97.3968 75.5267 96.2287 73.4707 96.8768C73.3586 96.8981 73.2435 96.8981 73.1314 96.8768C72.3598 96.7989 71.6611 96.9673 71.3243 97.7183C71.1559 98.0901 72.581 99.8635 73.0158 99.8887C74.5791 99.9766 75.9967 99.2707 77.5901 99.223L77.5776 99.2255ZM83.9742 98.3262C83.3458 97.3842 83.0341 96.0328 82.1168 95.8545C80.7017 95.5807 79.166 95.9499 77.575 96.4222C78.2562 97.221 78.8494 97.8565 79.3646 98.5498C79.6511 98.9367 79.9678 98.9366 80.3549 98.8788L83.9742 98.3262ZM64.4627 98.3262C64.9271 98.9049 65.3616 99.5069 65.7646 100.13C66.1039 100.723 66.5388 100.863 67.1772 100.753C68.361 100.547 69.5524 100.394 70.902 100.195C70.4421 99.4843 70.0148 98.909 69.683 98.2835C69.3864 97.7158 69.032 97.5701 68.3987 97.7007C67.1847 97.967 65.9356 98.1077 64.4677 98.3338L64.4627 98.3262ZM72.7745 68.7528C72.8424 67.6575 72.5508 67.0321 71.9551 66.9944C71.2388 66.9542 70.7236 67.7279 70.809 68.7754C70.8788 69.5339 71.0993 70.2708 71.4575 70.9432C71.8471 71.6968 72.0582 72.483 71.6158 73.3346C71.4047 73.7365 71.2866 74.269 71.832 74.5253C72.3774 74.7815 72.7092 74.3369 72.9555 73.9726C73.7371 72.8222 73.5712 71.6013 73.1087 70.383C72.9202 69.8681 72.6162 69.3632 72.7871 68.7603L72.7745 68.7528ZM90.426 97.432C89.7424 96.2464 89.0914 95.3496 87.5758 95.4224C86.6006 95.4752 85.6456 95.8343 84.6528 95.6309C84.5598 95.6108 84.4291 95.7816 84.2481 95.9122C84.5748 96.3594 84.8337 96.7763 85.1555 97.1431C85.4772 97.5098 85.6883 98.2634 86.2966 98.1328C87.6488 97.8615 89.099 98.1981 90.4386 97.4395L90.426 97.432ZM57.8173 99.4114L59.3731 101.421C59.5365 101.627 59.6797 101.898 59.9989 101.835C61.2858 101.584 62.6204 101.572 64.0505 101.115C63.2412 100.265 63.113 98.8739 61.7055 98.9316C60.484 98.9869 59.255 99.223 57.8299 99.419L57.8173 99.4114ZM65.262 94.4327C66.2346 96.3694 66.4583 96.5 68.1448 96.2564C68.2551 96.2477 68.3661 96.2605 68.4716 96.2941C69.3714 96.5277 70.1581 96.0429 71.0026 95.9072C71.2815 95.8645 71.4273 95.656 71.3796 95.3219C71.2112 94.1413 70.432 93.6841 69.306 94.1639C69.0778 94.2945 68.8118 94.3432 68.552 94.302C67.4838 93.9956 66.4784 94.4829 65.2745 94.4503L65.262 94.4327ZM90.71 99.2934C92.2432 101.84 93.329 102.119 96.5361 100.853C96.1516 99.9188 95.6288 98.8613 94.636 98.7884C93.3717 98.703 92.0622 99.105 90.7226 99.3009L90.71 99.2934ZM57.4403 97.5601C56.5933 95.651 56.5229 95.651 54.6756 95.7716C53.9048 95.8523 53.14 95.9824 52.3859 96.1609C51.9159 96.2514 51.1945 96.1358 51.4082 96.8793C51.5716 97.4546 51.7248 98.3162 52.7 98.1931C54.2709 98.0047 55.8142 97.7887 57.4529 97.5676L57.4403 97.5601ZM25.9425 108.065C26.1511 109.123 26.7141 109.512 27.4505 109.409C29.4085 109.133 31.4016 109.211 33.3444 108.806C33.8295 108.708 34.3297 108.696 34.7921 108.495C34.9414 108.452 35.0688 108.355 35.1487 108.222C35.2285 108.089 35.2547 107.93 35.2219 107.779C35.1365 107.377 34.7972 107.394 34.488 107.427C34.0356 107.48 33.5883 107.558 33.1359 107.623C30.762 108 28.3575 108.151 25.9551 108.073L25.9425 108.065ZM91.2303 93.1591C90.7276 91.8479 90.039 91.0038 88.5259 91.5665C88.3223 91.6419 88.066 91.5665 87.8448 91.6117C86.8394 91.8152 85.7687 91.7273 84.7709 92.1468C85.4696 93.4304 86.4448 93.8599 87.7719 93.6339C88.928 93.4455 90.0842 93.3224 91.2429 93.1666L91.2303 93.1591ZM68.3585 113.448C68.3057 114.111 68.6953 114.262 69.0497 114.363C71.7239 115.116 74.4308 115.704 77.2182 115.847C77.5374 115.865 77.9722 115.953 78.035 115.465C78.0979 114.978 77.6555 114.998 77.3287 114.93C74.5439 114.335 71.6837 114.149 68.929 113.385C68.7421 113.378 68.5552 113.402 68.3761 113.456L68.3585 113.448ZM58.9785 95.646C59.5038 97.1531 59.6998 97.2888 61.2581 97.1079C61.9016 97.0326 62.5425 96.9422 63.1834 96.8568C63.7363 96.7839 64.2742 96.6181 64.1536 95.9248C64.0229 95.1712 63.5705 94.6236 62.7159 94.8647C62.0147 95.0632 61.2782 95.3094 60.6046 95.2038C60.3201 95.1446 60.0255 95.1545 59.7456 95.2327C59.4656 95.311 59.2086 95.4553 58.9961 95.6535L58.9785 95.646ZM77.5575 94.704C77.2559 94.0132 77.3212 93.0235 76.2731 93.1968C75.1446 93.3827 74.0362 93.6992 72.8248 93.968C74.1996 96.4172 75.9992 94.6161 77.575 94.7015L77.5575 94.704ZM78.9222 93.0385C79.3973 94.2945 80.1789 94.709 81.3552 94.1915C81.4924 94.125 81.642 94.0879 81.7944 94.0827C81.9467 94.0775 82.0985 94.1044 82.2399 94.1614C82.9085 94.4679 83.4665 94.2794 83.5243 93.6188C83.572 93.0234 83.1975 92.4708 82.3857 92.5161C81.2249 92.6014 80.0727 92.7786 78.9399 93.046L78.9222 93.0385ZM41.1686 92.1367C40.0468 92.4959 38.984 93.0181 38.0143 93.6866C39.0599 94.302 39.9622 94.8874 41.1309 94.9803C41.2959 94.0435 41.3146 93.0868 41.1862 92.1443L41.1686 92.1367Z" fill="#1D2831"/>
<path d="M92.1652 109.005C93.2119 109.095 94.2472 109.287 95.2567 109.577C96.2319 109.869 96.8929 110.56 96.8402 111.562C96.7899 112.504 96.1666 113.112 95.2441 113.584C92.7433 114.865 90.6321 114.041 88.5837 112.617C87.8296 112.084 88.3801 111.393 88.6013 110.894C89.1215 109.733 90.5416 108.995 92.1652 109.005ZM92.5297 110.374C92.1981 110.382 91.8677 110.417 91.5419 110.479C91.0795 110.59 90.6899 110.851 90.7326 111.414C90.7753 111.976 91.1875 112.14 91.6802 112.19C92.5222 112.275 93.334 112.064 94.1433 111.896C94.3151 111.871 94.4726 111.787 94.5877 111.657C94.7028 111.527 94.768 111.361 94.7717 111.187C94.7717 110.833 94.5354 110.66 94.2363 110.539C93.7638 110.351 93.2686 110.394 92.5297 110.374Z" fill="#1D2831"/>
<path d="M38.3586 111.28C40.1582 111.371 41.6888 111.484 42.5509 113.142C42.8022 113.624 42.953 114.029 42.669 114.511C41.3394 116.772 36.7349 117.096 35.0585 115.043C33.9023 113.627 34.4251 112.004 36.2197 111.579C36.9268 111.442 37.6408 111.342 38.3586 111.28ZM38.6728 112.657C38.2801 112.665 37.8885 112.703 37.5015 112.77C37.122 112.853 36.5741 112.863 36.5816 113.428C36.5816 113.931 36.9938 114.182 37.4713 114.327C38.5069 114.641 39.5248 114.446 40.4748 114.091C41.1283 113.84 41.1459 113.318 40.5175 112.898C40.0048 112.557 39.4192 112.682 38.6728 112.657Z" fill="#1D2831"/>
<path d="M106.356 108.301C106.609 108.294 106.862 108.314 107.11 108.361C107.56 108.492 107.992 108.748 107.985 109.263C107.985 109.698 107.56 109.831 107.178 109.926C106.625 110.062 106.077 110.235 105.504 110.105C105.016 109.997 104.499 109.854 104.499 109.218C104.499 108.583 105.034 108.465 105.524 108.349C105.8 108.312 106.078 108.296 106.356 108.301Z" fill="#1D2831"/>
<path d="M68.5947 30.7466C68.7078 32.7562 68.4539 34.7657 68.6651 36.7753C68.8259 38.2825 69.4191 38.7649 70.8316 38.2072C71.8119 37.8204 72.8047 37.4536 73.6693 36.7954C75.0944 35.7178 75.3004 35.7505 76.5496 37.004C78.2813 38.7447 79.4325 38.6166 80.8224 36.5442C81.0476 36.2463 81.2884 35.9604 81.5437 35.6877C82.5616 36.1725 83.3257 36.9914 84.1224 37.6973C84.796 38.3026 85.0021 37.966 85.2962 37.4461C85.6506 36.8256 85.6581 36.1298 85.6632 35.4491C85.6833 32.9371 85.6632 30.4251 85.6632 27.7322C92.4719 27.8729 98.9992 27.3328 105.602 27.6267C105.707 30.6662 105.363 33.5852 105.283 36.5091C105.222 38.6292 105.182 40.7594 104.918 42.8569C104.624 45.1603 104.896 47.4788 104.546 49.7773C104.416 50.6238 104.104 51.2845 103.413 51.7719C101.237 53.3249 99.1536 55.0024 97.172 56.7958C95.209 58.5542 92.9419 59.8855 91.077 61.7544C90.1018 62.7291 88.8627 63.4701 87.8297 64.4221C87.1712 65.03 86.5881 65.0803 85.6933 64.7462C79.3143 62.3648 73.0107 62.704 66.858 65.5877C66.1869 65.9017 65.7093 65.9167 65.086 65.545C61.5974 63.46 57.9882 61.576 54.3966 59.6971C51.109 57.9789 47.7587 56.3235 44.343 54.8289C43.3779 54.4069 43.1215 53.8718 43.1291 52.862C43.1718 45.0523 43.1516 37.2401 43.1516 29.3851C47.1454 29.0385 51.1493 28.7396 55.1657 28.5888C58.7196 28.4557 62.2735 28.2598 65.8249 28.0864C65.9028 28.0864 65.9783 28.0713 66.0537 28.0638C68.4213 27.8754 68.4213 27.8754 68.5671 30.2492L68.5947 30.7466ZM58.1491 45.0272C57.5383 45.5597 56.6963 45.625 56.254 46.3158C53.9366 49.9205 53.4893 53.588 55.5 57.5318C56.1843 58.9184 57.276 60.063 58.6291 60.8124C60.856 61.983 63.3568 62.302 65.9506 61.8775C72.3949 60.82 76.2706 53.8567 73.7899 47.833C73.2495 46.5193 72.1411 45.8461 71.3494 44.8966C71.7161 44.3898 72.0559 43.864 72.3673 43.3215C72.5432 42.9806 72.6363 42.603 72.6389 42.2194C72.6415 41.8357 72.5536 41.4569 72.3824 41.1135C72.1763 40.6588 71.7993 40.5458 71.3444 40.6111C71.1358 40.6328 70.9417 40.7277 70.7967 40.8791C70.6517 41.0305 70.5652 41.2284 70.5526 41.4376C70.2862 43.0126 69.9042 43.4296 68.371 43.3215C66.207 43.1658 64.0455 42.9146 61.894 42.6232C60.2352 42.3996 58.6266 42.0429 56.9326 42.6232C56.3394 42.8267 56.0931 43.0804 56.0504 43.6054C56.0051 44.1957 56.3821 44.5399 56.9049 44.6554C57.3071 44.7308 57.7268 44.7484 58.1491 45.0272ZM91.3912 44.6328C92.2533 43.8792 93.236 43.839 94.2062 43.741C94.7088 43.6933 95.2542 43.6004 95.2944 42.9598C95.3346 42.3193 94.8848 42.0631 94.3067 41.9124C93.05 41.5758 91.8109 41.9123 90.5768 42.0857C87.988 42.4323 85.4319 43.0628 82.8029 43.0905C81.516 43.0905 81.139 42.6986 81.1717 41.4903C81.1918 40.7643 81.1441 40.0635 80.2367 39.9279C79.5858 39.8324 78.8946 40.7116 78.8644 41.5406C78.8167 42.7413 79.4073 43.7109 80.0331 44.7157C77.296 47.2076 76.444 50.3199 77.1553 53.7789C78.4975 60.3101 85.7159 63.2917 91.6978 59.8453C92.4518 59.4158 93.3164 59.1495 93.8492 58.3934C95.4452 56.1326 96.4456 53.6884 95.9931 50.8424C95.5407 47.9963 94.7767 45.3864 91.3912 44.6328Z" fill="#D57B38"/>
<path d="M22.866 69.3456C22.7001 65.854 22.7805 62.3598 22.7981 58.8657C22.8208 58.7702 22.8459 58.6772 22.8685 58.5818C23.2405 58.2803 23.522 58.6169 23.7985 58.7501C29.3732 61.4153 34.9353 64.1081 40.515 66.7633C41.2238 67.0999 41.5204 67.4943 41.5003 68.3157C41.4425 74.4549 41.45 80.5942 41.4199 86.736C41.4199 87.6102 41.2841 88.4818 41.2766 89.356C41.2766 89.8332 41.0252 90.0292 40.6583 90.2C39.1377 90.9084 37.6095 91.6067 36.1065 92.3502C35.541 92.629 35.066 92.4658 34.5835 92.2296C31.2356 90.5868 27.9179 88.8938 24.648 87.0952C23.2807 86.3416 23.2229 85.5076 23.1048 84.2617C22.7856 80.9509 23.1676 77.6301 22.866 74.3394C22.7516 72.7958 22.7516 71.2459 22.866 69.7023C22.8685 69.5817 22.8685 69.4637 22.866 69.3456ZM27.0508 77.3839C27.0508 77.7356 27.0784 78.0873 27.4555 78.2505C27.5974 78.308 27.7528 78.3237 27.9034 78.2956C28.0539 78.2676 28.1933 78.197 28.305 78.0922C29.9463 76.791 31.2482 75.1558 32.6707 73.6436C32.9899 73.3044 33.1106 72.7694 33.284 72.3097C33.4298 71.9254 33.6459 71.4556 33.2388 71.1542C32.7738 70.8076 32.3842 71.1793 32.0449 71.4858C30.4903 72.9243 29.0248 74.4561 27.6565 76.0727C27.3424 76.4269 27.0181 76.8313 27.0508 77.3688V77.3839ZM33.9953 75.4447C34.0195 75.3836 34.0305 75.318 34.0274 75.2524C34.0244 75.1867 34.0075 75.1225 33.9778 75.0638C33.9481 75.0052 33.9064 74.9535 33.8552 74.9122C33.8041 74.8709 33.7447 74.8409 33.6811 74.8242C33.3016 74.6836 33.0226 74.8744 32.7889 75.1507C31.7383 76.3942 30.5545 77.5095 29.3958 78.6474C29.0866 78.9489 28.4156 79.2453 28.9308 79.8281C29.4461 80.4108 30.0166 80.2451 30.5369 79.7778C31.321 79.072 32.1404 78.3962 32.8718 77.6376C33.4801 77.0021 33.9551 76.2586 33.9953 75.4397V75.4447ZM26.4551 75.1005C26.528 75.0829 26.6034 75.0704 26.6763 75.0453C27.4454 74.7815 29.9437 71.1417 29.9437 70.2976C29.9448 70.2036 29.9195 70.1111 29.8707 70.0307C29.8218 69.9503 29.7513 69.8853 29.6672 69.843C29.4335 69.7098 29.2727 69.8078 29.059 69.9459C27.5661 70.908 26.7969 72.4805 25.8092 73.8445C25.7259 73.9639 25.6766 74.1037 25.6665 74.2489C25.6564 74.3941 25.686 74.5393 25.752 74.669C25.8181 74.7987 25.9182 74.9081 26.0415 74.9854C26.1649 75.0627 26.307 75.1051 26.4526 75.1081L26.4551 75.1005Z" fill="#7C4828"/>
<path d="M22.2252 28.4708C23.9845 28.2824 25.8872 28.8375 27.8124 28.9455C31.1954 29.1398 34.5802 29.2779 37.9666 29.3599C38.7683 29.38 39.5726 29.4278 40.3694 29.3599C41.2817 29.2946 41.523 29.6589 41.5179 30.5482C41.4777 37.1019 41.4853 43.6556 41.4803 50.2093V53.5202C40.7262 53.4373 40.2236 53.063 39.6782 52.8092C34.0507 50.1692 28.6042 47.1774 23.0546 44.3841C22.5946 44.153 22.2126 43.942 22.2151 43.3115C22.2427 38.4181 22.2252 33.5123 22.2252 28.4708ZM25.9048 38.9682L25.842 38.9105L25.8947 38.9783C26.0933 40.9879 27.9934 43.4999 29.4839 43.7235C29.318 42.6358 26.9604 39.4983 25.9048 38.9682ZM27.6466 34.8938C27.2369 36.5467 31.7886 44.0349 33.5957 44.6905C32.3541 40.7744 29.0666 38.393 27.6466 34.8938ZM31.0271 34.7105C30.4867 36.072 32.2058 38.898 34.0431 39.5737C33.5178 37.5239 32.045 36.3106 31.0396 34.7105H31.0271Z" fill="#7C4828"/>
<path d="M41.6336 65.3415C39.9446 64.8391 38.4114 63.9725 36.8381 63.2038C32.2511 60.943 27.6818 58.6672 23.0722 56.4642C21.7854 55.8487 21.1846 55.1002 21.2751 53.5854C21.4134 51.2694 21.6622 48.9509 21.5265 46.6223C21.5013 46.483 21.5177 46.3395 21.5735 46.2095C21.6294 46.0795 21.7223 45.9688 21.8406 45.8912C28.3754 49.1844 34.9957 52.4224 41.7216 55.4694C41.6931 58.7601 41.6637 62.0508 41.6336 65.3415Z" fill="#3A475A"/>
<path d="M41.6335 65.3415C41.6637 62.0508 41.6922 58.7601 41.719 55.4694C45.5972 57.4664 49.6639 59.0816 53.4741 61.2218C56.4148 62.8772 59.3907 64.4698 62.3464 66.1C62.8039 66.3512 63.3367 66.5121 63.6182 66.9743C63.6459 67.2481 63.4699 67.3309 63.3065 67.4264C60.9489 68.7957 58.7563 70.4308 56.7717 72.2996C56.4374 72.6187 56.1861 72.5081 55.8619 72.3499C52.9715 70.9482 50.1112 69.4787 47.1705 68.1875C45.2579 67.3485 43.5085 66.2307 41.6335 65.3415Z" fill="#566C7A"/>
<path d="M73.6692 82.8248C73.624 83.2619 73.3299 83.395 73.0459 83.4955C68.7605 85.0404 64.895 87.4519 60.8082 89.4062C58.7975 90.3708 56.8044 91.3806 54.9922 92.6944C53.4842 93.7946 51.6821 93.9755 49.9202 94.2769C48.5354 94.5105 47.1555 94.8496 45.7681 94.9627C44.9638 95.028 44.1344 94.7793 43.1592 95.2993C43.1592 93.7242 43.1316 92.3101 43.1894 90.9008C43.1894 90.7074 43.6166 90.5014 43.873 90.3557C46.9318 88.64 49.9981 86.9319 53.0167 85.161C54.6127 84.2265 55.8292 83.8246 57.6137 84.6962C59.0765 85.4121 60.8283 85.1308 62.4318 84.6083C65.1262 83.7266 67.5768 82.3073 70.1957 81.0614C71.0503 82.1893 72.6011 81.9607 73.6692 82.8248Z" fill="#566C7A"/>
<path d="M43.2698 88.6275V68.1875C47.2083 70.0187 50.9658 71.9781 54.844 74.0102C53.0545 76.6805 52.783 79.4763 54.2333 82.4128L43.2698 88.6275Z" fill="#D57B38"/>
<path d="M105.084 52.5455C105.084 55.7382 105.084 58.6295 105.084 61.5233C105.084 62.5281 104.252 62.9601 103.604 63.4248C101.327 65.0526 99.2053 66.8788 96.9181 68.504C95.7178 69.3638 94.5805 70.3082 93.515 71.33C92.0688 69.3384 90.2403 67.6545 88.1363 66.3764C93.9171 61.9101 99.2958 57.165 105.084 52.5455Z" fill="#566C7A"/>
<path d="M103.36 86.9445C100.093 84.9022 97.2021 82.7444 93.8468 80.9835C94.9124 80.657 95.7544 81.0237 96.6115 81.1368C96.9106 81.177 97.2021 81.2825 97.5038 81.3151C97.9637 81.3679 98.3483 81.2297 98.4765 80.7298C98.6197 80.1747 98.3256 79.9059 97.8305 79.71C96.0711 79.0217 94.1534 78.9564 92.4418 78.1425C92.2458 78.0496 91.9768 78.1073 91.8386 77.7557C91.9768 77.1628 92.4946 77.1553 92.9746 77.2382C93.8593 77.3914 94.734 77.5823 95.6112 77.821C96.2621 77.9993 96.7321 77.9013 96.9382 77.2156C97.1443 76.5298 96.7799 76.2108 96.1691 76.0852L92.5247 75.2914C92.8364 74.5026 93.4648 74.6735 94.0102 74.681C94.5556 74.6885 95.1814 74.8016 95.4528 74.0882C95.7042 73.4577 95.2794 73.111 94.7993 72.7468C97.5641 69.9635 100.952 68.0594 103.998 65.2485C104.137 72.6111 103.342 79.6698 103.36 86.9445Z" fill="#D57B38"/>
<path d="M72.6813 80.4384C75.2676 80.0717 77.5246 80.3857 79.7741 80.5414C80.3195 80.5791 80.8951 80.6243 81.4556 80.7098C82.9838 80.9213 84.4626 81.4009 85.8239 82.1265C87.8999 83.2518 90.1695 83.1614 92.3939 82.6289C93.0976 82.4581 93.6757 82.4707 94.2211 82.8525C95.6487 83.8573 97.1366 84.754 98.4938 85.8668C99.6198 86.7862 101.007 87.4066 102.216 88.2808C102.339 88.3712 102.468 88.4642 102.591 88.5471C103.345 89.0495 103.915 89.6875 103.397 90.6245C103.041 91.2701 101.359 91.3028 100.675 90.7652C100.516 90.6609 100.371 90.5349 100.246 90.3909C98.9186 88.4919 97.026 88.6928 95.1133 89.0169C94.3593 89.1475 93.5903 89.037 92.8312 89.0721C92.1551 89.1023 91.479 89.0721 90.8205 89.3032C89.9961 89.5871 89.2571 89.4012 88.4554 88.944C83.4437 86.0854 78.4521 83.1815 73.2192 80.7323C73.1137 80.6846 73.0131 80.6344 72.6813 80.4384Z" fill="#566C7A"/>
<path d="M58.3074 93.1289C60.2402 91.8729 62.2711 90.8832 64.2943 89.8784C65.232 89.4193 66.138 88.8981 67.0063 88.3185C68.2052 87.5046 69.5197 86.9871 70.7764 86.3239C72.1839 85.5704 73.5411 84.7263 75.0667 84.1863C75.6699 83.9753 76.0721 83.9526 76.6125 84.2465C77.7737 84.8821 78.8544 85.6859 80.0281 86.2561C82.0539 87.2308 83.7982 88.6978 85.9421 89.4464C86.2288 89.5836 86.5037 89.744 86.764 89.9261C77.1528 91.0063 67.7729 92.3929 58.3074 93.1289Z" fill="#D57B38"/>
<path d="M83.2552 27.2273C83.866 27.0188 84.1777 27.157 84.1626 27.8804C84.1123 30.2317 84.1022 32.5854 83.8233 34.9265C83.7076 34.9265 83.6121 34.9441 83.5719 34.9064C81.7296 33.2586 81.5863 33.2661 79.8018 35.1175C78.6909 36.2679 78.4395 36.2705 77.3839 35.1175C76.2604 33.9042 75.4034 33.8338 73.9758 34.713C72.787 35.4465 71.5503 36.0996 69.9694 36.9964V28.1643H70.3188C74.2045 28.1844 78.0952 28.4155 81.9734 27.9859C82.5389 27.9282 83.0366 27.8277 83.2552 27.2273Z" fill="#566C7A"/>
<path d="M90.9664 102.207L73.0434 105.056C71.2112 105.347 69.3789 105.631 67.5517 105.953C67.3879 105.998 67.2142 105.991 67.0544 105.933C66.8947 105.876 66.7566 105.77 66.6594 105.631L64.7417 103.217C65.0433 102.785 65.4957 102.875 65.8803 102.81C73.051 101.629 80.292 100.941 87.4476 99.655C88.091 99.5395 88.6189 99.6174 89.0738 100.157C89.6242 100.828 90.245 101.436 90.9664 102.207Z" fill="#566C7A"/>
<path d="M64.4325 26.2727C62.1051 26.3556 59.7978 26.5491 57.488 26.5918C54.027 26.6546 50.5736 27.1142 47.1127 26.8027C45.8811 26.6922 44.6697 26.3631 43.4432 26.1622C40.9097 25.7452 38.3762 25.3508 35.8427 24.9389C35.6155 24.9033 35.401 24.8108 35.2193 24.6701C37.0842 24.6701 38.8235 24.0145 40.6332 23.7633C42.855 23.4568 45.0668 22.9569 47.3138 22.663C49.6599 22.3714 52.0405 22.542 54.3211 23.1654C57.7436 24.0236 61.1187 25.0609 64.4325 26.2727Z" fill="#D57B38"/>
<path d="M28.7424 106.508C26.028 106.558 26.0304 106.558 25.2488 104.674C24.8994 103.832 24.5149 103.003 24.1756 102.162C23.8363 101.32 24.0247 100.607 25.0452 100.502C26.8825 100.311 28.6946 99.7882 30.5746 100.044C30.9064 100.09 31.3287 100.13 31.58 99.9665C32.5979 99.2933 33.2313 99.9289 33.842 100.567C34.4917 101.267 34.992 102.092 35.3124 102.991C35.8804 104.526 35.4406 105.397 33.8245 105.784C32.1562 106.181 30.4551 106.423 28.7424 106.508ZM31.5725 102.818C30.6321 102.149 29.5485 101.71 28.4081 101.534C28.0588 101.469 27.6742 101.511 27.5535 101.898C27.4178 102.333 27.8049 102.509 28.1141 102.619C28.9309 102.911 29.7628 103.174 30.5973 103.41C31.012 103.518 31.3363 103.333 31.5725 102.81V102.818Z" fill="#3A475A"/>
<path d="M47.3767 105.797C45.4565 103.521 43.8882 100.989 42.1238 98.6C41.3698 97.5952 41.5733 97.236 42.7974 97.0551C44.416 96.8165 46.0496 96.6758 47.6658 96.4146C49.1738 96.1634 49.302 97.4595 49.9856 98.291C49.2919 98.8863 48.4776 98.6527 47.7764 98.7934C46.203 99.1049 45.9667 99.5771 46.8112 100.959C47.7236 102.451 48.5706 103.998 49.9655 105.131C50.7799 105.985 51.6922 105.561 52.5895 105.332C52.7026 105.106 52.9113 105.096 53.1224 105.081C53.3234 105.332 53.5295 105.222 53.7356 105.081C55.9977 104.578 56.5003 104.83 57.7143 107.299L50.3878 108.261L50.1113 107.59C50.3626 107.339 50.7623 107.781 50.9608 107.271C50.5863 107.043 50.7246 106.558 50.4758 106.133C49.8449 106.354 49.0456 105.528 48.5681 106.54C48.2137 106.339 48.0353 105.988 47.6457 106.013H47.6632L47.3767 105.797Z" fill="#3A475A"/>
<path d="M69.7936 26.8529C68.474 25.386 66.5714 25.0393 64.8598 24.3636C62.4837 23.4354 60.0281 22.725 57.5233 22.241C57.7294 21.8567 58.046 22.0224 58.2948 22.0224C61.61 22.0224 64.9252 21.9798 68.2378 22.0677C69.9067 22.1104 71.5052 22.7007 73.0534 23.2784C75.8182 24.3083 78.6859 25.0544 81.3476 26.3832C79.3694 26.6545 77.3771 26.8105 75.3808 26.8504L71.0201 26.8329H70.5904L69.7936 26.8529Z" fill="#566C7A"/>
<path d="M75.4312 106.47C84.5096 104.915 93.5502 103.358 102.641 102.109C103.961 101.926 105.27 101.662 106.592 101.501C107.022 101.451 107.68 101.175 107.834 101.898C107.987 102.622 107.379 102.732 106.828 102.848C103.325 103.601 99.7708 104.046 96.237 104.606C91.1248 105.433 86.0092 106.239 80.8903 107.023C79.0455 107.324 77.2434 106.789 75.4312 106.47Z" fill="#3A475A"/>
<path d="M101.545 25.6045C96.4909 25.6171 91.4641 25.8558 86.4348 26.0291C85.753 26.046 85.0783 25.8886 84.4744 25.5719C81.7725 24.2004 78.8494 23.394 76.0219 22.2762C84.6428 22.5274 93.2009 23.2508 101.545 25.6045Z" fill="#D57B38"/>
<path d="M68.4338 111.391C69.1652 110.409 69.9243 109.633 70.5576 108.731C71.1156 107.939 72.0657 107.578 73.071 107.605C75.4179 107.697 77.7488 108.034 80.0256 108.61C80.2721 108.652 80.5038 108.757 80.698 108.914C80.8921 109.072 81.0423 109.277 81.134 109.509C80.38 110.527 79.6259 111.637 78.7663 112.629C78.0123 113.504 76.8964 113.26 75.9187 113.132C73.5949 112.836 71.2957 112.37 69.0395 111.74C68.8255 111.646 68.6224 111.529 68.4338 111.391ZM72.5307 108.761C72.7091 108.982 72.7946 109.097 72.8901 109.203C73.5813 109.982 74.848 110.278 74.8681 111.63C74.8681 111.881 75.2049 112.001 75.4989 112.001C76.6199 112.001 77.668 110.401 77.193 109.261C76.3384 110.228 75.6246 109.869 74.8405 109.12C74.2699 108.567 73.5159 108.266 72.5307 108.768V108.761Z" fill="#566C7A"/>
<path d="M49.0607 110.173C53.165 109.597 57.2694 109.042 61.3763 108.442C63.9701 108.063 66.5564 107.615 69.1477 107.206C69.3724 107.202 69.597 107.218 69.8188 107.254C69.017 108.211 68.3308 108.949 67.1093 109.14C61.9644 109.949 56.8346 110.856 51.6922 111.677C50.8351 111.815 49.9328 111.715 49.0657 111.725C49.2376 111.222 49.2358 110.675 49.0607 110.173Z" fill="#3A475A"/>
<path d="M102.736 95.2766C102.63 95.4732 102.476 95.6398 102.289 95.7614C102.101 95.883 101.886 95.9556 101.663 95.9725C99.3736 96.3342 97.0939 96.7486 94.8017 97.0978C94.2412 97.1832 93.8366 97.6906 93.1957 97.545C92.0873 97.2938 91.5167 96.3994 90.911 95.6132C90.5817 95.1836 91.0693 94.8596 91.5418 94.8596C93.4646 94.8822 95.2868 94.1613 97.2422 94.1965C98.1244 94.2141 99.1574 93.8674 100.12 93.679C101.369 93.4454 101.377 93.4781 102.736 95.2766Z" fill="#566C7A"/>
<path d="M49.0607 110.173C49.2342 110.676 49.2342 111.222 49.0607 111.725C48.7164 111.743 48.3947 111.745 48.1132 111.474C46.2005 109.565 44.4286 107.53 42.6767 105.478C42.5456 105.34 42.4619 105.164 42.438 104.975C42.4229 103.918 41.792 103.242 41.0631 102.592C40.3342 101.941 40.0251 101.142 40.7867 100.13C42.0283 101.815 43.202 103.433 44.4034 105.031C45.5219 106.515 46.6655 107.98 47.8065 109.452C48.1243 109.835 48.5695 110.091 49.0607 110.173Z" fill="#252E3F"/>
<path d="M51.1191 103.242C49.875 102.916 49.6312 101.735 49.1386 100.813C48.9174 100.401 49.4301 100.105 49.8926 100.09C51.7148 100.032 53.5069 99.7253 55.3039 99.4566C55.4899 99.4128 55.6852 99.4332 55.8581 99.5143C56.031 99.5955 56.1715 99.7327 56.2565 99.9037C56.6084 100.529 56.9426 101.16 57.2844 101.79C57.0756 102.018 56.7926 102.164 56.4859 102.202C56.1792 102.24 55.8689 102.168 55.6106 101.999C54.6052 101.356 53.527 101.747 52.7931 102.109C52.2904 102.373 51.2347 102.27 51.1191 103.242Z" fill="#3A475A"/>
<path d="M42.0685 27.5162C36.8314 27.8577 31.5733 27.6667 26.3749 26.946C28.9109 26.5114 31.2735 25.2956 34.0357 26.0768C36.6421 26.8128 39.3842 27.054 42.0685 27.5162Z" fill="#7C4828"/>
<path d="M70.5778 26.8329H71.0076C72.4362 27.2079 73.9368 27.2139 75.3684 26.8504C77.3647 26.8105 79.357 26.6545 81.3352 26.3832C82.0892 26.3832 82.5918 27.0112 83.2554 27.2272C83.0367 27.8276 82.539 27.9281 81.976 27.9808C78.0979 28.4179 74.2072 28.1793 70.3215 28.1617C70.3366 27.7121 70.324 27.2474 70.5778 26.8329Z" fill="#828F95"/>
<path d="M77.2308 73.631C77.2308 73.1738 77.261 72.7141 77.2308 72.2619C77.1453 71.2019 77.6857 70.6518 78.6458 70.3629C80.3424 69.8605 80.5485 69.5238 80.2845 67.7378C80.2091 67.2354 80.3449 66.8913 80.8048 66.7506C81.3528 66.5874 81.5362 67.0219 81.682 67.4238C82.2852 69.0767 81.5614 70.6291 79.8648 71.2144C79.1108 71.4782 78.7891 71.9178 78.7866 72.7216C78.7866 73.6661 78.6584 74.6131 78.5754 75.5576C78.5453 75.9244 78.4096 76.2459 77.9798 76.2635C77.8839 76.2749 77.7867 76.2649 77.6951 76.2343C77.6036 76.2037 77.5199 76.1532 77.4502 76.0865C77.3805 76.0197 77.3265 75.9383 77.292 75.8482C77.2576 75.758 77.2436 75.6614 77.2509 75.5652C77.2258 74.9196 77.2509 74.274 77.2509 73.6285L77.2308 73.631Z" fill="#2B5C42"/>
<path d="M58.6592 103.85C59.1845 103.787 59.7123 103.734 60.2351 103.659C62.6882 103.305 63.0878 103.513 64.2264 105.799C63.5679 106.43 62.7183 106.533 61.8713 106.571C61.2815 106.557 60.6941 106.65 60.1371 106.844C59.1946 107.229 58.9784 106.312 58.6567 105.694L58.4054 105.337V105.352C58.3249 105.269 58.242 105.189 58.154 105.101L58.1666 105.119C58.1792 104.774 58.1239 104.476 57.7017 104.423C57.9756 104.141 58.4933 104.28 58.6592 103.85Z" fill="#3A475A"/>
<path d="M77.5902 99.223C75.9967 99.2606 74.5741 99.9766 73.0284 99.8786C72.5936 99.8535 71.1685 98.08 71.3369 97.7082C71.6737 96.9546 72.3724 96.7889 73.144 96.8668C73.2561 96.888 73.3712 96.888 73.4833 96.8668C75.5393 96.2363 76.6351 97.4043 77.5902 99.223Z" fill="#566C7A"/>
<path d="M83.9865 98.3337L80.3673 98.8863C79.9802 98.9441 79.6636 98.9441 79.377 98.5573C78.8618 97.864 78.2686 97.2284 77.5875 96.4296C79.1784 95.9573 80.7141 95.5881 82.1292 95.8619C83.0466 96.0403 83.3582 97.3917 83.9865 98.3337Z" fill="#566C7A"/>
<path d="M64.4677 98.3337C65.9279 98.1076 67.1771 97.9594 68.4036 97.7082C69.037 97.5776 69.3914 97.7233 69.688 98.291C70.0197 98.9165 70.442 99.4917 70.907 100.203C69.5573 100.401 68.3659 100.554 67.1821 100.76C66.5437 100.871 66.1089 100.73 65.7696 100.137C65.3665 99.5144 64.932 98.9124 64.4677 98.3337Z" fill="#566C7A"/>
<path d="M100.372 98.0424C101.661 97.5802 103.016 97.4646 104.363 97.329C104.476 97.3119 104.592 97.3213 104.701 97.3566C104.81 97.3919 104.909 97.4522 104.991 97.5325C105.71 98.2333 106.376 98.9919 107.19 99.7355L101.055 100.509C101.249 100.125 101.847 100.24 101.99 99.7781C101.631 99.0145 100.94 98.5875 100.372 98.0424Z" fill="#566C7A"/>
<path d="M72.7896 68.7603C72.6162 69.3632 72.9202 69.8681 73.1213 70.3956C73.5838 71.6139 73.7497 72.8347 72.968 73.9852C72.7167 74.3494 72.3724 74.784 71.8446 74.5378C71.3167 74.2916 71.4172 73.7491 71.6284 73.3471C72.0707 72.4956 71.8596 71.7194 71.4701 70.9557C71.1119 70.2834 70.8914 69.5464 70.8216 68.7879C70.7361 67.7404 71.2514 66.9667 71.9677 67.0069C72.5634 67.0396 72.8549 67.6651 72.7896 68.7603Z" fill="#2B5C42"/>
<path d="M90.4386 97.4394C89.0939 98.193 87.6487 97.8615 86.3091 98.1453C85.7008 98.2759 85.5023 97.5399 85.168 97.1556C84.8338 96.7713 84.5874 96.3719 84.2607 95.9248C84.4416 95.7941 84.5724 95.6233 84.6654 95.6434C85.6582 95.8469 86.6132 95.4876 87.5884 95.4349C89.099 95.357 89.755 96.2538 90.4386 97.4394Z" fill="#566C7A"/>
<path d="M57.8299 99.4189C59.255 99.233 60.484 98.9869 61.7181 98.9366C63.1256 98.8788 63.2537 100.27 64.0631 101.12C62.6329 101.577 61.2984 101.584 60.0115 101.84C59.6923 101.903 59.549 101.632 59.3857 101.426L57.8299 99.4189Z" fill="#566C7A"/>
<path d="M65.2744 94.4502C66.4758 94.4929 67.4812 94.0056 68.5544 94.3196C68.8141 94.3608 69.0802 94.312 69.3084 94.1814C70.4344 93.7016 71.2136 94.1588 71.382 95.3395C71.4297 95.6786 71.2839 95.8821 71.005 95.9248C70.1605 96.0479 69.3737 96.5452 68.474 96.3116C68.3685 96.278 68.2575 96.2653 68.1472 96.2739C66.4783 96.5075 66.2471 96.3769 65.2744 94.4502Z" fill="#566C7A"/>
<path d="M90.7227 99.3009C92.0623 99.105 93.3743 98.703 94.6486 98.7985C95.654 98.8713 96.1566 99.9289 96.5487 100.863C93.3416 102.127 92.2558 101.848 90.7227 99.3009Z" fill="#566C7A"/>
<path d="M57.4528 97.5676C55.8141 97.7887 54.2709 98.0047 52.7251 98.2006C51.7499 98.3237 51.5966 97.4621 51.4332 96.8869C51.2196 96.1333 51.9359 96.2589 52.411 96.1685C53.1651 95.9899 53.9299 95.8599 54.7006 95.7791C56.5354 95.6585 56.6058 95.6585 57.4528 97.5676Z" fill="#566C7A"/>
<path d="M25.955 108.073C28.3622 108.154 30.7717 108.006 33.1508 107.631C33.6032 107.565 34.0506 107.487 34.5031 107.435C34.8122 107.402 35.1515 107.384 35.2369 107.786C35.2697 107.938 35.2435 108.096 35.1637 108.229C35.0839 108.362 34.9564 108.46 34.8072 108.502C34.3447 108.703 33.8445 108.716 33.3595 108.814C31.4166 109.218 29.4235 109.14 27.4656 109.417C26.7266 109.522 26.1636 109.13 25.955 108.073Z" fill="#252E3F"/>
<path d="M64.3974 76.0977L63.7489 76.5198C62.927 76.8112 62.8441 77.311 63.3368 77.9742C63.5253 78.1425 63.4674 78.3585 63.4498 78.567C63.0376 78.6499 63.0025 78.9488 63.0326 79.2854V79.2528L62.7813 79.5467L62.6054 79.725L62.3138 79.9762L61.6302 80.6318L61.1777 80.9006L61.2306 80.9484C60.5017 80.9484 60.3308 80.5489 60.4589 79.9184C60.8133 79.9184 61.1225 79.8757 61.1426 79.416L61.1224 79.4336C61.3738 79.406 61.6704 79.396 61.414 79.0116C61.5732 78.5465 61.6456 78.056 61.6276 77.5647C61.6452 75.9897 61.9318 75.6305 63.47 75.1457L63.6761 75.0628L64.3471 74.4197C64.7417 74.48 65.1816 74.3143 65.5711 74.6911C65.4882 74.9799 65.4002 75.2914 65.3198 75.6054V75.5903C65.0483 75.5752 64.7895 75.5903 64.6211 75.8415V75.7988L64.3974 76.0977Z" fill="#C64A31"/>
<path d="M91.2428 93.1666C90.0842 93.3223 88.928 93.4455 87.7844 93.6414C86.4573 93.8675 85.4822 93.4379 84.7834 92.1543C85.7888 91.7348 86.8494 91.8227 87.8573 91.6192C88.0785 91.5765 88.3349 91.6494 88.5384 91.574C90.0515 91.0114 90.7477 91.8553 91.2428 93.1666Z" fill="#566C7A"/>
<path d="M92.9042 92.0638C92.6227 91.7799 92.2181 91.5815 92.2181 91.0038C93.7261 90.8204 95.2065 90.6093 96.7045 90.4636C97.8958 90.3506 98.3307 91.3981 99.1149 92.1015C98.4305 92.4579 97.6543 92.5998 96.888 92.5084C95.6665 91.9533 94.45 92.7421 93.231 92.526C93.2243 92.4264 93.1903 92.3305 93.1327 92.2489C93.075 92.1674 92.996 92.1033 92.9042 92.0638Z" fill="#3A475A"/>
<path d="M68.3761 113.456C68.5613 113.403 68.7543 113.381 68.9467 113.393C71.7114 114.147 74.5615 114.342 77.3464 114.938C77.6731 115.006 78.1004 114.973 78.0527 115.473C78.0049 115.973 77.55 115.872 77.2358 115.855C74.4485 115.711 71.7415 115.119 69.0673 114.37C68.7129 114.27 68.3233 114.119 68.3761 113.456Z" fill="#3A475A"/>
<path d="M100.372 98.0423C100.94 98.5874 101.628 99.0144 101.99 99.7781C101.847 100.24 101.249 100.125 101.055 100.509C98.8509 101.122 98.2075 100.785 97.1594 98.404C98.2226 98.1101 99.2732 97.9067 100.372 98.0423Z" fill="#3A475A"/>
<path d="M58.9961 95.6534C59.2109 95.4534 59.4712 95.3083 59.7544 95.2309C60.0376 95.1534 60.3354 95.1459 60.6222 95.2088C61.2958 95.3143 62.0323 95.0681 62.7335 94.8697C63.5881 94.6185 64.0405 95.1711 64.1712 95.9297C64.2918 96.623 63.7539 96.7889 63.201 96.8617C62.5601 96.9496 61.9192 97.0401 61.2758 97.1129C59.7175 97.2963 59.5214 97.1682 58.9961 95.6534Z" fill="#566C7A"/>
<path d="M87.5255 78.0445C87.1586 78.2505 87.3245 78.5972 87.3044 78.8936C87.3672 79.612 87.131 79.9838 86.3443 79.7225L86.3568 79.7376C86.3602 79.6407 86.3369 79.5447 86.2895 79.4601C86.2421 79.3755 86.1723 79.3055 86.0879 79.2578L86.1155 79.2929C86.0351 78.6675 86.382 78.0571 86.1658 77.4291L86.5805 76.9267C87.3823 76.5273 86.9324 76.1982 86.5202 75.8641L86.4925 75.9219C86.5076 75.4999 86.2412 75.3994 85.8893 75.3718C85.8692 75.1708 85.7988 75.0201 85.5626 75.0251L85.5224 74.995C85.6003 74.6534 85.3992 74.5378 85.1127 74.4926H85.1479C85.3289 74.0103 85.0297 73.4325 85.4268 72.9854C85.9848 73.0733 85.9698 73.5657 86.1482 73.9098C86.5554 74.6986 87.043 75.3994 88.0081 75.5627L87.9906 75.5451C87.9817 75.6457 88.0058 75.7464 88.0593 75.8321C88.1128 75.9178 88.1928 75.9837 88.2871 76.0198L88.2494 75.9998C88.2494 76.6127 87.7467 77.1 87.8146 77.733L87.8372 77.6979C87.7548 77.7143 87.6799 77.757 87.6237 77.8194C87.5676 77.8819 87.5331 77.9609 87.5255 78.0445Z" fill="#E0A031"/>
<path d="M77.575 94.7014C75.9991 94.606 74.1996 96.4071 72.8423 93.9654C74.0538 93.6891 75.1622 93.3801 76.2907 93.1942C77.3388 93.031 77.286 94.0207 77.575 94.7014Z" fill="#566C7A"/>
<path d="M78.9398 93.046C80.0786 92.7802 81.2367 92.6055 82.4033 92.5236C83.2151 92.4783 83.5895 93.0259 83.5418 93.6263C83.484 94.2869 82.926 94.4753 82.2575 94.1688C82.1161 94.1118 81.9643 94.085 81.8119 94.0902C81.6595 94.0954 81.5099 94.1325 81.3728 94.199C80.194 94.7165 79.4148 94.307 78.9398 93.046Z" fill="#566C7A"/>
<path d="M41.1863 92.1442C41.3212 93.0883 41.3085 94.0476 41.1486 94.9877C39.9798 94.8948 39.0776 94.3095 38.032 93.6941C39.0016 93.0256 40.0645 92.5034 41.1863 92.1442Z" fill="#3A475A"/>
<path d="M51.119 103.242C51.2346 102.265 52.2903 102.368 52.8056 102.109C53.5395 101.737 54.6102 101.356 55.6231 101.999C55.8814 102.168 56.1917 102.24 56.4983 102.202C56.805 102.164 57.0881 102.018 57.2969 101.79C57.6539 102.308 57.2542 102.335 56.9074 102.396C54.9846 102.74 53.0769 103.167 51.119 103.242Z" fill="#566C7A"/>
<path d="M47.6456 106.03C48.0351 106.005 48.2136 106.357 48.568 106.558C49.0455 105.553 49.8448 106.372 50.4756 106.151C50.727 106.576 50.5862 107.06 50.9607 107.289C50.7622 107.791 50.3726 107.369 50.1112 107.608L50.3877 108.279C48.7389 108.422 48.3267 107.063 47.6456 106.03Z" fill="#566C7A"/>
<path d="M88.0182 75.5627C87.0531 75.3995 86.5655 74.6986 86.1583 73.9098C85.9799 73.5657 85.9949 73.0734 85.437 72.9854C85.0399 73.4451 85.339 74.0229 85.158 74.4926C85.0187 74.3379 84.9141 74.1552 84.8512 73.9568C84.7883 73.7584 84.7687 73.5488 84.7936 73.3421C84.8464 72.8523 85.0575 72.4001 85.6054 72.4177C86.0251 72.4177 86.3016 72.7041 86.377 73.2241C86.5227 74.264 87.5482 74.7288 88.0182 75.5627Z" fill="#F3B330"/>
<path d="M93.2308 92.526C94.4498 92.7421 95.6663 91.9533 96.8878 92.5084L94.0854 92.9179C93.7185 92.9706 93.4068 92.8953 93.2308 92.526Z" fill="#566C7A"/>
<path d="M60.4741 79.9134C60.3459 80.5439 60.5168 80.9534 61.2456 80.9433C61.199 81.0455 61.132 81.1371 61.0489 81.2127C60.9657 81.2882 60.868 81.3461 60.7617 81.3827C60.6555 81.4194 60.5429 81.4341 60.4308 81.4259C60.3187 81.4177 60.2094 81.3869 60.1096 81.3352C59.818 81.2197 59.5793 81.0136 59.6195 80.6695C59.6773 80.1822 60.0669 80.0264 60.4741 79.9134Z" fill="#D84F31"/>
<path d="M65.3148 75.6104C65.4053 75.2964 65.4933 74.9849 65.5662 74.696C65.1766 74.3192 64.7367 74.485 64.3421 74.4247C64.8448 74.0931 65.4304 73.6259 65.8828 74.3846C66.2045 74.9196 65.9758 75.4245 65.3148 75.6104Z" fill="#D84F31"/>
<path d="M52.5895 105.33C51.6922 105.558 50.7799 105.983 49.9655 105.129C50.8201 105.448 51.7173 105.252 52.5895 105.33Z" fill="#566C7A"/>
<path d="M70.5777 26.8329C70.3264 27.2474 70.3264 27.7121 70.3264 28.1718H69.977C69.9166 27.7322 69.8588 27.2926 69.7985 26.8505L70.5777 26.8329Z" fill="#929CA1"/>
<path d="M87.8246 77.7331C87.7467 77.1 88.2519 76.6127 88.2594 75.9998C88.6767 76.7182 88.3223 77.2432 87.8246 77.7331Z" fill="#F3B330"/>
<path d="M63.3368 77.9742C62.8341 77.311 62.927 76.8112 63.7489 76.5198C63.4146 76.9493 63.4976 77.4969 63.3368 77.9742Z" fill="#D84F31"/>
<path d="M86.1659 77.4291C86.3821 78.0571 86.0352 78.6675 86.1156 79.2929C85.7964 78.6624 85.7411 78.0395 86.1659 77.4291Z" fill="#F3B330"/>
<path d="M86.3342 79.7225C87.1209 79.9737 87.3572 79.612 87.2944 78.8936C87.6312 79.2352 87.5909 79.6295 87.4476 80.0666C86.9776 80.3103 86.6182 80.1722 86.3342 79.7225Z" fill="#F3B330"/>
<path d="M86.5202 75.8616C86.9324 76.1957 87.3823 76.5248 86.5805 76.9242L86.5202 75.8616Z" fill="#F3B330"/>
<path d="M58.6592 103.85C58.4934 104.28 57.9756 104.141 57.7218 104.43C57.4101 104.317 57.0256 104.179 57.6665 103.986C57.9927 103.911 58.3249 103.865 58.6592 103.85Z" fill="#566C7A"/>
<path d="M63.0326 79.2854C63.0024 78.9488 63.0326 78.6499 63.4498 78.567C63.4523 78.7134 63.4148 78.8577 63.3412 78.9843C63.2677 79.1109 63.161 79.215 63.0326 79.2854Z" fill="#D84F31"/>
<path d="M57.7293 104.43C58.1515 104.483 58.2069 104.782 58.1943 105.126C57.9631 104.945 57.7167 104.774 57.7293 104.43Z" fill="#566C7A"/>
<path d="M61.1475 79.4311C61.1274 79.8807 60.8183 79.9335 60.4639 79.9335L61.1475 79.4311Z" fill="#D84F31"/>
<path d="M61.4189 79.0267C61.6703 79.4111 61.3887 79.4211 61.1273 79.4487L61.4189 79.0267Z" fill="#D84F31"/>
<path d="M85.8894 75.3743C86.2337 75.4019 86.5077 75.5024 86.4926 75.9244L85.8894 75.3743Z" fill="#F3B330"/>
<path d="M85.1228 74.5001C85.4093 74.5504 85.6104 74.6659 85.5325 75.0025C85.4323 74.9528 85.3439 74.8822 85.2733 74.7956C85.2026 74.7089 85.1513 74.6082 85.1228 74.5001Z" fill="#F3B330"/>
<path d="M64.6261 75.8616C64.7945 75.5979 65.0534 75.5853 65.3248 75.6104C65.2417 75.7112 65.133 75.7878 65.01 75.832C64.8871 75.8762 64.7544 75.8864 64.6261 75.8616Z" fill="#D84F31"/>
<path d="M92.9042 92.0638C92.9997 92.1023 93.0824 92.1671 93.1425 92.2507C93.2026 92.3343 93.2376 92.4333 93.2435 92.5361L92.9042 92.0638Z" fill="#566C7A"/>
<path d="M68.5947 30.7465L68.5721 30.2668C68.633 30.3307 68.6687 30.4143 68.6729 30.5025C68.6771 30.5906 68.6493 30.6772 68.5947 30.7465Z" fill="#643A22"/>
<path d="M87.5256 78.0445C87.5337 77.9594 87.5696 77.8794 87.6277 77.8168C87.6859 77.7541 87.763 77.7124 87.8473 77.6979C87.787 77.8536 87.7367 78.0244 87.5256 78.0445Z" fill="#F3B330"/>
<path d="M86.0828 79.2578C86.1673 79.3055 86.237 79.3755 86.2844 79.4601C86.3318 79.5447 86.3551 79.6407 86.3518 79.7376C86.2718 79.685 86.2056 79.6139 86.1588 79.5304C86.112 79.4469 86.086 79.3535 86.0828 79.2578Z" fill="#F3B330"/>
<path d="M85.5803 75.0377C85.8165 75.0377 85.8869 75.1834 85.907 75.3844L85.5803 75.0377Z" fill="#F3B330"/>
<path d="M61.2003 80.8856L61.6527 80.6168C61.5371 80.7901 61.4214 80.9383 61.2003 80.8856Z" fill="#D84F31"/>
<path d="M88.2971 76.0198C88.2028 75.9837 88.1228 75.9178 88.0693 75.8321C88.0158 75.7465 87.9916 75.6457 88.0005 75.5451C88.0935 75.7034 88.1966 75.8616 88.2971 76.0198Z" fill="#F3B330"/>
<path d="M53.7354 105.098C53.5293 105.229 53.3233 105.35 53.1222 105.098H53.7354Z" fill="#566C7A"/>
<path d="M58.1843 105.109C58.2672 105.189 58.3501 105.269 58.4356 105.36C58.3476 105.269 58.2647 105.189 58.1843 105.109Z" fill="#566C7A"/>
<path d="M22.8661 69.3456C22.8661 69.4636 22.8661 69.5968 22.8661 69.7023C22.8687 69.5817 22.8687 69.4636 22.8661 69.3456Z" fill="#643A22"/>
<path d="M63.681 75.0779L63.4749 75.1608C63.5414 75.128 63.6103 75.1003 63.681 75.0779Z" fill="#D84F31"/>
<path d="M64.3973 76.0977L64.631 75.824C64.6788 76.0224 64.5229 76.05 64.3973 76.0977Z" fill="#D84F31"/>
<path d="M22.8685 58.5817C22.8459 58.6772 22.8208 58.7702 22.7982 58.8656C22.8233 58.7802 22.8459 58.6772 22.8685 58.5817Z" fill="#643A22"/>
<path d="M92.5296 110.374C93.2686 110.394 93.7637 110.351 94.2362 110.539C94.5353 110.66 94.7842 110.833 94.7716 111.187C94.768 111.361 94.7028 111.527 94.5877 111.657C94.4725 111.787 94.3151 111.871 94.1433 111.896C93.334 112.064 92.5221 112.275 91.6801 112.19C91.1775 112.14 90.7753 111.981 90.7326 111.414C90.6899 110.846 91.0794 110.59 91.5419 110.479C91.8677 110.417 92.198 110.382 92.5296 110.374Z" fill="#3A475A"/>
<path d="M38.6728 112.657C39.4268 112.682 40.0048 112.557 40.5175 112.908C41.1459 113.328 41.1283 113.858 40.4748 114.101C39.5248 114.456 38.5069 114.651 37.4714 114.337C36.9938 114.194 36.5891 113.953 36.5816 113.438C36.5816 112.873 37.122 112.863 37.5015 112.78C37.8882 112.71 38.2798 112.668 38.6728 112.657Z" fill="#3A475A"/>
<path d="M58.1491 45.0271C57.7269 44.7483 57.3071 44.7307 56.8924 44.6403C56.3696 44.5247 55.9926 44.1806 56.0378 43.5903C56.0806 43.0653 56.3269 42.8116 56.92 42.6081C58.604 42.0354 60.2226 42.3921 61.8815 42.6081C64.0329 42.8995 66.1944 43.1507 68.3585 43.3064C69.8916 43.4144 70.2736 42.9974 70.5401 41.4224C70.5526 41.2133 70.6392 41.0153 70.7842 40.864C70.9292 40.7126 71.1233 40.6177 71.3318 40.596C71.7867 40.5383 72.1637 40.6513 72.3698 41.0984C72.541 41.4418 72.6289 41.8206 72.6263 42.2042C72.6237 42.5879 72.5306 42.9654 72.3547 43.3064C72.0433 43.8489 71.7036 44.3746 71.3369 44.8814C72.1286 45.8309 73.237 46.5042 73.7773 47.818C76.2581 53.8467 72.3824 60.8048 65.9381 61.8624C63.3443 62.2869 60.8434 61.9679 58.6166 60.7973C57.2635 60.0479 56.1717 58.9033 55.4874 57.5167C53.4767 53.5729 53.9266 49.9054 56.2414 46.3007C56.6963 45.625 57.5384 45.5597 58.1491 45.0271ZM70.1605 57.2856L70.1153 57.3308L70.3667 57.0544L70.3465 57.0871L70.6934 56.738L70.7235 56.6978L71.0629 56.1577C72.503 54.113 72.9127 51.9049 72.121 49.506L71.8898 48.8253C70.9422 46.6248 69.8791 45.9641 67.5643 46.1048H61.8664L61.3788 46.1199C60.5117 46.248 59.5868 46.1349 58.8327 46.7303L58.8503 46.7127C58.7825 46.7224 58.7198 46.7542 58.6719 46.8031C58.3877 46.9447 58.1359 47.1433 57.9322 47.3866C57.7285 47.63 57.5773 47.9128 57.4881 48.2173C57.2063 48.5034 57.0239 48.8724 56.9678 49.2698L56.9904 49.2171C56.3319 50.6213 55.8745 52.0506 56.3797 53.6156C56.8095 55.8889 57.473 58.004 59.9336 58.9184C59.995 59.0041 60.0767 59.0734 60.1715 59.1198C60.2662 59.1663 60.371 59.1886 60.4765 59.1846L60.4237 59.1545C60.492 59.2538 60.5905 59.3284 60.7046 59.3673C60.8187 59.4063 60.9423 59.4074 61.0571 59.3705H61.032C61.2255 59.672 61.5522 59.6217 61.8413 59.682H61.8161C63.3359 60.1294 64.9566 60.0987 66.4583 59.5941C66.8859 59.5875 67.2981 59.433 67.6246 59.157L67.5994 59.1771L68.0795 58.9259L68.0569 58.9409L68.5143 58.6897L68.8134 58.4687L68.7731 58.5265C69.1577 58.3733 69.6881 58.3984 69.6906 57.7729L69.6554 57.7955L69.9318 57.5292L69.8866 57.5719L70.1605 57.2856Z" fill="#1D2831"/>
<path d="M91.3911 44.6327C94.7767 45.3863 95.5432 48.0014 95.9931 50.8349C96.443 53.6684 95.4452 56.11 93.8492 58.3858C93.3163 59.1394 92.4442 59.4082 91.6978 59.8377C85.7159 63.2842 78.4974 60.31 77.1553 53.7713C76.444 50.3124 77.296 47.2 80.0331 44.7081C79.4072 43.7033 78.8166 42.7337 78.8644 41.533C78.8945 40.7041 79.5857 39.8248 80.2367 39.9203C81.144 40.0559 81.1918 40.7568 81.1716 41.4827C81.139 42.691 81.516 43.0904 82.8028 43.0829C85.4318 43.0628 87.9879 42.4323 90.5767 42.0781C91.8108 41.9123 93.0399 41.5757 94.3066 41.9048C94.8847 42.0555 95.3371 42.3017 95.2944 42.9523C95.2516 43.6029 94.7063 43.6858 94.2061 43.7335C93.2359 43.839 92.2532 43.8716 91.3911 44.6327ZM92.1627 56.8561L92.1376 56.8836L92.3889 56.6325L92.3738 56.6501C92.4683 56.5992 92.5499 56.5275 92.6126 56.4404C92.6753 56.3534 92.7174 56.2533 92.7358 56.1477L92.7961 55.8965C92.9971 55.7432 93.3214 55.6251 93.3842 55.4267C94.1156 53.1307 94.573 50.8273 93.2786 48.5565L93.3013 48.5891C93.2585 48.4057 93.2485 48.2048 93.0499 48.1018L93.0701 48.1295C92.9796 47.9813 92.8891 47.833 92.8011 47.6848C92.4265 47.1642 91.9284 46.7448 91.3516 46.4642C90.7747 46.1836 90.1371 46.0505 89.496 46.0771C87.2516 46.0771 85.0046 46.2731 82.7727 45.8712C82.6065 45.8272 82.4327 45.8199 82.2635 45.8499C82.0942 45.8798 81.9334 45.9462 81.7924 46.0445C80.3246 47.1523 79.3268 48.5188 79.2791 50.4329C78.2737 51.7291 79.1258 52.9198 79.4927 54.1356L79.4575 54.0954C79.5178 54.3466 79.4952 54.6279 79.734 54.8088L79.7189 54.7862L79.9702 55.2685L79.9552 55.2484C80.0759 55.5674 80.1311 55.9241 80.4227 56.1577C80.5961 56.2934 80.8525 56.3938 80.9253 56.5697C81.5813 58.1472 83.0039 58.5943 84.4441 59.0138C86.9047 59.7247 89.1492 59.265 91.1926 57.7578L91.9164 57.1499L92.1627 56.8561Z" fill="#1D2831"/>
<path d="M27.0508 77.3814C27.0106 76.8313 27.3424 76.4268 27.6566 76.0676C29.0248 74.4511 30.4903 72.9193 32.0449 71.4808C32.3843 71.1743 32.7738 70.8025 33.2388 71.1492C33.646 71.4506 33.4298 71.9204 33.284 72.3047C33.1106 72.7644 32.99 73.3094 32.6708 73.6385C31.2482 75.1457 29.9463 76.7861 28.3051 78.0873C28.1934 78.192 28.054 78.2625 27.9034 78.2906C27.7529 78.3186 27.5974 78.303 27.4555 78.2455C27.0785 78.0822 27.0508 77.7306 27.0508 77.3814Z" fill="#643A22"/>
<path d="M33.9954 75.4396C33.9552 76.2585 33.4801 77.0021 32.8719 77.6326C32.1405 78.3862 31.3211 79.0669 30.5369 79.7728C30.0167 80.24 29.426 80.3832 28.9309 79.823C28.4358 79.2628 29.0867 78.9438 29.3959 78.6424C30.5545 77.5045 31.7383 76.3816 32.7889 75.1457C33.0227 74.8694 33.2916 74.6785 33.6812 74.8192C33.7448 74.8359 33.8041 74.8659 33.8553 74.9072C33.9064 74.9485 33.9482 75.0001 33.9779 75.0588C34.0076 75.1174 34.0245 75.1817 34.0275 75.2473C34.0305 75.313 34.0196 75.3785 33.9954 75.4396Z" fill="#643A22"/>
<path d="M26.4527 75.108C26.3092 75.1024 26.1698 75.0586 26.049 74.9809C25.9282 74.9033 25.8304 74.7948 25.7657 74.6666C25.7011 74.5384 25.6719 74.3952 25.6814 74.252C25.6908 74.1088 25.7385 73.9706 25.8194 73.852C26.8247 72.488 27.5787 70.9155 29.0692 69.9534C29.2828 69.8153 29.4437 69.7173 29.6774 69.8505C29.7615 69.8928 29.8319 69.9578 29.8808 70.0382C29.9297 70.1186 29.955 70.211 29.9539 70.3051C29.9539 71.1491 27.4405 74.789 26.6865 75.0528C26.601 75.0653 26.5156 75.0779 26.4527 75.108Z" fill="#643A22"/>
<path d="M27.6465 34.8938C29.0665 38.393 32.354 40.7743 33.5956 44.6905C31.7935 44.0349 27.2368 36.5467 27.6465 34.8938Z" fill="#643A22"/>
<path d="M25.9074 38.9682C26.9605 39.4982 29.318 42.6357 29.4839 43.7234C27.9935 43.5049 26.0933 40.9903 25.8948 38.9783L25.9074 38.9682Z" fill="#643A22"/>
<path d="M31.0395 34.7104C32.0625 36.3106 33.5303 37.5239 34.0556 39.5737C32.2058 38.8979 30.4866 36.0719 31.0395 34.7104Z" fill="#643A22"/>
<path d="M25.8944 38.9779L25.842 38.9105L25.9045 38.9679L25.8944 38.9779Z" fill="#643A22"/>
<path d="M31.5726 102.81C31.3363 103.333 31.0121 103.518 30.5973 103.403C29.7629 103.167 28.931 102.9 28.1141 102.612C27.805 102.501 27.4179 102.325 27.5536 101.891C27.6742 101.504 28.0563 101.461 28.4082 101.526C29.5486 101.702 30.6322 102.142 31.5726 102.81Z" fill="#1D2831"/>
<path d="M75.3683 26.8505C73.9367 27.214 72.4362 27.208 71.0076 26.8329L75.3683 26.8505Z" fill="#929CA1"/>
<path d="M72.5306 108.768C73.5159 108.266 74.2649 108.575 74.8404 109.128C75.6246 109.881 76.3484 110.235 77.1929 109.268C77.668 110.409 76.6199 112.009 75.4989 112.009C75.2048 112.009 74.8731 111.896 74.868 111.637C74.8479 110.286 73.5812 109.989 72.89 109.211C72.7945 109.098 72.7091 108.982 72.5306 108.768Z" fill="#1D2831"/>
<path d="M71.8998 48.8253L72.131 49.506C71.945 49.7572 72.0305 50.0084 72.0707 50.2596C72.3874 52.3697 72.0707 54.3516 70.7989 56.12C70.7763 56.3109 70.7562 56.5018 70.7335 56.6927L70.7034 56.733C70.4672 56.733 70.3716 56.8661 70.3565 57.0821L70.3767 57.0495C70.2912 57.1424 70.2032 57.2353 70.1253 57.3257L70.1705 57.2805L69.8966 57.5544L69.9418 57.5116L69.6653 57.7779L69.7006 57.7553C69.4823 57.7487 69.269 57.8214 69.1003 57.96C68.9316 58.0986 68.8189 58.2936 68.7831 58.5089L68.8234 58.4511L68.5243 58.6722L68.0669 58.9234L68.0894 58.9083C67.9938 58.9 67.8978 58.9192 67.8127 58.9637C67.7276 59.0083 67.6571 59.0762 67.6094 59.1595L67.6346 59.1394C67.1998 59.162 66.6769 58.9485 66.4683 59.5765C64.9666 60.0811 63.3459 60.1118 61.8261 59.6644L65.37 59.5036C61.4064 59.2047 58.9885 56.7405 58.3476 54.2687C57.8021 52.1611 58.7824 48.6167 61.6477 47.6521C63.3543 47.0769 65.0885 47.1497 66.7976 46.8985C68.7631 46.5946 70.1228 47.1749 71.2287 48.6896C71.4147 48.9408 71.5806 49.2347 71.8998 48.8253ZM67.3556 50.4655C67.3005 50.3794 67.2205 50.3122 67.1262 50.2727C67.0319 50.2332 66.9278 50.2233 66.8277 50.2445L66.8655 50.2796C66.036 49.5462 65.4856 49.5914 64.6235 50.4655L64.6562 50.4404C64.1761 50.4806 63.8016 50.6288 63.8569 51.2166L63.8192 51.2619C62.7586 51.8698 62.7007 53.2538 63.691 54.3089C64.714 55.5397 66.6368 55.8386 67.6924 54.9293C68.8108 53.9697 68.851 52.1285 67.7828 50.8675C67.7662 50.7526 67.7102 50.6471 67.6246 50.5688C67.5389 50.4905 67.4288 50.4443 67.3129 50.4379L67.3556 50.4655Z" fill="#F8C99E"/>
<path d="M71.8998 48.8253C71.5806 49.2347 71.4146 48.9408 71.2286 48.6871C70.1228 47.1799 68.763 46.5921 66.7976 46.8961C65.0885 47.1623 63.3542 47.0819 61.6476 47.6496C58.7824 48.6142 57.8021 52.1712 58.3475 54.2662C58.9884 56.743 61.4064 59.2023 65.37 59.5012L61.8261 59.6619H61.8512C61.6678 59.3303 61.3486 59.3454 61.0419 59.3504H61.067L60.4337 59.1344L60.4864 59.1646C60.4276 59.0762 60.3463 59.0049 60.251 58.9581C60.1556 58.9114 60.0495 58.8907 59.9436 58.8983C57.4829 57.9839 56.8194 55.8689 56.3896 53.5955L57.0004 49.1971L56.9777 49.2498C57.3874 49.0162 57.4804 48.6243 57.498 48.1973C57.5873 47.8928 57.7385 47.61 57.9422 47.3666C58.1459 47.1233 58.3977 46.9246 58.6818 46.783L58.8603 46.6926L58.8427 46.7102C59.7048 46.5645 60.6548 46.7855 61.3888 46.0998L61.8763 46.0847C63.598 46.5193 65.3649 46.145 67.1017 46.3711C67.2449 46.3912 67.4159 46.1902 67.5742 46.0922C69.9016 45.9691 70.9522 46.6248 71.8998 48.8253Z" fill="#E4AB7B"/>
<path d="M70.7988 56.125C72.0756 54.3667 72.3873 52.3747 72.0706 50.2646C72.0304 49.9959 71.9449 49.7447 72.1309 49.511C72.9227 51.91 72.513 54.118 71.0728 56.1627L70.7988 56.125Z" fill="#E6CF9D"/>
<path d="M57.0004 49.2095L56.3897 53.608C55.8845 52.043 56.3419 50.6137 57.0004 49.2095Z" fill="#F8C99E"/>
<path d="M67.5743 46.1048C67.416 46.2027 67.245 46.4037 67.1018 46.3836C65.365 46.1575 63.5981 46.5318 61.8764 46.0972L67.5743 46.1048Z" fill="#F8C99E"/>
<path d="M61.3887 46.1123C60.6548 46.7981 59.7048 46.577 58.8427 46.7227C59.5967 46.1274 60.5216 46.2404 61.3887 46.1123Z" fill="#F8C99E"/>
<path d="M68.7732 58.5089C68.809 58.2936 68.9217 58.0986 69.0904 57.96C69.2591 57.8214 69.4724 57.7487 69.6906 57.7553C69.6881 58.3808 69.1577 58.3557 68.7732 58.5089Z" fill="#F9E5B8"/>
<path d="M66.4785 59.5815C66.6871 58.9535 67.2098 59.167 67.6446 59.1444C67.3181 59.4204 66.9061 59.5749 66.4785 59.5815Z" fill="#F9E5B8"/>
<path d="M57.498 48.2098C57.4754 48.6368 57.3874 49.0287 56.9777 49.2623C57.0339 48.8649 57.2163 48.4959 57.498 48.2098Z" fill="#F8C99E"/>
<path d="M70.7989 56.125L71.0729 56.1577L70.7335 56.6977C70.7511 56.5194 70.7763 56.3159 70.7989 56.125Z" fill="#F9E5B8"/>
<path d="M61.042 59.3605C61.3537 59.3605 61.6678 59.3404 61.8513 59.6719C61.5623 59.6192 61.2355 59.6619 61.042 59.3605Z" fill="#F8C99E"/>
<path d="M70.3566 57.0871C70.3716 56.8711 70.4672 56.7354 70.7034 56.7379L70.3566 57.0871Z" fill="#F9E5B8"/>
<path d="M67.6094 59.1645C67.657 59.0812 67.7276 59.0132 67.8127 58.9687C67.8977 58.9242 67.9937 58.905 68.0894 58.9133L67.6094 59.1645Z" fill="#F9E5B8"/>
<path d="M60.4463 59.1469L61.0797 59.363C60.9649 59.3998 60.8413 59.3987 60.7272 59.3598C60.6131 59.3209 60.5146 59.2462 60.4463 59.1469Z" fill="#F8C99E"/>
<path d="M59.9436 58.9108C60.0496 58.9033 60.1557 58.9239 60.251 58.9707C60.3464 59.0175 60.4276 59.0887 60.4865 59.1771C60.381 59.181 60.2762 59.1588 60.1815 59.1123C60.0868 59.0658 60.005 58.9966 59.9436 58.9108Z" fill="#F8C99E"/>
<path d="M70.1152 57.3308C70.2032 57.2404 70.2912 57.1474 70.3666 57.0544C70.2912 57.1474 70.2032 57.2378 70.1152 57.3308Z" fill="#F9E5B8"/>
<path d="M69.8866 57.5593L70.1605 57.2856C70.0675 57.376 69.9771 57.4689 69.8866 57.5593Z" fill="#F9E5B8"/>
<path d="M58.8603 46.7051L58.6819 46.7956C58.7298 46.7467 58.7925 46.7149 58.8603 46.7051Z" fill="#F8C99E"/>
<path d="M91.8964 57.1273L91.1726 57.7352C90.7428 57.484 90.3834 57.7679 89.9837 57.8633C87.1637 58.5315 84.5423 58.3657 82.4562 56.012C80.4455 53.7387 80.3248 49.5361 83.5168 47.9863C84.8263 47.3507 86.2614 47.2929 87.7066 47.1548C90.0491 46.9287 91.9316 47.4361 93.2361 49.4909C93.4045 50.1641 93.701 50.7796 93.7387 51.5206C93.7991 53.078 93.2838 54.4671 92.7912 55.8814L92.7309 56.1326C92.6167 56.1523 92.5149 56.216 92.4473 56.3099C92.3796 56.4039 92.3515 56.5205 92.369 56.635L92.384 56.6174L92.1327 56.8686L92.1578 56.841L91.8964 57.1273ZM84.8841 50.7017L84.6327 50.9981L84.6729 50.9629C84.5752 50.9706 84.4841 51.0156 84.4186 51.0886C84.3531 51.1615 84.3182 51.2568 84.3211 51.3548L84.3412 51.3322C83.64 52.0305 83.5696 52.759 84.2356 53.5227V53.5402C84.0672 53.9069 84.2356 54.133 84.5498 54.2938C85.1379 55.2986 86.2815 55.2785 87.1335 55.271C87.6362 55.271 88.7899 55.1278 88.9382 54.0677C89.8556 53.4774 90.0038 52.6535 89.3428 51.807C88.5536 50.1842 87.1436 49.6266 85.5954 50.1918C85.4848 50.1865 85.3756 50.2179 85.2847 50.2811C85.1938 50.3442 85.1263 50.4355 85.0927 50.5409V50.4907H85.1505L84.8565 50.7419V50.6816L84.8841 50.7017Z" fill="#F8C99E"/>
<path d="M93.2411 49.4859C91.9316 47.4311 90.0491 46.9236 87.7116 47.1497C86.2664 47.2879 84.8313 47.3457 83.5218 47.9812C80.3298 49.5311 80.453 53.7336 82.4612 56.0069C84.5473 58.3657 87.1687 58.5189 89.9888 57.8583C90.3884 57.7628 90.7428 57.474 91.1776 57.7302C89.1342 59.2374 86.8897 59.7046 84.4291 58.9862C82.9814 58.5667 81.5588 58.1195 80.9104 56.542C80.8375 56.3662 80.5811 56.2657 80.4077 56.13C80.6339 55.6276 80.2821 55.4267 79.9402 55.2207L79.9553 55.2408L79.704 54.7585L79.719 54.7811C79.719 54.5073 79.7191 54.2335 79.4426 54.0677L79.4778 54.1079C79.4074 52.8753 79.3362 51.6411 79.2642 50.4052C79.322 48.4911 80.3198 47.1246 81.7775 46.0168C81.9185 45.9185 82.0792 45.8521 82.2485 45.8222C82.4178 45.7922 82.5916 45.7995 82.7577 45.8435C84.9896 46.2454 87.2366 46.0445 89.4811 46.0495C90.1221 46.0229 90.7597 46.1559 91.3366 46.4365C91.9135 46.7171 92.4116 47.1365 92.7861 47.6571C92.7862 47.7487 92.8113 47.8386 92.8587 47.9169C92.9061 47.9953 92.974 48.0592 93.0551 48.1018L93.035 48.0741C93.0135 48.1719 93.0269 48.2741 93.0728 48.3631C93.1187 48.4521 93.1942 48.5222 93.2863 48.5615L93.2637 48.5288L93.2411 49.4859Z" fill="#E4AB7B"/>
<path d="M93.241 49.4859L93.2712 48.5364C94.5656 50.7972 94.1081 53.1107 93.3767 55.4066C93.3139 55.6051 92.9896 55.7231 92.7886 55.8764C93.2913 54.4621 93.7939 53.073 93.7361 51.5156C93.706 50.7796 93.4094 50.1641 93.241 49.4859Z" fill="#E6CF9D"/>
<path d="M79.259 50.4178C79.3293 51.6504 79.4005 52.8846 79.4726 54.1205C79.1056 52.9047 78.2637 51.714 79.259 50.4178Z" fill="#F8C99E"/>
<path d="M79.9276 55.2333C80.2694 55.4393 80.6213 55.6428 80.3951 56.1426C80.1036 55.909 80.0508 55.5523 79.9276 55.2333Z" fill="#F8C99E"/>
<path d="M92.3662 56.64C92.3487 56.5255 92.3768 56.4088 92.4445 56.3149C92.5122 56.2209 92.614 56.1573 92.7281 56.1376C92.7098 56.2432 92.6677 56.3434 92.605 56.4304C92.5423 56.5174 92.4607 56.5891 92.3662 56.64Z" fill="#E6CF9D"/>
<path d="M79.4374 54.0803C79.7139 54.2461 79.7114 54.5199 79.7139 54.7937C79.4751 54.6128 79.4978 54.3315 79.4374 54.0803Z" fill="#F8C99E"/>
<path d="M93.2937 48.574C93.2016 48.5348 93.1261 48.4646 93.0802 48.3756C93.0343 48.2867 93.0209 48.1844 93.0424 48.0867C93.241 48.1897 93.251 48.3907 93.2937 48.574Z" fill="#E6CF9D"/>
<path d="M93.0601 48.1144C92.979 48.0718 92.9111 48.0078 92.8637 47.9295C92.8163 47.8511 92.7912 47.7613 92.7911 47.6697C92.8691 47.8179 92.9696 47.9787 93.0601 48.1144Z" fill="#E6CF9D"/>
<path d="M67.7828 50.8674C68.851 52.1234 68.8108 53.9697 67.6924 54.9293C66.6368 55.8386 64.714 55.5397 63.691 54.3088C63.2185 53.2714 63.0878 52.249 63.8192 51.2618L63.8569 51.2166L64.6562 50.4404L64.6235 50.4655C65.3286 50.1529 66.1185 50.0874 66.8655 50.2796L66.8277 50.2445L67.3556 50.4655L67.3129 50.4379C67.3556 50.7067 67.3958 50.9754 67.7828 50.8674Z" fill="#1D2831"/>
<path d="M63.8192 51.2618C63.0879 52.249 63.2185 53.2714 63.6911 54.3088C62.7083 53.2538 62.7586 51.8697 63.8192 51.2618Z" fill="#F9E5B8"/>
<path d="M66.8655 50.2797C66.1186 50.0874 65.3286 50.1529 64.6236 50.4655C65.4857 49.5914 66.0361 49.5462 66.8655 50.2797Z" fill="#F9E5B8"/>
<path d="M64.6562 50.4404L63.857 51.2166C63.8017 50.6288 64.1762 50.4907 64.6562 50.4404Z" fill="#F9E5B8"/>
<path d="M67.7828 50.8675C67.3958 50.9755 67.3556 50.7067 67.3129 50.4379C67.4288 50.4443 67.5389 50.4905 67.6246 50.5688C67.7103 50.6471 67.7662 50.7526 67.7828 50.8675Z" fill="#F9E5B8"/>
<path d="M67.3556 50.4655L66.8278 50.2445C66.9278 50.2233 67.0319 50.2331 67.1262 50.2726C67.2205 50.3121 67.3006 50.3794 67.3556 50.4655Z" fill="#F9E5B8"/>
<path d="M88.9231 54.0778C88.7748 55.1378 87.6161 55.2785 87.1185 55.281C86.2664 55.281 85.1228 55.3136 84.5347 54.3038C84.59 53.9848 84.3035 53.8014 84.2205 53.5502V53.5302C83.9013 52.7766 84.1778 52.0681 84.3261 51.3422L84.3059 51.3648L84.6579 50.9729L84.6176 51.0081L84.8689 50.7117H84.8086V50.772L85.1027 50.5208H85.0449V50.5786L85.5476 50.2294C87.0959 49.6642 88.5058 50.2294 89.295 51.8446C89.4414 52.6095 89.3095 53.4015 88.9231 54.0778Z" fill="#1D2831"/>
<path d="M88.923 54.0778C89.3273 53.398 89.4711 52.5947 89.3276 51.817C89.9886 52.6636 89.8529 53.4875 88.923 54.0778Z" fill="#F9E5B8"/>
<path d="M84.3386 51.3322C84.1903 52.0582 83.9138 52.7741 84.233 53.5201C83.5695 52.7515 83.6374 52.0305 84.3386 51.3322Z" fill="#F9E5B8"/>
<path d="M84.2204 53.5402C84.3034 53.8039 84.5899 53.9848 84.5346 54.2938C84.2255 54.133 84.052 53.9069 84.2204 53.5402Z" fill="#F9E5B8"/>
<path d="M84.6703 50.9629L84.3184 51.3548C84.3155 51.2568 84.3505 51.1615 84.416 51.0886C84.4815 51.0156 84.5725 50.9706 84.6703 50.9629Z" fill="#F9E5B8"/>
<path d="M85.5801 50.2044L85.0774 50.5535C85.111 50.4481 85.1785 50.3567 85.2694 50.2936C85.3603 50.2305 85.4695 50.1991 85.5801 50.2044Z" fill="#F9E5B8"/>
</svg>
