<svg width="130" height="130" viewBox="0 0 130 130" fill="none" xmlns="http://www.w3.org/2000/svg">
<path d="M129.56 0.843384H0.874634V129.456H129.56V0.843384Z" fill="#FFA73E"/>
<path opacity="0.3" d="M65.0918 127.447C87.7873 127.447 106.186 124.635 106.186 121.167C106.186 117.699 87.7873 114.887 65.0918 114.887C42.3962 114.887 23.9979 117.699 23.9979 121.167C23.9979 124.635 42.3962 127.447 65.0918 127.447Z" fill="#1D2831"/>
<path d="M69.8246 27.3573C69.1058 29.8417 67.7184 31.6051 66.0319 33.3107C64.3228 32.6927 62.7997 31.5799 61.4198 30.2335C60.0777 28.9492 59.1203 27.3165 58.6551 25.5185H57.5191C57.2916 25.7252 57.0997 25.968 56.951 26.237C56.5238 27.2418 55.5435 27.6487 54.7643 28.229C53.485 29.181 51.9569 29.6934 50.3609 30.0175C49.7526 30.1405 49.167 30.4069 48.5563 30.4998C47.5786 30.648 46.6562 30.3742 45.7237 29.8994C46.1962 29.4272 46.6511 28.9675 47.1136 28.5128C48.0585 27.5383 48.866 26.4397 49.5139 25.2472C50.3458 23.7928 51.1476 22.3107 52.0625 20.9141C52.8299 19.7649 53.778 18.747 54.87 17.8997C55.9583 17.0381 57.1823 16.5608 58.3887 16.0434C59.0372 15.7646 59.7912 15.7495 60.2712 15.0762C60.6256 13.1144 59.2533 9.25098 58.0544 7.28913V6.28434C58.2203 5.90754 58.6878 5.94778 58.9316 5.63881C59.5472 5.62312 60.1596 5.7326 60.7316 5.96059C61.3037 6.18858 61.8234 6.53034 62.2593 6.96513C64.2348 8.82902 64.5415 9.44194 65.6876 11.9263C66.0244 12.6573 66.3963 13.4334 66.3436 14.3252L67.0473 14.9381C67.1794 14.9495 67.3123 14.9495 67.4444 14.9381C68.6006 14.7874 69.7065 15.1893 70.8551 15.2521C71.7725 15.3099 72.7225 15.7896 73.5469 16.2719C74.9999 17.0785 76.3061 18.1249 77.41 19.3667C78.001 20.0576 78.523 20.8048 78.9683 21.5974C79.6972 22.9111 80.3205 24.343 81.5948 25.2849C82.6001 26.0385 83.5226 26.9152 84.827 27.4C84.4726 27.8044 84.2992 28.1913 83.7689 28.2691C83.2361 28.3832 82.7263 28.5862 82.2609 28.8695C81.7582 29.1207 81.1625 28.7163 80.7528 29.2463C80.6774 29.3468 80.328 29.3242 80.1496 29.2463C79.0236 28.7841 77.7946 28.7439 76.6484 28.2993C75.8002 28.0061 75.0087 27.5693 74.3085 27.0081C73.5821 26.3701 72.7854 25.7522 72.2978 24.8428C71.9509 24.1746 71.1467 24.1018 70.3298 24.5765C70.6239 25.6391 69.6587 26.5334 69.8246 27.3573Z" fill="#819B26"/>
<path d="M71.6267 50.6583C71.031 50.5377 70.5786 50.7889 70.2644 50.3769C70.1111 50.4171 70.0734 50.6483 69.8723 50.6081C69.6084 50.6407 69.5381 50.2011 69.1988 50.3569C69.0052 49.8545 68.8092 49.3521 68.6785 49.0054C68.8268 47.4229 69.5581 46.2272 70.2946 45.0365C71.0486 43.8081 71.8303 42.5823 73.0141 41.5951H75.7788L76.4624 42.2331L71.6267 50.6583Z" fill="#425059"/>
<path d="M52.462 41.3138C52.3967 41.8665 53.1306 41.9694 53.0024 42.6451C51.9166 44.1021 51.1702 45.9233 50.0417 47.5234C49.733 47.9731 49.5357 48.4897 49.4661 49.0306C49.3831 49.6611 49.0614 50.3544 48.0359 50.3694C47.8524 50.1534 47.6187 49.8671 47.3674 49.5908C46.7013 48.8748 46.4073 47.5184 46.6686 46.5211C46.7331 46.1763 46.7692 45.8268 46.7767 45.4761C47.2794 44.5718 47.6137 43.5871 48.2647 42.8084C48.7691 42.1552 49.412 41.6216 50.1472 41.246C50.4325 41.1032 50.7518 41.0423 51.0696 41.0701C51.2857 41.0852 51.4341 41.3615 51.7206 41.3213C51.9671 41.2973 52.2151 41.2949 52.462 41.3138Z" fill="#425059"/>
<path d="M120.64 77.9259C120.007 76.8256 119.57 75.6525 118.614 74.8361C118.808 74.4016 118.416 74.1453 118.363 73.7861C118.061 72.1397 117.54 70.5412 116.812 69.0334C116.058 67.3501 114.976 65.8342 113.628 64.5747C112.846 63.8512 112.158 63.0374 111.265 62.4144C110.617 61.9686 109.946 61.5577 109.255 61.1835C108.228 60.6302 107.141 60.1978 106.015 59.8949C105.042 59.6186 104.004 59.596 103.082 59.0609C103.06 58.8647 102.971 58.6821 102.83 58.5434C101.423 57.0063 99.6876 55.8045 97.7533 55.0267C96.748 54.6273 95.7426 54.0973 94.6066 54.1274C94.0335 53.6527 93.2368 54.1274 92.6612 53.6652C91.1245 53.5894 89.5849 53.5978 88.0492 53.6903C87.931 53.6903 87.8229 53.9189 87.5942 53.8662L87.2172 53.5069C87.2172 52.7533 87.2172 51.9696 87.2172 51.1808C87.2284 50.8994 87.1953 50.6181 87.1192 50.3469C86.8377 49.4928 86.7799 48.5583 86.4406 47.7369C86.1264 46.9833 86.4406 46.1368 85.7619 45.2802C86.3903 45.3983 86.8 45.2024 87.1745 45.4259C87.549 45.6495 88.0491 45.7776 88.3985 46.1217C88.6096 46.3327 88.3256 46.6242 88.6122 46.7673L89.5974 47.8349H90.6706C91.5754 47.5561 91.97 47.0813 92.1334 46.3453C92.2876 45.7619 92.2833 45.148 92.1208 44.5668C91.9161 43.9818 91.676 43.4097 91.402 42.8537C90.8867 42.811 90.7159 42.3061 90.4896 42.1654C88.5946 41.6781 87.0061 40.7737 85.2693 40.5125C84.9351 38.8219 84.7918 37.159 84.3495 35.5488C83.9511 33.9628 83.4541 32.4033 82.8615 30.8791C83.804 30.5777 84.4726 30.0175 85.2341 29.6231C86.2721 29.0931 86.8578 28.3295 86.7271 27.2393C86.4981 26.7501 86.1412 26.3317 85.6941 26.0285C85.0155 25.5261 84.0252 25.5713 83.5778 24.7348C82.5247 24.2575 81.9868 23.3206 81.4339 22.3786C80.9815 21.6049 80.612 20.7583 80.0942 20.055C78.8551 18.3695 77.4376 16.8095 75.6908 15.6189C75.0222 15.1617 74.3738 14.614 73.5443 14.4457C72.7149 14.2774 72.0363 13.8228 71.227 13.6419C70.6852 13.4985 70.1261 13.4308 69.5657 13.4409C68.9826 13.4761 68.5226 12.9963 67.9772 13.1897C66.7205 9.36652 65.0416 5.97786 61.078 4.14664C60.9121 4.14664 60.5275 4.25721 60.2586 4.1291C59.1577 3.60409 58.2806 4.00601 57.3908 4.63149C57.0346 4.87192 56.7475 5.20124 56.5579 5.58679C56.3683 5.97234 56.2829 6.40073 56.3101 6.82947C56.7248 7.1937 56.5136 7.73375 56.6795 8.18088C57.0214 9.09273 57.5567 9.9041 57.886 10.826C58.3032 11.9966 58.6827 13.1395 58.5394 14.388C58.366 14.506 58.2428 14.6593 58.1021 14.6794C56.2246 14.9306 54.6613 15.7771 53.3041 17.0607C52.1166 18.1642 51.0948 19.4333 50.2704 20.8287C49.4259 22.2806 48.5261 23.7024 47.6967 25.1669C47.351 25.843 46.9072 26.4643 46.3797 27.0106C45.4748 27.8773 44.6027 28.769 43.7582 29.6206V30.3742C44.7259 31.6302 46.0202 32.1552 47.6816 32.3838C47.1513 33.371 47.4856 34.4612 47.2041 35.3981C46.8874 36.4431 47.2041 37.4454 46.9527 38.4954L46.6536 38.7918C46.0881 38.9174 45.51 38.6687 44.9521 38.9676C44.3941 39.2666 43.7909 39.1083 43.1927 39.264C42.1647 39.5328 41.5137 40.0177 41.2071 40.9923C41.1342 41.2912 41.4081 41.5349 41.5037 41.6278C41.8027 41.9268 42.2124 42.1302 42.4663 42.4618C42.4903 43.7531 42.6658 45.0371 42.9891 46.2875C43.3862 47.9957 44.0547 49.5782 45.3341 50.8392C45.6583 51.1583 45.975 51.4798 46.2741 51.7787C46.1258 52.9543 45.3466 53.8209 45.1506 54.8609C44.2055 55.0794 43.3636 54.4991 42.4562 54.6398C41.3076 53.9314 40.159 54.6173 39.0456 54.7429C38.0403 54.8584 37.0977 55.4612 36.125 55.8406C35.2615 56.1555 34.4859 56.6722 33.863 57.3477C33.1642 58.1264 32.2243 58.6941 31.8774 59.7919C31.7342 60.2415 31.1862 60.5329 30.7464 60.6359C29.6168 60.9305 28.529 61.3668 27.5091 61.9346C26.4571 62.5136 25.4868 63.2299 24.6238 64.0648C23.3947 65.1951 22.4522 66.5768 21.5197 67.9307C21.0637 68.5638 20.6856 69.2495 20.3937 69.9729C20.2934 70.3066 20.1533 70.6271 19.9765 70.9275C19.7779 71.2138 19.9765 71.5605 19.6674 71.8268C19.416 72.0353 19.7905 72.5678 19.3808 72.8316C19.2652 73.7736 18.7475 74.6402 18.848 75.5771C18.4911 76.1725 17.8979 76.479 17.5611 77.0994C17.0283 78.0856 16.7819 79.201 16.8499 80.3197C16.8652 81.1159 17.1616 81.8811 17.6868 82.48C17.9206 82.6993 18.0997 82.9703 18.2096 83.2713C18.3051 83.6029 18.9159 83.3693 18.853 83.8641C19.6573 84.7031 19.9413 85.8486 20.5872 86.7931C21.3412 87.8783 22.0199 89.0011 22.9146 89.9632C23.8094 90.9253 24.8022 91.8673 25.7497 92.8143C26.3002 93.3594 27.0416 93.6834 27.5091 94.3215C29.0473 94.9947 30.3166 96.1653 31.6009 96.5622C31.7988 96.7147 31.9552 96.9145 32.0557 97.1431C32.1563 97.3718 32.1978 97.622 32.1765 97.8709C32.2418 99.3128 32.8576 100.513 33.7725 101.609C34.2349 102.164 35.0166 102.187 35.4137 102.729C35.5017 103.859 35.8209 104.779 36.8363 105.437C37.5747 105.873 38.3796 106.184 39.219 106.359C39.9554 106.555 40.727 106.344 41.4534 106.042C42.5769 105.575 43.62 105.053 43.9945 103.759C44.0347 103.618 44.2232 103.52 44.384 103.362C44.8063 104.329 45.1833 105.221 45.5854 106.1C45.8945 106.781 46.4425 107.356 46.6989 108.024C47.0482 108.936 47.7042 109.622 48.2069 110.406C48.7992 111.316 49.4721 112.172 50.2176 112.963C51.6528 114.51 53.0678 116.125 54.8221 117.304C56.6946 118.56 58.5068 119.956 60.6859 120.722C61.5857 121.039 62.5583 121.368 63.242 121.192C63.996 120.994 64.7852 120.873 65.5191 120.629C67.1729 120.079 68.8368 119.529 70.3323 118.602C70.8978 118.253 71.5287 118.05 72.0917 117.65C73.097 116.927 74.0672 116.158 75.0826 115.462C76.098 114.766 76.7439 113.651 77.8649 113.101C78.4933 112.129 79.4031 111.408 80.1495 110.546C80.8739 109.692 81.5526 108.8 82.1829 107.874C82.9218 106.806 83.598 105.696 84.2841 104.626C84.5903 104.619 84.8945 104.676 85.1783 104.79C85.4622 104.905 85.7197 105.077 85.9354 105.294C86.4694 105.768 87.1022 106.117 87.7878 106.316C89.0888 106.782 90.5067 106.808 91.8243 106.392C93.1237 105.964 94.2824 105.407 94.6393 103.897C94.6946 103.664 94.775 103.334 95.064 103.199C96.1875 102.669 96.6901 101.591 97.3688 100.659C97.7596 100.076 98.0802 99.4486 98.3239 98.7903C98.5928 98.1547 98.5174 97.3509 99.1357 96.8661C100.508 96.8837 101.755 96.321 103.034 95.9542C104.687 95.5203 106.278 94.8753 107.767 94.0351C109.762 92.8419 111.708 91.596 113.356 89.9381C114.095 89.197 114.849 88.4686 115.571 87.7125C115.785 87.4767 115.981 87.2248 116.156 86.9589C117.139 85.5321 118.067 84.0576 119.384 82.8744C120.233 82.1208 120.603 81.0432 120.64 79.8927C120.66 79.217 120.64 78.5413 120.64 77.9259ZM83.2159 39.9649C82.7132 40.1859 82.3312 39.9649 81.9114 39.8267C81.5394 39.6936 81.0569 39.9573 80.715 39.6936C80.431 39.475 80.1596 39.5705 79.8882 39.563C79.094 39.5429 78.2972 39.5806 77.5029 39.5479C76.9877 39.5253 76.4775 39.6534 75.9547 39.3369C75.6229 39.1359 75.1128 39.352 74.6729 39.3369C71.8278 39.2691 68.9624 39.0983 66.1399 39.362C63.5662 39.6132 61.0101 39.4349 58.4515 39.5504C57.3908 39.5957 56.3704 39.1937 55.2896 39.2842C54.2491 39.3696 53.1533 39.4901 52.163 39.254C51.0495 38.9877 49.9587 39.1636 48.8327 39.0254C48.5563 38.2417 48.9207 37.6011 49.0162 36.9304C49.1117 36.2597 48.7372 35.5237 49.2675 34.8983C49.2877 34.8731 49.2675 34.8154 49.2675 34.7752C49.064 33.8608 49.6521 33.0168 49.5038 32.1074C50.7033 31.8702 51.8889 31.5675 53.0552 31.2006C54.2014 30.8012 55.448 30.3566 56.305 29.3694C56.7097 28.9047 57.2903 28.6987 57.705 28.2641C57.8488 28.4568 57.9806 28.6581 58.0996 28.867C58.8369 29.9863 59.6867 31.0275 60.6356 31.9743C61.9828 33.2453 63.5235 34.1873 65.1396 35.054C65.587 35.3052 65.9967 35.2373 66.4164 35.3052C67.0838 34.8331 67.7156 34.3126 68.3065 33.7478C68.9021 33.1348 69.3118 32.3963 69.8271 31.7382C70.3423 31.08 70.4403 30.2988 70.8777 29.6583C71.315 29.0177 71.2999 28.1511 71.8076 27.4502C73.1196 28.4274 74.4466 29.4247 75.9949 29.9999C77.5437 30.6062 79.1797 30.9606 80.8407 31.0499C82.2407 33.8507 82.8691 36.8626 83.2159 39.9649ZM76.4599 42.2257L71.6267 50.6483C71.031 50.5277 70.5786 50.7789 70.2644 50.367C70.1111 50.4071 70.0734 50.6383 69.8723 50.5981C69.6084 50.6307 69.538 50.1912 69.1987 50.3469C69.0052 49.8445 68.8091 49.3421 68.6785 48.9954C68.8267 47.4129 69.5581 46.2172 70.2945 45.0265C71.0486 43.7981 71.8302 42.5723 73.014 41.5851H75.7788L76.4599 42.2257ZM45.7262 29.8893C46.1987 29.4171 46.6536 28.9575 47.1161 28.5028C48.0609 27.5283 48.8685 26.4297 49.5164 25.2372C50.3483 23.7828 51.15 22.3007 52.0649 20.9041C52.8324 19.7549 53.7804 18.737 54.8724 17.8897C55.9607 17.0281 57.1847 16.5508 58.3912 16.0333C59.0396 15.7545 59.7936 15.7394 60.2737 15.0662C60.6281 13.1044 59.2558 9.24097 58.0569 7.27912V6.27433C58.2227 5.89754 58.6902 5.93771 58.934 5.62874C59.5497 5.61305 60.1621 5.72253 60.7341 5.95052C61.3061 6.17851 61.8259 6.52028 62.2618 6.95507C64.2373 8.81895 64.5439 9.43187 65.69 11.9162C66.0268 12.6472 66.3988 13.4233 66.346 14.3151L67.0498 14.9281C67.1819 14.9394 67.3148 14.9394 67.4469 14.9281C68.6031 14.7774 69.7089 15.1793 70.8575 15.2421C71.7749 15.2998 72.725 15.7796 73.5494 16.2619C75.0024 17.0685 76.3085 18.1148 77.4125 19.3566C78.0041 20.0471 78.526 20.7943 78.9708 21.5873C79.6997 22.9011 80.323 24.3329 81.5972 25.2749C82.6026 26.0285 83.525 26.9051 84.8295 27.3899C84.4751 27.7944 84.3017 28.1812 83.7714 28.2566C83.2387 28.3726 82.7291 28.5764 82.2633 28.8595C81.7607 29.1107 81.165 28.7062 80.7553 29.2363C80.6799 29.3367 80.3305 29.3141 80.1521 29.2363C79.0261 28.7741 77.797 28.7339 76.6509 28.2892C75.8027 27.996 75.0111 27.5593 74.3109 26.9981C73.5846 26.3601 72.7878 25.7421 72.3002 24.8328C71.9534 24.1646 71.1491 24.0917 70.3323 24.5665C70.5836 25.629 69.626 26.5233 69.7919 27.3473C69.073 29.8316 67.6857 31.595 65.9992 33.3006C64.2901 32.6827 62.767 31.5699 61.3871 30.2234C60.045 28.9392 59.0876 27.3064 58.6224 25.5085H57.4863C57.2588 25.7152 57.0669 25.9579 56.9183 26.2269C56.491 27.2317 55.5108 27.6386 54.7317 28.2189C53.4523 29.1709 51.9242 29.6834 50.3282 30.0075C49.72 30.1305 49.1343 30.3968 48.5236 30.4897C47.5811 30.648 46.6586 30.3742 45.7262 29.8994V29.8893ZM46.6687 46.5212C46.7331 46.1764 46.7692 45.8268 46.7767 45.4761C47.2794 44.5718 47.6137 43.5872 48.2647 42.8085C48.7692 42.1552 49.4121 41.6216 50.1472 41.246C50.4325 41.1032 50.7518 41.0423 51.0696 41.0701C51.2858 41.0852 51.4341 41.3615 51.7206 41.3213C51.9673 41.2999 52.2154 41.2999 52.4621 41.3213C52.3967 41.874 53.1306 41.977 53.0024 42.6527C51.9166 44.1096 51.1702 45.9309 50.0417 47.531C49.7331 47.9807 49.5358 48.4973 49.4661 49.0382C49.3832 49.6687 49.0614 50.3619 48.0359 50.377C47.8525 50.161 47.6187 49.8747 47.3674 49.5983C46.7014 48.8849 46.4073 47.5284 46.6687 46.5312V46.5212ZM118.881 80.5634C118.026 81.9249 116.722 82.8443 115.865 84.143C115.602 84.5311 115.365 84.9364 115.156 85.3562C114.864 85.8984 114.463 86.374 113.977 86.7529C113.563 87.1071 113.253 87.5542 112.881 87.9386C112.509 88.3229 112.082 88.6595 111.698 89.0338C111.313 89.4081 110.835 89.6467 110.491 90.0386C110.099 90.4706 109.508 90.6113 109.149 91.0835C108.891 91.3868 108.564 91.6245 108.196 91.7769C107.05 92.2793 106.068 93.0982 104.914 93.5528C103.871 93.9673 102.783 94.2813 101.704 94.6104C100.254 95.055 98.7285 95.2459 97.2683 95.9367C97.4593 96.6401 96.7228 97.2404 97.0169 97.8358C96.1699 99.6971 95.3078 101.353 93.4504 102.357H91.3166C91.1909 102.797 91.1331 103.216 91.6056 103.591L92.3898 103.628C92.5858 103.817 92.4526 104.04 92.4978 104.234C92.1661 104.518 91.676 104.518 91.3693 104.862H88.3407C88.0642 104.359 87.3354 104.359 87.0966 103.661C86.8578 102.963 87.0966 102.355 86.9508 101.739C87.3278 101.418 87.3102 100.915 87.6043 100.591C87.8003 100.375 88.0165 100.177 88.2201 99.9734C88.264 99.8075 88.2512 99.6316 88.1838 99.4738C88.1165 99.3159 87.9983 99.1849 87.8481 99.1018H87.0463C86.2445 99.9809 85.7896 101.111 85.3548 102.31H84.2665C84.208 102.231 84.1405 102.159 84.0654 102.096C83.3114 101.546 83.0023 101.142 82.7534 100.275C82.6904 100.125 82.6738 99.9596 82.7057 99.8001C83.0752 98.8606 82.8489 97.7428 83.6733 96.9214C83.8306 96.7419 83.9336 96.5214 83.9701 96.2857C84.0066 96.0499 83.9751 95.8086 83.8794 95.59C82.3312 95.4971 82.2331 96.9666 81.5972 97.8307C81.2831 97.6675 81.557 97.3585 81.3459 97.1425C81.1499 97.037 80.8156 97.047 80.715 96.6928C80.5878 95.7853 80.7468 94.8607 81.17 94.0477C81.5401 93.2371 82.1327 92.548 82.8791 92.0607C83.6004 92.2365 84.3143 91.6236 85.1035 91.8095C85.3096 91.3824 85.2015 91.1036 84.8521 90.8324H83.3139C82.9721 90.2596 83.3617 89.8502 83.618 89.5136C84.5304 88.3254 85.7243 87.6497 87.2851 87.7728C87.7031 87.8105 88.1237 87.8105 88.5418 87.7728C89.4632 87.6911 90.3867 87.9049 91.1783 88.3832C91.5955 88.6218 91.9801 88.451 92.4752 88.5666C92.9701 87.0979 93.5881 85.6736 94.3226 84.3088C95.0389 82.9674 95.6572 81.5456 96.5846 80.3549C97.5774 79.0688 98.54 77.7374 99.759 76.6397V75.7555H98.1152C97.0395 76.6422 95.6295 76.3508 94.393 76.7176C94.212 76.7729 92.1586 76.2152 92.0103 76.1147C90.3087 75.0848 89.7206 74.497 88.9314 73.0375C88.4287 72.7863 88.0115 73.0727 87.4887 73.2887C87.4686 73.7383 87.363 74.2483 87.7224 74.7105C88.7278 75.449 89.4969 76.4513 90.4871 77.3305C90.2961 78.692 90.1302 80.0937 89.6653 81.4376C89.2212 82.811 88.5657 84.1067 87.7224 85.2784C87.5421 85.5872 87.2816 85.8415 86.9684 86.0144C86.8025 86.0144 86.5914 85.9491 86.4833 86.0144C85.9555 86.3837 85.2266 86.1174 84.7516 86.5947C84.5002 86.8459 84.2187 86.7177 83.9523 86.7554C83.9523 87.0066 83.7261 87.087 83.5929 87.2302C83.2589 87.6033 82.9039 87.9573 82.5297 88.2903C82.1854 88.5892 82.1577 89.1117 81.6777 89.3553C81.7858 90.1466 81.5193 90.7897 80.9664 91.4076C80.1471 92.3538 79.5464 93.4687 79.207 94.6732C78.9984 95.3615 79.1643 96.1602 79.1643 96.9113C79.5866 97.2178 79.3604 97.6649 79.4156 98.0568C79.858 98.092 79.5539 98.4537 79.6469 98.6522L80.6749 99.5665C80.8257 99.5966 81.2152 99.461 81.3786 99.9257C81.4465 100.647 81.3183 101.433 81.63 102.186L82.6001 103.058C82.8363 103.601 82.5699 103.877 82.4141 104.126C81.4967 105.6 80.6145 107.107 79.4533 108.416C79.1819 108.723 79.1241 109.145 78.7647 109.398C78.4796 109.643 78.2094 109.905 77.9554 110.182C77.6537 110.451 77.4879 110.981 77.2189 111.064C76.8394 111.184 76.9676 111.817 76.48 111.662C74.1853 114.068 73.3307 114.663 70.8626 116.163C69.36 117.052 67.7863 117.815 66.1575 118.444C64.9737 118.919 63.717 119.366 62.4402 119.12C61.4348 118.926 60.3592 118.72 59.5297 117.992C59.3387 117.824 59.1326 117.947 58.9164 117.886C58.5208 117.504 58.0842 117.167 57.6145 116.882C56.951 116.477 56.1693 116.168 55.7873 115.399C55.6314 115.367 55.453 115.48 55.3198 115.312C54.6211 114.432 53.6057 113.902 52.8516 113.088C50.3056 110.325 48.1089 107.339 46.6335 103.862C46.0348 102.425 45.5622 100.939 45.221 99.4208C44.9696 98.2879 44.9018 97.1173 44.6781 95.9945C44.3715 94.4647 44.5499 92.9575 44.4946 91.4427C44.477 90.9404 44.3237 90.4229 44.6882 89.8904C44.9596 89.496 44.4795 88.8253 44.9797 88.3832C44.9244 87.5291 45.2889 86.7579 45.4497 85.9491C45.5276 85.5597 45.7865 85.409 45.9725 85.0975V84.3867C45.9222 84.2837 45.8016 84.2862 45.6935 84.2409C44.1076 83.5527 42.9037 82.4524 41.8581 81.0608C41.0001 79.8947 40.327 78.6035 39.8625 77.2326C39.6539 76.6448 39.586 75.9967 39.4151 75.4038C39.121 74.3815 39.2366 73.3716 39.2014 72.3568C39.1637 71.2666 39.5106 70.2442 39.7946 69.2143C40.0032 68.4607 40.1766 67.7072 40.6617 67.0566C40.8075 66.8581 40.7547 66.5039 40.6617 66.2477C40.3526 65.8282 39.9504 65.8734 39.5382 65.9487C39.5206 66.025 39.4909 66.0979 39.4502 66.1648C38.553 67.1244 38.3343 68.3778 37.9221 69.5534C37.7238 70.0392 37.6512 70.567 37.711 71.0882C37.809 71.6911 37.4093 72.1583 37.4219 72.7461C37.4445 74.0021 37.716 75.2079 37.8919 76.4362C38.0503 77.5214 38.5856 78.4031 38.8973 79.4883C38.0603 79.33 37.2912 79.8048 36.4191 79.7395C35.7886 79.6908 35.1712 79.5336 34.5943 79.2748C33.8102 78.9382 32.9908 78.692 32.3323 78.4609C31.9126 78.4609 31.8497 78.7121 31.7014 78.8076C31.4752 79.2246 31.9302 79.4782 31.9277 79.845C32.3449 80.0962 32.7495 80.5157 33.2145 80.5986C34.2601 80.8096 34.8356 81.5858 35.3559 82.3193C36.1324 83.3489 36.7712 84.4754 37.256 85.6702C37.432 86.145 37.7034 86.5896 37.6959 87.1197C37.902 87.3256 38.1081 87.5341 38.3494 87.7728C39.8574 87.5216 41.3202 88.2752 42.9715 87.9084C42.8684 88.7148 43.2229 89.4156 42.7478 90.1315C42.6322 90.3073 42.7202 90.6188 42.7202 90.8675C42.7202 92.2918 42.7503 93.7161 42.7051 95.1378C42.685 95.8387 43.0846 96.4541 42.9866 97.1701C42.8936 97.8483 43.2379 98.4763 43.4038 99.1219C43.5697 99.7674 43.6351 100.456 43.7557 101.194L43.077 101.684C42.8056 103.141 42.1999 104.141 40.815 104.515C39.8373 104.673 38.8973 104.39 37.9271 104.111C37.3666 103.947 37.1253 103.656 36.8036 103.106H38.5756C38.7691 102.573 39.0783 102.169 38.8872 101.581C37.3289 101.569 35.8033 101.267 34.725 99.9609C33.692 98.7049 33.5011 97.1977 33.7021 95.6905C33.109 95.1027 32.5711 94.6531 31.7568 94.4345C30.7514 94.1833 29.8592 93.5428 28.9795 92.9675C26.9964 91.6739 25.335 89.9984 23.7968 88.2375C22.6163 86.9158 21.6741 85.3996 21.012 83.7561C20.7833 83.1683 20.5571 82.6559 19.891 82.3268C19.2627 82.0128 19.0415 81.2014 18.6067 80.5684V78.2926C19.1597 77.951 19.1697 76.9914 20.0846 76.8507C20.3359 75.9263 20.5671 74.9818 20.8512 74.0498C21.2565 72.6344 21.782 71.2562 22.422 69.9302C23.4867 67.7909 24.9764 65.8909 26.8003 64.3461C28.1546 63.2101 29.7812 62.4457 31.5205 62.128C32.1565 62.0133 32.7364 61.6909 33.1693 61.2112C32.9808 60.4199 33.5639 59.9326 33.9761 59.4302C34.5918 58.6766 35.2931 57.9883 36.2381 57.6417C36.8966 57.3905 37.4144 56.9307 38.1206 56.7172C39.7669 56.2148 41.4208 55.9134 43.1223 56.0918C43.9695 56.2202 44.7902 56.4849 45.5527 56.8755C46.45 57.2975 46.7491 56.7198 47.2443 56.446C47.2066 56.0014 46.8421 55.926 46.7139 55.5868L48.0636 52.6052C48.7196 52.3113 49.2499 52.8237 49.8556 52.8086C50.6499 52.7911 51.4466 52.8086 52.2434 52.8086C53.1499 52.765 54.0368 52.5286 54.8447 52.1153C55.0896 51.9972 55.3414 51.894 55.5988 51.8063C56.7625 51.3943 57.7729 50.8015 58.4992 49.739C59.32 48.5974 59.9718 47.3437 60.4345 46.0163C60.6859 45.2627 60.8693 44.5091 61.0503 43.7555C61.1056 43.5043 61.3167 43.4515 61.46 43.1853C61.8873 43.6877 62.6463 43.2656 63.0334 43.866C63.2696 46.4709 64.187 48.7618 66.0495 50.6483C66.9359 51.5728 68.0003 52.3085 69.1786 52.8111C69.7248 53.0195 70.284 53.1924 70.8525 53.3286C72.1092 53.6777 73.386 53.4793 74.6503 53.5547C75.0904 53.5608 75.5269 53.4753 75.9321 53.3035C76.774 53.0071 77.5934 52.6604 78.4053 52.2987C78.9708 52.0475 79.1794 51.3316 79.8429 51.2211C80.1169 50.3444 81.273 49.9651 81.175 48.8849C81.67 48.1335 82.0116 47.2918 82.1804 46.4081C82.3364 45.6878 82.5294 44.976 82.7585 44.2754C83.1581 44.1498 83.3843 44.7276 83.8543 44.4613C84.1333 45.7173 84.3369 46.9532 84.7013 48.1464C84.9753 49.0482 84.9275 50.0203 85.3799 50.8794C85.4495 51.1157 85.4666 51.3643 85.4302 51.6079C85.4302 52.6127 85.4302 53.6175 85.4302 54.6223C85.0079 55.293 84.1258 55.4562 83.6558 56.2852C83.5829 56.4962 83.6934 56.775 84.0101 57.0087C84.6209 57.2247 85.1311 56.8127 85.684 56.6569C86.051 56.5514 86.3702 56.2927 86.7271 56.142C87.4811 55.8179 88.2352 55.4311 89.1173 55.5492C89.2572 55.5639 89.3985 55.5492 89.5323 55.5059C89.6661 55.4626 89.7893 55.3918 89.894 55.298C90.1905 55.2678 90.3313 55.617 90.6731 55.5668C91.123 55.499 91.593 55.5668 92.0505 55.5442C93.1538 55.4763 94.2044 55.7727 95.2274 56.0817C95.8985 56.2711 96.5582 56.4993 97.2029 56.765C98.7109 57.4081 100.684 58.6615 101.312 59.5282C101.699 60.0632 102.147 60.5329 102.569 61.0027C104.218 61.2539 105.877 61.4297 107.412 62.0828C109.697 63.0525 111.504 64.6777 113.098 66.524C114.035 67.5893 114.792 68.8 115.34 70.1086C115.918 71.5228 116.476 72.9496 116.569 74.4894C116.589 74.8135 116.956 74.919 116.86 75.2657C116.827 75.5158 116.827 75.7692 116.86 76.0192C117.173 76.3267 117.549 76.5609 117.964 76.705C118.62 76.9185 118.816 77.7098 118.861 78.4107C118.906 79.1115 118.881 79.9178 118.881 80.5734V80.5634ZM92.1887 84.6378C92.2038 85.0699 91.6684 85.4944 91.5101 85.9642C91.4171 86.2405 91.1859 86.3158 91.1281 86.5595C90.452 86.4163 89.8588 86.1701 89.0344 86.2581C90.746 83.9445 91.8268 81.5833 92.0153 78.8377C92.105 78.6847 92.2471 78.5694 92.4153 78.5131C92.5834 78.4567 92.7663 78.4632 92.9301 78.5312C93.8087 78.8378 94.768 78.82 95.6346 78.481C95.6756 78.5115 95.7086 78.5516 95.7308 78.5976C95.753 78.6437 95.7637 78.6945 95.7619 78.7456C95.7602 78.7967 95.7461 78.8466 95.7209 78.8911C95.6956 78.9356 95.66 78.9732 95.6169 79.0009C94.403 80.1841 93.762 81.7641 92.7718 83.098C92.9578 83.7385 92.1636 83.9898 92.1887 84.6479V84.6378ZM43.3686 86.7378C42.7252 86.2932 41.9988 86.5645 41.3227 86.5369C40.6466 86.5092 39.9579 86.5092 39.2416 86.1098C38.4876 84.6202 37.8718 82.8769 36.5447 81.3497C37.6255 81.0733 38.6082 81.518 39.508 80.9729C40.35 81.5531 40.7647 82.5428 41.5313 83.2135C42.2979 83.8842 42.9589 84.6178 43.6677 85.3286C43.909 85.8938 43.5772 86.3259 43.3686 86.7529V86.7378Z" fill="#1D2831"/>
<path d="M65.9563 53.6225C65.8015 53.6774 65.6316 53.6711 65.4813 53.6049C64.6494 53.007 63.722 53.1327 62.792 53.1226C61.8621 53.1126 60.9522 53.1226 60.0273 53.1226C59.1752 53.1226 58.3307 53.0899 57.4938 53.3738C56.3326 53.7556 55.2116 54.15 54.2716 54.9965C53.522 55.6586 52.9953 56.5359 52.7635 57.5085C53.0501 57.6241 52.9068 58.0511 53.2034 58.1466C53.3261 58.1571 53.4497 58.1432 53.5671 58.1056C53.6844 58.0681 53.7932 58.0077 53.887 57.928C54.44 57.4783 54.7692 56.8403 55.3549 56.4032C56.599 55.4738 57.9411 54.896 59.4944 54.896C60.7913 54.8784 62.0882 54.9212 63.3826 54.8785C63.9435 54.8813 64.5006 54.9711 65.0339 55.1447C66.7071 55.5957 68.1827 56.5899 69.2288 57.9707C69.5781 58.4598 70.0291 58.8677 70.5508 59.1664C70.8273 58.7117 71.1214 58.3802 71.1163 57.82C69.9627 55.9285 68.2335 54.6147 65.9563 53.6225Z" fill="#1D2831"/>
<path d="M81.6375 102.217C81.3233 101.463 81.4515 100.674 81.3862 99.9558C81.2228 99.4911 80.8332 99.6267 80.6824 99.5966L79.6544 98.6823C79.5614 98.4838 79.8655 98.1221 79.4232 98.087C79.2196 98.1297 79.1719 97.8986 79.0035 97.8358C78.7119 98.6245 79.3402 99.7498 78.1112 100.245C78.5083 101.483 77.5281 102.541 77.6336 103.761C77.5984 103.797 77.5708 103.847 77.5381 103.852C77.4545 103.858 77.3705 103.858 77.2868 103.852C77.0355 104.739 77.0354 104.739 76.1331 104.982L76.6534 105.234C76.6936 105.829 76.1784 106.052 75.8994 106.419C75.6204 106.786 75.648 107.396 74.9971 107.406C74.8412 107.951 74.3713 108.245 74.0219 108.632C73.8259 108.682 73.6047 108.549 73.386 108.765V109.582C72.348 110.114 71.6895 111.039 70.8726 111.777C70.6339 111.993 70.4755 112.28 70.1337 112.413C69.1158 112.795 68.2964 113.49 67.472 114.171C67.2332 114.367 66.9442 114.631 66.6728 114.638C65.5995 114.668 64.8204 115.244 64.0211 115.849C63.5712 116.191 63.0333 116.424 62.5508 115.849C62.0632 116.47 61.2614 115.827 60.8618 116.482C60.4219 116.015 59.8062 116.354 59.4568 116.11C59.0245 115.811 58.7028 116.48 58.2906 116.048C57.9362 115.673 57.338 116.048 56.8756 115.852L56.4332 115.407H55.8049C56.1869 116.176 56.9686 116.485 57.6321 116.889C58.1018 117.175 58.5385 117.512 58.934 117.894C59.1502 117.954 59.3563 117.831 59.5473 117.999C60.3767 118.728 61.4499 118.934 62.4578 119.127C63.7346 119.378 64.9913 118.926 66.1751 118.451C67.8039 117.822 69.3776 117.06 70.8802 116.171C73.3483 114.663 74.2028 114.076 76.4976 111.669C76.9852 111.815 76.857 111.192 77.2365 111.071C77.5055 110.988 77.6713 110.458 77.973 110.19C78.227 109.913 78.4972 109.651 78.7823 109.406C79.1417 109.155 79.1995 108.73 79.4709 108.424C80.6321 107.115 81.5143 105.608 82.4317 104.133C82.5875 103.882 82.8539 103.608 82.6177 103.066L81.6375 102.217Z" fill="#594466"/>
<path d="M87.715 74.7231H87.0866C86.6694 75.6977 86.7448 76.8608 86.1693 77.7249C85.5937 78.589 85.4353 79.6491 84.7844 80.4881L84.5908 79.958C83.5377 81.3873 82.8315 83.0804 81.0721 83.7837L80.7302 83.4748C80.6976 84.4796 79.6922 84.3012 79.2222 84.7835C77.4829 85.0347 75.8015 85.5848 74.0069 85.5673C72.8249 85.5804 71.6449 85.4641 70.4882 85.2206C69.8039 85.0794 69.136 84.8681 68.4951 84.5901C67.8391 84.2811 67.0072 84.3791 66.4391 83.7862C66.3989 83.7435 66.2758 83.7862 66.1878 83.7862C65.5871 83.7586 65.0643 83.4722 64.4862 83.2838C64.343 83.8465 63.5085 83.9872 63.599 84.7057C64.1017 84.9142 64.5541 85.2533 65.0241 85.2658C65.6474 85.2834 65.9113 86.0194 66.5447 85.8737C66.8111 86.248 67.2309 85.9792 67.5702 86.1249C69.5331 86.9865 71.6669 86.984 73.738 87.3131C74.8162 87.4839 75.8342 86.9966 76.8998 87.0619C76.9702 87.0619 77.0431 87.0041 77.116 86.979C78.34 86.5695 79.6068 86.3133 80.8559 86.0043C80.9514 85.522 81.3134 85.2783 81.6351 85.0297C82.0146 85.1754 82.3112 85.5321 82.6731 85.1854C82.7353 85.1343 82.8073 85.0963 82.8846 85.0738C82.962 85.0514 83.0431 85.0449 83.123 85.0548C83.1831 85.0449 83.2449 85.0527 83.3006 85.0772C83.3564 85.1017 83.4039 85.142 83.4372 85.193C83.4648 85.4768 83.4673 85.7557 83.1858 85.9591C83.6005 86.1274 83.2914 86.5896 83.5503 86.8132H83.9348V86.3811C84.8296 86.2103 85.6791 85.7883 86.6342 85.8084C86.8051 85.8084 86.9685 85.8084 86.9509 86.0596C87.264 85.8867 87.5246 85.6324 87.7049 85.3236C88.5482 84.152 89.2037 82.8561 89.6477 81.4828C90.1127 80.1313 90.2786 78.7372 90.4696 77.3757C89.4894 76.4538 88.7304 75.4616 87.715 74.7231Z" fill="#594466"/>
<path d="M58.5068 99.1017C58.9391 99.0791 59.4016 98.9913 59.9068 99.2048C59.4493 99.9584 59.4191 100.835 58.9743 101.31C58.5043 102.181 59.2055 102.777 59.0673 103.485C58.929 104.194 59.5071 104.799 59.3186 105.419L60.1807 106.364C60.5074 106.427 60.8116 106.258 61.0579 106.469C61.1132 106.61 61.0001 106.814 61.1584 106.831C61.6134 106.655 61.744 106.196 61.5454 106.007C60.8995 105.399 60.9021 104.573 60.701 103.834C60.5298 103.276 60.478 102.687 60.549 102.108C60.62 101.528 60.8122 100.969 61.1132 100.468C61.3846 100.021 61.8672 99.6946 62.1788 99.3705C62.865 99.2198 63.4355 99.5137 64.0739 99.3705C64.7123 99.2274 65.406 99.3379 66.0846 99.3379H68.0426C68.221 99.0716 67.9973 98.7702 68.216 98.6119L68.593 98.534C68.6156 98.1899 68.7212 97.8684 68.5026 97.572C68.299 97.6273 68.0652 97.4765 67.9043 97.6775C67.8276 97.776 67.7168 97.8425 67.5937 97.8639C67.4705 97.8852 67.3438 97.86 67.2383 97.793C66.8286 97.4137 66.341 97.5418 65.9414 97.6096C65.3005 97.7137 64.647 97.7137 64.0061 97.6096C63.1691 97.4966 62.2945 97.685 61.4776 97.2781C60.8543 96.9967 60.6281 96.3361 60.4446 95.7709C60.2435 95.1454 59.9796 94.4848 60.0802 93.7839C60.148 93.3117 60.4195 92.8921 60.3441 92.3797C60.295 92.1107 60.3172 91.8335 60.4085 91.5758C60.4997 91.318 60.6569 91.0885 60.8643 90.9102V89.6316C61.0378 89.5136 61.2439 89.604 61.3394 89.4181L60.6432 89.0765C60.1129 88.9936 59.8741 89.496 59.3865 89.2624C59.2407 90.242 58.6727 91.0032 58.821 91.9201C58.2932 92.7189 58.6827 93.6106 58.5696 94.4521C58.449 95.3489 58.7682 96.1678 59.0849 96.9163L58.6174 97.4338C57.6372 97.0821 56.5262 97.2203 55.4782 96.8611C55.0207 97.3635 54.3094 96.8787 53.7967 97.1877C53.7696 97.3121 53.7678 97.4408 53.7912 97.566C53.8146 97.6912 53.8628 97.8104 53.9331 97.9167C54.0034 98.023 54.0942 98.1142 54.2003 98.1848C54.3064 98.2555 54.4255 98.3042 54.5507 98.3281C55.8577 98.622 57.1169 99.1746 58.5068 99.1017Z" fill="#594466"/>
<path d="M112.469 70.4577C111.891 70.3069 111.675 70.7943 111.346 71.0832C111.346 71.6685 111.346 72.2562 111.346 72.8641C110.881 73.0852 110.873 73.6906 110.454 73.9694C110.175 73.9293 109.875 74.0724 109.632 73.889C109.453 73.2711 108.905 72.7863 109.106 72.108L108.579 71.5806C108.621 71.2631 108.58 70.94 108.46 70.6431C108.34 70.3462 108.144 70.0858 107.892 69.8875C107.623 69.2821 107.993 68.7947 108.144 68.33C108.267 67.9256 108.395 67.6041 108.234 67.2047C108.073 66.8053 107.815 66.338 107.41 66.2175C107.05 66.112 106.955 65.7452 106.482 65.6498C106.168 65.4388 105.869 65.9311 105.477 65.9261C104.723 65.9261 104.22 66.2727 103.909 66.9635C103.597 67.6543 103.341 68.2798 103.745 69.0108C103.802 69.1493 103.831 69.2981 103.828 69.4479C104.462 69.9704 105.085 69.9151 105.638 70.106C106.244 70.3095 106.447 71.0128 107.098 71.043V71.6006C107.621 71.8744 107.618 71.8745 108.355 73.2083C108.568 73.6027 108.749 73.997 108.526 74.4417H106.681C106.143 73.8488 105.507 73.3942 105.173 72.7235C104.733 72.628 104.482 72.9747 104.137 73.0425C104.042 73.3093 104.034 73.5997 104.116 73.871C104.198 74.1423 104.365 74.3802 104.592 74.5497C104.957 74.8009 105.256 75.2028 105.635 75.346C106.515 75.6801 107.412 76.3081 108.377 75.9363C108.945 75.7177 109.488 75.8082 110.009 75.7002C110.175 75.6047 110.104 75.4666 110.134 75.2606C111.182 75.3058 111.713 74.4693 112.396 73.8388V73.2008L112.899 72.8591C112.809 72 113.025 71.1635 112.469 70.4577ZM106.794 68.3451L106.445 68.6943H105.904L104.954 68.001C105.233 67.584 105.64 67.3579 105.66 66.9158C106.191 66.9635 106.294 67.5564 106.794 67.481V68.3451Z" fill="#594466"/>
<path d="M33.3401 67.981C33.1591 67.6393 32.9857 67.2927 32.8123 66.9611C32.0231 66.7626 31.3042 66.2075 30.4472 66.5114C29.6932 67.6695 29.673 67.7674 29.6278 69.3048C28.9014 70.4628 28.1952 71.5907 27.4914 72.7085C27.0993 72.8266 26.8581 72.6005 26.6394 72.3342V71.0305C26.1367 70.9576 26.564 70.4427 26.2574 70.2016H25.4682C25.0535 71.2239 25.0585 71.2214 25.3802 72.299C25.5938 73.0124 25.8552 73.7635 26.3579 74.2634C27.1848 75.0848 28.3686 75.2682 29.4821 75.4742C29.6429 75.5043 29.7912 75.3787 29.9269 75.3536C30.6609 75.2155 31.2917 74.7357 31.9879 74.7106L32.9128 73.8615V73.0401C32.6112 72.917 32.5308 72.505 32.0608 72.4473C31.6285 72.8366 31.259 73.437 30.6206 73.6178C29.9822 73.7987 29.3639 74.2081 28.6702 73.869C28.8708 72.4786 29.5371 71.1973 30.5603 70.2342C31.3344 70.0508 31.9552 70.4477 32.6414 70.6537C32.5609 69.9378 33.2496 69.6489 33.3954 68.8652C33.3778 68.712 33.5261 68.3352 33.3401 67.981Z" fill="#594466"/>
<path d="M59.6277 81.6888C59.6805 81.7365 59.7735 81.7365 59.8489 81.7566C60.0091 81.787 60.1748 81.7531 60.3103 81.6624C60.4457 81.5717 60.54 81.4314 60.5728 81.2717C60.3214 80.0359 60.0475 78.8276 60.055 77.5691C60.055 75.9665 60.5024 74.3865 60.3063 72.7788C60.2711 72.4899 60.6683 72.4171 60.5577 72.1232C60.0399 71.7665 60.5351 71.1008 60.1405 70.6411L59.0245 71.2766C59.0245 71.8066 59.1401 72.3718 58.9994 72.8642C58.7012 73.7757 58.5493 74.7286 58.5495 75.6876C58.562 76.0644 58.6953 76.5342 58.5219 76.798C58.1122 77.436 58.2479 78.1092 58.3334 78.7171C58.4917 79.7997 58.7254 80.9075 59.6277 81.6888Z" fill="#594466"/>
<path d="M77.3169 81.2467C78.742 80.8372 78.7169 79.8575 78.6265 78.8828C78.5309 78.3654 77.983 78.1946 77.792 77.7424H76.0049C75.6883 78.2448 74.9519 78.2976 74.6503 78.9281C74.5966 79.2572 74.6237 79.5944 74.7292 79.9108C74.8347 80.2271 75.0154 80.5131 75.256 80.7443C75.922 81.4074 76.7464 81.2441 77.3169 81.2467Z" fill="#594466"/>
<path d="M48.5561 78.1192C47.4426 77.7927 46.5278 77.642 45.5802 77.7651C45.4118 78.7196 45.0223 79.5661 45.3289 80.4579L45.638 80.7694H47.1737L47.3723 81.3295C47.543 81.1913 47.7419 81.092 47.9551 81.0387C48.1682 80.9853 48.3905 80.9791 48.6063 81.0206L49.4634 80.1665C49.1668 79.3903 49.2045 78.4483 48.5561 78.1192Z" fill="#594466"/>
<path d="M45.995 57.7522C45.9774 57.6366 46.0327 57.501 45.8945 57.4206C45.2259 57.2121 44.6579 57.6366 43.9868 57.7195C44.0094 58.0837 43.6751 58.3073 43.6098 58.5987C43.1724 58.7795 42.705 58.8926 42.4863 59.2844C42.0842 60.0004 41.6091 60.6736 41.2296 61.397C40.9481 61.9421 40.6616 62.5224 40.7043 63.183C40.7043 63.2509 40.644 63.3237 40.6113 63.3941C40.3449 63.4116 40.1086 63.4568 40.2293 63.8211C40.4077 63.9768 40.7169 63.9115 40.835 64.1728C41.021 63.9668 41.0863 63.693 41.2622 63.4694C41.6845 62.967 42.255 62.4948 42.3908 61.8392C42.5943 60.8344 43.5696 60.3546 43.7907 59.4276L44.5447 59.3573C44.6729 58.6665 45.1982 58.1993 45.618 57.707C45.7637 57.6944 45.809 58.0159 45.995 57.7522Z" fill="#594466"/>
<path d="M64.2246 59.39L65.0917 58.5234C64.883 58.2951 64.6241 58.1186 64.3352 58.0079C64.0464 57.8971 63.7357 57.8551 63.4278 57.8853C62.1711 57.9155 60.932 57.8853 59.6854 57.8853C59.5698 58.1591 59.2506 58.0737 59.0998 58.2269C58.9213 58.7544 59.2355 59.1589 59.4265 59.699C60.9949 59.2292 62.6286 59.4528 64.2246 59.39Z" fill="#594466"/>
<path d="M57.3027 84.467L56.6141 83.6833C56.0811 83.844 55.561 84.0447 55.0583 84.2836C54.4023 84.6579 53.779 85.0649 52.9797 85.0222C52.7661 85.4065 52.286 85.1428 52.0171 85.4015C52.1427 85.7255 51.9014 85.9767 51.8286 86.2103L52.1377 86.5193C54.0981 86.7027 55.7218 85.9591 57.1871 84.7609C57.2299 84.7259 57.2629 84.6805 57.2831 84.629C57.3034 84.5776 57.3101 84.5218 57.3027 84.467Z" fill="#594466"/>
<path d="M118.871 78.496C118.826 77.8027 118.619 77.0039 117.973 76.7904C117.559 76.6463 117.183 76.412 116.87 76.1046C116.837 75.8545 116.837 75.6011 116.87 75.351C116.966 75.0044 116.599 74.8989 116.579 74.5748C116.486 73.035 115.928 71.6082 115.349 70.1939C114.802 68.8854 114.045 67.6746 113.108 66.6094C111.514 64.7631 109.707 63.1378 107.422 62.1681C105.887 61.515 104.228 61.3342 102.579 61.088C102.157 60.6108 101.709 60.1485 101.322 59.6135C100.694 58.7393 98.7109 57.4858 97.2129 56.8503C96.5682 56.5846 95.9085 56.3564 95.2373 56.1671C94.2144 55.8581 93.1638 55.5617 92.0604 55.6295C91.603 55.6597 91.133 55.5843 90.6831 55.6521C90.3413 55.7023 90.2005 55.3532 89.9039 55.3834C89.7992 55.4772 89.676 55.548 89.5423 55.5913C89.4085 55.6345 89.2671 55.6493 89.1273 55.6346C88.2551 55.5165 87.5012 55.9033 86.7371 56.2273C86.3802 56.3781 86.061 56.6368 85.694 56.7423C85.1411 56.8981 84.6309 57.31 84.0201 57.094C83.7034 56.8604 83.5928 56.5916 83.6657 56.3705C84.1357 55.5416 85.0179 55.3657 85.4401 54.7076C85.4401 53.7028 85.4401 52.698 85.4401 51.6932C85.4766 51.4496 85.4595 51.2011 85.3899 50.9648C84.9375 50.1057 84.9853 49.1335 84.7113 48.2317C84.3468 47.0385 84.1432 45.7951 83.8643 44.5467C83.3942 44.8129 83.1681 44.2352 82.7684 44.3608C82.5394 45.0613 82.3464 45.7732 82.1904 46.4935C82.0216 47.3771 81.6799 48.2189 81.185 48.9703C81.283 50.058 80.1269 50.4297 79.8529 51.3064C79.1894 51.4169 78.9808 52.1278 78.4152 52.384C77.6034 52.7508 76.784 53.0974 75.942 53.3888C75.5368 53.5606 75.1003 53.6461 74.6602 53.64C73.4036 53.5646 72.1267 53.7631 70.8625 53.414C70.2939 53.2777 69.7348 53.1049 69.1886 52.8965C68.0103 52.3938 66.9459 51.6582 66.0594 50.7337C64.1895 48.8397 63.2721 46.5487 63.0434 43.9514C62.6563 43.351 61.8973 43.7629 61.47 43.2706C61.3267 43.5368 61.1156 43.6022 61.0603 43.8408C60.8793 44.5944 60.6858 45.348 60.4445 46.1016C59.9818 47.429 59.33 48.6828 58.5092 49.8243C57.7828 50.8869 56.7724 51.4797 55.6087 51.8917C55.3514 51.9794 55.0996 52.0826 54.8547 52.2006C54.0468 52.6139 53.1599 52.8503 52.2533 52.894C51.4566 52.894 50.6599 52.8814 49.8656 52.894C49.2599 52.909 48.7296 52.3915 48.0736 52.6905L46.7239 55.6722C46.8521 56.0113 47.2266 56.0867 47.2542 56.5313C46.7516 56.8051 46.46 57.3828 45.5627 56.9608C44.8002 56.5702 43.9794 56.3055 43.1322 56.1771C41.4307 55.9988 39.7769 56.3077 38.1306 56.8026C37.4244 57.0161 36.9066 57.4858 36.2481 57.727C35.3006 58.0736 34.5993 58.7645 33.9861 59.5155C33.5739 60.0179 32.9807 60.5052 33.1793 61.2965C32.7464 61.7762 32.1665 62.0987 31.5305 62.2134C29.7912 62.5311 28.1646 63.2954 26.8103 64.4314C24.9864 65.9762 23.4967 67.8763 22.432 70.0156C21.792 71.3416 21.2664 72.7198 20.8611 74.1352C20.5771 75.0672 20.3459 76.0116 20.0945 76.936C19.1797 77.0767 19.1696 78.0363 18.6167 78.3779V80.6538C19.0515 81.2742 19.2727 82.0856 19.901 82.4122C20.5671 82.7412 20.7933 83.2537 21.022 83.8415C21.6841 85.4849 22.6263 87.0012 23.8068 88.3228C25.345 90.0812 27.0064 91.7592 28.9895 93.0529C29.8691 93.6282 30.7664 94.2586 31.7667 94.5199C32.581 94.7334 33.1189 95.183 33.7121 95.7758C33.511 97.283 33.7121 98.7902 34.735 100.046C35.8133 101.352 37.3389 101.654 38.8972 101.666C39.0908 102.254 38.7791 102.659 38.5856 103.191H36.8161C37.1378 103.731 37.3791 104.023 37.9396 104.196C38.9098 104.475 39.8498 104.759 40.8275 104.6C42.2048 104.226 42.8106 103.226 43.0895 101.769L43.7681 101.28C43.6475 100.541 43.5872 99.8604 43.4163 99.2072C43.2454 98.5541 42.9136 97.9337 42.9991 97.2554C43.0971 96.5395 42.6975 95.9241 42.7176 95.2232C42.7628 93.8014 42.7301 92.3772 42.7327 90.9529C42.7327 90.7017 42.6447 90.3927 42.7603 90.2169C43.2278 89.5135 42.8809 88.8001 42.984 87.9938C41.3327 88.3655 39.8598 87.6019 38.3618 87.8581C38.1105 87.6195 37.9145 87.411 37.7084 87.205C37.7084 86.675 37.4445 86.2304 37.2686 85.7556C36.7837 84.5608 36.1449 83.4342 35.3684 82.4046C34.8481 81.6711 34.2726 80.8975 33.227 80.684C32.762 80.5885 32.3574 80.1816 31.9402 79.9304C31.9402 79.5636 31.4877 79.3099 31.7139 78.8929C31.8622 78.7999 31.9251 78.5513 32.3448 78.5463C32.9983 78.7774 33.8176 79.0235 34.6068 79.3601C35.1838 79.619 35.8011 79.7762 36.4316 79.8248C37.3037 79.8826 38.0728 79.4078 38.9098 79.5736C38.6032 78.4884 38.0678 77.6068 37.9044 76.5216C37.7285 75.2932 37.457 74.085 37.4344 72.8315C37.4344 72.2437 37.8215 71.7765 37.7235 71.1736C37.6637 70.6524 37.7363 70.1246 37.9346 69.6388C38.3468 68.4632 38.5655 67.2097 39.4627 66.2501C39.5034 66.1832 39.5331 66.1103 39.5507 66.0341C39.9629 65.9587 40.3651 65.9135 40.6742 66.333C40.7697 66.5842 40.8225 66.9434 40.6742 67.1419C40.1891 67.7925 40.0156 68.5511 39.807 69.2997C39.523 70.3296 39.1762 71.352 39.2139 72.4422C39.2491 73.4469 39.1334 74.4668 39.4275 75.4891C39.5984 76.082 39.6789 76.7301 39.8749 77.3179C40.3395 78.6888 41.0126 79.98 41.8706 81.1461C42.9162 82.5378 44.1201 83.638 45.706 84.3263C45.8141 84.3715 45.9347 84.369 45.985 84.472V85.1829C45.799 85.4944 45.5401 85.6451 45.4622 86.0344C45.3013 86.8433 44.9369 87.6145 44.9922 88.4686C44.4895 88.9081 44.9721 89.5788 44.7007 89.9757C44.3362 90.5083 44.4895 91.0232 44.5071 91.5281C44.5624 93.0353 44.384 94.5425 44.6906 96.0798C44.9143 97.2026 44.9696 98.3733 45.2335 99.5062C45.5747 101.025 46.0473 102.511 46.646 103.947C48.1214 107.424 50.3181 110.418 52.8641 113.174C53.6182 113.988 54.6235 114.518 55.3322 115.397C55.4655 115.565 55.6439 115.452 55.7998 115.485H56.4281L56.8705 115.929C57.3329 116.115 57.9311 115.751 58.2855 116.125C58.6952 116.557 59.0194 115.889 59.4517 116.188C59.8011 116.439 60.4168 116.093 60.8567 116.56C61.2563 115.904 62.0581 116.56 62.5457 115.927C63.0283 116.495 63.5661 116.261 64.016 115.927C64.8153 115.322 65.5944 114.746 66.6677 114.716C66.9391 114.716 67.2281 114.445 67.4669 114.249C68.2913 113.566 69.1107 112.87 70.1286 112.491C70.4704 112.362 70.6313 112.071 70.8675 111.855C71.6919 111.116 72.3504 110.192 73.3809 109.66V108.843C73.5996 108.627 73.8208 108.76 74.0168 108.71C74.3662 108.323 74.8361 108.029 74.992 107.484C75.6379 107.484 75.6229 106.851 75.8943 106.497C76.1657 106.143 76.691 105.907 76.6483 105.311L76.128 105.06C77.0228 104.809 77.0228 104.809 77.2817 103.93C77.3654 103.936 77.4494 103.936 77.533 103.93C77.5657 103.93 77.5933 103.874 77.6285 103.839C77.523 102.621 78.5032 101.563 78.1061 100.323C79.3351 99.8201 78.7068 98.7023 78.9984 97.9135C79.1743 97.9663 79.2145 98.1974 79.4181 98.1647C79.3628 97.7779 79.589 97.3258 79.1667 97.0193C79.1667 96.2657 79.0008 95.4694 79.2094 94.7811C79.5488 93.5767 80.1495 92.4617 80.9688 91.5155C81.5218 90.8976 81.7882 90.2596 81.6801 89.4633C82.1602 89.2121 82.1828 88.6971 82.5321 88.3982C82.9063 88.0653 83.2613 87.7113 83.5954 87.3382C83.7286 87.195 83.9623 87.1171 83.9548 86.8634H83.5652C83.3138 86.6398 83.6154 86.1776 83.2007 86.0093C83.4747 85.8059 83.4722 85.527 83.4521 85.2432C83.4188 85.1922 83.3713 85.152 83.3156 85.1274C83.2598 85.1029 83.198 85.0951 83.1379 85.105C83.058 85.0951 82.9769 85.1016 82.8995 85.1241C82.8222 85.1465 82.7502 85.1845 82.688 85.2356C82.3261 85.5722 82.0295 85.2356 81.6499 85.0799C81.3282 85.3311 80.9663 85.5823 80.8708 86.0545C79.6141 86.3635 78.3574 86.6197 77.1309 87.0292C77.058 87.0543 76.9851 87.1146 76.9148 87.1121C75.8491 87.0543 74.8311 87.5416 73.7529 87.3633C71.6819 87.0342 69.548 87.0367 67.585 86.1751C67.2457 86.0269 66.831 86.2957 66.5596 85.9239C65.9262 86.0696 65.6623 85.3336 65.039 85.316C64.569 85.316 64.1091 84.9643 63.6139 84.7559C63.5234 84.0374 64.3679 83.8967 64.5011 83.334C65.0792 83.53 65.602 83.8163 66.2027 83.8364C66.2856 83.8364 66.4088 83.8013 66.454 83.8364C67.022 84.4293 67.854 84.3389 68.51 84.6403C69.1509 84.9184 69.8188 85.1297 70.5031 85.2708C71.6598 85.5144 72.8398 85.6306 74.0218 85.6174C75.8164 85.635 77.4979 85.0799 79.2371 84.8337C79.7147 84.3514 80.72 84.5398 80.7452 83.5249L81.0869 83.8339C82.8463 83.1306 83.5475 81.4375 84.6057 80.0082L84.7992 80.5382C85.4502 79.7118 85.606 78.6593 86.1841 77.7751C86.7622 76.8909 86.6868 75.7479 87.1015 74.7733H87.7299C87.3705 74.3111 87.4785 73.8011 87.4961 73.3515C88.0189 73.1304 88.4386 72.8491 88.9388 73.1003C89.728 74.5597 90.3161 75.1475 92.0177 76.1774C92.166 76.2679 94.2195 76.8356 94.4004 76.7803C95.637 76.4136 97.047 76.705 98.1227 75.8182H99.7665V76.7024C98.5475 77.8002 97.5849 79.1315 96.5921 80.4177C95.6722 81.6134 95.0539 83.0301 94.33 84.3715C93.5956 85.7364 92.9776 87.1607 92.4827 88.6293C91.98 88.5137 91.603 88.6846 91.1858 88.4459C90.3941 87.9677 89.4707 87.7539 88.5492 87.8355C88.1312 87.8732 87.7106 87.8732 87.2925 87.8355C85.7317 87.7124 84.5278 88.3881 83.6255 89.5763C83.3742 89.9129 82.9796 90.3299 83.3214 90.8951H84.857C85.2089 91.1664 85.317 91.4452 85.1084 91.8722C84.3192 91.6788 83.6004 92.2917 82.884 92.1234C82.1377 92.6107 81.545 93.2998 81.1749 94.1104C80.7518 94.9234 80.5927 95.848 80.72 96.7556C80.8205 97.1097 81.1548 97.0997 81.3509 97.2052C81.5544 97.4212 81.2805 97.7302 81.6022 97.8935C82.2381 97.0294 82.3361 95.5598 83.8844 95.6528C83.9801 95.8713 84.0115 96.1126 83.975 96.3484C83.9385 96.5842 83.8356 96.8047 83.6783 96.9841C82.8539 97.8055 83.0801 98.9234 82.7106 99.8628C82.6787 100.022 82.6954 100.188 82.7584 100.338C83.0097 101.204 83.3063 101.609 84.0704 102.159C84.1455 102.222 84.213 102.294 84.2714 102.372H85.3597C85.8021 101.164 86.2495 100.044 87.0513 99.1645H87.853C88.0033 99.2477 88.1214 99.3786 88.1887 99.5365C88.2561 99.6944 88.2689 99.8702 88.225 100.036C88.0214 100.24 87.8053 100.438 87.6092 100.654C87.3152 100.978 87.3327 101.481 86.9557 101.802C87.1015 102.418 86.8778 103.058 87.1015 103.724C87.3252 104.389 88.0692 104.415 88.3456 104.924H91.3567C91.6633 104.58 92.1534 104.58 92.4852 104.297C92.4399 104.103 92.5732 103.879 92.3771 103.691L91.5929 103.653C91.1204 103.279 91.1782 102.86 91.3039 102.42H93.4378C95.2952 101.4 96.1572 99.7473 97.0043 97.8985C96.7102 97.3032 97.4466 96.7028 97.2556 95.9994C98.7159 95.3087 100.242 95.1177 101.692 94.6731C102.77 94.3441 103.858 94.0301 104.901 93.6156C106.055 93.1609 107.038 92.3596 108.184 91.8396C108.556 91.6922 108.888 91.4579 109.151 91.1564C109.511 90.6841 110.102 90.5435 110.494 90.1114C110.838 89.7271 111.326 89.4759 111.7 89.1066C112.075 88.7373 112.507 88.3982 112.884 88.0114C113.261 87.6245 113.565 87.1799 113.98 86.8257C114.461 86.4472 114.859 85.9734 115.148 85.4341C115.357 85.0142 115.594 84.6089 115.857 84.2208C116.717 82.9221 118.021 82.0027 118.873 80.6412C118.881 79.9178 118.916 79.2169 118.871 78.496ZM33.3979 68.8701C33.2496 69.6413 32.5609 69.9427 32.6439 70.6586C31.9577 70.4526 31.337 70.0558 30.5628 70.2391C29.5396 71.2022 28.8733 72.4836 28.6728 73.874C29.3765 74.2081 29.9923 73.7961 30.6232 73.6228C31.254 73.4494 31.6285 72.8416 32.0633 72.4522C32.5333 72.51 32.6137 72.9219 32.9153 73.045V73.8664L31.9904 74.7155C31.2942 74.7406 30.6634 75.2178 29.9295 75.3585C29.7937 75.3836 29.6454 75.5093 29.4846 75.4791C28.3636 75.2757 27.1873 75.0898 26.3604 74.2684C25.8577 73.766 25.6064 73.0124 25.3827 72.304C25.061 71.2263 25.056 71.2288 25.4707 70.2065H26.2599C26.5665 70.4577 26.1317 70.9601 26.6419 71.0354V72.3392C26.8606 72.6055 27.1019 72.8416 27.4939 72.7135C28.1977 71.5956 28.904 70.4677 29.6303 69.3097C29.6756 67.7624 29.7007 67.6744 30.4497 66.5164C31.3042 66.2024 32.0256 66.7676 32.8148 66.966C32.9883 67.2976 33.1616 67.6443 33.3426 67.9859C33.5236 68.3275 33.3778 68.7119 33.3979 68.8701ZM43.7958 59.4276C43.5746 60.3545 42.5994 60.8419 42.3958 61.8391C42.2601 62.4947 41.6896 62.9595 41.2673 63.4694C41.0839 63.693 41.016 63.9718 40.8401 64.1728C40.7219 63.9216 40.4128 63.9768 40.2344 63.821C40.1137 63.4568 40.35 63.4116 40.6164 63.394C40.6491 63.3237 40.7119 63.2508 40.7094 63.183C40.6666 62.5223 40.9607 61.9421 41.2347 61.397C41.6092 60.6736 42.0842 60.0003 42.4914 59.2844C42.71 58.8925 43.1775 58.782 43.6149 58.5986C43.6802 58.3072 44.0145 58.0837 43.9919 57.7194C44.6629 57.6366 45.2309 57.2171 45.8995 57.4205C46.0377 57.5009 45.9825 57.6366 46.0001 57.7521C45.8141 58.0033 45.7688 57.6944 45.6231 57.7069C45.2033 58.2093 44.678 58.6665 44.5498 59.3573L43.7958 59.4276ZM48.5989 81.0306C48.3831 80.9891 48.1609 80.9953 47.9477 81.0487C47.7345 81.102 47.5356 81.2013 47.3648 81.3395L47.1662 80.7794H45.6306L45.3215 80.4679C45.0224 79.5761 45.4119 78.7296 45.5728 77.7751C46.5203 77.652 47.4352 77.8027 48.5486 78.1292C49.1971 78.4583 49.1594 79.4003 49.4484 80.1765L48.5989 81.0306ZM52.1377 86.5293L51.8286 86.2203C51.9015 85.9867 52.1428 85.7355 52.0171 85.4114C52.286 85.1602 52.7711 85.4114 52.9798 85.0321C53.779 85.0748 54.4023 84.6679 55.0583 84.2936C55.5611 84.0547 56.0811 83.854 56.6141 83.6933L57.3028 84.477C57.3106 84.5322 57.3041 84.5884 57.2839 84.6404C57.2636 84.6923 57.2303 84.7382 57.1872 84.7735C55.7219 85.9591 54.0982 86.7026 52.1478 86.5193L52.1377 86.5293ZM63.9909 97.6171C64.6318 97.7212 65.2853 97.7212 65.9262 97.6171C66.3259 97.5443 66.8134 97.4212 67.2231 97.8005C67.3286 97.8675 67.4553 97.8927 67.5785 97.8713C67.7016 97.85 67.8124 97.7835 67.8891 97.685C68.05 97.484 68.2838 97.6348 68.4874 97.5795C68.706 97.8759 68.6005 98.1974 68.5779 98.5415L68.2009 98.6194C67.9822 98.7777 68.2008 99.0791 68.0274 99.3454H66.0694C65.3984 99.3454 64.7047 99.2349 64.0587 99.378C63.4128 99.5212 62.8498 99.2248 62.1637 99.378C61.842 99.7021 61.3695 100.029 61.098 100.476C60.7994 100.976 60.6091 101.534 60.5394 102.112C60.4697 102.691 60.5221 103.277 60.6933 103.834C60.8944 104.573 60.8919 105.399 61.5379 106.007C61.7364 106.196 61.6057 106.655 61.1508 106.831C60.9924 106.813 61.1055 106.61 61.0502 106.469C60.7989 106.258 60.4998 106.427 60.173 106.364L59.311 105.419C59.507 104.799 58.934 104.178 59.0596 103.485C59.1853 102.792 58.4966 102.181 58.9666 101.31C59.4115 100.835 59.4417 99.9608 59.8991 99.2047C59.3964 98.9912 58.9314 99.0791 58.4991 99.1017C57.1092 99.1745 55.85 98.6219 54.5431 98.318C54.4179 98.2941 54.2988 98.2454 54.1927 98.1747C54.0866 98.1041 53.9957 98.013 53.9255 97.9067C53.8552 97.8004 53.807 97.6811 53.7835 97.5559C53.7601 97.4307 53.762 97.302 53.7891 97.1775C54.2917 96.8686 55.0131 97.3484 55.4705 96.851C56.5186 97.2102 57.6295 97.072 58.6097 97.4237L59.0772 96.9062C58.7605 96.1526 58.4413 95.3388 58.562 94.442C58.6726 93.6005 58.283 92.7088 58.8133 91.9099C58.665 90.9931 59.2331 90.2319 59.3788 89.2523C59.8614 89.4859 60.1002 88.9835 60.6355 89.0664L61.3317 89.408C61.2362 89.5939 61.0301 89.5034 60.8567 89.6215V90.9001C60.6492 91.0784 60.4921 91.3079 60.4008 91.5657C60.3095 91.8234 60.2874 92.1006 60.3364 92.3697C60.4118 92.8721 60.1404 93.3016 60.0725 93.7738C59.972 94.4747 60.2359 95.1353 60.437 95.7608C60.6204 96.3336 60.8467 96.9942 61.47 97.268C62.2793 97.6825 63.154 97.494 63.9909 97.6071V97.6171ZM58.5569 75.7002C58.5568 74.7412 58.7087 73.7882 59.0069 72.8767C59.1476 72.3743 59.0319 71.8192 59.0319 71.2891L60.1479 70.6536C60.5425 71.1133 60.0474 71.779 60.5651 72.1357C60.6732 72.4296 60.2761 72.5024 60.3138 72.7913C60.5048 74.399 60.0625 75.979 60.0625 77.5816C60.0625 78.8376 60.3289 80.0484 60.5802 81.2843C60.5475 81.4439 60.4532 81.5842 60.3177 81.6749C60.1823 81.7657 60.0165 81.7995 59.8563 81.7691C59.7809 81.749 59.688 81.749 59.6352 81.7013C58.7329 80.92 58.4991 79.8123 58.3483 78.7296C58.2629 78.1217 58.1271 77.4485 58.5368 76.8104C58.7027 76.5341 58.5695 76.0644 58.5569 75.7002ZM64.2247 59.4025C62.6287 59.4653 60.9949 59.2417 59.4266 59.719C59.2355 59.1789 58.9239 58.7745 59.0998 58.247C59.2506 58.0938 59.5698 58.1791 59.6855 57.9053C60.9422 57.9053 62.1812 57.9279 63.4279 57.9053C63.7357 57.8752 64.0465 57.9171 64.3353 58.0279C64.6241 58.1386 64.8831 58.3151 65.0918 58.5434L64.2247 59.4025ZM70.5659 59.1663C70.0442 58.8676 69.5932 58.4598 69.2439 57.9706C68.1978 56.5898 66.7222 55.5957 65.049 55.1447C64.5157 54.9711 63.9586 54.8813 63.3977 54.8785C62.1033 54.9212 60.8064 54.8784 59.5095 54.896C57.9563 54.9161 56.6141 55.4838 55.37 56.4032C54.7844 56.8403 54.4551 57.4783 53.9021 57.928C53.8083 58.0077 53.6995 58.0681 53.5822 58.1056C53.4649 58.1431 53.3413 58.157 53.2185 58.1465C52.9219 58.0511 53.0652 57.624 52.7787 57.5085C53.0105 56.5359 53.5371 55.6586 54.2867 54.9965C55.2267 54.15 56.3477 53.7556 57.5089 53.3738C58.3458 53.1025 59.1903 53.1377 60.0423 53.1226C60.9597 53.1226 61.8796 53.1226 62.8071 53.1226C63.7345 53.1226 64.6645 53.007 65.4964 53.6049C65.6467 53.6711 65.8167 53.6774 65.9714 53.6225C68.2486 54.6147 69.9778 55.9284 71.1465 57.8074C71.1365 58.3676 70.8424 58.6991 70.5659 59.1538V59.1663ZM77.3169 81.2591C76.7463 81.2591 75.9219 81.4199 75.2559 80.7567C75.0154 80.5256 74.8346 80.2397 74.7291 79.9233C74.6236 79.607 74.5965 79.2697 74.6502 78.9406C74.9518 78.3101 75.6882 78.2624 76.0049 77.755H77.7919C77.9829 78.2071 78.5309 78.3779 78.6264 78.8954C78.7169 79.8575 78.7419 80.8372 77.3169 81.2466V81.2591ZM112.854 72.8767L112.351 73.2184V73.8564C111.68 74.4869 111.15 75.3234 110.089 75.2782C110.059 75.4842 110.129 75.6223 109.963 75.7178C109.443 75.8258 108.9 75.7353 108.332 75.9539C107.367 76.3257 106.47 75.7027 105.59 75.3635C105.21 75.2204 104.911 74.8235 104.547 74.5673C104.32 74.3978 104.153 74.1599 104.071 73.8886C103.989 73.6173 103.996 73.3269 104.092 73.0601C104.436 72.9973 104.688 72.6456 105.128 72.7411C105.469 73.4118 106.105 73.8664 106.636 74.4593H108.48C108.704 74.0147 108.523 73.6202 108.309 73.2259C107.583 71.892 107.586 71.892 107.053 71.6182V71.0606C106.402 71.0304 106.198 70.3271 105.592 70.1236C105.029 69.9327 104.416 69.9879 103.783 69.4654C103.785 69.3156 103.757 69.1669 103.7 69.0284C103.295 68.2974 103.557 67.6518 103.863 66.9811C104.17 66.3104 104.668 65.9361 105.432 65.9436C105.829 65.9436 106.128 65.4564 106.437 65.6674C106.91 65.7628 107.005 66.1296 107.364 66.2351C107.769 66.3556 108.025 66.7927 108.189 67.2223C108.352 67.6518 108.222 67.9432 108.098 68.3476C107.955 68.8123 107.596 69.2996 107.847 69.905C108.099 70.1034 108.294 70.3638 108.415 70.6607C108.535 70.9576 108.576 71.2806 108.533 71.5981L109.061 72.1256C108.86 72.8039 109.408 73.2887 109.586 73.9067C109.838 74.09 110.129 73.9468 110.408 73.9895C110.828 73.7082 110.835 73.1028 111.3 72.8817V71.1007C111.632 70.8119 111.848 70.3245 112.426 70.4753C113.025 71.1635 112.808 72 112.854 72.8641V72.8767Z" fill="#78498E"/>
<path d="M48.8327 39.0254C49.9587 39.1636 51.0495 38.9877 52.163 39.254C53.1533 39.4901 54.2491 39.3696 55.2896 39.2842C56.3704 39.1937 57.3908 39.5957 58.4515 39.5504C61.0101 39.4349 63.5662 39.6057 66.1399 39.362C68.9624 39.1108 71.8278 39.2691 74.6729 39.3369C75.1128 39.3495 75.6229 39.1334 75.9547 39.3369C76.4775 39.6534 76.9877 39.5253 77.5029 39.5479C78.2972 39.5806 79.094 39.5479 79.8882 39.5629C80.1596 39.5629 80.431 39.475 80.715 39.6936C81.0569 39.9573 81.5394 39.6936 81.9114 39.8267C82.3312 39.9749 82.7107 40.1859 83.2159 39.9649C82.8691 36.8626 82.2407 33.8507 80.8307 31.0449C79.1697 30.9556 77.5337 30.6011 75.9849 29.9949C74.4366 29.4196 73.1095 28.4223 71.7975 27.4452C71.2949 28.1511 71.3175 28.9926 70.8676 29.6532C70.4177 30.3139 70.3222 31.0951 69.817 31.7331C69.3118 32.3712 68.8921 33.1273 68.2964 33.7427C67.7055 34.3075 67.0738 34.8281 66.4063 35.3001C65.9866 35.2424 65.5769 35.3001 65.1295 35.0489C63.5134 34.1823 61.9727 33.2403 60.6255 31.9693C59.6766 31.0224 58.8268 29.9813 58.0895 28.862C57.9705 28.6531 57.8388 28.4517 57.695 28.2591C57.2802 28.6936 56.6896 28.8997 56.295 29.3644C55.4379 30.3516 54.1913 30.7962 53.0452 31.1956C51.8788 31.5624 50.6932 31.8651 49.4937 32.1024C49.642 33.0243 49.0539 33.8608 49.2575 34.7701C49.2575 34.8103 49.2776 34.8681 49.2575 34.8932C48.7372 35.5187 49.1092 36.2497 49.0061 36.9254C48.9031 37.6011 48.5563 38.2442 48.8327 39.0254Z" fill="#78498E"/>
<path d="M84.7439 86.6198C85.2114 86.1425 85.9479 86.4087 86.4757 86.0395C86.5838 85.9616 86.7949 86.0395 86.9608 86.0395C86.9784 85.7883 86.815 85.7883 86.6441 85.7883C85.689 85.7682 84.8395 86.1902 83.9447 86.361V86.7931C84.2111 86.7529 84.4976 86.8735 84.7439 86.6198Z" fill="#78498E"/>
<path d="M105.655 66.9083C105.635 67.3504 105.228 67.5765 104.949 67.9935L105.899 68.6868H106.44L106.789 68.3376V67.4735C106.289 67.5564 106.186 66.9636 105.655 66.9083Z" fill="#78498E"/>
</svg>
