<svg width="129" height="129" viewBox="0 0 129 129" fill="none" xmlns="http://www.w3.org/2000/svg">
<path d="M128.686 0.00457764H0V128.618H128.686V0.00457764Z" fill="#FEBA9D"/>
<path d="M58.7004 123.747C56.8631 123.245 54.9605 123.245 53.0905 123.044C45.3216 122.227 37.7438 120.449 30.1684 118.653C28.6316 118.319 27.132 117.833 25.6921 117.201C27.6701 116.354 29.5049 115.312 31.0054 113.712C35.2178 109.218 37.9901 103.897 40.0762 98.1725C40.1993 97.8359 40.227 97.5445 39.8977 97.3159C40.5688 96.1403 41.1796 94.9446 41.2424 93.5479C40.3451 93.2465 39.8148 93.6108 39.483 94.2739C38.7868 95.6631 37.7236 96.7432 36.6504 97.8359C35.8587 97.851 35.1851 98.2353 34.4864 98.5418C30.465 100.3 26.343 101.034 22.0652 99.4863C21.4419 99.2602 21.1478 99.421 21.0926 100.064C19.7403 99.3255 18.6897 98.2454 17.6869 97.1074C18.5641 97.1074 19.009 96.1026 19.8987 96.1252C21.2408 96.173 22.1331 94.9597 23.4174 94.8692C27.1548 94.3091 29.3993 91.7218 31.493 88.9284C31.601 89.5137 31.973 89.2877 32.3199 89.2098C34.8609 88.6471 37.407 88.107 39.9455 87.5343C41.4661 87.1901 43.0043 86.7054 43.8714 88.6421C43.9946 89.1445 44.2459 89.5514 44.824 89.6343C45.2035 90.305 45.8595 90.3402 46.611 90.4959C46.3345 89.9558 45.7037 90.0438 45.6056 89.5439C48.202 90.4532 50.2001 88.9209 52.427 87.7403V91.0235C52.0927 91.0008 51.859 91.1289 51.9972 91.4856C52.2309 92.086 52.3164 92.7743 52.8844 93.2089L53.1358 93.4601L53.3871 93.7113L53.6384 93.9625L53.8898 94.2136C53.8898 94.8115 54.2592 95.0501 54.7745 95.1255C55.149 95.1807 55.1012 94.8969 55.1012 94.6633C56.0865 95.1054 57.0416 94.9723 58.0218 94.598C60.0601 93.8193 61.6335 92.3899 63.217 90.9129C63.8755 92.4427 64.3656 93.9775 65.3584 95.2687C67.1429 97.5922 69.3345 97.9364 71.7977 96.3463C73.3535 95.3415 74.1904 93.8142 75.0198 92.1287C76.1886 93.563 77.5785 94.5628 78.9181 95.6228C78.237 95.9318 78.3978 96.2734 78.9357 96.5096C80.4111 97.1602 81.9291 97.6852 83.5779 97.5671C84.1805 97.5589 84.7692 97.3851 85.2795 97.0647C84.7014 96.8135 84.3747 97.0848 84.0228 97.0647C82.8264 97.0371 81.5421 97.4265 80.5619 96.3539C84.8673 97.1074 86.0209 96.6176 87.348 93.4902C87.6647 93.7414 87.1922 94.186 87.627 94.4648C88.0116 93.6459 87.8205 92.8145 87.8381 92.0081C89.4517 92.4276 90.1806 93.5153 90.4646 95.128C91.3395 99.9661 91.1066 104.94 89.7835 109.675C88.851 113.023 87.3053 116.105 84.9176 118.7C81.0846 121.82 76.5329 122.878 71.7549 123.28C70.7119 123.368 69.6688 123.405 68.6735 123.782L58.7004 123.747ZM85.8752 96.6176L86.1064 96.3664L85.8551 96.5975L85.8073 96.6704L85.8752 96.6176ZM77.1311 94.9095L77.0833 94.8592L77.1336 94.907C77.2015 95.1582 77.2191 95.4721 77.6363 95.4545C77.6865 95.0627 77.3246 95.0652 77.1311 94.917V94.9095ZM72.793 105.354C72.1973 107.364 72.6723 109.024 74.0949 110.127C74.7036 110.631 75.4546 110.933 76.243 110.99C77.0315 111.047 77.8182 110.857 78.4933 110.446C79.7224 109.745 80.5543 108.153 80.3734 106.819C78.8176 106.909 78.0485 108.914 76.2715 108.487C74.5649 108.095 73.929 106.532 72.793 105.362V105.354ZM58.7934 106.919C57.6222 108.399 57.5493 109.22 58.3913 110.403C59.4318 111.863 61.5028 112.473 63.2622 111.838C65.0216 111.202 65.7957 110.16 65.6474 108.406C62.9329 110.079 60.3391 110.926 58.7934 106.927V106.919Z" fill="#E48401"/>
<path d="M17.6843 97.1075C15.356 94.7073 13.6809 91.7515 12.8184 88.5215C11.6447 84.2687 11.4587 80.016 12.8611 75.8059C13.6378 73.4849 14.515 71.1663 16.4025 69.4281C16.9303 68.9432 16.9278 68.0891 17.531 67.6269C20.8512 65.0823 24.3599 62.922 28.5573 62.1006C29.3339 61.9499 29.359 62.3995 29.3867 62.9044C29.5048 65.0547 28.3537 66.6724 27.1925 68.3303C25.4959 70.7569 23.3395 72.671 21.0598 74.5323C20.0871 75.3286 18.9963 76.3309 18.7676 77.9135C19.7931 77.828 20.4139 77.1599 21.09 76.67C23.3961 75.0581 25.8612 73.6861 28.4467 72.5755C29.8165 71.9777 31.2265 72.2364 32.5938 71.945C33.0361 71.8521 33.2196 72.3419 33.2422 72.7941C33.2696 73.4847 33.1015 74.1691 32.7571 74.7685C31.2717 77.4939 29.4168 79.8854 26.7727 81.6362C25.7674 82.2994 25.0134 83.3192 24.0834 84.0904C22.8669 85.0952 21.57 86.0096 20.1852 87.0696C21.6932 87.3208 22.7865 86.5848 23.91 86.0799C25.0335 85.575 26.1168 84.9043 27.2629 84.412C28.2406 83.9925 29.4596 83.676 30.2287 84.4949C30.9978 85.3138 30.2287 86.3085 29.8466 87.1776C29.1077 88.8833 27.9842 90.3578 26.8909 91.8298C26.1369 92.8346 24.654 93.0255 23.9301 94.1484C23.7718 94.3996 23.3068 94.4247 23.4123 94.8668C22.1179 94.9572 21.2257 96.1705 19.8936 96.1227L19.8584 96.0801L19.8986 96.1178C19.0064 96.1077 18.5615 97.0949 17.6843 97.1075Z" fill="#F0A526"/>
<path d="M72.793 105.362C73.929 106.532 74.5649 108.095 76.2715 108.507C78.0485 108.934 78.8176 106.929 80.3734 106.839C80.5543 108.173 79.7224 109.765 78.4933 110.466C77.8182 110.877 77.0315 111.067 76.2431 111.01C75.4546 110.953 74.7036 110.651 74.0949 110.147C72.6723 109.024 72.1973 107.379 72.793 105.362Z" fill="#AF5F09"/>
<path d="M58.7933 106.927C60.339 110.926 62.9328 110.079 65.6473 108.414C65.7956 110.172 65.0189 111.212 63.2621 111.845C61.5052 112.478 59.4317 111.87 58.3911 110.411C57.5567 109.228 57.622 108.406 58.7933 106.927Z" fill="#AF5F09"/>
<path d="M80.5292 96.3312C81.5094 97.4039 82.7912 97.0145 83.9901 97.0422C84.3395 97.0422 84.6662 96.7759 85.2468 97.0422C84.7365 97.3625 84.1478 97.5364 83.5452 97.5445C81.8964 97.6626 80.3784 97.1376 78.903 96.487C78.3651 96.2509 78.2043 95.9093 78.8854 95.6003L78.8427 95.6154C79.2272 96.2836 79.848 96.3991 80.5468 96.369L80.5292 96.3312Z" fill="#E48401"/>
<path d="M87.3178 93.4676C87.3328 93.033 87.3379 92.5984 87.3605 92.1639C87.3806 91.8097 87.5415 91.7544 87.8079 91.9855C87.7903 92.7919 87.9813 93.6233 87.5968 94.4422C87.1619 94.1634 87.6345 93.7138 87.3178 93.4676Z" fill="#E48401"/>
<path d="M77.1309 94.917C77.3245 95.0652 77.6864 95.0627 77.6336 95.4621C77.2239 95.4797 77.2063 95.1757 77.1309 94.9145V94.917Z" fill="#E48401"/>
<path d="M77.1334 94.9142L77.0833 94.8667L77.1308 94.9167L77.1334 94.9142Z" fill="#AF5F09"/>
<path d="M85.8476 96.6001L86.099 96.369L85.8678 96.6202L85.8476 96.6001Z" fill="#E48401"/>
<path d="M85.8746 96.625L85.7997 96.6724L85.8472 96.6L85.8746 96.625Z" fill="#E48401"/>
<path d="M53.6107 93.9524L53.3594 93.7012L53.6484 93.6585L53.6032 93.9449L53.6107 93.9524Z" fill="#AF5F09"/>
<path d="M42.798 77.4185C42.835 76.8965 42.8291 76.3722 42.7804 75.8511C42.4814 74.0399 42.8156 72.5679 44.3312 71.2768C46.2288 69.6616 46.8019 67.22 47.5132 64.9542C49.2725 59.3148 49.1268 53.4593 49.2223 47.6441C49.2657 43.2092 50.4469 38.8597 52.653 35.0115C55.7797 29.5479 60.4948 26.4707 66.7833 25.9382C69.7793 25.687 72.3907 26.7697 74.6804 28.6637C75.2613 29.1004 75.8144 29.5727 76.3367 30.0779C77.4702 31.2811 79.5865 30.9672 80.0616 28.9149C80.2073 28.2794 80.2802 27.576 80.7829 26.9932C82.0358 27.5518 83.1821 28.3236 84.1709 29.2741C82.3311 30.3894 81.9793 30.7536 81.6224 31.889C81.9491 32.2432 82.2985 32.1578 82.7157 32.0222C86.056 30.9219 87.4283 31.56 89.0318 35.0642C86.1339 34.4136 83.7537 35.1998 81.8762 37.3702C79.9987 39.5405 79.8806 42.1128 80.0339 44.783C79.0436 45.3758 77.6437 45.1221 77.0379 46.4133C76.852 44.8609 76.9801 43.3487 76.671 41.8591C76.3766 40.276 75.7792 38.7646 74.9116 37.4078C72.7149 34.1197 68.8267 33.4414 65.3607 35.6696C64.8807 35.9785 64.4232 36.8 63.8527 36.4232C63.1339 35.9459 62.3623 35.4183 61.9878 34.514C61.4449 33.2003 61.1709 31.8262 60.8919 30.4472C60.8678 30.1238 60.7547 29.8135 60.5652 29.5504C58.7656 32.0624 59.5749 35.7424 62.5432 38.3423L61.7188 39.2843C59.0421 38.2444 57.9211 35.8203 56.393 33.4867C56.0637 35.3933 56.2849 36.9331 57.147 38.5483C58.0091 40.1635 59.4518 40.8945 60.902 41.7435C59.7458 42.678 57.5717 41.8214 54.4174 39.2818C54.3295 42.0952 56.1994 43.8033 60.5828 44.8458C60.2988 45.7099 59.4568 45.7677 58.8234 46.0792C58.2478 46.363 57.5064 46.4987 57.8457 47.408C58.1624 48.252 58.8511 48.2872 59.5925 48.1114C59.9394 48.0285 60.2762 47.8426 60.6758 47.9807C61.1156 48.9303 61.4801 49.9426 62.0255 50.8469C62.9642 52.42 64.3977 53.6381 66.1022 54.3109C67.7635 54.9992 67.8063 54.9113 66.9844 56.5717C65.8207 58.9455 66.3183 61.1259 67.9897 63.0425C68.2608 63.3348 68.4607 63.6857 68.574 64.0677C68.6874 64.4498 68.711 64.8528 68.6432 65.2455C68.2763 68.1921 68.0526 71.1964 68.7287 74.0651C69.4827 77.2704 70.3071 80.6741 73.8862 82.1335C77.513 83.6106 80.3305 81.6965 81.0569 77.7024C81.3258 76.2179 80.9061 74.7684 81.0317 73.3014L81.0166 73.3391C81.8536 73.422 82.6931 73.5552 83.53 73.5728C84.7541 73.6029 86.0107 73.7888 87.2825 72.8694C87.2096 76.5319 87.9913 79.7547 88.9841 82.9449C89.2269 83.6902 89.5866 84.3922 90.0498 85.0248C90.8566 86.1753 91.6684 87.3283 92.1736 88.6471C92.4752 89.4383 92.7667 90.3376 91.9474 90.9857C91.1934 91.5861 90.4092 91.1565 89.7054 90.7345C88.3381 89.9156 87.2624 88.7601 86.1465 87.6523C85.674 87.1851 85.2517 86.6476 84.5304 86.4165C84.1559 87.2127 84.4675 87.9061 84.744 88.5165C85.5483 90.2899 85.6639 92.0031 84.744 93.7916C84.5153 94.2413 84.2413 94.5754 83.8216 94.608C82.3683 94.7489 80.9087 94.4119 79.6644 93.6484C77.0028 92.0684 75.8944 89.3957 74.2858 86.9842C74.1124 87.6046 73.7831 88.0769 73.7404 88.7677C73.6327 90.6159 72.927 92.3791 71.7297 93.7916C70.4328 95.3164 68.6005 95.864 66.9668 94.0051C65.7101 92.5658 65.225 90.7747 64.7701 88.9812C64.5037 87.9312 64.28 86.8711 63.9935 85.6327C63.2394 86.8158 62.5709 87.8709 61.8747 88.8983C60.6934 90.6566 58.9591 91.7318 57.1143 92.6286C56.4784 92.9375 55.6339 92.8798 55.2745 92.1839C54.5456 90.7647 53.8067 89.3931 54.2692 87.5895C54.8146 85.4619 55.5837 83.392 56.0662 81.0584C55.0759 81.8402 54.1808 82.7356 53.3995 83.7261C51.9116 85.4845 50.1673 86.8736 47.9052 87.4941C46.5606 87.8608 45.8166 87.3182 45.7739 85.904C45.7261 84.2235 46.4601 82.7917 47.3498 81.4227C48.1038 80.2496 49.0086 79.1619 49.3153 77.7351C49.3745 77.5546 49.3963 77.364 49.3795 77.1749C49.3626 76.9857 49.3074 76.802 49.2172 76.6348C47.4143 78.5872 45.0384 79.9178 42.4311 80.4354L42.7427 78.7097C43.4138 78.3078 43.3962 77.8757 42.798 77.4185ZM63.2269 33.1626C66.2178 31.5751 69.0529 30.3417 72.1494 32.2458C72.2876 31.0476 70.8751 29.5178 69.5179 29.2766C66.7079 28.7843 64.0663 30.3015 63.2269 33.1626Z" fill="#F0A526"/>
<path d="M29.4773 81.9954C31.1939 80.5586 32.7597 79.0363 33.7173 77.0569C34.5392 75.3613 35.8487 73.7486 35.0444 71.616C34.5417 70.2721 33.7199 69.7646 32.2646 69.8776C30.9126 69.9991 29.5696 70.2047 28.2432 70.4931C29.0651 69.2095 29.7738 68.1595 30.3946 67.0567C31.3497 65.3586 31.4 63.5852 31.2643 61.7816C31.1713 60.4854 29.8719 59.772 28.2859 60.1338C23.9201 61.1159 19.9414 62.8668 16.5986 66.2102C16.0608 65.0446 16.096 63.854 16.0683 62.7588C15.9075 58.0865 15.4601 53.4368 15.063 48.7821C14.7689 45.2905 16.0683 44.0094 19.5996 43.7582C22.9751 43.507 26.3481 43.0875 29.6833 42.5022C33.8707 41.7737 35.7884 43.3738 36.1176 47.5261C36.4444 51.6206 36.6002 55.7277 36.8993 59.8348C37.1154 62.8039 37.4698 65.7656 37.7111 68.7347C37.9348 71.4979 38.4651 74.246 38.3571 77.0418C38.3168 78.1873 37.7614 79.2222 37.7966 80.3727C37.7966 80.7846 37.4497 81.0132 37.0677 81.071C34.5593 81.4277 32.0736 81.9477 29.4773 81.9954ZM21.6154 51.1409C21.447 50.4677 21.3238 49.6211 21.0147 48.8474C20.7382 48.1541 20.3536 47.4633 19.4061 47.4231C18.3857 47.3779 17.6115 47.7045 17.0837 48.6113C16.6376 49.356 16.3732 50.1953 16.3121 51.0612C16.251 51.927 16.3948 52.7951 16.7319 53.5951C17.4482 55.4112 19.4966 55.5871 20.6728 54.012C21.261 53.2107 21.457 52.2662 21.6154 51.1409Z" fill="#273040"/>
<path d="M80.5089 15.4683C81.0518 17.4352 80.8508 19.3719 80.3431 21.3137C79.6723 23.7701 78.8325 26.1773 77.8297 28.518C77.3044 28.0985 76.8545 27.7845 76.4574 27.4153C74.2773 25.4054 71.5268 24.1213 68.5854 23.7402C66.5596 23.4463 64.5238 24.0115 62.591 24.6847C60.9892 25.2066 59.4441 25.8883 57.9789 26.7194C55.1438 28.3974 50.572 26.006 49.6847 23.7629C48.7296 21.3388 50.0115 19.2815 52.5751 19.3342C53.7524 19.3424 54.9037 19.681 55.8978 20.3114C56.3201 20.5802 56.6921 20.9971 57.3858 20.972C57.0967 20.329 56.6142 19.9296 56.1919 19.49C54.797 18.0305 53.7036 16.3927 53.4875 14.3379C53.3166 12.7152 53.5277 11.1125 55.081 10.1831C56.6343 9.25368 58.1297 9.82643 59.4568 10.8312C61.3092 12.2329 62.5885 14.137 63.8904 16.0209C64.1418 16.4002 64.2448 16.9252 64.8606 17.1563C65.2451 16.2269 64.8053 15.3979 64.559 14.6167C64.2649 13.6571 63.805 12.7503 63.4732 11.7983C63.3018 11.3177 63.2397 10.8051 63.2915 10.2975C63.3432 9.79001 63.5074 9.30041 63.7722 8.86426C64.0369 8.42811 64.3956 8.05638 64.8221 7.77613C65.2487 7.49588 65.7323 7.31414 66.2379 7.24411C66.2806 7.78418 66.6501 8.13084 67.0497 8.37953C68.9096 9.53503 70.1739 11.2306 71.3577 13.0066C71.6342 13.4236 71.9132 13.8079 72.4937 13.7375C73.2779 15.4959 72.9964 17.4754 73.6348 19.2991C74.4366 17.9677 74.7382 16.5208 74.9242 15.0513C75.1102 13.5818 75.4922 12.3132 76.9349 11.6099C78.5058 14.2475 79.6594 17.0332 79.7172 20.3365C80.2023 19.8994 80.1797 19.5553 80.2928 19.2639C80.7829 18.0179 80.2174 16.7218 80.5089 15.4683Z" fill="#CE4532"/>
<path d="M106.317 99.6722C105.666 98.8156 104.962 97.9917 104.369 97.0949C103.2 95.3365 102.984 93.3671 103.235 91.2998C103.316 90.619 103.673 90.2171 104.241 90.1568C104.897 90.089 105.532 89.8453 106.239 90.4859C107.551 91.669 108.865 92.8597 110.237 94.2262C110.615 93.0607 110.119 92.3447 109.652 91.6866C108.066 89.466 106.384 87.3107 104.839 85.0675C104.233 84.1266 103.727 83.1247 103.331 82.0783C102.856 80.9278 103.6 79.9582 104.816 80.2546C106.756 80.6945 108.584 81.531 110.185 82.7113C111.316 83.5604 112.386 84.53 113.726 85.3288C113.824 84.1431 113.03 83.49 112.502 82.8872C111.338 81.5583 110.069 80.2396 108.606 79.2725C107.216 78.3754 106.2 77.0042 105.746 75.414C105.437 74.4218 104.909 73.2537 105.764 72.4524C106.518 71.744 107.636 72.2364 108.634 72.3771C111.248 72.7438 113.321 74.1505 115.375 75.6175C116.28 76.2631 116.755 77.3031 117.212 78.2551C119.949 83.9548 119.59 89.6971 117.242 95.4194C116.282 97.7606 114.96 99.8656 113.063 101.576C113.005 101.383 112.952 101.152 112.713 101.137C110.486 100.999 108.488 99.9485 106.317 99.6722Z" fill="#F0A526"/>
<path d="M116.75 74.1631C114.994 72.7549 113.015 71.651 110.894 70.8975C109.693 70.4277 108.413 70.1932 107.123 70.2067C104.442 70.2695 102.622 71.9927 103.514 75.0423C103.869 76.2555 104.623 77.2579 105.153 78.4033C104.638 78.6872 104.165 78.4033 103.703 78.4586C102.263 78.6218 101.441 79.486 101.395 80.9203C101.338 82.8395 102.328 84.3818 103.185 85.9744C103.436 86.429 103.851 86.7933 103.939 87.5067C102.396 87.8056 100.961 87.3936 99.7064 86.7104C98.3768 85.9869 98.2587 84.4848 98.4246 83.1735C98.8745 79.5689 99.9527 76.0872 100.687 72.5353C101.612 68.0766 102.609 63.6304 103.585 59.1817C103.727 58.4695 103.955 57.7771 104.263 57.1194C104.834 55.9387 105.701 55.3836 107.046 55.4037C110.393 55.4589 113.731 55.7377 117.084 55.7076C119.228 55.69 120.284 57.054 119.864 59.0912C119.037 63.1104 118.142 67.1295 117.29 71.1336C117.099 72.0254 116.966 72.9372 116.75 74.1631ZM110.361 59.3223C110.351 59.1223 110.351 58.922 110.361 58.722C110.413 58.3394 110.345 57.9499 110.164 57.6083C109.984 57.2668 109.701 56.9903 109.355 56.8179C108.564 56.3808 107.877 56.7877 107.252 57.2575C105.93 58.2497 105.492 60.3573 106.148 62.3191C106.367 62.9647 106.686 63.5073 107.405 63.6279C107.744 63.6894 108.094 63.6549 108.414 63.5285C108.735 63.402 109.014 63.1884 109.22 62.9119C110.087 61.8695 110.398 60.6486 110.361 59.3223Z" fill="#273040"/>
<path d="M85.7921 57.9207C85.6639 61.0832 86.7572 63.9494 88.1094 66.6799C89.248 68.9808 87.8581 71.1839 85.1587 71.4024C83.8272 71.5055 82.4906 71.2849 81.263 70.7593C77.7794 69.3175 74.8764 67.0341 72.0916 64.5648C70.9832 63.5826 69.8295 62.6683 69.0755 61.3394C68.6913 60.7333 68.457 60.0444 68.3919 59.3298C68.226 56.7877 69.9351 54.6249 72.4636 53.9341C73.9339 53.5322 74.801 52.2788 75.5726 51.0831C76.5057 49.6145 77.698 48.3276 79.0914 47.2849C79.6304 46.854 80.2728 46.5714 80.9549 46.4652C81.637 46.359 82.3349 46.4329 82.9796 46.6796C84.2363 47.1393 85.5156 47.609 86.7497 48.1868C88.9235 49.2398 91.2274 50 93.6012 50.4475C94.0738 50.5464 94.5287 50.7158 94.9509 50.9499C95.4284 51.2011 96.1347 51.3544 96.009 52.0854C95.8683 52.9143 94.9433 52.9947 94.4708 52.9293C93.0231 52.7259 91.8066 53.3237 90.5776 53.8085C87.5188 55.0168 84.4625 56.2226 81.3107 57.1746C80.1797 57.5323 78.9872 57.6538 77.8073 57.5315C76.6273 57.4092 75.4852 57.0457 74.4517 56.4637C73.5293 55.9613 72.7451 56.0869 72.0363 56.7827C71.3275 57.4785 70.7796 58.2899 71.2999 59.3625C71.5269 59.8312 71.7917 60.2806 72.0916 60.7064C74.8237 64.5045 78.1941 67.4687 82.7785 68.8528C83.3569 69.0325 83.9656 69.0931 84.5681 69.0311C86.3149 68.8427 86.9231 67.8329 86.3274 66.1951C85.5773 64.1174 84.9743 61.9895 84.5228 59.8272C84.3042 58.84 84.3167 57.9207 85.7921 57.9207ZM84.0578 52.1959C83.3365 50.4927 82.203 49.6437 81.0141 48.86C80.6421 49.1112 80.3003 49.2518 80.2802 49.7593C81.2328 50.7892 82.2784 51.7337 84.0578 52.1959Z" fill="#F0A526"/>
<path d="M106.975 104.465L106.694 104.558C105.128 104.186 103.617 104.593 102.097 104.877C100.936 104.985 99.9102 104.387 98.7389 104.086C98.7616 104.985 99.2592 105.377 99.792 105.741C100.194 106.015 100.855 106.055 100.687 106.819C100.518 107.582 100.159 108.168 99.3371 108.346C97.9853 108.606 96.5988 108.634 95.2378 108.426C94.3229 108.313 93.4281 108.047 92.3901 107.821C92.9316 104.875 93.1072 101.874 92.9129 98.8859C92.8211 97.4437 92.6533 96.0074 92.4102 94.5829C92.3021 93.9072 92.4454 93.4048 92.9933 92.9978C94.3857 91.9679 94.7527 90.9054 94.2299 89.2651C93.9183 88.2804 93.5262 87.3258 93.1466 86.2959C94.4888 86.527 95.7254 87.0771 97.0726 86.9615C97.1725 86.9572 97.2723 86.9735 97.3657 87.0093C97.4591 87.0452 97.5441 87.0999 97.6154 87.1701C98.6485 88.4537 100.114 88.8631 101.775 89.157C100.714 91.7845 101.071 94.2513 102.315 96.6377C102.047 98.0444 101.979 99.4787 101.561 100.865C101.154 102.192 101.476 102.707 102.818 103.073C104.052 103.41 105.284 103.784 106.571 103.88C106.975 103.91 107.322 103.92 106.975 104.465Z" fill="#AF5F09"/>
<path d="M70.4631 65.9237C72.8559 68.0363 75.2587 69.7771 77.664 71.5154C78.0113 71.7551 78.3044 72.065 78.5243 72.425C78.7442 72.785 78.8861 73.1871 78.9408 73.6054C79.1519 74.9317 79.2726 76.253 78.9911 77.5642C78.6819 79.0061 78.0159 80.2521 76.4148 80.5786C75.2235 80.8298 73.3787 79.6793 72.5794 78.451C71.2272 76.3711 70.7622 74.0399 70.3525 71.6485C70.0308 69.7721 70.1892 67.9609 70.4631 65.9237Z" fill="#CE4532"/>
<path d="M63.2318 46.4284C63.4831 47.2172 63.6138 47.9356 64.0713 48.5208C64.7901 49.4352 65.6673 49.9527 66.8988 49.7115C68.2083 49.4603 68.6984 48.5335 68.897 47.3729C69.1106 46.1395 68.7462 45.0041 68.0952 43.8963C69.6485 43.3487 71.1867 43.3814 72.662 43.6075C74.7255 43.924 74.9442 43.9164 74.9693 46.1596C74.9785 47.1595 74.7497 48.1473 74.3019 49.0415C73.854 49.9357 73.2 50.7107 72.3936 51.3027C71.5873 51.8947 70.6517 52.2867 69.664 52.4464C68.6763 52.606 67.6648 52.5288 66.7128 52.221C64.8454 51.6408 62.7794 49.1539 62.6034 47.2774C62.5833 46.9459 62.5833 46.9459 63.2318 46.4284Z" fill="#F5C68E"/>
<path d="M74.3965 41.736C72.3129 41.3768 70.2393 41.2813 68.1607 41.6983C66.0822 42.1153 64.2499 43.0749 62.38 44.1827C62.0985 43.6125 62.2995 43.1477 62.4126 42.7207C62.8012 41.3156 63.5052 40.0175 64.4711 38.9251C66.1576 36.9632 68.3744 36.506 70.7772 36.8427C72.3858 37.0637 74.2809 39.7666 74.3965 41.736Z" fill="#CE4532"/>
<path d="M33.9638 41.8365C35.8865 41.4321 37.1558 42.0249 37.8168 43.5019C38.6789 45.4211 38.6864 47.5211 38.802 49.5458C39.0835 54.4466 39.4832 59.3424 39.9557 64.2182C40.2221 66.9813 40.3503 69.7445 40.5036 72.5303C40.6217 74.6203 40.6946 76.7128 40.7549 78.8102C40.77 79.3528 40.8278 79.9783 39.8929 80.1742C39.7697 78.446 39.6541 76.753 39.5209 75.0599C39.1439 70.2068 38.7543 65.3562 38.3823 60.503C38.1812 57.8554 37.955 55.2077 37.8444 52.5551C37.754 50.4601 37.5428 48.3777 37.2563 46.3079C36.9974 44.3912 36.1228 42.7785 33.9638 41.8365Z" fill="#273040"/>
<path d="M106.975 104.465C107.327 103.92 106.975 103.91 106.558 103.88C105.271 103.784 104.044 103.41 102.805 103.073C101.463 102.707 101.141 102.192 101.548 100.865C101.973 99.4787 102.051 98.0443 102.302 96.6376C102.812 97.7634 103.659 98.7033 104.725 99.3279C105.228 99.6218 105.713 99.8505 106.304 99.6721C108.48 99.9484 110.479 100.998 112.69 101.137C112.942 101.152 112.982 101.388 113.04 101.576C111.343 103.222 109.237 104 106.975 104.465Z" fill="#E48401"/>
<path d="M82.0598 42.987C81.9769 40.6534 82.5625 38.8749 84.3596 37.7118C85.1794 37.1489 86.1345 36.8142 87.1266 36.7422C88.1187 36.6703 89.1121 36.8636 90.0046 37.3023C91.0955 37.8047 91.5252 38.9452 91.847 40.0279C92.0179 40.5905 91.4699 40.6181 91.0552 40.6131C90.2535 40.598 89.4592 40.5076 88.6474 40.5202C86.232 40.5654 84.2339 41.6833 82.0598 42.987Z" fill="#CE4532"/>
<path d="M87.3731 42.7785C88.6977 42.4545 89.8991 42.5701 91.0929 42.6555C91.49 42.6831 91.7087 42.9066 91.7037 43.3789C91.6911 44.8258 91.7037 46.2677 91.108 47.687C90.0851 47.5563 89.2431 46.971 88.298 46.7072C87.7778 46.5616 87.7803 46.1798 87.7954 45.7527C87.8667 44.7427 87.7228 43.7289 87.3731 42.7785Z" fill="#F5C68E"/>
<path d="M80.5093 15.4683C80.2177 16.7243 80.7832 18.0179 80.3032 19.2638C80.1901 19.5552 80.2127 19.8994 79.7276 20.3365C79.6698 17.0332 78.5162 14.2474 76.9453 11.6099C78.3101 11.316 78.9837 12.2178 79.612 13.1698C80.0574 13.8705 80.3622 14.6512 80.5093 15.4683Z" fill="#E36053"/>
<path d="M72.5141 13.7375C71.9335 13.8078 71.6546 13.4235 71.3781 13.0065C70.1943 11.2306 68.93 9.535 67.0701 8.37949C66.6705 8.1283 66.301 7.78415 66.2583 7.24408C68.1609 7.1235 69.4377 8.20615 70.5311 9.55005C71.5296 10.7597 72.2111 12.1988 72.5141 13.7375Z" fill="#E36053"/>
<path d="M81.9869 64.6402C82.0372 65.1075 81.7356 65.3536 81.3309 65.4943C80.9263 65.635 80.4337 65.6928 80.1195 65.2833C79.7714 64.7685 79.3063 64.3432 78.7623 64.0424C78.0635 63.6831 78.2169 62.8844 78.9482 62.5704C79.9561 62.1358 82.0221 63.5274 81.9869 64.6402Z" fill="#E68772"/>
<path d="M87.9361 60.9526C88.0391 59.684 86.5713 58.1241 88.6423 56.9334C88.5909 58.299 88.3533 59.6512 87.9361 60.9526Z" fill="#F0A526"/>
<path d="M102.097 104.877C103.605 104.593 105.128 104.186 106.693 104.558C105.409 104.706 104.163 105.126 102.853 105.073C102.592 105.06 102.295 105.171 102.097 104.877Z" fill="#E48401"/>
<path d="M80.5444 96.3563C79.8507 96.3915 79.2249 96.2759 78.8403 95.6027C79.5089 95.6278 80.0291 95.9871 80.5444 96.3563Z" fill="#E48401"/>
<path d="M42.7981 77.4185C43.3963 77.8732 43.4139 78.3078 42.7554 78.7198L42.7981 77.4185Z" fill="#966A2A"/>
<path d="M45.6109 89.5715L45.5933 89.5489C45.5919 89.553 45.5919 89.5574 45.5933 89.5615L44.8769 89.0088C44.8798 88.9898 44.8786 88.9704 44.8734 88.9519C44.8682 88.9334 44.8591 88.9162 44.8467 88.9015C44.8344 88.8868 44.819 88.8748 44.8017 88.8665C44.7844 88.8582 44.7655 88.8536 44.7462 88.8531L44.3667 88.6019H44.4069C44.3114 88.3105 44.3315 87.9437 43.9193 87.8634C43.669 86.7983 43.5842 85.7012 43.668 84.6104L44.6382 82.4802C40.564 82.8193 36.5425 83.1986 32.5312 84.1381C32.6191 85.8487 32.0763 87.4037 31.4906 88.936C31.5987 89.5213 31.9707 89.2952 32.3175 89.2173C34.8586 88.6546 37.4046 88.1146 39.9432 87.5418C41.4638 87.1977 43.002 86.7129 43.8666 88.6496L43.8842 88.6346L43.8691 88.6496C43.9922 89.152 44.2436 89.559 44.8216 89.6393C45.2012 90.3126 45.8572 90.3477 46.6087 90.5035C46.3423 89.9709 45.729 90.0463 45.6109 89.5715Z" fill="#AF5F09"/>
<path d="M52.5952 91.2596C52.5298 91.1817 52.4645 91.1064 52.4016 91.0285C52.0799 91.0135 51.8613 91.1415 51.9945 91.4907C52.2282 92.0886 52.3137 92.7693 52.8691 93.2039C52.7962 92.7015 52.7208 92.2117 52.6454 91.7168C52.6304 91.5636 52.6128 91.4129 52.5952 91.2596Z" fill="#AF5F09"/>
<path d="M55.0787 94.6633L55.0661 94.6331C55.0234 94.5476 54.9538 94.4785 54.868 94.4363C54.7822 94.3941 54.685 94.3812 54.5911 94.3995C54.3549 94.0528 54.1186 93.7062 53.6486 93.6459C53.4626 92.9199 53.0429 92.3171 52.6432 91.6991C52.7186 92.2015 52.794 92.7039 52.8669 93.1862V93.2038L53.1183 93.455L53.3696 93.7062L53.6536 93.6635C53.6385 93.759 53.626 93.8519 53.6109 93.9473L53.8622 94.1985C53.8622 94.7888 54.2342 95.025 54.7469 95.1003C55.1064 95.1531 55.0787 94.8944 55.0762 94.6683L55.0787 94.6633Z" fill="#AF5F09"/>
<path d="M81.0284 73.3137L80.8885 73.3886L80.871 73.2412L81.0134 73.3511L81.0284 73.3137Z" fill="#F0A526"/>
<path d="M34.4839 98.5418C30.4625 100.3 26.3406 101.034 22.0628 99.4863C21.457 99.2652 21.163 99.4159 21.0976 100.016V100.064C21.0962 100.052 21.0962 100.039 21.0976 100.026C21.349 100.33 21.6003 100.589 22.0401 100.529C22.0075 100.74 22.1734 100.725 22.3116 100.742C22.4308 100.887 22.5793 101.005 22.7473 101.089C22.9154 101.172 23.0992 101.219 23.2868 101.227C23.4811 101.407 23.7105 101.544 23.9605 101.63C24.2105 101.717 24.4758 101.751 24.7395 101.729C25.6066 102.375 26.6447 102.295 27.64 102.395H28.1502C28.4015 102.378 28.7082 102.518 28.8715 102.187C29.4798 102.345 29.9196 101.91 30.4424 101.765C32.8601 101.112 35.023 99.7424 36.6454 97.8359C35.8562 97.851 35.1877 98.2353 34.4839 98.5418Z" fill="#AF5F09"/>
<path d="M39.8976 97.3159L39.0883 98.5719L38.9551 98.7779L38.7992 98.9889L38.3192 99.4913C38.1709 99.6194 37.9623 99.7149 38.0452 99.9635C37.8592 99.9359 37.7939 100.026 37.8115 100.215C37.5727 100.147 37.4722 100.343 37.344 100.486L36.8564 100.898C36.7735 101.006 36.6905 101.112 36.6051 101.22L36.6201 101.197C36.2708 101.197 36.228 101.448 36.1526 101.699C35.7443 101.748 35.3502 101.879 34.9945 102.085C34.6388 102.291 34.329 102.567 34.0841 102.898C33.9681 102.887 33.8512 102.904 33.7431 102.948C33.6351 102.991 33.5392 103.06 33.4633 103.149C33.3402 103.189 33.212 103.217 33.212 103.382C33.0219 103.381 32.8342 103.425 32.6655 103.513C32.4968 103.601 32.3521 103.728 32.2443 103.885C32.2443 103.885 32.2443 103.872 32.2443 103.867C31.6336 103.819 31.8296 104.317 31.7416 104.621L31.7743 104.608C31.6722 104.698 31.5953 104.813 31.5512 104.942C31.5071 105.07 31.4974 105.208 31.523 105.342C31.2716 105.422 31.2591 105.616 31.2716 105.829C30.8444 106.125 30.769 106.633 30.5478 107.05C30.118 107.839 29.5047 108.534 29.3238 109.451C28.8337 109.494 28.9493 109.898 28.8915 110.205C27.6825 111.519 26.4836 112.842 25.2621 114.144C24.6338 114.812 24.0205 115.518 23.0554 115.731C23.7516 116.553 24.7494 116.844 25.6919 117.238C27.67 116.392 29.5047 115.349 31.0052 113.749C35.2177 109.255 37.9899 103.935 40.076 98.2102C40.1992 97.8359 40.2268 97.5445 39.8976 97.3159Z" fill="#AF5F09"/>
<path d="M19.896 96.125L19.856 96.0875L19.891 96.13L19.896 96.125Z" fill="#E48401"/>
<path d="M38.0781 99.9812H38.0454V100.011L38.0781 99.9812Z" fill="#1D2831"/>
<path d="M37.8417 100.232C37.8316 100.231 37.8215 100.231 37.8115 100.232C37.8115 100.232 37.8115 100.252 37.8115 100.262L37.8417 100.232Z" fill="#1D2831"/>
<path d="M22.0401 100.509C22.0389 100.518 22.0389 100.526 22.0401 100.535H22.0595L22.0401 100.509Z" fill="#1D2831"/>
<path d="M53.649 93.6665V93.6635H53.6459L53.649 93.6665Z" fill="#1D2831"/>
<path d="M33.2291 103.372H33.2121C33.2109 103.38 33.2109 103.387 33.2121 103.394L33.2291 103.372Z" fill="#1D2831"/>
<path d="M29.336 109.424H29.3239C29.3239 109.424 29.3239 109.436 29.3239 109.44L29.336 109.424Z" fill="#1D2831"/>
<path d="M119.115 71.7667C120.093 67.3531 121.178 62.9597 121.812 58.4783C121.905 57.8558 121.842 57.2198 121.627 56.6278C121.413 56.0358 121.055 55.5063 120.585 55.0872C119.522 54.0824 118.213 53.7508 116.815 53.7332C113.827 53.698 110.836 53.7081 107.845 53.688C104.577 53.6679 102.924 54.8511 102.109 58.0413C101.285 61.2717 100.541 64.5247 99.8297 67.7827C98.7766 72.5931 97.5425 77.3659 96.6452 82.2115C96.4919 83.0429 96.7332 83.9698 96.1149 84.7084C95.74 84.6514 95.3684 84.5752 95.0014 84.4798C92.8022 83.7789 91.0454 82.6913 90.3944 80.2094C89.6957 77.5342 89.5047 74.8137 89.2558 72.0882C89.2395 71.9302 89.256 71.7705 89.3045 71.6192C89.3529 71.4679 89.4322 71.3282 89.5373 71.209C90.7689 69.6692 90.9373 68.0062 90.04 66.2479C89.6846 65.568 89.5736 64.7867 89.7258 64.0348C90.1782 61.5806 90.5829 59.1164 90.9825 56.6547C91.0906 55.9965 91.5078 55.6876 92.0884 55.5343C93.4105 55.1852 94.735 54.8485 96.0621 54.5119C97.2685 54.2055 97.8768 53.374 98.0502 52.1959C98.2136 51.0906 97.5902 50.4099 96.7432 49.8296C95.6147 49.0585 94.3429 48.5736 93.0887 47.9909C93.2898 46.9057 93.6316 45.8783 93.6316 44.8509C93.6316 43.8235 94.0539 43.7833 94.8305 43.8084C95.567 43.831 96.4391 43.7306 96.5723 42.8614C96.6904 42.1078 95.8359 41.9269 95.293 41.623C95.077 41.513 94.8536 41.4182 94.6244 41.3392C94.4321 41.2725 94.2609 41.156 94.1284 41.0016C93.9959 40.8471 93.9069 40.6602 93.8704 40.46C93.6769 39.6511 93.4532 38.8523 93.2446 38.0485C97.4696 36.069 98.9726 34.0469 97.8893 31.7987C95.8786 34.2629 94.265 35.3154 91.9879 35.6169C91.812 35.2928 91.6285 34.9588 91.4475 34.6297C95.5393 32.2634 97.2057 27.9804 94.7853 26.2271C94.26 29.4349 91.6863 32.4694 89.7359 32.0625C90.0023 31.7284 90.2386 31.4269 90.4899 31.1205C91.4996 29.8084 92.0004 28.1757 91.8999 26.5235C91.8471 25.0164 90.6834 23.7604 89.5248 23.8005C90.4321 26.2799 89.8616 28.4628 88.2882 30.613C86.1518 28.3096 83.9702 26.3804 81.2306 25.2048C81.4241 24.73 81.5674 24.4009 81.693 24.0668C82.8517 20.9821 83.2589 17.8321 82.4194 14.5992C82.0223 13.0644 81.4342 11.419 80.2026 10.5474C78.4885 9.3366 76.3621 8.58051 74.4218 11.2583C74.3665 11.3336 74.2182 11.3437 74.1101 11.3839C73.2839 9.43518 71.9889 7.7206 70.3401 6.39256C67.6935 4.30259 64.4889 4.68946 62.5963 7.03815C61.9328 7.86208 61.7041 8.86684 61.4402 10.0299C60.8248 9.38347 60.1083 8.84138 59.3189 8.42476C55.8755 6.63624 52.3492 8.82666 51.8038 12.0445C51.4934 13.79 51.638 15.5859 52.2235 17.2594C49.7227 17.5106 48.0714 18.7063 47.5939 21.1002C47.1038 23.5443 48.1267 25.4911 49.9364 27.0887C51.2659 28.2618 52.8971 28.7743 54.6037 29.0983C54.4035 29.6937 54.0425 30.2222 53.5607 30.6256C49.8434 34.1021 48.2624 38.6639 47.3375 43.4366C46.6413 47.0438 46.8348 50.749 46.772 54.419C46.7016 58.4985 46.2919 62.5528 44.6959 66.3735C44.1807 67.5993 43.6604 68.8578 42.4163 69.7998C42.2379 68.2022 42.072 66.7503 41.989 65.2783C41.7678 61.3772 41.5316 57.4761 41.1822 53.585C40.9007 50.4677 40.6796 47.3428 40.2799 44.233C40.0009 42.1028 37.2387 40.0003 35.5874 40.1309C33.9864 40.2565 32.3753 40.2791 30.7793 40.4474C27.5119 40.7966 24.2445 41.201 20.9771 41.6054C19.9717 41.726 18.9664 41.8566 17.9862 42.035C14.857 42.6102 13.266 44.3535 13.364 47.5337C13.54 53.158 13.927 58.7722 14.4247 64.379C14.5001 65.2205 14.49 66.0846 14.676 66.8909C14.8545 67.6445 14.676 68.1745 14.2035 68.7598C11.9155 71.536 10.4664 74.9064 10.0263 78.4761C9.36775 84.113 10.3656 89.5464 13.266 94.5227C16.1263 99.4285 20.115 102.913 25.7274 104.367C26.9062 104.674 28.1026 104.452 29.2662 104.636C29.2813 104.774 29.319 104.864 29.2914 104.927C29.1987 105.149 29.0947 105.366 28.9797 105.578C27.4038 108.572 25.2775 111.139 22.8797 113.506C21.7814 114.588 21.8442 115.013 23.0481 115.668C24.0133 115.455 24.6265 114.749 25.2549 114.081C26.4764 112.78 27.6753 111.456 28.8842 110.142C28.942 109.843 28.8264 109.439 29.3165 109.388C29.4975 108.464 30.1208 107.766 30.5506 106.972L30.538 106.99C30.7617 106.573 30.8346 106.065 31.2619 105.769C31.2393 105.555 31.2619 105.362 31.5132 105.281C31.4871 105.148 31.4966 105.01 31.5407 104.881C31.5848 104.752 31.662 104.637 31.7646 104.548L31.7294 104.56C31.8249 104.259 31.6288 103.762 32.232 103.807V103.827C32.3398 103.67 32.4847 103.542 32.654 103.454C32.8233 103.366 33.0116 103.322 33.2022 103.325C33.2022 103.159 33.3354 103.131 33.4536 103.091C33.5294 103.003 33.6254 102.934 33.7334 102.89C33.8414 102.846 33.9583 102.829 34.0744 102.84C34.3192 102.51 34.629 102.233 34.9848 102.027C35.3405 101.821 35.7346 101.69 36.1429 101.642C36.2183 101.39 36.261 101.139 36.6104 101.139L36.5953 101.162L36.8466 100.84L37.3342 100.428C37.4624 100.285 37.5629 100.089 37.8017 100.157C37.7816 99.9786 37.8495 99.8882 38.0355 99.9058C37.9525 99.6546 38.1611 99.5617 38.3094 99.4336V99.4461L38.8121 98.9236L38.9679 98.7126L39.1011 98.5066L39.9105 97.2506C40.5815 96.075 41.1923 94.8793 41.2551 93.4827C40.3578 93.1812 39.8275 93.5455 39.4957 94.2087C38.7995 95.5978 37.7364 96.6779 36.6632 97.7706C35.0407 99.6772 32.8778 101.047 30.4601 101.699C29.9373 101.845 29.4975 102.28 28.8892 102.121C28.7259 102.453 28.4243 102.312 28.1679 102.33H27.6476C26.6423 102.229 25.6143 102.31 24.7472 101.664C24.4834 101.685 24.2182 101.652 23.9682 101.565C23.7181 101.479 23.4887 101.341 23.2944 101.162C23.1069 101.154 22.9231 101.107 22.755 101.024C22.5869 100.94 22.4384 100.822 22.3192 100.677C22.181 100.659 22.0151 100.677 22.0478 100.463C21.608 100.516 21.3415 100.252 21.0977 99.9435V99.9912C19.7455 99.2527 18.6949 98.1726 17.6921 97.0346C15.3717 94.6558 13.6947 91.7262 12.8186 88.5215C11.6449 84.2687 11.4589 80.016 12.8613 75.8059C13.638 73.4849 14.5152 71.1664 16.4027 69.4281C16.9305 68.9433 16.928 68.0891 17.5312 67.6269C20.8514 65.0823 24.3601 62.922 28.5575 62.1006C29.3341 61.9499 29.3592 62.3995 29.3869 62.9044C29.505 65.0547 28.3539 66.6724 27.1927 68.3303C25.4962 70.7569 23.3397 72.671 21.06 74.5323C20.0874 75.3286 18.9965 76.3309 18.7678 77.9135C19.7933 77.828 20.4141 77.1599 21.0902 76.67C23.3963 75.0581 25.8614 73.6861 28.4469 72.5755C29.8167 71.9777 31.2267 72.2364 32.594 71.945C33.0363 71.8521 33.2198 72.3419 33.2424 72.7941C33.2699 73.4847 33.1017 74.1691 32.7573 74.7685C31.2719 77.4939 29.417 79.8854 26.773 81.6362C25.7676 82.2994 25.0136 83.3192 24.0836 84.0904C22.8672 85.0952 21.5702 86.0096 20.1854 87.0696C21.6934 87.3208 22.7867 86.5848 23.9102 86.0799C25.0337 85.575 26.117 84.9043 27.2631 84.412C28.2408 83.9925 29.4598 83.676 30.2289 84.4949C30.998 85.3138 30.2289 86.3085 29.8468 87.1802C29.1079 88.8833 27.9844 90.3578 26.8911 91.8298C26.1371 92.8346 24.6542 93.0255 23.9303 94.1484C23.772 94.3996 23.307 94.4247 23.4126 94.8668C27.15 94.3066 29.3944 91.7193 31.4881 88.926C32.0737 87.3886 32.6166 85.8387 32.5286 84.1281C36.5501 83.1886 40.5715 82.8093 44.6356 82.4702L43.6655 84.5978C43.5806 85.6928 43.6653 86.7943 43.9168 87.8634C44.329 87.9438 44.3089 88.3105 44.4044 88.6019H44.3642L44.7437 88.8531C44.7629 88.8536 44.7818 88.8582 44.7991 88.8665C44.8165 88.8749 44.8318 88.8868 44.8442 88.9016C44.8565 88.9163 44.8656 88.9335 44.8708 88.952C44.876 88.9705 44.8773 88.9899 44.8744 89.0089L45.6033 89.5716L45.5857 89.5489C48.182 90.4583 50.1802 88.926 52.407 87.7454V91.0285H52.3769L52.5779 91.2797C52.5955 91.4329 52.6131 91.5836 52.6282 91.7369C53.0253 92.3548 53.4451 92.9577 53.6336 93.6836C54.1036 93.7339 54.3398 94.0805 54.5761 94.4372C54.6739 94.4163 54.7759 94.4298 54.8649 94.4756C54.9538 94.5214 55.024 94.5966 55.0637 94.6884L55.0511 94.6583C56.0364 95.1004 56.9914 94.9673 57.9717 94.593C60.01 93.8143 61.5834 92.3849 63.1668 90.9079C63.8254 92.4377 64.3155 93.9725 65.3083 95.2637C67.0928 97.5872 69.2844 97.9314 71.7476 96.3413C73.3033 95.3365 74.1403 93.8092 74.9697 92.1237C76.1385 93.558 77.5284 94.5578 78.868 95.6178L78.8253 95.6329C79.4938 95.653 80.0141 96.0122 80.5293 96.3865L80.5143 96.3614C84.8197 97.115 85.9733 96.6252 87.3004 93.4977C87.3155 93.0632 87.3205 92.6286 87.3431 92.194C87.3633 91.8399 87.5241 91.7846 87.7905 92.0157C89.4041 92.4352 90.133 93.5229 90.417 95.1356C91.2919 99.9737 91.059 104.947 89.7359 109.682C88.8034 113.031 87.2577 116.113 84.87 118.708C85.1967 119.871 85.9256 119.296 86.4484 118.994C88.63 117.738 89.6856 115.57 90.6784 113.403C91.1936 112.28 91.5757 111.099 92.0306 109.911C94.172 110.449 96.2657 110.848 98.4247 110.7C100.327 110.567 101.913 109.903 102.604 107.992C102.916 107.13 103.409 107.02 104.226 106.987C109.124 106.834 113.208 104.93 116.29 101.071C119.861 96.585 121.251 91.3324 121.181 85.7207C121.138 82.5104 120.638 79.3102 118.652 76.5671C118.517 76.3908 118.42 76.1875 118.369 75.971C118.318 75.7544 118.313 75.5295 118.356 75.3111C118.632 74.1078 118.856 72.9398 119.115 71.7667ZM38.3522 77.0167C38.3119 78.1622 37.7565 79.1971 37.7917 80.3476C37.7917 80.7596 37.4448 80.9882 37.0628 81.0459C34.5494 81.4278 32.0737 81.9477 29.4774 81.9954C31.194 80.5586 32.7599 79.0363 33.7175 77.0569C34.5393 75.3613 35.8488 73.7486 35.0445 71.616C34.5419 70.2721 33.72 69.7646 32.2647 69.8777C30.9128 69.9991 29.5697 70.2047 28.2433 70.4931C29.0652 69.2095 29.774 68.1595 30.3948 67.0567C31.3498 65.3586 31.4001 63.5852 31.2644 61.7816C31.1714 60.4854 29.872 59.772 28.286 60.1338C23.9203 61.1159 19.9416 62.8668 16.5988 66.2102C16.0609 65.0447 16.0961 63.854 16.0684 62.7588C15.9076 58.0865 15.4602 53.4368 15.0631 48.7821C14.769 45.2905 16.0684 44.0094 19.5998 43.7582C22.9752 43.507 26.3482 43.0875 29.6835 42.5022C33.8708 41.7737 35.7885 43.3738 36.1178 47.5261C36.4445 51.6206 36.6003 55.7277 36.8994 59.8348C37.1156 62.8039 37.47 65.7656 37.7112 68.7348C37.9299 71.4778 38.4552 74.2209 38.3522 77.0167ZM39.8979 80.1692C39.7747 78.441 39.6591 76.7479 39.5259 75.0549C39.1489 70.2017 38.7593 65.3511 38.3873 60.498C38.1863 57.8504 37.9601 55.2027 37.8495 52.5501C37.759 50.4551 37.5479 48.3727 37.2613 46.3028C36.9974 44.3912 36.1228 42.7861 33.9638 41.8365C35.8865 41.4321 37.1558 42.0249 37.8168 43.5019C38.6789 45.4211 38.6864 47.5211 38.802 49.5458C39.0835 54.4466 39.4832 59.3424 39.9557 64.2182C40.2221 66.9813 40.3503 69.7445 40.5036 72.5303C40.6217 74.6203 40.6946 76.7128 40.755 78.8102C40.7751 79.3478 40.8329 79.9733 39.8979 80.1692ZM93.5688 50.435C94.0414 50.5339 94.4964 50.7032 94.9185 50.9374C95.396 51.1886 96.1023 51.3418 95.9766 52.0728C95.8359 52.9018 94.911 52.9821 94.4384 52.9168C92.9907 52.7133 91.7742 53.3112 90.5452 53.796C87.4864 55.0043 84.4301 56.21 81.2783 57.1621C80.1473 57.5198 78.9548 57.6412 77.7749 57.5189C76.595 57.3967 75.4528 57.0332 74.4193 56.4512C73.4969 55.9488 72.7127 56.0744 72.0039 56.7702C71.2952 57.466 70.7472 58.2774 71.2675 59.35C71.4946 59.8186 71.7593 60.2681 72.0592 60.6939C74.7913 64.492 78.1617 67.4561 82.7461 68.8402C83.3245 69.0199 83.9332 69.0806 84.5357 69.0186C86.2825 68.8302 86.8907 67.8204 86.2951 66.1826C85.5449 64.1048 84.9419 61.977 84.4904 59.8147C84.2919 58.8401 84.3045 57.9207 85.7798 57.9207C85.6516 61.0833 86.745 63.9494 88.0972 66.6799C89.2357 68.9809 87.8458 71.1839 85.1464 71.4024C83.815 71.5055 82.4783 71.2849 81.2507 70.7594C77.7671 69.3175 74.8642 67.0341 72.0793 64.5649C70.9709 63.5827 69.8173 62.6683 69.0633 61.3395C68.6791 60.7333 68.4447 60.0445 68.3796 59.3299C68.2137 56.7878 69.9228 54.625 72.4513 53.9342C73.9216 53.5323 74.7888 52.2788 75.5604 51.0831C76.4935 49.6146 77.6857 48.3276 79.0791 47.285C79.6181 46.854 80.2606 46.5714 80.9426 46.4652C81.6247 46.359 82.3227 46.4329 82.9673 46.6796C84.224 47.1393 85.5033 47.609 86.7374 48.1868C88.9055 49.2338 91.2025 49.9898 93.5688 50.435ZM88.6426 56.9435C88.5912 58.3091 88.3536 59.6613 87.9363 60.9627C88.0393 59.6841 86.5715 58.1241 88.6426 56.9435ZM81.3311 65.4842C80.8938 65.6299 80.4338 65.6827 80.1197 65.2733C79.7715 64.7584 79.3064 64.3331 78.7624 64.0323C78.0637 63.6731 78.217 62.8743 78.9484 62.5603C79.9538 62.1257 82.0223 63.5174 81.9871 64.6302C82.0374 65.1074 81.7458 65.3536 81.3311 65.4943V65.4842ZM80.9918 73.3241L80.8887 73.3794C80.8887 73.3292 80.8762 73.2814 80.8712 73.2312L80.9918 73.3241ZM78.9811 77.5543C78.6719 78.9961 78.0059 80.2421 76.4049 80.5686C75.2135 80.8198 73.3687 79.6693 72.5694 78.441C71.2172 76.3611 70.7523 74.03 70.3426 71.6385C70.0209 69.7521 70.1792 67.941 70.4532 65.9038C72.8459 68.0163 75.2487 69.7571 77.654 71.4954C78.0013 71.7351 78.2944 72.045 78.5143 72.405C78.7343 72.765 78.8762 73.1671 78.9308 73.5853C79.152 74.9317 79.2726 76.2531 78.9911 77.5643L78.9811 77.5543ZM63.2221 46.4058C63.4735 47.1945 63.6042 47.913 64.0616 48.4983C64.7804 49.4126 65.6576 49.9301 66.8892 49.689C68.1987 49.4378 68.6888 48.5108 68.8873 47.3503C69.101 46.1169 68.7365 44.9815 68.0856 43.8737C69.6388 43.3261 71.177 43.3588 72.6524 43.5849C74.7159 43.9014 74.9345 43.8938 74.9597 46.137C74.9688 47.1369 74.74 48.1247 74.2922 49.0189C73.8444 49.9131 73.1903 50.6882 72.384 51.2802C71.5776 51.8721 70.642 52.2641 69.6544 52.4237C68.6667 52.5834 67.6552 52.5062 66.7032 52.1984C64.8357 51.6181 62.7697 49.1313 62.5938 47.2549C62.5837 46.9459 62.5837 46.9459 63.2322 46.4284L63.2221 46.4058ZM62.3902 44.1601C62.1087 43.5899 62.3098 43.1252 62.4229 42.6981C62.8115 41.293 63.5155 39.995 64.4813 38.9026C66.1678 36.9407 68.3846 36.4835 70.7874 36.8201C72.3659 37.0412 74.271 39.7441 74.3967 41.7134C72.3131 41.3542 70.2395 41.2587 68.161 41.6757C66.0824 42.0927 64.2602 43.075 62.4003 44.1827L62.3902 44.1601ZM87.3632 42.7559C88.6878 42.4318 89.8892 42.5474 91.0831 42.6328C91.4802 42.6604 91.6988 42.884 91.6938 43.3563C91.6813 44.8032 91.6938 46.245 91.0981 47.6643C90.0752 47.5337 89.2332 46.9484 88.2882 46.6846C87.7679 46.539 87.7704 46.1571 87.7855 45.7301C87.8569 44.7282 87.7164 43.7226 87.3733 42.7785L87.3632 42.7559ZM89.9948 37.2898C91.0856 37.7922 91.5154 38.9327 91.8371 40.0153C92.008 40.578 91.4601 40.6057 91.0454 40.6007C90.2436 40.5856 89.4494 40.4951 88.6375 40.5077C86.2222 40.5429 84.224 41.6607 82.0499 42.9644C81.967 40.6308 82.5526 38.8523 84.3497 37.6893C85.1737 37.1296 86.132 36.7996 87.1261 36.7334C88.1201 36.6672 89.1138 36.8671 90.0048 37.3125L89.9948 37.2898ZM49.6901 23.7403C48.735 21.3162 50.0168 19.2589 52.5805 19.3117C53.7577 19.3199 54.9091 19.6584 55.9032 20.2888C56.3254 20.5576 56.6974 20.9745 57.3911 20.9494C57.102 20.3064 56.6195 19.907 56.1972 19.4674C54.8023 18.0079 53.709 16.3701 53.4928 14.3153C53.3219 12.6926 53.533 11.0899 55.0863 10.1605C56.6396 9.23109 58.135 9.80383 59.4621 10.8086C61.3145 12.2103 62.5938 14.1144 63.8957 15.9983C64.1471 16.3776 64.2501 16.9027 64.8659 17.1338C65.2504 16.2043 64.8106 15.3754 64.5643 14.5942C64.2702 13.6346 63.8103 12.7278 63.4785 11.7758C63.3071 11.2952 63.2451 10.7825 63.2968 10.275C63.3485 9.76748 63.5127 9.27782 63.7775 8.84167C64.0422 8.40551 64.4009 8.03379 64.8275 7.75354C65.254 7.47329 65.7376 7.29155 66.2432 7.22152C68.1459 7.10094 69.4227 8.18359 70.516 9.52749C71.5154 10.7369 72.1978 12.1761 72.5016 13.715C73.2858 15.4734 73.0043 17.4528 73.6427 19.2765C74.4444 17.9451 74.746 16.4983 74.932 15.0288C75.118 13.5592 75.5 12.2907 76.9427 11.5874C78.3075 11.2935 78.9811 12.1952 79.6094 13.1473C80.0548 13.848 80.3596 14.6287 80.5067 15.4457C81.0496 17.4126 80.8485 19.3493 80.3408 21.2911C79.6701 23.7475 78.8303 26.1547 77.8274 28.4954C77.3021 28.0759 76.8522 27.7619 76.4551 27.3927C74.275 25.3828 71.5245 24.0987 68.5832 23.7176C66.5574 23.4237 64.5216 23.9889 62.5888 24.6621C60.987 25.1841 59.4419 25.8657 57.9767 26.6969C55.1516 28.3899 50.5798 26.0061 49.7001 23.7629L49.6901 23.7403ZM91.9376 90.9757C91.1836 91.5761 90.3994 91.1465 89.6957 90.7245C88.3284 89.9056 87.2527 88.7501 86.1367 87.6423C85.6642 87.1751 85.2419 86.6376 84.5206 86.4065C84.1461 87.2028 84.4578 87.8961 84.7342 88.5065C85.5385 90.2799 85.6541 91.9931 84.7342 93.7816C84.5055 94.2313 84.2316 94.5654 83.8118 94.598C82.3586 94.7389 80.899 94.4019 79.6547 93.6384C76.993 92.0584 75.8846 89.3857 74.276 86.9742C74.1026 87.5946 73.7734 88.0669 73.7306 88.7577C73.6229 90.6059 72.9173 92.369 71.7199 93.7816C70.423 95.3064 68.5907 95.854 66.957 93.9951C65.7003 92.5558 65.2153 90.7647 64.7603 88.9712C64.4939 87.9212 64.2702 86.8612 63.9837 85.6227C63.2297 86.8059 62.5611 87.8609 61.8649 88.8883C60.6836 90.6467 58.9494 91.7218 57.1046 92.6186C56.4687 92.9275 55.6242 92.8698 55.2648 92.1739C54.5359 90.7547 53.7969 89.3831 54.2594 87.5795C54.8048 85.4519 55.5739 83.382 56.0565 81.0484C55.0661 81.8302 54.1711 82.7256 53.3898 83.7161C51.9018 85.4745 50.1575 86.8636 47.8955 87.4841C46.5508 87.8508 45.8069 87.3082 45.7641 85.894C45.7164 84.2135 46.4503 82.7817 47.34 81.4127C48.0941 80.2396 48.9989 79.1519 49.3055 77.7251C49.3647 77.5446 49.3866 77.354 49.3697 77.1649C49.3529 76.9757 49.2977 76.792 49.2075 76.6248C47.4046 78.5772 45.0286 79.9078 42.4213 80.4254L42.733 78.6997C42.7481 78.2677 42.7632 77.8331 42.7757 77.3986C42.8127 76.8765 42.8068 76.3522 42.7581 75.8311C42.459 74.02 42.7933 72.5479 44.3089 71.2567C46.2065 69.6415 46.7795 67.1999 47.4908 64.9341C49.2502 59.2947 49.1044 53.4393 49.1999 47.6241C49.2434 43.1892 50.4246 38.8396 52.6307 34.9914C55.7574 29.5279 60.4725 26.4507 66.761 25.9181C69.757 25.6669 72.3684 26.7496 74.6581 28.6436C75.2389 29.0803 75.7921 29.5526 76.3144 30.0578C77.4479 31.2611 79.5642 30.9471 80.0392 28.8948C80.185 28.2593 80.2579 27.556 80.7606 26.9732C82.0135 27.5318 83.1598 28.3035 84.1486 29.254C82.3088 30.3693 81.9569 30.7336 81.6 31.869C81.9268 32.2232 82.2761 32.1378 82.6934 32.0021C86.0337 30.9019 87.406 31.5399 89.0095 35.0441C86.1116 34.3935 83.7314 35.1798 81.8539 37.3501C79.9764 39.5205 79.8583 42.0927 80.0116 44.763C79.0188 45.3558 77.6214 45.1021 77.0156 46.3932C76.8296 44.8408 76.9578 43.3286 76.6487 41.839C76.3542 40.256 75.7569 38.7446 74.8893 37.3878C72.6926 34.0997 68.8044 33.4214 65.3384 35.6495C64.8584 35.9585 64.4009 36.7799 63.8304 36.4031C63.1115 35.9258 62.3399 35.3983 61.9655 34.494C61.4226 33.1803 61.1486 31.8062 60.8696 30.4272C60.8455 30.1038 60.7324 29.7935 60.5429 29.5304C58.7433 32.0423 59.5526 35.7224 62.5209 38.3223L61.6965 39.2643C59.0198 38.2243 57.8988 35.8002 56.3706 33.4666C56.0414 35.3732 56.2626 36.9131 57.1247 38.5283C57.9868 40.1435 59.4294 40.8745 60.8797 41.7235C59.7235 42.658 57.5494 41.8014 54.3951 39.2618C54.3072 42.0752 56.1771 43.7833 60.5605 44.8257C60.2765 45.6899 59.4345 45.7477 58.8011 46.0592C58.2255 46.343 57.4841 46.4786 57.8234 47.388C58.1401 48.232 58.8287 48.2672 59.5702 48.0913C59.917 48.0084 60.2538 47.8225 60.6535 47.9607C61.0933 48.9102 61.4577 49.9226 62.0031 50.8269C62.9442 52.4113 64.3866 53.6372 66.1025 54.311C67.7638 54.9992 67.8066 54.9113 66.9847 56.5717C65.821 58.9456 66.3186 61.1259 67.99 63.0426C68.2611 63.3349 68.461 63.6857 68.5743 64.0678C68.6877 64.4499 68.7113 64.8529 68.6435 65.2456C68.2766 68.1921 68.0529 71.1965 68.729 74.0652C69.483 77.2704 70.3074 80.6741 73.8865 82.1336C77.5133 83.6106 80.3308 81.6965 81.0572 77.7025C81.3236 76.2305 80.9139 74.7936 81.0295 73.3392C81.864 73.4221 82.6984 73.5552 83.5429 73.5728C84.7669 73.603 86.0236 73.7888 87.2954 72.8695C87.2225 76.5319 88.0042 79.7547 88.9969 82.9449C89.2398 83.6902 89.5995 84.3923 90.0626 85.0249C90.8694 86.1754 91.6813 87.3283 92.1864 88.6471C92.4755 89.4509 92.767 90.3503 91.9477 90.9983L91.9376 90.9757ZM117.217 95.3968C116.257 97.738 114.935 99.843 113.038 101.554C111.336 103.199 109.227 103.98 106.965 104.442L106.684 104.535C105.399 104.684 104.153 105.103 102.843 105.05C102.592 105.038 102.278 105.148 102.089 104.854C100.928 104.962 99.9025 104.365 98.7313 104.063C98.7539 104.962 99.2516 105.354 99.7844 105.719C100.187 105.992 100.848 106.032 100.679 106.796C100.511 107.56 100.151 108.145 99.3295 108.323C97.9776 108.584 96.5912 108.611 95.2302 108.404C94.3153 108.291 93.4205 108.025 92.3825 107.798C92.924 104.853 93.0996 101.852 92.9053 98.8633C92.8135 97.4212 92.6457 95.9848 92.4026 94.5603C92.2945 93.8846 92.4378 93.3822 92.9857 92.9753C94.3781 91.9454 94.7451 90.8828 94.2223 89.2425C93.9106 88.2578 93.5185 87.3032 93.139 86.2733C94.4812 86.5044 95.7178 87.0546 97.0649 86.939C97.1649 86.9347 97.2647 86.9509 97.3581 86.9868C97.4515 87.0227 97.5365 87.0773 97.6078 87.1475C98.6408 88.4311 100.106 88.8406 101.767 89.1345C100.707 91.762 101.064 94.2288 102.308 96.6152C102.818 97.7409 103.664 98.6808 104.731 99.3055C105.233 99.5994 105.719 99.8279 106.309 99.6496C105.658 98.793 104.954 97.9691 104.361 97.0723C103.193 95.3139 102.976 93.3446 103.228 91.2772C103.308 90.5965 103.665 90.1945 104.233 90.1342C104.889 90.0664 105.525 89.8228 106.231 90.4633C107.543 91.6465 108.858 92.8371 110.23 94.2036C110.607 93.0381 110.112 92.3221 109.644 91.664C108.059 89.4434 106.377 87.2882 104.831 85.045C104.225 84.104 103.72 83.1021 103.323 82.0557C102.848 80.9052 103.592 79.9356 104.809 80.232C106.749 80.6719 108.577 81.5083 110.177 82.6887C111.308 83.5378 112.379 84.5074 113.719 85.3062C113.817 84.1206 113.022 83.4675 112.495 82.8646C111.331 81.5358 110.062 80.2169 108.599 79.2498C107.209 78.3528 106.193 76.9816 105.739 75.3915C105.429 74.3993 104.902 73.2312 105.756 72.4299C106.51 71.7215 107.629 72.2138 108.627 72.3545C111.24 72.7212 113.314 74.1279 115.367 75.5949C116.272 76.2405 116.747 77.2804 117.205 78.2325C119.934 83.9548 119.575 89.6972 117.227 95.4194L117.217 95.3968ZM117.283 71.101C117.089 72.0028 116.956 72.9146 116.74 74.1405C114.984 72.7323 113.005 71.6284 110.884 70.8749C109.683 70.4051 108.403 70.1706 107.113 70.1841C104.432 70.2469 102.612 71.9701 103.504 75.0197C103.859 76.2329 104.613 77.2353 105.143 78.3807C104.628 78.6646 104.155 78.3807 103.693 78.436C102.253 78.5992 101.431 79.4634 101.385 80.8977C101.328 82.8169 102.318 84.3592 103.175 85.9518C103.426 86.4064 103.841 86.7707 103.929 87.4841C102.386 87.783 100.951 87.3711 99.6964 86.6878C98.3669 85.9644 98.2487 84.4622 98.4146 83.1509C98.8645 79.5463 99.9428 76.0646 100.677 72.5127C101.602 68.054 102.599 63.6078 103.575 59.1591C103.717 58.4469 103.945 57.7545 104.253 57.0968C104.824 55.9161 105.691 55.361 107.036 55.3811C110.383 55.4363 113.721 55.7151 117.074 55.685C119.218 55.6674 120.274 57.0314 119.854 59.0686C119.039 63.1003 118.145 67.107 117.293 71.1236L117.283 71.101Z" fill="#1D2831"/>
<path d="M31.5226 105.312H31.5105C31.5119 105.317 31.5119 105.323 31.5105 105.328L31.5226 105.312Z" fill="#1D2831"/>
<path d="M31.2817 105.799C31.2828 105.804 31.2828 105.808 31.2817 105.813V105.799Z" fill="#1D2831"/>
<path d="M72.1494 32.2533C72.2876 31.0551 70.8751 29.5254 69.5179 29.2842C66.7079 28.7818 64.0663 30.3015 63.2344 33.1702C66.2178 31.5826 69.0529 30.3492 72.1494 32.2533Z" fill="#1D2831"/>
<path d="M19.4011 47.4231C18.3807 47.3779 17.6066 47.7044 17.0787 48.6113C16.6326 49.356 16.3683 50.1953 16.3071 51.0611C16.246 51.927 16.3898 52.7951 16.7269 53.595C17.4432 55.4112 19.4916 55.587 20.6679 54.012C21.261 53.2107 21.4571 52.2662 21.6104 51.1408C21.442 50.4676 21.3188 49.6211 21.0097 48.8474C20.7332 48.1541 20.3587 47.4633 19.4011 47.4231ZM19.9164 51.5101C19.851 52.0125 20.0094 53.1278 19.0492 53.0901C18.2173 53.0575 18.2173 51.9798 18.2073 51.2162C18.1961 51.0157 18.2252 50.815 18.2927 50.6259C18.4988 50.1235 18.2073 49.1689 19.0643 49.2569C19.7731 49.3297 19.8183 50.1787 19.9113 50.8118C19.9255 51.0409 19.9272 51.2707 19.9164 51.5V51.5101Z" fill="#1D2831"/>
<path d="M109.358 56.8179C108.566 56.3808 107.88 56.7878 107.254 57.2575C105.932 58.2498 105.495 60.3573 106.15 62.3192C106.369 62.9648 106.688 63.5073 107.407 63.6279C107.746 63.6894 108.096 63.655 108.417 63.5285C108.737 63.402 109.016 63.1884 109.222 62.912C110.084 61.8695 110.391 60.6512 110.353 59.3224C110.343 59.1224 110.343 58.922 110.353 58.722C110.406 58.3405 110.339 57.9518 110.161 57.6104C109.982 57.269 109.702 56.9919 109.358 56.8179ZM108.033 61.8419C107.171 60.9074 107.294 59.6188 108.352 58.496C109.272 59.3174 109.119 60.92 108.033 61.8419Z" fill="#1D2831"/>
<path d="M81.0143 48.8599C80.6423 49.1111 80.3005 49.2518 80.2804 49.7592C81.233 50.7892 82.2785 51.7336 84.0505 52.1933C83.3367 50.4952 82.2031 49.6437 81.0143 48.8599Z" fill="#1D2831"/>
<path d="M19.9164 51.5C19.851 52.0024 20.0094 53.1178 19.0493 53.0801C18.2173 53.0474 18.2173 51.9698 18.2073 51.2062C18.1961 51.0057 18.2252 50.8049 18.2927 50.6158C18.4988 50.1134 18.2073 49.1589 19.0643 49.2468C19.7731 49.3197 19.8184 50.1687 19.9114 50.8017C19.9259 51.0342 19.9276 51.2674 19.9164 51.5Z" fill="#273040"/>
<path d="M108.033 61.8418C107.171 60.9074 107.294 59.6188 108.353 58.4959C109.272 59.3173 109.119 60.9199 108.033 61.8418Z" fill="#273040"/>
</svg>
