<svg width="130" height="130" viewBox="0 0 130 130" fill="none" xmlns="http://www.w3.org/2000/svg">
<path d="M129.069 0.622253H0.383545V129.235H129.069V0.622253Z" fill="#D2BE93"/>
<path opacity="0.3" d="M67.1143 124.211C89.8098 124.211 108.208 121.4 108.208 117.931C108.208 114.463 89.8098 111.651 67.1143 111.651C44.4188 111.651 26.0204 114.463 26.0204 117.931C26.0204 121.4 44.4188 124.211 67.1143 124.211Z" fill="#1D2831"/>
<path d="M31.047 67.4934C31.047 67.7321 31.047 67.9733 31.047 68.2119C31.047 68.2998 31.047 68.3877 31.0294 68.4631H30.8384L31.047 67.4934Z" fill="#132340"/>
<path d="M33.7913 47.3776C33.7361 47.3826 33.6806 47.3826 33.6254 47.3776L33.7687 46.8149L33.7913 47.3776Z" fill="#132340"/>
<path d="M91.1293 35.5739L91.338 35.5889C91.338 35.6718 91.338 35.7547 91.338 35.8401C91.338 35.9934 91.338 36.1491 91.338 36.3024C91.1785 36.0947 91.104 35.8343 91.1293 35.5739Z" fill="#132340"/>
<path d="M96.8652 76.0092C96.8652 75.758 96.8778 75.4892 96.8853 75.2304C97.0346 75.4618 97.0952 75.7392 97.0562 76.0117L96.8652 76.0092Z" fill="#132340"/>
<path d="M103.156 116.123C103.247 116.055 103.351 116.007 103.461 115.983C103.572 115.959 103.686 115.958 103.797 115.982C103.707 116.051 103.603 116.1 103.492 116.124C103.381 116.148 103.267 116.148 103.156 116.123Z" fill="#132340"/>
<path d="M93.3965 57.9907C93.5469 58.256 93.5909 58.5685 93.5196 58.8649C93.4861 58.8915 93.4443 58.9057 93.4015 58.9051C93.399 58.6012 93.399 58.2947 93.3965 57.9907Z" fill="#2D8F88"/>
<path d="M67.8557 12.0969L67.8833 12.1799C67.7915 12.2147 67.6919 12.2238 67.5953 12.206C67.4987 12.1883 67.4088 12.1445 67.3354 12.0794L67.8557 12.0969Z" fill="#2D8F88"/>
<path d="M93.4014 58.9001C93.4443 58.9007 93.486 58.8865 93.5196 58.8599L93.5422 59.6713C93.4546 59.5655 93.3957 59.4391 93.371 59.304C93.3464 59.169 93.3568 59.0299 93.4014 58.9001Z" fill="#BCDCBB"/>
<path d="M61.2882 12.0618L61.5924 12.0392C61.5757 12.0632 61.5539 12.0832 61.5285 12.0977C61.5032 12.1122 61.4749 12.1209 61.4457 12.1231C61.4165 12.1252 61.3873 12.1208 61.36 12.1102C61.3328 12.0996 61.3083 12.0831 61.2882 12.0618Z" fill="#2D8F88"/>
<path d="M60.5188 12.1921L60.5613 12.1371L60.6112 12.1821L60.5188 12.1921Z" fill="#2D8F88"/>
<path d="M37.3806 88.8151C37.3107 88.4329 37.3626 88.0384 37.5289 87.6872C37.5615 88.0741 37.6344 88.4659 37.3806 88.8151Z" fill="#132340"/>
<path d="M36.873 94.0903C36.8457 93.9769 36.844 93.8587 36.8679 93.7445C36.8918 93.6302 36.9408 93.5227 37.0113 93.4297C37.0393 93.5431 37.0414 93.6614 37.0175 93.7757C36.9936 93.8901 36.9442 93.9976 36.873 94.0903Z" fill="#132340"/>
<path d="M37.8859 83.0402C37.9211 82.8995 37.9588 82.7563 37.9965 82.6131C37.9588 82.7638 37.9211 82.8995 37.8859 83.0402Z" fill="#132340"/>
<path d="M90.2698 96.3511C90.1976 96.2614 90.1469 96.1563 90.1216 96.044C90.0963 95.9316 90.0972 95.815 90.124 95.703L90.2698 96.3511Z" fill="#132340"/>
<path d="M90.677 99.3428C90.6543 99.2524 90.6292 99.1619 90.6041 99.069C90.6292 99.1569 90.6543 99.2499 90.677 99.3428Z" fill="#132340"/>
<path d="M90.4509 97.8356C90.4233 97.7276 90.3931 97.6221 90.3655 97.5166C90.3931 97.6321 90.4233 97.7376 90.4509 97.8356Z" fill="#132340"/>
<path d="M85.8012 119.996L86.0526 120.034L85.8012 120.212C85.8088 120.14 85.8038 120.069 85.8012 119.996Z" fill="#132340"/>
<path d="M93.3037 56.4257C93.3037 56.2574 93.2811 56.0866 93.2686 55.9233C93.2349 55.9571 93.2088 55.9978 93.1921 56.0425C93.1754 56.0872 93.1685 56.1349 93.1718 56.1825C93.1752 56.2301 93.1887 56.2765 93.2114 56.3184C93.2342 56.3604 93.2657 56.3969 93.3037 56.4257Z" fill="#C1AE9B"/>
<path d="M94.3166 68.7269C94.3166 68.644 94.304 68.5586 94.299 68.4757C94.2814 68.5033 94.2437 68.5334 94.2487 68.556C94.2659 68.615 94.2886 68.6722 94.3166 68.7269Z" fill="#C1AE9B"/>
<path d="M94.2337 67.9633C94.2463 67.9281 94.2764 67.8854 94.2664 67.8577C94.2379 67.7891 94.2043 67.7228 94.1659 67.6593C94.1533 67.697 94.1256 67.7397 94.1357 67.7673C94.1628 67.8353 94.1956 67.9008 94.2337 67.9633Z" fill="#C1AE9B"/>
<path d="M93.2132 55.3003C93.1919 55.2422 93.1659 55.1859 93.1353 55.1321C93.1353 55.1622 93.0976 55.1924 93.1026 55.2175C93.1203 55.2735 93.1421 55.328 93.168 55.3807C93.1856 55.3556 93.2208 55.3204 93.2132 55.3003Z" fill="#C1AE9B"/>
<path d="M83.2954 101.88L83.1144 100.373C83.0968 99.8704 83.0767 99.368 83.0591 98.853C82.6168 95.5071 82.9108 92.1636 83.0591 88.8202C83.0591 88.6494 83.0591 88.4786 83.0591 88.3178C83.1282 85.1248 83.374 81.9381 83.7956 78.7723C83.7453 78.4307 83.9338 78.0338 83.5442 77.7675L83.0617 79.0712L82.8103 79.7721L82.559 80.3649C82.3076 81.4124 82.0739 82.4774 81.7572 83.5099C80.8046 86.6046 80.5357 89.8049 80.312 93.0001C79.8218 100.029 79.9058 107.086 80.5633 114.101C80.6664 115.219 80.8549 116.326 81.0057 117.439L81.0434 117.926C81.0434 118.019 81.061 118.11 81.071 118.203L80.8976 118.532H80.973V118.456L81.2545 118.662L82.3076 119.165L82.2724 119.145C82.5087 119.19 82.7751 119.145 82.9209 119.419C83.5945 119.331 84.1776 119.685 84.8059 119.81L85.8113 119.916C85.8651 119.837 85.947 119.781 86.0403 119.76C86.1336 119.739 86.2315 119.754 86.314 119.803L86.6457 119.707C86.2109 117.165 85.5449 114.683 84.9165 112.171C84.0796 108.805 83.4361 105.372 83.2954 101.88Z" fill="#C1AE9B"/>
<path d="M38.8383 79.0134C38.768 78.511 38.6951 78.0086 38.6222 77.5238C38.6222 77.3505 38.5996 77.1772 38.587 77.0064C38.5191 76.6748 38.4488 76.3457 38.3784 76.0166C38.3784 75.9237 38.3608 75.8333 38.3532 75.7403C38.2753 74.9114 37.9461 74.11 38.0441 73.2585C37.7174 72.8993 37.6671 72.437 37.5691 72.0025C37.4836 71.7513 37.3956 71.5001 37.3177 71.2489C36.531 71.4775 36.8326 72.1432 36.8151 72.6205C36.6836 78.0895 36.1163 83.5392 35.1185 88.9181C34.1132 94.6103 32.3538 100.109 30.9689 105.703C30.8533 106.17 30.7804 106.592 30.9689 107.035L34.2866 108.921C34.3871 108.474 34.4449 108.012 34.7214 107.625L34.646 107.6C34.7692 106.949 34.8973 106.299 35.018 105.648L35.4025 103.802C35.9052 101.935 36.0761 100.011 36.3727 98.112L36.4933 97.7226C36.5754 96.7614 36.6592 95.801 36.7447 94.8414L36.8578 94.0878C36.8305 93.9743 36.8287 93.8561 36.8526 93.7419C36.8765 93.6277 36.9255 93.5201 36.996 93.4271L37.3655 88.8126C37.2956 88.4304 37.3475 88.036 37.5138 87.6848C37.456 86.1223 37.7048 84.5825 37.8707 83.0376C37.9059 82.897 37.9436 82.7537 37.9813 82.6105C37.9813 82.5075 37.9586 82.4046 37.9486 82.2991C38.0717 82.1081 38.1245 81.7565 38.4085 81.8293C38.9816 81.975 38.7026 82.5829 38.9112 82.9371C39.2128 81.8821 38.8584 80.8346 38.861 79.7846L38.8383 79.0134Z" fill="#C1AE9B"/>
<path d="M88.3044 46.8275C87.9978 43.69 88.1083 40.5903 87.573 37.5332C86.8039 33.1297 85.6804 28.8694 83.0941 25.1341C82.7473 24.6317 82.5613 23.9861 81.9204 23.7249C81.7168 24.4031 82.2019 24.908 82.4055 25.4632C84.9189 32.3434 86.075 39.5051 86.8592 46.7496C86.9371 47.4856 86.8718 48.7868 87.6585 48.7592C88.6613 48.724 88.1234 47.4756 88.3044 46.8275Z" fill="#C1AE9B"/>
<path d="M82.5715 45.1144C82.5082 45.5636 82.5592 46.0214 82.7197 46.4457C82.7889 46.2257 82.8114 45.9936 82.7859 45.7644C82.7604 45.5352 82.6873 45.3138 82.5715 45.1144Z" fill="#C1AE9B"/>
<path d="M93.8943 64.6776C93.8403 64.8091 93.8247 64.9531 93.8491 65.0931C93.8736 65.2331 93.9372 65.3634 94.0325 65.4688C94.0927 65.1972 94.043 64.9128 93.8943 64.6776Z" fill="#C1AE9B"/>
<path d="M100.577 113.709C100.525 113.406 100.381 113.126 100.165 112.907C97.568 108.458 95.5414 103.7 94.1328 98.745C91.5867 89.6566 90.1868 80.3824 89.5735 70.9776C89.5031 69.8949 89.4026 68.8122 89.2995 67.7296C89.2719 67.4532 89.2995 67.0262 88.9728 67.0112C88.7491 67.0112 88.832 67.4257 88.8019 67.6568C88.4777 70.2667 88.0705 72.8716 88.0655 75.5092C88.0655 79.4396 88.0655 83.3691 88.0655 87.2979V88.0665C88.0655 88.481 88.0655 88.8955 88.0655 89.31C88.078 89.5436 88.0906 89.7772 88.1057 90.0108L88.4073 90.0886C88.7064 89.9379 88.9653 89.9354 89.1211 90.2921L89.4177 90.591L89.6514 91.9651C89.7193 92.1685 89.7846 92.3721 89.8525 92.5755C89.8349 92.666 89.8173 92.7538 89.7972 92.8443C89.8399 93.0201 89.8801 93.196 89.9203 93.3743L90.1315 95.6979C90.1792 95.9139 90.2295 96.13 90.2772 96.346L90.3728 97.5216C90.4004 97.6271 90.4306 97.7326 90.4582 97.8406C90.511 98.2476 90.5613 98.6545 90.6115 99.0614C90.6367 99.1518 90.6618 99.2448 90.6844 99.3352L91.0614 100.923C91.0496 100.938 91.041 100.956 91.0361 100.975C91.0313 100.994 91.0302 101.014 91.033 101.033C91.0358 101.053 91.0424 101.071 91.0525 101.088C91.0625 101.105 91.0758 101.12 91.0916 101.131C91.2591 102.28 91.4359 103.427 91.6219 104.573L91.74 104.879C91.8104 105.208 91.8833 105.537 91.9537 105.866L92.0819 106.396C92.117 106.517 92.1547 106.648 92.1924 106.756C92.4036 107.318 92.6172 107.878 92.8283 108.441L92.7906 108.414C92.895 109.102 93.0964 109.771 93.3888 110.403C93.4667 110.735 93.4341 111.121 93.8362 111.292C93.798 111.451 93.8011 111.617 93.8451 111.774C93.889 111.932 93.9725 112.075 94.0875 112.191H94.0725C94.1856 112.523 94.3012 112.855 94.4168 113.196H94.3288C94.3816 113.329 94.4369 113.46 94.4922 113.593C94.5421 113.627 94.5899 113.664 94.6355 113.704C94.7159 113.872 94.7963 114.04 94.8742 114.206C96.3622 113.824 97.8903 114.023 99.3983 113.89H99.6497L100.152 113.905H100.67C100.652 113.834 100.62 113.768 100.577 113.709ZM94.5048 113.005C94.5426 112.943 94.5656 112.873 94.5721 112.8C94.5787 112.727 94.5685 112.654 94.5425 112.586C94.5689 112.654 94.5793 112.728 94.5728 112.801C94.5662 112.874 94.543 112.945 94.5048 113.008V113.005Z" fill="#C1AE9B"/>
<path d="M88.2039 90.8372L88.2994 90.3148C88.2385 90.3273 88.1793 90.3475 88.1235 90.3751C88.1486 90.5283 88.1763 90.684 88.2039 90.8372Z" fill="#C1AE9B"/>
<path d="M88.5734 97.9236C88.5953 97.9871 88.623 98.0485 88.6563 98.107C88.6714 98.0743 88.7066 98.0366 88.699 98.0115C88.6743 97.9482 88.6449 97.8869 88.6111 97.8281C88.6035 97.8608 88.5658 97.8959 88.5734 97.9236Z" fill="#C1AE9B"/>
<path d="M88.1938 93.1634C88.2117 93.2276 88.2361 93.2899 88.2667 93.3493L88.2541 93.083C88.2315 93.1107 88.1887 93.1433 88.1938 93.1634Z" fill="#C1AE9B"/>
<path d="M88.1939 92.0756C88.1688 92.1033 88.116 92.1384 88.1236 92.1585C88.1471 92.2243 88.1774 92.2874 88.214 92.3469C88.2065 92.2565 88.2015 92.1661 88.1939 92.0756Z" fill="#C1AE9B"/>
<path d="M60.823 114.372C56.7865 111.943 54.4013 108.182 52.735 103.967C50.7971 99.0715 49.5254 93.9521 48.1179 88.8955C47.7248 87.4423 47.1999 86.0281 46.5495 84.6704C46.449 84.4619 46.3459 84.1328 46.0468 84.2308C45.7477 84.3288 45.8759 84.6528 45.8659 84.8864C45.8589 85.0545 45.8699 85.2229 45.8985 85.3888C46.7305 90.4529 47.5222 95.5246 48.8543 100.491C49.9476 104.583 51.154 108.617 53.9263 111.973C55.6128 114.015 57.6235 115.462 60.2827 115.721C60.7853 115.678 61.3584 115.872 61.5771 115.342C61.8284 114.701 61.1774 114.585 60.823 114.372Z" fill="#C1AE9B"/>
<path d="M64.176 101.28C61.6179 99.8269 59.4224 97.8138 57.7543 95.3915C57.5381 95.075 57.2868 94.5048 56.8268 94.7711C56.4624 94.9796 56.6333 95.5473 56.7489 95.9391C57.4451 98.2602 58.551 100.365 60.3154 102.046C61.6199 103.289 63.0374 104.41 64.7943 104.633C65.4427 104.633 65.9404 104.673 66.2344 104.108C66.5059 103.583 66.1791 103.229 65.9429 102.852C65.4916 102.191 64.8849 101.651 64.176 101.28Z" fill="#C1AE9B"/>
<path d="M72.4851 84.791C71.3616 85.5069 70.2935 86.3132 68.989 86.7101C65.4966 87.7968 61.7568 87.8012 58.2619 86.7227C56.0501 86.057 54.0318 84.9517 52.0236 83.8289C51.5461 83.5601 50.9554 82.9045 50.493 83.5073C50.0632 84.065 50.8147 84.5121 51.1465 84.9618C51.7375 85.72 52.4272 86.3958 53.1974 86.9714C55.4946 88.8425 58.3124 89.9615 61.2681 90.1763C64.2238 90.3911 67.174 89.6914 69.7179 88.1721C71.0022 87.3984 72.1584 86.4137 72.5103 84.8161L72.548 84.7181L72.4851 84.791Z" fill="#C1AE9B"/>
<path d="M42.3247 63.4468C42.2803 63.4184 42.2467 63.3759 42.2292 63.3262L42.1262 62.4495C42.3168 62.7446 42.3878 63.1012 42.3247 63.4468Z" fill="#2D8F88"/>
<path d="M42.0254 61.7009C41.9634 61.7009 41.9006 61.7009 41.8369 61.7009L41.8595 60.6409C42.008 60.9732 42.0653 61.3391 42.0254 61.7009Z" fill="#132340"/>
<path d="M80.616 43.8534C80.8473 44.1925 80.7995 44.5667 80.7543 44.941L80.5934 44.74V44.6421L80.616 43.8534Z" fill="#132340"/>
<path d="M47.9519 117.231C46.2101 117.183 44.5387 116.67 42.8221 116.462C44.041 117.313 45.5239 117.158 46.8686 117.524L48.3766 117.625C48.2987 117.429 48.1806 117.236 47.9519 117.231Z" fill="#7099A6"/>
<path d="M43.6967 115.419C44.418 115.419 45.1243 116.012 45.8532 115.485C45.016 115.218 44.1452 115.072 43.2669 115.05C42.8698 115.025 42.3244 115.038 42.2062 115.512C42.1669 115.72 42.2077 115.935 42.3206 116.113C42.4335 116.292 42.61 116.421 42.8145 116.474C42.538 115.648 42.8723 115.419 43.6967 115.419Z" fill="#7099A6"/>
<path d="M64.2237 78.305C61.3207 77.9358 58.4605 77.3631 55.7435 76.2603C52.2524 74.8461 49.2087 72.8013 46.8034 69.8422C45.4141 68.122 44.2408 66.2382 43.3097 64.2329C43.164 63.924 43.1615 63.0272 42.3748 63.7004C42.239 64.1174 42.6261 64.5143 42.42 64.9338H42.3798C42.6739 65.0117 42.5884 65.2729 42.6311 65.4713L42.6638 65.5241L42.6135 65.5643C42.8825 65.7929 42.8247 66.1244 42.8649 66.4209C43.0207 66.8479 43.1816 67.275 43.3299 67.7045C44.7047 71.696 46.9089 75.052 50.6187 77.25L51.1214 77.5288L51.624 77.78C51.6781 77.8626 51.7531 77.9293 51.8414 77.9735C51.9297 78.0176 52.0282 78.0375 52.1267 78.0312C52.179 78.1155 52.2537 78.1837 52.3424 78.228C52.4312 78.2724 52.5305 78.2912 52.6294 78.2824C53.0789 78.2518 53.5296 78.3213 53.9489 78.4859C57.2828 79.4658 60.8122 79.5765 64.201 78.8074C64.4348 78.7572 64.8847 78.933 64.8646 78.5135C64.857 78.2749 64.4549 78.3352 64.2237 78.305ZM51.7975 77.79C51.8743 77.7893 51.9493 77.8134 52.0113 77.8586C52.0733 77.9039 52.1191 77.9679 52.1418 78.0412C52.1179 77.9667 52.0704 77.9019 52.0065 77.8566C51.9426 77.8113 51.8657 77.7879 51.7874 77.79H51.7975Z" fill="#7099A6"/>
<path d="M80.7691 54.9111C80.5689 55.3284 80.5141 55.8005 80.6132 56.2525C80.7867 55.8279 80.8406 55.3641 80.7691 54.9111Z" fill="#7099A6"/>
<path d="M41.7261 58.2846C41.7832 58.1439 41.805 57.9914 41.7896 57.8403C41.7743 57.6893 41.7223 57.5444 41.6381 57.418C41.5674 57.7084 41.5984 58.0143 41.7261 58.2846Z" fill="#7099A6"/>
<path d="M41.4952 50.9044V51.6405C41.3998 51.5417 41.3465 51.4097 41.3465 51.2724C41.3465 51.1351 41.3998 51.0032 41.4952 50.9044Z" fill="#132340"/>
<path d="M41.5102 49.141C41.5102 49.3922 41.5102 49.6434 41.5102 49.8946C41.4594 49.8458 41.419 49.7874 41.3914 49.7226C41.3638 49.6579 41.3496 49.5882 41.3496 49.5178C41.3496 49.4474 41.3638 49.3778 41.3914 49.313C41.419 49.2483 41.4594 49.1898 41.5102 49.141Z" fill="#132340"/>
<path d="M41.5052 52.1554V52.6578C41.4648 52.6295 41.4317 52.592 41.4089 52.5483C41.3861 52.5045 41.3742 52.4559 41.3742 52.4066C41.3742 52.3573 41.3861 52.3087 41.4089 52.265C41.4317 52.2213 41.4648 52.1836 41.5052 52.1554Z" fill="#132340"/>
<path d="M41.5075 53.66C41.5075 53.7429 41.5075 53.8258 41.5075 53.9112C41.4826 53.8544 41.4624 53.7956 41.4472 53.7354C41.4447 53.7153 41.4874 53.6851 41.5075 53.66Z" fill="#132340"/>
<path d="M80.3396 66.5337C80.3477 66.5268 80.3552 66.5193 80.3621 66.5112C80.3621 66.5112 80.3621 66.4987 80.3621 66.4937L80.3396 66.5337Z" fill="#F0EDC7"/>
<path d="M78.5776 70.8018L78.5977 70.7867C78.5974 70.7809 78.5974 70.775 78.5977 70.7691L78.5776 70.8018Z" fill="#F0EDC7"/>
<path d="M78.8162 70.2893L78.8363 70.2768C78.8351 70.2701 78.8351 70.2633 78.8363 70.2567L78.8162 70.2893Z" fill="#F0EDC7"/>
<path d="M42.8774 23.3195L42.8895 23.3074V23.2928L42.8774 23.3195Z" fill="#F0EDC7"/>
<path d="M78.2985 71.2883H78.3129V71.2715L78.2985 71.2883Z" fill="#F0EDC7"/>
<path d="M47.1325 18.3189L47.1525 18.3014L47.175 18.2814L47.1325 18.3189Z" fill="#F0EDC7"/>
<path d="M76.1395 74.6295C76.0896 74.4447 76.132 74.5895 76.1395 74.6295V74.6295Z" fill="#F0EDC7"/>
<path d="M80.0858 67.2848L80.1083 67.2623V67.2473L80.0858 67.2848Z" fill="#F0EDC7"/>
<path d="M39.1174 31.3638C39.1226 31.3573 39.1285 31.3514 39.135 31.3462V31.3311L39.1174 31.3638Z" fill="#F0EDC7"/>
<path d="M106.139 109.428L105.802 108.981L105.823 109.004L105.282 108.353L105.219 108.328V108.258L105.058 107.979L105.091 108.007L104.87 107.67L104.888 107.693L104.561 107.21L104.583 107.235C104.48 107.087 104.377 106.942 104.272 106.796L104.254 106.763L104.098 106.427L104.121 106.452C104.013 106.291 103.905 106.128 103.794 105.967L103.814 105.987C103.716 105.841 103.616 105.698 103.518 105.555L103.483 105.495C103.246 105.078 103.012 104.659 102.779 104.239L102.884 104.204L102.779 104.236C102.691 104.078 102.6 103.922 102.51 103.764L102.497 103.729L102.012 102.749V102.729C101.677 101.999 101.342 101.27 101.007 100.541L100.977 100.451C100.756 99.8494 100.535 99.2491 100.316 98.6495L100.338 98.6797C100.062 97.9412 99.7845 97.201 99.5064 96.4591V96.444L99.3631 95.8587L99.2073 95.5849C97.2846 89.7521 96.2289 83.7309 95.3869 77.6695C94.9747 74.6979 94.6782 71.7061 94.3313 68.7244C94.3033 68.6698 94.2806 68.6125 94.2635 68.5536C94.2635 68.531 94.2961 68.5009 94.3137 68.4732C94.2911 68.3024 94.271 68.1316 94.2484 67.9708C94.2102 67.9084 94.1774 67.8429 94.1504 67.7749C94.1504 67.7473 94.168 67.7045 94.1805 67.6668C94.1353 66.9384 94.0926 66.2099 94.0473 65.4789C93.952 65.3735 93.8884 65.2432 93.8639 65.1032C93.8395 64.9632 93.8551 64.8192 93.9091 64.6877C93.7901 63.013 93.6728 61.3451 93.5572 59.6838C93.4696 59.5781 93.4107 59.4516 93.386 59.3166C93.3614 59.1816 93.3719 59.0425 93.4165 58.9126C93.4165 58.6087 93.4165 58.3022 93.4165 57.9982C93.3863 57.4758 93.3553 56.9541 93.3235 56.4333C93.2854 56.4045 93.2539 56.3679 93.2311 56.326C93.2084 56.284 93.1949 56.2377 93.1916 56.1901C93.1882 56.1425 93.1951 56.0948 93.2118 56.0501C93.2285 56.0054 93.2546 55.9647 93.2883 55.9309C93.2531 55.7526 93.2204 55.5742 93.1877 55.3934C93.1619 55.3407 93.14 55.286 93.1224 55.23C93.1224 55.2049 93.1425 55.1748 93.1551 55.1447C92.8409 49.0079 92.5016 42.8712 91.3781 36.8073C91.3602 36.6404 91.3551 36.4725 91.363 36.3049C91.2024 36.0986 91.1261 35.8392 91.1494 35.5789C90.5583 33.2226 89.8307 30.9027 88.9703 28.6308H88.9879L88.5279 27.5557C87.1757 24.8729 85.63 22.3257 83.574 20.0976C81.038 17.352 77.9541 15.4228 74.6238 13.8177L73.9276 13.5665V13.5866L70.9895 12.6798L70.6929 12.6295L67.8829 12.1774C67.7911 12.2122 67.6915 12.2213 67.5949 12.2035C67.4983 12.1858 67.4085 12.142 67.335 12.0769C65.4243 11.9203 63.5046 11.9069 61.5919 12.0367C61.5753 12.0607 61.5535 12.0807 61.5281 12.0952C61.5027 12.1098 61.4744 12.1184 61.4452 12.1206C61.4161 12.1227 61.3868 12.1184 61.3596 12.1078C61.3323 12.0972 61.3078 12.0806 61.2878 12.0593L60.6117 12.1799H60.5187L57.9576 12.622L57.6635 12.6722L57.2287 12.74L56.9069 12.8983L55.507 13.3504L55.4819 13.2324L55.4995 13.3504L54.9767 13.5087C52.2894 14.6698 49.7689 16.1836 47.4817 18.0102L47.155 18.289L46.881 18.5402L46.9062 18.5176L46.3708 19.02L45.1543 20.2558L44.8703 20.5448L44.903 20.5096L44.6517 20.816L44.6894 20.7784L44.4556 21.1049L44.4833 21.0798L44.1213 21.5169L44.1339 21.5018L43.8826 21.8033L43.9152 21.7706C43.8474 21.8836 43.782 21.9992 43.7142 22.1147L43.7368 22.0997L43.3774 22.5367L43.395 22.5166C43.314 22.8214 43.1379 23.0924 42.8923 23.2903L42.739 23.6169V23.637L42.4223 24.0841L42.4449 24.059C42.3419 24.2248 42.2388 24.3931 42.1332 24.5614L42.1584 24.5337C42.1056 24.7272 42.0729 24.9331 41.8668 25.0361L41.7135 25.3753L41.7286 25.3627L41.4773 25.8651L41.3667 25.835L41.4773 25.8701C41.236 26.3725 40.993 26.8749 40.7484 27.3773V27.4025C40.6302 27.6285 40.497 27.8546 40.389 28.0807L40.4065 28.0581C40.3436 28.5113 40.1711 28.9424 39.9039 29.314C39.8334 29.7765 39.6682 30.2194 39.4188 30.6152L39.4439 30.5776C39.3509 30.8288 39.4163 31.1428 39.175 31.3312C39.1272 31.512 39.0795 31.6929 39.0342 31.8737L39.0116 31.9466C38.8156 32.5042 38.6187 33.0636 38.421 33.6246L38.4486 33.5919C36.1866 41.2585 35.4677 49.1988 34.304 57.0588C34.2387 57.5109 34.1331 57.9606 34.0527 58.4102C34.0527 58.4982 34.0527 58.5836 34.0326 58.6614C33.7377 60.8854 33.4419 63.1093 33.1454 65.3333L33.1152 65.695C32.2808 73.0777 31.4991 80.4704 29.5713 87.6773C29.4633 88.0742 29.32 88.4635 29.2094 88.8579V88.9508C28.8743 90.0125 28.5392 91.0743 28.204 92.136V92.2139L27.8346 93.1131L27.8522 93.0881C27.7143 93.8041 27.4496 94.4897 27.0705 95.1127L27.0856 95.0901L26.6985 96.1677L26.6834 96.2129L26.4924 96.6525C26.5013 96.6642 26.5069 96.6779 26.509 96.6923C26.511 96.7068 26.5093 96.7215 26.504 96.7351C26.4987 96.7487 26.49 96.7607 26.4787 96.77C26.4675 96.7793 26.454 96.7856 26.4396 96.7882L26.1054 97.4061L26.1305 97.376L25.8942 97.9261L25.1553 99.4508L25.0573 99.4634H25.1553L24.8763 99.9532L24.8914 99.9382L24.6074 100.441L24.6275 100.418L24.3234 100.92L24.3485 100.89C24.2857 101.079 24.2781 101.295 24.0771 101.408C23.9866 101.578 23.8986 101.749 23.8106 101.91L23.8358 101.877C23.7553 102.061 23.6724 102.247 23.5844 102.433L23.602 102.415C23.5492 102.558 23.499 102.701 23.4462 102.847C23.3482 103.161 23.2451 103.478 23.1496 103.792C22.4107 106.196 23.2225 107.12 25.7032 106.643C27.4673 106.282 29.2961 106.405 30.9964 106.997C30.7953 106.555 30.8682 106.133 30.9964 105.665C32.3838 100.071 34.1331 94.5726 35.146 88.8805C36.1438 83.5016 36.7111 78.0518 36.8426 72.5828C36.8426 72.1055 36.5485 71.4398 37.3452 71.2113C37.4307 71.4625 37.5187 71.7136 37.5966 71.9648C37.6946 72.4095 37.7449 72.8717 38.0716 73.2208C37.9736 74.0724 38.3028 74.8737 38.3808 75.7026C38.3808 75.7956 38.3984 75.886 38.4059 75.979C38.4763 76.308 38.5466 76.6371 38.6145 76.9687C38.6145 77.1395 38.6396 77.3128 38.6497 77.4862C38.7226 77.9886 38.7955 78.4909 38.8658 78.9757L38.9111 79.7495C38.9111 80.7995 39.263 81.847 38.9613 82.902C39.0066 83.9068 39.087 84.9116 39.0971 85.9164C39.1674 93.3066 38.1068 100.559 36.4731 107.748C36.0885 109.433 35.3948 111.099 35.7819 112.897C35.8074 112.925 35.8262 112.958 35.8371 112.995C35.848 113.031 35.8506 113.069 35.8447 113.106L36.0961 113.4L36.3474 113.651L36.7068 113.829C36.7471 113.87 36.7898 113.907 36.835 113.945C37.7524 114.294 38.6145 114.113 39.5017 113.767C40.58 113.345 41.6783 112.933 42.8722 112.95H44.3802C45.1806 112.983 45.9683 113.161 46.7051 113.475L46.773 113.433L46.8333 113.485L47.6828 113.872L47.6552 113.857C47.8537 113.89 48.0674 113.887 48.1905 114.083C48.379 114.131 48.5851 114.138 48.6932 114.334L49.2512 114.56C49.2917 114.61 49.3362 114.656 49.3844 114.699H49.495L49.6056 114.711L49.9248 115.078L50.3445 115.216C50.4651 115.344 50.5958 115.467 50.7089 115.595L51.106 115.721L51.4604 116.1L51.8751 116.218L52.232 116.58L52.697 116.879L53.1344 116.969C53.4082 117.238 53.76 117.414 54.1397 117.472L54.567 117.748L55.2858 118.037C58.4803 119.253 61.6799 118.735 64.8769 118.052C68.8983 117.193 72.9198 116.691 77.0291 117.469L77.4514 117.602C78.1122 117.65 78.7582 117.82 79.3565 118.105L80.1256 118.341L80.9274 118.527L81.1008 118.198C81.1008 118.105 81.0832 118.014 81.0732 117.921L81.0355 117.434C80.8847 116.321 80.6962 115.213 80.5931 114.096C79.9356 107.081 79.8516 100.024 80.3418 92.9951C80.5655 89.7999 80.8445 86.5996 81.787 83.5048C82.1037 82.4724 82.3249 81.4073 82.5888 80.3598L82.8401 79.7671L83.0914 79.0662L83.574 77.7625C83.9535 78.0137 83.765 78.4206 83.8253 78.7673C83.4038 81.9331 83.158 85.1198 83.0889 88.3128C83.0889 88.4836 83.0889 88.6544 83.0889 88.8152C82.9381 92.1586 82.6441 95.502 83.0889 98.848C83.1065 99.3504 83.1266 99.8528 83.1442 100.368L83.3252 101.875C83.4659 105.377 84.0968 108.8 84.9514 112.192C85.5797 114.688 86.2457 117.178 86.6806 119.727L86.3488 119.823C86.2663 119.775 86.1685 119.759 86.0751 119.78C85.9818 119.801 85.8999 119.857 85.8461 119.936L85.8185 119.999L86.0698 120.036L86.3212 119.949C88.8345 120.479 91.2047 120.273 93.331 118.693C93.5772 118.208 93.6743 117.662 93.61 117.123C93.3903 115.903 93.0038 114.72 92.4614 113.606L91.9411 112.074C91.8682 111.91 91.7928 111.749 91.7199 111.586L91.6546 111.616L91.7124 111.574C91.3203 110.333 90.929 109.092 90.5386 107.851L90.4858 107.615C90.3049 106.836 90.1214 106.057 89.9404 105.279C89.7293 104.399 89.519 103.521 89.3096 102.644C89.2945 102.478 89.2819 102.309 89.2668 102.141C89.0624 100.801 88.8597 99.4617 88.6586 98.122C88.6253 98.0636 88.5976 98.0022 88.5757 97.9386C88.5757 97.911 88.6008 97.8759 88.6134 97.8432C88.4977 96.3511 88.383 94.8581 88.269 93.3643C88.2385 93.305 88.2141 93.2427 88.1961 93.1785C88.1961 93.1584 88.2338 93.1257 88.2565 93.0981C88.2439 92.8469 88.2288 92.6082 88.2162 92.3621C88.1796 92.3026 88.1493 92.2394 88.1258 92.1737C88.1258 92.1536 88.171 92.1184 88.1961 92.0908C88.1961 91.6788 88.1961 91.2643 88.1961 90.8524C88.1685 90.6991 88.1408 90.5434 88.1157 90.3902C88.1715 90.3627 88.2307 90.3424 88.2916 90.3299C88.3362 90.2618 88.3701 90.1872 88.3922 90.1088L88.0906 90.0309C88.0755 89.7973 88.0629 89.5637 88.0504 89.3301C88.0504 88.9156 88.0504 88.5012 88.0504 88.0867V87.318C88.0504 83.3893 88.0504 79.4597 88.0504 75.5293C88.0504 72.8918 88.4626 70.2868 88.7868 67.6769C88.8169 67.4458 88.734 67.0213 88.9577 67.0314C89.2945 67.0464 89.2568 67.4734 89.2844 67.7497C89.3875 68.8324 89.488 69.9151 89.5584 70.9977C90.1717 80.4025 91.5691 89.6768 94.1177 98.7651C95.5326 103.714 97.5643 108.465 100.165 112.908C100.383 113.124 100.529 113.402 100.585 113.704C100.619 113.759 100.643 113.819 100.658 113.882C102.301 114.005 103.94 114.066 105.539 113.535L105.576 113.52L105.986 113.292L106.066 113.234L106.277 113.051L106.293 113.036C107.202 111.797 106.78 110.609 106.139 109.428ZM41.0852 36.7294C41.3164 35.7246 41.6507 34.7324 41.9397 33.7351V33.6924C42.1911 32.9388 42.367 32.1702 42.7792 31.4844L42.7515 31.517C42.8407 31.0573 43.0294 30.6226 43.3045 30.2435L43.2819 30.2711C43.4377 29.9161 43.5944 29.5619 43.7519 29.2086L43.7293 29.2311L43.9982 28.7036H43.9831C44.1791 28.169 44.46 27.6694 44.815 27.2241L44.7924 27.2492L45.2498 26.4328L45.2348 26.4479L45.5841 25.9806L45.564 26.0083L45.7802 25.6666L45.745 25.6918L46.3004 24.9382L46.2753 24.9683L46.4613 24.6443L46.4764 24.6167L46.8308 24.2323L47.2756 23.6571L47.253 23.6822L47.62 23.2476L47.914 22.8909C47.914 22.8231 47.9367 22.7904 48.0045 22.7904L48.3564 22.4614L48.3363 22.484L48.6153 22.1976L49.0928 21.7279L49.6307 21.2255L50.063 20.8613L50.0303 20.9014L50.3571 20.6502L50.3194 20.6879L50.631 20.4367L50.6109 20.4518L51.0231 20.0825L51.3498 19.8891L51.3247 19.9117L51.7168 19.5776L51.7771 19.5375L52.1014 19.3817L52.0737 19.4043L52.5311 19.0727V19.0878L52.8704 18.9271C52.971 18.7211 53.1746 18.6959 53.3731 18.6507C53.4837 18.4548 53.6948 18.4397 53.8758 18.387L53.8456 18.4096L55.0395 17.8142H55.0672L55.6301 17.6283L55.5975 17.656C56.1203 17.2918 56.7386 17.2114 57.3367 17.0732V17.1059C60.53 16.1307 63.9671 16.3303 67.0259 17.6686L66.9907 17.6459C67.4497 17.7111 67.8833 17.8966 68.2474 18.1835C68.4459 18.2161 68.6495 18.2362 68.75 18.4347L69.0843 18.5603L69.5418 18.8843L69.5116 18.8567C69.6976 18.9271 69.9137 18.9547 70.0143 19.1682L70.3385 19.3516L70.3184 19.3264L70.7708 19.6807L70.7457 19.6605L71.0724 19.9117L71.0297 19.8691L71.3413 20.0474L71.3916 20.0825L71.7711 20.4367L72.0652 20.6754L72.025 20.6377L72.3492 20.8889L72.3216 20.8613L72.6106 21.0924H72.6282L73.0982 21.5244L73.1661 21.5395L73.1862 21.6048L73.5079 21.9715L73.7592 22.2227L74.1337 22.5694L74.1689 22.6071L74.3775 22.8784L74.3574 22.8633L74.6088 23.1848L74.5685 23.1471L74.8199 23.4636L74.7872 23.4285L75.0385 23.7274L75.0134 23.6998L75.2647 23.9862L75.6116 24.4408L75.5689 24.4031L75.8051 24.7322L75.785 24.7372C75.9031 24.8854 76.0238 25.0311 76.1419 25.1768L76.1118 25.1592L76.3254 25.4958C76.7496 25.9345 77.0858 26.4504 77.3157 27.0156L77.2931 26.998L77.8963 27.9325L77.8385 27.9626L77.9013 27.945C77.9842 28.0932 78.0697 28.2389 78.1526 28.3871L78.1828 28.4474C78.223 28.5605 78.2607 28.6735 78.3009 28.789L78.2984 28.7564C78.5045 29.1483 78.7098 29.5401 78.9142 29.932V29.9496L79.3364 31.0322C79.5451 31.1503 79.5249 31.3563 79.5275 31.5522C81.0531 34.9609 81.7317 38.5857 82.2771 42.2507C82.4204 43.1977 82.4807 44.1573 82.5787 45.1094C82.6946 45.3088 82.7676 45.5301 82.7932 45.7594C82.8187 45.9886 82.7962 46.2206 82.727 46.4407C82.9607 52.2559 82.6792 58.0234 81.2617 63.698C81.219 63.8123 81.1642 63.9217 81.0983 64.0245L81.131 63.9868C81.0506 64.609 80.8671 65.2134 80.5881 65.7754L80.6158 65.7377C80.5278 65.9889 80.5856 66.2978 80.3644 66.5063C80.279 66.7575 80.3368 67.059 80.1131 67.2599L79.9623 67.7975L79.9346 67.8804C79.6632 68.5209 79.5023 69.2117 79.0675 69.7769L79.0876 69.7468C79.0399 69.9402 79.0373 70.1562 78.8363 70.2743C78.791 70.4602 78.781 70.6637 78.5975 70.7767C78.5472 70.9626 78.5246 71.1686 78.3235 71.2791L77.9088 72.0879V72.1055L77.0844 73.3188L77.1121 73.2861L76.7778 73.7659V73.7533L76.539 74.0573L76.5717 74.0221L76.3204 74.3412L76.3581 74.3035L76.1419 74.62L75.7699 75.1676L75.5186 75.2957L75.3024 75.5168C75.2094 75.6147 75.1139 75.7102 75.0209 75.8057L74.5459 76.2703L74.2569 76.5366L74.2745 76.5215L74.008 76.7727C73.985 76.8386 73.9657 76.9057 73.9502 76.9737L73.3395 77.2952L73.2415 77.5163C73.1644 77.5212 73.0883 77.5364 73.0153 77.5615L72.676 77.9534L72.2763 78.089C72.1657 78.2121 72.0552 78.3403 71.9471 78.4608C71.8454 78.4688 71.7469 78.5004 71.6596 78.5531C71.5723 78.6059 71.4986 78.6784 71.4444 78.7648L71.1931 78.8954L70.6904 79.2069L70.1877 79.4756C70.1491 79.473 70.1104 79.4795 70.0746 79.4943C70.0389 79.5091 70.0071 79.5319 69.9816 79.5611L69.5769 79.6665C69.5521 79.7165 69.5209 79.7629 69.4839 79.8047L69.0165 79.8826L69.0491 79.8575L68.3831 80.1916L68.3027 80.2217L67.7623 80.3875L67.795 80.3598L67.154 80.7241L66.2593 80.8974L66.2919 80.8723L65.5706 81.1411C64.3815 81.4472 63.168 81.6489 61.9438 81.7439L61.6924 81.7615C59.0408 81.9173 56.3942 82.0404 53.8306 81.121L53.8607 81.1486L53.0665 80.8974L53.0816 80.9175L52.5789 80.7542C52.566 80.7638 52.551 80.7702 52.5352 80.773C52.5194 80.7758 52.5031 80.7748 52.4877 80.7701C52.4723 80.7655 52.4583 80.7573 52.4466 80.7463C52.4349 80.7352 52.426 80.7216 52.4205 80.7065L51.8048 80.4553L51.747 80.4327L51.0985 80.066L51.1186 80.081L50.6511 80.0006C50.5556 79.7972 50.3671 79.7695 50.1736 79.7495L49.7714 79.4003L49.0174 78.9305L48.9797 78.9104L48.555 78.707L48.1578 78.4231L48.1981 78.4558L47.8839 78.2046C47.8767 78.1394 47.8589 78.0757 47.8311 78.0162L47.63 77.9986C47.6078 77.9406 47.5942 77.8797 47.5898 77.8178L47.2857 77.5389L47.3209 77.5791L46.9564 77.3882L46.685 77.1722L46.4337 76.9386L46.2376 76.6271L45.9863 76.3558L46.0014 76.3759L45.6872 76.1623L45.4861 75.881L45.2775 75.5218L44.8703 75.2279L44.6919 74.9767L44.4707 74.6526V74.6376L44.3199 74.4367C44.3248 74.4199 44.3259 74.4023 44.3232 74.385C44.3204 74.3678 44.3139 74.3513 44.304 74.3369C44.2942 74.3225 44.2812 74.3104 44.2662 74.3016C44.2511 74.2928 44.2342 74.2874 44.2168 74.2859L43.5005 73.1555V73.1329C42.6129 71.5789 41.9078 69.9277 41.3993 68.212C40.7966 66.2297 40.3809 64.1952 40.1577 62.1355L40.2884 61.9722C39.7003 60.1661 39.8134 58.2821 39.7556 56.4308C39.5319 49.8218 39.5922 43.2228 41.0852 36.7294ZM64.794 104.633C63.0346 104.41 61.6196 103.289 60.3151 102.046C58.5557 100.365 57.4448 98.2602 56.7486 95.9391C56.633 95.5472 56.4621 94.9796 56.8265 94.7711C57.2865 94.5048 57.5378 95.075 57.754 95.3915C59.4221 97.8138 61.6176 99.8269 64.1757 101.28C64.8813 101.651 65.4853 102.189 65.935 102.847C66.1713 103.229 66.498 103.583 66.2266 104.103C65.9401 104.673 65.4424 104.643 64.794 104.633ZM69.7177 88.1721C67.1738 89.6914 64.2236 90.3912 61.2679 90.1764C58.3122 89.9615 55.4944 88.8425 53.1972 86.9714C52.427 86.3958 51.7373 85.72 51.1463 84.9618C50.8145 84.5071 50.063 84.065 50.4928 83.5074C50.9552 82.9045 51.5459 83.5601 52.0234 83.8289C54.0341 84.9517 56.0449 86.057 58.2617 86.7227C61.7566 87.8012 65.4964 87.7968 68.9888 86.7101C70.2933 86.3132 71.3615 85.5069 72.4849 84.791L72.5478 84.7181L72.5101 84.8161C72.1582 86.4137 71.0096 87.3984 69.7177 88.1721ZM48.849 100.476C47.5169 95.5096 46.7252 90.4278 45.8933 85.3737C45.8646 85.2079 45.8537 85.0395 45.8606 84.8713C45.8606 84.6377 45.7475 84.3087 46.0416 84.2158C46.3356 84.1228 46.4487 84.4469 46.5442 84.6553C47.1946 86.0131 47.7196 87.4274 48.1126 88.8805C49.5201 93.9497 50.7919 99.0691 52.7297 103.952C54.3961 108.167 56.7813 111.928 60.8178 114.357C61.1722 114.57 61.8231 114.686 61.5718 115.311C61.3531 115.842 60.7801 115.648 60.2774 115.691C57.6182 115.44 55.6075 113.985 53.921 111.943C51.1538 108.602 49.9424 104.568 48.849 100.476ZM87.6583 48.7568C86.8716 48.7819 86.9369 47.4807 86.859 46.7472C86.0748 39.5026 84.9287 32.3409 82.4053 25.4606C82.2017 24.9055 81.7166 24.4006 81.9202 23.7224C82.5611 23.9736 82.7471 24.6317 83.094 25.1316C85.6802 28.8669 86.8037 33.1272 87.5728 37.5307C88.1082 40.5928 87.9976 43.6926 88.3042 46.825C88.1233 47.4756 88.6611 48.7241 87.6583 48.7568Z" fill="#F0EDC7"/>
<path d="M24.042 101.435H24.0566V101.413L24.042 101.435Z" fill="#F0EDC7"/>
<path d="M51.0805 20.1502L51.0205 20.1252H51.0056L51.0805 20.1502Z" fill="#F0EDC7"/>
<path d="M53.3727 18.6909H53.3557C53.355 18.6973 53.355 18.7038 53.3557 18.7103L53.3727 18.6909Z" fill="#F0EDC7"/>
<path d="M48.1783 114.138L48.1632 114.118H48.1456L48.1783 114.138Z" fill="#F0EDC7"/>
<path d="M81.277 118.685L80.9955 118.479C80.9855 118.685 81.1337 118.685 81.277 118.685Z" fill="#F0EDC7"/>
<path d="M63.9722 48.8521L64.5779 49.99V50.0252L64.7916 50.3744L65.9653 51.5449L66.752 52.1152L66.7244 52.0925L67.0235 52.2056H67.1114L67.1617 52.2759C68.8406 53.0144 70.5573 53.3586 72.3619 52.7783H72.3795L73.312 52.2759L73.3622 52.2357L73.6136 52.0323L73.601 52.0499L73.8649 51.7836L73.8498 51.7987L74.2218 51.3867V51.3992L74.453 51.0877L74.4204 51.1255C74.4757 51.0149 74.531 50.9044 74.5837 50.7914L74.5988 50.7638L74.8326 50.3091L74.8451 50.2714C74.9633 50.0453 75.0789 49.8167 75.1945 49.5881L75.1719 49.6208C75.6444 47.6941 75.6419 47.6966 73.6638 47.3298C73.0204 47.2093 72.3845 47.0636 71.7461 46.928C71.7443 47.0076 71.7129 47.0836 71.6581 47.1414L71.3641 48.2317L71.2912 48.2518H71.3641C71.2434 48.405 71.1127 48.5582 70.9996 48.7139L70.8463 48.9325C70.6677 49.2062 70.41 49.4191 70.1074 49.5429H70.0697C69.4162 49.8494 68.7753 49.9298 68.167 49.4374L68.1872 49.4524C68.0587 49.4267 67.9389 49.3687 67.8391 49.2839C67.7393 49.199 67.6627 49.0902 67.6166 48.9677L67.6443 48.9878L67.4181 48.6587L67.4306 48.6813C67.0486 48.1211 66.7746 47.5434 67.1014 46.8551L67.0184 46.7848L67.0712 46.6893L67.1491 46.4205C66.1438 45.9508 64.9977 45.9357 63.9471 45.5991L63.6957 45.6368C63.5751 46.7395 63.7661 47.8097 63.9973 48.8798L63.9722 48.8521Z" fill="#F0EDC7"/>
<path d="M67.1592 46.3954V46.413L67.1894 46.4256L67.1592 46.3954Z" fill="#F0EDC7"/>
<path d="M45.755 49.7991L45.9863 50.3015L45.9586 50.2789L46.1295 50.6256L46.4512 51.0953L46.411 51.0576L46.6624 51.3817L46.881 51.6178L47.7004 52.3714C47.7339 52.3639 47.769 52.3671 47.8006 52.3806C47.8322 52.3941 47.8587 52.4173 47.8763 52.4468C48.9646 53.0798 50.1107 53.0647 51.2845 52.7507H51.3046L52.3728 52.3237L52.3426 52.3488L52.8453 52.0373L52.8076 52.075L53.1419 51.8489L53.1092 51.8765L53.4033 51.6253L54.1397 51.0501C54.3862 50.7744 54.6169 50.4851 54.8309 50.1835C55.9016 48.4753 56.5903 46.6843 56.0021 44.6245C55.9091 44.8556 55.6829 44.8882 55.4994 44.9661L55.517 44.946L54.4765 45.4158C54.3533 45.6243 54.1322 45.6041 53.9361 45.6468C53.8967 45.7246 53.8343 45.7885 53.7575 45.8298C53.6807 45.8711 53.593 45.8879 53.5063 45.8779C53.343 46.6441 53.5968 47.5157 52.9282 48.1513C52.8604 48.2291 52.79 48.307 52.7196 48.3824L52.4231 48.6336H52.4381C51.8098 49.1786 51.1362 49.3696 50.3822 48.8847C50.2278 48.8301 50.0926 48.7321 49.9927 48.6024C49.8928 48.4727 49.8326 48.3169 49.8192 48.1538C49.5678 47.9352 49.6558 47.6313 49.6483 47.3525L49.3969 47.1189C49.3254 47.1514 49.2465 47.1644 49.1682 47.1565L49.1908 47.1389C47.9543 47.5986 46.6775 47.664 45.3705 47.5986C45.1191 48.3849 45.5791 49.0405 45.7777 49.7439L45.755 49.7991Z" fill="#F0EDC7"/>
<path d="M54.4216 45.4455H54.4435V45.4333L54.4216 45.4455Z" fill="#F0EDC7"/>
<path d="M45.8535 115.49C45.1246 116.017 44.4183 115.429 43.697 115.424C42.8726 115.424 42.5383 115.648 42.8148 116.479V116.462C44.5314 116.67 46.2028 117.183 47.9446 117.231C48.1733 117.231 48.2915 117.427 48.3769 117.625L49.606 117.738C49.6618 117.688 49.7147 117.636 49.7643 117.58C49.7701 117.563 49.7715 117.545 49.7685 117.527C49.7654 117.51 49.7579 117.493 49.7467 117.479C48.573 116.582 47.3414 115.784 45.8535 115.49Z" fill="#93D2D3"/>
<path d="M80.7543 44.941L80.5934 44.74V44.6421L80.6211 43.8534L80.5356 43.8157C80.5356 43.685 80.518 43.5645 80.508 43.4188C80.2566 40.0553 79.4448 36.8047 78.4746 33.5869L78.4973 33.6121L77.2004 30.5977L77.2255 30.6253L76.9742 30.0752L76.9968 30.1078L76.7454 29.6054C76.6513 29.5278 76.5774 29.4285 76.5301 29.3161C76.4828 29.2036 76.4636 29.0814 76.474 28.9599C75.9713 28.6157 75.8155 28.0354 75.5088 27.5607C72.724 23.2602 69.1324 20.0474 63.9623 18.9396L62.6654 18.8064L60.5039 18.7914C59.0914 18.7462 57.7819 19.2184 56.4498 19.5827L56.4749 19.56L55.2182 20.1127L55.2484 20.0825L54.693 20.3337L54.7256 20.3111L54.1953 20.595L54.233 20.5698L53.7127 20.8813L53.758 20.8286L53.4312 21.0522L52.9286 21.3687L52.9738 21.3209L52.6596 21.5546L52.1595 21.8485L52.2072 21.7957L51.8905 22.0469L51.9157 22.0293L51.1893 22.6171L51.2245 22.5644L50.9078 22.8432L50.953 22.7955L50.6439 23.0743L50.6841 23.0316L50.3875 23.3205L50.4277 23.2803L50.1437 23.5566L49.8924 23.8078L49.9301 23.7701C49.8346 23.8681 49.7391 23.9661 49.6461 24.0666L49.6838 24.0238L49.3972 24.3228L49.4349 24.3001L48.7086 25.1191L48.7337 25.1467C48.724 25.1737 48.708 25.1981 48.6871 25.2178C48.6661 25.2375 48.6407 25.2518 48.6131 25.2597C47.8674 26.3566 47.1201 27.4552 46.3711 28.5554C46.1349 28.9858 45.8969 29.4154 45.6573 29.8441L45.6824 29.8164C45.3356 30.5784 44.9879 31.3379 44.6394 32.0948L44.667 32.0672C44.28 33.1624 44.006 34.2978 43.4606 35.3327L43.5486 35.3704L43.531 35.4608C42.4628 39.4624 41.6133 43.4992 41.6057 47.6615C41.5731 48.1488 41.5404 48.6387 41.5102 49.126C41.5102 49.3772 41.5102 49.6284 41.5102 49.8796V50.8969V51.6329L41.5253 52.1479V52.6503C41.5253 52.9869 41.5253 53.3235 41.5253 53.6551V53.9063L41.6233 55.1019C41.6007 55.2049 41.5806 55.308 41.558 55.4085V55.9108C41.5881 56.4132 41.6175 56.9106 41.6459 57.4029C41.7301 57.5293 41.7821 57.6743 41.7975 57.8254C41.8128 57.9764 41.791 58.1289 41.7339 58.2696C41.7792 59.0533 41.8219 59.8345 41.8671 60.6183C42.0169 60.9529 42.0742 61.3216 42.033 61.6859C42.0657 61.9371 42.1009 62.1883 42.1335 62.4395C42.3261 62.7366 42.3972 63.0963 42.3321 63.4443L42.3723 63.6954C43.159 63.0222 43.1615 63.919 43.3073 64.228C44.2384 66.2332 45.4116 68.117 46.8009 69.8372C49.1962 72.7963 52.2499 74.8411 55.741 76.2553C58.458 77.3581 61.3182 77.9308 64.2212 78.3C64.4726 78.3302 64.8646 78.2699 64.8772 78.506C64.8973 78.9255 64.4474 78.7572 64.2137 78.7999C60.8249 79.569 57.2955 79.4583 53.9616 78.4784C53.5345 78.31 53.0746 78.2412 52.6169 78.2774C54.042 79.0812 55.633 79.3224 57.2063 79.6012C58.7941 79.7544 60.3926 79.762 61.9818 79.6239C67.0337 79.0737 71.3492 77.0541 74.7498 73.2183L74.981 72.947L74.9609 72.9772L75.2123 72.6531L75.1595 72.6983L75.4108 72.3818H75.3781L75.7325 71.9372L75.7124 71.9674C75.7929 71.8568 75.8733 71.7438 75.9638 71.6333L75.9085 71.6785L76.2428 71.1761L76.2226 71.2037L76.4489 70.8671L76.3986 70.9023L76.7203 70.3999L76.6952 70.4375L77.0018 69.9226L76.9817 69.9502L77.2607 69.4302L77.2481 69.4478C77.4944 68.9337 77.7458 68.4171 78.0021 67.898L77.9745 67.9331L78.2258 67.3755L78.1931 67.4156L78.5149 66.662L78.4922 66.6897C79.6001 63.2994 80.3202 59.7947 80.6387 56.2424C80.5395 55.7904 80.5943 55.3183 80.7945 54.901C81.2067 51.5877 80.8372 48.2644 80.7543 44.941ZM50.1161 57.8777C49.8145 57.9204 49.3621 58.041 49.264 57.6265C49.1937 57.32 49.6109 57.2472 49.8647 57.1417C50.282 56.9684 50.6941 56.7925 51.1089 56.6167L51.0888 56.6368L51.6115 56.3328L51.5688 56.3579L51.8604 56.152C52.6144 55.4687 53.4614 54.896 53.9691 53.9766L53.8082 53.8158L52.6244 54.3383L52.1871 54.5016L52.2022 54.4715C51.986 54.7076 51.6819 54.6824 51.4054 54.7377L51.4255 54.6925C50.3574 55.0492 49.2917 55.1698 48.2285 54.6925L48.2662 54.7528L48.2084 54.7955C47.5088 54.7385 46.8466 54.4564 46.3209 53.9917C46.0145 53.8866 45.7501 53.6858 45.5668 53.4189L45.0868 52.9366C44.8261 52.7477 44.6345 52.4786 44.5414 52.1705L44.564 52.1981L44.2473 51.6957L44.2775 51.7359C44.1744 51.5626 44.0739 51.3892 43.9733 51.2159L43.996 51.236C43.8326 50.8869 43.6667 50.5402 43.4933 50.1911L43.526 50.2136C42.9806 49.4148 43.0233 48.4352 42.6965 47.5685C42.6764 46.6366 42.6563 45.7072 42.6337 44.7753L43.0459 43.8282L43.0233 43.8634C43.0635 43.6574 43.0811 43.4414 43.2922 43.3233L43.2696 43.356L43.5209 43.0219H43.4757C43.4843 42.9897 43.5001 42.9599 43.5218 42.9347C43.5436 42.9095 43.5708 42.8894 43.6014 42.8762C44.2599 41.8965 45.2753 41.369 46.3033 40.9319C48.072 40.1843 49.7444 39.2271 51.2848 38.0809L51.609 37.7945L53.0743 36.3275L53.3759 35.9481C53.9514 34.7996 54.4314 33.6058 54.8111 32.3786C55.0825 31.5673 55.55 31.1654 56.3644 31.8336C57.2139 33.2151 56.4825 34.4209 55.9471 35.6467L55.9748 35.6116C55.8893 35.795 55.8039 35.9808 55.7234 36.1667L55.7536 36.1265L55.4721 36.6691L55.4997 36.6289L55.1956 37.1539L55.2208 37.1238C55.1389 37.4373 54.9505 37.7125 54.6879 37.9025L54.708 37.8698L54.419 38.1612L54.4567 38.111L54.1752 38.4577C52.2273 40.525 49.9527 42.1 47.2181 42.939C46.7936 43.0531 46.4031 43.2683 46.0801 43.5662C45.757 43.8642 45.5111 44.2359 45.3633 44.6497C45.1823 45.1169 45.2577 45.3254 45.8483 45.2802C49.2112 45.0114 52.3957 44.0845 55.4897 42.7682C56.0326 42.5371 55.9723 42.1527 55.8793 41.7433C55.6631 40.893 55.298 40.0876 54.801 39.3644C54.6276 39.1007 54.2808 38.8621 54.6326 38.5129C55.0499 38.1035 55.3188 38.5129 55.5676 38.7641C56.0192 39.1352 56.3839 39.6008 56.6358 40.1281L56.9098 40.6305L57.0756 40.8817C58.3323 43.5695 58.4128 46.3352 57.6261 49.1561C56.9299 51.4546 56.0728 53.6777 54.5723 55.5943C54.3215 55.9766 53.9641 56.277 53.5443 56.4584L53.1472 56.7372L53.1799 56.7197L52.6646 57.0261L52.7023 56.996L52.162 57.2748L52.1972 57.2472C51.5763 57.6717 50.8424 57.7772 50.1161 57.8777ZM68.117 65.8658C67.3152 66.2602 66.9407 65.6146 66.6617 64.9765C65.3145 63.1352 63.6708 61.711 61.366 61.2312L60.4386 61.1558L59.4206 61.1709L57.2063 61.7863L57.234 61.7562C57.0505 61.8466 56.8695 61.9396 56.6886 62.0325L56.7288 62.0024L55.9321 62.5273L55.6807 62.7107L54.9016 63.4643L54.6502 63.7457L54.6829 63.713L54.4316 64.037L54.4743 64.0145C54.4625 64.0889 54.4219 64.1557 54.3612 64.2004C54.1752 64.5721 54.037 64.9791 53.6298 65.1875C53.5653 65.2684 53.4829 65.3332 53.3892 65.3769C53.2955 65.4207 53.1929 65.4422 53.0895 65.4397C52.986 65.4373 52.8846 65.411 52.793 65.3629C52.7014 65.3148 52.6222 65.2462 52.5616 65.1624C52.0941 64.6073 52.1695 63.9768 52.5742 63.3865L52.544 63.4267C52.6043 63.2282 52.6395 63.0147 52.8557 62.9092L52.8381 62.9393C52.921 62.8288 53.0065 62.7208 53.0894 62.6128L53.0391 62.658L53.2905 62.3415L53.2779 62.2887C53.2864 62.2644 53.3015 62.2428 53.3214 62.2264C53.3414 62.21 53.3654 62.1994 53.391 62.1958C54.4691 60.8336 55.9739 59.8729 57.6638 59.4678C58.7244 59.0985 59.8178 59.1136 60.9161 59.2166C62.7767 59.2321 64.5691 59.919 65.963 61.1508C66.3999 61.3946 66.7642 61.75 67.0186 62.1807C67.084 62.2561 67.1493 62.3339 67.2172 62.4093L67.4685 62.7032C67.8778 63.1077 68.1912 63.5987 68.3859 64.1401C68.6473 64.748 68.8886 65.4865 68.117 65.8658ZM76.3332 51.7233L76.3584 51.6807L76.0417 52.1831L76.0618 52.1579L75.6169 52.7533L75.6345 52.7256L75.265 53.1728C74.7517 53.8471 74.0438 54.3477 73.2367 54.6071L72.8044 54.7603V54.7126C70.6253 55.637 68.5317 55.0819 66.4531 54.3434C66.8125 55.1698 67.652 55.5139 68.2351 56.1143L70.0095 57.0487C70.6831 57.2019 71.3291 57.4029 71.7689 58.0033C71.0928 58.4027 70.4469 58.0159 69.7959 57.9154C69.228 57.8247 68.6828 57.626 68.1899 57.3301L68.1044 57.3125C67.6017 57.0738 67.0664 56.8729 66.6793 56.4358L66.712 56.4584L66.3852 56.2072L66.4129 56.2575L65.973 55.9083C64.7164 54.8533 63.9623 53.3964 62.9871 52.1404C62.8514 51.9243 62.7157 51.7058 62.5775 51.4897H62.5976C62.5071 51.3189 62.4141 51.1481 62.3236 50.9874H62.3512L62.0999 50.4523L62.1426 50.4674C61.7807 49.9348 61.7053 49.3093 61.5721 48.709L61.6073 48.6437L61.6751 48.6764C61.0302 46.5906 61.1189 44.347 61.9265 42.3185L61.8963 42.3512C62.0007 41.7782 62.245 41.2397 62.6076 40.7837H62.5875L62.9168 40.2813L62.8891 40.3266L63.2159 39.8242L63.4194 39.573L63.706 39.2741L63.6632 39.3167L63.9523 39.0178L63.9095 39.063L64.2086 38.7766L64.1709 38.8169L64.4675 38.5506C65.0657 38.1788 65.3925 37.8321 64.8295 37.081C64.377 36.4782 64.1735 35.692 63.8568 34.9886C63.7058 34.2809 63.6811 33.5521 63.7839 32.8358C64.0578 32.3083 64.3494 31.7557 65.0582 31.8512C65.6061 31.924 65.9002 32.3384 66.0183 32.8735C66.8402 36.5711 69.4993 38.4878 72.7743 39.7915C74.3376 40.4119 75.7903 41.1555 76.7731 42.6099C77.1828 43.0595 77.3336 43.6147 77.4844 44.1925L77.4969 44.303L77.3889 44.3331C78.2987 46.9808 77.6502 49.3973 76.3332 51.7233Z" fill="#93D2D3"/>
<path d="M46.2932 53.9665C46.3026 53.974 46.3115 53.9821 46.3198 53.9908L46.2932 53.9665Z" fill="#93D2D3"/>
<path d="M76.7153 29.5602V29.5796C76.7153 29.5796 76.7153 29.5796 76.7274 29.5796L76.7153 29.5602Z" fill="#93D2D3"/>
<path d="M64.2662 43.5769V43.5544H64.2237L64.2662 43.5769Z" fill="#93D2D3"/>
<path d="M75.7072 44.1321L75.7298 44.1573C75.5614 43.8207 75.3955 43.4816 75.2271 43.1525C73.8598 42.939 72.4976 42.6953 71.2409 42.0723C70.2132 41.7336 69.2403 41.247 68.353 40.628C66.3423 39.2891 66.1387 39.3343 64.8342 41.467C64.7463 41.6076 64.6608 41.7483 64.5829 41.8915C64.5 42.4491 63.937 42.9239 64.2687 43.5569C65.0378 43.6323 65.817 43.6549 66.5132 44.0593L66.4931 43.9864L66.566 43.9613C69.1196 44.4411 71.5676 45.3756 74.1463 45.7549C74.5896 45.8578 75.0496 45.8655 75.496 45.7775L75.677 45.5992C75.7197 45.4434 75.765 45.2876 75.8077 45.1319V44.6169C75.7599 44.4537 75.7348 44.2929 75.7072 44.1321Z" fill="#93D2D3"/>
<path d="M54.0745 53.7329C54.0519 53.7053 53.9011 53.7882 53.8081 53.8208L53.9689 53.9816C54.0619 53.9213 54.17 53.8484 54.0745 53.7329Z" fill="#93D2D3"/>
<path d="M82.5715 45.1144C82.4735 44.1623 82.4132 43.2027 82.2699 42.2557C81.7245 38.5957 81.0459 34.9709 79.5202 31.5572C79.5202 31.3612 79.5378 31.1553 79.3292 31.0372L78.907 29.9546V29.937C78.7042 29.5451 78.499 29.1532 78.2912 28.7614L78.3038 28.784C78.2635 28.6685 78.2258 28.5554 78.1856 28.4424L78.1555 28.3821C78.07 28.2339 77.9846 28.0882 77.9041 27.94L77.8413 27.9576L77.8991 27.9274L77.3085 27.0105C77.0786 26.4454 76.7424 25.9295 76.3182 25.4908L76.1146 25.1692H76.1347C76.0166 25.0235 75.8959 24.8779 75.7778 24.7296L75.7954 24.7523L75.5792 24.4509H75.6019L75.255 23.9962L75.0037 23.7123L75.0288 23.7399L74.7775 23.441L74.8102 23.4762L74.5588 23.1597L74.599 23.1974L74.3653 22.8858H74.3778L74.1692 22.6146L74.134 22.5769L73.7596 22.2302L73.5082 21.979L73.1865 21.6123L73.1664 21.547L73.0985 21.5319L72.6285 21.0999H72.6109L72.3219 20.8688L72.0228 20.6452L72.063 20.6829L71.7689 20.4442L71.3894 20.09L71.3392 20.0549L71.0275 19.8765C71.0275 19.8765 71.0275 19.8765 71.0275 19.8966L70.7586 19.7132L70.7837 19.7334L70.3313 19.3791C70.3313 19.3791 70.3313 19.3791 70.3313 19.3942L70.0247 19.2209C69.9317 19.0074 69.7155 18.9697 69.522 18.9094L69.0922 18.6055L68.7579 18.4799C68.6473 18.2739 68.4437 18.2538 68.2552 18.2287C67.8911 17.9418 67.4576 17.7563 66.9985 17.6911V17.7037C63.9459 16.3749 60.5189 16.1789 57.3346 17.151V17.1184C56.7464 17.254 56.1407 17.3369 55.6229 17.6835L55.0599 17.8694H55.0323C55.0323 17.9096 55.0097 17.9499 54.9971 17.985C55.0097 17.9499 55.0222 17.9096 55.0323 17.8694L53.8611 18.4522C53.67 18.505 53.4589 18.5201 53.3584 18.716C53.1674 18.7612 52.9638 18.7863 52.8557 18.9923L52.5214 19.1531C52.5202 19.1481 52.5202 19.1429 52.5214 19.138L52.0866 19.4545L51.7624 19.6103L51.702 19.6504L51.31 19.9846L51.3351 19.9619L51.0084 20.1554L50.5962 20.5246L50.3046 20.7758L50.3423 20.7381L50.0407 20.9642V20.9441L49.6084 21.3084L49.073 21.7982L48.5955 22.2679L48.3442 22.5342L47.9923 22.8633C47.9244 22.8633 47.8968 22.8959 47.9018 22.9637L47.6103 23.3205L47.2433 23.755L46.8185 24.3051L46.4641 24.6895L46.4491 24.7171L46.2631 25.0411L46.2882 25.011L45.7327 25.7646H45.7529C45.685 25.8701 45.6171 25.9756 45.5518 26.0836L45.5719 26.056L45.2225 26.5232C45.0742 26.792 44.9234 27.0583 44.7726 27.3271C44.428 27.7667 44.1541 28.2574 43.9608 28.7815L43.7095 29.3039H43.7246C43.5687 29.6539 43.4146 30.0023 43.2621 30.349C42.9972 30.725 42.8155 31.1532 42.7293 31.6049H42.7443C42.3422 32.2832 42.1587 33.0468 41.9174 33.7878V33.8305C41.6284 34.8353 41.2941 35.815 41.0629 36.8248C39.5699 43.3183 39.5096 49.9172 39.7207 56.5262C39.7785 58.3776 39.6654 60.2615 40.2536 62.0677L40.1229 62.2309C40.346 64.2907 40.7617 66.3251 41.3645 68.3074C41.873 70.0231 42.578 71.6743 43.4657 73.2283V73.2509L44.182 74.3813C44.1994 74.3828 44.2162 74.3882 44.2313 74.3971C44.2464 74.4059 44.2593 74.4179 44.2692 74.4323C44.279 74.4467 44.2856 74.4632 44.2883 74.4804C44.2911 74.4976 44.2899 74.5153 44.285 74.532L44.4358 74.733V74.7481L44.657 75.0721L44.8355 75.3233L45.2502 75.6348L45.4588 75.994L45.6599 76.2753L45.974 76.4889L46.2028 76.7401L46.3988 77.0516L46.6501 77.2852L46.9216 77.5012L47.286 77.6921C47.286 77.6921 47.286 77.6921 47.286 77.6796L47.56 77.9307C47.5644 77.9927 47.578 78.0536 47.6002 78.1116L47.8013 78.1292C47.8291 78.1887 47.8469 78.2523 47.8541 78.3176L48.1682 78.5688L48.128 78.5361L48.5251 78.82L48.9499 79.0235L48.9876 79.0435L49.7416 79.5133L50.1437 79.8624C50.3373 79.88 50.5258 79.9077 50.6213 80.1136L51.0762 80.184L51.7071 80.5407L51.7649 80.5633L52.3807 80.8145C52.3861 80.8296 52.395 80.8432 52.4067 80.8543C52.4184 80.8653 52.4325 80.8735 52.4478 80.8782C52.4632 80.8828 52.4795 80.8837 52.4953 80.881C52.5111 80.8782 52.5261 80.8718 52.539 80.8622L53.0417 81.0255C53.0417 81.0255 53.0417 81.0255 53.0417 81.0079L53.8284 81.2591V81.2365C56.3845 82.1508 59.0286 82.0278 61.6727 81.872L61.924 81.8544C63.1482 81.7594 64.3617 81.5577 65.5508 81.2516L66.2546 81.0004L66.2395 81.0205L67.1343 80.8472L67.7475 80.498L68.2879 80.3322L68.3683 80.302L69.0092 79.9805V79.9931L69.4767 79.9152C69.5137 79.8734 69.5449 79.827 69.5697 79.7771L69.9744 79.6715C69.9998 79.6424 70.0317 79.6196 70.0674 79.6047C70.1032 79.5899 70.1419 79.5836 70.1805 79.5862H70.1679L70.6706 79.3123L70.6555 79.3249L71.1808 79.0059L71.4322 78.8753C71.4864 78.7889 71.5601 78.7164 71.6474 78.6636C71.7347 78.6108 71.8331 78.5792 71.9348 78.5713C72.0429 78.4457 72.1535 78.3201 72.2641 78.1995L72.6637 78.0639L73.003 77.672C73.076 77.6468 73.1521 77.6317 73.2292 77.6268L73.3273 77.4057L73.938 77.0842C73.9534 77.0162 73.9727 76.9491 73.9958 76.8833L74.2622 76.6321L74.5362 76.3809L75.0112 75.9161C75.1042 75.8207 75.1997 75.7253 75.2927 75.6273L75.5089 75.4062L75.7602 75.2781L76.1322 74.728L76.3483 74.4115L76.3106 74.4491L76.562 74.1301L76.5293 74.1653L76.7605 73.8689L77.0948 73.3891L77.9016 72.2034V72.1858L78.3163 71.377C78.5174 71.274 78.54 71.068 78.5903 70.8746C78.7738 70.754 78.7838 70.5505 78.8291 70.3722C79.0251 70.2541 79.0276 70.0381 79.0804 69.8447C79.5001 69.2845 79.661 68.6063 79.9274 67.9783L79.9551 67.8954L80.1059 67.3578C80.3321 67.1594 80.2743 66.8554 80.3572 66.6042C80.5834 66.3957 80.5256 66.0893 80.6085 65.8356C80.8755 65.2809 81.0528 64.6874 81.1338 64.0772L81.1087 64.0998C81.173 64.0026 81.2253 63.8981 81.2645 63.7883C82.6821 58.1138 82.9636 52.3463 82.7298 46.5311C82.551 46.0815 82.4963 45.5923 82.5715 45.1144ZM56.201 17.7288C56.005 17.7288 55.8014 17.6961 55.6028 17.6835C55.8064 17.7036 56.01 17.7288 56.206 17.7363L56.201 17.7288ZM74.0084 76.5441C74.0687 76.5065 74.1994 76.5441 74.2748 76.524C74.1969 76.5542 74.0662 76.514 74.0059 76.5517L74.0084 76.5441ZM79.0653 69.7593C79.0879 69.5382 79.093 69.3122 79.1181 69.0936C79.0905 69.3147 79.0854 69.5407 79.0527 69.7618L79.0653 69.7593ZM80.6161 56.2499C80.2976 59.8022 79.5775 63.3069 78.4696 66.6972H78.4822C78.3792 66.9484 78.2736 67.1996 78.1706 67.4508H78.1907L77.9544 67.9783H77.967L77.2406 69.5005C77.1526 69.6688 77.0621 69.8372 76.9717 70.0029L76.6826 70.4902L76.3835 70.955H76.4187L76.2076 71.2665L76.2277 71.2389L75.8934 71.7413H75.9236L75.725 72.01L75.3706 72.4546H75.4008L75.1495 72.7686L75.2022 72.7234L74.9509 73.0249C74.9308 73.1002 74.9811 73.2334 74.9509 73.2962C74.9861 73.2334 74.9358 73.1002 74.9509 73.0249L74.7197 73.2962C71.3191 77.132 67.0036 79.1516 61.9517 79.7017C60.3625 79.8398 58.764 79.8322 57.1762 79.6791C55.6028 79.4002 54.0194 79.1591 52.5968 78.3628C52.4979 78.3722 52.3983 78.3536 52.3094 78.3092C52.2206 78.2648 52.146 78.1963 52.0941 78.1116C51.9956 78.1179 51.8972 78.098 51.8088 78.0539C51.7205 78.0098 51.6455 77.943 51.5915 77.8604L51.0888 77.6092L50.5861 77.3304C46.8638 75.1349 44.6595 71.7789 43.2973 67.7849C43.149 67.3554 42.9881 66.9283 42.8323 66.5013C42.782 66.2049 42.8323 65.8733 42.581 65.6447L42.6312 65.6045L42.5986 65.5517C42.5558 65.3533 42.6413 65.0921 42.3472 65.0142H42.3874C42.596 64.5947 42.2065 64.1978 42.3422 63.7808L42.302 63.5296C42.2576 63.5012 42.2239 63.4587 42.2065 63.409C42.1713 63.1151 42.1386 62.8237 42.1034 62.5323C42.0707 62.2811 42.0356 62.0299 42.0029 61.7787C41.9409 61.7787 41.878 61.7787 41.8144 61.7787L41.837 60.7187C41.7918 59.935 41.749 59.1537 41.7038 58.37C41.5761 58.0997 41.5451 57.7938 41.6158 57.5034C41.589 57.001 41.5597 56.5036 41.5279 56.0113V55.5089C41.5505 55.4084 41.5706 55.3054 41.5932 55.2024L41.4952 54.0067C41.4702 53.9499 41.45 53.8911 41.4349 53.8309C41.4349 53.8108 41.4726 53.7806 41.4927 53.7555C41.4927 53.4189 41.4927 53.0823 41.4927 52.7507C41.4522 52.7225 41.4192 52.6849 41.3964 52.6411C41.3736 52.5974 41.3617 52.5488 41.3617 52.4995C41.3617 52.4502 41.3736 52.4016 41.3964 52.3579C41.4192 52.3141 41.4522 52.2766 41.4927 52.2483L41.4776 51.7334C41.3822 51.6346 41.3289 51.5026 41.3289 51.3653C41.3289 51.2281 41.3822 51.0962 41.4776 50.9974V49.98C41.4268 49.9313 41.3864 49.8727 41.3588 49.808C41.3312 49.7432 41.317 49.6736 41.317 49.6032C41.317 49.5328 41.3312 49.4632 41.3588 49.3984C41.3864 49.3337 41.4268 49.2752 41.4776 49.2264C41.5077 48.7391 41.5404 48.2492 41.5731 47.7619C41.5731 43.5946 42.4302 39.5629 43.4983 35.5613L43.5159 35.4708L43.428 35.4332C43.9734 34.4008 44.2473 33.2654 44.6344 32.1676L44.6093 32.1952L45.6498 29.9169L45.6347 29.9294L46.3385 28.6559C47.0875 27.559 47.8348 26.4604 48.5804 25.3602C48.6081 25.3523 48.6334 25.3379 48.6544 25.3182C48.6754 25.2985 48.6914 25.2742 48.7011 25.2471L48.6759 25.2195L49.4023 24.4006H49.3847L49.6511 24.1243L49.6134 24.167C49.7064 24.0665 49.8019 23.9685 49.8974 23.8706L49.8597 23.9082L50.1111 23.657L50.3951 23.3807L50.3549 23.4209L50.6515 23.1321L50.6112 23.1748L50.9204 22.8959L50.8751 22.9437L51.1617 22.6925C51.1629 22.7016 51.1629 22.7109 51.1617 22.7201L51.888 22.1322L52.1394 21.9238V21.9438L52.6245 21.6148L52.8959 21.4139V21.4315L53.3986 21.1149L53.6826 20.9215L53.67 20.9516L54.1551 20.6603L54.6578 20.3915L55.1906 20.1528V20.1704L56.4473 19.6278C56.446 19.6319 56.446 19.6363 56.4473 19.6404C57.7794 19.2762 59.0889 18.8039 60.5014 18.8491L62.6629 18.8642L63.9599 18.9973C69.1299 20.1051 72.7215 23.3179 75.5064 27.6184C75.813 28.0932 75.9739 28.6735 76.4715 29.0176C76.4611 29.1391 76.4804 29.2613 76.5276 29.3738C76.5749 29.4862 76.6488 29.5856 76.7429 29.6632C76.8259 29.824 76.9063 29.9872 76.9943 30.1505C77.0797 30.3289 77.1627 30.5097 77.2456 30.688L77.223 30.673L78.5124 33.6873L78.4973 33.6748C79.4675 36.8927 80.2717 40.1431 80.5306 43.5067C80.5306 43.6398 80.5507 43.7729 80.5583 43.9036L80.6437 43.9412C80.875 44.2803 80.8272 44.6546 80.782 45.0289C80.8649 48.3523 81.2344 51.6756 80.797 54.9989C80.844 55.4256 80.7809 55.8571 80.6136 56.2524L80.6161 56.2499Z" fill="#1D2831"/>
<path d="M67.4709 62.6931L67.2196 62.4017C67.1517 62.3264 67.0864 62.2485 67.021 62.1732C66.7666 61.7425 66.4023 61.387 65.9654 61.1432C64.5715 59.9114 62.7791 59.2245 60.9185 59.209C59.8202 59.1136 58.7269 59.0985 57.6662 59.4602C55.9763 59.8653 54.4716 60.8261 53.3934 62.1882C53.3679 62.1919 53.3438 62.2024 53.3238 62.2188C53.3039 62.2352 53.2888 62.2568 53.2803 62.2812L53.2929 62.3339L53.0416 62.6504L53.0918 62.6052L52.8581 62.9066C52.6419 63.0121 52.6067 63.2257 52.5464 63.4241C52.1619 64.0044 52.099 64.6198 52.5464 65.1649C52.6071 65.2487 52.6863 65.3173 52.7778 65.3654C52.8694 65.4135 52.9709 65.4398 53.0743 65.4422C53.1777 65.4446 53.2803 65.4232 53.374 65.3794C53.4678 65.3357 53.5501 65.2709 53.6146 65.19C54.0218 64.9815 54.16 64.5746 54.346 64.2028C54.4067 64.1582 54.4474 64.0914 54.4591 64.017H54.429L54.6803 63.713L54.6476 63.7457L54.899 63.4643L55.6781 62.7107L55.9295 62.5273L56.6835 62.0249L57.2188 61.7512L57.2012 61.7788L59.4155 61.1633L60.4334 61.1482L61.3609 61.2236C63.6657 61.7084 65.3094 63.1277 66.6566 64.969C66.9356 65.6095 67.3101 66.2526 68.1119 65.8582C68.9136 65.4638 68.6422 64.7404 68.3833 64.1224C68.1891 63.5842 67.8775 63.096 67.4709 62.6931Z" fill="#1D2831"/>
<path d="M77.4694 44.3104L77.4568 44.1999C77.306 43.6322 77.1552 43.067 76.7456 42.6174C75.7754 41.1629 74.3101 40.4194 72.7467 39.7989C69.4793 38.4952 66.8126 36.5786 65.9908 32.881C65.8726 32.3459 65.5786 31.9315 65.0306 31.8586C64.3219 31.7632 64.0253 32.3158 63.7564 32.8433C63.6536 33.5596 63.6782 34.2884 63.8292 34.9961C64.1459 35.6994 64.3495 36.4856 64.8019 37.0885C65.3649 37.8421 65.0382 38.1863 64.44 38.558L64.1434 38.8243L64.1811 38.7841L63.882 39.0705L63.9247 39.0252L63.6357 39.3242L63.6784 39.2815L63.3919 39.5779L63.1883 39.8291L62.8892 40.2862L62.56 40.7886H62.5801C62.2175 41.2446 61.9731 41.7831 61.8688 42.3561L61.8939 42.3361C61.088 44.3605 60.9994 46.5995 61.6426 48.6813L61.5747 48.6486L61.5395 48.7139C61.6728 49.3193 61.7482 49.9448 62.1101 50.4723L62.0674 50.4572L62.3187 50.9898H62.291C62.3815 51.1631 62.4745 51.3339 62.565 51.4922H62.5449C62.6831 51.7082 62.8189 51.9268 62.9546 52.1428C63.9298 53.4189 64.6863 54.8683 65.9405 55.9108L66.3803 56.2599V56.2248L66.6618 56.4458C67.0489 56.8829 67.5817 57.0838 68.0869 57.3225L68.1724 57.3401C68.6654 57.636 69.2106 57.8347 69.7784 57.9254C70.4294 58.0259 71.0753 58.4127 71.7514 58.0133C71.3242 57.4129 70.6782 57.2119 69.9921 57.0587L68.2453 56.1368C67.6622 55.5365 66.8227 55.1923 66.4633 54.3659C68.5444 55.1044 70.6355 55.6595 72.8146 54.7351V54.7829L73.2469 54.6296C74.0539 54.3702 74.7619 53.8696 75.2752 53.1953L75.6271 52.7708L76.072 52.1754L76.3736 51.673C77.678 49.362 78.3214 46.9556 77.3789 44.3305L77.4694 44.3104ZM63.9725 48.8521C63.9725 48.9953 63.9725 49.1435 63.9725 49.2842C63.9725 49.141 63.9851 48.9928 63.9725 48.8521ZM75.1898 49.6132L75.2074 49.5906L74.863 50.2639L74.8505 50.3015L74.6167 50.7562L74.6016 50.7838C74.5489 50.8968 74.4936 51.0074 74.4383 51.1179L74.4709 51.0803L74.2472 51.3817L73.8753 51.7936L73.639 52.0448L73.3877 52.2483L73.3374 52.2885L72.4049 52.7909H72.3873C70.5827 53.3736 68.8686 53.0295 67.1871 52.2885L67.1369 52.2181H67.0489L66.7498 52.1051L66.7774 52.1277L65.9908 51.5575L64.817 50.3869L64.6034 50.0377V50.0026L64.0102 48.8872C63.779 47.8171 63.588 46.7471 63.7086 45.6443L63.9599 45.6067C65.0105 45.9433 66.1466 45.9583 67.162 46.4281L67.0841 46.6968L67.0313 46.7923L67.1142 46.8626C66.7875 47.5509 67.0615 48.1186 67.4435 48.6888C67.5088 48.7868 67.5742 48.8822 67.6421 48.9777H67.627C67.6731 49.1003 67.7496 49.2091 67.8494 49.2939C67.9493 49.3787 68.0691 49.4367 68.1975 49.4625C68.7982 49.9373 69.4341 49.8594 70.08 49.5555H70.1177C70.4203 49.4316 70.678 49.2188 70.8567 48.9451L71.01 48.7265C71.1306 48.5708 71.2613 48.4175 71.3744 48.2643H71.3015L71.3744 48.2442L71.6685 47.154C71.7233 47.0962 71.7546 47.0201 71.7565 46.9405C72.3949 47.0761 73.0308 47.2218 73.6742 47.3424C75.6547 47.6891 75.6572 47.6865 75.1847 49.6057L75.1898 49.6132ZM75.6673 45.5941L75.4863 45.7724C75.0399 45.8604 74.5799 45.8527 74.1367 45.7498C71.5579 45.3705 69.1099 44.4361 66.5563 43.9563L66.4834 43.9814L66.5035 44.0542C65.8073 43.6473 65.0281 43.6247 64.259 43.5518C63.9273 42.9188 64.4903 42.4441 64.5732 41.8864C64.6587 41.7432 64.7441 41.6026 64.8245 41.4619C66.139 39.3292 66.3326 39.284 68.3433 40.6229C69.2306 41.2419 70.2035 41.7285 71.2312 42.0673C72.4879 42.6902 73.8501 42.9339 75.2174 43.1474L75.7075 44.1522H75.695C75.7226 44.313 75.7477 44.4737 75.7729 44.632V45.1469C75.7503 45.2826 75.705 45.4383 75.6623 45.5865L75.6673 45.5941Z" fill="#1D2831"/>
<path d="M52.6622 57.0009L53.1774 56.6945L53.5494 56.4433C53.9692 56.2618 54.3266 55.9614 54.5774 55.5792C56.0854 53.6651 56.9349 51.4394 57.6312 49.141C58.4178 46.32 58.3274 43.5543 57.0807 40.8665L56.9148 40.6153L56.6409 40.1129C56.3889 39.5857 56.0243 39.1201 55.5727 38.749C55.3213 38.5128 55.0549 38.0984 54.6377 38.4978C54.2858 38.8419 54.6377 39.0855 54.8061 39.3493C55.3031 40.0724 55.6682 40.8778 55.8843 41.7281C55.9773 42.1376 56.0377 42.5219 55.4948 42.753C52.4008 44.0643 49.2113 44.9912 45.8534 45.265C45.2628 45.3102 45.1874 45.1017 45.3683 44.6345C45.5162 44.2208 45.7621 43.849 46.0852 43.5511C46.4082 43.2532 46.7987 43.0379 47.2232 42.9238C49.9578 42.0848 52.2324 40.5099 54.1803 38.4425L54.4618 38.0958L54.4241 38.146L54.693 37.8748C54.9556 37.6848 55.144 37.4095 55.2258 37.0961C55.3239 36.9303 55.4194 36.7645 55.5149 36.5937C55.6003 36.4228 55.6883 36.2545 55.7662 36.0913H55.7537L56.005 35.5688H55.9899C56.5228 34.3505 57.2466 33.1523 56.3946 31.7833C55.5802 31.1151 55.1127 31.517 54.8413 32.3283C54.4616 33.5555 53.9816 34.7493 53.4061 35.8978L53.1045 36.2772L51.6392 37.7442L51.315 38.0305C49.7747 39.1767 48.1022 40.134 46.3335 40.8816C45.3055 41.3237 44.2901 41.8462 43.6316 42.8259C43.601 42.8391 43.5738 42.8591 43.5521 42.8843C43.5303 42.9096 43.5145 42.9394 43.5059 42.9716H43.5511L43.33 43.2755C43.1188 43.3936 43.1012 43.6096 43.061 43.8156L42.6614 44.735C42.684 45.6669 42.7041 46.5963 42.7242 47.5283C43.0434 48.3899 43.0108 49.3645 43.5436 50.1608H43.521C43.6818 50.505 43.8452 50.8466 44.0086 51.1908H43.991L44.2725 51.673L44.5741 52.1604C44.6672 52.4685 44.8588 52.7376 45.1195 52.9265L45.5996 53.4088C45.7828 53.6757 46.0472 53.8765 46.3536 53.9815C46.8793 54.4463 47.5416 54.7284 48.2411 54.7854L48.2989 54.7427L48.2612 54.6824C49.3244 55.1647 50.3901 55.0441 51.4583 54.6824L51.4382 54.7276C51.7121 54.6723 52.0112 54.6974 52.2249 54.4764C52.2237 54.4839 52.2237 54.4915 52.2249 54.499L52.6622 54.3358L53.846 53.8133C53.939 53.7806 54.0973 53.6977 54.1124 53.7253C54.2104 53.8409 54.0998 53.9137 54.0068 53.9765C53.5042 54.8909 52.6421 55.4687 51.8981 56.1519L51.6066 56.3579L51.1441 56.6266C50.7294 56.8025 50.3172 56.9783 49.9 57.1517C49.6486 57.2572 49.2289 57.33 49.2993 57.6365C49.3923 58.0459 49.8497 57.9253 50.1513 57.8877C50.8651 57.7897 51.5865 57.6842 52.1997 57.2521L52.7024 57.0009C52.7024 57.0009 52.6622 56.9959 52.6622 57.0009ZM43.056 43.8407C42.968 45.5815 43.1817 47.2997 43.3953 49.0204C43.1842 47.2997 42.9706 45.5866 43.0585 43.8407H43.056ZM53.386 51.6454L53.0945 51.8966L53.1272 51.869L52.823 52.075V52.0574L52.3455 52.3538L51.2773 52.7808H51.2572C50.0834 53.0948 48.9373 53.1099 47.849 52.4769C47.8314 52.4474 47.8049 52.4243 47.7733 52.4108C47.7417 52.3972 47.7066 52.394 47.6731 52.4015L46.8537 51.6479L46.6351 51.4118L46.4189 51.1179H46.4365L46.1148 50.6481L45.9514 50.3191H45.9715L45.7403 49.8167V49.7891C45.5418 49.0857 45.0944 48.4301 45.3331 47.6438C46.6275 47.7091 47.9068 47.6438 49.1384 47.1891C49.2166 47.197 49.2956 47.184 49.3671 47.1515L49.6185 47.3851C49.6185 47.6639 49.528 47.9679 49.7894 48.1865C49.8028 48.3496 49.863 48.5053 49.9629 48.635C50.0628 48.7647 50.198 48.8628 50.3524 48.9174C51.1064 49.3947 51.775 49.2038 52.4008 48.6662L52.6848 48.415C52.7552 48.3397 52.8256 48.2618 52.8934 48.1839C53.562 47.5484 53.3081 46.6767 53.4715 45.9106C53.5582 45.9205 53.6458 45.9037 53.7227 45.8624C53.7995 45.8211 53.8618 45.7573 53.9013 45.6795C54.0973 45.6368 54.3185 45.6569 54.4417 45.4484L55.4671 44.9862C55.4669 44.9904 55.4669 44.9945 55.4671 44.9987C55.6607 44.9208 55.8869 44.8882 55.9698 44.6571C56.5655 46.7169 55.8693 48.5079 54.7986 50.2161C54.5846 50.5177 54.3539 50.807 54.1074 51.0827L53.386 51.6454Z" fill="#1D2831"/>
<path d="M84.0797 17.6835L84.0972 17.7035L84.1122 17.7185L84.0797 17.6835Z" fill="#1D2831"/>
<path d="M108.535 109.712C108.494 109.699 108.453 109.684 108.414 109.667C108.359 109.564 108.301 109.464 108.243 109.361H108.271C108.17 108.984 107.966 108.643 107.683 108.376L107.18 107.622L106.941 107.308L105.433 104.867C105.161 104.597 104.965 104.26 104.865 103.89L104.883 103.91C104.199 103.055 103.842 102.016 103.299 101.081C103.231 100.858 103.161 100.634 103.093 100.41L102.807 99.9934C102.699 99.7648 102.591 99.5338 102.48 99.3052H102.498L101.995 98.0291H102.015C101.904 97.7779 101.955 97.4764 101.721 97.2755C101.64 96.7448 101.461 96.2338 101.193 95.7683L101.206 95.7809C100.978 94.6622 100.641 93.5685 100.2 92.5153H100.215C100.174 91.9796 100.025 91.4577 99.7781 90.9804L99.8359 90.9529L99.8233 90.8901C99.7228 90.5811 99.6248 90.2746 99.5267 89.9656L99.5644 89.9028C99.3734 89.4908 99.5066 88.9784 99.1673 88.6117V88.5237C98.8506 86.7654 98.5331 85.007 98.2148 83.2486C98.1243 82.6591 98.0346 82.073 97.9458 81.4902L97.1038 76.2352L97.0812 75.984H96.8902C96.8902 75.7328 96.9028 75.464 96.9103 75.2052C96.8701 74.7029 96.8274 74.2004 96.7872 73.6981L96.6665 73.1957L96.5157 71.4223L96.4328 71.156C96.4051 70.4401 96.38 69.7267 96.3523 69.0132C96.1705 68.6915 96.1133 68.3143 96.1915 67.9532C95.9435 64.6039 95.6922 61.2605 95.4375 57.9229C95.3235 56.6652 95.2087 55.4093 95.0931 54.1549L95.0705 53.6299C95.0152 53.1878 94.9574 52.7432 94.9021 52.2986L94.8719 51.6731C94.8895 51.4872 94.9071 51.3013 94.9272 51.1154L94.4422 44.612C94.4422 44.519 94.4422 44.4261 94.4246 44.3306C94.1456 41.6478 93.8088 38.9701 93.3136 36.3149L93.1729 35.9381C93.1469 35.1839 92.9807 34.4411 92.6828 33.7477C92.6906 33.7555 92.7 33.7615 92.7104 33.7652C92.6451 33.514 92.5823 33.2402 92.5194 32.9765V32.8911L92.3586 32.5444C91.7267 29.8263 90.7281 27.2066 89.3903 24.7573C89.1766 24.3554 88.9906 23.9384 88.7921 23.5289L88.8071 23.544L88.493 23.0416L88.5131 23.0617C88.4125 22.9261 88.3095 22.7904 88.209 22.6523L88.1612 22.5694L87.5354 21.5143L86.9849 20.7607L87.0302 20.7934L86.7914 20.4769L86.4446 20.1227L86.4094 20.0674L86.2133 19.7786L86.246 19.8062L85.7936 19.241C85.7232 19.2209 85.6553 19.2008 85.585 19.1757L85.0848 18.7085C85.1074 18.8265 85.0999 18.9597 85.1275 19.0777C85.0999 18.9672 85.1074 18.8265 85.0848 18.7085L84.8335 18.4372L84.8661 18.4698L84.5821 18.2061L84.3308 17.9549L84.0795 17.7037L83.8281 17.4525L83.8633 17.4901L83.5768 17.1963L83.3481 16.9877L83.0691 16.7365C82.9962 16.7139 82.8655 16.7542 82.8052 16.7165C82.8655 16.7542 82.9962 16.7164 83.0691 16.7365L83.3481 16.9877C83.3218 16.9174 83.3008 16.8452 83.2852 16.7717C83.2149 16.76 83.1445 16.745 83.0741 16.7265C83.0515 16.6562 83.0289 16.5859 83.0037 16.5155C82.9406 16.5126 82.8776 16.5058 82.8152 16.4954C82.7977 16.4349 82.7875 16.3725 82.7851 16.3095L81.5535 15.4831C81.5277 15.4213 81.5108 15.3562 81.5032 15.2896C81.4325 15.2796 81.3611 15.2746 81.2896 15.2746L81.3198 15.1842C81.2731 15.1922 81.2276 15.2057 81.184 15.2243L80.8171 14.9731L80.332 14.6366C80.332 14.6366 80.332 14.6491 80.332 14.6567L80.0656 14.4658C79.8651 14.2207 79.5925 14.0449 79.2864 13.9634L78.4796 13.3705L77.9443 13.0414L77.9719 13.0691L77.5346 12.9636C77.504 12.9035 77.4828 12.8392 77.4718 12.7727L77.0294 12.7099C77.0013 12.6521 76.9794 12.5914 76.9641 12.529C76.8984 12.529 76.8329 12.5341 76.768 12.5441L76.5292 12.4687C76.4893 12.4138 76.4635 12.35 76.4538 12.2828L76.0165 12.1271C75.9579 12.1309 75.8992 12.1309 75.8406 12.1271C75.826 12.0693 75.8023 12.0141 75.7702 11.9638L75.2851 11.896L74.697 11.5242L73.85 11.3107L73.8248 11.3283C68.2099 9.44434 62.5498 9.2157 56.8368 10.8409L56.7991 10.8058L56.4272 10.8736C55.4972 11.2354 54.4893 11.3886 53.6272 11.9287C53.2406 11.9737 52.8734 12.1221 52.5641 12.3582V12.3431C51.9587 12.5489 51.3876 12.8444 50.87 13.2198L50.3674 13.4861C46.9843 15.3952 44.1543 17.8996 42.043 21.1853L41.6635 21.6399L41.6484 21.6575L41.01 22.7452C40.7235 23.2074 40.4345 23.6671 40.1479 24.1268L40.1228 24.1846L39.889 24.589L39.8363 24.6267V24.6895C39.6402 25.1266 39.4425 25.562 39.2431 25.9957C39.0471 26.1138 39.032 26.3173 38.9918 26.5132C38.7228 26.6991 38.7706 27.0356 38.6248 27.2818L38.5419 27.5481C35.9506 33.7275 34.4903 40.1883 33.7187 46.8225L33.7413 47.3776C33.6861 47.3826 33.6306 47.3826 33.5754 47.3776C33.3609 48.8848 33.1481 50.392 32.937 51.8991L31.1776 64.9614C31.1952 65.1398 31.2103 65.3181 31.2254 65.4965C31.16 65.823 31.0972 66.1471 31.0344 66.4736L30.9741 67.4985C30.9741 67.7372 30.9741 67.9783 30.9741 68.217C31.2631 67.8502 31.2254 67.4383 31.2078 67.0288C31.2329 67.4383 31.2631 67.8502 30.9741 68.217C30.9741 68.3049 30.9741 68.3928 30.9565 68.4682H30.7654C30.6448 69.3926 30.525 70.3136 30.406 71.2313L30.2577 72.7234C30.2577 72.8917 30.2401 73.06 30.2301 73.2258L30.0039 74.733C30.0039 74.8184 30.0039 74.9038 29.9863 74.9842C29.9687 75.0646 29.936 75.1399 29.9159 75.2203C29.951 75.363 29.9543 75.5117 29.9256 75.6558C29.8969 75.7998 29.837 75.9359 29.75 76.0543C29.6143 77.8931 29.2172 79.6916 28.8729 81.4952L28.7371 81.8745C28.4858 84.1353 27.7645 86.2755 27.3171 88.4861L27.3422 88.4685L27.0909 89.0337L26.9476 89.3326C26.9476 89.8877 26.6963 90.365 26.4977 90.8574C26.4324 91.1086 26.4977 91.4125 26.2464 91.611C26.1609 91.8622 26.2137 92.1586 25.9724 92.3495C25.8442 92.8267 25.7211 93.3015 25.5853 93.7763L25.2109 94.354C25.0902 94.7484 24.9595 95.1428 24.8464 95.5397L24.213 96.6349L24.2306 96.6148L23.9592 97.1348L23.9768 97.1172L23.7053 97.6422L23.7204 97.6296C23.7208 97.667 23.713 97.7039 23.6973 97.7378C23.6816 97.7717 23.6586 97.8017 23.6299 97.8256C23.5043 98.127 23.3786 98.426 23.2504 98.7274V98.745C23.1247 99.0213 22.9991 99.2976 22.8709 99.5739C22.7804 99.7397 22.6899 99.9055 22.602 100.076C22.0817 100.802 21.8203 101.654 21.476 102.463L21.4986 102.541C20.83 104.394 20.1665 106.246 21.7851 107.969H21.7725C21.8371 108.079 21.9235 108.174 22.0264 108.248C22.1293 108.323 22.2465 108.376 22.3707 108.404C22.5492 108.675 22.8734 108.655 23.1247 108.725C23.1985 108.817 23.3 108.883 23.4142 108.912C23.5284 108.942 23.6491 108.933 23.7581 108.888C24.2935 108.888 24.8414 108.981 25.3591 108.888C26.7516 108.637 28.1239 108.527 29.5238 108.856L30.0265 108.949L31.5345 109.481C31.8298 109.718 32.1798 109.877 32.5525 109.943L33.0551 110.212L33.8092 110.687C33.8092 111.104 33.7891 111.523 33.7815 111.943C33.9901 115.241 36.0159 116.746 39.311 116.025C39.967 115.879 40.3515 115.841 40.4118 116.748C40.4402 117.148 40.5917 117.529 40.8455 117.84C41.0993 118.15 41.443 118.374 41.8294 118.482C42.4477 118.961 43.1942 119.069 43.9281 119.21C46.9755 119.764 50.0817 119.922 53.1698 119.682H53.4161L54.5522 120.114L54.61 120.072C55.4494 120.649 56.4473 120.682 57.3998 120.875L58.4353 120.938C59.4728 121 60.5138 120.964 61.5444 120.83C65.0355 120.34 68.4487 119.358 71.9875 119.182H72.5078C74.2596 119.233 76.0003 119.479 77.698 119.913C79.857 120.416 81.8802 121.328 84.0342 121.81C84.1029 121.878 84.188 121.928 84.2813 121.954C84.3746 121.98 84.473 121.981 84.5671 121.958L85.218 122.141L85.3035 122.119L85.2859 122.031C88.1059 122.77 90.8153 122.393 93.4695 121.262C93.4966 121.272 93.5265 121.272 93.5533 121.261C93.5802 121.25 93.6022 121.23 93.6153 121.205C93.7335 121.176 93.8439 121.121 93.939 121.045C94.0341 120.97 94.1114 120.874 94.1657 120.765H94.133L94.3844 120.514V120.534C94.6662 120.373 94.8731 120.108 94.9599 119.795H94.9323C95.5656 118.833 95.6461 117.786 95.3797 116.698L95.6059 116.424L98.1444 116.05L98.4736 115.992C100.037 115.831 101.578 116.359 103.141 116.135C103.231 116.067 103.336 116.02 103.446 115.995C103.557 115.971 103.671 115.971 103.782 115.995C104.616 115.995 105.453 115.975 106.182 115.475L106.157 115.49L106.476 115.306L106.542 115.344L106.984 115.033L107.416 114.711L107.668 114.477L108.062 114.174C108.252 113.839 108.439 113.504 108.625 113.169L108.608 113.186C108.859 112.001 108.962 110.85 108.535 109.712ZM38.381 33.6196C38.381 33.5593 38.3684 33.4964 38.3634 33.4361C38.3684 33.4964 38.3735 33.5593 38.381 33.6196ZM27.7795 92.6057C27.7645 92.769 27.8172 92.9574 27.8097 93.1257C27.8097 92.9574 27.7569 92.769 27.7795 92.6057ZM22.71 100.096C22.6573 100.368 22.6196 100.642 22.5643 100.91C22.6196 100.644 22.6573 100.37 22.71 100.096ZM33.0149 110.187C33.1582 110.187 33.3266 110.169 33.4673 110.187C33.3366 110.172 33.1682 110.202 33.025 110.189L33.0149 110.187ZM36.0737 113.49C36.0737 113.561 36.0737 113.649 36.1014 113.691C36.0737 113.661 36.0737 113.561 36.0737 113.49ZM49.7717 117.58C49.7221 117.636 49.6692 117.688 49.6133 117.738L48.3843 117.625L46.8763 117.524C45.5316 117.158 44.0487 117.313 42.8297 116.462V116.479C42.6253 116.426 42.4488 116.297 42.3359 116.118C42.223 115.94 42.1821 115.725 42.2215 115.517C42.3396 115.043 42.885 115.03 43.2821 115.055C44.1605 115.077 45.0313 115.223 45.8684 115.49C47.3563 115.784 48.5879 116.582 49.7692 117.479C49.7779 117.494 49.7827 117.512 49.7832 117.529C49.7836 117.547 49.7797 117.564 49.7717 117.58ZM106.293 113.046L106.278 113.061L106.067 113.244L105.986 113.302L105.576 113.53L105.539 113.546C103.94 114.076 102.302 114.015 100.658 113.892H100.14L99.6373 113.877H99.386C97.878 114.01 96.3523 113.812 94.8619 114.194C94.784 114.025 94.7036 113.857 94.6231 113.691C94.5776 113.652 94.5297 113.615 94.4799 113.581C94.4246 113.448 94.3693 113.33 94.3165 113.184H94.4045L94.0601 112.179L94.0878 112.202C93.9704 112.084 93.8856 111.938 93.8416 111.778C93.7975 111.617 93.7958 111.448 93.8364 111.287C93.4343 111.116 93.467 110.73 93.3891 110.398C93.0966 109.766 92.8952 109.097 92.7909 108.409L92.8286 108.436C92.6174 107.873 92.4038 107.313 92.1927 106.751C92.155 106.63 92.1173 106.499 92.0821 106.391L91.9539 105.861C91.8835 105.532 91.8106 105.203 91.7403 104.874L91.6221 104.568C91.4462 103.419 91.2694 102.272 91.0918 101.126C91.076 101.115 91.0628 101.1 91.0527 101.083C91.0426 101.066 91.036 101.048 91.0332 101.028C91.0304 101.009 91.0315 100.989 91.0364 100.97C91.0412 100.951 91.0498 100.933 91.0617 100.918L90.6846 99.3302C90.662 99.2398 90.6369 99.1494 90.6118 99.0565C90.5615 98.6495 90.5112 98.2426 90.4584 97.8356C90.4308 97.7276 90.4006 97.6221 90.373 97.5166C90.3403 97.1247 90.3102 96.7329 90.2775 96.341C90.2052 96.2513 90.1546 96.1462 90.1293 96.0339C90.104 95.9215 90.1048 95.8049 90.1317 95.6929L89.9206 93.3693C89.8804 93.191 89.8401 93.0152 89.7974 92.8393C89.8175 92.7489 89.8351 92.661 89.8527 92.5705C89.7849 92.3671 89.7195 92.1636 89.6516 91.9602L89.4179 90.5861L89.1062 90.2997C88.9504 89.943 88.6915 89.9455 88.3924 90.0962C88.3704 90.1746 88.3365 90.2492 88.2919 90.3173L88.1964 90.8398C88.1964 91.2517 88.1964 91.6662 88.1964 92.0782C88.1964 92.1686 88.209 92.259 88.2165 92.3495C88.2291 92.6007 88.2441 92.8393 88.2567 93.0855L88.2693 93.3517C88.3849 94.8438 88.4997 96.3368 88.6136 97.8306C88.6475 97.8895 88.6769 97.9507 88.7016 98.014C88.7016 98.0391 88.6739 98.0768 88.6589 98.1095C88.8616 99.4492 89.0643 100.789 89.2671 102.129C89.2822 102.297 89.2947 102.465 89.3098 102.631C89.5176 103.51 89.7279 104.389 89.9407 105.266C90.1216 106.045 90.3051 106.823 90.4861 107.602L90.5389 107.838C90.931 109.079 91.3222 110.32 91.7126 111.561L91.6548 111.604L91.7202 111.574C91.793 111.737 91.8684 111.898 91.9413 112.061L92.4616 113.593C93.004 114.707 93.3905 115.891 93.6102 117.11C93.6745 117.649 93.5774 118.196 93.3312 118.68C91.2049 120.265 88.8298 120.471 86.3214 119.936L86.0701 120.024L85.8187 120.202C85.8187 120.129 85.8187 120.059 85.8187 119.986L85.8464 119.923L84.841 119.818C84.2102 119.692 83.6296 119.338 82.956 119.426C82.8177 119.152 82.5438 119.197 82.3075 119.152L81.2846 118.67C81.1413 118.67 80.993 118.67 81.0031 118.464V118.539H80.9277L80.1259 118.353L79.3568 118.117C78.7585 117.833 78.1124 117.663 77.4517 117.615L77.0319 117.482C72.9351 116.703 68.8986 117.205 64.8797 118.065C61.6826 118.748 58.4831 119.265 55.2886 118.049L54.5698 117.761L54.1249 117.472L54.1425 117.487C53.7628 117.429 53.411 117.253 53.1371 116.984L52.6998 116.894L52.2348 116.595L51.8779 116.233L51.4632 116.115L51.1088 115.736L50.7117 115.61C50.5911 115.485 50.4604 115.359 50.3473 115.231L49.9275 115.093L49.6083 114.726L49.4977 114.714H49.3871C49.339 114.671 49.2944 114.625 49.2539 114.575L48.696 114.349C48.5803 114.158 48.3743 114.151 48.1933 114.098C48.0701 113.902 47.8565 113.905 47.6579 113.872L46.831 113.495L46.7707 113.442L46.7028 113.485C45.966 113.171 45.1783 112.993 44.378 112.96H42.8699C41.6761 112.943 40.5777 113.355 39.4995 113.777C38.6122 114.123 37.7401 114.304 36.8328 113.955C36.7875 113.917 36.7448 113.88 36.7046 113.839L36.3452 113.661L36.0938 113.41L35.8425 113.121C35.8483 113.084 35.8457 113.046 35.8349 113.01C35.824 112.973 35.8051 112.94 35.7797 112.912C35.3926 111.114 36.0863 109.448 36.4708 107.763C38.1045 100.574 39.1652 93.3216 39.0948 85.9314C39.0948 84.9266 39.0043 83.9218 38.9591 82.9171C38.7429 82.5629 39.0219 81.9549 38.4564 81.8092C38.1724 81.7364 38.1196 82.0881 37.9965 82.279C37.9965 82.3845 38.0191 82.4875 38.0291 82.5905C37.9914 82.7337 37.9537 82.8768 37.9186 83.0175C37.7527 84.5624 37.5038 86.1022 37.5616 87.6647C37.5943 88.0515 37.6672 88.4434 37.4134 88.7925L37.0439 93.4071C37.0719 93.5205 37.074 93.6388 37.0501 93.7531C37.0262 93.8675 36.9768 93.975 36.9057 94.0677L36.7926 94.8213C36.7105 95.7808 36.6267 96.7412 36.5412 97.7025L36.4206 98.0919C36.124 99.9909 35.9556 101.915 35.4504 103.781L35.0659 105.628C34.9427 106.278 34.8145 106.929 34.6939 107.58L34.7693 107.605C34.4928 107.992 34.435 108.454 34.3345 108.901L31.0168 107.014C29.3165 106.422 27.4877 106.3 25.7236 106.66C23.2429 107.137 22.431 106.213 23.17 103.809C23.2655 103.495 23.3685 103.179 23.4666 102.865C23.5193 102.719 23.5696 102.576 23.6224 102.433L23.8737 101.89L24.1251 101.405C24.3261 101.292 24.3337 101.076 24.3965 100.888C24.4945 100.729 24.5926 100.569 24.6881 100.408C24.7786 100.245 24.869 100.079 24.962 99.9055L25.2335 99.4282H25.1355L25.2335 99.4157L25.9724 97.8909L26.2062 97.3433C26.3142 97.1474 26.4223 96.9489 26.5279 96.7504C26.5422 96.7478 26.5557 96.7416 26.567 96.7323C26.5782 96.723 26.5869 96.711 26.5922 96.6974C26.5975 96.6838 26.5992 96.669 26.5972 96.6546C26.5952 96.6401 26.5895 96.6264 26.5807 96.6148L26.7717 96.1752L26.7868 96.13L27.1738 95.0523C27.5468 94.4331 27.8072 93.7527 27.9429 93.0428L28.3048 92.1611V92.0832C28.64 91.0198 28.9751 89.9581 29.3102 88.898V88.8051C29.4308 88.4107 29.5615 88.0214 29.6721 87.6245C31.5999 80.4176 32.3816 73.0249 33.216 65.6422L33.2462 65.2804C33.5427 63.0582 33.8385 60.8343 34.1334 58.6087C34.1334 58.5208 34.1334 58.4353 34.1535 58.3575C34.239 57.9078 34.3445 57.4582 34.4048 57.006C35.5685 49.146 36.2823 41.2057 38.5494 33.5392H38.5318L39.1124 31.8863L39.135 31.8134C39.1803 31.6326 39.228 31.4517 39.2758 31.2708C39.5271 31.0724 39.4517 30.7685 39.5447 30.5173C39.7866 30.131 39.9466 29.6992 40.0147 29.2487C40.2819 28.8771 40.4544 28.446 40.5174 27.9927L40.8642 27.3346V27.3095C41.1089 26.8071 41.3518 26.3047 41.5931 25.8023L41.4825 25.7671L41.5931 25.7972L41.8445 25.2949L41.9928 24.9658C42.1989 24.8603 42.2441 24.6543 42.2843 24.4634L42.5809 23.9861L42.8825 23.5616V23.5415L43.0358 23.2149C43.2815 23.017 43.4575 22.7461 43.5385 22.4413C43.6516 22.3031 43.7647 22.1624 43.8803 22.0243H43.8652C43.9306 21.9162 43.9934 21.8057 44.0588 21.6952L44.0261 21.7279C44.1065 21.6324 44.1844 21.537 44.2623 21.439L44.6243 21.0019L44.8429 20.6979L44.8052 20.7356L45.0566 20.4292L45.0239 20.4643L45.3079 20.1755L46.5244 18.9395L47.0597 18.4372L47.3111 18.2111L47.6378 17.9322C49.925 16.1057 52.4455 14.5919 55.1328 13.4308L55.6555 13.2726L55.6379 13.1545L55.6631 13.2726L57.063 12.8204L57.3848 12.6621L57.8196 12.5943L58.1136 12.5441L60.6748 12.102L60.7175 12.0467L60.7678 12.0919L61.4439 11.9713L61.748 11.9488C63.6607 11.819 65.5804 11.8324 67.4911 11.9889L68.0114 12.0065L68.039 12.0894L70.849 12.5441L71.1456 12.5943L74.0737 13.5162V13.4961L74.7699 13.7473C78.1001 15.3449 81.184 17.2641 83.72 20.0273C85.776 22.2554 87.3217 24.8 88.6739 27.4853L89.1314 28.5554H89.1163C89.9767 30.8273 90.7043 33.1473 91.2954 35.5035L91.504 35.5186C91.504 35.599 91.504 35.6819 91.504 35.7698C91.504 35.923 91.504 36.0788 91.504 36.232C91.4961 36.3996 91.5012 36.5676 91.5191 36.7344C92.6426 42.7958 92.9819 48.9325 93.2961 55.0718C93.3266 55.1257 93.3527 55.1819 93.374 55.2401C93.374 55.2602 93.3463 55.2954 93.3287 55.3205C93.3614 55.5013 93.3941 55.6797 93.4293 55.858C93.4645 56.0364 93.4544 56.1971 93.4645 56.3604C93.4963 56.8796 93.5273 57.4013 93.5574 57.9254C93.7078 58.1907 93.7519 58.5031 93.6806 58.7996L93.7032 59.611C93.8222 61.2856 93.9395 62.9535 94.0551 64.6148C94.2038 64.85 94.2534 65.1344 94.1933 65.406C94.2386 66.137 94.2813 66.8655 94.3265 67.594C94.365 67.6575 94.3986 67.7238 94.4271 67.7924C94.4271 67.82 94.407 67.8628 94.3944 67.8979C94.417 68.0688 94.4371 68.2396 94.4598 68.4003C94.4598 68.4832 94.4598 68.5686 94.4773 68.6515C94.8242 71.6333 95.1208 74.625 95.533 77.5966C96.375 83.658 97.4306 89.6793 99.3533 95.5121L99.5092 95.7859L99.6524 96.3711V96.3862L100.479 98.5917L100.462 98.5767C100.681 99.1778 100.902 99.7783 101.123 100.378L101.153 100.468C101.488 101.197 101.823 101.926 102.158 102.656V102.676L102.643 103.656L102.656 103.691C102.746 103.849 102.837 104.005 102.925 104.163L103.03 104.131L102.925 104.166C103.158 104.586 103.392 105.005 103.629 105.422L103.664 105.482L103.948 105.897C104.058 106.057 104.166 106.221 104.275 106.381L104.252 106.356L104.408 106.693L104.425 106.725L104.722 107.143L105.049 107.625L105.031 107.602L105.24 107.921H105.22L105.38 108.2V108.27L105.443 108.295L105.966 108.923L106.303 109.371C106.78 110.609 107.203 111.797 106.285 113.041L106.293 113.046ZM107.436 114.701C107.454 114.636 107.436 114.538 107.459 114.472C107.431 114.533 107.454 114.631 107.429 114.696L107.436 114.701Z" fill="#1D2831"/>
</svg>
