<svg width="130" height="130" viewBox="0 0 130 130" fill="none" xmlns="http://www.w3.org/2000/svg">
<path d="M129.06 0.592285H0.374512V129.205H129.06V0.592285Z" fill="#D2BE93"/>
<path d="M31.7037 128.673C31.6132 120.383 34.672 112.31 33.3902 104.028C31.3417 108.223 30.648 112.775 29.9267 117.407C27.7602 117.055 25.9329 116.269 23.9398 115.648C25.468 108.615 26.1818 100.185 33.2117 96.507C51.5595 114.023 83.4493 108.959 94.9984 86.2882C104.371 90.4405 107.626 101.126 108.88 110.494C111.192 115.734 95.398 116.384 91.638 116.804C91.0322 113.538 91.3188 110.021 89.21 107.163C89.0777 107.229 88.9679 107.333 88.8942 107.461C88.8204 107.589 88.7861 107.736 88.7953 107.884C88.7803 111.149 88.5842 114.415 89.1195 117.65C89.3709 119.238 89.6524 119.431 91.6103 119.725C92.2688 122.762 91.9471 126.005 92.0577 129.13H76.4345C77.2664 127.952 78.6061 127.256 79.4983 126.141C78.6639 125.219 77.9425 124.428 77.2363 123.629C76.4471 124.093 76.0198 124.955 74.9013 125.274C74.9792 122.177 75.1024 119.281 75.781 116.266C76.8341 117.02 77.0854 118.067 77.9978 118.653C78.7769 117.997 79.6591 117.454 80.2598 116.58L76.5677 112.154C75.0044 113.259 73.7376 114.628 72.4331 115.874C72.1818 119.178 71.9305 122.38 71.6967 125.628L74.929 129.13L67.1802 129.117C68.271 127.824 70.1234 126.914 70.6989 125.294C70.8573 122.463 71.0081 119.632 71.1664 116.698L67.2606 113.041C65.0287 113.099 63.1663 112.476 62.078 114.581C63.6866 117.595 61.9021 122.946 62.1157 126.769L61.1103 127.477C61.5803 128.108 62.1634 128.482 62.4223 129.122C59.7707 129.308 57.0613 129.082 54.3795 129.122C57.5991 126.711 59.454 123.242 61.6884 119.961C60.6076 119.64 59.6098 119.984 58.6723 119.527L60.683 115.638H57.4156L53.9271 122.39H56.4606C55.9202 124.86 54.5127 126.849 53.7964 129.112L50.0565 129.13C51.5489 128.045 52.9102 126.791 54.1131 125.392C53.4822 124.5 53.0197 123.579 52.2783 122.865C51.4363 123.395 50.9789 124.327 49.7976 124.782C50.0665 121.737 50.3002 118.929 50.5742 115.952C51.6751 116.656 51.9189 117.816 53.0273 118.195L55.2893 116.286C53.8718 114.804 53.0524 112.998 51.5695 111.531C49.8353 113.541 46.8167 114.601 47.249 117.608C46.8167 122.9 45.4393 125.081 49.8428 129.127H31.7137C31.7137 128.982 31.7087 128.826 31.7037 128.673ZM45.4519 125.565C45.746 122.019 46.0275 118.612 46.309 115.234C44.9322 113.826 43.6714 112.31 42.5389 110.7C41.1792 112.207 39.9049 113.639 38.2335 115.505C37.9821 118.032 37.6654 121.262 37.3563 124.362C36.9919 124.975 36.3509 125.176 36.1398 125.844C36.9718 126.508 37.4292 127.565 38.4848 128.055C39.3995 127.45 40.2144 126.707 40.9002 125.852C40.3045 125.035 40.302 124.307 40.6488 123.415C42.3931 123.051 42.838 123.681 42.4861 125.174C42.3077 125.807 41.805 125.907 41.8025 126.43C42.3479 127.148 42.7651 128.07 43.7152 128.612L46.123 126.427C45.839 126.09 45.6429 125.827 45.4519 125.565Z" fill="#214863"/>
<path d="M62.4049 129.138C62.1536 128.507 61.5629 128.133 61.0929 127.492L62.0983 126.784C61.8846 122.953 63.6691 117.615 62.0606 114.596C63.1514 112.496 65.0088 113.111 67.2432 113.056L71.149 116.713C70.6463 119.416 71.521 124.601 69.9853 126.46C67.6453 129.346 65.9814 129.424 62.4451 129.208L62.4049 129.138ZM67.6428 124.262C67.7534 120.956 68.6909 118.283 65.8231 116.309C65.8508 119.655 65.0565 122.825 65.6547 126.234L67.6428 124.262Z" fill="#D4823F"/>
<path d="M26.4306 97.9564C25.1739 99.7324 22.1076 100.704 22.4796 97.5318C23.1607 94.6858 26.0461 94.6029 26.4306 97.9564Z" fill="#D4823F"/>
<path d="M21.11 116.63C21.0485 116.584 20.9987 116.523 20.9644 116.454C20.9301 116.385 20.9122 116.308 20.9122 116.231C20.9122 116.154 20.9301 116.077 20.9644 116.008C20.9987 115.939 21.0485 115.878 21.11 115.832C21.115 116.098 21.1125 116.364 21.11 116.63Z" fill="#B5E8CF"/>
<path d="M109.342 124.907C109.003 123.825 109.114 122.717 109.159 121.612C109.357 122.698 109.418 123.805 109.342 124.907Z" fill="#214863"/>
<path d="M45.4517 125.565C45.6427 125.817 45.8388 126.09 46.1027 126.447L43.6949 128.633C42.7448 128.09 42.3276 127.168 41.7822 126.45C41.7822 125.917 42.2849 125.817 42.4658 125.194C42.8202 123.687 42.3703 123.059 40.6285 123.435C40.2917 124.327 40.2943 125.056 40.8799 125.872C40.1941 126.727 39.3792 127.47 38.4645 128.075C37.4089 127.573 36.9565 126.528 36.1195 125.864C36.3306 125.196 36.9716 124.995 37.336 124.382C37.6452 121.283 37.9644 118.052 38.2132 115.525C39.8846 113.659 41.1589 112.234 42.5186 110.72C43.6511 112.33 44.9119 113.846 46.2887 115.254C46.0273 118.612 45.7458 122.019 45.4517 125.565ZM41.9028 115.221C40.5255 116.711 41.1941 118.487 40.7869 120.047C41.5761 120.185 42.1793 120.298 42.868 119.974C42.9258 118.178 43.7879 116.329 41.9028 115.221Z" fill="#D4823F"/>
<path d="M50.0666 129.145C49.9946 129.168 49.9174 129.168 49.8454 129.145C45.4344 125.086 46.8294 122.928 47.2516 117.625C46.8218 114.611 49.8354 113.551 51.5721 111.549C53.055 113.016 53.8744 114.814 55.2919 116.304L53.0299 118.213C51.9215 117.834 51.6777 116.673 50.5768 115.97C50.3255 118.946 50.0742 121.747 49.8002 124.799C50.9815 124.345 51.4389 123.413 52.2809 122.883C53.0349 123.596 53.4848 124.518 54.1157 125.41C52.915 126.807 51.5563 128.061 50.0666 129.145Z" fill="#D4823F"/>
<path d="M76.4345 129.135C74.1573 129.58 73.2425 126.932 71.6816 125.643C71.933 122.395 72.1843 119.193 72.4206 115.889C73.725 114.633 74.9918 113.274 76.5551 112.169L80.2473 116.595C79.6491 117.469 78.7669 118.012 77.9852 118.668C77.0729 118.082 76.8215 117.037 75.7684 116.281C75.0898 119.296 74.9666 122.192 74.8887 125.289C76.0072 124.97 76.4345 124.109 77.2237 123.644C77.94 124.433 78.6613 125.224 79.4857 126.156C78.606 127.261 77.2664 127.949 76.4345 129.135Z" fill="#D4823F"/>
<path d="M54.3745 129.137H53.8065C54.5228 126.877 55.9303 124.885 56.4707 122.415H53.9372L57.4258 115.663H60.6932L58.6825 119.552C59.6225 120.009 60.6203 119.665 61.6986 119.986C59.439 123.257 57.5942 126.726 54.3745 129.137Z" fill="#D4823F"/>
<path d="M67.6428 124.262L65.6547 126.234C65.0565 122.825 65.8507 119.655 65.8231 116.309C68.6909 118.283 67.7534 120.956 67.6428 124.262Z" fill="#214863"/>
<path d="M29.6376 122.566C29.6941 122.655 29.7192 122.76 29.7092 122.865C29.6992 122.969 29.6545 123.068 29.5823 123.144C29.5327 123.053 29.5114 122.95 29.5213 122.847C29.5311 122.744 29.5717 122.646 29.6376 122.566Z" fill="#6D4B3F"/>
<path d="M29.5298 124.154C29.5574 124.242 29.6378 124.322 29.5298 124.377C29.5007 124.347 29.4845 124.307 29.4845 124.266C29.4845 124.224 29.5007 124.184 29.5298 124.154Z" fill="#6D4B3F"/>
<path d="M88.1567 40.6206C88.1367 40.6206 88.1817 40.703 88.1817 40.713L88.1567 40.6206Z" fill="#F6D8A8"/>
<path d="M94.6263 119.491H94.6638C94.6627 119.48 94.6627 119.468 94.6638 119.456L94.6263 119.491Z" fill="#F6D8A8"/>
<path d="M29.6603 120.179H29.687C29.687 120.179 29.653 120.148 29.6603 120.179Z" fill="#F6D8A8"/>
<path d="M28.0742 119.828C27.2674 119.652 26.4481 119.198 25.6614 119.117C25.3321 122.468 25.0808 125.849 24.656 129.148C26.1816 129.195 27.7123 129.148 29.2429 129.16V129.13C29.5295 126.176 29.5672 123.194 29.6551 120.18C29.1374 120.089 28.5844 119.823 28.0742 119.828Z" fill="#F6D8A8"/>
<path d="M106.588 125.648C106.449 126.015 106.37 126.402 106.354 126.794C106.829 123.704 106.326 120.494 106.379 117.354C102.488 118.153 98.6278 119.17 94.6592 119.487C94.4078 122.714 94.6466 125.945 94.5436 129.173C98.4846 129.158 102.428 129.173 106.372 129.173C107.088 128.934 106.409 126.497 106.588 125.648Z" fill="#F6D8A8"/>
<path d="M62.2034 78.6368C62.1955 78.6273 62.185 78.6203 62.1732 78.6167L62.2034 78.6368Z" fill="#F6D8A8"/>
<path d="M45.2677 77.8556C45.2677 77.8556 45.2482 77.8556 45.241 77.875L45.2677 77.8556Z" fill="#F6D8A8"/>
<path d="M86.561 46.0758C86.561 46.0758 86.5804 46.0637 86.5829 46.054L86.561 46.0758Z" fill="#F6D8A8"/>
<path d="M71.111 17.4527C71.1223 17.464 71.1349 17.474 71.1485 17.4826L71.111 17.4527Z" fill="#F6D8A8"/>
<path d="M94.5008 54.3159H94.3122C93.9478 50.8519 92.5856 47.4757 91.3691 44.2102L91.3892 44.2227L91.2534 43.5596C90.9493 42.806 90.5949 42.0248 90.2833 41.2586L90.0319 41.236C89.9239 41.3742 89.6172 41.7661 89.6122 41.7861L89.4815 42.2031C89.1322 42.2534 89.0743 42.7055 88.9462 42.9567C88.8255 43.1024 88.6948 43.2456 88.5817 43.3938C88.0332 44.0262 87.5584 44.719 87.1667 45.4587H87.1818L86.9656 45.745C86.1161 46.162 86.7721 46.893 86.8525 47.5034C87.5286 49.0106 87.8227 50.6107 88.3932 52.3816C87.7598 52.0526 87.7196 51.8792 87.408 51.3768C87.3024 51.2462 87.1943 51.1256 87.0888 50.99C86.9782 50.6986 86.8777 50.3168 86.5333 50.254C86.5132 50.6484 86.5333 51.0076 87.0712 50.9875C86.297 51.0403 86.7344 50.2892 86.3171 49.9827H86.3347H86.3523C86.1412 49.3698 85.7265 48.9403 85.2791 48.4756C85.2351 48.3867 85.1716 48.3088 85.0932 48.2479C85.0149 48.187 84.9238 48.1446 84.8267 48.1238C84.9133 48.1657 85.0056 48.1945 85.1007 48.2093C84.9901 47.9129 84.8845 47.5185 84.5276 47.4557C84.1782 46.8905 83.8716 46.3228 83.3664 45.8656C83.2986 45.7877 83.1679 45.6144 83.1377 45.5868L81.2024 43.5294C82.6074 43.5294 83.8113 44.4438 84.9725 44.4689C85.3969 44.0438 85.7932 43.5916 86.1588 43.115V43.1326C86.4102 42.7709 87.0888 42.075 87.1818 41.9117C87.3728 41.6279 87.8905 41.0099 87.9358 40.907C88.0144 40.8052 88.0866 40.6986 88.1519 40.5879C88.2173 40.5101 88.2826 40.4322 88.3455 40.3518C88.4938 40.1659 88.9537 39.7138 88.9286 39.6384L89.2855 39.2038C86.9933 33.7152 83.6354 28.214 79.4832 24.0868C79.4916 24.244 79.5169 24.3997 79.5587 24.5515C79.4883 24.3204 79.531 24.029 79.2746 23.8758C79.2474 23.745 79.1823 23.6252 79.0876 23.531C78.9929 23.4368 78.8727 23.3724 78.7418 23.3458C78.1964 22.7655 77.7867 22.1224 77.093 21.733V21.7582C76.9948 21.6645 76.888 21.5804 76.7738 21.507L76.2234 21.0598L75.5598 20.4771L75.4819 20.5549L75.5598 20.4745L74.9692 20.0676C74.5073 19.6741 74.0148 19.318 73.4964 19.0026C73.044 18.774 72.7649 18.4097 72.3703 18.1385L71.9481 18.0379C71.4454 17.7666 71.081 17.3371 70.5507 17.101C70.4677 17.1713 70.0656 16.802 70.1334 16.9101C69.9717 16.8152 69.8038 16.7312 69.6308 16.6589L68.9924 16.5132C46.7966 8.08799 33.2721 40.9094 29.3663 57.9607C27.4712 67.2852 27.8406 76.9588 31.2237 85.8889C31.3895 85.801 31.573 85.7357 31.7263 85.6377C31.7161 85.7287 31.7161 85.8205 31.7263 85.9115L32.2692 85.4668L32.7317 85.1353L35.7754 82.7188C35.9413 82.2314 36.2178 81.8949 36.7808 81.9376C36.2102 81.8949 35.9337 82.2314 35.7754 82.7188C36.1449 82.6384 36.4817 82.3118 36.7405 82.1234C36.7676 82.0661 36.7863 82.0052 36.7959 81.9426C37.0342 81.8953 37.245 81.7575 37.384 81.5582C37.384 81.5582 37.4493 81.5181 37.4367 81.498V81.5155C37.9696 81.3497 38.3039 80.8951 38.8166 80.6841V80.6966C39.7415 80.1942 41.1214 80.4806 41.8804 79.9631C42.2259 79.6187 42.553 79.2565 42.8607 78.8779C42.8607 78.9106 42.833 78.9382 42.823 78.9734C43.3067 78.8267 43.7492 78.5686 44.1148 78.2198C44.6628 77.8933 45.3188 77.7626 45.8742 77.5617C50.8306 75.8962 56.7295 76.5267 61.4572 78.2776C61.9096 78.2927 62.3972 78.7021 62.7416 78.78L64.3878 79.4256C64.8729 79.8124 65.735 80.1967 65.9637 80.576C66.1246 80.6765 66.2503 80.8724 66.4438 80.8976C66.5179 81.0614 66.6152 81.2137 66.7328 81.3497C66.7982 81.3749 66.8635 81.3975 66.9314 81.4176C66.9691 81.9325 67.057 82.4023 66.7202 82.8695C65.5792 84.2561 64.0586 82.1008 62.8346 81.7517C62.8391 81.8171 62.8501 81.8818 62.8672 81.9451C62.832 81.8823 62.8672 81.7441 62.7742 81.724C62.4691 81.4898 62.1059 81.3431 61.7236 81.2995V81.3121C56.6969 79.2271 50.2148 78.2073 45.2484 80.8097C45.555 80.7594 45.8742 80.7469 46.1758 80.6841C45.5223 80.8248 44.3234 80.7644 44.2933 81.6361C44.3262 81.6579 44.3543 81.6864 44.3755 81.7197C44.3967 81.753 44.4106 81.7904 44.4164 81.8295C44.6912 82.0673 44.8926 82.3784 44.997 82.7263L44.9694 82.6962C45.5299 84.3214 45.075 85.9215 44.2481 87.3709L44.2832 87.3408C44.0969 87.6345 43.8369 87.8744 43.5292 88.0366C43.531 88.0485 43.5299 88.0605 43.5261 88.0719C43.5223 88.0833 43.5158 88.0935 43.5072 88.1019C43.4986 88.1102 43.4881 88.1164 43.4766 88.1199C43.4652 88.1234 43.453 88.1241 43.4412 88.122C43.3442 88.275 43.2784 88.4458 43.2477 88.6244C43.2817 88.5449 43.3005 88.4597 43.303 88.3732C43.0718 88.549 42.549 89.0992 42.3982 88.9761C42.0388 89.2951 41.4104 89.8427 41.1666 90.0261C41.0988 90.0738 40.8022 90.32 40.8851 90.2371C39.4651 91.5459 37.761 92.8973 36.1373 94.1282C35.7779 94.2638 35.328 94.8441 36.0117 94.9747C36.0745 95.3163 36.4163 95.4494 36.7003 95.5851C36.7003 95.5851 36.7003 95.5851 36.7003 95.57L37.007 95.7986L36.9642 95.7584C37.1678 96.0674 37.6856 95.9066 37.6655 96.3588C37.6806 96.0674 37.4895 96.0021 37.2508 95.9946C37.2834 96.2206 37.4745 96.2809 37.6604 96.3663C37.7434 96.4894 37.8112 96.5798 37.9721 96.5848C37.9725 96.5773 37.9725 96.5698 37.9721 96.5623C38.3416 96.8135 38.4899 97.2505 39.0051 97.3158C39.0051 97.3158 39.0051 97.3158 39.0051 97.3008C39.1756 97.433 39.3743 97.5241 39.5857 97.567C39.4899 97.5137 39.381 97.4885 39.2715 97.4942C39.2942 97.7454 39.538 97.763 39.7415 97.8484C39.7415 97.8484 39.7415 97.8484 39.7415 97.8283C40.0038 97.9853 40.2556 98.1589 40.4956 98.3482C40.4956 98.3482 40.4956 98.3357 40.4956 98.3282C41.3627 98.8306 42.0514 99.5465 43.0492 99.8203C43.3382 100.051 43.6549 100.323 44.0545 100.303C44.0572 100.37 44.0781 100.435 44.1148 100.491C45.0046 100.903 45.8742 101.458 46.8293 101.589L46.8067 101.564C55.317 105.08 65.3102 105.005 73.8256 101.586C73.8256 101.586 73.8256 101.586 73.8256 101.604C75.5349 101.129 77.1436 100.347 78.5734 99.2978C79.5889 98.8741 80.524 98.2793 81.3381 97.5394L81.7277 97.4037C81.7277 97.1952 81.9363 97.1651 82.0921 97.0973C82.0921 97.0387 82.1223 97.0135 82.1826 97.0219C82.5169 96.615 83.1 96.5196 83.3514 95.9946L83.6354 95.7434L83.5951 95.7835C83.7108 95.6705 83.9093 95.6077 83.9169 95.4268C83.9169 95.4721 83.8968 95.5173 83.8892 95.5625C84.1657 95.4344 84.5326 95.3113 84.5729 94.9722C84.8745 94.9722 85.1459 94.5527 85.2942 94.4371C86.0482 93.7564 86.9581 92.6436 87.506 92.1537C87.5613 92.0884 87.8126 91.8071 87.7372 91.8824C87.9124 91.6342 88.1065 91.3999 88.3178 91.1816C88.3706 91.1188 88.6018 90.8525 88.5415 90.9304C88.5918 90.8625 88.8431 90.5687 88.7551 90.6541L88.8934 90.2823C88.9537 90.1844 89.0316 90.0889 89.097 89.9909L88.8934 90.2773C88.9646 90.26 89.0325 90.2311 89.0944 90.1919C89.014 89.9658 89.5971 89.7272 89.5142 89.6468L89.6474 89.2549C89.8507 89.0931 90.0287 88.9017 90.1752 88.6872C90.4467 87.9336 91.2912 87.3609 91.4319 86.4892C92.437 84.9308 93.2068 83.2329 93.7166 81.4502L93.699 81.4653C97.0519 72.7286 96.4662 63.3414 94.5008 54.3159ZM38.2134 96.7933C38.3499 96.7802 38.4876 96.7991 38.6155 96.8486C38.487 96.8017 38.3493 96.7853 38.2134 96.8009V96.7933ZM81.5191 97.1802C81.5191 97.1802 81.504 97.1802 81.494 97.1802C81.4839 97.1802 81.509 97.1802 81.5191 97.1802ZM81.3959 97.2531C81.3959 97.2531 81.3959 97.2531 81.3959 97.2681C81.3959 97.2832 81.3909 97.2556 81.3959 97.2531ZM76.902 21.7305C76.8789 21.7137 76.8585 21.6934 76.8417 21.6702C76.8592 21.6928 76.8794 21.713 76.902 21.7305ZM73.896 65.0521C74.4313 64.6929 74.7731 64.2382 74.6349 63.5449C74.7731 64.2357 74.4313 64.6903 73.896 65.0521ZM73.8759 65.4364C73.8636 65.4722 73.8476 65.5068 73.8281 65.5394C73.8474 65.5076 73.8634 65.4739 73.8759 65.4389V65.4364ZM74.6299 63.5399C74.6804 63.5247 74.7263 63.4972 74.7636 63.4599C74.8009 63.4227 74.8283 63.3768 74.8435 63.3263C74.8286 63.3764 74.8018 63.4221 74.7655 63.4597C74.7292 63.4973 74.6844 63.5257 74.6349 63.5424L74.6299 63.5399ZM74.8511 63.2585C74.8535 63.2802 74.8535 63.3021 74.8511 63.3238C74.8551 63.3031 74.8568 63.2821 74.8561 63.261L74.8511 63.2585ZM74.8134 63.1053C74.8207 63.1206 74.8266 63.1366 74.831 63.153C74.8281 63.1376 74.8239 63.1225 74.8184 63.1078L74.8134 63.1053ZM74.841 63.1856C74.8434 63.2057 74.8434 63.2259 74.841 63.2459C74.8449 63.2269 74.8466 63.2075 74.8461 63.1881L74.841 63.1856ZM73.7653 19.5879C73.7903 19.6188 73.8181 19.6473 73.8482 19.6732C73.8182 19.6481 73.7904 19.6203 73.7653 19.5903V19.5879ZM73.8935 19.6984C73.9212 19.7198 73.9516 19.7375 73.984 19.7511C73.9535 19.7379 73.9248 19.7211 73.8985 19.7009L73.8935 19.6984ZM74.0518 19.7687C74.0813 19.7789 74.1115 19.7864 74.1423 19.7913C74.1133 19.787 74.0847 19.7803 74.0568 19.7712L74.0518 19.7687ZM74.9792 20.1204C74.9811 20.2338 75.0151 20.3445 75.0773 20.4394C75.0173 20.3446 74.9851 20.235 74.9843 20.1229L74.9792 20.1204ZM74.6324 19.9948C74.642 20.0069 74.653 20.0179 74.6651 20.0275C74.6549 20.0184 74.6456 20.0082 74.6374 19.9973L74.6324 19.9948ZM74.6827 20.0425C74.6964 20.0537 74.7116 20.063 74.7279 20.0701C74.7131 20.0642 74.6995 20.0557 74.6877 20.045L74.6827 20.0425ZM74.8134 20.1003H74.8862C74.8638 20.1034 74.841 20.1042 74.8184 20.1028L74.8134 20.1003ZM75.1426 20.5072C75.1655 20.5211 75.19 20.532 75.2155 20.5399C75.1944 20.5319 75.1742 20.5219 75.1552 20.5097L75.1426 20.5072ZM75.0722 20.4419C75.0906 20.4645 75.1117 20.4847 75.1351 20.5022C75.1153 20.483 75.0983 20.461 75.0848 20.4369L75.0722 20.4419ZM75.2381 20.5424C75.2624 20.5506 75.2879 20.5549 75.3135 20.5549C75.2922 20.5544 75.2711 20.551 75.2507 20.5449L75.2381 20.5424ZM75.6579 20.9166C75.675 20.9363 75.6935 20.9548 75.7132 20.9719C75.6979 20.9552 75.6836 20.9376 75.6704 20.9192L75.6579 20.9166ZM75.7383 20.997C75.7625 21.015 75.7886 21.0302 75.8162 21.0422C75.7935 21.0295 75.7717 21.0153 75.7509 20.9996L75.7383 20.997ZM75.5825 20.7459C75.576 20.7262 75.5709 20.706 75.5674 20.6856C75.5754 20.7038 75.5846 20.7214 75.595 20.7383L75.5825 20.7459ZM76.0851 21.1201C76.0437 21.1171 76.0026 21.1112 75.962 21.1025C76.0044 21.1089 76.0473 21.1123 76.0902 21.1126L76.0851 21.1201ZM75.6428 20.884C75.6296 20.864 75.6178 20.843 75.6076 20.8212C75.6197 20.8405 75.6332 20.859 75.6478 20.8765L75.6428 20.884ZM75.3688 20.56C75.3905 20.5625 75.4125 20.5625 75.4342 20.56C75.4139 20.5596 75.3936 20.5571 75.3739 20.5524L75.3688 20.56ZM74.5847 19.8943C74.5835 19.8826 74.5835 19.8708 74.5847 19.8591C74.5856 19.8684 74.5873 19.8777 74.5897 19.8868L74.5847 19.8943ZM74.6173 19.9772C74.6097 19.966 74.603 19.9543 74.5972 19.942C74.6049 19.9519 74.6133 19.9611 74.6224 19.9696L74.6173 19.9772ZM74.2504 19.8013C74.278 19.8013 74.3032 19.8013 74.3333 19.8013C74.3082 19.7963 74.283 19.7913 74.268 19.7938L74.2504 19.8013ZM73.7477 19.5703C73.7197 19.5314 73.6937 19.4912 73.6698 19.4497C73.6923 19.4885 73.7166 19.5262 73.7427 19.5627L73.7477 19.5703ZM73.6572 19.4271C73.6311 19.3776 73.6085 19.3264 73.5894 19.2739C73.6066 19.328 73.6276 19.3809 73.6522 19.4321L73.6572 19.4271ZM73.5818 19.2613C73.5617 19.201 73.5416 19.1382 73.524 19.0729C73.5366 19.1307 73.5567 19.1935 73.5768 19.2538L73.5818 19.2613ZM73.524 19.0729C73.1118 19.1483 72.8429 19.0051 72.77 18.5831C72.8379 18.9976 73.1068 19.1407 73.5139 19.0654L73.524 19.0729ZM71.5359 17.9199C71.5278 17.9099 71.521 17.899 71.5158 17.8873C71.519 17.9005 71.5241 17.9131 71.5309 17.9249L71.5359 17.9199ZM71.5912 17.9902C71.5791 17.9806 71.5681 17.9696 71.5585 17.9575C71.5669 17.9667 71.5762 17.9752 71.5862 17.9827L71.5912 17.9902ZM69.7162 17.2366C69.8389 17.3217 69.9683 17.3964 70.1033 17.4602C69.9667 17.3975 69.8355 17.3236 69.7112 17.2391L69.7162 17.2366ZM56.3375 50.5579C57.0538 51.2236 56.6793 51.9823 56.5662 52.7208C56.6793 51.9823 57.0538 51.2136 56.3375 50.5579ZM54.8671 50.3067C55.1788 49.8043 55.4904 49.6737 55.7996 49.9325C55.4904 49.6813 55.1788 49.7968 54.8696 50.3067C54.7711 50.2923 54.6707 50.3125 54.5855 50.3638C54.5002 50.4151 54.4354 50.4944 54.4021 50.5881C54.4356 50.4963 54.4994 50.4186 54.5831 50.3679C54.6667 50.3172 54.7651 50.2965 54.8621 50.3093L54.8671 50.3067ZM52.6201 58.1868C52.5924 58.4079 52.5924 58.6315 52.6201 58.8525C52.591 58.6325 52.5893 58.4098 52.6151 58.1893L52.6201 58.1868ZM52.1175 52.8137C51.9868 52.0149 52.2884 51.0704 51.2981 50.5831C52.2808 51.083 51.9792 52.0174 52.1099 52.8162L52.1175 52.8137ZM52.1552 52.9871C52.1401 52.9343 52.13 52.8815 52.12 52.8288C52.1225 52.884 52.1325 52.9368 52.1501 52.9896L52.1552 52.9871ZM51.2679 50.2716C51.2755 50.2997 51.2814 50.3282 51.2855 50.357C51.2788 50.3289 51.2704 50.3012 51.2604 50.2741L51.2679 50.2716ZM51.2855 50.3645C51.2855 50.3972 51.2855 50.4299 51.2855 50.465C51.2855 50.4324 51.283 50.3997 51.278 50.367L51.2855 50.3645ZM51.2654 50.2666C51.2597 50.2418 51.2485 50.2186 51.2327 50.1987C51.2462 50.22 51.2548 50.2441 51.2579 50.2691L51.2654 50.2666ZM51.2302 50.1962C51.2162 50.178 51.1982 50.1634 51.1775 50.1535C51.1957 50.1651 51.2112 50.1805 51.2227 50.1987L51.2302 50.1962ZM51.1749 50.1535C51.1494 50.1469 51.1226 50.1469 51.097 50.1535C51.1204 50.149 51.1444 50.1499 51.1674 50.1561L51.1749 50.1535ZM50.1847 50.3269C50.1835 50.3194 50.1835 50.3117 50.1847 50.3042C50.1806 50.312 50.1781 50.3206 50.1771 50.3294L50.1847 50.3269ZM50.2224 50.2414C50.2202 50.2431 50.2176 50.2439 50.2148 50.2439L50.2224 50.2414ZM50.2023 50.2414C50.2023 50.2414 50.2023 50.2414 50.2023 50.254C50.2023 50.2666 50.1922 50.259 50.1947 50.254L50.2023 50.2414ZM50.1872 50.2817C50.1872 50.2817 50.1872 50.2691 50.1872 50.2641C50.1872 50.259 50.1822 50.2892 50.1797 50.2942L50.1872 50.2817ZM50.1872 50.362C49.9358 50.4047 49.873 50.6132 49.863 50.8293L50.1897 50.3846C50.2229 50.3832 50.255 50.3719 50.2819 50.3522C50.3087 50.3325 50.3291 50.3054 50.3405 50.2741C50.5541 50.2515 50.8055 50.2967 50.9864 50.1661C50.9357 50.1897 50.8869 50.2174 50.8407 50.249C52.2959 52.0576 52.0974 55.0971 51.6902 57.3629C51.846 57.8025 51.4062 58.0185 51.2931 58.4003C52.1526 59.0157 51.4464 59.7492 51.6676 60.5355L52.3562 59.576L52.4492 59.6613C53.8944 56.8328 53.2736 53.7205 54.4122 50.8293C54.48 50.8218 54.5457 50.8014 54.6057 50.769C54.8897 50.1435 55.9102 50.0154 56.3198 50.573C56.5109 51.9647 55.8322 53.3362 56.0685 54.7253C56.6592 54.9765 57.4584 54.6776 57.8128 54.7253C62.6058 53.0976 67.6929 52.354 72.6644 51.3869C73.2324 51.2688 73.9211 51.2713 74.2705 51.6883C74.3358 51.7587 74.5218 51.9823 74.5218 51.9672C75.1778 52.653 74.7732 53.4869 74.2177 54.0772C75.4392 56.23 75.4744 58.6842 75.4266 61.0254C75.3778 61.0366 75.3271 61.0366 75.2784 61.0254C75.12 61.6885 74.9441 62.3542 74.7958 63.0148C74.7354 63.1932 74.6777 63.3715 74.6198 63.5499H74.6349C74.4087 63.8839 74.2604 64.3537 73.994 64.6174C74.0292 64.9415 73.5366 65.2982 73.5441 65.3962L73.4184 65.8207C73.3657 65.8207 73.235 65.8911 73.235 65.871C73.0528 66.0837 72.9129 66.3292 72.8228 66.5944C72.9138 66.5868 73.0024 66.5613 73.0835 66.5191C73.1645 66.477 73.2363 66.4192 73.2948 66.3491C73.3533 66.279 73.3973 66.1979 73.4241 66.1106C73.4509 66.0234 73.4601 65.9317 73.4511 65.8408C73.4938 66.5743 72.6116 66.5592 72.3226 67.0691C72.2856 67.1337 72.2306 67.1861 72.1643 67.2199C71.9582 67.4836 71.5837 67.7222 71.3474 68.0086L71.2695 67.9408L71.3373 68.0187C71.1287 68.2146 71.1539 68.5412 70.9327 68.712C71.0666 68.5932 71.1502 68.428 71.1665 68.2498C70.4903 68.5211 69.9475 69.3927 69.2236 69.3977L68.5827 69.7771L68.1529 70.0282C67.9418 70.091 67.7357 70.1765 67.522 70.2217L65.4007 70.6864C65.4042 70.7378 65.3999 70.7894 65.3882 70.8396C64.8327 70.5382 64.2471 71.0908 63.7369 70.7944C63.3221 70.7618 62.9075 70.6613 62.5003 70.7944C62.4866 70.7777 62.4765 70.7584 62.4704 70.7377C62.4644 70.717 62.4626 70.6953 62.4651 70.6738L60.482 70.2493V70.2619C59.728 70.0107 59.0796 69.5636 58.318 69.1843L58.3507 69.2119L57.848 68.8979H57.8606C57.1831 68.4792 56.5644 67.9724 56.0208 67.3907L56.0434 67.4384C55.5407 66.9361 55.1411 66.2126 54.4524 65.9664C54.5354 66.012 54.6255 66.0434 54.7188 66.0594C54.6925 65.9893 54.6772 65.9156 54.6736 65.8408C54.5346 65.6288 54.3653 65.4384 54.1709 65.2756C53.8216 64.9817 53.9196 64.0196 53.3993 64.1327C53.0449 65.2907 51.8058 66.3784 51.1372 67.1194C50.9629 67.2636 50.8194 67.4412 50.715 67.6419C50.6497 67.6419 50.617 67.6645 50.6145 67.7298C50.3154 68.0363 49.7071 68.1995 49.5613 68.5964C49.4658 68.5964 49.3527 68.7296 49.2497 68.7798C45.3238 71.1486 39.3746 70.8999 36.2253 67.4108L35.974 67.1596C35.9086 67.0943 35.695 66.8607 35.7226 66.8933C35.3733 66.7677 35.3356 66.3683 35.0515 66.2905C35.034 66.2 34.8731 65.8458 34.9535 65.9187C34.8932 65.8408 34.7424 65.6248 34.7323 65.6198C34.669 65.5902 34.6024 65.5683 34.5338 65.5545C32.5055 62.2311 32.0204 57.5287 34.2674 54.1501C32.4401 50.8569 35.7352 51.3869 37.8841 51.937C41.0033 52.6906 44.4491 53.1277 47.3646 54.1978C48.096 54.3686 48.8149 54.768 49.5588 54.7831C49.661 53.4584 49.7633 52.1346 49.8655 50.8116C49.863 50.6132 49.9183 50.4173 50.1771 50.3746L50.1872 50.362ZM50.2752 50.2389C50.2752 50.2389 50.2751 50.2389 50.2902 50.2389C50.3053 50.2389 50.2701 50.254 50.2651 50.2515L50.2752 50.2389ZM51.097 50.1359C51.0597 50.1421 51.0234 50.1531 50.989 50.1686C51.0207 50.1582 51.0536 50.1514 51.087 50.1485L51.097 50.1359ZM73.8332 65.5369C73.8153 65.5669 73.7952 65.5954 73.7728 65.6222C73.7912 65.5991 73.808 65.5748 73.8231 65.5494L73.8332 65.5369ZM73.7577 65.6373C73.7346 65.6612 73.7103 65.6838 73.6849 65.7052C73.7066 65.6885 73.7275 65.6709 73.7477 65.6524L73.7577 65.6373ZM73.6547 65.7228C73.6292 65.7415 73.6023 65.7583 73.5743 65.773C73.5985 65.7619 73.622 65.7494 73.6446 65.7353L73.6547 65.7228ZM62.9075 82.126C62.9314 82.1638 62.961 82.1977 62.9954 82.2264C62.9584 82.2023 62.9254 82.1726 62.8974 82.1385L62.9075 82.126ZM60.4795 70.2443C61.1606 71.1436 64.4029 71.3671 65.4083 70.8572C65.8934 70.8346 66.4136 70.9325 66.8635 70.7743C65.3555 70.8296 63.865 71.5078 62.3922 70.8748C61.6859 70.8673 60.947 70.9929 60.4695 70.2669L60.4795 70.2443ZM67.3536 82.2616C67.3561 82.2282 67.3561 82.1945 67.3536 82.1611C67.354 82.2023 67.3506 82.2435 67.3436 82.2842L67.3536 82.2616ZM67.3536 82.141C67.3493 82.1087 67.3426 82.0768 67.3335 82.0456C67.338 82.0847 67.3388 82.1243 67.336 82.1636L67.3536 82.141ZM67.326 82.0229C67.326 81.9903 67.3059 81.9602 67.2933 81.9275C67.2883 81.9802 67.2984 82.0129 67.3084 82.0456L67.326 82.0229ZM67.3486 82.3772C67.3486 82.3445 67.3486 82.3093 67.3486 82.2741C67.3411 82.3319 67.336 82.3671 67.331 82.3997L67.3486 82.3772ZM67.4089 70.3674C67.4327 70.3361 67.4545 70.3034 67.4743 70.2694C67.4498 70.3117 67.4221 70.352 67.3913 70.39L67.4089 70.3674ZM68.1303 70.0458C68.1138 70.0951 68.0858 70.1397 68.0487 70.1759C68.0115 70.2122 67.9662 70.2391 67.9166 70.2544C67.9605 70.2389 68.0007 70.2143 68.0344 70.1822C68.0682 70.1502 68.0949 70.1115 68.1127 70.0685L68.1303 70.0458ZM68.6028 70.066C68.6754 70.0583 68.7476 70.0465 68.8189 70.0308C68.7439 70.0546 68.6676 70.0739 68.5902 70.0885L68.6028 70.066ZM68.8265 70.0282C68.8935 70.0118 68.959 69.9899 69.0225 69.9629C68.9557 69.9983 68.8859 70.0278 68.8139 70.0509L68.8265 70.0282ZM69.0376 69.9554C69.0975 69.9284 69.1554 69.8974 69.211 69.8625C69.1521 69.9057 69.0899 69.9443 69.025 69.978L69.0376 69.9554ZM69.2286 69.8499C69.4155 69.7188 69.5702 69.547 69.681 69.3475C69.7803 69.3604 69.8812 69.3434 69.9708 69.2987C70.0603 69.2539 70.1345 69.1835 70.1837 69.0963L70.435 68.8451C70.2038 69.0561 70.048 69.3927 69.681 69.3475C69.5695 69.5566 69.4102 69.7365 69.2161 69.8725L69.2286 69.8499ZM44.8864 70.7266C45.9672 70.6613 47.0228 70.4277 47.8196 69.5987C48.4479 69.5987 49.0084 69.458 49.3276 68.8325L49.594 68.6115C49.0913 69.1767 48.659 69.6866 47.8346 69.5987C47.0102 70.4503 45.9546 70.6764 44.8739 70.7492L44.8864 70.7266ZM42.1569 79.3628C42.1432 79.3834 42.1314 79.4053 42.1217 79.4281C42.1284 79.4134 42.1359 79.3991 42.1443 79.3853L42.1569 79.3628ZM42.0941 79.5034C42.0776 79.5667 42.0684 79.6315 42.0664 79.6968C42.0659 79.6395 42.0709 79.5823 42.0815 79.526L42.0941 79.5034ZM49.7197 68.5989C49.8603 68.5847 49.9936 68.5295 50.1031 68.4402C50.2125 68.3509 50.2934 68.2314 50.3355 68.0966C50.4712 68.084 50.5868 68.0564 50.6371 67.9684C50.5893 68.0564 50.4712 68.084 50.3355 68.0966C50.2959 68.2385 50.2137 68.365 50.1 68.4589C49.9863 68.5527 49.8466 68.6095 49.6996 68.6216L49.7197 68.5989ZM51.1448 67.4887C51.5875 67.3018 51.9768 67.008 52.2778 66.6335C52.5787 66.2591 52.7819 65.8158 52.869 65.3434C52.9444 65.2555 53.0198 65.1676 53.0927 65.0772C52.5297 66.0619 52.2607 67.1219 51.1247 67.5112L51.1448 67.4887ZM53.9623 65.1752C53.9012 65.0703 53.8732 64.9495 53.8819 64.8285C53.8623 64.9548 53.8834 65.0841 53.9422 65.1977L53.9623 65.1752ZM36.8009 51.397C38.6784 51.9446 40.6715 52.04 42.5817 52.4972C41.0791 52.1595 39.5561 51.9195 38.0224 51.7788C37.4971 51.4296 36.8738 51.4447 36.2881 51.299C36.4415 51.3643 36.6124 51.392 36.7808 51.4196L36.8009 51.397ZM35.3582 51.0503C35.4071 51.0554 35.4558 51.0629 35.504 51.0729C35.4485 51.0731 35.3931 51.0765 35.3381 51.083L35.3582 51.0503ZM33.2871 55.5819C33.3033 55.5222 33.3334 55.4672 33.3749 55.4214C33.4164 55.3755 33.4681 55.3402 33.5259 55.3182C33.6089 54.7178 33.6918 54.1149 33.7773 53.5145C33.6968 54.1149 33.6139 54.7178 33.5259 55.3182C33.4476 55.3531 33.3816 55.4109 33.3368 55.4839C33.2919 55.557 33.2702 55.642 33.2746 55.7276C33.27 55.6867 33.2692 55.6455 33.2721 55.6045L33.2871 55.5819ZM32.1234 85.4744C32.1009 85.4719 32.0782 85.4719 32.0556 85.4744C32.0739 85.4803 32.0915 85.4879 32.1084 85.497L32.1234 85.4744ZM32.043 85.4744C32.0232 85.4767 32.0037 85.4818 31.9852 85.4895C31.9997 85.4905 32.014 85.4931 32.0279 85.497L32.043 85.4744ZM32.2064 85.4644C32.2332 85.4619 32.2601 85.4619 32.2868 85.4644C32.2538 85.4715 32.2218 85.4825 32.1913 85.497L32.2064 85.4644ZM33.7697 64.316C32.704 62.5903 32.1561 60.2441 32.5432 58.2622C32.2037 59.8969 32.4614 61.5989 33.2696 63.06C33.2301 63.2953 33.2561 63.5369 33.3448 63.7584C33.4334 63.9799 33.5813 64.1728 33.7722 64.316C33.7633 64.3883 33.7696 64.4617 33.7908 64.5313C33.812 64.601 33.8477 64.6654 33.8954 64.7205C33.8475 64.671 33.8104 64.6123 33.7862 64.5479C33.762 64.4835 33.7512 64.4149 33.7547 64.3462L33.7697 64.316ZM35.2627 66.5768C35.0289 66.2377 34.5263 66.1648 34.5087 65.6976C34.5193 65.8393 34.5732 65.9744 34.6631 66.0845C34.753 66.1945 34.8746 66.2743 35.0114 66.313C35.514 67.0666 35.7251 67.9056 36.7506 68.094L37.0019 68.3176C36.2756 67.8605 35.4235 67.6394 35.2476 66.612L35.2627 66.5768ZM36.9969 81.6185C36.979 81.6331 36.9622 81.6491 36.9466 81.6662C36.9582 81.6616 36.9699 81.6574 36.9818 81.6537L36.9969 81.6185ZM36.8788 81.7617C36.8626 81.7926 36.8483 81.8245 36.836 81.8572C36.8445 81.8367 36.8537 81.8166 36.8637 81.7969L36.8788 81.7617ZM36.9316 81.6813C36.9142 81.7032 36.899 81.7268 36.8863 81.7517C36.896 81.7437 36.9061 81.7361 36.9165 81.729L36.9316 81.6813ZM37.2231 81.5532C37.239 81.552 37.255 81.552 37.2709 81.5532C37.2486 81.5624 37.2275 81.5742 37.2081 81.5884L37.2231 81.5532ZM37.4443 81.415C37.4431 81.4025 37.4431 81.3899 37.4443 81.3774C37.4346 81.4005 37.4295 81.4252 37.4292 81.4502L37.4443 81.415ZM37.487 81.1865C37.486 81.1965 37.486 81.2066 37.487 81.2166C37.4822 81.2202 37.4772 81.2236 37.4719 81.2266L37.487 81.1865ZM37.4619 81.2719C37.4619 81.2719 37.4619 81.2945 37.4619 81.3096C37.4619 81.3246 37.4443 81.3196 37.4468 81.3071L37.4619 81.2719ZM38.324 80.9578C38.3661 80.8646 38.439 80.7887 38.5306 80.7429C38.6222 80.6971 38.7267 80.6843 38.8267 80.7066C38.7206 80.6825 38.6093 80.6981 38.5139 80.7504C38.4185 80.8027 38.3455 80.8881 38.3089 80.9905L38.324 80.9578ZM38.8267 80.7066C39.5329 79.7747 40.4931 79.8702 41.4507 79.9531C40.488 79.8978 39.5279 79.8024 38.8292 80.7243L38.8267 80.7066ZM41.8679 79.9782C41.947 79.8886 42.0177 79.7919 42.079 79.6893L41.8679 79.9782ZM42.2373 79.2673C42.2739 79.2374 42.3157 79.2144 42.3605 79.1995C42.3116 79.2221 42.268 79.2546 42.2323 79.295L42.2373 79.2673ZM42.9763 78.6468C42.9511 78.6895 42.9235 78.7323 42.9009 78.78C42.9184 78.7599 42.9461 78.7147 42.9712 78.6745L42.9763 78.6468ZM43.1271 78.4484C43.0831 78.4912 43.0435 78.5384 43.0089 78.5891C43.0433 78.5482 43.0811 78.5104 43.122 78.476L43.1271 78.4484ZM43.1271 78.4358C43.2567 78.318 43.4149 78.2361 43.5859 78.1982C43.757 78.1603 43.935 78.1678 44.1023 78.2198C43.9333 78.1723 43.7549 78.1697 43.5847 78.2125C43.4145 78.2552 43.2585 78.3418 43.1321 78.4635L43.1271 78.4358ZM44.1023 78.2198C44.1211 78.1426 44.1658 78.0741 44.2289 78.0257C44.2919 77.9773 44.3696 77.9518 44.4491 77.9535C44.3666 77.9543 44.287 77.9842 44.2244 78.038C44.1618 78.0918 44.1204 78.166 44.1073 78.2474L44.1023 78.2198ZM64.8428 79.7119C64.8077 79.6119 64.7372 79.5283 64.6445 79.4769C64.5518 79.4255 64.4435 79.4099 64.3401 79.4331C64.1189 78.78 63.478 78.6795 62.9678 78.466C63.4705 78.6896 64.1189 78.78 64.3401 79.4331C64.4435 79.4099 64.5518 79.4255 64.6445 79.4769C64.7372 79.5283 64.8077 79.6119 64.8428 79.7119C64.9275 79.6886 65.0161 79.6833 65.103 79.6965C65.1899 79.7096 65.273 79.7409 65.347 79.7883C65.4209 79.8357 65.4841 79.8981 65.5323 79.9715C65.5806 80.0449 65.6128 80.1276 65.6269 80.2143C65.6088 80.1311 65.5739 80.0525 65.5244 79.9832C65.4748 79.914 65.4116 79.8556 65.3386 79.8116C65.2657 79.7677 65.1845 79.739 65.1001 79.7275C65.0157 79.716 64.9299 79.7218 64.8478 79.7446L64.8428 79.7119ZM66.9163 81.4C66.7454 80.7217 66.3935 80.2419 65.6269 80.2093C66.5971 80.2093 66.6851 81.0106 67.1073 81.6361C67.0497 81.5644 66.9875 81.4965 66.9213 81.4326L66.9163 81.4ZM67.2506 81.8798C67.2506 81.8496 67.2255 81.822 67.2104 81.7918C67.2305 81.8546 67.243 81.8823 67.2556 81.9124L67.2506 81.8798ZM67.1827 81.7492C67.167 81.7204 67.1493 81.6927 67.1299 81.6662C67.1525 81.703 67.1718 81.7417 67.1877 81.7818L67.1827 81.7492ZM67.2431 82.5806C67.0771 82.8188 66.847 83.0052 66.5795 83.1182C66.8448 83.015 67.0762 82.8402 67.2481 82.6133L67.2431 82.5806ZM67.3235 82.3721C67.3172 82.4066 67.3071 82.4403 67.2933 82.4726C67.3069 82.451 67.3187 82.4283 67.3285 82.4047L67.3235 82.3721ZM67.2933 82.4776C67.2791 82.5123 67.2623 82.5459 67.2431 82.5781C67.2628 82.5565 67.2812 82.534 67.2983 82.5103L67.2933 82.4776ZM66.577 83.1207C65.7828 83.9748 65.1494 83.8918 64.4683 82.8443C65.1544 83.9245 65.7878 84.0074 66.582 83.1533L66.577 83.1207ZM64.4683 82.8443C64.3841 82.8718 64.2949 82.8801 64.2072 82.8686C64.1194 82.8572 64.0353 82.8262 63.9611 82.778C63.8869 82.7298 63.8244 82.6657 63.7782 82.5902C63.732 82.5148 63.7033 82.4299 63.6941 82.3419C63.6987 82.4325 63.724 82.5208 63.7681 82.6C63.8122 82.6792 63.8739 82.7473 63.9484 82.799C64.0229 82.8506 64.1083 82.8845 64.198 82.8981C64.2877 82.9116 64.3793 82.9044 64.4657 82.877L64.4683 82.8443ZM63.3724 82.3419C63.3269 82.3377 63.2815 82.3311 63.2367 82.3219C63.2825 82.3423 63.3295 82.3599 63.3775 82.3746L63.3724 82.3419ZM62.9879 82.2013C63.0205 82.2283 63.0569 82.2503 63.096 82.2666C63.0608 82.2633 63.0262 82.2558 62.9929 82.244L62.9879 82.2013ZM63.1035 82.2716C63.1436 82.2871 63.1847 82.2998 63.2266 82.3093C63.1874 82.3136 63.148 82.3153 63.1085 82.3144L63.1035 82.2716ZM62.8898 82.0908C62.8625 82.047 62.8413 81.9996 62.827 81.9501C62.8386 82.0147 62.8616 82.0769 62.8949 82.1335L62.8898 82.0908ZM62.3872 81.8396C62.0655 81.8973 61.8217 81.7567 61.696 81.3372C61.8217 81.8019 62.0655 81.9426 62.3872 81.8848V81.8396ZM61.6935 81.3271C60.5725 81.415 59.5772 80.9328 58.5517 80.6112C59.5772 80.9755 60.5725 81.4603 61.701 81.3724L61.6935 81.3271ZM58.328 80.5434C58.2526 80.5208 58.1797 80.5007 58.1043 80.4831C58.1823 80.5459 58.2526 80.566 58.328 80.5886V80.5434ZM47.0153 101.533C46.9348 101.533 46.8519 101.533 46.7639 101.546C46.8519 101.574 46.9348 101.574 47.0153 101.574V101.533ZM44.987 82.5656C44.9883 82.5396 44.9883 82.5136 44.987 82.4877C44.9903 82.5286 44.9903 82.5698 44.987 82.6107V82.5656ZM44.7507 82.1862C44.8122 82.212 44.8659 82.2533 44.9065 82.3061C44.9471 82.359 44.9731 82.4216 44.9819 82.4877C44.9661 82.4299 44.9369 82.3766 44.8967 82.3321C44.8566 82.2877 44.8066 82.2532 44.7507 82.2314V82.1862ZM44.9845 82.5831C44.9857 82.604 44.9857 82.625 44.9845 82.6459C44.9846 82.64 44.9846 82.6342 44.9845 82.6283V82.5831ZM43.5669 99.873C43.5289 99.8559 43.4894 99.8425 43.4488 99.8329C43.4908 99.8537 43.5303 99.8789 43.5669 99.9082V99.873ZM43.2879 99.8027C43.2385 99.8001 43.189 99.8001 43.1396 99.8027C43.1897 99.8118 43.2392 99.8235 43.2879 99.8379V99.8027ZM43.1597 88.7274C43.1738 88.7083 43.1864 88.6881 43.1974 88.6671C43.1883 88.7002 43.1756 88.7322 43.1597 88.7626V88.7274ZM40.9002 98.509C40.9762 98.5192 41.0475 98.5516 41.1052 98.6021C41.1629 98.6526 41.2043 98.7189 41.2244 98.7929C41.1961 98.7286 41.1511 98.6731 41.0941 98.632C41.0371 98.5909 40.9702 98.5658 40.9002 98.5593V98.509ZM40.8223 98.509C40.8482 98.5064 40.8743 98.5064 40.9002 98.509C40.8723 98.5226 40.8462 98.5395 40.8223 98.5593V98.509ZM42.9788 99.8002C42.6269 99.0616 41.9734 98.8758 41.2194 98.7954C41.9533 98.8682 42.6194 99.0466 42.9788 99.8002ZM43.2955 99.8002C43.3422 99.8047 43.3884 99.8131 43.4337 99.8253C43.3873 99.8257 43.3411 99.8299 43.2955 99.8379V99.8002ZM43.7303 99.961C43.7581 99.9796 43.785 99.9998 43.8107 100.021C43.7842 100.013 43.7574 100.005 43.7303 99.9986V99.961ZM43.592 99.8831C43.6276 99.8973 43.662 99.9141 43.6951 99.9333C43.6652 99.9274 43.635 99.9232 43.6046 99.9207L43.592 99.8831ZM44.0143 100.267C45.0523 100.423 46.025 100.715 46.7413 101.556C46.0275 100.752 45.0523 100.461 44.0143 100.318V100.267ZM50.3279 102.433C50.4963 102.485 50.6672 102.536 50.8306 102.576C50.6672 102.578 50.4963 102.523 50.3279 102.47V102.433ZM47.0329 101.541C48.174 101.541 49.1869 102.056 50.245 102.405C49.1869 102.094 48.174 101.574 47.0329 101.574V101.541ZM71.9607 101.875C72.5362 101.662 73.1143 101.373 73.7653 101.569C73.1143 101.418 72.5362 101.699 71.9607 101.913V101.875ZM73.7653 101.569C73.7742 101.482 73.8012 101.399 73.8445 101.323C73.8878 101.248 73.9465 101.183 74.0166 101.132C73.9418 101.187 73.8804 101.258 73.8369 101.34C73.7934 101.423 73.7689 101.513 73.7653 101.606V101.569ZM74.1021 101.079C74.0757 101.093 74.0505 101.109 74.0267 101.126C74.0516 101.121 74.0767 101.118 74.1021 101.116V101.079ZM74.5495 100.941C74.4715 100.966 74.3886 100.986 74.2981 101.006C74.3886 101.024 74.4715 101.003 74.5495 100.978V100.941ZM78.0305 99.5615C76.8291 99.6495 75.8991 100.441 74.8209 100.848C75.8991 100.441 76.8316 99.6495 78.0305 99.5615C78.0619 99.4625 78.1288 99.3785 78.2183 99.3257C78.3078 99.2728 78.4137 99.2549 78.5156 99.2752C78.4097 99.2586 78.3015 99.2827 78.2128 99.3429C78.1241 99.4031 78.0616 99.4947 78.038 99.5992L78.0305 99.5615ZM79.7698 98.5241C79.2168 98.5518 78.7368 98.7 78.5131 99.2777C78.7343 98.7025 79.2143 98.5543 79.7698 98.5241C79.8031 98.3576 79.9013 98.2111 80.0427 98.1169C80.1841 98.0226 80.3571 97.9885 80.5238 98.0217C80.4388 98.0056 80.3514 98.0068 80.2668 98.0253C80.1823 98.0438 80.1023 98.0793 80.0319 98.1295C79.9614 98.1797 79.9019 98.2437 79.8568 98.3176C79.8118 98.3914 79.7822 98.4737 79.7698 98.5593V98.5241ZM80.5238 98.0217C80.5377 97.9386 80.5689 97.8592 80.6153 97.7888C80.6618 97.7184 80.7225 97.6586 80.7936 97.6132C80.8647 97.5677 80.9445 97.5377 81.0279 97.525C81.1113 97.5123 81.1964 97.5172 81.2778 97.5394C81.194 97.5176 81.1065 97.5141 81.0213 97.5291C80.936 97.5441 80.855 97.5773 80.7837 97.6264C80.7124 97.6755 80.6525 97.7394 80.6081 97.8136C80.5637 97.8879 80.5358 97.9709 80.5263 98.0569L80.5238 98.0217ZM83.8867 95.2962C83.8867 95.2962 83.8867 95.3113 83.8867 95.3188C83.8867 95.3264 83.8867 95.3414 83.8892 95.3339L83.8867 95.2962ZM86.0859 49.8621C86.0615 49.8468 86.038 49.83 86.0155 49.8119C86.035 49.8428 86.0569 49.8722 86.0809 49.8998L86.0859 49.8621ZM85.2967 48.6815C85.2967 48.6539 85.2967 48.6263 85.2967 48.5961C85.2892 48.664 85.2967 48.6916 85.2992 48.7192L85.2967 48.6815ZM85.3344 48.8272C85.3214 48.793 85.3113 48.7577 85.3043 48.7217C85.3064 48.7702 85.314 48.8181 85.3269 48.8649L85.3344 48.8272ZM85.3344 48.8272C85.3744 48.9229 85.4372 49.0072 85.5174 49.0729C85.5976 49.1386 85.6927 49.1836 85.7944 49.204C85.6988 49.1875 85.6083 49.1491 85.5298 49.0921C85.4514 49.035 85.3871 48.9607 85.342 48.8749L85.3344 48.8272ZM85.7944 49.204C85.7859 49.2956 85.7918 49.3881 85.812 49.4778C85.7989 49.4032 85.7955 49.3272 85.8019 49.2517L85.7944 49.204ZM85.8471 49.5934C85.8313 49.5571 85.8195 49.5192 85.812 49.4804C85.8178 49.5358 85.8322 49.59 85.8547 49.6411L85.8471 49.5934ZM85.9175 49.7089C85.9372 49.735 85.9591 49.7593 85.9829 49.7818C85.9632 49.7744 85.9439 49.766 85.9251 49.7566L85.9175 49.7089ZM85.8522 49.6009C85.8673 49.634 85.8849 49.6659 85.905 49.6963C85.8892 49.6811 85.874 49.6652 85.8597 49.6486L85.8522 49.6009ZM94.3022 54.2631C93.7995 52.7006 93.3027 51.1374 92.8118 49.5733C93.3144 51.1692 93.8138 52.7484 94.3097 54.3109L94.3022 54.2631ZM91.359 86.5169C91.359 86.4867 91.359 86.4566 91.359 86.4289C91.3439 86.4566 91.3439 86.4867 91.359 86.5169ZM91.359 86.4264C91.359 86.3988 91.359 86.3711 91.359 86.346C91.359 86.3711 91.3439 86.3988 91.3439 86.4264H91.359ZM91.4093 86.2004C91.3996 86.2178 91.392 86.2364 91.3867 86.2556C91.3871 86.237 91.3896 86.2185 91.3942 86.2004H91.4093ZM91.3791 86.2707C91.3779 86.2933 91.3779 86.3159 91.3791 86.3385C91.3712 86.3163 91.3645 86.2937 91.359 86.2707H91.3791ZM91.3339 44.7226C91.3326 44.7335 91.3326 44.7445 91.3339 44.7553C91.3257 44.7454 91.319 44.7344 91.3138 44.7226H91.3339ZM91.3791 44.2002C90.796 43.8812 90.7131 43.2607 90.5145 42.7156C90.693 43.2607 90.7759 43.8812 91.359 44.2002H91.3791ZM90.3738 42.3915C90.3477 42.3484 90.3174 42.308 90.2833 42.2709C90.3104 42.3089 90.334 42.3492 90.3537 42.3915H90.3738ZM89.5217 42.5046C89.5135 42.5364 89.5026 42.5675 89.4891 42.5975C89.4924 42.5666 89.4932 42.5356 89.4916 42.5046H89.5217ZM89.5443 42.379C89.5443 42.3966 89.5443 42.4116 89.5443 42.4267C89.5443 42.4418 89.5117 42.3966 89.5142 42.379H89.5443ZM88.5189 43.9264C88.5481 43.915 88.5753 43.8989 88.5993 43.8786C88.5663 43.9023 88.5286 43.9185 88.4887 43.9264H88.5189ZM88.6923 43.7103C88.6949 43.6878 88.6949 43.665 88.6923 43.6425C88.6851 43.6662 88.675 43.689 88.6621 43.7103H88.6923ZM88.6923 43.5872C88.6935 43.568 88.6935 43.5487 88.6923 43.5294C88.6812 43.5496 88.6686 43.5689 88.6546 43.5872H88.6923ZM88.6647 43.8158C88.6504 43.8386 88.6326 43.859 88.6119 43.8761C88.6194 43.8567 88.6244 43.8365 88.627 43.8158H88.6647ZM88.6973 43.738C88.6921 43.7608 88.6836 43.7828 88.6722 43.8033C88.6709 43.781 88.6667 43.7591 88.6596 43.738H88.6973ZM88.5239 43.9289C88.4478 43.9568 88.3684 43.9746 88.2877 43.9816C88.3556 43.9715 88.4222 43.9538 88.4862 43.9289H88.5239ZM88.2877 43.9816C88.3155 44.1486 88.2766 44.3199 88.1793 44.4586C88.0819 44.5972 87.934 44.692 87.7674 44.7226C87.927 44.6837 88.0659 44.5853 88.1555 44.4476C88.2452 44.31 88.2789 44.1433 88.25 43.9816H88.2877ZM87.7548 45.004C87.7481 45.0428 87.7372 45.0807 87.7221 45.117C87.7245 45.0793 87.7228 45.0414 87.7171 45.004H87.7548ZM87.7171 45.1271C87.7029 45.1594 87.6861 45.1904 87.6669 45.22C87.6732 45.1893 87.6774 45.1583 87.6794 45.1271H87.7171ZM87.6543 45.2351C87.6353 45.2602 87.6143 45.2838 87.5914 45.3054C87.6014 45.2826 87.6097 45.2591 87.6166 45.2351H87.6543ZM87.5588 45.3281C87.5378 45.3462 87.5151 45.3622 87.4909 45.3758C87.502 45.3606 87.5121 45.3446 87.5211 45.3281H87.5588ZM88.6119 52.3841C88.26 52.5499 87.9483 52.6354 87.8578 52.025C87.9106 52.6379 88.2223 52.5499 88.5742 52.3841H88.6119ZM87.5236 51.9245C87.5003 51.9068 87.48 51.8856 87.4633 51.8617C87.4683 51.8835 87.4759 51.9045 87.4859 51.9245H87.5236ZM87.423 51.6858C87.4192 51.7108 87.4192 51.7362 87.423 51.7612C87.4063 51.7384 87.3936 51.7129 87.3853 51.6858H87.423ZM87.423 51.6381C87.423 51.6155 87.423 51.5954 87.423 51.5703C87.3979 51.5853 87.3979 51.618 87.3929 51.6381H87.423ZM87.4507 51.8516C87.4381 51.8294 87.428 51.8058 87.4205 51.7813C87.4182 51.8047 87.4182 51.8283 87.4205 51.8516H87.4507ZM87.1114 51.1508C87.1099 51.1282 87.1099 51.1055 87.1114 51.083C87.1015 51.105 87.0931 51.1276 87.0863 51.1508H87.1114ZM87.1968 51.3291C87.1871 51.3203 87.1787 51.3102 87.1717 51.299C87.1686 51.3105 87.1669 51.3223 87.1667 51.3342L87.1968 51.3291ZM87.1541 51.2814C87.1541 51.2689 87.1415 51.2537 87.134 51.2412C87.1264 51.2286 87.1164 51.2689 87.124 51.2814H87.1541ZM87.1265 51.2211C87.1253 51.2036 87.1253 51.186 87.1265 51.1684C87.1116 51.1848 87.0982 51.2025 87.0863 51.2211H87.1265ZM88.921 43.2833C88.9298 43.2761 88.9375 43.2677 88.9436 43.2582C88.9303 43.2759 88.9119 43.289 88.8909 43.2958L88.921 43.2833ZM88.9788 43.2004C88.974 43.2134 88.9681 43.226 88.9612 43.2381C88.958 43.2252 88.9539 43.2126 88.9487 43.2004H88.9788ZM88.9788 43.1778C88.9803 43.1619 88.9803 43.146 88.9788 43.1301C88.9737 43.1466 88.9669 43.1626 88.9587 43.1778H88.9788ZM88.9788 43.11C88.9801 43.089 88.9801 43.0681 88.9788 43.0472C88.9776 43.0682 88.9751 43.0892 88.9713 43.11H88.9788ZM88.9788 43.0346C88.9788 43.0095 88.9788 42.9818 88.9788 42.9542C88.9763 42.9818 88.9763 43.0095 88.9763 43.0446L88.9788 43.0346ZM88.9788 42.9542C89.1462 42.9284 89.2968 42.8383 89.3986 42.703C89.3483 42.7707 89.2851 42.8277 89.2126 42.8708C89.1401 42.914 89.0598 42.9423 88.9763 42.9542H88.9788ZM89.4564 42.6176C89.4395 42.6508 89.4202 42.6827 89.3986 42.713C89.4193 42.6826 89.4378 42.6507 89.4539 42.6176H89.4564ZM90.0998 88.323C90.0998 88.3506 90.0998 88.3757 90.0998 88.4059C90.1023 88.3757 90.1023 88.3506 90.1023 88.323H90.0998ZM90.1752 88.0416C90.2251 87.9697 90.2892 87.9088 90.3635 87.8625C90.4379 87.8163 90.5209 87.7858 90.6075 87.7729C90.5205 87.7855 90.4369 87.8158 90.3621 87.862C90.2873 87.9083 90.2228 87.9694 90.1727 88.0416H90.1752ZM90.1023 88.2702C90.1049 88.2352 90.1116 88.2006 90.1224 88.1672C90.1124 88.1974 90.1056 88.2286 90.1023 88.2602V88.2702ZM90.1274 88.1497C90.1384 88.1137 90.1536 88.079 90.1727 88.0466C90.1527 88.0789 90.1367 88.1135 90.1249 88.1497H90.1274ZM90.6075 87.7729C90.6075 87.2027 90.7558 86.7279 91.3615 86.5169C90.7533 86.7279 90.605 87.2027 90.605 87.7729H90.6075ZM91.5349 86.0622C91.5449 86.0541 91.5559 86.0473 91.5676 86.0421L91.5349 86.0622ZM92.6408 83.8567C92.7188 82.975 92.852 82.1159 93.6286 81.5155C92.8495 82.1108 92.7188 82.9699 92.6383 83.8516L92.6408 83.8567ZM93.6085 81.2568C93.5658 80.2043 94.0056 79.2472 94.2997 78.2726C94.0031 79.2472 93.5632 80.1993 93.606 81.2518L93.6085 81.2568ZM93.6261 81.4879C93.6261 81.4151 93.6261 81.3422 93.6085 81.2693C93.6211 81.3372 93.6211 81.41 93.6211 81.4778L93.6261 81.4879ZM94.3047 78.2499C94.3499 78.0992 94.3927 77.9435 94.4279 77.7903C94.3902 77.9385 94.3474 78.0942 94.3022 78.2449L94.3047 78.2499Z" fill="#F6D8A8"/>
<path d="M53.1177 64.6469C53.1177 64.6469 53.132 64.6468 53.132 64.6325L53.1177 64.6469Z" fill="#F6D8A8"/>
<path d="M53.3768 64.1568H53.3938C53.3938 64.1568 53.3938 64.1374 53.3938 64.1301L53.3768 64.1568Z" fill="#F6D8A8"/>
<path d="M70.7191 68.4449C70.7191 68.4449 70.7361 68.4303 70.7434 68.4206L70.7191 68.4449Z" fill="#F6D8A8"/>
<path d="M49.599 68.4148C49.599 68.4148 49.6134 68.4148 49.6134 68.4005L49.599 68.4148Z" fill="#F6D8A8"/>
<path d="M34.4105 65.15C34.4184 65.1612 34.4277 65.1713 34.4382 65.1801L34.4105 65.15Z" fill="#F6D8A8"/>
<path d="M94.3121 54.3108C94.3272 54.1903 94.3448 54.0596 94.3599 53.9491L94.5006 54.3159L94.3121 54.3108Z" fill="#F6D8A8"/>
<path d="M41.903 115.221C43.7881 116.329 42.926 118.178 42.8682 119.974C42.1795 120.288 41.5763 120.185 40.7871 120.047C41.1943 118.474 40.5257 116.711 41.903 115.221Z" fill="#214863"/>
<path d="M48.0735 57.8151L48.556 57.9105L48.0936 58.0612C48.086 57.9783 48.0785 57.898 48.0735 57.8151Z" fill="#6D4B3F"/>
<path d="M99.9874 85.8135C99.9874 85.8285 100.07 85.8135 100.08 85.8135H99.9874Z" fill="#1D2831"/>
<path d="M42.074 18.7029C42.0793 18.6987 42.0841 18.6939 42.0883 18.6885L42.074 18.7029Z" fill="#1D2831"/>
<path d="M42.054 79.7185C42.0661 79.7185 42.0782 79.7064 42.0758 79.6918L42.054 79.7185Z" fill="#1D2831"/>
<path d="M89.0493 90.0178C89.0639 90.0178 89.0639 90.0177 89.0663 89.9959L89.0493 90.0178Z" fill="#1D2831"/>
<path d="M37.6824 96.2985C37.6624 96.331 37.6449 96.3634 37.6274 96.3959L37.6824 96.2985Z" fill="#1D2831"/>
<path d="M72.7824 18.5728C72.7824 18.5579 72.7599 18.5528 72.7474 18.5428L72.7824 18.5728Z" fill="#1D2831"/>
<path d="M38.4644 84.379L38.4194 84.3465H38.4044L38.4644 84.379Z" fill="#1D2831"/>
<path d="M111.944 111.835C111.944 110.78 111.75 109.866 111.612 108.841C111.541 108.615 111.697 108.17 111.431 108.087C110.798 104.374 109.817 100.728 108.503 97.1978L108.447 97.1575C108.395 96.7933 108.163 96.4441 108.045 96.09C107.965 95.9166 107.895 95.7358 107.819 95.56L107.879 95.5373L107.817 95.5549L107.565 95.0525C107.482 94.8842 107.392 94.7134 107.314 94.5501C107.223 94.3818 107.133 94.216 107.045 94.0477L106.774 93.5755C106.369 93.2464 106.386 92.7114 105.944 92.4124L105.869 92.4602L105.939 92.4049C105.942 92.3718 105.934 92.3388 105.918 92.31C105.901 92.2813 105.876 92.2583 105.846 92.2442C104.607 89.7925 102.433 87.7402 100.274 86.0119C100.073 85.8336 99.7713 85.7432 99.6054 85.5673C98.8137 85.3513 98.4442 84.4545 97.5947 84.3942L97.107 84.1129L96.6044 83.8441C96.4586 83.7813 96.3304 83.6582 96.1645 83.6808C96.2047 83.6833 96.245 83.6833 96.2852 83.6808C96.2625 83.505 96.2424 83.3291 96.2198 83.1533C99.5752 74.7281 99.7386 65.5695 98.0144 56.7927C97.2488 52.3058 96.0268 47.9088 94.3674 43.6701C93.5773 41.4357 92.6541 39.2506 91.6027 37.1264C91.4327 36.3905 91.1089 35.6988 90.6526 35.0968L90.6326 35.054C90.3963 34.5516 90.2455 34.0141 89.8383 33.6222L89.5669 33.1349C89.4714 32.9716 89.3759 32.8109 89.2829 32.6476C89.0919 32.1829 88.9762 31.6855 88.5666 31.3614L88.28 30.8792C88.2624 30.3567 87.7774 30.0954 87.6869 29.6885L87.0836 28.8268C87.0082 28.7088 86.9555 28.5756 86.8901 28.4526C86.5382 27.9627 86.1839 27.4754 85.8295 26.9856H85.8471C85.7993 26.9052 85.636 26.6741 85.6535 26.6791L84.8819 25.6744L84.897 25.6894L84.6457 25.3955L84.0701 24.6896L84.1028 24.7123C83.776 24.2727 83.4041 23.8758 83.0396 23.4688H83.0572C82.9868 23.3834 82.8536 23.2176 82.821 23.1875C82.165 22.5243 81.6045 21.8863 80.9284 21.3035C80.7449 21.0674 80.4257 20.9116 80.3729 20.6051L79.8551 20.1229C79.7647 20.045 79.6792 19.9571 79.5887 19.8717C79.1011 19.4924 78.5834 19.0025 78.0229 18.784C78.0698 18.7865 78.1168 18.7865 78.1636 18.784L77.4096 18.2012C77.4096 18.2012 77.4096 18.2012 77.4096 18.2163C76.7235 17.7289 76.1328 17.0733 75.3838 16.7091L74.6298 16.2067C74.2394 15.9107 73.8181 15.6581 73.3731 15.4531C72.44 14.8111 71.4258 14.2959 70.357 13.9208L70.3772 13.9434C64.4405 11.1802 57.584 10.4693 51.4011 12.9386C51.4016 12.9319 51.4016 12.9252 51.4011 12.9185L50.1243 13.4435L50.1393 13.426C49.2472 13.7372 48.3978 14.1592 47.6109 14.682C47.6109 14.682 47.6109 14.6819 47.6109 14.6669C47.4902 14.7397 47.1509 14.9733 47.1409 14.9633C46.8571 15.093 46.5897 15.2557 46.3441 15.4481C44.904 16.1841 43.3834 17.5104 42.2222 18.362C41.7195 18.8443 41.2847 19.3869 40.7141 19.7762C40.705 19.8035 40.6896 19.8282 40.669 19.8482C40.6485 19.8683 40.6235 19.8833 40.596 19.8918C40.4477 20.2334 40.0305 20.3942 39.8923 20.7408C39.8661 20.7469 39.8421 20.76 39.8226 20.7785C39.8032 20.7971 39.789 20.8204 39.7817 20.8463C39.7646 20.8449 39.7474 20.8475 39.7315 20.8537C39.7155 20.8599 39.7012 20.8698 39.6896 20.8823C39.678 20.8949 39.6694 20.9099 39.6644 20.9263C39.6595 20.9427 39.6583 20.96 39.661 20.9769C39.6313 20.9874 39.6041 21.004 39.5811 21.0257C39.5582 21.0473 39.54 21.0735 39.5278 21.1025C39.3946 21.1025 39.4248 21.2181 39.367 21.2959C36.6425 23.9712 34.3603 27.4101 32.5205 30.8138C32.2423 31.276 31.9642 31.7383 31.686 32.2005L31.6559 32.2658C31.6307 32.3411 31.5076 32.6099 31.5428 32.5722C31.4448 32.7456 31.3467 32.9188 31.2462 33.0922L30.9672 33.5946L30.7159 34.0969L30.4444 34.5993H30.457C30.369 34.7702 30.2836 34.941 30.2056 35.1017H30.2207L29.9694 35.6041C29.9743 35.6055 29.9796 35.6055 29.9845 35.6041C29.9016 35.7749 29.8186 35.9483 29.7332 36.1191C29.6175 36.3301 29.5019 36.5386 29.3888 36.7496C28.6122 38.5231 27.7677 40.2789 27.2147 42.1453C22.188 55.2302 19.476 70.3372 24.5505 83.7712C24.7927 84.2259 25.0051 84.6958 25.1864 85.178C25.6299 86.4206 26.2116 87.6095 26.9207 88.7224C27.0413 88.9359 27.2801 89.1092 27.2725 89.3654L26.428 89.9984C26.0938 90.2496 25.8047 90.5812 25.4453 90.8173C25.4453 90.8173 25.4453 90.8174 25.4453 90.7973L24.9929 91.159H25.0758C24.7466 91.2896 24.4726 91.6011 24.1534 91.7845L24.1962 91.8774L24.1433 91.7895C23.7526 92.1543 23.3322 92.4862 22.8867 92.7817L22.8565 92.8043L22.203 93.4072C22.1233 93.4838 22.0394 93.556 21.9517 93.6232L21.6802 93.8744C21.3514 94.0427 21.0802 94.3051 20.9011 94.628L20.6749 94.8917C20.4112 95.0779 20.2231 95.3525 20.1446 95.6654C18.8879 97.8659 19.7726 101.044 22.0547 102.053C22.6908 102.314 23.3848 102.401 24.0654 102.305C22.8088 107.158 20.9137 112.033 20.9916 116.997L21.3183 117.386C21.3485 117.427 21.4113 117.507 21.439 117.547L22.947 118.301C22.4795 121.885 22.0447 125.475 21.9416 129.102L24.4148 129.065C24.7441 125.766 25.1412 122.413 25.4202 119.054C26.2069 119.135 27.0262 119.589 27.833 119.765C28.3357 119.765 28.8962 120.017 29.419 120.117C29.3612 123.131 29.321 126.106 29.0068 129.067H31.4749C31.2462 120.624 34.4608 112.393 33.1488 103.96C31.1004 108.155 30.4067 112.707 29.6854 117.339C27.5188 116.987 25.6916 116.201 23.6985 115.58C25.2266 108.547 25.9404 100.117 32.9704 96.4391C51.3181 113.955 83.208 108.891 94.757 86.2204C104.129 90.3727 107.384 101.059 108.638 110.426C110.951 115.666 95.1567 116.316 91.3966 116.736C90.7909 113.47 91.0774 109.954 88.9687 107.095C88.8364 107.161 88.7266 107.265 88.6528 107.393C88.5791 107.521 88.5447 107.668 88.554 107.816C88.5389 111.081 88.3429 114.347 88.8782 117.582C89.2427 120.971 91.8415 117.834 91.6429 121.602C91.8691 124.086 91.7686 126.58 91.8113 129.07L94.2971 129.085C94.4001 125.864 94.1563 122.642 94.4127 119.424C98.3813 119.107 102.242 118.09 106.133 117.291C106.266 117.362 106.383 117.462 106.474 117.582C106.385 117.461 106.268 117.363 106.133 117.296C106.213 121.22 106.339 125.141 106.419 129.065L109.139 129.105C109.068 124.802 108.807 120.464 108.817 116.191V116.115C108.971 116.039 109.132 115.976 109.297 115.927C109.955 115.538 110.772 115.492 111.22 114.837C111.087 114.837 110.946 114.817 110.82 114.819C111.388 114.962 111.69 114.568 111.717 114.033C111.908 113.703 112.027 113.337 112.065 112.958C112.104 112.579 112.063 112.197 111.944 111.835ZM97.6927 84.6304C97.6581 84.5637 97.6279 84.4949 97.6022 84.4244C97.6316 84.4917 97.6651 84.5572 97.7027 84.6203L97.6927 84.6304ZM97.19 84.2786C97.1605 84.2409 97.1376 84.1984 97.1221 84.153C97.1408 84.1954 97.1663 84.2345 97.1975 84.2687L97.19 84.2786ZM96.3606 81.415C96.3907 81.3095 96.4209 81.2015 96.4561 81.0985C96.4284 81.1915 96.3983 81.2995 96.3681 81.405L96.3606 81.415ZM97.5142 56.3732C97.4962 56.3232 97.4819 56.272 97.4715 56.2199C97.485 56.2671 97.5018 56.3132 97.5218 56.3581L97.5142 56.3732ZM97.6148 56.5666C97.5831 56.5249 97.5569 56.4793 97.5368 56.4309C97.56 56.4762 97.5887 56.5184 97.6223 56.5565L97.6148 56.5666ZM91.5801 37.7092C91.5801 37.7293 91.5801 37.7494 91.5801 37.7695C91.5902 37.7393 91.5877 37.7192 91.5877 37.6991L91.5801 37.7092ZM92.2713 39.5178C92.2465 39.4704 92.2263 39.4209 92.211 39.3696C92.2349 39.4184 92.2635 39.4646 92.2964 39.5077L92.2713 39.5178ZM91.57 37.5258C91.57 37.4103 91.6002 37.2872 91.6128 37.1691C91.6254 37.2671 91.6103 37.4002 91.5952 37.5183L91.57 37.5258ZM91.57 37.6037C91.57 37.5811 91.57 37.556 91.57 37.5309C91.5927 37.5459 91.5902 37.571 91.5902 37.5937L91.57 37.6037ZM89.5593 41.8037C89.5399 41.7184 89.5465 41.6293 89.5783 41.5477C89.6101 41.4662 89.6657 41.3961 89.7378 41.3465C89.6756 41.3999 89.6297 41.4696 89.6053 41.5478C89.5808 41.626 89.5788 41.7094 89.5996 41.7886L89.5593 41.8037ZM89.4538 33.1047C89.4037 33.0671 89.3632 33.018 89.3357 32.9617C89.3081 32.9054 89.2944 32.8433 89.2954 32.7807C89.2991 32.8441 89.3178 32.9057 89.3502 32.9603C89.3825 33.0149 89.4276 33.061 89.4814 33.0947L89.4538 33.1047ZM88.7073 32.1778C88.7059 32.1704 88.7059 32.1627 88.7073 32.1552C88.7162 32.1581 88.7257 32.1589 88.735 32.1577L88.7073 32.1778ZM88.3755 31.2836C88.3391 31.2319 88.3133 31.1736 88.2995 31.112C88.2857 31.0503 88.2842 30.9866 88.2951 30.9244C88.2863 31.0471 88.325 31.1685 88.4032 31.2635L88.3755 31.2836ZM87.6592 30.53C87.6276 30.482 87.6093 30.4266 87.6064 30.3692C87.6204 30.4231 87.6481 30.4725 87.6869 30.5124L87.6592 30.53ZM81.6673 22.2404C81.644 22.234 81.622 22.2238 81.602 22.2103C81.6321 22.2194 81.6638 22.2219 81.695 22.2179L81.6673 22.2404ZM81.4813 21.9139C81.4417 21.9124 81.4022 21.9083 81.3632 21.9014C81.412 21.9022 81.4608 21.8988 81.509 21.8913L81.4813 21.9139ZM81.3355 21.8938C81.3106 21.8898 81.2861 21.883 81.2626 21.8737C81.2961 21.8778 81.33 21.8769 81.3632 21.8712L81.3355 21.8938ZM78.5029 22.7479C78.4474 22.7289 78.3902 22.7155 78.332 22.7077C78.402 22.7054 78.472 22.7113 78.5406 22.7253L78.5029 22.7479ZM72.041 17.6888C71.9933 17.6485 71.941 17.6139 71.8852 17.5858C71.9436 17.6133 71.9985 17.648 72.0486 17.6888H72.041ZM71.0809 17.3698C71.0563 17.3339 71.0266 17.3017 70.9929 17.2743C71.0287 17.3019 71.0608 17.334 71.0884 17.3698H71.0809ZM69.701 16.684C69.6735 16.6815 69.6457 16.6815 69.6181 16.684C69.6482 16.681 69.6785 16.681 69.7086 16.684H69.701ZM48.6338 17.4752C48.6433 17.4379 48.6568 17.4017 48.6741 17.3672C48.656 17.4016 48.6416 17.4378 48.6313 17.4752H48.6338ZM49.9433 16.4705C49.8987 16.4754 49.8548 16.4856 49.8126 16.5006C49.8574 16.4858 49.9038 16.4765 49.9508 16.473L49.9433 16.4705ZM46.4949 18.8343C46.4949 18.8343 46.4799 18.8343 46.4748 18.8343C46.4698 18.8343 46.4949 18.8392 46.5025 18.8367L46.4949 18.8343ZM45.4921 19.5903C45.4921 19.5903 45.477 19.5903 45.472 19.5903C45.467 19.5903 45.4921 19.5953 45.4996 19.5928L45.4921 19.5903ZM45.4318 19.6556C45.4318 19.6556 45.4393 19.6606 45.4393 19.6581L45.4318 19.6556ZM43.1798 21.6477C43.167 21.6799 43.1585 21.7137 43.1546 21.7481C43.1581 21.719 43.1649 21.6903 43.1748 21.6627L43.1798 21.6477ZM42.9134 21.8989C42.9012 21.9245 42.8919 21.9514 42.8857 21.9792C42.8914 21.9576 42.8989 21.9366 42.9083 21.9164L42.9134 21.8989ZM42.9134 21.8737C42.9134 21.8737 42.9209 21.8963 42.9209 21.8913L42.9134 21.8737ZM41.3902 23.4889C41.3902 23.4889 41.3978 23.5115 41.3978 23.5065L41.3902 23.4889ZM41.2244 23.5869C41.2244 23.5869 41.2244 23.5869 41.2244 23.6045C41.2244 23.6221 41.2168 23.6095 41.2218 23.6045L41.2244 23.5869ZM39.6887 25.4131C39.6839 25.4447 39.6839 25.4769 39.6887 25.5085C39.6846 25.4828 39.6838 25.4566 39.6862 25.4306L39.6887 25.4131ZM40.0129 24.7398C40.0129 24.7398 40.0154 24.775 40.0179 24.77L40.0129 24.7398ZM39.7138 25.3252C39.7138 25.3252 39.7138 25.3377 39.7138 25.3428C39.7138 25.3478 39.7138 25.3604 39.7188 25.3553L39.7138 25.3252ZM39.5479 25.5538C39.5112 25.5558 39.4753 25.5651 39.4423 25.5814C39.479 25.5746 39.5167 25.5755 39.553 25.5839L39.5479 25.5538ZM39.3318 25.6969C39.3482 25.6577 39.3752 25.6239 39.4097 25.599C39.3754 25.629 39.3474 25.6656 39.3276 25.7066C39.3077 25.7476 39.2963 25.7921 39.2941 25.8376C39.3027 25.7995 39.3153 25.7625 39.3318 25.7271V25.6969ZM36.5495 29.7161C36.4606 29.7605 36.3869 29.8303 36.3377 29.9166C36.2885 30.0029 36.2659 30.1019 36.273 30.2009C36.2739 30.1054 36.3021 30.0122 36.3542 29.9321C36.4063 29.852 36.4801 29.7884 36.567 29.7488L36.5495 29.7161ZM35.6396 30.6908C35.6289 30.7162 35.6196 30.7421 35.6119 30.7686C35.6225 30.7573 35.6334 30.7465 35.6446 30.736L35.6396 30.6908ZM27.4384 42.4041C27.4485 42.5521 27.4485 42.7006 27.4384 42.8487C27.4454 42.7114 27.4437 42.5738 27.4334 42.4367L27.4384 42.4041ZM30.4092 35.3705C30.4171 35.3198 30.4171 35.2681 30.4092 35.2173C30.4192 35.2791 30.4174 35.3421 30.4042 35.4032L30.4092 35.3705ZM30.1604 35.8729C30.1744 35.7957 30.1744 35.7166 30.1604 35.6393C30.1775 35.7126 30.1769 35.7889 30.1585 35.8619C30.1402 35.9349 30.1046 36.0024 30.0548 36.0588C30.1008 36.0171 30.1354 35.9644 30.1554 35.9056L30.1604 35.8729ZM27.4208 43.0673C27.4032 43.213 27.3756 43.3561 27.3454 43.4993C27.3706 43.3888 27.3982 43.2456 27.4158 43.0999L27.4208 43.0673ZM27.2926 43.7103C27.2549 43.8509 27.2097 43.9891 27.1644 44.1273C27.2047 44.0218 27.2499 43.8836 27.2876 43.743L27.2926 43.7103ZM26.9759 81.8923C26.9465 82.3615 27.0214 82.8315 27.1952 83.2685C27.369 83.7054 27.6375 84.0984 27.9813 84.4193C27.9716 84.5412 27.9997 84.6632 28.0617 84.7685C27.6169 83.8517 26.8101 83.1006 26.9709 81.9174L26.9759 81.8923ZM23.04 93.0606C23.0364 93.0884 23.0314 93.1161 23.0249 93.1434C23.0289 93.1243 23.0323 93.105 23.035 93.0856L23.04 93.0606ZM22.9973 93.1987C22.989 93.2159 22.9798 93.2327 22.9696 93.249C22.9783 93.2409 22.9867 93.2325 22.9947 93.2238L22.9973 93.1987ZM22.9218 93.2967C22.9131 93.3079 22.903 93.318 22.8917 93.3268C22.9002 93.3257 22.9086 93.3241 22.9168 93.3218L22.9218 93.2967ZM20.514 95.6453C20.4709 95.6646 20.4264 95.6806 20.3808 95.6931C20.424 95.6886 20.4669 95.681 20.509 95.6705L20.514 95.6453ZM20.4864 99.6042C20.4437 99.4811 20.4034 99.353 20.3657 99.2324C20.3984 99.3731 20.4386 99.4962 20.4814 99.6193L20.4864 99.6042ZM20.9187 100.466C21.0782 100.714 21.2635 100.945 21.4716 101.154C21.2626 100.95 21.0756 100.724 20.9136 100.481L20.9187 100.466ZM21.4792 101.162C21.6975 101.382 21.9356 101.582 22.1905 101.759C21.9389 101.587 21.7033 101.392 21.4867 101.177L21.4792 101.162ZM25.4403 119.21C25.4579 119.198 25.4704 119.183 25.488 119.173C25.5056 119.162 25.4528 119.213 25.4352 119.225L25.4403 119.21ZM23.7412 99.7399C21.3183 99.1596 22.7359 95.4544 24.445 95.3389C27.1268 95.9845 26.8478 99.1445 23.7488 99.7549L23.7412 99.7399ZM28.6876 96.5898C28.3133 95.3348 27.4736 94.2701 26.3401 93.6132C30.4168 90.4833 34.4634 87.386 38.4043 84.3189L38.726 84.1204L38.7009 84.1405C39.5806 83.4322 40.405 82.7966 41.6416 82.9649C43.22 84.0827 42.1442 85.5573 41.0534 86.4993L41.076 86.4766L40.787 86.7429L40.8096 86.7228C36.9114 90.0486 32.797 93.2313 28.6825 96.6049L28.6876 96.5898ZM29.8035 87.8457C29.9775 87.8395 30.1427 87.7676 30.2658 87.6445C30.3889 87.5215 30.4608 87.3564 30.467 87.1825L30.7184 86.959C30.3313 87.2554 30.369 87.8758 29.7985 87.8607L29.8035 87.8457ZM42.0462 99.5063C41.0685 99.0817 39.8847 98.8054 39.2664 97.7479C39.7892 98.6145 40.6312 98.9913 41.5586 99.2324C41.6031 99.3212 41.6736 99.3942 41.7608 99.4418C41.8479 99.4894 41.9475 99.5092 42.0462 99.4987L42.2976 99.7499L42.0462 99.5063ZM43.3029 100.26C43.3352 100.326 43.3832 100.384 43.4428 100.428C43.5023 100.471 43.5716 100.5 43.6448 100.511C43.5719 100.501 43.5026 100.474 43.4426 100.432C43.3826 100.389 43.3339 100.333 43.3004 100.267L43.3029 100.26ZM78.9931 99.2576C78.7417 99.7826 78.2617 99.9559 77.7188 100.011C78.2617 99.9609 78.7241 99.7876 78.9931 99.2576C79.0901 99.2631 79.1872 99.2468 79.2771 99.2099C79.1812 99.2507 79.0769 99.2679 78.9729 99.2601L78.9931 99.2576ZM80.2498 98.504C80.3552 98.5133 80.4614 98.4985 80.5603 98.4606C80.6592 98.4228 80.7481 98.3628 80.8203 98.2854C80.7454 98.3664 80.6524 98.4285 80.5488 98.4665C80.4452 98.5044 80.3341 98.5173 80.2246 98.504H80.2498ZM91.3237 86.9615C91.3011 87.1624 91.2609 87.3533 91.0473 87.4412C91.0724 87.7502 91.0473 88.0316 90.7959 88.1572C91.0624 88.0316 91.0825 87.7502 91.0473 87.4412C91.2609 87.3533 91.2986 87.1624 91.3237 86.9615ZM91.9697 86.238C92.0612 86.0243 92.0874 85.7883 92.0451 85.5598C91.9331 85.7164 91.8123 85.8666 91.6832 86.0094C91.6052 86.1978 91.648 86.4943 91.3941 86.5269C91.2534 87.3986 90.4089 87.9763 90.1374 88.7249C89.9942 88.7802 90.052 88.9358 90.0394 89.0489C90.0419 89.0004 90.0419 88.9518 90.0394 88.9032C89.8987 89.0339 89.7479 89.1544 89.6121 89.2926L89.4789 89.6844H89.494C89.3859 89.9532 89.019 89.9357 89.0592 90.2346C88.9951 90.2709 88.9278 90.3012 88.8581 90.325L88.7199 90.6968L88.4937 90.9781L88.5238 90.9454C88.4434 91.0384 88.3605 91.1313 88.2725 91.2268L87.9005 91.6387C87.8578 91.7041 87.6341 91.9879 87.7145 91.9075L87.4456 92.214L87.4883 92.1763C86.7343 92.8772 86.0532 93.7564 85.2262 94.4974C84.334 95.2334 83.9067 96.4065 82.7129 96.6426C82.6199 97.4088 81.9589 96.8612 82.0368 97.248C82.0342 97.2155 82.0274 97.1833 82.0167 97.1525C81.8684 97.2178 81.6271 97.2655 81.6623 97.469L81.2727 97.6047C81.2635 97.6684 81.2422 97.7298 81.2099 97.7855C81.3083 97.7911 81.4065 97.7708 81.4946 97.7268C81.5828 97.6827 81.6579 97.6164 81.7125 97.5343C81.8508 97.5218 81.9639 97.4891 82.0167 97.4012C80.9314 97.9278 79.8951 98.5499 78.9202 99.2601C78.8196 99.2727 78.4954 99.3932 78.513 99.3455C77.8847 99.7298 77.3543 100.232 76.6581 100.514C76.3188 100.679 75.977 100.84 75.6327 100.993L74.5544 101.415C74.8686 101.775 75.5246 101.498 75.6804 101.046C75.4994 101.511 75.1174 101.586 74.6751 101.564C73.5038 102.244 72.3175 102.877 70.905 102.82C69.7161 103.704 68.276 103.807 66.8835 104.045C68.2634 103.794 69.7036 103.704 70.905 102.82C72.3225 102.887 73.5088 102.254 74.6751 101.564L74.5444 101.415L73.7325 101.667L73.7526 101.644C65.275 105.098 55.0857 105.075 46.7387 101.644L46.2738 101.571C46.471 101.908 46.7716 102.172 47.1308 102.325C46.7546 102.149 46.4357 101.87 46.2109 101.521C45.9676 101.57 45.7176 101.577 45.472 101.541C45.6903 101.574 45.9122 101.574 46.1305 101.541C45.4594 101.129 44.4113 100.998 43.9589 100.375C43.8931 100.365 43.8262 100.365 43.7604 100.375C43.471 100.258 43.2027 100.094 42.9661 99.8906C42.006 99.6595 41.1364 98.7727 40.4151 98.4186C40.2266 98.2829 39.7364 97.8936 39.661 97.9162C39.4801 97.8709 39.1207 97.7203 39.2212 97.5821C39.1508 97.5369 38.8467 97.2957 38.9271 97.3837C38.4521 97.3636 38.1228 96.7004 37.9042 96.6476L37.7106 96.6049C37.7304 96.7251 37.7914 96.8347 37.8831 96.9149C37.9748 96.9951 38.0915 97.0409 38.2133 97.0445L38.4797 97.2656C38.1002 96.9918 37.7408 96.9089 37.5799 96.4266C37.4216 96.3839 37.1125 96.1754 37.1979 96.0749C37.1326 96.0222 36.8284 95.7659 36.9265 95.8589C36.8511 95.8086 36.5846 95.5876 36.6223 95.6453L36.2277 95.4494C36.2253 95.6476 36.2991 95.8391 36.4338 95.9845C36.273 95.7333 36.1121 95.3288 35.9311 95.0349C34.2799 94.8114 39.9099 91.5609 40.2517 90.7646L40.5181 90.5335L40.1939 90.5536C40.3084 90.5637 40.4236 90.5462 40.5299 90.5025C40.6362 90.4588 40.7304 90.3901 40.8046 90.3024L40.7669 90.3401C40.8649 90.2622 40.9655 90.1894 41.0585 90.1115C41.0596 90.1165 41.0596 90.1216 41.0585 90.1265L41.4882 89.7598H41.4078C41.7421 89.6191 42.001 89.28 42.2926 89.0564V89.0765C42.7435 88.9141 43.1249 88.602 43.3733 88.1923C43.2956 88.1839 43.2172 88.1839 43.1396 88.1923C43.2275 88.1597 43.4588 88.2752 43.4613 88.117C43.7536 87.9607 44.0004 87.7313 44.1776 87.4513C45.0372 86.0421 45.4041 84.2636 44.9316 82.8067C44.8271 82.4587 44.6258 82.1477 44.351 81.9099L44.0142 81.7164H44.2278C44.2147 81.5788 44.2513 81.4411 44.3311 81.3282C44.4109 81.2153 44.5285 81.1347 44.6627 81.101C44.6978 80.5409 45.1327 80.5333 45.5273 80.473C46.1506 79.7194 47.0655 79.6039 47.925 79.4381C47.0655 79.6039 46.1506 79.7119 45.5273 80.473C45.1327 80.5333 44.6978 80.5409 44.6627 81.101C49.7598 78.2851 56.6063 79.2321 61.6532 81.3673C62.0355 81.4109 62.3986 81.5576 62.7038 81.7918C63.9052 82.0882 65.4836 84.3264 66.5794 82.9699H64.8703C64.8251 82.4926 64.4833 82.4675 64.1163 82.4675C64.4833 82.4675 64.8251 82.4952 64.8703 82.9699C65.4585 82.9398 66.0767 83.0227 66.6498 82.9323C66.6498 82.4299 66.6498 81.9275 66.6498 81.4251L66.6347 82.8519C67.0695 82.45 66.8282 81.9425 66.8484 81.4778C66.7805 81.4577 66.7151 81.4351 66.6498 81.41C66.5304 81.2734 66.433 81.1192 66.3608 80.9528C66.1798 80.9352 66.0617 80.7493 65.9134 80.6564C65.0488 79.7697 63.8499 79.2798 62.646 78.8377L62.6636 78.8553C62.2061 78.7021 61.8467 78.3831 61.3616 78.3529V78.373C58.5421 77.2761 55.5426 76.7148 52.517 76.7176C50.2314 76.5782 47.9407 76.8906 45.7761 77.637C45.7224 77.7248 45.6472 77.7975 45.5574 77.848C45.6294 77.8112 45.6908 77.7567 45.7359 77.6897C45.203 77.7425 44.4289 78.0992 44.0519 78.27C43.6422 78.8478 42.6871 78.8176 42.4283 79.4406C42.5956 79.4555 42.7631 79.4143 42.9042 79.3233C43.0454 79.2323 43.1521 79.0967 43.2074 78.9382C42.7274 79.6441 41.6818 79.5687 41.629 80.6639C41.6692 80.5007 41.7044 80.365 41.7371 80.2294L41.9658 79.9782C41.9121 80.0119 41.8537 80.0374 41.7924 80.0536C41.0384 80.571 39.6535 80.2871 38.7286 80.787L38.7562 80.7669C38.0198 81.1186 37.4543 81.7265 36.7178 82.0229C36.7083 82.0855 36.6896 82.1465 36.6626 82.2038C35.0942 83.191 33.6967 84.4369 32.1912 85.5472L32.2164 85.5246C31.5805 85.8211 31.4448 86.6173 30.9245 86.9363C31.0476 86.8896 31.1552 86.8097 31.2355 86.7055C31.3159 86.6013 31.3657 86.4768 31.3794 86.346C30.7712 86.4415 29.8236 88.2049 29.429 87.082C28.9515 86.856 29.0646 86.2204 28.675 85.9441C28.6423 85.7507 28.6298 85.5472 28.4237 85.4417C28.396 85.2483 28.396 85.0373 28.1723 84.9393C27.9867 84.5828 27.8602 84.1985 27.7978 83.8014C22.8389 72.083 24.9125 58.3426 28.8032 46.7573C29.1128 45.5458 29.5265 44.3633 30.0398 43.223C30.2854 42.3218 30.5979 41.4401 30.9748 40.5854L31.3115 39.8996C31.7061 39.0405 32.2515 37.9579 32.5682 37.2093C32.6336 37.0511 32.7869 36.7772 32.807 36.6843L32.9855 36.0689C33.2368 35.6343 33.6264 35.0264 33.8099 34.6823C33.8702 34.5541 34.0939 34.21 34.0738 34.195C34.1416 34.0493 34.3251 33.7503 34.3251 33.6926C34.4482 33.3936 34.5765 33.0922 34.6921 32.7932C34.7639 32.6632 34.8526 32.5433 34.956 32.4366C34.9205 32.1807 34.9299 31.9206 34.9836 31.6679C34.9369 31.8959 34.9226 32.1292 34.9409 32.3612C35.1922 31.894 35.6949 31.4695 35.5164 30.9344C35.5125 31.0725 35.5418 31.2094 35.6019 31.3338C35.7749 31.1224 35.9352 30.901 36.0819 30.6706L36.2001 30.2612C36.3774 29.9953 36.5748 29.7433 36.7907 29.5076C36.826 29.4476 36.8491 29.3812 36.8586 29.3122C36.8681 29.2432 36.8638 29.173 36.846 29.1057C36.846 29.1473 36.8612 29.1875 36.8888 29.2187C37.311 28.6384 37.8439 28.1235 38.0248 27.4202C37.9731 27.508 37.9398 27.6054 37.9268 27.7065C37.9716 27.6849 38.0204 27.6729 38.07 27.6714L38.2636 27.2343C38.3214 27.1137 38.5903 26.8399 38.6255 26.9429C39.127 26.1718 39.6716 25.4296 40.2567 24.7198C40.2129 24.7219 40.1692 24.727 40.126 24.7349C40.4688 24.5778 40.7386 24.2955 40.88 23.9461C40.8731 23.9809 40.8731 24.0167 40.88 24.0516C40.9655 23.9436 41.1113 23.8607 41.1012 23.7125C41.0958 23.7475 41.0958 23.783 41.1012 23.818L41.3299 23.5542L41.5812 23.2779L41.8326 23.0041L41.7974 23.0393C41.9583 22.866 42.1267 22.6926 42.3001 22.5369C42.5514 22.2857 42.8254 22.0345 43.0943 21.8034L43.3456 21.5522C43.6397 21.2507 43.9514 20.9669 44.2555 20.678L44.2404 20.6931L44.527 20.4419L44.4993 20.4695L44.7959 20.2033L44.7607 20.2384L45.0673 19.9872L45.0346 20.0199L45.3413 19.8013L45.5775 19.623C45.5451 19.6121 45.5112 19.6062 45.477 19.6054C45.7937 19.6205 45.9998 19.1508 46.3165 19.0151C46.3165 19.0151 46.3165 19.0151 46.3165 19.0276L46.5854 18.8694C46.5542 18.8574 46.5208 18.8523 46.4874 18.8543C46.6256 18.892 46.7111 18.8543 46.6759 18.7036C46.6724 18.737 46.6724 18.7707 46.6759 18.8041L47.0504 18.475L47.0227 18.4976C47.3073 18.3626 47.5699 18.1856 47.8019 17.9726L47.7793 17.9952C47.8999 17.9324 48.0306 17.8747 48.1462 17.8094C48.1415 17.7461 48.151 17.6826 48.1739 17.6235C48.1511 17.6818 48.1416 17.7444 48.1462 17.8068L48.5609 17.5204L49.0636 17.2064L49.041 17.2266C49.4708 17.1763 49.4431 16.8096 49.6417 16.5885C49.5801 16.6468 49.5308 16.7169 49.4967 16.7946C49.4626 16.8722 49.4444 16.9559 49.4431 17.0407C50.4759 16.4769 51.5516 15.9956 52.6603 15.6013L52.708 15.5561C52.9418 15.5059 53.1856 15.3175 53.4143 15.3577C58.5416 13.6445 64.1188 14.2398 68.932 16.596L69.5704 16.7418V16.7267L70.0881 16.9779V16.9603C70.3126 17.1119 70.5722 17.2036 70.8421 17.2266C70.7354 17.186 70.622 17.1664 70.5079 17.1688C71.0105 17.3773 71.5434 17.9425 71.9028 18.0982L72.325 18.1987C72.7272 18.4725 73.0162 18.8418 73.4762 19.0754L73.451 19.0528C73.9775 19.371 74.4761 19.7332 74.9415 20.1354L74.9239 20.1178L75.5145 20.5248L75.4366 20.6051L75.517 20.5273L76.2032 21.1327L76.1755 21.1101L76.7662 21.5899L76.726 21.5522C76.8316 21.6552 77.02 21.7054 77.0603 21.8536L77.0452 21.7783C77.191 21.831 77.3317 22.0294 77.485 21.9264L77.387 21.9667C77.7992 22.3962 78.3748 23.0116 78.694 23.3859L78.9151 23.4512C78.9205 23.2443 78.8469 23.0431 78.7091 22.8886C78.9353 23.1749 78.9051 23.7376 79.4254 23.7577C79.3387 23.7114 79.2422 23.6864 79.1439 23.6848C83.3789 27.7643 86.1688 33.5293 89.2854 38.4829C89.1616 38.3777 89.0258 38.2874 88.8807 38.2141L89.2251 39.244C89.2937 39.1683 89.352 39.0839 89.3985 38.9928C89.2373 39.236 89.0583 39.4669 88.8631 39.6836H88.8807C88.657 40.0353 88.3328 40.3015 88.0865 40.6356C88.0211 40.7463 87.9489 40.8529 87.8703 40.9546H87.8904C87.7421 41.133 87.5964 41.3139 87.4581 41.4998L87.1088 41.967H87.1289C86.968 42.178 86.6941 42.3564 86.6765 42.6352C86.6874 42.5839 86.6941 42.5318 86.6966 42.4794C86.4803 42.6988 86.2796 42.933 86.0959 43.1803C85.7336 43.6489 85.3442 44.096 84.9297 44.5192C83.6378 44.5544 82.5973 43.5696 81.1596 43.6073L83.0949 45.6646L83.3211 45.9485C83.3277 45.9119 83.3277 45.8745 83.3211 45.838C83.3313 45.8767 83.3313 45.9173 83.3211 45.956C83.6956 46.3454 84.0299 46.8478 84.5401 46.9608C84.4228 46.8703 84.2753 46.8281 84.1279 46.8428C84.1848 47.0984 84.3088 47.3343 84.4873 47.526C84.6985 47.5436 84.794 47.7144 84.9121 47.8701C84.9322 47.958 85.1056 48.3072 85.0202 48.2343C85.4374 48.7367 85.7742 49.1613 86.1713 49.626C86.2154 49.8762 86.3236 50.1108 86.4855 50.3067C86.6941 50.3394 86.7846 50.4952 86.8977 50.6584C86.9253 50.7639 87.046 50.995 87.0233 51.0277C87.5537 51.5753 87.5537 52.0651 88.3429 52.4344C87.712 50.676 87.5562 48.9176 86.7066 47.5009L86.8022 47.5561C86.7217 46.9407 86.0657 46.2047 86.9152 45.7977V45.8128C86.963 45.7425 87.2118 45.4436 87.1239 45.5215C87.5637 44.6121 88.3353 43.6977 88.8983 43.022C88.9536 42.8763 89.0114 42.7331 89.0667 42.5874C88.835 42.6348 88.6267 42.7607 88.4769 42.9437C88.3272 43.1268 88.2452 43.3558 88.2448 43.5922C88.1568 43.6363 88.0837 43.7053 88.0345 43.7906C87.9854 43.8759 87.9624 43.9738 87.9684 44.072L87.7497 44.3383C88.0287 44.1348 87.9231 43.7454 88.2524 43.5847C88.1795 42.7884 89.034 42.8311 89.2577 42.2584V42.3262C89.3175 42.2893 89.3842 42.2654 89.4538 42.2559L89.5845 41.8389L89.9967 41.2963C89.9461 41.3052 89.8965 41.3186 89.8484 41.3365C89.9798 41.2896 90.1216 41.28 90.2581 41.3089C90.3259 41.6832 90.8211 41.756 90.9593 42.0323C90.8076 41.8319 90.6043 41.6765 90.3712 41.5826C90.6577 42.2609 90.9467 42.9366 91.2333 43.6123L91.369 44.273L91.3413 44.2428C95.8378 55.9838 98.1275 69.6138 93.6361 81.5431C93.3495 83.1835 92.1129 84.5475 91.9445 86.2506L91.9697 86.238ZM90.0218 89.182C90.0204 89.1729 90.0204 89.1636 90.0218 89.1544C90.0117 89.1618 90.0031 89.1712 89.9967 89.182H90.0218ZM42.5539 88.6369C42.5539 88.6596 42.5263 88.6796 42.5162 88.7023C42.5012 88.6696 42.5162 88.6495 42.5288 88.6269L42.5539 88.6369ZM42.4609 88.8203C42.4609 88.8404 42.4433 88.858 42.4358 88.8756C42.4283 88.8932 42.4283 88.8304 42.4358 88.8103L42.4609 88.8203ZM42.6067 88.5415C42.6218 88.5189 42.6419 88.4988 42.657 88.4787C42.6168 88.4888 42.5992 88.5114 42.5816 88.5315L42.6067 88.5415ZM42.7173 88.4034C42.7379 88.3828 42.7597 88.3635 42.7827 88.3456C42.7514 88.3593 42.7212 88.3752 42.6922 88.3933L42.7173 88.4034ZM42.848 88.2903C42.8774 88.2746 42.9076 88.2603 42.9385 88.2476C42.8993 88.2561 42.8607 88.2671 42.8229 88.2803L42.848 88.2903ZM43.0089 88.2124C43.0499 88.2008 43.092 88.1932 43.1345 88.1898C43.0839 88.1882 43.0333 88.1924 42.9837 88.2024L43.0089 88.2124ZM45.2709 77.8882C45.2382 77.9661 45.1987 78.0409 45.1528 78.1118C45.1949 78.0372 45.2302 77.959 45.2583 77.8781L45.2709 77.8882ZM45.3513 77.8907C45.412 77.8934 45.4729 77.8883 45.5323 77.8756C45.4675 77.8863 45.4015 77.888 45.3363 77.8807L45.3513 77.8907ZM65.3152 80.4153C64.6441 79.7647 63.2869 79.8601 62.739 78.8528C63.3196 79.6541 64.247 79.9757 65.1946 80.1741C65.2187 80.2557 65.2542 80.3335 65.3001 80.4052L65.3152 80.4153ZM61.0424 80.7217C60.9754 80.7077 60.9073 80.7001 60.8388 80.6991C61.2535 80.8096 61.6934 80.9654 62.0955 81.0935C61.8789 80.971 61.6289 80.9208 61.3817 80.9503C61.3008 80.8341 61.1785 80.7533 61.0399 80.7242L61.0424 80.7217ZM61.4647 78.4107C61.476 78.4353 61.4895 78.4588 61.5049 78.4811C61.4881 78.4557 61.4738 78.4288 61.4622 78.4007L61.4647 78.4107ZM59.8636 78.2273C59.9617 78.2575 60.0597 78.2826 60.1577 78.3077C60.0572 78.2725 59.9592 78.2474 59.8612 78.2123L59.8636 78.2273ZM86.9982 50.5705C86.9228 50.4826 86.8499 50.3947 86.7745 50.3193C86.7823 50.1534 86.735 49.9895 86.64 49.8533C86.545 49.717 86.4076 49.6159 86.2492 49.5657L86.0331 49.2944C86.5207 49.6561 86.7016 50.0505 86.9957 50.5604L86.9982 50.5705ZM84.7713 47.536C85.1182 47.9982 85.7918 48.0987 85.7491 48.8171C85.7491 48.2921 85.4299 48.0007 84.995 47.8123L84.7713 47.536ZM82.8813 44.7427C82.8305 44.6744 82.7851 44.6021 82.7455 44.5267C82.7847 44.5986 82.8293 44.6674 82.8788 44.7327L82.8813 44.7427ZM83.1904 45.4461C83.1904 45.4461 83.1904 45.4461 83.1904 45.431C83.1904 45.4159 83.1904 45.431 83.1879 45.436L83.1904 45.4461ZM86.2014 43.1577C86.2214 43.1545 86.2409 43.1485 86.2593 43.1401C86.2396 43.1453 86.2193 43.1479 86.1989 43.1476L86.2014 43.1577ZM86.3548 47.1442C86.4201 47.2109 86.4907 47.2722 86.5659 47.3276C86.4894 47.2691 86.4179 47.2044 86.3522 47.1341L86.3548 47.1442ZM86.5634 46.0841C86.5634 46.0264 86.5634 45.9685 86.5634 45.9158C86.5659 45.9585 86.5634 46.0163 86.5609 46.0741L86.5634 46.0841ZM86.6287 42.8186C86.6595 42.7959 86.6837 42.7656 86.6991 42.7306C86.6798 42.7567 86.6549 42.7782 86.6262 42.7934L86.6287 42.8186ZM87.5084 41.5751C87.5098 41.5559 87.5098 41.5366 87.5084 41.5173C87.5084 41.5316 87.5075 41.5459 87.5059 41.5601L87.5084 41.5751ZM89.3985 41.9494C89.351 42.0147 89.3199 42.0906 89.308 42.1705C89.3168 42.0856 89.347 42.0043 89.396 41.9344L89.3985 41.9494ZM91.1 42.2006C91.0833 42.1633 91.064 42.1272 91.0422 42.0926C91.0656 42.1189 91.0875 42.1466 91.1076 42.1755L91.1 42.2006ZM93.063 83.4748C93.0404 84.0501 93.0354 84.6354 92.5855 84.982C93.0354 84.6278 93.0404 84.0425 93.063 83.4748C93.1251 83.4348 93.1772 83.3812 93.2155 83.3181C93.2538 83.255 93.2773 83.1841 93.2842 83.1106C93.2735 83.1799 93.248 83.2461 93.2094 83.3046C93.1708 83.3631 93.12 83.4126 93.0605 83.4497L93.063 83.4748ZM94.0382 80.9378C94.0382 81.7039 94.0382 82.4675 93.2842 82.9624C94.0382 82.46 94.0382 81.7064 94.0382 80.9353C94.1054 80.9081 94.1641 80.8635 94.2083 80.8061C94.2525 80.7487 94.2805 80.6805 94.2896 80.6087C94.276 80.6765 94.2456 80.7398 94.2013 80.7929C94.1569 80.846 94.1 80.8872 94.0357 80.9126L94.0382 80.9378ZM96.2299 83.8717C96.1928 83.8506 96.1582 83.8253 96.1268 83.7964C96.1586 83.8164 96.1923 83.8332 96.2274 83.8466L96.2299 83.8717ZM96.8456 84.1456C96.8207 84.136 96.7971 84.1234 96.7753 84.1078C96.7974 84.1145 96.8201 84.1187 96.8431 84.1204L96.8456 84.1456ZM96.7677 84.1028C96.7582 84.0966 96.7498 84.0891 96.7426 84.0803C96.7502 84.0802 96.7578 84.0794 96.7652 84.0777L96.7677 84.1028ZM97.7128 84.6554C97.7966 84.8265 97.9274 84.9703 98.0898 85.07C97.9228 84.9639 97.7907 84.811 97.7103 84.6304L97.7128 84.6554ZM105.992 92.9199C105.962 92.8591 105.944 92.7937 105.937 92.7264C105.945 92.7849 105.963 92.8417 105.989 92.8947L105.992 92.9199ZM94.0382 120.054C94.037 119.989 94.0438 119.924 94.0583 119.861C94.0448 119.916 94.0372 119.972 94.0357 120.029L94.0382 120.054ZM91.9999 121.735C92.4221 121.951 92.3266 122.355 92.2989 122.714C92.3241 122.33 92.4196 121.921 91.9973 121.71L91.9999 121.735ZM94.1061 119.725C94.184 119.584 94.3448 119.486 94.6615 119.474C94.3423 119.461 94.1815 119.559 94.1036 119.7L94.1061 119.725ZM106.882 118.122C106.87 117.994 106.833 117.868 106.774 117.753C106.829 117.861 106.865 117.977 106.879 118.097L106.882 118.122ZM109.754 115.568C109.787 115.54 109.825 115.518 109.865 115.502C109.825 115.51 109.787 115.523 109.752 115.543L109.754 115.568ZM110.865 114.935C110.902 114.922 110.94 114.914 110.978 114.912C110.94 114.906 110.901 114.905 110.863 114.91L110.865 114.935Z" fill="#1D2831"/>
<path d="M24.6889 129.127H24.6587V129.148L24.6889 129.127Z" fill="#1D2831"/>
<path d="M44.7206 82.2163C44.7268 82.2307 44.7362 82.2435 44.7481 82.2538L44.7206 82.2163Z" fill="#1D2831"/>
<path d="M38.2964 81.0204C38.3087 81.0112 38.3203 81.0012 38.3314 80.9905L38.2964 81.0204Z" fill="#1D2831"/>
<path d="M64.8276 79.7471C64.8373 79.7584 64.8483 79.7685 64.8603 79.7772L64.8276 79.7471Z" fill="#1D2831"/>
<path d="M41.2018 98.8381C41.2115 98.8486 41.2225 98.8579 41.2345 98.8657L41.2018 98.8381Z" fill="#1D2831"/>
<path d="M66.6219 83.1106C66.6019 83.1106 66.5744 83.1231 66.5769 83.1531L66.6219 83.1106Z" fill="#1D2831"/>
<path d="M64.48 82.8761C64.48 82.8761 64.4654 82.8567 64.4557 82.8519L64.48 82.8761Z" fill="#1D2831"/>
<path d="M63.7109 82.3863C63.7109 82.3863 63.6939 82.3668 63.6842 82.3596L63.7109 82.3863Z" fill="#1D2831"/>
<path d="M87.7297 44.7026C87.7297 44.7026 87.7045 44.7176 87.702 44.7327L87.7297 44.7026Z" fill="#1D2831"/>
<path d="M79.7622 98.5835C79.7743 98.5835 79.7792 98.5665 79.7889 98.5593L79.7622 98.5835Z" fill="#1D2831"/>
<path d="M80.5186 98.0862C80.5307 98.0862 80.5355 98.0692 80.5452 98.0619L80.5186 98.0862Z" fill="#1D2831"/>
<path d="M38.2134 96.8009C38.2134 96.8009 38.236 96.816 38.2461 96.826L38.2134 96.8009Z" fill="#1D2831"/>
<path d="M82.1246 97.0521C82.5293 97.1877 82.6424 96.9214 82.7304 96.6175C82.5067 96.7506 82.2553 96.8285 82.1246 97.0521Z" fill="#1D2831"/>
<path d="M91.3588 86.5361H91.3782V86.5143L91.3588 86.5361Z" fill="#1D2831"/>
<path d="M88.2493 43.964C88.2371 43.964 88.2323 43.964 88.2323 43.9834L88.2493 43.964Z" fill="#1D2831"/>
<path d="M85.8286 49.2583C85.8286 49.2438 85.8286 49.2316 85.8043 49.2316L85.8286 49.2583Z" fill="#1D2831"/>
<path d="M44.2605 81.6914H44.0469L44.3761 81.8823C44.3748 81.8433 44.3635 81.8052 44.3432 81.7718C44.323 81.7384 44.2945 81.7107 44.2605 81.6914Z" fill="#1D2831"/>
<path d="M41.8451 80.0277H41.8619V80.0108L41.8451 80.0277Z" fill="#1D2831"/>
<path d="M84.2435 95.4821L84.4949 95.2309L84.7462 94.9495C84.6709 94.9792 84.5925 95.0003 84.5125 95.0123C84.4974 95.2158 84.3466 95.3138 84.1983 95.4344C83.9722 95.5251 83.7599 95.6469 83.5674 95.7961C83.4996 95.8564 83.2508 96.0649 83.2859 96.0473L82.9265 96.502C83.5674 96.4919 83.962 96.0146 84.2435 95.4821Z" fill="#1D2831"/>
<path d="M74.2024 54.0973C74.7453 53.5095 75.1625 52.673 74.5065 51.9873L74.2728 51.7361C73.8053 51.2487 73.2398 51.3216 72.6441 51.417C67.6777 52.3842 62.5906 53.1277 57.8151 54.7504C57.8216 54.7425 57.8274 54.7341 57.8327 54.7253C57.2672 54.768 56.7017 54.9564 56.0532 54.7429C55.8421 53.3814 57.3401 48.6262 54.5955 50.7916C54.5355 50.824 54.4697 50.8444 54.4019 50.8519C53.2533 53.1352 54.0425 55.71 53.0221 57.9883C52.3862 59.5357 52.1751 61.2388 51.4487 62.741L51.2728 63.0851L51.2929 63.0575C50.6949 64.1088 49.9194 65.0488 49.0007 65.8357L49.0358 65.8006L48.7267 66.0267V66.0116L48.4628 66.1774C48.4941 66.1889 48.5275 66.194 48.5608 66.1924C48.4955 66.1924 48.3723 66.1272 48.3673 66.2452C47.8068 66.4085 47.4951 66.9385 46.8794 66.9988C46.7096 67.07 46.5359 67.1312 46.3591 67.1822C43.6496 68.3151 40.5582 67.6846 38.3162 66.0241L37.7834 65.5745C37.7063 65.4843 37.6223 65.4003 37.5321 65.3233H37.5497L36.9264 64.5094C36.8991 64.5777 36.878 64.6484 36.8635 64.7204C36.8635 64.63 36.9716 64.5119 36.8635 64.434L36.5543 64.0723L36.2528 63.5699L36.2728 63.5951L36.1522 63.2685L36.112 63.1881C35.2172 61.0705 34.9734 58.8374 35.7702 56.6821C35.9141 56.4654 36.0394 56.2368 36.1447 55.9989L36.1271 56.0139C36.2226 55.8456 36.3231 55.6748 36.4161 55.5115C36.4589 55.3734 36.5016 55.2352 36.5418 55.0971C36.7579 55.1398 36.8258 54.8283 36.954 54.7203C36.8836 54.7931 36.7956 54.9489 36.7278 55.0317L41.7546 56.338C41.8162 56.632 41.8573 56.93 41.8777 57.2297C41.87 57.0131 41.8414 56.7978 41.7923 56.5866C41.2242 57.7271 41.179 59.3323 42.1894 60.1562C42.0315 59.9327 41.8297 59.7438 41.5962 59.601C41.5962 59.6613 41.5786 59.7216 41.5661 59.7794C41.6892 60.0658 42.0411 60.636 42.0536 60.7842C44.0166 63.7735 48.9001 61.6307 48.0305 58.1014L48.0682 58.0838L48.0481 57.8326C49.1716 57.9783 50.3478 58.5862 51.3532 57.6517L51.6548 57.4005C51.969 55.6673 52.4666 50.5604 50.3051 50.3117C50.2937 50.343 50.2733 50.3702 50.2465 50.3899C50.2196 50.4095 50.1876 50.4208 50.1543 50.4223L50.1744 50.3921C50.0689 50.5378 49.9231 50.7388 49.8351 50.8569C49.7312 52.1799 49.629 53.5036 49.5285 54.8283C49.159 54.8283 48.7745 55.1121 48.4477 55.0443C48.7423 55.0536 49.0342 54.9861 49.2947 54.8484L47.3343 54.243C47.333 54.2497 47.333 54.2564 47.3343 54.2631C44.2654 53.1025 41.003 52.7559 37.8412 51.9822C35.6897 51.4346 32.3947 50.902 34.2245 54.1952C31.98 57.5738 32.4651 62.2763 34.4909 65.5996C34.5594 65.6134 34.6261 65.6353 34.6894 65.665C34.7573 65.7554 34.8226 65.8508 34.8905 65.9412H34.8729L35.0086 66.3482C35.2926 66.4261 35.3328 66.8255 35.6797 66.951C35.7626 67.0415 35.8506 67.1319 35.931 67.2224C35.8581 67.1445 36.107 67.4107 36.1673 67.4534C36.7755 68.3703 37.7608 68.7572 38.6807 69.2847C41.7319 70.7919 45.2155 70.8597 48.2039 69.3174L48.7996 68.9456C49.5536 68.7999 49.9608 68.1217 50.5816 67.7901C50.5816 67.7248 50.6168 67.6971 50.6821 67.7021C50.7865 67.5015 50.9301 67.3239 51.1044 67.1797L51.0717 67.2148C51.2401 67.039 51.4236 66.8707 51.5744 66.6873L52.0569 66.1573C52.5345 65.4891 53.1628 65.0018 53.3513 64.1904C53.4375 64.1655 53.5286 64.1623 53.6163 64.1812C53.704 64.2 53.7857 64.2403 53.854 64.2985C53.7782 64.2528 53.6992 64.2124 53.6178 64.1778C53.8264 64.9138 54.2386 65.685 54.8895 66.0166C54.8125 65.9533 54.7194 65.9125 54.6206 65.8985C54.6849 66.0854 54.7924 66.2544 54.9343 66.3919C55.0762 66.5294 55.2486 66.6314 55.4374 66.6898C55.3796 66.6898 55.3168 66.6898 55.2515 66.6748L55.9904 67.4962V67.4736C56.5292 68.0414 57.1401 68.5364 57.8076 68.9456L58.2977 69.2521C59.0517 69.6263 59.6926 70.076 60.4366 70.3171V70.302C62.9173 71.0958 65.7976 70.8698 68.0672 70.1162L68.5322 69.8373L69.1555 69.4681C70.0076 69.2998 70.6636 68.5939 71.2869 68.0764L71.219 67.9986L71.297 68.0664C71.5332 67.7775 71.9077 67.5414 72.1138 67.2776C72.1802 67.2439 72.2352 67.1915 72.2722 67.1269C72.4028 67.0817 72.4506 66.8757 72.5838 66.7903C72.7658 66.6508 72.8958 66.4545 72.9533 66.2327C73.0312 66.1347 73.1166 66.0317 73.1845 65.9287C73.2443 65.8955 73.3101 65.8742 73.378 65.8659L73.5037 65.4414C73.6545 65.1525 74.0994 64.939 73.9059 64.5772C74.1321 64.7757 74.5091 63.6403 74.592 63.5976C75.7105 60.4752 75.7758 57.0413 74.2024 54.0973ZM35.4585 66.416C35.4332 66.4058 35.4072 66.3974 35.3806 66.3909C35.4073 66.399 35.4333 66.4091 35.4585 66.4211V66.416ZM42.78 61.3444C43.2263 61.5406 43.6987 61.6709 44.1825 61.7312C43.699 61.6725 43.2265 61.5439 42.78 61.3494V61.3444ZM44.6575 61.7664C44.8159 61.7664 44.9742 61.7664 45.1325 61.7664C44.9742 61.7865 44.8159 61.784 44.6575 61.7764V61.7664ZM46.5752 61.6056C46.5757 61.4926 46.5953 61.3805 46.6331 61.274C46.5941 61.3837 46.5746 61.4993 46.5752 61.6156V61.6056ZM47.7289 54.6801C47.7396 54.6895 47.7496 54.6995 47.7591 54.7102C47.7494 54.703 47.7393 54.6963 47.7289 54.6902V54.6801ZM51.5693 55.6371C51.5543 56.0775 51.5216 56.5171 51.4713 56.9559C51.5467 56.2988 51.582 55.6378 51.5769 54.9765C51.5794 55.2076 51.5769 55.4261 51.5693 55.6472V55.6371ZM47.852 54.7755C48.027 54.9166 48.2392 55.0038 48.4628 55.0267C48.2402 55.0067 48.0282 54.923 47.852 54.7856V54.7755ZM34.4406 65.15C34.4406 65.15 34.4406 65.1324 34.4406 65.1223C34.4406 65.1123 34.4406 65.1399 34.4406 65.15ZM34.3175 64.2809C34.2571 64.1402 34.1918 63.9995 34.1339 63.8563C34.1918 64.0096 34.2571 64.1452 34.3175 64.2909V64.2809ZM34.4506 64.733C34.4305 64.6029 34.3951 64.4755 34.3451 64.3537C34.3959 64.4788 34.4313 64.6094 34.4506 64.743V64.733ZM34.516 65.1876C34.5375 65.1998 34.5577 65.2142 34.5763 65.2304C34.5573 65.2176 34.5371 65.2067 34.516 65.1977V65.1876ZM34.6517 65.3233C34.6525 65.3291 34.6525 65.3351 34.6517 65.3409C34.6519 65.3384 34.6519 65.3359 34.6517 65.3334V65.3233ZM34.707 65.464C34.707 65.464 34.707 65.464 34.707 65.4766C34.707 65.4891 34.707 65.4791 34.707 65.474V65.464ZM35.2449 66.3583C35.2449 66.3583 35.2449 66.3582 35.2449 66.3432C35.2449 66.3281 35.2449 66.3432 35.2449 66.3583ZM48.6312 66.1548C48.6312 66.1548 48.6161 66.1548 48.6111 66.1548C48.6061 66.1548 48.6312 66.1548 48.6312 66.1548ZM47.5429 66.8531C46.3516 67.9307 44.9717 68.192 43.5466 68.1367C44.9818 68.1945 46.3691 67.9333 47.5529 66.8556L47.5429 66.8531ZM39.5227 66.8531C39.2412 66.8657 38.9747 66.8531 38.8466 66.6345C38.9848 66.8581 39.2512 66.8707 39.5327 66.8607L39.5227 66.8531ZM36.5443 64.1351C36.5467 64.1715 36.5517 64.2075 36.5594 64.2431C36.5598 64.2104 36.5623 64.1777 36.5669 64.1452L36.5443 64.1351ZM37.4315 68.4407C37.4164 68.4055 37.4039 68.3678 37.3888 68.3326C37.4139 68.3753 37.4265 68.4155 37.4416 68.4482L37.4315 68.4407ZM36.949 65.1299C36.949 65.1299 36.9489 65.1098 36.9314 65.1023C36.9138 65.0947 36.9515 65.1299 36.959 65.15L36.949 65.1299ZM36.861 64.7858C36.8587 64.8184 36.8587 64.8511 36.861 64.8837C36.8623 64.8534 36.8657 64.8232 36.871 64.7933L36.861 64.7858ZM36.8811 65.0219C36.8799 65.0043 36.8799 64.9867 36.8811 64.9691C36.8829 64.9895 36.8863 65.0096 36.8912 65.0294L36.8811 65.0219ZM36.3206 63.8538C36.3197 63.8463 36.3197 63.8387 36.3206 63.8312C36.3222 63.8418 36.3256 63.852 36.3307 63.8614L36.3206 63.8538ZM37.997 68.5613C38.0442 68.5998 38.0849 68.6456 38.1177 68.6969C38.0874 68.649 38.0501 68.6058 38.0071 68.5688L37.997 68.5613ZM38.3263 66.0267C38.3328 66.0548 38.3412 66.0825 38.3514 66.1096C38.3413 66.0834 38.3329 66.0565 38.3263 66.0292V66.0267ZM38.7661 66.3507C38.7706 66.4445 38.7955 66.5363 38.839 66.6195C38.7993 66.5363 38.7779 66.4455 38.7762 66.3532L38.7661 66.3507ZM48.8197 68.8953C48.8237 68.8391 48.8339 68.7836 48.8499 68.7295C48.8388 68.7849 48.8337 68.8413 48.8348 68.8978L48.8197 68.8953ZM49.443 68.3929C49.3987 68.3891 49.3541 68.3891 49.3098 68.3929C49.3592 68.3891 49.4089 68.3899 49.4581 68.3954L49.443 68.3929ZM49.5838 68.3929C49.629 68.0689 49.717 67.8102 49.9859 67.7976C49.7321 67.8202 49.6365 68.0789 49.5988 68.4156L49.5838 68.3929ZM74.1647 53.5145C74.1999 53.4391 74.2326 53.3613 74.2602 53.2834C74.2477 53.3713 74.215 53.4492 74.1798 53.5246L74.1647 53.5145ZM74.0491 53.7507C74.0793 53.6929 74.1069 53.6326 74.1346 53.5748C74.122 53.6426 74.0943 53.7029 74.0642 53.7607L74.0491 53.7507ZM74.4889 52.2435C74.4889 52.1581 74.4889 52.0727 74.4889 51.9923C74.5191 52.0878 74.5191 52.1781 74.504 52.2635L74.4889 52.2435ZM74.2653 53.2633C74.2954 53.1829 74.323 53.0992 74.3482 53.0121C74.3331 53.1126 74.3105 53.203 74.2803 53.2834L74.2653 53.2633ZM74.3507 53.0121C74.4012 52.8479 74.4382 52.6799 74.4613 52.5097C74.4444 52.6871 74.4124 52.8628 74.3658 53.0347L74.3507 53.0121ZM74.4613 52.5097C74.4739 52.4243 74.4814 52.3389 74.4864 52.2585C74.4965 52.3565 74.4889 52.4419 74.4764 52.5273L74.4613 52.5097ZM73.2222 51.8164C69.0097 52.2761 64.8953 53.2307 60.791 54.2405C64.9104 53.2483 69.0248 52.2937 73.2373 51.8365L73.2222 51.8164ZM72.6592 56.5038C72.6592 56.5364 72.6592 56.5691 72.6592 56.6042C72.6592 56.4359 72.6793 56.2651 72.6768 56.1019C72.6919 56.2601 72.6793 56.3957 72.6743 56.5314L72.6592 56.5038ZM72.1213 55.0343C72.1227 55.0209 72.1227 55.0075 72.1213 54.9941C72.1304 55.0156 72.1355 55.0386 72.1364 55.0619L72.1213 55.0343ZM72.0886 54.8434C72.0702 54.7766 72.0357 54.7154 71.9881 54.665C72.0454 54.7214 72.0855 54.7928 72.1037 54.871L72.0886 54.8434ZM71.6614 54.5369C71.6288 54.5344 71.596 54.5344 71.5634 54.5369C71.6018 54.5426 71.6397 54.5519 71.6764 54.5646L71.6614 54.5369ZM60.0671 60.3571C60.1167 60.3747 60.1627 60.4011 60.2029 60.435C60.1635 60.409 60.1202 60.3895 60.0747 60.3772L60.0671 60.3571ZM59.7881 57.5563C59.7705 57.3754 59.7504 57.1946 59.7328 57.0037C59.758 57.2222 59.7781 57.403 59.7957 57.5839L59.7881 57.5563ZM58.2022 54.7655C58.5341 54.761 58.8642 54.7154 59.1849 54.6299C58.8678 54.7242 58.5403 54.779 58.2097 54.7931L58.2022 54.7655ZM57.8 54.7253C57.7442 54.8131 57.6716 54.889 57.5864 54.9488C57.6717 54.8979 57.7468 54.8315 57.8076 54.753L57.8 54.7253ZM51.7277 66.2402C51.7277 66.2402 51.7277 66.2703 51.7302 66.2678L51.7277 66.2402ZM51.8132 66.1774C51.8057 66.176 51.798 66.176 51.7905 66.1774C51.8015 66.1839 51.8103 66.1935 51.8157 66.205L51.8132 66.1774ZM53.3664 64.105C53.2735 64.1461 53.1986 64.2192 53.1553 64.311C53.2684 64.1326 53.4066 64.1 53.4066 63.8237C53.4066 63.9844 53.3916 64.0623 53.379 64.1452L53.3664 64.105ZM54.9197 65.9513C54.9636 65.9883 54.9988 66.0347 55.0228 66.0869C54.9989 66.0475 54.9683 66.0127 54.9322 65.984L54.9197 65.9513ZM56.4855 64.8536C56.5352 65.0527 56.6479 65.2305 56.8069 65.3604C56.9659 65.4903 57.1626 65.5654 57.3677 65.5745L57.6191 65.8257C57.2446 65.464 56.5785 65.469 56.4981 64.8988L56.4855 64.8536ZM59.1246 67.0766C59.0583 67.0821 58.9917 67.0745 58.9284 67.054C58.8652 67.0336 58.8066 67.0008 58.7561 66.9576C58.7056 66.9143 58.6642 66.8615 58.6343 66.8022C58.6043 66.7429 58.5865 66.6782 58.5817 66.612C58.5868 66.678 58.6049 66.7424 58.635 66.8014C58.665 66.8604 58.7065 66.913 58.7569 66.956C58.8074 66.9989 58.8658 67.0315 58.9289 67.0518C58.992 67.072 59.0585 67.0796 59.1246 67.0741C59.1631 67.1518 59.2231 67.2168 59.2975 67.2614C59.372 67.3059 59.4576 67.3281 59.5443 67.3253C59.4633 67.3291 59.3828 67.3111 59.3111 67.2731C59.2395 67.2351 59.1794 67.1785 59.1372 67.1093L59.1246 67.0766ZM66.3179 67.9885C66.3156 68.0219 66.3043 68.054 66.2852 68.0814C66.3043 68.0646 66.3197 68.0441 66.3305 68.0212L66.3179 67.9885ZM67.0895 67.7649C67.0612 67.8281 67.0221 67.886 66.9739 67.9358C67.0237 67.8968 67.0669 67.8501 67.1021 67.7976L67.0895 67.7649ZM67.6927 69.7017C67.7531 69.6866 67.8159 69.674 67.8762 69.664C67.8284 69.7067 67.7656 69.7193 67.7053 69.7343L67.6927 69.7017ZM68.5448 67.1344C68.586 67.0842 68.6183 67.0273 68.6403 66.9661C68.3205 67.1763 67.9843 67.3602 67.6349 67.5162L67.0971 67.7524V67.7348L66.3104 67.986C66.3092 67.9785 66.3092 67.9709 66.3104 67.9634C64.4052 68.506 62.5403 68.3226 60.6854 67.7122L60.703 67.7298C60.238 67.3756 59.6398 67.358 59.1824 66.9963L59.1598 67.0214C58.1821 66.1975 56.7696 65.1776 56.2719 63.8538C56.2719 63.8187 56.0557 63.5071 55.9854 63.3765L55.6963 62.9922L55.5154 62.4898C55.4856 62.541 55.4628 62.5959 55.4475 62.6531C55.4475 62.5828 55.5229 62.4999 55.5279 62.417C55.4651 62.3416 55.347 62.3893 55.2766 62.3768C55.3436 62.3804 55.4107 62.3804 55.4777 62.3768C54.2536 58.551 55.5832 57.4006 59.3483 57.5161C59.4966 58.5209 59.386 59.5382 60.0395 60.3496C60.0772 60.4928 60.1149 60.636 60.15 60.7817C60.2199 60.7941 60.2883 60.8143 60.3536 60.842C60.5733 61.123 60.8265 61.3761 61.1077 61.5956C61.1337 61.655 61.1522 61.7175 61.163 61.7815C62.5579 62.5124 64.0207 62.6129 65.3528 61.7437L65.3226 61.7789L65.6368 61.5277C65.6474 61.4642 65.6617 61.4013 65.6795 61.3393C64.3474 61.6709 63.0505 62.3014 61.6204 61.8417C61.5909 61.769 61.5401 61.7068 61.4746 61.6634C62.9173 62.5074 65.2095 61.6633 66.3782 60.7867C66.4472 60.4774 66.6003 60.1932 66.8206 59.9653C67.1348 58.6917 67.1951 57.4533 66.4637 56.2701C66.5366 57.6241 66.7804 58.9781 66.436 60.327C66.2802 60.4049 66.0616 60.4551 66.0817 60.6184C67.1348 59.5558 66.3531 57.604 66.5014 56.2124L66.4486 56.1672L71.7544 54.8685L72.1138 55.3508C72.3422 56.0553 72.704 56.7094 73.1795 57.2774C73.1377 57.1667 73.0744 57.0654 72.9933 56.9792C72.9122 56.893 72.8149 56.8236 72.707 56.775C73.2448 59.0593 72.9628 61.4598 71.9102 63.5574C71.5975 63.9288 71.33 64.3361 71.1135 64.7707H71.1311C70.7415 65.3962 69.7487 65.68 69.6607 66.4386C69.6712 66.3873 69.6762 66.3352 69.6758 66.2829C69.3164 66.617 68.8187 66.8054 68.5574 67.1596L68.5448 67.1344ZM60.2732 60.5229C60.2788 60.5277 60.2831 60.5337 60.2858 60.5405C60.2849 60.5455 60.2849 60.5506 60.2858 60.5556L60.2732 60.5229ZM73.2423 57.7547C73.2378 57.6189 73.2176 57.484 73.182 57.3528C73.2276 57.4961 73.2546 57.6447 73.2624 57.7949L73.2423 57.7547ZM71.9077 63.7609C71.9125 63.6856 71.9125 63.6101 71.9077 63.5348C71.9186 63.6231 71.9228 63.7121 71.9203 63.801L71.9077 63.7609ZM71.8951 63.9217C71.8951 63.9367 71.8951 63.9543 71.8951 63.9669C71.8993 63.9651 71.9035 63.9634 71.9077 63.9618L71.8951 63.9217ZM70.9426 68.0212C70.905 68.0424 70.8717 68.0705 70.8445 68.1041C70.8786 68.0836 70.916 68.0691 70.9551 68.0614L70.9426 68.0212ZM69.6155 66.4713C69.5987 66.5485 69.5603 66.6192 69.5046 66.6753C69.4489 66.7314 69.3784 66.7704 69.3013 66.7878C69.3758 66.7758 69.4455 66.7437 69.5031 66.695C69.5607 66.6463 69.6039 66.5829 69.6281 66.5115L69.6155 66.4713ZM69.1807 69.3601C69.3143 69.0665 69.5303 68.8179 69.8024 68.6444C70.0745 68.471 70.3911 68.3802 70.7138 68.3829C70.3888 68.3861 70.0717 68.484 69.8016 68.6647C69.5315 68.8455 69.32 69.1011 69.1932 69.4002L69.1807 69.3601ZM73.2926 51.7938C73.5791 51.7637 73.8656 51.736 74.1522 51.7109C73.8941 51.7561 73.6185 51.798 73.3252 51.8365L73.2926 51.7938Z" fill="#1D2831"/>
<path d="M51.2655 50.5806C51.2655 50.5956 51.2806 50.6007 51.2906 50.6107L51.2655 50.5806Z" fill="#1D2831"/>
<path d="M46.8369 66.9386L46.8819 66.981H46.8969L46.8369 66.9386Z" fill="#1D2831"/>
<path d="M73.8958 65.037C73.8733 65.037 73.8658 65.0544 73.8633 65.0769L73.8958 65.037Z" fill="#1D2831"/>
<path d="M75.4114 61.0505C75.1928 61.1032 75.2933 60.9048 75.3034 60.7692C75.3411 60.8646 75.3763 60.9575 75.4114 61.0505Z" fill="#EBB267"/>
<path d="M64.3375 70.817C64.245 70.8799 64.1349 70.912 64.023 70.9089C63.9112 70.9057 63.8031 70.8674 63.7142 70.7994L64.3375 70.817Z" fill="#EBB267"/>
<path d="M65.3779 70.6914C65.3812 70.7437 65.377 70.7961 65.3653 70.8471L64.9481 70.7416L65.3779 70.6914Z" fill="#EBB267"/>
<path d="M62.4775 70.7969C62.4638 70.7802 62.4537 70.7609 62.4476 70.7402C62.4416 70.7195 62.4397 70.6978 62.4423 70.6764L62.867 70.7165L62.4775 70.7969Z" fill="#EBB267"/>
<path d="M29.3737 58.016C33.3348 41.2084 45.4594 10.8662 67.0419 15.7169C62.5882 14.1393 58.0892 13.858 53.5375 15.2823L53.4822 15.335C53.2534 15.2948 53.0096 15.4832 52.7759 15.5335L52.7281 15.5787C51.9741 15.7822 51.2201 16.2343 50.4661 16.5207C50.0288 16.7091 49.4758 17.101 49.134 17.1839C49.0008 17.2592 48.7042 17.4702 48.659 17.4752C48.4195 17.6618 48.1578 17.8179 47.8798 17.94L47.4651 18.274C47.3922 18.3142 47.0956 18.4826 47.1283 18.4424C46.9223 18.6605 46.6788 18.84 46.4095 18.9724C46.035 19.2085 45.7711 19.5552 45.4041 19.7637C45.3388 19.8089 45.0547 20.0149 45.1301 19.9521C45.0648 20.0048 44.7858 20.2535 44.8587 20.1806C44.7934 20.2384 44.5471 20.4645 44.5898 20.4193L44.3033 20.6705L44.3183 20.6554C44.0142 20.9443 43.7025 21.2282 43.4085 21.5296C43.3356 21.5924 43.1772 21.7481 43.1571 21.7556C42.9309 21.9491 42.481 22.3862 42.378 22.4691C42.2749 22.552 41.8602 22.9865 41.8753 22.9715C41.8175 23.0393 41.5963 23.2779 41.624 23.2427L41.3726 23.5191C40.3949 24.6947 39.0578 25.8125 38.6381 27.287C38.6908 27.1591 38.7115 27.0203 38.6984 26.8826C38.344 26.9504 38.2586 27.3624 38.1178 27.6362C38.2981 27.6158 38.4632 27.5256 38.5778 27.385C38.0751 27.8246 37.9695 27.4101 37.8991 28.2717C37.9469 28.1485 37.9691 28.0169 37.9645 27.8848C37.5 28.3448 37.1189 28.882 36.8385 29.4724C36.6228 29.7077 36.4262 29.9597 36.2503 30.226L36.1322 30.6355C35.7653 31.2158 35.2148 31.7709 34.9987 32.3939C34.8944 32.4989 34.8094 32.6213 34.7473 32.7556C34.6242 33.0545 34.496 33.356 34.3804 33.6549L34.3955 33.6423L34.119 34.1597L33.8425 34.6621C33.4731 35.3203 32.9804 35.9181 32.8372 36.6717L32.5858 37.2018C31.7162 39.141 30.5073 41.221 30.0725 43.1979C29.5388 44.3399 29.1179 45.5311 28.8158 46.7548C28.8158 46.7548 28.8157 46.7422 28.8333 46.7372C25.3146 57.3679 23.1405 69.4957 26.697 80.3575C26.6316 80.2645 26.5663 80.1716 26.4909 80.0811C26.7867 81.3587 27.2251 82.599 27.7978 83.7788C27.8431 84.4168 28.3005 84.879 28.4312 85.4493C28.9339 85.8738 28.8585 86.7053 29.4366 87.082C29.4215 87.4438 29.7834 87.0142 29.9392 86.9715C29.7963 87.0517 29.6602 87.1432 29.5321 87.2453C29.8488 87.8281 30.085 87.1222 30.3715 87.1926C30.4557 87.1454 30.5296 87.082 30.5891 87.0061C30.6487 86.9302 30.6926 86.8434 30.7184 86.7505L30.9446 86.5696C31.299 86.4189 31.7313 86.1676 31.6684 85.7255L31.1658 85.9767C27.8506 77.0115 27.4786 67.343 29.3737 58.016ZM34.4231 33.6499C34.4359 33.7272 34.4359 33.8061 34.4231 33.8835C34.44 33.8068 34.4443 33.7279 34.4357 33.6499H34.4231ZM34.3904 33.9689C34.3701 34.0149 34.3391 34.0553 34.3 34.087C34.3437 34.0568 34.3791 34.0163 34.403 33.9689H34.3904ZM34.1667 34.1597C34.1795 34.2329 34.1795 34.3077 34.1667 34.3808C34.1836 34.3084 34.1879 34.2336 34.1793 34.1597H34.1667ZM27.2273 81.1337C27.3387 81.3545 27.4369 81.5819 27.5214 81.8144C27.4413 81.5796 27.3473 81.3498 27.2399 81.1262L27.2273 81.1337Z" fill="#F5E7C2"/>
</svg>
