<svg id="Capa_1" data-name="Capa 1" xmlns="http://www.w3.org/2000/svg" width="23.11" height="32" viewBox="0 0 23.11 32"><path d="M13.91,20.68c.2.07.36,0,.49-.29h0a6,6,0,0,0,.8.34,6.48,6.48,0,0,0,3.85.07,3.82,3.82,0,0,0,1.65-.93.36.36,0,0,0,0-.53c-.13-.15-.33-.15-.53,0a4,4,0,0,1-2.1.92h-.07a5.7,5.7,0,0,1-3.31-.52l.26-.19a.38.38,0,0,0,.13-.54A.35.35,0,0,0,14.6,19a2.62,2.62,0,0,0-.89,1.16A.42.42,0,0,0,13.91,20.68Z" transform="translate(-4.35 -0.04)" fill="#e94444"/><path d="M17.19,16.76a6.77,6.77,0,0,1,.78,0c.37,0,.73.07,1.1.13.1,0,.24.12.25.2s-.07.22-.15.3a1,1,0,0,1-.33.19c-.34.15-.69.28-1,.42a.33.33,0,0,0-.22.43.31.31,0,0,0,.4.24,4.6,4.6,0,0,0,1.66-.74,1,1,0,0,0,.39-1,.83.83,0,0,0-.81-.71c-.69-.08-1.39-.08-2.08-.1-.22,0-.32.16-.31.37A.32.32,0,0,0,17.19,16.76Z" transform="translate(-4.35 -0.04)" fill="#e94444"/><path d="M17.69,23c.33.07.67.11,1,.15a2.62,2.62,0,0,0,1.44-.8.47.47,0,0,0,.15-.26c0-.12-.08-.3-.17-.34a.57.57,0,0,0-.42,0,8,8,0,0,1-.82.52,1.48,1.48,0,0,1-1.18-.08.27.27,0,0,0-.39.12.51.51,0,0,0,0,.42A.61.61,0,0,0,17.69,23Z" transform="translate(-4.35 -0.04)" fill="#e94444"/><path d="M10.48,16.64a.43.43,0,0,0,.44.32H11l10.27-2.56.64-.16,0,0h0l0,0h0l0,0h0a.08.08,0,0,0,0,0h0l.07-.09h0a.76.76,0,0,0,0-.11h0a.09.09,0,0,0,0-.05h0v0h0v0h0s0,0,0,0l-.6-2.41a.41.41,0,0,0-.31-.31l-.08,0h-.13L10.2,13.7a.48.48,0,0,0-.16.08l-.09.09a.43.43,0,0,0-.07.35Z" transform="translate(-4.35 -0.04)" fill="#149980"/><path d="M6.6,11.82l3.84,15.41a2.15,2.15,0,0,0,2.61,1.57L24.18,26h0l1-.25h0l.31-.08a2.16,2.16,0,0,0,1.57-2.61L24,10.65l-.13,0a2.12,2.12,0,0,1-.87,0h0l3.14,12.63a1.12,1.12,0,0,1-.81,1.36l-.31.07-1,.25L12.8,27.8A1.13,1.13,0,0,1,11.44,27L7.54,11.3l-.24-.94-.12-.48A1.13,1.13,0,0,1,8,8.52l7.35-1.83,0-1.06L7.75,7.52a2.16,2.16,0,0,0-1.57,2.61l.06.25h0Z" transform="translate(-4.35 -0.04)" fill="#e94444"/><path d="M6,10.69a2.16,2.16,0,0,0-1.57,2.62L8.68,30.4A2.16,2.16,0,0,0,11.29,32l12.45-3.1a2.17,2.17,0,0,0,1.57-2.62l-.12-.48-1,.25.12.48a1.12,1.12,0,0,1-.81,1.36L11,31a1.13,1.13,0,0,1-1.36-.82L5.42,13.06a1.13,1.13,0,0,1,.82-1.36l.31-.08,0,.2-.36-1.44h0l.06.23Z" transform="translate(-4.35 -0.04)" fill="#149980"/><path d="M26.76,2.28a.85.85,0,0,0-1,.7.81.81,0,0,0,.09.53L23.73,4.69a.68.68,0,0,1-1-.4L22,1.68A.82.82,0,0,0,22.47,1a.85.85,0,1,0-1.4.49L19.46,3.74a.69.69,0,0,1-1.06,0L16.78,2A.94.94,0,0,0,17,1.5a.86.86,0,0,0-.7-1,.84.84,0,0,0-1,.7.85.85,0,0,0,.69,1h0l0,3.24V6.5l0,1.14A1.35,1.35,0,0,0,17.27,9l5.44.92.38.06a1.23,1.23,0,0,0,.69-.06,1.33,1.33,0,0,0,.82-.82L26.46,4h0a.85.85,0,0,0,.29-1.68Z" transform="translate(-4.35 -0.04)" fill="#ffa73e"/></svg>